<svg width="540" height="358" viewBox="0 0 540 358" fill="none" xmlns="http://www.w3.org/2000/svg">
<path fill-rule="evenodd" clip-rule="evenodd" d="M66.1011 158.92C60.4357 147.873 59.1579 133.921 77.7537 123.164C77.0077 123.596 68.5273 113.302 67.6913 112.278C64.0738 107.849 61.726 102.509 58.5508 97.7185C53.3139 89.8167 57.2821 70.6143 71.8612 74.3794C71.8612 74.3794 50.4284 67.6874 65.3978 49.0226C63.5574 40.6698 54.4618 -3.18126 74.1152 4.69976C79.505 6.86151 82.9047 12.4312 85.6026 17.7691C86.4194 19.3854 92.6217 38.2139 91.342 38.2169C91.3422 38.2167 113.682 38.1643 107.831 62.8504C107.831 62.8504 148.891 84.3157 120.622 115.364C120.622 115.364 153.984 154.271 128.395 170.943C120.152 176.314 112.285 178.885 105.408 179.902C89.3043 182.285 73.9199 174.166 66.1011 158.92" fill="#E4E8EB"/>
<path fill-rule="evenodd" clip-rule="evenodd" d="M81.8492 195.619C79.9958 198.051 75.5081 197.47 72.8678 197.714C68.4722 198.12 64.1983 199.102 59.7516 199.096C49.9797 199.082 34.8887 195.332 33.1912 183.732C32.0725 176.086 37.0641 169.107 41.8889 163.752C41.8889 163.752 24.9018 167.48 18.6581 162.979C5.18622 153.268 18.3859 136.895 18.3859 136.895C18.3859 136.895 13.8719 136.42 11.6616 135.881C6.11248 134.527 1.24551 129.293 0.2352 123.649C-1.59944 113.4 7.65559 108.023 15.5915 104.411C15.5915 104.411 11.1434 94.9385 14.2664 87.4073C17.3946 79.8649 27.5837 74.4742 41.212 88.7374C41.666 89.2129 42.1237 89.7101 42.585 90.2282C43.1304 90.7792 43.5515 91.2486 43.9609 91.9411C43.74 83.7866 54.7051 79.3899 61.3997 81.2395C64.4793 82.0903 67.2147 84.1834 68.8511 86.936C70.8315 90.2675 70.8047 94.2701 70.6012 98.0226C70.5892 98.2434 70.5763 98.4642 70.5632 98.6851C70.5632 98.6851 102.08 92.1403 104.96 126.634C107.839 161.123 81.8603 195.604 81.8492 195.619" fill="#D8DDE2"/>
<path fill-rule="evenodd" clip-rule="evenodd" d="M52.4207 82.6435C52.1036 82.6435 51.8068 82.4724 51.6958 82.199C51.5554 81.8525 51.7662 81.4736 52.1666 81.3522C52.9181 81.1245 53.694 80.9324 54.4726 80.7817C54.8859 80.7007 55.2973 80.9268 55.3901 81.2847C55.4829 81.6426 55.2223 81.9979 54.8081 82.0781C54.0879 82.2176 53.3701 82.3951 52.6748 82.6061C52.5909 82.6316 52.5049 82.6435 52.4207 82.6435" fill="white"/>
<path fill-rule="evenodd" clip-rule="evenodd" d="M100.72 111.756C100.478 111.756 100.242 111.63 100.111 111.403C96.2462 104.744 90.1421 100.713 81.9671 99.4236C75.8169 98.4534 70.74 99.4863 70.6894 99.4969C70.4744 99.5419 70.2507 99.4829 70.0845 99.3371C69.9184 99.1913 69.8286 98.9757 69.8416 98.7532C69.8549 98.5287 69.8679 98.3044 69.88 98.0799C70.0809 94.3319 70.1173 90.4009 68.2078 87.1565C66.6364 84.487 64.0414 82.483 61.0883 81.6591C59.1589 81.1204 56.7804 81.1227 54.3908 81.6648C54.0111 81.751 53.6326 81.5084 53.5475 81.1224C53.4622 80.7367 53.7018 80.3538 54.0826 80.2676C56.6939 79.6751 59.3152 79.6791 61.4632 80.2785C64.7641 81.1994 67.6645 83.4392 69.4209 86.4231C71.4955 89.9478 71.5036 94.0361 71.3019 97.9393C73.0665 97.6733 77.2278 97.2337 82.1377 98.0012C90.6526 99.3322 97.2887 103.715 101.328 110.677C101.526 111.018 101.414 111.457 101.078 111.657C100.965 111.724 100.842 111.756 100.72 111.756" fill="white"/>
<path fill-rule="evenodd" clip-rule="evenodd" d="M107.574 219.751C106.678 226.109 104.365 232.276 100.603 237.481C91.6054 249.933 60.8642 254.158 58.6457 233.685C53.7746 234.901 48.0795 235.041 44.3775 231.06C43.6014 230.225 40.8114 222.668 41.2778 222.741C41.2767 222.741 33.5327 221.53 33.5327 221.53C23.5836 219.973 17.7713 209.345 22.1254 200.331C22.1887 200.2 22.2542 200.07 22.3219 199.939C25.0845 194.594 30.5106 191.405 36.2436 191.268C38.2899 191.217 40.3764 191.556 42.395 192.326L52.8483 196.31C52.8483 196.31 44.5616 185.726 50.0713 177.826C50.881 176.663 51.992 175.558 53.4717 174.553C62.0969 168.701 69.3191 178.92 72.4101 184.443C73.4558 186.307 74.0295 187.637 74.0295 187.637C74.0295 187.637 74.0581 186.294 74.503 184.537C75.4333 180.849 78.1934 175.339 86.3456 176.57C87.5326 176.75 88.8355 177.073 90.263 177.566C91.1368 177.869 91.9722 178.262 92.7675 178.733C93.3421 179.071 93.8965 179.451 94.4285 179.868C101.042 185.006 104.687 195.617 106.575 202.677C108.039 208.152 108.381 214.028 107.574 219.751" fill="#E4E8EB"/>
<path fill-rule="evenodd" clip-rule="evenodd" d="M58.7385 233.122C58.8794 233.122 59.018 233.164 59.1356 233.249C59.3006 233.364 59.4076 233.547 59.4292 233.75C60.3283 242.233 65.967 245.47 70.5393 246.693C75.2606 247.953 81.1579 247.629 86.7191 245.802C92.2569 243.984 96.9021 240.86 99.4637 237.235C102.975 232.268 105.305 226.206 106.2 219.708C106.98 214.051 106.646 208.207 105.233 202.808C102.327 191.691 98.3865 184.096 93.5236 180.233C93.0188 179.828 92.4942 179.461 91.9627 179.141C91.2089 178.685 90.4224 178.31 89.6233 178.027C88.31 177.563 87.0545 177.236 85.8923 177.055C78.7066 175.948 76.0116 180.517 75.0172 184.547C74.606 186.207 74.5724 187.496 74.5721 187.509C74.5646 187.841 74.3304 188.122 74.0095 188.185C73.6886 188.247 73.368 188.076 73.2393 187.772C73.2338 187.758 72.6739 186.441 71.6771 184.624C69.6839 180.982 65.5839 174.692 60.5172 173.477C58.3426 172.956 56.1633 173.438 54.0389 174.912C52.7201 175.828 51.6543 176.875 50.8722 178.023C45.8061 185.451 53.5036 195.686 53.5819 195.788C53.7731 196.038 53.7767 196.387 53.5908 196.641C53.4049 196.894 53.0757 196.992 52.7845 196.879L42.4976 192.87C40.6353 192.144 38.6905 191.802 36.7106 191.853C31.1628 191.988 26.1437 195.184 23.6115 200.194C23.547 200.321 23.4853 200.446 23.4262 200.572C21.5074 204.633 21.6016 209.27 23.6843 213.293C25.8125 217.405 29.6211 220.176 34.1334 220.901C34.1334 220.901 41.6708 222.107 41.7533 222.119C41.7542 222.119 41.7547 222.119 41.7555 222.119C42.1137 222.178 42.3679 222.505 42.3396 222.871C42.3348 222.933 42.3223 222.993 42.3032 223.046C42.4938 224.295 44.687 230.114 45.2085 230.709C48.7742 234.627 54.4421 234.196 58.5691 233.142C58.6249 233.127 58.6821 233.122 58.7385 233.122ZM76.7328 248.87C74.4665 248.87 72.2533 248.607 70.1854 248.055C63.3862 246.239 59.137 241.509 58.1473 234.692C52.0652 236.071 47.2497 235.03 44.1872 231.664C43.614 231.033 42.5649 228.273 42.1403 227.117C41.4116 225.13 41.0912 224.041 40.9701 223.418C40.1394 223.289 38.2531 222.987 33.917 222.293C28.9668 221.498 24.7889 218.459 22.4546 213.948C20.1655 209.527 20.0632 204.429 22.1734 199.962C22.2387 199.824 22.3062 199.687 22.3759 199.549C25.1401 194.081 30.6202 190.591 36.6764 190.444C38.836 190.388 40.9623 190.762 42.9958 191.554L51.2147 194.757C49.0785 191.241 45.4277 183.529 49.7294 177.222C50.6085 175.931 51.7946 174.762 53.2546 173.748C55.7149 172.041 58.2662 171.488 60.8365 172.105C66.4229 173.445 70.7869 180.095 72.8912 183.939C73.109 184.336 73.306 184.709 73.4819 185.051C73.5347 184.782 73.5966 184.499 73.6697 184.204C74.5982 180.44 77.4505 174.327 86.102 175.662C87.3484 175.856 88.687 176.204 90.0806 176.696C90.9689 177.011 91.8407 177.426 92.6731 177.93C93.256 178.281 93.8311 178.684 94.3824 179.125C99.4865 183.179 103.59 191.027 106.576 202.447C108.035 208.025 108.381 214.062 107.576 219.906L106.888 219.807L107.576 219.906C106.65 226.626 104.235 232.905 100.593 238.058C95.9883 244.573 85.9306 248.87 76.7328 248.87V248.87Z" fill="white"/>
<path fill-rule="evenodd" clip-rule="evenodd" d="M95.079 94.8522C94.7707 94.8522 94.4864 94.6531 94.3955 94.3465L66.7076 0.900171C66.597 0.52771 66.8136 0.137257 67.1914 0.0284704C67.569 -0.0805976 67.9645 0.133322 68.075 0.505784L95.7629 93.9521C95.8735 94.3245 95.6566 94.715 95.2788 94.8238C95.2124 94.8432 95.1451 94.8522 95.079 94.8522" fill="white"/>
<path fill-rule="evenodd" clip-rule="evenodd" d="M87.0827 69.4957C86.91 69.4957 86.737 69.429 86.6044 69.2957C86.3356 69.0258 86.332 68.5843 86.5962 68.3097L109.649 44.3477C109.913 44.073 110.345 44.0691 110.614 44.3393C110.883 44.6093 110.886 45.0507 110.622 45.3251L87.569 69.2874C87.4355 69.4262 87.259 69.4957 87.0827 69.4957" fill="white"/>
<path fill-rule="evenodd" clip-rule="evenodd" d="M84.7704 61.0435C84.7488 61.0435 84.727 61.0424 84.7051 61.0404L60.7318 58.7152C60.3515 58.6783 60.0721 58.3293 60.1075 57.9358C60.1432 57.5422 60.4801 57.2542 60.8606 57.29L84.8343 59.6154C85.2143 59.6524 85.4936 60.001 85.4579 60.3946C85.4245 60.7656 85.1233 61.0435 84.7704 61.0435" fill="white"/>
<path fill-rule="evenodd" clip-rule="evenodd" d="M84.7662 174.678C84.5531 174.678 84.3428 174.58 84.2065 174.395L23.6148 92.2076C23.3864 91.898 23.4518 91.4611 23.7606 91.2323C24.0696 91.0033 24.5049 91.0689 24.7333 91.3782L85.3248 173.566C85.5531 173.876 85.488 174.313 85.179 174.541C85.0547 174.634 84.9097 174.678 84.7662 174.678" fill="white"/>
<path fill-rule="evenodd" clip-rule="evenodd" d="M46.7475 123.026C46.686 123.026 46.6233 123.019 46.5608 123.003C46.1714 122.906 45.9392 122.531 46.0419 122.164L53.0353 97.2418C53.138 96.8753 53.5362 96.6565 53.9265 96.7534C54.3159 96.8503 54.5481 97.2258 54.4455 97.5923L47.452 122.515C47.3657 122.823 47.0704 123.026 46.7475 123.026" fill="white"/>
<path fill-rule="evenodd" clip-rule="evenodd" d="M107.297 220.696C107.253 220.696 107.209 220.693 107.164 220.684L21.2323 204.242C20.8507 204.169 20.6005 203.802 20.6739 203.421C20.7471 203.04 21.1178 202.793 21.4974 202.864L107.429 219.307C107.811 219.38 108.061 219.747 107.988 220.126C107.923 220.463 107.628 220.696 107.297 220.696" fill="white"/>
<path fill-rule="evenodd" clip-rule="evenodd" d="M69.707 213.183C69.4026 213.183 69.1189 212.995 69.0171 212.697L59.2028 184.067C59.0754 183.695 59.2808 183.292 59.6617 183.168C60.0425 183.042 60.4551 183.243 60.5822 183.616L70.3968 212.246C70.5243 212.618 70.3188 213.021 69.938 213.145C69.8615 213.171 69.7835 213.183 69.707 213.183" fill="white"/>
<path fill-rule="evenodd" clip-rule="evenodd" d="M34.5057 152.139C34.1337 152.139 33.8248 151.83 33.8092 151.436C33.7936 151.032 34.093 150.691 34.4778 150.674L65.9521 149.322C66.3332 149.306 66.6617 149.62 66.6776 150.025C66.6932 150.429 66.3938 150.77 66.009 150.787L34.535 152.139C34.5252 152.139 34.5154 152.139 34.5057 152.139" fill="white"/>
<path fill-rule="evenodd" clip-rule="evenodd" d="M73.9254 159.652C73.8805 159.652 73.8347 159.647 73.7887 159.638C73.4248 159.561 73.1909 159.196 73.266 158.823L81.3114 118.881C81.3865 118.508 81.7423 118.268 82.1064 118.345C82.4703 118.422 82.7045 118.787 82.6292 119.16L74.5838 159.102C74.5181 159.428 74.2382 159.652 73.9254 159.652" fill="white"/>
<path fill-rule="evenodd" clip-rule="evenodd" d="M524.035 84.737V66.8624H514.404C514.096 65.9961 513.746 65.1509 513.351 64.3295L520.14 57.5099L507.738 45.1318L500.938 51.9632C500.158 51.5921 499.355 51.2592 498.532 50.966V41.3218H481.024V50.9506C480.008 51.3113 479.017 51.7336 478.063 52.2126L471.118 45.5303L458.987 58.1758L465.921 64.8457C465.616 65.5175 465.342 66.2052 465.093 66.9061H455.479V84.4411H465.11C465.493 85.5195 465.944 86.566 466.459 87.574L459.639 94.763L472.22 107.197L479.339 99.6881C479.876 99.9224 480.425 100.139 480.982 100.337V110.817H498.49V100.353C499.29 100.068 500.077 99.7453 500.841 99.3863L508.158 106.677L520.386 93.885L513.382 86.907C513.721 86.2005 514.026 85.4769 514.297 84.737H524.035" fill="#E4E8EB"/>
<path fill-rule="evenodd" clip-rule="evenodd" d="M357.809 58.226H380.348V46.0173H357.809V58.226Z" fill="#E4E8EB"/>
<path fill-rule="evenodd" clip-rule="evenodd" d="M52.5912 295.795L44.1234 298.644L33.8086 289.284L42.2763 286.435L52.5912 295.795" fill="#E4E8EB"/>
<path fill-rule="evenodd" clip-rule="evenodd" d="M42.741 286.276L34.748 289.252L41.7812 278.142L49.7741 275.165L42.741 286.276" fill="#E4E8EB"/>
<path fill-rule="evenodd" clip-rule="evenodd" d="M49.7443 275.165L60.1042 284.837L52.6207 295.826L42.2607 286.154L49.7443 275.165" fill="#E4E8EB"/>
<path fill-rule="evenodd" clip-rule="evenodd" d="M52.9864 295.826C52.8544 295.826 52.7224 295.778 52.6178 295.678L42.4358 286.087C42.2369 285.902 42.2031 285.593 42.3569 285.365L49.7118 274.467C49.8821 274.215 50.2205 274.15 50.4682 274.324C50.7154 274.498 50.7778 274.846 50.6072 275.098L43.5202 285.599L53.3553 294.861C53.5759 295.069 53.5899 295.421 53.3863 295.646C53.2789 295.766 53.1329 295.826 52.9864 295.826" fill="white"/>
<path fill-rule="evenodd" clip-rule="evenodd" d="M34.3494 290.191C34.1245 290.191 33.9146 290.022 33.8379 289.752C33.7411 289.413 33.8921 289.047 34.1745 288.931L42.4839 285.531C42.7667 285.414 43.0739 285.597 43.1706 285.933C43.2674 286.273 43.1164 286.639 42.834 286.755L34.5245 290.155C34.4664 290.178 34.4075 290.191 34.3494 290.191" fill="white"/>
<path fill-rule="evenodd" clip-rule="evenodd" d="M48.1963 272.348C47.9582 272.348 47.7297 272.25 47.62 272.083L45.1411 268.317C44.9885 268.088 45.1228 267.809 45.4409 267.699C45.7587 267.586 46.1403 267.684 46.2926 267.916L48.7718 271.681C48.9242 271.913 48.7899 272.19 48.4717 272.302C48.3828 272.331 48.2889 272.348 48.1963 272.348" fill="#F0E6FF"/>
<path fill-rule="evenodd" clip-rule="evenodd" d="M53.144 273.287C52.9648 273.287 52.7892 273.203 52.6827 273.043C52.5142 272.794 52.5841 272.455 52.8386 272.29L55.4899 270.56C55.7444 270.395 56.087 270.462 56.2555 270.714C56.424 270.963 56.3541 271.302 56.0995 271.467L53.4486 273.197C53.3546 273.259 53.2486 273.287 53.144 273.287" fill="#F0E6FF"/>
<path fill-rule="evenodd" clip-rule="evenodd" d="M527.791 157.865L518.006 169.983L517.461 146.504L527.791 157.865" fill="#E4E8EB"/>
<path fill-rule="evenodd" clip-rule="evenodd" d="M517.653 147.553L518.125 167.939L526.533 157.417L517.653 147.553ZM517.608 169.983C517.552 169.983 517.493 169.974 517.436 169.956C517.216 169.885 517.066 169.688 517.061 169.463L516.522 146.108C516.516 145.885 516.657 145.682 516.874 145.601C517.089 145.52 517.335 145.579 517.484 145.747L527.656 157.048C527.828 157.239 527.837 157.522 527.676 157.722L518.043 169.776C517.938 169.909 517.775 169.983 517.608 169.983V169.983Z" fill="#F0E6FF"/>
<path fill-rule="evenodd" clip-rule="evenodd" d="M517.461 145.565L539.061 152.932L527.546 157.774L517.461 145.565" fill="#E4E8EB"/>
<path fill-rule="evenodd" clip-rule="evenodd" d="M519.691 147.295L528.177 157.474L537.867 153.438L519.691 147.295ZM528.021 158.713C527.868 158.713 527.718 158.645 527.612 158.519L517.594 146.502C517.435 146.31 517.416 146.031 517.549 145.819C517.686 145.607 517.936 145.515 518.17 145.592L539.627 152.844C539.844 152.918 539.994 153.125 540 153.363C540.008 153.601 539.872 153.819 539.66 153.907L528.221 158.673C528.157 158.7 528.088 158.713 528.021 158.713V158.713Z" fill="#F0E6FF"/>
<path fill-rule="evenodd" clip-rule="evenodd" d="M539.061 153.078L531.321 165.134L517.461 169.983L527.255 157.66L539.061 153.078" fill="#E4E8EB"/>
<path fill-rule="evenodd" clip-rule="evenodd" d="M528.076 157.668L519.614 168.312L531.399 164.191L538.079 153.788L528.076 157.668ZM518.014 169.983C517.84 169.983 517.672 169.903 517.567 169.76C517.421 169.567 517.427 169.304 517.575 169.114L527.293 156.892C527.356 156.816 527.436 156.757 527.527 156.721L539.241 152.177C539.463 152.091 539.716 152.154 539.87 152.333C540.024 152.512 540.044 152.766 539.916 152.964L532.236 164.92C532.171 165.023 532.071 165.101 531.954 165.142L518.202 169.951C518.142 169.972 518.076 169.983 518.014 169.983V169.983Z" fill="#F0E6FF"/>
<path fill-rule="evenodd" clip-rule="evenodd" d="M527.241 157.774C527.088 157.774 526.936 157.708 526.829 157.58L516.656 145.563C516.458 145.327 516.481 144.97 516.709 144.765C516.938 144.56 517.285 144.585 517.486 144.82L527.656 156.837C527.856 157.073 527.831 157.43 527.602 157.635C527.498 157.728 527.371 157.774 527.241 157.774" fill="white"/>
<path fill-rule="evenodd" clip-rule="evenodd" d="M518.012 169.983C517.896 169.983 517.779 169.946 517.68 169.869C517.437 169.683 517.389 169.334 517.573 169.089L527.426 155.951C527.488 155.869 527.57 155.806 527.666 155.768L539.252 151.238C539.535 151.127 539.855 151.269 539.963 151.556C540.073 151.843 539.931 152.166 539.648 152.276L528.207 156.75L518.45 169.762C518.343 169.906 518.179 169.983 518.012 169.983" fill="white"/>
<path fill-rule="evenodd" clip-rule="evenodd" d="M79.8262 337.148H495.861V89.2174H79.8262V337.148Z" fill="white"/>
<path fill-rule="evenodd" clip-rule="evenodd" d="M73.252 342.783H500.556V83.5826H73.252V342.783ZM84.222 331.808H489.586V94.5569H84.222V331.808Z" fill="#1063FE"/>
<path fill-rule="evenodd" clip-rule="evenodd" d="M91.0961 59.1652L80.7656 55.4087L91.0961 59.1652" fill="white"/>
<path fill-rule="evenodd" clip-rule="evenodd" d="M441.138 34.7478C440.941 34.7478 440.747 34.6644 440.609 34.503C440.369 34.2156 440.409 33.7891 440.699 33.5507C445.218 29.8518 450.16 26.5788 455.384 23.8226C461.996 20.3337 469.012 17.6967 476.233 15.9844C476.599 15.8962 476.971 16.121 477.059 16.484C477.149 16.8473 476.92 17.2123 476.551 17.2994C469.446 18.985 462.54 21.5812 456.029 25.0156C450.887 27.7291 446.024 30.9509 441.575 34.5923C441.445 34.6969 441.291 34.7478 441.138 34.7478" fill="#78A9FF"/>
<path fill-rule="evenodd" clip-rule="evenodd" d="M434.294 34.1738L432.018 42.4951L439.743 41.6763L434.294 34.1738ZM430.122 44.1392L433.722 30.9913L442.331 42.8453L430.122 44.1392V44.1392Z" fill="#78A9FF"/>
<path fill-rule="evenodd" clip-rule="evenodd" d="M347.478 24.4174L342.783 23.1776L338.087 21.9375L341.504 18.4818L344.925 15.0261L346.203 19.7219L347.478 24.4174" fill="#E4E8EB"/>
<path fill-rule="evenodd" clip-rule="evenodd" d="M329.162 12.7578L336.927 14.8075L334.815 7.04493L329.162 12.7578ZM337.606 15.9652C337.568 15.9652 337.527 15.96 337.486 15.9493L328.114 13.4754C327.95 13.4315 327.818 13.3026 327.775 13.137C327.728 12.9711 327.775 12.794 327.898 12.672L334.719 5.77672C334.84 5.65497 335.017 5.60698 335.182 5.65058C335.349 5.69418 335.477 5.82333 335.524 5.98895L338.071 15.3581C338.115 15.524 338.068 15.7011 337.948 15.8232C337.858 15.915 337.735 15.9652 337.606 15.9652V15.9652Z" fill="#E4E8EB"/>
<path fill-rule="evenodd" clip-rule="evenodd" d="M351.253 51.5844H371.875V40.4504H351.253V51.5844ZM372.353 52.5913H350.775C350.509 52.5913 350.296 52.3659 350.296 52.0879V39.9469C350.296 39.6689 350.509 39.4435 350.775 39.4435H372.353C372.619 39.4435 372.835 39.6689 372.835 39.9469V52.0879C372.835 52.3659 372.619 52.5913 372.353 52.5913V52.5913Z" fill="#D8DDE2"/>
<path fill-rule="evenodd" clip-rule="evenodd" d="M345.884 120.209H280.517C280.154 120.209 279.861 119.788 279.861 119.27C279.861 118.751 280.154 118.33 280.517 118.33H345.884C346.247 118.33 346.54 118.751 346.54 119.27C346.54 119.788 346.247 120.209 345.884 120.209" fill="#E4E8EB"/>
<path fill-rule="evenodd" clip-rule="evenodd" d="M123.681 254.504C123.319 254.504 123.026 254.213 123.026 253.851V118.33H269.816C270.178 118.33 270.47 118.623 270.47 118.984C270.47 119.345 270.178 119.638 269.816 119.638H124.335V253.851C124.335 254.213 124.042 254.504 123.681 254.504" fill="#E4E8EB"/>
<path fill-rule="evenodd" clip-rule="evenodd" d="M123.966 280.8C123.447 280.8 123.026 280.5 123.026 280.134V263.622C123.026 263.254 123.447 262.957 123.966 262.957C124.484 262.957 124.905 263.254 124.905 263.622V280.134C124.905 280.5 124.484 280.8 123.966 280.8" fill="#E4E8EB"/>
<path fill-rule="evenodd" clip-rule="evenodd" d="M237.886 311.791H165.941C165.58 311.791 165.287 311.372 165.287 310.852C165.287 310.332 165.58 309.913 165.941 309.913H237.886C238.248 309.913 238.539 310.332 238.539 310.852C238.539 311.372 238.248 311.791 237.886 311.791" fill="#E4E8EB"/>
<path fill-rule="evenodd" clip-rule="evenodd" d="M445.148 311.791H277.697C277.335 311.791 277.044 311.5 277.044 311.139C277.044 310.778 277.335 310.487 277.697 310.487H443.843V120.575H361.467C361.109 120.575 360.815 120.283 360.815 119.923C360.815 119.562 361.109 119.27 361.467 119.27H445.148V311.791" fill="#E4E8EB"/>
<path fill-rule="evenodd" clip-rule="evenodd" d="M444.495 247.93H122.741C122.38 247.93 122.087 247.511 122.087 246.991C122.087 246.471 122.38 246.052 122.741 246.052H444.495C444.856 246.052 445.148 246.471 445.148 246.991C445.148 247.511 444.856 247.93 444.495 247.93" fill="#E4E8EB"/>
<path fill-rule="evenodd" clip-rule="evenodd" d="M445.43 184.07H387.579C387.215 184.07 386.922 183.649 386.922 183.13C386.922 182.612 387.215 182.191 387.579 182.191H445.43C445.794 182.191 446.087 182.612 446.087 183.13C446.087 183.649 445.794 184.07 445.43 184.07" fill="#E4E8EB"/>
<path fill-rule="evenodd" clip-rule="evenodd" d="M349.644 184.07H123.679C123.318 184.07 123.026 183.649 123.026 183.13C123.026 182.612 123.318 182.191 123.679 182.191H349.644C350.005 182.191 350.296 182.612 350.296 183.13C350.296 183.649 350.005 184.07 349.644 184.07" fill="#E4E8EB"/>
<path fill-rule="evenodd" clip-rule="evenodd" d="M338.085 311.791C337.57 311.791 337.147 311.496 337.147 311.129V305.88C337.147 305.513 337.57 305.217 338.085 305.217C338.603 305.217 339.026 305.513 339.026 305.88V311.129C339.026 311.496 338.603 311.791 338.085 311.791" fill="#E4E8EB"/>
<path fill-rule="evenodd" clip-rule="evenodd" d="M338.085 224.452C337.57 224.452 337.147 224.159 337.147 223.8V119.92C337.147 119.561 337.57 119.27 338.085 119.27C338.603 119.27 339.026 119.561 339.026 119.92V223.8C339.026 224.159 338.603 224.452 338.085 224.452" fill="#E4E8EB"/>
<path fill-rule="evenodd" clip-rule="evenodd" d="M231.026 311.791C230.506 311.791 230.087 311.5 230.087 311.139V119.923C230.087 119.562 230.506 119.27 231.026 119.27C231.546 119.27 231.965 119.562 231.965 119.923V311.139C231.965 311.5 231.546 311.791 231.026 311.791" fill="#E4E8EB"/>
<path fill-rule="evenodd" clip-rule="evenodd" d="M138.678 126.087H142.216V124.904H138.678V126.087ZM145.754 126.087H149.292V124.904H145.754V126.087ZM152.831 126.087H156.369V124.904H152.831V126.087ZM159.907 126.087H163.445V124.904H159.907V126.087ZM166.983 126.087H170.521V124.904H166.983V126.087ZM174.059 126.087H177.598V124.904H174.059V126.087ZM181.136 126.087H184.674V124.904H181.136V126.087ZM188.212 126.087H191.75V124.904H188.212V126.087ZM195.288 126.087H198.826V124.904H195.288V126.087ZM202.365 126.087H205.903V124.904H202.365V126.087ZM209.441 126.087H212.979V124.904H209.441V126.087ZM216.517 126.087H220.054V124.904H216.517V126.087ZM225.391 127.833H224.212V126.087H223.594V124.904H225.391V127.833ZM138.052 132.554H139.231V129.006H138.052V132.554ZM224.212 134.928H225.391V131.381H224.212V134.928ZM138.052 136.316H139.231V136.101H138.052V136.316ZM224.212 142.023H225.391V138.475H224.212V142.023ZM224.212 149.117H225.391V145.57H224.212V149.117ZM224.212 156.212H225.391V152.665H224.212V156.212ZM224.212 163.307H225.391V159.759H224.212V163.307ZM224.212 170.401H225.391V166.854H224.212V170.401ZM224.212 177.496H225.391V173.948H224.212V177.496Z" fill="#78A9FF"/>
<path fill-rule="evenodd" clip-rule="evenodd" d="M129.6 195.339H216V135.235H129.6V195.339Z" fill="white"/>
<path fill-rule="evenodd" clip-rule="evenodd" d="M129.963 194.976H214.697V135.598H129.963V194.976ZM128.661 196.278H216V134.296H128.661V196.278Z" fill="#1063FE"/>
<path fill-rule="evenodd" clip-rule="evenodd" d="M142.18 171.495H203.42V142.175H142.18V171.495ZM140.869 172.8H204.73V140.87H140.869V172.8Z" fill="#1063FE"/>
<path fill-rule="evenodd" clip-rule="evenodd" d="M148.383 167.165H152.139V153.078H148.383V167.165Z" fill="#1063FE"/>
<path fill-rule="evenodd" clip-rule="evenodd" d="M155.896 167.165H159.652V147.443H155.896V167.165Z" fill="#78A9FF"/>
<path fill-rule="evenodd" clip-rule="evenodd" d="M163.408 167.165H167.165V157.774H163.408V167.165Z" fill="#78A9FF"/>
<path fill-rule="evenodd" clip-rule="evenodd" d="M171.861 167.165H175.618V149.322H171.861V167.165Z" fill="#072289"/>
<path fill-rule="evenodd" clip-rule="evenodd" d="M179.374 167.165H183.131V144.626H179.374V167.165Z" fill="#1063FE"/>
<path fill-rule="evenodd" clip-rule="evenodd" d="M186.887 167.165H190.643V154.017H186.887V167.165Z" fill="#78A9FF"/>
<path fill-rule="evenodd" clip-rule="evenodd" d="M195.339 167.165H199.095V149.322H195.339V167.165Z" fill="#1063FE"/>
<path fill-rule="evenodd" clip-rule="evenodd" d="M143.687 182.191H148.382V177.496H143.687V182.191Z" fill="#78A9FF"/>
<path fill-rule="evenodd" clip-rule="evenodd" d="M143.687 190.643H148.382V185.948H143.687V190.643Z" fill="#78A9FF"/>
<path opacity="0.320661" fill-rule="evenodd" clip-rule="evenodd" d="M155.896 180.313H202.852V178.435H155.896V180.313Z" fill="#78A9FF"/>
<path opacity="0.320661" fill-rule="evenodd" clip-rule="evenodd" d="M155.896 188.765H202.852V186.887H155.896V188.765Z" fill="#78A9FF"/>
<path fill-rule="evenodd" clip-rule="evenodd" d="M242.758 195.58H246.296V194.4H242.758V195.58ZM249.833 195.58H253.373V194.4H249.833V195.58ZM256.911 195.58H260.448V194.4H256.911V195.58ZM263.988 195.58H267.526V194.4H263.988V195.58ZM271.063 195.58H274.6V194.4H271.063V195.58ZM278.141 195.58H281.678V194.4H278.141V195.58ZM285.215 195.58H288.753V194.4H285.215V195.58ZM292.293 195.58H295.83V194.4H292.293V195.58ZM299.368 195.58H302.908V194.4H299.368V195.58ZM306.445 195.58H309.983V194.4H306.445V195.58ZM313.52 195.58H317.06V194.4H313.52V195.58ZM320.598 195.58H324.135V194.4H320.598V195.58ZM326.577 199.04H327.756V195.499H326.577V199.04ZM240.417 200.319H241.596V196.778H240.417V200.319ZM326.577 206.122H327.756V202.581H326.577V206.122ZM240.417 207.401H241.596V203.86H240.417V207.401ZM326.577 213.204H327.756V209.663H326.577V213.204ZM240.417 214.483H241.596V210.942H240.417V214.483ZM326.577 220.285H327.756V216.745H326.577V220.285ZM240.417 221.566H241.596V218.024H240.417V221.566ZM326.577 227.368H327.756V223.825H326.577V227.368ZM240.417 228.646H241.596V225.106H240.417V228.646ZM240.417 235.729H241.596V232.186H240.417V235.729ZM240.417 242.809H241.596V239.269H240.417V242.809ZM240.417 249.892H241.596V246.352H240.417V249.892ZM242.186 256.383H240.417V253.433H241.596V255.203H242.186V256.383ZM245.723 256.383H249.263V255.203H245.723V256.383ZM252.801 256.383H256.338V255.203H252.801V256.383ZM259.878 256.383H263.416V255.203H259.878V256.383ZM266.953 256.383H270.49V255.203H266.953V256.383ZM274.03 256.383H277.568V255.203H274.03V256.383ZM281.105 256.383H284.643V255.203H281.105V256.383ZM288.183 256.383H291.72V255.203H288.183V256.383ZM295.258 256.383H298.798V255.203H295.258V256.383ZM302.335 256.383H305.872V255.203H302.335V256.383ZM309.41 256.383H312.95V255.203H309.41V256.383Z" fill="#78A9FF"/>
<path fill-rule="evenodd" clip-rule="evenodd" d="M196.278 275.165H282.678V215.061H196.278V275.165Z" fill="white"/>
<path fill-rule="evenodd" clip-rule="evenodd" d="M197.58 274.801H282.314V215.424H197.58V274.801ZM196.278 276.104H283.617V214.122H196.278V276.104Z" fill="#1063FE"/>
<path fill-rule="evenodd" clip-rule="evenodd" d="M208.487 246.058L214.488 228.209H226.489L229.179 237.133H239.32L244.907 247.651L263.736 239.046L269.531 269.53L208.487 246.058" fill="#BED5FF"/>
<path fill-rule="evenodd" clip-rule="evenodd" d="M205.67 249.705V261.767L270.47 269.53L257.812 244.937L236.927 246.933L218.239 233.844L205.67 249.705" fill="#78A9FF"/>
<path fill-rule="evenodd" clip-rule="evenodd" d="M205.67 241.357V269.53H270.47L253.157 259.193L236.321 257.651L221.036 244.86L205.67 241.357" fill="#1063FE"/>
<path fill-rule="evenodd" clip-rule="evenodd" d="M245.113 226.33H249.809V221.635H245.113V226.33Z" fill="#1063FE"/>
<path fill-rule="evenodd" clip-rule="evenodd" d="M245.113 233.843H249.809V229.148H245.113V233.843Z" fill="#BED5FF"/>
<path fill-rule="evenodd" clip-rule="evenodd" d="M253.565 232.904H274.226V229.148H253.565V232.904Z" fill="#BED5FF"/>
<path fill-rule="evenodd" clip-rule="evenodd" d="M223.513 244.173C223.513 245.73 222.251 246.991 220.695 246.991C219.14 246.991 217.878 245.73 217.878 244.173C217.878 242.618 219.14 241.357 220.695 241.357C222.251 241.357 223.513 242.618 223.513 244.173" fill="white"/>
<path fill-rule="evenodd" clip-rule="evenodd" d="M239.479 256.381C239.479 257.939 238.217 259.2 236.663 259.2C235.105 259.2 233.844 257.939 233.844 256.381C233.844 254.827 235.105 253.565 236.663 253.565C238.217 253.565 239.479 254.827 239.479 256.381" fill="white"/>
<path fill-rule="evenodd" clip-rule="evenodd" d="M255.443 258.259C255.443 259.817 254.182 261.078 252.625 261.078C251.07 261.078 249.809 259.817 249.809 258.259C249.809 256.705 251.07 255.443 252.625 255.443C254.182 255.443 255.443 256.705 255.443 258.259" fill="white"/>
<path fill-rule="evenodd" clip-rule="evenodd" d="M253.565 226.33H274.226V222.574H253.565V226.33Z" fill="#1063FE"/>
<path fill-rule="evenodd" clip-rule="evenodd" d="M509.009 336.549L510.042 346.539H521.217L521.011 334.33L509.009 336.549" fill="#FFBFAA"/>
<path fill-rule="evenodd" clip-rule="evenodd" d="M495.861 336.626L495.019 347.478H482.713L484.58 333.391L495.861 336.626" fill="#FFBFAA"/>
<path fill-rule="evenodd" clip-rule="evenodd" d="M523.096 339.026L519.08 338.978L508.191 338.851L507.945 336.123L501.534 265.374L501.496 264.976L521.817 263.896L523.096 339.026" fill="#78A9FF"/>
<path fill-rule="evenodd" clip-rule="evenodd" d="M507.13 267.556L502.167 300.522L496.156 338.852L487.719 338.953L481.773 339.026L485.24 298.325L489.687 262.017L501.5 265.769L507.13 267.556" fill="#78A9FF"/>
<path fill-rule="evenodd" clip-rule="evenodd" d="M509.009 223.288C503.632 230.996 501.611 239.382 500.942 247.93C497.739 237.163 498.521 228.126 499.74 223.326L504.502 222.574L509.009 223.288" fill="white"/>
<path fill-rule="evenodd" clip-rule="evenodd" d="M522.157 224.779V269.53H486.47L489.28 224.439L499.576 222.622L499.615 222.613C498.413 227.54 497.641 236.818 500.801 247.871C501.461 239.096 503.455 230.487 508.759 222.574L508.86 222.591L522.157 224.779" fill="#BED5FF"/>
<path fill-rule="evenodd" clip-rule="evenodd" d="M508.07 222.338L499.152 230.087L498.679 222.338L498.917 205.67H508.07V222.338" fill="#FFBFAA"/>
<path fill-rule="evenodd" clip-rule="evenodd" d="M502.752 221.635H498.36C495.941 221.635 493.982 219.698 493.982 217.31V205.67H507.13V217.31C507.13 219.698 505.172 221.635 502.752 221.635" fill="#FFBFAA"/>
<path fill-rule="evenodd" clip-rule="evenodd" d="M508.262 206.939C506.592 208.286 504.626 209.18 502.547 209.586C500.899 209.909 499.234 210.145 497.569 210.266C496.158 210.368 494.69 210.474 493.304 210.128C492.359 209.892 491.482 209.398 491.288 208.32C491.071 207.121 492.016 205.912 492.984 205.381C492.984 205.381 489.56 204.223 492.108 201.99C492.182 201.926 491.83 200.226 491.822 200.045C491.693 197.578 493.607 195.837 495.946 196.377C500.419 197.411 502.633 202.816 507.323 203.314C511.264 203.732 510.065 205.485 508.262 206.939" fill="#0B1E57"/>
<path fill-rule="evenodd" clip-rule="evenodd" d="M499.617 200.596C499.617 200.596 508.812 196.815 511.133 201.257C513.457 205.7 509.296 213.829 508.038 214.963C506.78 216.097 504.264 207.023 504.264 207.023L499.617 200.596" fill="#0B1E57"/>
<path fill-rule="evenodd" clip-rule="evenodd" d="M507.6 216.939V216.939C506.304 216.939 505.252 215.868 505.252 214.547V213.696C505.252 212.375 506.304 211.304 507.6 211.304C508.898 211.304 509.948 212.375 509.948 213.696V214.547C509.948 215.868 508.898 216.939 507.6 216.939" fill="#FFBFAA"/>
<path opacity="0.366653" fill-rule="evenodd" clip-rule="evenodd" d="M499.531 256.383C499.523 256.383 499.519 256.383 499.515 256.383C499.043 256.377 498.671 256.11 498.679 255.789L498.853 249.442C498.861 249.124 499.24 248.87 499.705 248.87C499.709 248.87 499.717 248.87 499.72 248.87C500.189 248.878 500.565 249.142 500.557 249.463L500.383 255.811C500.371 256.128 499.992 256.383 499.531 256.383" fill="#0B1E57"/>
<path fill-rule="evenodd" clip-rule="evenodd" d="M499.889 222.574C499.525 222.574 499.285 222.559 499.246 222.556C498.912 222.531 498.658 222.21 498.68 221.841C498.702 221.471 498.989 221.193 499.326 221.214C500.309 221.287 503.105 221.202 504.212 219.958C504.45 219.692 504.833 219.689 505.071 219.949C505.311 220.212 505.314 220.637 505.076 220.899C503.748 222.391 501.112 222.574 499.889 222.574" fill="#2A0055"/>
<path fill-rule="evenodd" clip-rule="evenodd" d="M487.988 261.65L491.33 259.864L493.84 256.636C494.193 256.179 494.912 256.374 494.999 256.949L495.245 258.597L496.868 258.053C498.213 257.601 499.645 257.497 501.039 257.751L503.01 258.106C503.656 258.225 504.103 258.828 504.039 259.494C503.972 260.18 503.387 260.691 502.715 260.648L500.477 260.507L496.576 261.873L499.222 262.305C500.19 262.465 501.126 262.779 501.996 263.241L503.517 264.045C504.17 264.393 504.474 265.18 504.227 265.888C504.045 266.41 503.599 266.788 503.062 266.873L502.772 266.918L502.851 267.042C503.123 267.474 503.135 268.024 502.886 268.467C502.526 269.113 501.726 269.35 501.086 269L499.581 268.182C498.816 267.764 497.961 267.561 497.097 267.587L494.822 267.654L496.842 270.498C497.323 271.176 496.97 272.135 496.173 272.318C495.825 272.4 495.46 272.31 495.187 272.076L492.463 269.742L489.054 269.313L485.828 267.688L483.492 268.616L481.773 261.105L487.988 261.65" fill="#FFBFAA"/>
<path fill-rule="evenodd" clip-rule="evenodd" d="M488.455 225.391L485.93 225.749C482.618 226.419 479.741 228.559 478.04 231.619L469.321 245.863C468.352 247.446 468.399 249.489 469.443 251.019L480.174 266.76C480.828 267.718 481.724 268.47 482.762 268.929L486.26 270.47L488.044 261.04L482.099 247.901L493.043 234.16L488.455 225.391" fill="#BED5FF"/>
<path fill-rule="evenodd" clip-rule="evenodd" d="M524.17 272.886L524.093 273.683C523.934 275.324 524.102 276.979 524.593 278.554L525.045 280.02L524.566 284.339C524.439 285.487 525.119 286.574 526.213 286.975C526.645 287.134 527.115 287.173 527.567 287.089L528.43 286.931C528.548 287.558 529.054 288.043 529.692 288.143L530.514 288.268C531.637 288.441 532.778 288.109 533.63 287.365L534.014 287.836C534.514 288.452 535.483 288.377 535.882 287.694L537.183 285.47L537.056 280.836C537.026 279.766 536.677 278.727 536.054 277.852L534.36 275.466L532.01 270.47L524.17 272.886" fill="#FFBFAA"/>
<path fill-rule="evenodd" clip-rule="evenodd" d="M535.752 274.226L537.004 276.712C537.438 277.574 537.043 278.711 536.245 278.897C535.852 278.989 535.452 278.82 535.184 278.448L532.487 274.693L535.752 274.226" fill="#FFBFAA"/>
<path fill-rule="evenodd" clip-rule="evenodd" d="M535.909 278.922C535.281 278.922 534.672 278.686 534.247 278.266L533.594 277.615C533.344 277.366 533.375 276.989 533.67 276.775C533.962 276.561 534.403 276.591 534.653 276.84L535.307 277.49C535.497 277.68 535.776 277.764 536.049 277.718C536.312 277.675 536.527 277.523 536.645 277.298C536.772 277.054 536.753 276.769 536.591 276.544L534.932 274.192C534.736 273.91 534.84 273.544 535.17 273.373C535.5 273.202 535.928 273.294 536.128 273.576L537.786 275.929C538.18 276.488 538.23 277.181 537.92 277.781C537.615 278.366 537.032 278.77 536.318 278.889C536.182 278.911 536.045 278.922 535.909 278.922" fill="#2A0055"/>
<path fill-rule="evenodd" clip-rule="evenodd" d="M519.878 223.513L524.395 224.296C526.544 224.668 528.192 226.515 528.42 228.805L530.281 247.574L538.121 274.226H523.351L516.521 247.574L519.878 223.513" fill="#BED5FF"/>
<path fill-rule="evenodd" clip-rule="evenodd" d="M496.8 345.236V356.87H475.2V351.053L482.573 345.441L482.357 339.965H487.648L489.948 343.781L496.8 345.236" fill="#B2BBC6"/>
<path opacity="0.366653" fill-rule="evenodd" clip-rule="evenodd" d="M520.552 335.27C520.184 335.27 519.886 334.994 519.883 334.656L519.339 278.607C519.336 278.264 519.634 277.985 520.001 277.983C520.004 277.983 520.004 277.983 520.008 277.983C520.375 277.983 520.673 278.256 520.676 278.596L521.217 334.645C521.22 334.985 520.925 335.264 520.558 335.27C520.555 335.27 520.552 335.27 520.552 335.27" fill="#0B1E57"/>
<path fill-rule="evenodd" clip-rule="evenodd" d="M508.069 345.728V356.87H524.035V345.589L519.171 344.267L518.078 339.965H511.263L509.953 344.168L508.069 345.728" fill="#B2BBC6"/>
<path fill-rule="evenodd" clip-rule="evenodd" d="M484.992 352.174H474.849C474.523 352.174 474.261 351.895 474.261 351.554C474.261 351.21 474.523 350.934 474.849 350.934H484.642L488.181 344.048C488.336 343.746 488.694 343.633 488.978 343.797C489.264 343.96 489.371 344.335 489.216 344.637L485.508 351.85C485.406 352.05 485.208 352.174 484.992 352.174" fill="white"/>
<path fill-rule="evenodd" clip-rule="evenodd" d="M483.069 348.417H479.538C479.218 348.417 478.956 348.208 478.956 347.947C478.956 347.688 479.218 347.478 479.538 347.478H483.069C483.39 347.478 483.652 347.688 483.652 347.947C483.652 348.208 483.39 348.417 483.069 348.417" fill="white"/>
<path fill-rule="evenodd" clip-rule="evenodd" d="M508.678 354.991C508.565 354.991 508.454 354.961 508.352 354.897C508.069 354.715 507.984 354.336 508.164 354.052L509.074 352.602C510.35 350.572 512.495 349.357 514.808 349.357C517.438 349.357 519.796 350.896 520.966 353.371L521.152 353.767H524.368C524.702 353.767 524.974 354.041 524.974 354.378C524.974 354.718 524.702 354.991 524.368 354.991H520.77C520.535 354.991 520.321 354.855 520.219 354.643L519.868 353.898C518.902 351.855 516.962 350.583 514.808 350.583C512.915 350.583 511.155 351.584 510.101 353.257L509.193 354.707C509.077 354.891 508.88 354.991 508.678 354.991" fill="white"/>
<path fill-rule="evenodd" clip-rule="evenodd" d="M516.854 346.539H511.491C511.157 346.539 510.887 346.33 510.887 346.07C510.887 345.811 511.157 345.6 511.491 345.6H516.854C517.188 345.6 517.461 345.811 517.461 346.07C517.461 346.33 517.188 346.539 516.854 346.539" fill="white"/>
<path fill-rule="evenodd" clip-rule="evenodd" d="M503.595 287.374C503.232 287.374 502.923 287.121 502.887 286.785L502.537 283.424C501.787 282.829 499.747 280.875 499.617 277.107V273.935C499.617 273.575 499.935 273.287 500.332 273.287C500.725 273.287 501.046 273.575 501.046 273.935V277.087C501.179 280.957 503.605 282.547 503.631 282.562C503.803 282.67 503.91 282.844 503.93 283.032L504.31 286.665C504.346 287.021 504.057 287.336 503.664 287.371C503.641 287.371 503.618 287.374 503.595 287.374" fill="white"/>
<path fill-rule="evenodd" clip-rule="evenodd" d="M521.528 277.983H520.839C517.937 277.983 515.234 276.506 513.783 274.128C513.614 273.854 513.726 273.508 514.029 273.358C514.334 273.206 514.714 273.306 514.883 273.58C516.111 275.597 518.394 276.849 520.839 276.849H521.528C521.873 276.849 522.156 277.102 522.156 277.417C522.156 277.73 521.873 277.983 521.528 277.983" fill="white"/>
<path fill-rule="evenodd" clip-rule="evenodd" d="M521.528 267.652C521.182 267.652 520.899 267.378 520.899 267.036V238.676L518.625 236.81C518.359 236.592 518.325 236.203 518.547 235.942C518.768 235.681 519.165 235.648 519.431 235.864L521.931 237.917C522.074 238.035 522.157 238.206 522.157 238.388V267.036C522.157 267.378 521.877 267.652 521.528 267.652" fill="white"/>
<path fill-rule="evenodd" clip-rule="evenodd" d="M488.017 241.357C487.986 241.357 487.959 241.354 487.928 241.349C487.597 241.303 487.367 241.007 487.414 240.688L488.078 236.224C488.125 235.904 488.434 235.68 488.766 235.728C489.097 235.774 489.329 236.069 489.28 236.389L488.616 240.853C488.575 241.146 488.312 241.357 488.017 241.357" fill="white"/>
<path opacity="0.366653" fill-rule="evenodd" clip-rule="evenodd" d="M499.965 247.93C499.771 247.93 499.58 247.833 499.467 247.649C497.033 243.752 493.419 235.668 492.123 230.297C492.066 230.066 492.144 229.821 492.325 229.67L495.349 227.155L493.19 226.654C492.958 226.601 492.78 226.411 492.737 226.169C492.691 225.929 492.791 225.684 492.988 225.548L498.497 221.74C498.701 221.598 498.968 221.6 499.168 221.745C499.367 221.893 499.461 222.149 499.402 222.394C499.359 222.575 499.24 222.72 499.092 222.801L494.796 225.77L496.807 226.236C497.028 226.289 497.203 226.467 497.254 226.695C497.305 226.924 497.227 227.163 497.049 227.311L493.365 230.378C494.678 235.495 498.141 243.27 500.461 246.986C500.639 247.27 500.561 247.649 500.286 247.833C500.186 247.9 500.076 247.93 499.965 247.93" fill="#0B1E57"/>
<path opacity="0.366653" fill-rule="evenodd" clip-rule="evenodd" d="M502.142 246.052C502.039 246.052 501.933 246.03 501.836 245.979C501.522 245.816 501.405 245.443 501.572 245.142C504.299 240.279 507.535 234.859 511.04 231.099L508.23 229.883C507.981 229.776 507.831 229.532 507.852 229.273C507.872 229.015 508.06 228.796 508.321 228.726L511.154 227.97L508.148 222.857C508.139 222.854 508.133 222.848 508.125 222.846C507.828 222.657 507.746 222.275 507.94 221.989L507.993 221.913C508.116 221.734 508.333 221.627 508.556 221.635C508.779 221.644 508.985 221.764 509.096 221.953L512.681 228.052C512.781 228.218 512.792 228.417 512.716 228.591C512.64 228.765 512.484 228.897 512.293 228.95L510.382 229.459L512.384 230.326C512.575 230.408 512.713 230.574 512.754 230.77C512.792 230.967 512.731 231.169 512.587 231.312C508.953 234.974 505.556 240.652 502.711 245.726C502.594 245.934 502.371 246.052 502.142 246.052" fill="#0B1E57"/>
<path opacity="0.366653" fill-rule="evenodd" clip-rule="evenodd" d="M499.541 249.809C499.525 249.809 499.51 249.809 499.494 249.809C499.016 249.79 498.656 249.508 498.68 249.181C498.727 248.634 498.778 248.087 498.836 247.54C498.875 247.212 499.279 246.971 499.76 246.993C500.238 247.017 500.59 247.304 500.555 247.632C500.496 248.171 500.441 248.707 500.398 249.246C500.375 249.562 499.995 249.809 499.541 249.809" fill="#0B1E57"/>
<path opacity="0.366653" fill-rule="evenodd" clip-rule="evenodd" d="M536.561 271.409H521.84C521.495 271.409 521.218 271.197 521.218 270.939C521.218 270.681 521.495 270.47 521.84 270.47H536.561C536.906 270.47 537.183 270.681 537.183 270.939C537.183 271.197 536.906 271.409 536.561 271.409" fill="#0B1E57"/>
<path fill-rule="evenodd" clip-rule="evenodd" d="M488.565 261.078C488.292 261.078 488.028 260.942 487.907 260.713L485.595 256.323C485.43 256.008 485.591 255.64 485.956 255.499C486.318 255.357 486.749 255.496 486.914 255.808L489.222 260.201C489.387 260.512 489.226 260.883 488.864 261.024C488.765 261.061 488.667 261.078 488.565 261.078" fill="white"/>
<path opacity="0.366653" fill-rule="evenodd" clip-rule="evenodd" d="M523.421 334.33H508.683C508.346 334.33 508.069 334.119 508.069 333.861C508.069 333.6 508.346 333.391 508.683 333.391H523.421C523.761 333.391 524.035 333.6 524.035 333.861C524.035 334.119 523.761 334.33 523.421 334.33" fill="#0B1E57"/>
<path opacity="0.366653" fill-rule="evenodd" clip-rule="evenodd" d="M497.125 334.33H482.387C482.05 334.33 481.773 334.119 481.773 333.861C481.773 333.6 482.05 333.391 482.387 333.391H497.125C497.462 333.391 497.739 333.6 497.739 333.861C497.739 334.119 497.462 334.33 497.125 334.33" fill="#0B1E57"/>
<path opacity="0.366653" fill-rule="evenodd" clip-rule="evenodd" d="M493.612 334.33C493.586 334.33 493.56 334.328 493.534 334.325C493.225 334.277 493.006 333.964 493.05 333.626L498.489 289.788C498.53 289.45 498.816 289.21 499.128 289.258C499.438 289.303 499.654 289.616 499.613 289.954L494.171 333.792C494.132 334.105 493.89 334.33 493.612 334.33" fill="#0B1E57"/>
<path fill-rule="evenodd" clip-rule="evenodd" d="M488.043 277.983C487.694 277.983 487.408 277.74 487.408 277.44C487.408 277.138 487.694 276.895 488.043 276.895C490.724 276.895 493.267 275.615 494.678 273.554C494.857 273.297 495.247 273.21 495.547 273.361C495.85 273.515 495.951 273.849 495.772 274.107C494.136 276.499 491.172 277.983 488.043 277.983" fill="white"/>
<path fill-rule="evenodd" clip-rule="evenodd" d="M399.131 244.362V251.854C399.131 253.604 399.718 255.3 400.789 256.653L408.769 266.713L418.853 260.025L411.522 243.325L405.178 239.478L399.131 244.362" fill="#FFBFAA"/>
<path fill-rule="evenodd" clip-rule="evenodd" d="M453.072 258.261H416.035L432.528 222.574H469.566L453.072 258.261" fill="#1063FE"/>
<path fill-rule="evenodd" clip-rule="evenodd" d="M415.124 340.904L416.393 344.471L418.853 351.066V356.87H404.853L404.766 340.904H415.124" fill="#78A9FF"/>
<path opacity="0.501628" fill-rule="evenodd" clip-rule="evenodd" d="M416.329 344.661H413.86C413.505 344.661 413.218 344.45 413.218 344.19C413.218 343.931 413.505 343.722 413.86 343.722H416.329C416.684 343.722 416.974 343.931 416.974 344.19C416.974 344.45 416.684 344.661 416.329 344.661" fill="#0B1E57"/>
<path opacity="0.501628" fill-rule="evenodd" clip-rule="evenodd" d="M418.119 347.478H414.889C414.485 347.478 414.156 347.269 414.156 347.008C414.156 346.748 414.485 346.539 414.889 346.539H418.119C418.523 346.539 418.852 346.748 418.852 347.008C418.852 347.269 418.523 347.478 418.119 347.478" fill="#0B1E57"/>
<path opacity="0.501628" fill-rule="evenodd" clip-rule="evenodd" d="M418.277 353.113H415.728L413.96 353.06L413.636 352.626C412.293 350.807 410.365 349.764 408.345 349.764H405.343C405.025 349.764 404.766 349.461 404.766 349.089C404.766 348.717 405.025 348.417 405.343 348.417H408.345C410.694 348.417 412.938 349.623 414.498 351.729L415.744 351.766H418.277C418.596 351.766 418.853 352.066 418.853 352.438C418.853 352.81 418.596 353.113 418.277 353.113" fill="#0B1E57"/>
<path fill-rule="evenodd" clip-rule="evenodd" d="M437.809 339.265L444.361 345.75L451.703 350.772L451.722 356.792L429.242 356.87L429.183 338.087L437.809 339.265" fill="#78A9FF"/>
<path opacity="0.501628" fill-rule="evenodd" clip-rule="evenodd" d="M439.043 348.701C439.041 348.701 439.041 348.701 439.038 348.701C438.319 348.703 437.734 349.421 437.736 350.3C437.739 350.731 437.876 351.134 438.128 351.434C438.374 351.729 438.698 351.891 439.043 351.891C439.046 351.891 439.046 351.891 439.048 351.891C439.768 351.888 440.352 351.171 440.35 350.291C440.35 349.86 440.21 349.458 439.959 349.157C439.712 348.862 439.389 348.701 439.043 348.701ZM439.043 353.113C438.415 353.113 437.826 352.821 437.384 352.288C436.942 351.76 436.698 351.054 436.695 350.306C436.691 348.752 437.741 347.484 439.036 347.478C439.038 347.478 439.041 347.478 439.043 347.478C439.671 347.478 440.261 347.77 440.703 348.303C441.145 348.831 441.389 349.537 441.391 350.286C441.396 351.84 440.345 353.11 439.05 353.113C439.048 353.113 439.046 353.113 439.043 353.113V353.113Z" fill="#0B1E57"/>
<path opacity="0.501628" fill-rule="evenodd" clip-rule="evenodd" d="M445.741 348.417C445.414 348.417 445.15 348.211 445.147 347.954C445.147 347.698 445.411 347.489 445.738 347.489L449.247 347.478H449.25C449.577 347.478 449.84 347.685 449.843 347.941C449.843 348.198 449.579 348.407 449.253 348.409L445.743 348.417C445.741 348.417 445.741 348.417 445.741 348.417" fill="#0B1E57"/>
<path opacity="0.501628" fill-rule="evenodd" clip-rule="evenodd" d="M441.036 344.661C440.714 344.661 440.455 344.454 440.452 344.198C440.452 343.941 440.712 343.733 441.033 343.73L444.564 343.722C444.886 343.722 445.148 343.929 445.148 344.185C445.148 344.441 444.888 344.65 444.567 344.65L441.039 344.661C441.036 344.661 441.036 344.661 441.036 344.661" fill="#0B1E57"/>
<path fill-rule="evenodd" clip-rule="evenodd" d="M457.871 232.904H435.757L439.451 226.33H461.113L457.871 232.904" fill="white"/>
<path fill-rule="evenodd" clip-rule="evenodd" d="M453.175 244.174H431.061L434.755 237.6H456.417L453.175 244.174" fill="white"/>
<path fill-rule="evenodd" clip-rule="evenodd" d="M413.218 266.828L418.376 293.835L427.859 338.991L428.46 341.843H441.392C441.272 340.904 441.154 339.95 441.031 338.991C440.894 337.905 440.757 336.809 440.618 335.702C440.528 334.974 440.436 334.242 440.344 333.509C440.21 332.418 440.073 331.322 439.936 330.217C438.329 317.287 436.639 303.588 434.898 292.006C433.054 279.742 431.157 269.855 429.251 265.774L413.218 266.828" fill="#BED5FF"/>
<path fill-rule="evenodd" clip-rule="evenodd" d="M400.13 286.558C400.192 288.03 400.813 289.608 400.876 290.926L402.984 330.234L403.384 338.995L403.512 341.843H415.484L415.893 333.521L416.052 330.234L417.833 293.906L419.791 266.713C419.791 266.713 419.666 266.716 419.436 266.724C417.317 266.786 406.448 267.101 406.283 267.107C405.265 267.138 403.177 270.972 402.669 271.843C400.13 276.217 399.923 281.612 400.13 286.558" fill="#BED5FF"/>
<path fill-rule="evenodd" clip-rule="evenodd" d="M406.237 267.652L428.992 267.291L433.044 250.568L434.363 248.858C436.48 246.122 437.635 242.707 437.635 239.188V237.551C437.635 234.912 437.087 232.305 436.024 229.91C435.06 227.728 432.965 226.33 430.664 226.33H406.917C403.38 226.33 400.634 229.558 401.051 233.228L406.237 267.652" fill="#78A9FF"/>
<path fill-rule="evenodd" clip-rule="evenodd" d="M415.096 229.295L426.365 238.539L423.917 229.295V216H415.096V229.295" fill="white"/>
<path fill-rule="evenodd" clip-rule="evenodd" d="M442.275 239.392L446.736 246.334L456.418 249.819L452.5 258.261H445.059C441.008 258.261 437.235 256.152 435.051 252.661L430.122 244.778L431.693 235.722L442.275 239.392" fill="#FFBFAA"/>
<path fill-rule="evenodd" clip-rule="evenodd" d="M416.035 224.452H424.487V208.487H416.035V224.452Z" fill="#FFBFAA"/>
<path fill-rule="evenodd" clip-rule="evenodd" d="M424.8 229.148H415.719C415.374 229.148 415.096 228.936 415.096 228.677C415.096 228.418 415.374 228.209 415.719 228.209H424.8C425.145 228.209 425.426 228.418 425.426 228.677C425.426 228.936 425.145 229.148 424.8 229.148" fill="#2A0055"/>
<path fill-rule="evenodd" clip-rule="evenodd" d="M414.156 209.024V212.702C414.156 218.673 418.63 223.513 424.146 223.513C427.965 223.513 431.061 220.164 431.061 216.034V210.494C431.061 205.756 427.509 201.913 423.128 201.913H420.729C417.097 201.913 414.156 205.097 414.156 209.024" fill="#FFBFAA"/>
<path fill-rule="evenodd" clip-rule="evenodd" d="M409.461 202.383C409.461 205.235 411.774 207.548 414.626 207.548C417.479 207.548 419.791 205.235 419.791 202.383C419.791 199.53 417.479 197.217 414.626 197.217C411.774 197.217 409.461 199.53 409.461 202.383" fill="#0B1E57"/>
<path fill-rule="evenodd" clip-rule="evenodd" d="M398.538 245.038L409.461 245.113L408.031 223.513L404.107 224.882C400.503 226.009 398.076 229.567 398.196 233.544L398.538 245.038" fill="#78A9FF"/>
<path fill-rule="evenodd" clip-rule="evenodd" d="M429.163 246.052L443.27 239.643C442.37 237.849 441.38 236.081 440.547 234.262C439.37 231.679 438.038 228.762 435.543 227.362C433.273 226.088 430.539 225.979 428.197 227.12L426.365 228.012L429.163 246.052" fill="#78A9FF"/>
<path fill-rule="evenodd" clip-rule="evenodd" d="M426.365 329.635L427.044 333.391H440.452C440.32 332.147 440.186 330.895 440.051 329.635H426.365" fill="white"/>
<path fill-rule="evenodd" clip-rule="evenodd" d="M403.826 329.635L403.977 333.391H416.814L416.974 329.635H403.826" fill="white"/>
<path fill-rule="evenodd" clip-rule="evenodd" d="M427.305 335.27L428.006 339.026H441.392C441.253 337.787 441.113 336.534 440.971 335.27H427.305" fill="white"/>
<path fill-rule="evenodd" clip-rule="evenodd" d="M403.826 335.27L403.984 339.026H416.805L416.974 335.27H403.826" fill="white"/>
<path fill-rule="evenodd" clip-rule="evenodd" d="M396.556 218.979C396.556 218.979 387.557 223.898 396.556 228.421C396.556 228.421 395.78 234.935 406.347 234.114C406.347 234.114 411.406 242.822 418.782 237.806C418.782 237.806 424.733 243.682 427.98 237.806C427.98 237.806 436.832 235.577 432.848 228.817C432.848 228.817 435.358 218.028 424.439 218.979C424.439 218.979 422.963 208.387 414.995 214.691C414.995 214.691 409.686 207.952 404.078 213.486C404.078 213.486 395.669 208.461 396.556 218.979" fill="#0B1E57"/>
<path fill-rule="evenodd" clip-rule="evenodd" d="M430.982 206.702C431.068 206.934 431.085 207.186 431.025 207.425C430.644 208.929 428.752 214.336 421.13 214.968C412.266 215.702 411.339 211.856 411.339 211.856V211.616C411.339 205.738 416.316 200.974 422.458 200.974C426.277 200.974 429.686 203.265 430.982 206.702" fill="#0B1E57"/>
<path fill-rule="evenodd" clip-rule="evenodd" d="M426.365 216.939V216.939C427.92 216.939 429.183 215.551 429.183 213.838V212.527C429.183 210.814 427.92 209.426 426.365 209.426C424.808 209.426 423.548 210.814 423.548 212.527V213.838C423.548 215.551 424.808 216.939 426.365 216.939" fill="#FFBFAA"/>
<path fill-rule="evenodd" clip-rule="evenodd" d="M417.604 207.548C417.397 207.548 417.195 207.454 417.075 207.282C416.885 207.013 416.97 206.654 417.262 206.48C418.645 205.66 419.47 204.247 419.47 202.701C419.47 202.054 419.327 201.432 419.046 200.85C418.906 200.557 419.049 200.214 419.368 200.084C419.686 199.956 420.058 200.086 420.201 200.38C420.552 201.111 420.73 201.892 420.73 202.701C420.73 204.643 419.689 206.42 417.947 207.456C417.841 207.518 417.721 207.548 417.604 207.548" fill="white"/>
<path fill-rule="evenodd" clip-rule="evenodd" d="M418.259 293.948C418.011 293.948 417.779 293.794 417.697 293.546L415.784 287.937C415.046 287.247 411.5 283.562 412.434 277.546C412.484 277.224 412.789 277.001 413.112 277.05C413.437 277.103 413.66 277.405 413.608 277.73C412.693 283.617 416.523 287.01 416.685 287.153L416.807 287.258L416.859 287.409L418.821 293.163C418.925 293.474 418.76 293.81 418.452 293.918C418.385 293.937 418.322 293.948 418.259 293.948" fill="white"/>
<path opacity="0.396089" fill-rule="evenodd" clip-rule="evenodd" d="M406.999 234.783C406.805 234.783 406.615 234.684 406.504 234.506C406.431 234.385 404.706 231.529 406.559 229.352C406.769 229.106 407.137 229.078 407.381 229.292C407.624 229.506 407.651 229.879 407.44 230.125C406.145 231.647 407.481 233.856 407.494 233.878C407.664 234.155 407.581 234.519 407.308 234.692C407.213 234.752 407.105 234.783 406.999 234.783" fill="white"/>
<path opacity="0.396089" fill-rule="evenodd" clip-rule="evenodd" d="M427.953 238.539C427.74 238.539 427.536 238.455 427.411 238.299C427.216 238.054 427.297 237.723 427.596 237.562C427.62 237.547 428.707 236.934 428.821 236.103C428.881 235.66 428.645 235.203 428.114 234.745C427.869 234.53 427.878 234.194 428.138 233.991C428.396 233.788 428.803 233.795 429.052 234.008C429.858 234.711 430.211 235.457 430.103 236.229C429.917 237.565 428.372 238.418 428.306 238.453C428.195 238.512 428.072 238.539 427.953 238.539" fill="white"/>
<path opacity="0.396089" fill-rule="evenodd" clip-rule="evenodd" d="M412.635 220.696C412.402 220.696 412.185 220.535 412.093 220.274C411.599 218.868 410.846 217.96 409.851 217.577C407.591 216.707 404.743 218.679 404.713 218.698C404.44 218.893 404.079 218.789 403.911 218.472C403.743 218.15 403.832 217.734 404.109 217.539C404.242 217.444 407.44 215.224 410.215 216.288C411.551 216.8 412.545 217.969 413.174 219.761C413.296 220.107 413.152 220.504 412.854 220.645C412.781 220.68 412.708 220.696 412.635 220.696" fill="white"/>
<path opacity="0.396089" fill-rule="evenodd" clip-rule="evenodd" d="M432.325 229.148C432.316 229.148 432.305 229.145 432.297 229.145C431.961 229.132 431.702 228.864 431.716 228.548C431.775 227.362 431.468 226.429 430.803 225.773C429.684 224.67 427.928 224.659 427.911 224.659C427.575 224.659 427.305 224.402 427.305 224.086C427.305 223.77 427.575 223.513 427.911 223.513C428.004 223.513 430.208 223.532 431.682 224.983C432.587 225.874 433.007 227.092 432.931 228.601C432.917 228.906 432.646 229.148 432.325 229.148" fill="white"/>
<path fill-rule="evenodd" clip-rule="evenodd" d="M426.581 216C426.369 216 426.161 215.92 426.019 215.766L423.71 213.281C423.458 213.009 423.505 212.608 423.814 212.386C424.127 212.165 424.581 212.205 424.836 212.478L427.142 214.962C427.394 215.235 427.347 215.635 427.038 215.857C426.903 215.953 426.742 216 426.581 216" fill="#2A0055"/>
<path fill-rule="evenodd" clip-rule="evenodd" d="M406.299 280.8C405.242 280.8 404.31 280.401 403.674 279.676C403.011 278.921 402.75 277.876 402.955 276.808L403.311 274.952C403.367 274.652 403.668 274.454 403.978 274.51C404.293 274.563 404.499 274.848 404.443 275.148L404.088 277.004C403.944 277.762 404.109 278.461 404.558 278.972C404.969 279.442 405.589 279.704 406.299 279.704C407.918 279.704 409.483 278.405 409.79 276.808L410.196 274.675C410.253 274.378 410.554 274.18 410.867 274.236C411.179 274.289 411.388 274.574 411.329 274.871L410.923 277.004C410.522 279.097 408.45 280.8 406.299 280.8" fill="white"/>
<path fill-rule="evenodd" clip-rule="evenodd" d="M420.387 280.8C419.327 280.8 418.395 280.401 417.759 279.674C417.1 278.921 416.838 277.876 417.041 276.808L417.396 274.952C417.455 274.652 417.754 274.454 418.066 274.51C418.379 274.563 418.587 274.848 418.528 275.148L418.176 277.004C418.029 277.762 418.197 278.461 418.643 278.972C419.057 279.442 419.677 279.704 420.387 279.704C422.006 279.704 423.571 278.405 423.876 276.808L424.284 274.675C424.34 274.378 424.645 274.18 424.952 274.236C425.267 274.289 425.473 274.574 425.417 274.871L425.008 277.004C424.61 279.097 422.535 280.8 420.387 280.8" fill="white"/>
<path fill-rule="evenodd" clip-rule="evenodd" d="M410.814 271.409H407.169C406.878 271.409 406.644 271.2 406.644 270.94C406.644 270.681 406.878 270.47 407.169 270.47H410.814C411.105 270.47 411.339 270.681 411.339 270.94C411.339 271.2 411.105 271.409 410.814 271.409" fill="white"/>
<path fill-rule="evenodd" clip-rule="evenodd" d="M423.023 271.409H419.38C419.09 271.409 418.853 271.2 418.853 270.94C418.853 270.681 419.09 270.47 419.38 270.47H423.023C423.314 270.47 423.548 270.681 423.548 270.94C423.548 271.2 423.314 271.409 423.023 271.409" fill="white"/>
<path fill-rule="evenodd" clip-rule="evenodd" d="M431.433 274.226C429.702 274.226 428.653 273.029 428.302 272.28C428.163 271.981 428.278 271.62 428.559 271.472C428.837 271.324 429.175 271.444 429.314 271.741C429.351 271.819 430.174 273.449 432.238 272.909C432.54 272.831 432.847 273.029 432.923 273.351C432.996 273.675 432.81 274.002 432.508 274.081C432.126 274.181 431.766 274.226 431.433 274.226" fill="white"/>
<path fill-rule="evenodd" clip-rule="evenodd" d="M458.771 244.174V244.174C462.141 244.174 464.87 247.019 464.87 250.532V251.903C464.87 255.416 462.141 258.261 458.771 258.261H451.722L458.771 244.174" fill="#FFBFAA"/>
<path fill-rule="evenodd" clip-rule="evenodd" d="M404.162 246.052C403.878 246.052 403.624 245.86 403.571 245.584L402.896 242.023C402.838 241.715 403.055 241.421 403.384 241.365C403.708 241.31 404.023 241.515 404.081 241.826L404.756 245.386C404.812 245.694 404.595 245.989 404.268 246.044C404.232 246.05 404.199 246.052 404.162 246.052" fill="white"/>
<path fill-rule="evenodd" clip-rule="evenodd" d="M429.002 246.052C428.641 246.052 428.297 245.85 428.11 245.5L426.444 242.347C426.273 242.021 426.39 241.615 426.703 241.438C427.02 241.261 427.414 241.382 427.586 241.708L429.129 244.628L430.147 244.165C430.475 244.013 430.861 244.169 431.005 244.507C431.15 244.845 431.002 245.239 430.674 245.388L429.415 245.962C429.279 246.024 429.141 246.052 429.002 246.052" fill="white"/>
<path fill-rule="evenodd" clip-rule="evenodd" d="M454.16 248.108L455.007 245.563C455.157 245.109 455.706 244.965 456.046 245.287L458.295 247.419L457.256 250.748L453.6 249.43L454.16 248.108" fill="#FFBFAA"/>
<path fill-rule="evenodd" clip-rule="evenodd" d="M459.435 249.809C459.062 249.809 458.701 249.635 458.476 249.325L457.462 247.899C457.269 247.63 457.348 247.266 457.637 247.089C457.925 246.91 458.316 246.984 458.508 247.252L459.476 248.608L460.219 248.285C460.531 248.146 460.907 248.271 461.053 248.565C461.202 248.858 461.065 249.208 460.75 249.344L459.922 249.705C459.765 249.773 459.598 249.809 459.435 249.809" fill="#2A0055"/>
<path fill-rule="evenodd" clip-rule="evenodd" d="M410.067 260.139C409.857 260.139 409.651 260.028 409.539 259.833C409.376 259.544 409.477 259.18 409.769 259.015C414.871 256.173 419.522 245.584 419.567 245.476C419.699 245.173 420.057 245.031 420.366 245.162C420.672 245.295 420.813 245.646 420.681 245.952C420.487 246.402 415.818 257.021 410.366 260.061C410.273 260.114 410.169 260.139 410.067 260.139" fill="white"/>
<path fill-rule="evenodd" clip-rule="evenodd" d="M440.864 246.052C440.827 246.052 440.788 246.05 440.752 246.04L437.109 245.234C436.826 245.169 436.644 244.886 436.708 244.595C436.769 244.306 437.051 244.122 437.335 244.187L440.977 244.993C441.261 245.055 441.442 245.341 441.378 245.632C441.324 245.881 441.107 246.052 440.864 246.052" fill="#2A0055"/>
<path fill-rule="evenodd" clip-rule="evenodd" d="M102.919 353.113C102.848 353.113 102.777 353.099 102.708 353.071C102.425 352.949 102.291 352.62 102.407 352.329L116.326 317.777C116.442 317.487 116.766 317.349 117.049 317.47C117.331 317.589 117.466 317.918 117.349 318.209L103.431 352.763C103.343 352.981 103.136 353.113 102.919 353.113" fill="#B2BBC6"/>
<path fill-rule="evenodd" clip-rule="evenodd" d="M115.881 339.026C115.653 339.026 115.437 338.887 115.349 338.658L107.1 317.281C106.985 316.983 107.129 316.644 107.423 316.528C107.716 316.409 108.048 316.557 108.163 316.855L116.412 338.233C116.527 338.531 116.383 338.87 116.09 338.986C116.021 339.014 115.95 339.026 115.881 339.026" fill="#B2BBC6"/>
<path fill-rule="evenodd" clip-rule="evenodd" d="M143.346 348.417C143.27 348.417 143.193 348.403 143.118 348.375C142.813 348.253 142.667 347.92 142.793 347.628L155.684 317.778C155.81 317.489 156.16 317.35 156.465 317.469C156.77 317.591 156.916 317.923 156.79 318.216L143.899 348.062C143.804 348.284 143.581 348.417 143.346 348.417" fill="#B2BBC6"/>
<path fill-rule="evenodd" clip-rule="evenodd" d="M103.867 318.365C103.557 318.365 103.305 318.162 103.305 317.911C103.304 317.661 103.556 317.458 103.867 317.458L161.907 317.426H161.907C162.218 317.426 162.47 317.629 162.47 317.88C162.47 318.13 162.218 318.334 161.908 318.334L103.868 318.365C103.868 318.365 103.868 318.365 103.867 318.365" fill="#B2BBC6"/>
<path fill-rule="evenodd" clip-rule="evenodd" d="M157.719 343.722L166.468 348.963L174.678 353.223V357.809H160.396L158.709 352.169H157.022L156.291 357.809H153.423L152.139 343.722H157.719" fill="#1063FE"/>
<path fill-rule="evenodd" clip-rule="evenodd" d="M173.202 353.113H164.572C164.455 353.113 164.34 353.076 164.247 353.013L158.925 349.301C158.689 349.137 158.643 348.828 158.823 348.613C159.002 348.395 159.339 348.353 159.575 348.517L164.753 352.129H173.202C173.499 352.129 173.739 352.349 173.739 352.621C173.739 352.893 173.499 353.113 173.202 353.113" fill="white"/>
<path fill-rule="evenodd" clip-rule="evenodd" d="M119.548 343.722L113.317 349.123L108 353.223V357.809H119.724L121.051 352.169H121.443L122.145 357.809H123.671L124.904 343.722H119.548" fill="#1063FE"/>
<path fill-rule="evenodd" clip-rule="evenodd" d="M116.678 353.113H108.577C108.259 353.113 108 352.865 108 352.559C108 352.253 108.259 352.006 108.577 352.006H116.41L121.069 346.735C121.275 346.501 121.64 346.474 121.883 346.669C122.126 346.867 122.156 347.217 121.95 347.452L117.118 352.917C117.008 353.041 116.848 353.113 116.678 353.113" fill="white"/>
<path fill-rule="evenodd" clip-rule="evenodd" d="M142.004 265.359L156.462 267.413L168.622 262.957L173.739 267.705L158 277.983L138.052 277.132L142.004 265.359" fill="#FFBFAA"/>
<path fill-rule="evenodd" clip-rule="evenodd" d="M132.417 266.899L142.006 277.043L148.382 264.251L137.572 256.383C137.158 257.857 138.261 260.139 137.312 261.271C136.457 262.29 133.392 265.98 132.417 266.899" fill="#78A9FF"/>
<path fill-rule="evenodd" clip-rule="evenodd" d="M169.111 267.383C167.21 266.317 165.931 264.506 166.286 261.809C166.37 261.172 166.653 260.508 167.207 260.205C167.901 259.825 168.8 260.145 169.341 260.731C169.883 261.315 170.148 262.107 170.399 262.87C172.327 261.541 174.297 260.191 176.534 259.55C178.772 258.909 181.362 259.087 183.159 260.597C183.676 261.031 184.142 261.655 184.061 262.336C184.02 262.676 183.845 262.982 183.662 263.271C182.158 265.633 179.806 267.415 177.161 268.196C174.814 268.885 171.48 268.71 169.111 267.383" fill="#FFBFAA"/>
<path fill-rule="evenodd" clip-rule="evenodd" d="M138.052 300.082L135.958 295.582L111.722 294.887L110.859 296.711C108.517 301.661 108.309 307.331 110.284 312.433C111.181 314.748 113.207 316.463 115.67 316.992C117.011 317.282 118.381 317.426 119.755 317.426H138.052V300.082" fill="#BED5FF"/>
<path fill-rule="evenodd" clip-rule="evenodd" d="M115.513 316.487H146.504V298.643H115.513V316.487Z" fill="#BED5FF"/>
<path fill-rule="evenodd" clip-rule="evenodd" d="M164.348 344.661H149.969L147.021 340.457L144.897 337.431L130.539 316.957L146.012 308.974L164.348 344.661" fill="#BED5FF"/>
<path fill-rule="evenodd" clip-rule="evenodd" d="M142.748 326.5L135.437 336.214L128.369 345.6H114.574L119.066 336.214L120.535 333.14L128.953 315.548L142.748 326.5" fill="#BED5FF"/>
<path fill-rule="evenodd" clip-rule="evenodd" d="M135.674 328.696C133.802 328.696 131.915 328.115 130.308 326.917C126.391 323.999 125.621 318.508 128.588 314.654L138.965 301.175C141.932 297.319 147.513 296.562 151.43 299.48C155.348 302.4 156.118 307.892 153.151 311.745L142.774 325.225C141.024 327.498 138.365 328.696 135.674 328.696" fill="#BED5FF"/>
<path fill-rule="evenodd" clip-rule="evenodd" d="M135.32 231.943C135.262 231.951 135.206 231.965 135.15 231.988L135.32 231.943" fill="#2A0055"/>
<path fill-rule="evenodd" clip-rule="evenodd" d="M114.582 263.326C120.246 264.211 126.206 265.609 132.047 265.76C133.394 265.795 134.735 265.765 136.064 265.647C137.539 265.516 139.141 265.234 140.462 264.485C141.024 264.17 141.536 263.77 141.964 263.26C144.32 260.453 144.06 255.858 142.385 252.785C140.265 248.9 136.292 246.376 135.124 241.915C134.584 239.846 133.125 234.81 135.424 233.135C135.545 233.047 135.68 232.956 135.826 232.904L114.39 238.16C114.39 238.16 120.344 247.464 110.59 249.454C100.838 251.442 97.0789 260.59 114.582 263.326" fill="#BED5FF"/>
<path fill-rule="evenodd" clip-rule="evenodd" d="M128.498 247.93H128.529C131.195 247.93 133.357 245.954 133.357 243.516V233.844H120.209V240.352C120.209 244.538 123.92 247.93 128.498 247.93" fill="#FFBFAA"/>
<path fill-rule="evenodd" clip-rule="evenodd" d="M118.33 231.026L119.177 261.078H127.721L127.429 258.061V258.058L124.807 231.026H118.33" fill="#FFBFAA"/>
<path fill-rule="evenodd" clip-rule="evenodd" d="M139.732 269.914C139.711 270.016 139.688 270.115 139.663 270.217L134.562 286.935L134.365 287.579L135.71 294.887L112.067 294.188L111.389 285.873L109.086 276.388L105.183 260.126L111.71 256.268L112.276 255.937L115.089 254.272L115.653 253.939L117.881 252.626L127.75 257.25L127.309 253.394L130.829 256.259L131.057 256.444L131.395 256.719L131.71 256.975L133.21 258.197L133.572 258.492L133.756 258.64L134.138 258.951L136.491 260.867C136.723 261.057 136.945 261.255 137.156 261.464C137.313 261.618 137.462 261.778 137.605 261.94C139.501 264.095 140.347 267.049 139.732 269.914" fill="#78A9FF"/>
<path fill-rule="evenodd" clip-rule="evenodd" d="M126.782 250.748L127.527 258.261L128.66 252.699L126.782 250.748" fill="white"/>
<path fill-rule="evenodd" clip-rule="evenodd" d="M145.565 294.147L138.374 299.583L115.845 296.562C112.873 296.163 110.374 294.003 109.398 290.993L105.183 277.983L118.615 278.76L119.704 283.418L145.565 294.147" fill="#FFBFAA"/>
<path fill-rule="evenodd" clip-rule="evenodd" d="M126.974 237.017C125.024 236.808 123.167 236.168 122.561 234.59C122.561 234.59 123.206 239.157 119.236 240.866C117.97 241.411 116.152 241.651 114.972 240.788C113.102 239.422 113.594 236.637 114.074 234.721C116.236 226.102 126.207 224.513 133.221 228.18C135.784 229.521 137.4 232.21 134.993 234.579C132.985 236.554 129.714 237.31 126.974 237.017" fill="#BED5FF"/>
<path fill-rule="evenodd" clip-rule="evenodd" d="M118.8 242.296V242.296C120.097 242.296 121.148 241.225 121.148 239.903V239.054C121.148 237.732 120.097 236.661 118.8 236.661C117.503 236.661 116.452 237.732 116.452 239.054V239.903C116.452 241.225 117.503 242.296 118.8 242.296" fill="#FFBFAA"/>
<path fill-rule="evenodd" clip-rule="evenodd" d="M117.983 241.357C117.823 241.357 117.663 241.291 117.547 241.155C117.326 240.901 117.343 240.507 117.584 240.275L119.218 238.704C119.459 238.471 119.834 238.487 120.054 238.741C120.275 238.995 120.258 239.388 120.017 239.621L118.382 241.195C118.269 241.304 118.126 241.357 117.983 241.357" fill="#2A0055"/>
<path fill-rule="evenodd" clip-rule="evenodd" d="M127.176 248.87C127.154 248.87 127.131 248.867 127.108 248.864C125.711 248.676 124.374 248.076 123.242 247.129C123.001 246.927 122.955 246.55 123.139 246.288C123.321 246.025 123.664 245.974 123.905 246.174C124.883 246.992 126.037 247.512 127.242 247.673C127.541 247.714 127.755 248.013 127.718 248.341C127.684 248.646 127.448 248.87 127.176 248.87" fill="#2A0055"/>
<path fill-rule="evenodd" clip-rule="evenodd" d="M127.722 256.432L119.064 249.809L117.392 254.052L127.722 258.261V256.432" fill="white"/>
<path fill-rule="evenodd" clip-rule="evenodd" d="M122.853 234.783C122.788 234.783 122.722 234.777 122.657 234.763C122.249 234.685 122.005 234.376 122.112 234.076C122.118 234.059 122.714 232.35 122.27 230.763C122.185 230.461 122.451 230.161 122.865 230.099C123.28 230.035 123.683 230.234 123.769 230.536C124.286 232.389 123.621 234.284 123.592 234.362C123.502 234.614 123.192 234.783 122.853 234.783" fill="#82A8EE"/>
<path fill-rule="evenodd" clip-rule="evenodd" d="M120.209 280.8L104.389 280.732L100.837 269.075C99.7715 265.579 101.205 261.779 104.264 259.996L107.241 258.261L116.028 268.055L120.209 280.8" fill="#78A9FF"/>
<path fill-rule="evenodd" clip-rule="evenodd" d="M127.667 273.287C126.535 273.287 125.404 272.965 124.391 272.323L123.307 271.638C123.044 271.474 122.949 271.093 123.094 270.792C123.24 270.492 123.571 270.38 123.834 270.548L124.917 271.235C126.495 272.23 128.412 272.311 130.045 271.446L131.645 270.597C131.918 270.455 132.241 270.591 132.367 270.901C132.493 271.214 132.375 271.586 132.102 271.728L130.502 272.577C129.605 273.051 128.636 273.287 127.667 273.287" fill="white"/>
<path fill-rule="evenodd" clip-rule="evenodd" d="M127.35 317.426C127.267 317.426 127.182 317.406 127.101 317.367C126.819 317.231 126.702 316.889 126.84 316.609L131.338 307.414C131.476 307.131 131.816 307.016 132.098 307.154C132.38 307.29 132.497 307.632 132.359 307.914L127.862 317.107C127.763 317.307 127.561 317.426 127.35 317.426" fill="white"/>
<path fill-rule="evenodd" clip-rule="evenodd" d="M139.557 331.513C139.441 331.513 139.324 331.481 139.223 331.412C138.971 331.237 138.916 330.903 139.101 330.667L149.238 317.644C149.423 317.406 149.777 317.355 150.029 317.53C150.282 317.703 150.336 318.037 150.151 318.276L140.014 331.295C139.903 331.439 139.731 331.513 139.557 331.513" fill="white"/>
<path fill-rule="evenodd" clip-rule="evenodd" d="M120.607 280.8H119.182C118.883 280.8 118.641 280.554 118.641 280.251C118.641 279.947 118.883 279.701 119.182 279.701H119.865L118.356 274.944C118.265 274.655 118.421 274.346 118.705 274.253C118.989 274.16 119.294 274.318 119.385 274.608L121.121 280.084C121.174 280.251 121.146 280.434 121.044 280.576C120.942 280.718 120.78 280.8 120.607 280.8" fill="white"/>
<path fill-rule="evenodd" clip-rule="evenodd" d="M136.74 278.922C136.686 278.922 136.631 278.914 136.577 278.898C136.277 278.812 136.108 278.512 136.198 278.228L137.086 275.41C137.129 275.276 137.226 275.161 137.356 275.094C137.378 275.083 139.674 273.843 140.431 271.285C141.007 269.337 140.569 267.122 139.13 264.7C138.976 264.44 139.072 264.111 139.344 263.966C139.616 263.819 139.961 263.91 140.114 264.17C141.711 266.857 142.183 269.356 141.514 271.593C140.755 274.135 138.76 275.522 138.107 275.919L137.281 278.539C137.207 278.772 136.983 278.922 136.74 278.922" fill="white"/>
<path fill-rule="evenodd" clip-rule="evenodd" d="M152.523 295.826C152.52 295.826 152.516 295.826 152.512 295.826L146.925 295.732L135.598 292.076C135.311 291.984 135.163 291.703 135.269 291.451C135.374 291.199 135.693 291.068 135.981 291.16L147.133 294.76L152.534 294.852C152.84 294.856 153.084 295.08 153.078 295.349C153.072 295.613 152.825 295.826 152.523 295.826" fill="#2A0055"/>
<path fill-rule="evenodd" clip-rule="evenodd" d="M163.931 301.461H127.722L135.651 275.165H171.861L163.931 301.461" fill="#1063FE"/>
<path fill-rule="evenodd" clip-rule="evenodd" d="M296.734 80.652L287.234 58.3731L283.617 46.7506L298.01 44.1392L301.281 54.9793L306.156 80.7652L296.734 80.652" fill="#FFBFAA"/>
<path fill-rule="evenodd" clip-rule="evenodd" d="M296.777 80.7653L296.766 85.9949C296.859 86.7731 297.524 87.3593 298.313 87.3593H298.82L300.254 91.3375C300.608 92.319 301.544 92.974 302.597 92.974H305.989C307.254 92.974 308.216 91.8472 308.006 90.6095L306.784 83.3314L306.034 80.8782L296.777 80.7653" fill="#FFBFAA"/>
<path opacity="0.297503" fill-rule="evenodd" clip-rule="evenodd" d="M298.389 87.3391C298.312 87.3391 298.236 87.3281 298.16 87.3051C297.802 87.197 297.618 86.8631 297.744 86.5592L298.4 84.9892L298.934 85.0353C298.934 85.0358 299.509 85.0706 299.828 84.7662C300.101 84.5043 300.165 84.011 300.01 83.3394C299.94 83.023 300.18 82.7164 300.552 82.6543C300.919 82.593 301.282 82.7992 301.353 83.1156C301.599 84.1839 301.423 85.0057 300.834 85.5582C300.371 85.9905 299.781 86.1384 299.353 86.185L299.034 86.9509C298.934 87.19 298.67 87.3391 298.389 87.3391" fill="#0B1E57"/>
<path fill-rule="evenodd" clip-rule="evenodd" d="M297.023 83.5428L263.038 83.5826L259.22 43.2695C259.003 40.5055 260.586 37.9568 263.004 37.1821L279.391 31.9304L295.781 37.1835C298.197 37.9576 299.78 40.5032 299.563 43.2639L297.023 83.5428" fill="#B2BBC6"/>
<path fill-rule="evenodd" clip-rule="evenodd" d="M284.557 34.4581V34.4581C282.008 38.2482 277.009 38.633 274.011 35.2696L273.287 34.4581V19.7217H284.557V34.4581" fill="#FFBFAA"/>
<path fill-rule="evenodd" clip-rule="evenodd" d="M278.97 38.5044C276.831 38.5044 274.78 37.5461 273.278 35.8286L272.521 34.9647C272.269 34.678 272.295 34.2391 272.577 33.9842C272.862 33.7293 273.293 33.7555 273.545 34.0419L274.299 34.9058C275.637 36.4313 277.482 37.2317 279.369 37.1013C281.302 36.9679 283.077 35.8798 284.242 34.1167C284.453 33.7984 284.879 33.7126 285.193 33.9264C285.507 34.1402 285.589 34.5714 285.381 34.8903C283.978 37.0134 281.822 38.3242 279.463 38.4874C279.299 38.4987 279.134 38.5044 278.97 38.5044" fill="white"/>
<path fill-rule="evenodd" clip-rule="evenodd" d="M284.438 29.113H273.287V13.1478H286.435V27.2117C286.435 28.2616 285.54 29.113 284.438 29.113" fill="#FFBFAA"/>
<path fill-rule="evenodd" clip-rule="evenodd" d="M297.536 61.9826C297.516 61.9826 297.497 61.9818 297.477 61.9804C297.052 61.9527 296.735 61.6415 296.768 61.2856L298.047 47.5527C298.08 47.1966 298.456 46.9311 298.872 46.9585C299.297 46.9865 299.614 47.2974 299.581 47.6536L298.301 61.3865C298.272 61.7252 297.932 61.9826 297.536 61.9826" fill="#2A0055"/>
<path fill-rule="evenodd" clip-rule="evenodd" d="M272.784 20.9174C272.784 20.9174 268.266 17.5191 271.902 15.902C271.902 15.902 268.462 13.033 272.245 12.3547C272.245 12.3547 270.727 7.50329 274.824 8.75537C274.824 8.75537 278.627 4.21688 281.281 8.91198C281.281 8.91198 283.883 3.90393 286.533 8.54664C286.533 8.54664 291.247 9.27705 289.973 13.346C289.973 13.346 290.66 18.9047 287.32 17.1166C287.32 17.1166 288.892 20.336 286.238 18.7712C286.238 18.7712 285.688 16.6845 286.485 15.589C286.485 15.589 282.606 17.8842 280.739 16.0586C280.739 16.0586 279.708 17.3625 277.549 16.1107C277.549 16.1107 276.663 18.6146 275.091 17.7278C275.091 17.7278 274.955 23.5477 272.784 20.9174" fill="#0B1E57"/>
<path opacity="0.297503" fill-rule="evenodd" clip-rule="evenodd" d="M283.333 30.0522C282.302 30.0522 281.56 29.844 281.047 29.4199C280.781 29.1972 280.719 28.7672 280.914 28.4593C281.106 28.1511 281.481 28.0818 281.748 28.3042C282.076 28.5752 282.874 28.8377 284.821 28.5513C285.149 28.5044 285.449 28.7699 285.49 29.1465C285.534 29.5234 285.3 29.8682 284.972 29.9163C284.359 30.0065 283.813 30.0522 283.333 30.0522" fill="#0B1E57"/>
<path fill-rule="evenodd" clip-rule="evenodd" d="M273.756 23.4783V23.4783C272.458 23.4783 271.408 22.4071 271.408 21.0861V20.2355C271.408 18.9145 272.458 17.8435 273.756 17.8435C275.051 17.8435 276.104 18.9145 276.104 20.2355V21.0861C276.104 22.4071 275.051 23.4783 273.756 23.4783" fill="#FFBFAA"/>
<path opacity="0.297503" fill-rule="evenodd" clip-rule="evenodd" d="M273.591 22.5391C273.428 22.5391 273.267 22.4779 273.144 22.3544L271.596 20.8174C271.348 20.5691 271.345 20.1638 271.591 19.9122C271.839 19.6605 272.239 19.6578 272.49 19.9064L274.036 21.4436C274.287 21.692 274.289 22.0973 274.041 22.3486C273.919 22.4757 273.755 22.5391 273.591 22.5391" fill="#0B1E57"/>
<path fill-rule="evenodd" clip-rule="evenodd" d="M308.071 70.4348H282.679L292.499 42.2609H314.609L308.071 70.4348" fill="#1063FE"/>
<path fill-rule="evenodd" clip-rule="evenodd" d="M258.709 59.1652L255.675 69.9047C254.634 73.5897 257.243 77.2873 260.677 76.9921L283.617 75.0203V64.6569L273.199 64.019L271.367 62.2917L258.709 59.1652" fill="#FFBFAA"/>
<path fill-rule="evenodd" clip-rule="evenodd" d="M308.175 71.3739H285.496L295.686 42.2609H318.366L308.175 71.3739" fill="#78A9FF"/>
<path fill-rule="evenodd" clip-rule="evenodd" d="M259.172 41.3218L255.443 61.612L273.22 63.8609L275.165 53.9081L259.172 41.3218" fill="#B2BBC6"/>
<path opacity="0.297503" fill-rule="evenodd" clip-rule="evenodd" d="M273.035 63.8608C272.99 63.8608 272.946 63.8568 272.902 63.8479C272.529 63.7765 272.287 63.4247 272.361 63.062L274.747 51.2533C274.82 50.8906 275.182 50.6539 275.553 50.7259C275.923 50.7974 276.165 51.1494 276.091 51.5118L273.708 63.3208C273.643 63.6396 273.355 63.8608 273.035 63.8608" fill="#0B1E57"/>
<path fill-rule="evenodd" clip-rule="evenodd" d="M283.994 62.9218H287.204C291.859 62.9218 295.446 66.9733 294.814 71.5215V71.5217C294.661 72.639 293.732 73.4959 292.59 73.5743L283.617 74.1913V64.4216L283.994 62.9218" fill="#FFBFAA"/>
<path fill-rule="evenodd" clip-rule="evenodd" d="M287.374 62.7809L287.256 61.3457C287.165 60.2658 286 59.7283 285.212 60.4013C284.355 61.1317 283.541 62.1134 283.623 63.1687L283.675 63.8609L287.374 62.7809" fill="#FFBFAA"/>
<path opacity="0.297503" fill-rule="evenodd" clip-rule="evenodd" d="M259.852 41.3218C259.785 41.3218 259.718 41.3123 259.651 41.2918C259.31 41.1876 259.121 40.8439 259.232 40.5225C259.271 40.4051 260.248 37.6361 262.979 36.8368C265.047 36.2316 267.482 36.9318 270.216 38.9169C270.501 39.1233 270.554 39.5079 270.334 39.7757C270.116 40.0438 269.706 40.0932 269.421 39.8868C267.047 38.1628 265.01 37.5287 263.373 38.0039C261.288 38.6081 260.479 40.8762 260.471 40.899C260.382 41.1574 260.125 41.3218 259.852 41.3218" fill="#0B1E57"/>
<path fill-rule="evenodd" clip-rule="evenodd" d="M357.186 114.815H360.723V113.635H357.186V114.815ZM364.26 114.815H367.798V113.635H364.26V114.815ZM371.338 114.815H374.875V113.635H371.338V114.815ZM378.413 114.815H381.953V113.635H378.413V114.815ZM385.49 114.815H389.028V113.635H385.49V114.815ZM392.565 114.815H396.105V113.635H392.565V114.815ZM399.643 114.815H403.18V113.635H399.643V114.815ZM406.717 114.815H410.257V113.635H406.717V114.815ZM413.795 114.815H417.332V113.635H413.795V114.815ZM420.872 114.815H424.41V113.635H420.872V114.815ZM427.947 114.815H431.485V113.635H427.947V114.815ZM436.696 116.684H435.516V114.815H435.025V113.635H436.696V116.684ZM350.536 117.766H349.356V114.225H350.108V113.635H353.645V114.815H350.536V117.766ZM435.516 123.766H436.696V120.224H435.516V123.766ZM349.356 124.848H350.536V121.307H349.356V124.848ZM435.516 130.847H436.696V127.306H435.516V130.847ZM349.356 131.929H350.536V128.388H349.356V131.929ZM435.516 137.929H436.696V134.388H435.516V137.929ZM349.356 139.011H350.536V135.47H349.356V139.011ZM435.516 145.011H436.696V141.47H435.516V145.011ZM349.356 146.093H350.536V142.552H349.356V146.093ZM435.516 152.093H436.696V148.552H435.516V152.093ZM349.356 153.174H350.536V149.634H349.356V153.174ZM435.516 159.174H436.696V155.633H435.516V159.174ZM349.356 160.256H350.536V156.715H349.356V160.256ZM435.516 166.256H436.696V162.715H435.516V166.256ZM349.356 167.338H350.536V163.797H349.356V167.338ZM435.516 173.338H436.696V169.797H435.516V173.338ZM349.356 174.42H350.536V170.879H349.356V174.42ZM352.877 175.617H356.414V174.437H352.877V175.617ZM359.955 175.617H363.492V174.437H359.955V175.617ZM367.029 175.617H370.57V174.437H367.029V175.617ZM374.107 175.617H377.644V174.437H374.107V175.617ZM381.182 175.617H384.722V174.437H381.182V175.617ZM388.259 175.617H391.797V174.437H388.259V175.617ZM395.337 175.617H398.874V174.437H395.337V175.617ZM402.412 175.617H405.949V174.437H402.412V175.617ZM409.489 175.617H413.026V174.437H409.489V175.617ZM416.564 175.617H420.104V174.437H416.564V175.617ZM423.641 175.617H427.179V174.437H423.641V175.617ZM430.716 175.617H434.256V174.437H430.716V175.617Z" fill="#78A9FF"/>
<path fill-rule="evenodd" clip-rule="evenodd" d="M359.687 166.226H446.087V106.122H359.687V166.226Z" fill="white"/>
<path fill-rule="evenodd" clip-rule="evenodd" d="M360.987 165.863H445.723V106.484H360.987V165.863ZM359.687 167.165H447.026V105.183H359.687V167.165Z" fill="#1063FE"/>
<path fill-rule="evenodd" clip-rule="evenodd" d="M387.475 134.296L373.773 126.296C377.253 120.224 383.732 116.452 390.678 116.452V132.426C389.342 132.426 388.144 133.125 387.475 134.296" fill="#0B1E57"/>
<path fill-rule="evenodd" clip-rule="evenodd" d="M390.358 155.896C379.66 155.896 370.956 147.191 370.956 136.492C370.956 133.082 371.855 129.724 373.558 126.783L387.175 134.662C386.852 135.22 386.688 135.835 386.688 136.492C386.688 138.516 388.335 140.163 390.358 140.163C391.015 140.163 391.63 139.999 392.189 139.677L400.069 153.293C397.128 154.996 393.77 155.896 390.358 155.896" fill="#1063FE"/>
<path fill-rule="evenodd" clip-rule="evenodd" d="M400.557 153.078L392.557 139.378C393.726 138.707 394.424 137.509 394.424 136.174H410.4C410.4 143.12 406.629 149.597 400.557 153.078" fill="#78A9FF"/>
<path fill-rule="evenodd" clip-rule="evenodd" d="M410.4 136.174H394.673C394.673 134.793 393.936 133.91 393.496 133.507L404.176 122.087C408.131 125.709 410.4 130.844 410.4 136.174" fill="#78A9FF"/>
<path fill-rule="evenodd" clip-rule="evenodd" d="M392.404 133.356C391.89 132.906 391.009 132.37 389.739 132.37V116.452C394.98 116.452 399.983 118.307 403.826 121.674L392.404 133.356" fill="#0B1E57"/>
<path fill-rule="evenodd" clip-rule="evenodd" d="M437.914 147.443H418.576C418.211 147.443 417.913 147.023 417.913 146.505C417.913 145.986 418.211 145.565 418.576 145.565H437.914C438.279 145.565 438.574 145.986 438.574 146.505C438.574 147.023 438.279 147.443 437.914 147.443" fill="#1063FE"/>
<path fill-rule="evenodd" clip-rule="evenodd" d="M437.914 152.139H418.576C418.211 152.139 417.913 151.719 417.913 151.2C417.913 150.681 418.211 150.261 418.576 150.261H437.914C438.279 150.261 438.574 150.681 438.574 151.2C438.574 151.719 438.279 152.139 437.914 152.139" fill="#0B1E57"/>
<path fill-rule="evenodd" clip-rule="evenodd" d="M437.889 156.835H425.173C424.796 156.835 424.487 156.414 424.487 155.895C424.487 155.377 424.796 154.957 425.173 154.957H437.889C438.268 154.957 438.574 155.377 438.574 155.895C438.574 156.414 438.268 156.835 437.889 156.835" fill="#78A9FF"/>
<path fill-rule="evenodd" clip-rule="evenodd" d="M437.914 128.661H418.576C418.211 128.661 417.913 128.241 417.913 127.722C417.913 127.203 418.211 126.783 418.576 126.783H437.914C438.279 126.783 438.574 127.203 438.574 127.722C438.574 128.241 438.279 128.661 437.914 128.661" fill="#1063FE"/>
<path fill-rule="evenodd" clip-rule="evenodd" d="M437.889 123.965H425.173C424.796 123.965 424.487 123.544 424.487 123.026C424.487 122.507 424.796 122.087 425.173 122.087H437.889C438.268 122.087 438.574 122.507 438.574 123.026C438.574 123.544 438.268 123.965 437.889 123.965" fill="#0B1E57"/>
<path fill-rule="evenodd" clip-rule="evenodd" d="M437.914 119.27H418.576C418.211 119.27 417.913 118.849 417.913 118.331C417.913 117.812 418.211 117.391 418.576 117.391H437.914C438.279 117.391 438.574 117.812 438.574 118.331C438.574 118.849 438.279 119.27 437.914 119.27" fill="#78A9FF"/>
<path fill-rule="evenodd" clip-rule="evenodd" d="M410.4 105.652C410.4 108.505 408.089 110.817 405.235 110.817C402.383 110.817 400.069 108.505 400.069 105.652C400.069 102.799 402.383 100.487 405.235 100.487C408.089 100.487 410.4 102.799 410.4 105.652" fill="white"/>
<path fill-rule="evenodd" clip-rule="evenodd" d="M404.766 101.777C402.37 101.777 400.423 103.726 400.423 106.122C400.423 108.517 402.37 110.466 404.766 110.466C407.161 110.466 409.111 108.517 409.111 106.122C409.111 103.726 407.161 101.777 404.766 101.777ZM404.766 111.757C401.659 111.757 399.131 109.229 399.131 106.122C399.131 103.015 401.659 100.487 404.766 100.487C407.872 100.487 410.4 103.015 410.4 106.122C410.4 109.229 407.872 111.757 404.766 111.757V111.757Z" fill="#0B1E57"/>
<path fill-rule="evenodd" clip-rule="evenodd" d="M404.765 59.1652C404.245 59.1652 403.826 58.8682 403.826 58.5019V42.9245C403.826 42.5578 404.245 42.2609 404.765 42.2609C405.285 42.2609 405.704 42.5578 405.704 42.9245V58.5019C405.704 58.8682 405.285 59.1652 404.765 59.1652" fill="#0B1E57"/>
<path fill-rule="evenodd" clip-rule="evenodd" d="M404.765 101.426C404.245 101.426 403.826 101.134 403.826 100.775V67.3298C403.826 66.9701 404.245 66.6782 404.765 66.6782C405.285 66.6782 405.704 66.9701 405.704 67.3298V100.775C405.704 101.134 405.285 101.426 404.765 101.426" fill="#0B1E57"/>
<path fill-rule="evenodd" clip-rule="evenodd" d="M511.826 84.737V66.8624H502.195C501.887 65.9961 501.537 65.1509 501.142 64.3295L507.931 57.5099L495.529 45.1318L488.732 51.9632C487.949 51.5921 487.146 51.2592 486.323 50.966V41.3218H468.815V50.9506C467.799 51.3113 466.808 51.7336 465.854 52.2126L458.909 45.5303L446.779 58.1758L453.713 64.8457C453.408 65.5175 453.133 66.2052 452.884 66.9061H443.27V84.4411H452.901C453.284 85.5195 453.735 86.566 454.25 87.574L447.43 94.763L460.011 107.197L467.13 99.6881C467.67 99.9224 468.216 100.139 468.773 100.337V110.817H486.281V100.353C487.084 100.068 487.868 99.7453 488.632 99.3863L495.949 106.677L508.177 93.885L501.176 86.907C501.512 86.2005 501.817 85.4769 502.088 84.737H511.826" fill="white"/>
<path fill-rule="evenodd" clip-rule="evenodd" d="M468.997 110.456H485.114V100.236L485.548 100.083C486.319 99.8089 487.088 99.4939 487.828 99.1456L488.24 98.9524L495.372 106.059L506.637 94.2726L499.798 87.4561L499.995 87.0402C500.321 86.3524 500.622 85.6445 500.883 84.9361L501.039 84.5113H510.526V68.0299H501.139L500.986 67.5977C500.686 66.7552 500.343 65.9289 499.965 65.1416L499.767 64.7267L506.384 58.0772L494.968 46.6816L488.338 53.3422L487.926 53.1457C487.168 52.7863 486.384 52.4609 485.59 52.1788L485.159 52.0246V42.6223H469.042V52.0101L468.607 52.1638C467.63 52.5106 466.664 52.9223 465.735 53.3877L465.325 53.5931L458.553 47.078L447.388 58.7198L454.147 65.223L453.957 65.6417C453.668 66.2818 453.398 66.9543 453.156 67.6404L453.002 68.0733H443.63V84.2166H453.016L453.169 84.649C453.542 85.6931 453.982 86.7154 454.478 87.687L454.689 88.0974L448.028 95.1207L459.616 106.576L466.559 99.2569L466.973 99.4384C467.497 99.6653 468.031 99.8769 468.566 100.068L468.997 100.222V110.456ZM486.414 111.757H467.7V101.135C467.424 101.031 467.149 100.922 466.876 100.809L459.647 108.433L446.21 95.15L453.117 87.8668C452.744 87.106 452.407 86.3189 452.106 85.5171H442.33V66.7728H452.089C452.245 66.3498 452.412 65.9333 452.588 65.5269L445.551 58.7566L458.517 45.2391L465.568 52.0221C466.277 51.6817 467.007 51.3711 467.742 51.0954V41.3218H486.459V51.1116C486.999 51.3157 487.536 51.5381 488.062 51.7765L494.963 44.8424L508.221 58.0744L501.332 64.9963C501.59 65.56 501.83 66.1399 502.052 66.7293H511.826V85.8118H501.938C501.76 86.2715 501.568 86.7296 501.362 87.181L508.458 94.2503L495.394 107.916L487.965 100.514C487.455 100.742 486.937 100.955 486.414 101.151V111.757V111.757Z" fill="#BED5FF"/>
<path fill-rule="evenodd" clip-rule="evenodd" d="M480.834 89.5288C479.497 89.9373 478.074 90.1565 476.601 90.1565C468.566 90.1565 462.052 83.6385 462.052 75.5997C462.052 70.9506 464.229 66.8108 467.62 64.1449C470.095 62.2023 473.213 61.0435 476.601 61.0435C478.071 61.0435 479.491 61.2627 480.832 61.6709C479.088 62.1998 477.486 63.0489 476.089 64.1449C472.695 66.8108 470.518 70.9506 470.518 75.5997C470.518 82.1644 474.864 87.7152 480.834 89.5288" fill="#E4E8EB"/>
<path fill-rule="evenodd" clip-rule="evenodd" d="M477.19 61.4025C474.061 61.4025 471.109 62.414 468.657 64.3275C465.29 66.9505 463.361 70.8878 463.361 75.1303C463.361 82.7002 469.565 88.8584 477.19 88.8584C477.849 88.8584 478.502 88.8125 479.147 88.7218C473.885 86.2735 470.482 81.0523 470.482 75.1303C470.482 70.4868 472.595 66.1771 476.276 63.3062C477.173 62.6074 478.135 62.0169 479.15 61.5403C478.505 61.4487 477.849 61.4025 477.19 61.4025ZM477.19 90.1565C468.844 90.1565 462.052 83.4159 462.052 75.1303C462.052 70.4868 464.166 66.1771 467.846 63.3062C470.535 61.2116 473.767 60.1044 477.19 60.1044C478.69 60.1044 480.17 60.3225 481.588 60.7525L483.646 61.3747L481.588 61.9944C479.957 62.4861 478.44 63.2711 477.083 64.3275C473.719 66.9505 471.791 70.8878 471.791 75.1303C471.791 81.2206 475.729 86.4995 481.594 88.2668L483.652 88.8865L481.594 89.5087C480.173 89.9387 478.693 90.1565 477.19 90.1565V90.1565Z" fill="#BED5FF"/>
<path fill-rule="evenodd" clip-rule="evenodd" d="M480.59 90.1565C480.294 90.1565 480.022 89.974 479.931 89.6909C479.821 89.3445 480.025 88.9781 480.392 88.8729C486.573 87.0867 490.724 81.7525 490.724 75.5996C490.724 69.5381 486.472 64.08 480.386 62.3271C480.022 62.222 479.815 61.8562 479.925 61.5092C480.034 61.1625 480.421 60.9674 480.785 61.0714C487.448 62.9907 492.104 68.9648 492.104 75.5996C492.104 82.3343 487.557 88.1728 480.79 90.1278C480.725 90.1472 480.658 90.1565 480.59 90.1565" fill="#BED5FF"/>
<path fill-rule="evenodd" clip-rule="evenodd" d="M354.613 284.431C354.638 269.818 358.804 269.375 363.018 262.651C365.071 259.376 366.261 255.496 366.261 251.336C366.261 239.499 356.638 229.924 344.829 230.089C333.25 230.251 323.887 239.906 324.001 251.551C324.043 255.724 325.28 259.608 327.385 262.874C331.619 269.45 335.536 270.454 335.644 284.557L354.613 284.431" fill="white"/>
<path fill-rule="evenodd" clip-rule="evenodd" d="M335.528 285.496C335.155 285.496 334.849 285.194 334.846 284.817C334.762 273.993 332.4 270.977 329.413 267.159C328.506 266.001 327.568 264.805 326.597 263.298C324.325 259.784 323.104 255.707 323.062 251.503C322.941 239.347 332.701 229.319 344.816 229.15C350.783 229.06 356.387 231.33 360.627 235.523C364.864 239.713 367.2 245.311 367.2 251.28C367.2 255.467 366.029 259.542 363.814 263.067C362.749 264.757 361.713 266.032 360.714 267.266C357.76 270.904 355.43 273.776 355.41 284.685C355.41 285.062 355.104 285.369 354.728 285.369C354.351 285.369 354.045 285.062 354.045 284.682C354.065 273.289 356.53 270.251 359.655 266.401C360.63 265.199 361.64 263.957 362.657 262.335C364.734 259.032 365.835 255.208 365.835 251.28C365.835 245.679 363.645 240.431 359.666 236.497C355.761 232.634 350.609 230.516 345.133 230.516C345.032 230.516 344.934 230.519 344.836 230.519C333.47 230.677 324.314 240.084 324.426 251.489C324.466 255.434 325.611 259.26 327.742 262.555C328.68 264.008 329.598 265.179 330.485 266.314C333.636 270.338 336.123 273.514 336.21 284.806C336.213 285.183 335.91 285.493 335.534 285.496C335.534 285.496 335.531 285.496 335.528 285.496" fill="#BED5FF"/>
<path fill-rule="evenodd" clip-rule="evenodd" d="M335.27 251.687C335.415 251.636 341.843 240.417 341.843 240.417L335.27 251.687" fill="white"/>
<path opacity="0.494606" fill-rule="evenodd" clip-rule="evenodd" d="M335.021 252.626C334.731 252.626 334.461 252.437 334.365 252.135C334.282 251.872 334.351 251.595 334.527 251.408C334.973 250.782 338.923 244.17 341.503 239.82C341.705 239.483 342.129 239.376 342.455 239.586C342.779 239.793 342.879 240.236 342.68 240.573C335.635 252.452 335.558 252.478 335.24 252.591C335.166 252.614 335.092 252.626 335.021 252.626" fill="#BED5FF"/>
<path fill-rule="evenodd" clip-rule="evenodd" d="M342.782 251.687C342.928 251.636 349.356 240.417 349.356 240.417L342.782 251.687" fill="white"/>
<path opacity="0.494606" fill-rule="evenodd" clip-rule="evenodd" d="M342.536 252.626C342.246 252.626 341.976 252.437 341.88 252.135C341.795 251.872 341.866 251.595 342.039 251.408C342.488 250.782 346.437 244.17 349.017 239.82C349.216 239.483 349.642 239.376 349.966 239.586C350.293 239.793 350.393 240.236 350.194 240.573C343.15 252.452 343.073 252.478 342.755 252.591C342.681 252.614 342.607 252.626 342.536 252.626" fill="#BED5FF"/>
<path fill-rule="evenodd" clip-rule="evenodd" d="M349.356 251.687C349.502 251.636 355.93 240.417 355.93 240.417L349.356 251.687" fill="white"/>
<path opacity="0.494606" fill-rule="evenodd" clip-rule="evenodd" d="M349.109 252.626C348.82 252.626 348.55 252.437 348.453 252.135C348.368 251.872 348.439 251.595 348.612 251.408C349.061 250.782 353.011 244.17 355.591 239.82C355.789 239.483 356.216 239.376 356.54 239.586C356.866 239.793 356.966 240.236 356.767 240.573C349.723 252.452 349.646 252.478 349.328 252.591C349.254 252.614 349.18 252.626 349.109 252.626" fill="#BED5FF"/>
<path fill-rule="evenodd" clip-rule="evenodd" d="M336.209 258.261L340.905 281.739L336.209 258.261" fill="white"/>
<path fill-rule="evenodd" clip-rule="evenodd" d="M341.184 282.678C340.88 282.678 340.609 282.463 340.541 282.148L335.286 258.148C335.205 257.783 335.43 257.42 335.783 257.339C336.141 257.255 336.494 257.487 336.573 257.85L341.828 281.852C341.906 282.218 341.684 282.581 341.328 282.662C341.279 282.673 341.23 282.678 341.184 282.678" fill="#BED5FF"/>
<path fill-rule="evenodd" clip-rule="evenodd" d="M353.113 258.261L347.479 283.617L353.113 258.261" fill="white"/>
<path fill-rule="evenodd" clip-rule="evenodd" d="M348.103 284.557C348.057 284.557 348.011 284.551 347.965 284.54C347.628 284.458 347.417 284.092 347.494 283.724L352.817 257.854C352.894 257.485 353.228 257.255 353.565 257.339C353.901 257.421 354.112 257.786 354.037 258.155L348.712 284.022C348.648 284.34 348.388 284.557 348.103 284.557" fill="#BED5FF"/>
<path fill-rule="evenodd" clip-rule="evenodd" d="M354.133 290.039C355.645 290.039 356.87 288.812 356.87 287.299C356.87 285.784 355.645 284.557 354.133 284.557H336.125C334.616 284.557 333.392 285.784 333.392 287.299C333.392 288.812 334.616 290.039 336.125 290.039C334.616 290.039 333.392 291.267 333.392 292.782C333.392 294.295 334.616 295.525 336.125 295.525H338.65C338.634 295.648 338.62 295.773 338.62 295.903C338.62 297.416 339.845 298.643 341.357 298.643H348.904C350.414 298.643 351.638 297.416 351.638 295.903C351.638 295.773 351.627 295.648 351.608 295.525H354.133C355.645 295.525 356.87 294.295 356.87 292.782C356.87 291.267 355.645 290.039 354.133 290.039" fill="white"/>
<path fill-rule="evenodd" clip-rule="evenodd" d="M335.922 290.668C334.754 290.668 333.801 291.635 333.801 292.825C333.801 294.012 334.754 294.979 335.922 294.979H338.504C338.698 294.979 338.884 295.066 339.012 295.216C339.14 295.365 339.198 295.562 339.173 295.76C339.156 295.875 339.148 295.971 339.148 296.059C339.148 297.246 340.1 298.213 341.272 298.213H348.989C350.158 298.213 351.11 297.246 351.11 296.059C351.11 295.971 351.102 295.875 351.088 295.76C351.06 295.562 351.118 295.365 351.246 295.216C351.374 295.066 351.56 294.979 351.754 294.979H354.336C355.507 294.979 356.46 294.012 356.46 292.825C356.46 291.635 355.507 290.668 354.336 290.668C353.964 290.668 353.661 290.361 353.661 289.983C353.661 289.605 353.964 289.298 354.336 289.298C355.507 289.298 356.46 288.331 356.46 287.141C356.46 285.955 355.507 284.988 354.336 284.988H335.922C334.754 284.988 333.801 285.955 333.801 287.141C333.801 288.331 334.754 289.298 335.922 289.298C336.297 289.298 336.597 289.605 336.597 289.983C336.597 290.361 336.297 290.668 335.922 290.668ZM348.989 299.583H341.272C339.453 299.583 337.957 298.159 337.81 296.352H335.922C334.01 296.352 332.452 294.77 332.452 292.825C332.452 291.661 333.01 290.626 333.868 289.983C333.01 289.34 332.452 288.306 332.452 287.141C332.452 285.199 334.01 283.617 335.922 283.617H354.336C356.251 283.617 357.809 285.199 357.809 287.141C357.809 288.306 357.251 289.34 356.39 289.983C357.251 290.626 357.809 291.661 357.809 292.825C357.809 294.77 356.251 296.352 354.336 296.352H352.448C352.301 298.159 350.805 299.583 348.989 299.583V299.583Z" fill="#78A9FF"/>
<path fill-rule="evenodd" clip-rule="evenodd" d="M354.34 291.13H350.008C349.646 291.13 349.356 290.709 349.356 290.191C349.356 289.67 349.646 289.252 350.008 289.252H354.34C354.699 289.252 354.991 289.67 354.991 290.191C354.991 290.709 354.699 291.13 354.34 291.13" fill="#78A9FF"/>
<path fill-rule="evenodd" clip-rule="evenodd" d="M345.82 291.13H334.111C333.711 291.13 333.392 290.709 333.392 290.191C333.392 289.67 333.711 289.252 334.111 289.252H345.82C346.217 289.252 346.539 289.67 346.539 290.191C346.539 290.709 346.217 291.13 345.82 291.13" fill="#78A9FF"/>
<path fill-rule="evenodd" clip-rule="evenodd" d="M350.601 296.765H344.355C344.003 296.765 343.722 296.345 343.722 295.828C343.722 295.307 344.003 294.887 344.355 294.887H350.601C350.951 294.887 351.235 295.307 351.235 295.828C351.235 296.345 350.951 296.765 350.601 296.765" fill="#78A9FF"/>
<path fill-rule="evenodd" clip-rule="evenodd" d="M340.194 296.765H337.858C337.466 296.765 337.147 296.345 337.147 295.828C337.147 295.307 337.466 294.887 337.858 294.887H340.194C340.585 294.887 340.904 295.307 340.904 295.828C340.904 296.345 340.585 296.765 340.194 296.765" fill="#78A9FF"/>
<path fill-rule="evenodd" clip-rule="evenodd" d="M342.783 222.574C342.265 222.574 341.844 222.273 341.844 221.898V209.163C341.844 208.79 342.265 208.487 342.783 208.487C343.301 208.487 343.722 208.79 343.722 209.163V221.898C343.722 222.273 343.301 222.574 342.783 222.574" fill="#78A9FF"/>
<path fill-rule="evenodd" clip-rule="evenodd" d="M364.383 235.722L370.018 232.904L364.383 235.722" fill="white"/>
<path fill-rule="evenodd" clip-rule="evenodd" d="M364.074 236.661C363.841 236.661 363.618 236.504 363.509 236.235C363.354 235.859 363.483 235.402 363.794 235.214L369.11 232.043C369.42 231.859 369.799 232.012 369.951 232.391C370.107 232.767 369.977 233.224 369.666 233.409L364.351 236.579C364.263 236.633 364.167 236.661 364.074 236.661" fill="#78A9FF"/>
<path fill-rule="evenodd" clip-rule="evenodd" d="M323.061 236.661L316.487 234.783L323.061 236.661" fill="white"/>
<path fill-rule="evenodd" clip-rule="evenodd" d="M323.321 237.6C323.279 237.6 323.237 237.597 323.195 237.588L316.101 236.194C315.735 236.124 315.492 235.752 315.559 235.365C315.629 234.979 315.984 234.724 316.353 234.794L323.447 236.188C323.813 236.262 324.056 236.633 323.989 237.02C323.927 237.36 323.642 237.6 323.321 237.6" fill="#78A9FF"/>
<path fill-rule="evenodd" clip-rule="evenodd" d="M265.774 324.939H246.991L249.329 350.296H263.436L265.774 324.939" fill="#B2BBC6"/>
<path fill-rule="evenodd" clip-rule="evenodd" d="M257.989 320.243C257.653 320.243 257.37 319.985 257.334 319.639C257.328 319.574 256.771 313.092 263.742 311.878C268.829 310.99 269.476 307.327 269.903 304.899C269.976 304.491 270.037 304.139 270.114 303.839C270.209 303.479 270.57 303.266 270.919 303.362C271.272 303.456 271.48 303.825 271.386 304.182C271.322 304.431 271.263 304.76 271.197 305.137C270.764 307.59 269.962 312.159 263.961 313.202C258.219 314.203 258.624 319.291 258.644 319.506C258.677 319.875 258.414 320.204 258.053 320.241C258.031 320.241 258.008 320.243 257.989 320.243" fill="#B2BBC6"/>
<path fill-rule="evenodd" clip-rule="evenodd" d="M253.831 320.244C253.54 320.244 253.272 320.057 253.184 319.766C252.77 318.416 251.667 317.501 250.504 316.532L250.173 316.258C248.132 314.544 247.493 312.62 248.22 310.38C248.334 310.027 248.713 309.832 249.07 309.945C249.423 310.058 249.62 310.437 249.506 310.787C248.95 312.504 249.426 313.874 251.048 315.236L251.37 315.507C252.636 316.557 253.945 317.645 254.475 319.379C254.583 319.732 254.384 320.105 254.028 320.212C253.962 320.232 253.894 320.244 253.831 320.244" fill="#B2BBC6"/>
<path fill-rule="evenodd" clip-rule="evenodd" d="M262.738 342.783C262.361 342.783 262.056 342.472 262.056 342.088C262.056 341.707 262.361 341.394 262.738 341.394C266.166 341.394 269.044 338.894 269.582 335.448L270.017 332.669C270.118 332.022 269.936 331.365 269.519 330.867C269.102 330.369 268.491 330.085 267.85 330.085H260.821C260.444 330.085 260.139 329.774 260.139 329.39C260.139 329.006 260.444 328.696 260.821 328.696H267.85C268.891 328.696 269.879 329.159 270.555 329.968C271.232 330.773 271.528 331.84 271.364 332.889L270.929 335.667C270.285 339.791 266.839 342.783 262.738 342.783" fill="#B2BBC6"/>
<path fill-rule="evenodd" clip-rule="evenodd" d="M274.502 351.235H241.08C240.713 351.235 240.417 350.815 240.417 350.296C240.417 349.777 240.713 349.357 241.08 349.357H274.502C274.868 349.357 275.165 349.777 275.165 350.296C275.165 350.815 274.868 351.235 274.502 351.235" fill="#B2BBC6"/>
</svg>
