<svg width="535" height="365" viewBox="0 0 535 365" fill="none" xmlns="http://www.w3.org/2000/svg">
<path fill-rule="evenodd" clip-rule="evenodd" d="M36 227.697L47.9678 161L98 252L36 227.697Z" fill="#EDF4FF"/>
<path fill-rule="evenodd" clip-rule="evenodd" d="M98 251.434L1 268L36.0447 227L98 251.434" fill="#EDF4FF"/>
<path fill-rule="evenodd" clip-rule="evenodd" d="M1 268L5.68973 206.633L47 161L35.2963 227.4L1 268" fill="#EDF4FF"/>
<path fill-rule="evenodd" clip-rule="evenodd" d="M97.1152 252C97.0079 252 96.8988 251.982 96.7927 251.942L34 227.573L46.1188 160.722C46.2052 160.245 46.6634 159.928 47.1457 160.014C47.6262 160.1 47.9461 160.555 47.8597 161.031L35.9979 226.467L97.438 250.309C97.8926 250.484 98.117 250.995 97.9389 251.445C97.8024 251.79 97.4684 252 97.1152 252" fill="white"/>
<path fill-rule="evenodd" clip-rule="evenodd" d="M0.886391 269C0.68156 269 0.475842 268.929 0.308253 268.783C-0.0629845 268.461 -0.10466 267.899 0.214557 267.524L35.4411 226.31C35.7609 225.938 36.3207 225.893 36.6916 226.218C37.0629 226.539 37.1048 227.102 36.7853 227.477L1.55882 268.69C1.38354 268.896 1.13556 269 0.886391 269" fill="white"/>
<path fill-rule="evenodd" clip-rule="evenodd" d="M287 75.0547L220.641 31L192 78.3485L259.195 123L287 75.0547" fill="#EDF4FF"/>
<path fill-rule="evenodd" clip-rule="evenodd" d="M292.079 108.913C284.986 122.367 270.695 128.612 260.159 122.861C249.62 117.11 246.83 101.541 253.922 88.0866C261.014 74.6323 275.305 68.388 285.842 74.1392C296.378 79.8903 299.171 95.4592 292.079 108.913" fill="#EDF4FF"/>
<path fill-rule="evenodd" clip-rule="evenodd" d="M277.339 72.768C274.594 72.768 271.742 73.3853 268.91 74.6212C263.027 77.1879 257.939 82.1031 254.581 88.4612C251.225 94.8196 250.009 101.845 251.158 108.244C252.293 114.57 255.611 119.52 260.496 122.183C265.384 124.846 271.276 124.916 277.09 122.379C282.974 119.812 288.061 114.897 291.417 108.539C294.776 102.181 295.989 95.155 294.842 88.7557C293.704 82.4309 290.389 77.4809 285.504 74.8175C282.997 73.4518 280.226 72.768 277.339 72.768ZM268.658 126C265.488 126 262.442 125.245 259.677 123.738C254.314 120.816 250.683 115.426 249.45 108.561C248.231 101.77 249.508 94.3359 253.052 87.6268C256.593 80.9178 261.981 75.723 268.224 72.9993C274.533 70.2461 280.961 70.3391 286.324 73.262C291.686 76.1843 295.317 81.5745 296.55 88.4388C297.769 95.2297 296.49 102.664 292.949 109.373L292.184 108.956L292.949 109.373C289.407 116.082 284.019 121.277 277.776 124.001C274.719 125.334 271.635 126 268.658 126V126Z" fill="white"/>
<path fill-rule="evenodd" clip-rule="evenodd" d="M272.123 100C271.957 100 271.788 99.9519 271.639 99.8517L207.39 56.6207C206.988 56.3497 206.88 55.8008 207.145 55.3942C207.414 54.9877 207.956 54.8777 208.359 55.1484L272.61 98.3794C273.013 98.65 273.121 99.1993 272.852 99.6058C272.683 99.8617 272.406 100 272.123 100" fill="white"/>
<path fill-rule="evenodd" clip-rule="evenodd" d="M227.078 65.9133C219.985 79.3676 205.694 85.6121 195.157 79.8607C184.621 74.1096 181.829 58.5409 188.922 45.0866C196.015 31.6323 210.307 25.388 220.843 31.1392C231.38 36.8903 234.17 52.4593 227.078 65.9133" fill="#EDF4FF"/>
<path fill-rule="evenodd" clip-rule="evenodd" d="M212.362 29.7586C203.852 29.7586 194.757 35.6513 189.584 45.4479C186.227 51.8085 185.01 58.8366 186.16 65.2379C187.296 71.5652 190.614 76.5173 195.502 79.1813C200.391 81.8454 206.285 81.9152 212.102 79.3774C217.984 76.8098 223.076 71.8931 226.434 65.5325L227.198 65.9498L226.434 65.5325C233.33 52.4693 230.677 37.3368 220.516 31.7991C217.976 30.4146 215.201 29.7586 212.362 29.7586ZM203.667 83C200.495 83 197.445 82.2448 194.679 80.7374C189.316 77.8137 185.683 72.4219 184.45 65.5548C183.23 58.7619 184.51 51.3247 188.053 44.6133C195.403 30.6916 210.335 24.2456 221.339 30.2431C232.342 36.2408 235.314 52.446 227.966 66.3671C224.42 73.0785 219.03 78.2755 212.788 80.9999C209.729 82.334 206.645 83 203.667 83V83Z" fill="white"/>
<path fill-rule="evenodd" clip-rule="evenodd" d="M445.914 186L423 151.538L453.089 94L476 128.462L445.914 186" fill="#EDF4FF"/>
<path fill-rule="evenodd" clip-rule="evenodd" d="M475.963 128.507L453 94L510.034 114.493L533 149L475.963 128.507" fill="#EDF4FF"/>
<path fill-rule="evenodd" clip-rule="evenodd" d="M534 149.465L503.909 207L447 186.535L477.088 129L534 149.465" fill="#EDF4FF"/>
<path fill-rule="evenodd" clip-rule="evenodd" d="M446.879 187C446.741 187 446.603 186.968 446.471 186.899C446.04 186.673 445.875 186.143 446.101 185.715L476.63 128L534.417 148.545C534.875 148.708 535.112 149.21 534.948 149.666C534.786 150.121 534.282 150.359 533.824 150.196L477.475 130.163L447.66 186.532C447.502 186.83 447.196 187 446.879 187" fill="white"/>
<path fill-rule="evenodd" clip-rule="evenodd" d="M476.109 130C475.824 130 475.542 129.863 475.37 129.61L452.15 95.3677C451.877 94.9644 451.987 94.4186 452.396 94.1485C452.803 93.8785 453.357 93.9869 453.63 94.3902L476.848 128.633C477.124 129.036 477.014 129.582 476.605 129.852C476.453 129.952 476.281 130 476.109 130" fill="white"/>
<path fill-rule="evenodd" clip-rule="evenodd" d="M145.586 114C145.523 114 145.458 113.989 145.394 113.968C145.088 113.861 144.926 113.528 145.033 113.222L180.86 10.3933C180.966 10.0881 181.299 9.92624 181.606 10.0328C181.912 10.139 182.074 10.4726 181.967 10.7778L146.14 113.607C146.056 113.848 145.829 114 145.586 114" fill="#2A0055"/>
<path fill-rule="evenodd" clip-rule="evenodd" d="M222.412 114H129.588C129.263 114 129 113.776 129 113.5C129 113.224 129.263 113 129.588 113H222.412C222.735 113 223 113.224 223 113.5C223 113.776 222.735 114 222.412 114" fill="#2A0055"/>
<path fill-rule="evenodd" clip-rule="evenodd" d="M262 184V157.364H262.07C264.638 157.364 267.025 156.579 269.002 155.234C271.506 153.529 273.354 150.93 274.08 147.892C274.305 146.963 274.422 145.993 274.422 144.994C274.422 144.156 274.34 143.339 274.176 142.548C273.585 139.577 271.927 136.99 269.622 135.205C267.534 133.585 264.913 132.621 262.07 132.621H262V106.698H294.027C294.007 105.81 294.08 104.91 294.255 104.005C295.56 97.2984 302.044 92.9241 308.739 94.2308C314.747 95.4028 318.886 100.759 318.725 106.698H348V184H262" fill="#1063FE"/>
<path fill-rule="evenodd" clip-rule="evenodd" d="M347.416 275H261.584C261.263 275 261 274.737 261 274.41V196.59C261 196.264 261.263 196 261.584 196H289.347C289.668 196 289.931 196.264 289.931 196.59C289.931 196.916 289.668 197.18 289.347 197.18H262.168V273.82H346.832V197.18H301.94C301.616 197.18 301.356 196.916 301.356 196.59C301.356 196.264 301.616 196 301.94 196H347.416C347.737 196 348 196.264 348 196.59V274.41C348 274.737 347.737 275 347.416 275" fill="#B2CEFF"/>
<path fill-rule="evenodd" clip-rule="evenodd" d="M262 364H348V286H262V364Z" fill="#1063FE"/>
<path fill-rule="evenodd" clip-rule="evenodd" d="M143 365H55V286H143V338.997H141.529V287.469H56.4714V363.531H141.529V347.812H143V365" fill="#E4E8EB"/>
<path fill-rule="evenodd" clip-rule="evenodd" d="M448.416 61C448.095 61 447.832 60.7345 447.832 60.4066V1.18672H363.168V12.4187C363.168 12.7465 362.908 13.0121 362.584 13.0121C362.263 13.0121 362 12.7465 362 12.4187V0.593359C362 0.265825 362.263 0 362.584 0H448.416C448.74 0 449 0.265825 449 0.593359V60.4066C449 60.7345 448.74 61 448.416 61" fill="#0B1E57"/>
<path fill-rule="evenodd" clip-rule="evenodd" d="M448.416 79L417.816 78.9997C417.655 78.9997 417.503 78.9342 417.392 78.8181C417.281 78.7023 417.223 78.5463 417.232 78.3859C417.241 78.1946 417.243 78.0006 417.243 77.8067C417.243 71.2898 411.977 65.9883 405.503 65.9883C399.025 65.9883 393.759 71.2898 393.759 77.8067C393.759 78.0006 393.762 78.1946 393.771 78.3859C393.78 78.5463 393.722 78.7023 393.611 78.8181C393.5 78.9342 393.348 78.9997 393.19 78.9997H362.584C362.263 78.9997 362 78.7367 362 78.412V22.5877C362 22.2633 362.263 22 362.584 22C362.908 22 363.168 22.2633 363.168 22.5877V77.8243H392.592C392.592 77.8185 392.592 77.8126 392.592 77.8067C392.592 70.6419 398.383 64.813 405.503 64.813C412.62 64.813 418.411 70.6419 418.411 77.8067C418.411 77.8126 418.411 77.8185 418.411 77.8243L447.832 77.8246V67.9865C447.832 67.6621 448.095 67.3988 448.416 67.3988C448.74 67.3988 449 67.6621 449 67.9865V78.4123C449 78.7367 448.74 79 448.416 79" fill="#0B1E57"/>
<path fill-rule="evenodd" clip-rule="evenodd" d="M23.5838 222C23.2613 222 23 221.736 23 221.411V168.589C23 168.264 23.2613 168 23.5838 168H109.416C109.738 168 110 168.264 110 168.589V174.213C110 174.538 109.738 174.802 109.416 174.802C109.094 174.802 108.832 174.538 108.832 174.213V169.179H24.1676V221.411C24.1676 221.736 23.9061 222 23.5838 222" fill="#0B1E57"/>
<path fill-rule="evenodd" clip-rule="evenodd" d="M109.416 247H78.824C78.5079 247 78.2493 246.746 78.2405 246.427C78.0633 239.95 72.9065 234.877 66.5 234.877C60.095 234.877 54.939 239.95 54.7621 246.427C54.7534 246.746 54.4947 247 54.1786 247H23.5838C23.2613 247 23 246.734 23 246.41V231.075C23 230.75 23.2613 230.484 23.5838 230.484C23.9061 230.484 24.1676 230.75 24.1676 231.075V245.819H53.6225C54.0972 238.975 59.6484 233.696 66.5 233.696C73.3528 233.696 78.9055 238.975 79.3801 245.819H108.832V184.59C108.832 184.265 109.094 184 109.416 184C109.738 184 110 184.265 110 184.59V246.41C110 246.734 109.738 247 109.416 247" fill="#0B1E57"/>
<path fill-rule="evenodd" clip-rule="evenodd" d="M363 275H449V197H363V275Z" fill="#B2BBC6"/>
<path opacity="0.202706" fill-rule="evenodd" clip-rule="evenodd" d="M246.416 365H160.584C160.262 365 160 364.735 160 364.41V286.59C160 286.265 160.262 286 160.584 286H177.264C177.586 286 177.848 286.265 177.848 286.59C177.848 286.914 177.586 287.18 177.264 287.18H161.168V363.82H245.832V287.18H187.444C187.122 287.18 186.86 286.914 186.86 286.59C186.86 286.265 187.122 286 187.444 286H246.416C246.74 286 247 286.265 247 286.59V364.41C247 364.735 246.74 365 246.416 365" fill="#78A9FF"/>
<path fill-rule="evenodd" clip-rule="evenodd" d="M363 292.114V286H449V364H363V292.114" fill="#E4E8EB"/>
<path fill-rule="evenodd" clip-rule="evenodd" d="M46 198C45.4476 198 45 197.702 45 197.334V189.666C45 189.298 45.4476 189 46 189C46.5524 189 47 189.298 47 189.666V197.334C47 197.702 46.5524 198 46 198" fill="#78A9FF"/>
<path fill-rule="evenodd" clip-rule="evenodd" d="M55.334 191H47.666C47.2981 191 47 190.552 47 190C47 189.448 47.2981 189 47.666 189H55.334C55.7019 189 56 189.448 56 190C56 190.552 55.7019 191 55.334 191" fill="#78A9FF"/>
<path fill-rule="evenodd" clip-rule="evenodd" d="M85.334 191H77.666C77.2981 191 77 190.552 77 190C77 189.448 77.2981 189 77.666 189H85.334C85.7019 189 86 189.448 86 190C86 190.552 85.7019 191 85.334 191" fill="#78A9FF"/>
<path fill-rule="evenodd" clip-rule="evenodd" d="M85 198C84.4476 198 84 197.702 84 197.334V189.666C84 189.298 84.4476 189 85 189C85.5524 189 86 189.298 86 189.666V197.334C86 197.702 85.5524 198 85 198" fill="#78A9FF"/>
<path fill-rule="evenodd" clip-rule="evenodd" d="M85 228C84.4476 228 84 227.702 84 227.334V219.666C84 219.298 84.4476 219 85 219C85.5524 219 86 219.298 86 219.666V227.334C86 227.702 85.5524 228 85 228" fill="#78A9FF"/>
<path fill-rule="evenodd" clip-rule="evenodd" d="M85.334 229H77.666C77.2981 229 77 228.552 77 228C77 227.448 77.2981 227 77.666 227H85.334C85.7019 227 86 227.448 86 228C86 228.552 85.7019 229 85.334 229" fill="#78A9FF"/>
<path fill-rule="evenodd" clip-rule="evenodd" d="M55.334 229H47.666C47.2981 229 47 228.552 47 228C47 227.448 47.2981 227 47.666 227H55.334C55.7019 227 56 227.448 56 228C56 228.552 55.7019 229 55.334 229" fill="#78A9FF"/>
<path fill-rule="evenodd" clip-rule="evenodd" d="M46 228C45.4476 228 45 227.702 45 227.334V219.666C45 219.298 45.4476 219 46 219C46.5524 219 47 219.298 47 219.666V227.334C47 227.702 46.5524 228 46 228" fill="#78A9FF"/>
<path fill-rule="evenodd" clip-rule="evenodd" d="M286 223C285.448 223 285 222.702 285 222.334V214.666C285 214.298 285.448 214 286 214C286.552 214 287 214.298 287 214.666V222.334C287 222.702 286.552 223 286 223" fill="#B2CEFF"/>
<path fill-rule="evenodd" clip-rule="evenodd" d="M293.334 215H285.666C285.298 215 285 214.552 285 214C285 213.448 285.298 213 285.666 213H293.334C293.702 213 294 213.448 294 214C294 214.552 293.702 215 293.334 215" fill="#B2CEFF"/>
<path fill-rule="evenodd" clip-rule="evenodd" d="M323.334 215H315.666C315.298 215 315 214.552 315 214C315 213.448 315.298 213 315.666 213H323.334C323.702 213 324 213.448 324 214C324 214.552 323.702 215 323.334 215" fill="#B2CEFF"/>
<path fill-rule="evenodd" clip-rule="evenodd" d="M324 223C323.448 223 323 222.702 323 222.334V214.666C323 214.298 323.448 214 324 214C324.552 214 325 214.298 325 214.666V222.334C325 222.702 324.552 223 324 223" fill="#B2CEFF"/>
<path fill-rule="evenodd" clip-rule="evenodd" d="M324 254C323.448 254 323 253.702 323 253.334V245.666C323 245.298 323.448 245 324 245C324.552 245 325 245.298 325 245.666V253.334C325 253.702 324.552 254 324 254" fill="#B2CEFF"/>
<path fill-rule="evenodd" clip-rule="evenodd" d="M323.334 254H315.666C315.298 254 315 253.552 315 253C315 252.448 315.298 252 315.666 252H323.334C323.702 252 324 252.448 324 253C324 253.552 323.702 254 323.334 254" fill="#B2CEFF"/>
<path fill-rule="evenodd" clip-rule="evenodd" d="M293.334 254H285.666C285.298 254 285 253.552 285 253C285 252.448 285.298 252 285.666 252H293.334C293.702 252 294 252.448 294 253C294 253.552 293.702 254 293.334 254" fill="#B2CEFF"/>
<path fill-rule="evenodd" clip-rule="evenodd" d="M286 254C285.448 254 285 253.702 285 253.334V245.666C285 245.298 285.448 245 286 245C286.552 245 287 245.298 287 245.666V253.334C287 253.702 286.552 254 286 254" fill="#B2CEFF"/>
<path fill-rule="evenodd" clip-rule="evenodd" d="M184 315C183.448 315 183 314.702 183 314.334V306.666C183 306.296 183.448 306 184 306C184.552 306 185 306.296 185 306.666V314.334C185 314.702 184.552 315 184 315" fill="#B2CEFF"/>
<path fill-rule="evenodd" clip-rule="evenodd" d="M192.334 307H184.666C184.298 307 184 306.552 184 306C184 305.444 184.298 305 184.666 305H192.334C192.702 305 193 305.444 193 306C193 306.552 192.702 307 192.334 307" fill="#B2CEFF"/>
<path fill-rule="evenodd" clip-rule="evenodd" d="M223.334 307H215.666C215.296 307 215 306.552 215 306C215 305.444 215.296 305 215.666 305H223.334C223.702 305 224 305.444 224 306C224 306.552 223.702 307 223.334 307" fill="#B2CEFF"/>
<path fill-rule="evenodd" clip-rule="evenodd" d="M223 315C222.448 315 222 314.702 222 314.334V306.666C222 306.296 222.448 306 223 306C223.552 306 224 306.296 224 306.666V314.334C224 314.702 223.552 315 223 315" fill="#B2CEFF"/>
<path fill-rule="evenodd" clip-rule="evenodd" d="M223 345C222.448 345 222 344.702 222 344.334V336.666C222 336.298 222.448 336 223 336C223.552 336 224 336.298 224 336.666V344.334C224 344.702 223.552 345 223 345" fill="#B2CEFF"/>
<path fill-rule="evenodd" clip-rule="evenodd" d="M223.334 346H215.666C215.296 346 215 345.552 215 345C215 344.448 215.296 344 215.666 344H223.334C223.702 344 224 344.448 224 345C224 345.552 223.702 346 223.334 346" fill="#B2CEFF"/>
<path fill-rule="evenodd" clip-rule="evenodd" d="M192.334 346H184.666C184.298 346 184 345.552 184 345C184 344.448 184.298 344 184.666 344H192.334C192.702 344 193 344.448 193 345C193 345.552 192.702 346 192.334 346" fill="#B2CEFF"/>
<path fill-rule="evenodd" clip-rule="evenodd" d="M184 345C183.448 345 183 344.702 183 344.334V336.666C183 336.298 183.448 336 184 336C184.552 336 185 336.298 185 336.666V344.334C185 344.702 184.552 345 184 345" fill="#B2CEFF"/>
<path fill-rule="evenodd" clip-rule="evenodd" d="M166.944 72.6031L164.094 81.3771L160 98H170.759L174.4 78.56L176 71.1542L172.15 68L166.944 72.6031" fill="#FFBFAA"/>
<path fill-rule="evenodd" clip-rule="evenodd" d="M187.627 140L188.13 143.128L190 146.919V154H177V140H187.627" fill="#0B1E57"/>
<path fill-rule="evenodd" clip-rule="evenodd" d="M186.19 146H179.81C179.362 146 179 145.552 179 145C179 144.448 179.362 144 179.81 144H186.19C186.638 144 187 144.448 187 145C187 145.552 186.638 146 186.19 146" fill="white"/>
<path fill-rule="evenodd" clip-rule="evenodd" d="M176.719 153C176.474 153 176.236 152.856 176.101 152.596C175.898 152.203 176.01 151.694 176.35 151.46L179.465 149.314C180.713 148.454 182.141 148 183.594 148C186.091 148 188.485 149.368 190 151.659L188.865 152.672L188.858 152.662C187.614 150.781 185.646 149.657 183.594 149.657C182.4 149.657 181.226 150.03 180.2 150.737L177.085 152.883C176.97 152.962 176.843 153 176.719 153" fill="white"/>
<path fill-rule="evenodd" clip-rule="evenodd" d="M167 97.3147L169.015 92.9861L183.452 90L192.325 92.3165L193.154 94.0722C195.407 98.8333 195.605 104.288 193.708 109.196C192.843 111.425 190.896 113.076 188.527 113.583C187.237 113.86 185.919 114 184.599 114H167V97.3147" fill="#B2BBC6"/>
<path fill-rule="evenodd" clip-rule="evenodd" d="M159 113H188V96H159V113Z" fill="#B2BBC6"/>
<path fill-rule="evenodd" clip-rule="evenodd" d="M145.605 139.524L139.842 144.572L133 148.873V154H154V138L145.605 139.524" fill="#0B1E57"/>
<path fill-rule="evenodd" clip-rule="evenodd" d="M190.837 50.5265C190.837 50.5265 197.274 45.3952 199.82 53.9484C199.67 53.4303 203.447 52.8006 203.875 52.7948C206.328 52.764 208.549 54.303 209.836 56.4071C211.492 59.1163 213.545 64.7042 210.225 67.03C209.848 67.293 206.938 67.7058 207.007 67.5088C207.007 67.5091 204.012 75.9999 194.578 69.6316C194.578 69.6316 185.013 70.0056 186.127 63.905C186.127 63.905 181.552 52.3461 190.837 50.5265" fill="#FF5C5C"/>
<path fill-rule="evenodd" clip-rule="evenodd" d="M190.837 50.5265C190.837 50.5265 197.274 45.3952 199.82 53.9484C199.67 53.4303 203.447 52.8006 203.875 52.7948C206.328 52.764 208.549 54.303 209.836 56.4071C211.492 59.1163 213.545 64.7042 210.225 67.03C209.848 67.293 206.938 67.7058 207.007 67.5088C207.007 67.5091 204.012 75.9999 194.578 69.6316C194.578 69.6316 185.013 70.0056 186.127 63.905C186.127 63.905 181.552 52.3461 190.837 50.5265" fill="#78A9FF"/>
<path fill-rule="evenodd" clip-rule="evenodd" d="M178.107 55.0646C177.693 55.0293 177.278 55.0084 176.863 55.0024C173.726 54.9556 169.987 55.5905 168.042 58.157C166.881 59.6895 166.584 61.9832 167.697 63.6146C168.912 65.3969 171.459 65.8567 173.539 65.9721C178.519 66.2488 183.365 64.4601 186.815 61.0616C187.118 60.7623 187.865 60.1964 187.978 59.7807C188.227 58.8591 186.331 57.8874 185.5 57.3954C183.279 56.0801 180.718 55.2862 178.107 55.0646" fill="#78A9FF"/>
<path fill-rule="evenodd" clip-rule="evenodd" d="M193.248 97L169 93.5218L171.19 81.8799L172.286 80.4079C170.401 78.0488 169.372 75.108 169.372 72.0753V70.6664C169.372 68.3927 169.862 66.1464 170.807 64.0834C171.668 62.2033 173.532 61 175.582 61H196.738C199.89 61 202.333 63.7799 201.963 66.9422L193.248 97" fill="#1063FE"/>
<path fill-rule="evenodd" clip-rule="evenodd" d="M189 62.7982L179 71L181.172 62.7982V51H189V62.7982" fill="white"/>
<path fill-rule="evenodd" clip-rule="evenodd" d="M181 59H189V46H181V59Z" fill="#FFBFAA"/>
<path fill-rule="evenodd" clip-rule="evenodd" d="M191 45.9261V48.9914C191 53.9669 187.03 58 182.134 58C178.746 58 176 55.2094 176 51.7672V47.1513C176 43.2023 179.15 40 183.038 40H185.167C188.389 40 191 42.6532 191 45.9261" fill="#FFBFAA"/>
<path fill-rule="evenodd" clip-rule="evenodd" d="M181.581 59C181.26 59 181 58.7422 181 58.424C181 58.106 181.26 57.848 181.581 57.848C182.837 57.848 184.044 57.581 185.171 57.0548C185.461 56.9198 185.808 57.0427 185.944 57.3304C186.081 57.6182 185.957 57.9615 185.667 58.0968C184.384 58.6962 183.009 59 181.581 59" fill="#2A0055"/>
<path fill-rule="evenodd" clip-rule="evenodd" d="M192 45.9765V52C186.048 49.8339 182.623 46.9136 181.395 43.3372C180.085 46.0322 177.462 47.5429 174 48.2989C174 48.2989 174 47.4032 174 47.4026C174 43.8941 176.293 41.0893 179.539 39.8321C182.691 38.6112 187.17 38.5384 189.785 40.9481C191.189 42.2432 192 44.0818 192 45.9765" fill="#78A9FF"/>
<path fill-rule="evenodd" clip-rule="evenodd" d="M189 39.5001C189 41.9852 186.985 44 184.5 44C182.015 44 180 41.9852 180 39.5001C180 37.0148 182.015 35 184.5 35C186.985 35 189 37.0148 189 39.5001" fill="#78A9FF"/>
<path fill-rule="evenodd" clip-rule="evenodd" d="M188.427 41C188.294 41 188.161 40.9532 188.053 40.8579C185.764 38.8381 182.138 38.9331 179.728 39.6291C179.425 39.7162 179.108 39.5361 179.022 39.2254C178.936 38.9147 179.113 38.5917 179.417 38.5037C182.229 37.6923 186.171 37.652 188.802 39.9731C189.041 40.1842 189.067 40.5537 188.861 40.7977C188.747 40.9316 188.588 41 188.427 41" fill="white"/>
<path fill-rule="evenodd" clip-rule="evenodd" d="M176.308 77L166 73.964C166.533 72.3304 167.148 70.7026 167.618 69.0568C168.285 66.7199 169.037 64.0813 170.999 62.5415C172.785 61.1391 175.127 60.6467 177.301 61.2585L179 61.737L176.308 77" fill="#1063FE"/>
<path fill-rule="evenodd" clip-rule="evenodd" d="M196.267 77C195.949 77 195.656 76.818 195.565 76.5401L194.026 71.7974C193.92 71.4629 194.147 71.1162 194.534 71.0228C194.925 70.9307 195.327 71.1253 195.437 71.4598L196.972 76.2025C197.082 76.537 196.855 76.8837 196.464 76.9767C196.398 76.9925 196.333 77 196.267 77" fill="white"/>
<path fill-rule="evenodd" clip-rule="evenodd" d="M190.001 53V53C188.344 53 187 51.6696 187 50.0281V48.9716C187 47.3304 188.344 46 190.001 46C191.659 46 193 47.3304 193 48.9716V50.0281C193 51.6696 191.659 53 190.001 53" fill="#FFBFAA"/>
<path fill-rule="evenodd" clip-rule="evenodd" d="M146.192 146H138.808C138.362 146 138 145.552 138 145C138 144.448 138.362 144 138.808 144H146.192C146.639 144 147 144.448 147 145C147 145.552 146.639 146 146.192 146" fill="white"/>
<path fill-rule="evenodd" clip-rule="evenodd" d="M173.897 78C172.555 78 170.964 77.7603 169.311 76.9924C169.034 76.8639 168.921 76.5499 169.058 76.2908C169.196 76.0318 169.531 75.9261 169.807 76.0548C173.631 77.8304 177.178 76.3976 177.214 76.3829C177.495 76.2662 177.826 76.3845 177.951 76.648C178.077 76.9115 177.951 77.2205 177.67 77.3385C177.569 77.3807 176.054 78 173.897 78" fill="#78A9FF"/>
<path fill-rule="evenodd" clip-rule="evenodd" d="M141 140H154.61L159.41 133.112L173 113.606L158.355 106L141 140" fill="#B2BBC6"/>
<path fill-rule="evenodd" clip-rule="evenodd" d="M162 122.204L175.78 140H189L175.22 112L162 122.204" fill="#B2BBC6"/>
<path fill-rule="evenodd" clip-rule="evenodd" d="M191.39 102C191.311 102 191.233 101.985 191.154 101.953L184.369 99.1363C184.061 99.0079 183.917 98.6607 184.049 98.3598C184.18 98.0596 184.536 97.9194 184.845 98.0475L191.63 100.864C191.94 100.992 192.082 101.339 191.952 101.64C191.852 101.865 191.627 102 191.39 102" fill="white"/>
<path fill-rule="evenodd" clip-rule="evenodd" d="M168.523 126C165.996 126 163.497 124.909 161.825 122.822L151.791 110.308C148.912 106.717 149.574 101.538 153.27 98.7403C156.966 95.9434 162.296 96.586 165.175 100.177L175.209 112.691C178.088 116.283 177.426 121.462 173.73 124.259C172.181 125.432 170.345 126 168.523 126" fill="#B2BBC6"/>
<path fill-rule="evenodd" clip-rule="evenodd" d="M201.225 98C202.546 98 203.847 97.5441 204.893 96.6821C206.33 95.4977 207.109 93.6912 206.988 91.8304L205.808 74L194.28 74.7655L194.929 84.5448L177.664 83.9414L169 89.6016L199.738 97.805C200.227 97.9356 200.727 97.9997 201.225 98" fill="#FFBFAA"/>
<path fill-rule="evenodd" clip-rule="evenodd" d="M196.462 61H199.145C202.607 61 205.502 63.6411 205.84 67.106L207 79H193L196.462 61" fill="#1063FE"/>
<path fill-rule="evenodd" clip-rule="evenodd" d="M152.677 90H175L165.323 65H143L152.677 90" fill="white"/>
<path fill-rule="evenodd" clip-rule="evenodd" d="M159.764 91H153.143C152.904 91 152.69 90.8497 152.601 90.6212L143.041 65.8211C142.97 65.6364 142.992 65.4274 143.101 65.2627C143.209 65.0984 143.39 65 143.583 65H165.637C165.876 65 166.09 65.15 166.178 65.3785L170.959 77.7787C171.078 78.0867 170.931 78.4355 170.632 78.5575C170.333 78.6799 169.994 78.5293 169.876 78.2213L165.241 66.1996H144.441L153.539 89.8004H159.764C160.086 89.8004 160.347 90.0688 160.347 90.4002C160.347 90.7313 160.086 91 159.764 91" fill="#78A9FF"/>
<path fill-rule="evenodd" clip-rule="evenodd" d="M171.221 81H167.104C165.817 81 164.831 82.1624 165.024 83.453L165.884 89.1912C166.032 90.1838 166.843 90.937 167.832 91L175.849 90.4779L177 83.2659C177 83.2659 173.327 81 171.221 81" fill="#FFBFAA"/>
<path fill-rule="evenodd" clip-rule="evenodd" d="M155.573 114C155.5 114 155.425 113.985 155.353 113.955C155.061 113.832 154.922 113.492 155.044 113.196L158.827 104.016C160.083 100.969 163.002 99 166.264 99H171.427C171.743 99 172 99.2597 172 99.5803C172 99.9006 171.743 100.161 171.427 100.161H166.264C163.466 100.161 160.962 101.849 159.885 104.463L156.102 113.643C156.011 113.866 155.798 114 155.573 114" fill="white"/>
<path fill-rule="evenodd" clip-rule="evenodd" d="M163.606 129C163.485 129 163.363 128.967 163.256 128.899C162.983 128.725 162.918 128.383 163.112 128.136L170.898 118.231C171.092 117.984 171.47 117.926 171.744 118.101C172.017 118.276 172.082 118.617 171.888 118.864L164.102 128.769C163.983 128.92 163.796 129 163.606 129" fill="white"/>
<path fill-rule="evenodd" clip-rule="evenodd" d="M194.423 79H191.941C191.644 79 191.393 78.7673 191.367 78.4632L191.098 75.5533C190.847 72.8173 191.078 70.086 191.788 67.4358C191.872 67.1204 192.189 66.9342 192.498 67.0215C192.804 67.108 192.986 67.434 192.902 67.7493C192.229 70.2609 192.01 72.8493 192.247 75.4423L192.466 77.8157H194.423C194.74 77.8157 195 78.0807 195 78.4078C195 78.7347 194.74 79 194.423 79" fill="#78A9FF"/>
<path fill-rule="evenodd" clip-rule="evenodd" d="M198.349 85C198.323 85 198.296 84.9985 198.267 84.9948L194.576 84.4868C194.217 84.4372 193.962 84.0657 194.005 83.6566C194.047 83.2478 194.374 82.9565 194.733 83.0053L198.424 83.5133C198.783 83.5626 199.038 83.9344 198.995 84.3432C198.956 84.7218 198.672 85 198.349 85" fill="#78A9FF"/>
<path fill-rule="evenodd" clip-rule="evenodd" d="M185.36 79C183.856 79 182.117 78.599 180.306 77.3781C180.025 77.1886 179.918 76.7459 180.067 76.3888C180.217 76.0321 180.565 75.896 180.846 76.0855C184.419 78.4944 187.612 77.4118 189.198 76.5513C189.49 76.3925 189.829 76.5655 189.954 76.9369C190.078 77.3086 189.943 77.7385 189.65 77.8973C188.846 78.3334 187.299 79 185.36 79" fill="#78A9FF"/>
<path fill-rule="evenodd" clip-rule="evenodd" d="M163.589 84H166.652L168 81H163.589C162.711 81 162 81.6714 162 82.4997C162 83.3283 162.711 84 163.589 84" fill="#FFBFAA"/>
<path fill-rule="evenodd" clip-rule="evenodd" d="M164.366 86H167V83H164.366C163.612 83 163 83.6714 163 84.5C163 85.3283 163.612 86 164.366 86" fill="#FFBFAA"/>
<path fill-rule="evenodd" clip-rule="evenodd" d="M164.366 89H167V86H164.366C163.612 86 163 86.6714 163 87.5C163 88.3286 163.612 89 164.366 89" fill="#FFBFAA"/>
<path fill-rule="evenodd" clip-rule="evenodd" d="M164.011 89.3154C164.004 89.376 164 89.4375 164 89.5C164 90.3286 164.612 91 165.366 91H168V88H165.366C164.914 88 164.514 88.2409 164.265 88.6121L164.011 89.3154" fill="#FFBFAA"/>
<path fill-rule="evenodd" clip-rule="evenodd" d="M164.131 89C163.992 89.287 163.898 89.6286 163.868 90L164.131 89" fill="#FFBFAA"/>
<path fill-rule="evenodd" clip-rule="evenodd" d="M169.347 92C169.33 92 169.312 91.9992 169.294 91.9971L165.601 91.6274C165.242 91.5916 164.973 91.1982 165.002 90.7494C165.031 90.301 165.342 89.9692 165.706 90.0023L169.399 90.372C169.758 90.4083 170.027 90.8012 169.998 91.25C169.97 91.6764 169.684 92 169.347 92" fill="#78A9FF"/>
<path fill-rule="evenodd" clip-rule="evenodd" d="M164.449 92C164.397 92 164.343 91.9918 164.29 91.9749C163.518 91.7276 163 90.987 163 90.1317C163 89.8582 163.053 89.5934 163.158 89.3453C163.283 89.0507 163.609 88.9193 163.886 89.0513C164.164 89.1832 164.288 89.5289 164.163 89.8228C164.122 89.9198 164.101 90.0237 164.101 90.1317C164.101 90.4633 164.31 90.7614 164.609 90.8571C164.9 90.9505 165.064 91.2763 164.976 91.5849C164.904 91.8371 164.686 92 164.449 92" fill="#78A9FF"/>
<path fill-rule="evenodd" clip-rule="evenodd" d="M176 83L173.402 79.4306C172.882 78.7164 172.125 78.2266 171.276 78.0556L171 78L171.973 82.2586L176 83" fill="#FFBFAA"/>
<path fill-rule="evenodd" clip-rule="evenodd" d="M158.596 129C158.483 129 158.368 128.967 158.266 128.899C157.992 128.715 157.917 128.34 158.1 128.063L166.649 115.101C168.673 112.034 172.06 110.202 175.711 110.202H179.301C181.325 110.202 183.302 109.812 185.178 109.044C185.484 108.92 185.832 109.068 185.956 109.376C186.08 109.684 185.933 110.036 185.627 110.161C183.608 110.988 181.48 111.407 179.301 111.407H175.711C172.461 111.407 169.445 113.038 167.643 115.769L159.094 128.731C158.979 128.906 158.789 129 158.596 129" fill="#2A0055"/>
<path fill-rule="evenodd" clip-rule="evenodd" d="M65.5 139C65.224 139 65 138.738 65 138.414V96.5865C65 96.2624 65.224 96 65.5 96C65.7763 96 66 96.2624 66 96.5865V138.414C66 138.738 65.7763 139 65.5 139" fill="#0B1E57"/>
<path fill-rule="evenodd" clip-rule="evenodd" d="M65.5 169C65.224 169 65 168.733 65 168.403V144.597C65 144.267 65.224 144 65.5 144C65.7763 144 66 144.267 66 144.597V168.403C66 168.733 65.7763 169 65.5 169" fill="#0B1E57"/>
<path fill-rule="evenodd" clip-rule="evenodd" d="M75 167.5C75 172.194 71.1946 176 66.5001 176C61.8057 176 58 172.194 58 167.5C58 162.806 61.8057 159 66.5001 159C71.1946 159 75 162.806 75 167.5" fill="#0B1E57"/>
<path fill-rule="evenodd" clip-rule="evenodd" d="M66 160.161C61.6776 160.161 58.1605 163.677 58.1605 168C58.1605 172.323 61.6776 175.839 66 175.839C70.3224 175.839 73.8395 172.323 73.8395 168C73.8395 163.677 70.3224 160.161 66 160.161ZM66 177C61.0375 177 57 172.963 57 168C57 163.037 61.0375 159 66 159C70.9625 159 75 163.037 75 168C75 172.963 70.9625 177 66 177V177Z" fill="#2A0055"/>
<path fill-rule="evenodd" clip-rule="evenodd" d="M484 41H522V39H484V41Z" fill="#B2CEFF"/>
<path fill-rule="evenodd" clip-rule="evenodd" d="M449 41H472V39H449V41Z" fill="#B2CEFF"/>
<path fill-rule="evenodd" clip-rule="evenodd" d="M448.5 48C443.805 48 440 44.1945 440 39.5C440 34.8055 443.805 31 448.5 31C453.192 31 457 34.8055 457 39.5C457 44.1945 453.192 48 448.5 48" fill="white"/>
<path fill-rule="evenodd" clip-rule="evenodd" d="M448.5 31.4277C444.091 31.4277 440.507 34.8245 440.507 39C440.507 43.1755 444.091 46.5723 448.5 46.5723C452.906 46.5723 456.493 43.1755 456.493 39C456.493 34.8245 452.906 31.4277 448.5 31.4277ZM448.5 48C443.262 48 439 43.9627 439 39C439 34.0373 443.262 30 448.5 30C453.738 30 458 34.0373 458 39C458 43.9627 453.738 48 448.5 48V48Z" fill="#B2CEFF"/>
<path fill-rule="evenodd" clip-rule="evenodd" d="M226.567 43C226.507 43 226.445 42.9892 226.382 42.9665C226.084 42.8578 225.928 42.5166 226.033 42.2045L233.896 18.402C233.998 18.0898 234.322 17.9246 234.618 18.0335C234.916 18.1419 235.072 18.4831 234.967 18.7956L227.104 42.5977C227.025 42.845 226.803 43 226.567 43" fill="#2A0055"/>
<path fill-rule="evenodd" clip-rule="evenodd" d="M201.599 114C201.536 114 201.47 113.989 201.404 113.967C201.089 113.86 200.924 113.524 201.035 113.216L221.835 54.3963C221.943 54.0885 222.284 53.9257 222.596 54.0331C222.911 54.1399 223.076 54.4762 222.965 54.7842L202.165 113.604C202.081 113.847 201.847 114 201.599 114" fill="#2A0055"/>
<path fill-rule="evenodd" clip-rule="evenodd" d="M449 106.418V184H363V106.418H393.651C393.651 99.5605 399.181 94 406.001 94C412.822 94 418.349 99.5605 418.349 106.418H449" fill="#E4E8EB"/>
<path fill-rule="evenodd" clip-rule="evenodd" d="M246 197.418V275H160V197.418H190.65C190.65 190.558 196.18 185 203.001 185C209.821 185 215.352 190.558 215.352 197.418H246" fill="#78A9FF"/>
<path fill-rule="evenodd" clip-rule="evenodd" d="M131 276.617V354H45V276.617H75.675C76.0699 270.133 81.4368 265 88 265C93.8115 265 98.69 269.027 100.003 274.453C100.018 274.503 100.03 274.553 100.041 274.605C100.129 274.995 100.199 275.397 100.252 275.802C100.258 275.852 100.264 275.905 100.269 275.955C100.296 276.174 100.313 276.394 100.328 276.617H131" fill="#1063FE"/>
<path fill-rule="evenodd" clip-rule="evenodd" d="M347.152 63C346.911 63 346.678 62.8961 346.528 62.7095L342.16 57.3236C341.897 57.0006 341.966 56.5405 342.311 56.2958C342.656 56.0514 343.149 56.1148 343.41 56.4372L346.371 60.0887L346.43 25.7324C346.43 25.3277 346.782 25 347.215 25C347.652 25.0009 348 25.3298 348 25.7347L347.937 62.2676C347.937 62.5825 347.721 62.8618 347.403 62.9619C347.319 62.9877 347.237 63 347.152 63" fill="#E4E8EB"/>
<path fill-rule="evenodd" clip-rule="evenodd" d="M347.762 63C347.625 63 347.488 62.9647 347.362 62.8904C347.005 62.676 346.893 62.2186 347.112 61.8693L350.587 56.3542C350.807 56.0046 351.28 55.8953 351.637 56.1098C351.997 56.3239 352.107 56.7813 351.887 57.1308L348.412 62.6457C348.269 62.8741 348.018 63 347.762 63" fill="#E4E8EB"/>
<path fill-rule="evenodd" clip-rule="evenodd" d="M517.785 337V337C517.352 337 517 336.671 517 336.264L517.063 299.731C517.063 299.417 517.279 299.138 517.6 299.038C517.917 298.938 518.268 299.038 518.472 299.291L522.842 304.678C523.103 305 523.034 305.458 522.688 305.705C522.343 305.948 521.853 305.886 521.59 305.561L518.629 301.911L518.57 336.266C518.57 336.671 518.218 337 517.785 337" fill="#B2CEFF"/>
<path fill-rule="evenodd" clip-rule="evenodd" d="M513.762 305C513.625 305 513.488 304.964 513.362 304.89C513.005 304.676 512.893 304.219 513.112 303.868L516.588 298.353C516.808 298.003 517.281 297.896 517.638 298.11C517.995 298.324 518.107 298.781 517.888 299.132L514.412 304.644C514.269 304.872 514.019 305 513.762 305" fill="#B2CEFF"/>
<path opacity="0.496605" fill-rule="evenodd" clip-rule="evenodd" d="M347.416 299H261.584C261.26 299 261 298.775 261 298.5C261 298.222 261.26 298 261.584 298H347.416C347.737 298 348 298.222 348 298.5C348 298.775 347.737 299 347.416 299" fill="white"/>
<path opacity="0.496605" fill-rule="evenodd" clip-rule="evenodd" d="M347.416 313H261.584C261.26 313 261 312.775 261 312.5C261 312.222 261.26 312 261.584 312H347.416C347.737 312 348 312.222 348 312.5C348 312.775 347.737 313 347.416 313" fill="white"/>
<path opacity="0.496605" fill-rule="evenodd" clip-rule="evenodd" d="M347.416 326H261.584C261.26 326 261 325.775 261 325.5C261 325.222 261.26 325 261.584 325H347.416C347.737 325 348 325.222 348 325.5C348 325.775 347.737 326 347.416 326" fill="white"/>
<path opacity="0.496605" fill-rule="evenodd" clip-rule="evenodd" d="M347.416 339H261.584C261.26 339 261 338.775 261 338.5C261 338.222 261.26 338 261.584 338H347.416C347.737 338 348 338.222 348 338.5C348 338.775 347.737 339 347.416 339" fill="white"/>
<path opacity="0.496605" fill-rule="evenodd" clip-rule="evenodd" d="M347.405 353H285.595C285.268 353 285 352.775 285 352.5C285 352.222 285.268 352 285.595 352H347.405C347.732 352 348 352.222 348 352.5C348 352.775 347.732 353 347.405 353" fill="white"/>
<path opacity="0.496605" fill-rule="evenodd" clip-rule="evenodd" d="M278.412 353H261.588C261.262 353 261 352.775 261 352.5C261 352.222 261.262 352 261.588 352H278.412C278.735 352 279 352.222 279 352.5C279 352.775 278.735 353 278.412 353" fill="white"/>
<path opacity="0.496605" fill-rule="evenodd" clip-rule="evenodd" d="M328.5 365C328.222 365 328 364.735 328 364.41V286.59C328 286.263 328.222 286 328.5 286C328.775 286 329 286.263 329 286.59V364.41C329 364.735 328.775 365 328.5 365" fill="white"/>
<path opacity="0.496605" fill-rule="evenodd" clip-rule="evenodd" d="M341.5 365C341.222 365 341 364.735 341 364.41V286.59C341 286.263 341.222 286 341.5 286C341.775 286 342 286.263 342 286.59V364.41C342 364.735 341.775 365 341.5 365" fill="white"/>
<path opacity="0.496605" fill-rule="evenodd" clip-rule="evenodd" d="M315.5 365C315.225 365 315 364.735 315 364.411V324.589C315 324.265 315.225 324 315.5 324C315.778 324 316 324.265 316 324.589V364.411C316 364.735 315.778 365 315.5 365" fill="white"/>
<path opacity="0.496605" fill-rule="evenodd" clip-rule="evenodd" d="M315.5 317C315.225 317 315 316.741 315 316.425V286.575C315 286.256 315.225 286 315.5 286C315.778 286 316 286.256 316 286.575V316.425C316 316.741 315.778 317 315.5 317" fill="white"/>
<path opacity="0.496605" fill-rule="evenodd" clip-rule="evenodd" d="M302.5 365C302.225 365 302 364.735 302 364.41V286.59C302 286.263 302.225 286 302.5 286C302.778 286 303 286.263 303 286.59V364.41C303 364.735 302.778 365 302.5 365" fill="white"/>
<path opacity="0.496605" fill-rule="evenodd" clip-rule="evenodd" d="M288.5 365C288.222 365 288 364.735 288 364.41V286.59C288 286.263 288.222 286 288.5 286C288.775 286 289 286.263 289 286.59V364.41C289 364.735 288.775 365 288.5 365" fill="white"/>
<path opacity="0.496605" fill-rule="evenodd" clip-rule="evenodd" d="M274.5 365C274.222 365 274 364.735 274 364.41V286.59C274 286.263 274.222 286 274.5 286C274.775 286 275 286.263 275 286.59V364.41C275 364.735 274.775 365 274.5 365" fill="white"/>
<path opacity="0.496605" fill-rule="evenodd" clip-rule="evenodd" d="M448.416 119H362.584C362.26 119 362 118.776 362 118.5C362 118.224 362.26 118 362.584 118H448.416C448.737 118 449 118.224 449 118.5C449 118.776 448.737 119 448.416 119" fill="white"/>
<path opacity="0.496605" fill-rule="evenodd" clip-rule="evenodd" d="M449.415 132H414.585C414.26 132 414 131.776 414 131.5C414 131.224 414.26 131 414.585 131H449.415C449.737 131 450 131.224 450 131.5C450 131.776 449.737 132 449.415 132" fill="white"/>
<path opacity="0.496605" fill-rule="evenodd" clip-rule="evenodd" d="M407.401 132H362.599C362.267 132 362 131.776 362 131.5C362 131.224 362.267 131 362.599 131H407.401C407.731 131 408 131.224 408 131.5C408 131.776 407.731 132 407.401 132" fill="white"/>
<path opacity="0.496605" fill-rule="evenodd" clip-rule="evenodd" d="M448.416 145H362.584C362.26 145 362 144.776 362 144.5C362 144.224 362.26 144 362.584 144H448.416C448.737 144 449 144.224 449 144.5C449 144.776 448.737 145 448.416 145" fill="white"/>
<path opacity="0.496605" fill-rule="evenodd" clip-rule="evenodd" d="M449.412 158H397.588C397.261 158 397 157.776 397 157.5C397 157.224 397.261 157 397.588 157H449.412C449.736 157 450 157.224 450 157.5C450 157.776 449.736 158 449.412 158" fill="white"/>
<path opacity="0.496605" fill-rule="evenodd" clip-rule="evenodd" d="M390.415 158H363.585C363.26 158 363 157.776 363 157.5C363 157.224 363.26 157 363.585 157H390.415C390.737 157 391 157.224 391 157.5C391 157.776 390.737 158 390.415 158" fill="white"/>
<path opacity="0.496605" fill-rule="evenodd" clip-rule="evenodd" d="M448.416 172H362.584C362.26 172 362 171.776 362 171.5C362 171.224 362.26 171 362.584 171H448.416C448.737 171 449 171.224 449 171.5C449 171.776 448.737 172 448.416 172" fill="white"/>
<path opacity="0.496605" fill-rule="evenodd" clip-rule="evenodd" d="M430.5 184C430.222 184 430 183.736 430 183.41V105.59C430 105.264 430.222 105 430.5 105C430.775 105 431 105.264 431 105.59V183.41C431 183.736 430.775 184 430.5 184" fill="white"/>
<path opacity="0.496605" fill-rule="evenodd" clip-rule="evenodd" d="M442.5 184C442.225 184 442 183.736 442 183.41V105.59C442 105.264 442.225 105 442.5 105C442.775 105 443 105.264 443 105.59V183.41C443 183.736 442.775 184 442.5 184" fill="white"/>
<path opacity="0.496605" fill-rule="evenodd" clip-rule="evenodd" d="M416.5 184C416.222 184 416 183.736 416 183.41V105.59C416 105.264 416.222 105 416.5 105C416.775 105 417 105.264 417 105.59V183.41C417 183.736 416.775 184 416.5 184" fill="white"/>
<path opacity="0.496605" fill-rule="evenodd" clip-rule="evenodd" d="M403.5 184C403.222 184 403 183.736 403 183.41V105.59C403 105.264 403.222 105 403.5 105C403.775 105 404 105.264 404 105.59V183.41C404 183.736 403.775 184 403.5 184" fill="white"/>
<path opacity="0.496605" fill-rule="evenodd" clip-rule="evenodd" d="M390.5 184C390.222 184 390 183.732 390 183.401V157.599C390 157.269 390.222 157 390.5 157C390.775 157 391 157.269 391 157.599V183.401C391 183.732 390.775 184 390.5 184" fill="white"/>
<path opacity="0.496605" fill-rule="evenodd" clip-rule="evenodd" d="M390.5 158C390.222 158 390 157.739 390 157.417V105.583C390 105.261 390.222 105 390.5 105C390.775 105 391 105.261 391 105.583V157.417C391 157.739 390.775 158 390.5 158" fill="white"/>
<path opacity="0.496605" fill-rule="evenodd" clip-rule="evenodd" d="M376.5 184C376.225 184 376 183.736 376 183.41V105.59C376 105.264 376.225 105 376.5 105C376.775 105 377 105.264 377 105.59V183.41C377 183.736 376.775 184 376.5 184" fill="white"/>
<path opacity="0.268438" fill-rule="evenodd" clip-rule="evenodd" d="M362.565 207C362.405 207 362.246 206.935 362.133 206.809C361.933 206.58 361.961 206.237 362.198 206.043L373.07 197.13C373.308 196.935 373.663 196.962 373.867 197.191C374.067 197.42 374.039 197.763 373.802 197.957L362.93 206.87C362.822 206.957 362.692 207 362.565 207" fill="white"/>
<path opacity="0.268438" fill-rule="evenodd" clip-rule="evenodd" d="M363.571 222C363.409 222 363.249 221.929 363.135 221.791C362.932 221.542 362.961 221.167 363.2 220.954L390.061 197.142C390.3 196.93 390.66 196.958 390.865 197.209C391.068 197.458 391.039 197.833 390.8 198.046L363.939 221.858C363.834 221.953 363.7 222 363.571 222" fill="white"/>
<path opacity="0.268438" fill-rule="evenodd" clip-rule="evenodd" d="M361.599 235C361.429 235 361.261 234.929 361.141 234.793C360.929 234.544 360.959 234.167 361.21 233.957L406.015 196.141C406.266 195.93 406.643 195.959 406.859 196.208C407.071 196.458 407.041 196.832 406.79 197.044L361.985 234.858C361.874 234.953 361.734 235 361.599 235" fill="white"/>
<path opacity="0.268438" fill-rule="evenodd" clip-rule="evenodd" d="M361.594 249C361.425 249 361.259 248.93 361.14 248.795C360.93 248.549 360.959 248.177 361.208 247.97L405.021 211.14C405.27 210.93 405.647 210.96 405.857 211.206C406.071 211.452 406.041 211.822 405.792 212.031L361.977 248.86C361.867 248.953 361.728 249 361.594 249" fill="white"/>
<path opacity="0.268438" fill-rule="evenodd" clip-rule="evenodd" d="M411.565 207C411.404 207 411.246 206.935 411.136 206.809C410.933 206.58 410.961 206.237 411.198 206.043L422.07 197.13C422.308 196.935 422.663 196.962 422.867 197.191C423.067 197.42 423.039 197.763 422.802 197.957L411.932 206.87C411.825 206.957 411.695 207 411.565 207" fill="white"/>
<path opacity="0.268438" fill-rule="evenodd" clip-rule="evenodd" d="M361.589 263C361.422 263 361.257 262.93 361.139 262.796C360.93 262.551 360.96 262.181 361.207 261.974L438.03 197.139C438.277 196.931 438.648 196.96 438.86 197.205C439.072 197.45 439.039 197.818 438.792 198.027L361.969 262.86C361.86 262.953 361.722 263 361.589 263" fill="white"/>
<path opacity="0.268438" fill-rule="evenodd" clip-rule="evenodd" d="M364.593 275C364.425 275 364.259 274.929 364.14 274.792C363.93 274.542 363.959 274.164 364.208 273.952L385.023 256.143C385.272 255.929 385.645 255.958 385.859 256.211C386.072 256.461 386.039 256.836 385.791 257.051L364.976 274.857C364.866 274.952 364.727 275 364.593 275" fill="white"/>
<path opacity="0.268438" fill-rule="evenodd" clip-rule="evenodd" d="M392.588 252C392.421 252 392.256 251.93 392.139 251.797C391.93 251.553 391.96 251.185 392.206 250.979L449.034 203.139C449.28 202.931 449.65 202.96 449.861 203.204C450.07 203.448 450.04 203.814 449.794 204.022L392.966 251.861C392.858 251.954 392.72 252 392.588 252" fill="white"/>
<path opacity="0.268438" fill-rule="evenodd" clip-rule="evenodd" d="M381.587 275C381.42 275 381.256 274.93 381.139 274.795C380.93 274.548 380.96 274.176 381.206 273.967L449.035 216.14C449.281 215.93 449.65 215.959 449.861 216.206C450.07 216.453 450.04 216.824 449.794 217.034L381.965 274.859C381.857 274.953 381.722 275 381.587 275" fill="white"/>
<path opacity="0.268438" fill-rule="evenodd" clip-rule="evenodd" d="M396.594 275C396.425 275 396.259 274.93 396.14 274.796C395.93 274.55 395.959 274.179 396.208 273.972L421.022 253.139C421.271 252.932 421.644 252.958 421.857 253.206C422.071 253.452 422.041 253.82 421.792 254.03L396.976 274.86C396.866 274.953 396.73 275 396.594 275" fill="white"/>
<path opacity="0.268438" fill-rule="evenodd" clip-rule="evenodd" d="M427.584 249C427.418 249 427.254 248.93 427.138 248.795C426.931 248.549 426.96 248.177 427.205 247.969L448.04 230.141C448.285 229.93 448.652 229.959 448.862 230.205C449.069 230.451 449.04 230.823 448.795 231.031L427.96 248.859C427.852 248.953 427.718 249 427.584 249" fill="white"/>
<path opacity="0.268438" fill-rule="evenodd" clip-rule="evenodd" d="M413.581 275C413.416 275 413.253 274.93 413.137 274.796C412.931 274.551 412.96 274.181 413.204 273.973L448.045 244.14C448.288 243.93 448.654 243.96 448.863 244.204C449.069 244.449 449.04 244.82 448.796 245.027L413.955 274.86C413.848 274.953 413.712 275 413.581 275" fill="white"/>
<path opacity="0.268438" fill-rule="evenodd" clip-rule="evenodd" d="M430.585 275C430.419 275 430.255 274.931 430.138 274.798C429.931 274.556 429.96 274.189 430.205 273.984L449.038 258.139C449.283 257.931 449.651 257.96 449.862 258.202C450.069 258.445 450.04 258.811 449.795 259.016L430.962 274.861C430.854 274.954 430.72 275 430.585 275" fill="white"/>
<path opacity="0.276344" fill-rule="evenodd" clip-rule="evenodd" d="M246.435 207C246.308 207 246.178 206.957 246.07 206.87L235.198 197.957C234.961 197.762 234.933 197.419 235.133 197.191C235.337 196.962 235.692 196.935 235.93 197.129L246.802 206.043C247.039 206.237 247.067 206.58 246.867 206.809C246.754 206.935 246.595 207 246.435 207" fill="white"/>
<path opacity="0.276344" fill-rule="evenodd" clip-rule="evenodd" d="M246.429 222C246.3 222 246.169 221.953 246.061 221.858L219.2 198.045C218.961 197.833 218.932 197.458 219.135 197.209C219.34 196.959 219.7 196.929 219.939 197.141L246.8 220.954C247.039 221.167 247.068 221.542 246.865 221.791C246.751 221.929 246.591 222 246.429 222" fill="white"/>
<path opacity="0.276344" fill-rule="evenodd" clip-rule="evenodd" d="M214.404 208C214.27 208 214.134 207.953 214.021 207.857L193.21 190.052C192.96 189.838 192.928 189.461 193.142 189.21C193.356 188.959 193.731 188.929 193.981 189.142L214.791 206.948C215.041 207.162 215.071 207.539 214.859 207.79C214.74 207.929 214.574 208 214.404 208" fill="white"/>
<path opacity="0.276344" fill-rule="evenodd" clip-rule="evenodd" d="M247.4 235C247.265 235 247.128 234.953 247.014 234.858L222.21 214.039C221.959 213.828 221.929 213.456 222.142 213.207C222.357 212.959 222.735 212.93 222.986 213.141L247.79 233.961C248.041 234.171 248.071 234.546 247.858 234.793C247.739 234.929 247.571 235 247.4 235" fill="white"/>
<path opacity="0.276344" fill-rule="evenodd" clip-rule="evenodd" d="M247.407 249C247.274 249 247.138 248.954 247.025 248.861L186.208 198.023C185.959 197.815 185.929 197.448 186.141 197.204C186.353 196.96 186.727 196.931 186.976 197.138L247.792 247.977C248.041 248.184 248.07 248.553 247.86 248.797C247.742 248.93 247.576 249 247.407 249" fill="white"/>
<path opacity="0.276344" fill-rule="evenodd" clip-rule="evenodd" d="M247.411 263C247.278 263 247.143 262.953 247.031 262.86L170.207 198.027C169.959 197.818 169.93 197.45 170.141 197.205C170.351 196.96 170.723 196.931 170.97 197.139L247.793 261.974C248.04 262.181 248.07 262.551 247.861 262.796C247.743 262.93 247.578 263 247.411 263" fill="white"/>
<path opacity="0.276344" fill-rule="evenodd" clip-rule="evenodd" d="M244.415 275C244.284 275 244.149 274.953 244.038 274.859L160.205 203.035C159.96 202.824 159.93 202.454 160.139 202.207C160.349 201.959 160.717 201.93 160.963 202.14L244.795 273.966C245.04 274.174 245.069 274.548 244.862 274.794C244.745 274.929 244.582 275 244.415 275" fill="white"/>
<path opacity="0.276344" fill-rule="evenodd" clip-rule="evenodd" d="M189.42 242C189.287 242 189.154 241.956 189.045 241.862L160.204 217.032C159.96 216.822 159.931 216.452 160.138 216.206C160.346 215.96 160.712 215.93 160.956 216.14L189.797 240.968C190.04 241.179 190.069 241.549 189.862 241.795C189.747 241.933 189.584 242 189.42 242" fill="white"/>
<path opacity="0.276344" fill-rule="evenodd" clip-rule="evenodd" d="M228.408 275C228.275 275 228.136 274.953 228.027 274.86L197.208 249.024C196.959 248.818 196.93 248.448 197.14 248.204C197.352 247.96 197.725 247.931 197.973 248.14L228.792 273.976C229.041 274.183 229.07 274.552 228.86 274.796C228.742 274.93 228.577 275 228.408 275" fill="white"/>
<path opacity="0.276344" fill-rule="evenodd" clip-rule="evenodd" d="M211.409 276C211.277 276 211.138 275.952 211.029 275.856L159.207 231.054C158.959 230.841 158.93 230.461 159.141 230.21C159.352 229.958 159.724 229.929 159.972 230.144L211.793 274.947C212.04 275.159 212.07 275.539 211.861 275.791C211.743 275.928 211.577 276 211.409 276" fill="white"/>
<path opacity="0.276344" fill-rule="evenodd" clip-rule="evenodd" d="M195.419 275C195.288 275 195.155 274.953 195.045 274.86L160.204 245.027C159.96 244.82 159.931 244.449 160.138 244.204C160.346 243.96 160.712 243.93 160.956 244.14L195.796 273.973C196.04 274.181 196.069 274.551 195.863 274.796C195.747 274.93 195.584 275 195.419 275" fill="white"/>
<path opacity="0.276344" fill-rule="evenodd" clip-rule="evenodd" d="M179.415 275C179.281 275 179.147 274.954 179.037 274.861L160.205 259.016C159.96 258.811 159.93 258.445 160.139 258.202C160.349 257.96 160.717 257.931 160.963 258.139L179.795 273.984C180.04 274.189 180.07 274.556 179.861 274.798C179.745 274.931 179.581 275 179.415 275" fill="white"/>
<path fill-rule="evenodd" clip-rule="evenodd" d="M506.372 286.406L506.503 287.064C506.772 288.413 506.76 289.8 506.47 291.147L506.198 292.399L506.955 295.952C507.156 296.895 506.665 297.848 505.763 298.267C505.405 298.432 505.009 298.5 504.615 298.466L503.864 298.401C503.814 298.93 503.42 299.371 502.885 299.502L502.192 299.67C501.249 299.901 500.246 299.713 499.459 299.158L499.169 299.579C498.79 300.129 497.956 300.143 497.56 299.605C496.72 298.46 496.223 297.117 496.128 295.719L496.01 293.996C495.951 293.105 496.164 292.217 496.625 291.44L497.882 289.33L499.486 285L506.372 286.406" fill="#FFCBBD"/>
<path fill-rule="evenodd" clip-rule="evenodd" d="M499.47 247L501.044 264.551L496 288L508.101 286.82L509 267.6L506.266 253.464C505.558 248.502 499.47 247 499.47 247" fill="#AFCCFF"/>
<path fill-rule="evenodd" clip-rule="evenodd" d="M484 343.844L483.018 354H473.083L471 341L484 343.844" fill="#FFBFAA"/>
<path fill-rule="evenodd" clip-rule="evenodd" d="M496 343.844L494.994 354H480.132L478 341L496 343.844" fill="#FFBFAA"/>
<path fill-rule="evenodd" clip-rule="evenodd" d="M490 249L479.768 248.764L480.646 242.322L476 230.271L487.528 229L490 249" fill="#FFCBBD"/>
<path fill-rule="evenodd" clip-rule="evenodd" d="M498.743 349.896L499 363H480V358.184L482.326 353.536L483.45 349L487.258 349.354L488.301 352.138L498.743 349.896" fill="#B2CEFF"/>
<path fill-rule="evenodd" clip-rule="evenodd" d="M486.036 360C485.955 360 485.874 359.985 485.799 359.953L483.359 358.924C483.056 358.796 482.918 358.452 483.05 358.157C483.182 357.86 483.536 357.726 483.839 357.854L485.964 358.752L491.195 355.111C491.297 355.038 491.42 355 491.546 355H497.419C497.617 355 497.803 355.096 497.914 355.254L499.894 358.058C500.083 358.324 500.011 358.688 499.738 358.869C499.465 359.052 499.093 358.985 498.904 358.717L497.103 356.166H491.738L486.387 359.892C486.282 359.965 486.162 360 486.036 360" fill="white"/>
<path fill-rule="evenodd" clip-rule="evenodd" d="M482.625 349L483 363H464V358.184L470.399 353.536L467.45 349L471.258 349.354L472.301 352.138L482.625 349" fill="#B2CEFF"/>
<path fill-rule="evenodd" clip-rule="evenodd" d="M483.424 364C483.107 364 482.847 363.717 482.847 363.364V358.894L481.219 356.273H476.067L470.929 360.338C470.802 360.44 470.643 360.478 470.488 360.446L464.474 359.228C464.159 359.164 463.952 358.83 464.01 358.487C464.067 358.14 464.37 357.911 464.681 357.975L470.456 359.145L475.545 355.121C475.643 355.041 475.761 355 475.882 355H481.522C481.712 355 481.891 355.105 481.997 355.277L483.899 358.337C483.965 358.445 484 358.569 484 358.697V363.364C484 363.717 483.744 364 483.424 364" fill="white"/>
<path fill-rule="evenodd" clip-rule="evenodd" d="M502 250.917L501.195 287H466.963L466 267.969L466.006 251.517C466.006 249.021 467.82 246.902 470.273 246.523L480.154 245L484.003 245.021L489.722 245.053L498.538 246.723C500.545 247.105 502 248.865 502 250.917" fill="#AFCCFF"/>
<path fill-rule="evenodd" clip-rule="evenodd" d="M443.146 269L439.468 267.201C438.017 267.406 433.996 267.009 433.153 266.898C432.375 266.798 431.69 266.287 431.375 265.527C431.217 265.147 431.163 264.733 431.22 264.325L431.33 263.548C430.769 263.468 430.318 263.037 430.208 262.471L430.064 261.746C429.87 260.752 430.121 259.721 430.752 258.936L430.56 258.205C429.997 257.782 430.025 256.914 430.62 256.534C431.84 255.746 433.099 255.948 434.483 256.385C434.483 256.385 436.295 256.948 437.501 258.125L445 261.926L443.146 269" fill="#FFBFAA"/>
<path fill-rule="evenodd" clip-rule="evenodd" d="M436.516 255.374C436.532 254.883 436.814 254.435 437.262 254.189C438.17 253.692 439.319 254.225 439.466 255.215C439.559 257.628 440.224 259.672 442 261L435 259.236L436.516 255.374" fill="#FFBFAA"/>
<path fill-rule="evenodd" clip-rule="evenodd" d="M472.261 249.926V249.926C473.378 252.727 473.224 255.869 471.834 258.549L465.278 274.784L463.469 276.383C462.78 276.993 461.806 277.166 460.945 276.834L439 268.315L443.812 260.156L458.134 262.928L460.87 254.352C462.012 250.77 465.246 248.25 469.019 248.007C470.395 247.918 471.683 248.681 472.261 249.926" fill="#AFCCFF"/>
<path fill-rule="evenodd" clip-rule="evenodd" d="M469.592 347H498.786L501 287H467L469.592 347" fill="#78A9FF"/>
<path fill-rule="evenodd" clip-rule="evenodd" d="M483.594 348C483.585 348 483.573 348 483.564 348C483.235 347.983 482.986 347.711 483.001 347.394L485.349 302.757C485.358 302.552 485.48 302.367 485.67 302.272C485.687 302.263 487.517 301.319 488.911 299.26C489.092 298.994 489.459 298.919 489.732 299.095C490.008 299.272 490.082 299.63 489.901 299.895C488.671 301.718 487.155 302.748 486.515 303.13L484.187 347.451C484.169 347.76 483.908 348 483.594 348" fill="white"/>
<path fill-rule="evenodd" clip-rule="evenodd" d="M475.63 236L475.549 236.157L474.066 239.086C473.848 239.515 474.197 240 474.718 240H477L475.63 236" fill="#FFBFAA"/>
<path fill-rule="evenodd" clip-rule="evenodd" d="M475.63 236L475.549 236.157L474.066 239.086C473.848 239.515 474.197 240 474.718 240H477L475.63 236" fill="#FFCBBD"/>
<path fill-rule="evenodd" clip-rule="evenodd" d="M483.424 243H479.576C477.6 243 476 241.386 476 239.393V230H487V239.393C487 241.386 485.4 243 483.424 243" fill="#FFCBBD"/>
<path fill-rule="evenodd" clip-rule="evenodd" d="M488.565 231.083C487.14 232.23 485.465 232.991 483.697 233.338C482.291 233.613 480.872 233.813 479.455 233.916C478.254 234.002 477.003 234.093 475.822 233.798C475.018 233.598 474.269 233.176 474.104 232.259C473.922 231.237 474.726 230.208 475.549 229.754C475.549 229.754 472.633 228.769 474.802 226.865C474.868 226.812 474.567 225.363 474.561 225.209C474.45 223.107 476.083 221.624 478.073 222.084C481.883 222.965 483.768 227.569 487.762 227.994C491.12 228.351 490.101 229.842 488.565 231.083" fill="#0B1E57"/>
<path fill-rule="evenodd" clip-rule="evenodd" d="M481.145 226.27C481.145 226.27 488.566 223.069 490.442 226.831C492.315 230.592 488.956 237.478 487.941 238.439C486.926 239.4 481 238.835 481 238.835L481.145 226.27" fill="#0B1E57"/>
<path fill-rule="evenodd" clip-rule="evenodd" d="M481.5 239V239C480.12 239 479 237.86 479 236.454V235.546C479 234.14 480.12 233 481.5 233C482.88 233 484 234.14 484 235.546V236.454C484 237.86 482.88 239 481.5 239" fill="#FFCBBD"/>
<path fill-rule="evenodd" clip-rule="evenodd" d="M491 246.833L490.34 245H480.555C479.771 245 479.051 245.535 478.683 246.394L478 248L491 246.833" fill="#B2CEFF"/>
<path fill-rule="evenodd" clip-rule="evenodd" d="M478.014 248L477 247.347L477.685 245.752C478.149 244.671 479.056 244 480.056 244H490.189L491 246.23L489.955 246.802L489.445 245.405H480.056C479.483 245.405 478.962 245.788 478.696 246.409L478.014 248" fill="#0B1E57"/>
<path fill-rule="evenodd" clip-rule="evenodd" d="M466.581 275C466.509 275 466.436 274.986 466.367 274.959C466.068 274.848 465.923 274.532 466.042 274.255L469.879 265.34C469.998 265.061 470.337 264.928 470.633 265.039C470.932 265.15 471.077 265.464 470.958 265.743L467.121 274.659C467.028 274.87 466.811 275 466.581 275" fill="#0B1E57"/>
<path fill-rule="evenodd" clip-rule="evenodd" d="M473.377 343H468.622C468.277 343 468 342.736 468 342.413C468 342.087 468.277 341.825 468.622 341.825H472.736L471.516 305.605C471.504 305.282 471.775 305.009 472.117 305C472.459 304.991 472.749 305.244 472.758 305.567L474 342.395C474.006 342.554 473.944 342.706 473.825 342.821C473.707 342.935 473.545 343 473.377 343" fill="#B2CEFF"/>
<path fill-rule="evenodd" clip-rule="evenodd" d="M468.944 296C468.506 296 468.045 295.971 467.559 295.906C467.207 295.861 466.96 295.538 467.005 295.182C467.05 294.829 467.376 294.577 467.722 294.626C472.966 295.305 474.703 291.544 474.777 291.383C474.921 291.059 475.298 290.91 475.622 291.056C475.941 291.201 476.089 291.58 475.945 291.906C475.925 291.952 474.099 296 468.944 296" fill="#B2CEFF"/>
<path fill-rule="evenodd" clip-rule="evenodd" d="M501.5 288C501.225 288 501 287.735 501 287.412V263.588C501 263.262 501.225 263 501.5 263C501.778 263 502 263.262 502 263.588V287.412C502 287.735 501.778 288 501.5 288" fill="#0B1E57"/>
<path fill-rule="evenodd" clip-rule="evenodd" d="M131 285V291.442C130.424 293.564 129.66 295.644 128.722 297.658C125.852 303.81 121.503 308.883 116.145 312.33C112.039 314.971 108.257 316 104.654 316C98.5409 316 92.937 313.042 87.1343 309.973C82.7939 307.68 78.3073 305.312 73.4756 304.185C64.5287 302.104 54.6459 303.534 45 308.201V306.919C54.7278 302.331 64.6896 300.956 73.7417 303.063C78.7197 304.222 83.2736 306.629 87.6783 308.956C96.5959 313.667 105.016 318.115 115.513 311.362C124.136 305.815 129.927 295.714 131 285" fill="white"/>
<path fill-rule="evenodd" clip-rule="evenodd" d="M103 354H101.531C99.0267 351.002 95.7126 348.123 91.6084 345.393C73.3296 333.233 59.9819 340.98 52.0034 349.621C51.7887 349.852 51.4259 349.869 51.1908 349.661C50.9528 349.45 50.9354 349.094 51.1502 348.861C56.0609 343.542 61.4969 340.131 67.3044 338.722C75.2452 336.797 83.6387 338.725 92.2556 344.459C96.7716 347.463 100.362 350.655 103 354" fill="white"/>
<path fill-rule="evenodd" clip-rule="evenodd" d="M110.549 331.479C109.594 335.389 110.49 338.922 112.893 340.693C115.173 342.376 118.514 342.208 122.056 340.231C125.43 338.347 128.179 337.801 130.225 338.608C130.497 338.716 130.755 338.846 131 339V340.469C130.639 340.115 130.234 339.851 129.788 339.677C128.091 339.006 125.684 339.531 122.636 341.233C118.668 343.447 114.86 343.587 112.187 341.616C109.405 339.56 108.34 335.575 109.408 331.209C110.537 326.59 113.908 322.004 118.898 318.294C122.284 315.777 126.331 313.672 131 312V313.245C118.272 317.936 112.069 325.269 110.549 331.479" fill="white"/>
<path fill-rule="evenodd" clip-rule="evenodd" d="M112.898 340.689C115.197 342.391 118.552 342.228 122.099 340.242C125.387 338.402 128.056 337.865 130.034 338.646C130.265 338.738 130.492 338.849 130.708 338.981V340.026C130.402 339.774 130.069 339.576 129.711 339.438C127.995 338.758 125.58 339.277 122.528 340.982C118.666 343.144 114.967 343.287 112.379 341.372C109.68 339.375 108.651 335.491 109.689 331.231C110.795 326.696 114.103 322.19 119.001 318.542C122.271 316.105 126.207 314.041 130.708 312.41V313.335C125.282 315.353 120.682 318.051 117.219 321.156C113.753 324.262 111.425 327.778 110.532 331.43C109.575 335.356 110.483 338.904 112.898 340.689ZM130.854 313.587C130.872 313.582 130.886 313.576 130.904 313.57L131 313.536V312L130.854 312.052L130.802 312.069C126.195 313.722 122.166 315.823 118.823 318.312C113.873 322 110.529 326.564 109.406 331.163C108.338 335.537 109.412 339.535 112.201 341.602C113.464 342.535 114.978 343 116.638 343C118.508 343 120.571 342.409 122.671 341.232C125.641 339.573 127.972 339.056 129.603 339.702C130.026 339.868 130.411 340.121 130.749 340.454L131 340.701V338.824L130.93 338.781C130.907 338.763 130.88 338.749 130.854 338.735C130.63 338.597 130.39 338.476 130.142 338.382C128.08 337.566 125.326 338.109 121.956 339.995C118.514 341.918 115.276 342.09 113.076 340.46C111.37 339.2 110.448 337.012 110.448 334.429C110.448 333.496 110.57 332.512 110.815 331.498C112.58 324.277 120.069 317.583 130.854 313.587V313.587Z" fill="#B988FF"/>
<path fill-rule="evenodd" clip-rule="evenodd" d="M107.752 278.642C107.012 277.648 106.148 276.832 105.196 276.18H102.727C104.302 276.85 105.725 277.89 106.827 279.371C108.751 281.963 109.304 284.668 108.422 287.194C107.314 290.37 104.067 292.951 99.9506 293.936C95.3578 295.033 91.1852 295.09 87.8854 294.099C85.7168 293.45 83.9126 291.975 82.9312 290.053C82.082 288.388 81.938 286.56 82.5169 284.768C82.5316 284.722 82.5463 284.68 82.561 284.635C84.0596 280.22 88.7052 277.286 92.5516 276.013C94.1207 275.494 95.8603 275.198 97.6057 275.198C98.2904 275.198 98.978 275.243 99.6538 275.34C99.6009 274.923 99.5304 274.509 99.4422 274.107C96.9681 273.817 94.4205 274.134 92.1931 274.871C90.1362 275.551 87.8619 276.687 85.899 278.256C83.9361 279.824 82.2789 281.824 81.459 284.239C81.4443 284.287 81.4267 284.339 81.4091 284.39C80.7303 286.499 80.8978 288.651 81.8998 290.612C83.0252 292.818 85.088 294.51 87.5563 295.251C89.2253 295.752 91.0971 296 93.1158 296C95.3255 296 97.7144 295.701 100.215 295.106C104.714 294.03 108.278 291.153 109.521 287.599C110.232 285.559 110.505 282.347 107.752 278.642" fill="white"/>
<path fill-rule="evenodd" clip-rule="evenodd" d="M72.0421 324.753C70.2625 327.008 65.7518 327.85 62.4275 327.889H62.2895C59.394 327.889 55.6674 326.865 54.0376 324.879C53.459 324.177 53.1683 323.382 53.1683 322.51C53.1683 322.123 53.227 321.718 53.3416 321.301C53.4062 321.066 53.4943 320.828 53.6029 320.596C55.177 317.278 59.5085 316.109 63.2116 316.109C63.3702 316.109 63.5288 316.111 63.6844 316.114C65.8987 316.176 67.6871 316.548 69.1466 317.258C70.9027 318.112 72.1684 319.483 72.6118 321.024C73.0406 322.504 72.8556 323.724 72.0421 324.753ZM73.7366 320.73C73.205 318.889 71.725 317.261 69.6752 316.268C68.06 315.482 66.1101 315.071 63.7167 315.006C61.6904 314.95 54.9009 315.16 52.5428 320.137C52.4048 320.428 52.2932 320.725 52.2139 321.021C51.744 322.733 52.0495 324.261 53.1184 325.565C55.0654 327.934 59.2031 329 62.2925 329C62.3424 329 62.3923 329 62.4422 328.997C66.2011 328.955 70.9438 327.993 72.973 325.422C74.0038 324.118 74.2593 322.538 73.7366 320.73V320.73Z" fill="white"/>
<path fill-rule="evenodd" clip-rule="evenodd" d="M69 276C68.5856 277.321 68.0722 278.687 67.4626 280.092C62.4993 291.51 55.4881 295 48.7742 295C47.1528 295 45.5494 294.799 44 294.452V293.226C51.5817 294.961 60.4785 293.173 66.3697 279.619C66.9072 278.379 67.3696 277.171 67.7479 276H69" fill="white"/>
<path fill-rule="evenodd" clip-rule="evenodd" d="M368.04 306C365.803 306 363.657 305.043 362.147 303.374C361.937 303.143 361.954 302.78 362.187 302.569C362.42 302.357 362.778 302.374 362.991 302.609C364.282 304.037 366.124 304.857 368.04 304.857C371.804 304.857 374.863 301.78 374.863 298C374.863 294.22 371.804 291.143 368.04 291.143C366.124 291.143 364.282 291.963 362.991 293.394C362.778 293.626 362.42 293.643 362.187 293.431C361.954 293.22 361.937 292.857 362.147 292.626C363.657 290.957 365.803 290 368.04 290C372.429 290 376 293.589 376 298C376 302.411 372.429 306 368.04 306" fill="white"/>
<path fill-rule="evenodd" clip-rule="evenodd" d="M389.143 363.885H402.854C402.854 363.857 402.857 363.832 402.857 363.804C402.857 360.117 399.78 357.115 396 357.115C392.217 357.115 389.143 360.117 389.143 363.804C389.143 363.832 389.143 363.857 389.143 363.885ZM403.4 365H388.6C388.303 365 388.057 364.78 388.029 364.493C388.009 364.278 388 364.047 388 363.804C388 359.501 391.589 356 396 356C400.411 356 404 359.501 404 363.804C404 364.047 403.989 364.278 403.969 364.496C403.94 364.783 403.694 365 403.4 365V365Z" fill="white"/>
<path fill-rule="evenodd" clip-rule="evenodd" d="M408.491 342.113C407.535 342.113 406.612 342.422 405.841 343.011C404.91 343.721 404.309 344.752 404.153 345.912C403.995 347.075 404.301 348.229 405.01 349.16C405.722 350.092 406.751 350.69 407.913 350.849C409.073 351.004 410.227 350.698 411.158 349.989C412.09 349.277 412.691 348.248 412.846 347.086C413.002 345.926 412.699 344.772 411.987 343.84C411.278 342.908 410.246 342.308 409.087 342.152C408.886 342.127 408.689 342.113 408.491 342.113ZM408.503 352C408.258 352 408.013 351.983 407.763 351.95C404.76 351.544 402.646 348.771 403.049 345.765C403.247 344.31 403.998 343.017 405.166 342.127C406.334 341.237 407.78 340.853 409.234 341.051C410.691 341.245 411.981 341.999 412.874 343.167C413.764 344.335 414.145 345.779 413.95 347.236C413.578 349.992 411.211 352 408.503 352V352Z" fill="white"/>
<path fill-rule="evenodd" clip-rule="evenodd" d="M417.998 328.279C416.657 328.279 415.489 329.274 415.303 330.638C415.105 332.123 416.151 333.496 417.636 333.694C418.356 333.793 419.07 333.605 419.649 333.163C420.225 332.724 420.6 332.084 420.696 331.364C420.897 329.879 419.851 328.506 418.363 328.305C418.241 328.289 418.12 328.279 417.998 328.279ZM418.008 335C417.828 335 417.646 334.99 417.464 334.965C415.278 334.67 413.742 332.651 414.036 330.465C414.18 329.405 414.724 328.468 415.575 327.818C416.423 327.172 417.476 326.893 418.536 327.037C419.595 327.178 420.532 327.725 421.182 328.577C421.829 329.425 422.107 330.478 421.963 331.534C421.822 332.593 421.275 333.534 420.424 334.181C419.72 334.718 418.878 335 418.008 335V335Z" fill="white"/>
<path fill-rule="evenodd" clip-rule="evenodd" d="M393.497 332.292C391.919 332.292 390.538 333.463 390.322 335.07C390.083 336.825 391.319 338.442 393.071 338.68C394.823 338.916 396.443 337.683 396.681 335.928C396.917 334.176 395.684 332.557 393.929 332.321C393.784 332.302 393.642 332.292 393.497 332.292ZM393.503 340C393.303 340 393.103 339.987 392.9 339.958C390.441 339.626 388.709 337.358 389.041 334.899C389.373 332.44 391.645 330.711 394.103 331.04C396.559 331.372 398.291 333.644 397.959 336.102C397.656 338.358 395.72 340 393.503 340V340Z" fill="white"/>
<path fill-rule="evenodd" clip-rule="evenodd" d="M397.001 299.175C390.479 299.175 385.175 304.479 385.175 311.001C385.175 317.521 390.479 322.825 397.001 322.825C403.521 322.825 408.825 317.521 408.825 311.001C408.825 304.479 403.521 299.175 397.001 299.175ZM397.001 324C389.833 324 384 318.167 384 311.001C384 303.833 389.833 298 397.001 298C404.167 298 410 303.833 410 311.001C410 318.167 404.167 324 397.001 324V324Z" fill="white"/>
<path fill-rule="evenodd" clip-rule="evenodd" d="M433.999 297.167C429.131 297.167 425.167 301.131 425.167 306.001C425.167 310.872 429.131 314.833 433.999 314.833C438.869 314.833 442.833 310.872 442.833 306.001C442.833 301.131 438.869 297.167 433.999 297.167ZM433.999 316C428.486 316 424 311.514 424 306.001C424 300.486 428.486 296 433.999 296C439.514 296 444 300.486 444 306.001C444 311.514 439.514 316 433.999 316V316Z" fill="white"/>
<path fill-rule="evenodd" clip-rule="evenodd" d="M406.001 295C401.186 295 396.983 291.522 396.013 286.727C395.945 286.4 396.153 286.082 396.474 286.012C396.799 285.946 397.111 286.155 397.177 286.485C398.037 290.717 401.745 293.788 406.001 293.788C410.255 293.788 413.963 290.717 414.823 286.485C414.889 286.155 415.201 285.946 415.526 286.012C415.847 286.082 416.055 286.4 415.987 286.727C415.017 291.522 410.817 295 406.001 295" fill="white"/>
<path fill-rule="evenodd" clip-rule="evenodd" d="M444.048 343C438.505 343 434 338.514 434 333.001C434 327.486 438.505 323 444.048 323C446.097 323 448.067 323.61 449.746 324.762C450.013 324.945 450.08 325.31 449.896 325.575C449.711 325.838 449.348 325.905 449.081 325.724C447.598 324.706 445.857 324.167 444.048 324.167C439.153 324.167 435.172 328.131 435.172 333.001C435.172 337.872 439.153 341.833 444.048 341.833C445.86 341.833 447.598 341.297 449.081 340.276C449.348 340.095 449.711 340.162 449.896 340.425C450.08 340.69 450.013 341.055 449.746 341.238C448.07 342.39 446.097 343 444.048 343" fill="white"/>
<path fill-rule="evenodd" clip-rule="evenodd" d="M421.406 363.915H445.597C443.81 359.27 438.945 356.085 433.501 356.085C428.055 356.085 423.19 359.27 421.406 363.915ZM446.408 365H420.595C420.408 365 420.233 364.921 420.12 364.786C420.008 364.65 419.972 364.474 420.022 364.311C421.717 358.828 427.259 355 433.501 355C439.741 355 445.283 358.828 446.978 364.311C447.028 364.474 446.992 364.65 446.88 364.786C446.767 364.921 446.592 365 446.408 365V365Z" fill="white"/>
<path fill-rule="evenodd" clip-rule="evenodd" d="M367.35 362C365.311 362 363.306 361.656 361.396 360.977C361.086 360.868 360.924 360.53 361.035 360.222C361.145 359.913 361.489 359.75 361.8 359.863C363.581 360.494 365.449 360.814 367.35 360.814C376.423 360.814 383.805 353.494 383.805 344.499C383.805 335.503 376.423 328.186 367.35 328.186C365.44 328.186 363.572 328.506 361.8 329.137C361.489 329.25 361.148 329.087 361.035 328.781C360.924 328.473 361.086 328.132 361.396 328.023C363.297 327.344 365.302 327 367.35 327C377.083 327 385 334.851 385 344.499C385 354.149 377.083 362 367.35 362" fill="white"/>
<path opacity="0.24" fill-rule="evenodd" clip-rule="evenodd" d="M341.958 126C337.57 126 334 122.411 334 118C334 113.589 337.57 110 341.958 110C344.198 110 346.344 110.957 347.851 112.625C348.064 112.858 348.047 113.22 347.814 113.432C347.581 113.644 347.222 113.627 347.009 113.393C345.719 111.963 343.877 111.143 341.958 111.143C338.198 111.143 335.137 114.219 335.137 118C335.137 121.781 338.198 124.857 341.958 124.857C343.877 124.857 345.719 124.037 347.009 122.607C347.22 122.374 347.581 122.356 347.814 122.569C348.047 122.781 348.064 123.142 347.851 123.376C346.344 125.044 344.198 126 341.958 126" fill="white"/>
<path opacity="0.24" fill-rule="evenodd" clip-rule="evenodd" d="M321.4 185C321.383 185 321.366 184.999 321.349 184.997C321.034 184.969 320.803 184.697 320.831 184.391C320.849 184.211 320.857 184.014 320.857 183.804C320.857 180.116 317.783 177.115 314 177.115C310.22 177.115 307.143 180.116 307.143 183.804C307.143 184.012 307.151 184.209 307.169 184.391C307.2 184.697 306.969 184.969 306.654 184.997C306.34 185.026 306.06 184.801 306.031 184.495C306.011 184.279 306 184.047 306 183.804C306 179.501 309.589 176 314 176C318.411 176 322 179.501 322 183.804C322 184.049 321.991 184.281 321.969 184.495C321.943 184.783 321.694 185 321.4 185" fill="white"/>
<path opacity="0.243234" fill-rule="evenodd" clip-rule="evenodd" d="M300.503 161.113C300.308 161.113 300.111 161.126 299.913 161.152C297.516 161.476 295.828 163.689 296.153 166.086C296.309 167.248 296.91 168.278 297.841 168.989C298.773 169.699 299.924 170.004 301.087 169.847C303.484 169.524 305.169 167.311 304.847 164.913C304.549 162.714 302.664 161.113 300.503 161.113ZM300.489 171C299.293 171 298.133 170.611 297.166 169.874C295.998 168.983 295.247 167.691 295.049 166.235C294.646 163.23 296.76 160.455 299.763 160.05C302.769 159.645 305.545 161.759 305.951 164.764C306.354 167.77 304.24 170.544 301.234 170.95C300.987 170.983 300.736 171 300.489 171V171Z" fill="white"/>
<path opacity="0.243234" fill-rule="evenodd" clip-rule="evenodd" d="M291.003 148.281C290.881 148.281 290.76 148.289 290.638 148.305C289.918 148.402 289.279 148.774 288.837 149.352C288.399 149.929 288.21 150.644 288.306 151.364C288.402 152.084 288.773 152.723 289.352 153.163C289.928 153.603 290.645 153.792 291.365 153.695C292.849 153.495 293.895 152.123 293.694 150.636C293.511 149.273 292.34 148.281 291.003 148.281ZM290.993 155C290.123 155 289.279 154.717 288.578 154.181C287.727 153.533 287.18 152.594 287.036 151.535C286.895 150.476 287.173 149.425 287.82 148.576C288.466 147.727 289.406 147.18 290.466 147.037C291.525 146.893 292.574 147.172 293.425 147.82C294.273 148.467 294.82 149.407 294.964 150.465C295.258 152.651 293.719 154.669 291.534 154.964C291.355 154.988 291.173 155 290.993 155V155Z" fill="white"/>
<path opacity="0.243234" fill-rule="evenodd" clip-rule="evenodd" d="M313.319 155.929C313.557 157.683 315.174 158.916 316.929 158.68C317.778 158.566 318.533 158.127 319.053 157.446C319.572 156.764 319.795 155.92 319.679 155.071C319.443 153.317 317.823 152.084 316.071 152.32C314.316 152.556 313.083 154.176 313.319 155.929ZM316.497 160C314.28 160 312.344 158.357 312.041 156.102C311.709 153.643 313.438 151.372 315.897 151.041C318.352 150.709 320.627 152.439 320.96 154.898C321.118 156.09 320.808 157.272 320.079 158.228C319.35 159.184 318.291 159.799 317.1 159.959C316.897 159.987 316.697 160 316.497 160V160Z" fill="white"/>
<path opacity="0.243234" fill-rule="evenodd" clip-rule="evenodd" d="M312.999 119.175C306.479 119.175 301.175 124.479 301.175 131C301.175 137.521 306.479 142.825 312.999 142.825C319.521 142.825 324.825 137.521 324.825 131C324.825 124.479 319.521 119.175 312.999 119.175ZM312.999 144C305.83 144 300 138.168 300 131C300 123.832 305.83 118 312.999 118C320.167 118 326 123.832 326 131C326 138.168 320.167 144 312.999 144V144Z" fill="white"/>
<path opacity="0.243234" fill-rule="evenodd" clip-rule="evenodd" d="M275.999 117.167C271.128 117.167 267.167 121.129 267.167 126C267.167 130.871 271.128 134.833 275.999 134.833C280.869 134.833 284.833 130.871 284.833 126C284.833 121.129 280.869 117.167 275.999 117.167ZM275.999 136C270.486 136 266 131.514 266 126C266 120.486 270.486 116 275.999 116C281.514 116 286 120.486 286 126C286 131.514 281.514 136 275.999 136V136Z" fill="white"/>
<path opacity="0.243234" fill-rule="evenodd" clip-rule="evenodd" d="M303 115C298.185 115 293.985 111.521 293.012 106.729C292.947 106.401 293.155 106.08 293.476 106.013C293.801 105.944 294.113 106.156 294.179 106.484C295.039 110.716 298.747 113.788 303 113.788C307.253 113.788 310.964 110.716 311.821 106.484C311.89 106.156 312.202 105.944 312.527 106.013C312.848 106.08 313.053 106.401 312.988 106.729C312.018 111.521 307.815 115 303 115" fill="white"/>
<path opacity="0.243234" fill-rule="evenodd" clip-rule="evenodd" d="M266.316 163C264.53 163 262.784 162.479 261.27 161.495C261.005 161.322 260.92 160.952 261.084 160.669C261.245 160.387 261.592 160.298 261.86 160.471C263.197 161.34 264.736 161.799 266.316 161.799C271.034 161.799 274.87 157.723 274.87 152.712C274.87 150.628 274.192 148.592 272.957 146.979C272.76 146.722 272.796 146.344 273.039 146.135C273.279 145.925 273.635 145.964 273.833 146.222C275.232 148.048 276 150.353 276 152.712C276 158.385 271.658 163 266.316 163" fill="white"/>
<path opacity="0.243234" fill-rule="evenodd" clip-rule="evenodd" d="M289.405 184C289.146 184 288.909 183.844 288.835 183.605C287.282 178.589 282.21 175.085 276.499 175.085C270.788 175.085 265.715 178.589 264.165 183.605C264.076 183.893 263.747 184.06 263.432 183.979C263.117 183.898 262.933 183.598 263.022 183.31C264.717 177.828 270.259 174 276.499 174C282.738 174 288.283 177.828 289.978 183.31C290.067 183.598 289.883 183.898 289.568 183.979C289.512 183.993 289.458 184 289.405 184" fill="white"/>
<path opacity="0.243234" fill-rule="evenodd" clip-rule="evenodd" d="M341.647 182C331.917 182 324 174.149 324 164.499C324 154.85 331.917 147 341.647 147C343.698 147 345.7 147.344 347.604 148.022C347.914 148.132 348.076 148.472 347.965 148.78C347.852 149.088 347.511 149.248 347.2 149.138C345.428 148.506 343.56 148.186 341.647 148.186C332.577 148.186 325.195 155.504 325.195 164.499C325.195 173.495 332.577 180.814 341.647 180.814C343.551 180.814 345.419 180.494 347.2 179.862C347.511 179.751 347.852 179.912 347.965 180.221C348.076 180.529 347.914 180.868 347.604 180.978C345.691 181.656 343.689 182 341.647 182" fill="white"/>
<path opacity="0.544875" fill-rule="evenodd" clip-rule="evenodd" d="M111 49H95L96.9893 72H109.011L111 49" fill="#1063FE"/>
<path opacity="0.148786" fill-rule="evenodd" clip-rule="evenodd" d="M104.565 45C104.282 45 104.04 44.7719 104.011 44.4663C104.005 44.4082 103.531 38.6581 109.469 37.5804C113.808 36.7931 114.358 33.5378 114.722 31.3835C114.784 31.0213 114.837 30.7087 114.904 30.4408C114.983 30.1243 115.288 29.9362 115.586 30.0199C115.883 30.1041 116.06 30.4292 115.981 30.7458C115.926 30.9668 115.877 31.2572 115.82 31.5939C115.452 33.7706 114.766 37.8227 109.656 38.75C104.732 39.6435 105.102 44.1555 105.12 44.3471C105.151 44.6731 104.928 44.9641 104.622 44.997C104.603 44.9991 104.584 45 104.565 45" fill="#1063FE"/>
<path opacity="0.148786" fill-rule="evenodd" clip-rule="evenodd" d="M100.386 46C100.123 46 99.8792 45.8386 99.7988 45.5881C99.4194 44.4079 98.414 43.61 97.3493 42.7653L97.0486 42.5258C95.1841 41.0324 94.6006 39.3567 95.2642 37.4029C95.3682 37.0978 95.7138 36.9301 96.0367 37.0279C96.3592 37.126 96.5369 37.4528 96.4332 37.7582C95.9246 39.2548 96.3592 40.4519 97.8419 41.6399L98.1384 41.8759C99.2936 42.7926 100.488 43.7403 100.973 45.2505C101.072 45.5573 100.889 45.8816 100.565 45.9747C100.505 45.9919 100.445 46 100.386 46" fill="#1063FE"/>
<path fill-rule="evenodd" clip-rule="evenodd" d="M108.075 65C107.775 65 107.533 64.7363 107.533 64.4114C107.533 64.0862 107.775 63.8228 108.075 63.8228C110.815 63.8228 113.116 61.6902 113.547 58.752L113.894 56.3846C113.975 55.8325 113.83 55.2718 113.495 54.8462C113.161 54.4209 112.674 54.1772 112.159 54.1772H106.542C106.243 54.1772 106 53.9135 106 53.5886C106 53.2634 106.243 53 106.542 53H112.159C112.992 53 113.779 53.3944 114.32 54.0822C114.861 54.77 115.095 55.6765 114.964 56.5694L114.618 58.9369C114.103 62.4501 111.351 65 108.075 65" fill="#2A0055"/>
<path fill-rule="evenodd" clip-rule="evenodd" d="M123.417 73H89.5833C89.2613 73 89 72.7763 89 72.5C89 72.224 89.2613 72 89.5833 72H123.417C123.739 72 124 72.224 124 72.5C124 72.7763 123.739 73 123.417 73" fill="#2A0055"/>
<path fill-rule="evenodd" clip-rule="evenodd" d="M391.001 33.368C388.999 33.368 387.368 34.9973 387.368 36.9999C387.368 39.0027 388.999 40.632 391.001 40.632C393.004 40.632 394.632 39.0027 394.632 36.9999C394.632 34.9973 393.004 33.368 391.001 33.368ZM391.001 42C388.244 42 386 39.757 386 36.9999C386 34.243 388.244 32 391.001 32C393.756 32 396 34.243 396 36.9999C396 39.757 393.756 42 391.001 42V42Z" fill="#B2CEFF"/>
<path fill-rule="evenodd" clip-rule="evenodd" d="M405.999 33.368C403.999 33.368 402.368 34.9973 402.368 36.9999C402.368 39.0027 403.999 40.632 405.999 40.632C408.001 40.632 409.632 39.0027 409.632 36.9999C409.632 34.9973 408.001 33.368 405.999 33.368ZM405.999 42C403.244 42 401 39.757 401 36.9999C401 34.243 403.244 32 405.999 32C408.756 32 411 34.243 411 36.9999C411 39.757 408.756 42 405.999 42V42Z" fill="#B2CEFF"/>
<path fill-rule="evenodd" clip-rule="evenodd" d="M419.999 33.368C417.996 33.368 416.368 34.9973 416.368 36.9999C416.368 39.0027 417.996 40.632 419.999 40.632C422.001 40.632 423.632 39.0027 423.632 36.9999C423.632 34.9973 422.001 33.368 419.999 33.368ZM419.999 42C417.244 42 415 39.757 415 36.9999C415 34.243 417.244 32 419.999 32C422.756 32 425 34.243 425 36.9999C425 39.757 422.756 42 419.999 42V42Z" fill="#B2CEFF"/>
</svg>
