<svg width="590" height="493" viewBox="0 0 590 493" fill="none" xmlns="http://www.w3.org/2000/svg">
<path opacity="0.131557" fill-rule="evenodd" clip-rule="evenodd" d="M140.698 133.5H1.30201C0.582825 133.5 0 132.92 0 132.205V35.7954C0 35.0799 0.582825 34.5 1.30201 34.5C2.02119 34.5 2.60401 35.0799 2.60401 35.7954V130.909H140.698C141.417 130.909 142 131.489 142 132.205C142 132.92 141.417 133.5 140.698 133.5Z" fill="#1063FE"/>
<path opacity="0.450009" fill-rule="evenodd" clip-rule="evenodd" d="M169.703 72.5C168.988 72.5 168.407 71.9164 168.407 71.1969V3.10611H40.2965C39.5804 3.10611 39 2.52282 39 1.80306C39 1.08329 39.5804 0.5 40.2965 0.5H169.703C170.42 0.5 171 1.08329 171 1.80306V71.1969C171 71.9164 170.42 72.5 169.703 72.5Z" fill="#1063FE"/>
<path fill-rule="evenodd" clip-rule="evenodd" d="M54.7458 65.5L28 49.3607C34.7952 37.1102 47.44 29.5 61 29.5V61.729C58.3935 61.729 56.0556 63.1387 54.7458 65.5Z" fill="#1063FE"/>
<path fill-rule="evenodd" clip-rule="evenodd" d="M61.9887 107.5C41.0417 107.5 24 90.4576 24 69.5095C24 62.8322 25.7613 56.2591 29.0936 50.5L55.7539 65.927C55.122 67.0189 54.8015 68.2241 54.8015 69.5095C54.8015 73.4726 58.0258 76.6967 61.9887 76.6967C63.2743 76.6967 64.4798 76.3762 65.5719 75.744L81 102.405C75.2405 105.738 68.6665 107.5 61.9887 107.5Z" fill="#A7C8FF"/>
<path fill-rule="evenodd" clip-rule="evenodd" d="M81.1426 100.5L65 73.7543C67.361 72.4444 68.7707 70.1063 68.7707 67.5H101C101 81.0593 93.3911 93.7043 81.1426 100.5Z" fill="#0531AD"/>
<path fill-rule="evenodd" clip-rule="evenodd" d="M102 67.5H69.4409C69.4409 64.8532 67.9115 63.1615 67 62.3887L89.1164 40.5C97.3039 47.4422 102 57.2832 102 67.5Z" fill="#1063FE"/>
<path fill-rule="evenodd" clip-rule="evenodd" d="M66.7271 64.5C65.8155 63.6217 64.2551 62.5742 62 62.5742V31.5C71.2989 31.5 80.1775 35.1206 87 41.6942L66.7271 64.5Z" fill="#0B1E57"/>
<path opacity="0.354515" fill-rule="evenodd" clip-rule="evenodd" d="M116 70.5H133V62.5H116V70.5Z" fill="#A7C8FF"/>
<path opacity="0.252186" fill-rule="evenodd" clip-rule="evenodd" d="M115 27.5H139V19.5H115V27.5Z" fill="#1063FE"/>
<path opacity="0.252186" fill-rule="evenodd" clip-rule="evenodd" d="M114 49.5H152V41.5H114V49.5Z" fill="#0B1E57"/>
<path fill-rule="evenodd" clip-rule="evenodd" d="M265.134 274.952V288.737C265.134 301.639 270.203 313.725 279.411 322.771C288.346 331.553 300.055 336.349 312.49 336.349C312.861 336.349 313.229 336.346 313.597 336.339C339.109 335.753 359.866 314.195 359.866 288.278V274.952H265.134ZM312.49 338.251C299.558 338.251 287.379 333.265 278.085 324.133C268.513 314.724 263.242 302.155 263.242 288.737V273.051H361.758V288.278C361.758 301.353 356.788 313.732 347.766 323.14C338.708 332.582 326.591 337.944 313.64 338.237C313.255 338.247 312.871 338.251 312.49 338.251ZM401 491.5H224V456.784H239.065V414.75C239.065 401.602 242.548 388.69 249.138 377.416C255.267 366.932 263.918 358.087 274.225 351.745C263.918 345.404 255.267 336.555 249.138 326.074C242.548 314.798 239.065 301.889 239.065 288.737V252.216H224V217.5H401V252.216H385.935V288.737C385.935 300.68 383.032 312.543 377.539 323.044C377.297 323.51 376.724 323.687 376.26 323.443C375.799 323.2 375.621 322.624 375.866 322.158C381.217 311.93 384.043 300.374 384.043 288.737V250.314H399.108V219.402H225.892V250.314H240.957V288.737C240.957 314.241 254.594 338.071 276.548 350.923L277.953 351.745L276.548 352.568C254.594 365.42 240.957 389.246 240.957 414.75V458.685H225.892V489.595H399.108V458.685H384.043V414.75C384.043 389.246 370.406 365.42 348.452 352.568L347.047 351.745L348.452 350.923C356.361 346.294 363.236 340.262 368.888 333.002C369.209 332.589 369.803 332.516 370.217 332.839C370.628 333.162 370.7 333.761 370.379 334.174C364.909 341.205 358.319 347.109 350.775 351.745C361.082 358.087 369.736 366.932 375.862 377.416C382.452 388.69 385.935 401.602 385.935 414.75V456.784H401V491.5Z" fill="#0B1E57"/>
<path fill-rule="evenodd" clip-rule="evenodd" d="M291 348.5C257.916 348.5 231 321.177 231 287.593V245.5H351V287.593C351 321.177 324.084 348.5 291 348.5Z" fill="white"/>
<path fill-rule="evenodd" clip-rule="evenodd" d="M364 233.5H219V287.621C219 327.873 251.461 360.5 291.5 360.5C331.543 360.5 364 327.873 364 287.621V233.5ZM339.82 257.808V287.161C339.82 313.626 318.941 335.577 292.62 336.18C265.468 336.8 243.183 314.778 243.183 287.621V272.881H339.82V257.808Z" fill="#D8DDE2"/>
<path fill-rule="evenodd" clip-rule="evenodd" d="M291.5 339.5C331.543 339.5 364 372.13 364 412.378V466.5H219V412.378C219 372.13 251.461 339.5 291.5 339.5Z" fill="#D8DDE2"/>
<path fill-rule="evenodd" clip-rule="evenodd" d="M203 251.5H378V218.5H203V251.5Z" fill="#1063FE"/>
<path opacity="0.840588" fill-rule="evenodd" clip-rule="evenodd" d="M203 492.5H378V456.5H203V492.5Z" fill="#1063FE"/>
<path fill-rule="evenodd" clip-rule="evenodd" d="M289.998 411.5L242 455.5H338L289.998 411.5Z" fill="white"/>
<path fill-rule="evenodd" clip-rule="evenodd" d="M339 272.5V286.71C339 313.044 318.042 334.887 291.623 335.487C264.368 336.101 242 314.191 242 287.167V272.5H339Z" fill="white"/>
<path fill-rule="evenodd" clip-rule="evenodd" d="M289.998 411.5L242 455.5H338L289.998 411.5Z" fill="white"/>
<path opacity="0.310547" fill-rule="evenodd" clip-rule="evenodd" d="M278.992 336.5C266.125 336.5 254.01 331.527 244.765 322.423C235.244 313.047 230 300.517 230 287.141V271.5H328V286.683C328 296.088 325.39 305.265 320.449 313.22C315.624 320.992 308.812 327.257 300.75 331.331C300.286 331.566 299.719 331.377 299.485 330.909C299.251 330.441 299.439 329.87 299.903 329.634C315.829 321.586 326.118 304.727 326.118 286.683V273.396H231.882V287.141C231.882 300.003 236.924 312.051 246.08 321.065C255.236 330.079 267.312 334.883 280.093 334.591C280.603 334.578 281.042 334.993 281.055 335.517C281.065 336.042 280.656 336.473 280.135 336.487C279.753 336.497 279.371 336.5 278.992 336.5Z" fill="black"/>
<path opacity="0.310547" fill-rule="evenodd" clip-rule="evenodd" d="M330 456.5H229L278.853 409.755C279.234 409.399 279.829 409.418 280.187 409.798C280.544 410.177 280.527 410.771 280.147 411.127L233.768 454.613H325.232L297.801 428.897C297.421 428.541 297.404 427.944 297.762 427.564C298.119 427.185 298.714 427.165 299.095 427.521L330 456.5Z" fill="black"/>
<path fill-rule="evenodd" clip-rule="evenodd" d="M290.998 422.5C290.445 422.5 290 422.068 290 421.532V388.472C290 387.935 290.445 387.5 290.998 387.5C291.552 387.5 292 387.935 292 388.472V421.532C292 422.068 291.552 422.5 290.998 422.5Z" fill="white"/>
<path fill-rule="evenodd" clip-rule="evenodd" d="M290.998 374.5C290.445 374.5 290 374.084 290 373.567V333.436C290 332.919 290.445 332.5 290.998 332.5C291.552 332.5 292 332.919 292 333.436V373.567C292 374.084 291.552 374.5 290.998 374.5Z" fill="white"/>
<path fill-rule="evenodd" clip-rule="evenodd" d="M339.047 262.5H321.956C321.428 262.5 321 262.052 321 261.498C321 260.948 321.428 260.5 321.956 260.5H339.047C339.572 260.5 340 260.948 340 261.498C340 262.052 339.572 262.5 339.047 262.5Z" fill="white"/>
<path fill-rule="evenodd" clip-rule="evenodd" d="M300.047 262.5H269.949C269.423 262.5 269 262.052 269 261.498C269 260.948 269.423 260.5 269.949 260.5H300.047C300.574 260.5 301 260.948 301 261.498C301 262.052 300.574 262.5 300.047 262.5Z" fill="white"/>
<path opacity="0.383185" fill-rule="evenodd" clip-rule="evenodd" d="M286.046 477.5H235.951C235.427 477.5 235 477.055 235 476.502C235 475.948 235.427 475.5 235.951 475.5H286.046C286.573 475.5 287 475.948 287 476.502C287 477.055 286.573 477.5 286.046 477.5Z" fill="#1063FE"/>
<path fill-rule="evenodd" clip-rule="evenodd" d="M61.8542 262.5C60.53 262.5 59.2658 261.731 58.7019 260.442L42.2879 222.904C41.5288 221.168 42.3227 219.137 44.0581 218.377L104.773 191.79C105.614 191.422 106.548 191.404 107.402 191.738C108.257 192.073 108.93 192.72 109.298 193.562L125.712 231.098C126.471 232.834 125.677 234.865 123.942 235.625L63.2265 262.211C62.7796 262.408 62.3133 262.5 61.8542 262.5Z" fill="#D8DDE2"/>
<path fill-rule="evenodd" clip-rule="evenodd" d="M86.2301 233.5L48.7031 223.605C48.2032 223.473 47.9014 222.949 48.0294 222.434C48.1577 221.919 48.6671 221.609 49.167 221.74L85.7371 231.383L103.243 198.006C103.488 197.537 104.054 197.363 104.509 197.616C104.964 197.868 105.133 198.452 104.888 198.92L86.9127 233.193L86.2301 233.5Z" fill="white"/>
<path fill-rule="evenodd" clip-rule="evenodd" d="M62.9582 257.5C62.8229 257.5 62.6856 257.471 62.555 257.412C62.0749 257.194 61.8665 256.644 62.0894 256.178L73.1718 233.038C73.3947 232.573 73.9648 232.371 74.4452 232.587C74.9252 232.803 75.1337 233.356 74.9104 233.822L63.8283 256.959C63.6658 257.298 63.3197 257.5 62.9582 257.5Z" fill="white"/>
<path fill-rule="evenodd" clip-rule="evenodd" d="M121.07 233.5C120.975 233.5 120.878 233.486 120.782 233.458L96.6417 226.179C96.1537 226.031 95.887 225.546 96.0459 225.094C96.2051 224.642 96.729 224.395 97.218 224.543L121.358 231.822C121.846 231.969 122.113 232.455 121.954 232.906C121.826 233.269 121.462 233.5 121.07 233.5Z" fill="white"/>
<path fill-rule="evenodd" clip-rule="evenodd" d="M70.0734 195.5C69.7191 195.5 69.381 195.29 69.2272 194.937L63.081 180.838C62.872 180.359 63.0813 179.797 63.5486 179.583C64.0152 179.369 64.5635 179.583 64.7725 180.063L70.919 194.161C71.128 194.641 70.9187 195.203 70.4514 195.417C70.3285 195.473 70.2 195.5 70.0734 195.5Z" fill="#B2BBC6"/>
<path fill-rule="evenodd" clip-rule="evenodd" d="M86.8553 194.5C86.7763 194.5 86.6961 194.487 86.6165 194.461C86.163 194.31 85.9023 193.766 86.0343 193.246L88.3244 184.207C88.4561 183.687 88.9311 183.388 89.3834 183.539C89.8368 183.69 90.0975 184.234 89.9658 184.754L87.6758 193.793C87.5671 194.222 87.2259 194.5 86.8553 194.5Z" fill="#B2BBC6"/>
<path fill-rule="evenodd" clip-rule="evenodd" d="M58.1638 205.5C58.038 205.5 57.9102 205.471 57.79 205.408L51.4614 202.134C51.0486 201.92 50.8821 201.402 51.0887 200.976C51.2958 200.551 51.7978 200.378 52.21 200.591L58.5386 203.867C58.9514 204.08 59.1179 204.598 58.9113 205.024C58.7648 205.326 58.4699 205.5 58.1638 205.5Z" fill="#B2BBC6"/>
<path opacity="0.238584" fill-rule="evenodd" clip-rule="evenodd" d="M377 182.5H353L355.982 217.5H374.018L377 182.5Z" fill="#1063FE"/>
<path opacity="0.238584" fill-rule="evenodd" clip-rule="evenodd" d="M368.021 178.5C367.511 178.5 367.07 178.1 367.017 177.561C367.01 177.472 366.258 168.632 375.646 166.977C382.316 165.803 383.165 160.936 383.725 157.716C383.821 157.165 383.904 156.688 384.01 156.277C384.153 155.719 384.706 155.387 385.247 155.535C385.787 155.684 386.109 156.256 385.966 156.814C385.88 157.143 385.807 157.58 385.718 158.086C385.137 161.417 384.057 167.617 375.988 169.039C368.485 170.36 369.006 177.07 369.032 177.355C369.082 177.928 368.678 178.439 368.121 178.495C368.088 178.498 368.054 178.5 368.021 178.5Z" fill="#1063FE"/>
<path opacity="0.238584" fill-rule="evenodd" clip-rule="evenodd" d="M361.079 178.5C360.683 178.5 360.318 178.214 360.197 177.769C359.717 176.013 358.437 174.812 357.079 173.54L356.69 173.173C354.242 170.856 353.475 168.253 354.347 165.215C354.504 164.674 355.024 164.376 355.507 164.55C355.992 164.724 356.258 165.303 356.104 165.844C355.464 168.061 356.014 169.837 357.879 171.603L358.262 171.962C359.696 173.306 361.323 174.83 361.96 177.171C362.108 177.715 361.833 178.29 361.344 178.455C361.257 178.486 361.166 178.5 361.079 178.5Z" fill="#1063FE"/>
<path opacity="0.238584" fill-rule="evenodd" clip-rule="evenodd" d="M374.537 206.5C373.966 206.5 373.503 206.047 373.503 205.488C373.503 204.93 373.966 204.477 374.537 204.477C378.943 204.477 382.645 201.38 383.338 197.111L383.905 193.616C384.03 192.843 383.804 192.057 383.284 191.461C382.767 190.865 382.01 190.523 381.213 190.523H372.03C371.459 190.523 371 190.07 371 189.511C371 188.953 371.459 188.5 372.03 188.5H381.213C382.615 188.5 383.942 189.1 384.855 190.148C385.767 191.195 386.162 192.575 385.939 193.934L385.375 197.429C384.52 202.685 379.963 206.5 374.537 206.5Z" fill="#1063FE"/>
<path fill-rule="evenodd" clip-rule="evenodd" d="M217 271.971L205.725 293.5H177L191.262 264.5L217 271.971Z" fill="#FFBFAA"/>
<path fill-rule="evenodd" clip-rule="evenodd" d="M210 284.951L206.962 314.371L157 314.5L162.902 302.483L177.901 290.843L177.43 279.534L188.216 279.5L192.922 287.372L210 284.951Z" fill="#0B1E57"/>
<path fill-rule="evenodd" clip-rule="evenodd" d="M159.106 309.5C158.497 309.5 158.002 308.986 158 308.355C157.998 307.72 158.492 307.203 159.104 307.203L190.614 307.113C190.822 305.661 191.491 303.088 193.633 300.822C196.331 297.969 200.455 296.517 205.89 296.5C205.894 296.5 205.894 296.5 205.894 296.5C206.505 296.5 207 297.01 207 297.645C207.003 298.28 206.508 298.797 205.897 298.797C201.075 298.814 197.48 300.035 195.213 302.433C192.717 305.071 192.733 308.213 192.734 308.244C192.738 308.551 192.625 308.848 192.417 309.065C192.21 309.286 191.927 309.41 191.63 309.41L159.109 309.5C159.108 309.5 159.107 309.5 159.106 309.5Z" fill="white"/>
<path fill-rule="evenodd" clip-rule="evenodd" d="M174.007 295.5C173.452 295.5 173.002 295.057 173 294.513C172.998 293.967 173.448 293.521 174.003 293.521L180.991 293.5C180.992 293.5 180.993 293.5 180.994 293.5C181.548 293.5 181.998 293.94 182 294.487C182.002 295.033 181.553 295.479 180.997 295.479L174.01 295.5C174.009 295.5 174.007 295.5 174.007 295.5Z" fill="white"/>
<path fill-rule="evenodd" clip-rule="evenodd" d="M236 272.865L238.115 292.5H261L260.576 268.5L236 272.865Z" fill="#FFBFAA"/>
<path fill-rule="evenodd" clip-rule="evenodd" d="M269.102 75.5L272.564 79.6285C276.964 85.3619 278.822 92.8437 277.662 100.147L273.555 135.271C273.097 139.173 270.456 142.384 266.886 143.371L221.76 155.5L219 134.027L250.796 120.566L250.816 98.8468C250.829 87.3774 258.523 77.5544 269.102 75.5Z" fill="#1063FE"/>
<path fill-rule="evenodd" clip-rule="evenodd" d="M261.491 171.405L284 218.503H257.791L263.828 275.5H218.158L202.202 181.395C201.019 175.167 205.175 169.21 211.195 168.5L261.491 171.405Z" fill="#78A9FF"/>
<path fill-rule="evenodd" clip-rule="evenodd" d="M306 72.0568C295.278 88.473 286.421 106.295 285.084 124.5C278.698 101.573 283.826 82.3377 286.254 72.1197L292.184 70.5L306 72.0568Z" fill="white"/>
<path fill-rule="evenodd" clip-rule="evenodd" d="M322.818 77.7302L330 170.058L262 172.5L269.527 77.0929L283.502 74.5237L287.364 73.5C284.89 83.5311 279.521 103.438 286.026 125.947C287.387 108.075 296.408 90.5782 307.329 74.462L322.818 77.7302Z" fill="#1063FE"/>
<path fill-rule="evenodd" clip-rule="evenodd" d="M306.788 72.9542L289.868 92.5L287 73.0168L291.927 37.5H310L306.788 72.9542Z" fill="#FFBFAA"/>
<path fill-rule="evenodd" clip-rule="evenodd" d="M271 145.949L293.415 140.5L299 161.5H282.544L271 145.949Z" fill="#FFBFAA"/>
<path fill-rule="evenodd" clip-rule="evenodd" d="M294.344 70.5H285.656C280.877 70.5 277 66.4984 277 61.5624V37.5H303V61.5624C303 66.4984 299.126 70.5 294.344 70.5Z" fill="#FFBFAA"/>
<path fill-rule="evenodd" clip-rule="evenodd" d="M306.591 41.6898C303.212 44.3667 299.233 46.1437 295.027 46.9522C291.695 47.5929 288.323 48.0626 284.954 48.3023C282.101 48.5054 279.132 48.7166 276.327 48.0286C274.417 47.5605 272.641 46.5781 272.248 44.4337C271.811 42.053 273.724 39.6495 275.68 38.5929C275.68 38.5929 268.752 36.2918 273.907 31.8541C274.057 31.7255 273.347 28.3461 273.327 27.9869C273.068 23.0831 276.943 19.6224 281.672 20.6962C290.725 22.7517 295.201 33.4941 304.688 34.4837C312.662 35.3158 310.239 38.8002 306.591 41.6898Z" fill="#0B1E57"/>
<path fill-rule="evenodd" clip-rule="evenodd" d="M290 27.7888C290 27.7888 307.321 19.5003 311.696 29.2395C316.071 38.9784 308.232 56.7985 305.862 59.2849C303.489 61.7714 298.75 41.8791 298.75 41.8791L290 27.7888Z" fill="#0B1E57"/>
<path fill-rule="evenodd" clip-rule="evenodd" d="M304.5 62.5C301.463 62.5 299 60.0293 299 56.9812V55.0188C299 51.971 301.463 49.5 304.5 49.5C307.537 49.5 310 51.971 310 55.0188V56.9812C310 60.0293 307.537 62.5 304.5 62.5Z" fill="#FFBFAA"/>
<path fill-rule="evenodd" clip-rule="evenodd" d="M284.897 142.5C284.891 142.5 284.883 142.5 284.878 142.5C284.384 142.488 283.992 141.984 284 141.374L284.212 127.585C284.22 126.974 284.628 126.485 285.122 126.5C285.616 126.512 286.008 127.016 286 127.626L285.791 141.415C285.78 142.019 285.383 142.5 284.897 142.5Z" fill="#2A0055"/>
<path fill-rule="evenodd" clip-rule="evenodd" d="M233 291.434V314.5H265V291.145L255.254 288.407L253.066 279.5H239.4L236.773 288.203L233 291.434Z" fill="#0B1E57"/>
<path fill-rule="evenodd" clip-rule="evenodd" d="M232.14 309.5C231.931 309.5 231.722 309.445 231.533 309.332C230.998 309.016 230.84 308.351 231.176 307.847L233.135 304.942C235.848 300.908 240.402 298.5 245.321 298.5C250.901 298.5 255.912 301.553 258.402 306.466L258.848 307.347H265.858C266.489 307.347 267 307.831 267 308.425C267 309.019 266.489 309.5 265.858 309.5H258.124C257.685 309.5 257.284 309.261 257.095 308.887L256.337 307.392C254.231 303.232 250.009 300.65 245.321 300.65C241.191 300.65 237.357 302.683 235.062 306.092L233.107 309C232.891 309.322 232.521 309.5 232.14 309.5Z" fill="white"/>
<path fill-rule="evenodd" clip-rule="evenodd" d="M250.845 292.5H239.155C238.517 292.5 238 292.053 238 291.5C238 290.947 238.517 290.5 239.155 290.5H250.845C251.483 290.5 252 290.947 252 291.5C252 292.053 251.483 292.5 250.845 292.5Z" fill="white"/>
<path fill-rule="evenodd" clip-rule="evenodd" d="M284 166.5L268.769 146.148C266.579 143.221 263.151 141.5 259.511 141.5H243L243.48 166.142L284 166.5Z" fill="#FFBFAA"/>
<path fill-rule="evenodd" clip-rule="evenodd" d="M278.518 167.5C278.515 167.5 278.512 167.5 278.508 167.5L244.564 167.188C243.968 167.183 243.487 166.706 243.478 166.113L243 140.615C242.997 140.322 243.109 140.038 243.316 139.828C243.52 139.618 243.803 139.5 244.097 139.5H260.527C264.482 139.5 268.258 141.469 270.632 144.766L271.666 146.207L292.212 141.53C292.779 141.401 293.352 141.738 293.51 142.299L297.958 157.958C298.123 158.54 297.787 159.146 297.204 159.31C296.621 159.475 296.012 159.138 295.848 158.556L291.682 143.896L271.446 148.504C271.014 148.601 270.566 148.432 270.31 148.075L268.848 146.044C266.888 143.317 263.777 141.69 260.527 141.69H245.216L245.651 165.008L278.528 165.31C279.134 165.316 279.621 165.81 279.618 166.415C279.611 167.016 279.121 167.5 278.518 167.5Z" fill="#2A0055"/>
<path fill-rule="evenodd" clip-rule="evenodd" d="M284.915 127.5C284.56 127.5 284.211 127.317 284.002 126.981C279.865 120.285 276.836 107.057 274.4 96.4274C273.924 94.3406 273.474 92.3696 273.034 90.5273C272.936 90.1258 273.057 89.7015 273.347 89.4202L278.909 84.0435L273.706 82.0071C273.327 81.859 273.057 81.5024 273.008 81.0829C272.959 80.663 273.138 80.2496 273.471 80.0102L280.865 74.6999C281.361 74.3447 282.036 74.4755 282.378 74.9921C282.717 75.5083 282.59 76.2146 282.098 76.5698L276.418 80.6463L281.319 82.5642C281.671 82.7021 281.932 83.0216 282.003 83.4077C282.078 83.7936 281.951 84.1916 281.677 84.4593L275.297 90.6298C275.688 92.2923 276.092 94.0508 276.513 95.8996C278.909 106.361 281.889 119.38 285.828 125.75C286.151 126.276 286.007 126.979 285.502 127.318C285.322 127.441 285.117 127.5 284.915 127.5Z" fill="#0B1E57"/>
<path fill-rule="evenodd" clip-rule="evenodd" d="M289.166 121.5C288.98 121.5 288.791 121.458 288.616 121.369C288.048 121.083 287.834 120.416 288.139 119.881C293.822 109.906 300.57 98.7838 307.877 91.1289L301.843 88.5629C301.398 88.3725 301.124 87.9385 301.159 87.4774C301.198 87.016 301.538 86.6259 302.011 86.5018L308.592 84.7747L307.68 73.6841C307.631 73.0788 308.111 72.5501 308.756 72.5029C309.398 72.4594 309.962 72.9089 310.012 73.5145L310.997 85.5061C311.039 86.0298 310.681 86.5091 310.145 86.65L305.738 87.8064L310.313 89.7527C310.657 89.8992 310.905 90.1939 310.979 90.5434C311.049 90.893 310.937 91.2537 310.678 91.5118C303.137 98.9845 296.094 110.571 290.197 120.92C289.987 121.29 289.583 121.5 289.166 121.5Z" fill="#0B1E57"/>
<path fill-rule="evenodd" clip-rule="evenodd" d="M284.907 129.5C284.891 129.5 284.872 129.499 284.855 129.499C284.355 129.468 283.974 129.008 284.001 128.47C284.056 127.453 284.118 126.421 284.192 125.401C284.23 124.864 284.668 124.461 285.163 124.503C285.663 124.544 286.035 125.013 285.997 125.55C285.927 126.556 285.864 127.576 285.81 128.58C285.783 129.099 285.383 129.5 284.907 129.5Z" fill="#2A0055"/>
<path fill-rule="evenodd" clip-rule="evenodd" d="M341.744 128.5C340.602 128.5 339.224 128.28 337.654 127.629C337.129 127.412 336.866 126.775 337.068 126.208C337.269 125.64 337.856 125.356 338.381 125.573C342.142 127.13 344.414 125.686 344.439 125.671C344.912 125.346 345.541 125.498 345.841 126.012C346.143 126.525 346.003 127.205 345.526 127.531C345.444 127.589 344.075 128.5 341.744 128.5Z" fill="white"/>
<path fill-rule="evenodd" clip-rule="evenodd" d="M321.641 75.5L326.586 77.2041C333.009 79.8353 338.043 85.2727 340.388 92.1162L356.678 151.423C358.16 156.821 354.34 162.218 349.012 162.249L295.009 162.5L284 140.661L319.489 136.514L310.109 89.5251L321.641 75.5Z" fill="#1063FE"/>
<path fill-rule="evenodd" clip-rule="evenodd" d="M284.114 143.5C283.541 143.5 283.051 143.053 283.004 142.46C282.951 141.834 283.407 141.284 284.02 141.231L321.963 137.947L316.615 127.587C315.509 126.507 309.155 119.805 308.072 107.74C308.018 107.115 308.471 106.562 309.084 106.505C309.695 106.446 310.241 106.908 310.298 107.534C311.375 119.547 318.198 125.984 318.265 126.047C318.362 126.136 318.446 126.244 318.506 126.361L323.845 136.704L334.893 136.832C335.49 136.839 335.976 137.321 335.999 137.927C336.019 138.533 335.57 139.05 334.977 139.101L284.211 143.496C284.178 143.499 284.148 143.5 284.114 143.5Z" fill="white"/>
<path fill-rule="evenodd" clip-rule="evenodd" d="M257 170.5H298V161.5H257V170.5Z" fill="#0B1E57"/>
<path fill-rule="evenodd" clip-rule="evenodd" d="M264.597 131.5C264.584 131.5 264.57 131.5 264.557 131.499C263.938 131.478 263.454 130.97 263.474 130.364L263.753 122.45C261.366 115.164 260.525 107.588 261.255 99.9311L261.964 92.4963C262.021 91.8923 262.569 91.4482 263.185 91.5049C263.8 91.5613 264.254 92.097 264.197 92.7007L263.488 100.136C262.778 107.558 263.605 114.899 265.946 121.956C265.986 122.078 266.003 122.206 266 122.334L265.714 130.439C265.694 131.033 265.196 131.5 264.597 131.5Z" fill="white"/>
<path fill-rule="evenodd" clip-rule="evenodd" d="M255.494 171.5H266L245.506 108.5H235L255.494 171.5Z" fill="#0B1E57"/>
<path fill-rule="evenodd" clip-rule="evenodd" d="M329 170.5V185.927C329 204.072 314.932 218.783 297.583 218.783H257.804L222.53 275.5H177L233.725 176.411L261.492 171.916L329 170.5Z" fill="#78A9FF"/>
<path fill-rule="evenodd" clip-rule="evenodd" d="M209.092 221.5C208.909 221.5 208.722 221.454 208.551 221.358C208.026 221.062 207.845 220.402 208.144 219.884L228.115 185.286C230.176 181.717 233.956 179.5 237.983 179.5H275.907C276.511 179.5 277 179.984 277 180.58C277 181.177 276.511 181.661 275.907 181.661H237.983C234.741 181.661 231.689 183.461 230.015 186.357L210.044 220.955C209.841 221.304 209.473 221.5 209.092 221.5Z" fill="white"/>
<path fill-rule="evenodd" clip-rule="evenodd" d="M222.114 276.5C221.913 276.5 221.709 276.447 221.529 276.335C221.004 276.016 220.843 275.342 221.168 274.828L256.94 218.019C257.265 217.504 257.95 217.346 258.475 217.665C258.996 217.984 259.157 218.659 258.832 219.174L223.06 275.983C222.849 276.316 222.485 276.5 222.114 276.5Z" fill="white"/>
<path fill-rule="evenodd" clip-rule="evenodd" d="M213.258 262.5H186.102C185.493 262.5 185 262.013 185 261.412C185 260.81 185.493 260.323 186.102 260.323H212.633L245.522 206.03C245.721 205.701 246.081 205.5 246.468 205.5H295.898C296.507 205.5 297 205.987 297 206.589C297 207.19 296.507 207.678 295.898 207.678H247.093L214.204 261.97C214.005 262.301 213.645 262.5 213.258 262.5Z" fill="#0B1E57"/>
<path fill-rule="evenodd" clip-rule="evenodd" d="M311.917 184.5C311.914 184.5 311.911 184.5 311.907 184.5C311.325 184.496 297.556 184.328 294.089 176.9C293.852 176.392 294.105 175.802 294.655 175.582C295.205 175.363 295.842 175.597 296.079 176.105C298.987 182.333 311.793 182.495 311.924 182.495C312.522 182.5 313.003 182.951 313 183.505C312.993 184.056 312.509 184.5 311.917 184.5Z" fill="#0B1E57"/>
<path fill-rule="evenodd" clip-rule="evenodd" d="M254 171.5L233.458 108.5H152L172.542 171.5H254Z" fill="#C1D8FF"/>
<path fill-rule="evenodd" clip-rule="evenodd" d="M174.107 172.5C173.496 172.5 173 172.052 173 171.5C173 170.948 173.496 170.5 174.107 170.5H299.89C300.502 170.5 301 170.948 301 171.5C301 172.052 300.502 172.5 299.89 172.5H174.107Z" fill="white"/>
<path fill-rule="evenodd" clip-rule="evenodd" d="M254.89 172.5C254.423 172.5 253.99 172.205 253.837 171.739L233.057 108.957C232.863 108.375 233.18 107.748 233.763 107.556C234.343 107.364 234.973 107.68 235.163 108.261L255.943 171.043C256.137 171.625 255.82 172.251 255.24 172.444C255.123 172.482 255.007 172.5 254.89 172.5Z" fill="white"/>
<path fill-rule="evenodd" clip-rule="evenodd" d="M560.76 117.5H540.243C539.555 117.5 539 117.052 539 116.5C539 115.948 539.555 115.5 540.243 115.5H560.76C561.445 115.5 562 115.948 562 116.5C562 117.052 561.445 117.5 560.76 117.5Z" fill="#B9B9B9"/>
<path fill-rule="evenodd" clip-rule="evenodd" d="M406.31 58.5C405.587 58.5 405 57.905 405 57.1707V20.8289C405 20.0947 405.587 19.5 406.31 19.5H435.69C436.413 19.5 437 20.0947 437 20.8289C437 21.5632 436.413 22.1582 435.69 22.1582H407.621V57.1707C407.621 57.905 407.034 58.5 406.31 58.5Z" fill="#B9B9B9"/>
<path opacity="0.68557" fill-rule="evenodd" clip-rule="evenodd" d="M559.722 59.5C559.41 59.5 559.096 59.3828 558.849 59.147L534.401 35.738C533.889 35.247 533.863 34.4271 534.349 33.9069C534.832 33.3863 535.637 33.3619 536.152 33.8532L560.597 57.2622C561.113 57.7532 561.136 58.5727 560.652 59.0933C560.399 59.3637 560.062 59.5 559.722 59.5Z" fill="#E7E7E7"/>
<path opacity="0.68557" fill-rule="evenodd" clip-rule="evenodd" d="M561.73 76.5C561.416 76.5 561.103 76.384 560.858 76.1508L519.401 36.7142C518.888 36.2285 518.865 35.4173 519.346 34.9025C519.827 34.3875 520.632 34.3634 521.142 34.8494L562.602 74.2859C563.112 74.7717 563.135 75.5826 562.653 76.0977C562.405 76.3651 562.066 76.5 561.73 76.5Z" fill="#E7E7E7"/>
<path opacity="0.68557" fill-rule="evenodd" clip-rule="evenodd" d="M561.693 91.5C561.375 91.5 561.053 91.3836 560.801 91.1485L502.409 36.7286C501.885 36.2397 501.862 35.4232 502.356 34.9051C502.85 34.3867 503.677 34.3625 504.201 34.8517L562.589 89.2716C563.113 89.7605 563.14 90.577 562.646 91.095C562.387 91.3643 562.042 91.5 561.693 91.5Z" fill="#E7E7E7"/>
<path opacity="0.68557" fill-rule="evenodd" clip-rule="evenodd" d="M562.687 106.5C562.363 106.5 562.039 106.383 561.785 106.146L487.413 36.7459C486.885 36.2532 486.859 35.4304 487.36 34.9083C487.857 34.3859 488.689 34.3614 489.216 34.8544L563.588 104.255C564.116 104.747 564.139 105.57 563.642 106.092C563.385 106.363 563.037 106.5 562.687 106.5Z" fill="#E7E7E7"/>
<path opacity="0.68557" fill-rule="evenodd" clip-rule="evenodd" d="M547.689 106.5C547.365 106.5 547.042 106.383 546.788 106.146L472.411 36.7424C471.884 36.2504 471.861 35.4289 472.358 34.9076C472.855 34.386 473.685 34.3616 474.212 34.8539L548.589 104.258C549.116 104.75 549.139 105.571 548.642 106.093C548.386 106.363 548.035 106.5 547.689 106.5Z" fill="#E7E7E7"/>
<path opacity="0.68557" fill-rule="evenodd" clip-rule="evenodd" d="M531.688 107.5C531.365 107.5 531.042 107.383 530.789 107.147L456.411 37.7403C455.884 37.2488 455.861 36.4281 456.357 35.9073C456.854 35.3861 457.683 35.3618 458.21 35.8535L532.588 105.26C533.114 105.751 533.141 106.572 532.641 107.093C532.385 107.364 532.038 107.5 531.688 107.5Z" fill="#E7E7E7"/>
<path opacity="0.68557" fill-rule="evenodd" clip-rule="evenodd" d="M515.69 107.5C515.367 107.5 515.043 107.383 514.79 107.147L440.412 37.7403C439.886 37.2488 439.859 36.4281 440.359 35.9073C440.852 35.3861 441.681 35.3618 442.211 35.8535L516.589 105.26C517.116 105.751 517.139 106.572 516.643 107.093C516.386 107.364 516.036 107.5 515.69 107.5Z" fill="#E7E7E7"/>
<path opacity="0.68557" fill-rule="evenodd" clip-rule="evenodd" d="M499.694 106.5C499.371 106.5 499.049 106.382 498.797 106.143L426.41 37.7612C425.885 37.2651 425.861 36.4366 426.356 35.9109C426.851 35.3852 427.678 35.3605 428.203 35.8566L500.59 104.239C501.115 104.735 501.139 105.563 500.644 106.089C500.388 106.362 500.039 106.5 499.694 106.5Z" fill="#E7E7E7"/>
<path opacity="0.68557" fill-rule="evenodd" clip-rule="evenodd" d="M484.704 107.5C484.385 107.5 484.065 107.382 483.815 107.143L417.408 43.7654C416.887 43.2684 416.861 42.4387 417.352 41.9116C417.846 41.3849 418.663 41.3603 419.187 41.8573L485.594 105.235C486.114 105.732 486.137 106.562 485.647 107.089C485.393 107.362 485.05 107.5 484.704 107.5Z" fill="#E7E7E7"/>
<path opacity="0.68557" fill-rule="evenodd" clip-rule="evenodd" d="M468.68 107.5C468.355 107.5 468.03 107.379 467.775 107.134L417.415 58.8172C416.885 58.3088 416.859 57.4598 417.358 56.921C417.861 56.3823 418.692 56.3571 419.225 56.8655L469.585 105.183C470.115 105.691 470.142 106.54 469.639 107.079C469.381 107.359 469.032 107.5 468.68 107.5Z" fill="#E7E7E7"/>
<path opacity="0.68557" fill-rule="evenodd" clip-rule="evenodd" d="M452.68 105.5C452.358 105.5 452.033 105.378 451.779 105.132L418.413 72.8358C417.884 72.3237 417.86 71.4678 418.359 70.9244C418.858 70.3814 419.692 70.3559 420.221 70.8684L453.587 103.164C454.116 103.677 454.14 104.532 453.641 105.076C453.379 105.358 453.031 105.5 452.68 105.5Z" fill="#E7E7E7"/>
<path opacity="0.68557" fill-rule="evenodd" clip-rule="evenodd" d="M436.623 105.5C436.288 105.5 435.949 105.382 435.684 105.144L417.431 88.7585C416.879 88.2633 416.854 87.4354 417.375 86.9102C417.895 86.3851 418.765 86.3608 419.316 86.8564L437.566 103.242C438.122 103.737 438.146 104.564 437.626 105.09C437.353 105.362 436.99 105.5 436.623 105.5Z" fill="#E7E7E7"/>
<path opacity="0.68557" fill-rule="evenodd" clip-rule="evenodd" d="M563.669 48.5C563.341 48.5 563.013 48.3819 562.756 48.1436L549.419 35.7612C548.884 35.2654 548.857 34.4369 549.361 33.9109C549.865 33.3852 550.707 33.3605 551.244 33.8566L564.581 46.2391C565.116 46.7348 565.143 47.5633 564.639 48.0891C564.375 48.3622 564.024 48.5 563.669 48.5Z" fill="#E7E7E7"/>
<path opacity="0.68557" fill-rule="evenodd" clip-rule="evenodd" d="M418.721 106.5C418.406 106.5 418.09 106.379 417.843 106.134L404.401 92.8202C403.887 92.3114 403.864 91.4613 404.349 90.9214C404.833 90.382 405.643 90.357 406.157 90.8661L419.599 104.18C420.113 104.689 420.136 105.539 419.651 106.078C419.401 106.359 419.059 106.5 418.721 106.5Z" fill="#E7E7E7"/>
<path opacity="0.68557" fill-rule="evenodd" clip-rule="evenodd" d="M399.861 107.5C399.58 107.5 399.299 107.393 399.079 107.176L393.357 101.552C392.899 101.102 392.879 100.35 393.311 99.8726C393.742 99.3956 394.464 99.3736 394.921 99.8237L400.643 105.449C401.101 105.898 401.121 106.65 400.689 107.127C400.466 107.375 400.162 107.5 399.861 107.5Z" fill="#E7E7E7"/>
<path fill-rule="evenodd" clip-rule="evenodd" d="M561.703 108.5H486.495C485.779 108.5 485.198 107.91 485.198 107.182C485.198 106.454 485.779 105.864 486.495 105.864H560.406V36.1361H419.388V86.2767C419.388 86.7428 419.147 87.1737 418.751 87.4112L388.04 105.864H447.675C448.395 105.864 448.976 106.454 448.976 107.182C448.976 107.91 448.395 108.5 447.675 108.5H383.301C382.713 108.5 382.201 108.103 382.046 107.53C381.891 106.957 382.135 106.35 382.637 106.048L416.79 85.5256V34.8181C416.79 34.0904 417.371 33.5 418.09 33.5H561.703C562.419 33.5 563 34.0904 563 34.8181V107.182C563 107.91 562.419 108.5 561.703 108.5Z" fill="#D8DDE2"/>
<path opacity="0.302502" fill-rule="evenodd" clip-rule="evenodd" d="M516 71.0002C516 74.0374 518.462 76.5 521.5 76.5C524.538 76.5 527 74.0374 527 71.0002C527 67.9623 524.538 65.5 521.5 65.5C518.462 65.5 516 67.9623 516 71.0002Z" fill="#7B7B7B"/>
<path opacity="0.302502" fill-rule="evenodd" clip-rule="evenodd" d="M484 71.0002C484 74.0374 486.462 76.5 489.5 76.5C492.538 76.5 495 74.0374 495 71.0002C495 67.9623 492.538 65.5 489.5 65.5C486.462 65.5 484 67.9623 484 71.0002Z" fill="#7B7B7B"/>
<path opacity="0.302502" fill-rule="evenodd" clip-rule="evenodd" d="M455 71.0002C455 74.0374 457.462 76.5 460.5 76.5C463.538 76.5 466 74.0374 466 71.0002C466 67.9623 463.538 65.5 460.5 65.5C457.462 65.5 455 67.9623 455 71.0002Z" fill="#7B7B7B"/>
<path fill-rule="evenodd" clip-rule="evenodd" d="M559.825 27.5C559.327 27.5 558.865 27.1324 558.707 26.5577L555.054 13.252C554.86 12.5428 555.203 11.7864 555.82 11.5629C556.438 11.3387 557.097 11.7333 557.293 12.4425L560.946 25.7486C561.14 26.4574 560.797 27.2139 560.18 27.4374C560.06 27.4798 559.944 27.5 559.825 27.5Z" fill="#B9B9B9"/>
<path fill-rule="evenodd" clip-rule="evenodd" d="M574.306 36.5C573.609 36.5 573.028 35.9826 573.001 35.3227C572.971 34.6456 573.533 34.0745 574.253 34.0471L588.641 33.5016C589.358 33.467 589.969 34.0006 589.999 34.6777C590.026 35.3548 589.468 35.9261 588.744 35.9533L574.36 36.4988C574.34 36.4997 574.323 36.5 574.306 36.5Z" fill="#B9B9B9"/>
<path fill-rule="evenodd" clip-rule="evenodd" d="M27.13 414.5C26.5058 414.5 26 413.989 26 413.362V340.638C26 340.011 26.5058 339.5 27.13 339.5H118.87C119.494 339.5 120 340.011 120 340.638C120 341.266 119.494 341.777 118.87 341.777H28.2602V413.362C28.2602 413.989 27.7541 414.5 27.13 414.5Z" fill="#A7C8FF"/>
<path fill-rule="evenodd" clip-rule="evenodd" d="M172.079 424.5H39.1326C38.5068 424.5 38 423.995 38 423.371C38 422.743 38.5068 422.238 39.1326 422.238H170.946V340.349C170.928 340.075 171.01 339.798 171.187 339.573L183.599 323.928L143.127 337.592C142.536 337.793 141.892 337.476 141.692 336.882C141.491 336.291 141.81 335.647 142.402 335.449L186.505 320.56C186.981 320.399 187.505 320.57 187.794 320.98C188.083 321.389 188.067 321.941 187.755 322.333L173.211 340.666V423.371C173.211 423.995 172.704 424.5 172.079 424.5Z" fill="#A7C8FF"/>
<path fill-rule="evenodd" clip-rule="evenodd" d="M75 414.498C75 413.395 74.1046 412.5 73.0002 412.5C71.8954 412.5 71 413.395 71 414.498C71 415.605 71.8954 416.5 73.0002 416.5C74.1046 416.5 75 415.605 75 414.498Z" fill="#D0E3FF"/>
<path fill-rule="evenodd" clip-rule="evenodd" d="M84 414.498C84 413.395 83.1046 412.5 81.9998 412.5C80.8954 412.5 80 413.395 80 414.498C80 415.605 80.8954 416.5 81.9998 416.5C83.1046 416.5 84 415.605 84 414.498Z" fill="#D0E3FF"/>
<path fill-rule="evenodd" clip-rule="evenodd" d="M94 414.498C94 413.395 93.1043 412.5 91.9998 412.5C90.8954 412.5 90 413.395 90 414.498C90 415.605 90.8954 416.5 91.9998 416.5C93.1043 416.5 94 415.605 94 414.498Z" fill="#D0E3FF"/>
<path fill-rule="evenodd" clip-rule="evenodd" d="M102 414.498C102 413.395 101.104 412.5 99.9998 412.5C98.8951 412.5 98 413.395 98 414.498C98 415.605 98.8951 416.5 99.9998 416.5C101.104 416.5 102 415.605 102 414.498Z" fill="#D0E3FF"/>
<path fill-rule="evenodd" clip-rule="evenodd" d="M112 414.498C112 413.395 111.104 412.5 110 412.5C108.895 412.5 108 413.395 108 414.498C108 415.605 108.895 416.5 110 416.5C111.104 416.5 112 415.605 112 414.498Z" fill="#D0E3FF"/>
<path fill-rule="evenodd" clip-rule="evenodd" d="M120 414.498C120 413.395 119.105 412.5 118 412.5C116.895 412.5 116 413.395 116 414.498C116 415.605 116.895 416.5 118 416.5C119.105 416.5 120 415.605 120 414.498Z" fill="#D0E3FF"/>
<path fill-rule="evenodd" clip-rule="evenodd" d="M130 414.498C130 413.395 129.105 412.5 128 412.5C126.895 412.5 126 413.395 126 414.498C126 415.605 126.895 416.5 128 416.5C129.105 416.5 130 415.605 130 414.498Z" fill="#D0E3FF"/>
<path fill-rule="evenodd" clip-rule="evenodd" d="M138 414.498C138 413.395 137.105 412.5 136 412.5C134.895 412.5 134 413.395 134 414.498C134 415.605 134.895 416.5 136 416.5C137.105 416.5 138 415.605 138 414.498Z" fill="#D0E3FF"/>
<path fill-rule="evenodd" clip-rule="evenodd" d="M148 414.498C148 413.395 147.104 412.5 146 412.5C144.895 412.5 144 413.395 144 414.498C144 415.605 144.895 416.5 146 416.5C147.104 416.5 148 415.605 148 414.498Z" fill="#D0E3FF"/>
<path fill-rule="evenodd" clip-rule="evenodd" d="M157 414.498C157 413.395 156.105 412.5 155 412.5C153.895 412.5 153 413.395 153 414.498C153 415.605 153.895 416.5 155 416.5C156.105 416.5 157 415.605 157 414.498Z" fill="#D0E3FF"/>
<path fill-rule="evenodd" clip-rule="evenodd" d="M165 414.498C165 413.395 164.105 412.5 163 412.5C161.895 412.5 161 413.395 161 414.498C161 415.605 161.895 416.5 163 416.5C164.105 416.5 165 415.605 165 414.498Z" fill="#D0E3FF"/>
<path fill-rule="evenodd" clip-rule="evenodd" d="M75 407.5C75 406.396 74.1046 405.5 73.0002 405.5C71.8954 405.5 71 406.396 71 407.5C71 408.604 71.8954 409.5 73.0002 409.5C74.1046 409.5 75 408.604 75 407.5Z" fill="#D0E3FF"/>
<path fill-rule="evenodd" clip-rule="evenodd" d="M84 407.5C84 406.396 83.1046 405.5 81.9998 405.5C80.8954 405.5 80 406.396 80 407.5C80 408.604 80.8954 409.5 81.9998 409.5C83.1046 409.5 84 408.604 84 407.5Z" fill="#D0E3FF"/>
<path fill-rule="evenodd" clip-rule="evenodd" d="M94 407.5C94 406.396 93.1043 405.5 91.9998 405.5C90.8954 405.5 90 406.396 90 407.5C90 408.604 90.8954 409.5 91.9998 409.5C93.1043 409.5 94 408.604 94 407.5Z" fill="#D0E3FF"/>
<path fill-rule="evenodd" clip-rule="evenodd" d="M102 407.5C102 406.396 101.104 405.5 99.9998 405.5C98.8951 405.5 98 406.396 98 407.5C98 408.604 98.8951 409.5 99.9998 409.5C101.104 409.5 102 408.604 102 407.5Z" fill="#D0E3FF"/>
<path fill-rule="evenodd" clip-rule="evenodd" d="M112 407.5C112 406.396 111.104 405.5 110 405.5C108.895 405.5 108 406.396 108 407.5C108 408.604 108.895 409.5 110 409.5C111.104 409.5 112 408.604 112 407.5Z" fill="#D0E3FF"/>
<path fill-rule="evenodd" clip-rule="evenodd" d="M120 407.5C120 406.396 119.105 405.5 118 405.5C116.895 405.5 116 406.396 116 407.5C116 408.604 116.895 409.5 118 409.5C119.105 409.5 120 408.604 120 407.5Z" fill="#D0E3FF"/>
<path fill-rule="evenodd" clip-rule="evenodd" d="M130 407.5C130 406.396 129.105 405.5 128 405.5C126.895 405.5 126 406.396 126 407.5C126 408.604 126.895 409.5 128 409.5C129.105 409.5 130 408.604 130 407.5Z" fill="#D0E3FF"/>
<path fill-rule="evenodd" clip-rule="evenodd" d="M138 407.5C138 406.396 137.105 405.5 136 405.5C134.895 405.5 134 406.396 134 407.5C134 408.604 134.895 409.5 136 409.5C137.105 409.5 138 408.604 138 407.5Z" fill="#D0E3FF"/>
<path fill-rule="evenodd" clip-rule="evenodd" d="M148 407.5C148 406.396 147.104 405.5 146 405.5C144.895 405.5 144 406.396 144 407.5C144 408.604 144.895 409.5 146 409.5C147.104 409.5 148 408.604 148 407.5Z" fill="#D0E3FF"/>
<path fill-rule="evenodd" clip-rule="evenodd" d="M157 407.5C157 406.396 156.105 405.5 155 405.5C153.895 405.5 153 406.396 153 407.5C153 408.604 153.895 409.5 155 409.5C156.105 409.5 157 408.604 157 407.5Z" fill="#D0E3FF"/>
<path fill-rule="evenodd" clip-rule="evenodd" d="M165 407.5C165 406.396 164.105 405.5 163 405.5C161.895 405.5 161 406.396 161 407.5C161 408.604 161.895 409.5 163 409.5C164.105 409.5 165 408.604 165 407.5Z" fill="#D0E3FF"/>
<path fill-rule="evenodd" clip-rule="evenodd" d="M157 397.5C157 396.393 156.105 395.5 155 395.5C153.895 395.5 153 396.393 153 397.5C153 398.604 153.895 399.5 155 399.5C156.105 399.5 157 398.604 157 397.5Z" fill="#D0E3FF"/>
<path fill-rule="evenodd" clip-rule="evenodd" d="M165 397.5C165 396.393 164.105 395.5 163 395.5C161.895 395.5 161 396.393 161 397.5C161 398.604 161.895 399.5 163 399.5C164.105 399.5 165 398.604 165 397.5Z" fill="#D0E3FF"/>
<path fill-rule="evenodd" clip-rule="evenodd" d="M75 387.502C75 386.395 74.1046 385.5 73.0002 385.5C71.8954 385.5 71 386.395 71 387.502C71 388.605 71.8954 389.5 73.0002 389.5C74.1046 389.5 75 388.605 75 387.502Z" fill="#D0E3FF"/>
<path fill-rule="evenodd" clip-rule="evenodd" d="M157 387.502C157 386.395 156.105 385.5 155 385.5C153.895 385.5 153 386.395 153 387.502C153 388.605 153.895 389.5 155 389.5C156.105 389.5 157 388.605 157 387.502Z" fill="#D0E3FF"/>
<path fill-rule="evenodd" clip-rule="evenodd" d="M165 387.502C165 386.395 164.105 385.5 163 385.5C161.895 385.5 161 386.395 161 387.502C161 388.605 161.895 389.5 163 389.5C164.105 389.5 165 388.605 165 387.502Z" fill="#D0E3FF"/>
<path fill-rule="evenodd" clip-rule="evenodd" d="M75 378.498C75 377.395 74.1046 376.5 73.0002 376.5C71.8954 376.5 71 377.395 71 378.498C71 379.605 71.8954 380.5 73.0002 380.5C74.1046 380.5 75 379.605 75 378.498Z" fill="#D0E3FF"/>
<path fill-rule="evenodd" clip-rule="evenodd" d="M157 378.498C157 377.395 156.105 376.5 155 376.5C153.895 376.5 153 377.395 153 378.498C153 379.605 153.895 380.5 155 380.5C156.105 380.5 157 379.605 157 378.498Z" fill="#D0E3FF"/>
<path fill-rule="evenodd" clip-rule="evenodd" d="M165 378.498C165 377.395 164.105 376.5 163 376.5C161.895 376.5 161 377.395 161 378.498C161 379.605 161.895 380.5 163 380.5C164.105 380.5 165 379.605 165 378.498Z" fill="#D0E3FF"/>
<path fill-rule="evenodd" clip-rule="evenodd" d="M157 369.5C157 368.396 156.105 367.5 155 367.5C153.895 367.5 153 368.396 153 369.5C153 370.607 153.895 371.5 155 371.5C156.105 371.5 157 370.607 157 369.5Z" fill="#D0E3FF"/>
<path fill-rule="evenodd" clip-rule="evenodd" d="M165 369.5C165 368.396 164.105 367.5 163 367.5C161.895 367.5 161 368.396 161 369.5C161 370.607 161.895 371.5 163 371.5C164.105 371.5 165 370.607 165 369.5Z" fill="#D0E3FF"/>
<path fill-rule="evenodd" clip-rule="evenodd" d="M75 359.5C75 358.396 74.1046 357.5 73.0002 357.5C71.8954 357.5 71 358.396 71 359.5C71 360.604 71.8954 361.5 73.0002 361.5C74.1046 361.5 75 360.604 75 359.5Z" fill="#D0E3FF"/>
<path fill-rule="evenodd" clip-rule="evenodd" d="M84 359.5C84 358.396 83.1046 357.5 81.9998 357.5C80.8954 357.5 80 358.396 80 359.5C80 360.604 80.8954 361.5 81.9998 361.5C83.1046 361.5 84 360.604 84 359.5Z" fill="#D0E3FF"/>
<path fill-rule="evenodd" clip-rule="evenodd" d="M94 359.5C94 358.396 93.1043 357.5 91.9998 357.5C90.8954 357.5 90 358.396 90 359.5C90 360.604 90.8954 361.5 91.9998 361.5C93.1043 361.5 94 360.604 94 359.5Z" fill="#D0E3FF"/>
<path fill-rule="evenodd" clip-rule="evenodd" d="M102 359.5C102 358.396 101.104 357.5 99.9998 357.5C98.8951 357.5 98 358.396 98 359.5C98 360.604 98.8951 361.5 99.9998 361.5C101.104 361.5 102 360.604 102 359.5Z" fill="#D0E3FF"/>
<path fill-rule="evenodd" clip-rule="evenodd" d="M112 359.5C112 358.396 111.104 357.5 110 357.5C108.895 357.5 108 358.396 108 359.5C108 360.604 108.895 361.5 110 361.5C111.104 361.5 112 360.604 112 359.5Z" fill="#D0E3FF"/>
<path fill-rule="evenodd" clip-rule="evenodd" d="M120 359.5C120 358.396 119.105 357.5 118 357.5C116.895 357.5 116 358.396 116 359.5C116 360.604 116.895 361.5 118 361.5C119.105 361.5 120 360.604 120 359.5Z" fill="#D0E3FF"/>
<path fill-rule="evenodd" clip-rule="evenodd" d="M130 359.5C130 358.396 129.105 357.5 128 357.5C126.895 357.5 126 358.396 126 359.5C126 360.604 126.895 361.5 128 361.5C129.105 361.5 130 360.604 130 359.5Z" fill="#D0E3FF"/>
<path fill-rule="evenodd" clip-rule="evenodd" d="M138 359.5C138 358.396 137.105 357.5 136 357.5C134.895 357.5 134 358.396 134 359.5C134 360.604 134.895 361.5 136 361.5C137.105 361.5 138 360.604 138 359.5Z" fill="#D0E3FF"/>
<path fill-rule="evenodd" clip-rule="evenodd" d="M148 359.5C148 358.396 147.104 357.5 146 357.5C144.895 357.5 144 358.396 144 359.5C144 360.604 144.895 361.5 146 361.5C147.104 361.5 148 360.604 148 359.5Z" fill="#D0E3FF"/>
<path fill-rule="evenodd" clip-rule="evenodd" d="M157 359.5C157 358.396 156.105 357.5 155 357.5C153.895 357.5 153 358.396 153 359.5C153 360.604 153.895 361.5 155 361.5C156.105 361.5 157 360.604 157 359.5Z" fill="#D0E3FF"/>
<path fill-rule="evenodd" clip-rule="evenodd" d="M165 359.5C165 358.396 164.105 357.5 163 357.5C161.895 357.5 161 358.396 161 359.5C161 360.604 161.895 361.5 163 361.5C164.105 361.5 165 360.604 165 359.5Z" fill="#D0E3FF"/>
<path fill-rule="evenodd" clip-rule="evenodd" d="M75 349.502C75 348.395 74.1046 347.5 73.0002 347.5C71.8954 347.5 71 348.395 71 349.502C71 350.605 71.8954 351.5 73.0002 351.5C74.1046 351.5 75 350.605 75 349.502Z" fill="#D0E3FF"/>
<path fill-rule="evenodd" clip-rule="evenodd" d="M66 414.498C66 413.395 65.1043 412.5 63.9997 412.5C62.8953 412.5 62 413.395 62 414.498C62 415.605 62.8953 416.5 63.9997 416.5C65.1043 416.5 66 415.605 66 414.498Z" fill="#D0E3FF"/>
<path fill-rule="evenodd" clip-rule="evenodd" d="M66 407.5C66 406.396 65.1043 405.5 63.9997 405.5C62.8953 405.5 62 406.396 62 407.5C62 408.604 62.8953 409.5 63.9997 409.5C65.1043 409.5 66 408.604 66 407.5Z" fill="#D0E3FF"/>
<path fill-rule="evenodd" clip-rule="evenodd" d="M66 387.502C66 386.395 65.1043 385.5 63.9997 385.5C62.8953 385.5 62 386.395 62 387.502C62 388.605 62.8953 389.5 63.9997 389.5C65.1043 389.5 66 388.605 66 387.502Z" fill="#D0E3FF"/>
<path fill-rule="evenodd" clip-rule="evenodd" d="M66 378.498C66 377.395 65.1043 376.5 63.9997 376.5C62.8953 376.5 62 377.395 62 378.498C62 379.605 62.8953 380.5 63.9997 380.5C65.1043 380.5 66 379.605 66 378.498Z" fill="#D0E3FF"/>
<path fill-rule="evenodd" clip-rule="evenodd" d="M66 369.5C66 368.396 65.1043 367.5 63.9997 367.5C62.8953 367.5 62 368.396 62 369.5C62 370.607 62.8953 371.5 63.9997 371.5C65.1043 371.5 66 370.607 66 369.5Z" fill="#D0E3FF"/>
<path fill-rule="evenodd" clip-rule="evenodd" d="M66 359.5C66 358.396 65.1043 357.5 63.9997 357.5C62.8953 357.5 62 358.396 62 359.5C62 360.604 62.8953 361.5 63.9997 361.5C65.1043 361.5 66 360.604 66 359.5Z" fill="#D0E3FF"/>
<path fill-rule="evenodd" clip-rule="evenodd" d="M66 349.502C66 348.395 65.1043 347.5 63.9997 347.5C62.8953 347.5 62 348.395 62 349.502C62 350.605 62.8953 351.5 63.9997 351.5C65.1043 351.5 66 350.605 66 349.502Z" fill="#D0E3FF"/>
<path fill-rule="evenodd" clip-rule="evenodd" d="M56 414.498C56 413.395 55.1046 412.5 54.0002 412.5C52.8954 412.5 52 413.395 52 414.498C52 415.605 52.8954 416.5 54.0002 416.5C55.1046 416.5 56 415.605 56 414.498Z" fill="#D0E3FF"/>
<path fill-rule="evenodd" clip-rule="evenodd" d="M56 407.5C56 406.396 55.1046 405.5 54.0002 405.5C52.8954 405.5 52 406.396 52 407.5C52 408.604 52.8954 409.5 54.0002 409.5C55.1046 409.5 56 408.604 56 407.5Z" fill="#D0E3FF"/>
<path fill-rule="evenodd" clip-rule="evenodd" d="M56 397.5C56 396.393 55.1046 395.5 54.0002 395.5C52.8954 395.5 52 396.393 52 397.5C52 398.604 52.8954 399.5 54.0002 399.5C55.1046 399.5 56 398.604 56 397.5Z" fill="#D0E3FF"/>
<path fill-rule="evenodd" clip-rule="evenodd" d="M56 387.502C56 386.395 55.1046 385.5 54.0002 385.5C52.8954 385.5 52 386.395 52 387.502C52 388.605 52.8954 389.5 54.0002 389.5C55.1046 389.5 56 388.605 56 387.502Z" fill="#D0E3FF"/>
<path fill-rule="evenodd" clip-rule="evenodd" d="M56 378.498C56 377.395 55.1046 376.5 54.0002 376.5C52.8954 376.5 52 377.395 52 378.498C52 379.605 52.8954 380.5 54.0002 380.5C55.1046 380.5 56 379.605 56 378.498Z" fill="#D0E3FF"/>
<path fill-rule="evenodd" clip-rule="evenodd" d="M56 369.5C56 368.396 55.1046 367.5 54.0002 367.5C52.8954 367.5 52 368.396 52 369.5C52 370.607 52.8954 371.5 54.0002 371.5C55.1046 371.5 56 370.607 56 369.5Z" fill="#D0E3FF"/>
<path fill-rule="evenodd" clip-rule="evenodd" d="M56 359.5C56 358.396 55.1046 357.5 54.0002 357.5C52.8954 357.5 52 358.396 52 359.5C52 360.604 52.8954 361.5 54.0002 361.5C55.1046 361.5 56 360.604 56 359.5Z" fill="#D0E3FF"/>
<path fill-rule="evenodd" clip-rule="evenodd" d="M56 349.502C56 348.395 55.1046 347.5 54.0002 347.5C52.8954 347.5 52 348.395 52 349.502C52 350.605 52.8954 351.5 54.0002 351.5C55.1046 351.5 56 350.605 56 349.502Z" fill="#D0E3FF"/>
<path fill-rule="evenodd" clip-rule="evenodd" d="M47 414.498C47 413.395 46.1043 412.5 45 412.5C43.8953 412.5 43 413.395 43 414.498C43 415.605 43.8953 416.5 45 416.5C46.1043 416.5 47 415.605 47 414.498Z" fill="#D0E3FF"/>
<path fill-rule="evenodd" clip-rule="evenodd" d="M47 407.5C47 406.396 46.1043 405.5 45 405.5C43.8953 405.5 43 406.396 43 407.5C43 408.604 43.8953 409.5 45 409.5C46.1043 409.5 47 408.604 47 407.5Z" fill="#D0E3FF"/>
<path fill-rule="evenodd" clip-rule="evenodd" d="M47 397.5C47 396.393 46.1043 395.5 45 395.5C43.8953 395.5 43 396.393 43 397.5C43 398.604 43.8953 399.5 45 399.5C46.1043 399.5 47 398.604 47 397.5Z" fill="#D0E3FF"/>
<path fill-rule="evenodd" clip-rule="evenodd" d="M47 387.502C47 386.395 46.1043 385.5 45 385.5C43.8953 385.5 43 386.395 43 387.502C43 388.605 43.8953 389.5 45 389.5C46.1043 389.5 47 388.605 47 387.502Z" fill="#D0E3FF"/>
<path fill-rule="evenodd" clip-rule="evenodd" d="M47 378.498C47 377.395 46.1043 376.5 45 376.5C43.8953 376.5 43 377.395 43 378.498C43 379.605 43.8953 380.5 45 380.5C46.1043 380.5 47 379.605 47 378.498Z" fill="#D0E3FF"/>
<path fill-rule="evenodd" clip-rule="evenodd" d="M47 369.5C47 368.396 46.1043 367.5 45 367.5C43.8953 367.5 43 368.396 43 369.5C43 370.607 43.8953 371.5 45 371.5C46.1043 371.5 47 370.607 47 369.5Z" fill="#D0E3FF"/>
<path fill-rule="evenodd" clip-rule="evenodd" d="M47 359.5C47 358.396 46.1043 357.5 45 357.5C43.8953 357.5 43 358.396 43 359.5C43 360.604 43.8953 361.5 45 361.5C46.1043 361.5 47 360.604 47 359.5Z" fill="#D0E3FF"/>
<path fill-rule="evenodd" clip-rule="evenodd" d="M47 349.502C47 348.395 46.1043 347.5 45 347.5C43.8953 347.5 43 348.395 43 349.502C43 350.605 43.8953 351.5 45 351.5C46.1043 351.5 47 350.605 47 349.502Z" fill="#D0E3FF"/>
<path fill-rule="evenodd" clip-rule="evenodd" d="M39 414.498C39 413.395 38.1043 412.5 37 412.5C35.8957 412.5 35 413.395 35 414.498C35 415.605 35.8957 416.5 37 416.5C38.1043 416.5 39 415.605 39 414.498Z" fill="#D0E3FF"/>
<path fill-rule="evenodd" clip-rule="evenodd" d="M39 407.5C39 406.396 38.1043 405.5 37 405.5C35.8957 405.5 35 406.396 35 407.5C35 408.604 35.8957 409.5 37 409.5C38.1043 409.5 39 408.604 39 407.5Z" fill="#D0E3FF"/>
<path fill-rule="evenodd" clip-rule="evenodd" d="M39 397.5C39 396.393 38.1043 395.5 37 395.5C35.8957 395.5 35 396.393 35 397.5C35 398.604 35.8957 399.5 37 399.5C38.1043 399.5 39 398.604 39 397.5Z" fill="#D0E3FF"/>
<path fill-rule="evenodd" clip-rule="evenodd" d="M39 387.502C39 386.395 38.1043 385.5 37 385.5C35.8957 385.5 35 386.395 35 387.502C35 388.605 35.8957 389.5 37 389.5C38.1043 389.5 39 388.605 39 387.502Z" fill="#D0E3FF"/>
<path fill-rule="evenodd" clip-rule="evenodd" d="M39 378.498C39 377.395 38.1043 376.5 37 376.5C35.8957 376.5 35 377.395 35 378.498C35 379.605 35.8957 380.5 37 380.5C38.1043 380.5 39 379.605 39 378.498Z" fill="#D0E3FF"/>
<path fill-rule="evenodd" clip-rule="evenodd" d="M39 369.5C39 368.396 38.1043 367.5 37 367.5C35.8957 367.5 35 368.396 35 369.5C35 370.607 35.8957 371.5 37 371.5C38.1043 371.5 39 370.607 39 369.5Z" fill="#D0E3FF"/>
<path fill-rule="evenodd" clip-rule="evenodd" d="M39 359.5C39 358.396 38.1043 357.5 37 357.5C35.8957 357.5 35 358.396 35 359.5C35 360.604 35.8957 361.5 37 361.5C38.1043 361.5 39 360.604 39 359.5Z" fill="#D0E3FF"/>
<path fill-rule="evenodd" clip-rule="evenodd" d="M39 349.502C39 348.395 38.1043 347.5 37 347.5C35.8957 347.5 35 348.395 35 349.502C35 350.605 35.8957 351.5 37 351.5C38.1043 351.5 39 350.605 39 349.502Z" fill="#D0E3FF"/>
<path fill-rule="evenodd" clip-rule="evenodd" d="M84 349.502C84 348.395 83.1046 347.5 81.9998 347.5C80.8954 347.5 80 348.395 80 349.502C80 350.605 80.8954 351.5 81.9998 351.5C83.1046 351.5 84 350.605 84 349.502Z" fill="#D0E3FF"/>
<path fill-rule="evenodd" clip-rule="evenodd" d="M94 349.502C94 348.395 93.1043 347.5 91.9998 347.5C90.8954 347.5 90 348.395 90 349.502C90 350.605 90.8954 351.5 91.9998 351.5C93.1043 351.5 94 350.605 94 349.502Z" fill="#D0E3FF"/>
<path fill-rule="evenodd" clip-rule="evenodd" d="M102 349.502C102 348.395 101.104 347.5 99.9998 347.5C98.8951 347.5 98 348.395 98 349.502C98 350.605 98.8951 351.5 99.9998 351.5C101.104 351.5 102 350.605 102 349.502Z" fill="#D0E3FF"/>
<path fill-rule="evenodd" clip-rule="evenodd" d="M112 349.502C112 348.395 111.104 347.5 110 347.5C108.895 347.5 108 348.395 108 349.502C108 350.605 108.895 351.5 110 351.5C111.104 351.5 112 350.605 112 349.502Z" fill="#D0E3FF"/>
<path fill-rule="evenodd" clip-rule="evenodd" d="M120 349.502C120 348.395 119.105 347.5 118 347.5C116.895 347.5 116 348.395 116 349.502C116 350.605 116.895 351.5 118 351.5C119.105 351.5 120 350.605 120 349.502Z" fill="#D0E3FF"/>
<path fill-rule="evenodd" clip-rule="evenodd" d="M130 349.502C130 348.395 129.105 347.5 128 347.5C126.895 347.5 126 348.395 126 349.502C126 350.605 126.895 351.5 128 351.5C129.105 351.5 130 350.605 130 349.502Z" fill="#D0E3FF"/>
<path fill-rule="evenodd" clip-rule="evenodd" d="M138 349.502C138 348.395 137.105 347.5 136 347.5C134.895 347.5 134 348.395 134 349.502C134 350.605 134.895 351.5 136 351.5C137.105 351.5 138 350.605 138 349.502Z" fill="#D0E3FF"/>
<path fill-rule="evenodd" clip-rule="evenodd" d="M148 349.502C148 348.395 147.104 347.5 146 347.5C144.895 347.5 144 348.395 144 349.502C144 350.605 144.895 351.5 146 351.5C147.104 351.5 148 350.605 148 349.502Z" fill="#D0E3FF"/>
<path fill-rule="evenodd" clip-rule="evenodd" d="M157 349.502C157 348.395 156.105 347.5 155 347.5C153.895 347.5 153 348.395 153 349.502C153 350.605 153.895 351.5 155 351.5C156.105 351.5 157 350.605 157 349.502Z" fill="#D0E3FF"/>
<path fill-rule="evenodd" clip-rule="evenodd" d="M165 349.502C165 348.395 164.105 347.5 163 347.5C161.895 347.5 161 348.395 161 349.502C161 350.605 161.895 351.5 163 351.5C164.105 351.5 165 350.605 165 349.502Z" fill="#D0E3FF"/>
<path fill-rule="evenodd" clip-rule="evenodd" d="M157 341.5C157 340.393 156.105 339.5 155 339.5C153.895 339.5 153 340.393 153 341.5C153 342.604 153.895 343.5 155 343.5C156.105 343.5 157 342.604 157 341.5Z" fill="#D0E3FF"/>
<path fill-rule="evenodd" clip-rule="evenodd" d="M172 333.502C172 332.395 171.105 331.5 170 331.5C168.896 331.5 168 332.395 168 333.502C168 334.605 168.896 335.5 170 335.5C171.105 335.5 172 334.605 172 333.502Z" fill="#D0E3FF"/>
<path fill-rule="evenodd" clip-rule="evenodd" d="M165 341.5C165 340.393 164.105 339.5 163 339.5C161.895 339.5 161 340.393 161 341.5C161 342.604 161.895 343.5 163 343.5C164.105 343.5 165 342.604 165 341.5Z" fill="#D0E3FF"/>
<path fill-rule="evenodd" clip-rule="evenodd" d="M182.849 435.5H170.151C169.515 435.5 169 434.966 169 434.307C169 433.644 169.515 433.11 170.151 433.11H181.697V420.693C181.697 420.034 182.213 419.5 182.849 419.5C183.485 419.5 184 420.034 184 420.693V434.307C184 434.966 183.485 435.5 182.849 435.5Z" fill="#A7C8FF"/>
<path fill-rule="evenodd" clip-rule="evenodd" d="M81.915 331.5H55.085C54.4859 331.5 54 331.051 54 330.5C54 329.949 54.4859 329.5 55.085 329.5H81.915C82.5141 329.5 83 329.949 83 330.5C83 331.051 82.5141 331.5 81.915 331.5Z" fill="#A7C8FF"/>
<path opacity="0.253999" fill-rule="evenodd" clip-rule="evenodd" d="M146.864 370.5H71.1359C70.5086 370.5 70 370.051 70 369.5C70 368.949 70.5086 368.5 71.1359 368.5H146.864C147.491 368.5 148 368.949 148 369.5C148 370.051 147.491 370.5 146.864 370.5Z" fill="#A7C8FF"/>
<path opacity="0.253999" fill-rule="evenodd" clip-rule="evenodd" d="M146.863 379.5H82.1373C81.5093 379.5 81 379.053 81 378.499C81 377.947 81.5093 377.5 82.1373 377.5H146.863C147.491 377.5 148 377.947 148 378.499C148 379.053 147.491 379.5 146.863 379.5Z" fill="#A7C8FF"/>
<path opacity="0.253999" fill-rule="evenodd" clip-rule="evenodd" d="M145.858 388.5H108.142C107.511 388.5 107 388.053 107 387.501C107 386.947 107.511 386.5 108.142 386.5H145.858C146.489 386.5 147 386.947 147 387.501C147 388.053 146.489 388.5 145.858 388.5Z" fill="#A7C8FF"/>
<path opacity="0.253999" fill-rule="evenodd" clip-rule="evenodd" d="M96.8375 388.5H82.1625C81.5206 388.5 81 388.053 81 387.501C81 386.947 81.5206 386.5 82.1625 386.5H96.8375C97.4794 386.5 98 386.947 98 387.501C98 388.053 97.4794 388.5 96.8375 388.5Z" fill="#A7C8FF"/>
<path opacity="0.253999" fill-rule="evenodd" clip-rule="evenodd" d="M146.863 398.5H58.1371C57.5092 398.5 57 398.051 57 397.5C57 396.946 57.5092 396.5 58.1371 396.5H146.863C147.491 396.5 148 396.946 148 397.5C148 398.051 147.491 398.5 146.863 398.5Z" fill="#A7C8FF"/>
<path opacity="0.321684" fill-rule="evenodd" clip-rule="evenodd" d="M495.685 419.5H435.311C434.587 419.5 434 418.916 434 418.196V316.804C434 316.084 434.587 315.5 435.311 315.5H453.621C454.345 315.5 454.932 316.084 454.932 316.804C454.932 317.524 454.345 318.112 453.621 318.112H436.626V416.888H495.685C496.409 416.888 497 417.476 497 418.196C497 418.916 496.409 419.5 495.685 419.5Z" fill="#D8DDE2"/>
<path fill-rule="evenodd" clip-rule="evenodd" d="M578.703 419.5H545.628C544.914 419.5 544.334 418.916 544.334 418.196C544.334 417.476 544.914 416.888 545.628 416.888H577.409V318.112H474.294C473.579 318.112 473 317.524 473 316.804C473 316.084 473.579 315.5 474.294 315.5H578.703C579.421 315.5 580 316.084 580 316.804V418.196C580 418.916 579.421 419.5 578.703 419.5Z" fill="#D8DDE2"/>
<path fill-rule="evenodd" clip-rule="evenodd" d="M550 368.693L541.643 344.5H524.933L521.185 356.595H507.068L499.287 370.85L473.069 359.189L465 400.5L550 368.693Z" fill="#1063FE"/>
<path fill-rule="evenodd" clip-rule="evenodd" d="M553 372.282V388.839L463 399.5L480.577 365.733L509.586 368.474L535.543 350.5L553 372.282Z" fill="#0B1E57"/>
<path fill-rule="evenodd" clip-rule="evenodd" d="M553 361.5V400.5H463L487.045 386.191L510.429 384.058L531.657 366.353L553 361.5Z" fill="#0531AD"/>
<path fill-rule="evenodd" clip-rule="evenodd" d="M494 340.5H500V334.5H494V340.5Z" fill="#1063FE"/>
<path fill-rule="evenodd" clip-rule="evenodd" d="M494 351.5H500V345.5H494V351.5Z" fill="#2A0055"/>
<path fill-rule="evenodd" clip-rule="evenodd" d="M452 338.5H490V334.5H452V338.5Z" fill="#4589FF"/>
<path fill-rule="evenodd" clip-rule="evenodd" d="M459 350.5H487V346.5H459V350.5Z" fill="#4589FF"/>
<path fill-rule="evenodd" clip-rule="evenodd" d="M588.934 327.5C588.346 327.5 587.869 326.985 587.869 326.35V306.803H564.066C563.478 306.803 563 306.288 563 305.65C563 305.015 563.478 304.5 564.066 304.5H588.934C589.522 304.5 590 305.015 590 305.65V326.35C590 326.985 589.522 327.5 588.934 327.5Z" fill="#0B1E57"/>
<path fill-rule="evenodd" clip-rule="evenodd" d="M550.917 208.348C556.142 185.845 541.96 163.369 519.304 158.443C497.085 153.614 474.913 167.813 469.99 190.002C468.228 197.953 468.878 205.888 471.461 213.032C476.736 227.616 483.91 231.163 477.426 259.081L476.962 261.082L513.239 269.5L513.876 266.759C520.379 238.753 528.658 239.364 539.719 228.421C545.094 223.104 549.081 216.255 550.917 208.348Z" fill="#D8DDE2"/>
<path fill-rule="evenodd" clip-rule="evenodd" d="M504.773 197.5C504.578 197.5 504.379 197.426 504.229 197.279C503.926 196.982 503.923 196.497 504.223 196.196L521.674 178.728C521.973 178.427 522.465 178.424 522.771 178.721C523.074 179.018 523.077 179.503 522.777 179.804L505.326 197.272C505.173 197.424 504.975 197.5 504.773 197.5Z" fill="white"/>
<path fill-rule="evenodd" clip-rule="evenodd" d="M492.773 194.5C492.578 194.5 492.382 194.426 492.229 194.279C491.926 193.982 491.923 193.497 492.223 193.196L509.674 175.727C509.973 175.427 510.465 175.424 510.771 175.721C511.074 176.018 511.077 176.503 510.777 176.804L493.326 194.272C493.173 194.424 492.975 194.5 492.773 194.5Z" fill="white"/>
<path fill-rule="evenodd" clip-rule="evenodd" d="M518.773 200.5C518.578 200.5 518.379 200.426 518.229 200.279C517.926 199.982 517.923 199.497 518.223 199.196L535.674 181.728C535.973 181.427 536.465 181.424 536.771 181.721C537.074 182.018 537.077 182.503 536.777 182.804L519.326 200.272C519.173 200.424 518.975 200.5 518.773 200.5Z" fill="white"/>
<path fill-rule="evenodd" clip-rule="evenodd" d="M489.74 254.5C489.737 254.5 489.734 254.5 489.731 254.5C489.324 254.497 488.994 254.144 489 253.717L489.519 207.268C489.523 206.842 489.855 206.5 490.26 206.5C490.263 206.5 490.266 206.5 490.266 206.5C490.677 206.505 491.003 206.857 491 207.286L490.481 253.733C490.474 254.161 490.145 254.5 489.74 254.5Z" fill="white"/>
<path fill-rule="evenodd" clip-rule="evenodd" d="M501.83 257.5C501.711 257.5 501.589 257.477 501.474 257.426C501.059 257.245 500.885 256.787 501.08 256.403L522.42 214.938C522.619 214.555 523.111 214.393 523.526 214.575C523.941 214.757 524.115 215.215 523.92 215.598L502.58 257.064C502.437 257.339 502.14 257.5 501.83 257.5Z" fill="white"/>
<path fill-rule="evenodd" clip-rule="evenodd" d="M497.46 284.361L483.129 281.034C480.261 280.366 478.474 277.501 479.139 274.628C479.806 271.76 482.671 269.972 485.542 270.64L499.873 273.967C502.741 274.632 504.528 277.501 503.86 280.369C503.196 283.241 500.328 285.026 497.46 284.361Z" fill="#B2BBC6"/>
<path fill-rule="evenodd" clip-rule="evenodd" d="M510.439 271.357L476.141 263.253C473.262 262.572 471.473 259.646 472.139 256.714C472.806 253.786 475.682 251.961 478.558 252.643L512.859 260.747C515.738 261.428 517.527 264.354 516.861 267.282C516.191 270.214 513.318 272.039 510.439 271.357Z" fill="#D8DDE2"/>
<path fill-rule="evenodd" clip-rule="evenodd" d="M508.441 280.358L474.141 272.252C471.265 271.574 469.473 268.646 470.139 265.717C470.809 262.786 473.682 260.961 476.561 261.643L510.858 269.746C513.737 270.427 515.529 273.352 514.86 276.284C514.193 279.212 511.317 281.037 508.441 280.358Z" fill="#D8DDE2"/>
<path fill-rule="evenodd" clip-rule="evenodd" d="M512.18 271.5C512.118 271.5 512.056 271.495 511.993 271.481L491.637 267.774C491.195 267.693 490.918 267.349 491.022 266.999C491.125 266.652 491.564 266.438 492.01 266.516L512.363 270.226C512.805 270.307 513.082 270.651 512.978 270.998C512.892 271.297 512.553 271.5 512.18 271.5Z" fill="#B2BBC6"/>
<path fill-rule="evenodd" clip-rule="evenodd" d="M485.209 264.5C485.149 264.5 485.089 264.493 485.029 264.479L475.614 262.159C475.188 262.057 474.921 261.604 475.021 261.152C475.118 260.699 475.544 260.416 475.971 260.522L485.386 262.838C485.812 262.944 486.079 263.397 485.979 263.849C485.896 264.238 485.569 264.5 485.209 264.5Z" fill="#B2BBC6"/>
<path fill-rule="evenodd" clip-rule="evenodd" d="M515.194 261.5C515.133 261.5 515.072 261.489 515.008 261.475L477.625 252.205C477.19 252.096 476.922 251.632 477.02 251.168C477.122 250.703 477.553 250.417 477.991 250.522L515.374 259.795C515.809 259.9 516.08 260.364 515.979 260.829C515.894 261.228 515.561 261.5 515.194 261.5Z" fill="#B2BBC6"/>
</svg>
