<svg width="562" height="306" viewBox="0 0 562 306" fill="none" xmlns="http://www.w3.org/2000/svg">
<path fill-rule="evenodd" clip-rule="evenodd" d="M224.247 147.017C223.09 147.017 221.92 146.741 220.844 146.173L122.854 94.4577L19.19 144.708C15.5642 146.466 11.2005 144.951 9.44326 141.326C7.68576 137.7 9.20002 133.336 12.8258 131.579L119.811 79.718C121.899 78.7057 124.345 78.7474 126.397 79.8308L222.746 130.678L317.004 30.6242C319.38 28.1036 323.199 27.5996 326.144 29.4179L371.013 57.0998L414.379 23.6695C417.569 21.2095 422.149 21.8023 424.61 24.9933C427.068 28.1844 426.476 32.7652 423.285 35.225L375.927 71.7337C373.523 73.5864 370.224 73.7575 367.641 72.1645L323.546 44.9582L229.559 144.723C228.146 146.225 226.211 147.017 224.247 147.017" fill="#CFE4FF"/>
<path fill-rule="evenodd" clip-rule="evenodd" d="M82.7148 304.898H148.401V190.825H82.7148V304.898Z" fill="#CFE4FF"/>
<path fill-rule="evenodd" clip-rule="evenodd" d="M201.25 304.898H266.936V152.516H201.25V304.898Z" fill="#CFE4FF"/>
<path fill-rule="evenodd" clip-rule="evenodd" d="M319.777 304.898H385.464V119.896H319.777V304.898Z" fill="#CFE4FF"/>
<path fill-rule="evenodd" clip-rule="evenodd" d="M438.312 304.898H503.996V63.6875H438.312V304.898Z" fill="#CFE4FF"/>
<path fill-rule="evenodd" clip-rule="evenodd" d="M130.372 35.1599L132.101 38.4237L135.26 40.2086L132.101 41.9935L130.372 45.2572L128.644 41.9935L125.484 40.2086L128.644 38.4237L130.372 35.1599" fill="#006BFF"/>
<path fill-rule="evenodd" clip-rule="evenodd" d="M536.22 122.717L537.949 125.981L541.108 127.765L537.949 129.55L536.22 132.814L534.494 129.55L531.332 127.765L534.494 125.981L536.22 122.717" fill="#006BFF"/>
<path fill-rule="evenodd" clip-rule="evenodd" d="M356.974 93.0942L358.702 96.358L361.862 98.1429L358.702 99.9278L356.974 103.192L355.245 99.9278L352.086 98.1429L355.245 96.358L356.974 93.0942" fill="#72ACFF"/>
<path fill-rule="evenodd" clip-rule="evenodd" d="M43.7577 169.461C43.9357 169.495 44.1143 169.518 44.2931 169.529C45.249 169.585 46.1062 169.269 46.8458 168.589C47.1343 168.323 47.5012 167.893 47.6107 167.353C47.7372 166.726 47.4443 166.012 46.9136 165.654C46.3831 165.297 45.611 165.295 45.0777 165.647C44.5275 166.012 44.1547 166.721 43.9383 167.813C43.8271 168.376 43.767 168.928 43.7577 169.461ZM50.4813 176.981C47.2212 176.981 44.0561 175.536 42.9287 172.409C42.7072 171.795 42.5643 171.134 42.5009 170.443C41.1435 169.938 39.7826 168.96 38.6516 167.641C37.4173 166.203 36.6284 164.493 36.4871 162.951C36.4547 162.595 36.7166 162.28 37.0724 162.248C37.4292 162.214 37.7431 162.478 37.7757 162.833C37.8911 164.095 38.5856 165.578 39.6333 166.799C40.3392 167.622 41.3549 168.498 42.4797 169.031C42.5076 168.549 42.5708 168.059 42.6691 167.562C42.9561 166.113 43.5101 165.134 44.3632 164.569C45.3287 163.929 46.6747 163.933 47.636 164.581C48.5973 165.228 49.1084 166.474 48.8786 167.609C48.7378 168.306 48.3378 168.974 47.7217 169.541C46.7141 170.468 45.5336 170.9 44.2168 170.82C44.0941 170.813 43.9702 170.801 43.846 170.785C43.9106 171.199 44.0108 171.596 44.1456 171.971C45.5282 175.804 50.4104 176.188 53.4356 175.236C53.5383 175.203 53.6405 175.169 53.7417 175.133C54.6029 174.825 55.3662 174.406 56.011 173.891C56.2902 173.667 56.6968 173.713 56.9206 173.991C57.1436 174.27 57.0986 174.677 56.8194 174.901C56.0628 175.506 55.1742 175.995 54.178 176.351C54.061 176.393 53.9428 176.433 53.824 176.47C52.7525 176.807 51.6108 176.981 50.4813 176.981V176.981Z" fill="#CFE4FF"/>
<path fill-rule="evenodd" clip-rule="evenodd" d="M109.843 137.422V137.422C109.843 141.113 106.849 144.106 103.156 144.106C99.4639 144.106 96.4727 141.113 96.4727 137.422C96.4727 133.73 99.4639 130.737 103.156 130.737C106.849 130.737 109.843 133.73 109.843 137.422" fill="#001E57"/>
<path fill-rule="evenodd" clip-rule="evenodd" d="M125.401 154.392V154.392C125.401 156.353 123.812 157.942 121.851 157.942C119.89 157.942 118.301 156.353 118.301 154.392C118.301 152.431 119.89 150.841 121.851 150.841C123.812 150.841 125.401 152.431 125.401 154.392" fill="#001E57"/>
<path fill-rule="evenodd" clip-rule="evenodd" d="M104.317 148.936H115.185V138.068H104.317V148.936ZM115.832 150.23H103.67C103.313 150.23 103.023 149.941 103.023 149.583V137.422C103.023 137.064 103.313 136.775 103.67 136.775H115.832C116.189 136.775 116.479 137.064 116.479 137.422V149.583C116.479 149.941 116.189 150.23 115.832 150.23V150.23Z" fill="#CFE4FF"/>
<path fill-rule="evenodd" clip-rule="evenodd" d="M380.155 141.045C379.557 141.045 378.949 141.181 378.403 141.454C378.041 141.635 377.182 142.14 377.019 142.926C376.85 143.735 377.456 144.605 377.997 145.192C379.053 146.343 380.352 147.211 381.749 147.745C382.973 146.567 383.715 145.176 383.42 143.582C383.244 142.622 382.667 141.854 381.798 141.419C381.296 141.169 380.729 141.045 380.155 141.045ZM373.14 153.468C372.86 153.468 372.604 153.287 372.519 153.006C372.418 152.663 372.612 152.303 372.956 152.201C374.509 151.739 378.08 150.544 380.631 148.677C379.298 148.067 378.069 147.185 377.042 146.067C375.96 144.888 375.526 143.742 375.751 142.662C375.953 141.705 376.687 140.865 377.826 140.297C379.249 139.585 380.991 139.572 382.375 140.262C383.617 140.882 384.443 141.978 384.694 143.348C385.038 145.213 384.357 146.813 383.151 148.161C384.248 148.396 385.379 148.43 386.479 148.242C389.077 147.798 391.103 146.167 392.179 143.65C392.319 143.322 392.7 143.17 393.028 143.31C393.357 143.45 393.509 143.831 393.367 144.159C392.112 147.094 389.745 148.997 386.699 149.517C385.154 149.781 383.565 149.664 382.054 149.213C379.428 151.402 375.536 152.784 373.324 153.441C373.261 153.46 373.199 153.468 373.14 153.468V153.468Z" fill="#240448"/>
<path fill-rule="evenodd" clip-rule="evenodd" d="M386.933 77.188L389.56 79.33L385.57 83.3692L385.285 84.6517L386.933 77.188" fill="white"/>
<path fill-rule="evenodd" clip-rule="evenodd" d="M385.286 84.6515L383.816 91.3172L408.349 92.0252L388.658 69.373L385.286 84.6515" fill="#72ACFF"/>
<path fill-rule="evenodd" clip-rule="evenodd" d="M378.984 82.2112L403.9 89.5496L386.949 77.1938L378.984 82.2112" fill="#001E57"/>
<path fill-rule="evenodd" clip-rule="evenodd" d="M325.248 45.0794C325.103 45.0794 324.958 45.0388 324.826 44.9536L322.611 43.5126C322.251 43.2787 322.15 42.7979 322.383 42.4385C322.619 42.0793 323.1 41.9776 323.457 42.2113L325.672 43.6523C326.032 43.8863 326.135 44.367 325.9 44.7265C325.752 44.9549 325.504 45.0794 325.248 45.0794ZM331.892 49.4023C331.748 49.4023 331.6 49.3616 331.471 49.2765L329.256 47.8355C328.896 47.6015 328.795 47.1208 329.028 46.7613C329.261 46.4024 329.742 46.3002 330.102 46.5342L332.317 47.9752C332.677 48.2091 332.777 48.6899 332.545 49.0493C332.394 49.2778 332.146 49.4023 331.892 49.4023ZM338.537 53.7251C338.393 53.7251 338.245 53.6845 338.113 53.5993L335.901 52.1586C335.541 51.9246 335.438 51.4439 335.673 51.0845C335.906 50.7253 336.387 50.6233 336.747 50.8573L338.962 52.298C339.319 52.532 339.422 53.0127 339.187 53.3721C339.039 53.6006 338.791 53.7251 338.537 53.7251ZM345.18 58.0482C345.035 58.0482 344.887 58.0073 344.758 57.9224L342.543 56.4814C342.183 56.2475 342.082 55.7667 342.315 55.4073C342.551 55.0481 343.03 54.9462 343.389 55.1801L345.604 56.6209C345.964 56.8548 346.065 57.3358 345.832 57.695C345.682 57.9237 345.433 58.0482 345.18 58.0482ZM351.825 62.371C351.68 62.371 351.532 62.3302 351.403 62.2453L349.188 60.8043C348.828 60.5703 348.727 60.0896 348.96 59.7301C349.193 59.371 349.674 59.2688 350.034 59.503L352.249 60.9437C352.609 61.1776 352.71 61.6587 352.477 62.0178C352.327 62.2466 352.078 62.371 351.825 62.371ZM358.47 66.6939C358.322 66.6939 358.177 66.653 358.045 66.5681L355.83 65.1271C355.471 64.8934 355.37 64.4127 355.603 64.0532C355.838 63.6941 356.319 63.5919 356.679 63.8258L358.892 65.2668C359.251 65.5005 359.355 65.9813 359.119 66.3407C358.972 66.5694 358.723 66.6939 358.47 66.6939ZM365.112 71.0167C364.967 71.0167 364.82 70.9761 364.69 70.891L362.475 69.4502C362.116 69.2163 362.015 68.7355 362.248 68.3761C362.481 68.0167 362.962 67.9145 363.321 68.1486L365.536 69.5897C365.896 69.8233 365.997 70.3044 365.764 70.6638C365.614 70.8923 365.366 71.0167 365.112 71.0167ZM371.757 75.3396C371.612 75.3396 371.465 75.299 371.333 75.2138L369.12 73.7731C368.761 73.5391 368.657 73.0581 368.893 72.6989C369.125 72.3398 369.607 72.2376 369.966 72.4715L372.181 73.9125C372.541 74.1464 372.642 74.6272 372.409 74.9866C372.259 75.2151 372.011 75.3396 371.757 75.3396V75.3396Z" fill="#240448"/>
<path fill-rule="evenodd" clip-rule="evenodd" d="M234.663 35.3897C234.663 35.3897 180.921 35.3641 180.864 35.3897H167.988C167.846 34.5648 167.799 33.7231 167.846 32.8831V32.8816C167.851 32.8135 167.853 32.7455 167.858 32.6774C167.864 32.6112 167.869 32.5656 167.869 32.5475C168.034 31.425 168.283 30.3141 168.611 29.2294C169.072 27.7108 169.711 26.2133 170.565 24.8654C171.579 23.2562 172.897 21.8599 174.573 20.8883C176.201 19.9456 178.002 19.2731 179.842 18.9587C182.892 18.4345 186.055 18.8878 188.722 20.7056C190.327 21.7981 191.809 23.486 193.833 23.7489C196.922 24.1507 197.738 20.7478 197.989 18.392C198.666 12.0472 199.205 2.16209 206.942 0.336792C208.31 0.0133414 209.472 0.279347 210.448 0.89442C212.373 2.10464 213.592 4.67051 214.285 6.77526C215.408 10.1751 216.024 13.8591 217.427 17.1515C218.464 19.5888 220.524 21.0668 223.231 20.7041C224.139 20.5817 225.016 20.6616 225.852 20.8945C227.777 21.4325 229.469 22.7938 230.74 24.4136C231.195 24.9938 231.596 25.6073 231.938 26.2268C233.426 28.9391 234.06 32.3558 234.663 35.3897" fill="#CFE4FF"/>
<path fill-rule="evenodd" clip-rule="evenodd" d="M243.197 146.907V218.048C225.811 221.497 199.167 208.013 177.628 183.315C159.494 162.518 157.118 132.771 157.377 116.412C157.486 109.684 163.36 104.561 170.041 105.371C186.283 107.338 215.43 113.737 233.566 134.533C237.101 138.585 240.315 142.733 243.197 146.907" fill="#006BFF"/>
<path fill-rule="evenodd" clip-rule="evenodd" d="M206.091 79.083C206.601 118.964 223.63 151.081 244.124 150.818C264.618 150.555 280.816 118.012 280.304 78.1311C279.952 50.5397 261.883 26.7905 250.779 14.7734C246.212 9.83003 238.418 9.93017 233.98 14.9887C223.19 27.2868 205.737 51.4917 206.091 79.083" fill="#006BFF"/>
<path fill-rule="evenodd" clip-rule="evenodd" d="M257.22 119.749C227.473 146.319 214.428 180.25 228.081 195.535C241.735 210.821 276.916 201.671 306.661 175.102C327.24 156.72 333.292 127.498 335.068 111.234C335.797 104.544 330.604 98.7309 323.874 98.704C307.515 98.6393 277.799 101.366 257.22 119.749" fill="#006BFF"/>
<path fill-rule="evenodd" clip-rule="evenodd" d="M262.204 85.2436C247.796 106.548 244.994 129.82 255.939 137.223C266.888 144.626 287.441 133.357 301.849 112.053C311.816 97.3137 310.988 78.0894 309.534 67.6406C308.933 63.3424 304.77 60.5271 300.56 61.5719C290.321 64.1122 272.171 70.5046 262.204 85.2436" fill="#006BFF"/>
<path fill-rule="evenodd" clip-rule="evenodd" d="M199.05 132.593C217.781 150.216 240.306 156.698 249.363 147.073C258.417 137.447 250.574 115.358 231.842 97.7357C218.883 85.544 199.774 83.2912 189.227 83.0606C184.888 82.9657 181.443 86.6261 181.803 90.951C182.675 101.464 186.091 120.402 199.05 132.593" fill="#006BFF"/>
<path fill-rule="evenodd" clip-rule="evenodd" d="M243.198 223.441C242.228 223.441 241.441 222.651 241.441 221.681V107.433C241.441 106.462 242.228 105.675 243.198 105.675C244.171 105.675 244.958 106.462 244.958 107.433V221.681C244.958 222.651 244.171 223.441 243.198 223.441" fill="white"/>
<path fill-rule="evenodd" clip-rule="evenodd" d="M244.958 305.11V221.681C244.958 220.708 244.171 219.921 243.198 219.921C242.228 219.921 241.441 220.708 241.441 221.681V305.11H244.958" fill="#240448"/>
<path fill-rule="evenodd" clip-rule="evenodd" d="M243.199 175.381C242.795 175.381 242.389 175.243 242.057 174.96L194.632 134.523C193.894 133.893 193.806 132.783 194.435 132.044C195.067 131.304 196.177 131.217 196.914 131.846L244.34 172.284C245.08 172.914 245.168 174.024 244.536 174.763C244.19 175.171 243.695 175.381 243.199 175.381" fill="white"/>
<path fill-rule="evenodd" clip-rule="evenodd" d="M243.2 146.512C242.727 146.512 242.253 146.322 241.906 145.946C241.249 145.231 241.293 144.118 242.01 143.46L270.274 117.41C270.988 116.751 272.101 116.797 272.758 117.511C273.418 118.226 273.372 119.338 272.657 119.997L244.393 146.047C244.054 146.358 243.627 146.512 243.2 146.512" fill="white"/>
<path fill-rule="evenodd" clip-rule="evenodd" d="M560.85 305.729H524.623C524.266 305.729 523.977 305.439 523.977 305.082C523.977 304.725 524.266 304.435 524.623 304.435H560.85C561.207 304.435 561.497 304.725 561.497 305.082C561.497 305.439 561.207 305.729 560.85 305.729" fill="#240448"/>
<path fill-rule="evenodd" clip-rule="evenodd" d="M162.734 267.042H205.124V257.998H162.734V267.042Z" fill="#72ACFF"/>
<path fill-rule="evenodd" clip-rule="evenodd" d="M172.18 279.643H214.57V270.6H172.18V279.643Z" fill="#72ACFF"/>
<path fill-rule="evenodd" clip-rule="evenodd" d="M172.18 292.245H214.57V283.204H172.18V292.245Z" fill="#72ACFF"/>
<path fill-rule="evenodd" clip-rule="evenodd" d="M172.18 304.554H214.57V295.51H172.18V304.554Z" fill="#72ACFF"/>
<path fill-rule="evenodd" clip-rule="evenodd" d="M407.836 279.643H450.223V270.6H407.836V279.643Z" fill="#001E57"/>
<path fill-rule="evenodd" clip-rule="evenodd" d="M400.133 292.245H442.523V283.204H400.133V292.245Z" fill="#001E57"/>
<path fill-rule="evenodd" clip-rule="evenodd" d="M400.133 304.554H442.523V295.51H400.133V304.554Z" fill="#001E57"/>
<path fill-rule="evenodd" clip-rule="evenodd" d="M219.505 55.6047C231.964 62.1586 236.751 77.5711 230.197 90.0297C223.643 102.488 208.231 107.275 195.772 100.721C183.312 94.1672 178.528 78.7544 185.08 66.2962C191.634 53.8377 207.048 49.0509 219.505 55.6047" fill="#CFE4FF"/>
<path fill-rule="evenodd" clip-rule="evenodd" d="M199.632 102.939C195.378 102.94 191.101 101.923 187.16 99.8502C181.41 96.8245 176.959 91.81 174.633 85.7307C174.506 85.3969 174.672 85.023 175.006 84.8951C175.34 84.7681 175.715 84.9347 175.842 85.2683C178.057 91.0536 182.29 95.8257 187.763 98.7054C196.897 103.51 207.949 102.353 215.913 95.7574C218.501 93.6138 220.612 91.0086 222.188 88.0137C225.358 81.9885 225.992 75.0892 223.974 68.5873C221.953 62.0852 217.523 56.7586 211.496 53.589C199.06 47.046 183.615 51.8416 177.073 64.2805C175.472 67.3207 174.517 70.5859 174.232 73.9858C174.204 74.3416 173.883 74.6058 173.533 74.5765C173.179 74.5465 172.915 74.2339 172.944 73.8779C173.244 70.3044 174.248 66.8727 175.927 63.6778C182.802 50.6079 199.029 45.5682 212.099 52.444C218.431 55.7743 223.086 61.3712 225.208 68.2035C227.33 75.0356 226.665 82.285 223.334 88.6161C221.678 91.7629 219.461 94.5008 216.739 96.7538C211.804 100.84 205.741 102.939 199.632 102.939" fill="#240448"/>
<path fill-rule="evenodd" clip-rule="evenodd" d="M204.487 90.0419C203.297 90.0419 202.264 89.4975 201.488 88.457C201.273 88.1706 201.333 87.7654 201.62 87.5519C201.905 87.3376 202.311 87.3971 202.526 87.6836C203.087 88.4384 203.804 88.7947 204.653 88.743C206.247 88.6459 207.898 87.2111 208.64 85.9103C210.268 83.0645 209.336 79.1352 206.562 77.151C205.015 76.042 202.917 75.6308 200.953 76.051C200.148 76.2236 199.338 76.523 198.484 76.8402C196.398 77.6124 194.243 78.4114 191.932 77.3961C189.546 76.346 187.844 73.7822 187.494 70.705C187.145 67.6289 188.227 64.7492 190.318 63.1896C192.421 61.6208 195.381 62.0516 196.934 64.1351C197.149 64.4216 197.089 64.8271 196.802 65.0405C196.515 65.2545 196.111 65.1947 195.896 64.9088C194.768 63.3974 192.623 63.0848 191.112 64.2117C189.368 65.512 188.483 67.9384 188.78 70.5588C189.078 73.1803 190.486 75.3464 192.455 76.2117C194.284 77.0165 196.106 76.3414 198.034 75.6269C198.895 75.3079 199.786 74.9782 200.683 74.786C202.997 74.2902 205.476 74.7816 207.318 76.0989C210.612 78.458 211.709 83.1473 209.763 86.5523C208.829 88.1874 206.801 89.9084 204.73 90.0344C204.648 90.0393 204.567 90.0419 204.487 90.0419" fill="#240448"/>
<path fill-rule="evenodd" clip-rule="evenodd" d="M210.349 91.8553C210.155 91.8553 209.961 91.7678 209.834 91.6009L186.942 61.6202C186.725 61.3363 186.779 60.9303 187.061 60.7135C187.346 60.4964 187.752 60.551 187.969 60.8351L210.862 90.8158C211.079 91.0997 211.025 91.5057 210.74 91.7225C210.624 91.8121 210.487 91.8553 210.349 91.8553" fill="#240448"/>
<path fill-rule="evenodd" clip-rule="evenodd" d="M329.83 175.056C331.155 189.071 320.864 201.506 306.85 202.828C292.835 204.15 280.402 193.862 279.08 179.847C277.755 165.832 288.046 153.398 302.06 152.075C316.075 150.753 328.508 161.041 329.83 175.056" fill="#72ACFF"/>
<path fill-rule="evenodd" clip-rule="evenodd" d="M297.598 203.542C294.927 203.542 292.29 203.141 289.729 202.346C279.35 199.128 271.985 190.071 270.966 179.273C270.355 172.803 272.123 166.336 275.939 161.064C276.149 160.775 276.555 160.71 276.845 160.92C277.132 161.129 277.197 161.534 276.987 161.823C273.354 166.84 271.672 172.994 272.255 179.151C273.225 189.428 280.235 198.047 290.112 201.112C293.32 202.108 296.658 202.45 300.025 202.132C306.804 201.493 312.927 198.252 317.269 193.007C321.608 187.761 323.647 181.14 323.005 174.362C321.686 160.369 309.229 150.061 295.235 151.38C291.814 151.703 288.559 152.688 285.557 154.309C285.242 154.478 284.848 154.361 284.68 154.047C284.509 153.732 284.629 153.34 284.942 153.17C288.098 151.467 291.519 150.431 295.113 150.092C309.816 148.704 322.907 159.537 324.294 174.24C324.967 181.362 322.824 188.32 318.265 193.831C313.703 199.342 307.27 202.748 300.146 203.42C299.295 203.501 298.444 203.542 297.598 203.542" fill="#240448"/>
<path fill-rule="evenodd" clip-rule="evenodd" d="M294.087 190.942C292.255 190.942 289.947 190.178 288.79 188.62C288.017 187.581 287.859 186.344 288.338 185.043C288.459 184.707 288.832 184.535 289.168 184.658C289.502 184.782 289.675 185.153 289.551 185.488C289.228 186.372 289.321 187.166 289.828 187.849C290.78 189.131 292.879 189.73 294.38 189.64C297.653 189.446 300.432 186.518 300.579 183.112C300.66 181.208 299.858 179.227 298.434 177.813C297.847 177.232 297.156 176.719 296.421 176.176C294.636 174.852 292.788 173.484 292.377 170.995C291.95 168.422 293.166 165.597 295.552 163.621C297.938 161.647 300.939 160.978 303.39 161.877C305.853 162.78 307.108 165.494 306.213 167.934C306.091 168.269 305.718 168.441 305.385 168.318C305.048 168.196 304.875 167.824 304.999 167.488C305.649 165.718 304.738 163.749 302.965 163.1C300.924 162.35 298.408 162.936 296.377 164.618C294.346 166.301 293.301 168.663 293.652 170.784C293.978 172.756 295.539 173.912 297.192 175.136C297.93 175.683 298.693 176.248 299.345 176.895C301.025 178.561 301.969 180.906 301.871 183.168C301.697 187.217 298.372 190.7 294.457 190.932C294.336 190.939 294.214 190.942 294.087 190.942" fill="#240448"/>
<path fill-rule="evenodd" clip-rule="evenodd" d="M290.876 194.612C290.806 194.612 290.731 194.6 290.661 194.575C290.325 194.455 290.149 194.086 290.268 193.749L302.856 158.19C302.975 157.853 303.345 157.677 303.682 157.796C304.018 157.915 304.194 158.285 304.075 158.621L291.486 194.181C291.393 194.446 291.142 194.612 290.876 194.612" fill="#240448"/>
<path fill-rule="evenodd" clip-rule="evenodd" d="M313.62 108.774C310.021 122.383 296.068 130.495 282.46 126.893C268.849 123.292 260.737 109.34 264.339 95.7311C267.941 82.1224 281.893 74.0103 295.502 77.612C309.11 81.2137 317.222 95.1652 313.62 108.774" fill="#CFE4FF"/>
<path fill-rule="evenodd" clip-rule="evenodd" d="M282.86 126.036C280.562 126.036 278.247 125.737 275.964 125.133C272.528 124.223 269.363 122.673 266.558 120.525C257.931 113.918 254.151 102.873 256.925 92.389C258.589 86.1061 262.48 80.648 267.886 77.021C268.183 76.8223 268.584 76.9009 268.784 77.1977C268.983 77.4943 268.903 77.8964 268.608 78.0954C263.464 81.5472 259.758 86.741 258.177 92.7202C255.535 102.698 259.135 113.209 267.345 119.498C270.013 121.541 273.025 123.016 276.295 123.882C282.878 125.624 289.743 124.699 295.63 121.277C301.514 117.854 305.717 112.345 307.458 105.763C311.055 92.1763 302.924 78.197 289.34 74.6011C286.017 73.7218 282.622 73.5213 279.243 74.0044C278.891 74.0556 278.562 73.809 278.513 73.4555C278.461 73.1018 278.707 72.7742 279.062 72.7235C282.612 72.2156 286.18 72.4267 289.671 73.3502C303.947 77.1289 312.486 91.8177 308.708 106.094C306.878 113.01 302.464 118.799 296.28 122.395C292.137 124.804 287.531 126.036 282.86 126.036" fill="#240448"/>
<path fill-rule="evenodd" clip-rule="evenodd" d="M277.038 111.754C276.334 111.754 275.627 111.655 274.942 111.448C273.138 110.902 271.009 109.31 270.421 107.32C270.056 106.077 270.336 104.862 271.234 103.807C271.467 103.535 271.873 103.501 272.147 103.733C272.419 103.964 272.452 104.372 272.22 104.645C271.611 105.362 271.423 106.139 271.663 106.954C272.113 108.487 273.881 109.775 275.317 110.209C278.453 111.158 282.076 109.371 283.388 106.226C284.123 104.467 284.055 102.331 283.207 100.512C282.857 99.7635 282.384 99.0431 281.884 98.28C280.665 96.4205 279.405 94.4982 279.879 92.0203C280.368 89.4586 282.487 87.2276 285.406 86.1982C288.327 85.1699 291.376 85.5793 293.363 87.2687C295.363 88.968 295.604 91.9487 293.922 93.9292C293.689 94.2012 293.283 94.2345 293.011 94.0032C292.737 93.7719 292.706 93.3636 292.936 93.0913C294.157 91.6544 293.981 89.4917 292.545 88.2704C290.887 86.8625 288.325 86.5416 285.838 87.4183C283.349 88.2955 281.553 90.1516 281.149 92.2633C280.774 94.2265 281.84 95.8508 282.966 97.5705C283.47 98.3385 283.991 99.1321 284.379 99.9645C285.38 102.108 285.455 104.635 284.583 106.724C283.305 109.78 280.184 111.754 277.038 111.754" fill="#240448"/>
<path fill-rule="evenodd" clip-rule="evenodd" d="M270.532 113.704C270.387 113.704 270.242 113.655 270.121 113.555C269.846 113.326 269.807 112.918 270.035 112.643L294.139 83.625C294.366 83.35 294.773 83.3124 295.049 83.5407C295.324 83.7689 295.36 84.177 295.132 84.4518L271.031 113.47C270.902 113.624 270.718 113.704 270.532 113.704" fill="#240448"/>
<path fill-rule="evenodd" clip-rule="evenodd" d="M68.4498 242.532C68.0565 242.532 67.658 242.491 67.2595 242.403C64.2605 241.748 62.3612 238.785 63.0158 235.786L63.7843 232.264C64.4416 229.265 67.4018 227.366 70.4008 228.021C73.3999 228.678 75.2992 231.638 74.6445 234.637L73.8734 238.159C73.3067 240.757 71.0063 242.532 68.4498 242.532" fill="#FFBFAA"/>
<path fill-rule="evenodd" clip-rule="evenodd" d="M59.9848 242.956C59.4711 242.956 58.9585 242.757 58.5725 242.359C57.8145 241.58 57.8327 240.332 58.6126 239.574L64.4546 233.9C65.2335 233.141 66.4807 233.16 67.2389 233.941C67.997 234.72 67.9789 235.967 67.1974 236.725L61.3565 242.4C60.974 242.77 60.479 242.956 59.9848 242.956" fill="#FFBFAA"/>
<path fill-rule="evenodd" clip-rule="evenodd" d="M60.5975 247.875C60.1072 247.875 59.6166 247.694 59.2349 247.329C58.4501 246.576 58.4242 245.329 59.1769 244.545L65.7399 237.701C66.4929 236.917 67.7401 236.891 68.5241 237.644C69.3082 238.397 69.334 239.642 68.5836 240.428L62.0189 247.27C61.6321 247.674 61.115 247.875 60.5975 247.875" fill="#FFBFAA"/>
<path fill-rule="evenodd" clip-rule="evenodd" d="M64.6475 249.343C64.205 249.343 63.7599 249.195 63.3951 248.89C62.5567 248.196 62.4376 246.957 63.1311 246.118L68.0734 240.141C68.7669 239.303 70.009 239.186 70.8473 239.88C71.6831 240.571 71.8022 241.813 71.1087 242.651L66.1664 248.628C65.7756 249.099 65.2141 249.343 64.6475 249.343" fill="#FFBFAA"/>
<path fill-rule="evenodd" clip-rule="evenodd" d="M53.0781 288.441L55.645 290.767L59.129 288.925L60.8997 290.529L59.6819 294.424L70.4257 304.158L72.03 302.417C72.8632 301.516 73.3057 300.349 73.3057 299.159C73.3057 298.629 73.2177 298.096 73.0391 297.578L72.3275 295.542L71.1269 292.097L73.2617 287.067L73.3911 286.759L69.4967 283.589L69.0051 283.191L62.6784 278.044L54.6853 286.7L53.0781 288.441" fill="#001E57"/>
<path fill-rule="evenodd" clip-rule="evenodd" d="M75.1117 268.708C75.0625 268.708 75.0107 268.7 74.959 268.69L42.6505 260.834C42.4838 260.793 42.34 260.689 42.2507 260.542C42.1614 260.394 42.134 260.218 42.1746 260.053L47.9266 236.394C47.9672 236.229 48.0723 236.084 48.2187 235.996C48.3654 235.905 48.5411 235.879 48.708 235.918L57.5061 238.058C57.8531 238.141 58.0661 238.493 57.9817 238.84C57.8974 239.186 57.5478 239.398 57.2003 239.316L49.031 237.328L43.5846 259.729L74.6381 267.28L80.0824 244.879L76.4805 244.002C76.1338 243.919 75.9216 243.567 76.0044 243.22C76.0898 242.874 76.4391 242.661 76.7858 242.744L81.0166 243.774C81.3633 243.859 81.5781 244.209 81.4927 244.556L75.7405 268.214C75.7016 268.38 75.5955 268.524 75.4481 268.612C75.3471 268.675 75.2307 268.708 75.1117 268.708" fill="#240448"/>
<path fill-rule="evenodd" clip-rule="evenodd" d="M112.288 215.564L91.918 206.026L96.6326 195.959L113.84 204.018L136.456 200.119L138.345 211.072L112.288 215.564" fill="#006BFF"/>
<path fill-rule="evenodd" clip-rule="evenodd" d="M138.953 211.276L135.75 200.633L140.938 199.071L144.144 209.713L138.953 211.276" fill="#FFBFAA"/>
<path fill-rule="evenodd" clip-rule="evenodd" d="M142.758 210.096C141.927 210.096 141.154 209.566 140.885 208.733C140.551 207.698 141.12 206.588 142.155 206.254L149.786 203.79C150.818 203.457 151.928 204.023 152.265 205.058C152.599 206.093 152.029 207.203 150.994 207.537L143.363 210.001C143.164 210.065 142.96 210.096 142.758 210.096" fill="#FFBFAA"/>
<path fill-rule="evenodd" clip-rule="evenodd" d="M143.137 206.008C142.314 206.008 141.548 205.488 141.271 204.665C140.924 203.633 141.481 202.517 142.511 202.171L151.5 199.153C152.53 198.807 153.645 199.363 153.992 200.393C154.338 201.423 153.785 202.541 152.752 202.885L143.766 205.904C143.556 205.974 143.344 206.008 143.137 206.008" fill="#FFBFAA"/>
<path fill-rule="evenodd" clip-rule="evenodd" d="M142.067 202.815C141.299 202.815 140.569 202.362 140.251 201.606C139.832 200.605 140.303 199.451 141.304 199.029L148.456 196.027C149.457 195.606 150.612 196.077 151.033 197.079C151.455 198.082 150.984 199.236 149.98 199.658L142.831 202.66C142.58 202.766 142.321 202.815 142.067 202.815" fill="#FFBFAA"/>
<path fill-rule="evenodd" clip-rule="evenodd" d="M139.468 203.537C139.113 203.537 138.756 203.441 138.433 203.242C137.509 202.667 137.222 201.456 137.796 200.53L140.668 195.893C141.243 194.968 142.456 194.684 143.38 195.256C144.304 195.829 144.589 197.043 144.017 197.967L141.142 202.605C140.769 203.206 140.128 203.537 139.468 203.537" fill="#FFBFAA"/>
<path fill-rule="evenodd" clip-rule="evenodd" d="M137.488 212.658C136.492 212.658 135.638 211.9 135.539 210.888L134.587 201.061C134.484 199.982 135.273 199.024 136.349 198.918C137.431 198.815 138.386 199.604 138.489 200.68L139.442 210.511C139.548 211.587 138.758 212.544 137.682 212.65C137.617 212.656 137.553 212.658 137.488 212.658" fill="#006BFF"/>
<path fill-rule="evenodd" clip-rule="evenodd" d="M130.466 210.027C130.756 210.792 131.612 211.181 132.378 210.891C133.144 210.601 133.53 209.747 133.243 208.981C132.953 208.213 132.096 207.827 131.33 208.117C130.564 208.404 130.179 209.261 130.466 210.027" fill="white"/>
<path fill-rule="evenodd" clip-rule="evenodd" d="M109.699 304.544H113.164L114.51 300.841H116.898L118.611 304.544H133.107L133.13 302.176V302.127C133.13 300.372 132.17 298.755 130.625 297.914L128.731 296.882L125.53 295.135L123.734 289.976L123.623 289.657L118.608 289.924L117.977 289.957L109.834 290.392L109.72 302.176L109.699 304.544" fill="#001E57"/>
<path fill-rule="evenodd" clip-rule="evenodd" d="M108.776 291.091L104.551 272.773L119.499 269.324L123.725 287.642L108.776 291.091" fill="#001E57"/>
<path fill-rule="evenodd" clip-rule="evenodd" d="M112.016 278.719C108.523 278.719 105.366 276.321 104.548 272.773L99.8984 252.618L84.0002 237.776C81.1047 235.072 79.4201 231.253 79.3761 227.291L79.2856 218.716C79.2416 214.48 82.6391 211.01 86.875 210.963C86.9009 210.963 86.9294 210.963 86.9578 210.963C91.1549 210.963 94.5809 214.343 94.6249 218.553L94.7129 226.791L112.081 243.003C113.196 244.046 113.978 245.396 114.322 246.887L119.497 269.324C120.449 273.451 117.874 277.571 113.747 278.523C113.165 278.657 112.585 278.719 112.016 278.719" fill="#001E57"/>
<path fill-rule="evenodd" clip-rule="evenodd" d="M108.905 291.619C107.849 291.619 106.977 290.778 106.946 289.717C106.915 288.635 107.766 287.73 108.848 287.699L124.661 287.228C125.742 287.202 126.646 288.048 126.677 289.13C126.71 290.211 125.859 291.114 124.777 291.148L108.964 291.619C108.944 291.619 108.926 291.619 108.905 291.619" fill="#006BFF"/>
<path fill-rule="evenodd" clip-rule="evenodd" d="M75.0831 286.695L62.6367 277.726L72.009 264.718L84.4554 273.687L75.0831 286.695" fill="#001E57"/>
<path fill-rule="evenodd" clip-rule="evenodd" d="M78.2281 276.875C76.673 276.875 75.1049 276.404 73.749 275.426C70.3127 272.949 69.5338 268.154 72.0101 264.718L82.0914 250.73L88.5268 224.326C89.5308 220.211 93.6813 217.688 97.7956 218.692C101.912 219.694 104.435 223.844 103.431 227.961L96.6415 255.817C96.406 256.777 95.9894 257.682 95.4124 258.485L84.4565 273.687C82.9583 275.767 80.6087 276.875 78.2281 276.875" fill="#001E57"/>
<path fill-rule="evenodd" clip-rule="evenodd" d="M96.0994 233.478H86.9548C82.7189 233.478 79.2852 230.044 79.2852 225.808C79.2852 221.572 82.7189 218.136 86.9548 218.136H96.0994C100.335 218.136 103.772 221.572 103.772 225.808C103.772 230.044 100.335 233.478 96.0994 233.478" fill="#001E57"/>
<path fill-rule="evenodd" clip-rule="evenodd" d="M74.8557 288.131C74.4805 288.131 74.1028 288.025 73.769 287.802L61.5912 279.674C60.6907 279.074 60.4477 277.858 61.0486 276.957C61.6497 276.054 62.8674 275.814 63.7679 276.414L75.9451 284.539C76.8456 285.139 77.0888 286.358 76.4885 287.259C76.1107 287.825 75.4897 288.131 74.8557 288.131" fill="#006BFF"/>
<path fill-rule="evenodd" clip-rule="evenodd" d="M79.273 219.35L104.093 225.472L107.512 208C108.523 202.486 106.262 196.825 101.617 193.686C99.3218 192.136 96.5582 191.231 93.5825 191.231C85.6463 191.231 79.2109 197.665 79.2109 205.602L79.273 219.35" fill="#006BFF"/>
<path fill-rule="evenodd" clip-rule="evenodd" d="M101.109 193.897L100.773 187.166L100.473 182.841L100.333 180.788C100.201 178.903 98.571 177.482 96.6872 177.613C96.5397 177.621 96.3948 177.641 96.2499 177.67C94.8733 177.944 93.8176 179.034 93.564 180.386C93.5096 180.666 93.4915 180.958 93.5122 181.258L94.0116 188.513L94.2083 191.341C94.3377 193.224 101.239 195.782 101.109 193.897" fill="#FFBFAA"/>
<path fill-rule="evenodd" clip-rule="evenodd" d="M88.9205 255.736C88.7937 258.528 90.5636 260.932 93.0529 261.76L95.4567 258.425C96.0053 257.662 96.4012 256.803 96.6238 255.889L97.8865 250.714C96.9317 250.186 95.8164 249.909 94.6339 249.974C91.5521 250.139 89.0602 252.652 88.9205 255.736" fill="#006BFF"/>
<path fill-rule="evenodd" clip-rule="evenodd" d="M93.2118 188.745L102.372 193.876L101.112 195.417L92.9375 194.226L93.2118 188.745" fill="white"/>
<path fill-rule="evenodd" clip-rule="evenodd" d="M102.334 186.378V186.378C104.456 185.419 105.401 182.921 104.441 180.798L103.002 177.61C101.737 174.813 98.4451 173.569 95.6479 174.834C92.8481 176.097 91.6061 179.39 92.8688 182.187L93.2052 182.931C94.7759 186.404 98.8617 187.947 102.334 186.378" fill="#FFBFAA"/>
<path fill-rule="evenodd" clip-rule="evenodd" d="M102.641 178.446L106.033 181.082C106.419 181.381 106.294 181.991 105.823 182.116L103.482 182.738L102.641 178.446" fill="#FFBFAA"/>
<path fill-rule="evenodd" clip-rule="evenodd" d="M97.4769 177.976C97.4769 177.976 97.5907 179.022 97.4614 179.526C97.2932 180.181 96.8196 180.641 96.1857 180.863C95.3861 181.143 94.408 181.137 93.567 181.151C91.66 181.185 89.2043 179.952 90.1384 177.641C90.4567 176.856 91.2615 176.276 92.1076 176.285C91.5461 176.367 90.9406 176.203 90.5473 175.798C90.1514 175.394 90.0039 174.744 90.2445 174.232C90.5214 173.648 91.2201 173.36 91.867 173.379C92.5139 173.397 93.1245 173.662 93.7171 173.923C93.8801 173.104 94.3899 172.344 95.1273 171.951C95.8648 171.558 96.8222 171.572 97.5053 172.051C97.7253 172.205 97.9219 172.414 97.9815 172.674C98.041 172.934 97.9245 173.246 97.6761 173.343C97.5519 172.55 98.0565 171.703 98.8147 171.436C99.5728 171.17 100.497 171.513 100.895 172.209C101.004 172.395 101.071 172.612 101.081 172.826C101.024 172.997 100.88 173.289 100.88 173.435C101.754 173.58 103.503 172.56 102.484 171.539C103.503 171.393 104.67 172.122 105.108 172.997C105.473 173.727 105.369 174.551 104.947 175.232C104.018 176.729 102.145 177.013 100.556 177.287C99.6427 177.444 97.8366 177.874 97.8366 177.874L97.4976 177.969L97.4769 177.976" fill="#001E57"/>
<path fill-rule="evenodd" clip-rule="evenodd" d="M104.092 226.119C104.041 226.119 103.989 226.114 103.937 226.101L79.223 220.004C78.8737 219.919 78.6641 219.567 78.7495 219.22C78.8349 218.874 79.1842 218.664 79.531 218.747L104.245 224.843C104.592 224.929 104.804 225.281 104.719 225.627C104.646 225.922 104.382 226.119 104.092 226.119" fill="white"/>
<path fill-rule="evenodd" clip-rule="evenodd" d="M94.9688 224.15C94.9688 225.72 96.2418 226.993 97.8125 226.993C99.3832 226.993 100.656 225.72 100.656 224.15C100.656 222.579 99.3832 221.306 97.8125 221.306C96.2418 221.306 94.9688 222.579 94.9688 224.15" fill="white"/>
<path fill-rule="evenodd" clip-rule="evenodd" d="M102.075 255.612C101.917 255.612 101.759 255.555 101.635 255.442L84.0135 239.16C83.7495 238.92 83.734 238.511 83.9773 238.247C84.2179 237.986 84.6267 237.97 84.8907 238.211L102.515 254.492C102.776 254.733 102.792 255.144 102.551 255.405C102.422 255.542 102.248 255.612 102.075 255.612" fill="white"/>
<path fill-rule="evenodd" clip-rule="evenodd" d="M106.23 247.557C106.23 250.9 108.942 253.61 112.283 253.61C113.525 253.61 114.679 253.237 115.639 252.595L114.322 246.884C113.978 245.399 113.196 244.046 112.081 243.003L110.702 241.714C108.127 242.41 106.23 244.763 106.23 247.557" fill="#006BFF"/>
<path fill-rule="evenodd" clip-rule="evenodd" d="M102.177 213.414L106.436 209.152L102.177 204.893L97.918 209.152L102.177 213.414" fill="#001E57"/>
<path fill-rule="evenodd" clip-rule="evenodd" d="M97.5404 213.414L101.8 209.152L97.5404 204.893L93.2812 209.152L97.5404 213.414" fill="white"/>
<path fill-rule="evenodd" clip-rule="evenodd" d="M45.3086 263.962L77.6171 271.818L83.3694 248.16L51.0606 240.304L45.3086 263.962" fill="#CFE4FF"/>
<path fill-rule="evenodd" clip-rule="evenodd" d="M104.937 182.381C104.637 182.168 104.243 182.022 103.749 181.973C103.066 181.905 102.365 182.095 101.79 182.471C101.149 182.89 100.616 183.441 99.7876 183.211C99.477 183.124 99.1872 182.975 98.8974 182.831C98.2014 182.482 97.5389 182.039 96.9308 181.549C96.9308 181.547 96.9283 181.546 96.9257 181.544C96.9257 181.544 93.6187 183.137 93.6161 183.137C93.2953 183.355 94.7598 184.976 94.9048 185.146C96.3383 186.823 98.5403 187.932 100.789 187.831C102.067 187.774 103.41 187.361 104.425 186.567C105.793 185.498 106.241 183.306 104.937 182.381" fill="#001E57"/>
<path fill-rule="evenodd" clip-rule="evenodd" d="M92.4258 182.057C92.7078 183.477 94.0896 184.399 95.5102 184.116C96.9308 183.833 97.852 182.453 97.5699 181.032C97.2879 179.612 95.9061 178.69 94.4855 178.973C93.0649 179.255 92.1437 180.636 92.4258 182.057" fill="#FFBFAA"/>
<path fill-rule="evenodd" clip-rule="evenodd" d="M74.1181 216.573C72.6147 216.573 71.1165 215.968 70.0193 214.772C67.9467 212.511 68.0968 208.994 70.3609 206.921L83.9587 194.45C86.2229 192.375 89.7369 192.527 91.8121 194.789C93.8848 197.051 93.7347 200.566 91.4706 202.642L77.8727 215.114C76.8066 216.092 75.4585 216.573 74.1181 216.573" fill="#006BFF"/>
<path fill-rule="evenodd" clip-rule="evenodd" d="M71.2352 248.336C71.199 248.336 71.1627 248.336 71.1265 248.333C70.0423 248.274 69.2091 247.348 69.2686 246.261L69.6361 239.437C69.6956 238.35 70.6219 237.512 71.7087 237.577C72.7955 237.636 73.6287 238.563 73.5692 239.649L73.1992 246.473C73.1423 247.523 72.2754 248.336 71.2352 248.336" fill="#FFBFAA"/>
<path fill-rule="evenodd" clip-rule="evenodd" d="M74.6453 234.637L63.7852 232.264L68.6887 209.83L79.5462 212.203L74.6453 234.637" fill="#006BFF"/>
<path fill-rule="evenodd" clip-rule="evenodd" d="M74.1189 236.694C73.9766 236.694 73.8317 236.679 73.6842 236.645L63.9083 234.438C62.8525 234.2 62.1875 233.149 62.4281 232.093C62.6662 231.038 63.7142 230.375 64.7725 230.613L74.5485 232.821C75.6042 233.059 76.2666 234.109 76.0286 235.165C75.8242 236.076 75.0142 236.694 74.1189 236.694" fill="#006BFF"/>
<path fill-rule="evenodd" clip-rule="evenodd" d="M66.0165 228.018C65.9286 228.833 66.5159 229.563 67.331 229.651C68.1461 229.739 68.8758 229.151 68.9638 228.336C69.0518 227.521 68.4618 226.791 67.6493 226.704C66.8342 226.616 66.1019 227.206 66.0165 228.018" fill="white"/>
<path fill-rule="evenodd" clip-rule="evenodd" d="M61.8225 256.104L64.4681 260.024L68.3883 257.38L65.7437 253.459L61.8225 256.104ZM64.2947 261.569C64.0851 261.569 63.8807 261.471 63.7565 261.284L60.3882 256.29C60.1882 255.995 60.2663 255.592 60.5626 255.392L65.5574 252.023C65.6998 251.928 65.8731 251.894 66.0413 251.925C66.2095 251.959 66.3596 252.057 66.4553 252.199L69.8244 257.193C69.9201 257.336 69.9538 257.509 69.9227 257.677C69.8891 257.845 69.7907 257.996 69.6484 258.091L64.6544 261.46C64.5431 261.533 64.4189 261.569 64.2947 261.569V261.569Z" fill="white"/>
<path fill-rule="evenodd" clip-rule="evenodd" d="M141.127 206.492C140.879 206.492 140.641 206.347 140.535 206.106C140.392 205.778 140.54 205.397 140.866 205.253C141.872 204.81 142.457 204.249 142.605 203.578C142.864 202.388 141.751 201.115 141.738 201.102C141.536 200.874 141.521 200.533 141.699 200.287L143.596 197.706C143.808 197.418 144.212 197.356 144.501 197.568C144.789 197.78 144.851 198.184 144.639 198.472L143.029 200.662C143.466 201.291 144.152 202.533 143.87 203.847C143.632 204.947 142.796 205.819 141.389 206.438C141.303 206.474 141.215 206.492 141.127 206.492" fill="#240448"/>
<path fill-rule="evenodd" clip-rule="evenodd" d="M194.867 198.104C191.2 211.696 177.209 219.743 163.619 216.076C150.026 212.41 141.981 198.42 145.648 184.828C149.312 171.237 163.303 163.191 176.893 166.857C190.486 170.523 198.531 184.513 194.867 198.104" fill="#001E57"/>
<path fill-rule="evenodd" clip-rule="evenodd" d="M170.027 209.954C167.685 209.954 165.331 209.646 163.01 209.02C159.576 208.093 156.419 206.528 153.624 204.367C145.031 197.719 141.302 186.657 144.125 176.186C145.818 169.91 149.735 164.471 155.159 160.869C155.456 160.672 155.857 160.752 156.054 161.051C156.253 161.348 156.173 161.75 155.876 161.947C150.713 165.375 146.985 170.551 145.375 176.523C142.687 186.488 146.237 197.016 154.416 203.343C157.074 205.4 160.08 206.888 163.346 207.77C169.921 209.543 176.791 208.65 182.693 205.255C188.593 201.863 192.821 196.372 194.594 189.798C196.364 183.236 195.468 176.368 192.068 170.459C188.671 164.55 183.185 160.321 176.623 158.551C173.306 157.656 169.911 157.439 166.531 157.906C166.177 157.954 165.851 157.708 165.802 157.354C165.752 157 166.001 156.674 166.353 156.625C169.906 156.134 173.474 156.362 176.959 157.302C183.855 159.162 189.62 163.606 193.191 169.814C196.762 176.022 197.704 183.239 195.844 190.136C193.981 197.043 189.538 202.81 183.338 206.378C179.221 208.746 174.654 209.954 170.027 209.954" fill="#CFE4FF"/>
<path fill-rule="evenodd" clip-rule="evenodd" d="M164.179 195.645C163.462 195.645 162.745 195.543 162.049 195.329C160.248 194.775 158.124 193.172 157.55 191.18C157.19 189.936 157.475 188.722 158.378 187.671C158.611 187.4 159.019 187.369 159.291 187.601C159.56 187.834 159.591 188.242 159.361 188.513C158.748 189.228 158.556 190.004 158.792 190.821C159.237 192.356 160.996 193.652 162.43 194.092C165.561 195.057 169.191 193.286 170.521 190.147C171.264 188.392 171.207 186.256 170.366 184.432C170.019 183.683 169.551 182.96 169.054 182.194C167.843 180.329 166.593 178.401 167.077 175.926C167.579 173.366 169.709 171.145 172.633 170.129C175.559 169.115 178.605 169.539 180.584 171.238C180.587 171.238 180.605 171.255 180.605 171.255C181.56 172.074 182.14 173.217 182.235 174.472C182.331 175.727 181.933 176.945 181.112 177.901C180.879 178.172 180.471 178.203 180.199 177.97C179.927 177.738 179.896 177.329 180.129 177.058C180.724 176.365 181.014 175.482 180.944 174.571C180.874 173.66 180.455 172.831 179.762 172.236C179.762 172.235 179.741 172.218 179.741 172.218C178.111 170.819 175.549 170.486 173.057 171.352C170.565 172.217 168.762 174.065 168.348 176.174C167.962 178.136 169.02 179.765 170.141 181.49C170.64 182.26 171.155 183.057 171.541 183.891C172.532 186.039 172.594 188.567 171.712 190.652C170.425 193.69 167.315 195.645 164.179 195.645" fill="#CFE4FF"/>
<path fill-rule="evenodd" clip-rule="evenodd" d="M157.634 197.564C157.489 197.564 157.342 197.515 157.22 197.413C156.946 197.183 156.91 196.775 157.14 196.502L181.378 167.598C181.608 167.324 182.017 167.289 182.289 167.518C182.563 167.747 182.599 168.156 182.369 168.429L158.131 197.333C158.004 197.486 157.82 197.564 157.634 197.564" fill="#CFE4FF"/>
<path fill-rule="evenodd" clip-rule="evenodd" d="M382.48 21.7103L444.448 6.48438L421.514 60.7164L382.48 21.7103" fill="#CFE4FF"/>
<path fill-rule="evenodd" clip-rule="evenodd" d="M366.647 212.707H398.764L404.286 190.047H372.169L366.647 212.707ZM399.176 213.75H365.982C365.821 213.75 365.671 213.678 365.573 213.551C365.475 213.427 365.438 213.261 365.475 213.106L371.25 189.401C371.31 189.168 371.517 189.003 371.757 189.003H404.951C405.112 189.003 405.262 189.076 405.36 189.202C405.458 189.328 405.495 189.493 405.458 189.648L399.683 213.354C399.623 213.587 399.416 213.75 399.176 213.75V213.75Z" fill="#240448"/>
<path fill-rule="evenodd" clip-rule="evenodd" d="M364.052 205.356C365.085 207.799 367.9 208.942 370.343 207.91C372.783 206.878 373.927 204.062 372.894 201.62C371.862 199.177 364.536 195.559 364.536 195.559C362.492 197.244 363.02 202.916 364.052 205.356" fill="#001E57"/>
<path fill-rule="evenodd" clip-rule="evenodd" d="M334.672 215.354C332.863 215.354 331.125 214.345 330.278 212.611C329.093 210.184 330.1 207.26 332.524 206.078L351.155 196.987C353.58 195.803 356.504 196.81 357.686 199.234C358.871 201.661 357.865 204.585 355.44 205.767L336.809 214.858C336.121 215.194 335.391 215.354 334.672 215.354" fill="#44D4F4"/>
<path fill-rule="evenodd" clip-rule="evenodd" d="M355.438 205.767L354.449 206.251L336.809 214.86C336.121 215.196 335.391 215.354 334.672 215.354C332.863 215.354 331.125 214.345 330.278 212.609C329.093 210.187 330.1 207.26 332.524 206.078L351.155 196.986C353.58 195.803 356.504 196.809 357.689 199.234C358.871 201.661 357.865 204.585 355.438 205.767" fill="#FFBFAA"/>
<path fill-rule="evenodd" clip-rule="evenodd" d="M354.449 206.251L346.952 209.91C344.763 203.71 350.107 199.482 350.107 199.482L354.449 206.251" fill="#240448"/>
<path fill-rule="evenodd" clip-rule="evenodd" d="M334.199 298.491C333.798 298.491 333.413 298.465 333.04 298.414C331.511 298.202 330.284 296.784 330.251 295.182C330.227 294.178 330.779 293.184 331.651 292.654C332.461 292.159 333.395 292.134 334.212 292.579C335.692 293.386 336.867 294.783 337.726 295.912C337.944 296.196 337.889 296.602 337.605 296.817C337.32 297.035 336.914 296.98 336.696 296.696C335.918 295.671 334.859 294.406 333.594 293.715C333.043 293.417 332.561 293.614 332.323 293.759C331.837 294.054 331.532 294.602 331.542 295.153C331.563 296.119 332.316 297.009 333.219 297.133C334.158 297.262 335.237 297.198 336.425 296.939C336.774 296.861 337.118 297.084 337.196 297.43C337.271 297.78 337.051 298.126 336.702 298.202C335.819 298.393 334.981 298.491 334.199 298.491" fill="#240448"/>
<path fill-rule="evenodd" clip-rule="evenodd" d="M370.508 292.028H378.53L374.786 246.444L358.789 240.785L370.508 292.028" fill="#44D4F4"/>
<path fill-rule="evenodd" clip-rule="evenodd" d="M371.625 226.01H346.375L350.621 210.055L349.622 206.702C348.727 203.692 349.12 200.421 350.8 197.77C350.857 197.679 350.916 197.588 350.976 197.499C352.865 194.687 355.773 192.906 359 192.906C361.637 192.906 364.061 194.095 365.888 196.064C366.263 196.468 366.615 196.906 366.936 197.372C368.181 199.177 369.004 201.423 369.211 203.902L371.625 226.01" fill="#001E57"/>
<path fill-rule="evenodd" clip-rule="evenodd" d="M342.098 229.904C342.429 225.588 343.679 221.492 347.539 218.027C353.682 220.84 359.398 219.546 371.438 217.505L373.377 231.553L342.098 229.904" fill="#006BFF"/>
<path fill-rule="evenodd" clip-rule="evenodd" d="M358.168 219.877C354.465 219.877 351.215 219.528 348.444 218.827C347.895 218.687 347.564 218.133 347.704 217.587C347.841 217.039 348.397 216.708 348.943 216.847C354.602 218.276 362.435 218.159 372.229 216.498C372.788 216.402 373.313 216.778 373.406 217.334C373.502 217.89 373.127 218.418 372.571 218.511C367.204 219.422 362.391 219.877 358.168 219.877" fill="#72ACFF"/>
<path fill-rule="evenodd" clip-rule="evenodd" d="M348.878 288.527L336.598 288.529L343.061 237.766C342.606 235.631 341.173 230.399 341.424 228.937L361.439 222.698L348.878 288.527" fill="#006BFF"/>
<path fill-rule="evenodd" clip-rule="evenodd" d="M366.992 289.538L380.691 289.541L373.055 229.126L353.117 222.698L354.357 231.804L354.018 229.302L366.992 289.538" fill="#006BFF"/>
<path fill-rule="evenodd" clip-rule="evenodd" d="M347.527 230.011C346.233 230.251 344.83 229.736 343.86 228.512L330.793 214.731C328.862 212.565 329.054 209.248 331.217 207.317C333.383 205.387 336.7 205.579 338.63 207.744L349.566 222.778C351.043 224.636 350.963 227.428 349.387 229.012C348.846 229.553 348.202 229.884 347.527 230.011" fill="#FFBFAA"/>
<path fill-rule="evenodd" clip-rule="evenodd" d="M341.798 236.094C341.335 236.094 340.872 235.921 340.515 235.574C339.785 234.862 339.77 233.698 340.479 232.968L346.666 226.611C347.377 225.881 348.542 225.865 349.271 226.574C350.001 227.286 350.017 228.45 349.308 229.18L343.118 235.538C342.758 235.908 342.277 236.094 341.798 236.094" fill="#FFBFAA"/>
<path fill-rule="evenodd" clip-rule="evenodd" d="M341.322 232.456C341.009 232.456 340.693 232.376 340.401 232.21C339.521 231.7 339.218 230.572 339.728 229.692L342.869 224.253C343.379 223.373 344.505 223.071 345.387 223.58C346.267 224.09 346.57 225.216 346.06 226.098L342.919 231.535C342.577 232.127 341.959 232.456 341.322 232.456" fill="#FFBFAA"/>
<path fill-rule="evenodd" clip-rule="evenodd" d="M382.81 298.491C382.029 298.491 381.193 298.393 380.311 298.202C379.961 298.127 379.739 297.78 379.817 297.43C379.892 297.084 380.236 296.861 380.585 296.939C381.773 297.198 382.852 297.262 383.794 297.133C384.697 297.009 385.447 296.119 385.468 295.153C385.481 294.602 385.173 294.054 384.686 293.759C384.451 293.614 383.967 293.417 383.416 293.715C382.153 294.406 381.095 295.671 380.313 296.696C380.096 296.98 379.69 297.035 379.408 296.817C379.123 296.602 379.069 296.196 379.283 295.912C380.143 294.783 381.317 293.386 382.797 292.579C383.618 292.134 384.552 292.162 385.359 292.654C386.234 293.184 386.782 294.178 386.762 295.182C386.728 296.784 385.501 298.202 383.97 298.414C383.6 298.466 383.211 298.491 382.81 298.491" fill="#240448"/>
<path fill-rule="evenodd" clip-rule="evenodd" d="M389.647 303.61L389.621 305.082H375.376L374.002 302.3L373.645 301.581C373.371 301.022 372.561 301.069 372.349 301.653L371.117 305.082H367.652L369.151 289.538L379.341 289.569L382.477 296.32L388.661 301.462C388.946 301.697 389.173 301.982 389.339 302.3C389.546 302.701 389.655 303.149 389.647 303.61" fill="#001E57"/>
<path fill-rule="evenodd" clip-rule="evenodd" d="M327.024 303.61L327.05 305.082H341.294L342.671 302.3L343.026 301.581C343.302 301.022 344.112 301.069 344.322 301.653L345.556 305.082H349.018L348.749 302.3L347.523 289.538L337.333 289.569L334.197 296.32L328.01 301.462C327.728 301.697 327.497 301.982 327.334 302.3C327.125 302.701 327.016 303.149 327.024 303.61" fill="#001E57"/>
<path fill-rule="evenodd" clip-rule="evenodd" d="M348.084 291.313H336.853C335.88 291.313 335.094 290.527 335.094 289.554C335.094 288.583 335.88 287.794 336.853 287.794H348.084C349.054 287.794 349.843 288.583 349.843 289.554C349.843 290.527 349.054 291.313 348.084 291.313" fill="#72ACFF"/>
<path fill-rule="evenodd" clip-rule="evenodd" d="M380.24 291.301C380.24 291.301 380.24 291.301 380.237 291.301L368.158 291.298C367.185 291.298 366.398 290.511 366.398 289.538C366.398 288.568 367.185 287.779 368.158 287.779L380.24 287.781C381.21 287.781 381.999 288.568 381.999 289.541C381.999 290.511 381.21 291.301 380.24 291.301" fill="#72ACFF"/>
<path fill-rule="evenodd" clip-rule="evenodd" d="M359.944 233.261C359.825 233.261 359.709 233.255 359.589 233.248C357.113 233.043 355.134 230.738 355.172 228.106L355.235 223.937C355.237 223.759 355.315 223.588 355.447 223.469C355.579 223.347 355.755 223.288 355.933 223.303L357.615 223.441C357.97 223.469 358.236 223.782 358.205 224.139C358.177 224.494 357.869 224.76 357.509 224.729L356.518 224.649L356.466 228.124C356.435 230.088 357.884 231.809 359.696 231.956C360.503 232.021 361.279 231.76 361.877 231.216C362.55 230.606 362.927 229.728 362.943 228.743L362.953 227.984C362.961 227.627 363.256 227.345 363.611 227.348C363.968 227.353 364.255 227.645 364.247 228.003L364.237 228.763C364.216 230.091 363.675 231.333 362.746 232.176C361.967 232.883 360.984 233.261 359.944 233.261" fill="#001E57"/>
<path fill-rule="evenodd" clip-rule="evenodd" d="M362.094 183.504L362.084 185.563L362.071 188.791L362.066 189.898L362.063 190.364V190.371L362.047 193.61C362.04 195.5 360.503 197.023 358.614 197.015C356.725 197.006 355.203 195.467 355.211 193.58L355.221 190.744L355.234 188.448L355.25 184.687L355.258 183.473C355.258 183.173 355.299 182.883 355.371 182.608C355.635 181.609 356.342 180.791 357.266 180.371C357.573 180.232 357.905 180.139 358.251 180.096C358.396 180.078 358.544 180.069 358.691 180.07C360.578 180.079 362.102 181.614 362.094 183.504" fill="#FFBFAA"/>
<path fill-rule="evenodd" clip-rule="evenodd" d="M362.095 183.504L362.084 185.563L362.071 188.791L362.066 189.898L362.064 190.364V190.371L362.058 191.389C359.616 191.133 357.385 189.577 356.389 187.143L356.078 186.388C355.915 185.986 355.799 185.576 355.732 185.166C355.445 183.403 356.035 181.618 357.266 180.371C357.574 180.232 357.905 180.139 358.252 180.096C358.397 180.078 358.544 180.069 358.692 180.07C360.578 180.079 362.102 181.614 362.095 183.504" fill="#240448"/>
<path fill-rule="evenodd" clip-rule="evenodd" d="M365.052 188.195V188.195C367.047 186.992 367.688 184.399 366.485 182.404L364.679 179.409C363.093 176.781 359.677 175.935 357.048 177.521C354.419 179.106 353.573 182.523 355.159 185.151L355.581 185.85C357.548 189.113 361.789 190.163 365.052 188.195" fill="#FFBFAA"/>
<path fill-rule="evenodd" clip-rule="evenodd" d="M364.473 179.518C365.482 180.725 366.488 181.833 367.485 182.343C367.754 182.481 367.904 182.794 367.79 183.074C367.72 183.25 367.565 183.393 367.35 183.432L364.964 183.863L364.473 179.518" fill="#FFBFAA"/>
<path fill-rule="evenodd" clip-rule="evenodd" d="M359.186 185.168C359.186 185.168 356.826 181.8 359.279 181.294C365.091 180.095 365.073 177.403 365.073 177.402C365.096 177.38 364.234 176.635 364.183 176.596C363.455 176.015 362.651 175.523 361.781 175.184C358.549 173.922 354.79 175.565 352.945 178.369C350.9 181.478 351.853 184.075 353.253 185.734C354.425 187.125 356.51 187.297 357.934 186.164L359.186 185.168" fill="#72ACFF"/>
<path fill-rule="evenodd" clip-rule="evenodd" d="M352.807 176.14C352.898 175.46 353.081 174.791 353.092 174.105C353.11 172.882 352.543 171.663 351.599 170.887C350.652 170.111 349.347 169.795 348.152 170.053C346.374 170.436 345.08 171.923 343.921 173.325C342.645 172.123 341.018 171.254 339.276 171.06C336.668 170.77 332.719 172.5 333.529 175.72C333.804 176.814 334.595 177.726 335.54 178.344C335.835 178.536 336.158 178.719 336.327 179.028C336.554 179.451 336.415 179.99 336.138 180.385C335.863 180.779 335.473 181.077 335.141 181.426C334.207 182.414 333.773 183.853 334.005 185.194C334.238 186.534 335.131 187.743 336.345 188.358C336.986 188.683 337.719 188.852 338.241 189.362C339.812 190.889 339.649 193.458 341.473 194.881C342.71 195.846 344.483 195.937 345.95 195.381C347.42 194.825 348.612 193.705 349.557 192.45C350.576 191.09 351.371 189.43 351.166 187.741C350.99 186.281 350.025 184.942 348.695 184.314C347.971 183.972 347.039 183.71 346.84 182.936C346.667 182.259 347.236 181.568 347.906 181.364C348.574 181.16 349.296 181.316 349.971 181.495C351.899 182.008 353.795 182.716 355.783 182.886C355.638 182.963 355.49 183.04 355.345 183.117C355.583 183.617 356.393 183.569 356.73 183.128C357.064 182.687 357.014 182.061 356.826 181.54C356.577 180.853 356.106 180.247 355.503 179.835C354.722 179.301 353.702 179.057 353.161 178.283C352.75 177.699 352.711 176.931 352.797 176.223C352.799 176.195 352.804 176.168 352.807 176.14" fill="#72ACFF"/>
<path fill-rule="evenodd" clip-rule="evenodd" d="M355.395 184.719C355.842 186.096 357.323 186.848 358.702 186.399C360.078 185.951 360.831 184.471 360.381 183.094C359.933 181.717 358.453 180.964 357.077 181.413C355.7 181.862 354.947 183.342 355.395 184.719" fill="#FFBFAA"/>
<path fill-rule="evenodd" clip-rule="evenodd" d="M351.421 182.715C351.333 182.715 351.245 182.698 351.16 182.661C350.834 182.517 350.684 182.136 350.829 181.808L352.612 177.739C352.756 177.412 353.137 177.264 353.463 177.407C353.792 177.55 353.939 177.932 353.797 178.259L352.014 182.328C351.908 182.571 351.67 182.715 351.421 182.715" fill="#240448"/>
<path fill-rule="evenodd" clip-rule="evenodd" d="M358.474 252.316C358.166 252.316 357.892 252.093 357.837 251.778L355.045 235.538L352.367 233.136C352.101 232.898 352.08 232.49 352.318 232.223C352.556 231.956 352.965 231.936 353.231 232.174L356.075 234.725C356.184 234.824 356.256 234.956 356.282 235.098L359.113 251.56C359.172 251.912 358.937 252.246 358.585 252.305C358.546 252.313 358.51 252.316 358.474 252.316" fill="white"/>
<path fill-rule="evenodd" clip-rule="evenodd" d="M351.653 221.451C351.378 221.451 351.125 221.277 351.037 221.006C350.519 219.419 350.788 218.025 351.839 216.86C352.08 216.594 352.488 216.573 352.752 216.814C353.019 217.052 353.04 217.461 352.802 217.727C352.064 218.545 351.893 219.458 352.266 220.602C352.377 220.944 352.193 221.308 351.852 221.42C351.785 221.44 351.717 221.451 351.653 221.451" fill="#006BFF"/>
<path fill-rule="evenodd" clip-rule="evenodd" d="M363.907 221.58C363.785 221.58 363.661 221.546 363.552 221.474C363.255 221.277 363.172 220.876 363.369 220.579C363.974 219.657 364.002 218.728 363.459 217.655C363.299 217.336 363.428 216.946 363.746 216.785C364.065 216.625 364.455 216.752 364.616 217.072C365.366 218.56 365.309 219.981 364.448 221.29C364.323 221.479 364.116 221.58 363.907 221.58" fill="#006BFF"/>
<path fill-rule="evenodd" clip-rule="evenodd" d="M354.027 197.015H363.12V192.029H354.027V197.015Z" fill="#001E57"/>
<path fill-rule="evenodd" clip-rule="evenodd" d="M373.38 223.141C371.579 223.141 369.851 222.144 368.997 220.424L359.837 201.925C358.639 199.508 359.63 196.576 362.047 195.378C364.466 194.181 367.395 195.171 368.593 197.589L377.753 216.087C378.951 218.504 377.96 221.435 375.544 222.633C374.847 222.978 374.107 223.141 373.38 223.141" fill="#FFBFAA"/>
<path fill-rule="evenodd" clip-rule="evenodd" d="M374.081 222.641C371.232 223.177 368.486 221.301 367.951 218.452C367.415 215.6 369.291 212.857 372.143 212.322L394.771 209.512C397.126 209.206 399.475 210.715 400.019 212.881C400.205 213.623 400.156 214.348 399.915 214.99C399.455 216.221 398.29 217.158 396.74 217.36L374.081 222.641" fill="#FFBFAA"/>
<path fill-rule="evenodd" clip-rule="evenodd" d="M393.671 213.67C392.944 213.67 392.258 213.238 391.966 212.524C391.581 211.584 392.031 210.508 392.973 210.122L402.371 206.272C403.313 205.886 404.389 206.337 404.775 207.279C405.16 208.22 404.71 209.297 403.768 209.682L394.367 213.53C394.14 213.626 393.904 213.67 393.671 213.67" fill="#FFBFAA"/>
<path fill-rule="evenodd" clip-rule="evenodd" d="M395.44 214.599C394.607 214.599 393.854 214.032 393.649 213.186C393.411 212.198 394.019 211.204 395.01 210.966L400.851 209.558C401.839 209.32 402.833 209.928 403.071 210.919C403.309 211.908 402.701 212.901 401.712 213.139L395.872 214.547C395.727 214.581 395.582 214.599 395.44 214.599" fill="#FFBFAA"/>
<path fill-rule="evenodd" clip-rule="evenodd" d="M397.097 217.28C396.305 217.28 395.573 216.765 395.332 215.968C395.04 214.995 395.591 213.967 396.567 213.672L400.709 212.425C401.682 212.133 402.71 212.684 403.004 213.66C403.297 214.632 402.746 215.66 401.77 215.955L397.627 217.202C397.452 217.254 397.273 217.28 397.097 217.28" fill="#FFBFAA"/>
<path fill-rule="evenodd" clip-rule="evenodd" d="M393.135 212.992C392.866 212.992 392.594 212.933 392.336 212.808C391.42 212.366 391.034 211.264 391.476 210.347L392.928 207.343C393.371 206.425 394.47 206.042 395.386 206.484C396.305 206.927 396.688 208.026 396.245 208.942L394.796 211.949C394.478 212.606 393.821 212.992 393.135 212.992" fill="#FFBFAA"/>
<path fill-rule="evenodd" clip-rule="evenodd" d="M539.717 305.729H340.995C340.635 305.729 340.348 305.439 340.348 305.082C340.348 304.725 340.635 304.435 340.995 304.435H539.717C540.074 304.435 540.364 304.725 540.364 305.082C540.364 305.439 540.074 305.729 539.717 305.729" fill="#240448"/>
<path fill-rule="evenodd" clip-rule="evenodd" d="M500.992 233.763C484.196 233.763 470.531 220.098 470.531 203.301V182.25H531.454V203.301C531.454 220.098 517.789 233.763 500.992 233.763" fill="white"/>
<path fill-rule="evenodd" clip-rule="evenodd" d="M537.549 176.153H464.434V203.301C464.434 223.492 480.8 239.859 500.991 239.859C521.182 239.859 537.549 223.492 537.549 203.301V176.153ZM525.356 188.347V203.301C525.356 216.736 514.426 227.666 500.991 227.666C487.556 227.666 476.626 216.736 476.626 203.301V203.783H525.356V188.347V188.347Z" fill="#006BFF"/>
<path fill-rule="evenodd" clip-rule="evenodd" d="M500.991 229.967V229.967C521.182 229.967 537.549 246.336 537.549 266.524V293.673H464.434V266.524C464.434 246.336 480.8 229.967 500.991 229.967" fill="#006BFF"/>
<path fill-rule="evenodd" clip-rule="evenodd" d="M457.481 183.854H544.497V168.684H457.481V183.854ZM545.144 185.148H456.834C456.477 185.148 456.188 184.858 456.188 184.501V168.038C456.188 167.68 456.477 167.391 456.834 167.391H545.144C545.501 167.391 545.791 167.68 545.791 168.038V184.501C545.791 184.858 545.501 185.148 545.144 185.148V185.148Z" fill="#001E57"/>
<path fill-rule="evenodd" clip-rule="evenodd" d="M500.992 265.238L476.691 288.089H525.292L500.992 265.238" fill="white"/>
<path fill-rule="evenodd" clip-rule="evenodd" d="M545.144 305.201C544.787 305.201 544.497 304.911 544.497 304.554V288.736H457.481V304.554C457.481 304.911 457.191 305.201 456.834 305.201C456.477 305.201 456.188 304.911 456.188 304.554V288.089C456.188 287.732 456.477 287.442 456.834 287.442H545.144C545.501 287.442 545.791 287.732 545.791 288.089V304.554C545.791 304.911 545.501 305.201 545.144 305.201" fill="#001E57"/>
<path fill-rule="evenodd" clip-rule="evenodd" d="M500.992 271.914C500.319 271.914 499.773 271.368 499.773 270.695V260.2C499.773 259.525 500.319 258.979 500.992 258.979C501.665 258.979 502.211 259.525 502.211 260.2V270.695C502.211 271.368 501.665 271.914 500.992 271.914" fill="white"/>
<path fill-rule="evenodd" clip-rule="evenodd" d="M500.992 253.208C500.319 253.208 499.773 252.662 499.773 251.987V226.116C499.773 225.443 500.319 224.897 500.992 224.897C501.665 224.897 502.211 225.443 502.211 226.116V251.987C502.211 252.662 501.665 253.208 500.992 253.208" fill="white"/>
<path fill-rule="evenodd" clip-rule="evenodd" d="M259.204 285.013L268.359 260.868C269.712 257.299 272.722 254.694 276.319 253.798C276.559 253.741 276.795 253.687 277.035 253.643C277.687 253.519 278.358 253.457 279.036 253.452L290.576 253.382C291.254 253.379 291.927 253.433 292.579 253.55C292.82 253.589 293.055 253.64 293.298 253.697C296.906 254.546 299.946 257.118 301.343 260.668L310.785 284.702C311.45 286.399 311.841 288.193 311.862 290.004C311.87 290.39 311.862 290.775 311.836 291.161C311.44 296.74 307.877 301.651 302.754 303.788C302.378 303.943 301.995 304.088 301.602 304.21C300.197 304.665 298.696 304.916 297.123 304.924L278.534 305.038C277.876 305.041 277.041 305.126 276.409 305.051L273.107 304.945C265.112 304.994 258.852 298.804 258.234 291.357C258.058 289.199 258.438 287.039 259.204 285.013" fill="#006BFF"/>
<path fill-rule="evenodd" clip-rule="evenodd" d="M279.455 239.644L284.672 231.11L289.262 239.362L295.747 236.49C294.375 240.576 291.625 250.616 291.625 250.616C291.446 251.154 291.203 251.664 290.91 252.129C289.945 253.692 288.408 254.823 286.636 255.297C286.051 255.452 285.445 255.532 284.819 255.535C281.354 255.558 279.002 252.826 277.698 249.883C276.068 246.201 274.948 242.229 273.664 238.423L279.455 239.644" fill="#006BFF"/>
<path fill-rule="evenodd" clip-rule="evenodd" d="M295.948 290.752C295.382 290.752 294.833 290.674 294.362 290.532C291.531 289.686 289.694 286.557 290.266 283.558C290.587 281.884 291.684 280.329 293.203 279.398C293.79 279.038 294.445 278.756 295.079 278.484C296.487 277.876 297.817 277.304 298.389 275.935C299.004 274.46 298.652 272.569 297.465 271.003C296.28 269.435 294.556 268.584 292.97 268.775C292.282 268.858 291.684 269.195 291.265 269.728C290.848 270.258 290.665 270.921 290.745 271.591C290.778 271.875 290.577 272.132 290.292 272.168C290.012 272.201 289.751 272 289.717 271.715C289.604 270.77 289.865 269.836 290.452 269.089C291.04 268.338 291.883 267.862 292.828 267.748C292.833 267.748 292.841 267.748 292.848 267.748H292.846C294.8 267.513 296.885 268.519 298.29 270.377C299.698 272.238 300.102 274.52 299.346 276.334C298.611 278.091 297.022 278.774 295.488 279.434C294.859 279.703 294.269 279.959 293.744 280.28C292.468 281.061 291.55 282.36 291.283 283.752C290.807 286.247 292.321 288.842 294.66 289.541C295.726 289.859 297.348 289.787 298.257 289.023C298.733 288.62 298.935 288.066 298.852 287.378C298.815 287.096 299.02 286.837 299.302 286.803C299.587 286.77 299.845 286.971 299.879 287.254C300.003 288.296 299.675 289.181 298.922 289.815C298.14 290.472 297.015 290.752 295.948 290.752" fill="#CFE4FF"/>
<path fill-rule="evenodd" clip-rule="evenodd" d="M296.458 293.847C296.197 293.847 295.972 293.65 295.943 293.384L292.874 265.293C292.843 265.008 293.048 264.752 293.332 264.721C293.609 264.692 293.87 264.894 293.901 265.179L296.973 293.272C297.004 293.557 296.8 293.811 296.515 293.842C296.494 293.844 296.476 293.847 296.458 293.847" fill="#CFE4FF"/>
<path fill-rule="evenodd" clip-rule="evenodd" d="M353.77 305.757H74.8969C74.5398 305.757 74.25 305.468 74.25 305.111C74.25 304.753 74.5398 304.464 74.8969 304.464H353.77C354.128 304.464 354.417 304.753 354.417 305.111C354.417 305.468 354.128 305.757 353.77 305.757" fill="#240448"/>
<path fill-rule="evenodd" clip-rule="evenodd" d="M464.396 147.875C462.672 147.875 461.003 146.964 460.113 145.349C458.809 142.986 459.668 140.015 462.03 138.711L480.11 128.735C482.475 127.431 485.446 128.29 486.75 130.652C488.051 133.015 487.195 135.987 484.832 137.29L466.75 147.267C466.002 147.68 465.192 147.875 464.396 147.875" fill="#FFBFAA"/>
<path fill-rule="evenodd" clip-rule="evenodd" d="M468.344 133.947L475.4 144.329L484.004 138.734C487.042 137.098 488.178 133.309 486.542 130.272C484.904 127.234 481.116 126.099 478.078 127.735L468.344 133.947" fill="#001E57"/>
<path fill-rule="evenodd" clip-rule="evenodd" d="M474.65 145.183C474.058 145.183 473.47 144.914 473.085 144.404L466.799 136.091C466.147 135.227 466.315 133.997 467.18 133.344C468.044 132.691 469.273 132.862 469.928 133.726L476.213 142.039C476.865 142.903 476.694 144.133 475.833 144.786C475.478 145.053 475.062 145.183 474.65 145.183" fill="#001E57"/>
<path fill-rule="evenodd" clip-rule="evenodd" d="M490.94 169.494H479.898L480.82 161.221H490.94V169.494" fill="#240448"/>
<path fill-rule="evenodd" clip-rule="evenodd" d="M500.152 106.532C500.338 108.649 498.773 110.514 496.656 110.7C494.539 110.885 492.674 109.319 492.487 107.203C492.304 105.087 493.869 103.221 495.983 103.036C498.1 102.85 499.965 104.416 500.152 106.532" fill="#006BFF"/>
<path fill-rule="evenodd" clip-rule="evenodd" d="M493.967 110.281V110.281C493.175 110.835 492.083 110.643 491.53 109.851L491.509 109.82C490.953 109.029 491.147 107.938 491.939 107.384C492.728 106.83 493.82 107.022 494.373 107.813L494.397 107.845C494.951 108.636 494.756 109.727 493.967 110.281" fill="#240448"/>
<path fill-rule="evenodd" clip-rule="evenodd" d="M460.676 179.057L464.317 189.393L471.655 186.171L468.759 174.402L460.676 179.057" fill="#FFBFAA"/>
<path fill-rule="evenodd" clip-rule="evenodd" d="M476.491 194.07L457.35 201.319L456.53 199.159L456.333 198.638C455.961 197.646 456.16 196.529 456.858 195.733L458.628 193.713L460.729 191.312L460.66 187.399C460.649 186.714 461.089 186.104 461.744 185.902L464.833 184.948L465.876 188.738L471.181 183.64C471.652 183.186 472.433 183.363 472.666 183.973L475.67 191.908L476.491 194.07" fill="#001E57"/>
<path fill-rule="evenodd" clip-rule="evenodd" d="M440.509 171.627L434.043 180.475L440.848 184.704L448.919 175.662L440.509 171.627" fill="#FFBFAA"/>
<path fill-rule="evenodd" clip-rule="evenodd" d="M443.092 124.869C442.701 126.126 443.051 127.579 444.15 128.686L458.838 146.733C460.763 148.901 464.08 149.098 466.248 147.172C468.417 145.246 468.614 141.928 466.688 139.76L450.511 123.686C448.837 122.002 446.055 121.757 444.298 123.138C443.698 123.611 443.294 124.213 443.092 124.869" fill="#FFBFAA"/>
<path fill-rule="evenodd" clip-rule="evenodd" d="M448.617 126.491C448.389 126.491 448.156 126.449 447.931 126.359L439.48 122.977C438.533 122.599 438.075 121.526 438.453 120.582C438.83 119.638 439.902 119.178 440.846 119.556L449.3 122.938C450.244 123.316 450.705 124.388 450.327 125.333C450.037 126.053 449.347 126.491 448.617 126.491" fill="#FFBFAA"/>
<path fill-rule="evenodd" clip-rule="evenodd" d="M446.852 127.435C446.767 127.435 446.681 127.429 446.596 127.417L436.59 126.018C435.583 125.877 434.882 124.946 435.022 123.939C435.161 122.931 436.095 122.228 437.102 122.369L447.106 123.768C448.112 123.909 448.816 124.84 448.674 125.847C448.544 126.769 447.755 127.435 446.852 127.435" fill="#FFBFAA"/>
<path fill-rule="evenodd" clip-rule="evenodd" d="M445.218 130.129C445.123 130.129 445.027 130.122 444.928 130.106L438.361 129.064C437.357 128.904 436.671 127.96 436.832 126.955C436.99 125.95 437.934 125.264 438.938 125.425L445.506 126.467C446.512 126.627 447.195 127.571 447.037 128.575C446.892 129.482 446.108 130.129 445.218 130.129" fill="#FFBFAA"/>
<path fill-rule="evenodd" clip-rule="evenodd" d="M449.142 125.809C448.464 125.809 447.809 125.431 447.488 124.78L446.013 121.786C445.565 120.874 445.941 119.769 446.851 119.32C447.765 118.87 448.87 119.246 449.32 120.158L450.795 123.152C451.243 124.065 450.867 125.169 449.957 125.618C449.693 125.748 449.416 125.809 449.142 125.809" fill="#FFBFAA"/>
<path fill-rule="evenodd" clip-rule="evenodd" d="M480.804 147.733L497.393 154.178L497.365 134.168C497.163 131.746 496.374 129.549 495.176 127.765C493.287 124.953 490.381 123.172 487.154 123.172C484.515 123.172 482.093 124.361 480.266 126.33C479.891 126.734 479.539 127.172 479.218 127.638C479.156 127.728 479.094 127.82 479.034 127.912C477.37 130.467 476.827 133.593 477.42 136.583L480.804 147.733" fill="#001E57"/>
<path fill-rule="evenodd" clip-rule="evenodd" d="M483.725 135.095C483.236 137.7 480.726 139.415 478.121 138.925C475.515 138.436 473.799 135.926 474.291 133.321C474.78 130.715 481.169 125.623 481.169 125.623C483.526 126.836 484.215 132.489 483.725 135.095" fill="#001E57"/>
<path fill-rule="evenodd" clip-rule="evenodd" d="M481.105 148.218C480.833 148.218 480.58 148.046 480.489 147.775L477.725 139.465C475.803 139.046 474.235 137.612 473.663 135.719C473.052 133.709 473.684 131.609 475.539 129.48C475.699 129.296 475.865 129.116 476.033 128.938C476.282 128.679 476.69 128.67 476.949 128.916C477.208 129.163 477.218 129.572 476.97 129.831C476.815 129.995 476.662 130.161 476.514 130.33C474.949 132.126 474.421 133.766 474.9 135.344C475.368 136.887 476.701 138.03 478.297 138.254C478.541 138.289 478.755 138.459 478.833 138.692L481.718 147.367C481.829 147.706 481.648 148.072 481.309 148.185C481.239 148.207 481.172 148.218 481.105 148.218" fill="white"/>
<path fill-rule="evenodd" clip-rule="evenodd" d="M480.108 169.485C479.058 169.485 477.992 169.28 476.962 168.846L453.081 158.758C448.961 157.019 447.034 152.27 448.773 148.152C450.514 144.034 455.262 142.106 459.379 143.845L483.26 153.933C487.38 155.672 489.307 160.421 487.568 164.539C486.262 167.628 483.263 169.485 480.108 169.485" fill="#001E57"/>
<path fill-rule="evenodd" clip-rule="evenodd" d="M500.101 160.254C500.08 160.669 500.031 161.082 499.956 161.49C499.283 165.098 496.465 168.275 492.892 169.217C492.191 169.402 491.505 169.488 490.83 169.494C486.829 169.524 483.279 166.706 479.85 164.853C476.295 162.933 472.742 161.013 469.189 159.093C467.138 157.984 465.101 156.672 462.966 155.731C459.09 154.022 457.331 149.495 459.041 145.618C460.749 141.742 465.277 139.985 469.153 141.692C475.211 143.854 481.271 146.014 487.331 148.174C490.033 149.138 493.073 149.827 495.503 151.448C495.87 151.693 496.227 151.959 496.564 152.253C498.833 154.226 500.241 157.229 500.101 160.254" fill="#72ACFF"/>
<path fill-rule="evenodd" clip-rule="evenodd" d="M470.903 153.574L446.68 179.088L437.215 172.792C437.246 172.757 437.277 172.722 437.311 172.687L459.215 143.637C461.957 140.41 466.799 140.018 470.028 142.761C473.255 145.506 473.646 150.346 470.903 153.574" fill="#72ACFF"/>
<path fill-rule="evenodd" clip-rule="evenodd" d="M487.882 159.781C487.613 159.781 487.362 159.611 487.271 159.341C487.155 159.003 487.336 158.636 487.675 158.521C487.957 158.425 488.177 157.942 488.247 157.259C488.334 156.382 488.174 155.249 487.801 154.151C486.997 151.781 485.63 150.56 485.043 150.759C484.704 150.874 484.337 150.693 484.223 150.354C484.106 150.016 484.287 149.649 484.626 149.534C486.148 149.018 488.037 150.824 489.025 153.735C489.463 155.022 489.641 156.32 489.533 157.391C489.406 158.637 488.893 159.474 488.091 159.746C488.021 159.77 487.952 159.781 487.882 159.781" fill="#240448"/>
<path fill-rule="evenodd" clip-rule="evenodd" d="M472.663 179.036L460.662 182.15L448.045 152.886C446.552 148.922 448.557 144.497 452.521 143.005C456.486 141.511 460.91 143.515 462.403 147.481L472.663 179.036" fill="#72ACFF"/>
<path fill-rule="evenodd" clip-rule="evenodd" d="M479.804 155.584C479.648 155.584 479.491 155.564 479.333 155.523L476.106 154.675C475.12 154.416 474.533 153.409 474.792 152.425C475.05 151.44 476.059 150.853 477.043 151.111L480.269 151.959C481.253 152.218 481.843 153.226 481.584 154.21C481.367 155.037 480.619 155.584 479.804 155.584" fill="#FFBFAA"/>
<path fill-rule="evenodd" clip-rule="evenodd" d="M505.865 151.495C504.501 151.495 503.145 150.927 502.18 149.817L489.353 135.086C487.581 133.05 487.796 129.964 489.83 128.193C491.863 126.421 494.95 126.634 496.723 128.669L509.55 143.401C511.32 145.436 511.107 148.522 509.071 150.294C508.147 151.1 507.003 151.495 505.865 151.495" fill="#FFBFAA"/>
<path fill-rule="evenodd" clip-rule="evenodd" d="M504.637 134.197L494.514 141.635L489.51 136.632C487.07 134.192 487.07 130.237 489.51 127.797C491.95 125.357 495.906 125.357 498.344 127.797L504.637 134.197" fill="white"/>
<path fill-rule="evenodd" clip-rule="evenodd" d="M494.868 143.455C494.348 143.455 493.836 143.224 493.494 142.782C492.909 142.025 493.049 140.936 493.807 140.351L502.815 133.387C503.573 132.802 504.66 132.941 505.244 133.698C505.829 134.455 505.692 135.544 504.934 136.129L495.926 143.093C495.611 143.337 495.238 143.455 494.868 143.455" fill="white"/>
<path fill-rule="evenodd" clip-rule="evenodd" d="M478.555 160.619C479.644 161.358 481.137 161.447 482.516 160.716L507.544 151.62C510.178 150.409 511.332 147.291 510.121 144.657C508.91 142.022 505.792 140.868 503.155 142.079L479.585 153.176C477.486 154.288 476.441 156.877 477.251 158.959C477.528 159.673 477.988 160.234 478.555 160.619" fill="#FFBFAA"/>
<path fill-rule="evenodd" clip-rule="evenodd" d="M470.841 158.777V158.777C467.878 158.777 465.477 156.375 465.477 153.411V149.578H476.207V153.411C476.207 156.375 473.806 158.777 470.841 158.777" fill="white"/>
<path fill-rule="evenodd" clip-rule="evenodd" d="M471.193 157.109C470.215 157.109 469.397 156.338 469.353 155.349C469.309 154.333 470.096 153.472 471.113 153.426L481.259 152.97C482.278 152.925 483.137 153.71 483.181 154.727C483.228 155.744 482.441 156.604 481.424 156.65L471.278 157.107C471.25 157.108 471.222 157.109 471.193 157.109" fill="#FFBFAA"/>
<path fill-rule="evenodd" clip-rule="evenodd" d="M474.234 159.418C473.375 159.418 472.607 158.812 472.431 157.937C472.231 156.939 472.878 155.969 473.877 155.769L479.766 154.592C480.765 154.393 481.736 155.039 481.935 156.037C482.134 157.035 481.487 158.005 480.488 158.205L474.599 159.382C474.477 159.406 474.356 159.418 474.234 159.418" fill="#FFBFAA"/>
<path fill-rule="evenodd" clip-rule="evenodd" d="M475.467 161.978C474.655 161.978 473.91 161.437 473.69 160.616C473.423 159.633 474.005 158.622 474.989 158.357L479.887 157.034C480.87 156.769 481.882 157.351 482.146 158.333C482.412 159.315 481.83 160.326 480.847 160.591L475.949 161.914C475.788 161.957 475.625 161.978 475.467 161.978" fill="#FFBFAA"/>
<path fill-rule="evenodd" clip-rule="evenodd" d="M492.201 115.684L489.924 124.929L482.148 128.332L484.05 123.013L485.189 118.321L491.078 116.106L492.201 115.684" fill="#FFBFAA"/>
<path fill-rule="evenodd" clip-rule="evenodd" d="M482.151 128.978C482.014 128.978 481.88 128.936 481.766 128.852C481.577 128.713 481.479 128.482 481.51 128.249L481.911 125.108C481.957 124.754 482.283 124.501 482.635 124.549C482.99 124.594 483.241 124.918 483.194 125.272L482.941 127.261L490.328 123.896C490.652 123.747 491.037 123.892 491.185 124.217C491.332 124.542 491.19 124.925 490.864 125.073L482.418 128.92C482.332 128.959 482.242 128.978 482.151 128.978" fill="white"/>
<path fill-rule="evenodd" clip-rule="evenodd" d="M496.562 145.361C496.285 145.361 496.029 145.183 495.943 144.905C495.837 144.564 496.029 144.201 496.37 144.096L498.792 143.347C499.134 143.242 499.496 143.433 499.602 143.774C499.708 144.115 499.517 144.478 499.175 144.583L496.753 145.332C496.689 145.352 496.624 145.361 496.562 145.361" fill="#240448"/>
<path fill-rule="evenodd" clip-rule="evenodd" d="M443.762 184.305L439.081 191.037L437.758 192.936L420.957 181.25L422.277 179.35L422.36 179.232C423.11 178.155 424.393 177.577 425.698 177.732L427.954 178L431.121 178.376L434.156 176.215C434.806 175.753 435.68 175.776 436.307 176.27L438.692 178.163L436.154 181.166L443.084 182.6C443.855 182.76 444.212 183.657 443.762 184.305" fill="#001E57"/>
<path fill-rule="evenodd" clip-rule="evenodd" d="M482.98 120.998V120.998C480.71 120.472 479.298 118.206 479.825 115.937L480.615 112.529C481.308 109.539 484.294 107.677 487.285 108.37C490.274 109.063 492.137 112.049 491.444 115.04L491.26 115.835C490.398 119.547 486.693 121.859 482.98 120.998" fill="#FFBFAA"/>
<path fill-rule="evenodd" clip-rule="evenodd" d="M479.514 109.754C480.156 108.359 481.067 107.128 482.413 106.387C483.921 105.555 485.756 105.453 487.427 105.749C487.58 105.777 487.733 105.808 487.885 105.842C487.976 105.863 488.064 105.884 488.152 105.907C492.189 106.948 495.066 111.3 493.883 115.427C493.645 116.256 492.305 119.198 491.586 119.703C491.019 120.1 489.759 116.546 489.068 116.592C488.377 116.638 487.655 116.424 487.161 115.939C486.483 115.273 486.338 114.25 486.237 113.305C484.91 113.247 483.574 113.104 482.309 112.696C481.522 112.443 480.764 112.084 480.091 111.601C479.797 111.389 479.129 110.751 479.129 110.751C479.129 110.751 479.439 109.922 479.514 109.754" fill="#006BFF"/>
<path fill-rule="evenodd" clip-rule="evenodd" d="M486.494 123.172V123.172C486.269 123.172 486.08 123.003 486.054 122.778L484.582 112.379H487.524L486.939 122.737C486.934 122.979 486.738 123.172 486.494 123.172" fill="#006BFF"/>
<path fill-rule="evenodd" clip-rule="evenodd" d="M491.944 115.929C491.944 117.378 490.77 118.552 489.32 118.552C487.871 118.552 486.699 117.378 486.699 115.929C486.699 114.481 487.871 113.307 489.32 113.307C490.77 113.307 491.944 114.481 491.944 115.929" fill="#FFBFAA"/>
<path fill-rule="evenodd" clip-rule="evenodd" d="M490.932 118.552C490.932 119.28 490.34 119.87 489.613 119.87C488.883 119.87 488.293 119.28 488.293 118.552C488.293 117.823 488.883 117.233 489.613 117.233C490.34 117.233 490.932 117.823 490.932 118.552" fill="white"/>
<path fill-rule="evenodd" clip-rule="evenodd" d="M480.627 112.826C480.022 114.278 479.39 115.635 478.588 116.417C478.373 116.628 478.322 116.971 478.513 117.206C478.635 117.352 478.824 117.443 479.041 117.417L481.445 117.123L480.627 112.826" fill="#FFBFAA"/>
<path fill-rule="evenodd" clip-rule="evenodd" d="M460.659 184.379C459.787 184.379 458.993 183.793 458.762 182.91C458.491 181.862 459.12 180.792 460.168 180.52L471.558 177.563C472.606 177.291 473.677 177.921 473.949 178.968C474.221 180.016 473.592 181.086 472.544 181.358L461.153 184.315C460.988 184.358 460.822 184.379 460.659 184.379" fill="#72ACFF"/>
<path fill-rule="evenodd" clip-rule="evenodd" d="M447.393 159.326C447.253 159.326 447.113 159.281 446.994 159.188C446.712 158.967 446.663 158.56 446.886 158.279L458.706 143.237C460.641 140.963 463.643 139.892 466.559 140.423C466.911 140.488 467.144 140.825 467.079 141.176C467.015 141.527 466.678 141.761 466.326 141.696C463.863 141.247 461.327 142.152 459.707 144.056L447.903 159.079C447.776 159.241 447.584 159.326 447.393 159.326" fill="white"/>
<path fill-rule="evenodd" clip-rule="evenodd" d="M452.987 173.898C452.829 173.898 452.671 173.841 452.547 173.726C452.285 173.484 452.27 173.074 452.51 172.812L467.55 156.548C467.793 156.285 468.202 156.269 468.463 156.512C468.727 156.754 468.743 157.164 468.499 157.426L453.46 173.69C453.333 173.828 453.16 173.898 452.987 173.898" fill="white"/>
<path fill-rule="evenodd" clip-rule="evenodd" d="M456.463 199.635C456.207 199.635 455.963 199.479 455.863 199.226C455.731 198.895 455.891 198.518 456.225 198.386L466.117 194.43C466.448 194.296 466.824 194.458 466.958 194.79C467.09 195.122 466.93 195.499 466.596 195.631L456.704 199.588C456.626 199.619 456.543 199.635 456.463 199.635" fill="white"/>
<path fill-rule="evenodd" clip-rule="evenodd" d="M446.757 130.986C446.092 130.986 445.429 130.871 444.919 130.729C444.575 130.633 444.373 130.276 444.469 129.932C444.565 129.588 444.922 129.387 445.266 129.483C445.807 129.632 447.887 130.007 448.203 129.113C448.322 128.776 448.689 128.599 449.028 128.718C449.365 128.837 449.541 129.206 449.422 129.543C449.031 130.651 447.89 130.986 446.757 130.986" fill="#240448"/>
<path fill-rule="evenodd" clip-rule="evenodd" d="M432.041 186.79C431.914 186.79 431.785 186.753 431.674 186.674L421.906 179.882C421.613 179.678 421.541 179.274 421.745 178.981C421.95 178.688 422.351 178.615 422.646 178.819L432.411 185.612C432.706 185.816 432.779 186.219 432.574 186.513C432.447 186.693 432.248 186.79 432.041 186.79" fill="white"/>
<path fill-rule="evenodd" clip-rule="evenodd" d="M487.544 159.836C486.887 159.836 486.181 159.465 485.511 158.754C484.773 157.971 484.126 156.831 483.692 155.545C483.254 154.258 483.073 152.96 483.184 151.89C483.311 150.643 483.823 149.806 484.626 149.534C484.965 149.419 485.332 149.6 485.446 149.938C485.56 150.277 485.379 150.644 485.042 150.759C484.758 150.855 484.54 151.338 484.47 152.021C484.38 152.898 484.543 154.031 484.915 155.129C485.288 156.227 485.85 157.225 486.452 157.867C486.923 158.367 487.394 158.616 487.674 158.521C488.013 158.406 488.38 158.588 488.494 158.926C488.611 159.264 488.429 159.631 488.09 159.746C487.912 159.806 487.731 159.836 487.544 159.836" fill="#240448"/>
<path fill-rule="evenodd" clip-rule="evenodd" d="M485.107 157.622V157.622C484.01 157.872 482.92 157.184 482.669 156.087L482.548 155.547C482.297 154.45 482.985 153.358 484.082 153.109C485.179 152.859 486.271 153.546 486.52 154.644L486.644 155.184C486.892 156.281 486.204 157.373 485.107 157.622" fill="white"/>
<path fill-rule="evenodd" clip-rule="evenodd" d="M484.532 153.568C484.421 153.568 484.307 153.58 484.196 153.606C483.373 153.793 482.858 154.613 483.044 155.434L483.166 155.974C483.352 156.795 484.173 157.31 484.996 157.124C485.816 156.938 486.333 156.118 486.144 155.297L486.023 154.757C485.862 154.049 485.231 153.568 484.532 153.568ZM484.651 158.184C484.178 158.184 483.709 158.05 483.298 157.791C482.724 157.429 482.323 156.864 482.172 156.2L482.048 155.66C481.898 154.997 482.015 154.314 482.377 153.738C482.739 153.162 483.306 152.762 483.968 152.611C485.34 152.299 486.706 153.161 487.019 154.53L487.141 155.07C487.451 156.44 486.589 157.808 485.221 158.119C485.032 158.162 484.84 158.184 484.651 158.184V158.184Z" fill="#240448"/>
<path fill-rule="evenodd" clip-rule="evenodd" d="M446.166 180.706C445.793 180.706 445.415 180.599 445.082 180.377L436.54 174.696C435.637 174.097 435.394 172.88 435.991 171.978C436.592 171.077 437.808 170.832 438.711 171.432L447.253 177.113C448.153 177.712 448.399 178.929 447.799 179.831C447.421 180.398 446.8 180.706 446.166 180.706" fill="#72ACFF"/>
<path fill-rule="evenodd" clip-rule="evenodd" d="M492.971 141.252C492.782 141.252 492.591 141.168 492.464 141.007C492.241 140.727 492.291 140.32 492.57 140.098L498.529 135.376C498.809 135.154 499.215 135.202 499.437 135.482C499.66 135.762 499.611 136.169 499.331 136.391L493.372 141.112C493.253 141.207 493.113 141.252 492.971 141.252" fill="#240448"/>
<path fill-rule="evenodd" clip-rule="evenodd" d="M421.863 124.47H453.981L459.5 101.809H427.383L421.863 124.47ZM454.389 125.514H421.198C421.038 125.514 420.888 125.44 420.787 125.315C420.688 125.189 420.652 125.024 420.691 124.869L426.467 101.164C426.524 100.93 426.733 100.766 426.974 100.766H460.165C460.325 100.766 460.475 100.839 460.576 100.965C460.675 101.091 460.711 101.256 460.672 101.411L454.897 125.116C454.84 125.35 454.63 125.514 454.389 125.514V125.514Z" fill="#001E57"/>
<path fill-rule="evenodd" clip-rule="evenodd" d="M24.7771 90.7928L21.5436 91.8076L20.3647 86.2541L19.4492 85.3125L24.7771 90.7928" fill="white"/>
<path fill-rule="evenodd" clip-rule="evenodd" d="M19.4479 85.3124L14.6898 80.4182L0.605469 100.516L30.3541 96.5307L19.4479 85.3124" fill="#CFE4FF"/>
<path fill-rule="evenodd" clip-rule="evenodd" d="M24.9506 81.3916L5.11719 98.1644L24.7604 90.8024L24.9506 81.3916" fill="#72ACFF"/>
<path fill-rule="evenodd" clip-rule="evenodd" d="M83.1819 63.3779C82.8818 63.3779 82.5972 63.2038 82.4704 62.9119C82.297 62.5191 82.4781 62.0616 82.8688 61.89L85.2908 60.833C85.6842 60.6617 86.1422 60.841 86.3129 61.2338C86.4863 61.6269 86.3052 62.0844 85.9119 62.2559L83.4925 63.3129C83.389 63.3569 83.2855 63.3779 83.1819 63.3779ZM75.916 66.5487C75.6184 66.5487 75.3312 66.3746 75.2044 66.0827C75.0336 65.6899 75.2121 65.2322 75.6055 65.0609L78.0274 64.0038C78.4208 63.8328 78.8788 64.0116 79.0496 64.4047C79.2203 64.7977 79.0418 65.2555 78.6485 65.4268L76.2265 66.4838C76.1256 66.5278 76.0195 66.5487 75.916 66.5487ZM68.6526 69.7198C68.3524 69.7198 68.0678 69.5457 67.941 69.2538C67.7676 68.8608 67.9487 68.4033 68.3421 68.2317L70.7615 67.1749C71.1548 67.0034 71.6128 67.1827 71.7836 67.5758C71.9569 67.9686 71.7758 68.4263 71.3825 68.5979L68.9631 69.6546C68.8622 69.6986 68.7561 69.7198 68.6526 69.7198ZM61.3871 72.8907C61.088 72.8907 60.8028 72.7165 60.6755 72.4247C60.504 72.0319 60.6833 71.5741 61.0763 71.4026L63.4981 70.3455C63.8914 70.1745 64.3494 70.3536 64.5202 70.7466C64.691 71.1394 64.5124 71.5969 64.1191 71.7685L61.6974 72.8255C61.5964 72.8697 61.4909 72.8907 61.3871 72.8907ZM54.1224 76.0615C53.8233 76.0615 53.5379 75.8874 53.4106 75.5958C53.2393 75.2027 53.4186 74.7452 53.8116 74.5737L56.2331 73.5166C56.6259 73.3453 57.0837 73.5247 57.2552 73.9175C57.4265 74.3105 57.2472 74.768 56.8541 74.9396L54.4327 75.9966C54.3315 76.0406 54.2262 76.0615 54.1224 76.0615ZM46.858 79.2326C46.5586 79.2326 46.2734 79.0585 46.1461 78.7666C45.9746 78.3736 46.1539 77.9161 46.547 77.7445L48.9684 76.6875C49.3612 76.5162 49.819 76.6955 49.9905 77.0886C50.1621 77.4814 49.9825 77.9388 49.5897 78.1104L47.168 79.1674C47.0671 79.2117 46.9615 79.2326 46.858 79.2326ZM39.5933 82.4035C39.2939 82.4035 39.0088 82.2293 38.8814 81.9375C38.7099 81.5444 38.8895 81.0869 39.2823 80.9154L41.704 79.8586C42.0965 79.687 42.5545 79.8664 42.7258 80.2594C42.8974 80.6525 42.7181 81.11 42.325 81.2815L39.9035 82.3383C39.8024 82.3825 39.6971 82.4035 39.5933 82.4035V82.4035Z" fill="#006BFF"/>
<path fill-rule="evenodd" clip-rule="evenodd" d="M523.42 279.126C526.269 282.011 529.778 283.165 531.263 281.701C532.746 280.239 531.639 276.712 528.792 273.824C526.82 271.829 523.824 271.36 522.163 271.262C521.48 271.223 520.915 271.78 520.947 272.463C521.022 274.124 521.449 277.128 523.42 279.126" fill="#001E57"/>
<path fill-rule="evenodd" clip-rule="evenodd" d="M541.247 288.371C540.911 288.371 540.626 288.11 540.603 287.768C540.582 287.466 538.605 257.139 546.27 235.325C546.389 234.989 546.759 234.81 547.095 234.929C547.432 235.049 547.61 235.419 547.491 235.755C539.917 257.315 541.874 287.378 541.894 287.68C541.918 288.037 541.649 288.345 541.291 288.369C541.276 288.371 541.263 288.371 541.247 288.371" fill="#240448"/>
<path fill-rule="evenodd" clip-rule="evenodd" d="M532.048 288.371C532.045 288.371 532.043 288.371 532.04 288.371C531.683 288.366 531.398 288.074 531.401 287.717C531.572 273.775 527.677 265.401 524.735 260.314C524.557 260.003 524.663 259.61 524.971 259.429C525.281 259.25 525.677 259.356 525.856 259.667C528.875 264.884 532.868 273.472 532.695 287.732C532.692 288.087 532.402 288.371 532.048 288.371" fill="#240448"/>
<path fill-rule="evenodd" clip-rule="evenodd" d="M546.801 244.317C546.242 246.706 544.796 248.411 543.569 248.124C542.34 247.837 541.799 245.668 542.355 243.28C542.741 241.626 544.141 240.439 544.966 239.864C545.305 239.629 545.774 239.737 545.973 240.1C546.457 240.982 547.187 242.667 546.801 244.317" fill="#72ACFF"/>
<path fill-rule="evenodd" clip-rule="evenodd" d="M555.502 237.491C556.1 236.381 555.585 235.237 554.359 234.95C553.13 234.666 551.637 235.338 551.039 236.448L546.969 244.009C546.438 244.998 545.31 245.505 544.218 245.251C543.126 244.995 542.339 244.04 542.3 242.92L541.998 234.337C541.954 233.077 540.914 231.811 539.684 231.527C538.463 231.568 537.508 232.593 537.552 233.814C537.552 233.814 537.933 245.148 537.958 245.373L537.971 245.479C538.22 247.329 539.581 248.921 541.506 249.371L544.816 250.142C546.741 250.592 548.669 249.767 549.709 248.217L549.724 248.225L555.502 237.491" fill="#72ACFF"/>
<path fill-rule="evenodd" clip-rule="evenodd" d="M521.791 252.818V252.818L524.42 247.692C525.038 246.491 524.288 245.037 522.95 244.843C521.612 244.649 520.481 245.826 520.73 247.156L521.791 252.818" fill="#CFE4FF"/>
<path fill-rule="evenodd" clip-rule="evenodd" d="M519.531 254.502V254.502L513.87 255.563C512.539 255.811 511.362 254.681 511.556 253.343C511.75 252.005 513.205 251.255 514.405 251.873L519.531 254.502" fill="#CFE4FF"/>
<path fill-rule="evenodd" clip-rule="evenodd" d="M521.147 256.668V256.668L518.515 261.791C517.9 262.995 518.647 264.449 519.985 264.643C521.323 264.837 522.454 263.66 522.205 262.33L521.147 256.668" fill="#CFE4FF"/>
<path fill-rule="evenodd" clip-rule="evenodd" d="M523.406 254.981V254.981L529.071 253.923C530.398 253.674 531.578 254.805 531.381 256.143C531.187 257.481 529.736 258.231 528.532 257.613L523.406 254.981" fill="#CFE4FF"/>
<path fill-rule="evenodd" clip-rule="evenodd" d="M520.334 253.154V253.154L518.569 247.668C518.155 246.382 516.6 245.883 515.516 246.693C514.431 247.5 514.465 249.136 515.58 249.899L520.334 253.154" fill="#CFE4FF"/>
<path fill-rule="evenodd" clip-rule="evenodd" d="M519.931 255.944V255.944L516.676 260.697C515.912 261.812 514.277 261.846 513.47 260.762C512.662 259.678 513.159 258.12 514.448 257.708L519.931 255.944" fill="#CFE4FF"/>
<path fill-rule="evenodd" clip-rule="evenodd" d="M522.602 256.332V256.332L524.366 261.817C524.78 263.103 526.338 263.6 527.42 262.793C528.504 261.985 528.47 260.35 527.355 259.587L522.602 256.332" fill="#CFE4FF"/>
<path fill-rule="evenodd" clip-rule="evenodd" d="M523.008 253.542V253.542L526.263 248.789C527.026 247.673 528.662 247.64 529.469 248.724C530.276 249.808 529.78 251.363 528.494 251.777L523.008 253.542" fill="#CFE4FF"/>
<path fill-rule="evenodd" clip-rule="evenodd" d="M440.569 35.4663C439.705 35.4663 438.921 35.782 438.24 36.4063C437.951 36.6711 437.583 37.0998 437.472 37.6396C437.342 38.2666 437.635 38.9815 438.163 39.3404C438.693 39.6993 439.464 39.7042 440 39.3523C440.551 38.9895 440.924 38.2821 441.144 37.1899C441.257 36.6278 441.32 36.0762 441.33 35.5426C441.151 35.5079 440.973 35.4844 440.794 35.4733C440.719 35.4686 440.644 35.4663 440.569 35.4663ZM447.936 42.777C447.605 42.777 447.323 42.5237 447.292 42.1873C447.181 40.9253 446.49 39.4408 445.447 38.2166C444.743 37.392 443.729 36.5127 442.606 35.9763C442.577 36.4576 442.512 36.9487 442.414 37.4447C442.122 38.893 441.565 39.8704 440.712 40.4329C439.744 41.0705 438.398 41.0614 437.438 40.4114C436.478 39.7617 435.971 38.515 436.204 37.3798C436.346 36.6835 436.747 36.0167 437.366 35.4515C438.377 34.5275 439.56 34.0995 440.875 34.182C440.996 34.1895 441.12 34.2017 441.245 34.2185C441.182 33.8043 441.082 33.4071 440.95 33.0321C439.578 29.1944 434.695 28.7972 431.668 29.7402C431.567 29.7723 431.463 29.8062 431.362 29.8421C430.501 30.1482 429.735 30.5641 429.088 31.0782C428.809 31.3005 428.402 31.2544 428.18 30.975C427.957 30.6953 428.004 30.2882 428.283 30.0657C429.041 29.4623 429.932 28.9768 430.93 28.6231C431.047 28.5814 431.163 28.5421 431.282 28.5051C435.451 27.2064 440.662 28.3822 442.168 32.5969C442.386 33.2117 442.528 33.8726 442.59 34.5645C443.946 35.0732 445.304 36.0555 446.43 37.377C447.662 38.8193 448.446 40.5307 448.583 42.0729C448.614 42.429 448.35 42.7431 447.996 42.7747C447.975 42.7765 447.957 42.777 447.936 42.777V42.777Z" fill="#240448"/>
</svg>
