<svg width="553" height="326" viewBox="0 0 553 326" fill="none" xmlns="http://www.w3.org/2000/svg">
<path fill-rule="evenodd" clip-rule="evenodd" d="M472.749 101.251L464.469 99.3393L468.691 85.8759L454.742 101.602L463.142 103.54L463.15 103.546L458.685 117.784L468.035 106.518L472.749 101.251" fill="#006BFF"/>
<path fill-rule="evenodd" clip-rule="evenodd" d="M449.699 324.761H505.485V226.29H449.699V324.761Z" fill="#006BFF"/>
<path fill-rule="evenodd" clip-rule="evenodd" d="M349.035 324.761H404.821V201.676H349.035V324.761Z" fill="#006BFF"/>
<path fill-rule="evenodd" clip-rule="evenodd" d="M248.367 324.761H304.153V160.34H248.367V324.761Z" fill="#006BFF"/>
<path fill-rule="evenodd" clip-rule="evenodd" d="M147.699 324.761H203.485V118.464H147.699V324.761Z" fill="#006BFF"/>
<path fill-rule="evenodd" clip-rule="evenodd" d="M47.0352 324.761H102.82V55.7852H47.0352V324.761Z" fill="#006BFF"/>
<path fill-rule="evenodd" clip-rule="evenodd" d="M441.307 130.536L439.176 195.784L508.658 168.974L441.307 130.536" fill="#CFE4FF"/>
<path fill-rule="evenodd" clip-rule="evenodd" d="M114.33 23.3996L119.146 18.5189C119.147 18.5195 119.148 18.5203 119.148 18.5214L114.33 23.3996ZM445.371 170.997C397.247 166.569 349.664 156.328 303.946 140.559C267.373 127.944 231.903 111.784 198.521 92.526C141.566 59.6697 110.794 29.5441 109.512 28.2778L119.148 18.5214C119.582 18.9477 150.352 48.969 205.804 80.8956C256.997 110.371 340.336 147.56 446.629 157.341L445.371 170.997V170.997Z" fill="#CFE4FF"/>
<path fill-rule="evenodd" clip-rule="evenodd" d="M516.277 207.392C525.269 219.45 522.78 236.514 510.723 245.505C498.663 254.494 481.599 252.008 472.61 239.948C463.619 227.891 466.105 210.826 478.165 201.836C490.222 192.845 507.286 195.332 516.277 207.392" fill="#72ACFF"/>
<path fill-rule="evenodd" clip-rule="evenodd" d="M463.744 213.381C463.625 213.381 463.506 213.351 463.395 213.287C463.066 213.094 462.956 212.67 463.149 212.341C465.085 209.035 467.634 206.19 470.725 203.884C483.374 194.452 501.34 197.071 510.77 209.72C511 210.027 510.936 210.461 510.632 210.688C510.325 210.918 509.891 210.854 509.664 210.547C500.687 198.508 483.59 196.016 471.552 204.993C468.607 207.185 466.182 209.895 464.341 213.041C464.214 213.259 463.982 213.381 463.744 213.381ZM487.8 255.445C478.895 255.445 470.377 251.295 464.888 243.932C460.736 238.364 458.759 231.479 459.315 224.545C459.348 224.167 459.68 223.885 460.061 223.912C460.44 223.943 460.725 224.277 460.694 224.659C460.163 231.255 462.046 237.808 465.994 243.105C471.22 250.111 479.329 254.062 487.803 254.062C490.023 254.062 492.265 253.791 494.491 253.233C497.975 252.359 501.21 250.822 504.107 248.66C509.941 244.311 513.729 237.952 514.779 230.755C515.161 228.14 515.166 225.502 514.796 222.92C514.741 222.541 515.003 222.192 515.382 222.137C515.758 222.085 516.109 222.345 516.164 222.723C516.554 225.438 516.549 228.206 516.148 230.954C515.045 238.519 511.063 245.198 504.934 249.769C501.89 252.038 498.489 253.656 494.828 254.574C492.489 255.16 490.131 255.445 487.8 255.445V255.445Z" fill="#240448"/>
<path fill-rule="evenodd" clip-rule="evenodd" d="M488.339 242.923C487.645 242.923 486.965 242.815 486.348 242.563C485.065 242.044 484.236 241.001 483.948 239.55C483.874 239.177 484.12 238.812 484.493 238.737C484.866 238.662 485.231 238.908 485.306 239.282C485.499 240.269 486.025 240.943 486.868 241.283C488.449 241.925 490.703 241.303 492.019 240.39C494.897 238.397 495.809 234.181 494.051 230.99C493.069 229.207 491.236 227.844 489.149 227.343C488.292 227.139 487.377 227.056 486.403 226.967C484.039 226.751 481.593 226.528 479.834 224.484C478.018 222.372 477.559 219.118 478.64 215.988C479.718 212.861 482.087 210.586 484.822 210.044C486.168 209.778 487.512 210.047 488.629 210.796C489.746 211.545 490.506 212.684 490.766 214.006C490.841 214.379 490.595 214.744 490.222 214.816C489.848 214.891 489.483 214.647 489.409 214.274C489.221 213.315 488.67 212.488 487.858 211.946C487.048 211.401 486.074 211.208 485.118 211.396C482.837 211.846 480.865 213.776 479.945 216.442C479.024 219.104 479.384 221.841 480.882 223.583C482.276 225.2 484.344 225.391 486.531 225.59C487.507 225.679 488.518 225.77 489.472 225.999C491.93 226.588 494.095 228.203 495.262 230.321C497.352 234.114 496.249 239.141 492.804 241.527C491.648 242.328 489.953 242.923 488.339 242.923" fill="#240448"/>
<path fill-rule="evenodd" clip-rule="evenodd" d="M491.218 246.976C490.9 246.976 490.613 246.752 490.544 246.426L482.288 206.975C482.211 206.602 482.448 206.234 482.824 206.157C483.195 206.079 483.563 206.317 483.64 206.693L491.896 246.141C491.976 246.517 491.735 246.882 491.362 246.959C491.315 246.971 491.265 246.976 491.218 246.976" fill="#240448"/>
<path fill-rule="evenodd" clip-rule="evenodd" d="M326.736 49.1931C327.891 64.1899 316.669 77.2824 301.67 78.4358C286.674 79.5893 273.582 68.367 272.429 53.3702C271.274 38.3733 282.496 25.2809 297.495 24.1274C312.491 22.9739 325.583 34.1963 326.736 49.1931" fill="#72ACFF"/>
<path fill-rule="evenodd" clip-rule="evenodd" d="M318.863 59.7853C318.791 59.7853 318.719 59.7742 318.647 59.751C318.285 59.6324 318.086 59.242 318.205 58.8792C319.316 55.4857 319.736 51.9343 319.46 48.3241C318.307 33.3513 305.191 22.1074 290.217 23.2581C286.556 23.5396 283.059 24.5318 279.821 26.207C279.484 26.3826 279.066 26.2499 278.889 25.9109C278.715 25.572 278.848 25.1548 279.185 24.9795C282.589 23.2183 286.266 22.1754 290.109 21.8799C305.84 20.6694 319.626 32.4851 320.837 48.2179C321.13 52.0104 320.685 55.7417 319.518 59.3089C319.424 59.6003 319.153 59.7853 318.863 59.7853ZM292.271 79.031C289.246 79.031 286.268 78.5536 283.388 77.6049C272.362 73.9731 264.662 64.1608 263.771 52.607C263.24 45.6828 265.245 38.8073 269.423 33.2462C269.652 32.941 270.086 32.8793 270.39 33.1088C270.697 33.338 270.758 33.7713 270.528 34.0765C266.553 39.3686 264.642 45.912 265.151 52.5008C265.997 63.4967 273.324 72.8351 283.822 76.2919C287.231 77.415 290.786 77.8444 294.394 77.5668C301.646 77.0091 308.249 73.6601 312.982 68.1369C313.231 67.8471 313.668 67.8137 313.958 68.062C314.245 68.3102 314.281 68.7465 314.033 69.0366C309.056 74.8402 302.119 78.3589 294.499 78.945C293.756 79.0023 293.012 79.031 292.271 79.031V79.031Z" fill="#240448"/>
<path fill-rule="evenodd" clip-rule="evenodd" d="M288.377 65.5029C286.403 65.5031 283.873 64.6438 282.64 62.923C281.833 61.7978 281.689 60.4734 282.222 59.0927C282.361 58.7366 282.761 58.5596 283.118 58.6973C283.472 58.835 283.652 59.2351 283.514 59.5912C283.149 60.5295 283.234 61.3794 283.762 62.1179C284.758 63.5053 286.994 64.1841 288.595 64.116C292.093 63.9698 295.117 60.8928 295.339 57.2574C295.46 55.2247 294.639 53.0936 293.143 51.5564C292.53 50.9246 291.797 50.3637 291.025 49.7701C289.14 48.323 287.193 46.8269 286.798 44.1606C286.392 41.4038 287.744 38.4076 290.329 36.3414C292.911 34.2758 296.132 33.6175 298.731 34.6225C298.734 34.6231 298.734 34.6236 298.737 34.6242C301.346 35.6347 302.64 38.5563 301.64 41.1461C301.501 41.5022 301.1 41.6794 300.744 41.5417C300.387 41.404 300.21 41.0037 300.348 40.6476C301.076 38.7684 300.138 36.6483 298.258 35.9214C298.253 35.919 298.244 35.9156 298.233 35.9118C296.091 35.0837 293.392 35.6618 291.191 37.4213C288.991 39.1814 287.829 41.6863 288.167 43.9584C288.479 46.0713 290.124 47.3354 291.866 48.6735C292.646 49.271 293.45 49.8889 294.133 50.592C295.897 52.4032 296.862 54.9259 296.718 57.3406C296.456 61.6631 292.839 65.3223 288.651 65.4973C288.562 65.5009 288.471 65.5029 288.377 65.5029" fill="#240448"/>
<path fill-rule="evenodd" clip-rule="evenodd" d="M284.77 69.3629C284.69 69.3629 284.607 69.3488 284.527 69.3192C284.17 69.1854 283.987 68.7872 284.123 68.4297L298.229 30.6745C298.364 30.3167 298.763 30.135 299.119 30.2689C299.479 30.4024 299.658 30.8005 299.526 31.1583L285.417 68.9136C285.312 69.1914 285.049 69.3629 284.77 69.3629" fill="#240448"/>
<path fill-rule="evenodd" clip-rule="evenodd" d="M176.034 156.387C186.167 167.503 185.369 184.728 174.253 194.861C163.137 204.993 145.911 204.196 135.779 193.08C125.646 181.964 126.444 164.738 137.56 154.606C148.676 144.473 165.902 145.27 176.034 156.387" fill="#72ACFF"/>
<path fill-rule="evenodd" clip-rule="evenodd" d="M163.098 203.683C162.855 203.683 162.618 203.554 162.492 203.325C162.308 202.991 162.43 202.57 162.764 202.386C164.633 201.358 166.387 200.101 167.977 198.652C173.354 193.752 176.5 187.051 176.836 179.784C177.173 172.517 174.659 165.554 169.759 160.178C159.642 149.08 142.383 148.281 131.284 158.397C128.571 160.869 126.424 163.802 124.902 167.115C124.742 167.462 124.331 167.613 123.985 167.454C123.638 167.294 123.486 166.884 123.646 166.537C125.246 163.056 127.502 159.973 130.353 157.375C142.015 146.746 160.151 147.585 170.78 159.247C175.93 164.896 178.571 172.212 178.217 179.848C177.864 187.484 174.558 194.525 168.908 199.674C167.238 201.196 165.395 202.516 163.431 203.598C163.325 203.656 163.211 203.683 163.098 203.683ZM149.705 207.122C141.719 207.122 133.933 203.783 128.481 197.802C123.803 192.67 121.157 186.014 121.031 179.06C121.025 178.678 121.328 178.363 121.71 178.356C122.09 178.358 122.407 178.653 122.414 179.035C122.534 185.653 125.051 191.987 129.503 196.871C135.9 203.889 145.679 207.086 155.024 205.214C155.4 205.139 155.763 205.38 155.838 205.756C155.913 206.129 155.67 206.494 155.296 206.569C153.44 206.939 151.567 207.122 149.705 207.122V207.122Z" fill="#240448"/>
<path fill-rule="evenodd" clip-rule="evenodd" d="M151.112 194.525C150.629 194.525 150.155 194.465 149.705 194.332C148.377 193.941 147.449 192.985 147.021 191.568C146.911 191.203 147.117 190.817 147.483 190.707C147.848 190.596 148.234 190.803 148.344 191.169C148.635 192.131 149.224 192.749 150.096 193.006C151.734 193.488 153.914 192.647 155.134 191.611C157.803 189.344 158.296 185.057 156.233 182.056C155.08 180.378 153.122 179.202 150.997 178.91C150.123 178.79 149.203 178.797 148.228 178.804C145.852 178.82 143.396 178.84 141.445 176.98C139.428 175.057 138.652 171.862 139.42 168.643C140.188 165.425 142.322 162.926 144.99 162.12C144.995 162.118 145.014 162.112 145.015 162.112C147.674 161.309 150.49 162.819 151.293 165.477C151.404 165.842 151.197 166.228 150.832 166.338C150.466 166.448 150.08 166.242 149.97 165.876C149.387 163.948 147.343 162.853 145.415 163.435C145.407 163.438 145.398 163.44 145.39 163.443L145.39 163.443C143.191 164.107 141.419 166.223 140.765 168.964C140.111 171.706 140.737 174.394 142.399 175.979C143.945 177.453 146.022 177.437 148.218 177.422C149.199 177.415 150.213 177.407 151.185 177.54C153.689 177.884 156.002 179.28 157.372 181.273C159.825 184.842 159.222 189.952 156.029 192.665C154.82 193.692 152.908 194.525 151.112 194.525" fill="#240448"/>
<path fill-rule="evenodd" clip-rule="evenodd" d="M154.919 198.246C154.625 198.246 154.352 198.057 154.259 197.762L142.165 159.314C142.05 158.95 142.253 158.562 142.617 158.447C142.981 158.333 143.369 158.535 143.484 158.899L155.578 197.347C155.693 197.711 155.49 198.099 155.126 198.214C155.057 198.235 154.987 198.246 154.919 198.246" fill="#240448"/>
<path fill-rule="evenodd" clip-rule="evenodd" d="M344.708 128.4C344.244 128.4 343.771 128.35 343.298 128.247C339.756 127.473 337.511 123.973 338.286 120.43L339.195 116.268C339.969 112.726 343.47 110.48 347.014 111.255C350.556 112.029 352.801 115.529 352.027 119.073L351.117 123.233C350.445 126.304 347.727 128.4 344.708 128.4" fill="#FFBFAA"/>
<path fill-rule="evenodd" clip-rule="evenodd" d="M334.703 128.902C334.095 128.902 333.489 128.666 333.033 128.197C332.137 127.275 332.159 125.802 333.08 124.907L339.984 118.201C340.907 117.306 342.378 117.327 343.274 118.248C344.17 119.17 344.147 120.643 343.227 121.538L336.323 128.244C335.872 128.683 335.286 128.902 334.703 128.902" fill="#FFBFAA"/>
<path fill-rule="evenodd" clip-rule="evenodd" d="M335.428 134.715C334.847 134.715 334.27 134.5 333.819 134.068C332.89 133.178 332.859 131.706 333.75 130.778L341.505 122.693C342.395 121.766 343.866 121.735 344.795 122.624C345.721 123.514 345.752 124.986 344.864 125.914L337.106 133.999C336.65 134.476 336.039 134.715 335.428 134.715" fill="#FFBFAA"/>
<path fill-rule="evenodd" clip-rule="evenodd" d="M340.216 136.447C339.693 136.447 339.168 136.273 338.734 135.914C337.744 135.095 337.606 133.628 338.424 132.638L344.266 125.575C345.085 124.585 346.55 124.447 347.54 125.265C348.53 126.084 348.671 127.551 347.849 128.541L342.01 135.604C341.551 136.16 340.885 136.447 340.216 136.447" fill="#FFBFAA"/>
<path fill-rule="evenodd" clip-rule="evenodd" d="M326.539 182.649L329.572 185.396L333.689 183.219L335.782 185.114L334.344 189.718L347.037 201.219L348.934 199.163C349.918 198.098 350.441 196.718 350.441 195.311C350.441 194.686 350.338 194.055 350.126 193.445L349.285 191.038L347.867 186.969L350.543 180.66L345.942 176.915L337.886 170.363L335.453 172.996L330.493 178.368L328.438 180.591L326.539 182.649" fill="#001E57"/>
<path fill-rule="evenodd" clip-rule="evenodd" d="M352.579 159.119C352.535 159.119 352.49 159.113 352.446 159.103L314.27 149.821C313.974 149.749 313.791 149.45 313.863 149.153L320.659 121.198C320.731 120.901 321.032 120.72 321.328 120.791L331.724 123.319C332.02 123.391 332.202 123.69 332.13 123.987C332.058 124.284 331.757 124.465 331.461 124.393L321.605 121.997L315.069 148.877L352.172 157.898L358.706 131.017L354.243 129.932C353.947 129.86 353.765 129.561 353.837 129.264C353.911 128.967 354.21 128.786 354.506 128.858L359.505 130.073C359.8 130.145 359.983 130.444 359.911 130.741L353.115 158.696C353.079 158.839 352.991 158.962 352.866 159.038C352.778 159.091 352.678 159.119 352.579 159.119" fill="#240448"/>
<path fill-rule="evenodd" clip-rule="evenodd" d="M404.63 124.33L380.971 103.925L374.383 78.1778L387.106 74.9222L392.672 96.6732L413.206 114.385L404.63 124.33" fill="#006BFF"/>
<path fill-rule="evenodd" clip-rule="evenodd" d="M410.225 128.602L404.902 125.039L412.207 114.125L417.529 117.688L410.225 128.602" fill="#FFBFAA"/>
<path fill-rule="evenodd" clip-rule="evenodd" d="M418.611 133.589C418.18 133.589 417.746 133.47 417.359 133.221L409.379 128.108C408.298 127.415 407.983 125.976 408.677 124.894C409.371 123.812 410.809 123.498 411.89 124.19L419.869 129.303C420.95 129.997 421.265 131.436 420.571 132.518C420.126 133.21 419.377 133.589 418.611 133.589" fill="#FFBFAA"/>
<path fill-rule="evenodd" clip-rule="evenodd" d="M424.151 131.688C423.731 131.688 423.305 131.574 422.921 131.335L413.418 125.399C412.329 124.718 411.997 123.283 412.677 122.193C413.358 121.104 414.795 120.772 415.885 121.453L425.387 127.389C426.477 128.069 426.808 129.504 426.128 130.594C425.686 131.3 424.928 131.688 424.151 131.688" fill="#FFBFAA"/>
<path fill-rule="evenodd" clip-rule="evenodd" d="M424.865 126.648C424.5 126.648 424.13 126.562 423.781 126.38L415.672 122.109C414.536 121.511 414.099 120.104 414.699 118.967C415.299 117.83 416.703 117.394 417.842 117.992L425.952 122.263C427.088 122.861 427.525 124.268 426.925 125.405C426.507 126.196 425.7 126.648 424.865 126.648" fill="#FFBFAA"/>
<path fill-rule="evenodd" clip-rule="evenodd" d="M414.144 120.548C412.999 120.548 411.998 119.7 411.841 118.532C411.672 117.258 412.565 116.087 413.837 115.916L420.226 115.057C421.495 114.884 422.67 115.779 422.842 117.052C423.013 118.326 422.12 119.497 420.846 119.668L414.459 120.527C414.354 120.541 414.249 120.548 414.144 120.548" fill="#FFBFAA"/>
<path fill-rule="evenodd" clip-rule="evenodd" d="M404.333 125.589C403.738 125.589 403.147 125.362 402.693 124.91C401.789 124.005 401.789 122.538 402.696 121.634L410.949 113.385C411.853 112.481 413.318 112.482 414.225 113.386C415.129 114.291 415.129 115.758 414.223 116.662L405.97 124.91C405.519 125.362 404.925 125.589 404.333 125.589" fill="#006BFF"/>
<path fill-rule="evenodd" clip-rule="evenodd" d="M399.676 116.359C399.192 117.198 399.482 118.269 400.32 118.751C401.16 119.233 402.23 118.944 402.714 118.105C403.195 117.267 402.905 116.195 402.067 115.713C401.229 115.231 400.157 115.52 399.676 116.359" fill="white"/>
<path fill-rule="evenodd" clip-rule="evenodd" d="M393.449 201.676H397.541L399.131 197.298H401.954L403.978 201.676H421.108L421.133 198.877V198.82C421.133 196.747 420 194.836 418.175 193.842L415.938 192.621L412.153 190.559L410.032 184.46L409.9 184.086L403.975 184.401L403.228 184.441L393.607 184.954L393.474 198.877L393.449 201.676" fill="#001E57"/>
<path fill-rule="evenodd" clip-rule="evenodd" d="M392.357 185.778L387.363 164.133L405.025 160.058L410.018 181.704L392.357 185.778" fill="#72ACFF"/>
<path fill-rule="evenodd" clip-rule="evenodd" d="M396.186 171.162C392.061 171.162 388.329 168.326 387.364 164.133L381.87 140.318L363.083 122.78C359.66 119.586 357.67 115.071 357.62 110.392L357.512 100.259C357.46 95.2538 361.474 91.1525 366.478 91.0992C371.486 91.0522 375.586 95.0603 375.638 100.066L375.743 109.801L396.264 128.957C397.582 130.188 398.506 131.786 398.91 133.545L405.025 160.059C406.151 164.936 403.109 169.803 398.232 170.928C397.547 171.086 396.861 171.162 396.186 171.162" fill="#72ACFF"/>
<path fill-rule="evenodd" clip-rule="evenodd" d="M392.507 186.403C391.26 186.403 390.231 185.41 390.192 184.155C390.154 182.876 391.16 181.808 392.44 181.77L411.122 181.214C412.399 181.172 413.469 182.182 413.508 183.461C413.547 184.739 412.54 185.807 411.26 185.845L392.576 186.401C392.554 186.402 392.529 186.403 392.507 186.403" fill="#001E57"/>
<path fill-rule="evenodd" clip-rule="evenodd" d="M352.546 180.583L337.84 169.985L348.916 154.616L363.622 165.214L352.546 180.583" fill="#72ACFF"/>
<path fill-rule="evenodd" clip-rule="evenodd" d="M356.258 168.979C354.422 168.979 352.57 168.424 350.969 167.269C346.908 164.342 345.987 158.677 348.915 154.616L360.826 138.087L368.432 106.889C369.615 102.026 374.52 99.0451 379.383 100.23C384.246 101.415 387.227 106.319 386.043 111.182L378.017 144.098C377.741 145.233 377.249 146.303 376.566 147.251L363.621 165.214C361.849 167.672 359.076 168.979 356.258 168.979" fill="#72ACFF"/>
<path fill-rule="evenodd" clip-rule="evenodd" d="M377.382 117.703H366.575C361.57 117.703 357.512 113.645 357.512 108.639C357.512 103.633 361.57 99.5752 366.575 99.5752H377.382C382.387 99.5752 386.445 103.633 386.445 108.639C386.445 113.645 382.387 117.703 377.382 117.703" fill="#72ACFF"/>
<path fill-rule="evenodd" clip-rule="evenodd" d="M352.275 182.281C351.833 182.281 351.385 182.154 350.99 181.891L336.602 172.29C335.537 171.58 335.25 170.141 335.96 169.077C336.671 168.013 338.109 167.726 339.173 168.436L353.561 178.037C354.625 178.747 354.913 180.185 354.202 181.25C353.757 181.919 353.022 182.281 352.275 182.281" fill="#001E57"/>
<path fill-rule="evenodd" clip-rule="evenodd" d="M357.49 101.007L386.822 108.242L390.858 87.5978C392.055 81.0814 389.382 74.3914 383.891 70.6825C381.181 68.8516 377.916 67.7825 374.399 67.7825C365.021 67.7825 357.418 75.3846 357.418 84.7622L357.49 101.007" fill="#006BFF"/>
<path fill-rule="evenodd" clip-rule="evenodd" d="M383.296 70.9321L382.898 62.9786L382.547 57.8684L382.378 55.4423C382.223 53.2147 380.296 51.5362 378.07 51.6899C377.896 51.7007 377.725 51.7242 377.553 51.758C375.928 52.0817 374.681 53.3701 374.379 54.9673C374.316 55.2988 374.294 55.6433 374.319 55.9972L374.907 64.5698L375.14 67.9121C375.295 70.1372 383.451 73.1597 383.296 70.9321" fill="#FFBFAA"/>
<path fill-rule="evenodd" clip-rule="evenodd" d="M368.894 144.002C368.745 147.304 370.838 150.141 373.777 151.121L376.619 147.179C377.266 146.279 377.736 145.262 377.999 144.185L379.489 138.068C378.361 137.446 377.042 137.118 375.646 137.193C372.005 137.389 369.06 140.359 368.894 144.002" fill="#006BFF"/>
<path fill-rule="evenodd" clip-rule="evenodd" d="M373.964 64.8448L384.788 70.9069L383.298 72.7278L373.641 71.3217L373.964 64.8448" fill="white"/>
<path fill-rule="evenodd" clip-rule="evenodd" d="M384.744 62.0479V62.0479C387.252 60.9147 388.366 57.9624 387.232 55.4539L385.532 51.6877C384.039 48.3821 380.149 46.9132 376.842 48.4064C373.536 49.9 372.068 53.7906 373.561 57.0962L373.959 57.9754C375.811 62.0784 380.641 63.9015 384.744 62.0479" fill="#FFBFAA"/>
<path fill-rule="evenodd" clip-rule="evenodd" d="M385.105 52.675L389.114 55.7899C389.568 56.1429 389.421 56.8634 388.866 57.0111L386.098 57.7462L385.105 52.675" fill="#FFBFAA"/>
<path fill-rule="evenodd" clip-rule="evenodd" d="M379.006 52.1201C379.006 52.1201 379.142 53.3554 378.987 53.9515C378.79 54.7254 378.232 55.2684 377.483 55.5313C376.537 55.8622 375.381 55.8545 374.389 55.8719C372.133 55.9112 369.232 54.4552 370.336 51.7236C370.712 50.7963 371.663 50.1106 372.661 50.1211C372 50.2187 371.284 50.0244 370.817 49.5466C370.349 49.0686 370.178 48.3008 370.463 47.6964C370.789 47.0052 371.616 46.6654 372.379 46.6873C373.142 46.7094 373.864 47.0226 374.563 47.3306C374.757 46.3629 375.359 45.4647 376.23 45.0004C377.101 44.536 378.235 44.5525 379.042 45.1193C379.302 45.3004 379.531 45.5476 379.603 45.8548C379.675 46.1622 379.537 46.5305 379.244 46.6449C379.097 45.7077 379.694 44.7074 380.588 44.3922C381.483 44.0773 382.575 44.4826 383.048 45.3057C383.173 45.5247 383.253 45.7809 383.264 46.0345C383.2 46.2366 383.026 46.5811 383.026 46.7536C384.06 46.9259 386.128 45.7196 384.923 44.5133C386.128 44.3408 387.508 45.2026 388.025 46.2366C388.456 47.0989 388.334 48.0724 387.834 48.8772C386.736 50.6467 384.525 50.9818 382.645 51.3056C381.566 51.4916 379.435 51.9993 379.435 51.9993L379.034 52.1112L379.006 52.1201" fill="#72ACFF"/>
<path fill-rule="evenodd" clip-rule="evenodd" d="M386.823 108.795C386.779 108.795 386.735 108.79 386.69 108.779L357.486 101.576C357.19 101.503 357.01 101.203 357.082 100.907C357.157 100.61 357.458 100.429 357.751 100.502L386.953 107.705C387.252 107.779 387.431 108.078 387.36 108.375C387.296 108.627 387.072 108.795 386.823 108.795" fill="white"/>
<path fill-rule="evenodd" clip-rule="evenodd" d="M376.039 106.68C376.039 108.536 377.543 110.041 379.401 110.041C381.256 110.041 382.76 108.536 382.76 106.68C382.76 104.824 381.256 103.32 379.401 103.32C377.543 103.32 376.039 104.824 376.039 106.68" fill="white"/>
<path fill-rule="evenodd" clip-rule="evenodd" d="M384.438 143.646C384.305 143.646 384.169 143.597 384.064 143.499L363.24 124.262C363.016 124.055 363.002 123.705 363.209 123.481C363.417 123.257 363.765 123.243 363.989 123.45L384.814 142.687C385.038 142.894 385.051 143.244 384.844 143.468C384.736 143.586 384.587 143.646 384.438 143.646" fill="white"/>
<path fill-rule="evenodd" clip-rule="evenodd" d="M389.352 134.339C389.352 138.289 392.553 141.491 396.504 141.491C397.969 141.491 399.332 141.049 400.466 140.291L398.912 133.545C398.506 131.787 397.582 130.189 396.264 128.957L394.635 127.436C391.591 128.256 389.352 131.035 389.352 134.339" fill="#006BFF"/>
<path fill-rule="evenodd" clip-rule="evenodd" d="M384.558 93.9921L389.59 88.9588L384.558 83.9258L379.523 88.9588L384.558 93.9921" fill="#001E57"/>
<path fill-rule="evenodd" clip-rule="evenodd" d="M379.083 93.9921L384.117 88.9588L379.083 83.9258L374.051 88.9588L379.083 93.9921" fill="white"/>
<path fill-rule="evenodd" clip-rule="evenodd" d="M317.363 153.723L355.54 163.005L362.336 135.05L324.159 125.768L317.363 153.723" fill="#006BFF"/>
<path fill-rule="evenodd" clip-rule="evenodd" d="M387.821 57.3254C387.467 57.0735 387.002 56.9013 386.416 56.8432C385.609 56.763 384.779 56.9875 384.102 57.4313C383.345 57.9265 382.714 58.5773 381.735 58.3055C381.368 58.2029 381.025 58.0271 380.685 57.8571C379.861 57.4448 379.078 56.9215 378.362 56.3414C378.36 56.3397 378.357 56.3381 378.354 56.3364C378.354 56.3364 374.445 58.2176 374.445 58.2187C374.066 58.4761 375.797 60.391 375.968 60.5917C377.66 62.5741 380.262 63.8838 382.919 63.7652C384.431 63.6977 386.015 63.2089 387.215 62.2713C388.833 61.0076 389.361 58.4178 387.821 57.3254" fill="#72ACFF"/>
<path fill-rule="evenodd" clip-rule="evenodd" d="M373.037 56.9417C373.371 58.6199 375.003 59.7098 376.681 59.3756C378.359 59.0413 379.449 57.4098 379.114 55.7316C378.779 54.053 377.148 52.9634 375.47 53.2977C373.792 53.6317 372.702 55.2635 373.037 56.9417" fill="#FFBFAA"/>
<path fill-rule="evenodd" clip-rule="evenodd" d="M351.403 97.7281C349.628 97.7281 347.858 97.012 346.562 95.5994C344.112 92.9267 344.292 88.7726 346.965 86.3216L363.034 71.5852C365.705 69.1345 369.86 69.3134 372.31 71.9867C374.762 74.6597 374.583 78.8135 371.909 81.2648L355.84 96.0009C354.579 97.1571 352.99 97.7281 351.403 97.7281" fill="#006BFF"/>
<path fill-rule="evenodd" clip-rule="evenodd" d="M347.997 135.259C347.955 135.259 347.911 135.258 347.869 135.255C346.587 135.186 345.602 134.09 345.671 132.807L346.105 124.742C346.175 123.46 347.258 122.475 348.555 122.545C349.838 122.614 350.822 123.711 350.753 124.993L350.316 133.058C350.25 134.298 349.224 135.259 347.997 135.259" fill="#FFBFAA"/>
<path fill-rule="evenodd" clip-rule="evenodd" d="M352.027 119.073L339.195 116.268L344.988 89.7593L357.819 92.5631L352.027 119.073" fill="#006BFF"/>
<path fill-rule="evenodd" clip-rule="evenodd" d="M351.404 121.503C351.233 121.503 351.062 121.484 350.89 121.445L339.339 118.837C338.089 118.555 337.307 117.315 337.589 116.067C337.871 114.819 339.109 114.036 340.359 114.317L351.91 116.926C353.16 117.208 353.943 118.448 353.661 119.696C353.417 120.772 352.461 121.503 351.404 121.503" fill="#001E57"/>
<path fill-rule="evenodd" clip-rule="evenodd" d="M341.831 111.251C341.726 112.213 342.422 113.077 343.385 113.181C344.347 113.284 345.209 112.589 345.314 111.626C345.417 110.664 344.72 109.801 343.758 109.697C342.796 109.593 341.933 110.289 341.831 111.251" fill="white"/>
<path fill-rule="evenodd" clip-rule="evenodd" d="M336.583 144.38L339.945 149.364L344.929 146.002L341.565 141.018L336.583 144.38ZM339.795 150.685C339.759 150.685 339.723 150.681 339.69 150.674C339.546 150.647 339.419 150.562 339.336 150.441L335.355 144.54C335.186 144.287 335.253 143.943 335.504 143.772L341.407 139.792C341.659 139.621 342.002 139.688 342.173 139.941L346.154 145.842C346.237 145.963 346.268 146.112 346.24 146.256C346.21 146.4 346.127 146.527 346.005 146.609L340.105 150.59C340.011 150.652 339.903 150.685 339.795 150.685V150.685Z" fill="white"/>
<path fill-rule="evenodd" clip-rule="evenodd" d="M391.555 196.001L400.391 193.249L391.627 188.432L391.555 196.001" fill="#CFE4FF"/>
<path fill-rule="evenodd" clip-rule="evenodd" d="M328.93 177.196L336.323 181.406L333.893 171.824L328.93 177.196" fill="#CFE4FF"/>
<path fill-rule="evenodd" clip-rule="evenodd" d="M413.738 124.126C412.977 124.126 412.142 123.897 411.241 123.441C410.967 123.303 410.859 122.971 410.998 122.698C411.136 122.425 411.468 122.317 411.741 122.454C412.963 123.073 413.984 123.183 414.769 122.778C416.132 122.077 416.483 119.999 416.486 119.978C416.527 119.719 416.743 119.524 417.003 119.509L420.782 119.301C421.084 119.285 421.349 119.518 421.366 119.823C421.382 120.128 421.147 120.389 420.843 120.405L417.484 120.59C417.282 121.385 416.704 123.026 415.275 123.761C414.805 124.004 414.291 124.126 413.738 124.126" fill="#240448"/>
<path fill-rule="evenodd" clip-rule="evenodd" d="M518.164 325.452H462.379C461.997 325.452 461.688 325.142 461.688 324.761V256.808C461.688 256.426 461.997 256.116 462.379 256.116C462.76 256.116 463.07 256.426 463.07 256.808V324.07H517.473V260.678C517.473 260.297 517.783 259.987 518.164 259.987C518.546 259.987 518.855 260.297 518.855 260.678V324.761C518.855 325.142 518.546 325.452 518.164 325.452" fill="#240448"/>
<path fill-rule="evenodd" clip-rule="evenodd" d="M417.5 325.452H361.715C361.333 325.452 361.023 325.143 361.023 324.761V259.183C361.023 258.801 361.333 258.491 361.715 258.491C362.096 258.491 362.406 258.801 362.406 259.183V324.07H416.809V202.367H362.406V247.396C362.406 247.778 362.096 248.088 361.715 248.088C361.333 248.088 361.023 247.778 361.023 247.396V201.676C361.023 201.294 361.333 200.985 361.715 200.985H417.5C417.882 200.985 418.191 201.294 418.191 201.676V324.761C418.191 325.143 417.882 325.452 417.5 325.452" fill="#001E57"/>
<path fill-rule="evenodd" clip-rule="evenodd" d="M316.836 325.452C316.452 325.452 316.145 325.143 316.145 324.761V161.031H261.742V202.61C261.742 202.992 261.432 203.301 261.051 203.301C260.669 203.301 260.359 202.992 260.359 202.61V160.34C260.359 159.958 260.669 159.649 261.051 159.649H316.836C317.217 159.649 317.527 159.958 317.527 160.34V324.761C317.527 325.143 317.217 325.452 316.836 325.452" fill="#001E57"/>
<path fill-rule="evenodd" clip-rule="evenodd" d="M160.383 139.995C160.001 139.995 159.691 139.686 159.691 139.304V118.464C159.691 118.082 160.001 117.773 160.383 117.773H196.458C196.84 117.773 197.149 118.082 197.149 118.464C197.149 118.846 196.84 119.155 196.458 119.155H161.074V139.304C161.074 139.686 160.764 139.995 160.383 139.995" fill="#001E57"/>
<path fill-rule="evenodd" clip-rule="evenodd" d="M216.169 220.304C215.787 220.304 215.478 219.994 215.478 219.613V119.155H210.144C209.763 119.155 209.453 118.846 209.453 118.464C209.453 118.082 209.763 117.773 210.144 117.773H216.169C216.55 117.773 216.86 118.082 216.86 118.464V219.613C216.86 219.994 216.55 220.304 216.169 220.304" fill="#001E57"/>
<path fill-rule="evenodd" clip-rule="evenodd" d="M216.168 325.452H160.383C160.001 325.452 159.691 325.142 159.691 324.761V217.824C159.691 217.442 160.001 217.133 160.383 217.133C160.764 217.133 161.074 217.442 161.074 217.824V324.07H216.168C216.55 324.07 216.859 324.379 216.859 324.761C216.859 325.142 216.55 325.452 216.168 325.452" fill="#001E57"/>
<path fill-rule="evenodd" clip-rule="evenodd" d="M115.504 148.566C115.122 148.566 114.812 148.256 114.812 147.875V56.4764H60.4097V144.28C60.4097 144.662 60.1004 144.972 59.7185 144.972C59.3367 144.972 59.0273 144.662 59.0273 144.28V55.7852C59.0273 55.4037 59.3367 55.094 59.7185 55.094H115.504C115.885 55.094 116.195 55.4037 116.195 55.7852V147.875C116.195 148.256 115.885 148.566 115.504 148.566" fill="#240448"/>
<path fill-rule="evenodd" clip-rule="evenodd" d="M246.936 260.706C244.862 260.706 242.852 259.608 241.779 257.665C240.212 254.82 241.243 251.242 244.088 249.675L265.855 237.661C268.7 236.094 272.278 237.128 273.848 239.97C275.416 242.815 274.385 246.393 271.54 247.963L249.772 259.973C248.871 260.471 247.895 260.706 246.936 260.706" fill="#FFBFAA"/>
<path fill-rule="evenodd" clip-rule="evenodd" d="M251.691 243.938L260.188 256.437L270.545 249.702C274.202 247.731 275.568 243.169 273.597 239.514C271.628 235.856 267.066 234.487 263.409 236.459L251.691 243.938" fill="#001E57"/>
<path fill-rule="evenodd" clip-rule="evenodd" d="M259.283 257.463C258.567 257.463 257.862 257.142 257.397 256.528L249.83 246.517C249.042 245.478 249.249 243.998 250.289 243.213C251.329 242.425 252.808 242.63 253.596 243.672L261.163 253.681C261.948 254.72 261.744 256.199 260.704 256.987C260.278 257.308 259.778 257.463 259.283 257.463" fill="#001E57"/>
<path fill-rule="evenodd" clip-rule="evenodd" d="M259.539 300.903C259.342 300.903 259.154 300.801 259.052 300.616C258.905 300.348 259.005 300.013 259.273 299.867L269.495 294.254C269.763 294.105 270.097 294.204 270.244 294.473C270.393 294.738 270.294 295.075 270.026 295.222L259.804 300.834C259.718 300.881 259.627 300.903 259.539 300.903" fill="#44D4F4"/>
<path fill-rule="evenodd" clip-rule="evenodd" d="M275.12 325.466C274.857 325.466 274.625 325.278 274.578 325.01L267.943 287.801C267.887 287.503 268.089 287.215 268.391 287.16C268.692 287.107 268.977 287.309 269.032 287.608L275.665 324.816C275.72 325.115 275.518 325.402 275.22 325.458C275.186 325.463 275.153 325.466 275.12 325.466" fill="#44D4F4"/>
<path fill-rule="evenodd" clip-rule="evenodd" d="M254.512 325.394C254.476 325.394 254.44 325.391 254.401 325.383C254.103 325.322 253.909 325.032 253.967 324.733L261.363 287.668C261.424 287.37 261.714 287.174 262.013 287.234C262.314 287.295 262.508 287.585 262.447 287.884L255.054 324.949C255.001 325.212 254.769 325.394 254.512 325.394" fill="#44D4F4"/>
<path fill-rule="evenodd" clip-rule="evenodd" d="M303.081 325.466C302.818 325.466 302.586 325.278 302.539 325.01L294.192 278.205C294.139 277.906 294.339 277.618 294.64 277.563C294.941 277.511 295.226 277.71 295.281 278.011L303.625 324.816C303.681 325.115 303.479 325.402 303.18 325.458C303.147 325.463 303.114 325.466 303.081 325.466" fill="#44D4F4"/>
<path fill-rule="evenodd" clip-rule="evenodd" d="M282.592 325.394C282.556 325.394 282.52 325.391 282.484 325.383C282.183 325.322 281.989 325.032 282.05 324.733L289.443 287.668C289.504 287.37 289.794 287.174 290.096 287.234C290.394 287.295 290.588 287.585 290.53 287.884L283.134 324.949C283.082 325.212 282.849 325.394 282.592 325.394" fill="#44D4F4"/>
<path fill-rule="evenodd" clip-rule="evenodd" d="M292.838 288.982C289.459 291.122 285.489 292.313 281.342 292.313H247.332C245.659 292.313 244.305 290.958 244.305 289.283C244.305 288.448 244.642 287.693 245.189 287.143C245.74 286.596 246.497 286.258 247.332 286.258H289.827C291.398 286.258 292.686 287.453 292.838 288.982" fill="#240448"/>
<path fill-rule="evenodd" clip-rule="evenodd" d="M300.269 281.044C298.478 284.342 295.898 287.046 292.838 288.982C289.459 291.122 285.489 292.313 281.342 292.313C275.287 292.313 270.108 289.944 266.34 286.258C259.226 279.288 260.407 268.5 267.05 259.183C276.268 246.249 287.419 238.632 301.019 242.077C316.471 245.986 307.651 267.469 300.269 281.044" fill="#001E57"/>
<path fill-rule="evenodd" clip-rule="evenodd" d="M278.888 286.734H265.598L266.704 276.772H278.888V286.734" fill="#240444"/>
<path fill-rule="evenodd" clip-rule="evenodd" d="M289.985 210.934C290.206 213.481 288.323 215.728 285.774 215.95C283.228 216.173 280.98 214.288 280.756 211.741C280.535 209.192 282.418 206.947 284.967 206.723C287.513 206.499 289.761 208.385 289.985 210.934" fill="white"/>
<path fill-rule="evenodd" clip-rule="evenodd" d="M282.536 215.446V215.446C281.585 216.113 280.272 215.88 279.602 214.929L279.578 214.891C278.908 213.937 279.141 212.626 280.095 211.957C281.046 211.291 282.359 211.523 283.028 212.474L283.053 212.513C283.719 213.467 283.49 214.78 282.536 215.446" fill="#001E57"/>
<path fill-rule="evenodd" clip-rule="evenodd" d="M242.457 298.247L246.842 310.688L255.673 306.812L252.189 292.642L242.457 298.247" fill="#FFBFAA"/>
<path fill-rule="evenodd" clip-rule="evenodd" d="M261.496 316.32L238.452 325.049L237.465 322.444L237.227 321.819C236.776 320.625 237.019 319.281 237.86 318.322L239.989 315.891L242.519 313L242.436 308.288C242.422 307.464 242.953 306.729 243.743 306.486L247.462 305.338L248.717 309.9L255.101 303.762C255.671 303.218 256.611 303.431 256.89 304.166L261.496 316.32" fill="#240444"/>
<path fill-rule="evenodd" clip-rule="evenodd" d="M218.18 289.3L210.395 299.952L218.589 305.045L228.305 294.157L218.18 289.3" fill="#FFBFAA"/>
<path fill-rule="evenodd" clip-rule="evenodd" d="M221.283 233.008C220.813 234.523 221.234 236.271 222.561 237.603L240.239 259.332C242.559 261.942 246.554 262.177 249.164 259.86C251.774 257.54 252.009 253.545 249.692 250.935L230.217 231.584C228.201 229.558 224.853 229.262 222.738 230.924C222.013 231.493 221.53 232.22 221.283 233.008" fill="#FFBFAA"/>
<path fill-rule="evenodd" clip-rule="evenodd" d="M227.935 234.963C227.661 234.963 227.382 234.911 227.111 234.803L216.933 230.73C215.797 230.277 215.244 228.986 215.697 227.846C216.154 226.71 217.445 226.157 218.581 226.613L228.758 230.683C229.895 231.139 230.448 232.43 229.994 233.567C229.646 234.435 228.814 234.963 227.935 234.963" fill="#FFBFAA"/>
<path fill-rule="evenodd" clip-rule="evenodd" d="M225.816 236.097C225.714 236.097 225.609 236.091 225.507 236.077L213.463 234.393C212.25 234.222 211.404 233.102 211.572 231.889C211.744 230.675 212.863 229.829 214.077 230L226.121 231.684C227.334 231.853 228.18 232.972 228.009 234.186C227.854 235.295 226.903 236.097 225.816 236.097" fill="#FFBFAA"/>
<path fill-rule="evenodd" clip-rule="evenodd" d="M223.846 239.342C223.73 239.342 223.614 239.331 223.495 239.315L215.59 238.06C214.379 237.866 213.555 236.73 213.746 235.519C213.94 234.31 215.076 233.487 216.284 233.677L224.192 234.933C225.4 235.126 226.227 236.262 226.033 237.471C225.862 238.563 224.919 239.342 223.846 239.342" fill="#FFBFAA"/>
<path fill-rule="evenodd" clip-rule="evenodd" d="M228.573 234.139C227.754 234.139 226.969 233.686 226.582 232.9L224.807 229.298C224.265 228.2 224.719 226.87 225.816 226.329C226.914 225.787 228.244 226.237 228.786 227.338L230.561 230.94C231.102 232.041 230.652 233.37 229.551 233.912C229.236 234.067 228.902 234.139 228.573 234.139" fill="#FFBFAA"/>
<path fill-rule="evenodd" clip-rule="evenodd" d="M266.69 260.535L286.663 268.293L286.627 244.203C286.384 241.289 285.433 238.643 283.993 236.495C281.72 233.111 278.22 230.965 274.335 230.965C271.158 230.965 268.242 232.397 266.041 234.767C265.59 235.253 265.167 235.781 264.78 236.343C264.705 236.45 264.631 236.561 264.559 236.672C262.557 239.749 261.902 243.512 262.615 247.112L266.69 260.535" fill="#001E57"/>
<path fill-rule="evenodd" clip-rule="evenodd" d="M270.207 245.32C269.618 248.455 266.596 250.521 263.458 249.932C260.323 249.343 258.257 246.321 258.846 243.183C259.438 240.048 267.13 233.918 267.13 233.918C269.969 235.378 270.796 242.182 270.207 245.32" fill="#001E57"/>
<path fill-rule="evenodd" clip-rule="evenodd" d="M267.049 260.891C266.817 260.891 266.602 260.745 266.524 260.513L263.157 250.385C260.859 249.929 258.985 248.245 258.307 246.006C257.597 243.664 258.343 241.209 260.519 238.709C261.326 237.783 262.219 236.959 263.162 236.088C263.859 235.444 264.58 234.778 265.258 234.073C265.468 233.852 265.819 233.846 266.04 234.056C266.259 234.269 266.267 234.617 266.054 234.839C265.355 235.568 264.622 236.246 263.914 236.898C262.991 237.75 262.12 238.554 261.354 239.434C259.443 241.629 258.774 243.733 259.366 245.685C259.955 247.626 261.63 249.063 263.64 249.348C263.649 249.348 263.671 249.351 263.679 249.354C263.875 249.39 264.039 249.531 264.099 249.721L267.575 260.164C267.672 260.454 267.514 260.767 267.224 260.864C267.166 260.883 267.108 260.891 267.049 260.891" fill="white"/>
<path fill-rule="evenodd" clip-rule="evenodd" d="M265.851 286.723C264.585 286.723 263.299 286.474 262.063 285.951L233.312 273.808C228.355 271.713 226.032 265.998 228.125 261.041C230.221 256.08 235.936 253.761 240.896 255.854L269.647 268C274.604 270.093 276.924 275.81 274.831 280.767C273.26 284.486 269.65 286.723 265.851 286.723" fill="#240444"/>
<path fill-rule="evenodd" clip-rule="evenodd" d="M289.918 275.608C289.893 276.109 289.835 276.606 289.744 277.099C288.934 281.442 285.538 285.266 281.239 286.399C280.396 286.623 279.569 286.726 278.756 286.734C273.94 286.767 269.666 283.377 265.538 281.146C261.258 278.835 256.981 276.523 252.704 274.212C250.235 272.877 247.78 271.295 245.211 270.164C240.544 268.105 238.429 262.655 240.486 257.988C242.54 253.321 247.992 251.206 252.659 253.263C259.953 255.865 267.247 258.464 274.543 261.065C277.797 262.227 281.458 263.056 284.38 265.008C284.825 265.301 285.254 265.622 285.66 265.976C288.392 268.351 290.087 271.967 289.918 275.608" fill="#72ACFF"/>
<path fill-rule="evenodd" clip-rule="evenodd" d="M254.772 267.566L225.611 298.282L214.215 290.704C214.251 290.66 214.289 290.618 214.328 290.577L240.702 255.602C244.003 251.718 249.831 251.248 253.718 254.549C257.603 257.856 258.073 263.681 254.772 267.566" fill="#72ACFF"/>
<path fill-rule="evenodd" clip-rule="evenodd" d="M275.211 274.812C274.982 274.812 274.766 274.668 274.689 274.439C274.589 274.148 274.744 273.833 275.034 273.737C275.466 273.59 275.778 272.951 275.872 272.025C275.985 270.922 275.792 269.562 275.327 268.188C274.86 266.816 274.186 265.616 273.425 264.812C272.787 264.134 272.151 263.819 271.719 263.963C271.429 264.063 271.117 263.908 271.017 263.617C270.92 263.33 271.075 263.015 271.363 262.918C272.242 262.619 273.259 263.023 274.23 264.051C275.098 264.972 275.858 266.316 276.373 267.834C276.89 269.352 277.102 270.881 276.972 272.138C276.829 273.546 276.267 274.486 275.388 274.784C275.33 274.804 275.269 274.812 275.211 274.812" fill="#240448"/>
<path fill-rule="evenodd" clip-rule="evenodd" d="M256.886 298.219L242.44 301.971L227.247 266.739C225.45 261.967 227.864 256.639 232.636 254.842C237.408 253.045 242.735 255.459 244.533 260.231L256.886 298.219" fill="#72ACFF"/>
<path fill-rule="evenodd" clip-rule="evenodd" d="M265.481 269.987C265.295 269.987 265.104 269.963 264.916 269.913L261.029 268.893C259.846 268.58 259.138 267.366 259.448 266.183C259.76 264.997 260.974 264.289 262.157 264.602L266.045 265.622C267.228 265.934 267.936 267.148 267.623 268.331C267.363 269.327 266.465 269.987 265.481 269.987" fill="#FFBFAA"/>
<path fill-rule="evenodd" clip-rule="evenodd" d="M296.858 265.063C295.216 265.063 293.582 264.38 292.418 263.045L276.977 245.309C274.845 242.859 275.099 239.143 277.552 237.009C280.001 234.877 283.715 235.134 285.849 237.584L301.29 255.32C303.425 257.77 303.168 261.486 300.718 263.617C299.604 264.588 298.227 265.063 296.858 265.063" fill="#FFBFAA"/>
<path fill-rule="evenodd" clip-rule="evenodd" d="M295.379 244.239L283.192 253.194L277.167 247.17C274.231 244.233 274.231 239.47 277.167 236.533C280.106 233.597 284.867 233.597 287.803 236.533L295.379 244.239" fill="white"/>
<path fill-rule="evenodd" clip-rule="evenodd" d="M283.618 255.384C282.996 255.384 282.379 255.105 281.967 254.574C281.262 253.661 281.431 252.351 282.34 251.646L293.187 243.263C294.096 242.558 295.407 242.727 296.112 243.639C296.817 244.549 296.648 245.859 295.739 246.564L284.892 254.95C284.513 255.243 284.066 255.384 283.618 255.384" fill="white"/>
<path fill-rule="evenodd" clip-rule="evenodd" d="M263.983 276.048C265.294 276.938 267.091 277.046 268.75 276.164L298.88 265.215C302.052 263.756 303.442 260.004 301.982 256.83C300.525 253.659 296.774 252.271 293.6 253.728L265.222 267.087C262.695 268.425 261.437 271.544 262.413 274.049C262.747 274.909 263.3 275.583 263.983 276.048" fill="#FFBFAA"/>
<path fill-rule="evenodd" clip-rule="evenodd" d="M254.692 273.831V273.831C251.125 273.831 248.23 270.939 248.23 267.372V262.758H261.153V267.372C261.153 270.939 258.261 273.831 254.692 273.831" fill="white"/>
<path fill-rule="evenodd" clip-rule="evenodd" d="M255.119 271.823C253.941 271.823 252.96 270.894 252.905 269.705C252.849 268.481 253.798 267.444 255.022 267.389L267.237 266.838C268.459 266.783 269.499 267.731 269.554 268.956C269.61 270.178 268.661 271.215 267.436 271.27L255.222 271.821C255.188 271.821 255.152 271.823 255.119 271.823" fill="#FFBFAA"/>
<path fill-rule="evenodd" clip-rule="evenodd" d="M258.776 274.602C257.742 274.602 256.816 273.875 256.606 272.819C256.366 271.619 257.145 270.449 258.345 270.209L265.437 268.79C266.637 268.55 267.806 269.33 268.047 270.532C268.287 271.732 267.508 272.902 266.305 273.142L259.213 274.561C259.067 274.588 258.92 274.602 258.776 274.602" fill="#FFBFAA"/>
<path fill-rule="evenodd" clip-rule="evenodd" d="M260.26 277.685C259.281 277.685 258.388 277.032 258.12 276.045C257.802 274.862 258.501 273.645 259.682 273.325L265.582 271.732C266.765 271.411 267.982 272.114 268.302 273.294C268.62 274.478 267.921 275.697 266.738 276.015L260.84 277.607C260.647 277.66 260.45 277.685 260.26 277.685" fill="#FFBFAA"/>
<path fill-rule="evenodd" clip-rule="evenodd" d="M280.41 221.952L277.67 233.08L268.309 237.178L270.595 230.774L271.966 225.126L279.058 222.458L280.41 221.952" fill="#FFBFAA"/>
<path fill-rule="evenodd" clip-rule="evenodd" d="M268.306 237.731C268.176 237.731 268.046 237.684 267.944 237.592C267.781 237.451 267.714 237.225 267.778 237.017L269.509 231.267C269.597 230.976 269.907 230.81 270.197 230.899C270.49 230.985 270.656 231.294 270.567 231.587L269.188 236.169L278.245 232.043C278.522 231.916 278.851 232.038 278.978 232.317C279.102 232.594 278.981 232.923 278.704 233.05L268.535 237.681C268.463 237.714 268.386 237.731 268.306 237.731" fill="white"/>
<path fill-rule="evenodd" clip-rule="evenodd" d="M285.658 257.452C285.423 257.452 285.204 257.3 285.13 257.062C285.041 256.772 285.204 256.462 285.494 256.371L288.411 255.469C288.704 255.381 289.014 255.544 289.105 255.834C289.194 256.128 289.031 256.437 288.74 256.526L285.823 257.43C285.768 257.446 285.713 257.452 285.658 257.452" fill="#240448"/>
<path fill-rule="evenodd" clip-rule="evenodd" d="M222.093 304.564L214.866 314.954L194.637 300.884L196.226 298.6L196.325 298.457C197.229 297.16 198.775 296.463 200.342 296.651L203.06 296.975L206.873 297.425L210.528 294.824C211.31 294.268 212.364 294.296 213.116 294.89L215.988 297.171L212.933 300.785L221.275 302.51C222.204 302.703 222.635 303.784 222.093 304.564" fill="#240444"/>
<path fill-rule="evenodd" clip-rule="evenodd" d="M279.279 221.653L277.521 222.314C277.151 226.694 275.146 230.042 270.816 229.97L272.188 224.321L279.279 221.653" fill="#240444"/>
<path fill-rule="evenodd" clip-rule="evenodd" d="M269.309 228.35V228.35C266.577 227.716 264.874 224.988 265.507 222.256L266.458 218.153C267.293 214.553 270.89 212.311 274.49 213.146C278.09 213.981 280.332 217.575 279.497 221.175L279.276 222.132C278.239 226.602 273.777 229.384 269.309 228.35" fill="#FFBFAA"/>
<path fill-rule="evenodd" clip-rule="evenodd" d="M265.14 214.81C265.912 213.132 267.007 211.65 268.629 210.757C270.446 209.756 272.655 209.635 274.665 209.991C274.85 210.024 275.035 210.06 275.218 210.102C275.326 210.127 275.431 210.152 275.536 210.179C280.396 211.432 283.861 216.674 282.437 221.639C282.152 222.64 280.54 226.182 279.672 226.787C278.989 227.266 277.474 222.989 276.642 223.044C275.81 223.099 274.941 222.842 274.347 222.259C273.529 221.457 273.354 220.224 273.233 219.087C271.635 219.016 270.026 218.844 268.502 218.355C267.557 218.048 266.644 217.617 265.834 217.036C265.48 216.779 264.676 216.013 264.676 216.013C264.676 216.013 265.049 215.012 265.14 214.81" fill="white"/>
<path fill-rule="evenodd" clip-rule="evenodd" d="M273.541 230.965V230.965C273.27 230.965 273.041 230.76 273.011 230.492L271.238 217.973H274.78L274.075 230.443C274.069 230.733 273.832 230.965 273.541 230.965" fill="white"/>
<path fill-rule="evenodd" clip-rule="evenodd" d="M280.1 222.245C280.1 223.99 278.687 225.402 276.943 225.402C275.198 225.402 273.785 223.99 273.785 222.245C273.785 220.503 275.198 219.09 276.943 219.09C278.687 219.09 280.1 220.503 280.1 222.245" fill="#FFBFAA"/>
<path fill-rule="evenodd" clip-rule="evenodd" d="M278.881 225.402C278.881 226.279 278.17 226.992 277.294 226.992C276.418 226.992 275.707 226.279 275.707 225.402C275.707 224.526 276.418 223.815 277.294 223.815C278.17 223.815 278.881 224.526 278.881 225.402" fill="white"/>
<path fill-rule="evenodd" clip-rule="evenodd" d="M266.476 218.51C265.749 220.257 264.986 221.891 264.023 222.834C263.761 223.088 263.703 223.5 263.932 223.782C264.076 223.959 264.303 224.07 264.565 224.036L267.46 223.683L266.476 218.51" fill="#FFBFAA"/>
<path fill-rule="evenodd" clip-rule="evenodd" d="M242.438 304.653C241.39 304.653 240.43 303.948 240.154 302.886C239.828 301.622 240.585 300.334 241.846 300.008L255.559 296.447C256.82 296.12 258.109 296.878 258.438 298.139C258.764 299.399 258.006 300.688 256.745 301.017L243.032 304.575C242.833 304.628 242.634 304.653 242.438 304.653" fill="#72ACFF"/>
<path fill-rule="evenodd" clip-rule="evenodd" d="M226.466 274.265C226.347 274.265 226.228 274.226 226.126 274.149C225.885 273.958 225.844 273.612 226.032 273.372L240.265 255.262C242.535 252.591 246.071 251.331 249.499 251.958C249.801 252.011 250 252.301 249.945 252.6C249.889 252.901 249.604 253.1 249.3 253.045C246.259 252.489 243.124 253.606 241.122 255.962L226.903 274.055C226.792 274.193 226.632 274.265 226.466 274.265" fill="white"/>
<path fill-rule="evenodd" clip-rule="evenodd" d="M233.198 291.81C233.062 291.81 232.93 291.76 232.822 291.664C232.598 291.456 232.584 291.105 232.791 290.881L250.898 271.301C251.106 271.074 251.454 271.063 251.678 271.27C251.902 271.478 251.916 271.826 251.708 272.05L233.604 291.63C233.494 291.749 233.347 291.81 233.198 291.81" fill="white"/>
<path fill-rule="evenodd" clip-rule="evenodd" d="M237.386 322.792C237.167 322.792 236.96 322.66 236.872 322.444C236.758 322.162 236.897 321.839 237.181 321.725L249.089 316.964C249.374 316.851 249.695 316.986 249.808 317.271C249.921 317.556 249.783 317.877 249.501 317.99L237.59 322.754C237.524 322.779 237.455 322.792 237.386 322.792" fill="white"/>
<path fill-rule="evenodd" clip-rule="evenodd" d="M225.744 240.142C224.632 240.142 223.634 239.871 223.549 239.846C223.255 239.763 223.084 239.459 223.164 239.166C223.247 238.872 223.551 238.698 223.844 238.781C224.696 239.016 227.223 239.414 227.654 238.192C227.754 237.905 228.069 237.753 228.359 237.855C228.647 237.957 228.799 238.273 228.697 238.56C228.249 239.829 226.933 240.142 225.744 240.142" fill="#240448"/>
<path fill-rule="evenodd" clip-rule="evenodd" d="M207.984 307.329C207.873 307.329 207.765 307.298 207.668 307.232L195.909 299.054C195.658 298.88 195.597 298.534 195.771 298.282C195.945 298.034 196.29 297.97 196.54 298.144L208.299 306.323C208.55 306.497 208.611 306.842 208.437 307.094C208.329 307.246 208.158 307.329 207.984 307.329" fill="white"/>
<path fill-rule="evenodd" clip-rule="evenodd" d="M274.805 274.878C274.075 274.878 273.284 274.458 272.521 273.648C271.655 272.727 270.892 271.387 270.378 269.866C269.864 268.348 269.651 266.819 269.778 265.561C269.922 264.154 270.486 263.214 271.362 262.915C271.653 262.821 271.965 262.973 272.065 263.264C272.161 263.551 272.007 263.866 271.719 263.963C271.288 264.11 270.973 264.748 270.879 265.674C270.765 266.778 270.961 268.141 271.426 269.512C271.89 270.883 272.565 272.083 273.325 272.891C273.964 273.565 274.603 273.883 275.034 273.737C275.324 273.64 275.637 273.795 275.733 274.082C275.833 274.373 275.678 274.685 275.388 274.784C275.2 274.848 275.004 274.878 274.805 274.878" fill="#240448"/>
<path fill-rule="evenodd" clip-rule="evenodd" d="M271.867 272.44V272.44C270.546 272.741 269.233 271.912 268.931 270.593L268.785 269.943C268.483 268.622 269.31 267.306 270.632 267.007C271.953 266.706 273.266 267.532 273.568 268.854L273.714 269.504C274.016 270.825 273.189 272.141 271.867 272.44" fill="white"/>
<path fill-rule="evenodd" clip-rule="evenodd" d="M271.179 267.319C271.027 267.319 270.872 267.336 270.717 267.372C269.6 267.626 268.898 268.741 269.152 269.86L269.299 270.51C269.553 271.627 270.67 272.329 271.787 272.075C272.329 271.953 272.791 271.627 273.087 271.157C273.382 270.687 273.476 270.128 273.355 269.587L273.205 268.937C272.987 267.975 272.127 267.319 271.179 267.319ZM271.325 272.877C270.037 272.877 268.867 271.984 268.569 270.676L268.422 270.026C268.077 268.506 269.031 266.988 270.551 266.642C272.072 266.296 273.59 267.253 273.935 268.771L274.082 269.421C274.251 270.159 274.121 270.916 273.72 271.555C273.316 272.194 272.688 272.636 271.953 272.805C271.743 272.852 271.533 272.877 271.325 272.877V272.877Z" fill="#240448"/>
<path fill-rule="evenodd" clip-rule="evenodd" d="M224.987 300.232C224.536 300.232 224.082 300.102 223.682 299.836L213.397 292.996C212.313 292.275 212.017 290.809 212.738 289.723C213.46 288.639 214.925 288.343 216.012 289.065L226.294 295.905C227.381 296.626 227.677 298.092 226.955 299.178C226.499 299.861 225.75 300.232 224.987 300.232" fill="#72ACFF"/>
<path fill-rule="evenodd" clip-rule="evenodd" d="M281.338 252.506C281.175 252.506 281.015 252.434 280.904 252.298C280.716 252.058 280.755 251.709 280.995 251.521L288.167 245.837C288.408 245.646 288.756 245.685 288.944 245.925C289.135 246.166 289.093 246.512 288.855 246.702L281.681 252.387C281.579 252.467 281.46 252.506 281.338 252.506" fill="#240448"/>
<path fill-rule="evenodd" clip-rule="evenodd" d="M257.446 307.133C256.045 307.133 254.903 308.272 254.903 309.673C254.903 311.075 256.045 312.217 257.446 312.217C258.848 312.217 259.987 311.075 259.987 309.673C259.987 308.272 258.848 307.133 257.446 307.133ZM257.446 313.323C255.434 313.323 253.797 311.686 253.797 309.673C253.797 307.663 255.434 306.027 257.446 306.027C259.456 306.027 261.093 307.663 261.093 309.673C261.093 311.686 259.456 313.323 257.446 313.323V313.323Z" fill="#44D4F4"/>
<path fill-rule="evenodd" clip-rule="evenodd" d="M217.58 305.598C216.179 305.598 215.04 306.737 215.04 308.139C215.04 309.543 216.179 310.683 217.58 310.683C218.982 310.683 220.124 309.543 220.124 308.139C220.124 306.737 218.982 305.598 217.58 305.598ZM217.58 311.788C215.57 311.788 213.934 310.152 213.934 308.139C213.934 306.129 215.57 304.492 217.58 304.492C219.593 304.492 221.23 306.129 221.23 308.139C221.23 310.152 219.593 311.788 217.58 311.788V311.788Z" fill="#44D4F4"/>
<path fill-rule="evenodd" clip-rule="evenodd" d="M287.478 300.903C287.284 300.903 287.094 300.801 286.994 300.616C286.848 300.348 286.944 300.013 287.212 299.867L297.434 294.254C297.702 294.105 298.039 294.204 298.186 294.473C298.333 294.738 298.233 295.075 297.968 295.222L287.743 300.834C287.66 300.881 287.569 300.903 287.478 300.903" fill="#44D4F4"/>
<path fill-rule="evenodd" clip-rule="evenodd" d="M74.404 204.111C75.6443 207.047 79.0289 208.418 81.9638 207.18C84.8983 205.938 86.2722 202.554 85.0319 199.62C83.7916 196.685 74.9876 192.336 74.9876 192.336C72.5286 194.362 73.164 201.176 74.404 204.111" fill="#72ACFF"/>
<path fill-rule="evenodd" clip-rule="evenodd" d="M39.0962 216.126C36.9222 216.126 34.8326 214.915 33.8148 212.828C32.3926 209.914 33.6025 206.4 36.5169 204.976L58.9049 194.052C61.8192 192.629 65.3349 193.839 66.7569 196.753C68.1791 199.668 66.9695 203.183 64.0551 204.605L41.6672 215.532C40.8383 215.936 39.9604 216.126 39.0962 216.126" fill="#44D4F4"/>
<path fill-rule="evenodd" clip-rule="evenodd" d="M64.0545 204.605L62.8662 205.186L52.7211 210.135L41.6663 215.532C40.8371 215.936 39.961 216.126 39.0967 216.126C36.9216 216.126 34.8323 214.915 33.8156 212.828C32.3923 209.914 33.6016 206.4 36.5166 204.979L58.9048 194.051C61.8197 192.629 65.3341 193.839 66.7574 196.753C68.1788 199.668 66.9695 203.183 64.0545 204.605" fill="#FFBFAA"/>
<path fill-rule="evenodd" clip-rule="evenodd" d="M62.8661 205.186L53.8551 209.582C51.2257 202.133 57.6453 197.05 57.6453 197.05L62.8661 205.186" fill="#240448"/>
<path fill-rule="evenodd" clip-rule="evenodd" d="M38.5281 315.817C38.0556 315.817 37.6011 315.786 37.1656 315.728C35.4321 315.488 34.0436 313.876 34.0046 312.06C33.9803 310.931 34.599 309.815 35.5808 309.217C36.4835 308.667 37.5239 308.637 38.4363 309.134C40.1773 310.083 41.5696 311.739 42.5879 313.077C42.7729 313.32 42.7259 313.669 42.4831 313.851C42.2398 314.039 41.8931 313.989 41.7082 313.749C40.7565 312.496 39.4642 310.954 37.9071 310.108C37.1457 309.69 36.4832 309.964 36.1559 310.163C35.5048 310.558 35.0942 311.294 35.1102 312.035C35.1373 313.304 36.1274 314.468 37.3168 314.631C38.4739 314.791 39.7971 314.711 41.25 314.396C41.5486 314.329 41.8431 314.517 41.9083 314.816C41.9733 315.115 41.7842 315.41 41.4859 315.474C40.4402 315.704 39.4504 315.817 38.5281 315.817" fill="#240448"/>
<path fill-rule="evenodd" clip-rule="evenodd" d="M82.1679 308.274H91.8082L87.3087 253.49L68.082 246.691L82.1679 308.274" fill="#44D4F4"/>
<path fill-rule="evenodd" clip-rule="evenodd" d="M83.5083 228.933H53.1641L58.2684 209.756L57.0674 205.728C55.9902 202.111 56.4625 198.18 58.4822 194.993C58.5516 194.883 58.6223 194.775 58.6942 194.668C60.9641 191.288 64.4574 189.148 68.3362 189.148C71.5071 189.148 74.4185 190.577 76.6145 192.943C77.0652 193.429 77.4874 193.954 77.8731 194.515C79.3716 196.685 80.3603 199.383 80.6091 202.362L83.5083 228.933" fill="#72ACFF"/>
<path fill-rule="evenodd" clip-rule="evenodd" d="M48.0195 233.614C48.4168 228.424 49.9192 223.503 54.5583 219.339C61.9431 222.721 68.81 221.167 83.2801 218.712L85.6111 235.593L48.0195 233.614" fill="#001E57"/>
<path fill-rule="evenodd" clip-rule="evenodd" d="M67.3337 221.562C62.8832 221.562 58.9782 221.142 55.6456 220.298C54.9884 220.133 54.5905 219.466 54.7564 218.808C54.9226 218.153 55.5894 217.755 56.2466 217.921C63.0472 219.638 72.463 219.497 84.2328 217.5C84.9002 217.387 85.5341 217.838 85.6475 218.507C85.7609 219.173 85.311 219.806 84.6431 219.92C78.1922 221.015 72.4085 221.562 67.3337 221.562" fill="#CFE4FF"/>
<path fill-rule="evenodd" clip-rule="evenodd" d="M56.1703 304.066L41.4102 304.069L49.1781 243.061C48.6321 240.495 46.9071 234.205 47.2099 232.45L71.2661 224.952L56.1703 304.066" fill="#001E57"/>
<path fill-rule="evenodd" clip-rule="evenodd" d="M77.9401 305.283L94.404 305.286L85.2259 232.677L61.2656 224.952L62.755 235.898L62.3456 232.887L77.9401 305.283" fill="#001E57"/>
<path fill-rule="evenodd" clip-rule="evenodd" d="M54.5494 233.738C52.9933 234.028 51.3082 233.409 50.1409 231.941L34.4354 215.377C32.1166 212.775 32.3461 208.786 34.9478 206.466C37.5492 204.149 41.5379 204.379 43.8568 206.98L56.9979 225.048C58.7732 227.282 58.6772 230.636 56.7839 232.538C56.1353 233.191 55.3597 233.589 54.5494 233.738" fill="#FFBFAA"/>
<path fill-rule="evenodd" clip-rule="evenodd" d="M47.6632 241.054C47.1064 241.054 46.5496 240.844 46.1191 240.426C45.2426 239.572 45.2238 238.17 46.0768 237.294L53.5138 229.655C54.3665 228.778 55.7682 228.759 56.6444 229.613C57.5208 230.465 57.5397 231.866 56.6867 232.743L49.2499 240.382C48.8159 240.83 48.2397 241.054 47.6632 241.054" fill="#FFBFAA"/>
<path fill-rule="evenodd" clip-rule="evenodd" d="M47.0874 236.68C46.7117 236.68 46.3307 236.583 45.982 236.384C44.9231 235.77 44.5606 234.416 45.1722 233.359L48.9487 226.823C49.56 225.765 50.9144 225.4 51.9731 226.013C53.032 226.624 53.3945 227.979 52.7826 229.038L49.0067 235.574C48.5964 236.285 47.8524 236.68 47.0874 236.68" fill="#FFBFAA"/>
<path fill-rule="evenodd" clip-rule="evenodd" d="M96.9505 315.817C96.0279 315.817 95.0381 315.703 93.9927 315.474C93.6944 315.41 93.505 315.115 93.5702 314.816C93.6352 314.517 93.9294 314.329 94.2283 314.396C95.6817 314.711 97.0052 314.791 98.1615 314.631C99.3509 314.468 100.341 313.304 100.368 312.035C100.384 311.294 99.9735 310.558 99.3224 310.163C98.9953 309.964 98.3332 309.69 97.5712 310.107C96.014 310.953 94.7218 312.496 93.7701 313.749C93.5852 313.989 93.2385 314.039 92.9952 313.851C92.7524 313.669 92.7054 313.32 92.8904 313.077C93.9086 311.739 95.301 310.083 97.0423 309.134C97.9538 308.639 98.9948 308.667 99.8975 309.217C100.879 309.814 101.498 310.931 101.474 312.059C101.435 313.876 100.046 315.488 98.3127 315.728C97.8772 315.786 97.4227 315.817 96.9505 315.817" fill="#240448"/>
<path fill-rule="evenodd" clip-rule="evenodd" d="M105.168 322.192L105.137 323.962H88.0172L85.9361 319.754C85.6052 319.085 84.632 319.14 84.379 319.842L82.8973 323.962H78.7344L80.5329 305.283L92.7796 305.322L96.548 313.434L103.983 319.613C104.323 319.895 104.599 320.238 104.796 320.619C105.047 321.1 105.177 321.64 105.168 322.192" fill="#72ACFF"/>
<path fill-rule="evenodd" clip-rule="evenodd" d="M29.9067 322.192L29.9382 323.962H47.0576L49.1383 319.754C49.4696 319.085 50.4428 319.14 50.6958 319.842L52.1774 323.962H56.3401L54.5419 305.283L42.2952 305.322L38.5268 313.434L31.0914 319.613C30.7513 319.895 30.4762 320.238 30.2783 320.619C30.0275 321.1 29.8978 321.64 29.9067 322.192" fill="#72ACFF"/>
<path fill-rule="evenodd" clip-rule="evenodd" d="M55.2127 307.417H41.7164C40.5482 307.417 39.6016 306.469 39.6016 305.302C39.6016 304.133 40.5482 303.187 41.7164 303.187H55.2127C56.3806 303.187 57.3275 304.133 57.3275 305.302C57.3275 306.469 56.3806 307.417 55.2127 307.417" fill="#CFE4FF"/>
<path fill-rule="evenodd" clip-rule="evenodd" d="M93.8562 307.398H79.3375C78.1693 307.398 77.2227 306.45 77.2227 305.283C77.2227 304.116 78.1696 303.168 79.3375 303.168H79.3377L93.8565 303.171C95.0244 303.171 95.9713 304.116 95.971 305.286C95.971 306.452 95.0241 307.398 93.8562 307.398" fill="#CFE4FF"/>
<path fill-rule="evenodd" clip-rule="evenodd" d="M69.4674 237.424C69.3325 237.424 69.1967 237.418 69.0604 237.407C66.2013 237.172 63.9121 234.501 63.9577 231.455L64.0329 226.445C64.0354 226.293 64.1009 226.146 64.2143 226.044C64.3276 225.942 64.4775 225.889 64.6312 225.903L66.6503 226.069C66.9545 226.094 67.1812 226.359 67.156 226.663C67.1311 226.97 66.8621 227.197 66.5597 227.169L65.13 227.053L65.0636 231.471C65.0266 233.948 66.8599 236.116 69.1508 236.304C70.1854 236.39 71.1771 236.052 71.9436 235.358C72.7981 234.582 73.2789 233.467 73.2977 232.22L73.3113 231.308C73.316 231.007 73.5626 230.763 73.864 230.763C73.867 230.763 73.8695 230.763 73.8726 230.763C74.1778 230.769 74.4216 231.02 74.4172 231.325L74.4037 232.237C74.3804 233.771 73.7548 235.206 72.6867 236.177C71.7923 236.987 70.6618 237.424 69.4674 237.424" fill="#CFE4FF"/>
<path fill-rule="evenodd" clip-rule="evenodd" d="M72.0494 177.848L72.0162 185.533L72.0132 186.092L72.0126 186.101L72.0076 187.324L71.9946 189.993C71.9841 192.265 70.137 194.096 67.8673 194.085C65.598 194.075 63.768 192.226 63.7774 189.958L63.826 179.27L63.8335 177.811C63.8335 177.451 63.8833 177.102 63.9715 176.771C64.2894 175.57 65.1379 174.587 66.2494 174.083C66.6182 173.916 67.0155 173.804 67.4316 173.752C67.6058 173.731 67.7833 173.72 67.9611 173.721C70.2288 173.732 72.0599 175.577 72.0494 177.848" fill="#FFBFAA"/>
<path fill-rule="evenodd" clip-rule="evenodd" d="M72.0512 177.848L72.0181 185.533L72.015 186.092L72.0145 186.101L72.0095 187.324C69.0719 187.017 66.3931 185.146 65.1943 182.221L64.823 181.314C64.6253 180.831 64.4865 180.339 64.4063 179.846C64.0615 177.726 64.769 175.581 66.2512 174.083C66.6201 173.916 67.0174 173.804 67.4335 173.752C67.6077 173.731 67.7852 173.72 67.9629 173.721C70.2306 173.732 72.0618 175.577 72.0512 177.848" fill="#240448"/>
<path fill-rule="evenodd" clip-rule="evenodd" d="M74.425 184.831V184.831C77.0151 183.768 78.254 180.807 77.192 178.217L75.5973 174.328C74.1975 170.914 70.2955 169.282 66.8821 170.681C63.4684 172.081 61.8358 175.983 63.2356 179.397L63.6078 180.305C65.3452 184.541 70.188 186.568 74.425 184.831" fill="#FFBFAA"/>
<path fill-rule="evenodd" clip-rule="evenodd" d="M75.3326 174.419C76.3085 176.037 77.3 177.54 78.3891 178.328C78.6835 178.541 78.8029 178.94 78.6169 179.253C78.5005 179.448 78.2917 179.59 78.028 179.596L75.1172 179.67L75.3326 174.419" fill="#FFBFAA"/>
<path fill-rule="evenodd" clip-rule="evenodd" d="M68.0155 180.157C68.0155 180.157 65.8329 175.723 68.838 175.573C75.9629 175.218 76.4334 172.017 76.4354 172.016C76.4658 171.994 75.5791 170.951 75.5274 170.895C74.7707 170.072 73.9028 169.339 72.9343 168.777C69.3274 166.683 64.5608 167.944 61.8547 170.934C58.8529 174.251 59.5079 177.51 60.8638 179.738C62.0006 181.606 64.4447 182.193 66.3444 181.109L68.0155 180.157" fill="#001E57"/>
<path fill-rule="evenodd" clip-rule="evenodd" d="M62.0981 168.262C62.3306 167.471 62.6704 166.709 62.8089 165.897C63.0561 164.448 62.6087 162.896 61.6281 161.8C60.6477 160.705 59.1544 160.09 57.6868 160.176C55.5054 160.304 53.6953 161.832 52.0627 163.285C50.7693 161.622 48.996 160.291 46.9625 159.74C43.9173 158.916 38.9091 160.244 39.2782 164.217C39.4035 165.567 40.1771 166.796 41.1846 167.703C41.4984 167.986 41.8506 168.263 41.9927 168.661C42.1868 169.205 41.9192 169.819 41.5199 170.237C41.1207 170.655 40.6029 170.937 40.1458 171.291C38.8533 172.292 38.0728 173.922 38.1024 175.556C38.132 177.191 38.9716 178.791 40.2996 179.745C41.001 180.249 41.8387 180.584 42.3682 181.287C43.9505 183.389 43.2864 186.41 45.1905 188.435C46.483 189.809 48.5705 190.243 50.4162 189.853C52.262 189.462 53.8861 188.351 55.2369 187.034C56.7004 185.608 57.9489 183.781 58.0167 181.738C58.0756 179.972 57.174 178.203 55.7106 177.213C54.9146 176.674 53.8565 176.192 53.7614 175.236C53.6782 174.4 54.4835 173.684 55.3155 173.565C56.1477 173.445 56.9752 173.763 57.7449 174.1C59.9407 175.064 62.0619 176.253 64.3915 176.82C64.204 176.886 64.0168 176.95 63.8291 177.015C64.0196 177.652 64.992 177.744 65.47 177.282C65.9478 176.82 66.0056 176.067 65.8773 175.415C65.707 174.552 65.2605 173.747 64.6193 173.145C63.791 172.369 62.6248 171.891 62.123 170.872C61.7442 170.103 61.8376 169.184 62.0702 168.358C62.0793 168.326 62.0884 168.294 62.0981 168.262" fill="#001E57"/>
<path fill-rule="evenodd" clip-rule="evenodd" d="M63.5961 178.926C63.8756 180.644 65.4949 181.81 67.213 181.53C68.9308 181.251 70.0969 179.631 69.8172 177.913C69.5376 176.196 67.9183 175.029 66.2005 175.309C64.4825 175.589 63.3166 177.208 63.5961 178.926" fill="#FFBFAA"/>
<path fill-rule="evenodd" clip-rule="evenodd" d="M59.3651 175.6C59.2634 175.6 59.1608 175.573 59.0687 175.514C58.8111 175.35 58.735 175.008 58.899 174.75L61.7655 170.246C61.9295 169.988 62.2712 169.912 62.5289 170.076C62.7869 170.24 62.8626 170.582 62.6987 170.84L59.8321 175.344C59.7268 175.51 59.5479 175.6 59.3651 175.6" fill="#240448"/>
<path fill-rule="evenodd" clip-rule="evenodd" d="M66.2153 180.879L66.2252 181.716L66.2153 180.879" fill="#240448"/>
<path fill-rule="evenodd" clip-rule="evenodd" d="M66.225 182.153C65.9856 182.153 65.7901 181.961 65.7873 181.721L65.7774 180.884C65.7746 180.643 65.9681 180.444 66.2101 180.441C66.2117 180.441 66.2137 180.441 66.2153 180.441C66.4547 180.441 66.6502 180.634 66.653 180.874L66.6629 181.71C66.6657 181.952 66.4719 182.151 66.2302 182.153C66.2283 182.153 66.2267 182.153 66.225 182.153" fill="white"/>
<path fill-rule="evenodd" clip-rule="evenodd" d="M67.701 260.322C67.437 260.322 67.2031 260.134 67.1569 259.863L63.7866 240.269L60.5117 237.33C60.2844 237.128 60.2656 236.777 60.4697 236.55C60.6731 236.323 61.0232 236.304 61.2504 236.509L64.6683 239.575C64.7609 239.658 64.8228 239.771 64.8438 239.893L68.2468 259.678C68.2985 259.976 68.0964 260.264 67.7955 260.313C67.7638 260.322 67.7322 260.322 67.701 260.322" fill="white"/>
<path fill-rule="evenodd" clip-rule="evenodd" d="M59.5032 223.229C59.2704 223.229 59.0537 223.08 58.9776 222.848C58.3827 221.026 58.6915 219.422 59.8961 218.087C60.101 217.86 60.4505 217.843 60.6772 218.048C60.9039 218.253 60.9221 218.601 60.7175 218.828C59.7714 219.875 59.5527 221.045 60.0288 222.505C60.1237 222.795 59.965 223.108 59.6749 223.202C59.618 223.221 59.5599 223.229 59.5032 223.229" fill="#240448"/>
<path fill-rule="evenodd" clip-rule="evenodd" d="M74.2322 223.387C74.1279 223.387 74.0226 223.356 73.9289 223.296C73.6737 223.127 73.6029 222.784 73.7707 222.53C74.5474 221.349 74.5869 220.16 73.8954 218.792C73.758 218.518 73.8675 218.186 74.1401 218.048C74.4124 217.91 74.7453 218.02 74.8827 218.291C75.7467 220.005 75.6834 221.634 74.6947 223.138C74.5886 223.298 74.4122 223.387 74.2322 223.387" fill="#240448"/>
<path fill-rule="evenodd" clip-rule="evenodd" d="M62.3594 194.085H73.2875V188.094H62.3594V194.085Z" fill="#72ACFF"/>
<path fill-rule="evenodd" clip-rule="evenodd" d="M109.638 213.431C109.454 213.431 109.274 213.337 109.169 213.171C109.007 212.911 109.085 212.571 109.344 212.408C110.871 211.451 110.931 208.783 109.477 206.466C108.023 204.146 105.597 203.039 104.07 203.996C103.81 204.158 103.469 204.08 103.307 203.822C103.145 203.563 103.223 203.222 103.482 203.06C105.526 201.778 108.636 203.042 110.414 205.877C112.192 208.714 111.975 212.062 109.931 213.345C109.84 213.403 109.738 213.431 109.638 213.431" fill="#240448"/>
<path fill-rule="evenodd" clip-rule="evenodd" d="M85.6167 225.485C83.4547 225.485 81.3747 224.285 80.3503 222.217L69.3417 199.987C67.9024 197.081 69.0918 193.558 71.9976 192.119C74.9037 190.68 78.4263 191.869 79.8654 194.775L90.8743 217.006C92.3134 219.911 91.1242 223.434 88.2181 224.874C87.3807 225.289 86.4921 225.485 85.6167 225.485" fill="#FFBFAA"/>
<path fill-rule="evenodd" clip-rule="evenodd" d="M115.594 206.071C115.595 207.652 114.678 209.198 113.021 210.077L89.7464 225.576C86.7651 227.379 82.8852 226.425 81.0809 223.445C79.2761 220.464 80.2302 216.583 83.2117 214.78L107.496 202.075C110.017 200.738 113.297 201.445 114.823 203.654C115.345 204.412 115.594 205.247 115.594 206.071" fill="#FFBFAA"/>
<path fill-rule="evenodd" clip-rule="evenodd" d="M107.23 207.359C106.635 207.359 106.042 207.121 105.606 206.649C104.774 205.753 104.828 204.351 105.725 203.521L114.681 195.226C115.578 194.395 116.979 194.448 117.81 195.345C118.64 196.242 118.587 197.643 117.69 198.474L108.734 206.77C108.308 207.163 107.768 207.359 107.23 207.359" fill="#FFBFAA"/>
<path fill-rule="evenodd" clip-rule="evenodd" d="M109.615 207.658C108.905 207.658 108.207 207.318 107.779 206.685C107.094 205.673 107.359 204.296 108.372 203.61L114.351 199.565C115.364 198.88 116.74 199.145 117.425 200.158C118.111 201.171 117.845 202.547 116.832 203.233L110.853 207.279C110.473 207.536 110.041 207.658 109.615 207.658" fill="#FFBFAA"/>
<path fill-rule="evenodd" clip-rule="evenodd" d="M112.61 209.978C111.943 209.978 111.283 209.676 110.847 209.104C110.106 208.133 110.294 206.743 111.267 206.002L115.403 202.852C116.376 202.111 117.765 202.299 118.506 203.272C119.247 204.243 119.059 205.634 118.086 206.375L113.95 209.524C113.549 209.831 113.078 209.978 112.61 209.978" fill="#FFBFAA"/>
<path fill-rule="evenodd" clip-rule="evenodd" d="M106.346 206.82C106.278 206.82 106.21 206.817 106.142 206.812C104.924 206.701 104.027 205.623 104.138 204.406L104.503 200.411C104.615 199.194 105.69 198.298 106.91 198.408C108.128 198.519 109.024 199.597 108.913 200.815L108.548 204.807C108.443 205.958 107.478 206.82 106.346 206.82" fill="#FFBFAA"/>
<path fill-rule="evenodd" clip-rule="evenodd" d="M108.109 213.856C107.522 213.856 106.901 213.721 106.273 213.453C105.005 212.908 103.843 211.869 103.001 210.528C101.223 207.691 101.439 204.34 103.484 203.06C103.742 202.897 104.084 202.976 104.246 203.234C104.408 203.493 104.33 203.834 104.071 203.996C102.544 204.954 102.484 207.619 103.938 209.939C104.662 211.094 105.645 211.979 106.708 212.435C107.702 212.861 108.639 212.85 109.345 212.408C109.604 212.245 109.945 212.325 110.107 212.582C110.27 212.842 110.192 213.182 109.933 213.345C109.391 213.685 108.771 213.856 108.109 213.856" fill="#240448"/>
<path fill-rule="evenodd" clip-rule="evenodd" d="M104.198 208.874C103.881 209.861 102.823 210.403 101.835 210.085C100.847 209.767 100.304 208.711 100.622 207.724C100.94 206.734 101.998 206.192 102.985 206.51C103.973 206.828 104.516 207.885 104.198 208.874" fill="white"/>
<path fill-rule="evenodd" clip-rule="evenodd" d="M105.929 211.401C105.611 212.388 104.553 212.933 103.566 212.615C102.578 212.297 102.035 211.238 102.352 210.251C102.67 209.264 103.728 208.722 104.715 209.037C105.703 209.355 106.246 210.414 105.929 211.401" fill="white"/>
<path fill-rule="evenodd" clip-rule="evenodd" d="M85.4089 213.854C85.2121 213.854 85.0216 213.749 84.9218 213.561C84.7769 213.292 84.8773 212.958 85.1463 212.814L88.0283 211.26C88.2973 211.117 88.6327 211.216 88.7776 211.484C88.9224 211.753 88.8218 212.09 88.5531 212.234L85.6708 213.787C85.5873 213.832 85.4977 213.854 85.4089 213.854" fill="#240448"/>
<path fill-rule="evenodd" clip-rule="evenodd" d="M64.0994 205.294L59.3633 200.495L63.7684 195.709L67.0776 200.636L64.0994 205.294" fill="#44D4F4"/>
<path fill-rule="evenodd" clip-rule="evenodd" d="M64.0994 205.294L59.3633 200.495L63.7684 195.709L67.0776 200.636L64.0994 205.294" fill="#72ACFF"/>
<path fill-rule="evenodd" clip-rule="evenodd" d="M60.1254 200.482L64.0047 204.412L66.4148 200.643L63.6986 196.599L60.1254 200.482ZM64.0976 205.847C63.9502 205.847 63.8084 205.789 63.7039 205.684L58.9681 200.884C58.7607 200.674 58.7549 200.338 58.9545 200.121L63.36 195.335C63.4744 195.21 63.64 195.145 63.809 195.158C63.9776 195.171 64.1313 195.26 64.2256 195.401L67.5348 200.328C67.6576 200.51 67.6603 200.748 67.5417 200.934L64.5635 205.593C64.4728 205.734 64.3227 205.828 64.1554 205.844C64.136 205.847 64.1167 205.847 64.0976 205.847V205.847Z" fill="#72ACFF"/>
<path fill-rule="evenodd" clip-rule="evenodd" d="M66.2633 183.571L66.3023 186.818L66.2633 183.571" fill="#240448"/>
<path fill-rule="evenodd" clip-rule="evenodd" d="M66.3045 187.256C66.0651 187.256 65.8696 187.063 65.8669 186.823L65.8282 183.576C65.8251 183.334 66.0187 183.136 66.2606 183.133C66.2622 183.133 66.2642 183.133 66.2661 183.133C66.5053 183.133 66.7007 183.326 66.7038 183.566L66.7425 186.813C66.7452 187.055 66.5517 187.253 66.3101 187.256C66.3081 187.256 66.3065 187.256 66.3045 187.256" fill="white"/>
<path fill-rule="evenodd" clip-rule="evenodd" d="M551.576 325.452H539.156C538.775 325.452 538.465 325.142 538.465 324.761C538.465 324.379 538.775 324.07 539.156 324.07H551.576C551.957 324.07 552.267 324.379 552.267 324.761C552.267 325.142 551.957 325.452 551.576 325.452" fill="#240448"/>
<path fill-rule="evenodd" clip-rule="evenodd" d="M428.286 325.452H216.168C215.786 325.452 215.477 325.142 215.477 324.761C215.477 324.379 215.786 324.07 216.168 324.07H428.286C428.668 324.07 428.977 324.379 428.977 324.761C428.977 325.142 428.668 325.452 428.286 325.452" fill="#240448"/>
<path fill-rule="evenodd" clip-rule="evenodd" d="M435.773 301.575C439.934 303.909 442.334 307.533 441.137 309.671C439.937 311.811 435.594 311.653 431.43 309.319C428.552 307.705 427.089 304.451 426.459 302.596C426.202 301.835 426.658 301.02 427.443 300.843C429.351 300.411 432.892 299.961 435.773 301.575" fill="#001E57"/>
<path fill-rule="evenodd" clip-rule="evenodd" d="M452.592 302.875C450.242 305.255 447.344 306.206 446.122 305.001C444.898 303.793 445.81 300.884 448.16 298.501C449.786 296.853 452.26 296.469 453.629 296.386C454.193 296.353 454.657 296.812 454.632 297.376C454.569 298.747 454.218 301.227 452.592 302.875" fill="#001E57"/>
<path fill-rule="evenodd" clip-rule="evenodd" d="M442.82 325.314C442.513 325.314 442.267 325.068 442.267 324.761C442.267 315.441 440.815 305.648 437.951 295.656C437.868 295.363 438.037 295.056 438.33 294.97C438.623 294.887 438.93 295.056 439.015 295.352C441.907 305.443 443.373 315.338 443.373 324.761C443.373 325.068 443.124 325.314 442.82 325.314" fill="#240448"/>
<path fill-rule="evenodd" clip-rule="evenodd" d="M437.401 292.482C437.168 292.482 436.95 292.333 436.875 292.098C433.381 281.146 429.41 273.974 429.372 273.902C429.222 273.634 429.316 273.3 429.585 273.15C429.853 273.001 430.187 273.098 430.337 273.363C430.375 273.435 434.398 280.698 437.929 291.76C438.02 292.053 437.86 292.363 437.569 292.457C437.514 292.474 437.456 292.482 437.401 292.482" fill="#240448"/>
<path fill-rule="evenodd" clip-rule="evenodd" d="M439.807 278.965C439.807 283.422 436.19 287.038 431.733 287.038C427.274 287.038 423.66 283.422 423.66 278.965C423.66 274.505 427.274 270.892 431.733 270.892C436.19 270.892 439.807 274.505 439.807 278.965" fill="#CFE4FF"/>
<path fill-rule="evenodd" clip-rule="evenodd" d="M444.538 325.314C444.24 325.314 443.994 325.073 443.988 324.772C443.982 324.523 443.562 299.513 449.883 281.522C449.985 281.235 450.3 281.083 450.588 281.185C450.875 281.285 451.027 281.6 450.925 281.89C444.671 299.693 445.088 324.501 445.094 324.75C445.099 325.057 444.856 325.308 444.552 325.314C444.547 325.314 444.544 325.314 444.538 325.314" fill="#001E57"/>
<path fill-rule="evenodd" clip-rule="evenodd" d="M457.307 283.419L451.598 277.71L443.801 279.8L441.711 287.597L447.42 293.306L455.217 291.216L457.307 283.419" fill="#CFE4FF"/>
<path fill-rule="evenodd" clip-rule="evenodd" d="M527.268 325.452H437.551C437.169 325.452 436.859 325.142 436.859 324.761C436.859 324.379 437.169 324.07 437.551 324.07H527.268C527.65 324.07 527.96 324.379 527.96 324.761C527.96 325.142 527.65 325.452 527.268 325.452" fill="#240448"/>
<path fill-rule="evenodd" clip-rule="evenodd" d="M482.05 18.4637L411.492 18.146L421.222 61.5033L433.483 61.5915L427.381 80.8494L452.085 61.6114L491.776 61.821L482.05 18.4637" fill="#DCE5F7"/>
<path fill-rule="evenodd" clip-rule="evenodd" d="M429.074 73.5119C429.021 73.5119 428.968 73.5114 428.919 73.5103C426.947 73.4713 425.474 72.7585 424.539 71.3922C421.998 67.6893 424.431 60.4715 424.943 59.062C427.08 53.1915 431.028 47.9179 436.06 44.2131C437.55 43.1155 439.151 42.1384 440.697 41.1936C442.911 39.8425 445.201 38.4454 447.136 36.7022C449.481 34.5941 452.381 29.6429 451.734 25.8294C451.435 24.0701 450.39 22.8033 448.626 22.064C446.337 21.1046 444.482 23.2761 443.121 25.2742C442.851 25.6721 442.585 26.0741 442.32 26.4761C440.901 28.6249 439.433 30.8469 437.138 32.3634C434.827 33.8913 432.148 34.622 429.555 35.3292C426.146 36.2593 422.925 37.1382 420.492 39.6827C420.27 39.9135 419.905 39.9216 419.676 39.7012C419.444 39.4806 419.435 39.1145 419.657 38.8839C422.311 36.1072 425.839 35.1445 429.25 34.2136C431.755 33.5307 434.343 32.8243 436.5 31.3985C438.598 30.0125 439.936 27.9851 441.355 25.8388C441.623 25.4324 441.891 25.0256 442.168 24.6234C443.11 23.2363 445.618 19.5505 449.071 20.9976C451.195 21.8873 452.511 23.4915 452.873 25.6361C453.553 29.6335 450.824 34.9388 447.91 37.5618C445.895 39.3763 443.558 40.8019 441.299 42.1807C439.773 43.1124 438.195 44.076 436.746 45.144C431.896 48.7153 428.089 53.7986 426.029 59.4576C424.705 63.0931 423.771 68.229 425.49 70.7383C426.215 71.7942 427.343 72.3225 428.941 72.3543C428.985 72.3552 429.029 72.3554 429.074 72.3554C433.799 72.3554 439.292 67.4568 442.939 64.2045C443.276 63.9034 443.6 63.6145 443.909 63.3433C449.005 58.8524 453.108 53.2637 457.075 47.859L458.079 46.4949C460.006 43.8805 464.803 37.893 467.761 38.7299C468.928 39.0612 469.611 40.3269 469.791 42.4917C469.915 44.0306 469.669 45.5283 469.431 46.9768C469.257 48.0343 469.077 49.1278 469.055 50.1978C469.011 52.2556 469.791 54.0419 470.996 54.643C472.124 55.2062 473.327 54.5689 474.134 53.9347C478.575 50.4485 478.494 44.2518 478.254 41.7494C478.091 40.0645 477.773 38.3583 477.463 36.7083C477.156 35.0586 476.835 33.3524 476.667 31.6424C476.318 28.1062 476.399 21.8727 480.85 19.8527C482.415 19.1424 484.027 19.1734 485.511 19.9426C487.494 20.9683 489.086 23.2703 489.573 25.8073C490.272 29.4629 489.833 33.2025 489.41 36.8192C489.272 37.9973 489.128 39.2157 489.031 40.396C488.732 44.0101 489.451 47.3439 491.058 49.7842C492.891 52.5683 496.604 54.7044 499.648 53.4589C502.424 52.3239 503.419 49.2185 504.384 46.2154C504.777 44.9997 505.144 43.8512 505.625 42.8296C505.764 42.5409 506.109 42.4182 506.397 42.5534C506.684 42.6897 506.809 43.0342 506.673 43.3231C506.223 44.2764 505.866 45.3901 505.487 46.569C504.489 49.6725 503.358 53.1901 500.087 54.5288C496.49 56.0003 492.18 53.5946 490.09 50.4198C488.343 47.7647 487.557 44.1711 487.878 40.3009C487.978 39.1007 488.121 37.8723 488.26 36.6843C488.674 33.155 489.103 29.5052 488.437 26.0246C488.022 23.8561 486.634 21.8248 484.981 20.9694C483.806 20.3603 482.575 20.3393 481.328 20.9058C477.391 22.6922 477.563 28.9298 477.817 31.5287C477.983 33.189 478.295 34.87 478.599 36.4957C478.915 38.1706 479.238 39.9025 479.404 41.6391C479.664 44.3306 479.736 51.0054 474.848 54.8443C473.335 56.0321 471.784 56.3279 470.479 55.6773C468.859 54.8683 467.844 52.7079 467.9 50.1737C467.922 49.0213 468.11 47.8867 468.289 46.789C468.527 45.3464 468.751 43.9833 468.638 42.5866C468.544 41.4627 468.262 40.0739 467.446 39.8422C465.726 39.3542 461.867 43.3037 459.011 47.1805L458.01 48.5433C454.004 53.9974 449.862 59.6371 444.673 64.2106C444.368 64.4807 444.045 64.7677 443.708 65.0677C439.931 68.4369 434.238 73.5111 429.074 73.5119" fill="white"/>
<path fill-rule="evenodd" clip-rule="evenodd" d="M331.364 324.573C331.062 324.573 330.813 324.33 330.811 324.026C330.639 309.955 334.162 293.226 339.572 282.399C339.711 282.125 340.042 282.014 340.316 282.15C340.587 282.288 340.7 282.62 340.562 282.894C335.223 293.577 331.748 310.102 331.917 324.012C331.919 324.319 331.676 324.567 331.369 324.573C331.369 324.573 331.366 324.573 331.364 324.573" fill="#CFE4FF"/>
<path fill-rule="evenodd" clip-rule="evenodd" d="M342.483 288.996L347.949 279.645L338.602 274.179L333.133 283.527L342.483 288.996" fill="#006BFF"/>
<path fill-rule="evenodd" clip-rule="evenodd" d="M334.479 273.604C335.015 275.658 337.116 276.886 339.17 276.349C341.225 275.81 342.455 273.709 341.916 271.655C341.379 269.6 339.275 268.37 337.221 268.909C335.167 269.448 333.939 271.55 334.479 273.604" fill="#72ACFF"/>
<path fill-rule="evenodd" clip-rule="evenodd" d="M339.169 291.52C339.708 293.574 341.809 294.802 343.863 294.265C345.918 293.726 347.145 291.625 346.609 289.571C346.07 287.516 343.968 286.286 341.914 286.825C339.86 287.364 338.632 289.466 339.169 291.52" fill="#72ACFF"/>
<path fill-rule="evenodd" clip-rule="evenodd" d="M350.473 282.96C352.527 282.421 353.757 280.32 353.218 278.265C352.679 276.211 350.578 274.984 348.524 275.52C346.469 276.059 345.242 278.16 345.778 280.215C346.317 282.269 348.419 283.499 350.473 282.96" fill="#72ACFF"/>
<path fill-rule="evenodd" clip-rule="evenodd" d="M332.981 287.541C335.035 287.005 336.265 284.904 335.726 282.849C335.187 280.795 333.086 279.565 331.031 280.104C328.977 280.643 327.75 282.744 328.286 284.799C328.825 286.853 330.926 288.08 332.981 287.541" fill="#72ACFF"/>
<path fill-rule="evenodd" clip-rule="evenodd" d="M216.17 325.452H0.773231C0.391412 325.452 0.0820312 325.142 0.0820312 324.761C0.0820312 324.379 0.391412 324.07 0.773231 324.07H216.17C216.551 324.07 216.861 324.379 216.861 324.761C216.861 325.142 216.551 325.452 216.17 325.452" fill="#240448"/>
<path fill-rule="evenodd" clip-rule="evenodd" d="M500.863 19.2519C500.863 29.4811 492.571 37.7733 482.342 37.7733C472.112 37.7733 463.82 29.4811 463.82 19.2519C463.82 9.02266 472.112 0.730469 482.342 0.730469C492.571 0.730469 500.863 9.02266 500.863 19.2519" fill="#006BFF"/>
<path fill-rule="evenodd" clip-rule="evenodd" d="M473.05 1.44359C472.768 1.44359 472.522 1.23346 472.486 0.946476C472.448 0.635436 472.669 0.351767 472.979 0.312784C473.747 0.216292 474.532 0.165696 475.312 0.163208C475.312 0.163208 475.312 0.163208 475.315 0.163208C475.627 0.163208 475.882 0.416187 475.882 0.728886C475.882 1.04241 475.63 1.29733 475.315 1.29843C474.582 1.30065 473.844 1.3482 473.122 1.43889C473.097 1.44193 473.073 1.44359 473.05 1.44359ZM481.978 2.50721C481.909 2.50721 481.842 2.49532 481.776 2.46988C481.093 2.20971 480.385 1.98936 479.678 1.8149C479.371 1.74025 479.186 1.4328 479.26 1.1284C479.335 0.823995 479.644 0.637371 479.946 0.712574C480.703 0.898092 481.453 1.13255 482.18 1.4093C482.473 1.521 482.619 1.84891 482.509 2.1417C482.42 2.36814 482.205 2.50721 481.978 2.50721ZM466.606 3.50557C466.404 3.50557 466.208 3.39747 466.105 3.20725C465.956 2.93133 466.058 2.58711 466.335 2.43836C467.018 2.06954 467.734 1.7397 468.455 1.45796C468.748 1.34461 469.077 1.48921 469.191 1.78089C469.304 2.07313 469.16 2.40214 468.867 2.51578C468.187 2.78037 467.518 3.09058 466.874 3.43756C466.788 3.48373 466.697 3.50557 466.606 3.50557ZM461.33 7.7512C461.2 7.7512 461.068 7.70586 460.96 7.61379C460.722 7.40975 460.695 7.05115 460.899 6.81366C461.408 6.2242 461.955 5.66018 462.528 5.13708C462.76 4.92585 463.119 4.94272 463.329 5.17441C463.542 5.4061 463.526 5.76497 463.293 5.9762C462.754 6.46833 462.237 6.9989 461.762 7.55352C461.648 7.68402 461.491 7.7512 461.33 7.7512ZM492.163 11.9725C491.951 11.9725 491.746 11.8517 491.649 11.6454C491.34 10.9849 490.986 10.3355 490.596 9.71532C490.427 9.4499 490.507 9.09932 490.773 8.9326C491.038 8.76644 491.389 8.84579 491.555 9.11148C491.97 9.77116 492.349 10.4615 492.678 11.1641C492.81 11.448 492.686 11.7859 492.404 11.9189C492.327 11.9554 492.244 11.9725 492.163 11.9725ZM457.927 13.6065C457.863 13.6065 457.8 13.596 457.736 13.5736C457.44 13.4683 457.288 13.1437 457.393 12.8484C457.653 12.1157 457.963 11.3916 458.311 10.6971C458.452 10.4173 458.792 10.3039 459.074 10.4447C459.354 10.5854 459.467 10.9266 459.326 11.2069C458.997 11.8597 458.707 12.5401 458.461 13.2291C458.38 13.4613 458.159 13.6065 457.927 13.6065ZM493.858 18.5276C493.562 18.5276 493.311 18.2984 493.292 17.9989C493.242 17.2679 493.145 16.5344 493.007 15.8189C492.949 15.5109 493.148 15.2134 493.457 15.1537C493.764 15.0948 494.063 15.2955 494.121 15.603C494.268 16.3641 494.37 17.1438 494.425 17.921C494.444 18.2337 494.209 18.5046 493.897 18.5262C493.883 18.527 493.869 18.5276 493.858 18.5276ZM456.865 20.2951C456.558 20.2951 456.307 20.0504 456.298 19.7421C456.293 19.5793 456.293 19.4159 456.293 19.2519C456.293 18.6357 456.321 18.015 456.381 17.4064C456.409 17.0943 456.686 16.8656 456.998 16.8958C457.31 16.9259 457.54 17.2032 457.509 17.5151C457.454 18.0877 457.427 18.6719 457.427 19.2519C457.427 19.4062 457.429 19.5597 457.432 19.7128C457.44 20.0261 457.194 20.2868 456.879 20.2948C456.876 20.2951 456.871 20.2951 456.865 20.2951ZM493.092 25.2549C493.037 25.2549 492.982 25.2469 492.927 25.23C492.625 25.1382 492.457 24.8208 492.548 24.5211C492.763 23.8222 492.935 23.103 493.062 22.3834C493.117 22.0748 493.41 21.8702 493.72 21.9227C494.03 21.9772 494.234 22.2717 494.179 22.5802C494.046 23.3455 493.861 24.1102 493.634 24.8534C493.56 25.0978 493.336 25.2549 493.092 25.2549ZM458.27 26.9185C458.046 26.9185 457.836 26.7869 457.744 26.5684C457.446 25.851 457.192 25.1072 456.981 24.3577C456.898 24.0558 457.075 23.7431 457.377 23.6593C457.678 23.5747 457.993 23.7525 458.076 24.0547C458.273 24.7594 458.513 25.4586 458.792 26.133C458.914 26.4225 458.776 26.7545 458.485 26.8748C458.416 26.9044 458.342 26.9185 458.27 26.9185ZM489.952 31.2548C489.827 31.2548 489.706 31.2152 489.601 31.1334C489.354 30.9399 489.31 30.5829 489.507 30.3363C489.957 29.7615 490.377 29.153 490.756 28.5273C490.919 28.2591 491.268 28.1731 491.536 28.3357C491.804 28.4977 491.89 28.8466 491.727 29.1148C491.326 29.7797 490.878 30.4267 490.397 31.038C490.286 31.1804 490.12 31.2548 489.952 31.2548ZM461.964 32.5888C461.814 32.5888 461.665 32.5299 461.554 32.4127C461.018 31.8492 460.509 31.2476 460.048 30.6249C459.862 30.3733 459.915 30.0178 460.164 29.8309C460.418 29.6437 460.772 29.6965 460.96 29.9481C461.394 30.534 461.87 31.0997 462.376 31.63C462.591 31.8569 462.583 32.2161 462.356 32.4323C462.246 32.5368 462.105 32.5888 461.964 32.5888ZM484.87 35.7288C484.676 35.7288 484.488 35.6301 484.383 35.4523C484.223 35.1833 484.309 34.8349 484.58 34.674C485.204 34.2994 485.816 33.8819 486.393 33.4329C486.639 33.2407 486.996 33.2847 487.19 33.5327C487.383 33.7801 487.336 34.1365 487.09 34.329C486.476 34.8062 485.827 35.2499 485.16 35.6483C485.069 35.7031 484.969 35.7288 484.87 35.7288ZM467.449 36.5618C467.366 36.5618 467.286 36.5441 467.206 36.5068C466.503 36.1733 465.815 35.7929 465.16 35.376C464.894 35.2079 464.817 34.8573 464.985 34.5927C465.151 34.3278 465.503 34.2493 465.768 34.418C466.384 34.81 467.031 35.1678 467.692 35.4813C467.977 35.6157 468.096 35.9541 467.963 36.2375C467.864 36.4418 467.662 36.5618 467.449 36.5618ZM478.519 38.0761C478.248 38.0761 478.008 37.8806 477.961 37.6039C477.908 37.295 478.116 37.0017 478.422 36.9489C479.144 36.8261 479.863 36.6569 480.562 36.4465C480.864 36.3569 481.182 36.5261 481.27 36.8264C481.361 37.1266 481.19 37.4429 480.891 37.5334C480.148 37.7573 479.382 37.937 478.616 38.0678C478.583 38.0733 478.55 38.0761 478.519 38.0761ZM473.996 38.2898C473.982 38.2898 473.968 38.2895 473.955 38.2884C473.178 38.2312 472.401 38.1253 471.638 37.9741C471.331 37.913 471.132 37.6144 471.192 37.3069C471.253 36.9995 471.552 36.7993 471.859 36.8607C472.575 37.0031 473.308 37.1023 474.037 37.1562C474.35 37.1792 474.585 37.4515 474.563 37.7639C474.541 38.0625 474.292 38.2898 473.996 38.2898V38.2898Z" fill="#240448"/>
<path fill-rule="evenodd" clip-rule="evenodd" d="M473.606 31.7483C472.837 31.6092 472.326 30.8738 472.464 30.1054L472.481 30.0211C472.619 29.2528 473.354 28.7424 474.123 28.8815C474.891 29.0205 475.403 29.756 475.262 30.5246L475.248 30.6089C475.107 31.3772 474.372 31.8873 473.606 31.7483ZM474.632 26.0246C474.054 25.9201 473.661 25.3798 473.741 24.7987L475.829 9.4861C475.964 8.48884 476.904 7.80621 477.894 7.98537C478.884 8.16453 479.525 9.13331 479.304 10.1148L475.895 25.1882C475.765 25.7603 475.207 26.1288 474.632 26.0246V26.0246Z" fill="#240444"/>
<path fill-rule="evenodd" clip-rule="evenodd" d="M199.213 19.2323C196.523 16.7005 199.708 13.1085 202.274 11.996C205.309 10.6796 209.316 11.7723 210.797 14.8653C212.431 18.2701 209.761 21.4414 207.77 23.975C205.381 27.0163 203.769 30.553 206.789 33.8144C208.467 35.6264 211.171 32.9136 209.495 31.1068C207.93 29.4167 209.913 27.3981 211.002 26.0212C212.412 24.2399 213.808 22.458 214.569 20.2873C216.089 15.9518 214.229 11.2481 210.258 8.99229C206.119 6.64165 200.974 7.45202 197.51 10.6136C194.247 13.5915 193.003 18.6431 196.506 21.9401C198.301 23.628 201.013 20.9254 199.213 19.2323" fill="#DCE5F7"/>
<path fill-rule="evenodd" clip-rule="evenodd" d="M209.603 40.1726C209.83 40.5141 210.131 40.8257 210.499 41.0911C211.146 41.5564 211.953 41.8802 212.766 41.8125C216.261 41.5208 214.522 36.4565 211.873 36.0755C210.952 35.9428 210.092 36.3813 209.609 37.0951C208.923 38.1082 208.986 39.2481 209.603 40.1726" fill="#DCE5F7"/>
<path fill-rule="evenodd" clip-rule="evenodd" d="M200.649 45.7038C200.795 43.9551 199.634 41.3899 197.5 42.151C195.519 42.8577 195.087 46.0223 196.435 47.4738C197.912 49.0661 200.483 47.6596 200.649 45.7038" fill="#DCE5F7"/>
<path fill-rule="evenodd" clip-rule="evenodd" d="M195.25 40.0645V40.0645C194.403 40.4403 193.409 40.0961 192.975 39.2768L182.557 19.5873C181.66 17.8911 182.388 15.7893 184.142 15.0113C185.896 14.2333 187.943 15.1053 188.597 16.9093L196.194 37.8499C196.509 38.7214 196.097 39.6888 195.25 40.0645" fill="#DCE5F7"/>
<path fill-rule="evenodd" clip-rule="evenodd" d="M252.488 103.634L255.867 104.936L253.16 110.364L253.298 111.76L252.488 103.634" fill="white"/>
<path fill-rule="evenodd" clip-rule="evenodd" d="M253.301 111.76L254.022 119.018L279.168 111.583L251.645 95.125L253.301 111.76" fill="#006BFF"/>
<path fill-rule="evenodd" clip-rule="evenodd" d="M246.09 111.376L273.832 110.547L252.51 103.634L246.09 111.376" fill="#240448"/>
<path fill-rule="evenodd" clip-rule="evenodd" d="M184.902 89.1793C184.831 89.1793 184.759 89.1701 184.688 89.1511L181.96 88.4239C181.517 88.3059 181.254 87.8513 181.372 87.409C181.49 86.9663 181.945 86.7037 182.387 86.8209L185.115 87.548C185.557 87.6661 185.821 88.1206 185.703 88.5633C185.604 88.9343 185.268 89.1793 184.902 89.1793ZM193.085 91.361C193.015 91.361 192.943 91.3518 192.871 91.3328L190.143 90.6053C189.701 90.4876 189.437 90.0328 189.555 89.5901C189.673 89.1477 190.128 88.8848 190.571 89.0023L193.298 89.7297C193.741 89.8478 194.004 90.3023 193.886 90.745C193.787 91.1157 193.452 91.361 193.085 91.361ZM201.269 93.5424C201.197 93.5424 201.125 93.5333 201.053 93.5142L198.327 92.787C197.885 92.669 197.622 92.2145 197.738 91.7721C197.857 91.3292 198.311 91.066 198.753 91.184L201.482 91.9112C201.924 92.0292 202.187 92.4837 202.071 92.9261C201.971 93.2974 201.637 93.5424 201.269 93.5424ZM209.453 95.7238C209.381 95.7238 209.309 95.7147 209.237 95.6956L206.511 94.9685C206.069 94.8504 205.803 94.3959 205.922 93.9532C206.041 93.5109 206.495 93.2479 206.937 93.3654L209.666 94.0929C210.108 94.2106 210.371 94.6652 210.255 95.1078C210.155 95.4789 209.818 95.7238 209.453 95.7238ZM217.637 97.9055C217.565 97.9055 217.493 97.8961 217.421 97.8773L214.695 97.1502C214.253 97.0321 213.987 96.5776 214.106 96.1349C214.225 95.6923 214.678 95.4291 215.121 95.5471L217.85 96.2743C218.292 96.3921 218.555 96.8469 218.436 97.2892C218.339 97.6603 218.002 97.9055 217.637 97.9055ZM225.821 100.087C225.749 100.087 225.677 100.078 225.605 100.059L222.876 99.3316C222.434 99.2135 222.171 98.759 222.29 98.3164C222.409 97.8737 222.862 97.6111 223.305 97.7286L226.033 98.4557C226.476 98.5738 226.738 99.0283 226.62 99.4709C226.523 99.842 226.186 100.087 225.821 100.087ZM234.004 102.268C233.932 102.268 233.861 102.259 233.789 102.24L231.06 101.513C230.617 101.395 230.355 100.941 230.474 100.498C230.59 100.055 231.046 99.7922 231.488 99.9103L234.217 100.637C234.66 100.755 234.922 101.21 234.803 101.652C234.704 102.023 234.369 102.268 234.004 102.268V102.268Z" fill="#240448"/>
<path fill-rule="evenodd" clip-rule="evenodd" d="M76.4063 23.3997L78.2529 26.8866L81.629 28.7941L78.2529 30.7012L76.4063 34.1885L74.5597 30.7012L71.1836 28.7941L74.5597 26.8866L76.4063 23.3997" fill="#006BFF"/>
<path fill-rule="evenodd" clip-rule="evenodd" d="M516.693 129.813C515.083 129.813 513.781 128.509 513.781 126.902C513.781 125.294 515.083 123.991 516.693 123.991C518.299 123.991 519.604 125.294 519.604 126.902C519.604 128.509 518.299 129.813 516.693 129.813" fill="#DCE5F7"/>
<path fill-rule="evenodd" clip-rule="evenodd" d="M505.681 129.813C504.075 129.813 502.77 128.509 502.77 126.902C502.77 125.294 504.075 123.991 505.681 123.991C507.29 123.991 508.592 125.294 508.592 126.902C508.592 128.509 507.29 129.813 505.681 129.813" fill="#DCE5F7"/>
<path fill-rule="evenodd" clip-rule="evenodd" d="M505.681 117.898C504.075 117.898 502.77 116.595 502.77 114.987C502.77 113.38 504.075 112.077 505.681 112.077C507.29 112.077 508.592 113.38 508.592 114.987C508.592 116.595 507.29 117.898 505.681 117.898" fill="#DCE5F7"/>
<path fill-rule="evenodd" clip-rule="evenodd" d="M505.681 140.859C504.075 140.859 502.77 139.555 502.77 137.948C502.77 136.34 504.075 135.037 505.681 135.037C507.29 135.037 508.592 136.34 508.592 137.948C508.592 139.555 507.29 140.859 505.681 140.859" fill="#DCE5F7"/>
<path fill-rule="evenodd" clip-rule="evenodd" d="M494.673 129.813C493.064 129.813 491.762 128.509 491.762 126.902C491.762 125.294 493.064 123.991 494.673 123.991C496.279 123.991 497.584 125.294 497.584 126.902C497.584 128.509 496.279 129.813 494.673 129.813" fill="#DCE5F7"/>
<path fill-rule="evenodd" clip-rule="evenodd" d="M231.859 71.4618C231.712 71.4618 231.571 71.4046 231.463 71.2973C231.311 71.1428 231.264 70.9128 231.342 70.7098L235.188 60.7289L224.994 64.3784C224.795 64.45 224.573 64.4014 224.421 64.2546C224.269 64.1078 224.217 63.8877 224.28 63.687L228.057 52.0767C228.151 51.7864 228.466 51.6274 228.754 51.722C229.044 51.8163 229.204 52.1284 229.11 52.4187L225.682 62.9576L235.951 59.2807C236.155 59.2077 236.382 59.2602 236.534 59.4151C236.683 59.5699 236.73 59.7985 236.653 60.0001L232.815 69.9636L242.885 66.2231C243.172 66.1169 243.49 66.2626 243.595 66.5491C243.703 66.8352 243.557 67.1535 243.269 67.2599L232.049 71.4273C231.989 71.4505 231.922 71.4618 231.859 71.4618" fill="#CFE4FF"/>
<path fill-rule="evenodd" clip-rule="evenodd" d="M330.481 243.423L332.327 246.91L335.703 248.817L332.327 250.725L330.481 254.212L328.634 250.725L325.258 248.817L328.634 246.91L330.481 243.423" fill="#006BFF"/>
<path fill-rule="evenodd" clip-rule="evenodd" d="M22.9203 132.996C22.3953 132.996 21.8578 133.258 21.5584 133.685C21.1965 134.2 21.179 134.961 21.5169 135.492C21.8744 136.055 22.5949 136.448 23.7199 136.693C24.2693 136.813 24.8101 136.885 25.3348 136.911C25.3616 136.766 25.3813 136.62 25.3926 136.473C25.4695 135.494 25.1604 134.604 24.4747 133.83C24.2106 133.531 23.7829 133.15 23.2438 133.031C23.1379 133.007 23.0292 132.996 22.9203 132.996ZM18.2937 144.828C17.8627 144.828 17.4988 144.495 17.467 144.059C17.4341 143.602 17.7778 143.205 18.2345 143.172C19.5575 143.076 21.126 142.376 22.4307 141.3C23.2665 140.61 24.1584 139.629 24.7451 138.531C24.2914 138.487 23.831 138.415 23.3668 138.314C21.7867 137.969 20.724 137.337 20.1165 136.382C19.4237 135.291 19.458 133.79 20.2003 132.732C20.9424 131.674 22.3419 131.131 23.6038 131.411C24.374 131.582 25.1048 132.039 25.7169 132.73C26.7122 133.855 27.1596 135.158 27.0465 136.603C27.0407 136.676 27.0335 136.75 27.0247 136.824C27.3951 136.763 27.7515 136.676 28.0913 136.56C32.1288 135.192 32.6212 130.072 31.6814 126.873C31.6496 126.765 31.6159 126.657 31.5797 126.549C31.2728 125.637 30.8492 124.827 30.3203 124.14C30.0408 123.777 30.1088 123.256 30.4718 122.976C30.8343 122.697 31.3554 122.765 31.635 123.128C32.2761 123.961 32.7862 124.934 33.1517 126.02C33.1946 126.147 33.2352 126.276 33.2731 126.406C34.6063 130.943 33.2316 136.569 28.6241 138.132C27.9777 138.351 27.287 138.49 26.5663 138.549C25.9821 139.983 24.9088 141.405 23.4865 142.579C21.9031 143.886 20.0325 144.705 18.3542 144.826C18.3338 144.828 18.3136 144.828 18.2937 144.828V144.828Z" fill="#240448"/>
<path fill-rule="evenodd" clip-rule="evenodd" d="M364.11 14.6753C364.342 14.7262 364.577 14.7596 364.812 14.7734C365.871 14.8354 366.825 14.4859 367.643 13.7325C367.967 13.435 368.379 12.9517 368.5 12.3379C368.647 11.6155 368.31 10.7924 367.699 10.381C367.087 9.96932 366.197 9.966 365.583 10.373C364.964 10.7838 364.547 11.5699 364.306 12.7756C364.179 13.4248 364.113 14.0615 364.11 14.6753ZM371.431 22.4599C368.003 22.4599 364.677 20.9453 363.493 17.6662C363.253 16.9952 363.098 16.2717 363.037 15.5127C361.583 14.991 360.115 13.9468 358.898 12.5284C357.599 11.0128 356.766 9.21453 356.62 7.59519C356.59 7.29078 356.813 7.02177 357.118 6.99384C357.43 6.96647 357.693 7.19014 357.72 7.494C357.848 8.8905 358.583 10.4631 359.739 11.8085C360.54 12.7446 361.715 13.7447 363.012 14.3131C363.034 13.7411 363.103 13.1546 363.222 12.5608C363.521 11.0506 364.093 10.0335 364.972 9.4512C365.959 8.79732 367.334 8.8023 368.315 9.46336C369.299 10.1247 369.819 11.3968 369.584 12.5569C369.44 13.273 369.028 13.9609 368.39 14.5464C367.342 15.5105 366.117 15.9593 364.748 15.8774C364.56 15.8664 364.372 15.8448 364.179 15.8136C364.248 16.332 364.367 16.8271 364.533 17.2911C365.901 21.0863 370.743 22.0885 374.633 20.8651C374.743 20.83 374.854 20.7927 374.964 20.7534C375.899 20.4186 376.728 19.9646 377.428 19.4036C377.666 19.2129 378.014 19.251 378.205 19.4899C378.396 19.7282 378.357 20.076 378.119 20.2671C377.323 20.9047 376.386 21.4186 375.338 21.7944C375.213 21.8389 375.089 21.8804 374.964 21.9199C373.831 22.2763 372.625 22.4599 371.431 22.4599V22.4599Z" fill="#CFE4FF"/>
</svg>
