<svg width="460" height="299" viewBox="0 0 460 299" fill="none" xmlns="http://www.w3.org/2000/svg">
<path fill-rule="evenodd" clip-rule="evenodd" d="M188.05 178.35H136.578V143.271H137.308V177.621H188.05V178.35" fill="#B6C3D7"/>
<path fill-rule="evenodd" clip-rule="evenodd" d="M203.846 117.722H136.578V75.9744H193.711V76.7036H137.308V116.992H203.116V111.669H203.846V117.722" fill="#B6C3D7"/>
<path fill-rule="evenodd" clip-rule="evenodd" d="M304.803 178.35H237.535V109.156H304.803V119.265H304.072V109.885H238.266V177.62H304.072V143.271H304.803V178.35" fill="#B6C3D7"/>
<path fill-rule="evenodd" clip-rule="evenodd" d="M291.032 97.2126H237.535V75.9744H291.032C291.234 75.9744 291.398 76.1375 291.398 76.3389C291.398 76.5405 291.234 76.7036 291.032 76.7036H238.266V96.4832H291.032C291.234 96.4832 291.398 96.6465 291.398 96.8479C291.398 97.0493 291.234 97.2126 291.032 97.2126" fill="#B6C3D7"/>
<path fill-rule="evenodd" clip-rule="evenodd" d="M40.1055 166.825H50.1207V131.052H40.1055V166.825Z" fill="#E2E8EF"/>
<path fill-rule="evenodd" clip-rule="evenodd" d="M50.1211 166.825H64.6358V131.052H50.1211V166.825Z" fill="#B6C3D7"/>
<path fill-rule="evenodd" clip-rule="evenodd" d="M60.7188 166.825H70.734V131.052H60.7188V166.825Z" fill="#E2E8EF"/>
<path fill-rule="evenodd" clip-rule="evenodd" d="M70.7344 166.825H85.2491V131.052H70.7344V166.825Z" fill="#B6C3D7"/>
<path fill-rule="evenodd" clip-rule="evenodd" d="M61.2145 278.231L60.2171 278.217C60.2224 277.809 60.6111 237.287 48.3711 223.417L49.1192 222.758C54.376 228.713 58.009 239.869 59.9174 255.912C61.3336 267.819 61.2161 278.127 61.2145 278.231" fill="#E2E8EF"/>
<path fill-rule="evenodd" clip-rule="evenodd" d="M62.9818 275.634L61.9844 275.609C62.0192 274.229 62.9544 241.701 73.3032 232.354L73.9719 233.093C63.9398 242.155 62.9901 275.3 62.9818 275.634" fill="#E2E8EF"/>
<path fill-rule="evenodd" clip-rule="evenodd" d="M63.0945 275.664C63.0108 274.657 63.3134 268.427 65.0971 261.939C66.7438 255.949 70.0952 248.244 76.709 245.562L77.0839 246.489C65.4171 251.219 63.8933 273.231 64.0886 275.581L63.0945 275.664" fill="#E2E8EF"/>
<path fill-rule="evenodd" clip-rule="evenodd" d="M59.2143 274.881C59.2101 274.713 58.718 258.046 51.7339 251.594C49.7836 249.793 47.4802 248.952 44.8864 249.095L44.832 248.099C47.7047 247.94 50.2556 248.871 52.4117 250.864C59.7055 257.601 60.1944 274.153 60.2117 274.856L59.2143 274.881" fill="#E2E8EF"/>
<path fill-rule="evenodd" clip-rule="evenodd" d="M292.318 215.323H269.465L278.183 186.721H301.037L292.318 215.323" fill="#B6C3D7"/>
<path fill-rule="evenodd" clip-rule="evenodd" d="M305.364 215.323H299.77L291.379 186.721H296.973L305.364 215.323" fill="#B6C3D7"/>
<path fill-rule="evenodd" clip-rule="evenodd" d="M287.529 215.323H264.676L273.394 186.721H296.247L287.529 215.323" fill="#E2E8EF"/>
<path fill-rule="evenodd" clip-rule="evenodd" d="M272.219 298.13H272.949V249.675H272.219V298.13Z" fill="#B6C3D7"/>
<path fill-rule="evenodd" clip-rule="evenodd" d="M306.629 298.13H307.357V249.675H306.629V298.13Z" fill="#B6C3D7"/>
<path fill-rule="evenodd" clip-rule="evenodd" d="M395.016 298.13H395.746V249.675H395.016V298.13Z" fill="#B6C3D7"/>
<path fill-rule="evenodd" clip-rule="evenodd" d="M429.426 298.13H430.156V249.675H429.426V298.13Z" fill="#B6C3D7"/>
<path fill-rule="evenodd" clip-rule="evenodd" d="M286.016 261.4H440.821V215.323H286.016V261.4Z" fill="#B6C3D7"/>
<path fill-rule="evenodd" clip-rule="evenodd" d="M258.555 261.4H413.36V215.323H258.555V261.4Z" fill="#E2E8EF"/>
<path fill-rule="evenodd" clip-rule="evenodd" d="M267.383 253.447H404.535V223.276H267.383V253.447ZM266.652 254.175H405.266V222.548H266.652V254.175Z" fill="#B6C3D7"/>
<path fill-rule="evenodd" clip-rule="evenodd" d="M325.488 196.271H433.788V130.295H325.488V196.271Z" fill="#B6C3D7"/>
<path fill-rule="evenodd" clip-rule="evenodd" d="M327.116 194.639H432.153V131.928H327.116V194.639ZM323.852 197.904H435.418V128.662H323.852V197.904Z" fill="#B6C3D7"/>
<path fill-rule="evenodd" clip-rule="evenodd" d="M320.094 196.165H428.396V130.188H320.094V196.165Z" fill="#E2E8EF"/>
<path fill-rule="evenodd" clip-rule="evenodd" d="M321.728 194.531H426.763V131.821H321.728V194.531ZM318.461 197.798H430.028V128.555H318.461V197.798Z" fill="#B6C3D7"/>
<path fill-rule="evenodd" clip-rule="evenodd" d="M114.896 151.56C114.595 151.56 114.352 151.316 114.352 151.016V120.015C114.352 119.714 114.595 119.47 114.896 119.47C115.197 119.47 115.44 119.714 115.44 120.015V151.016C115.44 151.316 115.197 151.56 114.896 151.56" fill="#192331"/>
<path fill-rule="evenodd" clip-rule="evenodd" d="M313.756 281.263L297.941 269.697L322.168 267.812L331.253 282.215C326.292 286.134 320.947 284.807 313.756 281.263" fill="#C57864"/>
<path fill-rule="evenodd" clip-rule="evenodd" d="M186.586 143.271L124.787 137.324L114.895 123.463L186.586 117.517V143.271" fill="#C57864"/>
<path fill-rule="evenodd" clip-rule="evenodd" d="M249.727 117.517L326.438 126.649V135.509L249.727 143.271V117.517" fill="#C57864"/>
<path fill-rule="evenodd" clip-rule="evenodd" d="M167.768 145.86V145.86C165.147 145.86 163.023 143.736 163.023 141.115V119.404C163.023 116.783 165.147 114.659 167.768 114.659C170.388 114.659 172.511 116.783 172.511 119.404V141.115C172.511 143.736 170.388 145.86 167.768 145.86" fill="#006BFF"/>
<path fill-rule="evenodd" clip-rule="evenodd" d="M192.771 188.127C192.771 188.127 165.376 219.025 165.367 219.036C165.863 218.454 164.026 218.949 165.367 219.036C175.592 219.702 197.807 221.239 208.053 221.085C212.595 221.016 217.007 220.467 221.433 221.557C226.135 222.711 239.54 226.859 243.394 229.951C247.625 233.347 239.084 222.626 243.346 221.875L261.748 218.822L244.318 188.127H192.771" fill="#001E57"/>
<path fill-rule="evenodd" clip-rule="evenodd" d="M266.984 117.79C234.036 114.288 202.725 114.179 173.047 117.454C171.184 117.659 169.636 118.992 169.172 120.808C167.619 126.893 167.854 133.352 169.401 140.084C169.795 141.801 171.15 143.125 172.872 143.496C179.072 144.83 184.959 145.192 190.256 143.708C189.528 159.096 190.283 173.933 192.77 188.127C207.342 192.24 224.526 192.24 244.317 188.127C246.92 173.875 247.648 159.018 246.888 143.68C253.978 145.631 260.523 144.478 266.984 142.843C269.709 135.828 269.751 127.498 266.984 117.79" fill="#006BFF"/>
<path fill-rule="evenodd" clip-rule="evenodd" d="M209.811 108.205H206.413C204.348 108.205 202.676 106.532 202.676 104.469V86.0591C202.676 81.1301 206.673 77.1345 211.601 77.1345H219.094C224.022 77.1345 228.017 81.1301 228.017 86.0591V89.9978C228.017 100.053 219.866 108.205 209.811 108.205" fill="#C57864"/>
<path fill-rule="evenodd" clip-rule="evenodd" d="M207.342 114.093L206.672 124.438L208.504 123.21L211.476 114.093H207.342" fill="#FFFFFE"/>
<path fill-rule="evenodd" clip-rule="evenodd" d="M197.498 76.3746C197.669 75.4041 198.093 74.436 198.851 73.8377C200.583 72.4661 202.574 74.0614 204.055 75.0191C207.253 77.0874 211.221 76.9805 214.774 75.9401C218.736 74.78 223.102 72.2783 227.3 73.8072C229.607 74.6471 231.547 76.5458 231.703 79.0981C232.012 84.1407 227.482 88.7733 223.043 90.4228C221.395 91.0345 219.557 91.2333 217.872 90.7382C216.211 90.2504 214.783 89.2063 213.011 89.1162C211.534 89.0413 210.048 89.2943 208.585 89.468C205.645 89.8177 202.707 89.7622 200.848 87.0949C198.984 84.4225 197.381 80.6193 197.411 77.328C197.413 77.0188 197.443 76.6965 197.498 76.3746" fill="#001E57"/>
<path fill-rule="evenodd" clip-rule="evenodd" d="M219.739 91.3036C219.716 91.0878 219.695 90.8719 219.676 90.6562C219.428 87.726 218.78 82.2077 222.038 80.2159C224.146 78.9272 226.814 80.87 228.326 82.0803C238.836 90.5007 227.943 108.962 223.476 102.065C221.294 98.6944 220.139 94.9831 219.739 91.3036" fill="#001E57"/>
<path fill-rule="evenodd" clip-rule="evenodd" d="M281.574 238.726H299.306V237.996H281.574V238.726Z" fill="#B6C3D7"/>
<path fill-rule="evenodd" clip-rule="evenodd" d="M203.007 92.9883L200.25 99.107C200.031 99.5897 200.383 100.136 200.913 100.136H203.42L203.007 92.9883" fill="#C57864"/>
<path fill-rule="evenodd" clip-rule="evenodd" d="M207.391 93.7071C207.391 94.1039 207.068 94.4255 206.672 94.4255C206.276 94.4255 205.953 94.1039 205.953 93.7071C205.953 93.3102 206.276 92.9883 206.672 92.9883C207.068 92.9883 207.391 93.3102 207.391 93.7071" fill="#192331"/>
<path fill-rule="evenodd" clip-rule="evenodd" d="M222.135 102.586L225.525 115.256L207.344 125.6L211.691 105.23L222.135 102.586" fill="#C57864"/>
<path fill-rule="evenodd" clip-rule="evenodd" d="M204.94 101.56C204.753 101.56 204.594 101.419 204.576 101.23C204.557 101.03 204.705 100.852 204.905 100.833C205.691 100.758 205.829 100.373 205.866 100.09C205.891 99.8901 206.073 99.7489 206.274 99.7745C206.474 99.8003 206.615 99.983 206.589 100.183C206.488 100.98 205.914 101.469 204.974 101.559C204.963 101.56 204.951 101.56 204.94 101.56" fill="#192331"/>
<path fill-rule="evenodd" clip-rule="evenodd" d="M203.687 91.701C203.461 91.701 203.256 91.8044 203.122 91.9843C202.986 92.1645 202.947 92.3915 203.012 92.6067L203.479 94.1669C203.903 95.5894 205.189 96.5451 206.673 96.5451C208.134 96.5451 209.447 95.5673 209.866 94.1669L210.334 92.6067C210.398 92.3915 210.357 92.1645 210.223 91.9843C210.09 91.8044 209.885 91.701 209.659 91.701H203.687ZM206.673 97.1506C204.917 97.1506 203.401 96.0214 202.899 94.3406L202.431 92.7801C202.311 92.3797 202.385 91.9581 202.636 91.6228C202.885 91.2876 203.267 91.0955 203.687 91.0955H209.659C210.078 91.0955 210.461 91.2876 210.709 91.6228C210.958 91.9581 211.034 92.3797 210.914 92.7801L210.447 94.3406C209.951 95.9951 208.398 97.1506 206.673 97.1506V97.1506Z" fill="#FFFFFE"/>
<path fill-rule="evenodd" clip-rule="evenodd" d="M218.542 93.146H210.575C210.409 93.146 210.273 93.0105 210.273 92.8433C210.273 92.676 210.409 92.5405 210.575 92.5405H218.542C218.708 92.5405 218.844 92.676 218.844 92.8433C218.844 93.0105 218.708 93.146 218.542 93.146" fill="#FFFFFE"/>
<path fill-rule="evenodd" clip-rule="evenodd" d="M219.7 98.5408V98.5408C217.601 98.5408 215.898 96.8391 215.898 94.7397V92.6739C215.898 90.5745 217.601 88.8728 219.7 88.8728C221.799 88.8728 223.502 90.5745 223.502 92.6739V94.7397C223.502 96.8391 221.799 98.5408 219.7 98.5408" fill="#C57864"/>
<path fill-rule="evenodd" clip-rule="evenodd" d="M222.345 94.7902C222.145 94.7902 221.981 94.6269 221.981 94.4255V92.9885C221.981 91.7315 220.958 90.7087 219.702 90.7087C219.5 90.7087 219.336 90.5456 219.336 90.3442C219.336 90.1428 219.5 89.9795 219.702 89.9795C221.361 89.9795 222.711 91.3294 222.711 92.9885V94.4255C222.711 94.6269 222.548 94.7902 222.345 94.7902" fill="#192331"/>
<path fill-rule="evenodd" clip-rule="evenodd" d="M211.052 108.528C210.861 108.528 210.702 108.381 210.688 108.188C210.675 107.987 210.827 107.813 211.027 107.8C215.048 107.529 218.9 105.876 221.874 103.145C222.022 103.009 222.254 103.019 222.39 103.168C222.526 103.316 222.517 103.547 222.367 103.683C219.271 106.525 215.262 108.246 211.078 108.527C211.069 108.528 211.059 108.528 211.052 108.528" fill="#192331"/>
<path fill-rule="evenodd" clip-rule="evenodd" d="M145.234 283.648H163.923V265.907H145.234V283.648Z" fill="#C57864"/>
<path fill-rule="evenodd" clip-rule="evenodd" d="M142.281 273.595H167.072V206.747H142.281V273.595Z" fill="#001E57"/>
<path fill-rule="evenodd" clip-rule="evenodd" d="M207.341 219.143H154.676C147.831 219.143 142.281 213.592 142.281 206.747C142.281 199.902 147.831 194.352 154.676 194.352H207.341C214.189 194.352 219.737 199.902 219.737 206.747C219.737 213.592 214.189 219.143 207.341 219.143" fill="#001E57"/>
<path fill-rule="evenodd" clip-rule="evenodd" d="M333.154 270.803L235.306 191.712L220.73 211.765L302.801 277.627L333.154 270.803" fill="#001E57"/>
<path fill-rule="evenodd" clip-rule="evenodd" d="M115.606 124.946H105.003C103.817 124.946 102.855 123.984 102.855 122.798C102.855 121.612 103.817 120.651 105.003 120.651H115.606C116.792 120.651 117.753 121.612 117.753 122.798C117.753 123.984 116.792 124.946 115.606 124.946" fill="#C57864"/>
<path fill-rule="evenodd" clip-rule="evenodd" d="M115.605 128.927H103.819C102.633 128.927 101.672 127.966 101.672 126.78C101.672 125.594 102.633 124.632 103.819 124.632H115.605C116.791 124.632 117.753 125.594 117.753 126.78C117.753 127.966 116.791 128.927 115.605 128.927" fill="#C57864"/>
<path fill-rule="evenodd" clip-rule="evenodd" d="M115.606 133.2H105.003C103.817 133.2 102.855 132.238 102.855 131.052C102.855 129.866 103.817 128.905 105.003 128.905H115.606C116.792 128.905 117.753 129.866 117.753 131.052C117.753 132.238 116.792 133.2 115.606 133.2" fill="#C57864"/>
<path fill-rule="evenodd" clip-rule="evenodd" d="M115.603 137.327H105.936C104.75 137.327 103.789 136.365 103.789 135.179C103.789 133.993 104.75 133.032 105.936 133.032H115.603C116.788 133.032 117.75 133.993 117.75 135.179C117.75 136.365 116.788 137.327 115.603 137.327" fill="#C57864"/>
<path fill-rule="evenodd" clip-rule="evenodd" d="M107.676 121.724C107.676 121.724 109.957 116.49 116.265 117.698C122.573 118.906 124.788 127.338 124.788 127.338V137.324H109.711L107.676 121.724" fill="#C57864"/>
<path fill-rule="evenodd" clip-rule="evenodd" d="M322.638 135.28C325.668 136.131 328.956 136.25 332.027 135.545C333.541 135.197 334.994 134.635 336.328 133.834C337.997 132.832 339.022 131.266 340.983 130.732C342.648 130.279 344.441 130.182 346.141 129.834C347.805 129.494 351.8 129.024 353.482 128.804C354.744 128.639 355.712 127.604 355.79 126.334C353.196 126.119 348.291 125.905 345.697 125.683C344.409 125.572 343.116 125.427 341.826 125.343C340.764 125.274 339.662 125.439 338.642 125.06C336.874 124.404 335.57 123.808 333.628 124.064C332.679 124.189 331.877 124.791 330.937 124.937C329.93 125.093 328.87 124.932 327.873 124.787C326.818 124.635 325.769 124.388 324.698 124.389C322.82 124.39 320.975 124.902 319.226 125.549C318.491 125.821 308.104 129.951 308.038 128.905C307.916 126.986 306.676 125.316 304.888 124.605L303.879 124.203L304.347 130.675L320.758 126.17C321.205 127.365 320.942 128.708 320.078 129.645L315.98 133.41L322.638 135.28" fill="#C57864"/>
<path fill-rule="evenodd" clip-rule="evenodd" d="M143.141 280.192C150.017 283.044 157.322 283.327 165.15 280.484C166.145 280.123 167.195 280.874 167.195 281.931V293.615C167.195 296.108 165.173 298.131 162.678 298.131H158.15C157.243 298.131 156.427 297.582 156.085 296.741L155.855 296.179C155.665 295.711 155.21 295.405 154.706 295.405H151.045C150.525 295.405 150.061 295.73 149.881 296.216L149.537 297.149C149.319 297.739 148.757 298.131 148.127 298.131H120.621C119.208 298.131 118.241 296.702 118.766 295.391C120.136 291.965 123.029 289.38 126.585 288.403L128.515 287.871C131.737 286.986 134.745 285.452 137.355 283.364L140.943 280.493C141.564 279.996 142.406 279.885 143.141 280.192" fill="#192331"/>
<path fill-rule="evenodd" clip-rule="evenodd" d="M126.537 289.931C126.495 289.931 126.452 289.924 126.41 289.908L125.097 289.417C124.908 289.348 124.812 289.138 124.883 288.949C124.953 288.76 125.163 288.664 125.352 288.735L126.665 289.226C126.853 289.295 126.949 289.504 126.879 289.693C126.824 289.841 126.685 289.931 126.537 289.931" fill="#72ACFF"/>
<path fill-rule="evenodd" clip-rule="evenodd" d="M144.515 287.793C144.419 287.793 144.323 287.756 144.252 287.68C144.113 287.534 144.117 287.304 144.263 287.164C144.909 286.546 145.499 285.862 146.018 285.131C146.134 284.968 146.362 284.929 146.526 285.046C146.69 285.161 146.729 285.389 146.612 285.553C146.067 286.323 145.446 287.041 144.767 287.691C144.697 287.758 144.606 287.793 144.515 287.793ZM139.911 290.772C139.767 290.772 139.63 290.686 139.573 290.544C139.497 290.357 139.587 290.145 139.774 290.069C140.603 289.735 141.405 289.315 142.156 288.829C142.325 288.721 142.551 288.769 142.661 288.938C142.77 289.106 142.722 289.332 142.553 289.442C141.762 289.954 140.92 290.391 140.048 290.746C140.003 290.765 139.957 290.772 139.911 290.772ZM131.785 291.608C131.764 291.608 131.743 291.606 131.721 291.603C130.795 291.44 129.879 291.196 128.997 290.873C128.808 290.804 128.711 290.594 128.78 290.405C128.849 290.216 129.059 290.12 129.248 290.189C130.089 290.495 130.963 290.73 131.847 290.885C132.045 290.919 132.178 291.108 132.143 291.306C132.112 291.484 131.958 291.608 131.785 291.608ZM134.53 291.838C134.33 291.838 134.167 291.675 134.166 291.474C134.165 291.274 134.327 291.11 134.528 291.108C135.424 291.103 136.323 291.011 137.2 290.838C137.399 290.799 137.59 290.928 137.629 291.126C137.668 291.322 137.539 291.516 137.342 291.555C136.42 291.737 135.475 291.831 134.532 291.838C134.532 291.838 134.531 291.838 134.53 291.838V291.838Z" fill="#72ACFF"/>
<path fill-rule="evenodd" clip-rule="evenodd" d="M147.868 283.422C147.798 283.422 147.727 283.401 147.664 283.36C147.497 283.244 147.454 283.019 147.567 282.853L148.354 281.691C148.467 281.526 148.693 281.482 148.86 281.595C149.027 281.708 149.07 281.936 148.957 282.102L148.17 283.261C148.1 283.366 147.985 283.422 147.868 283.422" fill="#72ACFF"/>
<path fill-rule="evenodd" clip-rule="evenodd" d="M157.251 294.131C157.201 294.131 157.151 294.122 157.102 294.101C156.918 294.018 156.836 293.801 156.919 293.617C158.069 291.06 160.785 288.009 167.193 288.009C167.395 288.009 167.558 288.173 167.558 288.373C167.558 288.576 167.395 288.739 167.193 288.739C161.175 288.739 158.646 291.555 157.584 293.916C157.523 294.052 157.39 294.131 157.251 294.131" fill="#72ACFF"/>
<path fill-rule="evenodd" clip-rule="evenodd" d="M157.252 294.131H119.564C119.363 294.131 119.199 293.97 119.199 293.767C119.199 293.566 119.363 293.403 119.564 293.403H157.252C157.453 293.403 157.616 293.566 157.616 293.767C157.616 293.97 157.453 294.131 157.252 294.131" fill="#72ACFF"/>
<path fill-rule="evenodd" clip-rule="evenodd" d="M141.889 283.728H137.357C137.155 283.728 136.992 283.565 136.992 283.364C136.992 283.162 137.155 283 137.357 283H141.889C142.09 283 142.254 283.162 142.254 283.364C142.254 283.565 142.09 283.728 141.889 283.728" fill="#72ACFF"/>
<path fill-rule="evenodd" clip-rule="evenodd" d="M137.354 286.037H133.876C133.675 286.037 133.512 285.873 133.512 285.673C133.512 285.47 133.675 285.306 133.876 285.306H137.354C137.556 285.306 137.719 285.47 137.719 285.673C137.719 285.873 137.556 286.037 137.354 286.037" fill="#72ACFF"/>
<path fill-rule="evenodd" clip-rule="evenodd" d="M314.152 280.542C319.899 281.867 324.972 282.046 329.08 280.595C329.946 280.288 330.912 280.562 331.492 281.277L335.907 286.719C336.522 287.477 337.248 288.14 338.061 288.684L341.174 290.767C342.699 291.788 344.047 293.05 345.169 294.506L346.362 296.057C347.014 296.905 346.411 298.13 345.342 298.13H329.626C327.93 298.13 326.278 297.589 324.914 296.582C324.705 296.43 324.454 296.347 324.195 296.347H322.898C322.525 296.347 322.249 296.693 322.332 297.057C322.456 297.607 322.037 298.13 321.474 298.13H316.857C316.447 298.13 316.09 297.845 316 297.444L312.553 282.141C312.337 281.182 313.194 280.321 314.152 280.542" fill="#192331"/>
<path fill-rule="evenodd" clip-rule="evenodd" d="M329.198 283.791H324.391C324.191 283.791 324.027 283.627 324.027 283.427C324.027 283.224 324.191 283.062 324.391 283.062H329.198C329.398 283.062 329.562 283.224 329.562 283.427C329.562 283.627 329.398 283.791 329.198 283.791" fill="#72ACFF"/>
<path fill-rule="evenodd" clip-rule="evenodd" d="M330.521 287.224H327.13C326.929 287.224 326.766 287.06 326.766 286.857C326.766 286.657 326.929 286.493 327.13 286.493H330.521C330.724 286.493 330.887 286.657 330.887 286.857C330.887 287.06 330.724 287.224 330.521 287.224" fill="#72ACFF"/>
<path fill-rule="evenodd" clip-rule="evenodd" d="M319.6 283.926C319.49 283.926 319.384 283.878 319.312 283.786C318.28 282.456 317.693 281.493 317.667 281.452C317.561 281.281 317.616 281.055 317.789 280.952C317.96 280.848 318.186 280.901 318.289 281.074C318.296 281.083 318.884 282.044 319.888 283.339C320.01 283.498 319.983 283.728 319.824 283.85C319.757 283.903 319.679 283.926 319.6 283.926ZM323.432 288.02C323.347 288.02 323.261 287.991 323.194 287.931C322.51 287.343 321.821 286.677 321.149 285.954C321.01 285.806 321.02 285.574 321.167 285.438C321.314 285.299 321.545 285.309 321.681 285.456C322.337 286.161 323.006 286.809 323.669 287.378C323.821 287.509 323.84 287.739 323.708 287.894C323.635 287.977 323.533 288.02 323.432 288.02ZM335.274 288.737C335.263 288.737 335.254 288.737 335.242 288.735C335.042 288.719 334.892 288.541 334.91 288.341C334.917 288.255 334.922 288.168 334.922 288.08C334.922 287.426 334.726 286.663 334.341 285.813C334.256 285.629 334.339 285.412 334.521 285.329C334.705 285.246 334.922 285.327 335.005 285.511C335.433 286.458 335.65 287.322 335.65 288.08C335.65 288.189 335.645 288.297 335.636 288.403C335.62 288.592 335.461 288.737 335.274 288.737ZM328.206 290.898C328.169 290.898 328.13 290.891 328.09 290.88C327.238 290.592 326.365 290.172 325.492 289.633C325.321 289.527 325.268 289.302 325.374 289.131C325.48 288.961 325.706 288.908 325.876 289.014C326.701 289.523 327.524 289.919 328.323 290.189C328.514 290.253 328.616 290.46 328.554 290.649C328.501 290.804 328.36 290.898 328.206 290.898ZM330.954 291.368C330.754 291.368 330.59 291.205 330.59 291.004C330.59 290.804 330.752 290.64 330.954 290.638C331.049 290.638 331.143 290.636 331.24 290.633C332.182 290.592 332.959 290.437 333.544 290.175C333.726 290.092 333.943 290.175 334.026 290.357C334.109 290.541 334.026 290.758 333.844 290.838C333.173 291.142 332.307 291.318 331.27 291.361C331.164 291.366 331.06 291.368 330.957 291.368C330.954 291.368 330.954 291.368 330.954 291.368V291.368Z" fill="#72ACFF"/>
<path fill-rule="evenodd" clip-rule="evenodd" d="M343.91 293.417H321.469L321.409 293.124C321.377 292.976 320.549 289.456 314.177 289.666C313.976 289.675 313.806 289.514 313.801 289.313C313.794 289.11 313.951 288.942 314.154 288.935C320.165 288.742 321.701 291.721 322.038 292.688H343.91C344.11 292.688 344.274 292.85 344.274 293.053C344.274 293.253 344.11 293.417 343.91 293.417" fill="#72ACFF"/>
<path fill-rule="evenodd" clip-rule="evenodd" d="M164.865 266.271H144.47C144.269 266.271 144.105 266.107 144.105 265.907C144.105 265.706 144.269 265.543 144.47 265.543H164.865C165.066 265.543 165.229 265.706 165.229 265.907C165.229 266.107 165.066 266.271 164.865 266.271" fill="#72ACFF"/>
<path fill-rule="evenodd" clip-rule="evenodd" d="M158.986 266.271C158.784 266.271 158.621 266.107 158.621 265.907V212.175L200.8 214.823C201 214.836 201.152 215.009 201.141 215.21C201.127 215.412 200.954 215.562 200.754 215.551L159.35 212.952V265.907C159.35 266.107 159.187 266.271 158.986 266.271" fill="#72ACFF"/>
<path fill-rule="evenodd" clip-rule="evenodd" d="M301.584 269.78C301.501 269.78 301.415 269.75 301.346 269.692L249.518 225.582L230.881 215.101C230.706 215.002 230.643 214.781 230.742 214.606C230.842 214.429 231.063 214.366 231.238 214.466L249.937 224.981L249.965 225.004L301.821 269.137C301.973 269.266 301.991 269.497 301.862 269.651C301.789 269.736 301.687 269.78 301.584 269.78" fill="#72ACFF"/>
<path fill-rule="evenodd" clip-rule="evenodd" d="M294.887 271.639C294.721 271.639 294.571 271.524 294.532 271.354C294.489 271.158 294.611 270.962 294.809 270.918L320.015 265.236C320.213 265.19 320.406 265.315 320.45 265.513C320.494 265.709 320.372 265.905 320.176 265.948L294.968 271.63C294.94 271.637 294.915 271.639 294.887 271.639" fill="#72ACFF"/>
<path fill-rule="evenodd" clip-rule="evenodd" d="M211.073 211.551H210.506C209.232 211.551 208.032 210.993 207.212 210.019C206.391 209.044 206.046 207.765 206.262 206.512L208.09 195.946C208.124 195.748 208.311 195.614 208.511 195.649C208.709 195.683 208.843 195.872 208.808 196.07L206.981 206.636C206.802 207.678 207.087 208.74 207.769 209.549C208.451 210.357 209.449 210.823 210.506 210.823H211.073C211.274 210.823 211.437 210.986 211.437 211.187C211.437 211.389 211.274 211.551 211.073 211.551" fill="#72ACFF"/>
<path fill-rule="evenodd" clip-rule="evenodd" d="M195.021 194.656C194.943 194.656 194.867 194.633 194.8 194.582C194.641 194.462 194.609 194.234 194.729 194.073L197.051 190.992C197.173 190.832 197.401 190.8 197.563 190.92C197.722 191.042 197.754 191.27 197.634 191.431L195.312 194.511C195.24 194.607 195.13 194.656 195.021 194.656" fill="#72ACFF"/>
<path fill-rule="evenodd" clip-rule="evenodd" d="M212.806 197.844C212.776 197.844 212.746 197.842 212.716 197.833C212.52 197.782 212.403 197.584 212.453 197.388L213.449 193.527C213.499 193.333 213.7 193.213 213.893 193.266C214.089 193.315 214.207 193.515 214.156 193.709L213.161 197.572C213.117 197.736 212.969 197.844 212.806 197.844" fill="#72ACFF"/>
<path fill-rule="evenodd" clip-rule="evenodd" d="M230.312 196.372C230.151 196.372 230.004 196.264 229.96 196.098L229.121 192.842C229.07 192.649 229.188 192.448 229.382 192.399C229.577 192.349 229.776 192.467 229.826 192.66L230.667 195.916C230.716 196.112 230.6 196.31 230.404 196.361C230.375 196.368 230.342 196.372 230.312 196.372" fill="#72ACFF"/>
<path fill-rule="evenodd" clip-rule="evenodd" d="M242.3 193.983C242.169 193.983 242.04 193.911 241.975 193.785L240.427 190.791C240.335 190.612 240.406 190.392 240.584 190.3C240.761 190.207 240.982 190.277 241.074 190.456L242.623 193.451C242.715 193.63 242.646 193.849 242.466 193.941C242.413 193.969 242.356 193.983 242.3 193.983" fill="#72ACFF"/>
<path fill-rule="evenodd" clip-rule="evenodd" d="M267.906 145.994V145.994C265.284 145.994 263.16 143.87 263.16 141.25V119.538C263.16 116.918 265.284 114.794 267.906 114.794C270.526 114.794 272.65 116.918 272.65 119.538V141.25C272.65 143.87 270.526 145.994 267.906 145.994" fill="#006BFF"/>
<path fill-rule="evenodd" clip-rule="evenodd" d="M289.79 139.582C289.755 139.582 289.719 139.577 289.684 139.566C289.606 139.542 287.73 138.961 287.016 137.41C286.624 136.56 286.659 135.599 287.12 134.554C287.2 134.369 287.415 134.285 287.599 134.367C287.783 134.448 287.869 134.663 287.788 134.847C287.415 135.692 287.378 136.45 287.677 137.102C288.251 138.353 289.88 138.863 289.896 138.868C290.087 138.927 290.198 139.13 290.138 139.323C290.09 139.48 289.947 139.582 289.79 139.582" fill="#192331"/>
<path fill-rule="evenodd" clip-rule="evenodd" d="M295.688 139.582C295.654 139.582 295.617 139.577 295.583 139.566C295.504 139.542 293.629 138.961 292.914 137.411C292.523 136.56 292.557 135.599 293.018 134.554C293.099 134.369 293.313 134.285 293.497 134.367C293.682 134.448 293.767 134.663 293.686 134.847C293.313 135.693 293.276 136.453 293.578 137.105C294.156 138.361 295.776 138.863 295.794 138.868C295.986 138.926 296.096 139.129 296.036 139.322C295.99 139.48 295.845 139.582 295.688 139.582" fill="#192331"/>
<path fill-rule="evenodd" clip-rule="evenodd" d="M144.844 139.582C144.809 139.582 144.774 139.577 144.739 139.566C144.659 139.542 142.785 138.961 142.071 137.411C141.679 136.56 141.714 135.599 142.174 134.554C142.255 134.369 142.47 134.286 142.654 134.367C142.839 134.448 142.922 134.663 142.841 134.847C142.47 135.692 142.433 136.451 142.731 137.102C143.305 138.353 144.933 138.863 144.95 138.868C145.142 138.927 145.251 139.13 145.193 139.323C145.145 139.48 145 139.582 144.844 139.582" fill="#192331"/>
<path fill-rule="evenodd" clip-rule="evenodd" d="M150.739 139.582C150.704 139.582 150.668 139.577 150.633 139.566C150.554 139.542 148.679 138.961 147.965 137.411C147.574 136.56 147.608 135.599 148.068 134.554C148.149 134.369 148.365 134.286 148.549 134.367C148.733 134.448 148.817 134.663 148.736 134.847C148.364 135.692 148.327 136.451 148.626 137.102C149.2 138.353 150.828 138.863 150.844 138.868C151.037 138.927 151.145 139.13 151.087 139.323C151.039 139.48 150.895 139.582 150.739 139.582" fill="#192331"/>
<path fill-rule="evenodd" clip-rule="evenodd" d="M108.027 124.802H106.189C105.987 124.802 105.824 124.639 105.824 124.438C105.824 124.236 105.987 124.073 106.189 124.073H108.027C108.228 124.073 108.391 124.236 108.391 124.438C108.391 124.639 108.228 124.802 108.027 124.802" fill="#192331"/>
<path fill-rule="evenodd" clip-rule="evenodd" d="M109.116 129.28H106.189C105.987 129.28 105.824 129.117 105.824 128.916C105.824 128.715 105.987 128.551 106.189 128.551H109.116C109.318 128.551 109.481 128.715 109.481 128.916C109.481 129.117 109.318 129.28 109.116 129.28" fill="#192331"/>
<path fill-rule="evenodd" clip-rule="evenodd" d="M108.027 133.759H106.189C105.987 133.759 105.824 133.596 105.824 133.394C105.824 133.193 105.987 133.03 106.189 133.03H108.027C108.228 133.03 108.391 133.193 108.391 133.394C108.391 133.596 108.228 133.759 108.027 133.759" fill="#192331"/>
<path fill-rule="evenodd" clip-rule="evenodd" d="M124.787 137.689C124.752 137.689 124.716 137.684 124.681 137.673C124.583 137.643 122.267 136.916 121.752 134.786C121.705 134.59 121.826 134.393 122.021 134.346C122.218 134.298 122.414 134.419 122.461 134.615C122.879 136.344 124.873 136.969 124.893 136.975C125.086 137.033 125.195 137.237 125.136 137.43C125.088 137.587 124.944 137.689 124.787 137.689" fill="#192331"/>
<path fill-rule="evenodd" clip-rule="evenodd" d="M190.255 144.073C190.066 144.073 189.905 143.927 189.891 143.736C189.453 138.019 189.891 132.594 191.193 127.613C191.243 127.418 191.441 127.301 191.637 127.352C191.831 127.403 191.948 127.602 191.898 127.797C190.617 132.7 190.188 138.044 190.619 143.68C190.633 143.881 190.483 144.056 190.283 144.072C190.273 144.073 190.264 144.073 190.255 144.073" fill="#192331"/>
<path fill-rule="evenodd" clip-rule="evenodd" d="M315.168 128.07C315.081 128.07 314.991 128.038 314.922 127.973C314.774 127.836 314.765 127.605 314.901 127.458C316.71 125.5 319.085 125.199 319.186 125.187C319.387 125.164 319.566 125.306 319.592 125.506C319.615 125.706 319.472 125.887 319.272 125.911C319.237 125.916 317.051 126.204 315.438 127.952C315.364 128.03 315.267 128.07 315.168 128.07" fill="#192331"/>
<path fill-rule="evenodd" clip-rule="evenodd" d="M324.503 136.069C324.475 136.069 324.45 136.066 324.422 136.06C324.196 136.009 322.201 135.523 321.636 134.392C321.547 134.212 321.618 133.993 321.8 133.903C321.98 133.814 322.199 133.886 322.288 134.066C322.639 134.766 324.065 135.23 324.583 135.349C324.781 135.395 324.903 135.59 324.857 135.786C324.818 135.955 324.668 136.069 324.503 136.069" fill="#192331"/>
<path fill-rule="evenodd" clip-rule="evenodd" d="M246.886 144.044C246.863 144.044 246.84 144.042 246.817 144.037C246.617 143.999 241.9 143.05 241.465 140.001C241.435 139.802 241.573 139.617 241.774 139.589C241.972 139.559 242.156 139.699 242.186 139.898C242.548 142.438 246.912 143.313 246.955 143.322C247.154 143.36 247.283 143.551 247.243 143.749C247.209 143.923 247.057 144.044 246.886 144.044" fill="#192331"/>
<path fill-rule="evenodd" clip-rule="evenodd" d="M248.017 118.847C247.966 118.847 247.915 118.836 247.867 118.814C247.683 118.731 247.602 118.515 247.685 118.331C248.245 117.101 251.5 116.171 251.869 116.07C252.063 116.016 252.263 116.13 252.316 116.324C252.371 116.518 252.256 116.719 252.063 116.772C250.795 117.123 248.666 117.938 248.348 118.633C248.289 118.768 248.155 118.847 248.017 118.847" fill="#192331"/>
<path fill-rule="evenodd" clip-rule="evenodd" d="M237.53 190.164C237.343 190.164 237.185 190.021 237.168 189.832L236.74 184.986C236.721 184.786 236.869 184.609 237.069 184.591C237.267 184.573 237.447 184.721 237.466 184.922L237.894 189.767C237.913 189.968 237.763 190.145 237.562 190.163C237.553 190.164 237.542 190.164 237.53 190.164" fill="#192331"/>
<path fill-rule="evenodd" clip-rule="evenodd" d="M202.037 190.164C202.016 190.164 201.995 190.163 201.975 190.159C201.776 190.126 201.643 189.937 201.677 189.739L202.281 186.155C202.316 185.957 202.504 185.824 202.703 185.857C202.901 185.89 203.034 186.078 203.002 186.277L202.396 189.86C202.366 190.039 202.212 190.164 202.037 190.164" fill="#192331"/>
<path fill-rule="evenodd" clip-rule="evenodd" d="M222.857 191.576C222.673 191.576 222.514 191.436 222.495 191.247L222.053 186.757C222.032 186.556 222.179 186.378 222.38 186.358C222.578 186.339 222.758 186.485 222.778 186.685L223.221 191.176C223.239 191.377 223.094 191.555 222.894 191.575C222.88 191.576 222.868 191.576 222.857 191.576" fill="#192331"/>
<path fill-rule="evenodd" clip-rule="evenodd" d="M224.74 112.324L228.839 116.421L207.944 127.705L206.672 124.438L224.74 112.324" fill="#FFFFFE"/>
<path fill-rule="evenodd" clip-rule="evenodd" d="M210.872 113.814L209.868 113.082C209.706 112.963 209.67 112.735 209.789 112.572C209.907 112.41 210.135 112.374 210.299 112.493L210.93 112.954L212.697 112.003C212.874 111.908 213.096 111.974 213.19 112.152C213.287 112.329 213.22 112.55 213.043 112.645L210.872 113.814" fill="#192331"/>
<path fill-rule="evenodd" clip-rule="evenodd" d="M222.383 109.298C222.217 109.298 222.068 109.184 222.029 109.015C221.985 108.819 222.105 108.624 222.3 108.578C222.312 108.575 223.035 108.395 223.146 107.887C223.187 107.691 223.381 107.565 223.579 107.608C223.775 107.65 223.902 107.844 223.858 108.041C223.651 109.004 222.515 109.277 222.466 109.288C222.439 109.295 222.411 109.298 222.383 109.298" fill="#192331"/>
<path fill-rule="evenodd" clip-rule="evenodd" d="M222.943 110.853C222.777 110.853 222.627 110.739 222.588 110.571C222.542 110.375 222.664 110.18 222.86 110.134C222.869 110.131 223.595 109.95 223.703 109.443C223.747 109.246 223.94 109.121 224.136 109.164C224.334 109.206 224.459 109.4 224.417 109.597C224.21 110.559 223.074 110.833 223.026 110.844C222.998 110.85 222.97 110.853 222.943 110.853" fill="#192331"/>
<path fill-rule="evenodd" clip-rule="evenodd" d="M218.946 99.2522C218.946 99.6323 218.639 99.9406 218.259 99.9406C217.877 99.9406 217.57 99.6323 217.57 99.2522C217.57 98.872 217.877 98.5637 218.259 98.5637C218.639 98.5637 218.946 98.872 218.946 99.2522" fill="#192331"/>
<path fill-rule="evenodd" clip-rule="evenodd" d="M272.651 128.739H269.691C269.488 128.739 269.324 128.576 269.324 128.374C269.324 128.173 269.488 128.01 269.691 128.01H272.651C272.852 128.01 273.015 128.173 273.015 128.374C273.015 128.576 272.852 128.739 272.651 128.739" fill="#192331"/>
<path fill-rule="evenodd" clip-rule="evenodd" d="M269.69 138.699C269.54 138.699 269.4 138.607 269.347 138.459C269.277 138.27 269.374 138.061 269.565 137.992L272.526 136.915C272.715 136.846 272.925 136.944 272.994 137.133C273.061 137.322 272.964 137.532 272.775 137.601L269.814 138.677C269.773 138.692 269.731 138.699 269.69 138.699" fill="#192331"/>
<path fill-rule="evenodd" clip-rule="evenodd" d="M459.11 298.495H452.507C452.304 298.495 452.141 298.331 452.141 298.131C452.141 297.93 452.304 297.767 452.507 297.767H459.11C459.313 297.767 459.474 297.93 459.474 298.131C459.474 298.331 459.313 298.495 459.11 298.495" fill="#192331"/>
<path fill-rule="evenodd" clip-rule="evenodd" d="M444.817 298.495H440.173C439.972 298.495 439.809 298.331 439.809 298.131C439.809 297.93 439.972 297.767 440.173 297.767H444.817C445.018 297.767 445.182 297.93 445.182 298.131C445.182 298.331 445.018 298.495 444.817 298.495" fill="#192331"/>
<path fill-rule="evenodd" clip-rule="evenodd" d="M434.366 298.495H410.997C410.796 298.495 410.633 298.331 410.633 298.131C410.633 297.93 410.796 297.767 410.997 297.767H434.366C434.567 297.767 434.73 297.93 434.73 298.131C434.73 298.331 434.567 298.495 434.366 298.495" fill="#192331"/>
<path fill-rule="evenodd" clip-rule="evenodd" d="M414.478 298.495H215.262C215.062 298.495 214.898 298.331 214.898 298.131C214.898 297.93 215.062 297.767 215.262 297.767H414.478C414.681 297.767 414.844 297.93 414.844 298.131C414.844 298.331 414.681 298.495 414.478 298.495" fill="#192331"/>
<path fill-rule="evenodd" clip-rule="evenodd" d="M202.039 298.495H38.3296C38.128 298.495 37.9648 298.331 37.9648 298.131C37.9648 297.93 38.128 297.767 38.3296 297.767H202.039C202.24 297.767 202.403 297.93 202.403 298.131C202.403 298.331 202.24 298.495 202.039 298.495" fill="#192331"/>
<path fill-rule="evenodd" clip-rule="evenodd" d="M21.9255 298.495H0.380348C0.178979 298.495 0.015625 298.331 0.015625 298.131C0.015625 297.93 0.178979 297.767 0.380348 297.767H21.9255C22.1269 297.767 22.29 297.93 22.29 298.131C22.29 298.331 22.1269 298.495 21.9255 298.495" fill="#192331"/>
<path fill-rule="evenodd" clip-rule="evenodd" d="M114.896 118.696C114.595 118.696 114.352 118.453 114.352 118.152V106.082C114.352 105.781 114.595 105.538 114.896 105.538C115.197 105.538 115.44 105.781 115.44 106.082V118.152C115.44 118.453 115.197 118.696 114.896 118.696" fill="#192331"/>
<path fill-rule="evenodd" clip-rule="evenodd" d="M114.93 121.062C113.587 121.062 112.735 120.294 112.722 120.282C112.575 120.145 112.566 119.914 112.703 119.767C112.839 119.619 113.069 119.61 113.217 119.746C113.279 119.803 114.723 121.074 116.836 119.709C117.006 119.599 117.231 119.648 117.341 119.817C117.45 119.986 117.401 120.212 117.232 120.321C116.373 120.876 115.592 121.062 114.93 121.062" fill="#192331"/>
<path fill-rule="evenodd" clip-rule="evenodd" d="M221.096 93.4645C221.096 94.2362 220.471 94.8617 219.699 94.8617C218.927 94.8617 218.301 94.2362 218.301 93.4645C218.301 92.6932 218.927 92.0676 219.699 92.0676C220.471 92.0676 221.096 92.6932 221.096 93.4645" fill="#FFFFFE"/>
<path fill-rule="evenodd" clip-rule="evenodd" d="M218.096 96.4602C218.029 96.4602 217.964 96.4429 217.904 96.4068C217.734 96.3017 217.678 96.0775 217.784 95.9057L219.39 93.2747C219.494 93.1028 219.72 93.0487 219.89 93.1535C220.063 93.2584 220.116 93.4828 220.012 93.6546L218.407 96.2854C218.337 96.398 218.218 96.4602 218.096 96.4602" fill="#FFFFFE"/>
<path fill-rule="evenodd" clip-rule="evenodd" d="M172.027 101.399H165.758C165.497 101.399 165.286 101.187 165.286 100.926C165.286 100.666 165.497 100.455 165.758 100.455H172.027C174.73 100.455 176.93 98.2557 176.93 95.5531V22.2659C176.93 19.563 174.73 17.3641 172.027 17.3641H94.4291C94.1683 17.3641 93.957 17.1528 93.957 16.892C93.957 16.6312 94.1683 16.4199 94.4291 16.4199H172.027C175.25 16.4199 177.872 19.0426 177.872 22.2659V95.5531C177.872 98.7764 175.25 101.399 172.027 101.399" fill="#001E57"/>
<path fill-rule="evenodd" clip-rule="evenodd" d="M87.1692 17.3641H83.1051C82.8443 17.3641 82.6328 17.1528 82.6328 16.892C82.6328 16.6312 82.8443 16.4199 83.1051 16.4199H87.1692C87.43 16.4199 87.6415 16.6312 87.6415 16.892C87.6415 17.1528 87.43 17.3641 87.1692 17.3641" fill="#192331"/>
<path fill-rule="evenodd" clip-rule="evenodd" d="M157.132 100.927H57.7603C54.7926 100.927 52.3867 98.521 52.3867 95.5532V22.266C52.3867 19.2979 54.7926 16.8923 57.7603 16.8923H76.4935L157.132 100.927" fill="#FFFFFE"/>
<path fill-rule="evenodd" clip-rule="evenodd" d="M157.131 101.399H57.76C54.5367 101.399 51.9141 98.7764 51.9141 95.5531V22.2659C51.9141 19.0426 54.5367 16.4199 57.76 16.4199H76.4931C76.7537 16.4199 76.965 16.6312 76.965 16.892C76.965 17.1528 76.7537 17.3641 76.4931 17.3641H57.76C55.0572 17.3641 52.8582 19.563 52.8582 22.2659V95.5531C52.8582 98.2557 55.0572 100.455 57.76 100.455H157.131C157.392 100.455 157.603 100.666 157.603 100.926C157.603 101.187 157.392 101.399 157.131 101.399" fill="#001E57"/>
<path fill-rule="evenodd" clip-rule="evenodd" d="M77.8274 84.1577C77.8274 86.2221 76.154 87.8955 74.0896 87.8955C72.0252 87.8955 70.3516 86.2221 70.3516 84.1577C70.3516 82.0933 72.0252 80.4199 74.0896 80.4199C76.154 80.4199 77.8274 82.0933 77.8274 84.1577" fill="#006BFF"/>
<path fill-rule="evenodd" clip-rule="evenodd" d="M80.2062 94.7652H67.8711C68.0315 91.4963 70.732 88.896 74.0387 88.896C77.3472 88.896 80.0457 91.4963 80.2062 94.7652" fill="#006BFF"/>
<path fill-rule="evenodd" clip-rule="evenodd" d="M84.1749 63.6141V73.451C84.1749 74.6708 83.1856 75.6585 81.9656 75.6585H66.2408C65.0208 75.6585 64.0312 74.6708 64.0312 73.451V63.6141C64.0312 63.1685 64.1635 62.7531 64.39 62.4075C64.7847 61.8031 65.4664 61.4048 66.2408 61.4048H81.9656C82.7397 61.4048 83.4215 61.8031 83.8162 62.4075C84.0429 62.7531 84.1749 63.1685 84.1749 63.6141" fill="#006BFF"/>
<path fill-rule="evenodd" clip-rule="evenodd" d="M81.2634 63.2742C82.2735 63.2845 82.9352 64.3465 82.5458 65.2786C81.1666 68.5807 77.9058 70.9013 74.1021 70.9013C70.3 70.9013 67.0389 68.5807 65.66 65.2786C65.2706 64.3467 65.9323 63.2845 66.9424 63.2742C66.9493 63.2742 66.9565 63.2742 66.9634 63.2742H81.2422C81.2493 63.2742 81.2562 63.2742 81.2634 63.2742" fill="#72ACFF"/>
<path fill-rule="evenodd" clip-rule="evenodd" d="M80.2245 56.7671H67.8552C65.7431 56.7671 64.0312 55.055 64.0312 52.9432V47.75C64.0312 45.6379 65.7431 43.926 67.8552 43.926H80.2245C82.3363 43.926 84.0484 45.6379 84.0484 47.75V52.9432C84.0484 55.055 82.3363 56.7671 80.2245 56.7671" fill="#006BFF"/>
<path fill-rule="evenodd" clip-rule="evenodd" d="M80.7424 48.0806H74.3197C74.0592 48.0806 73.8477 47.8691 73.8477 47.6083C73.8477 47.3477 74.0592 47.1362 74.3197 47.1362H80.7424C81.0032 47.1362 81.2147 47.3477 81.2147 47.6083C81.2147 47.8691 81.0032 48.0806 80.7424 48.0806" fill="#001E57"/>
<path fill-rule="evenodd" clip-rule="evenodd" d="M71.1105 47.9731H67.896C67.6946 47.9731 67.5312 47.8098 67.5312 47.6084C67.5312 47.407 67.6946 47.2439 67.896 47.2439H71.1105C71.3119 47.2439 71.475 47.407 71.475 47.6084C71.475 47.8098 71.3119 47.9731 71.1105 47.9731" fill="#FFFFFE"/>
<path fill-rule="evenodd" clip-rule="evenodd" d="M80.7427 53.6382H78.0991C77.8975 53.6382 77.7344 53.475 77.7344 53.2737C77.7344 53.0723 77.8975 52.9089 78.0991 52.9089H80.7427C80.9443 52.9089 81.1074 53.0723 81.1074 53.2737C81.1074 53.475 80.9443 53.6382 80.7427 53.6382" fill="#FFFFFE"/>
<path fill-rule="evenodd" clip-rule="evenodd" d="M74.3205 53.7457H67.8979C67.6371 53.7457 67.4258 53.5344 67.4258 53.2736C67.4258 53.0128 67.6371 52.8015 67.8979 52.8015H74.3205C74.5813 52.8015 74.7928 53.0128 74.7928 53.2736C74.7928 53.5344 74.5813 53.7457 74.3205 53.7457" fill="#001E57"/>
<path fill-rule="evenodd" clip-rule="evenodd" d="M100.289 38.5821H67.808C65.7222 38.5821 64.0312 36.8912 64.0312 34.8054V29.5177C64.0312 27.4319 65.7222 25.741 67.808 25.741H100.289C102.375 25.741 104.066 27.4319 104.066 29.5177V34.8054C104.066 36.8912 102.375 38.5821 100.289 38.5821" fill="#006BFF"/>
<path fill-rule="evenodd" clip-rule="evenodd" d="M76.4925 32.1617C76.4925 34.456 74.6325 36.3162 72.3379 36.3162C70.0434 36.3162 68.1836 34.456 68.1836 32.1617C68.1836 29.8671 70.0434 28.0071 72.3379 28.0071C74.6325 28.0071 76.4925 29.8671 76.4925 32.1617" fill="#001E57"/>
<path fill-rule="evenodd" clip-rule="evenodd" d="M72.246 34.6166C72.1126 34.6166 71.9849 34.5602 71.8951 34.4604L70.1954 32.572C70.021 32.3781 70.0367 32.0797 70.2305 31.9053C70.424 31.7306 70.7226 31.7463 70.8972 31.9403L72.1902 33.3768L74.1191 30.4835C74.2641 30.2664 74.5571 30.2079 74.7737 30.3526C74.9907 30.4971 75.0495 30.7904 74.9048 31.0072L72.6388 34.4063C72.5577 34.5277 72.4255 34.6049 72.2801 34.6152C72.2686 34.6162 72.257 34.6166 72.246 34.6166" fill="#72ACFF"/>
<path fill-rule="evenodd" clip-rule="evenodd" d="M97.3606 29.8956H90.558C90.2974 29.8956 90.0859 29.6841 90.0859 29.4233C90.0859 29.1624 90.2974 28.9512 90.558 28.9512H97.3606C97.6214 28.9512 97.8327 29.1624 97.8327 29.4233C97.8327 29.6841 97.6214 29.8956 97.3606 29.8956" fill="#001E57"/>
<path fill-rule="evenodd" clip-rule="evenodd" d="M87.574 29.8956H80.3666C80.1058 29.8956 79.8945 29.6841 79.8945 29.4233C79.8945 29.1624 80.1058 28.9512 80.3666 28.9512H87.574C87.8348 28.9512 88.0463 29.1624 88.0463 29.4233C88.0463 29.6841 87.8348 29.8956 87.574 29.8956" fill="#001E57"/>
<path fill-rule="evenodd" clip-rule="evenodd" d="M97.3623 35.4533H94.9387C94.7373 35.4533 94.5742 35.29 94.5742 35.0886C94.5742 34.8872 94.7373 34.7241 94.9387 34.7241H97.3623C97.5637 34.7241 97.7268 34.8872 97.7268 35.0886C97.7268 35.29 97.5637 35.4533 97.3623 35.4533" fill="#FFFFFE"/>
<path fill-rule="evenodd" clip-rule="evenodd" d="M91.7917 35.5606H80.3666C80.1058 35.5606 79.8945 35.3494 79.8945 35.0885C79.8945 34.8277 80.1058 34.6165 80.3666 34.6165H91.7917C92.0523 34.6165 92.2638 34.8277 92.2638 35.0885C92.2638 35.3494 92.0523 35.5606 91.7917 35.5606" fill="#001E57"/>
<path fill-rule="evenodd" clip-rule="evenodd" d="M130.879 65.6353H92.3549C92.0941 65.6353 91.8828 65.4238 91.8828 65.163C91.8828 64.9024 92.0941 64.6909 92.3549 64.6909H130.879C131.14 64.6909 131.351 64.9024 131.351 65.163C131.351 65.4238 131.14 65.6353 130.879 65.6353" fill="#192331"/>
<path fill-rule="evenodd" clip-rule="evenodd" d="M92.3549 60.7251C92.0941 60.7251 91.8828 60.5136 91.8828 60.2531V49.8666C91.8828 49.6058 92.0941 49.3945 92.3549 49.3945C92.6157 49.3945 92.827 49.6058 92.827 49.8666V60.2531C92.827 60.5136 92.6157 60.7251 92.3549 60.7251" fill="#192331"/>
<path fill-rule="evenodd" clip-rule="evenodd" d="M98.7729 60.7252C98.5121 60.7252 98.3008 60.5137 98.3008 60.2531V52.8881C98.3008 52.6273 98.5121 52.416 98.7729 52.416C99.0337 52.416 99.2452 52.6273 99.2452 52.8881V60.2531C99.2452 60.5137 99.0337 60.7252 98.7729 60.7252" fill="#192331"/>
<path fill-rule="evenodd" clip-rule="evenodd" d="M105.195 60.7252C104.934 60.7252 104.723 60.5137 104.723 60.2531V45.7121C104.723 45.4515 104.934 45.24 105.195 45.24C105.456 45.24 105.667 45.4515 105.667 45.7121V60.2531C105.667 60.5137 105.456 60.7252 105.195 60.7252" fill="#192331"/>
<path fill-rule="evenodd" clip-rule="evenodd" d="M111.613 60.7253C111.352 60.7253 111.141 60.5138 111.141 60.2532V55.1545C111.141 54.8936 111.352 54.6824 111.613 54.6824C111.874 54.6824 112.085 54.8936 112.085 55.1545V60.2532C112.085 60.5138 111.874 60.7253 111.613 60.7253" fill="#192331"/>
<path fill-rule="evenodd" clip-rule="evenodd" d="M118.035 60.7252C117.774 60.7252 117.562 60.5136 117.562 60.2531V51.3774C117.562 51.1168 117.774 50.9053 118.035 50.9053C118.295 50.9053 118.507 51.1168 118.507 51.3774V60.2531C118.507 60.5136 118.295 60.7252 118.035 60.7252" fill="#192331"/>
<path fill-rule="evenodd" clip-rule="evenodd" d="M124.456 60.7252C124.196 60.7252 123.984 60.5137 123.984 60.2531V54.5878C123.984 54.327 124.196 54.1157 124.456 54.1157C124.717 54.1157 124.929 54.327 124.929 54.5878V60.2531C124.929 60.5137 124.717 60.7252 124.456 60.7252" fill="#192331"/>
<path fill-rule="evenodd" clip-rule="evenodd" d="M130.879 60.7252C130.618 60.7252 130.406 60.5137 130.406 60.2531V45.7121C130.406 45.4515 130.618 45.24 130.879 45.24C131.139 45.24 131.351 45.4515 131.351 45.7121V60.2531C131.351 60.5137 131.139 60.7252 130.879 60.7252" fill="#192331"/>
<path fill-rule="evenodd" clip-rule="evenodd" d="M102.159 94.6371C96.7964 94.6371 92.4336 90.2743 92.4336 84.9117C92.4336 79.5491 96.7964 75.1863 102.159 75.1863C102.42 75.1863 102.631 75.3976 102.631 75.6584C102.631 75.9192 102.42 76.1305 102.159 76.1305C97.3172 76.1305 93.378 80.0698 93.378 84.9117C93.378 89.7535 97.3172 93.6927 102.159 93.6927C107.001 93.6927 110.94 89.7535 110.94 84.9117C110.94 84.6509 111.152 84.4394 111.412 84.4394C111.673 84.4394 111.884 84.6509 111.884 84.9117C111.884 90.2743 107.522 94.6371 102.159 94.6371" fill="#006BFF"/>
<path fill-rule="evenodd" clip-rule="evenodd" d="M111.413 85.3838C111.152 85.3838 110.941 85.1725 110.941 84.9117C110.941 80.0698 107.002 76.1305 102.16 76.1305C101.899 76.1305 101.688 75.9192 101.688 75.6584C101.688 75.3976 101.899 75.1863 102.16 75.1863C107.522 75.1863 111.885 79.5489 111.885 84.9117C111.885 85.1725 111.674 85.3838 111.413 85.3838" fill="#001E57"/>
<path fill-rule="evenodd" clip-rule="evenodd" d="M104.99 84.9116C104.99 86.476 103.721 87.7442 102.157 87.7442C100.592 87.7442 99.3242 86.476 99.3242 84.9116C99.3242 83.3472 100.592 82.0789 102.157 82.0789C103.721 82.0789 104.99 83.3472 104.99 84.9116" fill="#72ACFF"/>
<path fill-rule="evenodd" clip-rule="evenodd" d="M102.628 85.2894C102.522 85.2894 102.415 85.2537 102.326 85.1802C102.126 85.0136 102.099 84.7159 102.265 84.5155L107.938 77.694C108.105 77.4934 108.403 77.4662 108.603 77.6328C108.803 77.7996 108.831 78.0972 108.664 78.2977L102.991 85.1191C102.898 85.2313 102.764 85.2894 102.628 85.2894" fill="#006BFF"/>
<path fill-rule="evenodd" clip-rule="evenodd" d="M158.882 94.1649H128.689C124.891 94.1649 121.812 91.0866 121.812 87.2889V79.9732C121.812 76.1755 124.891 73.0969 128.689 73.0969H158.882C162.679 73.0969 165.758 76.1755 165.758 79.9732V87.2889C165.758 91.0866 162.679 94.1649 158.882 94.1649" fill="#006BFF"/>
<path fill-rule="evenodd" clip-rule="evenodd" d="M159.998 78.4439H138.242C137.981 78.4439 137.77 78.2324 137.77 77.9718C137.77 77.711 137.981 77.4995 138.242 77.4995H159.998C160.259 77.4995 160.47 77.711 160.47 77.9718C160.47 78.2324 160.259 78.4439 159.998 78.4439" fill="#192331"/>
<path fill-rule="evenodd" clip-rule="evenodd" d="M135.254 78.4439H128.046C127.785 78.4439 127.574 78.2324 127.574 77.9718C127.574 77.711 127.785 77.4995 128.046 77.4995H135.254C135.514 77.4995 135.726 77.711 135.726 77.9718C135.726 78.2324 135.514 78.4439 135.254 78.4439" fill="#192331"/>
<path fill-rule="evenodd" clip-rule="evenodd" d="M159.996 84.0017H142.619C142.417 84.0017 142.254 83.8385 142.254 83.6369C142.254 83.4356 142.417 83.2722 142.619 83.2722H159.996C160.197 83.2722 160.361 83.4356 160.361 83.6369C160.361 83.8385 160.197 84.0017 159.996 84.0017" fill="#FFFFFE"/>
<path fill-rule="evenodd" clip-rule="evenodd" d="M139.471 84.109H128.046C127.785 84.109 127.574 83.8977 127.574 83.6369C127.574 83.3761 127.785 83.1648 128.046 83.1648H139.471C139.732 83.1648 139.943 83.3761 139.943 83.6369C139.943 83.8977 139.732 84.109 139.471 84.109" fill="#192331"/>
<path fill-rule="evenodd" clip-rule="evenodd" d="M159.997 89.7621H133.429C133.168 89.7621 132.957 89.5508 132.957 89.29C132.957 89.0291 133.168 88.8179 133.429 88.8179H159.997C160.258 88.8179 160.469 89.0291 160.469 89.29C160.469 89.5508 160.258 89.7621 159.997 89.7621" fill="#192331"/>
<path fill-rule="evenodd" clip-rule="evenodd" d="M130.472 89.6548H128.048C127.847 89.6548 127.684 89.4916 127.684 89.29C127.684 89.0887 127.847 88.9255 128.048 88.9255H130.472C130.673 88.9255 130.836 89.0887 130.836 89.29C130.836 89.4916 130.673 89.6548 130.472 89.6548" fill="#FFFFFE"/>
<path fill-rule="evenodd" clip-rule="evenodd" d="M140.074 65.163H145.551V45.7122H140.074V65.163Z" fill="#006BFF"/>
<path fill-rule="evenodd" clip-rule="evenodd" d="M150.18 65.1629H155.656V54.0212H150.18V65.1629Z" fill="#006BFF"/>
<path fill-rule="evenodd" clip-rule="evenodd" d="M160.281 65.1631H165.758V49.0171H160.281V65.1631Z" fill="#001E57"/>
<path fill-rule="evenodd" clip-rule="evenodd" d="M163.02 37.3548H113.449C113.188 37.3548 112.977 37.1435 112.977 36.8827C112.977 36.6219 113.188 36.4104 113.449 36.4104H163.02C163.28 36.4104 163.492 36.6219 163.492 36.8827C163.492 37.1435 163.28 37.3548 163.02 37.3548" fill="#192331"/>
<path fill-rule="evenodd" clip-rule="evenodd" d="M122.252 36.8827C122.252 38.5906 120.867 39.9753 119.159 39.9753C117.451 39.9753 116.066 38.5906 116.066 36.8827C116.066 35.1745 117.451 33.7898 119.159 33.7898C120.867 33.7898 122.252 35.1745 122.252 36.8827" fill="#006BFF"/>
<path fill-rule="evenodd" clip-rule="evenodd" d="M134.97 36.8827C134.97 38.5906 133.586 39.9753 131.878 39.9753C130.17 39.9753 128.785 38.5906 128.785 36.8827C128.785 35.1745 130.17 33.7898 131.878 33.7898C133.586 33.7898 134.97 35.1745 134.97 36.8827" fill="#006BFF"/>
<path fill-rule="evenodd" clip-rule="evenodd" d="M147.685 36.8827C147.685 38.5906 146.301 39.9753 144.593 39.9753C142.884 39.9753 141.5 38.5906 141.5 36.8827C141.5 35.1745 142.884 33.7898 144.593 33.7898C146.301 33.7898 147.685 35.1745 147.685 36.8827" fill="#006BFF"/>
<path fill-rule="evenodd" clip-rule="evenodd" d="M160.4 36.8827C160.4 38.5906 159.016 39.9753 157.308 39.9753C155.6 39.9753 154.215 38.5906 154.215 36.8827C154.215 35.1745 155.6 33.7898 157.308 33.7898C159.016 33.7898 160.4 35.1745 160.4 36.8827" fill="#006BFF"/>
<path fill-rule="evenodd" clip-rule="evenodd" d="M119.16 31.646C118.899 31.646 118.688 31.4348 118.688 31.1739V28.672C118.688 28.4112 118.899 28.1997 119.16 28.1997C119.42 28.1997 119.632 28.4112 119.632 28.672V31.1739C119.632 31.4348 119.42 31.646 119.16 31.646" fill="#192331"/>
<path fill-rule="evenodd" clip-rule="evenodd" d="M131.875 31.646C131.614 31.646 131.402 31.4347 131.402 31.1739V26.1696C131.402 25.9088 131.614 25.6975 131.875 25.6975C132.135 25.6975 132.347 25.9088 132.347 26.1696V31.1739C132.347 31.4347 132.135 31.646 131.875 31.646" fill="#192331"/>
<path fill-rule="evenodd" clip-rule="evenodd" d="M144.593 31.6459C144.332 31.6459 144.121 31.4347 144.121 31.1739V23.0536C144.121 22.7928 144.332 22.5815 144.593 22.5815C144.854 22.5815 145.065 22.7928 145.065 23.0536V31.1739C145.065 31.4347 144.854 31.6459 144.593 31.6459" fill="#192331"/>
<path fill-rule="evenodd" clip-rule="evenodd" d="M157.308 31.646C157.047 31.646 156.836 31.4348 156.836 31.1739V28.672C156.836 28.4112 157.047 28.1997 157.308 28.1997C157.569 28.1997 157.78 28.4112 157.78 28.672V31.1739C157.78 31.4348 157.569 31.646 157.308 31.646" fill="#192331"/>
<path fill-rule="evenodd" clip-rule="evenodd" d="M379.819 101.399H349.689C349.429 101.399 349.217 101.187 349.217 100.927C349.217 100.666 349.429 100.455 349.689 100.455H379.819C383.109 100.455 385.786 97.7782 385.786 94.4886V49.1848C385.786 45.8949 383.109 43.2186 379.819 43.2186H302.494C299.204 43.2186 296.527 45.8949 296.527 49.1848V94.4886C296.527 97.7782 299.204 100.455 302.494 100.455H332.176C332.437 100.455 332.649 100.666 332.649 100.927C332.649 101.187 332.437 101.399 332.176 101.399H302.494C298.683 101.399 295.582 98.2989 295.582 94.4886V49.1848C295.582 45.3744 298.683 42.2744 302.494 42.2744H379.819C383.629 42.2744 386.731 45.3744 386.731 49.1848V94.4886C386.731 98.2989 383.629 101.399 379.819 101.399" fill="#001E57"/>
<path fill-rule="evenodd" clip-rule="evenodd" d="M332.176 100.927L341.154 109.655L349.688 100.929L332.176 100.927" fill="#FFFFFE"/>
<path fill-rule="evenodd" clip-rule="evenodd" d="M341.154 110.128C341.037 110.128 340.917 110.083 340.827 109.994L331.846 101.265C331.659 101.083 331.655 100.785 331.837 100.598C332.019 100.411 332.316 100.406 332.503 100.588L341.147 108.989L349.35 100.599C349.534 100.412 349.831 100.409 350.018 100.591C350.204 100.774 350.209 101.073 350.025 101.259L341.493 109.985C341.401 110.08 341.279 110.128 341.154 110.128" fill="#001E57"/>
<path fill-rule="evenodd" clip-rule="evenodd" d="M307.234 89.3441C307.234 89.3441 319.167 69.2857 330.509 75.2328C341.85 81.1801 338.318 57.1047 354.125 59.0189C369.935 60.933 375.076 89.3441 375.076 89.3441H307.234" fill="#006BFF"/>
<path fill-rule="evenodd" clip-rule="evenodd" d="M307.234 89.3441C307.449 89.3441 308.423 87.8119 308.578 87.6338C309.723 86.2968 310.997 85.0538 312.407 83.996C314.391 82.5088 316.708 81.7052 319.185 81.6775C321.127 81.6559 322.823 82.7123 324.689 83.068C328.892 83.8691 330.067 80.165 330.286 76.7578C330.424 74.6107 330.996 72.3947 331.998 70.4858C333.348 67.918 335.698 66.1753 338.649 66.0479C340.774 65.956 342.861 66.5815 344.852 67.3282C348.914 68.8535 353.043 70.7248 357.489 69.9803C361.742 69.2682 364.404 66.1285 365.274 61.9977C367.887 49.5876 375.076 54.8129 375.076 59.8204C375.076 64.8281 375.076 89.3441 375.076 89.3441C375.076 89.3441 307.313 89.3441 307.234 89.3441" fill="#001E57"/>
<path fill-rule="evenodd" clip-rule="evenodd" d="M312.876 74.5586C312.616 74.5586 312.406 74.3471 312.406 74.0863V69.5868C312.406 69.326 312.616 69.1147 312.876 69.1147C313.139 69.1147 313.349 69.326 313.349 69.5868V74.0863C313.349 74.3471 313.139 74.5586 312.876 74.5586" fill="#192331"/>
<path fill-rule="evenodd" clip-rule="evenodd" d="M327.972 67.1385C327.712 67.1385 327.5 66.9272 327.5 66.6664V62.1667C327.5 61.9061 327.712 61.6946 327.972 61.6946C328.233 61.6946 328.445 61.9061 328.445 62.1667V66.6664C328.445 66.9272 328.233 67.1385 327.972 67.1385" fill="#192331"/>
<path fill-rule="evenodd" clip-rule="evenodd" d="M315.76 63.3819C315.76 64.9753 314.467 66.2672 312.873 66.2672C311.281 66.2672 309.988 64.9753 309.988 63.3819C309.988 61.7882 311.281 60.4963 312.873 60.4963C314.467 60.4963 315.76 61.7882 315.76 63.3819" fill="#006BFF"/>
<path fill-rule="evenodd" clip-rule="evenodd" d="M330.857 55.5262C330.857 57.1198 329.565 58.4117 327.971 58.4117C326.378 58.4117 325.086 57.1198 325.086 55.5262C325.086 53.9327 326.378 52.6409 327.971 52.6409C329.565 52.6409 330.857 53.9327 330.857 55.5262" fill="#006BFF"/>
<path fill-rule="evenodd" clip-rule="evenodd" d="M359.831 51.493H351.125C350.862 51.493 350.652 51.2815 350.652 51.0209C350.652 50.7601 350.862 50.5486 351.125 50.5486H359.831C360.094 50.5486 360.304 50.7601 360.304 51.0209C360.304 51.2815 360.094 51.493 359.831 51.493" fill="#001E57"/>
<path fill-rule="evenodd" clip-rule="evenodd" d="M359.83 54.7332H354.496C354.235 54.7332 354.023 54.522 354.023 54.2612C354.023 54.0003 354.235 53.7891 354.496 53.7891H359.83C360.092 53.7891 360.302 54.0003 360.302 54.2612C360.302 54.522 360.092 54.7332 359.83 54.7332" fill="#001E57"/>
<path fill-rule="evenodd" clip-rule="evenodd" d="M369.441 212.168H388.058V196.165H369.441V212.168Z" fill="#B6C3D7"/>
<path fill-rule="evenodd" clip-rule="evenodd" d="M370.957 210.654H386.546V197.678H370.957V210.654ZM367.93 213.684H389.573V194.651H367.93V213.684Z" fill="#B6C3D7"/>
<path fill-rule="evenodd" clip-rule="evenodd" d="M388.615 214.346H359.875C359.875 211.761 361.969 209.666 364.554 209.666H388.615V214.346" fill="#B6C3D7"/>
<path fill-rule="evenodd" clip-rule="evenodd" d="M361.035 213.327H387.596V210.682H364.553C362.885 210.682 361.477 211.802 361.035 213.327ZM389.63 215.362H358.855V214.343C358.855 211.203 361.413 208.648 364.553 208.648H389.63V215.362V215.362Z" fill="#B6C3D7"/>
<path fill-rule="evenodd" clip-rule="evenodd" d="M378.708 184.273L378.188 183.762L408.589 152.802L409.109 153.313L378.708 184.273" fill="#FFFFFE"/>
<path fill-rule="evenodd" clip-rule="evenodd" d="M363.154 144.49L362.633 143.979L368.381 138.125L368.902 138.635L363.154 144.49" fill="#FFFFFE"/>
<path fill-rule="evenodd" clip-rule="evenodd" d="M337.255 182.064L336.734 181.553L360.691 157.156L361.212 157.667L337.255 182.064" fill="#FFFFFE"/>
<path fill-rule="evenodd" clip-rule="evenodd" d="M266.804 168.396L266.027 167.633L286.183 147.107L286.959 147.869L266.804 168.396" fill="#E2E8EF"/>
<path fill-rule="evenodd" clip-rule="evenodd" d="M160.921 165.638L160.145 164.875L172.038 152.764L172.815 153.527L160.921 165.638" fill="#E2E8EF"/>
<path fill-rule="evenodd" clip-rule="evenodd" d="M270.646 92.1793L269.867 91.4164L279.77 81.3325L280.546 82.0954L270.646 92.1793" fill="#E2E8EF"/>
<path fill-rule="evenodd" clip-rule="evenodd" d="M250.116 92.1793L249.34 91.4164L255.25 85.3972L256.026 86.1598L250.116 92.1793" fill="#E2E8EF"/>
<path fill-rule="evenodd" clip-rule="evenodd" d="M273.423 202.625L272.902 202.116L283.369 191.457L283.888 191.967L273.423 202.625" fill="#FFFFFE"/>
<path fill-rule="evenodd" clip-rule="evenodd" d="M279.896 208.012L279.375 207.5L284.172 202.616L284.693 203.125L279.896 208.012" fill="#FFFFFE"/>
<path fill-rule="evenodd" clip-rule="evenodd" d="M327.094 238.726H344.825V237.996H327.094V238.726Z" fill="#B6C3D7"/>
<path fill-rule="evenodd" clip-rule="evenodd" d="M374.539 238.726H392.271V237.996H374.539V238.726Z" fill="#B6C3D7"/>
<path fill-rule="evenodd" clip-rule="evenodd" d="M76.4005 273.572L69.8276 297.757H54.1473L47.5742 273.572H76.4005" fill="#B6C3D7"/>
<path fill-rule="evenodd" clip-rule="evenodd" d="M70.2435 273.572L63.6704 297.757H54.1473L47.5742 273.572H70.2435" fill="#E2E8EF"/>
<path fill-rule="evenodd" clip-rule="evenodd" d="M52.2881 228.395C51.9973 228.709 45.5023 221.564 45.1371 221.115C41.0487 216.101 36.9513 209.56 36.9397 202.895C36.9347 199.812 37.3153 195.941 34.6562 193.727C35.7336 194.333 36.7672 195.047 37.7309 195.821C40.0983 197.718 41.4272 200.538 43.3564 202.823C45.1289 204.922 47.0409 206.899 48.8123 208.998C52.2825 213.113 55.4208 217.997 54.6252 223.626C54.3723 225.414 53.5235 227.066 52.2881 228.395" fill="#B6C3D7"/>
<path fill-rule="evenodd" clip-rule="evenodd" d="M70.2422 237.326C70.2422 237.326 71.1255 210.348 90.4496 206.217C91.691 205.952 92.9566 205.818 94.2245 205.761L102.418 205.399C102.418 205.399 81.6963 217.431 76.3579 228.925C74.946 231.964 73.024 234.741 70.5691 237.022L70.2422 237.326" fill="#B6C3D7"/>
<path fill-rule="evenodd" clip-rule="evenodd" d="M51.5742 248.811C51.5742 248.811 43.6956 236.851 36.4132 238.137C29.1307 239.42 23.087 246.844 20.543 257.269C23.326 254.928 26.4451 252.887 29.6523 251.187C32.2491 249.809 35.1699 248.549 38.1787 248.194C41.4253 247.811 44.2666 248.747 47.1599 250.118C49.0824 251.028 51.1797 251.493 53.3054 251.668L51.5742 248.811" fill="#B6C3D7"/>
<path fill-rule="evenodd" clip-rule="evenodd" d="M73.6712 242.871C76.324 240.245 81.1959 236.729 88.6424 236.128C94.4026 235.662 100.149 237.185 105.033 240.275L106.074 240.931C106.074 240.931 83.0485 259.919 72.6962 248.827C71.7121 246.837 72.0941 244.433 73.6712 242.871" fill="#B6C3D7"/>
<path fill-rule="evenodd" clip-rule="evenodd" d="M51.6816 226.481C51.2439 225.25 50.8497 224.006 50.4527 222.764L49.8767 220.896C49.6875 220.267 49.5016 219.668 49.2687 219.069C48.806 217.878 48.2614 216.719 47.6238 215.606C46.9988 214.488 46.3076 213.403 45.5659 212.348C44.8358 211.29 44.0582 210.233 43.319 209.157C42.5871 208.074 41.8555 206.984 41.2054 205.841C40.5448 204.703 39.9481 203.526 39.4527 202.305C39.2179 201.69 38.988 201.074 38.8131 200.441C38.6279 199.81 38.482 199.176 38.3281 198.54L38.7025 199.446C38.8221 199.75 38.9454 200.051 39.0737 200.349C39.3232 200.945 39.6036 201.528 39.8983 202.102C40.4874 203.252 41.1632 204.351 41.868 205.431C42.5843 206.505 43.3188 207.569 44.0909 208.613C44.8503 209.668 45.6228 210.705 46.3852 211.781C47.1266 212.869 47.8347 213.984 48.4514 215.156C48.7588 215.742 49.0452 216.338 49.306 216.949C49.5712 217.557 49.8048 218.179 50.0011 218.813C50.1999 219.442 50.3739 220.096 50.5061 220.73L50.9239 222.64C51.1891 223.916 51.457 225.193 51.6816 226.481" fill="#E2E8EF"/>
<path fill-rule="evenodd" clip-rule="evenodd" d="M74.4727 246.728C75.3689 245.947 76.3638 245.284 77.3775 244.659C78.3982 244.042 79.456 243.484 80.5437 242.991C81.6275 242.487 82.7475 242.06 83.8808 241.676C85.0185 241.302 86.1779 240.996 87.3467 240.733C88.5192 240.485 89.7065 240.307 90.8974 240.178C91.4946 240.127 92.0913 240.077 92.6902 240.058C93.2876 240.019 93.8871 240.035 94.485 240.035C96.8763 240.086 99.2598 240.418 101.543 241.067C99.1812 240.826 96.8323 240.72 94.494 240.814C92.1577 240.927 89.8355 241.208 87.5555 241.708C85.2724 242.19 83.0316 242.869 80.8444 243.706C79.7532 244.129 78.6687 244.581 77.6082 245.088C76.543 245.588 75.4952 246.127 74.4727 246.728" fill="#E2E8EF"/>
<path fill-rule="evenodd" clip-rule="evenodd" d="M49.7973 248.581C47.9863 246.952 45.9611 245.599 43.791 244.625C41.622 243.662 39.2622 243.141 36.9368 243.355C36.3546 243.39 35.7816 243.503 35.2099 243.618L34.3655 243.853C34.0842 243.931 33.8167 244.056 33.5386 244.148C33.4018 244.201 33.2605 244.242 33.1269 244.302L32.7269 244.489L32.3265 244.673C32.1917 244.733 32.0588 244.798 31.933 244.876L31.1632 245.316C31.0309 245.383 30.9084 245.466 30.7856 245.551L30.4153 245.798C28.4399 247.129 26.7027 248.832 25.0859 250.654C26.3704 248.583 27.9834 246.678 29.961 245.166C30.93 244.385 32.035 243.77 33.1875 243.27C34.3443 242.772 35.5919 242.475 36.852 242.362C38.1139 242.263 39.3887 242.353 40.6165 242.627C41.842 242.911 43.026 243.346 44.1267 243.924C46.3284 245.076 48.2815 246.664 49.7973 248.581" fill="#E2E8EF"/>
<path fill-rule="evenodd" clip-rule="evenodd" d="M71.8711 233.863C72.2529 232.361 72.7729 230.898 73.3298 229.451C73.8986 228.006 74.5283 226.587 75.2276 225.197C76.6233 222.419 78.2734 219.76 80.2049 217.302C81.1855 216.087 82.2161 214.908 83.3399 213.818C84.477 212.742 85.6679 211.719 86.9572 210.827C88.25 209.943 89.6225 209.178 91.0507 208.546C92.4963 207.952 93.9941 207.5 95.5198 207.238C94.0455 207.715 92.6186 208.284 91.2606 208.989C89.9114 209.71 88.6329 210.544 87.4155 211.456C85.0094 213.325 82.8706 215.521 80.9866 217.921C80.0252 219.108 79.1508 220.364 78.3071 221.638C77.4562 222.912 76.674 224.23 75.9125 225.562C75.1637 226.9 74.4449 228.259 73.776 229.646C73.0989 231.029 72.4609 232.432 71.8711 233.863" fill="#E2E8EF"/>
<path fill-rule="evenodd" clip-rule="evenodd" d="M223.836 59.9919H277.222V2.35596H223.836V59.9919Z" fill="#B6C3D7"/>
<path fill-rule="evenodd" clip-rule="evenodd" d="M222.23 57.9398H271.513V4.4082H222.23V57.9398Z" fill="#FFFFFE"/>
<path fill-rule="evenodd" clip-rule="evenodd" d="M224.283 55.8876H269.462V6.46053H224.283V55.8876ZM220.18 59.9919H273.566V2.35596H220.18V59.9919Z" fill="#E2E8EF"/>
<path fill-rule="evenodd" clip-rule="evenodd" d="M227.457 52.2655H266.291V10.0818H227.457V52.2655Z" fill="#B6C3D7"/>
<path fill-rule="evenodd" clip-rule="evenodd" d="M227.457 39.6571H266.291V10.0818H227.457V39.6571Z" fill="#E2E8EF"/>
<path fill-rule="evenodd" clip-rule="evenodd" d="M264.097 18.4168C264.097 21.9364 261.243 24.7894 257.724 24.7894C254.204 24.7894 251.352 21.9364 251.352 18.4168C251.352 14.8972 254.204 12.0439 257.724 12.0439C261.243 12.0439 264.097 14.8972 264.097 18.4168" fill="#FFFFFE"/>
<path fill-rule="evenodd" clip-rule="evenodd" d="M253.537 45.2499H240.208L235.441 39.657H258.302L253.537 45.2499" fill="#FFFFFE"/>
<path fill-rule="evenodd" clip-rule="evenodd" d="M246.449 41.6725H247.299V32.9099H246.449V41.6725Z" fill="#FFFFFE"/>
<path fill-rule="evenodd" clip-rule="evenodd" d="M246.959 16.2859C246.959 16.2859 238.393 34.6322 239.1 34.9206C239.805 35.2093 255.783 38.587 255.783 38.587L246.959 16.2859" fill="#B6C3D7"/>
<path fill-rule="evenodd" clip-rule="evenodd" d="M246.956 16.2859L243.848 36.024L247.262 36.7634L246.956 16.2859" fill="#FFFFFE"/>
<path fill-rule="evenodd" clip-rule="evenodd" d="M102.629 167.37H99.0718C98.7711 167.37 98.5273 167.126 98.5273 166.825C98.5273 166.525 98.7711 166.281 99.0718 166.281H102.629C102.929 166.281 103.173 166.525 103.173 166.825C103.173 167.126 102.929 167.37 102.629 167.37" fill="#B6C3D7"/>
<path fill-rule="evenodd" clip-rule="evenodd" d="M91.5249 167.37H25.0835C24.7828 167.37 24.5391 167.126 24.5391 166.825C24.5391 166.525 24.7828 166.281 25.0835 166.281H91.5249C91.8255 166.281 92.0693 166.525 92.0693 166.825C92.0693 167.126 91.8255 167.37 91.5249 167.37" fill="#B6C3D7"/>
<path fill-rule="evenodd" clip-rule="evenodd" d="M216.147 258.711H207.62C205.088 258.711 203.035 256.658 203.035 254.129V254.126C203.035 251.594 205.088 249.544 207.62 249.544H216.147C218.679 249.544 220.732 251.594 220.732 254.126V254.129C220.732 256.658 218.679 258.711 216.147 258.711" fill="#E3E8EF"/>
<path fill-rule="evenodd" clip-rule="evenodd" d="M204.913 271.121H196.386C193.854 271.121 191.801 269.068 191.801 266.536C191.801 264.004 193.854 261.951 196.386 261.951H204.913C207.445 261.951 209.498 264.004 209.498 266.536C209.498 269.068 207.445 271.121 204.913 271.121" fill="#E3E8EF"/>
<path fill-rule="evenodd" clip-rule="evenodd" d="M228.014 271.121H219.487C216.955 271.121 214.902 269.068 214.902 266.536C214.902 264.004 216.955 261.951 219.487 261.951H228.014C230.547 261.951 232.599 264.004 232.599 266.536C232.599 269.068 230.547 271.121 228.014 271.121" fill="#E3E8EF"/>
<path fill-rule="evenodd" clip-rule="evenodd" d="M129.443 218.931H120.917C118.385 218.931 116.332 216.878 116.332 214.346C116.332 211.814 118.385 209.761 120.917 209.761H129.443C131.976 209.761 134.028 211.814 134.028 214.346C134.028 216.878 131.976 218.931 129.443 218.931" fill="#E3E8EF"/>
<path fill-rule="evenodd" clip-rule="evenodd" d="M118.213 231.34H109.686C107.154 231.34 105.102 229.287 105.102 226.755C105.102 224.223 107.154 222.17 109.686 222.17H118.213C120.745 222.17 122.798 224.223 122.798 226.755C122.798 229.287 120.745 231.34 118.213 231.34" fill="#E3E8EF"/>
<path fill-rule="evenodd" clip-rule="evenodd" d="M429.243 96.9217H420.715C418.186 96.9217 416.133 94.869 416.133 92.3369C416.133 89.8048 418.186 87.7522 420.715 87.7522H429.243C431.775 87.7522 433.828 89.8048 433.828 92.3369C433.828 94.869 431.775 96.9217 429.243 96.9217" fill="#E3E8EF"/>
<path fill-rule="evenodd" clip-rule="evenodd" d="M418.011 109.33H409.483C406.951 109.33 404.898 107.277 404.898 104.745C404.898 102.213 406.951 100.16 409.483 100.16H418.011C420.543 100.16 422.595 102.213 422.595 104.745C422.595 107.277 420.543 109.33 418.011 109.33" fill="#E3E8EF"/>
<path fill-rule="evenodd" clip-rule="evenodd" d="M33.3028 61.1265H24.7761C22.244 61.1265 20.1914 59.0739 20.1914 56.5418C20.1914 54.0099 22.244 51.957 24.7761 51.957H33.3028C35.8349 51.957 37.8875 54.0099 37.8875 56.5418C37.8875 59.0739 35.8349 61.1265 33.3028 61.1265" fill="#E3E8EF"/>
<path fill-rule="evenodd" clip-rule="evenodd" d="M22.0686 73.5349H13.5418C11.0099 73.5349 8.95703 71.4823 8.95703 68.9502C8.95703 66.4183 11.0099 64.3655 13.5418 64.3655H22.0686C24.6005 64.3655 26.6534 66.4183 26.6534 68.9502C26.6534 71.4823 24.6005 73.5349 22.0686 73.5349" fill="#E3E8EF"/>
<path fill-rule="evenodd" clip-rule="evenodd" d="M404.9 73.3476C400.997 73.3476 397.154 72.7336 393.479 71.5229C393.194 71.4288 393.039 71.121 393.134 70.8356C393.228 70.5503 393.535 70.3943 393.82 70.489C397.384 71.6634 401.112 72.259 404.9 72.259C424.408 72.259 440.278 56.389 440.278 36.8827C440.278 17.3761 424.408 1.50636 404.9 1.50636C386.682 1.50636 371.2 15.7071 369.654 33.8361C369.628 34.1356 369.366 34.3573 369.066 34.3319C368.767 34.3066 368.543 34.043 368.568 33.7435C369.343 24.6779 373.464 16.2739 380.176 10.0793C386.927 3.84907 395.707 0.417725 404.9 0.417725C425.007 0.417725 441.366 16.7757 441.366 36.8827C441.366 56.9894 425.007 73.3476 404.9 73.3476" fill="#E3E8EF"/>
<path fill-rule="evenodd" clip-rule="evenodd" d="M408.851 35.6641C408.851 37.8094 407.112 39.5486 404.967 39.5486C402.822 39.5486 401.082 37.8094 401.082 35.6641C401.082 33.5188 402.822 31.7798 404.967 31.7798C407.112 31.7798 408.851 33.5188 408.851 35.6641" fill="#B6C3D7"/>
<path fill-rule="evenodd" clip-rule="evenodd" d="M422.596 48.3687C422.522 48.3687 422.451 48.3475 422.386 48.303L404.602 35.854V12.8362C404.602 12.6346 404.763 12.4714 404.966 12.4714C405.166 12.4714 405.33 12.6346 405.33 12.8362V35.4743L422.805 47.7054C422.969 47.8208 423.011 48.0484 422.895 48.2132C422.824 48.3145 422.711 48.3687 422.596 48.3687" fill="#B6C3D7"/>
</svg>
