<svg width="599" height="407" viewBox="0 0 599 407" fill="none" xmlns="http://www.w3.org/2000/svg">
<path opacity="0.538458" fill-rule="evenodd" clip-rule="evenodd" d="M101.997 43H110V119H11V43H101.997" fill="#E4E8EB"/>
<path fill-rule="evenodd" clip-rule="evenodd" d="M92.3608 34H99V110H0V34H92.3608" fill="white"/>
<path fill-rule="evenodd" clip-rule="evenodd" d="M55.1394 67.0645H55.9355C57.1626 67.0645 58.1613 66.0659 58.1613 64.8387V61.129C58.1613 60.7195 58.4944 60.3871 58.9032 60.3871H59.6452H61.129H73V50H68.5484V51.4839H65.5806V52.9677H62.6129V54.4516H59.6452V58.9032H58.9032C57.6761 58.9032 56.6774 59.9019 56.6774 61.129V64.8387C56.6774 65.2483 56.3443 65.5806 55.9355 65.5806H55.1342C54.9116 64.0337 54.0072 62.7079 52.7333 61.9147C52.8854 61.4221 52.9677 60.9116 52.9677 60.3871C52.9677 58.5909 52.05 57.0046 50.6596 56.072C50.7085 55.7826 50.7419 55.4896 50.7419 55.1935C50.7419 52.3304 48.4123 50 45.5484 50C43.6616 50 42.0064 51.0113 41.0968 52.5204C40.1872 51.0113 38.5319 50 36.6452 50C33.7813 50 31.4516 52.3304 31.4516 55.1935C31.4516 55.4874 31.4776 55.7826 31.5288 56.075C30.0946 57.0328 29.2258 58.6384 29.2258 60.3871C29.2258 60.9176 29.3067 61.4303 29.4551 61.9125C27.946 62.8518 27 64.5137 27 66.3226C27 68.1826 27.986 69.8126 29.4603 70.7304C29.3082 71.2231 29.2258 71.7335 29.2258 72.2581C29.2258 74.0543 30.1436 75.6405 31.534 76.5732C31.485 76.8633 31.4516 77.1556 31.4516 77.4516C31.4516 80.3147 33.7813 82.6452 36.6452 82.6452C38.0986 82.6452 39.4111 82.0405 40.3548 81.0745V83.3871C40.3548 83.7966 40.0217 84.129 39.6129 84.129H29.2258C27.9986 84.129 27 85.1277 27 86.3548C27 87.582 27.9986 88.5806 29.2258 88.5806H42.7075C42.9056 88.5806 43.0926 88.6578 43.2328 88.798L43.8471 89.4124C44.2671 89.833 44.8265 90.0645 45.4215 90.0645H59.6452V91.3265L60.6253 91.6819L60.1838 92.6264L63.018 95.4606L63.9625 95.0184L64.3186 96H68.3258L68.6819 95.0199L69.6264 95.4621L72.4606 92.6279L72.0192 91.6834L73 91.3265V87.3186L72.0199 86.9632L72.4614 86.0187L69.6272 83.1845L68.6827 83.6267L68.3265 82.6452H64.3194L63.9632 83.6253L63.0187 83.1831L60.1845 86.0173L60.626 86.9617L59.6452 87.3186V88.5806H45.4215C45.2234 88.5806 45.0365 88.5035 44.8962 88.3633L44.2819 87.7489C43.862 87.329 43.3025 87.0968 42.7075 87.0968H29.2258C28.817 87.0968 28.4839 86.7644 28.4839 86.3548C28.4839 85.9453 28.817 85.6129 29.2258 85.6129H39.6129C40.8401 85.6129 41.8387 84.6143 41.8387 83.3871V81.0745C42.7825 82.0405 44.0949 82.6452 45.5484 82.6452H55.1935C56.4207 82.6452 57.4194 81.6465 57.4194 80.4194V75.9677C57.4194 75.5582 57.7525 75.2258 58.1613 75.2258H63.3333C63.3357 75.2461 63.3389 75.2661 63.342 75.286C63.3484 75.3272 63.3548 75.3683 63.3548 75.4113V76.7097C63.3548 78.3464 64.6859 79.6774 66.3226 79.6774C67.9593 79.6774 69.2903 78.3464 69.2903 76.7097V75.3809C69.2903 74.8764 69.5292 74.4215 69.9299 74.1641C71.8522 72.928 73 70.8284 73 68.5484C73 66.6483 72.1868 64.8328 70.7697 63.567C69.3534 62.3013 67.4474 61.7011 65.5473 61.914C62.5417 62.2538 60.0829 64.6762 59.7008 67.6736C59.4003 70.033 60.3344 72.2915 62.1485 73.7419H58.1613C56.9341 73.7419 55.9355 74.7406 55.9355 75.9677V80.4194C55.9355 80.8289 55.6024 81.1613 55.1935 81.1613H49.1757C50.141 80.2175 50.7419 78.9043 50.7419 77.4516C50.7419 77.1578 50.716 76.8625 50.6648 76.5702C52.0989 75.6124 52.9677 74.0068 52.9677 72.2581C52.9677 71.7276 52.8869 71.2149 52.7385 70.7326C54.0384 69.9239 54.9198 68.5788 55.1394 67.0645ZM70.0323 51.4839H71.5161V58.9032H70.0323V51.4839ZM67.0645 58.9032H68.5484V52.9677H67.0645V58.9032ZM65.5806 54.4516V58.9032H64.0968V54.4516H65.5806ZM62.6129 55.9355H61.129V58.9032H62.6129V55.9355ZM61.129 88.3588L61.7396 88.1362L62.0713 87.9789L62.3851 87.2229L61.9682 86.3318L63.3311 84.9682L64.2214 85.3836L65.0227 85.0535L65.3588 84.129H67.2871L67.5089 84.7396L67.6595 85.0676L68.4245 85.3836L69.3148 84.9682L70.6777 86.3318L70.2608 87.2229L70.5924 88.022L71.5161 88.3588V90.2864L70.9055 90.5089L70.5739 90.6662L70.26 91.4223L70.677 92.3133L69.3141 93.677L68.4252 93.2615L67.6232 93.5917L67.2864 94.5161H65.3581L65.1362 93.9055L64.9849 93.5768L64.2199 93.2615L63.3311 93.677L61.9682 92.3133L62.3851 91.4223L62.0535 90.6232L61.129 90.2864V88.3588ZM64.8387 76.7097C64.8387 77.528 65.5042 78.1935 66.3226 78.1935C67.1409 78.1935 67.8065 77.528 67.8065 76.7097H64.8387ZM65.5806 68.5484C65.5806 68.1388 65.9138 67.8065 66.3226 67.8065C66.7314 67.8065 67.0645 68.1388 67.0645 68.5484C67.0645 68.9579 66.7314 69.2903 66.3226 69.2903C65.9138 69.2903 65.5806 68.9579 65.5806 68.5484ZM65.7142 63.3897C63.3801 63.6531 61.4703 65.5339 61.1735 67.8614C60.9146 69.8905 61.8176 71.83 63.5299 72.9236C64.3001 73.4162 64.7727 74.268 64.8276 75.2258H65.5806V70.6377C64.7193 70.3305 64.0968 69.5144 64.0968 68.5484C64.0968 67.3212 65.0954 66.3226 66.3226 66.3226C67.5497 66.3226 68.5484 67.3212 68.5484 68.5484C68.5484 69.5144 67.9259 70.3305 67.0645 70.6377V75.2258H67.8154C67.8636 74.2769 68.3429 73.4207 69.1271 72.9169C70.6228 71.9546 71.5161 70.3216 71.5161 68.5484C71.5161 67.0712 70.8833 65.6585 69.7807 64.6733C68.817 63.8119 67.6091 63.3541 66.3293 63.3541C66.126 63.3541 65.9205 63.366 65.7142 63.3897ZM36.6452 81.1613C34.5996 81.1613 32.9355 79.4971 32.9355 77.4516C32.9355 77.4085 32.9395 77.3656 32.9435 77.3227C32.9462 77.294 32.9488 77.2653 32.9503 77.2365C33.417 77.3745 33.9089 77.4516 34.4194 77.4516V75.9677C32.3738 75.9677 30.7097 74.3036 30.7097 72.2581C30.7097 71.9405 30.7535 71.6304 30.8314 71.3292C31.2661 71.4471 31.7217 71.5161 32.1935 71.5161C35.0574 71.5161 37.3871 69.1857 37.3871 66.3226H35.9032C35.9032 68.3681 34.2391 70.0323 32.1935 70.0323C30.148 70.0323 28.4839 68.3681 28.4839 66.3226C28.4839 65.0873 29.1041 63.9514 30.1013 63.2673C31.0332 64.6606 32.6209 65.5806 34.4194 65.5806V64.0968C32.3738 64.0968 30.7097 62.4326 30.7097 60.3871C30.7097 58.9982 31.4783 57.7369 32.7144 57.0944L33.2553 56.8132L33.0854 56.2293C32.9859 55.8873 32.9355 55.5385 32.9355 55.1935C32.9355 53.148 34.5996 51.4839 36.6452 51.4839C38.6907 51.4839 40.3548 53.148 40.3548 55.1935V77.4516C40.3548 79.4971 38.6907 81.1613 36.6452 81.1613ZM47.7742 67.0645C49.5726 67.0645 51.1604 67.9845 52.093 69.3779C53.0894 68.6938 53.7097 67.5579 53.7097 66.3226C53.7097 64.2771 52.0455 62.6129 50 62.6129C47.9545 62.6129 46.2903 64.2771 46.2903 66.3226H44.8065C44.8065 63.4595 47.1361 61.129 50 61.129C50.4719 61.129 50.9274 61.198 51.3622 61.316C51.4401 61.0148 51.4839 60.7046 51.4839 60.3871C51.4839 58.3416 49.8197 56.6774 47.7742 56.6774V55.1935C48.2846 55.1935 48.7765 55.2707 49.2432 55.4087C49.2447 55.3799 49.2474 55.3511 49.2501 55.3225C49.2541 55.2795 49.2581 55.2367 49.2581 55.1935C49.2581 53.148 47.5939 51.4839 45.5484 51.4839C43.5029 51.4839 41.8387 53.148 41.8387 55.1935V77.4516C41.8387 79.4971 43.5029 81.1613 45.5484 81.1613C47.5939 81.1613 49.2581 79.4971 49.2581 77.4516C49.2581 77.1066 49.2076 76.7579 49.1082 76.4166L48.9383 75.832L49.4792 75.5508C50.7152 74.9083 51.4839 73.647 51.4839 72.2581C51.4839 70.2125 49.8197 68.5484 47.7742 68.5484V67.0645Z" fill="#1063FE"/>
<path d="M32.75 60.5417H34.0278C34.0278 60.189 34.3146 59.9028 34.6667 59.9028V58.625C33.6099 58.625 32.75 59.4849 32.75 60.5417Z" fill="#1063FE"/>
<path d="M48.0835 71.4028C48.4355 71.4028 48.7224 71.689 48.7224 72.0417H50.0002C50.0002 70.9849 49.1402 70.125 48.0835 70.125V71.4028Z" fill="#1063FE"/>
<path d="M44.25 71.0833V72.361C44.602 72.361 44.8889 72.6473 44.8889 72.9999H46.1667C46.1667 71.9432 45.3067 71.0833 44.25 71.0833Z" fill="#1063FE"/>
<path d="M36.5835 78.4306V79.7084C37.6402 79.7084 38.5002 78.8485 38.5002 77.7917H37.2224C37.2224 78.1444 36.9355 78.4306 36.5835 78.4306Z" fill="#1063FE"/>
<path d="M37.5417 73.6389C37.1896 73.6389 36.9028 73.3527 36.9028 73H35.625C35.625 74.0567 36.4849 74.9167 37.5417 74.9167V73.6389Z" fill="#1063FE"/>
<path d="M45.8474 57.6667H47.1252C47.1252 56.6099 46.2652 55.75 45.2085 55.75V57.0278C45.5605 57.0278 45.8474 57.314 45.8474 57.6667Z" fill="#1063FE"/>
<path d="M43.9304 60.5417H45.2082C45.2082 59.4849 44.3482 58.625 43.2915 58.625V59.9028C43.6435 59.9028 43.9304 60.189 43.9304 60.5417Z" fill="#1063FE"/>
<path d="M37.5417 63.0971C37.1896 63.0971 36.9028 62.8109 36.9028 62.4583H35.625C35.625 63.515 36.4849 64.3749 37.5417 64.3749V63.0971Z" fill="#1063FE"/>
<path d="M43.6113 76.8333H42.3335C42.3335 77.89 43.1934 78.7499 44.2502 78.7499V77.4721C43.8981 77.4721 43.6113 77.1859 43.6113 76.8333Z" fill="#1063FE"/>
<path d="M37.5417 55.7499V54.4721C37.1896 54.4721 36.9028 54.1859 36.9028 53.8333H35.625C35.625 54.89 36.4849 55.7499 37.5417 55.7499Z" fill="#1063FE"/>
<path fill-rule="evenodd" clip-rule="evenodd" d="M70.1252 89.2916C70.1252 91.4053 68.4055 93.1249 66.2918 93.1249C64.1781 93.1249 62.4585 91.4053 62.4585 89.2916C62.4585 87.1779 64.1781 85.4583 66.2918 85.4583C68.4055 85.4583 70.1252 87.1779 70.1252 89.2916ZM68.5918 89.2916C68.5918 88.0235 67.5599 86.9916 66.2918 86.9916C65.0238 86.9916 63.9918 88.0235 63.9918 89.2916C63.9918 90.5597 65.0238 91.5916 66.2918 91.5916C67.5599 91.5916 68.5918 90.5597 68.5918 89.2916Z" fill="#1063FE"/>
<path fill-rule="evenodd" clip-rule="evenodd" d="M100.065 112H0.934622C0.418138 112 0 111.581 0 111.063V33.9371C0 33.4194 0.418138 33 0.934622 33H16.7836C17.3001 33 17.7186 33.4194 17.7186 33.9371C17.7186 34.4548 17.3001 34.8742 16.7836 34.8742H1.86993V110.126H99.1301V34.8742H93.4168C92.9006 34.8742 92.4818 34.4548 92.4818 33.9371C92.4818 33.4194 92.9006 33 93.4168 33H100.065C100.582 33 101 33.4194 101 33.9371V111.063C101 111.581 100.582 112 100.065 112" fill="#B2BBC6"/>
<path fill-rule="evenodd" clip-rule="evenodd" d="M92.8383 35H13.1617C11.9676 35 11 34.5524 11 34C11 33.4476 11.9676 33 13.1617 33H92.8383C94.0324 33 95 33.4476 95 34C95 34.5524 94.0324 35 92.8383 35" fill="#B2BBC6"/>
<path fill-rule="evenodd" clip-rule="evenodd" d="M86.978 321.967H122.022V305.628C122.022 301.992 119.095 299.033 115.497 299.033H93.5034C89.9053 299.033 86.978 301.992 86.978 305.628V321.967ZM124.511 327H84.4888C83.1144 327 82 325.872 82 324.485V305.628C82 299.216 87.1605 294 93.5034 294H115.497C121.84 294 127 299.216 127 305.628V324.485C127 325.872 125.886 327 124.511 327V327Z" fill="#D8DDE2"/>
<path fill-rule="evenodd" clip-rule="evenodd" d="M78.978 321.967H114.022V305.628C114.022 301.992 111.095 299.033 107.497 299.033H85.5034C81.9053 299.033 78.978 301.992 78.978 305.628V321.967ZM116.511 327H76.4888C75.1144 327 74 325.872 74 324.485V305.628C74 299.216 79.1605 294 85.5034 294H107.497C113.84 294 119 299.216 119 305.628V324.485C119 325.872 117.886 327 116.511 327V327Z" fill="#B2BBC6"/>
<path fill-rule="evenodd" clip-rule="evenodd" d="M154 405H41V324.828C41 320.506 44.5374 317 48.9008 317H146.099C150.463 317 154 320.506 154 324.828V405" fill="#D8DDE2"/>
<path fill-rule="evenodd" clip-rule="evenodd" d="M106.013 360L153.956 328.868C155.862 327.548 157 325.379 157 323.061C157 319.162 153.839 316 149.941 316H49.0595C45.1608 316 42 319.162 42 323.061V323.285C42 325.175 42.756 326.97 44.0771 328.289L85.3385 359.759L106.013 360" fill="#B2BBC6"/>
<path fill-rule="evenodd" clip-rule="evenodd" d="M85.6305 358.929L105.757 359.168L153.541 328.065C155.181 326.928 156.173 325.03 156.173 323.004C156.173 319.602 153.411 316.832 150.017 316.832H48.9835C45.5889 316.832 42.8271 319.602 42.8271 323.004V323.228C42.8271 324.84 43.4715 326.413 44.5969 327.561L85.6305 358.929ZM106.023 361C106.019 361 106.016 361 106.012 361L85.3063 360.758C85.1098 360.755 84.9195 360.689 84.7633 360.571L43.4395 328.978C43.4074 328.954 43.3774 328.926 43.3488 328.899C41.8561 327.408 41 325.341 41 323.228V323.004C41 318.589 44.5814 315 48.9835 315H150.017C154.419 315 158 318.589 158 323.004C158 325.631 156.713 328.093 154.558 329.587L106.52 360.855C106.372 360.952 106.199 361 106.023 361V361Z" fill="white"/>
<path fill-rule="evenodd" clip-rule="evenodd" d="M83 378H108V360H83V378Z" fill="white"/>
<path fill-rule="evenodd" clip-rule="evenodd" d="M88.8941 373.32H102.106V365.68H88.8941V373.32ZM103.053 375H87.9472C87.4239 375 87 374.626 87 374.16V364.84C87 364.377 87.4239 364 87.9472 364H103.053C103.576 364 104 364.377 104 364.84V374.16C104 374.626 103.576 375 103.053 375V375Z" fill="#909BA9"/>
<path fill-rule="evenodd" clip-rule="evenodd" d="M146 346C145.448 346 145 345.649 145 345.211V343.789C145 343.351 145.448 343 146 343C146.552 343 147 343.351 147 343.789V345.211C147 345.649 146.552 346 146 346" fill="white"/>
<path fill-rule="evenodd" clip-rule="evenodd" d="M146 352.428C145.448 352.428 145 352.006 145 351.488V347.94C145 347.422 145.448 347 146 347C146.552 347 147 347.422 147 347.94V351.488C147 352.006 146.552 352.428 146 352.428ZM146 359.524C145.448 359.524 145 359.102 145 358.584V355.036C145 354.518 145.448 354.096 146 354.096C146.552 354.096 147 354.518 147 355.036V358.584C147 359.102 146.552 359.524 146 359.524ZM146 366.62C145.448 366.62 145 366.198 145 365.68V362.132C145 361.614 145.448 361.192 146 361.192C146.552 361.192 147 361.614 147 362.132V365.68C147 366.198 146.552 366.62 146 366.62ZM146 373.716C145.448 373.716 145 373.294 145 372.776V369.228C145 368.71 145.448 368.288 146 368.288C146.552 368.288 147 368.71 147 369.228V372.776C147 373.294 146.552 373.716 146 373.716ZM146 380.812C145.448 380.812 145 380.39 145 379.872V376.324C145 375.802 145.448 375.383 146 375.383C146.552 375.383 147 375.802 147 376.324V379.872C147 380.39 146.552 380.812 146 380.812ZM146 387.904C145.448 387.904 145 387.485 145 386.964V383.42C145 382.898 145.448 382.479 146 382.479C146.552 382.479 147 382.898 147 383.42V386.964C147 387.485 146.552 387.904 146 387.904ZM146 395C145.448 395 145 394.581 145 394.06V390.512C145 389.994 145.448 389.572 146 389.572C146.552 389.572 147 389.994 147 390.512V394.06C147 394.581 146.552 395 146 395V395Z" fill="white"/>
<path fill-rule="evenodd" clip-rule="evenodd" d="M146.212 399H144.788C144.353 399 144 398.646 144 398.212C144 397.778 144.353 397.424 144.788 397.424H145.424V396.788C145.424 396.354 145.776 396 146.212 396C146.647 396 147 396.354 147 396.788V398.212C147 398.646 146.647 399 146.212 399" fill="white"/>
<path fill-rule="evenodd" clip-rule="evenodd" d="M58.1056 399H54.9139C54.4091 399 54 398.551 54 398C54 397.449 54.4091 397 54.9139 397H58.1056C58.6103 397 59.0195 397.449 59.0195 398C59.0195 398.551 58.6103 399 58.1056 399ZM64.4888 399H61.297C60.7923 399 60.3832 398.551 60.3832 398C60.3832 397.449 60.7923 397 61.297 397H64.4888C64.9935 397 65.4026 397.449 65.4026 398C65.4026 398.551 64.9935 399 64.4888 399ZM70.872 399H67.6802C67.1755 399 66.7663 398.551 66.7663 398C66.7663 397.449 67.1755 397 67.6802 397H70.872C71.3767 397 71.7858 397.449 71.7858 398C71.7858 398.551 71.3767 399 70.872 399ZM77.2548 399H74.0634C73.5583 399 73.1492 398.551 73.1492 398C73.1492 397.449 73.5583 397 74.0634 397H77.2548C77.7595 397 78.1686 397.449 78.1686 398C78.1686 398.551 77.7595 399 77.2548 399ZM83.6379 399H80.4462C79.9415 399 79.5323 398.551 79.5323 398C79.5323 397.449 79.9415 397 80.4462 397H83.6379C84.1427 397 84.5518 397.449 84.5518 398C84.5518 398.551 84.1427 399 83.6379 399ZM90.0211 399H86.8294C86.3247 399 85.9155 398.551 85.9155 398C85.9155 397.449 86.3247 397 86.8294 397H90.0211C90.5258 397 90.935 397.449 90.935 398C90.935 398.551 90.5258 399 90.0211 399ZM96.4043 399H93.2125C92.7078 399 92.2987 398.551 92.2987 398C92.2987 397.449 92.7078 397 93.2125 397H96.4043C96.909 397 97.3181 397.449 97.3181 398C97.3181 398.551 96.909 399 96.4043 399ZM102.787 399H99.5957C99.091 399 98.6819 398.551 98.6819 398C98.6819 397.449 99.091 397 99.5957 397H102.787C103.292 397 103.701 397.449 103.701 398C103.701 398.551 103.292 399 102.787 399ZM109.17 399H105.979C105.474 399 105.065 398.551 105.065 398C105.065 397.449 105.474 397 105.979 397H109.17C109.675 397 110.084 397.449 110.084 398C110.084 398.551 109.675 399 109.17 399ZM115.553 399H112.362C111.857 399 111.448 398.551 111.448 398C111.448 397.449 111.857 397 112.362 397H115.553C116.058 397 116.467 397.449 116.467 398C116.467 398.551 116.058 399 115.553 399ZM121.937 399H118.745C118.24 399 117.831 398.551 117.831 398C117.831 397.449 118.24 397 118.745 397H121.937C122.441 397 122.85 397.449 122.85 398C122.85 398.551 122.441 399 121.937 399ZM128.319 399H125.128C124.623 399 124.214 398.551 124.214 398C124.214 397.449 124.623 397 125.128 397H128.319C128.825 397 129.234 397.449 129.234 398C129.234 398.551 128.825 399 128.319 399ZM134.703 399H131.511C131.007 399 130.597 398.551 130.597 398C130.597 397.449 131.007 397 131.511 397H134.703C135.208 397 135.617 397.449 135.617 398C135.617 398.551 135.208 399 134.703 399ZM141.086 399H137.894C137.389 399 136.98 398.551 136.98 398C136.98 397.449 137.389 397 137.894 397H141.086C141.591 397 142 397.449 142 398C142 398.551 141.591 399 141.086 399V399Z" fill="white"/>
<path fill-rule="evenodd" clip-rule="evenodd" d="M52.2119 399H50.7884C50.3528 399 50 398.646 50 398.212V396.788C50 396.354 50.3528 396 50.7884 396C51.2236 396 51.5765 396.354 51.5765 396.788V397.424H52.2119C52.6472 397.424 53 397.778 53 398.212C53 398.646 52.6472 399 52.2119 399" fill="white"/>
<path fill-rule="evenodd" clip-rule="evenodd" d="M51.0002 350.982C50.4476 350.982 50 350.569 50 350.063V346.919C50 346.413 50.4476 346 51.0002 346C51.5524 346 52 346.413 52 346.919V350.063C52 350.569 51.5524 350.982 51.0002 350.982ZM51.0002 357.271C50.4476 357.271 50 356.858 50 356.352V353.208C50 352.701 50.4476 352.289 51.0002 352.289C51.5524 352.289 52 352.701 52 353.208V356.352C52 356.858 51.5524 357.271 51.0002 357.271ZM51.0002 363.559C50.4476 363.559 50 363.147 50 362.641V359.496C50 358.99 50.4476 358.578 51.0002 358.578C51.5524 358.578 52 358.99 52 359.496V362.641C52 363.147 51.5524 363.559 51.0002 363.559ZM51.0002 369.848C50.4476 369.848 50 369.436 50 368.93V365.785C50 365.276 50.4476 364.866 51.0002 364.866C51.5524 364.866 52 365.276 52 365.785V368.93C52 369.436 51.5524 369.848 51.0002 369.848ZM51.0002 376.137C50.4476 376.137 50 375.724 50 375.218V372.074C50 371.564 50.4476 371.155 51.0002 371.155C51.5524 371.155 52 371.564 52 372.074V375.218C52 375.724 51.5524 376.137 51.0002 376.137ZM51.0002 382.422C50.4476 382.422 50 382.013 50 381.504V378.363C50 377.853 50.4476 377.444 51.0002 377.444C51.5524 377.444 52 377.853 52 378.363V381.504C52 382.013 51.5524 382.422 51.0002 382.422ZM51.0002 388.711C50.4476 388.711 50 388.302 50 387.792V384.648C50 384.142 50.4476 383.729 51.0002 383.729C51.5524 383.729 52 384.142 52 384.648V387.792C52 388.302 51.5524 388.711 51.0002 388.711ZM51.0002 395C50.4476 395 50 394.591 50 394.081V390.937C50 390.431 50.4476 390.018 51.0002 390.018C51.5524 390.018 52 390.431 52 390.937V394.081C52 394.591 51.5524 395 51.0002 395V395Z" fill="white"/>
<path fill-rule="evenodd" clip-rule="evenodd" d="M51.0002 344C50.4476 344 50 343.646 50 343.211V341.789C50 341.351 50.4476 341 51.0002 341C51.5524 341 52 341.351 52 341.789V343.211C52 343.646 51.5524 344 51.0002 344" fill="white"/>
<path fill-rule="evenodd" clip-rule="evenodd" d="M588.987 142.149C595.227 149.343 599 158.731 599 169.001C599 191.644 580.644 210 558 210C535.356 210 517 191.644 517 169.001C517 146.357 535.356 128 558 128C565.988 128 573.439 130.283 579.739 134.231L588.987 142.149" fill="#D0E3FF"/>
<path fill-rule="evenodd" clip-rule="evenodd" d="M588 169.002C588 191.645 569.644 210 547 210C524.356 210 506 191.645 506 169.002C506 146.577 524.004 128.354 546.349 128.007C546.565 128 546.781 128 547 128C554.984 128 562.436 130.283 568.739 134.232L569.487 134.877L577.228 141.506L577.983 142.151C584.043 149.137 587.781 158.198 587.99 168.127C587.997 168.415 588 168.71 588 169.002" fill="white"/>
<path fill-rule="evenodd" clip-rule="evenodd" d="M589 169.002C589 192.16 570.157 211 547 211C523.84 211 505 192.16 505 169.002C505 146.07 523.471 127.372 546.314 127.011C546.544 127.004 546.77 127 547 127C554.902 127 562.602 129.206 569.272 133.382C569.735 133.674 569.871 134.287 569.586 134.75C569.558 134.793 569.53 134.834 569.492 134.87C569.182 135.239 568.635 135.33 568.218 135.064C561.868 131.088 554.53 128.984 547 128.984C546.795 128.984 546.593 128.984 546.391 128.991C524.606 129.316 506.981 147.138 506.981 169.002C506.981 191.066 524.937 209.016 547 209.016C569.067 209.016 587.016 191.066 587.016 169.002C587.016 168.71 587.012 168.418 587.005 168.127C586.8 158.805 583.354 149.841 577.244 142.795C576.913 142.419 576.924 141.869 577.234 141.5C577.269 141.464 577.303 141.427 577.342 141.394C577.752 141.037 578.379 141.081 578.741 141.493C585.167 148.904 588.788 158.331 588.99 168.127C588.997 168.418 589 168.71 589 169.002" fill="#78A9FF"/>
<path fill-rule="evenodd" clip-rule="evenodd" d="M558 161L547 168L558 161" fill="white"/>
<path fill-rule="evenodd" clip-rule="evenodd" d="M546.964 169C546.643 169 546.331 168.838 546.149 168.542C545.865 168.086 546 167.483 546.45 167.196L557.524 160.149C557.974 159.863 558.57 160.001 558.854 160.457C559.135 160.914 558.999 161.517 558.549 161.804L547.475 168.85C547.316 168.952 547.14 169 546.964 169" fill="#78A9FF"/>
<path fill-rule="evenodd" clip-rule="evenodd" d="M546 142C545.449 142 545 141.541 545 140.974V135.026C545 134.459 545.449 134 546 134C546.551 134 547 134.459 547 135.026V140.974C547 141.541 546.551 142 546 142" fill="#78A9FF"/>
<path fill-rule="evenodd" clip-rule="evenodd" d="M546 206C545.449 206 545 205.541 545 204.975V199.026C545 198.459 545.449 198 546 198C546.551 198 547 198.459 547 199.026V204.975C547 205.541 546.551 206 546 206" fill="#78A9FF"/>
<path fill-rule="evenodd" clip-rule="evenodd" d="M578.974 168H573.026C572.457 168 572 167.552 572 167C572 166.448 572.457 166 573.026 166H578.974C579.539 166 580 166.448 580 167C580 167.552 579.539 168 578.974 168" fill="#78A9FF"/>
<path fill-rule="evenodd" clip-rule="evenodd" d="M519.974 168H514.026C513.461 168 513 167.552 513 167C513 166.448 513.461 166 514.026 166H519.974C520.543 166 521 166.448 521 167C521 167.552 520.543 168 519.974 168" fill="#78A9FF"/>
<path fill-rule="evenodd" clip-rule="evenodd" d="M553 168.5C553 170.985 550.983 173 548.5 173C546.013 173 544 170.985 544 168.5C544 166.015 546.013 164 548.5 164C550.983 164 553 166.015 553 168.5" fill="#78A9FF"/>
<path fill-rule="evenodd" clip-rule="evenodd" d="M536 145L547 168L536 145" fill="white"/>
<path fill-rule="evenodd" clip-rule="evenodd" d="M547.065 169C546.724 169 546.393 168.804 546.229 168.465L535.1 145.402C534.867 144.924 535.054 144.342 535.517 144.103C535.979 143.863 536.54 144.057 536.77 144.536L547.902 167.598C548.132 168.077 547.945 168.659 547.482 168.898C547.347 168.967 547.206 169 547.065 169" fill="#78A9FF"/>
<path opacity="0.444243" fill-rule="evenodd" clip-rule="evenodd" d="M464.358 285H256L258.834 75H465L464.358 285" fill="#D8DDE2"/>
<path fill-rule="evenodd" clip-rule="evenodd" d="M256.498 407C255.673 407 255 406.409 255 405.677V55.3246C255 54.5929 255.673 54 256.498 54C257.327 54 258 54.5929 258 55.3246V405.677C258 406.409 257.327 407 256.498 407" fill="#B2BBC6"/>
<path fill-rule="evenodd" clip-rule="evenodd" d="M464.498 407C463.673 407 463 406.409 463 405.677V55.3246C463 54.5929 463.673 54 464.498 54C465.327 54 466 54.5929 466 55.3246V405.677C466 406.409 465.327 407 464.498 407" fill="#B2BBC6"/>
<path fill-rule="evenodd" clip-rule="evenodd" d="M420.795 265H212L255.201 55H464L420.795 265" fill="white"/>
<path fill-rule="evenodd" clip-rule="evenodd" d="M247 92.8565L254.803 55H464L420.713 265H247.831L247 92.8565" fill="white"/>
<path fill-rule="evenodd" clip-rule="evenodd" d="M422.162 266H248.179C247.435 266 246.828 265.395 246.828 264.652C246.828 263.909 247.435 263.304 248.179 263.304H419.96L462.688 56.6936H256.25L248.672 93.3504C248.52 94.079 247.807 94.5491 247.076 94.3971C246.346 94.2468 245.877 93.5347 246.028 92.8061L254.052 54H466L422.162 266" fill="#D0E3FF"/>
<path fill-rule="evenodd" clip-rule="evenodd" d="M258.761 222H250.239C249.553 222 249 221.328 249 220.5C249 219.672 249.553 219 250.239 219H258.761C259.447 219 260 219.672 260 220.5C260 221.328 259.447 222 258.761 222" fill="#D0E3FF"/>
<path fill-rule="evenodd" clip-rule="evenodd" d="M307.51 209H273L286.49 145H321L307.51 209" fill="#1063FE"/>
<path opacity="0.620884" fill-rule="evenodd" clip-rule="evenodd" d="M353.44 209H320L327.56 171H361L353.44 209" fill="#1063FE"/>
<path fill-rule="evenodd" clip-rule="evenodd" d="M401.57 209H367L370.43 192H405L401.57 209" fill="#1063FE"/>
<path fill-rule="evenodd" clip-rule="evenodd" d="M401.677 222H257.324C256.927 222 256.55 221.819 256.298 221.508C256.046 221.197 255.946 220.788 256.029 220.395L267.963 162.065C268.112 161.343 268.813 160.88 269.528 161.027C270.247 161.176 270.706 161.882 270.557 162.605L258.951 219.33H401.677C402.406 219.33 403 219.928 403 220.665C403 221.402 402.406 222 401.677 222" fill="#D0E3FF"/>
<path fill-rule="evenodd" clip-rule="evenodd" d="M272.455 149C272.357 149 272.258 148.991 272.16 148.972C271.375 148.822 270.867 148.111 271.03 147.385L277.124 120.072C277.287 119.346 278.052 118.879 278.84 119.028C279.628 119.178 280.132 119.888 279.969 120.615L273.876 147.928C273.736 148.563 273.13 149 272.455 149" fill="#D0E3FF"/>
<path fill-rule="evenodd" clip-rule="evenodd" d="M387.172 230C387.093 230 387.013 229.991 386.934 229.974C386.302 229.836 385.893 229.18 386.025 228.509L387.685 219.99C387.813 219.319 388.432 218.888 389.064 219.026C389.699 219.164 390.105 219.82 389.976 220.491L388.316 229.01C388.203 229.596 387.715 230 387.172 230" fill="#D0E3FF"/>
<path fill-rule="evenodd" clip-rule="evenodd" d="M354.171 230C354.095 230 354.015 229.991 353.933 229.974C353.301 229.836 352.895 229.18 353.024 228.509L354.684 219.99C354.815 219.319 355.434 218.888 356.066 219.026C356.698 219.164 357.107 219.82 356.975 220.491L355.315 229.01C355.202 229.596 354.714 230 354.171 230" fill="#D0E3FF"/>
<path fill-rule="evenodd" clip-rule="evenodd" d="M322.173 230C322.093 230 322.014 229.991 321.935 229.974C321.299 229.836 320.893 229.18 321.025 228.509L322.683 219.99C322.814 219.319 323.434 218.888 324.066 219.026C324.698 219.164 325.107 219.82 324.975 220.491L323.318 229.01C323.202 229.596 322.716 230 322.173 230" fill="#D0E3FF"/>
<path fill-rule="evenodd" clip-rule="evenodd" d="M289.173 230C289.093 230 289.014 229.991 288.934 229.974C288.302 229.836 287.893 229.18 288.025 228.509L289.682 219.989C289.814 219.319 290.433 218.888 291.065 219.025C291.701 219.164 292.107 219.82 291.975 220.49L290.317 229.01C290.204 229.596 289.716 230 289.173 230" fill="#D0E3FF"/>
<path fill-rule="evenodd" clip-rule="evenodd" d="M257.172 230C257.093 230 257.013 229.991 256.934 229.974C256.302 229.836 255.893 229.18 256.025 228.509L257.685 219.989C257.813 219.319 258.432 218.888 259.067 219.025C259.699 219.164 260.105 219.82 259.976 220.49L258.316 229.01C258.203 229.596 257.715 230 257.172 230" fill="#D0E3FF"/>
<path fill-rule="evenodd" clip-rule="evenodd" d="M428.489 122C428.352 122.676 428.187 123.346 427.994 124.01C424.434 136.326 412.124 146 399.552 146C386.303 146 377.776 135.255 380.51 122C383.221 108.857 395.982 98.1817 409.118 98.0062C409.231 98 409.338 98 409.451 98C422.701 98 431.224 108.744 428.489 122" fill="#1063FE"/>
<path fill-rule="evenodd" clip-rule="evenodd" d="M379.688 111C379.318 111 378.951 110.85 378.691 110.559L367.974 98.5264H353.311C352.589 98.5264 352 97.961 352 97.2632C352 96.5657 352.589 96 353.311 96H368.576C368.96 96 369.326 96.1614 369.573 96.4415L380.684 108.915C381.157 109.445 381.091 110.242 380.54 110.696C380.294 110.9 379.989 111 379.688 111" fill="#D0E3FF"/>
<path fill-rule="evenodd" clip-rule="evenodd" d="M388.369 188C388.28 188 388.187 187.991 388.094 187.972C387.351 187.824 386.875 187.123 387.029 186.406L393.287 157.058C393.441 156.341 394.166 155.88 394.906 156.028C395.646 156.176 396.125 156.877 395.971 157.594L389.713 186.942C389.577 187.568 389.009 188 388.369 188" fill="#D0E3FF"/>
<path fill-rule="evenodd" clip-rule="evenodd" d="M348.363 162C348.274 162 348.182 161.991 348.089 161.972C347.349 161.821 346.876 161.106 347.029 160.376L352.299 135.078C352.452 134.347 353.174 133.877 353.911 134.028C354.648 134.179 355.124 134.893 354.971 135.624L349.701 160.922C349.566 161.56 348.997 162 348.363 162" fill="#D0E3FF"/>
<path fill-rule="evenodd" clip-rule="evenodd" d="M303.957 139C303.895 139 303.828 138.991 303.763 138.972C303.246 138.824 302.915 138.119 303.019 137.398L304.107 130.064C304.212 129.343 304.721 128.879 305.235 129.028C305.754 129.176 306.085 129.881 305.981 130.602L304.893 137.936C304.801 138.566 304.401 139 303.957 139" fill="#D0E3FF"/>
<path fill-rule="evenodd" clip-rule="evenodd" d="M338.885 102H297L299.112 91H341L338.885 102" fill="#8491A1"/>
<path fill-rule="evenodd" clip-rule="evenodd" d="M363.914 129H333L335.086 118H366L363.914 129" fill="#78A9FF"/>
<path fill-rule="evenodd" clip-rule="evenodd" d="M434.496 115.068C434.356 115.718 434.196 116.362 434.005 117H410L415.31 92.006C415.422 92 415.528 92 415.64 92C428.76 92 437.2 102.328 434.496 115.068" fill="#8491A1"/>
<path fill-rule="evenodd" clip-rule="evenodd" d="M468.846 320H460.151C458.411 320 457 318.433 457 316.502C457 314.567 458.411 313 460.151 313H468.846C470.589 313 472 314.567 472 316.502C472 318.433 470.589 320 468.846 320" fill="#2A0055"/>
<path fill-rule="evenodd" clip-rule="evenodd" d="M439.692 318H301.308C300.587 318 300 317.327 300 316.502C300 315.673 300.587 315 301.308 315H439.692C440.416 315 441 315.673 441 316.502C441 317.327 440.416 318 439.692 318" fill="#B2BBC6"/>
<path fill-rule="evenodd" clip-rule="evenodd" d="M261.533 320H251.467C249.552 320 248 318.433 248 316.502C248 314.567 249.552 313 251.467 313H261.533C263.448 313 265 314.567 265 316.502C265 318.433 263.448 320 261.533 320" fill="#B2BBC6"/>
<path fill-rule="evenodd" clip-rule="evenodd" d="M247.618 390H240.382C239.619 390 239 389.327 239 388.498C239 387.673 239.619 387 240.382 387H247.618C248.381 387 249 387.673 249 388.498C249 389.327 248.381 390 247.618 390" fill="white"/>
<path fill-rule="evenodd" clip-rule="evenodd" d="M174 359.09L171.547 382H145L145.489 354L174 359.09" fill="#FFBFAA"/>
<path fill-rule="evenodd" clip-rule="evenodd" d="M206 358.583L207.985 384H237L232.603 351L206 358.583" fill="#FFBFAA"/>
<path fill-rule="evenodd" clip-rule="evenodd" d="M142 365L151.105 364.893L175.813 364.601L183.281 280.955V280.952L190.917 195.403L191 194.483L144.898 192L142 365" fill="#C9DCFF"/>
<path fill-rule="evenodd" clip-rule="evenodd" d="M178 199.807L189.935 276.001L204.397 364.601L224.696 364.835L239 365L230.661 270.922L219.96 187L178 199.807" fill="#C9DCFF"/>
<path fill-rule="evenodd" clip-rule="evenodd" d="M176 93.7173C188.491 112.261 193.186 132.436 194.744 153C202.184 127.101 200.365 105.356 197.537 93.8139L186.471 92L176 93.7173" fill="white"/>
<path fill-rule="evenodd" clip-rule="evenodd" d="M145 99.0739V202H228L221.458 98.2898L197.519 94.1105L197.428 94.0948C200.22 105.423 202.017 126.765 194.67 152.184C193.13 132.001 188.494 112.2 176.159 94L175.923 94.0383L145 99.0739" fill="#78A9FF"/>
<path fill-rule="evenodd" clip-rule="evenodd" d="M177 94.2804L196.941 113L198 94.2804L197.467 54H177V94.2804" fill="#FFBFAA"/>
<path fill-rule="evenodd" clip-rule="evenodd" d="M189.321 92H199.678C205.377 92 210 87.3923 210 81.7084V54H179V81.708C179 87.3923 183.62 92 189.321 92" fill="#FFBFAA"/>
<path fill-rule="evenodd" clip-rule="evenodd" d="M175.859 58.9738C179.683 62.1285 184.186 64.2231 188.943 65.1756C192.715 65.9309 196.53 66.484 200.341 66.767C203.57 67.0065 206.93 67.2551 210.106 66.4443C212.264 65.8927 214.276 64.7348 214.72 62.2074C215.212 59.4016 213.05 56.5688 210.833 55.3239C210.833 55.3239 218.675 52.6118 212.842 47.3817C212.673 47.2299 213.476 43.2472 213.497 42.8236C213.792 37.0444 209.406 32.9656 204.058 34.2312C193.813 36.6541 188.747 49.3143 178.012 50.4807C168.986 51.4612 171.73 55.568 175.859 58.9738" fill="#0B1E57"/>
<path fill-rule="evenodd" clip-rule="evenodd" d="M195 42.6646C195 42.6646 174.668 33.4291 169.531 44.281C164.395 55.1326 173.598 74.9897 176.38 77.7603C179.162 80.5309 184.727 58.3655 184.727 58.3655L195 42.6646" fill="#0B1E57"/>
<path fill-rule="evenodd" clip-rule="evenodd" d="M179.5 82V82C182.538 82 185 79.3389 185 76.0566V73.9434C185 70.6608 182.538 68 179.5 68C176.462 68 174 70.6608 174 73.9434V76.0566C174 79.3389 176.462 82 179.5 82" fill="#FFBFAA"/>
<path fill-rule="evenodd" clip-rule="evenodd" d="M196.649 174C195.915 174 195.314 173.432 195.3 172.72L195 157.329C194.986 156.609 195.579 156.014 196.325 156C196.333 156 196.342 156 196.351 156C197.085 156 197.686 156.568 197.7 157.279L198 172.671C198.014 173.391 197.421 173.986 196.675 174C196.667 174 196.658 174 196.649 174" fill="#5C8BDD"/>
<path fill-rule="evenodd" clip-rule="evenodd" d="M196.297 93C193.479 93 187.419 92.5959 184.374 89.3339C183.87 88.7946 183.876 87.9266 184.386 87.3948C184.897 86.8634 185.718 86.8691 186.222 87.408C188.824 90.1962 195.329 90.3836 197.615 90.2208C198.326 90.174 198.949 90.7412 198.997 91.4965C199.045 92.2522 198.505 92.9059 197.789 92.9567C197.7 92.9632 197.146 93 196.297 93" fill="#2A0055"/>
<path fill-rule="evenodd" clip-rule="evenodd" d="M223.94 185.879L216.377 181.852L210.7 174.571C209.894 173.541 208.272 173.98 208.077 175.28L207.518 178.991L203.842 177.764C200.8 176.747 197.557 176.513 194.403 177.083L189.946 177.889C188.486 178.152 187.472 179.515 187.617 181.017C187.767 182.566 189.093 183.716 190.619 183.619L195.68 183.298L204.506 186.382L198.518 187.357C196.329 187.714 194.21 188.426 192.242 189.465L188.8 191.283C187.32 192.064 186.635 193.837 187.194 195.435C187.605 196.611 188.618 197.463 189.83 197.652L190.486 197.754L190.306 198.04C189.694 199.012 189.663 200.25 190.226 201.253C191.043 202.709 192.849 203.24 194.303 202.451L197.707 200.606C199.435 199.669 201.372 199.207 203.328 199.265L208.477 199.418L203.901 205.831C202.812 207.357 203.613 209.519 205.419 209.935C206.204 210.116 207.028 209.914 207.646 209.386L213.809 204.123L221.525 203.156L228.828 199.493L234.109 201.59L238 184.652L223.94 185.879" fill="#FFBFAA"/>
<path fill-rule="evenodd" clip-rule="evenodd" d="M221.705 99L227.599 99.8463C235.336 101.416 242.054 106.448 246.02 113.647L266.379 147.137C268.64 150.858 268.527 155.663 266.094 159.26L241.041 196.272C239.511 198.53 237.418 200.296 235 201.371L226.83 205L222.665 182.828L236.547 151.932L211 119.622L221.705 99" fill="#78A9FF"/>
<path fill-rule="evenodd" clip-rule="evenodd" d="M137.7 212.55L137.871 214.383C138.224 218.151 137.85 221.954 136.772 225.574L135.769 228.942L136.825 238.867C137.106 241.504 135.611 244 133.199 244.924C132.244 245.29 131.211 245.382 130.21 245.19L128.305 244.823C128.044 246.265 126.929 247.381 125.523 247.605L123.711 247.897C121.235 248.294 118.716 247.534 116.84 245.821L115.992 246.906C114.886 248.321 112.748 248.148 111.866 246.577L109 241.469L109.283 230.817C109.349 228.358 110.116 225.974 111.489 223.962L115.23 218.483L120.413 207L137.7 212.55" fill="#FFBFAA"/>
<path fill-rule="evenodd" clip-rule="evenodd" d="M112.656 213L109.456 218.823C108.349 220.839 109.359 223.505 111.397 223.943C112.399 224.158 113.427 223.758 114.11 222.887L121 214.091L112.656 213" fill="#FFBFAA"/>
<path fill-rule="evenodd" clip-rule="evenodd" d="M111.706 225C111.418 225 111.127 224.974 110.839 224.923C109.319 224.649 108.077 223.725 107.432 222.388C106.768 221.012 106.874 219.424 107.715 218.14L111.329 212.625C111.729 212.014 112.591 211.817 113.255 212.185C113.919 212.553 114.133 213.347 113.733 213.957L110.119 219.473C109.751 220.035 109.705 220.734 109.997 221.341C110.266 221.898 110.769 222.279 111.378 222.389C112.018 222.504 112.665 222.289 113.109 221.814L114.532 220.291C115.037 219.75 115.923 219.687 116.511 220.153C117.099 220.617 117.166 221.432 116.661 221.973L115.238 223.497C114.337 224.46 113.038 225 111.706 225" fill="#5C8BDD"/>
<path fill-rule="evenodd" clip-rule="evenodd" d="M150.231 98L139.773 99.7918C134.799 100.644 130.985 104.867 130.46 110.105L126.15 153.039L108 214H142.194L158 153.039L150.231 98" fill="#78A9FF"/>
<path fill-rule="evenodd" clip-rule="evenodd" d="M206 379.159V406H255V392.58L238.273 379.628L238.766 367H226.76L221.543 375.804L206 379.159" fill="#78A9FF"/>
<path fill-rule="evenodd" clip-rule="evenodd" d="M150.042 354C150.039 354 150.036 354 150.033 354C149.457 353.993 148.995 353.393 149 352.659L149.916 222.317C149.921 221.587 150.387 221 150.958 221C150.961 221 150.964 221 150.967 221C151.543 221.007 152.005 221.607 152 222.341L151.084 352.683C151.079 353.414 150.613 354 150.042 354" fill="white"/>
<path fill-rule="evenodd" clip-rule="evenodd" d="M177 380.295V406H141V379.972L151.964 376.923L154.426 367H169.799L172.754 376.697L177 380.295" fill="#78A9FF"/>
<path fill-rule="evenodd" clip-rule="evenodd" d="M253.693 395H229.244C228.763 395 228.323 394.739 228.094 394.321L219.159 377.923C218.814 377.292 219.049 376.501 219.688 376.158C220.322 375.815 221.114 376.049 221.459 376.684L230.023 392.399H253.693C254.413 392.399 255 392.98 255 393.7C255 394.419 254.413 395 253.693 395" fill="white"/>
<path fill-rule="evenodd" clip-rule="evenodd" d="M243.718 387H235.286C234.576 387 234 386.327 234 385.498C234 384.673 234.576 384 235.286 384H243.718C244.427 384 245 384.673 245 385.498C245 386.327 244.427 387 243.718 387" fill="white"/>
<path fill-rule="evenodd" clip-rule="evenodd" d="M177.664 401C177.221 401 176.787 400.799 176.533 400.428L174.367 397.293C171.843 393.634 167.621 391.453 163.074 391.453C157.91 391.453 153.261 394.226 150.942 398.688L150.104 400.3C149.882 400.728 149.412 401 148.897 401H140.337C139.599 401 139 400.45 139 399.772C139 399.097 139.599 398.547 140.337 398.547H148.053L148.528 397.632C151.294 392.307 156.868 389 163.074 389C168.543 389 173.609 391.61 176.627 395.979L178.792 399.116C179.188 399.689 179.002 400.447 178.378 400.808C178.156 400.936 177.908 401 177.664 401" fill="white"/>
<path fill-rule="evenodd" clip-rule="evenodd" d="M168.704 384H156.296C155.58 384 155 383.327 155 382.498C155 381.669 155.58 381 156.296 381H168.704C169.42 381 170 381.669 170 382.498C170 383.327 169.42 384 168.704 384" fill="white"/>
<path fill-rule="evenodd" clip-rule="evenodd" d="M187.44 244C187.395 244 187.35 243.998 187.303 243.994C186.513 243.926 185.932 243.279 186.006 242.551L186.829 234.499C186.868 234.113 187.089 233.761 187.434 233.539C187.648 233.397 192.823 229.874 193.124 221.295V214.325C193.124 213.593 193.767 213 194.562 213C195.356 213 196 213.593 196 214.325V221.316C196 221.33 196 221.344 195.999 221.358C195.713 229.736 191.23 234.034 189.635 235.303L188.87 242.799C188.8 243.485 188.173 244 187.44 244" fill="white"/>
<path fill-rule="evenodd" clip-rule="evenodd" d="M147.885 224H146.319C145.591 224 145 223.44 145 222.749C145 222.058 145.591 221.498 146.319 221.498H147.885C153.484 221.498 158.71 218.49 161.525 213.647C161.877 213.042 162.679 212.822 163.317 213.155C163.955 213.489 164.188 214.25 163.836 214.855C160.557 220.496 154.445 224 147.885 224" fill="white"/>
<path fill-rule="evenodd" clip-rule="evenodd" d="M145.427 200C144.639 200 144 199.408 144 198.677V132.091C144 131.7 144.187 131.328 144.511 131.077L150.657 126.308C151.262 125.84 152.162 125.914 152.667 126.473C153.173 127.034 153.093 127.868 152.489 128.336L146.853 132.709V198.677C146.853 199.408 146.215 200 145.427 200" fill="white"/>
<path fill-rule="evenodd" clip-rule="evenodd" d="M237.611 153C237.205 153 236.799 152.828 236.524 152.498L221.303 134.163C220.825 133.588 220.923 132.749 221.521 132.29C222.122 131.832 222.995 131.927 223.473 132.502L238.697 150.836C239.175 151.412 239.077 152.251 238.476 152.709C238.219 152.905 237.915 153 237.611 153" fill="white"/>
<path fill-rule="evenodd" clip-rule="evenodd" d="M195.308 155C195.065 155 194.819 154.931 194.599 154.786C193.992 154.385 193.817 153.556 194.21 152.935C199.774 144.118 208.088 125.651 211.213 113.537L202.35 106.236C201.958 105.914 201.782 105.391 201.896 104.89C202.01 104.389 202.394 103.999 202.885 103.887L207.938 102.731L197.593 95.6516C197.192 95.5011 196.87 95.1533 196.767 94.6959L196.759 94.6607C196.629 94.123 196.836 93.5584 197.28 93.2413C197.725 92.9236 198.314 92.9194 198.763 93.2301L198.866 93.3014L211.933 102.242C212.367 102.54 212.589 103.074 212.49 103.601C212.394 104.127 212.001 104.544 211.489 104.661L206.108 105.893L213.51 111.992C213.91 112.319 214.084 112.853 213.961 113.359C210.864 126.057 202.225 145.172 196.409 154.387C196.159 154.784 195.738 155 195.308 155" fill="#5C8BDD"/>
<path fill-rule="evenodd" clip-rule="evenodd" d="M190.667 148C190.191 148 189.73 147.749 189.49 147.307C183.12 135.62 175.51 122.534 167.367 114.099C167.069 113.791 166.942 113.36 167.025 112.942C167.108 112.525 167.391 112.173 167.785 111.998L172.547 109.88L167.976 108.626C167.581 108.518 167.259 108.237 167.102 107.864C166.945 107.492 166.971 107.069 167.172 106.717L175.198 92.6732C175.425 92.2729 175.848 92.018 176.314 92.0009C176.783 91.9838 177.22 92.2071 177.477 92.59L177.596 92.7647C178.001 93.3706 177.83 94.1851 177.215 94.5837C177.192 94.5985 177.168 94.6125 177.145 94.6259L170.331 106.546L176.805 108.322C177.345 108.47 177.734 108.936 177.777 109.487C177.819 110.037 177.507 110.556 176.996 110.783L170.568 113.642C178.442 122.293 185.715 134.825 191.841 146.066C192.19 146.705 191.945 147.501 191.296 147.844C191.095 147.95 190.879 148 190.667 148" fill="#5C8BDD"/>
<path fill-rule="evenodd" clip-rule="evenodd" d="M196.633 158C195.914 158 195.311 157.419 195.27 156.668C195.196 155.304 195.107 153.908 195.004 152.519C194.947 151.742 195.51 151.063 196.262 151.004C197.017 150.943 197.67 151.527 197.728 152.305C197.832 153.712 197.923 155.127 197.998 156.509C198.04 157.288 197.464 157.954 196.711 157.998C196.685 157.999 196.659 158 196.633 158" fill="#5C8BDD"/>
<path fill-rule="evenodd" clip-rule="evenodd" d="M143.698 207H110.302C109.583 207 109 206.328 109 205.5C109 204.672 109.583 204 110.302 204H143.698C144.417 204 145 204.672 145 205.5C145 206.328 144.417 207 143.698 207" fill="#5C8BDD"/>
<path fill-rule="evenodd" clip-rule="evenodd" d="M223.353 184C223.166 184 222.979 183.963 222.795 183.884C222.113 183.586 221.813 182.814 222.121 182.157L236.412 151.767C236.72 151.111 237.522 150.819 238.203 151.117C238.885 151.414 239.189 152.187 238.878 152.843L224.59 183.234C224.364 183.715 223.869 184 223.353 184" fill="white"/>
<path fill-rule="evenodd" clip-rule="evenodd" d="M177.643 355H142.357C141.608 355 141 354.331 141 353.502C141 352.673 141.608 352 142.357 352H177.643C178.392 352 179 352.673 179 353.502C179 354.331 178.392 355 177.643 355" fill="white"/>
<path fill-rule="evenodd" clip-rule="evenodd" d="M237.641 355H202.357C201.607 355 201 354.331 201 353.502C201 352.673 201.607 352 202.357 352H237.641C238.391 352 239 352.673 239 353.502C239 354.331 238.391 355 237.641 355" fill="white"/>
<path fill-rule="evenodd" clip-rule="evenodd" d="M210.627 354C209.951 354 209.364 353.52 209.271 352.854L195.013 251.503C194.911 250.779 195.437 250.113 196.188 250.013C196.939 249.912 197.63 250.423 197.732 251.144L211.987 352.499C212.091 353.224 211.565 353.89 210.813 353.99C210.752 353.997 210.688 354 210.627 354" fill="white"/>
<path fill-rule="evenodd" clip-rule="evenodd" d="M224.668 224C217.589 224 210.892 220.157 207.186 213.972C206.81 213.349 207.022 212.547 207.659 212.181C208.291 211.814 209.109 212.023 209.484 212.645C212.711 218.035 218.531 221.384 224.668 221.384C225.405 221.384 226 221.969 226 222.692C226 223.414 225.405 224 224.668 224" fill="white"/>
<path fill-rule="evenodd" clip-rule="evenodd" d="M505.481 230C505.966 231.69 506.25 233.315 506.469 234.92C506.701 236.529 506.824 238.103 506.916 239.667C507.067 242.785 507.016 245.838 506.752 248.822C506.246 254.801 505.03 260.553 503.303 266.142C501.56 271.727 499.287 277.14 496.306 282.332C494.826 284.928 493.134 287.458 491.237 289.923C490.267 291.149 489.272 292.367 488.164 293.548C487.067 294.735 485.908 295.899 484.545 297C484.052 295.308 483.765 293.683 483.543 292.074C483.307 290.465 483.184 288.891 483.085 287.327C482.931 284.206 482.986 281.155 483.249 278.169C483.758 272.193 484.972 266.438 486.722 260.856C488.482 255.278 490.755 249.865 493.739 244.677C495.223 242.079 496.911 239.549 498.809 237.083C499.776 235.856 500.767 234.638 501.871 233.455C502.965 232.269 504.124 231.103 505.481 230" fill="#D0E3FF"/>
<path fill-rule="evenodd" clip-rule="evenodd" d="M504.622 232.222C503.757 233.012 503.014 233.78 502.417 234.418C501.231 235.664 500.187 236.936 499.322 238.016C497.412 240.454 495.689 242.992 494.205 245.55C491.314 250.489 488.982 255.761 487.083 261.678C485.208 267.549 484.058 273.191 483.559 278.922C483.295 281.87 483.239 284.93 483.394 288.021C483.482 289.396 483.605 291.039 483.851 292.713C483.977 293.582 484.143 294.639 484.399 295.79C485.275 294.995 486.021 294.224 486.622 293.586C487.797 292.354 488.848 291.077 489.724 289.989C491.634 287.557 493.361 285.017 494.845 282.46C497.753 277.478 500.074 272.203 501.942 266.328C503.806 260.401 504.952 254.756 505.441 249.07C505.705 246.125 505.761 243.066 505.606 239.971C505.526 238.609 505.406 236.975 505.16 235.283C505.037 234.416 504.875 233.363 504.622 232.222ZM483.742 299C483.626 299 483.51 298.983 483.394 298.948C483.028 298.833 482.743 298.543 482.634 298.177C482.057 296.226 481.762 294.405 481.565 293.038C481.308 291.29 481.178 289.584 481.09 288.15C480.928 284.94 480.985 281.773 481.259 278.724C481.772 272.824 482.958 267.022 484.881 260.984C486.833 254.906 489.232 249.485 492.207 244.403C493.74 241.758 495.523 239.132 497.507 236.601C498.411 235.473 499.491 234.155 500.728 232.852C501.675 231.845 502.969 230.522 504.558 229.253C504.857 229.013 505.262 228.938 505.628 229.053C505.997 229.169 506.282 229.459 506.391 229.826C506.96 231.772 507.252 233.592 507.446 234.96C507.702 236.729 507.826 238.423 507.914 239.846C508.072 243.058 508.012 246.224 507.741 249.268C507.238 255.119 506.06 260.924 504.143 267.012C502.227 273.054 499.839 278.479 496.842 283.604C495.305 286.252 493.522 288.879 491.539 291.409C490.624 292.542 489.534 293.868 488.307 295.155C487.361 296.16 486.063 297.482 484.463 298.749C484.255 298.916 484.002 299 483.742 299V299Z" fill="white"/>
<path fill-rule="evenodd" clip-rule="evenodd" d="M452.841 218C454.278 219.224 455.517 220.517 456.691 221.832C457.876 223.143 458.955 224.492 460.007 225.85C462.07 228.581 463.932 231.382 465.587 234.254C468.92 239.993 471.551 245.977 473.675 252.139C475.786 258.306 477.369 264.656 478.261 271.246C478.714 274.542 478.959 277.906 479 281.346C479.003 283.071 478.976 284.807 478.84 286.58C478.717 288.35 478.53 290.141 478.142 292C476.698 290.781 475.456 289.49 474.278 288.174C473.09 286.866 472.011 285.516 470.955 284.159C468.889 281.429 467.027 278.629 465.372 275.754C462.046 270.014 459.415 264.032 457.308 257.862C455.217 251.691 453.631 245.341 452.746 238.746C452.293 235.453 452.048 232.086 452 228.65C451.997 226.926 452.021 225.191 452.153 223.419C452.276 221.65 452.46 219.86 452.841 218" fill="#D0E3FF"/>
<path fill-rule="evenodd" clip-rule="evenodd" d="M453.784 220.329C453.61 221.552 453.512 222.678 453.449 223.605C453.306 225.449 453.292 227.234 453.295 228.737C453.341 232.1 453.592 235.438 454.046 238.646C454.906 244.853 456.418 251.015 458.678 257.487C460.932 263.904 463.607 269.669 466.856 275.111C468.519 277.918 470.423 280.694 472.508 283.371C473.451 284.552 474.59 285.948 475.851 287.297C476.494 287.99 477.283 288.824 478.198 289.682C478.38 288.45 478.478 287.317 478.544 286.387C478.688 284.555 478.705 282.764 478.705 281.254C478.663 277.891 478.412 274.555 477.957 271.347C477.088 265.091 475.565 258.932 473.304 252.515C471.009 246.056 468.327 240.292 465.099 234.896C463.436 232.095 461.536 229.317 459.45 226.634C458.514 225.458 457.379 224.063 456.114 222.706C455.475 222.013 454.693 221.183 453.784 220.329ZM478.97 293C478.705 293 478.443 292.907 478.233 292.736C476.553 291.353 475.17 289.915 474.157 288.817C472.847 287.417 471.673 285.976 470.695 284.751C468.543 281.992 466.587 279.133 464.875 276.251C461.553 270.678 458.815 264.779 456.509 258.221C454.2 251.605 452.653 245.303 451.776 238.953C451.308 235.656 451.046 232.223 451 228.755C450.997 227.196 451.014 225.357 451.161 223.442C451.266 221.968 451.441 219.999 451.888 217.897C451.968 217.509 452.251 217.192 452.635 217.062C453.016 216.932 453.439 217.009 453.75 217.265C455.419 218.646 456.796 220.088 457.809 221.189C459.122 222.599 460.292 224.036 461.263 225.256C463.419 228.023 465.371 230.88 467.08 233.758C470.381 239.279 473.126 245.174 475.47 251.777C477.783 258.338 479.337 264.638 480.228 271.038C480.696 274.336 480.955 277.771 481 281.24C481 282.805 480.979 284.651 480.832 286.556C480.724 288.028 480.542 289.997 480.092 292.104C480.008 292.492 479.725 292.808 479.344 292.938C479.222 292.979 479.096 293 478.97 293V293Z" fill="white"/>
<path fill-rule="evenodd" clip-rule="evenodd" d="M395 234C398.093 235.406 401 237.108 403.849 238.891C406.705 240.667 409.438 242.606 412.144 244.592C417.52 248.605 422.599 253.006 427.438 257.678C432.277 262.35 436.83 267.342 441.078 272.614C445.326 277.887 449.306 283.41 452.926 289.203C456.528 295.006 459.788 301.06 462.637 307.332C465.421 313.643 467.792 320.168 469.584 326.868C471.306 333.598 472.477 340.485 472.909 347.403C472.98 350.894 473.123 354.331 472.783 357.792C472.623 361.228 471.992 364.661 471.279 368C470.063 364.741 469.194 361.547 468.009 358.437C466.98 355.31 465.72 352.272 464.613 349.253C462.165 343.255 459.608 337.441 456.864 331.738C454.026 326.066 451.106 320.491 448.039 314.983C444.919 309.498 441.686 304.08 438.362 298.696C431.642 287.96 424.525 277.387 417.207 266.741C409.9 256.061 402.375 245.445 395 234" fill="#D0E3FF"/>
<path fill-rule="evenodd" clip-rule="evenodd" d="M469.833 357.011C470.454 358.599 471.003 360.236 471.534 361.814C471.621 362.079 471.711 362.344 471.801 362.612C472.138 360.697 472.408 358.692 472.502 356.705C472.506 356.684 472.506 356.663 472.509 356.646C472.801 353.737 472.731 350.883 472.662 347.858C472.651 347.411 472.641 346.96 472.631 346.513C472.214 340.045 471.083 333.282 469.271 326.409C467.539 320.14 465.169 313.686 462.229 307.236C459.404 301.201 456.086 295.201 452.383 289.418C448.846 283.933 444.799 278.442 440.357 273.099C436.036 267.903 431.378 262.959 426.509 258.406C421.379 253.603 416.159 249.274 410.992 245.532C408.555 243.803 405.647 241.78 402.589 239.938C401.117 239.046 399.351 238.001 397.421 236.982C402.197 244.036 407.045 250.842 411.755 257.45C413.733 260.225 415.778 263.096 417.77 265.916C423.899 274.553 431.899 285.965 439.416 297.608C442.998 303.23 446.243 308.518 449.335 313.783C452.351 319.033 455.308 324.476 458.383 330.432C461.122 335.943 463.721 341.641 466.342 347.864C466.349 347.875 466.352 347.889 466.359 347.902C466.758 348.958 467.185 350.041 467.602 351.09C468.362 353.012 469.15 354.996 469.833 357.011ZM472.103 368C471.635 368 471.211 367.711 471.041 367.274C470.42 365.665 469.885 364.07 469.368 362.526C468.823 360.893 468.306 359.349 467.699 357.805C467.692 357.788 467.685 357.771 467.681 357.753C467.015 355.787 466.234 353.816 465.481 351.915C465.065 350.866 464.634 349.78 464.232 348.714C461.632 342.542 459.053 336.892 456.346 331.446C453.295 325.535 450.352 320.12 447.361 314.907C444.286 309.677 441.058 304.409 437.494 298.818C430 287.217 422.021 275.832 415.903 267.212C413.914 264.393 411.87 261.525 409.895 258.754C404.404 251.048 398.726 243.081 393.187 234.75C392.909 234.331 392.944 233.781 393.27 233.398C393.597 233.016 394.141 232.894 394.603 233.098C398.091 234.636 401.336 236.531 403.776 238.011C406.896 239.891 409.85 241.944 412.328 243.704C417.582 247.506 422.875 251.897 428.074 256.766C433.013 261.384 437.736 266.397 442.113 271.665C446.614 277.074 450.717 282.641 454.305 288.204C458.064 294.073 461.427 300.159 464.301 306.297C467.293 312.864 469.705 319.428 471.471 325.824C473.328 332.859 474.48 339.774 474.907 346.393C474.907 346.41 474.907 346.424 474.907 346.441C474.918 346.898 474.928 347.352 474.939 347.806C475.008 350.756 475.081 353.803 474.779 356.842C474.602 360.442 473.89 364.053 473.217 367.109C473.113 367.598 472.693 367.959 472.19 367.997C472.162 367.997 472.134 368 472.103 368V368Z" fill="white"/>
<path fill-rule="evenodd" clip-rule="evenodd" d="M426 215C428.768 217.01 431.297 219.268 433.749 221.593C436.216 223.914 438.521 226.366 440.795 228.858C445.296 233.876 449.419 239.208 453.255 244.754C457.09 250.301 460.575 256.096 463.704 262.098C466.832 268.103 469.645 274.294 472.046 280.675C474.427 287.059 476.42 293.616 477.96 300.299C479.432 307.007 480.447 313.835 480.859 320.712C481.192 327.609 480.952 334.537 479.97 341.341C479.332 344.747 478.773 348.111 477.734 351.403C476.88 354.705 475.556 357.908 474.173 361C473.631 357.581 473.422 354.299 472.883 351.031C472.502 347.781 471.875 344.571 471.394 341.41C470.194 335.074 468.846 328.897 467.292 322.788C465.638 316.69 463.885 310.667 461.975 304.683C460.002 298.708 457.91 292.775 455.718 286.849C451.255 275.028 446.37 263.279 441.296 251.42C436.243 239.524 430.964 227.649 426 215" fill="white"/>
<path fill-rule="evenodd" clip-rule="evenodd" d="M473.912 351.684C474.186 353.38 474.38 355.103 474.568 356.768C474.599 357.044 474.629 357.325 474.66 357.605C475.377 355.788 476.047 353.868 476.545 351.93C476.549 351.912 476.556 351.892 476.559 351.874C477.437 349.075 477.953 346.251 478.502 343.265C478.584 342.815 478.666 342.368 478.752 341.918C479.67 335.464 479.961 328.571 479.619 321.429C479.233 314.898 478.27 308.057 476.757 301.105C475.268 294.582 473.301 287.993 470.917 281.535C468.629 275.407 465.852 269.167 462.666 262.997C459.568 256.993 456.091 251.169 452.335 245.685C448.376 239.904 444.234 234.567 440.019 229.823C438.025 227.617 435.634 225.027 433.073 222.59C431.836 221.41 430.351 220.018 428.701 218.62C431.86 226.548 435.139 234.249 438.325 241.729C439.661 244.864 441.044 248.107 442.383 251.29C446.522 261.052 451.894 273.933 456.757 286.941C459.059 293.218 461.102 299.091 463.004 304.904C464.835 310.697 466.569 316.663 468.315 323.162C469.824 329.149 471.166 335.295 472.42 341.96C472.42 341.974 472.423 341.988 472.427 342.001C472.594 343.126 472.785 344.278 472.973 345.396C473.311 347.445 473.663 349.563 473.912 351.684ZM474.086 363C474.035 363 473.987 362.997 473.936 362.99C473.444 362.924 473.055 362.536 472.977 362.041C472.71 360.332 472.519 358.65 472.338 357.027C472.147 355.304 471.962 353.677 471.692 352.03C471.692 352.013 471.689 351.995 471.686 351.978C471.446 349.902 471.098 347.805 470.76 345.773C470.576 344.656 470.381 343.5 470.21 342.365C468.97 335.752 467.638 329.661 466.146 323.74C464.414 317.293 462.69 311.358 460.873 305.61C458.981 299.831 456.945 293.983 454.657 287.74C449.811 274.777 444.452 261.928 440.323 252.183C438.981 249.003 437.601 245.762 436.269 242.629C432.553 233.912 428.711 224.897 425.077 215.552C424.896 215.083 425.04 214.548 425.433 214.239C425.829 213.929 426.375 213.92 426.778 214.215C429.821 216.443 432.56 218.977 434.609 220.936C437.222 223.421 439.65 226.051 441.679 228.295C445.962 233.118 450.166 238.531 454.175 244.39C457.987 249.951 461.511 255.858 464.654 261.942C467.881 268.195 470.695 274.517 473.014 280.733C475.436 287.29 477.43 293.973 478.946 300.603C480.483 307.683 481.463 314.646 481.86 321.307C482.208 328.616 481.907 335.662 480.965 342.268C480.965 342.285 480.961 342.299 480.958 342.316C480.873 342.77 480.791 343.226 480.709 343.68C480.172 346.594 479.619 349.608 478.707 352.532C477.802 356.044 476.378 359.453 475.108 362.329C474.927 362.74 474.524 363 474.086 363V363Z" fill="#D0E3FF"/>
<path fill-rule="evenodd" clip-rule="evenodd" d="M486.256 205C487.026 208.33 487.586 211.648 488.08 214.961C488.585 218.275 488.974 221.582 489.334 224.887C490.025 231.495 490.447 238.087 490.719 244.67C491.248 257.833 491 270.951 490.231 284.037C489.437 297.119 488.101 310.167 485.995 323.171C484.937 329.672 483.725 336.163 482.237 342.641C481.478 345.876 480.691 349.111 479.788 352.339C478.895 355.568 477.937 358.789 476.762 362C475.985 358.671 475.422 355.353 474.924 352.038C474.419 348.727 474.027 345.419 473.663 342.115C472.966 335.506 472.547 328.911 472.279 322.33C471.753 309.167 471.997 296.05 472.787 282.964C473.601 269.885 474.938 256.833 477.047 243.831C478.108 237.33 479.321 230.838 480.805 224.364C481.561 221.127 482.344 217.892 483.244 214.664C484.133 211.436 485.088 208.211 486.256 205" fill="#D0E3FF"/>
<path fill-rule="evenodd" clip-rule="evenodd" d="M485.94 209.38C485.289 211.45 484.742 213.393 484.298 215.016C483.355 218.41 482.554 221.762 481.899 224.594C480.565 230.43 479.357 236.724 478.2 243.831C476.239 255.979 474.865 268.642 474.006 282.539C473.175 296.355 473.012 309.089 473.504 321.473C473.796 328.657 474.24 335.052 474.865 341.024C475.184 343.935 475.581 347.378 476.107 350.817C476.354 352.492 476.67 354.497 477.074 356.645C477.735 354.565 478.288 352.612 478.736 350.985C479.669 347.632 480.477 344.261 481.142 341.405C482.483 335.553 483.691 329.262 484.841 322.17C486.816 309.937 488.18 297.275 489.011 283.463C489.826 269.568 489.985 256.831 489.493 244.525C489.198 237.335 488.753 230.939 488.132 224.973C487.82 222.089 487.427 218.666 486.901 215.179C486.653 213.512 486.341 211.515 485.94 209.38ZM476.823 362C476.799 362 476.775 361.997 476.755 361.997C476.263 361.966 475.849 361.616 475.737 361.128C474.882 357.455 474.308 353.872 473.904 351.157C473.372 347.68 472.971 344.206 472.652 341.268C472.021 335.241 471.57 328.798 471.278 321.566C470.782 309.103 470.949 296.293 471.783 282.402C472.645 268.425 474.026 255.691 476.001 243.466C477.165 236.311 478.383 229.971 479.727 224.083C480.392 221.223 481.196 217.842 482.15 214.41C482.876 211.765 483.874 208.273 485.153 204.74C485.319 204.272 485.777 203.97 486.266 204.002C486.758 204.033 487.172 204.386 487.284 204.871C488.129 208.536 488.699 212.124 489.103 214.841C489.636 218.367 490.029 221.82 490.345 224.732C490.973 230.75 491.42 237.193 491.719 244.433C492.215 256.814 492.055 269.627 491.237 283.597C490.399 297.488 489.025 310.225 487.04 322.534C485.883 329.673 484.661 336.013 483.314 341.92C482.639 344.804 481.824 348.202 480.881 351.593C480.155 354.232 479.154 357.72 477.868 361.262C477.705 361.705 477.284 362 476.823 362V362Z" fill="white"/>
<path fill-rule="evenodd" clip-rule="evenodd" d="M496 302.972C496.119 301.622 496.325 300.372 496.614 299.221C496.885 298.046 497.234 296.961 497.6 295.899C498.356 293.799 499.254 291.864 500.295 290.093C502.363 286.534 504.919 283.537 507.824 280.944C510.739 278.365 514.017 276.207 517.78 274.604C519.654 273.795 521.671 273.155 523.834 272.675C524.929 272.452 526.041 272.25 527.231 272.137C528.4 272.004 529.654 271.966 531 272.031C530.885 273.388 530.681 274.638 530.393 275.792C530.125 276.967 529.78 278.056 529.414 279.122C528.661 281.221 527.763 283.16 526.719 284.931C524.651 288.486 522.095 291.484 519.176 294.059C516.251 296.625 512.969 298.783 509.203 300.383C507.329 301.187 505.312 301.831 503.153 302.311C502.061 302.537 500.949 302.739 499.763 302.856C498.593 302.993 497.342 303.034 496 302.972" fill="#D0E3FF"/>
<path fill-rule="evenodd" clip-rule="evenodd" d="M530.567 272.232C529.723 272.232 528.913 272.277 528.145 272.362C526.892 272.481 525.74 272.691 524.774 272.882C522.66 273.337 520.65 273.959 518.816 274.728C515.227 276.213 512.002 278.208 508.953 280.833C505.894 283.488 503.455 286.367 501.503 289.637C500.482 291.327 499.586 293.2 498.835 295.215C498.52 296.109 498.153 297.197 497.87 298.387C497.672 299.145 497.517 299.941 497.403 300.767C498.25 300.763 499.071 300.719 499.846 300.631C501.105 300.512 502.254 300.298 503.209 300.104C505.327 299.648 507.337 299.023 509.171 298.258C512.736 296.786 515.964 294.794 519.051 292.166C522.103 289.549 524.546 286.673 526.518 283.382C527.539 281.696 528.432 279.82 529.18 277.804C529.494 276.903 529.861 275.809 530.142 274.629C530.335 273.867 530.491 273.069 530.602 272.232C530.591 272.232 530.578 272.232 530.567 272.232ZM497.358 303C496.939 303 496.517 302.99 496.084 302.969C495.776 302.956 495.486 302.816 495.281 302.589C495.077 302.361 494.977 302.058 495.005 301.756C495.129 300.379 495.351 299.067 495.662 297.857C495.967 296.585 496.354 295.43 496.697 294.468C497.499 292.306 498.455 290.303 499.545 288.502C501.617 285.031 504.206 281.972 507.452 279.157C510.691 276.369 514.116 274.252 517.926 272.671C519.888 271.852 522.037 271.185 524.307 270.699C525.349 270.492 526.574 270.268 527.906 270.142C529.148 270.002 530.505 269.965 531.92 270.033C532.228 270.05 532.515 270.186 532.72 270.414C532.924 270.641 533.021 270.941 532.996 271.243C532.875 272.627 532.657 273.946 532.349 275.156C532.052 276.414 531.661 277.58 531.322 278.548C530.519 280.714 529.564 282.716 528.474 284.518C526.377 288.016 523.781 291.068 520.542 293.849C517.269 296.64 513.84 298.751 510.057 300.311C508.099 301.13 505.953 301.797 503.683 302.29C502.652 302.497 501.431 302.721 500.088 302.85C499.226 302.949 498.309 303 497.358 303V303Z" fill="white"/>
<path fill-rule="evenodd" clip-rule="evenodd" d="M486.306 321C486.03 318.933 485.981 316.933 486.005 314.955C486.019 312.972 486.157 311.031 486.327 309.096C486.71 305.244 487.342 301.463 488.223 297.767C489.957 290.368 492.564 283.255 495.904 276.424C499.265 269.61 503.386 263.058 508.622 257.132C511.254 254.177 514.196 251.396 517.543 248.975C518.386 248.38 519.225 247.788 520.144 247.259L521.495 246.473C521.957 246.22 522.448 245.996 522.928 245.771C524.797 244.849 526.924 244.186 529 244C527.95 245.846 527.104 247.461 526.368 249.203C526.185 249.631 526.005 250.053 525.812 250.457L525.301 251.746C525.139 252.178 524.945 252.572 524.776 252.994L524.292 254.276C522.969 257.638 521.723 260.994 520.386 264.303C517.761 270.96 514.911 277.505 511.713 283.972C508.515 290.436 505.009 296.815 500.93 303.03C498.899 306.138 496.695 309.198 494.319 312.211C493.114 313.71 491.881 315.206 490.554 316.672C489.238 318.14 487.864 319.596 486.306 321" fill="white"/>
<path fill-rule="evenodd" clip-rule="evenodd" d="M526.773 243.67C525.619 243.968 524.445 244.41 523.339 244.972L523.13 245.072C522.735 245.263 522.327 245.46 521.952 245.668L520.641 246.455C519.789 246.959 519.013 247.519 518.193 248.113L518.135 248.155C515.103 250.414 512.26 253.087 509.462 256.32C504.686 261.875 500.604 268.246 496.985 275.789C493.631 282.849 491.09 290.111 489.435 297.365C488.577 301.071 487.952 304.919 487.574 308.801C487.427 310.519 487.272 312.569 487.262 314.686C487.248 315.74 487.251 317.012 487.334 318.388C488.288 317.405 489.126 316.463 489.809 315.677C491.193 314.106 492.456 312.514 493.51 311.165C495.849 308.117 498.042 304.985 500.02 301.87C503.68 296.135 507.165 289.801 510.674 282.505C513.702 276.21 516.507 269.661 519.257 262.483C520.043 260.481 520.809 258.43 521.554 256.445C522.076 255.044 522.601 253.64 523.14 252.236L523.618 250.939C523.7 250.72 523.786 250.522 523.868 250.324C523.961 250.108 524.05 249.893 524.133 249.667L524.654 248.325C524.661 248.304 524.672 248.287 524.678 248.266C524.843 247.904 525.001 247.533 525.159 247.154L525.218 247.011C525.657 245.945 526.148 244.882 526.773 243.67ZM486.431 322C486.3 322 486.17 321.976 486.043 321.93C485.648 321.784 485.366 321.426 485.312 321.006C485.003 318.611 484.985 316.358 485.006 314.666C485.02 312.476 485.178 310.366 485.329 308.589C485.717 304.595 486.359 300.647 487.238 296.847C488.93 289.433 491.526 282.012 494.956 274.795C498.664 267.064 502.853 260.53 507.762 254.818C510.674 251.457 513.633 248.673 516.813 246.306L516.885 246.257C517.709 245.659 518.56 245.042 519.498 244.488L520.837 243.687C521.297 243.429 521.736 243.217 522.162 243.012L522.347 242.922C524.431 241.865 526.66 241.198 528.771 241.005C529.186 240.967 529.592 241.165 529.818 241.52C530.045 241.876 530.062 242.33 529.856 242.699C528.699 244.785 527.933 246.34 527.295 247.898L527.233 248.044C527.072 248.436 526.91 248.819 526.742 249.191L526.241 250.477C526.155 250.72 526.045 250.974 525.939 251.224C525.866 251.398 525.791 251.572 525.722 251.749L525.248 253.046C524.706 254.46 524.184 255.858 523.662 257.252C522.917 259.247 522.145 261.308 521.355 263.317C518.588 270.544 515.755 277.152 512.699 283.506C509.153 290.882 505.623 297.296 501.915 303.108C499.903 306.278 497.672 309.462 495.285 312.573C494.204 313.956 492.916 315.58 491.498 317.193C490.407 318.444 488.927 320.095 487.19 321.701C486.98 321.896 486.705 322 486.431 322V322Z" fill="#D0E3FF"/>
<path fill-rule="evenodd" clip-rule="evenodd" d="M411 310.828C412.609 309.681 414.321 308.621 416.124 307.893C417.023 307.502 417.94 307.108 418.871 306.819C419.805 306.523 420.749 306.278 421.711 306.007C425.541 305.156 429.568 304.772 433.554 305.138C441.549 305.773 449.447 308.799 456.024 313.655C459.307 316.082 462.317 318.909 464.808 322.144L465.753 323.343C466.064 323.748 466.327 324.187 466.618 324.605C467.185 325.445 467.735 326.313 468.261 327.157C469.133 328.712 469.977 330.284 470.773 331.895C472.381 335.102 473.814 338.445 475.073 341.921C475.682 343.675 476.274 345.445 476.768 347.286C477.27 349.12 477.72 350.995 478 353C476.156 352.195 474.482 351.257 472.862 350.277C471.233 349.305 469.7 348.262 468.188 347.199C465.196 345.052 462.38 342.768 459.743 340.349C458.415 339.146 457.135 337.905 455.882 336.646C454.713 335.621 453.699 334.53 452.533 333.572C450.33 331.553 447.998 329.74 445.642 327.976C440.909 324.459 435.837 321.433 430.225 318.64C427.416 317.229 424.451 315.977 421.286 314.67C418.106 313.369 414.75 312.289 411 310.828" fill="#D0E3FF"/>
<path fill-rule="evenodd" clip-rule="evenodd" d="M453.868 332.684C454.554 333.239 455.19 333.838 455.805 334.417C456.274 334.857 456.756 335.311 457.256 335.741C457.274 335.759 457.295 335.776 457.312 335.793C458.714 337.18 459.973 338.368 461.168 339.436C463.791 341.8 466.622 344.063 469.601 346.167C470.937 347.089 472.542 348.174 474.244 349.175C475.108 349.688 476.16 350.295 477.345 350.894C477.08 349.605 476.768 348.437 476.499 347.481C475.982 345.585 475.356 343.758 474.811 342.223C473.562 338.829 472.118 335.516 470.524 332.39C469.807 330.958 468.989 329.444 468.024 327.749C467.552 327.007 466.993 326.134 466.399 325.271C466.301 325.128 466.199 324.976 466.098 324.823C465.92 324.557 465.748 324.304 465.57 324.075L464.623 322.893C462.291 319.909 459.382 317.143 455.966 314.661C449.474 309.944 441.621 307.015 433.849 306.409C430.196 306.079 426.294 306.36 422.249 307.244C421.98 307.317 421.714 307.39 421.448 307.459C420.756 307.65 420.099 307.826 419.449 308.031C418.529 308.312 417.599 308.71 416.778 309.06C415.767 309.462 414.746 309.979 413.648 310.648C414.627 311.008 415.585 311.348 416.522 311.68C418.421 312.353 420.211 312.987 421.969 313.694C425.098 314.97 428.147 316.231 431.087 317.68C437.006 320.581 442.16 323.648 446.834 327.066C448.991 328.653 451.509 330.56 453.868 332.684ZM478.852 354C478.698 354 478.541 353.969 478.394 353.906C476.282 352.995 474.44 351.945 473.069 351.13C471.307 350.094 469.661 348.981 468.28 348.028C465.217 345.862 462.312 343.543 459.63 341.124C458.417 340.043 457.137 338.833 455.718 337.433C455.193 336.979 454.704 336.518 454.225 336.067C453.606 335.485 453.022 334.937 452.393 334.428C452.379 334.414 452.362 334.4 452.348 334.386C450.054 332.324 447.582 330.452 445.467 328.893C440.908 325.562 435.867 322.56 430.066 319.722C427.193 318.301 424.186 317.056 421.102 315.802C419.393 315.115 417.624 314.488 415.75 313.822C414.145 313.254 412.488 312.665 410.733 311.992C410.338 311.84 410.061 311.486 410.009 311.07C409.956 310.655 410.138 310.246 410.484 310.003C412.484 308.596 414.204 307.629 415.896 306.96C416.743 306.596 417.735 306.173 418.763 305.858C419.452 305.643 420.158 305.449 420.847 305.265C421.116 305.192 421.389 305.119 421.662 305.043C421.683 305.036 421.7 305.033 421.721 305.026C426.011 304.09 430.157 303.792 434.042 304.142C442.219 304.78 450.491 307.864 457.323 312.824C460.91 315.434 463.976 318.349 466.43 321.486L467.374 322.668C467.615 322.973 467.818 323.274 468.01 323.569C468.105 323.707 468.196 323.846 468.294 323.981C468.919 324.896 469.524 325.839 469.982 326.56C469.993 326.577 470.003 326.591 470.01 326.608C471 328.345 471.839 329.901 472.576 331.371C474.209 334.57 475.688 337.966 476.971 341.457C477.534 343.044 478.177 344.916 478.716 346.881C479.139 348.402 479.67 350.444 479.988 352.704C480.048 353.109 479.876 353.518 479.548 353.768C479.345 353.92 479.1 354 478.852 354V354Z" fill="white"/>
<path fill-rule="evenodd" clip-rule="evenodd" d="M484.278 352C484.026 350.505 483.945 349.035 484.036 347.632C484.064 346.919 484.132 346.218 484.223 345.52C484.319 344.829 484.461 344.159 484.587 343.468C485.202 340.781 486.14 338.168 487.466 335.813C488.76 333.433 490.354 331.233 492.2 329.29C494.025 327.323 496.095 325.606 498.324 324.16C500.54 322.683 502.956 321.541 505.444 320.67C506.695 320.236 507.966 319.884 509.26 319.63C509.58 319.556 509.903 319.499 510.226 319.439L511.099 319.319C511.684 319.256 512.261 319.186 512.853 319.143C515.204 318.942 517.631 318.953 520.132 319.175C521.39 319.305 522.661 319.464 523.966 319.736C525.271 319.993 526.6 320.321 528 320.85C527.269 322.2 526.467 323.342 525.641 324.421C524.819 325.514 523.959 326.491 523.086 327.439C521.329 329.301 519.493 330.951 517.587 332.386C517.111 332.756 516.628 333.095 516.146 333.44L515.422 333.937C515.215 334.093 515.011 334.255 514.803 334.396C514.392 334.695 513.978 334.981 513.566 335.263C513.165 335.566 512.754 335.848 512.346 336.12C510.729 337.259 509.104 338.299 507.493 339.367C505.869 340.411 504.227 341.43 502.548 342.463C500.849 343.471 499.123 344.504 497.277 345.53C495.428 346.549 493.505 347.61 491.381 348.682C489.233 349.747 487.051 350.921 484.278 352" fill="white"/>
<path fill-rule="evenodd" clip-rule="evenodd" d="M485.899 343.9C485.861 344.094 485.822 344.284 485.783 344.474C485.688 344.932 485.6 345.363 485.536 345.804C485.437 346.5 485.377 347.132 485.353 347.722C485.293 348.574 485.307 349.443 485.395 350.329C487.085 349.66 488.571 348.968 490.017 348.292C490.455 348.085 490.892 347.882 491.323 347.685C493.493 346.667 495.469 345.655 497.382 344.678C499.118 343.785 500.758 342.882 502.339 342.01L502.837 341.735C504.347 340.876 506.143 339.844 507.939 338.775C508.334 338.531 508.74 338.283 509.149 338.035C510.395 337.278 511.683 336.494 512.939 335.673C513.299 335.449 513.744 335.171 514.174 334.868C514.188 334.858 514.202 334.852 514.216 334.841C514.636 334.573 515.056 334.305 515.48 334.023C515.639 333.922 515.773 333.823 515.91 333.725L516.097 333.592C516.111 333.582 516.125 333.575 516.14 333.565L517.181 332.896C517.583 332.628 517.96 332.381 518.334 332.109C520.265 330.762 522.138 329.2 523.913 327.459C524.689 326.675 525.614 325.718 526.482 324.649C526.955 324.075 527.526 323.359 528.094 322.517C527.092 322.239 526.178 322.052 525.437 321.916C524.04 321.648 522.692 321.502 521.556 321.39C519.047 321.187 516.57 321.177 514.209 321.363C513.722 321.394 513.264 321.441 512.78 321.492L512.413 321.529L511.334 321.679C511.097 321.72 510.864 321.76 510.631 321.808C509.368 322.039 508.087 322.364 506.789 322.779C504.153 323.637 501.75 324.727 499.657 326.02C497.364 327.398 495.296 329.003 493.504 330.792C491.655 332.601 490.063 334.634 488.765 336.847C487.508 338.918 486.549 341.287 485.899 343.9ZM484.446 353C484.245 353 484.047 352.949 483.867 352.851C483.571 352.688 483.362 352.403 483.302 352.073C483.027 350.536 482.939 349.029 483.041 347.603C483.066 346.972 483.133 346.273 483.239 345.499C483.317 344.99 483.415 344.508 483.511 344.043C483.549 343.849 483.588 343.659 483.627 343.462C483.631 343.445 483.634 343.429 483.638 343.412C484.34 340.571 485.388 337.991 486.753 335.741C488.144 333.368 489.859 331.176 491.845 329.238C493.758 327.327 495.974 325.606 498.415 324.136C500.66 322.755 503.232 321.584 506.051 320.667C507.456 320.216 508.835 319.87 510.166 319.625C510.395 319.578 510.66 319.53 510.924 319.486L511.178 319.442C511.196 319.439 511.217 319.435 511.235 319.432L512.53 319.276C513.02 319.225 513.525 319.174 514.04 319.14C516.507 318.943 519.114 318.953 521.771 319.174C522.978 319.289 524.397 319.445 525.882 319.731C527.022 319.941 528.56 320.26 530.24 320.851C530.557 320.963 530.812 321.204 530.928 321.509C531.044 321.815 531.02 322.157 530.854 322.443C529.979 323.939 529.03 325.144 528.303 326.027C527.375 327.164 526.404 328.175 525.579 329.01C523.701 330.85 521.732 332.493 519.707 333.905C519.312 334.19 518.899 334.465 518.497 334.729L517.29 335.517C517.121 335.639 516.951 335.758 516.782 335.866C516.372 336.138 515.942 336.416 515.515 336.688C515.042 337.017 514.573 337.312 514.216 337.533C512.953 338.358 511.648 339.152 510.388 339.919C509.982 340.167 509.576 340.411 509.171 340.662C507.346 341.748 505.536 342.787 504.005 343.659L503.493 343.941C501.895 344.824 500.243 345.737 498.49 346.636C496.542 347.634 494.545 348.652 492.332 349.691C491.895 349.891 491.464 350.095 491.027 350.295C489.16 351.167 487.226 352.07 484.851 352.929C484.721 352.976 484.583 353 484.446 353V353Z" fill="#D0E3FF"/>
<path fill-rule="evenodd" clip-rule="evenodd" d="M475.694 354C475.244 352.003 475.081 350.027 475.023 348.072C474.958 346.113 475.036 344.175 475.2 342.244C475.551 338.399 476.274 334.606 477.379 330.916C479.564 323.534 483.174 316.474 488.302 310.279C490.842 307.178 493.836 304.334 497.214 301.925C500.6 299.534 504.336 297.495 508.421 296.329C512.471 295.121 516.747 294.726 520.821 295.187C521.844 295.374 522.849 295.543 523.835 295.761L524.571 295.934L525.297 296.17C525.778 296.322 526.255 296.502 526.726 296.678C527.196 296.858 527.66 297.021 528.117 297.218C528.574 297.405 529.02 297.672 529.46 297.903C530.34 298.405 531.192 298.9 532 299.489C530.108 300.329 528.366 300.8 526.709 301.586C525.052 302.229 523.514 303.043 522.048 303.752C519.136 305.33 516.603 307.05 514.244 308.867C511.885 310.681 509.747 312.743 507.65 314.855C505.56 316.983 503.528 319.236 501.548 321.645C499.556 324.04 497.586 326.535 495.591 329.117L489.547 337.097C487.491 339.824 485.339 342.59 483.086 345.414C480.798 348.231 478.466 351.089 475.694 354" fill="white"/>
<path fill-rule="evenodd" clip-rule="evenodd" d="M518.151 295.301C515.192 295.301 512.184 295.739 509.301 296.597C505.658 297.637 502.056 299.437 498.282 302.098C495.026 304.42 492.059 307.194 489.477 310.346C484.535 316.313 480.889 323.202 478.63 330.822C477.543 334.436 476.817 338.218 476.465 342.064C476.289 344.158 476.23 346.042 476.293 347.814C476.331 349.141 476.417 350.318 476.558 351.4C478.713 349.019 480.609 346.693 482.449 344.431C484.739 341.566 486.932 338.744 488.969 336.051L495.091 327.971C497.408 324.974 499.332 322.561 501.155 320.369C503.158 317.938 505.261 315.602 507.402 313.428C509.467 311.351 511.715 309.173 514.197 307.267C516.891 305.191 519.526 303.468 522.25 301.99C522.267 301.983 522.281 301.976 522.298 301.965C522.64 301.801 522.989 301.629 523.341 301.458C524.522 300.873 525.745 300.27 527.064 299.756C527.975 299.325 528.88 298.996 529.84 298.646C530.013 298.582 530.189 298.516 530.365 298.453C530.168 298.334 529.964 298.218 529.754 298.099C529.629 298.033 529.505 297.966 529.381 297.9C529.073 297.731 528.783 297.574 528.504 297.458C528.193 297.322 527.889 297.21 527.564 297.091C527.419 297.035 527.271 296.979 527.122 296.923L527.046 296.894C526.618 296.733 526.173 296.569 525.741 296.432L525.04 296.205L524.343 296.04C523.583 295.872 522.806 295.735 521.984 295.588L521.38 295.476C520.316 295.361 519.235 295.301 518.151 295.301ZM475.837 355C475.733 355 475.633 354.986 475.533 354.958C475.132 354.846 474.825 354.517 474.732 354.107C474.321 352.289 474.096 350.311 474.024 347.887C473.962 346.028 474.02 344.056 474.207 341.86C474.573 337.851 475.329 333.914 476.458 330.157C478.806 322.239 482.601 315.077 487.736 308.871C490.447 305.569 493.558 302.655 496.984 300.214C500.972 297.399 504.798 295.494 508.676 294.387C512.902 293.126 517.398 292.713 521.666 293.196C521.691 293.2 521.715 293.203 521.742 293.207L522.378 293.322C523.186 293.466 524.022 293.617 524.836 293.799L525.593 293.974C525.624 293.981 525.655 293.988 525.686 293.998L526.421 294.24C526.898 294.391 527.374 294.566 527.83 294.737L527.917 294.769C528.065 294.825 528.207 294.877 528.345 294.93C528.683 295.056 529.029 295.186 529.377 295.336C529.75 295.49 530.106 295.683 530.451 295.872C530.572 295.938 530.693 296.001 530.814 296.065C530.824 296.072 530.838 296.079 530.848 296.086C531.808 296.635 532.675 297.14 533.524 297.752C533.856 297.994 534.036 298.397 533.994 298.81C533.953 299.22 533.694 299.577 533.321 299.742C532.371 300.165 531.473 300.491 530.607 300.81C529.688 301.142 528.818 301.461 527.986 301.857C527.962 301.867 527.937 301.878 527.91 301.888C526.67 302.368 525.482 302.956 524.332 303.524C523.984 303.695 523.638 303.867 523.296 304.032C520.686 305.446 518.158 307.103 515.565 309.099C513.189 310.924 511.007 313.042 509 315.059C506.911 317.182 504.853 319.465 502.892 321.85C501.082 324.021 499.176 326.413 496.883 329.379L490.768 337.448C488.72 340.158 486.51 342.999 484.204 345.888C482.011 348.581 479.532 351.628 476.652 354.65C476.434 354.877 476.141 355 475.837 355V355Z" fill="#D0E3FF"/>
<path fill-rule="evenodd" clip-rule="evenodd" d="M517.242 406H472.755L460 336H530L517.242 406" fill="white"/>
<path fill-rule="evenodd" clip-rule="evenodd" d="M446.836 362.534L442 336H512L499.242 406H454.755L446.836 362.534" fill="white"/>
<path fill-rule="evenodd" clip-rule="evenodd" d="M499.164 407H454.836C454.293 407 453.826 406.612 453.726 406.076L448.162 375.524C448.049 374.909 448.454 374.321 449.069 374.211C449.681 374.102 450.269 374.507 450.379 375.119L455.778 404.742H498.222L510.518 337.254H443.482L448.056 362.362C448.169 362.977 447.76 363.562 447.148 363.675C446.537 363.785 445.949 363.379 445.836 362.768L441.018 336.33C440.959 336 441.048 335.66 441.262 335.406C441.475 335.148 441.794 335 442.128 335H511.872C512.206 335 512.522 335.148 512.738 335.406C512.952 335.66 513.041 336 512.982 336.33L500.274 406.076C500.174 406.612 499.707 407 499.164 407" fill="#78A9FF"/>
<path fill-rule="evenodd" clip-rule="evenodd" d="M449.413 9.79809C448.067 9.75268 446.676 9.72619 445.279 9.72L445.285 8C446.701 8.00654 448.109 8.03337 449.472 8.07912L449.413 9.79809ZM437 9.89613L436.923 8.17785C438.338 8.11421 439.743 8.06674 441.103 8.03715L441.141 9.75681C439.795 9.78605 438.404 9.83283 437 9.89613ZM457.657 10.3481C456.308 10.2112 454.924 10.0953 453.54 10.0041L453.655 8.28758C455.059 8.38046 456.464 8.49811 457.834 8.63709L457.657 10.3481ZM428.731 10.4345L428.586 8.72034C429.997 8.60303 431.398 8.49846 432.751 8.41005L432.865 10.1263C431.523 10.214 430.132 10.3179 428.731 10.4345ZM420.47 11.236L420.279 9.52633C421.704 9.3705 423.102 9.22567 424.427 9.09633L424.597 10.8081C423.279 10.9367 421.888 11.0809 420.47 11.236ZM465.818 11.5181C464.472 11.2618 463.102 11.0348 461.753 10.8428L461.999 9.14036C463.376 9.3361 464.771 9.56761 466.144 9.82905L465.818 11.5181ZM412.215 12.2075L412 10.5009C413.377 10.3296 414.757 10.1617 416.138 9.99864L416.342 11.7066C414.965 11.869 413.588 12.0368 412.215 12.2075ZM473.837 13.4352C472.526 13.0565 471.187 12.7025 469.848 12.3826L470.254 10.7107C471.617 11.0365 472.987 11.3977 474.322 11.784L473.837 13.4352ZM481.623 16.105C480.364 15.6021 479.067 15.1212 477.763 14.6753L478.328 13.0496C479.66 13.5043 480.985 13.9959 482.272 14.5095L481.623 16.105ZM489.077 19.5529C487.887 18.9206 486.649 18.3069 485.4 17.7287L486.132 16.1697C487.412 16.7613 488.678 17.3898 489.895 18.0372L489.077 19.5529ZM496.055 23.8336C494.962 23.0607 493.811 22.3039 492.635 21.5846L493.544 20.1209C494.754 20.8601 495.937 21.6379 497.061 22.4322L496.055 23.8336ZM502.364 29.0088C501.399 28.0858 500.373 27.1766 499.308 26.3063L500.414 24.9799C501.51 25.8787 502.572 26.8182 503.567 27.7718L502.364 29.0088ZM507.719 35.1045C506.931 34.0288 506.078 32.9648 505.176 31.9414L506.484 30.8096C507.42 31.8726 508.308 32.9782 509.123 34.0962L507.719 35.1045ZM511.808 42.0736C511.256 40.8589 510.625 39.6528 509.942 38.4877L511.44 37.6212C512.155 38.8365 512.81 40.0963 513.389 41.3639L511.808 42.0736ZM514.357 49.7149C514.069 48.4035 513.709 47.0956 513.289 45.8273L514.933 45.2872C515.377 46.6127 515.751 47.9797 516.053 49.3499L514.357 49.7149ZM515.266 57.7222C515.245 56.3661 515.162 55.0107 515.013 53.6936L516.736 53.5026C516.892 54.8752 516.979 56.287 517 57.6988L515.266 57.7222ZM516.41 66.059L514.697 65.8075C514.895 64.4604 515.047 63.1034 515.141 61.7734L516.872 61.8945C516.771 63.2678 516.618 64.6689 516.41 66.059ZM514.593 74.2269L512.928 73.745C513.317 72.4309 513.66 71.1048 513.951 69.8038L515.644 70.1757C515.346 71.5138 514.992 72.8767 514.593 74.2269ZM511.759 82.0894L510.16 81.4207C510.702 80.1503 511.204 78.8713 511.659 77.6198L513.289 78.2005C512.828 79.4819 512.311 80.7901 511.759 82.0894ZM508.121 89.6038L506.592 88.7902C507.254 87.5704 507.882 86.3437 508.464 85.1448L510.029 85.8903C509.436 87.1122 508.794 88.3616 508.121 89.6038ZM503.876 96.7786L502.412 95.856C503.161 94.6846 503.886 93.5085 504.57 92.3595L506.064 93.2312C505.371 94.3974 504.635 95.5907 503.876 96.7786ZM499.173 103.652L497.765 102.648C498.587 101.517 499.384 100.385 500.137 99.2839L501.573 100.251C500.81 101.364 500.002 102.509 499.173 103.652ZM494.14 110.274L492.777 109.212C493.644 108.116 494.498 107.02 495.309 105.955L496.693 106.992C495.874 108.066 495.014 109.17 494.14 110.274ZM488.875 116.703L487.544 115.6C488.463 114.509 489.354 113.441 490.186 112.423L491.532 113.508C490.693 114.532 489.798 115.606 488.875 116.703ZM483.468 123L482.154 121.875C483.052 120.844 483.957 119.802 484.866 118.748L486.184 119.864C485.275 120.921 484.367 121.967 483.468 123V123Z" fill="#D0E3FF"/>
<path fill-rule="evenodd" clip-rule="evenodd" d="M339 17.4024L339.233 17.4474L339.657 17.5274C339.672 17.523 340.849 17.7405 340.849 17.7405L380.323 25L387 11L380.079 11.9068L340.152 17.1311C340.135 17.1318 339.219 17.2528 339.219 17.2528L339 17.4024" fill="#78A9FF"/>
<path fill-rule="evenodd" clip-rule="evenodd" d="M339 17.9641L339.031 18L379 12.2423L376.564 5L339 17.9641" fill="#78A9FF"/>
<path fill-rule="evenodd" clip-rule="evenodd" d="M339.832 18.1502L339 18.2765L339.038 18.3251L340.981 18.3837L381.869 19.6561L393 20L385.504 11L378.834 12.0475L339.846 18.1454L339.832 18.1502" fill="#D0E3FF"/>
<path fill-rule="evenodd" clip-rule="evenodd" d="M339 17.9659L339.035 18L339.497 17.8322L340.383 17.5054C340.4 17.5047 377 5.1617 377 5.1617L376.896 5.04684L368.841 0L339.483 17.6307L339.268 17.7856L339 17.9659" fill="#D0E3FF"/>
</svg>
