<svg width="535" height="339" viewBox="0 0 535 339" fill="none" xmlns="http://www.w3.org/2000/svg">
<path fill-rule="evenodd" clip-rule="evenodd" d="M436.789 118.897L481.624 124.758L466.967 75.1033L436.789 118.897" fill="#72ACFF"/>
<path fill-rule="evenodd" clip-rule="evenodd" d="M338.827 323.293L335.234 316.527C351.336 307.98 377.008 287.243 400.778 254.674C429.287 215.611 448.926 167.924 457.572 116.769L465.126 118.046C460.36 146.243 452.417 173.313 441.52 198.503C432.113 220.243 420.488 240.66 406.964 259.189C395.588 274.778 383.139 288.707 369.962 300.59C359.226 310.27 348.17 318.333 338.827 323.293" fill="#72ACFF"/>
<path fill-rule="evenodd" clip-rule="evenodd" d="M122.49 144.258C121.3 144.817 120.483 145.853 119.312 146.446C113.241 149.52 113.588 138.423 113.614 135.215C113.667 128.463 113.375 119.789 104.979 118.284C99.6254 117.325 94.4971 120.91 93.1906 126.194C91.5548 132.81 94.1816 151.546 81.8568 148.988C78.5757 148.307 76.1325 145.606 74.1333 142.916C71.6014 139.51 69.1275 135.709 64.6473 134.901C57.8571 133.675 50.9999 137.597 46.3492 142.238C43.2556 145.326 40.8272 149.291 39.272 153.374C39.2704 153.378 39.2468 153.454 39.2422 153.454C43.6146 153.448 47.987 153.444 52.3597 153.439C58.1556 153.432 63.9518 153.421 69.748 153.412C74.6931 153.405 131.044 153.33 131.044 153.367C130.7 149.196 128.387 141.483 122.49 144.258" fill="#CFE4FF"/>
<path fill-rule="evenodd" clip-rule="evenodd" d="M447.902 290.434V304.956H472.31V301.408C472.31 300.223 471.656 299.134 470.611 298.576L467.67 297.011L464.316 295.224L462.392 289.859L462.272 289.531L457.049 289.859L456.389 289.9L447.902 290.434" fill="#006BFF"/>
<path fill-rule="evenodd" clip-rule="evenodd" d="M447.902 304.956H472.31V301.763H447.902V304.956Z" fill="#CFE4FF"/>
<path fill-rule="evenodd" clip-rule="evenodd" d="M447.902 292.018V300.004C448.077 300.029 448.255 300.04 448.436 300.04C450.66 300.04 452.466 298.237 452.466 296.01C452.466 293.785 450.66 291.982 448.436 291.982C448.255 291.982 448.077 291.993 447.902 292.018" fill="#CFE4FF"/>
<path fill-rule="evenodd" clip-rule="evenodd" d="M420.318 290.434V304.956H395.91V301.408C395.91 300.223 396.564 299.134 397.612 298.576L403.905 295.224L405.828 289.859L405.949 289.531L411.172 289.859L411.831 289.9L420.318 290.434" fill="#006BFF"/>
<path fill-rule="evenodd" clip-rule="evenodd" d="M420.912 290.8L405.117 288.264L416.934 214.68L432.729 217.216L420.912 290.8" fill="#72ACFF"/>
<path fill-rule="evenodd" clip-rule="evenodd" d="M447.088 290.653L431.949 217.538L447.613 214.295L462.751 287.408L447.088 290.653" fill="#72ACFF"/>
<path fill-rule="evenodd" clip-rule="evenodd" d="M391.116 196.815C389.846 195.36 389.384 193.366 389.887 191.499L398.886 158.069C399.72 154.979 402.9 153.148 405.989 153.98C409.078 154.812 410.908 157.992 410.079 161.082L403.357 186.048L406.678 185.581C409.849 185.135 412.779 187.343 413.223 190.512C413.669 193.681 411.461 196.611 408.292 197.057L396.289 198.744C394.363 199.014 392.429 198.301 391.14 196.843C391.132 196.834 391.124 196.824 391.116 196.815" fill="#FFBFAA"/>
<path fill-rule="evenodd" clip-rule="evenodd" d="M412.031 289.011L412.023 289.052L410.176 297.011H400.551L403.905 295.224L406.02 289.011H412.031" fill="#CFE4FF"/>
<path fill-rule="evenodd" clip-rule="evenodd" d="M408.29 197.057L406.676 185.581L413.365 184.641L414.977 196.117L408.29 197.057" fill="#240448"/>
<path fill-rule="evenodd" clip-rule="evenodd" d="M456.191 289.011L456.202 289.052L458.046 297.011H467.672L464.317 295.224L462.202 289.011H456.191" fill="#CFE4FF"/>
<path fill-rule="evenodd" clip-rule="evenodd" d="M407.084 199.206C406.86 198.949 406.704 198.626 406.649 198.263L404.868 186.394C404.718 185.381 405.415 184.437 406.428 184.285C407.443 184.133 408.387 184.831 408.537 185.844L410.315 197.713C410.469 198.726 409.771 199.67 408.756 199.822C408.107 199.92 407.486 199.667 407.084 199.206" fill="#001E57"/>
<path fill-rule="evenodd" clip-rule="evenodd" d="M409.8 194.185C409.086 193.367 408.596 192.34 408.432 191.185C407.986 188.016 410.194 185.086 413.365 184.641L418.55 183.912C421.718 183.466 424.649 185.674 425.094 188.844C425.54 192.012 423.333 194.942 420.164 195.388L414.977 196.117C412.963 196.4 411.045 195.611 409.8 194.185" fill="#001E57"/>
<path fill-rule="evenodd" clip-rule="evenodd" d="M438.508 223.752H425.909C422.071 223.752 418.957 220.639 418.957 216.799C418.957 212.959 422.071 209.846 425.909 209.846H438.508C442.35 209.846 445.463 212.959 445.463 216.799C445.463 220.639 442.35 223.752 438.508 223.752" fill="#72ACFF"/>
<path fill-rule="evenodd" clip-rule="evenodd" d="M447.351 215.098H417.386L413.261 191.942C412.486 187.608 415.819 183.628 420.224 183.628H444.514C448.916 183.628 452.249 187.608 451.477 191.942L447.351 215.098" fill="#001E57"/>
<path fill-rule="evenodd" clip-rule="evenodd" d="M433.003 186.937C431.046 187.188 429.263 185.809 429.014 183.855L428.685 181.32L427.67 173.404C427.419 171.45 428.798 169.664 430.751 169.413C430.904 169.394 431.057 169.385 431.211 169.385C432.672 169.385 433.977 170.283 434.51 171.614C434.622 171.891 434.702 172.184 434.74 172.496L436.083 182.947C436.332 184.9 434.954 186.686 433.003 186.937" fill="#FFBFAA"/>
<path fill-rule="evenodd" clip-rule="evenodd" d="M434.015 175.754C433.345 178.847 431.837 181.077 428.685 181.32L427.67 173.404C427.419 171.45 428.798 169.664 430.751 169.413C430.904 169.394 431.057 169.385 431.211 169.385C432.672 169.385 433.977 170.283 434.51 171.614C434.622 171.891 434.702 172.184 434.74 172.496L434.015 175.754" fill="#240448"/>
<path fill-rule="evenodd" clip-rule="evenodd" d="M425.948 179.085V179.085C423.697 178.174 422.61 175.61 423.522 173.359L424.89 169.978C426.088 167.011 429.467 165.579 432.435 166.78C435.401 167.98 436.835 171.359 435.634 174.326L435.314 175.115C433.823 178.798 429.631 180.575 425.948 179.085" fill="#FFBFAA"/>
<path fill-rule="evenodd" clip-rule="evenodd" d="M462.999 291.074H446.841C445.711 291.074 444.797 290.16 444.797 289.03C444.797 287.903 445.711 286.986 446.841 286.986H462.999C464.129 286.986 465.043 287.903 465.043 289.03C465.043 290.16 464.129 291.074 462.999 291.074" fill="#72ACFF"/>
<path fill-rule="evenodd" clip-rule="evenodd" d="M420.693 291.074H404.879C403.749 291.074 402.832 290.16 402.832 289.03C402.832 287.903 403.749 286.986 404.879 286.986H420.693C421.82 286.986 422.736 287.903 422.736 289.03C422.736 290.16 421.82 291.074 420.693 291.074" fill="#72ACFF"/>
<path fill-rule="evenodd" clip-rule="evenodd" d="M425.273 170.165L421.847 173.052C421.459 173.379 421.615 174.009 422.11 174.12L424.575 174.671L425.273 170.165" fill="#FFBFAA"/>
<path fill-rule="evenodd" clip-rule="evenodd" d="M429.276 165.841C428.966 167.808 427.12 169.15 425.152 168.839C423.185 168.529 421.845 166.682 422.154 164.716C422.466 162.749 424.312 161.407 426.28 161.718C428.244 162.028 429.587 163.874 429.276 165.841" fill="#001E57"/>
<path fill-rule="evenodd" clip-rule="evenodd" d="M433.021 166.379C432.803 167.77 431.498 168.719 430.105 168.499C428.715 168.279 427.766 166.974 427.985 165.583C428.206 164.193 429.511 163.243 430.901 163.463C432.291 163.683 433.24 164.988 433.021 166.379" fill="#001E57"/>
<path fill-rule="evenodd" clip-rule="evenodd" d="M434.754 170.355L425.473 168.889C424.234 168.694 423.388 167.53 423.582 166.291C423.779 165.052 424.942 164.207 426.182 164.402L435.462 165.869C436.702 166.064 437.547 167.227 437.35 168.466C437.156 169.705 435.993 170.551 434.754 170.355" fill="#001E57"/>
<path fill-rule="evenodd" clip-rule="evenodd" d="M436.291 175.16L432.282 174.528L431.609 167.539L437.35 168.446L436.291 175.16" fill="#001E57"/>
<path fill-rule="evenodd" clip-rule="evenodd" d="M437.117 174.572C436.879 176.064 435.481 177.082 433.99 176.846C432.496 176.61 431.478 175.21 431.713 173.719C431.952 172.227 433.35 171.209 434.841 171.445C436.335 171.68 437.352 173.081 437.117 174.572" fill="#FFBFAA"/>
<path fill-rule="evenodd" clip-rule="evenodd" d="M462.379 238.669C460.001 238.669 457.771 237.194 456.923 234.827L445.396 202.629C444.316 199.617 445.883 196.3 448.898 195.221C451.911 194.143 455.227 195.71 456.305 198.723L467.834 230.92C468.912 233.933 467.345 237.249 464.332 238.329C463.687 238.559 463.027 238.669 462.379 238.669" fill="#FFBFAA"/>
<path fill-rule="evenodd" clip-rule="evenodd" d="M445.412 202.674L443.086 196.335L453.964 192.34L456.293 198.679L445.412 202.674" fill="#240448"/>
<path fill-rule="evenodd" clip-rule="evenodd" d="M448.523 200.133C446.162 200.133 443.943 198.68 443.084 196.335L441.278 191.419C440.176 188.415 441.716 185.085 444.72 183.982C447.724 182.88 451.054 184.42 452.157 187.424L453.962 192.34C455.065 195.344 453.525 198.673 450.521 199.777C449.861 200.018 449.185 200.133 448.523 200.133" fill="#001E57"/>
<path fill-rule="evenodd" clip-rule="evenodd" d="M445.454 204.636C444.699 204.636 443.993 204.174 443.714 203.427C443.358 202.467 443.845 201.4 444.806 201.043L455.627 197.019C456.587 196.662 457.654 197.151 458.012 198.111C458.368 199.071 457.881 200.139 456.921 200.496L446.1 204.519C445.886 204.599 445.667 204.636 445.454 204.636" fill="#001E57"/>
<path fill-rule="evenodd" clip-rule="evenodd" d="M395.91 304.956H420.318V301.763H395.91V304.956Z" fill="#CFE4FF"/>
<path fill-rule="evenodd" clip-rule="evenodd" d="M420.319 292.018V300.004C420.146 300.029 419.966 300.04 419.785 300.04C417.561 300.04 415.758 298.237 415.758 296.01C415.758 293.785 417.561 291.982 419.785 291.982C419.966 291.982 420.146 291.993 420.319 292.018" fill="#CFE4FF"/>
<path fill-rule="evenodd" clip-rule="evenodd" d="M431.99 222.166H429.889C429.544 222.166 429.257 221.908 429.218 221.566L428.559 215.567C428.518 215.197 428.786 214.864 429.155 214.824C429.527 214.784 429.858 215.05 429.899 215.42L430.49 220.819H431.99C432.362 220.819 432.666 221.121 432.666 221.493C432.666 221.865 432.362 222.166 431.99 222.166" fill="#240448"/>
<path fill-rule="evenodd" clip-rule="evenodd" d="M423.792 218.549H416.673C416.301 218.549 416 218.247 416 217.875C416 217.503 416.301 217.202 416.673 217.202H423.792C424.164 217.202 424.465 217.503 424.465 217.875C424.465 218.247 424.164 218.549 423.792 218.549" fill="#240448"/>
<path fill-rule="evenodd" clip-rule="evenodd" d="M448.369 218.549H441.25C440.878 218.549 440.574 218.247 440.574 217.875C440.574 217.503 440.878 217.202 441.25 217.202H448.369C448.741 217.202 449.042 217.503 449.042 217.875C449.042 218.247 448.741 218.549 448.369 218.549" fill="#240448"/>
<path fill-rule="evenodd" clip-rule="evenodd" d="M410.176 297.684H400.551C400.179 297.684 399.875 297.383 399.875 297.011C399.875 296.639 400.179 296.338 400.551 296.338H410.176C410.548 296.338 410.849 296.639 410.849 297.011C410.849 297.383 410.548 297.684 410.176 297.684" fill="#240448"/>
<path fill-rule="evenodd" clip-rule="evenodd" d="M467.669 297.684H458.044C457.672 297.684 457.371 297.383 457.371 297.011C457.371 296.639 457.672 296.338 458.044 296.338H467.669C468.041 296.338 468.345 296.639 468.345 297.011C468.345 297.383 468.041 297.684 467.669 297.684" fill="#240448"/>
<path fill-rule="evenodd" clip-rule="evenodd" d="M431.019 200.233C431.019 202.753 428.978 204.795 426.458 204.795C423.938 204.795 421.895 202.753 421.895 200.233C421.895 197.714 423.938 195.671 426.458 195.671C428.978 195.671 431.019 197.714 431.019 200.233" fill="white"/>
<path fill-rule="evenodd" clip-rule="evenodd" d="M440.293 200.233C440.293 202.753 438.249 204.795 435.729 204.795C433.209 204.795 431.168 202.753 431.168 200.233C431.168 197.714 433.209 195.671 435.729 195.671C438.249 195.671 440.293 197.714 440.293 200.233" fill="white"/>
<path fill-rule="evenodd" clip-rule="evenodd" d="M430.66 205.677L425.117 200.133L430.66 194.59L436.203 200.133L430.66 205.677" fill="#006BFF"/>
<path fill-rule="evenodd" clip-rule="evenodd" d="M399.706 159.086C399.273 158.59 399.087 157.894 399.268 157.209L401.446 149C401.736 147.904 402.86 147.252 403.955 147.542C405.052 147.834 405.703 148.957 405.413 150.053L403.235 158.261C402.945 159.357 401.821 160.01 400.726 159.72C400.316 159.61 399.966 159.384 399.706 159.086" fill="#FFBFAA"/>
<path fill-rule="evenodd" clip-rule="evenodd" d="M403.8 158.385C403.352 157.87 403.168 157.141 403.382 156.438L406.252 146.977C406.58 145.893 407.727 145.28 408.813 145.609C409.896 145.938 410.509 147.085 410.181 148.169L407.311 157.63C406.982 158.715 405.836 159.327 404.75 158.998C404.37 158.883 404.047 158.665 403.8 158.385" fill="#FFBFAA"/>
<path fill-rule="evenodd" clip-rule="evenodd" d="M407.159 159.404C406.675 158.849 406.508 158.05 406.789 157.314L409.701 149.769C410.108 148.711 411.298 148.184 412.354 148.593C413.413 149 413.939 150.189 413.531 151.246L410.62 158.792C410.212 159.85 409.025 160.377 407.966 159.968C407.646 159.844 407.372 159.647 407.159 159.404" fill="#FFBFAA"/>
<path fill-rule="evenodd" clip-rule="evenodd" d="M405.892 158.004C405.961 157.595 406.152 157.203 406.469 156.888C407.274 156.09 408.573 156.094 409.372 156.899L410.319 157.852L411.197 156.789C411.92 155.915 413.211 155.792 414.087 156.514C414.962 157.236 415.085 158.53 414.363 159.404L412.04 162.214C411.671 162.661 411.132 162.931 410.552 162.957C409.972 162.984 409.408 162.764 409 162.353L406.459 159.792C405.974 159.304 405.785 158.634 405.892 158.004" fill="#FFBFAA"/>
<path fill-rule="evenodd" clip-rule="evenodd" d="M468.539 241.949C467.666 241.949 466.859 241.391 466.58 240.515L464.022 232.417C463.68 231.336 464.279 230.184 465.36 229.842C466.443 229.5 467.595 230.099 467.937 231.18L470.495 239.279C470.837 240.359 470.238 241.511 469.157 241.853C468.952 241.919 468.744 241.949 468.539 241.949" fill="#FFBFAA"/>
<path fill-rule="evenodd" clip-rule="evenodd" d="M465.544 246.162C464.644 246.162 463.821 245.569 463.566 244.66L460.923 235.134C460.619 234.042 461.26 232.909 462.351 232.606C463.443 232.302 464.576 232.942 464.879 234.034L467.522 243.56C467.826 244.652 467.186 245.785 466.094 246.089C465.911 246.138 465.725 246.162 465.544 246.162" fill="#FFBFAA"/>
<path fill-rule="evenodd" clip-rule="evenodd" d="M461.096 245.506C460.138 245.506 459.282 244.833 459.085 243.856L457.501 235.924C457.279 234.814 458.002 233.733 459.112 233.511C460.226 233.29 461.307 234.009 461.528 235.123L463.112 243.052C463.334 244.163 462.612 245.246 461.501 245.468C461.364 245.495 461.23 245.506 461.096 245.506" fill="#FFBFAA"/>
<path fill-rule="evenodd" clip-rule="evenodd" d="M456.556 240.275C456.376 240.275 456.192 240.25 456.012 240.201C454.917 239.897 454.277 238.767 454.578 237.675L455.965 232.636C456.269 231.541 457.396 230.901 458.491 231.202C459.585 231.503 460.225 232.633 459.924 233.727L458.534 238.767C458.285 239.675 457.459 240.275 456.556 240.275" fill="#FFBFAA"/>
<path fill-rule="evenodd" clip-rule="evenodd" d="M252.413 80.7363C251.215 80.7363 249.992 80.7596 248.788 80.8017C221.009 81.759 196.128 93.6177 178.709 114.182C161.296 134.747 153.439 161.56 156.585 189.686C159.658 217.168 172.962 242.814 194.046 261.903C215.086 280.945 241.595 291.435 268.698 291.435C269.904 291.435 271.13 291.411 272.337 291.369C300.11 290.406 324.997 278.554 342.411 257.988C359.826 237.424 367.681 210.61 364.54 182.484C361.462 155.003 348.157 129.357 327.073 110.268C306.033 91.2262 279.524 80.7363 252.413 80.7363ZM266.104 257.698C228.06 257.698 194.205 227.224 189.878 188.533C185.458 149.001 213.518 115.864 252.553 114.514C253.379 114.481 254.197 114.467 255.021 114.467C293.062 114.471 326.914 144.942 331.246 183.638C335.667 223.165 307.607 256.308 268.567 257.656C267.74 257.684 266.922 257.698 266.104 257.698V257.698Z" fill="white"/>
<path fill-rule="evenodd" clip-rule="evenodd" d="M242.047 60.7097C240.6 60.7097 239.158 60.733 237.711 60.7844C168.971 63.1617 119.559 121.516 127.342 191.121C134.965 259.26 194.575 312.921 261.563 312.921C263.011 312.921 264.452 312.896 265.905 312.844C334.644 310.467 384.057 252.108 376.27 182.504C368.65 114.37 309.035 60.7097 242.047 60.7097ZM259.943 292.163C232.841 292.163 206.332 281.673 185.293 262.63C164.208 243.544 150.904 217.897 147.831 190.416C144.685 162.289 152.541 135.476 169.955 114.912C187.374 94.3469 212.255 82.4885 240.034 81.5309C241.237 81.4888 242.46 81.4656 243.662 81.4656C270.77 81.4656 297.279 91.9557 318.319 110.997C339.402 130.086 352.708 155.732 355.786 183.214C358.926 211.34 351.071 238.154 333.657 258.718C316.242 279.282 291.355 291.137 263.582 292.097C262.376 292.141 261.15 292.163 259.943 292.163V292.163Z" fill="#006BFF"/>
<path fill-rule="evenodd" clip-rule="evenodd" d="M367.705 112.628C367.503 112.628 367.306 112.54 367.169 112.37C341.3 79.9937 302.247 60.6641 262.703 60.6641C261.209 60.6641 259.8 60.6885 258.391 60.7386C251.215 60.9867 244.093 61.8622 237.223 63.3402C236.851 63.4201 236.49 63.1845 236.41 62.8155C236.331 62.4461 236.564 62.0822 236.936 62.0029C243.885 60.5076 251.086 59.6223 258.342 59.3714C259.768 59.3208 261.196 59.2961 262.703 59.2961C282.747 59.2961 303.089 64.21 321.527 73.5067C339.429 82.5316 355.58 95.6754 368.239 111.517C368.474 111.812 368.425 112.242 368.132 112.478C368.004 112.579 367.853 112.628 367.705 112.628ZM147.685 165.606C147.664 165.606 147.644 165.606 147.623 165.604C147.247 165.57 146.969 165.238 147.003 164.861C147.737 156.653 149.299 148.55 151.644 140.778C151.753 140.416 152.134 140.213 152.496 140.321C152.858 140.43 153.063 140.811 152.954 141.173C150.635 148.857 149.091 156.868 148.366 164.983C148.334 165.339 148.035 165.606 147.685 165.606ZM199.455 283.15C199.305 283.15 199.154 283.104 199.028 283.003C181.587 269.06 167.563 251.06 158.472 230.95C158.317 230.606 158.47 230.201 158.814 230.045C159.159 229.889 159.563 230.042 159.719 230.387C168.721 250.299 182.61 268.124 199.882 281.933C200.177 282.168 200.227 282.601 199.991 282.893C199.855 283.063 199.658 283.15 199.455 283.15ZM340.077 297.974C339.839 297.974 339.607 297.851 339.481 297.627C339.295 297.298 339.413 296.88 339.741 296.696C357.153 286.85 371.648 272.423 381.656 254.972C381.842 254.644 382.261 254.532 382.589 254.718C382.918 254.907 383.03 255.325 382.841 255.651C372.712 273.317 358.042 287.919 340.414 297.887C340.307 297.947 340.192 297.974 340.077 297.974V297.974Z" fill="#001E57"/>
<path fill-rule="evenodd" clip-rule="evenodd" d="M256.495 133.437C255.896 133.437 255.283 133.446 254.678 133.466C226.021 134.457 205.356 158.869 208.601 187.884C210.136 201.62 216.787 214.438 227.321 223.972C237.835 233.492 251.086 238.734 264.626 238.734C265.228 238.734 265.841 238.723 266.448 238.699C280.328 238.223 292.763 232.299 301.466 222.019C310.172 211.74 314.098 198.342 312.528 184.286C310.993 170.55 304.342 157.732 293.803 148.198C283.288 138.678 270.043 133.437 256.495 133.437ZM262.391 209.724C249.833 209.724 238.664 199.662 237.231 186.892C235.772 173.843 245.036 162.906 257.92 162.461C258.191 162.452 258.465 162.447 258.733 162.447C271.291 162.447 282.465 172.504 283.893 185.278C285.354 198.323 276.093 209.264 263.203 209.709C262.933 209.719 262.664 209.724 262.391 209.724V209.724Z" fill="white"/>
<path fill-rule="evenodd" clip-rule="evenodd" d="M254.826 111.945C253.972 111.945 253.127 111.959 252.27 111.993C211.862 113.391 182.813 147.695 187.388 188.619C191.867 228.671 226.913 260.22 266.298 260.22C267.146 260.22 267.991 260.206 268.848 260.176C309.261 258.781 338.309 224.471 333.735 183.552C329.25 143.493 294.205 111.95 254.826 111.945ZM264.623 238.734C251.083 238.734 237.832 233.492 227.318 223.973C216.784 214.438 210.133 201.62 208.598 187.884C205.353 158.869 226.018 134.457 254.675 133.466C255.28 133.446 255.893 133.437 256.495 133.437C270.041 133.437 283.286 138.678 293.8 148.198C304.339 157.733 310.99 170.55 312.525 184.287C314.096 198.342 310.17 211.74 301.464 222.019C292.76 232.299 280.325 238.223 266.446 238.699C265.838 238.723 265.225 238.734 264.623 238.734V238.734Z" fill="#006BFF"/>
<path fill-rule="evenodd" clip-rule="evenodd" d="M259.131 167.654C258.924 167.654 258.71 167.658 258.499 167.666C248.453 168.012 241.23 176.54 242.368 186.715C243.484 196.671 252.193 204.516 261.985 204.516C262.199 204.516 262.406 204.512 262.62 204.505C272.666 204.158 279.89 195.627 278.749 185.456C277.638 175.496 268.924 167.654 259.131 167.654" fill="#006BFF"/>
<path fill-rule="evenodd" clip-rule="evenodd" d="M79.5824 174.515L81.4097 177.966L84.7509 179.853L81.4097 181.741L79.5824 185.192L77.7553 181.741L74.4141 179.853L77.7553 177.966L79.5824 174.515" fill="#CFE4FF"/>
<path fill-rule="evenodd" clip-rule="evenodd" d="M305.879 13.6128L307.707 17.0637L311.048 18.9513L307.707 20.8386L305.879 24.2895L304.052 20.8386L300.711 18.9513L304.052 17.0637L305.879 13.6128" fill="#006BFF"/>
<path fill-rule="evenodd" clip-rule="evenodd" d="M487.301 249.577L489.129 253.027L492.469 254.915L489.129 256.803L487.301 260.253L485.473 256.803L482.133 254.915L485.473 253.027L487.301 249.577" fill="#72ACFF"/>
<path fill-rule="evenodd" clip-rule="evenodd" d="M84.555 27.416L86.3824 30.8669L89.7236 32.7545L86.3824 34.6418L84.555 38.0927L82.7276 34.6418L79.3867 32.7545L82.7276 30.8669L84.555 27.416" fill="#CFE4FF"/>
<path fill-rule="evenodd" clip-rule="evenodd" d="M354.79 38.4254V38.4254C350.888 38.4254 347.723 35.2609 347.723 31.3575C347.723 27.4537 350.888 24.2896 354.79 24.2896C358.694 24.2896 361.86 27.4537 361.86 31.3575C361.86 35.2609 358.694 38.4254 354.79 38.4254" fill="#006BFF"/>
<path fill-rule="evenodd" clip-rule="evenodd" d="M336.848 54.8792V54.8792C334.774 54.8792 333.094 53.1985 333.094 51.1252C333.094 49.0518 334.774 47.3711 336.848 47.3711C338.921 47.3711 340.601 49.0518 340.601 51.1252C340.601 53.1985 338.921 54.8792 336.848 54.8792" fill="#001E57"/>
<path fill-rule="evenodd" clip-rule="evenodd" d="M342.614 44.0799H354.105V32.5887H342.614V44.0799ZM354.789 45.4479H341.93C341.553 45.4479 341.246 45.1417 341.246 44.7639V31.9047C341.246 31.5269 341.553 31.2207 341.93 31.2207H354.789C355.17 31.2207 355.473 31.5269 355.473 31.9047V44.7639C355.473 45.1417 355.17 45.4479 354.789 45.4479V45.4479Z" fill="#CFE4FF"/>
<path fill-rule="evenodd" clip-rule="evenodd" d="M485.993 184.267C485.38 184.267 484.759 184.407 484.201 184.686C483.837 184.868 482.97 185.376 482.809 186.148C482.644 186.946 483.263 187.826 483.81 188.424C484.893 189.604 486.22 190.499 487.651 191.058C488.874 189.855 489.608 188.444 489.312 186.838C489.082 185.592 488.292 184.96 487.668 184.649C487.156 184.394 486.576 184.267 485.993 184.267ZM478.573 197.404C478.22 197.404 477.895 197.173 477.788 196.816C477.659 196.382 477.906 195.925 478.341 195.796C479.938 195.321 483.569 194.109 486.231 192.228C484.885 191.581 483.646 190.671 482.601 189.534C481.424 188.253 480.954 187.001 481.203 185.813C481.421 184.759 482.226 183.838 483.468 183.217C485.011 182.446 486.899 182.432 488.401 183.18C489.755 183.855 490.65 185.049 490.926 186.541C491.282 188.481 490.62 190.151 489.416 191.567C490.489 191.77 491.586 191.789 492.655 191.606C495.356 191.145 497.46 189.449 498.579 186.832C498.757 186.415 499.241 186.222 499.657 186.4C500.073 186.578 500.267 187.061 500.089 187.478C498.743 190.625 496.201 192.666 492.932 193.224C491.304 193.502 489.627 193.385 488.029 192.918C485.23 195.223 481.142 196.676 478.809 197.37C478.729 197.393 478.653 197.404 478.573 197.404V197.404Z" fill="#CFE4FF"/>
<path fill-rule="evenodd" clip-rule="evenodd" d="M291.535 50.2055H140.039C139.985 49.0756 140.044 47.8561 140.207 46.5866V46.5844C140.689 42.8189 142.086 38.6153 144.134 35.0114C147.337 29.3679 152.138 25.1947 157.528 26.4839C159.18 26.8765 160.886 27.784 162.618 29.3175C165.214 31.6169 167.304 34.4399 169.876 36.7674C172.446 39.0952 175.735 40.9647 179.193 40.7116C183.526 40.3975 186.639 36.5231 187.287 32.4415C188.846 22.6226 188.748 3.22459 201.026 0.537017C201.258 0.486674 201.488 0.440983 201.715 0.403774C212.205 -1.39159 219.439 8.85719 222.232 18.0392C222.55 19.0819 222.81 20.1117 223.012 21.1085C223.584 23.5082 223.8 26.126 223.896 28.7788C223.912 28.9468 223.931 29.1126 223.951 29.2784C224.035 29.9895 224.128 30.694 224.249 31.3879C224.542 33.0982 224.974 34.7299 225.702 36.1699C225.978 36.7239 226.369 37.2954 226.971 37.4416C228.646 37.8473 230.052 35.9058 231.009 34.3592C231.28 33.925 231.516 33.5214 231.713 33.2095C234.755 28.3796 243.152 25.1596 246.944 30.9515C249.592 35.0005 247.39 42.8889 252.906 44.9045C259.229 47.217 260.821 38.9009 261.385 34.6361C262.077 29.3961 261.959 24.0275 263.505 18.927C264.159 17.4001 265.251 15.6548 266.996 15.4367C268.739 15.4367 270.268 16.7456 270.925 18.2748C272.859 22.9739 273.39 28.0437 274.099 33.0328C274.673 37.0796 275.459 46.0085 280.84 46.51C283.699 46.774 286.285 41.6739 288.933 43.9338C290.613 45.3669 290.523 48.3645 291.535 50.2055" fill="#CFE4FF"/>
<path fill-rule="evenodd" clip-rule="evenodd" d="M72.0915 81.5201C72.2797 81.5562 72.4688 81.5806 72.6581 81.5918C73.6669 81.6514 74.5755 81.3168 75.3575 80.5975C75.6628 80.3165 76.0508 79.8621 76.1662 79.2905C76.3003 78.6273 75.9903 77.8719 75.4291 77.4941C74.8677 77.116 74.0513 77.113 73.4874 77.4867C72.9055 77.8725 72.5112 78.6216 72.2825 79.7773C72.1645 80.3721 72.1011 80.9557 72.0915 81.5201ZM79.2013 89.4698C75.7542 89.4698 72.4078 87.9423 71.216 84.6367C70.9818 83.9869 70.8307 83.2887 70.7637 82.5573C69.3284 82.0233 67.8895 80.989 66.6934 79.5951C65.3883 78.0741 64.5544 76.267 64.4052 74.6363C64.3708 74.2607 64.6474 73.928 65.0233 73.8938C65.3973 73.8577 65.7319 74.1359 65.7661 74.5118C65.8884 75.8462 66.6228 77.4139 67.7306 78.705C68.4772 79.5751 69.5517 80.502 70.7413 81.0659C70.7708 80.5565 70.8376 80.0369 70.9415 79.5116C71.245 77.98 71.8307 76.9447 72.7325 76.3474C73.7539 75.6711 75.1766 75.6763 76.1925 76.3603C77.2086 77.0443 77.7487 78.3608 77.506 79.5614C77.3572 80.2982 76.9342 81.0041 76.283 81.6033C75.2176 82.5833 73.9708 83.04 72.5774 82.9562C72.4474 82.9486 72.3164 82.936 72.1845 82.9185C72.2532 83.3571 72.3588 83.7768 72.5016 84.1729C73.9635 88.2271 79.1263 88.6326 82.325 87.626C82.4336 87.5918 82.5419 87.5554 82.6494 87.5171C83.5592 87.1913 84.3666 86.7494 85.0484 86.2036C85.343 85.9675 85.7729 86.0151 86.0092 86.31C86.2448 86.6047 86.1975 87.0348 85.9025 87.2706C85.1025 87.9111 84.1627 88.4271 83.1096 88.8042C82.9857 88.8485 82.8612 88.8901 82.7362 88.9297C81.6029 89.2862 80.3958 89.4698 79.2013 89.4698V89.4698Z" fill="#CFE4FF"/>
<path fill-rule="evenodd" clip-rule="evenodd" d="M260.562 186.458C260.727 185.805 260.921 185.227 261.14 184.719C261.356 184.196 261.594 183.737 261.837 183.295C262.333 182.431 262.874 181.685 263.463 181.062C264.631 179.801 265.952 178.953 267.389 178.402C268.828 177.859 270.382 177.626 272.092 177.801C272.943 177.883 273.84 178.087 274.784 178.411C275.26 178.586 275.742 178.775 276.248 179.029C276.749 179.267 277.277 179.577 277.832 179.963C277.668 180.62 277.476 181.201 277.258 181.71C277.044 182.234 276.806 182.694 276.563 183.139C276.067 184.005 275.526 184.75 274.94 185.374C273.769 186.631 272.445 187.48 271.006 188.02C269.564 188.551 268.01 188.785 266.3 188.607C265.446 188.525 264.549 188.32 263.605 187.998C263.132 187.826 262.65 187.637 262.144 187.385C261.643 187.148 261.118 186.841 260.562 186.458" fill="#240448"/>
<path fill-rule="evenodd" clip-rule="evenodd" d="M270.664 182.66C272.834 180.008 275.146 177.728 277.479 175.516C279.827 173.333 282.224 171.281 284.661 169.338C289.54 165.463 294.563 161.971 299.712 158.816C304.856 155.642 310.12 152.796 315.482 150.204C320.842 147.611 326.301 145.272 331.849 143.181C337.395 141.083 343.037 139.236 348.777 137.649C354.517 136.065 360.347 134.722 366.309 133.723C372.26 132.701 378.342 132.022 384.566 131.726C387.68 131.585 390.837 131.554 394.044 131.656C397.259 131.784 400.504 131.984 403.888 132.558C401.721 135.22 399.412 137.507 397.078 139.723C394.733 141.913 392.339 143.969 389.902 145.915C385.026 149.795 380.003 153.29 374.854 156.443C369.713 159.62 364.44 162.452 359.081 165.044C353.715 167.632 348.257 169.959 342.7 172.036C337.149 174.121 331.504 175.958 325.762 177.539C320.022 179.122 314.186 180.452 308.227 181.453C302.273 182.473 296.194 183.156 289.972 183.456C286.856 183.6 283.704 183.637 280.497 183.541C277.282 183.416 274.043 183.224 270.664 182.66" fill="#72ACFF"/>
<path fill-rule="evenodd" clip-rule="evenodd" d="M381.808 141.6C381.395 139.705 381.225 138.095 381.129 136.574C381.033 135.053 381.028 133.638 381.099 132.316C381.255 129.683 381.674 127.362 382.325 125.315C383.611 121.199 385.75 118.094 388.511 115.724C391.285 113.368 394.694 111.761 398.962 111.168C401.086 110.861 403.447 110.832 406.073 111.118C407.389 111.264 408.79 111.51 410.278 111.858C411.767 112.207 413.329 112.646 415.138 113.373C415.556 115.277 415.734 116.892 415.833 118.417C415.931 119.941 415.942 121.363 415.871 122.686C415.72 125.323 415.302 127.647 414.648 129.692C413.362 133.803 411.214 136.901 408.434 139.249C405.641 141.584 402.226 143.183 397.956 143.771C395.83 144.077 393.471 144.108 390.847 143.827C389.534 143.681 388.139 143.442 386.653 143.096C385.167 142.752 383.608 142.318 381.808 141.6" fill="#001E57"/>
<path fill-rule="evenodd" clip-rule="evenodd" d="M381.82 141.575C382.72 139.857 383.621 138.512 384.521 137.284C385.424 136.055 386.327 134.964 387.229 133.997C389.038 132.075 390.846 130.563 392.658 129.41C396.283 127.074 399.916 126.063 403.555 126.015C407.194 125.986 410.841 126.938 414.496 129.219C416.324 130.345 418.154 131.837 419.985 133.74C420.901 134.696 421.821 135.783 422.737 137.004C423.656 138.225 424.576 139.565 425.495 141.282C424.598 143.012 423.698 144.365 422.795 145.598C421.895 146.831 420.992 147.93 420.089 148.898C418.28 150.825 416.472 152.342 414.658 153.492C411.035 155.822 407.402 156.823 403.763 156.843C400.121 156.844 396.477 155.881 392.822 153.594C390.994 152.466 389.164 150.978 387.331 149.081C386.414 148.126 385.497 147.047 384.578 145.83C383.662 144.614 382.742 143.282 381.82 141.575" fill="#001E57"/>
<path fill-rule="evenodd" clip-rule="evenodd" d="M287.934 176.165C288.891 173.968 289.991 172.145 291.116 170.388C292.251 168.66 293.436 167.064 294.661 165.577C297.118 162.613 299.718 160.032 302.445 157.788C307.887 153.272 313.797 149.996 320.043 147.621C326.298 145.264 332.897 143.825 339.967 143.631C343.494 143.52 347.152 143.751 350.955 144.367C352.856 144.681 354.801 145.106 356.796 145.663C358.801 146.247 360.834 146.902 363.007 147.932C362.052 150.139 360.955 151.97 359.83 153.731C358.697 155.465 357.516 157.065 356.29 158.556C353.836 161.525 351.236 164.109 348.509 166.35C343.067 170.861 337.154 174.128 330.894 176.476C324.632 178.807 318.027 180.236 310.957 180.426C307.428 180.534 303.772 180.306 299.972 179.695C298.07 179.384 296.125 178.964 294.133 178.413C292.131 177.833 290.101 177.185 287.934 176.165" fill="#72ACFF"/>
<path fill-rule="evenodd" clip-rule="evenodd" d="M279.506 181.192C279.148 181.192 278.847 180.913 278.825 180.551C278.801 180.174 279.088 179.849 279.465 179.825C282.253 179.65 285.126 179.368 287.996 178.988C293.98 178.183 300.016 176.993 305.931 175.45C329.083 169.412 351.22 158.868 369.945 144.959C373.753 142.154 377.472 139.131 381.004 135.969C381.269 135.733 381.669 135.737 381.926 135.978C382.153 136.189 382.38 136.395 382.604 136.593C384.495 138.242 386.418 139.566 388.317 140.526C394.408 143.646 401.477 143.443 407.231 139.983C412.027 137.1 416.208 132.072 418.742 126.152C417.672 124.551 416.662 123.37 415.891 122.509C414.9 121.402 413.902 120.406 412.928 119.549C411.125 117.97 409.286 116.689 407.469 115.744C407.198 115.602 407.053 115.296 407.116 114.996C407.54 113.001 407.721 110.779 407.655 108.392C407.614 107.098 407.48 105.695 407.259 104.224C407.086 103.082 406.818 101.553 406.265 99.7067C404.419 99.165 402.886 98.9056 401.743 98.739C400.274 98.5248 398.87 98.3995 397.573 98.3664C390.785 98.2132 384.889 100.303 380.971 104.253C378.355 106.915 376.667 110.105 375.808 114.002C375.362 115.969 375.157 118.168 375.195 120.541C375.201 120.882 374.955 121.175 374.618 121.228C369.729 121.997 364.837 123.017 360.073 124.262C333.291 131.142 308.423 143.878 288.155 161.093C286.076 162.859 284.024 164.695 282.062 166.55C279.92 168.578 277.859 170.67 275.939 172.767C275.682 173.046 275.252 173.065 274.97 172.81C274.694 172.554 274.675 172.122 274.929 171.843C276.872 169.722 278.957 167.607 281.121 165.556C283.102 163.684 285.17 161.832 287.269 160.05C307.693 142.702 332.752 129.868 359.731 122.937C364.347 121.732 369.086 120.734 373.822 119.969C373.825 117.712 374.041 115.607 374.473 113.704C375.387 109.552 377.195 106.145 379.997 103.292C384.183 99.0704 390.435 96.8372 397.606 96.9989C398.96 97.0334 400.419 97.1634 401.94 97.3852C403.204 97.5691 404.919 97.8621 407.015 98.5026C407.231 98.5688 407.401 98.7374 407.466 98.953C408.118 101.043 408.421 102.759 408.613 104.02C408.843 105.544 408.979 107.001 409.021 108.351C409.086 110.65 408.93 112.808 408.555 114.774C410.32 115.741 412.09 116.999 413.83 118.52C414.845 119.414 415.882 120.449 416.911 121.596C417.762 122.547 418.892 123.874 420.088 125.707C420.211 125.896 420.233 126.134 420.145 126.343C417.516 132.672 413.067 138.071 407.937 141.155C401.773 144.861 394.208 145.081 387.696 141.745C385.699 140.736 383.682 139.348 381.704 137.623C381.619 137.549 381.537 137.475 381.455 137.4C378.03 140.442 374.432 143.352 370.76 146.058C351.896 160.07 329.597 170.692 306.276 176.774C300.306 178.331 294.218 179.532 288.177 180.344C285.274 180.729 282.371 181.014 279.55 181.191C279.537 181.191 279.523 181.192 279.506 181.192" fill="#001E57"/>
<path fill-rule="evenodd" clip-rule="evenodd" d="M90.0586 219.252C92.176 226.83 95.9555 233.867 101.153 239.84C102.144 240.981 103.622 241.454 105.011 241.219C105.742 241.095 106.451 240.773 107.052 240.253C107.252 240.075 107.434 239.886 107.594 239.684C108.815 238.138 108.802 235.892 107.462 234.351C103.425 229.708 100.402 224.308 98.5558 218.487C95.9905 218.655 93.2034 218.92 90.0586 219.252" fill="#CFE4FF"/>
<path fill-rule="evenodd" clip-rule="evenodd" d="M81.8015 220.038C78.7936 219.196 76.2751 217.014 75.0641 214.002C74.8116 213.373 74.6206 212.712 74.497 212.039C74.4901 212.007 74.4825 211.963 74.4751 211.92L74.4625 211.85C73.5427 206.593 76.7263 201.567 81.8658 200.15C82.1898 200.059 82.5345 199.982 82.8891 199.921L84.7211 199.611C87.2082 199.031 89.3184 198.514 91.1726 198.032C93.797 197.35 96.0884 196.689 98.1779 196.011C108.014 192.814 115.267 188.533 125.898 179.649C126.132 179.453 126.48 179.485 126.675 179.718C126.87 179.952 126.839 180.3 126.605 180.495C115.854 189.48 108.504 193.815 98.5185 197.06C96.408 197.745 94.096 198.412 91.4503 199.1C89.583 199.585 87.4585 200.105 84.9553 200.69C84.9441 200.692 84.9329 200.695 84.9217 200.696L83.0746 201.009C82.7586 201.063 82.4505 201.132 82.1608 201.213C77.5703 202.478 74.7279 206.965 75.5476 211.651L75.5621 211.732C75.5676 211.763 75.5728 211.794 75.5793 211.826C75.6926 212.44 75.8628 213.03 76.0877 213.59C77.5684 217.273 81.2426 219.566 85.2308 219.295C85.5411 219.275 85.853 219.238 86.1605 219.185L88.009 218.871C88.0968 218.856 88.1816 218.859 88.2632 218.887L88.4413 218.868C88.9707 218.811 89.4911 218.756 90.0016 218.703C93.5997 218.323 96.2271 218.087 98.5191 217.936C110.202 217.163 117.328 218.428 131.669 223.821C131.954 223.928 132.098 224.247 131.991 224.532C131.883 224.817 131.569 224.963 131.28 224.854C117.114 219.526 110.088 218.276 98.5916 219.037C96.3144 219.187 93.7004 219.422 90.116 219.8C89.6054 219.853 89.0867 219.908 88.5586 219.965L88.1685 220.007C88.1039 220.014 88.041 220.009 87.9811 219.995L86.3463 220.273C86.0013 220.332 85.65 220.373 85.3034 220.395C84.0968 220.477 82.9154 220.349 81.8015 220.038" fill="#240448"/>
<path fill-rule="evenodd" clip-rule="evenodd" d="M130.585 180.053C130.166 180.042 129.75 180.071 129.338 180.141C126.281 180.66 123.744 183.386 122.194 187.817C120.579 192.434 120.251 198.283 121.271 204.288C123.344 216.496 130.336 225.53 136.858 224.418C143.379 223.31 146.998 212.478 144.925 200.271C143.905 194.266 141.664 188.853 138.616 185.028C136.084 181.852 133.276 180.125 130.585 180.053ZM135.554 226.34C132.315 226.255 129.027 224.289 126.145 220.674C122.906 216.611 120.533 210.901 119.462 204.595C118.391 198.29 118.746 192.116 120.462 187.212C122.243 182.122 125.286 178.968 129.031 178.332C132.773 177.697 136.689 179.668 140.05 183.885C143.289 187.948 145.663 193.658 146.733 199.964C147.804 206.269 147.449 212.442 145.733 217.347C143.953 222.437 140.91 225.591 137.165 226.228C136.631 226.318 136.093 226.354 135.554 226.34V226.34Z" fill="#CFE4FF"/>
<path fill-rule="evenodd" clip-rule="evenodd" d="M64.5392 231.276C65.6317 233.861 68.6134 235.071 71.1986 233.979C73.7839 232.887 74.994 229.905 73.9012 227.32C72.8088 224.734 65.0533 220.903 65.0533 220.903C62.8872 222.688 63.4467 228.69 64.5392 231.276" fill="#001E57"/>
<path fill-rule="evenodd" clip-rule="evenodd" d="M33.4352 241.861C34.1966 241.861 34.9698 241.692 35.6998 241.336L55.4217 231.711C57.9892 230.458 59.0549 227.363 57.802 224.795C56.5492 222.227 53.4515 221.162 50.8849 222.415L31.163 232.039C28.5958 233.292 27.5301 236.389 28.7829 238.956C29.6795 240.792 31.5203 241.861 33.4352 241.861" fill="#FC346C"/>
<path fill-rule="evenodd" clip-rule="evenodd" d="M55.4215 231.714L54.3744 232.223L35.6993 241.336C34.969 241.692 34.1969 241.862 33.4358 241.862C31.5195 241.862 29.679 240.792 28.7835 238.956C27.5299 236.39 28.5953 233.292 31.163 232.039L50.8849 222.414C53.4526 221.162 56.5484 222.227 57.8023 224.795C59.0546 227.363 57.9892 230.458 55.4215 231.714" fill="#FFBFAA"/>
<path fill-rule="evenodd" clip-rule="evenodd" d="M54.3737 232.223L46.436 236.097C44.1198 229.533 49.7748 225.056 49.7748 225.056L54.3737 232.223" fill="#001E57"/>
<path fill-rule="evenodd" clip-rule="evenodd" d="M32.9357 329.876C33.7625 329.876 34.6487 329.775 35.5836 329.569C35.9524 329.49 36.1866 329.126 36.1059 328.757C36.0255 328.387 35.663 328.152 35.2917 328.234C34.0348 328.508 32.8919 328.579 31.896 328.439C30.9398 328.308 30.1442 327.367 30.122 326.344C30.1094 325.761 30.4339 325.181 30.9486 324.866C31.2005 324.713 31.7108 324.505 32.2947 324.822C33.6345 325.553 34.7543 326.891 35.5806 327.974C35.8099 328.275 36.2392 328.335 36.5393 328.106C36.84 327.876 36.8977 327.446 36.6693 327.148C35.7604 325.952 34.5166 324.475 32.9494 323.621C32.0832 323.148 31.0947 323.175 30.2375 323.698C29.3138 324.262 28.7316 325.309 28.7546 326.374C28.791 328.067 30.0886 329.572 31.7092 329.796C32.1012 329.848 32.5105 329.876 32.9357 329.876" fill="#240448"/>
<path fill-rule="evenodd" clip-rule="evenodd" d="M71.3771 323.033L79.8693 323.036L75.9057 274.776L58.9688 268.784L71.3771 323.033" fill="#FC346C"/>
<path fill-rule="evenodd" clip-rule="evenodd" d="M72.5586 253.142H45.8281L50.3245 236.25L49.2667 232.701C48.3176 229.514 48.7338 226.053 50.5127 223.244C50.574 223.147 50.6364 223.052 50.6996 222.958C52.6993 219.981 55.7765 218.095 59.1935 218.095C61.9867 218.095 64.5514 219.354 66.486 221.438C66.8827 221.866 67.2548 222.329 67.5946 222.823C68.9148 224.735 69.7856 227.112 70.0048 229.735L72.5586 253.142" fill="#001E57"/>
<path fill-rule="evenodd" clip-rule="evenodd" d="M41.2969 257.265C41.6468 252.696 42.9702 248.36 47.0567 244.691C53.5624 247.67 59.6114 246.299 72.3584 244.138L74.4118 259.011L41.2969 257.265" fill="#CFE4FF"/>
<path fill-rule="evenodd" clip-rule="evenodd" d="M58.3115 246.649C62.7824 246.649 67.8766 246.168 73.5598 245.202C74.1483 245.104 74.5445 244.545 74.4446 243.957C74.345 243.369 73.7833 242.972 73.1984 243.071C62.8295 244.83 54.535 244.956 48.5451 243.44C47.9651 243.295 47.3785 243.645 47.2324 244.225C47.0863 244.803 47.4367 245.391 48.0154 245.536C50.9511 246.277 54.3919 246.649 58.3115 246.649" fill="#006BFF"/>
<path fill-rule="evenodd" clip-rule="evenodd" d="M48.4752 319.329L35.4727 319.331L42.3157 265.588C41.8344 263.328 40.3151 257.788 40.5816 256.239L61.7733 249.637L48.4752 319.329" fill="#CFE4FF"/>
<path fill-rule="evenodd" clip-rule="evenodd" d="M67.6536 320.401H82.1569L74.0717 256.439L52.9648 249.637L54.277 259.276L53.9162 256.625L67.6536 320.401" fill="#CFE4FF"/>
<path fill-rule="evenodd" clip-rule="evenodd" d="M47.0455 257.377C45.6748 257.632 44.1902 257.087 43.162 255.793L29.3269 241.199C27.2845 238.909 27.4864 235.394 29.7781 233.353C32.0697 231.309 35.5836 231.511 37.6263 233.804L49.2023 249.719C50.7662 251.687 50.6819 254.641 49.0138 256.319C48.4425 256.893 47.7593 257.243 47.0455 257.377" fill="#FFBFAA"/>
<path fill-rule="evenodd" clip-rule="evenodd" d="M40.9812 263.818C41.4896 263.818 41.9968 263.621 42.3793 263.23L48.9307 256.499C49.682 255.727 49.6653 254.491 48.8932 253.741C48.1217 252.989 46.8863 253.005 46.1353 253.777L39.584 260.507C38.8327 261.282 38.8493 262.515 39.6214 263.265C40.0001 263.634 40.4912 263.818 40.9812 263.818" fill="#FFBFAA"/>
<path fill-rule="evenodd" clip-rule="evenodd" d="M40.4762 259.966C41.1498 259.966 41.8053 259.618 42.1665 258.992L45.4929 253.235C46.0319 252.302 45.7126 251.109 44.7802 250.57C43.8475 250.031 42.6543 250.351 42.1159 251.284L38.7892 257.041C38.2504 257.974 38.5697 259.167 39.5022 259.706C39.8094 259.883 40.1451 259.966 40.4762 259.966" fill="#FFBFAA"/>
<path fill-rule="evenodd" clip-rule="evenodd" d="M84.4012 329.876C84.8258 329.876 85.2351 329.851 85.6274 329.796C87.2477 329.572 88.5454 328.067 88.582 326.374C88.605 325.309 88.0228 324.262 87.0989 323.698C86.2419 323.178 85.2537 323.148 84.3872 323.621C82.8206 324.475 81.5762 325.952 80.6673 327.148C80.4383 327.446 80.4963 327.876 80.797 328.106C81.0969 328.333 81.527 328.275 81.7554 327.974C82.582 326.891 83.7027 325.55 85.0417 324.822C85.625 324.505 86.1352 324.713 86.3875 324.866C86.9024 325.181 87.2272 325.761 87.2146 326.344C87.1924 327.367 86.3965 328.308 85.4403 328.439C84.4447 328.579 83.3018 328.508 82.0444 328.234C81.6736 328.152 81.3108 328.387 81.2304 328.757C81.1497 329.126 81.3836 329.49 81.7527 329.569C82.6876 329.775 83.5741 329.876 84.4012 329.876" fill="#240448"/>
<path fill-rule="evenodd" clip-rule="evenodd" d="M91.6413 335.296L91.6134 336.855H76.5328L75.0767 333.911L74.6997 333.148C74.4078 332.557 73.5506 332.606 73.3279 333.227L72.0225 336.855H68.3555L69.9396 320.401L80.7279 320.434L84.0475 327.58L90.5975 333.022C90.8971 333.271 91.1395 333.575 91.3138 333.911C91.5346 334.333 91.649 334.809 91.6413 335.296" fill="#001E57"/>
<path fill-rule="evenodd" clip-rule="evenodd" d="M25.3363 335.296L25.3642 336.855H40.4448L42.2782 333.148C42.5698 332.557 43.427 332.606 43.6497 333.227L44.9551 336.855H48.6221L47.038 320.401L36.2497 320.434L32.9301 327.58L26.3801 333.022C26.0808 333.271 25.8384 333.575 25.6638 333.911C25.443 334.333 25.3286 334.809 25.3363 335.296" fill="#001E57"/>
<path fill-rule="evenodd" clip-rule="evenodd" d="M35.746 322.278H47.6353C48.6641 322.278 49.4983 321.446 49.4983 320.415C49.4983 319.386 48.6641 318.554 47.6353 318.554H35.746C34.717 318.554 33.8828 319.386 33.8828 320.415C33.8828 321.446 34.717 322.278 35.746 322.278" fill="#006BFF"/>
<path fill-rule="evenodd" clip-rule="evenodd" d="M81.6725 322.264C82.7012 322.264 83.5354 321.43 83.5357 320.401C83.5357 319.372 82.7015 318.538 81.673 318.538H68.883C67.854 318.538 67.0198 319.372 67.0195 320.401C67.0195 321.43 67.8537 322.262 68.8825 322.264H81.6725" fill="#006BFF"/>
<path fill-rule="evenodd" clip-rule="evenodd" d="M60.188 260.819C61.2895 260.819 62.3316 260.417 63.1563 259.667C64.1374 258.778 64.7117 257.462 64.733 256.056L64.7453 255.252C64.7508 254.874 64.4496 254.565 64.0717 254.559C64.0682 254.559 64.0643 254.559 64.0611 254.559C63.6881 254.559 63.3831 254.858 63.3773 255.232L63.365 256.037C63.3494 257.079 62.9489 258.009 62.237 258.655C61.6028 259.232 60.7825 259.511 59.9248 259.44C58.0085 259.282 56.4744 257.462 56.5053 255.38L56.5606 251.7L57.6104 251.785C57.9882 251.818 58.3171 251.536 58.348 251.161C58.3789 250.784 58.099 250.453 57.7223 250.422L55.9436 250.277C55.7565 250.261 55.5682 250.324 55.4282 250.453C55.2878 250.578 55.2065 250.759 55.2038 250.948L55.1373 255.361C55.096 258.146 57.1934 260.587 59.8131 260.803C59.9387 260.814 60.0638 260.819 60.188 260.819" fill="#006BFF"/>
<path fill-rule="evenodd" clip-rule="evenodd" d="M62.4629 208.141L62.4336 214.91L62.4309 215.404L62.4306 215.411L62.4259 216.488L62.4144 218.84C62.4054 220.84 60.7783 222.454 58.7791 222.444C56.7799 222.435 55.1679 220.806 55.1758 218.809L55.2188 209.394L55.2256 208.108C55.2256 207.791 55.2694 207.483 55.3471 207.192C55.627 206.134 56.3747 205.268 57.3537 204.824C57.6784 204.677 58.0284 204.578 58.395 204.533C58.5482 204.514 58.7047 204.504 58.8615 204.505C60.859 204.515 62.4722 206.14 62.4629 208.141" fill="#FFBFAA"/>
<path fill-rule="evenodd" clip-rule="evenodd" d="M62.4665 208.141L62.4372 214.91L62.4345 215.404L62.4342 215.411L62.4296 216.488C59.8421 216.218 57.4823 214.57 56.4262 211.993L56.099 211.194C55.925 210.768 55.8027 210.335 55.7321 209.901C55.4281 208.034 56.0514 206.144 57.3573 204.824C57.682 204.677 58.032 204.578 58.3986 204.533C58.5518 204.514 58.7083 204.504 58.8651 204.505C60.8626 204.515 62.4758 206.14 62.4665 208.141" fill="#240448"/>
<path fill-rule="evenodd" clip-rule="evenodd" d="M64.5562 214.292V214.292C66.838 213.356 67.9294 210.748 66.9937 208.466L65.5891 205.04C64.3559 202.033 60.9187 200.595 57.9116 201.828C54.9044 203.061 53.4664 206.498 54.6992 209.505L55.0273 210.305C56.5575 214.037 60.8238 215.822 64.5562 214.292" fill="#FFBFAA"/>
<path fill-rule="evenodd" clip-rule="evenodd" d="M65.3581 205.12C66.2175 206.546 67.0911 207.87 68.0506 208.564C68.31 208.752 68.4151 209.103 68.2512 209.378C68.1486 209.55 67.9647 209.675 67.7324 209.681L65.168 209.746L65.3581 205.12" fill="#FFBFAA"/>
<path fill-rule="evenodd" clip-rule="evenodd" d="M58.9107 210.174C58.9107 210.174 56.9881 206.269 59.6355 206.137C65.9116 205.824 66.3264 203.004 66.328 203.003C66.3548 202.984 65.5737 202.065 65.5283 202.016C64.8615 201.291 64.0971 200.645 63.244 200.15C60.0664 198.305 55.8675 199.416 53.4836 202.05C50.8393 204.972 51.4163 207.843 52.6108 209.806C53.6122 211.451 55.7654 211.968 57.4388 211.014L58.9107 210.174" fill="#CFE4FF"/>
<path fill-rule="evenodd" clip-rule="evenodd" d="M53.6974 199.696C53.9023 199 54.2016 198.328 54.3236 197.613C54.5414 196.336 54.1474 194.969 53.2837 194.004C52.4199 193.039 51.1045 192.497 49.8117 192.573C47.8899 192.686 46.2954 194.033 44.8571 195.312C43.7178 193.847 42.1558 192.674 40.3643 192.189C37.6819 191.463 33.2701 192.633 33.5952 196.133C33.7057 197.322 34.387 198.405 35.2745 199.204C35.5511 199.453 35.8614 199.697 35.9864 200.047C36.1574 200.527 35.9216 201.068 35.57 201.436C35.2182 201.805 34.7621 202.053 34.3596 202.364C33.2209 203.246 32.5333 204.682 32.5593 206.122C32.5856 207.562 33.3251 208.972 34.495 209.812C35.1128 210.255 35.8507 210.551 36.3172 211.17C37.7112 213.022 37.126 215.683 38.8034 217.467C39.9419 218.678 41.781 219.059 43.407 218.716C45.0327 218.372 46.4637 217.393 47.6535 216.233C48.9427 214.976 50.0423 213.367 50.1023 211.568C50.154 210.012 49.36 208.454 48.0708 207.581C47.3695 207.107 46.4374 206.682 46.3537 205.84C46.2803 205.103 46.9898 204.472 47.7228 204.368C48.4557 204.262 49.1846 204.542 49.8626 204.84C51.7972 205.688 53.6656 206.736 55.7179 207.236C55.5526 207.293 55.3877 207.35 55.2224 207.407C55.3904 207.968 56.2468 208.049 56.6678 207.642C57.0889 207.235 57.1398 206.572 57.0265 205.997C56.8766 205.237 56.4834 204.528 55.9185 203.998C55.1888 203.314 54.1614 202.893 53.7195 201.996C53.3857 201.318 53.4681 200.508 53.6727 199.781C53.681 199.753 53.6892 199.725 53.6974 199.696" fill="#CFE4FF"/>
<path fill-rule="evenodd" clip-rule="evenodd" d="M55.0169 209.09C55.2632 210.604 56.6897 211.631 58.2033 211.385C59.7166 211.138 60.7436 209.712 60.4974 208.198C60.2512 206.685 58.8246 205.658 57.3113 205.904C55.7978 206.15 54.7707 207.577 55.0169 209.09" fill="#FFBFAA"/>
<path fill-rule="evenodd" clip-rule="evenodd" d="M51.2891 206.358C51.5151 206.358 51.7364 206.246 51.8666 206.041L54.392 202.073C54.5947 201.754 54.5006 201.331 54.1818 201.128C53.8636 200.926 53.4404 201.019 53.2376 201.338L50.7126 205.307C50.5096 205.625 50.6037 206.048 50.9224 206.251C51.0363 206.323 51.1632 206.358 51.2891 206.358" fill="white"/>
<path fill-rule="evenodd" clip-rule="evenodd" d="M58.6332 280.992C58.6715 280.992 58.7107 280.989 58.7498 280.981C59.1222 280.918 59.3722 280.562 59.3082 280.19L56.3104 262.764C56.2844 262.611 56.2078 262.474 56.0934 262.37L53.0824 259.667C52.8012 259.416 52.3683 259.44 52.1163 259.719C51.8641 260.001 51.8873 260.433 52.1686 260.688L55.0026 263.23L57.9599 280.423C58.0171 280.756 58.3063 280.992 58.6332 280.992" fill="white"/>
<path fill-rule="evenodd" clip-rule="evenodd" d="M51.4127 248.316C51.483 248.316 51.5547 248.305 51.625 248.28C51.9842 248.163 52.1801 247.777 52.063 247.418C51.6674 246.206 51.8471 245.238 52.6285 244.373C52.8813 244.091 52.8589 243.659 52.5787 243.407C52.2978 243.153 51.8652 243.175 51.6127 243.457C50.5007 244.688 50.2146 246.165 50.7623 247.842C50.8567 248.132 51.1248 248.316 51.4127 248.316" fill="#CFE4FF"/>
<path fill-rule="evenodd" clip-rule="evenodd" d="M64.3867 248.453C64.6092 248.453 64.827 248.343 64.9586 248.143C65.8716 246.759 65.9312 245.257 65.1356 243.681C64.9654 243.342 64.5545 243.208 64.2171 243.377C63.8798 243.547 63.7443 243.96 63.9145 244.297C64.4888 245.435 64.4573 246.417 63.816 247.394C63.6081 247.708 63.6956 248.132 64.0111 248.34C64.1271 248.417 64.2576 248.453 64.3867 248.453" fill="#CFE4FF"/>
<path fill-rule="evenodd" clip-rule="evenodd" d="M53.9297 222.445H63.5563V217.166H53.9297V222.445Z" fill="#001E57"/>
<path fill-rule="evenodd" clip-rule="evenodd" d="M95.5745 239.681C95.6987 239.681 95.8243 239.648 95.9373 239.577C96.8952 238.978 97.4569 237.905 97.5187 236.559C97.5764 235.306 97.1879 233.943 96.4251 232.729C94.7731 230.094 91.972 228.975 90.0472 230.184C89.7271 230.384 89.6306 230.805 89.8311 231.125C90.0317 231.445 90.4538 231.544 90.7739 231.341C92.0057 230.57 94.0634 231.536 95.2659 233.454C95.8823 234.439 96.1972 235.517 96.1518 236.496C96.1113 237.38 95.777 238.064 95.2106 238.419C94.8905 238.619 94.7939 239.041 94.9945 239.361C95.1244 239.569 95.3469 239.681 95.5745 239.681" fill="#240448"/>
<path fill-rule="evenodd" clip-rule="evenodd" d="M74.4145 250.105C75.1858 250.105 75.9683 249.933 76.7059 249.566C79.266 248.299 80.3136 245.197 79.046 242.636L69.3483 223.052C68.0804 220.492 64.977 219.445 62.4174 220.713C59.8574 221.98 58.8097 225.083 60.0773 227.643L69.7751 247.227C70.6777 249.049 72.51 250.105 74.4145 250.105" fill="#FFBFAA"/>
<path fill-rule="evenodd" clip-rule="evenodd" d="M100.821 233.002C100.821 234.398 100.014 235.758 98.554 236.532L78.051 250.184C75.4247 251.774 72.0069 250.934 70.4173 248.308C68.8277 245.681 69.6682 242.264 72.2945 240.674L93.6873 229.484C95.9078 228.305 98.7976 228.929 100.141 230.874C100.602 231.541 100.821 232.277 100.821 233.002" fill="#FFBFAA"/>
<path fill-rule="evenodd" clip-rule="evenodd" d="M93.4547 234.138C93.9291 234.138 94.4044 233.965 94.7795 233.618L102.669 226.31C103.459 225.58 103.507 224.345 102.774 223.554C102.042 222.764 100.808 222.717 100.018 223.449L92.1291 230.756C91.3387 231.489 91.2914 232.723 92.0235 233.514C92.4076 233.927 92.9305 234.138 93.4547 234.138" fill="#FFBFAA"/>
<path fill-rule="evenodd" clip-rule="evenodd" d="M95.5579 234.4C95.9338 234.4 96.3141 234.294 96.6487 234.067L101.916 230.502C102.808 229.9 103.042 228.688 102.439 227.793C101.835 226.904 100.623 226.669 99.7305 227.273L94.4632 230.835C93.571 231.44 93.337 232.652 93.9406 233.544C94.3176 234.102 94.9321 234.4 95.5579 234.4" fill="#FFBFAA"/>
<path fill-rule="evenodd" clip-rule="evenodd" d="M98.1942 236.444C98.6062 236.444 99.0215 236.316 99.3745 236.045L103.017 233.27C103.874 232.617 104.04 231.394 103.387 230.537C102.734 229.678 101.511 229.514 100.654 230.168L97.0108 232.942C96.1539 233.596 95.9884 234.819 96.6412 235.675C97.0251 236.179 97.6062 236.444 98.1942 236.444" fill="#FFBFAA"/>
<path fill-rule="evenodd" clip-rule="evenodd" d="M92.6756 233.664C93.6723 233.664 94.523 232.904 94.6152 231.892L94.9366 228.373C95.0349 227.301 94.2447 226.351 93.1719 226.253C92.0948 226.154 91.1503 226.945 91.0523 228.017L90.7309 231.536C90.6329 232.608 91.4231 233.558 92.4956 233.656C92.556 233.662 92.616 233.664 92.6756 233.664" fill="#FFBFAA"/>
<path fill-rule="evenodd" clip-rule="evenodd" d="M94.2102 240.061C94.8239 240.061 95.4133 239.905 95.9378 239.577C96.2579 239.377 96.3547 238.956 96.1539 238.636C95.9531 238.316 95.5315 238.217 95.2111 238.42C93.9796 239.191 91.9216 238.223 90.7191 236.305C90.1027 235.322 89.788 234.242 89.8329 233.265C89.8734 232.381 90.208 231.697 90.7744 231.342C91.0945 231.142 91.1913 230.721 90.9905 230.4C90.7897 230.08 90.3678 229.982 90.0477 230.184C89.0898 230.783 88.5281 231.856 88.4666 233.202C88.4088 234.455 88.7973 235.815 89.5601 237.032C90.7615 238.948 92.5719 240.061 94.2102 240.061" fill="#240448"/>
<path fill-rule="evenodd" clip-rule="evenodd" d="M90.7849 235.47C90.5052 236.34 89.5731 236.819 88.7033 236.54C87.8333 236.261 87.3547 235.328 87.6346 234.458C87.9143 233.588 88.8464 233.109 89.7162 233.391C90.5862 233.67 91.0648 234.6 90.7849 235.47" fill="white"/>
<path fill-rule="evenodd" clip-rule="evenodd" d="M92.3082 237.7C92.0286 238.57 91.0967 239.046 90.2266 238.767C89.3566 238.488 88.8783 237.555 89.158 236.685C89.4376 235.815 90.3697 235.336 91.2398 235.618C92.1096 235.897 92.5881 236.83 92.3082 237.7" fill="white"/>
<path fill-rule="evenodd" clip-rule="evenodd" d="M74.2317 240.056C74.3412 240.056 74.4522 240.028 74.5554 239.974L77.0944 238.606C77.4271 238.425 77.5513 238.012 77.3724 237.678C77.1929 237.347 76.7781 237.221 76.4457 237.402L73.9067 238.77C73.574 238.948 73.4498 239.363 73.6287 239.694C73.7526 239.924 73.9882 240.056 74.2317 240.056" fill="#240448"/>
<path fill-rule="evenodd" clip-rule="evenodd" d="M534.271 338.253H366.7C366.322 338.253 366.016 337.947 366.016 337.569C366.016 337.192 366.322 336.885 366.7 336.885H534.271C534.649 336.885 534.955 337.192 534.955 337.569C534.955 337.947 534.649 338.253 534.271 338.253" fill="#240448"/>
<path fill-rule="evenodd" clip-rule="evenodd" d="M180.468 62.6768C168.556 62.6768 158.865 72.3674 158.865 84.2789C158.865 96.1903 168.556 105.881 180.468 105.881C192.378 105.881 202.069 96.1903 202.069 84.2789C202.069 72.3674 192.378 62.6768 180.468 62.6768ZM180.468 107.249C167.802 107.249 157.497 96.9446 157.497 84.2789C157.497 71.6131 167.802 61.3088 180.468 61.3088C193.133 61.3088 203.437 71.6131 203.437 84.2789C203.437 96.9446 193.133 107.249 180.468 107.249ZM168.121 135.107H192.747V120.278C192.747 119.988 192.931 119.729 193.204 119.633C194.364 119.221 195.519 118.748 196.635 118.226C196.895 118.103 197.204 118.158 197.407 118.36L207.776 128.676L224.986 110.701L215.065 100.829C214.857 100.625 214.805 100.312 214.928 100.05C215.421 99.021 215.869 97.958 216.263 96.8907C216.362 96.6221 216.619 96.4439 216.906 96.4439H230.677V71.313H217.062C216.772 71.313 216.515 71.1307 216.419 70.8582C215.971 69.598 215.454 68.3573 214.884 67.1704C214.759 66.9091 214.811 66.5969 215.016 66.3917L224.608 56.7662L207.166 39.3814L197.555 49.0244C197.352 49.2293 197.04 49.2835 196.778 49.1596C195.642 48.6208 194.46 48.1325 193.267 47.7078C192.996 47.6107 192.813 47.3527 192.813 47.0635V33.4503H168.186V47.0405C168.186 47.3303 168.004 47.5888 167.731 47.6854C166.261 48.2055 164.807 48.8239 163.411 49.5229C163.152 49.6529 162.839 49.6053 162.631 49.4047L152.812 39.9724L135.751 57.7323L145.551 67.146C145.76 67.3469 145.82 67.6579 145.7 67.9217C145.264 68.8837 144.858 69.8932 144.493 70.9223C144.397 71.1953 144.139 71.3781 143.849 71.3781H130.259V96.0051H143.872C144.161 96.0051 144.419 96.187 144.516 96.4598C145.074 98.0273 145.736 99.5622 146.484 101.022C146.616 101.28 146.571 101.594 146.371 101.805L136.711 111.976L154.413 129.447L164.505 118.821C164.702 118.613 165.009 118.55 165.273 118.665C166.058 119.006 166.863 119.324 167.667 119.61C167.939 119.707 168.121 119.965 168.121 120.255V135.107ZM193.431 136.475H167.437C167.059 136.475 166.753 136.169 166.753 135.791V120.734C166.222 120.537 165.692 120.328 165.169 120.108L154.924 130.895C154.798 131.028 154.623 131.104 154.439 131.107C154.269 131.112 154.079 131.04 153.948 130.91L135.272 112.478C135.007 112.216 135 111.79 135.257 111.52L145.047 101.212C144.433 99.9723 143.878 98.685 143.393 97.3731H129.575C129.197 97.3731 128.891 97.0669 128.891 96.6891V70.6941C128.891 70.3162 129.197 70.0101 129.575 70.0101H143.368C143.645 69.2577 143.942 68.5176 144.257 67.7999L134.31 58.2447C134.179 58.1191 134.104 57.9465 134.1 57.7654C134.096 57.584 134.165 57.4086 134.291 57.2778L152.299 38.5316C152.561 38.2588 152.994 38.2503 153.266 38.5121L163.233 48.0857C164.4 47.5196 165.603 47.008 166.818 46.5604V32.7663C166.818 32.3884 167.125 32.0823 167.502 32.0823H193.497C193.875 32.0823 194.181 32.3884 194.181 32.7663V46.5842C195.109 46.9278 196.028 47.3081 196.925 47.7188L206.679 37.9313C206.947 37.6634 207.38 37.6632 207.648 37.9297L226.058 56.2803C226.187 56.4081 226.261 56.5821 226.261 56.7635C226.261 56.9449 226.19 57.1191 226.061 57.2475L216.324 67.0169C216.767 67.9682 217.175 68.9496 217.541 69.945H231.361C231.738 69.945 232.045 70.2511 232.045 70.629V97.1279C232.045 97.5058 231.738 97.8119 231.361 97.8119H217.377C217.071 98.616 216.731 99.4158 216.37 100.199L226.428 110.204C226.69 110.467 226.696 110.893 226.439 111.162L208.283 130.126C208.154 130.259 207.979 130.335 207.795 130.337C207.609 130.339 207.437 130.267 207.306 130.138L196.78 119.665C195.908 120.061 195.016 120.427 194.115 120.758V135.791C194.115 136.169 193.809 136.475 193.431 136.475V136.475Z" fill="#CFE4FF"/>
<path fill-rule="evenodd" clip-rule="evenodd" d="M385.954 336.886H483.629V305.64H385.954V336.886ZM484.313 338.254H385.27C384.892 338.254 384.586 337.947 384.586 337.57V304.956C384.586 304.579 384.892 304.272 385.27 304.272H484.313C484.691 304.272 484.997 304.579 484.997 304.956V337.57C484.997 337.947 484.691 338.254 484.313 338.254V338.254Z" fill="#240448"/>
<path fill-rule="evenodd" clip-rule="evenodd" d="M229.176 316.21C228.936 316.21 228.7 316.081 228.577 315.857C228.394 315.526 228.517 315.107 228.848 314.926L237.836 309.991C238.167 309.807 238.583 309.93 238.766 310.261C238.947 310.593 238.826 311.008 238.495 311.189L229.505 316.125C229.401 316.182 229.289 316.21 229.176 316.21" fill="#240448"/>
<path fill-rule="evenodd" clip-rule="evenodd" d="M242.879 337.81C242.553 337.81 242.266 337.578 242.206 337.247L236.37 304.527C236.304 304.155 236.553 303.799 236.925 303.733C237.295 303.665 237.65 303.914 237.719 304.286L243.552 337.006C243.618 337.378 243.371 337.734 242.999 337.799C242.958 337.808 242.917 337.81 242.879 337.81" fill="#240448"/>
<path fill-rule="evenodd" clip-rule="evenodd" d="M224.754 337.747C224.71 337.747 224.666 337.742 224.62 337.734C224.251 337.66 224.01 337.299 224.084 336.929L230.587 304.335C230.661 303.966 231.022 303.725 231.391 303.799C231.761 303.873 232.002 304.231 231.928 304.603L225.424 337.197C225.361 337.523 225.074 337.747 224.754 337.747" fill="#240448"/>
<path fill-rule="evenodd" clip-rule="evenodd" d="M267.466 337.81C267.14 337.81 266.85 337.578 266.793 337.247L259.452 296.086C259.386 295.714 259.635 295.361 260.007 295.293C260.377 295.227 260.732 295.476 260.801 295.848L268.139 337.006C268.204 337.378 267.958 337.734 267.586 337.799C267.545 337.807 267.504 337.81 267.466 337.81" fill="#240448"/>
<path fill-rule="evenodd" clip-rule="evenodd" d="M249.452 337.747C249.408 337.747 249.362 337.742 249.318 337.734C248.946 337.66 248.705 337.299 248.779 336.929L255.282 304.335C255.356 303.966 255.717 303.725 256.087 303.799C256.459 303.873 256.697 304.231 256.626 304.603L250.122 337.197C250.057 337.523 249.769 337.747 249.452 337.747" fill="#240448"/>
<path fill-rule="evenodd" clip-rule="evenodd" d="M258.456 305.528C255.485 307.411 251.994 308.459 248.347 308.459H218.439C216.968 308.459 215.777 307.266 215.777 305.794C215.777 305.06 216.076 304.396 216.557 303.914C217.039 303.43 217.703 303.134 218.439 303.134H255.808C257.189 303.134 258.325 304.185 258.456 305.528" fill="#FCCC6C"/>
<path fill-rule="evenodd" clip-rule="evenodd" d="M264.995 298.549C263.419 301.449 261.151 303.826 258.458 305.528C255.487 307.411 251.996 308.458 248.349 308.458C243.025 308.458 238.469 306.376 235.159 303.134C228.899 297.006 229.938 287.517 235.782 279.323C243.889 267.952 253.695 261.251 265.654 264.28C279.241 267.719 271.487 286.611 264.995 298.549" fill="#001E57"/>
<path fill-rule="evenodd" clip-rule="evenodd" d="M253.747 316.21C253.506 316.21 253.271 316.081 253.148 315.857C252.964 315.526 253.087 315.107 253.418 314.926L262.406 309.991C262.737 309.807 263.153 309.93 263.336 310.261C263.517 310.593 263.397 311.008 263.066 311.189L254.075 316.125C253.971 316.182 253.859 316.21 253.747 316.21" fill="#240448"/>
<path fill-rule="evenodd" clip-rule="evenodd" d="M218.093 280.663C216.268 280.663 214.5 279.698 213.559 277.988C212.178 275.487 213.089 272.341 215.589 270.962L234.73 260.401C237.231 259.019 240.378 259.927 241.759 262.431C243.138 264.931 242.23 268.078 239.729 269.457L220.585 280.018C219.795 280.456 218.938 280.663 218.093 280.663" fill="#FFBFAA"/>
<path fill-rule="evenodd" clip-rule="evenodd" d="M222.273 265.916L229.745 276.91L238.854 270.986C242.068 269.254 243.272 265.241 241.538 262.026C239.806 258.811 235.795 257.607 232.58 259.342L222.273 265.916" fill="#CFE4FF"/>
<path fill-rule="evenodd" clip-rule="evenodd" d="M228.951 277.812C228.325 277.812 227.704 277.528 227.296 276.989L220.639 268.187C219.947 267.273 220.128 265.971 221.044 265.279C221.958 264.589 223.261 264.77 223.95 265.684L230.607 274.485C231.299 275.399 231.116 276.702 230.202 277.391C229.827 277.676 229.389 277.812 228.951 277.812" fill="#CFE4FF"/>
<path fill-rule="evenodd" clip-rule="evenodd" d="M246.192 303.55H234.504L235.478 294.792H246.192V303.55" fill="#240448"/>
<path fill-rule="evenodd" clip-rule="evenodd" d="M255.947 236.893C256.142 239.134 254.486 241.109 252.245 241.306C250.005 241.5 248.029 239.845 247.832 237.604C247.635 235.364 249.293 233.388 251.534 233.191C253.775 232.994 255.75 234.652 255.947 236.893" fill="#001E57"/>
<path fill-rule="evenodd" clip-rule="evenodd" d="M249.397 240.863V240.863C248.56 241.448 247.406 241.246 246.82 240.409L246.796 240.373C246.21 239.536 246.413 238.381 247.25 237.796C248.087 237.208 249.242 237.413 249.83 238.25L249.852 238.283C250.44 239.12 250.235 240.275 249.397 240.863" fill="#240448"/>
<path fill-rule="evenodd" clip-rule="evenodd" d="M214.152 313.676L218.007 324.617L225.775 321.208L222.711 308.749L214.152 313.676" fill="#FFBFAA"/>
<path fill-rule="evenodd" clip-rule="evenodd" d="M230.897 329.569L210.634 337.247L209.767 334.957L209.556 334.407C209.159 333.356 209.373 332.174 210.111 331.331L211.985 329.192L214.21 326.65L214.136 322.508C214.125 321.783 214.593 321.137 215.285 320.921L218.555 319.911L219.66 323.925L225.274 318.527C225.775 318.048 226.601 318.234 226.847 318.88L230.897 329.569" fill="#001E57"/>
<path fill-rule="evenodd" clip-rule="evenodd" d="M192.803 305.81L185.957 315.175L193.161 319.654L201.706 310.081L192.803 305.81" fill="#FFBFAA"/>
<path fill-rule="evenodd" clip-rule="evenodd" d="M195.534 256.305C195.121 257.637 195.491 259.175 196.656 260.349L212.205 279.454C214.243 281.75 217.756 281.957 220.052 279.919C222.347 277.881 222.555 274.368 220.517 272.072L203.389 255.054C201.617 253.271 198.673 253.013 196.812 254.474C196.177 254.975 195.751 255.613 195.534 256.305" fill="#FFBFAA"/>
<path fill-rule="evenodd" clip-rule="evenodd" d="M201.385 258.023C201.144 258.023 200.898 257.979 200.66 257.884L191.71 254.302C190.71 253.903 190.224 252.767 190.625 251.769C191.025 250.767 192.16 250.283 193.16 250.682L202.11 254.264C203.108 254.663 203.595 255.799 203.196 256.797C202.889 257.561 202.159 258.023 201.385 258.023" fill="#FFBFAA"/>
<path fill-rule="evenodd" clip-rule="evenodd" d="M199.52 259.022C199.43 259.022 199.339 259.016 199.249 259.005L188.657 257.522C187.59 257.375 186.846 256.39 186.996 255.323C187.145 254.256 188.128 253.511 189.197 253.659L199.788 255.142C200.855 255.29 201.599 256.275 201.449 257.342C201.312 258.318 200.477 259.022 199.52 259.022" fill="#FFBFAA"/>
<path fill-rule="evenodd" clip-rule="evenodd" d="M197.789 261.875C197.687 261.875 197.583 261.867 197.479 261.851L190.527 260.748C189.464 260.578 188.738 259.58 188.907 258.515C189.076 257.451 190.077 256.726 191.139 256.896L198.092 257.998C199.157 258.168 199.882 259.167 199.712 260.231C199.559 261.191 198.73 261.875 197.789 261.875" fill="#FFBFAA"/>
<path fill-rule="evenodd" clip-rule="evenodd" d="M201.944 257.301C201.225 257.301 200.533 256.901 200.193 256.212L198.631 253.043C198.155 252.078 198.552 250.907 199.52 250.431C200.483 249.955 201.654 250.351 202.13 251.32L203.693 254.488C204.169 255.454 203.769 256.625 202.803 257.101C202.527 257.238 202.234 257.301 201.944 257.301" fill="#FFBFAA"/>
<path fill-rule="evenodd" clip-rule="evenodd" d="M235.465 280.513L253.028 287.337L252.997 266.152C252.784 263.588 251.95 261.26 250.68 259.372C248.683 256.395 245.605 254.51 242.187 254.51C239.394 254.51 236.83 255.769 234.896 257.853C234.499 258.28 234.127 258.745 233.785 259.238C233.72 259.334 233.657 259.429 233.591 259.528C231.829 262.234 231.254 265.542 231.884 268.71L235.465 280.513" fill="#CFE4FF"/>
<path fill-rule="evenodd" clip-rule="evenodd" d="M238.558 267.131C238.04 269.892 235.384 271.706 232.626 271.189C229.868 270.669 228.051 268.012 228.568 265.254C229.088 262.496 235.854 257.106 235.854 257.106C238.35 258.39 239.077 264.373 238.558 267.131" fill="#CFE4FF"/>
<path fill-rule="evenodd" clip-rule="evenodd" d="M235.783 281.025C235.496 281.025 235.231 280.844 235.135 280.557L232.207 271.758C230.172 271.314 228.514 269.799 227.906 267.793C227.261 265.665 227.928 263.443 229.893 261.189C230.607 260.368 231.433 259.604 232.229 258.868C232.839 258.305 233.471 257.722 234.065 257.106C234.325 256.833 234.757 256.825 235.031 257.085C235.304 257.347 235.313 257.779 235.05 258.053C234.432 258.699 233.783 259.295 233.159 259.875C232.352 260.619 231.589 261.323 230.924 262.089C229.266 263.99 228.708 265.725 229.214 267.397C229.709 269.03 231.121 270.239 232.812 270.477C233.069 270.516 233.293 270.696 233.376 270.942L236.432 280.124C236.552 280.483 236.358 280.871 235.999 280.989C235.928 281.014 235.854 281.025 235.783 281.025" fill="white"/>
<path fill-rule="evenodd" clip-rule="evenodd" d="M234.727 303.542C233.613 303.542 232.483 303.326 231.394 302.863L206.111 292.185C201.752 290.343 199.711 285.317 201.553 280.956C203.394 276.598 208.42 274.554 212.781 276.398L238.064 287.077C242.423 288.918 244.464 293.944 242.623 298.305C241.241 301.577 238.067 303.542 234.727 303.542" fill="#72ACFF"/>
<path fill-rule="evenodd" clip-rule="evenodd" d="M255.892 293.769C255.872 294.209 255.821 294.644 255.738 295.077C255.027 298.899 252.042 302.261 248.261 303.257C247.519 303.454 246.792 303.545 246.078 303.55C241.842 303.583 238.083 300.598 234.452 298.639C230.69 296.606 226.928 294.573 223.166 292.54C220.997 291.367 218.838 289.977 216.578 288.981C212.474 287.17 210.614 282.379 212.422 278.275C214.231 274.171 219.024 272.31 223.128 274.116C229.544 276.406 235.957 278.694 242.373 280.978C245.235 281.999 248.452 282.729 251.024 284.445C251.416 284.705 251.79 284.986 252.149 285.298C254.551 287.386 256.039 290.565 255.892 293.769" fill="#72ACFF"/>
<path fill-rule="evenodd" clip-rule="evenodd" d="M224.982 286.696L199.34 313.709L189.316 307.041C189.349 307.006 189.383 306.967 189.417 306.932L212.607 276.176C215.513 272.759 220.637 272.346 224.054 275.249C227.472 278.154 227.887 283.279 224.982 286.696" fill="#72ACFF"/>
<path fill-rule="evenodd" clip-rule="evenodd" d="M242.96 293.266C242.675 293.266 242.407 293.088 242.311 292.803C242.191 292.445 242.382 292.056 242.741 291.936C243.039 291.835 243.272 291.32 243.346 290.598C243.439 289.67 243.269 288.469 242.872 287.307C242.021 284.798 240.574 283.506 239.95 283.714C239.594 283.837 239.206 283.646 239.083 283.287C238.962 282.929 239.154 282.54 239.512 282.42C241.121 281.876 243.124 283.785 244.169 286.869C244.631 288.229 244.82 289.605 244.705 290.737C244.571 292.056 244.03 292.943 243.179 293.23C243.107 293.255 243.031 293.266 242.96 293.266" fill="#240448"/>
<path fill-rule="evenodd" clip-rule="evenodd" d="M226.844 313.651L214.141 316.951L200.781 285.969C199.2 281.772 201.323 277.087 205.52 275.506C209.717 273.925 214.401 276.048 215.982 280.245L226.844 313.651" fill="#72ACFF"/>
<path fill-rule="evenodd" clip-rule="evenodd" d="M234.401 288.825C234.237 288.825 234.07 288.803 233.903 288.759L230.486 287.862C229.446 287.588 228.822 286.521 229.096 285.479C229.369 284.439 230.436 283.815 231.479 284.089L234.896 284.986C235.936 285.26 236.559 286.327 236.286 287.369C236.056 288.245 235.265 288.825 234.401 288.825" fill="#FFBFAA"/>
<path fill-rule="evenodd" clip-rule="evenodd" d="M261.997 284.497C260.553 284.497 259.116 283.895 258.093 282.718L244.514 267.123C242.637 264.967 242.864 261.7 245.018 259.826C247.174 257.949 250.44 258.176 252.317 260.33L265.896 275.928C267.77 278.081 267.546 281.348 265.39 283.224C264.41 284.078 263.201 284.497 261.997 284.497" fill="#FFBFAA"/>
<path fill-rule="evenodd" clip-rule="evenodd" d="M260.696 266.182L249.979 274.056L244.679 268.759C242.096 266.176 242.096 261.99 244.679 259.407C247.262 256.822 251.451 256.822 254.034 259.407L260.696 266.182" fill="white"/>
<path fill-rule="evenodd" clip-rule="evenodd" d="M250.353 275.982C249.803 275.982 249.261 275.739 248.9 275.271C248.279 274.469 248.427 273.317 249.228 272.696L258.766 265.325C259.565 264.704 260.719 264.852 261.338 265.654C261.959 266.455 261.811 267.607 261.009 268.228L251.472 275.599C251.138 275.859 250.744 275.982 250.353 275.982" fill="white"/>
<path fill-rule="evenodd" clip-rule="evenodd" d="M233.086 294.155C234.24 294.937 235.819 295.033 237.277 294.259L263.775 284.628C266.563 283.345 267.786 280.045 266.503 277.257C265.22 274.466 261.92 273.246 259.132 274.527L234.175 286.275C231.953 287.452 230.848 290.193 231.704 292.398C231.999 293.153 232.484 293.747 233.086 294.155" fill="#FFBFAA"/>
<path fill-rule="evenodd" clip-rule="evenodd" d="M224.914 292.207V292.207C221.779 292.207 219.234 289.662 219.234 286.524V282.467H230.597V286.524C230.597 289.662 228.053 292.207 224.914 292.207" fill="white"/>
<path fill-rule="evenodd" clip-rule="evenodd" d="M225.287 290.439C224.25 290.439 223.388 289.624 223.342 288.576C223.293 287.501 224.124 286.59 225.202 286.54L235.944 286.056C237.014 286.01 237.933 286.841 237.98 287.917C238.029 288.995 237.197 289.906 236.119 289.952L225.378 290.436C225.347 290.439 225.317 290.439 225.287 290.439" fill="#FFBFAA"/>
<path fill-rule="evenodd" clip-rule="evenodd" d="M228.506 292.883C227.595 292.883 226.783 292.242 226.597 291.315C226.386 290.259 227.07 289.233 228.126 289.019L234.361 287.774C235.42 287.564 236.446 288.248 236.657 289.304C236.868 290.36 236.184 291.389 235.128 291.599L228.892 292.844C228.764 292.872 228.632 292.883 228.506 292.883" fill="#FFBFAA"/>
<path fill-rule="evenodd" clip-rule="evenodd" d="M229.813 295.594C228.954 295.594 228.166 295.022 227.93 294.152C227.651 293.112 228.267 292.04 229.307 291.761L234.494 290.36C235.537 290.081 236.604 290.696 236.885 291.736C237.167 292.776 236.552 293.846 235.509 294.125L230.322 295.525C230.152 295.572 229.982 295.594 229.813 295.594" fill="#FFBFAA"/>
<path fill-rule="evenodd" clip-rule="evenodd" d="M247.531 246.581L245.123 256.37L236.891 259.974L238.902 254.34L240.108 249.375L246.344 247.03L247.531 246.581" fill="#FFBFAA"/>
<path fill-rule="evenodd" clip-rule="evenodd" d="M236.886 260.655C236.724 260.655 236.563 260.598 236.437 260.488C236.235 260.31 236.155 260.031 236.232 259.774L237.756 254.718C237.863 254.357 238.246 254.152 238.607 254.261C238.968 254.371 239.173 254.751 239.064 255.112L237.977 258.724L245.545 255.276C245.887 255.12 246.292 255.273 246.451 255.615C246.607 255.96 246.454 256.365 246.112 256.524L237.17 260.595C237.08 260.636 236.984 260.655 236.886 260.655" fill="white"/>
<path fill-rule="evenodd" clip-rule="evenodd" d="M252.15 278.001C251.857 278.001 251.586 277.813 251.496 277.52C251.384 277.159 251.586 276.776 251.947 276.663L254.511 275.87C254.872 275.758 255.255 275.96 255.367 276.321C255.479 276.683 255.277 277.066 254.916 277.178L252.352 277.971C252.284 277.99 252.215 278.001 252.15 278.001" fill="#240448"/>
<path fill-rule="evenodd" clip-rule="evenodd" d="M196.246 319.23L189.89 328.368L172.102 315.996L173.499 313.985L173.587 313.862C174.381 312.721 175.739 312.108 177.12 312.272L179.51 312.557L182.862 312.954L186.077 310.666C186.764 310.177 187.69 310.201 188.351 310.724L190.877 312.729L188.192 315.909L195.526 317.427C196.344 317.597 196.722 318.546 196.246 319.23" fill="#001E57"/>
<path fill-rule="evenodd" clip-rule="evenodd" d="M246.536 246.321L244.99 246.901C244.664 250.754 242.9 253.698 239.094 253.635L240.3 248.666L246.536 246.321" fill="#240448"/>
<path fill-rule="evenodd" clip-rule="evenodd" d="M237.768 252.209V252.209C235.363 251.651 233.869 249.251 234.424 246.849L235.262 243.243C235.995 240.077 239.158 238.105 242.323 238.838C245.489 239.574 247.462 242.734 246.726 245.9L246.531 246.742C245.62 250.671 241.697 253.12 237.768 252.209" fill="#FFBFAA"/>
<path fill-rule="evenodd" clip-rule="evenodd" d="M234.102 240.305C234.778 238.827 235.743 237.525 237.169 236.74C238.767 235.859 240.709 235.749 242.477 236.064C242.641 236.094 242.802 236.127 242.964 236.162C243.057 236.184 243.15 236.206 243.243 236.231C247.519 237.333 250.564 241.941 249.311 246.31C249.06 247.188 247.642 250.302 246.879 250.838C246.28 251.257 244.947 247.495 244.214 247.544C243.484 247.593 242.72 247.366 242.198 246.852C241.478 246.149 241.325 245.062 241.215 244.064C239.812 244.001 238.397 243.85 237.057 243.418C236.225 243.15 235.423 242.77 234.712 242.258C234.4 242.036 233.691 241.361 233.691 241.361C233.691 241.361 234.02 240.482 234.102 240.305" fill="#001E57"/>
<path fill-rule="evenodd" clip-rule="evenodd" d="M241.489 254.51V254.51C241.251 254.51 241.049 254.329 241.022 254.091L239.465 243.084H242.578L241.96 254.05C241.955 254.305 241.747 254.51 241.489 254.51" fill="#001E57"/>
<path fill-rule="evenodd" clip-rule="evenodd" d="M247.254 246.841C247.254 248.376 246.012 249.618 244.477 249.618C242.945 249.618 241.703 248.376 241.703 246.841C241.703 245.309 242.945 244.067 244.477 244.067C246.012 244.067 247.254 245.309 247.254 246.841" fill="#FFBFAA"/>
<path fill-rule="evenodd" clip-rule="evenodd" d="M246.188 249.618C246.188 250.39 245.561 251.013 244.79 251.013C244.018 251.013 243.395 250.39 243.395 249.618C243.395 248.846 244.018 248.223 244.79 248.223C245.561 248.223 246.188 248.846 246.188 249.618" fill="white"/>
<path fill-rule="evenodd" clip-rule="evenodd" d="M235.274 243.558C234.634 245.093 233.964 246.532 233.116 247.358C232.886 247.583 232.834 247.946 233.036 248.193C233.165 248.349 233.365 248.444 233.594 248.417L236.142 248.105L235.274 243.558" fill="#FFBFAA"/>
<path fill-rule="evenodd" clip-rule="evenodd" d="M214.137 319.309C213.215 319.309 212.373 318.688 212.129 317.755C211.842 316.645 212.509 315.512 213.618 315.225L225.678 312.095C226.786 311.805 227.919 312.472 228.206 313.58C228.496 314.691 227.828 315.824 226.72 316.111L214.66 319.244C214.485 319.288 214.31 319.309 214.137 319.309" fill="#CFE4FF"/>
<path fill-rule="evenodd" clip-rule="evenodd" d="M200.095 292.787C199.947 292.787 199.796 292.737 199.671 292.639C199.375 292.406 199.323 291.977 199.556 291.679L212.073 275.752C214.119 273.345 217.296 272.212 220.385 272.776C220.757 272.844 221.003 273.2 220.935 273.572C220.866 273.941 220.511 274.19 220.139 274.122C217.531 273.646 214.847 274.603 213.132 276.62L200.631 292.524C200.497 292.696 200.297 292.787 200.095 292.787" fill="white"/>
<path fill-rule="evenodd" clip-rule="evenodd" d="M206.012 308.212C205.845 308.212 205.678 308.152 205.546 308.032C205.27 307.775 205.254 307.342 205.511 307.063L221.432 289.846C221.689 289.566 222.121 289.55 222.397 289.807C222.677 290.064 222.693 290.497 222.436 290.773L206.515 307.993C206.378 308.138 206.195 308.212 206.012 308.212" fill="white"/>
<path fill-rule="evenodd" clip-rule="evenodd" d="M209.695 335.46C209.424 335.46 209.167 335.296 209.061 335.028C208.921 334.678 209.091 334.281 209.444 334.139L219.917 329.953C220.267 329.81 220.664 329.983 220.806 330.333C220.946 330.683 220.773 331.083 220.423 331.222L209.95 335.411C209.868 335.444 209.78 335.46 209.695 335.46" fill="white"/>
<path fill-rule="evenodd" clip-rule="evenodd" d="M199.417 262.781C198.713 262.781 198.013 262.661 197.471 262.51C197.107 262.409 196.897 262.031 196.998 261.667C197.099 261.303 197.474 261.09 197.841 261.191C198.413 261.35 200.615 261.747 200.949 260.8C201.075 260.444 201.463 260.258 201.822 260.381C202.177 260.507 202.363 260.899 202.237 261.254C201.824 262.428 200.618 262.781 199.417 262.781" fill="#240448"/>
<path fill-rule="evenodd" clip-rule="evenodd" d="M183.84 321.862C183.706 321.862 183.57 321.821 183.45 321.739L173.11 314.549C172.8 314.333 172.723 313.906 172.939 313.597C173.155 313.285 173.581 313.208 173.891 313.424L184.232 320.614C184.541 320.831 184.618 321.257 184.403 321.569C184.269 321.758 184.057 321.862 183.84 321.862" fill="white"/>
<path fill-rule="evenodd" clip-rule="evenodd" d="M242.602 293.326C241.907 293.326 241.16 292.932 240.451 292.179C239.669 291.35 238.985 290.144 238.522 288.784C238.06 287.421 237.871 286.048 237.986 284.912C238.12 283.594 238.662 282.707 239.513 282.42C239.871 282.297 240.26 282.491 240.38 282.847C240.5 283.205 240.309 283.594 239.95 283.714C239.652 283.818 239.422 284.33 239.346 285.052C239.253 285.982 239.425 287.181 239.819 288.343C240.213 289.506 240.807 290.562 241.447 291.241C241.945 291.772 242.44 292.034 242.741 291.936C243.097 291.813 243.485 292.004 243.608 292.362C243.729 292.721 243.537 293.109 243.179 293.23C242.993 293.293 242.799 293.326 242.602 293.326" fill="#240448"/>
<path fill-rule="evenodd" clip-rule="evenodd" d="M240.02 290.981V290.981C238.857 291.246 237.702 290.519 237.437 289.359L237.309 288.787C237.043 287.624 237.771 286.469 238.934 286.204C240.094 285.941 241.251 286.666 241.514 287.829L241.645 288.401C241.908 289.564 241.18 290.718 240.02 290.981" fill="white"/>
<path fill-rule="evenodd" clip-rule="evenodd" d="M239.414 286.691C239.296 286.691 239.173 286.705 239.053 286.732C238.185 286.929 237.638 287.796 237.835 288.666L237.966 289.238C238.062 289.659 238.314 290.018 238.681 290.248C239.047 290.478 239.479 290.551 239.901 290.456C240.322 290.36 240.681 290.105 240.91 289.742C241.14 289.375 241.214 288.943 241.118 288.521L240.987 287.949C240.894 287.528 240.64 287.17 240.273 286.94C240.013 286.776 239.718 286.691 239.414 286.691ZM239.537 291.577C239.034 291.577 238.541 291.435 238.106 291.162C237.496 290.778 237.072 290.179 236.913 289.476L236.782 288.904C236.453 287.454 237.365 286.007 238.815 285.679C239.518 285.517 240.24 285.64 240.85 286.026C241.458 286.409 241.882 287.006 242.043 287.709L242.172 288.281C242.333 288.984 242.207 289.706 241.824 290.316C241.441 290.926 240.842 291.35 240.139 291.509C239.939 291.555 239.737 291.577 239.537 291.577V291.577Z" fill="#240448"/>
<path fill-rule="evenodd" clip-rule="evenodd" d="M198.794 315.422C198.397 315.422 197.998 315.309 197.645 315.074L188.602 309.058C187.648 308.423 187.389 307.137 188.023 306.182C188.658 305.227 189.946 304.967 190.901 305.602L199.943 311.619C200.898 312.253 201.158 313.539 200.523 314.494C200.124 315.096 199.464 315.422 198.794 315.422" fill="#CFE4FF"/>
<path fill-rule="evenodd" clip-rule="evenodd" d="M248.344 273.651C248.144 273.651 247.942 273.561 247.808 273.391C247.573 273.096 247.625 272.666 247.92 272.431L254.229 267.432C254.525 267.197 254.954 267.246 255.19 267.542C255.425 267.84 255.373 268.269 255.077 268.505L248.768 273.503C248.642 273.602 248.495 273.651 248.344 273.651" fill="#240448"/>
<path fill-rule="evenodd" clip-rule="evenodd" d="M227.336 321.542C226.132 321.542 225.155 322.522 225.155 323.725C225.155 324.929 226.132 325.906 227.336 325.906C228.539 325.906 229.519 324.929 229.519 323.725C229.519 322.522 228.539 321.542 227.336 321.542ZM227.336 326.987C225.538 326.987 224.074 325.526 224.074 323.725C224.074 321.925 225.538 320.464 227.336 320.464C229.136 320.464 230.6 321.925 230.6 323.725C230.6 325.526 229.136 326.987 227.336 326.987V326.987Z" fill="#44D4F4"/>
<path fill-rule="evenodd" clip-rule="evenodd" d="M192.278 320.193C191.075 320.193 190.096 321.173 190.096 322.377C190.096 323.58 191.075 324.557 192.278 324.557C193.481 324.557 194.46 323.58 194.46 322.377C194.46 321.173 193.481 320.193 192.278 320.193ZM192.278 325.638C190.479 325.638 189.016 324.174 189.016 322.377C189.016 320.576 190.479 319.115 192.278 319.115C194.077 319.115 195.541 320.576 195.541 322.377C195.541 324.174 194.077 325.638 192.278 325.638V325.638Z" fill="#44D4F4"/>
<path fill-rule="evenodd" clip-rule="evenodd" d="M356.46 338.253H0.695719C0.317877 338.253 0.0117188 337.947 0.0117188 337.569C0.0117188 337.192 0.317877 336.885 0.695719 336.885H356.46C356.838 336.885 357.144 337.192 357.144 337.569C357.144 337.947 356.838 338.253 356.46 338.253" fill="#240448"/>
<path fill-rule="evenodd" clip-rule="evenodd" d="M119.991 312.056C124.366 314.511 126.891 318.322 125.631 320.568C124.371 322.817 119.802 322.653 115.427 320.199C112.4 318.502 110.862 315.08 110.201 313.132C109.93 312.33 110.409 311.474 111.234 311.288C113.241 310.833 116.964 310.36 119.991 312.056" fill="#006BFF"/>
<path fill-rule="evenodd" clip-rule="evenodd" d="M141.741 313.422C139.271 315.928 136.225 316.926 134.939 315.657C133.652 314.387 134.611 311.328 137.082 308.825C138.791 307.093 141.391 306.688 142.832 306.603C143.424 306.568 143.914 307.049 143.886 307.643C143.821 309.085 143.45 311.69 141.741 313.422" fill="#006BFF"/>
<path fill-rule="evenodd" clip-rule="evenodd" d="M127.403 337.118C127.025 337.118 126.719 336.812 126.719 336.434C126.719 326.645 125.194 316.36 122.187 305.862C122.083 305.498 122.293 305.12 122.656 305.017C123.02 304.913 123.398 305.12 123.502 305.484C126.544 316.106 128.087 326.516 128.087 336.434C128.087 336.812 127.78 337.118 127.403 337.118" fill="#240448"/>
<path fill-rule="evenodd" clip-rule="evenodd" d="M121.705 302.601C121.415 302.601 121.146 302.415 121.054 302.125C117.384 290.625 113.214 283.09 113.173 283.014C112.989 282.685 113.107 282.267 113.437 282.083C113.767 281.9 114.183 282.018 114.367 282.349C114.41 282.423 118.642 290.067 122.357 301.709C122.472 302.067 122.273 302.453 121.913 302.568C121.844 302.59 121.774 302.601 121.705 302.601" fill="#240448"/>
<path fill-rule="evenodd" clip-rule="evenodd" d="M124.232 288.286C124.232 292.973 120.432 296.773 115.745 296.773C111.058 296.773 107.258 292.973 107.258 288.286C107.258 283.599 111.058 279.799 115.745 279.799C120.432 279.799 124.232 283.599 124.232 288.286" fill="#CFE4FF"/>
<path fill-rule="evenodd" clip-rule="evenodd" d="M133.277 337.118C132.906 337.118 132.601 336.82 132.594 336.448C132.588 336.182 132.147 309.87 138.798 290.943C138.923 290.584 139.314 290.398 139.67 290.524C140.027 290.647 140.214 291.038 140.089 291.394C133.519 310.095 133.956 336.158 133.961 336.42C133.969 336.798 133.669 337.11 133.291 337.118C133.287 337.118 133.282 337.118 133.277 337.118" fill="#001E57"/>
<path fill-rule="evenodd" clip-rule="evenodd" d="M146.697 292.97L140.695 286.967L132.498 289.164L130.301 297.364L136.302 303.364L144.5 301.167L146.697 292.97" fill="#001E57"/>
<path fill-rule="evenodd" clip-rule="evenodd" d="M115.745 289.624C111.225 289.624 106.359 288.579 106.359 286.283C106.359 285.903 106.666 285.599 107.043 285.599C107.421 285.599 107.727 285.903 107.727 286.283C107.727 286.871 110.455 288.256 115.745 288.256C121.035 288.256 123.762 286.871 123.762 286.283C123.762 285.903 124.069 285.599 124.446 285.599C124.824 285.599 125.13 285.903 125.13 286.283C125.13 288.579 120.265 289.624 115.745 289.624" fill="white"/>
<path fill-rule="evenodd" clip-rule="evenodd" d="M115.745 289.624C111.225 289.624 106.359 288.579 106.359 286.283C106.359 285.903 106.666 285.599 107.043 285.599C107.421 285.599 107.727 285.903 107.727 286.283C107.727 286.871 110.455 288.256 115.745 288.256C121.035 288.256 123.762 286.871 123.762 286.283C123.762 285.903 124.069 285.599 124.446 285.599C124.824 285.599 125.13 285.903 125.13 286.283C125.13 288.579 120.265 289.624 115.745 289.624" fill="white"/>
<path fill-rule="evenodd" clip-rule="evenodd" d="M122.761 291.884C122.272 291.884 121.681 291.815 120.965 291.651C119.227 291.249 117.129 290.371 115.059 289.178C112.988 287.982 111.177 286.606 109.96 285.301C108.171 283.386 108.232 282.228 108.598 281.594C108.787 281.265 109.205 281.153 109.532 281.342C109.86 281.531 109.972 281.949 109.783 282.275C109.668 282.475 109.886 283.219 110.959 284.368C112.087 285.577 113.786 286.863 115.742 287.99C117.698 289.12 119.663 289.947 121.273 290.319C122.805 290.672 123.558 290.486 123.673 290.289C123.862 289.96 124.28 289.848 124.607 290.037C124.935 290.226 125.047 290.644 124.858 290.97C124.595 291.429 124.016 291.884 122.761 291.884" fill="white"/>
<path fill-rule="evenodd" clip-rule="evenodd" d="M122.761 291.884C122.272 291.884 121.681 291.815 120.965 291.651C119.227 291.249 117.129 290.371 115.059 289.178C112.988 287.982 111.177 286.606 109.96 285.301C108.171 283.386 108.232 282.228 108.598 281.594C108.787 281.265 109.205 281.153 109.532 281.342C109.86 281.531 109.972 281.949 109.783 282.275C109.668 282.475 109.886 283.219 110.959 284.368C112.087 285.577 113.786 286.863 115.742 287.99C117.698 289.12 119.663 289.947 121.273 290.319C122.805 290.672 123.558 290.486 123.673 290.289C123.862 289.96 124.28 289.848 124.607 290.037C124.935 290.226 125.047 290.644 124.858 290.97C124.595 291.429 124.016 291.884 122.761 291.884" fill="white"/>
<path fill-rule="evenodd" clip-rule="evenodd" d="M130.301 298.048C129.999 298.048 129.723 297.846 129.641 297.539C129.543 297.175 129.759 296.8 130.124 296.702L146.52 292.308C146.885 292.212 147.26 292.428 147.358 292.792C147.456 293.159 147.239 293.534 146.875 293.629L130.478 298.023C130.419 298.04 130.36 298.048 130.301 298.048" fill="white"/>
<path fill-rule="evenodd" clip-rule="evenodd" d="M138.498 295.851C138.323 295.851 138.148 295.783 138.014 295.649L132.013 289.649C131.746 289.38 131.746 288.948 132.013 288.68C132.28 288.415 132.713 288.415 132.98 288.68L138.981 294.683C139.249 294.951 139.249 295.383 138.981 295.649C138.848 295.783 138.673 295.851 138.498 295.851" fill="white"/>
<path fill-rule="evenodd" clip-rule="evenodd" d="M294.661 327.805C297.673 330.858 301.386 332.076 302.954 330.53C304.524 328.981 303.353 325.252 300.341 322.201C298.259 320.089 295.088 319.597 293.334 319.493C292.612 319.449 292.015 320.037 292.048 320.76C292.128 322.516 292.579 325.693 294.661 327.805" fill="#CFE4FF"/>
<path fill-rule="evenodd" clip-rule="evenodd" d="M306.817 337.581C306.461 337.581 306.161 337.304 306.136 336.943C306.114 336.623 304.026 304.56 312.13 281.495C312.256 281.137 312.645 280.951 313.003 281.077C313.359 281.2 313.545 281.591 313.422 281.947C305.411 304.743 307.479 336.533 307.501 336.85C307.526 337.228 307.241 337.553 306.866 337.581C306.85 337.581 306.834 337.581 306.817 337.581" fill="#240448"/>
<path fill-rule="evenodd" clip-rule="evenodd" d="M303.785 337.581C303.782 337.581 303.779 337.581 303.776 337.581C303.399 337.578 303.095 337.266 303.101 336.888C303.278 322.147 299.163 313.293 296.053 307.914C295.864 307.589 295.976 307.17 296.302 306.981C296.63 306.792 297.049 306.905 297.237 307.23C300.428 312.749 304.652 321.827 304.469 336.905C304.463 337.28 304.159 337.581 303.785 337.581" fill="#240448"/>
<path fill-rule="evenodd" clip-rule="evenodd" d="M312.688 291.003C312.1 293.528 310.57 295.328 309.271 295.027C307.974 294.724 307.399 292.431 307.99 289.906C308.398 288.157 309.875 286.901 310.748 286.294C311.109 286.042 311.602 286.157 311.813 286.54C312.327 287.473 313.098 289.254 312.688 291.003" fill="#72ACFF"/>
<path fill-rule="evenodd" clip-rule="evenodd" d="M321.89 283.783C322.522 282.609 321.978 281.402 320.678 281.099C319.381 280.795 317.802 281.509 317.17 282.68L312.867 290.675C312.303 291.72 311.11 292.259 309.956 291.988C308.801 291.72 307.969 290.707 307.928 289.523L307.608 280.45C307.562 279.118 306.462 277.78 305.165 277.476C303.873 277.523 302.864 278.606 302.908 279.897C302.908 279.897 303.313 291.878 303.34 292.119L303.354 292.231C303.616 294.188 305.055 295.87 307.091 296.344L310.588 297.162C312.626 297.638 314.661 296.765 315.764 295.126L315.778 295.134L321.89 283.783" fill="#72ACFF"/>
<path fill-rule="evenodd" clip-rule="evenodd" d="M292.941 299.988V299.988L295.724 294.57C296.375 293.298 295.584 291.763 294.17 291.555C292.755 291.35 291.557 292.598 291.822 294.001L292.941 299.988" fill="#CFE4FF"/>
<path fill-rule="evenodd" clip-rule="evenodd" d="M290.551 301.772V301.772L284.562 302.893C283.158 303.156 281.911 301.958 282.116 300.543C282.324 299.129 283.859 298.338 285.131 298.989L290.551 301.772" fill="#CFE4FF"/>
<path fill-rule="evenodd" clip-rule="evenodd" d="M292.254 304.059V304.059L289.474 309.479C288.82 310.751 289.614 312.286 291.028 312.491C292.443 312.699 293.639 311.452 293.376 310.048L292.254 304.059" fill="#CFE4FF"/>
<path fill-rule="evenodd" clip-rule="evenodd" d="M294.648 302.278V302.278L300.635 301.156C302.041 300.893 303.286 302.092 303.081 303.506C302.876 304.921 301.338 305.711 300.068 305.058L294.648 302.278" fill="#CFE4FF"/>
<path fill-rule="evenodd" clip-rule="evenodd" d="M291.402 300.344V300.344L289.536 294.546C289.098 293.183 287.451 292.658 286.305 293.512C285.161 294.368 285.197 296.095 286.376 296.902L291.402 300.344" fill="#CFE4FF"/>
<path fill-rule="evenodd" clip-rule="evenodd" d="M290.974 303.293V303.293L287.532 308.319C286.725 309.498 284.996 309.534 284.142 308.387C283.286 307.244 283.814 305.597 285.173 305.159L290.974 303.293" fill="#CFE4FF"/>
<path fill-rule="evenodd" clip-rule="evenodd" d="M293.797 303.706V303.706L295.663 309.504C296.101 310.863 297.745 311.391 298.891 310.535C300.038 309.681 300.002 307.955 298.823 307.145L293.797 303.706" fill="#CFE4FF"/>
<path fill-rule="evenodd" clip-rule="evenodd" d="M294.227 300.754V300.754L297.668 295.728C298.476 294.549 300.202 294.516 301.058 295.66C301.912 296.806 301.387 298.453 300.024 298.891L294.227 300.754" fill="#CFE4FF"/>
</svg>
