<svg width="554" height="355" viewBox="0 0 554 355" fill="none" xmlns="http://www.w3.org/2000/svg">
<path fill-rule="evenodd" clip-rule="evenodd" d="M351.578 27.2918C351.578 41.8312 339.791 53.617 325.252 53.617C310.713 53.617 298.926 41.8312 298.926 27.2918C298.926 12.7528 310.713 0.966064 325.252 0.966064C339.791 0.966064 351.578 12.7528 351.578 27.2918" fill="#CFE4FF"/>
<path fill-rule="evenodd" clip-rule="evenodd" d="M273.377 156.037C273.377 156.037 277.675 150.093 277.675 150.089C277.664 149.907 278.029 149.469 278.113 149.317C278.535 148.577 278.957 147.837 279.376 147.097C280.429 145.247 281.466 143.414 282.549 141.581C284.713 137.92 284.83 133.133 285.935 129.069C286.155 128.257 286.245 126.29 286.283 124.906C286.305 124.014 285.777 123.202 284.95 122.866C283.847 122.419 282.593 122.958 282.157 124.065L281.148 126.636L279.457 124.273C278.461 122.879 276.401 122.851 275.367 124.217C274.757 125.024 274.684 126.117 275.182 126.998L277.411 130.945L277.182 131.248L275.125 129.208C274.379 128.469 273.154 128.557 272.523 129.393C272.215 129.798 272.104 130.318 272.213 130.814L272.972 134.234C273.307 135.736 273.342 137.289 273.078 138.805C272.83 140.216 273.562 136.189 272.828 137.42L271.249 140.075L270.348 137.653C269.918 136.495 268.715 135.742 267.507 136.005C266.388 136.248 265.621 137.196 265.566 138.28L259.505 153.393C259.301 157.459 264.938 156.179 267.063 159.652L265.147 165.031L273.377 156.037" fill="#FFBFAA"/>
<path fill-rule="evenodd" clip-rule="evenodd" d="M239.415 353.495C239.328 353.495 239.238 353.476 239.154 353.441C238.808 353.296 238.642 352.899 238.786 352.553L282.514 247.57C282.659 247.225 283.059 247.062 283.404 247.206C283.75 247.35 283.916 247.747 283.769 248.096L240.044 353.076C239.935 353.337 239.682 353.495 239.415 353.495" fill="#006BFF"/>
<path fill-rule="evenodd" clip-rule="evenodd" d="M301.805 353.498C301.539 353.498 301.285 353.343 301.177 353.081L254.06 240.783C253.916 240.434 254.079 240.037 254.425 239.89C254.773 239.746 255.171 239.909 255.318 240.255L302.431 352.556C302.576 352.902 302.412 353.299 302.067 353.446C301.982 353.482 301.892 353.498 301.805 353.498" fill="#006BFF"/>
<path fill-rule="evenodd" clip-rule="evenodd" d="M206.8 353.571C206.514 353.571 206.248 353.389 206.154 353.103L188.909 300.536C188.792 300.179 188.986 299.795 189.343 299.678C189.701 299.561 190.085 299.755 190.202 300.111L207.447 352.679C207.564 353.035 207.369 353.422 207.012 353.539C206.942 353.561 206.87 353.571 206.8 353.571" fill="#001E57"/>
<path fill-rule="evenodd" clip-rule="evenodd" d="M133.186 353.618H49.0547V312.932C49.0547 312.546 49.3669 312.233 49.7522 312.233C50.1373 312.233 50.4495 312.546 50.4495 312.932V352.224H131.792V231.146H50.4495V265.985C50.4495 266.371 50.1373 266.684 49.7522 266.684C49.3669 266.684 49.0547 266.371 49.0547 265.985V229.752H133.186V353.618" fill="#001E57"/>
<path fill-rule="evenodd" clip-rule="evenodd" d="M80.2344 313.73H159.161V289.235H80.2344V313.73Z" fill="white"/>
<path fill-rule="evenodd" clip-rule="evenodd" d="M80.9339 313.033H158.466V289.932H80.9339V313.033ZM79.5391 314.427H159.861V288.539H79.5391V314.427Z" fill="#001E57"/>
<path fill-rule="evenodd" clip-rule="evenodd" d="M132.353 343.956H71.6445V321.487C71.6445 321.1 71.9567 320.79 72.3421 320.79C72.7272 320.79 73.0394 321.1 73.0394 321.487V342.563H132.353C132.739 342.563 133.051 342.873 133.051 343.259C133.051 343.646 132.739 343.956 132.353 343.956" fill="#001E57"/>
<path fill-rule="evenodd" clip-rule="evenodd" d="M100.074 288.541H157.527V270.372H100.074V288.541Z" fill="#72ACFF"/>
<path fill-rule="evenodd" clip-rule="evenodd" d="M83.8711 288.541H141.324V270.372H83.8711V288.541Z" fill="#CFE4FF"/>
<path fill-rule="evenodd" clip-rule="evenodd" d="M100.074 251.958H157.527V233.788H100.074V251.958Z" fill="#72ACFF"/>
<path fill-rule="evenodd" clip-rule="evenodd" d="M83.8711 251.958H141.324V233.788H83.8711V251.958Z" fill="#CFE4FF"/>
<path fill-rule="evenodd" clip-rule="evenodd" d="M100.074 215.375H157.527V197.206H100.074V215.375Z" fill="#72ACFF"/>
<path fill-rule="evenodd" clip-rule="evenodd" d="M83.8711 215.375H141.324V197.206H83.8711V215.375Z" fill="#CFE4FF"/>
<path fill-rule="evenodd" clip-rule="evenodd" d="M93.543 178.792H150.996V160.623H93.543V178.792Z" fill="#72ACFF"/>
<path fill-rule="evenodd" clip-rule="evenodd" d="M77.3398 178.792H134.793V160.623H77.3398V178.792Z" fill="#CFE4FF"/>
<path fill-rule="evenodd" clip-rule="evenodd" d="M100.074 142.208H157.527V124.039H100.074V142.208Z" fill="#72ACFF"/>
<path fill-rule="evenodd" clip-rule="evenodd" d="M83.8711 142.208H141.324V124.039H83.8711V142.208Z" fill="#CFE4FF"/>
<path fill-rule="evenodd" clip-rule="evenodd" d="M93.4453 270.372H150.898V252.205H93.4453V270.372Z" fill="#72ACFF"/>
<path fill-rule="evenodd" clip-rule="evenodd" d="M77.2422 270.372H134.695V252.205H77.2422V270.372Z" fill="#CFE4FF"/>
<path fill-rule="evenodd" clip-rule="evenodd" d="M93.4453 233.788H150.898V215.621H93.4453V233.788Z" fill="#72ACFF"/>
<path fill-rule="evenodd" clip-rule="evenodd" d="M77.2422 233.788H134.695V215.621H77.2422V233.788Z" fill="#CFE4FF"/>
<path fill-rule="evenodd" clip-rule="evenodd" d="M93.4453 197.206H150.898V179.037H93.4453V197.206Z" fill="#72ACFF"/>
<path fill-rule="evenodd" clip-rule="evenodd" d="M77.2422 197.206H134.695V179.037H77.2422V197.206Z" fill="#CFE4FF"/>
<path fill-rule="evenodd" clip-rule="evenodd" d="M93.4453 160.623H150.898V142.454H93.4453V160.623Z" fill="#72ACFF"/>
<path fill-rule="evenodd" clip-rule="evenodd" d="M77.2422 160.623H134.695V142.454H77.2422V160.623Z" fill="#CFE4FF"/>
<path fill-rule="evenodd" clip-rule="evenodd" d="M150.996 143.014H83.5007C83.1249 143.014 82.8203 142.709 82.8203 142.333C82.8203 141.957 83.1249 141.653 83.5007 141.653H150.996C151.372 141.653 151.677 141.957 151.677 142.333C151.677 142.709 151.372 143.014 150.996 143.014" fill="#72ACFF"/>
<path fill-rule="evenodd" clip-rule="evenodd" d="M151.133 161.384H83.6374C83.2616 161.384 82.957 161.08 82.957 160.704C82.957 160.328 83.2616 160.023 83.6374 160.023H151.133C151.509 160.023 151.814 160.328 151.814 160.704C151.814 161.08 151.509 161.384 151.133 161.384" fill="#72ACFF"/>
<path fill-rule="evenodd" clip-rule="evenodd" d="M151.27 179.755H83.7741C83.3983 179.755 83.0938 179.451 83.0938 179.075C83.0938 178.699 83.3983 178.394 83.7741 178.394H151.27C151.646 178.394 151.95 178.699 151.95 179.075C151.95 179.451 151.646 179.755 151.27 179.755" fill="#72ACFF"/>
<path fill-rule="evenodd" clip-rule="evenodd" d="M102.554 198.126H83.9109C83.535 198.126 83.2305 197.821 83.2305 197.446C83.2305 197.07 83.535 196.765 83.9109 196.765H102.554C102.93 196.765 103.234 197.07 103.234 197.446C103.234 197.821 102.93 198.126 102.554 198.126" fill="#72ACFF"/>
<path fill-rule="evenodd" clip-rule="evenodd" d="M151.406 198.126H111.262C110.887 198.126 110.582 197.821 110.582 197.446C110.582 197.07 110.887 196.765 111.262 196.765H151.406C151.782 196.765 152.086 197.07 152.086 197.446C152.086 197.821 151.782 198.126 151.406 198.126" fill="#72ACFF"/>
<path fill-rule="evenodd" clip-rule="evenodd" d="M150.587 216.497H84.0437C83.6678 216.497 83.3633 216.192 83.3633 215.816C83.3633 215.44 83.6678 215.136 84.0437 215.136H150.587C150.963 215.136 151.267 215.44 151.267 215.816C151.267 216.192 150.963 216.497 150.587 216.497" fill="#72ACFF"/>
<path fill-rule="evenodd" clip-rule="evenodd" d="M119.153 234.869H84.1804C83.8045 234.869 83.5 234.564 83.5 234.188C83.5 233.81 83.8045 233.508 84.1804 233.508H119.153C119.529 233.508 119.833 233.81 119.833 234.188C119.833 234.564 119.529 234.869 119.153 234.869" fill="#72ACFF"/>
<path fill-rule="evenodd" clip-rule="evenodd" d="M151.675 234.869H128.134C127.758 234.869 127.453 234.564 127.453 234.188C127.453 233.81 127.758 233.508 128.134 233.508H151.675C152.051 233.508 152.356 233.81 152.356 234.188C152.356 234.564 152.051 234.869 151.675 234.869" fill="#72ACFF"/>
<path fill-rule="evenodd" clip-rule="evenodd" d="M151.813 253.24H84.3171C83.9413 253.24 83.6367 252.935 83.6367 252.559C83.6367 252.181 83.9413 251.879 84.3171 251.879H151.813C152.189 251.879 152.493 252.181 152.493 252.559C152.493 252.935 152.189 253.24 151.813 253.24" fill="#72ACFF"/>
<path fill-rule="evenodd" clip-rule="evenodd" d="M99.5587 271.61H84.4538C84.078 271.61 83.7734 271.306 83.7734 270.93C83.7734 270.552 84.078 270.25 84.4538 270.25H99.5587C99.9346 270.25 100.239 270.552 100.239 270.93C100.239 271.306 99.9346 271.61 99.5587 271.61" fill="#72ACFF"/>
<path fill-rule="evenodd" clip-rule="evenodd" d="M151.949 271.61H110.173C109.797 271.61 109.492 271.306 109.492 270.93C109.492 270.552 109.797 270.25 110.173 270.25H151.949C152.325 270.25 152.63 270.552 152.63 270.93C152.63 271.306 152.325 271.61 151.949 271.61" fill="#72ACFF"/>
<path fill-rule="evenodd" clip-rule="evenodd" d="M107.859 331.164H99.9668C99.5814 331.164 99.2695 330.854 99.2695 330.468C99.2695 330.081 99.5814 329.771 99.9668 329.771H107.859C108.245 329.771 108.557 330.081 108.557 330.468C108.557 330.854 108.245 331.164 107.859 331.164" fill="#001E57"/>
<path fill-rule="evenodd" clip-rule="evenodd" d="M122.828 302.588H114.936C114.55 302.588 114.238 302.277 114.238 301.891C114.238 301.504 114.55 301.194 114.936 301.194H122.828C123.214 301.194 123.526 301.504 123.526 301.891C123.526 302.277 123.214 302.588 122.828 302.588" fill="#001E57"/>
<path fill-rule="evenodd" clip-rule="evenodd" d="M449.527 352.709H506.98V334.539H449.527V352.709Z" fill="#72ACFF"/>
<path fill-rule="evenodd" clip-rule="evenodd" d="M433.324 352.709H490.777V334.539H433.324V352.709Z" fill="#CFE4FF"/>
<path fill-rule="evenodd" clip-rule="evenodd" d="M449.527 316.125H506.98V297.956H449.527V316.125Z" fill="#72ACFF"/>
<path fill-rule="evenodd" clip-rule="evenodd" d="M433.324 316.125H490.777V297.956H433.324V316.125Z" fill="#CFE4FF"/>
<path fill-rule="evenodd" clip-rule="evenodd" d="M449.527 279.541H506.98V261.372H449.527V279.541Z" fill="#72ACFF"/>
<path fill-rule="evenodd" clip-rule="evenodd" d="M433.324 279.541H490.777V261.372H433.324V279.541Z" fill="#CFE4FF"/>
<path fill-rule="evenodd" clip-rule="evenodd" d="M449.527 242.957H506.98V224.788H449.527V242.957Z" fill="#72ACFF"/>
<path fill-rule="evenodd" clip-rule="evenodd" d="M433.324 242.957H490.777V224.788H433.324V242.957Z" fill="#CFE4FF"/>
<path fill-rule="evenodd" clip-rule="evenodd" d="M442.996 206.374H500.449V188.205H442.996V206.374Z" fill="#72ACFF"/>
<path fill-rule="evenodd" clip-rule="evenodd" d="M426.793 206.374H484.246V188.205H426.793V206.374Z" fill="#CFE4FF"/>
<path fill-rule="evenodd" clip-rule="evenodd" d="M442.898 334.539H500.351V316.37H442.898V334.539Z" fill="#72ACFF"/>
<path fill-rule="evenodd" clip-rule="evenodd" d="M426.695 334.539H484.148V316.37H426.695V334.539Z" fill="#CFE4FF"/>
<path fill-rule="evenodd" clip-rule="evenodd" d="M442.898 297.956H500.351V279.786H442.898V297.956Z" fill="#72ACFF"/>
<path fill-rule="evenodd" clip-rule="evenodd" d="M426.695 297.956H484.148V279.786H426.695V297.956Z" fill="#CFE4FF"/>
<path fill-rule="evenodd" clip-rule="evenodd" d="M442.898 261.372H500.351V243.202H442.898V261.372Z" fill="#72ACFF"/>
<path fill-rule="evenodd" clip-rule="evenodd" d="M426.695 261.372H484.148V243.202H426.695V261.372Z" fill="#CFE4FF"/>
<path fill-rule="evenodd" clip-rule="evenodd" d="M442.898 224.788H500.351V206.619H442.898V224.788Z" fill="#72ACFF"/>
<path fill-rule="evenodd" clip-rule="evenodd" d="M426.695 224.788H484.148V206.619H426.695V224.788Z" fill="#CFE4FF"/>
<path fill-rule="evenodd" clip-rule="evenodd" d="M500.45 207.179H432.954C432.578 207.179 432.273 206.875 432.273 206.499C432.273 206.123 432.578 205.818 432.954 205.818H500.45C500.825 205.818 501.13 206.123 501.13 206.499C501.13 206.875 500.825 207.179 500.45 207.179" fill="#72ACFF"/>
<path fill-rule="evenodd" clip-rule="evenodd" d="M500.586 225.55H433.091C432.715 225.55 432.41 225.245 432.41 224.87C432.41 224.494 432.715 224.189 433.091 224.189H500.586C500.962 224.189 501.267 224.494 501.267 224.87C501.267 225.245 500.962 225.55 500.586 225.55" fill="#72ACFF"/>
<path fill-rule="evenodd" clip-rule="evenodd" d="M500.723 243.921H433.227C432.852 243.921 432.547 243.616 432.547 243.24C432.547 242.865 432.852 242.56 433.227 242.56H500.723C501.099 242.56 501.403 242.865 501.403 243.24C501.403 243.616 501.099 243.921 500.723 243.921" fill="#72ACFF"/>
<path fill-rule="evenodd" clip-rule="evenodd" d="M500.859 262.292H460.716C460.34 262.292 460.035 261.987 460.035 261.611C460.035 261.236 460.34 260.931 460.716 260.931H500.859C501.235 260.931 501.54 261.236 501.54 261.611C501.54 261.987 501.235 262.292 500.859 262.292" fill="#72ACFF"/>
<path fill-rule="evenodd" clip-rule="evenodd" d="M500.044 280.662H433.501C433.125 280.662 432.82 280.358 432.82 279.982C432.82 279.606 433.125 279.302 433.501 279.302H500.044C500.419 279.302 500.724 279.606 500.724 279.982C500.724 280.358 500.419 280.662 500.044 280.662" fill="#72ACFF"/>
<path fill-rule="evenodd" clip-rule="evenodd" d="M468.606 299.033H433.634C433.258 299.033 432.953 298.728 432.953 298.353C432.953 297.977 433.258 297.672 433.634 297.672H468.606C468.982 297.672 469.286 297.977 469.286 298.353C469.286 298.728 468.982 299.033 468.606 299.033" fill="#72ACFF"/>
<path fill-rule="evenodd" clip-rule="evenodd" d="M501.132 299.033H477.591C477.215 299.033 476.91 298.728 476.91 298.353C476.91 297.977 477.215 297.672 477.591 297.672H501.132C501.508 297.672 501.813 297.977 501.813 298.353C501.813 298.728 501.508 299.033 501.132 299.033" fill="#72ACFF"/>
<path fill-rule="evenodd" clip-rule="evenodd" d="M501.266 317.404H433.77C433.395 317.404 433.09 317.099 433.09 316.724C433.09 316.348 433.395 316.043 433.77 316.043H501.266C501.642 316.043 501.946 316.348 501.946 316.724C501.946 317.099 501.642 317.404 501.266 317.404" fill="#72ACFF"/>
<path fill-rule="evenodd" clip-rule="evenodd" d="M449.012 335.775H433.907C433.531 335.775 433.227 335.47 433.227 335.094C433.227 334.719 433.531 334.414 433.907 334.414H449.012C449.387 334.414 449.692 334.719 449.692 335.094C449.692 335.47 449.387 335.775 449.012 335.775" fill="#72ACFF"/>
<path fill-rule="evenodd" clip-rule="evenodd" d="M501.402 335.775H459.626C459.25 335.775 458.945 335.47 458.945 335.094C458.945 334.719 459.25 334.414 459.626 334.414H501.402C501.778 334.414 502.083 334.719 502.083 335.094C502.083 335.47 501.778 335.775 501.402 335.775" fill="#72ACFF"/>
<path fill-rule="evenodd" clip-rule="evenodd" d="M348.012 285.414H405.465V267.245H348.012V285.414Z" fill="#72ACFF"/>
<path fill-rule="evenodd" clip-rule="evenodd" d="M331.809 285.414H389.262V267.245H331.809V285.414Z" fill="#CFE4FF"/>
<path fill-rule="evenodd" clip-rule="evenodd" d="M356.18 248.831H413.633V230.661H356.18V248.831Z" fill="#72ACFF"/>
<path fill-rule="evenodd" clip-rule="evenodd" d="M339.973 248.831H397.426V230.661H339.973V248.831Z" fill="#CFE4FF"/>
<path fill-rule="evenodd" clip-rule="evenodd" d="M341.383 303.829H398.836V285.659H341.383V303.829Z" fill="#72ACFF"/>
<path fill-rule="evenodd" clip-rule="evenodd" d="M325.18 303.829H382.633V285.659H325.18V303.829Z" fill="#CFE4FF"/>
<path fill-rule="evenodd" clip-rule="evenodd" d="M341.383 267.245H398.836V249.076H341.383V267.245Z" fill="#72ACFF"/>
<path fill-rule="evenodd" clip-rule="evenodd" d="M325.18 267.245H382.633V249.076H325.18V267.245Z" fill="#CFE4FF"/>
<path fill-rule="evenodd" clip-rule="evenodd" d="M398.934 249.636H331.438C331.063 249.636 330.758 249.331 330.758 248.956C330.758 248.58 331.063 248.275 331.438 248.275H398.934C399.309 248.275 399.614 248.58 399.614 248.956C399.614 249.331 399.309 249.636 398.934 249.636" fill="#72ACFF"/>
<path fill-rule="evenodd" clip-rule="evenodd" d="M399.071 268.007H331.575C331.199 268.007 330.895 267.702 330.895 267.327C330.895 266.951 331.199 266.646 331.575 266.646H399.071C399.446 266.646 399.751 266.951 399.751 267.327C399.751 267.702 399.446 268.007 399.071 268.007" fill="#72ACFF"/>
<path fill-rule="evenodd" clip-rule="evenodd" d="M399.207 286.378H331.712C331.336 286.378 331.031 286.073 331.031 285.697C331.031 285.322 331.336 285.017 331.712 285.017H399.207C399.583 285.017 399.888 285.322 399.888 285.697C399.888 286.073 399.583 286.378 399.207 286.378" fill="#72ACFF"/>
<path fill-rule="evenodd" clip-rule="evenodd" d="M201.791 169.446H211.193L241.355 279.854H162.898L201.791 169.446" fill="white"/>
<path fill-rule="evenodd" clip-rule="evenodd" d="M241.356 280.682H162.899C162.441 280.682 162.07 280.311 162.07 279.854C162.07 279.397 162.441 279.024 162.899 279.024H240.27L210.561 170.275H201.792C201.334 170.275 200.963 169.904 200.963 169.446C200.963 168.988 201.334 168.617 201.792 168.617H211.194C211.567 168.617 211.895 168.867 211.993 169.227L242.153 279.634C242.221 279.884 242.169 280.151 242.014 280.358C241.856 280.562 241.614 280.682 241.356 280.682" fill="#001E57"/>
<path fill-rule="evenodd" clip-rule="evenodd" d="M162.899 279.582L132.738 169.174H193.156L162.899 279.582" fill="white"/>
<path fill-rule="evenodd" clip-rule="evenodd" d="M162.9 280.262C162.601 280.262 162.326 280.064 162.244 279.762L132.083 169.353C132.027 169.148 132.07 168.929 132.198 168.761C132.327 168.592 132.527 168.493 132.739 168.493H193.157C193.533 168.493 193.838 168.798 193.838 169.174C193.838 169.55 193.533 169.854 193.157 169.854H133.63L163.557 279.402C163.656 279.764 163.442 280.14 163.08 280.238C163.02 280.254 162.959 280.262 162.9 280.262" fill="#001E57"/>
<path fill-rule="evenodd" clip-rule="evenodd" d="M176.755 280.535C176.456 280.535 176.182 280.336 176.099 280.034L145.938 169.625C145.839 169.263 146.053 168.889 146.415 168.789C146.777 168.69 147.152 168.904 147.251 169.267L177.412 279.675C177.511 280.037 177.298 280.412 176.935 280.51C176.875 280.526 176.815 280.535 176.755 280.535" fill="#001E57"/>
<path fill-rule="evenodd" clip-rule="evenodd" d="M319.707 352.932H388.487V304.365H319.707V352.932Z" fill="white"/>
<path fill-rule="evenodd" clip-rule="evenodd" d="M320.404 352.232H387.785V305.064H320.404V352.232ZM319.008 353.629H389.182V303.668H319.008V353.629Z" fill="#006BFF"/>
<path fill-rule="evenodd" clip-rule="evenodd" d="M368.629 352.932H416.039V304.365H368.629V352.932Z" fill="white"/>
<path fill-rule="evenodd" clip-rule="evenodd" d="M369.327 352.232H415.341V305.064H369.327V352.232ZM367.934 353.629H416.737V303.668H367.934V353.629Z" fill="#006BFF"/>
<path fill-rule="evenodd" clip-rule="evenodd" d="M368.563 353.629C368.176 353.629 367.863 353.316 367.863 352.932V304.365C367.863 303.981 368.176 303.668 368.563 303.668C368.946 303.668 369.259 303.981 369.259 304.365V352.932C369.259 353.316 368.946 353.629 368.563 353.629" fill="#006BFF"/>
<path fill-rule="evenodd" clip-rule="evenodd" d="M139.099 353.498C139.028 353.498 138.957 353.487 138.886 353.465C138.529 353.348 138.335 352.965 138.452 352.605L162.392 279.626C162.51 279.269 162.894 279.076 163.251 279.193C163.608 279.31 163.802 279.694 163.685 280.05L139.745 353.03C139.651 353.318 139.385 353.498 139.099 353.498" fill="#001E57"/>
<path fill-rule="evenodd" clip-rule="evenodd" d="M190.724 353.571C190.653 353.571 190.582 353.561 190.511 353.539C190.154 353.422 189.96 353.035 190.077 352.679L213.75 280.622C213.867 280.265 214.252 280.072 214.608 280.189C214.964 280.306 215.16 280.69 215.043 281.046L191.37 353.103C191.276 353.389 191.01 353.571 190.724 353.571" fill="#001E57"/>
<path fill-rule="evenodd" clip-rule="evenodd" d="M187.26 294.001C186.974 294.001 186.708 293.819 186.614 293.533L182.369 280.592H163.837C163.461 280.592 163.156 280.287 163.156 279.911C163.156 279.536 163.461 279.231 163.837 279.231H183.355L187.907 293.108C188.024 293.465 187.83 293.851 187.473 293.968C187.402 293.99 187.331 294.001 187.26 294.001" fill="#001E57"/>
<path fill-rule="evenodd" clip-rule="evenodd" d="M341.459 353.498C341.372 353.498 341.287 353.482 341.203 353.449C340.855 353.307 340.686 352.91 340.827 352.562L353.739 320.724C353.88 320.376 354.278 320.21 354.626 320.352C354.972 320.49 355.14 320.888 354.999 321.236L342.088 353.073C341.981 353.337 341.728 353.498 341.459 353.498" fill="#2A0055"/>
<path fill-rule="evenodd" clip-rule="evenodd" d="M360.853 306.844C360.766 306.844 360.676 306.825 360.592 306.79C360.243 306.646 360.08 306.248 360.224 305.9L387.691 239.985C387.835 239.637 388.235 239.474 388.581 239.618C388.929 239.762 389.092 240.162 388.948 240.508L361.479 306.425C361.37 306.686 361.117 306.844 360.853 306.844" fill="#001E57"/>
<path fill-rule="evenodd" clip-rule="evenodd" d="M403.76 353.498C403.493 353.498 403.24 353.34 403.131 353.079L386.728 313.613C386.584 313.267 386.747 312.867 387.096 312.723C387.444 312.581 387.839 312.745 387.983 313.09L404.389 352.556C404.533 352.905 404.37 353.302 404.021 353.446C403.937 353.482 403.847 353.498 403.76 353.498" fill="#2A0055"/>
<path fill-rule="evenodd" clip-rule="evenodd" d="M381.386 299.67C381.12 299.67 380.867 299.512 380.758 299.251L353.67 234.085C353.525 233.737 353.689 233.339 354.037 233.195C354.385 233.051 354.783 233.214 354.927 233.562L382.015 298.728C382.159 299.077 381.993 299.474 381.648 299.618C381.563 299.654 381.473 299.67 381.386 299.67" fill="#001E57"/>
<path fill-rule="evenodd" clip-rule="evenodd" d="M336.037 212.645H317.535L319.838 239.041H333.737L336.037 212.645" fill="#CFE4FF"/>
<path fill-rule="evenodd" clip-rule="evenodd" d="M320.413 238.415H333.163L335.354 213.272H318.222L320.413 238.415ZM333.738 239.667H319.839C319.512 239.667 319.242 239.419 319.213 239.095L316.913 212.699C316.896 212.525 316.956 212.351 317.076 212.222C317.193 212.092 317.362 212.019 317.536 212.019H336.037C336.214 212.019 336.38 212.092 336.5 212.222C336.617 212.351 336.677 212.525 336.663 212.699L334.361 239.095C334.334 239.419 334.062 239.667 333.738 239.667V239.667Z" fill="#72ACFF"/>
<path fill-rule="evenodd" clip-rule="evenodd" d="M327.846 208.245C327.566 208.245 327.305 208.07 327.207 207.792C327.185 207.729 325.059 201.494 331.591 198.51C336.354 196.332 336.093 192.547 335.919 190.043C335.889 189.623 335.864 189.259 335.867 188.942C335.872 188.567 336.185 188.265 336.555 188.269C336.931 188.273 337.233 188.581 337.228 188.957C337.225 189.219 337.249 189.557 337.277 189.949C337.451 192.475 337.777 197.177 332.155 199.747C326.747 202.22 328.415 207.129 328.489 207.337C328.614 207.691 328.429 208.08 328.075 208.206C327.999 208.232 327.922 208.245 327.846 208.245" fill="#72ACFF"/>
<path fill-rule="evenodd" clip-rule="evenodd" d="M325.722 208.834C325.452 208.834 325.199 208.674 325.09 208.411C324.546 207.079 323.376 206.266 322.135 205.404L321.786 205.161C319.612 203.635 318.79 201.752 319.269 199.406C319.345 199.038 319.707 198.799 320.072 198.875C320.439 198.951 320.678 199.31 320.602 199.678C320.232 201.486 320.839 202.833 322.567 204.047L322.913 204.287C324.26 205.223 325.651 206.191 326.35 207.895C326.492 208.243 326.326 208.64 325.977 208.783C325.893 208.817 325.806 208.834 325.722 208.834" fill="#72ACFF"/>
<path fill-rule="evenodd" clip-rule="evenodd" d="M333.079 230.588C332.703 230.588 332.398 230.283 332.398 229.907C332.398 229.532 332.703 229.227 333.079 229.227C336.41 229.227 339.208 226.767 339.733 223.373L340.158 220.64C340.258 219.984 340.07 219.323 339.646 218.825C339.238 218.349 338.674 218.087 338.059 218.087H331.212C330.836 218.087 330.531 217.782 330.531 217.406C330.531 217.031 330.836 216.726 331.212 216.726H338.059C339.063 216.726 340.019 217.169 340.68 217.94C341.363 218.738 341.663 219.799 341.502 220.847L341.077 223.582C340.449 227.643 337.085 230.588 333.079 230.588" fill="#72ACFF"/>
<path fill-rule="evenodd" clip-rule="evenodd" d="M553.25 354.116H492.512C492.137 354.116 491.832 353.811 491.832 353.435C491.832 353.06 492.137 352.755 492.512 352.755H553.25C553.626 352.755 553.931 353.06 553.931 353.435C553.931 353.811 553.626 354.116 553.25 354.116" fill="#2A0055"/>
<path fill-rule="evenodd" clip-rule="evenodd" d="M474.304 354.116H105.294C104.918 354.116 104.613 353.811 104.613 353.435C104.613 353.06 104.918 352.755 105.294 352.755H474.304C474.68 352.755 474.985 353.06 474.985 353.435C474.985 353.811 474.68 354.116 474.304 354.116" fill="#2A0055"/>
<path fill-rule="evenodd" clip-rule="evenodd" d="M110.752 354.116H0.766337C0.390485 354.116 0.0859375 353.811 0.0859375 353.435C0.0859375 353.06 0.390485 352.755 0.766337 352.755H110.752C111.128 352.755 111.432 353.06 111.432 353.435C111.432 353.811 111.128 354.116 110.752 354.116" fill="#2A0055"/>
<path fill-rule="evenodd" clip-rule="evenodd" d="M73.2501 94.3235C73.2501 98.6825 69.7167 102.216 65.3575 102.216C60.9986 102.216 57.4648 98.6825 57.4648 94.3235C57.4648 89.9644 60.9986 86.4309 65.3575 86.4309C69.7167 86.4309 73.2501 89.9644 73.2501 94.3235" fill="#CFE4FF"/>
<path fill-rule="evenodd" clip-rule="evenodd" d="M65.1317 62.6389L41.3672 95.4315L100.376 95.656L65.4038 62.662L65.1317 62.6389" fill="#CFE4FF"/>
<path fill-rule="evenodd" clip-rule="evenodd" d="M64.9756 22.6867L64.984 9.21558L64.9756 22.6867" fill="white"/>
<path fill-rule="evenodd" clip-rule="evenodd" d="M64.9787 23.5325C64.9787 23.5325 64.9784 23.5325 64.9781 23.5325C64.5111 23.5319 64.1325 23.1531 64.1328 22.6861L64.1412 9.21496C64.1415 8.74793 64.5201 8.36963 64.9871 8.36963C64.9871 8.36963 64.9874 8.36963 64.9877 8.36963C65.4547 8.3699 65.8333 8.74875 65.833 9.21605L65.8246 22.6871C65.824 23.1542 65.4454 23.5325 64.9787 23.5325" fill="#F0E6FF"/>
<path fill-rule="evenodd" clip-rule="evenodd" d="M64.9278 62.5214L64.9615 34.5256L64.9278 62.5214" fill="white"/>
<path fill-rule="evenodd" clip-rule="evenodd" d="M64.9279 63.3672C64.9274 63.3672 64.9271 63.3672 64.9268 63.3672C64.4598 63.3666 64.0815 62.9875 64.082 62.5205L64.1158 34.5245C64.1163 34.0577 64.4952 33.6797 64.9617 33.6797C64.9619 33.6797 64.9622 33.6797 64.9627 33.6797C65.4298 33.6802 65.8081 34.0594 65.8075 34.5266L65.7738 62.5224C65.773 62.9891 65.3944 63.3672 64.9279 63.3672" fill="#CFE4FF"/>
<path fill-rule="evenodd" clip-rule="evenodd" d="M64.8969 62.6389L34.0859 94.4789L86.0413 94.7034L64.8969 62.6389" fill="white"/>
<path fill-rule="evenodd" clip-rule="evenodd" d="M36.0711 93.6417L84.4641 93.851L64.7695 63.9847L36.0711 93.6417ZM86.0394 95.5493C86.0383 95.5493 86.0372 95.5493 86.0358 95.5493L34.0802 95.3248C33.7414 95.3231 33.4363 95.1196 33.3046 94.8071C33.1731 94.495 33.2406 94.1343 33.4763 93.8908L64.2873 62.0505C64.4655 61.8662 64.7159 61.7715 64.9737 61.7966C65.2289 61.8205 65.4597 61.959 65.601 62.1732L86.7456 94.238C86.9174 94.4982 86.9318 94.8319 86.7832 95.106C86.6354 95.3792 86.3499 95.5493 86.0394 95.5493V95.5493Z" fill="#CFE4FF"/>
<path fill-rule="evenodd" clip-rule="evenodd" d="M69.5285 87.9218L64.2695 73.1857L69.5285 87.9218" fill="white"/>
<path fill-rule="evenodd" clip-rule="evenodd" d="M69.5266 88.7676C69.1791 88.7676 68.8536 88.5518 68.73 88.2059L63.4714 73.4698C63.3143 73.03 63.5435 72.5458 63.9836 72.389C64.4231 72.2312 64.9075 72.4612 65.0643 72.9012L70.3233 87.6373C70.4803 88.0772 70.2509 88.5613 69.811 88.7181C69.7169 88.7518 69.6211 88.7676 69.5266 88.7676" fill="#CFE4FF"/>
<path fill-rule="evenodd" clip-rule="evenodd" d="M64.7262 108.844L64.7022 115.44L64.7262 108.844" fill="white"/>
<path fill-rule="evenodd" clip-rule="evenodd" d="M64.7053 116.286C64.7044 116.286 64.7033 116.286 64.7023 116.286C64.2352 116.284 63.8577 115.904 63.8594 115.437L63.8836 108.84C63.8852 108.374 64.2635 107.998 64.7292 107.998C64.7303 107.998 64.7314 107.998 64.7325 107.998C65.1995 107.999 65.5767 108.38 65.5751 108.847L65.5511 115.443C65.5495 115.909 65.1712 116.286 64.7053 116.286" fill="#CFE4FF"/>
<path fill-rule="evenodd" clip-rule="evenodd" d="M54.4442 103.815L49.3711 108.031L54.4442 103.815" fill="white"/>
<path fill-rule="evenodd" clip-rule="evenodd" d="M49.3697 108.877C49.1272 108.877 48.8861 108.773 48.719 108.572C48.4201 108.212 48.4694 107.679 48.8286 107.381L53.9017 103.164C54.2607 102.865 54.7941 102.914 55.093 103.274C55.3915 103.633 55.3423 104.166 54.983 104.465L49.9099 108.682C49.7518 108.813 49.5602 108.877 49.3697 108.877" fill="#CFE4FF"/>
<path fill-rule="evenodd" clip-rule="evenodd" d="M75.0469 103.89L80.0889 108.143L75.0469 103.89" fill="white"/>
<path fill-rule="evenodd" clip-rule="evenodd" d="M80.0905 108.989C79.8981 108.989 79.7043 108.924 79.5456 108.79L74.5036 104.536C74.1465 104.235 74.1013 103.702 74.4023 103.345C74.7036 102.987 75.2373 102.942 75.5944 103.243L80.6364 107.497C80.9935 107.798 81.0387 108.332 80.7374 108.689C80.5703 108.887 80.3311 108.989 80.0905 108.989" fill="#CFE4FF"/>
<path fill-rule="evenodd" clip-rule="evenodd" d="M417.519 58.8638L417.323 58.9549L416.972 59.1191C416.959 59.1177 415.982 59.5678 415.982 59.5678L383.23 74.6256L374.281 63.2254L380.511 62.582L416.452 58.8616C416.469 58.8581 417.293 58.7737 417.293 58.7737L417.519 58.8638" fill="#CFE4FF"/>
<path fill-rule="evenodd" clip-rule="evenodd" d="M417.771 59.0031L417.749 59.042L380.539 62.708L381.154 55.7203L417.771 59.0031" fill="#CFE4FF"/>
<path fill-rule="evenodd" clip-rule="evenodd" d="M416.973 59.119L417.748 59.0406L417.726 59.0896L415.982 59.5678L379.333 69.6601L369.355 72.4051L374.282 63.2254L380.517 62.6285L416.959 59.1177L416.973 59.119" fill="white"/>
<path fill-rule="evenodd" clip-rule="evenodd" d="M374.709 63.868L370.705 71.3279L410.212 60.4513L380.582 63.3057L374.709 63.868ZM369.287 73.0822C369.111 73.0643 368.939 72.9755 368.825 72.8294C368.653 72.6166 368.629 72.3234 368.757 72.0834L373.68 62.904C373.789 62.7034 373.988 62.57 374.216 62.5483L380.451 61.9512L416.896 58.4406C416.913 58.4387 416.932 58.4376 416.951 58.4373L417.68 58.3641C417.925 58.3388 418.165 58.4479 418.306 58.6482C418.448 58.8488 418.469 59.1098 418.363 59.3316L418.342 59.3803C418.257 59.5597 418.097 59.6933 417.906 59.7458L416.162 60.224L379.512 70.3163L369.535 73.061C369.453 73.0839 369.369 73.0901 369.287 73.0822V73.0822Z" fill="#72ACFF"/>
<path fill-rule="evenodd" clip-rule="evenodd" d="M417.793 58.9656L417.772 59.0031L417.325 58.955L416.471 58.8581C416.454 58.8616 381.359 55.8763 381.359 55.8763L381.427 55.7522L387.469 49.5439L417.295 58.7737L417.521 58.8638L417.793 58.9656" fill="white"/>
<path fill-rule="evenodd" clip-rule="evenodd" d="M387.667 50.3168L382.801 55.3159C387.605 55.7244 403.684 57.092 411.778 57.7786L387.667 50.3168ZM381.293 56.5534C381.068 56.531 380.869 56.3988 380.763 56.2006C380.654 55.9992 380.651 55.7565 380.76 55.5545L380.828 55.4304C380.858 55.3746 380.893 55.3229 380.94 55.2777L386.982 49.0692C387.158 48.8861 387.425 48.8175 387.67 48.8937L417.496 58.1237C417.512 58.1292 417.532 58.1352 417.548 58.1422L418.03 58.3278C418.217 58.3975 418.367 58.5461 418.432 58.7345C418.5 58.9225 418.484 59.1313 418.383 59.3049L418.362 59.3425C418.228 59.5746 417.97 59.7069 417.703 59.6802C417.703 59.6802 417.7 59.6799 417.7 59.6797L416.394 59.5207C415.518 59.4647 410.635 59.0496 381.302 56.5542C381.299 56.5539 381.296 56.5536 381.293 56.5534V56.5534Z" fill="#72ACFF"/>
<path fill-rule="evenodd" clip-rule="evenodd" d="M450.628 97.2958C450.16 97.2958 449.781 96.9172 449.781 96.4499V64.0408C449.781 63.5738 450.16 63.1949 450.628 63.1949C451.093 63.1949 451.474 63.5738 451.474 64.0408V96.4499C451.474 96.9172 451.093 97.2958 450.628 97.2958" fill="#F0E6FF"/>
<path fill-rule="evenodd" clip-rule="evenodd" d="M468.265 22.1937H521.949V103.132H466.461L468.265 22.1937" fill="white"/>
<path fill-rule="evenodd" clip-rule="evenodd" d="M521.948 103.978H466.46C465.992 103.978 465.613 103.599 465.613 103.132C465.613 102.665 465.992 102.286 466.46 102.286H521.101V23.0396H468.264C467.796 23.0396 467.418 22.6608 467.418 22.1938C467.418 21.7267 467.796 21.3479 468.264 21.3479H521.948C522.416 21.3479 522.794 21.7267 522.794 22.1938V103.132C522.794 103.599 522.416 103.978 521.948 103.978" fill="#72ACFF"/>
<path fill-rule="evenodd" clip-rule="evenodd" d="M479.71 33.1569H509.647V92.169H462.926V55.5502L479.71 33.1569" fill="white"/>
<path fill-rule="evenodd" clip-rule="evenodd" d="M509.647 93.0147H462.926C462.46 93.0147 462.082 92.6361 462.082 92.1691V55.5502C462.082 55.0829 462.46 54.7044 462.926 54.7044C463.394 54.7044 463.772 55.0829 463.772 55.5502V91.3232H508.804V34.0028H479.71C479.242 34.0028 478.863 33.6242 478.863 33.1569C478.863 32.6899 479.242 32.311 479.71 32.311H509.647C510.116 32.311 510.494 32.6899 510.494 33.1569V92.1691C510.494 92.6361 510.116 93.0147 509.647 93.0147" fill="#72ACFF"/>
<path fill-rule="evenodd" clip-rule="evenodd" d="M370.557 137.575C368.723 149.852 357.284 158.319 345.007 156.485C332.73 154.652 324.263 143.213 326.097 130.936C327.932 118.659 339.371 110.193 351.648 112.026C363.925 113.859 372.389 125.298 370.557 137.575" fill="#006BFF"/>
<path fill-rule="evenodd" clip-rule="evenodd" d="M338.451 156.193C325.823 154.307 317.081 142.499 318.967 129.871C319.732 124.757 322.102 120.166 325.823 116.594C326.095 116.334 326.525 116.343 326.786 116.614C327.045 116.885 327.036 117.316 326.764 117.576C323.264 120.937 321.033 125.259 320.314 130.072C318.537 141.958 326.764 153.072 338.65 154.847C350.537 156.623 361.652 148.396 363.427 136.51C365.201 124.624 356.974 113.509 345.089 111.734C340.77 111.089 336.412 111.74 332.488 113.616C332.148 113.777 331.742 113.634 331.579 113.295C331.418 112.956 331.562 112.55 331.9 112.388C336.069 110.394 340.702 109.703 345.29 110.388C357.918 112.274 366.657 124.083 364.771 136.711C362.885 149.34 351.079 158.079 338.451 156.193" fill="#CFE4FF"/>
<path fill-rule="evenodd" clip-rule="evenodd" d="M331.815 140.893C331.625 140.865 331.448 140.757 331.339 140.581C331.138 140.263 331.236 139.843 331.554 139.644L353.311 126.015C353.629 125.816 354.048 125.912 354.247 126.23C354.448 126.549 354.35 126.969 354.032 127.168L332.275 140.797C332.134 140.886 331.971 140.916 331.815 140.893" fill="#CFE4FF"/>
<path fill-rule="evenodd" clip-rule="evenodd" d="M351.106 143.774C350.95 143.751 350.801 143.675 350.692 143.547L333.867 124.157C333.619 123.873 333.649 123.443 333.935 123.197C334.218 122.951 334.648 122.981 334.893 123.265L351.721 142.655C351.966 142.939 351.936 143.369 351.653 143.615C351.495 143.75 351.293 143.802 351.106 143.774" fill="#CFE4FF"/>
<path fill-rule="evenodd" clip-rule="evenodd" d="M181.105 53.3267C185.919 67.581 178.266 83.0386 164.012 87.8521C149.757 92.6657 134.3 85.0126 129.486 70.7582C124.673 56.5038 132.326 41.0463 146.58 36.2328C160.834 31.4191 176.292 39.0723 181.105 53.3267" fill="#72ACFF"/>
<path fill-rule="evenodd" clip-rule="evenodd" d="M156.748 91.0219C142.161 95.948 126.287 88.088 121.36 73.501C116.435 58.9141 124.295 43.0393 138.882 38.1132C141.27 37.3068 143.744 36.8256 146.237 36.6835C146.612 36.662 146.934 36.9486 146.955 37.3239C146.977 37.6989 146.69 38.0214 146.315 38.0419C143.944 38.1774 141.589 38.6352 139.317 39.4027C125.441 44.0884 117.964 59.1895 122.65 73.0656C127.336 86.9417 142.437 94.4184 156.313 89.7327C170.189 85.0469 177.666 69.9455 172.98 56.0695C170.522 48.7905 165.035 42.9356 157.925 40.0055C157.578 39.8623 157.412 39.4644 157.556 39.1172C157.699 38.7696 158.097 38.6041 158.444 38.7473C165.917 41.8273 171.685 47.9825 174.269 55.634C179.195 70.2212 171.335 86.0961 156.748 91.0219" fill="#001E57"/>
<path fill-rule="evenodd" clip-rule="evenodd" d="M149.828 70.3734C149.829 70.3732 149.83 70.3729 149.83 70.3726C150.87 70.0215 151.431 68.8913 151.081 67.8511L144.33 47.7692C143.98 46.7285 142.849 46.1662 141.808 46.5159C141.807 46.5162 141.806 46.5167 141.805 46.517C140.766 46.8678 140.205 47.9984 140.555 49.0383L147.306 69.1204C147.656 70.1612 148.787 70.7232 149.828 70.3734ZM150.266 71.6618C150.265 71.6624 150.263 71.6627 150.262 71.6632C148.509 72.2522 146.605 71.3059 146.016 69.554L139.265 49.4721C138.676 47.7213 139.621 45.8184 141.37 45.2275C141.371 45.2272 141.373 45.2267 141.374 45.2261C143.127 44.6372 145.031 45.5835 145.62 47.3356L152.371 67.4175C152.959 69.168 152.015 71.0713 150.266 71.6618ZM154.202 83.3005L153.985 82.6555C153.986 82.6552 153.987 82.6552 153.988 82.6549C155.027 82.3038 155.588 81.1733 155.238 80.1331L155.178 79.9532C154.828 78.9125 153.696 78.3502 152.655 78.6999C152.654 78.7002 152.654 78.7007 152.653 78.701C152.124 78.8793 151.717 79.2347 151.481 79.7102C151.244 80.1867 151.207 80.7267 151.377 81.231L151.437 81.4112C151.787 82.4519 152.919 83.0139 153.96 82.6642L154.202 83.3005ZM154.423 83.9439C154.422 83.9444 154.42 83.945 154.419 83.9455L154.394 83.9537C152.641 84.5432 150.736 83.5966 150.148 81.8447L150.087 81.6645C149.802 80.8157 149.864 79.9067 150.262 79.1049C150.66 78.3045 151.345 77.706 152.192 77.4202C152.193 77.4197 152.195 77.4191 152.196 77.4189C153.974 76.8212 155.879 77.7675 156.468 79.5197L156.528 79.6998C157.117 81.4504 156.173 83.353 154.423 83.9439V83.9439Z" fill="#001E57"/>
<path fill-rule="evenodd" clip-rule="evenodd" d="M148.337 28.3759C148.019 28.4831 147.664 28.3421 147.511 28.0335L144.821 22.6221C144.654 22.2855 144.791 21.8772 145.128 21.7098C145.466 21.5425 145.873 21.6799 146.04 22.0163L148.729 27.4279C148.896 27.7646 148.759 28.1728 148.423 28.3402C148.394 28.3541 148.366 28.3661 148.337 28.3759" fill="#001E57"/>
<path fill-rule="evenodd" clip-rule="evenodd" d="M156.593 26.4498C156.45 26.498 156.291 26.4993 156.139 26.4427C155.787 26.3121 155.607 25.9204 155.738 25.568L160.252 13.4152C160.383 13.0631 160.775 12.8834 161.127 13.0143C161.479 13.1452 161.659 13.5369 161.528 13.8891L157.014 26.0418C156.94 26.2421 156.781 26.3864 156.593 26.4498" fill="#001E57"/>
<path fill-rule="evenodd" clip-rule="evenodd" d="M332.445 107.191C332.426 107.188 332.407 107.185 332.391 107.181C332.023 107.095 331.795 106.73 331.882 106.364L333.425 99.715C333.509 99.3487 333.879 99.1223 334.241 99.2058C334.606 99.291 334.835 99.6565 334.75 100.023L333.207 106.672C333.126 107.02 332.791 107.243 332.445 107.191" fill="#CFE4FF"/>
<path fill-rule="evenodd" clip-rule="evenodd" d="M325.111 110.224C325.075 110.218 325.04 110.21 325.005 110.199L315.286 107.096C314.929 106.982 314.731 106.599 314.845 106.241C314.959 105.883 315.34 105.685 315.699 105.8L325.418 108.902C325.777 109.017 325.973 109.399 325.859 109.757C325.756 110.08 325.435 110.272 325.111 110.224" fill="#CFE4FF"/>
<path fill-rule="evenodd" clip-rule="evenodd" d="M139.427 142.837L141.657 139.387L127.535 134.282L137.687 141.585L134.128 145.571L137.035 146.538L149.555 150.122L139.427 142.837" fill="#CFE4FF"/>
<path fill-rule="evenodd" clip-rule="evenodd" d="M241.276 128.775L244.474 131.949L253.148 117.952L243.015 127.191L239.542 122.471L237.847 125.371L231.168 137.992L241.276 128.775" fill="#CFE4FF"/>
<path fill-rule="evenodd" clip-rule="evenodd" d="M202.115 95.9203L207.222 96.8024L206.164 77.8843L202.708 93.2804L196.32 91.1211L196.636 94.974L198.668 111.279L202.115 95.9203" fill="#001E57"/>
<path fill-rule="evenodd" clip-rule="evenodd" d="M445.349 352.896H403.031L371.012 290.221H413.33L445.349 352.896" fill="white"/>
<path fill-rule="evenodd" clip-rule="evenodd" d="M403.458 352.2H444.209L412.902 290.917H372.149L403.458 352.2ZM446.49 353.593H402.604L369.871 289.521H413.757L413.95 289.902L446.49 353.593V353.593Z" fill="#006BFF"/>
<path fill-rule="evenodd" clip-rule="evenodd" d="M456.633 352.896H414.315L382.293 290.221H424.611L456.633 352.896" fill="white"/>
<path fill-rule="evenodd" clip-rule="evenodd" d="M414.74 352.2H455.49L424.184 290.917H383.43L414.74 352.2ZM457.771 353.593H413.885L381.152 289.521H425.035L425.231 289.902L457.771 353.593V353.593Z" fill="#006BFF"/>
<path fill-rule="evenodd" clip-rule="evenodd" d="M28.2581 309.558C21.6925 298.179 17.9538 286.9 15.6016 273.986C25.8174 274.465 35.9289 274.324 46.0995 273.121C50.4753 279.234 54.9181 284.119 60.7717 288.835C50.269 296.369 39.5429 303.249 28.2581 309.558" fill="#F0E6FF"/>
<path fill-rule="evenodd" clip-rule="evenodd" d="M28.2581 309.558C21.6925 298.179 17.9538 286.9 15.6016 273.986C25.8174 274.465 35.9289 274.324 46.0995 273.121C50.4753 279.234 54.9181 284.119 60.7717 288.835C50.269 296.369 39.5429 303.249 28.2581 309.558" fill="#F0E6FF"/>
<mask id="mask0" mask-type="alpha" maskUnits="userSpaceOnUse" x="15" y="273" width="46" height="37">
<path fill-rule="evenodd" clip-rule="evenodd" d="M28.2581 309.558C21.6925 298.179 17.9538 286.9 15.6016 273.986C25.8174 274.465 35.9289 274.324 46.0995 273.121C50.4753 279.234 54.9181 284.119 60.7717 288.835C50.269 296.369 39.5429 303.249 28.2581 309.558" fill="white"/>
</mask>
<g mask="url(#mask0)">
<path fill-rule="evenodd" clip-rule="evenodd" d="M46.0995 273.121C35.9289 274.324 25.8174 274.465 15.6016 273.986C17.9538 286.9 21.6925 298.179 28.2581 309.558C39.5429 303.249 50.269 296.369 60.7717 288.835C54.9181 284.119 50.4753 279.234 46.0995 273.121" fill="#F0E6FF"/>
</g>
<path fill-rule="evenodd" clip-rule="evenodd" d="M28.2581 309.558C21.6925 298.179 17.9538 286.9 15.6016 273.986C25.8174 274.465 35.9289 274.324 46.0995 273.121C50.4753 279.234 54.9181 284.119 60.7717 288.835C50.269 296.369 39.5429 303.249 28.2581 309.558" fill="#CFE4FF"/>
<path fill-rule="evenodd" clip-rule="evenodd" d="M277.313 66.5619L254.362 87.2926L240.125 62.4694L256.027 47.5079L277.313 66.5619" fill="#F0E6FF"/>
<path fill-rule="evenodd" clip-rule="evenodd" d="M277.313 66.5619L254.362 87.2926L240.125 62.4694L256.027 47.5079L277.313 66.5619" fill="#F0E6FF"/>
<mask id="mask1" mask-type="alpha" maskUnits="userSpaceOnUse" x="240" y="47" width="38" height="41">
<path fill-rule="evenodd" clip-rule="evenodd" d="M277.309 66.5619L254.358 87.2926L240.121 62.4694L256.023 47.5079L277.309 66.5619" fill="white"/>
</mask>
<g mask="url(#mask1)">
<path fill-rule="evenodd" clip-rule="evenodd" d="M240.121 62.4694L254.358 87.2926L277.309 66.5619L256.023 47.5079L240.121 62.4694" fill="#F0E6FF"/>
</g>
<path fill-rule="evenodd" clip-rule="evenodd" d="M277.313 66.5619L254.362 87.2926L240.125 62.4694L256.027 47.5079L277.313 66.5619" fill="#CFE4FF"/>
<path fill-rule="evenodd" clip-rule="evenodd" d="M512.966 255.918L540.78 270.266C537.566 286.095 530.754 295.702 519.266 297.229L497.406 274.634C506.181 272.911 510.963 266.162 512.966 255.918" fill="white"/>
<path fill-rule="evenodd" clip-rule="evenodd" d="M499.049 275.116L519.573 296.331C529.885 294.763 536.515 286.381 539.822 270.723L513.566 257.181C511.384 267.046 506.507 273.069 499.049 275.116ZM519.265 298.073C519.037 298.073 518.816 297.983 518.656 297.817L496.799 275.222C496.581 274.999 496.505 274.675 496.597 274.381C496.69 274.084 496.937 273.864 497.242 273.804C505.195 272.242 510.066 266.339 512.135 255.754C512.187 255.493 512.358 255.273 512.598 255.156C512.837 255.041 513.117 255.044 513.351 255.167L541.166 269.515C541.504 269.689 541.683 270.065 541.607 270.435C539.944 278.621 537.315 285.08 533.793 289.627C530.057 294.453 525.204 297.291 519.377 298.067C519.339 298.07 519.301 298.073 519.265 298.073V298.073Z" fill="#F0E6FF"/>
<path fill-rule="evenodd" clip-rule="evenodd" d="M508.21 134.992C516.266 142.269 525.716 145.405 536.695 142.824C535.266 152.082 533.837 161.339 532.408 170.597C516.451 167.73 504.863 160.782 495.277 151.743C499.588 146.159 503.899 140.576 508.21 134.992" fill="#CFE4FF"/>
<path fill-rule="evenodd" clip-rule="evenodd" d="M496.508 151.643C506.861 161.223 518.072 166.928 531.65 169.527L535.591 143.997C525.662 145.949 516.501 143.371 508.336 136.323L496.508 151.643ZM532.409 171.511C532.355 171.511 532.3 171.506 532.248 171.496C517.62 168.868 505.675 162.803 494.65 152.408C494.309 152.085 494.266 151.557 494.554 151.185L507.487 134.434C507.642 134.232 507.877 134.105 508.13 134.082C508.383 134.06 508.636 134.144 508.824 134.314C517.056 141.75 526.364 144.314 536.489 141.935C536.783 141.864 537.093 141.947 537.316 142.153C537.539 142.36 537.645 142.663 537.599 142.963L533.313 170.736C533.274 170.98 533.141 171.198 532.94 171.34C532.785 171.452 532.6 171.511 532.409 171.511V171.511Z" fill="#72ACFF"/>
<path fill-rule="evenodd" clip-rule="evenodd" d="M362.137 186.468C370.99 181.475 381.389 182.33 390.243 177.337C394.088 182.153 397.931 186.969 401.777 191.785C393.334 197.174 383.071 196.732 374.629 202.12C370.465 196.902 366.301 191.685 362.137 186.468" fill="white"/>
<path fill-rule="evenodd" clip-rule="evenodd" d="M363.428 186.732L374.821 201.006C378.982 198.516 383.554 197.307 387.985 196.135C392.228 195.013 396.605 193.856 400.515 191.564L390.024 178.42C385.661 180.732 380.939 181.747 376.367 182.729C372.009 183.666 367.513 184.632 363.428 186.732ZM374.628 202.966C374.38 202.966 374.132 202.856 373.966 202.648L361.474 186.995C361.319 186.802 361.256 186.55 361.305 186.307C361.352 186.063 361.504 185.853 361.719 185.731C366.259 183.171 371.217 182.106 376.01 181.076C380.683 180.072 385.511 179.034 389.828 176.6C390.19 176.396 390.644 176.485 390.903 176.809L402.437 191.258C402.587 191.445 402.649 191.687 402.608 191.924C402.57 192.16 402.431 192.369 402.23 192.498C397.897 195.264 393.08 196.538 388.418 197.771C383.881 198.97 379.192 200.21 375.082 202.833C374.943 202.923 374.785 202.966 374.628 202.966V202.966Z" fill="#CFE4FF"/>
<path fill-rule="evenodd" clip-rule="evenodd" d="M404.401 123.37C414.28 125.365 421.528 132.749 431.41 134.744C431.17 140.85 430.931 146.956 430.694 153.062C420.866 151.632 413.45 144.644 403.625 143.214C403.884 136.599 404.142 129.985 404.401 123.37" fill="#CFE4FF"/>
<path fill-rule="evenodd" clip-rule="evenodd" d="M331.983 164.994C329.357 164.994 327.22 167.131 327.22 169.757C327.22 172.383 329.357 174.52 331.983 174.52C334.609 174.52 336.746 172.383 336.746 169.757C336.746 167.131 334.609 164.994 331.983 164.994ZM331.983 175.881C328.605 175.881 325.859 173.134 325.859 169.757C325.859 166.381 328.605 163.634 331.983 163.634C335.36 163.634 338.107 166.381 338.107 169.757C338.107 173.134 335.36 175.881 331.983 175.881V175.881Z" fill="#001E57"/>
<path fill-rule="evenodd" clip-rule="evenodd" d="M345.863 27.2918C345.863 41.8312 334.076 53.617 319.537 53.617C304.998 53.617 293.211 41.8312 293.211 27.2918C293.211 12.7528 304.998 0.966064 319.537 0.966064C334.076 0.966064 345.863 12.7528 345.863 27.2918" fill="white"/>
<path fill-rule="evenodd" clip-rule="evenodd" d="M319.538 1.64644C305.396 1.64644 293.892 13.1509 293.892 27.2918C293.892 41.4324 305.396 52.9366 319.538 52.9366C333.679 52.9366 345.183 41.4324 345.183 27.2918C345.183 13.1509 333.679 1.64644 319.538 1.64644ZM319.538 54.2974C304.648 54.2974 292.531 42.1825 292.531 27.2918C292.531 12.4006 304.648 0.285645 319.538 0.285645C334.43 0.285645 346.544 12.4006 346.544 27.2918C346.544 42.1825 334.43 54.2974 319.538 54.2974V54.2974Z" fill="#72ACFF"/>
<path fill-rule="evenodd" clip-rule="evenodd" d="M319.536 24.7064C319.31 24.7064 319.09 24.5934 318.959 24.3874C318.76 24.0693 318.856 23.6493 319.174 23.4496L326.993 18.5406C327.312 18.3411 327.731 18.4369 327.932 18.7551C328.131 19.0732 328.036 19.4934 327.717 19.6932L319.898 24.6019C319.786 24.6726 319.661 24.7064 319.536 24.7064" fill="#CFE4FF"/>
<path fill-rule="evenodd" clip-rule="evenodd" d="M319.536 7.00585C319.16 7.00585 318.855 6.70103 318.855 6.32545V2.37913C318.855 2.00328 319.16 1.69873 319.536 1.69873C319.911 1.69873 320.216 2.00328 320.216 2.37913V6.32545C320.216 6.70103 319.911 7.00585 319.536 7.00585" fill="#CFE4FF"/>
<path fill-rule="evenodd" clip-rule="evenodd" d="M319.536 51.504C319.16 51.504 318.855 51.1992 318.855 50.8236V46.8773C318.855 46.5014 319.16 46.1969 319.536 46.1969C319.911 46.1969 320.216 46.5014 320.216 46.8773V50.8236C320.216 51.1992 319.911 51.504 319.536 51.504" fill="#CFE4FF"/>
<path fill-rule="evenodd" clip-rule="evenodd" d="M342.127 25.6489H338.18C337.805 25.6489 337.5 25.3441 337.5 24.9685C337.5 24.5926 337.805 24.2881 338.18 24.2881H342.127C342.502 24.2881 342.807 24.5926 342.807 24.9685C342.807 25.3441 342.502 25.6489 342.127 25.6489" fill="#CFE4FF"/>
<path fill-rule="evenodd" clip-rule="evenodd" d="M300.892 25.6489H296.946C296.57 25.6489 296.266 25.3441 296.266 24.9685C296.266 24.5926 296.57 24.2881 296.946 24.2881H300.892C301.268 24.2881 301.573 24.5926 301.573 24.9685C301.573 25.3441 301.268 25.6489 300.892 25.6489" fill="#CFE4FF"/>
<path fill-rule="evenodd" clip-rule="evenodd" d="M322.23 24.0257C322.23 25.513 321.024 26.7187 319.535 26.7187C318.049 26.7187 316.844 25.513 316.844 24.0257C316.844 22.5383 318.049 21.3326 319.535 21.3326C321.024 21.3326 322.23 22.5383 322.23 24.0257" fill="#CFE4FF"/>
<path fill-rule="evenodd" clip-rule="evenodd" d="M319.536 24.7064C319.289 24.7064 319.047 24.5684 318.93 24.33L310.825 8.12665C310.659 7.79053 310.795 7.38175 311.129 7.21382C311.467 7.04536 311.875 7.18171 312.044 7.51783L320.146 23.7214C320.315 24.0575 320.179 24.4663 319.841 24.6342C319.743 24.6832 319.64 24.7064 319.536 24.7064" fill="#CFE4FF"/>
<path fill-rule="evenodd" clip-rule="evenodd" d="M354.315 61.5603C353.983 61.5271 353.719 61.2555 353.703 60.9137C353.686 60.5381 353.978 60.2202 354.353 60.2033C357.551 60.0599 359.404 60.0882 359.483 60.0896C359.859 60.0969 360.158 60.4053 360.153 60.7809C360.145 61.1567 359.837 61.4561 359.462 61.4501C359.443 61.4498 357.565 61.4212 354.413 61.5628C354.38 61.5644 354.348 61.5633 354.315 61.5603ZM344.221 62.3577C343.908 62.3264 343.649 62.0807 343.614 61.756C343.57 61.3823 343.84 61.0462 344.215 61.0043C345.9 60.8165 347.601 60.654 349.275 60.5212C349.65 60.4905 349.977 60.7708 350.007 61.1455C350.037 61.52 349.756 61.848 349.384 61.8777C347.723 62.0094 346.036 62.1705 344.365 62.3567C344.316 62.3621 344.267 62.3624 344.221 62.3577ZM334.208 63.7975C333.911 63.7681 333.661 63.546 333.604 63.2393C333.538 62.8691 333.786 62.5159 334.156 62.4506C335.805 62.1585 337.496 61.888 339.172 61.6471C339.545 61.5941 339.891 61.8518 339.942 62.2238C339.997 62.5956 339.738 62.9404 339.365 62.9941C337.702 63.233 336.029 63.5011 334.393 63.7907C334.33 63.8018 334.268 63.8037 334.208 63.7975ZM324.318 65.9021C324.04 65.8746 323.798 65.6767 323.727 65.3904C323.634 65.0263 323.855 64.6564 324.22 64.565C325.834 64.1603 327.499 63.7752 329.17 63.4203C329.538 63.3421 329.9 63.5767 329.976 63.9444C330.055 64.3121 329.821 64.6733 329.453 64.7514C327.799 65.1028 326.149 65.4843 324.552 65.8849C324.473 65.9048 324.394 65.91 324.318 65.9021ZM314.623 68.7464C314.365 68.7208 314.133 68.5488 314.044 68.2881C313.924 67.9324 314.114 67.5459 314.471 67.4251C316.044 66.8911 317.674 66.3765 319.315 65.8956C319.677 65.79 320.056 65.9971 320.162 66.3574C320.265 66.718 320.058 67.0961 319.699 67.2016C318.074 67.6771 316.463 68.1858 314.909 68.7138C314.814 68.7459 314.716 68.756 314.623 68.7464ZM305.223 72.4394C304.989 72.416 304.774 72.272 304.67 72.0423C304.515 71.6999 304.668 71.2968 305.008 71.142C306.524 70.458 308.1 69.794 309.694 69.168C310.046 69.0314 310.44 69.2034 310.576 69.5534C310.715 69.9031 310.541 70.298 310.193 70.4352C308.617 71.0524 307.063 71.7073 305.569 72.3819C305.457 72.4331 305.337 72.4508 305.223 72.4394ZM296.293 77.1064C296.086 77.0857 295.893 76.9716 295.776 76.7806C295.583 76.4586 295.686 76.0403 296.01 75.8465C297.431 74.9898 298.922 74.1534 300.444 73.3606C300.776 73.187 301.187 73.3157 301.361 73.6491C301.535 73.9822 301.404 74.3932 301.072 74.5671C299.576 75.3471 298.109 76.1696 296.712 77.0119C296.582 77.0906 296.435 77.1205 296.293 77.1064ZM288.05 82.8903C287.878 82.8729 287.709 82.7896 287.592 82.6437C287.353 82.3531 287.396 81.9244 287.688 81.6865C288.975 80.633 290.341 79.6004 291.743 78.6174C292.05 78.4018 292.475 78.4767 292.693 78.7845C292.908 79.0923 292.831 79.5166 292.524 79.7322C291.147 80.6959 289.81 81.7078 288.55 82.7398C288.403 82.8587 288.224 82.9075 288.05 82.8903ZM280.813 89.8873C280.677 89.8737 280.543 89.8198 280.435 89.7237C280.149 89.4771 280.119 89.0477 280.367 88.7638C281.463 87.5004 282.644 86.2575 283.877 85.0695C284.147 84.8082 284.58 84.8167 284.838 85.0869C285.099 85.3572 285.091 85.788 284.822 86.0487C283.619 87.2092 282.465 88.4233 281.393 89.6565C281.243 89.8298 281.022 89.9085 280.813 89.8873ZM274.951 98.0564C274.855 98.0472 274.763 98.0181 274.676 97.9674C274.352 97.7783 274.24 97.3619 274.431 97.0372C275.277 95.5792 276.211 94.1406 277.204 92.7605C277.422 92.4548 277.849 92.3857 278.151 92.6048C278.456 92.8239 278.527 93.249 278.309 93.5541C277.343 94.8991 276.434 96.3013 275.606 97.7214C275.468 97.9593 275.206 98.082 274.951 98.0564ZM270.754 107.185C270.702 107.18 270.648 107.169 270.596 107.15C270.242 107.027 270.054 106.638 270.18 106.284C270.74 104.678 271.38 103.088 272.082 101.559C272.24 101.218 272.645 101.069 272.986 101.225C273.326 101.382 273.475 101.786 273.318 102.128C272.634 103.617 272.008 105.167 271.464 106.732C271.358 107.035 271.059 107.216 270.754 107.185ZM268.307 116.939C268.293 116.938 268.28 116.936 268.264 116.934C267.893 116.874 267.64 116.525 267.7 116.154C267.972 114.463 268.318 112.783 268.723 111.161C268.813 110.797 269.183 110.574 269.548 110.666C269.913 110.758 270.133 111.127 270.043 111.492C269.646 113.076 269.311 114.717 269.045 116.37C268.987 116.728 268.661 116.975 268.307 116.939V116.939Z" fill="#CFE4FF"/>
<path fill-rule="evenodd" clip-rule="evenodd" d="M262.066 320.577L271.279 337.626H294.75L283.096 314.666L262.066 320.577" fill="#FFBFAA"/>
<path fill-rule="evenodd" clip-rule="evenodd" d="M268.344 331.377L270.788 353.653L310.964 353.754L306.218 344.653L294.158 335.837L294.536 327.273L285.863 327.248L282.077 333.211L268.344 331.377" fill="#006BFF"/>
<path fill-rule="evenodd" clip-rule="evenodd" d="M308.717 350.188H308.714L282.375 350.123C282.173 350.123 281.98 350.042 281.841 349.897C281.7 349.756 281.624 349.56 281.626 349.361C281.626 349.339 281.618 347.026 279.688 345.08C277.83 343.202 274.847 342.247 270.819 342.233C270.402 342.233 270.068 341.896 270.07 341.482C270.07 341.068 270.408 340.734 270.821 340.734C275.285 340.745 278.635 341.86 280.785 344.051C282.432 345.728 282.922 347.603 283.066 348.624L308.72 348.689C309.133 348.689 309.468 349.026 309.468 349.44C309.465 349.854 309.131 350.188 308.717 350.188" fill="white"/>
<path fill-rule="evenodd" clip-rule="evenodd" d="M306.219 345.404V345.404L288.515 345.355C288.246 345.352 287.998 345.208 287.865 344.974L281.425 333.579C281.221 333.219 281.349 332.759 281.711 332.555C282.07 332.351 282.53 332.479 282.734 332.841L288.956 343.853L306.222 343.902C306.638 343.902 306.973 344.239 306.97 344.655C306.97 345.069 306.633 345.404 306.219 345.404" fill="white"/>
<path fill-rule="evenodd" clip-rule="evenodd" d="M299.718 339.697C299.715 339.697 299.715 339.697 299.715 339.697L293.491 339.68C293.077 339.68 292.739 339.343 292.742 338.926C292.742 338.513 293.085 338.175 293.496 338.178L299.718 338.197C300.134 338.197 300.469 338.535 300.466 338.948C300.466 339.362 300.131 339.697 299.718 339.697" fill="white"/>
<path fill-rule="evenodd" clip-rule="evenodd" d="M297.863 337.389C297.863 337.389 297.863 337.389 297.861 337.389L291.639 337.372C291.223 337.37 290.888 337.032 290.891 336.619C290.891 336.205 291.228 335.87 291.642 335.87L297.866 335.886C298.28 335.889 298.617 336.224 298.615 336.64C298.615 337.054 298.277 337.389 297.863 337.389" fill="white"/>
<path fill-rule="evenodd" clip-rule="evenodd" d="M247.017 321.848L245.288 337.198H226.566L226.912 318.436L247.017 321.848" fill="#FFBFAA"/>
<path fill-rule="evenodd" clip-rule="evenodd" d="M198.871 176.309L200.822 180.075C203.649 184.996 208.466 188.453 214.032 189.557L240.374 195.988C243.3 196.702 246.367 195.559 248.109 193.102L274.718 156.583L260.147 148.626L236.455 174.607L220.898 168.707C212.683 165.591 203.415 168.789 198.871 176.309" fill="#72ACFF"/>
<path fill-rule="evenodd" clip-rule="evenodd" d="M234.322 241.058L207.098 279.609H228.425L223.512 323.873H260.676L273.66 258.612C274.624 253.773 271.241 249.149 266.342 248.597L234.322 241.058" fill="#001E57"/>
<path fill-rule="evenodd" clip-rule="evenodd" d="M188.684 167.628C197.533 180.154 204.844 193.753 205.948 207.643C211.218 190.149 206.985 175.473 204.982 167.677L200.087 166.441L188.684 167.628" fill="white"/>
<path fill-rule="evenodd" clip-rule="evenodd" d="M176.132 170.169L170.312 241.926L228.56 240.745L226.008 170.169L207.989 167.677L204.86 166.881C206.864 174.677 211.215 190.149 205.945 207.643C204.841 193.753 197.53 180.154 188.681 167.628L176.132 170.169" fill="#72ACFF"/>
<path fill-rule="evenodd" clip-rule="evenodd" d="M188.684 167.628L202.619 182.588L204.982 167.677L200.925 140.494H186.039L188.684 167.628" fill="#FFBFAA"/>
<path fill-rule="evenodd" clip-rule="evenodd" d="M218.339 225.441L199.769 221.405L195.141 236.959H208.777L218.339 225.441" fill="#FFBFAA"/>
<path fill-rule="evenodd" clip-rule="evenodd" d="M202.595 165.524L209.829 163.203C213.539 162.012 215.581 158.039 214.391 154.329L208.775 136.833L188.105 143.468L193.721 160.963C194.912 164.673 198.885 166.715 202.595 165.524" fill="#FFBFAA"/>
<path fill-rule="evenodd" clip-rule="evenodd" d="M186.747 146.966C189.993 148.15 193.482 148.507 196.91 148.079C199.627 147.739 202.333 147.261 204.98 146.611C207.222 146.061 209.556 145.487 211.547 144.276C212.901 143.452 214.031 142.273 213.813 140.56C213.572 138.658 211.52 137.318 209.761 137.005C209.761 137.005 214.532 133.561 209.493 131.489C209.348 131.428 209.075 128.707 209.003 128.431C208.017 124.671 204.202 123.019 200.827 124.995C194.364 128.778 193.521 137.978 186.467 141.065C180.537 143.661 183.244 145.688 186.747 146.966" fill="#001E57"/>
<path fill-rule="evenodd" clip-rule="evenodd" d="M197.153 132.585C197.153 132.585 181.231 131.181 179.915 139.257C178.599 147.334 189.023 157.993 191.511 159.149C193.999 160.304 193.288 144.899 193.288 144.899L197.153 132.585" fill="#001E57"/>
<path fill-rule="evenodd" clip-rule="evenodd" d="M193.31 161.176V161.176C195.56 160.454 196.799 158.045 196.077 155.795L195.612 154.346C194.89 152.096 192.48 150.857 190.23 151.58C187.98 152.302 186.741 154.711 187.464 156.961L187.929 158.41C188.651 160.66 191.06 161.898 193.31 161.176" fill="#FFBFAA"/>
<path fill-rule="evenodd" clip-rule="evenodd" d="M193.352 158.005C193.223 158.005 193.091 157.971 192.971 157.9L189.756 156.001C189.399 155.79 189.28 155.33 189.491 154.972C189.702 154.615 190.163 154.497 190.52 154.708L193.735 156.607C194.092 156.818 194.21 157.279 194 157.636C193.859 157.873 193.609 158.005 193.352 158.005" fill="#2A0055"/>
<path fill-rule="evenodd" clip-rule="evenodd" d="M206.344 221.723C205.936 221.723 205.601 221.397 205.593 220.986L205.383 210.33C205.375 209.916 205.704 209.573 206.119 209.564C206.124 209.564 206.129 209.564 206.134 209.564C206.542 209.564 206.877 209.891 206.885 210.3L207.095 220.956C207.103 221.372 206.773 221.715 206.359 221.723C206.354 221.723 206.349 221.723 206.344 221.723" fill="#001E57"/>
<path fill-rule="evenodd" clip-rule="evenodd" d="M186.813 146.291C182.705 146.291 179.847 144.812 178.535 142.001C178.36 141.625 178.523 141.179 178.898 141.003C179.275 140.829 179.721 140.991 179.896 141.366C180.989 143.708 183.422 144.864 187.127 144.786C187.534 144.781 187.884 145.108 187.892 145.523C187.9 145.937 187.571 146.28 187.156 146.288C187.041 146.29 186.927 146.291 186.813 146.291" fill="#006BFF"/>
<path fill-rule="evenodd" clip-rule="evenodd" d="M185.027 149.264C185.02 149.264 185.014 149.264 185.007 149.264C183.183 149.214 181.617 148.581 180.352 147.382C180.051 147.096 180.038 146.621 180.323 146.32C180.608 146.019 181.084 146.006 181.385 146.292C182.373 147.229 183.605 147.723 185.047 147.763C185.462 147.774 185.789 148.119 185.778 148.534C185.766 148.941 185.433 149.264 185.027 149.264" fill="#006BFF"/>
<path fill-rule="evenodd" clip-rule="evenodd" d="M198.638 134.397C198.437 134.397 198.236 134.317 198.089 134.158C196.971 132.96 194.311 132.826 193.381 132.876C192.967 132.897 192.613 132.581 192.591 132.166C192.569 131.752 192.887 131.399 193.301 131.377C193.467 131.368 197.367 131.184 199.186 133.134C199.469 133.437 199.453 133.912 199.15 134.195C199.005 134.33 198.821 134.397 198.638 134.397" fill="#006BFF"/>
<path fill-rule="evenodd" clip-rule="evenodd" d="M249.488 336.33V353.762H223.039V336.112L231.095 334.047L232.902 327.316H244.197L246.366 333.892L249.488 336.33" fill="#006BFF"/>
<path fill-rule="evenodd" clip-rule="evenodd" d="M249.489 350.199C249.247 350.199 249.007 350.082 248.863 349.865L247.328 347.554C245.504 344.808 242.448 343.169 239.152 343.169C235.41 343.169 232.043 345.249 230.369 348.596L229.776 349.783C229.651 350.039 229.39 350.199 229.104 350.199H223.04C222.627 350.199 222.289 349.862 222.289 349.448C222.289 349.034 222.627 348.697 223.04 348.697H228.641L229.028 347.924C230.957 344.065 234.836 341.667 239.152 341.667C242.951 341.667 246.476 343.559 248.58 346.724L250.115 349.032C250.343 349.377 250.248 349.846 249.902 350.074C249.774 350.159 249.63 350.199 249.489 350.199" fill="white"/>
<path fill-rule="evenodd" clip-rule="evenodd" d="M243.682 335.391H234.611C234.197 335.391 233.859 335.054 233.859 334.64C233.859 334.226 234.197 333.889 234.611 333.889H243.682C244.095 333.889 244.433 334.226 244.433 334.64C244.433 335.054 244.095 335.391 243.682 335.391" fill="white"/>
<path fill-rule="evenodd" clip-rule="evenodd" d="M242.364 337.949H235.927C235.513 337.949 235.176 337.612 235.176 337.198C235.176 336.785 235.513 336.447 235.927 336.447H242.364C242.777 336.447 243.115 336.785 243.115 337.198C243.115 337.612 242.777 337.949 242.364 337.949" fill="white"/>
<path fill-rule="evenodd" clip-rule="evenodd" d="M241.33 340.508H236.962C236.548 340.508 236.211 340.173 236.211 339.757C236.211 339.343 236.548 339.005 236.962 339.005H241.33C241.744 339.005 242.081 339.343 242.081 339.757C242.081 340.173 241.744 340.508 241.33 340.508" fill="white"/>
<path fill-rule="evenodd" clip-rule="evenodd" d="M244.546 344.653C244.408 344.653 244.263 344.615 244.138 344.53C243.79 344.304 243.692 343.839 243.92 343.491L248.86 335.922C249.086 335.573 249.551 335.475 249.9 335.701C250.245 335.93 250.343 336.395 250.117 336.741L245.178 344.312C245.034 344.533 244.791 344.653 244.546 344.653" fill="white"/>
<path fill-rule="evenodd" clip-rule="evenodd" d="M205.945 240.024L218.33 223.596C218.404 223.498 218.48 223.4 218.556 223.305C221.035 220.27 225.409 219.582 228.795 221.552L247.34 232.354L238.895 239.735L205.945 240.024" fill="#FFBFAA"/>
<path fill-rule="evenodd" clip-rule="evenodd" d="M233.756 344.653C233.505 344.653 233.258 344.525 233.116 344.296L228.669 337.054C227.983 339.675 225.667 341.637 222.839 341.768C222.428 341.79 222.075 341.466 222.055 341.052C222.036 340.638 222.355 340.287 222.769 340.268C225.351 340.148 227.374 338.028 227.374 335.44C227.374 335.209 227.357 334.975 227.325 334.746C227.273 334.395 227.477 334.055 227.812 333.935C228.146 333.813 228.519 333.943 228.707 334.248L234.395 343.51C234.613 343.863 234.501 344.326 234.148 344.541C234.025 344.617 233.892 344.653 233.756 344.653" fill="white"/>
<path fill-rule="evenodd" clip-rule="evenodd" d="M211.156 240.728C210.744 240.728 210.409 240.396 210.405 239.985C210.401 239.569 210.735 239.232 211.149 239.226L238.61 238.987C239.562 238.154 243.536 234.681 245.596 232.882C244.613 232.433 243.394 231.578 241.914 230.438C241.674 230.256 241.486 230.109 241.369 230.03C240.841 229.66 240.245 229.23 239.614 228.772C233.746 224.53 223.924 217.423 218.93 224.048L217.735 225.632C217.558 225.866 217.264 225.975 216.976 225.912L200.29 222.287L196.854 233.835C196.736 234.232 196.318 234.461 195.92 234.341C195.522 234.224 195.296 233.805 195.414 233.407L199.049 221.19C199.161 220.815 199.545 220.589 199.928 220.67L216.826 224.344L217.729 223.144C223.611 215.343 234.592 223.288 240.496 227.556C241.119 228.008 241.709 228.435 242.229 228.797C242.357 228.887 242.564 229.045 242.828 229.249C245.539 231.334 246.546 231.766 246.908 231.742C247.215 231.521 247.648 231.568 247.904 231.859C248.176 232.169 248.149 232.643 247.839 232.917C247.839 232.917 247.836 232.917 247.833 232.92C247.833 232.92 247.833 232.923 247.83 232.923C247.621 233.108 242.477 237.601 239.388 240.301C239.255 240.418 239.08 240.484 238.901 240.486L211.163 240.728C211.16 240.728 211.158 240.728 211.156 240.728V240.728Z" fill="#2A0055"/>
<path fill-rule="evenodd" clip-rule="evenodd" d="M205.946 208.394C205.801 208.394 205.654 208.352 205.525 208.265C205.182 208.032 205.092 207.565 205.324 207.222C208.582 202.413 211.044 192.603 213.022 184.72C213.375 183.313 213.711 181.975 214.038 180.711L208.731 176.028C208.531 175.852 208.44 175.583 208.49 175.322C208.54 175.062 208.725 174.847 208.975 174.757L213.207 173.246L208.367 170.075C208.02 169.848 207.923 169.383 208.151 169.036C208.378 168.689 208.844 168.592 209.191 168.819L215.294 172.817C215.531 172.973 215.661 173.251 215.626 173.534C215.593 173.817 215.403 174.057 215.133 174.152L210.679 175.743L215.378 179.89C215.591 180.078 215.68 180.369 215.607 180.643C215.245 182.031 214.872 183.515 214.477 185.086C212.471 193.083 209.974 203.036 206.568 208.064C206.423 208.279 206.186 208.394 205.946 208.394" fill="#001E57"/>
<path fill-rule="evenodd" clip-rule="evenodd" d="M202.742 204.935C202.48 204.935 202.225 204.797 202.087 204.552C197.559 196.507 192.149 187.498 186.352 181.683C186.176 181.507 186.099 181.255 186.146 181.011C186.193 180.766 186.358 180.561 186.587 180.463L190.354 178.84L186.691 177.867C186.34 177.774 186.106 177.443 186.135 177.081L186.892 167.765C186.925 167.351 187.286 167.042 187.701 167.077C188.114 167.11 188.422 167.473 188.389 167.886L187.683 176.577L192.837 177.946C193.146 178.029 193.37 178.298 193.393 178.617C193.417 178.936 193.235 179.235 192.941 179.362L188.182 181.411C193.812 187.352 199.016 196.034 203.396 203.815C203.599 204.177 203.471 204.635 203.11 204.838C202.993 204.904 202.867 204.935 202.742 204.935" fill="#001E57"/>
<path fill-rule="evenodd" clip-rule="evenodd" d="M206.132 211.065C205.737 211.065 205.406 210.758 205.383 210.359C205.331 209.478 205.269 208.585 205.198 207.703C205.165 207.289 205.473 206.928 205.886 206.895C206.303 206.862 206.662 207.17 206.695 207.583C206.766 208.475 206.829 209.379 206.882 210.27C206.907 210.684 206.591 211.04 206.177 211.064C206.162 211.065 206.147 211.065 206.132 211.065" fill="#2A0055"/>
<path fill-rule="evenodd" clip-rule="evenodd" d="M200.581 211.61C199.805 211.61 199.174 212.241 199.174 213.017C199.174 213.794 199.805 214.425 200.581 214.425C201.357 214.425 201.989 213.794 201.989 213.017C201.989 212.241 201.357 211.61 200.581 211.61ZM200.581 215.927C198.977 215.927 197.672 214.622 197.672 213.017C197.672 211.413 198.977 210.108 200.581 210.108C202.185 210.108 203.491 211.413 203.491 213.017C203.491 214.622 202.185 215.927 200.581 215.927V215.927Z" fill="#001E57"/>
<path fill-rule="evenodd" clip-rule="evenodd" d="M159.126 209.658C157.129 209.658 155.961 208.973 155.89 208.93C155.535 208.716 155.421 208.254 155.636 207.899C155.849 207.545 156.307 207.431 156.662 207.642C156.756 207.696 158.766 208.818 162.156 207.582C162.545 207.439 162.976 207.64 163.118 208.03C163.261 208.42 163.06 208.851 162.67 208.993C161.307 209.49 160.115 209.658 159.126 209.658" fill="white"/>
<path fill-rule="evenodd" clip-rule="evenodd" d="M203.322 165.392C202.322 165.392 201.334 165.283 200.368 165.066C199.963 164.975 199.709 164.573 199.8 164.168C199.891 163.764 200.293 163.509 200.697 163.6C201.985 163.89 203.319 163.963 204.664 163.817C205.076 163.774 205.447 164.07 205.492 164.483C205.537 164.895 205.239 165.266 204.827 165.31C204.323 165.365 203.821 165.392 203.322 165.392" fill="#2A0055"/>
<path fill-rule="evenodd" clip-rule="evenodd" d="M176.135 170.169L172.067 171.498C166.781 173.549 162.642 177.788 160.713 183.123L147.312 229.363C146.092 233.571 149.235 237.778 153.617 237.803L198.044 237.999L207.101 220.972L177.905 217.739L185.621 181.103L176.135 170.169" fill="#72ACFF"/>
<path fill-rule="evenodd" clip-rule="evenodd" d="M194.558 236.077C194.131 236.657 193.315 236.782 192.734 236.355C192.154 235.93 192.03 235.114 192.457 234.531C192.883 233.952 193.7 233.829 194.28 234.254C194.86 234.681 194.985 235.498 194.558 236.077" fill="#001E57"/>
<path fill-rule="evenodd" clip-rule="evenodd" d="M198.11 236.094C198.029 236.094 197.946 236.08 197.864 236.05C197.472 235.914 197.265 235.487 197.401 235.095L201.48 223.343C201.616 222.951 202.043 222.741 202.435 222.88C202.827 223.014 203.034 223.444 202.899 223.835L198.82 235.587C198.712 235.898 198.421 236.094 198.11 236.094" fill="#001E57"/>
<path fill-rule="evenodd" clip-rule="evenodd" d="M207.1 221.359C207.079 221.359 207.059 221.359 207.038 221.356L166.304 218.054C165.904 218.021 165.6 217.68 165.614 217.279C165.628 216.878 165.955 216.559 166.356 216.554L175.319 216.458L179.64 208.616C179.684 208.538 179.74 208.468 179.809 208.409C179.863 208.362 185.368 203.504 186.235 194.438C186.275 194.025 186.639 193.726 187.054 193.762C187.467 193.802 187.77 194.168 187.73 194.581C186.86 203.677 181.726 208.695 180.894 209.454L176.528 217.376L207.16 219.859C207.573 219.892 207.881 220.254 207.847 220.668C207.815 221.062 207.487 221.359 207.1 221.359" fill="white"/>
<path fill-rule="evenodd" clip-rule="evenodd" d="M202.693 238.505H170.653C170.238 238.505 169.902 238.17 169.902 237.754C169.902 237.34 170.238 237.003 170.653 237.003H202.693C203.108 237.003 203.444 237.34 203.444 237.754C203.444 238.17 203.108 238.505 202.693 238.505" fill="white"/>
<path fill-rule="evenodd" clip-rule="evenodd" d="M170.318 241.643L170.312 253.966C170.312 268.129 181.793 279.609 195.955 279.609H228.424L257.213 323.873H294.38L248.08 246.539L234.322 241.058L170.318 241.643" fill="#001E57"/>
<path fill-rule="evenodd" clip-rule="evenodd" d="M269.086 282.372C268.83 282.372 268.582 282.241 268.441 282.007L252.065 254.655C250.671 252.325 248.116 250.877 245.4 250.877H214.306C213.891 250.877 213.555 250.543 213.555 250.126C213.555 249.712 213.891 249.375 214.306 249.375H245.4C248.641 249.375 251.689 251.103 253.355 253.885L269.728 281.237C269.943 281.591 269.826 282.053 269.472 282.266C269.35 282.339 269.216 282.372 269.086 282.372" fill="white"/>
<path fill-rule="evenodd" clip-rule="evenodd" d="M257.22 324.624C256.972 324.624 256.733 324.505 256.588 324.284L227.797 280.017C227.571 279.672 227.671 279.206 228.017 278.98C228.365 278.755 228.831 278.853 229.057 279.201L257.848 323.465C258.074 323.813 257.976 324.279 257.628 324.505C257.5 324.586 257.359 324.624 257.22 324.624" fill="white"/>
<path fill-rule="evenodd" clip-rule="evenodd" d="M286.692 313.784H264.606C264.347 313.784 264.108 313.654 263.969 313.433L237.18 270.78H197.396C196.981 270.78 196.645 270.446 196.645 270.029C196.645 269.616 196.981 269.278 197.396 269.278H237.597C237.855 269.278 238.095 269.411 238.234 269.629L265.022 312.285H286.692C287.108 312.285 287.443 312.62 287.443 313.036C287.443 313.45 287.108 313.784 286.692 313.784" fill="#72ACFF"/>
<path fill-rule="evenodd" clip-rule="evenodd" d="M273.255 313.787C273.005 313.787 272.76 313.659 272.618 313.43L250.247 277.388C250.026 277.037 250.135 276.575 250.489 276.357C250.84 276.136 251.303 276.245 251.523 276.596L273.892 312.639C274.113 312.992 274.004 313.455 273.653 313.673C273.527 313.749 273.391 313.787 273.255 313.787" fill="#72ACFF"/>
<path fill-rule="evenodd" clip-rule="evenodd" d="M184.188 253.857C183.776 253.857 183.44 253.525 183.438 253.112C183.435 252.698 183.769 252.358 184.183 252.355C184.291 252.355 194.99 252.219 197.429 246.836C197.6 246.46 198.045 246.291 198.423 246.463C198.8 246.634 198.968 247.078 198.797 247.456C195.962 253.713 184.672 253.855 184.193 253.857C184.191 253.857 184.19 253.857 184.188 253.857" fill="#72ACFF"/>
<path fill-rule="evenodd" clip-rule="evenodd" d="M255.495 241.21H202.477V238.63C202.477 236.7 204.039 235.141 205.966 235.141H255.495V241.21" fill="#006BFF"/>
<path fill-rule="evenodd" clip-rule="evenodd" d="M301.55 240.748L240.488 240.315L252.044 188.925C252.507 186.865 254.344 185.407 256.456 185.424L309.878 185.792C311.947 185.809 313.471 187.73 313.016 189.748L301.55 240.748" fill="#006BFF"/>
<path fill-rule="evenodd" clip-rule="evenodd" d="M248.401 236.023C248.352 236.023 248.303 236.017 248.254 236.006C247.887 235.927 247.655 235.563 247.734 235.195L257.578 189.948C258.087 187.589 260.21 185.875 262.624 185.875C263.002 185.875 263.304 186.18 263.304 186.556C263.304 186.932 263.002 187.236 262.624 187.236C260.847 187.236 259.282 188.498 258.906 190.237L249.065 235.487C248.994 235.805 248.714 236.023 248.401 236.023" fill="white"/>
<path fill-rule="evenodd" clip-rule="evenodd" d="M282.779 206.594C279.453 206.594 276.255 209.304 275.651 212.634C275.365 214.215 275.708 215.688 276.623 216.781C277.51 217.845 278.846 218.431 280.384 218.431C283.71 218.431 286.908 215.722 287.512 212.391C287.798 210.81 287.452 209.338 286.54 208.245C285.653 207.18 284.317 206.594 282.779 206.594ZM280.384 219.791C278.435 219.791 276.729 219.032 275.578 217.653C274.402 216.245 273.953 214.376 274.312 212.391C275.028 208.444 278.827 205.234 282.779 205.234C284.728 205.234 286.434 205.993 287.585 207.373C288.761 208.781 289.21 210.649 288.851 212.634C288.132 216.581 284.336 219.791 280.384 219.791V219.791Z" fill="white"/>
<path fill-rule="evenodd" clip-rule="evenodd" d="M301.87 193.631H283.524C283.149 193.631 282.844 193.327 282.844 192.951C282.844 192.575 283.149 192.271 283.524 192.271H301.87C302.246 192.271 302.551 192.575 302.551 192.951C302.551 193.327 302.246 193.631 301.87 193.631" fill="white"/>
<path fill-rule="evenodd" clip-rule="evenodd" d="M446.514 241.183H226.212C225.833 241.183 225.531 240.881 225.531 240.503C225.531 240.127 225.833 239.822 226.212 239.822H446.514C446.89 239.822 447.195 240.127 447.195 240.503C447.195 240.881 446.89 241.183 446.514 241.183" fill="#001E57"/>
</svg>
