<svg width="547" height="268" viewBox="0 0 547 268" fill="none" xmlns="http://www.w3.org/2000/svg">
<path fill-rule="evenodd" clip-rule="evenodd" d="M370.709 82.2162C369.736 85.9292 369.31 89.6581 369.383 93.3175C369.39 93.6647 369.401 94.0125 369.417 94.3593C369.424 94.5322 369.433 94.7057 369.443 94.8796C369.676 98.8621 370.501 102.745 371.845 106.415C372.257 107.533 372.71 108.629 373.217 109.704C373.29 109.857 373.363 110.01 373.434 110.162C373.585 110.468 373.734 110.771 373.89 111.073C373.97 111.224 374.046 111.372 374.126 111.524C374.286 111.821 374.449 112.119 374.613 112.415C374.948 113.004 375.296 113.585 375.658 114.159C380.948 122.533 389.306 129.002 399.646 131.712C403.859 132.817 408.096 133.213 412.223 132.981L412.225 132.982C414.336 132.862 416.418 132.578 418.456 132.135C432.913 129.012 445.13 118.062 449.138 102.773C450.283 98.4085 450.67 94.0199 450.381 89.7526C450.214 87.2865 449.823 84.8605 449.218 82.5038C448.824 80.9647 448.341 79.4516 447.773 77.9771C446.319 74.1814 444.294 70.6229 441.785 67.4269C441.382 66.9153 440.969 66.4125 440.541 65.9203C440.399 65.7554 440.255 65.5931 440.111 65.4303C439.82 65.1076 439.524 64.7865 439.224 64.4728C437.234 62.388 435.015 60.5069 432.588 58.8698L432.586 58.8691C432.565 58.8554 432.549 58.8448 432.526 58.8304C428.857 56.3666 424.719 54.4636 420.203 53.2798C415.438 52.0313 410.652 51.6841 406.023 52.1332C405.74 52.1607 405.456 52.1907 405.172 52.2237C396.882 53.2033 389.135 56.7366 382.984 62.2045C382.826 62.3376 382.674 62.4748 382.528 62.6133C382.333 62.786 382.145 62.96 381.96 63.1377C381.887 63.2082 381.818 63.2769 381.745 63.3447C381.745 63.3447 381.742 63.3475 381.74 63.3468C381.58 63.5021 381.419 63.6603 381.259 63.8183C381 64.081 380.742 64.3441 380.49 64.6141C379.812 65.3245 379.161 66.0616 378.534 66.8228C378.252 67.1721 377.971 67.5275 377.696 67.8852C374.529 72.0292 372.113 76.8584 370.709 82.2162" fill="white"/>
<path fill-rule="evenodd" clip-rule="evenodd" d="M405.609 108.964L405.616 114.538L406.844 115.449L407.219 121.85L410.439 122.99L414.895 130.609L413.675 131.902L412.225 132.981L412.228 132.982C414.339 132.862 416.421 132.579 418.459 132.135L418.456 132.129L422.512 129.525L427.797 121.672L432.158 119.589L439.268 111.48L438.554 104.253L439.209 104.425L442.016 102.669L447.558 96.6409L450.732 91.5964L450.384 89.2473L448.682 82.2696L449.221 82.5039C448.827 80.9647 448.344 79.4517 447.776 77.9772C446.321 74.1815 444.297 70.623 441.787 67.427C441.384 66.9154 440.972 66.4125 440.544 65.9204C440.402 65.7555 440.257 65.5932 440.113 65.4303C439.825 65.1052 439.527 64.7866 439.227 64.4701C437.594 62.6031 435.421 60.766 432.59 58.8699L429.066 61.4358L426.9 67.4669L425.457 70.1693L424.181 73.3564L428.054 74.8089L431.471 76.8766L439.55 89.7033L440.64 90.5753L441.801 88.3847L441.675 87.1801L442.751 86.4354L443.924 87.8419L446.654 91.1247L445.197 93.6032L444.737 92.0141L443.024 91.2726L442.378 93.7426L442.284 95.7716L440.935 96.4451L440.381 101.066L438.141 102.379L437.935 101.451L435.9 99.1572L431.858 100.592L429.384 99.944L424.326 103.019L420.918 103.149L417.955 106.628L405.609 108.964" fill="#CFE4FF"/>
<path fill-rule="evenodd" clip-rule="evenodd" d="M422.654 60.3042L422.593 62.7809L419.897 66.9137L417.671 65.8905L417.733 63.4139L412.855 59.6422L414.6 56.8305C415.271 55.639 416.645 55.0294 417.981 55.3303L419.748 55.729L424.342 57.2264L425.774 58.4814L425.682 60.5106L422.654 60.3042" fill="#CFE4FF"/>
<path fill-rule="evenodd" clip-rule="evenodd" d="M370.709 82.2168C367.744 93.5353 369.864 104.99 375.658 114.158L376.297 113.969L376.15 112.242L375.081 103.818L376.198 95.8294L377.833 91.2718L382.562 90.018L389.975 94.7476L395.48 91.6446L398.563 83.8002L398.352 81.2507L396.401 74.1401L392.556 70.3456L389.987 69.5255L383.016 68.1387L383.597 65.3952L388.182 64.653L386.588 65.7021L386.336 66.6621L386.987 66.9799L388.063 66.2345L389.506 66.3206L392.567 66.3895L394.365 65.6872L394.828 67.2746L396.896 69.2702L398.178 71.6589L402.598 73.2576L404.824 68.1215L406.06 65.2718L401.952 64.1559L401.373 60.7769L404.547 59.8499L408.985 54.1196L405.518 53.3581L406.39 52.266C406.266 52.2214 406.143 52.176 406.024 52.1318C396.948 53.0112 388.249 57.1504 381.736 63.3436L381.74 63.3479C376.572 68.3358 372.663 74.7605 370.709 82.2168" fill="#CFE4FF"/>
<path fill-rule="evenodd" clip-rule="evenodd" d="M382.211 63.8689C382.071 64.0047 381.932 64.1426 381.792 64.2807L381.753 64.3178C381.503 64.5701 381.252 64.8287 381.002 65.0943C380.34 65.7884 379.694 66.5185 379.078 67.2682C378.804 67.6088 378.524 67.9591 378.256 68.3114C375.05 72.5037 372.74 77.2418 371.388 82.3941C370.452 85.9736 370.012 89.6441 370.085 93.3036C370.095 93.6434 370.104 93.9853 370.12 94.3263C370.127 94.5003 370.136 94.6705 370.145 94.8406C370.372 98.7009 371.164 102.515 372.504 106.174C372.916 107.29 373.369 108.378 373.852 109.406L374.07 109.859C374.214 110.156 374.361 110.454 374.514 110.751L374.748 111.198C374.904 111.485 375.064 111.779 375.226 112.071C375.54 112.626 375.886 113.203 376.252 113.785C381.657 122.34 390.029 128.466 399.824 131.034C403.872 132.095 408.033 132.515 412.185 132.281C412.197 132.28 412.208 132.28 412.22 132.28C414.271 132.162 416.319 131.883 418.306 131.449C433.079 128.258 444.633 117.202 448.462 102.595C449.563 98.3961 449.973 94.0913 449.684 89.8003C449.52 87.3923 449.135 84.9958 448.539 82.6778C448.152 81.1664 447.676 79.6697 447.122 78.2292C445.691 74.5006 443.71 71.0122 441.234 67.86C440.82 67.3312 440.419 66.8473 440.014 66.3809C439.872 66.2167 439.732 66.0577 439.588 65.8977C439.281 65.5539 438.995 65.2464 438.72 64.9583C436.757 62.9014 434.573 61.0554 432.223 59.4693C432.209 59.4604 432.195 59.4515 432.182 59.4416C432.179 59.4405 432.145 59.4192 432.143 59.4178C428.442 56.9318 424.368 55.0965 420.026 53.9582C415.446 52.7577 410.759 52.3785 406.091 52.8312C405.814 52.8587 405.535 52.8882 405.253 52.9205C397.131 53.8805 389.59 57.2723 383.45 62.729C383.29 62.8643 383.148 62.9932 383.01 63.1226C382.809 63.3035 382.628 63.4723 382.447 63.6445L382.385 63.7052C382.33 63.7567 382.277 63.8078 382.223 63.8582C382.22 63.8618 382.216 63.8653 382.211 63.8689ZM399.469 132.39C389.328 129.733 380.663 123.391 375.066 114.533C374.686 113.932 374.331 113.335 374.006 112.76C373.836 112.459 373.672 112.157 373.509 111.856L373.271 111.399C373.111 111.088 372.957 110.78 372.806 110.469L372.584 110.007C372.082 108.938 371.613 107.812 371.187 106.658C369.799 102.868 368.979 98.9196 368.746 94.9201C368.734 94.7412 368.725 94.564 368.718 94.3877C368.702 94.0398 368.691 93.686 368.684 93.3329C368.608 89.5427 369.062 85.7433 370.033 82.0385C371.43 76.705 373.823 71.8 377.141 67.459C377.418 67.0963 377.704 66.7356 377.991 66.3813C378.632 65.6013 379.3 64.8456 379.983 64.1302C380.237 63.8591 380.498 63.5916 380.764 63.3241L380.807 63.2813C380.956 63.1345 381.105 62.988 381.254 62.8439C381.265 62.8329 381.277 62.8222 381.288 62.8119C381.329 62.7734 381.371 62.7342 381.412 62.6946L381.478 62.6309C381.668 62.4475 381.863 62.2682 382.062 62.0898C382.202 61.9563 382.365 61.8107 382.532 61.6694C388.873 56.032 396.679 52.5212 405.091 51.5268C405.382 51.4934 405.67 51.4627 405.956 51.4352C410.788 50.966 415.641 51.3587 420.381 52.6013C424.877 53.7795 429.095 55.6793 432.919 58.2478C432.931 58.2556 432.94 58.2623 432.951 58.2687C432.96 58.2749 432.972 58.2813 432.981 58.2884C435.424 59.9347 437.694 61.8526 439.732 63.9887C440.018 64.2866 440.314 64.6052 440.634 64.9615C440.783 65.1287 440.93 65.294 441.074 65.4621C441.493 65.9442 441.907 66.4457 442.338 66.993C444.901 70.2563 446.95 73.867 448.432 77.7257C449.004 79.2162 449.499 80.7654 449.9 82.3295C450.513 84.7304 450.912 87.2116 451.084 89.7048C451.384 94.1484 450.958 98.6047 449.82 102.951C445.856 118.072 433.895 129.518 418.604 132.82C416.534 133.271 414.402 133.562 412.268 133.682C412.256 133.683 412.242 133.683 412.231 133.684C407.942 133.921 403.65 133.486 399.469 132.39V132.39Z" fill="#CFE4FF"/>
<path fill-rule="evenodd" clip-rule="evenodd" d="M479.765 74.3353L428.578 66.7321L436.181 15.5461L487.368 23.1493L479.765 74.3353" fill="#CFE4FF"/>
<path fill-rule="evenodd" clip-rule="evenodd" d="M219.852 116.503L74.8234 154.769C72.7633 155.312 70.6528 154.083 70.1091 152.023L42.8161 48.5794C42.2725 46.5193 43.502 44.4088 45.5619 43.8652L190.593 5.5995C192.651 5.05608 194.763 6.28537 195.306 8.34548L222.6 111.789C223.143 113.849 221.913 115.96 219.852 116.503" fill="#CFE4FF"/>
<path fill-rule="evenodd" clip-rule="evenodd" d="M77.254 142.261L72.2656 123.355L131.175 107.812C132.377 112.367 137.045 115.086 141.599 113.884C146.154 112.682 148.873 108.015 147.67 103.46L206.579 87.9172L211.569 106.823L77.254 142.261" fill="white"/>
<path fill-rule="evenodd" clip-rule="evenodd" d="M183.899 1.95483L208.568 95.4498L162.879 107.505C156.955 109.068 151.908 112.837 148.493 117.925C146.132 121.44 141.381 122.691 137.597 120.799C132.117 118.059 125.868 117.27 119.944 118.833L74.2541 130.888L49.5859 37.393L95.2743 25.3383C101.199 23.7751 107.449 24.562 112.929 27.3043C114.72 28.1999 116.831 28.4727 118.92 27.9215C121.008 27.3705 122.708 26.0924 123.825 24.4298C127.237 19.3407 132.287 15.5725 138.211 14.0095L183.899 1.95483" fill="white"/>
<path fill-rule="evenodd" clip-rule="evenodd" d="M143.243 129.488C141.885 129.488 140.52 129.188 139.263 128.56C133.795 125.824 127.662 125.14 121.999 126.634L118.369 127.592C118.073 127.67 117.769 127.493 117.691 127.196C117.611 126.899 117.79 126.594 118.085 126.516L121.715 125.558C127.641 123.995 134.049 124.707 139.762 127.564C143.28 129.324 147.752 128.143 149.946 124.878C153.505 119.574 158.728 115.793 164.653 114.229L190.532 107.401C190.83 107.323 191.135 107.5 191.212 107.797C191.29 108.094 191.114 108.398 190.816 108.477L164.937 115.305C159.273 116.799 154.279 120.419 150.869 125.498C149.154 128.053 146.213 129.488 143.243 129.488" fill="#72ACFF"/>
<path fill-rule="evenodd" clip-rule="evenodd" d="M70.9686 118.997C70.7219 118.997 70.4968 118.832 70.4309 118.582L47.706 32.4528C47.6277 32.1558 47.8049 31.8514 48.1022 31.7729L93.7901 19.7184C99.7155 18.1548 106.125 18.8672 111.836 21.7245C113.569 22.5915 115.557 22.7966 117.435 22.3013C119.313 21.8062 120.941 20.6472 122.02 19.0376C125.578 13.7345 130.802 9.9528 136.729 8.38917L162.217 1.66427C162.514 1.58595 162.819 1.7632 162.897 2.06022C162.975 2.35746 162.798 2.66181 162.5 2.74013L137.012 9.46525C131.347 10.9597 126.352 14.5793 122.945 19.6577C121.713 21.492 119.858 22.8131 117.719 23.3774C115.58 23.9417 113.315 23.7078 111.339 22.7197C105.869 19.9836 99.7377 19.2998 94.074 20.7942L48.9239 32.707L71.507 118.299C71.5853 118.596 71.408 118.9 71.1108 118.978C71.0634 118.991 71.0155 118.997 70.9686 118.997" fill="#240448"/>
<path fill-rule="evenodd" clip-rule="evenodd" d="M141.544 114.229C141.299 114.229 141.072 114.064 141.006 113.814L135.331 92.3026C135.253 92.0056 135.429 91.7012 135.727 91.6227C136.025 91.5446 136.329 91.7216 136.407 92.0189L142.082 113.53C142.162 113.827 141.983 114.132 141.686 114.21C141.64 114.223 141.592 114.229 141.544 114.229" fill="#72ACFF"/>
<path fill-rule="evenodd" clip-rule="evenodd" d="M133.722 84.5892C133.477 84.5892 133.251 84.4241 133.186 84.1745L120.202 34.9677C120.124 34.6707 120.3 34.3661 120.598 34.2878C120.896 34.2102 121.2 34.3867 121.278 34.684L134.26 83.8907C134.341 84.188 134.162 84.4923 133.864 84.5706C133.818 84.5832 133.77 84.5892 133.722 84.5892" fill="#72ACFF"/>
<path fill-rule="evenodd" clip-rule="evenodd" d="M73.7281 86.2042C73.4814 86.2042 73.2563 86.039 73.1904 85.7894C73.1121 85.4924 73.2895 85.1881 73.5866 85.1095L117.064 73.6383C117.362 73.5602 117.666 73.7372 117.744 74.0345C117.822 74.3315 117.646 74.6359 117.348 74.7142L73.8703 86.1856C73.8229 86.198 73.775 86.2042 73.7281 86.2042" fill="#72ACFF"/>
<path fill-rule="evenodd" clip-rule="evenodd" d="M97.0093 86.793C96.7627 86.793 96.5374 86.6281 96.4716 86.3785C96.3933 86.0814 96.5706 85.7769 96.8676 85.6985L118.722 79.9323C119.02 79.8549 119.324 80.0314 119.402 80.3284C119.48 80.6255 119.304 80.9298 119.006 81.0083L97.1516 86.7744C97.1039 86.787 97.0563 86.793 97.0093 86.793" fill="#72ACFF"/>
<path fill-rule="evenodd" clip-rule="evenodd" d="M77.0484 98.7924C76.8018 98.7924 76.5767 98.6273 76.5107 98.3776C76.4324 98.0806 76.6096 97.7763 76.9067 97.698L120.383 86.2265C120.681 86.1489 120.986 86.3257 121.063 86.6227C121.141 86.9197 120.965 87.2241 120.667 87.3026L77.1906 98.7738C77.143 98.7864 77.0954 98.7924 77.0484 98.7924" fill="#72ACFF"/>
<path fill-rule="evenodd" clip-rule="evenodd" d="M98.9742 99.7395C98.7275 99.7395 98.5024 99.5744 98.4365 99.3248C98.3582 99.0278 98.5356 98.7234 98.8326 98.6449L122.043 92.5209C122.341 92.4428 122.645 92.6198 122.723 92.9168C122.803 93.2141 122.625 93.5184 122.327 93.5967L99.1164 99.721C99.069 99.7333 99.0211 99.7395 98.9742 99.7395" fill="#72ACFF"/>
<path fill-rule="evenodd" clip-rule="evenodd" d="M78.7086 105.086C78.4619 105.086 78.2366 104.922 78.1709 104.672C78.0925 104.375 78.2698 104.07 78.5668 103.992L91.9135 100.471C92.211 100.393 92.5151 100.57 92.5935 100.867C92.6718 101.164 92.4945 101.468 92.1973 101.547L78.8508 105.068C78.8031 105.081 78.7555 105.086 78.7086 105.086" fill="#72ACFF"/>
<path fill-rule="evenodd" clip-rule="evenodd" d="M80.3922 111.466C80.1455 111.466 79.9204 111.301 79.8545 111.051C79.7761 110.754 79.9534 110.45 80.2504 110.371L123.727 98.9001C124.024 98.8218 124.329 98.999 124.407 99.2961C124.487 99.5933 124.308 99.8976 124.011 99.976L80.5344 111.447C80.4867 111.46 80.4391 111.466 80.3922 111.466" fill="#72ACFF"/>
<path fill-rule="evenodd" clip-rule="evenodd" d="M160.556 26.7938C160.309 26.7938 160.085 26.6287 160.018 26.3793C159.94 26.082 160.119 25.7777 160.414 25.6994L175.943 21.6025C176.241 21.5242 176.545 21.7014 176.623 21.9985C176.701 22.2955 176.525 22.6 176.227 22.6784L160.698 26.7752C160.653 26.7878 160.604 26.7938 160.556 26.7938" fill="#72ACFF"/>
<path fill-rule="evenodd" clip-rule="evenodd" d="M135.517 40.1327C135.27 40.1327 135.046 39.9676 134.979 39.7182C134.901 39.421 135.078 39.1166 135.376 39.0383L177.604 27.8966C177.901 27.8185 178.206 27.9955 178.284 28.2926C178.362 28.5898 178.185 28.8942 177.888 28.9725L135.659 40.1141C135.611 40.1267 135.563 40.1327 135.517 40.1327" fill="#72ACFF"/>
<path fill-rule="evenodd" clip-rule="evenodd" d="M137.177 46.4269C136.932 46.4269 136.706 46.2618 136.639 46.0121C136.561 45.7151 136.74 45.4108 137.036 45.3325L178.895 34.2879C179.193 34.21 179.497 34.3868 179.575 34.6841C179.655 34.9811 179.477 35.2854 179.179 35.3638L137.319 46.4083C137.274 46.4209 137.226 46.4269 137.177 46.4269" fill="#72ACFF"/>
<path fill-rule="evenodd" clip-rule="evenodd" d="M138.84 52.7209C138.595 52.7209 138.368 52.556 138.304 52.3064C138.224 52.0092 138.403 51.7048 138.701 51.6265L180.926 40.4848C181.226 40.4072 181.529 40.5838 181.606 40.881C181.687 41.178 181.508 41.4824 181.21 41.5607L138.982 52.7024C138.936 52.715 138.888 52.7209 138.84 52.7209" fill="#72ACFF"/>
<path fill-rule="evenodd" clip-rule="evenodd" d="M172.627 51.9581C172.379 51.9581 172.155 51.7932 172.089 51.5436C172.011 51.2463 172.189 50.942 172.485 50.8637L182.936 48.106C183.236 48.0282 183.539 48.2049 183.617 48.502C183.697 48.7992 183.518 49.1035 183.22 49.1819L172.769 51.9395C172.721 51.9521 172.675 51.9581 172.627 51.9581" fill="#72ACFF"/>
<path fill-rule="evenodd" clip-rule="evenodd" d="M140.848 60.3421C140.603 60.3421 140.376 60.177 140.312 59.9276C140.232 59.6303 140.411 59.326 140.708 59.2477L164.433 52.9877C164.731 52.9096 165.035 53.0868 165.113 53.3838C165.191 53.6809 165.015 53.9852 164.717 54.0638L140.992 60.3235C140.944 60.3361 140.896 60.3421 140.848 60.3421" fill="#72ACFF"/>
<path fill-rule="evenodd" clip-rule="evenodd" d="M147.564 66.7222C147.317 66.7222 147.093 66.5573 147.026 66.3077C146.948 66.0107 147.125 65.7061 147.422 65.6278L184.947 55.7271C185.244 55.6492 185.547 55.8262 185.627 56.1233C185.705 56.4203 185.526 56.7246 185.231 56.8032L147.706 66.7036C147.658 66.7162 147.61 66.7222 147.564 66.7222" fill="#72ACFF"/>
<path fill-rule="evenodd" clip-rule="evenodd" d="M157.057 29.3531L150.125 23.4407L147.013 32.0031L140.31 6.59828C139.577 3.82482 141.233 0.983359 144.006 0.251466C146.78 -0.480197 149.621 1.17481 150.354 3.94826L157.057 29.3531" fill="#CFE4FF"/>
<path fill-rule="evenodd" clip-rule="evenodd" d="M103.515 175.124C103.123 175.124 102.805 174.805 102.805 174.414V166.164C102.805 164.649 101.573 163.417 100.059 163.417C99.7568 163.417 99.4687 163.487 99.2028 163.623C98.8543 163.803 98.4263 163.666 98.2467 163.317C98.0674 162.968 98.2046 162.54 98.5531 162.361C99.0155 162.123 99.536 161.997 100.059 161.997C102.356 161.997 104.225 163.866 104.225 166.164V174.414C104.225 174.805 103.907 175.124 103.515 175.124" fill="#72ACFF"/>
<path fill-rule="evenodd" clip-rule="evenodd" d="M94.9214 175.124C94.5294 175.124 94.2115 174.805 94.2115 174.414V163.417H91.4651C91.163 163.417 90.8752 163.487 90.6091 163.623C90.2608 163.803 89.8323 163.666 89.653 163.317C89.4737 162.968 89.6108 162.54 89.9596 162.361C90.422 162.123 90.9425 161.997 91.4651 161.997H95.6313V174.414C95.6313 174.805 95.3135 175.124 94.9214 175.124" fill="#72ACFF"/>
<path fill-rule="evenodd" clip-rule="evenodd" d="M107.852 254.134V266.461H128.568V263.448C128.568 262.442 128.014 261.519 127.126 261.045L124.632 259.717L121.783 258.199L120.15 253.646L120.049 253.367L115.614 253.646L115.055 253.681L107.852 254.134" fill="#006BFF"/>
<path fill-rule="evenodd" clip-rule="evenodd" d="M107.852 266.461H128.568V263.75H107.852V266.461Z" fill="#CFE4FF"/>
<path fill-rule="evenodd" clip-rule="evenodd" d="M107.852 255.478V262.257C107.999 262.277 108.15 262.287 108.303 262.287C110.193 262.287 111.724 260.755 111.724 258.868C111.724 256.978 110.193 255.446 108.303 255.446C108.15 255.446 107.999 255.458 107.852 255.478" fill="#CFE4FF"/>
<path fill-rule="evenodd" clip-rule="evenodd" d="M84.4385 254.134V266.461H63.7227V263.448C63.7227 262.442 64.2771 261.519 65.1649 261.045L67.6592 259.717L70.5078 258.199L72.1406 253.646L72.2413 253.367L76.6762 253.646L77.235 253.681L84.4385 254.134" fill="#006BFF"/>
<path fill-rule="evenodd" clip-rule="evenodd" d="M84.9403 254.443L71.5352 252.291L81.5655 189.835L94.9706 191.987L84.9403 254.443" fill="#72ACFF"/>
<path fill-rule="evenodd" clip-rule="evenodd" d="M107.16 254.317L94.3125 192.26L107.607 189.507L120.455 251.567L107.16 254.317" fill="#72ACFF"/>
<path fill-rule="evenodd" clip-rule="evenodd" d="M71.7646 191.367C70.125 191.367 68.5923 190.549 67.6788 189.187L51.3213 164.774C49.8092 162.517 50.4126 159.462 52.6692 157.95C54.9256 156.438 57.981 157.042 59.4928 159.298L71.709 177.53L73.2646 175.144C74.7483 172.868 77.7956 172.227 80.071 173.711C82.3462 175.194 82.9878 178.242 81.5041 180.516L75.8844 189.134C74.9823 190.517 73.4467 191.355 71.7953 191.367C71.7852 191.367 71.7747 191.367 71.7646 191.367" fill="#FFBFAA"/>
<path fill-rule="evenodd" clip-rule="evenodd" d="M77.4049 252.925L77.3974 252.959L75.8303 259.717H67.6602L70.5087 258.199L72.303 252.925H77.4049" fill="#CFE4FF"/>
<path fill-rule="evenodd" clip-rule="evenodd" d="M81.5051 180.516L73.2656 175.144L76.3965 170.343L84.6361 175.714L81.5051 180.516" fill="#001E57"/>
<path fill-rule="evenodd" clip-rule="evenodd" d="M114.887 252.925L114.896 252.959L116.462 259.717H124.633L121.784 258.199L119.989 252.925H114.887" fill="#CFE4FF"/>
<path fill-rule="evenodd" clip-rule="evenodd" d="M82.203 182.491C81.9128 182.491 81.6192 182.41 81.3566 182.243L72.7733 176.756C72.041 176.287 71.8266 175.314 72.2949 174.583C72.7628 173.85 73.736 173.635 74.4691 174.105L83.0523 179.589C83.7847 180.059 83.999 181.032 83.5307 181.765C83.2305 182.234 82.7221 182.491 82.203 182.491" fill="#001E57"/>
<path fill-rule="evenodd" clip-rule="evenodd" d="M80.5119 177.947C79.5906 177.947 78.6593 177.691 77.83 177.148C75.5549 175.666 74.913 172.618 76.3967 170.343L78.8246 166.619C80.3083 164.344 83.3554 163.702 85.6308 165.186C87.9062 166.67 88.5478 169.717 87.0641 171.992L84.6362 175.717C83.6934 177.162 82.1183 177.947 80.5119 177.947" fill="#001E57"/>
<path fill-rule="evenodd" clip-rule="evenodd" d="M99.8775 197.534H89.1833C85.9237 197.534 83.2812 194.891 83.2812 191.632C83.2812 188.374 85.9237 185.731 89.1833 185.731H99.8775C103.137 185.731 105.779 188.374 105.779 191.632C105.779 194.891 103.137 197.534 99.8775 197.534" fill="#72ACFF"/>
<path fill-rule="evenodd" clip-rule="evenodd" d="M107.383 190.187H81.9485L78.4463 170.534C77.7907 166.855 80.6198 163.477 84.3571 163.477H104.974C108.712 163.477 111.541 166.855 110.885 170.534L107.383 190.187" fill="#001E57"/>
<path fill-rule="evenodd" clip-rule="evenodd" d="M107.934 193.07H81.3984L79.8828 178.712L88.9948 173.028H97.9477L109.45 178.712L107.934 193.07" fill="#72ACFF"/>
<path fill-rule="evenodd" clip-rule="evenodd" d="M94.0228 166.286C95.6815 166.499 97.1968 165.328 97.4084 163.67L97.6859 161.518L98.5481 154.798C98.7611 153.14 97.5904 151.624 95.9331 151.411C95.8028 151.395 95.6737 151.387 95.5434 151.387C94.3017 151.387 93.1954 152.15 92.7411 153.279C92.647 153.514 92.5799 153.763 92.5462 154.028L91.4078 162.899C91.1949 164.556 92.3655 166.073 94.0228 166.286" fill="#FFBFAA"/>
<path fill-rule="evenodd" clip-rule="evenodd" d="M93.1583 156.793C93.7287 159.418 95.007 161.311 97.6827 161.518L98.5449 154.798C98.7579 153.14 97.5872 151.624 95.9299 151.411C95.7996 151.395 95.6705 151.387 95.5402 151.387C94.2985 151.387 93.1922 152.15 92.7379 153.279C92.6437 153.514 92.5766 153.763 92.543 154.028L93.1583 156.793" fill="#240448"/>
<path fill-rule="evenodd" clip-rule="evenodd" d="M99.3171 159.997V159.997C101.325 159.531 102.576 157.526 102.111 155.517L101.412 152.502C100.798 149.855 98.1552 148.207 95.5086 148.821C92.862 149.434 91.2139 152.077 91.8274 154.724L91.9904 155.427C92.7519 158.713 96.0323 160.758 99.3171 159.997" fill="#FFBFAA"/>
<path fill-rule="evenodd" clip-rule="evenodd" d="M120.666 254.677H106.95C105.992 254.677 105.215 253.9 105.215 252.943C105.215 251.984 105.992 251.207 106.95 251.207H120.666C121.625 251.207 122.401 251.984 122.401 252.943C122.401 253.9 121.625 254.677 120.666 254.677" fill="#72ACFF"/>
<path fill-rule="evenodd" clip-rule="evenodd" d="M84.7563 254.677H71.3328C70.3744 254.677 69.5977 253.9 69.5977 252.943C69.5977 251.984 70.3744 251.207 71.3328 251.207H84.7563C85.7144 251.207 86.4912 251.984 86.4912 252.943C86.4912 253.9 85.7144 254.677 84.7563 254.677" fill="#72ACFF"/>
<path fill-rule="evenodd" clip-rule="evenodd" d="M101.068 152.607L103.556 155.482C103.838 155.807 103.625 156.315 103.194 156.342L101.055 156.478L101.068 152.607" fill="#FFBFAA"/>
<path fill-rule="evenodd" clip-rule="evenodd" d="M98.2812 148.452C98.2812 150.142 99.6511 151.511 101.341 151.511C103.031 151.511 104.401 150.142 104.401 148.452C104.401 146.761 103.031 145.392 101.341 145.392C99.6511 145.392 98.2812 146.761 98.2812 148.452" fill="#001E57"/>
<path fill-rule="evenodd" clip-rule="evenodd" d="M95.0664 148.407C95.0664 149.602 96.0353 150.571 97.2303 150.571C98.4254 150.571 99.3941 149.602 99.3941 148.407C99.3941 147.212 98.4254 146.243 97.2303 146.243C96.0353 146.243 95.0664 147.212 95.0664 148.407" fill="#001E57"/>
<path fill-rule="evenodd" clip-rule="evenodd" d="M93.0918 151.511H101.067C102.131 151.511 102.994 150.648 102.994 149.584C102.994 148.519 102.131 147.656 101.067 147.656H93.0918C92.0272 147.656 91.1641 148.519 91.1641 149.584C91.1641 150.648 92.0272 151.511 93.0918 151.511" fill="#001E57"/>
<path fill-rule="evenodd" clip-rule="evenodd" d="M91.1641 155.336H94.6064L96.0975 149.567H91.1641V155.336" fill="#001E57"/>
<path fill-rule="evenodd" clip-rule="evenodd" d="M90.5508 154.733C90.5508 156.015 91.5898 157.054 92.8715 157.054C94.1532 157.054 95.1922 156.015 95.1922 154.733C95.1922 153.452 94.1532 152.413 92.8715 152.413C91.5898 152.413 90.5508 153.452 90.5508 154.733" fill="#FFBFAA"/>
<path fill-rule="evenodd" clip-rule="evenodd" d="M120.139 210.195C118.119 210.195 116.227 208.943 115.508 206.934L105.723 179.605C104.807 177.047 106.138 174.233 108.695 173.317C111.252 172.401 114.068 173.731 114.984 176.289L124.769 203.618C125.685 206.174 124.352 208.991 121.797 209.907C121.249 210.101 120.688 210.195 120.139 210.195" fill="#FFBFAA"/>
<path fill-rule="evenodd" clip-rule="evenodd" d="M105.738 179.642L103.762 174.262L112.995 170.871L114.971 176.252L105.738 179.642" fill="#001E57"/>
<path fill-rule="evenodd" clip-rule="evenodd" d="M108.378 177.487C106.375 177.487 104.492 176.253 103.761 174.263L102.229 170.09C101.292 167.54 102.6 164.714 105.15 163.778C107.699 162.841 110.526 164.149 111.462 166.699L112.994 170.871C113.931 173.42 112.624 176.248 110.074 177.182C109.514 177.388 108.941 177.487 108.378 177.487" fill="#001E57"/>
<path fill-rule="evenodd" clip-rule="evenodd" d="M105.774 181.309C105.135 181.309 104.534 180.917 104.298 180.283C103.995 179.468 104.41 178.561 105.225 178.259L114.412 174.844C115.227 174.54 116.132 174.956 116.434 175.769C116.738 176.585 116.322 177.491 115.509 177.794L106.322 181.208C106.142 181.277 105.956 181.309 105.774 181.309" fill="#001E57"/>
<path fill-rule="evenodd" clip-rule="evenodd" d="M63.7227 266.461H84.4385V263.75H63.7227V266.461Z" fill="#CFE4FF"/>
<path fill-rule="evenodd" clip-rule="evenodd" d="M84.4386 255.478V262.257C84.2914 262.277 84.1405 262.287 83.9868 262.287C82.0973 262.287 80.5664 260.755 80.5664 258.868C80.5664 256.978 82.0973 255.446 83.9868 255.446C84.1405 255.446 84.2914 255.458 84.4386 255.478" fill="#CFE4FF"/>
<path fill-rule="evenodd" clip-rule="evenodd" d="M94.3431 196.189H92.5576C92.2658 196.189 92.0205 195.97 91.9887 195.679L91.4293 190.586C91.3947 190.272 91.6216 189.99 91.9358 189.954C92.2523 189.922 92.5331 190.146 92.5674 190.462L93.0708 195.044H94.3431C94.6593 195.044 94.9156 195.301 94.9156 195.617C94.9156 195.933 94.6593 196.189 94.3431 196.189" fill="#240448"/>
<path fill-rule="evenodd" clip-rule="evenodd" d="M87.3852 193.119H81.342C81.026 193.119 80.7695 192.862 80.7695 192.546C80.7695 192.23 81.026 191.974 81.342 191.974H87.3852C87.7014 191.974 87.9577 192.23 87.9577 192.546C87.9577 192.862 87.7014 193.119 87.3852 193.119" fill="#240448"/>
<path fill-rule="evenodd" clip-rule="evenodd" d="M108.248 193.119H102.205C101.889 193.119 101.633 192.862 101.633 192.546C101.633 192.23 101.889 191.974 102.205 191.974H108.248C108.565 191.974 108.821 192.23 108.821 192.546C108.821 192.862 108.565 193.119 108.248 193.119" fill="#240448"/>
<path fill-rule="evenodd" clip-rule="evenodd" d="M75.8348 215.895H81.9153L83.4567 208.047H77.3762L75.8348 215.895ZM82.3863 217.04H75.1389C74.9678 217.04 74.8057 216.962 74.6969 216.83C74.5881 216.699 74.5442 216.525 74.5771 216.356L76.3437 207.365C76.3963 207.097 76.6317 206.902 76.9054 206.902H84.1526C84.3239 206.902 84.4861 206.978 84.5949 207.111C84.7036 207.244 84.7474 207.418 84.7144 207.585L82.9481 216.578C82.8952 216.846 82.66 217.04 82.3863 217.04V217.04Z" fill="#001E57"/>
<path fill-rule="evenodd" clip-rule="evenodd" d="M108.087 215.895H114.167L112.626 208.047H106.546L108.087 215.895ZM114.864 217.04H107.616C107.342 217.04 107.107 216.846 107.054 216.578L105.288 207.585C105.255 207.418 105.299 207.244 105.408 207.111C105.516 206.978 105.679 206.902 105.85 206.902H113.098C113.371 206.902 113.606 207.097 113.659 207.365L115.425 216.356C115.459 216.525 115.416 216.699 115.306 216.83C115.198 216.962 115.035 217.04 114.864 217.04V217.04Z" fill="#001E57"/>
<path fill-rule="evenodd" clip-rule="evenodd" d="M75.8286 260.29H67.6584C67.3422 260.29 67.0859 260.033 67.0859 259.717C67.0859 259.401 67.3422 259.145 67.6584 259.145H75.8286C76.1448 259.145 76.4011 259.401 76.4011 259.717C76.4011 260.033 76.1448 260.29 75.8286 260.29" fill="#240448"/>
<path fill-rule="evenodd" clip-rule="evenodd" d="M124.634 260.29H116.463C116.147 260.29 115.891 260.033 115.891 259.717C115.891 259.401 116.147 259.145 116.463 259.145H124.634C124.95 259.145 125.206 259.401 125.206 259.717C125.206 260.033 124.95 260.29 124.634 260.29" fill="#240448"/>
<path fill-rule="evenodd" clip-rule="evenodd" d="M93.5218 181.552C93.5218 183.691 91.788 185.424 89.6496 185.424C87.5111 185.424 85.7773 183.691 85.7773 181.552C85.7773 179.413 87.5111 177.679 89.6496 177.679C91.788 177.679 93.5218 179.413 93.5218 181.552" fill="white"/>
<path fill-rule="evenodd" clip-rule="evenodd" d="M101.393 181.552C101.393 183.691 99.6591 185.424 97.5206 185.424C95.382 185.424 93.6484 183.691 93.6484 181.552C93.6484 179.413 95.382 177.679 97.5206 177.679C99.6591 177.679 101.393 179.413 101.393 181.552" fill="white"/>
<path fill-rule="evenodd" clip-rule="evenodd" d="M93.217 186.173L88.5117 181.467L93.217 176.761L97.9226 181.467L93.217 186.173" fill="#001E57"/>
<path fill-rule="evenodd" clip-rule="evenodd" d="M89.0811 201.715C89.0502 201.715 89.0191 201.711 88.9875 201.706C88.6756 201.656 88.4642 201.36 88.5155 201.049L88.6204 200.412C88.6717 200.101 88.9668 199.888 89.2781 199.941C89.5902 199.991 89.8016 200.286 89.75 200.598L89.6454 201.234C89.5991 201.516 89.3564 201.715 89.0811 201.715" fill="white"/>
<path fill-rule="evenodd" clip-rule="evenodd" d="M88.3668 206.041C88.3359 206.041 88.3045 206.039 88.2732 206.032C87.961 205.982 87.7499 205.686 87.8012 205.375L88.0048 204.138C88.0561 203.827 88.3503 203.616 88.6627 203.666C88.9746 203.719 89.1857 204.012 89.1344 204.326L88.9311 205.56C88.8848 205.842 88.6421 206.041 88.3668 206.041ZM87.6544 210.367C87.6237 210.367 87.5923 210.365 87.5607 210.36C87.2488 210.307 87.0377 210.014 87.089 209.701L87.2923 208.466C87.3439 208.153 87.637 207.942 87.9503 207.995C88.2624 208.045 88.4735 208.34 88.4222 208.652L88.2187 209.888C88.1726 210.168 87.9299 210.367 87.6544 210.367ZM86.9422 214.693C86.9113 214.693 86.8801 214.691 86.8485 214.686C86.5366 214.633 86.3253 214.34 86.3766 214.029L86.5801 212.792C86.6317 212.481 86.9248 212.27 87.2381 212.32C87.55 212.371 87.7613 212.666 87.71 212.978L87.5065 214.214C87.4602 214.494 87.2175 214.693 86.9422 214.693ZM86.23 219.019C86.1991 219.019 86.1677 219.016 86.1363 219.012C85.8242 218.961 85.6131 218.666 85.6644 218.355L85.8679 217.118C85.9192 216.807 86.2126 216.596 86.5259 216.646C86.8378 216.697 87.0489 216.992 86.9976 217.303L86.7943 218.54C86.748 218.822 86.5053 219.019 86.23 219.019ZM85.5176 223.347C85.4869 223.347 85.4555 223.345 85.4239 223.338C85.112 223.287 84.9006 222.992 84.9522 222.68L85.1555 221.444C85.2068 221.132 85.5006 220.922 85.8134 220.972C86.1256 221.025 86.3367 221.318 86.2854 221.629L86.0818 222.866C86.0358 223.148 85.7928 223.347 85.5176 223.347ZM84.8051 227.673C84.7745 227.673 84.7431 227.67 84.7115 227.666C84.3996 227.613 84.1884 227.318 84.2397 227.006L84.4431 225.77C84.4946 225.458 84.7884 225.248 85.101 225.298C85.4131 225.351 85.6243 225.646 85.573 225.958L85.3694 227.192C85.3234 227.473 85.0806 227.673 84.8051 227.673ZM84.0929 231.999C84.062 231.999 84.0309 231.996 83.9993 231.992C83.6874 231.939 83.476 231.646 83.5273 231.332L83.7309 230.098C83.7822 229.784 84.0762 229.573 84.3888 229.626C84.7007 229.677 84.9121 229.972 84.8608 230.283L84.6572 231.52C84.6109 231.799 84.3682 231.999 84.0929 231.999ZM83.3807 236.324C83.3498 236.324 83.3185 236.322 83.2871 236.318C82.975 236.265 82.7638 235.972 82.8151 235.66L83.0187 234.424C83.07 234.112 83.3643 233.902 83.6766 233.952C83.9885 234.002 84.1997 234.298 84.1484 234.609L83.945 235.846C83.8988 236.125 83.656 236.324 83.3807 236.324ZM82.6683 240.65C82.6376 240.65 82.6063 240.648 82.5747 240.643C82.2628 240.593 82.0516 240.298 82.1029 239.986L82.3063 238.75C82.3578 238.438 82.6521 238.227 82.9642 238.278C83.2763 238.328 83.4875 238.624 83.4362 238.935L83.2326 240.172C83.1866 240.453 82.9438 240.65 82.6683 240.65ZM81.9561 244.978C81.9252 244.978 81.8941 244.976 81.8625 244.969C81.5506 244.919 81.3392 244.624 81.3905 244.312L81.5941 243.075C81.6456 242.764 81.9387 242.553 82.252 242.604C82.5639 242.656 82.7753 242.95 82.724 243.263L82.5204 244.498C82.4741 244.779 82.2314 244.978 81.9561 244.978V244.978Z" fill="white"/>
<path fill-rule="evenodd" clip-rule="evenodd" d="M81.3427 248.704C81.312 248.704 81.2806 248.702 81.249 248.697C80.9371 248.645 80.7257 248.352 80.7773 248.04L80.8821 247.401C80.9334 247.09 81.227 246.879 81.5401 246.93C81.852 246.982 82.0633 247.275 82.0118 247.589L81.9069 248.226C81.8609 248.505 81.6182 248.704 81.3427 248.704" fill="white"/>
<path fill-rule="evenodd" clip-rule="evenodd" d="M99.3024 201.709C99.0402 201.709 98.8037 201.525 98.7441 201.26L98.6037 200.63C98.5348 200.321 98.729 200.016 99.0377 199.945C99.3457 199.879 99.6521 200.071 99.7213 200.38L99.8617 201.01C99.9306 201.319 99.7362 201.626 99.4277 201.695C99.3858 201.704 99.3436 201.709 99.3024 201.709" fill="white"/>
<path fill-rule="evenodd" clip-rule="evenodd" d="M100.266 206.034C100.004 206.034 99.7671 205.853 99.7078 205.588L99.4319 204.351C99.3629 204.042 99.5571 203.735 99.8658 203.666C100.174 203.6 100.48 203.792 100.549 204.102L100.825 205.338C100.894 205.647 100.7 205.952 100.391 206.021C100.349 206.03 100.307 206.034 100.266 206.034ZM101.232 210.362C100.969 210.362 100.733 210.182 100.673 209.914L100.398 208.679C100.329 208.37 100.523 208.063 100.832 207.995C101.14 207.926 101.446 208.121 101.515 208.43L101.791 209.666C101.86 209.973 101.666 210.28 101.357 210.349C101.315 210.358 101.273 210.362 101.232 210.362ZM102.197 214.691C101.935 214.691 101.699 214.51 101.639 214.242L101.363 213.005C101.294 212.698 101.489 212.391 101.797 212.323C102.105 212.256 102.412 212.449 102.481 212.756L102.757 213.992C102.825 214.301 102.631 214.608 102.323 214.677C102.281 214.686 102.239 214.691 102.197 214.691ZM103.163 219.019C102.901 219.019 102.664 218.838 102.605 218.57L102.329 217.333C102.26 217.024 102.454 216.72 102.763 216.651C103.071 216.584 103.378 216.775 103.447 217.084L103.722 218.32C103.791 218.629 103.597 218.936 103.288 219.005C103.246 219.014 103.204 219.019 103.163 219.019ZM104.129 223.345C103.867 223.345 103.63 223.164 103.571 222.898L103.295 221.661C103.226 221.352 103.42 221.045 103.729 220.977C104.037 220.91 104.343 221.103 104.412 221.412L104.688 222.648C104.757 222.958 104.563 223.262 104.254 223.331C104.212 223.34 104.17 223.345 104.129 223.345ZM105.095 227.673C104.832 227.673 104.596 227.492 104.536 227.226L104.26 225.99C104.191 225.68 104.386 225.374 104.695 225.305C105.002 225.238 105.309 225.431 105.378 225.74L105.654 226.977C105.723 227.283 105.528 227.59 105.22 227.659C105.178 227.668 105.136 227.673 105.095 227.673ZM106.06 232.001C105.798 232.001 105.562 231.82 105.502 231.552L105.226 230.315C105.157 230.009 105.352 229.702 105.66 229.633C105.968 229.564 106.275 229.759 106.344 230.068L106.62 231.305C106.689 231.612 106.494 231.918 106.185 231.987C106.143 231.996 106.102 232.001 106.06 232.001ZM107.026 236.329C106.764 236.329 106.527 236.148 106.468 235.88L106.192 234.644C106.123 234.334 106.317 234.03 106.626 233.961C106.934 233.892 107.241 234.087 107.31 234.394L107.585 235.631C107.654 235.94 107.46 236.247 107.151 236.315C107.109 236.324 107.067 236.329 107.026 236.329ZM107.992 240.657C107.73 240.657 107.493 240.474 107.434 240.208L107.158 238.972C107.089 238.663 107.283 238.358 107.592 238.287C107.899 238.221 108.206 238.413 108.275 238.722L108.551 239.959C108.62 240.268 108.426 240.572 108.117 240.643C108.075 240.653 108.033 240.657 107.992 240.657ZM108.957 244.983C108.695 244.983 108.459 244.802 108.399 244.537L108.123 243.3C108.055 242.991 108.249 242.684 108.557 242.615C108.865 242.549 109.172 242.741 109.241 243.05L109.517 244.287C109.586 244.596 109.391 244.901 109.083 244.969C109.041 244.979 108.999 244.983 108.957 244.983V244.983Z" fill="white"/>
<path fill-rule="evenodd" clip-rule="evenodd" d="M109.791 248.704C109.528 248.704 109.292 248.523 109.233 248.258L109.092 247.628C109.023 247.319 109.218 247.012 109.526 246.943C109.834 246.877 110.141 247.069 110.21 247.378L110.35 248.008C110.419 248.315 110.225 248.622 109.916 248.691C109.874 248.7 109.832 248.704 109.791 248.704" fill="white"/>
<path fill-rule="evenodd" clip-rule="evenodd" d="M52.4313 164.817C51.8718 164.817 51.3225 164.548 50.9858 164.05L46.951 158.076C46.4124 157.279 46.6222 156.196 47.4196 155.657C48.2167 155.118 49.3001 155.328 49.8388 156.126L53.8736 162.099C54.4122 162.897 54.2024 163.98 53.4048 164.518C53.1059 164.72 52.7668 164.817 52.4313 164.817" fill="#FFBFAA"/>
<path fill-rule="evenodd" clip-rule="evenodd" d="M54.2677 161.808C53.6869 161.808 53.1192 161.518 52.7885 160.989L48.3395 153.874C47.8292 153.058 48.0773 151.983 48.8932 151.473C49.7091 150.963 50.7843 151.21 51.2945 152.026L55.7434 159.142C56.2536 159.957 56.0058 161.033 55.1899 161.543C54.9027 161.722 54.5832 161.808 54.2677 161.808" fill="#FFBFAA"/>
<path fill-rule="evenodd" clip-rule="evenodd" d="M56.793 160.228C56.1672 160.228 55.5624 159.889 55.2502 159.298L52.049 153.225C51.6004 152.374 51.9265 151.32 52.7779 150.871C53.6291 150.422 54.683 150.749 55.1318 151.6L58.3331 157.672C58.7817 158.523 58.4556 159.578 57.6042 160.026C57.3449 160.163 57.0671 160.228 56.793 160.228" fill="#FFBFAA"/>
<path fill-rule="evenodd" clip-rule="evenodd" d="M125.367 212.98C124.628 212.98 123.941 212.506 123.707 211.762L121.534 204.889C121.245 203.971 121.754 202.993 122.672 202.702C123.588 202.411 124.568 202.922 124.859 203.838L127.03 210.713C127.321 211.629 126.81 212.609 125.894 212.9C125.718 212.955 125.541 212.98 125.367 212.98" fill="#FFBFAA"/>
<path fill-rule="evenodd" clip-rule="evenodd" d="M122.826 216.557C122.064 216.557 121.363 216.051 121.148 215.279L118.903 207.193C118.647 206.268 119.19 205.306 120.117 205.05C121.042 204.793 122.004 205.334 122.261 206.261L124.507 214.347C124.764 215.275 124.221 216.234 123.293 216.493C123.138 216.536 122.98 216.557 122.826 216.557" fill="#FFBFAA"/>
<path fill-rule="evenodd" clip-rule="evenodd" d="M119.051 216.001C118.236 216.001 117.508 215.426 117.343 214.599L115.999 207.866C115.811 206.923 116.422 206.005 117.366 205.817C118.309 205.629 119.228 206.241 119.415 207.184L120.76 213.917C120.95 214.86 120.336 215.776 119.393 215.966C119.278 215.989 119.164 216.001 119.051 216.001" fill="#FFBFAA"/>
<path fill-rule="evenodd" clip-rule="evenodd" d="M115.2 211.558C115.047 211.558 114.891 211.537 114.738 211.494C113.81 211.239 113.265 210.28 113.519 209.352L114.699 205.075C114.955 204.147 115.915 203.602 116.842 203.856C117.77 204.113 118.315 205.072 118.058 206L116.879 210.278C116.666 211.052 115.965 211.558 115.2 211.558" fill="#FFBFAA"/>
<path fill-rule="evenodd" clip-rule="evenodd" d="M94.9217 175.124H88.1719V165.291C88.1719 164.052 88.8571 162.929 89.9595 162.361C90.3082 162.181 90.7365 162.319 90.9158 162.667C91.0951 163.016 90.9582 163.444 90.6096 163.623C89.9819 163.947 89.5919 164.586 89.5919 165.291V173.704H94.9217C95.3138 173.704 95.6316 174.022 95.6316 174.414C95.6316 174.805 95.3138 175.124 94.9217 175.124" fill="#72ACFF"/>
<path fill-rule="evenodd" clip-rule="evenodd" d="M97.4755 175.123C97.0835 175.123 96.7656 174.805 96.7656 174.414V165.29C96.7656 164.051 97.4506 162.929 98.5534 162.361C98.9018 162.181 99.33 162.318 99.5095 162.667C99.6888 163.016 99.5519 163.444 99.2034 163.623C98.5757 163.946 98.1854 164.585 98.1854 165.29V174.414C98.1854 174.805 97.8676 175.123 97.4755 175.123" fill="#72ACFF"/>
<path fill-rule="evenodd" clip-rule="evenodd" d="M334.406 21.3586H380.443C385.65 21.3586 389.875 25.5808 389.875 30.7897V80.9717H369.128L334.406 21.3586" fill="#001E57"/>
<path fill-rule="evenodd" clip-rule="evenodd" d="M380.261 230.146L170.467 211.484L183.016 70.4037L392.81 89.0667L380.261 230.146ZM396.664 79.646L180.887 60.4512C177.188 60.1219 173.925 62.8526 173.595 66.5514L160.54 213.319C160.196 217.182 163.047 220.59 166.913 220.933L382.095 240.078C385.959 240.419 389.366 237.566 389.71 233.705L402.767 86.9368C403.097 83.2404 400.365 79.9755 396.664 79.646V79.646Z" fill="#001E57"/>
<path fill-rule="evenodd" clip-rule="evenodd" d="M392.812 89.0661L380.263 230.146L211.446 215.128L170.469 211.485L183.018 70.4033L211.446 72.9315L331.405 83.6026L392.812 89.0661" fill="white"/>
<path fill-rule="evenodd" clip-rule="evenodd" d="M292.798 265.506L250.318 261.728C248.154 261.535 246.443 260.912 246.493 260.335L249.347 228.268L299.659 232.743L296.807 264.81C296.755 265.387 294.959 265.699 292.798 265.506" fill="#001E57"/>
<path fill-rule="evenodd" clip-rule="evenodd" d="M312.954 266.812L274.135 265.536L229.855 261.597C230.421 255.217 236.055 250.504 242.435 251.075L302.44 256.41C308.078 256.914 312.42 261.373 312.954 266.812" fill="#001E57"/>
<path fill-rule="evenodd" clip-rule="evenodd" d="M378.866 232.425H348.757C348.459 232.425 348.219 232.182 348.219 231.884C348.219 231.586 348.459 231.346 348.757 231.346H378.866C382.441 231.346 385.349 228.438 385.349 224.863V159.874C385.349 159.576 385.59 159.335 385.887 159.335C386.185 159.335 386.428 159.576 386.428 159.874V224.863C386.428 229.033 383.036 232.425 378.866 232.425" fill="#72ACFF"/>
<path fill-rule="evenodd" clip-rule="evenodd" d="M296.107 255.751C295.809 255.751 295.566 255.51 295.566 255.213V231.884C295.566 231.586 295.809 231.346 296.107 231.346H328.069C328.366 231.346 328.607 231.586 328.607 231.884C328.607 232.182 328.366 232.425 328.069 232.425H296.645V255.213C296.645 255.51 296.405 255.751 296.107 255.751" fill="#72ACFF"/>
<path fill-rule="evenodd" clip-rule="evenodd" d="M229.132 267.35C228.834 267.35 228.594 267.109 228.594 266.812C228.594 260.118 234.039 254.674 240.731 254.674H245.057V231.493C245.057 231.195 245.297 230.954 245.595 230.954C245.893 230.954 246.135 231.195 246.135 231.493V255.213C246.135 255.51 245.893 255.751 245.595 255.751H240.731C234.633 255.751 229.672 260.713 229.672 266.812C229.672 267.109 229.43 267.35 229.132 267.35" fill="#240448"/>
<path fill-rule="evenodd" clip-rule="evenodd" d="M385.888 131.827C385.59 131.827 385.349 131.586 385.349 131.288V77.1235C385.349 73.7155 382.576 70.9427 379.164 70.9427H327.421C327.123 70.9427 326.883 70.7013 326.883 70.4038C326.883 70.1064 327.123 69.8652 327.421 69.8652H379.164C383.169 69.8652 386.428 73.1212 386.428 77.1235V131.288C386.428 131.586 386.185 131.827 385.888 131.827" fill="#72ACFF"/>
<path fill-rule="evenodd" clip-rule="evenodd" d="M385.89 149.571C385.592 149.571 385.352 149.33 385.352 149.032V140.957C385.352 140.659 385.592 140.418 385.89 140.418C386.187 140.418 386.43 140.659 386.43 140.957V149.032C386.43 149.33 386.187 149.571 385.89 149.571" fill="#72ACFF"/>
<path fill-rule="evenodd" clip-rule="evenodd" d="M155.812 163.26C155.514 163.26 155.273 163.019 155.273 162.721V142.261C155.273 141.964 155.514 141.722 155.812 141.722C156.109 141.722 156.352 141.964 156.352 142.261V162.721C156.352 163.019 156.109 163.26 155.812 163.26" fill="#001E57"/>
<path fill-rule="evenodd" clip-rule="evenodd" d="M155.812 93.0348C155.514 93.0348 155.273 92.7937 155.273 92.496V77.1235C155.273 73.1212 158.53 69.8652 162.535 69.8652H309.967C310.265 69.8652 310.505 70.1064 310.505 70.4038C310.505 70.7013 310.265 70.9427 309.967 70.9427H162.535C159.125 70.9427 156.352 73.7155 156.352 77.1235V92.496C156.352 92.7937 156.109 93.0348 155.812 93.0348" fill="#001E57"/>
<path fill-rule="evenodd" clip-rule="evenodd" d="M245.593 232.031H212.947C212.649 232.031 212.406 231.79 212.406 231.493C212.406 231.195 212.649 230.954 212.947 230.954H245.593C245.891 230.954 246.134 231.195 246.134 231.493C246.134 231.79 245.891 232.031 245.593 232.031" fill="#240448"/>
<path fill-rule="evenodd" clip-rule="evenodd" d="M155.812 195.468C155.514 195.468 155.273 195.228 155.273 194.93V152.943C155.273 152.645 155.514 152.404 155.812 152.404C156.109 152.404 156.352 152.645 156.352 152.943V194.93C156.352 195.228 156.109 195.468 155.812 195.468" fill="#001E57"/>
<path fill-rule="evenodd" clip-rule="evenodd" d="M135.869 158.309L137.399 161.198L140.195 162.777L137.399 164.357L135.869 167.245L134.339 164.357L131.543 162.777L134.339 161.198L135.869 158.309" fill="#006BFF"/>
<path fill-rule="evenodd" clip-rule="evenodd" d="M225.72 30.3577L227.25 33.2461L230.046 34.8257L227.25 36.4054L225.72 39.2938L224.191 36.4054L221.395 34.8257L224.191 33.2461L225.72 30.3577" fill="#CFE4FF"/>
<path fill-rule="evenodd" clip-rule="evenodd" d="M444.881 137.283L446.41 140.172L449.206 141.752L446.41 143.331L444.881 146.219L443.351 143.331L440.555 141.752L443.351 140.172L444.881 137.283" fill="#CFE4FF"/>
<path fill-rule="evenodd" clip-rule="evenodd" d="M42.0722 197.444L43.6015 200.332L46.398 201.912L43.6015 203.492L42.0722 206.38L40.5427 203.492L37.7461 201.912L40.5427 200.332L42.0722 197.444" fill="#006BFF"/>
<path fill-rule="evenodd" clip-rule="evenodd" d="M30.8691 83.0239L32.3983 85.9121L35.1949 87.492L32.3983 89.0717L30.8691 91.9601L29.3395 89.0717L26.543 87.492L29.3395 85.9121L30.8691 83.0239" fill="#006BFF"/>
<path fill-rule="evenodd" clip-rule="evenodd" d="M529.924 178.582L531.453 181.469L534.249 183.049L531.453 184.63L529.924 187.517L528.394 184.63L525.598 183.049L528.394 181.469L529.924 178.582" fill="#001E57"/>
<path fill-rule="evenodd" clip-rule="evenodd" d="M404.634 10.6677L406.164 13.5561L408.96 15.1358L406.164 16.7155L404.634 19.6039L403.105 16.7155L400.309 15.1358L403.105 13.5561L404.634 10.6677" fill="#001E57"/>
<path fill-rule="evenodd" clip-rule="evenodd" d="M513.177 73.0198L514.707 75.9082L517.503 77.4881L514.707 79.0677L513.177 81.9559L511.648 79.0677L508.852 77.4881L511.648 75.9082L513.177 73.0198" fill="#001E57"/>
<path fill-rule="evenodd" clip-rule="evenodd" d="M28.1987 124.247C28.356 124.277 28.5142 124.297 28.6722 124.307C29.5157 124.356 30.2771 124.077 30.9316 123.475C31.1869 123.24 31.5116 122.859 31.6083 122.381C31.7205 121.826 31.461 121.194 30.9913 120.878C30.5219 120.562 29.8386 120.559 29.3668 120.872C28.8797 121.194 28.55 121.821 28.3585 122.788C28.26 123.286 28.2069 123.775 28.1987 124.247ZM34.1488 130.902C31.2636 130.902 28.4627 129.623 27.4649 126.856C27.2689 126.312 27.1425 125.728 27.0864 125.116C25.885 124.669 24.6807 123.803 23.6795 122.636C22.5872 121.363 21.889 119.85 21.7641 118.486C21.7353 118.171 21.9673 117.892 22.2821 117.863C22.5986 117.836 22.8757 118.067 22.9043 118.381C23.0067 119.498 23.6211 120.81 24.5486 121.891C25.1733 122.619 26.0721 123.394 27.0678 123.866C27.0926 123.44 27.1482 123.006 27.2352 122.566C27.489 121.284 27.9795 120.417 28.7343 119.917C29.5892 119.351 30.7804 119.355 31.631 119.928C32.4817 120.501 32.9338 121.603 32.7306 122.608C32.6058 123.225 32.2518 123.816 31.7065 124.317C30.8148 125.138 29.7705 125.517 28.6049 125.45C28.4961 125.443 28.3867 125.433 28.2765 125.418C28.334 125.785 28.4226 126.136 28.5422 126.468C29.7653 129.861 34.0861 130.2 36.7634 129.357C36.8543 129.329 36.9447 129.299 37.0345 129.266C37.7964 128.994 38.4722 128.624 39.0429 128.167C39.2897 127.969 39.6499 128.009 39.8476 128.256C40.0452 128.503 40.0051 128.863 39.7585 129.061C39.0884 129.597 38.302 130.029 37.4206 130.344C37.3169 130.381 37.2124 130.417 37.1071 130.45C36.159 130.748 35.1487 130.902 34.1488 130.902V130.902Z" fill="#240448"/>
<path fill-rule="evenodd" clip-rule="evenodd" d="M441.426 81.8397C440.897 81.8397 440.359 81.9606 439.876 82.2019C439.557 82.362 438.795 82.8097 438.65 83.5052C438.502 84.2206 439.04 84.9905 439.516 85.5103C440.45 86.5294 441.6 87.2972 442.839 87.7701C443.92 86.7273 444.577 85.4959 444.318 84.0855C444.16 83.2354 443.65 82.5557 442.88 82.1715C442.436 81.9503 441.934 81.8397 441.426 81.8397ZM435.218 92.835C434.97 92.835 434.744 92.6742 434.668 92.4255C434.579 92.1223 434.751 91.8036 435.055 91.7136C436.429 91.3046 439.589 90.247 441.847 88.5945C440.668 88.055 439.58 87.2743 438.671 86.2846C437.714 85.2413 437.329 84.2272 437.531 83.2712C437.707 82.4245 438.357 81.6812 439.365 81.1778C440.624 80.5481 442.166 80.5362 443.391 81.1467C444.49 81.6956 445.221 82.6657 445.443 83.878C445.747 85.5287 445.145 86.9444 444.078 88.1379C445.051 88.3454 446.05 88.3759 447.023 88.2096C449.324 87.8166 451.115 86.3735 452.068 84.1459C452.191 83.8551 452.528 83.7207 452.819 83.8446C453.11 83.9689 453.245 84.3053 453.119 84.5962C452.008 87.1935 449.913 88.8776 447.217 89.3381C445.85 89.5715 444.444 89.4682 443.107 89.0686C440.783 91.0062 437.338 92.2293 435.38 92.8112C435.325 92.8272 435.273 92.835 435.218 92.835V92.835Z" fill="#240448"/>
<path fill-rule="evenodd" clip-rule="evenodd" d="M90.51 136.561C88.4235 136.561 86.3918 135.488 85.2569 133.56C83.5506 130.662 84.5172 126.93 87.415 125.224L94.111 121.282C97.0093 119.577 100.741 120.543 102.447 123.441C104.153 126.339 103.187 130.071 100.289 131.777L93.5933 135.719C92.6232 136.29 91.5597 136.561 90.51 136.561" fill="#006BFF"/>
<path fill-rule="evenodd" clip-rule="evenodd" d="M85.8808 139.287C83.7946 139.287 81.7627 138.214 80.6278 136.286C78.9219 133.388 79.8881 129.655 82.7861 127.949L87.4156 125.224C90.3139 123.518 94.0462 124.484 95.7522 127.382C97.4583 130.28 96.4919 134.013 93.5939 135.719L88.9644 138.444C87.9943 139.015 86.9306 139.287 85.8808 139.287" fill="white"/>
<path fill-rule="evenodd" clip-rule="evenodd" d="M7.19742 185.607C5.11098 185.607 3.07927 184.533 1.9441 182.605C0.238261 179.708 1.20465 175.975 4.10268 174.269L82.7885 127.949C85.6865 126.244 89.4188 127.21 91.1249 130.108C92.8307 133.006 91.8643 136.738 88.9663 138.444L10.2807 184.764C9.31066 185.335 8.24717 185.607 7.19742 185.607" fill="#72ACFF"/>
<path fill-rule="evenodd" clip-rule="evenodd" d="M2.43101 184.444C1.70324 184.444 0.994474 184.068 0.598528 183.395C0.00357905 182.385 0.340671 181.082 1.35149 180.489L4.39494 178.696C5.40598 178.103 6.70786 178.44 7.30258 179.449C7.89776 180.459 7.56067 181.762 6.54985 182.358L3.5064 184.149C3.16817 184.348 2.79718 184.444 2.43101 184.444" fill="#240448"/>
<path fill-rule="evenodd" clip-rule="evenodd" d="M425.117 257.189C425.138 260.885 422.161 263.899 418.465 263.922C414.769 263.942 411.755 260.963 411.735 257.267C411.712 253.573 414.691 250.559 418.387 250.536C422.083 250.516 425.097 253.495 425.117 257.189" fill="#CFE4FF"/>
<path fill-rule="evenodd" clip-rule="evenodd" d="M410.989 266.301L302.703 266.931C301.242 266.94 299.911 266.095 299.298 264.767C298.217 262.433 299.769 259.733 302.33 259.488L410.128 249.229C415.132 248.752 419.464 252.671 419.494 257.695C419.522 262.422 415.713 266.273 410.989 266.301" fill="#001E57"/>
<path fill-rule="evenodd" clip-rule="evenodd" d="M411.461 253.461C410.891 253.461 410.428 253.001 410.426 252.43C410.417 250.901 409.787 249.49 408.653 248.462C407.522 247.436 406.056 246.943 404.536 247.083L369.682 250.262C369.107 250.312 368.608 249.893 368.555 249.323C368.505 248.753 368.924 248.249 369.494 248.196L404.346 245.018C406.425 244.83 408.502 245.524 410.048 246.927C411.594 248.329 412.487 250.33 412.498 252.419C412.503 252.991 412.04 253.459 411.468 253.461C411.465 253.461 411.463 253.461 411.461 253.461" fill="#CFE4FF"/>
<path fill-rule="evenodd" clip-rule="evenodd" d="M304.367 263.214C304.45 264.948 301.677 266.491 298.168 266.658C296.158 266.757 294.314 265.809 293.107 264.984C292.265 264.407 292.207 263.191 292.991 262.536C294.11 261.6 295.855 260.48 297.866 260.381C301.374 260.214 304.285 261.48 304.367 263.214" fill="#CFE4FF"/>
<path fill-rule="evenodd" clip-rule="evenodd" d="M336.888 257.562C336.366 257.562 335.917 257.171 335.858 256.639C335.796 256.069 336.206 255.558 336.776 255.494L359.195 253.007C359.763 252.943 360.279 253.355 360.34 253.923C360.405 254.494 359.995 255.007 359.424 255.068L337.003 257.555C336.964 257.56 336.927 257.562 336.888 257.562" fill="#CFE4FF"/>
<path fill-rule="evenodd" clip-rule="evenodd" d="M125.258 267.384H4.6311C4.31485 267.384 4.05859 267.128 4.05859 266.812C4.05859 266.495 4.31485 266.239 4.6311 266.239H125.258C125.574 266.239 125.831 266.495 125.831 266.812C125.831 267.128 125.574 267.384 125.258 267.384" fill="#240448"/>
<path fill-rule="evenodd" clip-rule="evenodd" d="M359.695 105.234H250.875V57.7026H362.141L359.695 105.234" fill="#001E57"/>
<path fill-rule="evenodd" clip-rule="evenodd" d="M340.834 57.7024C335.624 57.7024 331.404 61.9243 331.404 67.1341V225.8L211.445 215.128V67.1341C211.445 64.5303 212.501 62.1712 214.207 60.4642C215.913 58.7595 218.272 57.7024 220.876 57.7024H340.834" fill="#006BFF"/>
<path fill-rule="evenodd" clip-rule="evenodd" d="M378.559 21.3589C373.349 21.3589 369.129 25.5808 369.129 30.7897V95.8024C369.129 98.4062 368.073 100.764 366.365 102.471C364.659 104.177 362.302 105.233 359.696 105.233C354.489 105.233 350.266 101.01 350.266 95.8024V67.1333C350.266 64.5296 349.21 62.1708 347.504 60.4648C345.798 58.7585 343.439 57.7025 340.835 57.7025H249.168V30.7897C249.168 25.5808 253.393 21.3589 258.601 21.3589H378.559" fill="#006BFF"/>
<path fill-rule="evenodd" clip-rule="evenodd" d="M359.696 105.772C354.2 105.772 349.727 101.3 349.727 95.8024V67.1333C349.727 64.757 348.802 62.5242 347.121 60.8458C345.443 59.1663 343.21 58.2414 340.835 58.2414H220.355C220.057 58.2414 219.816 58 219.816 57.7026C219.816 57.4051 220.057 57.1637 220.355 57.1637H340.835C343.498 57.1637 346.001 58.2009 347.884 60.0837C349.766 61.9654 350.804 64.4691 350.804 67.1333V95.8024C350.804 100.706 354.793 104.695 359.696 104.695C362.071 104.695 364.303 103.77 365.984 102.09C367.663 100.41 368.588 98.1774 368.588 95.8024V30.7897C368.588 25.2925 373.06 20.8201 378.559 20.8201C378.856 20.8201 379.097 21.0612 379.097 21.3589C379.097 21.6564 378.856 21.8975 378.559 21.8975C373.656 21.8975 369.667 25.8868 369.667 30.7897V95.8024C369.667 98.465 368.629 100.969 366.747 102.852C364.862 104.735 362.359 105.772 359.696 105.772" fill="white"/>
<path fill-rule="evenodd" clip-rule="evenodd" d="M226.625 203.838H316.181V133.9H226.625V203.838Z" fill="white"/>
<path fill-rule="evenodd" clip-rule="evenodd" d="M226.625 121.303H316.181V77.4878H226.625V121.303Z" fill="#CFE4FF"/>
<path fill-rule="evenodd" clip-rule="evenodd" d="M301.524 88.5694H285.015C284.717 88.5694 284.477 88.3283 284.477 88.0306C284.477 87.7331 284.717 87.4919 285.015 87.4919H301.524C301.821 87.4919 302.064 87.7331 302.064 88.0306C302.064 88.3283 301.821 88.5694 301.524 88.5694" fill="white"/>
<path fill-rule="evenodd" clip-rule="evenodd" d="M272.994 88.5694H241.287C240.989 88.5694 240.746 88.3283 240.746 88.0306C240.746 87.7331 240.989 87.4919 241.287 87.4919H272.994C273.292 87.4919 273.535 87.7331 273.535 88.0306C273.535 88.3283 273.292 88.5694 272.994 88.5694" fill="white"/>
<path fill-rule="evenodd" clip-rule="evenodd" d="M301.521 96.2842H241.287C240.989 96.2842 240.746 96.0431 240.746 95.7456C240.746 95.4479 240.989 95.2068 241.287 95.2068H301.521C301.819 95.2068 302.062 95.4479 302.062 95.7456C302.062 96.0431 301.819 96.2842 301.521 96.2842" fill="white"/>
<path fill-rule="evenodd" clip-rule="evenodd" d="M301.521 103.999H241.287C240.989 103.999 240.746 103.758 240.746 103.461C240.746 103.163 240.989 102.922 241.287 102.922H301.521C301.819 102.922 302.062 103.163 302.062 103.461C302.062 103.758 301.819 103.999 301.521 103.999" fill="white"/>
<path fill-rule="evenodd" clip-rule="evenodd" d="M301.52 111.714H260.236C259.938 111.714 259.695 111.473 259.695 111.176C259.695 110.878 259.938 110.637 260.236 110.637H301.52C301.818 110.637 302.061 110.878 302.061 111.176C302.061 111.473 301.818 111.714 301.52 111.714" fill="white"/>
<path fill-rule="evenodd" clip-rule="evenodd" d="M301.521 147.638H241.287C240.989 147.638 240.746 147.397 240.746 147.099C240.746 146.801 240.989 146.56 241.287 146.56H301.521C301.819 146.56 302.062 146.801 302.062 147.099C302.062 147.397 301.819 147.638 301.521 147.638" fill="#240448"/>
<path fill-rule="evenodd" clip-rule="evenodd" d="M301.52 155.353H286.495C286.197 155.353 285.957 155.112 285.957 154.814C285.957 154.516 286.197 154.275 286.495 154.275H301.52C301.818 154.275 302.061 154.516 302.061 154.814C302.061 155.112 301.818 155.353 301.52 155.353" fill="#240448"/>
<path fill-rule="evenodd" clip-rule="evenodd" d="M277.297 155.353H241.287C240.989 155.353 240.746 155.112 240.746 154.814C240.746 154.516 240.989 154.275 241.287 154.275H277.297C277.595 154.275 277.835 154.516 277.835 154.814C277.835 155.112 277.595 155.353 277.297 155.353" fill="#240448"/>
<path fill-rule="evenodd" clip-rule="evenodd" d="M301.521 163.068H241.287C240.989 163.068 240.746 162.827 240.746 162.529C240.746 162.231 240.989 161.99 241.287 161.99H301.521C301.819 161.99 302.062 162.231 302.062 162.529C302.062 162.827 301.819 163.068 301.521 163.068" fill="#240448"/>
<path fill-rule="evenodd" clip-rule="evenodd" d="M301.521 170.783H241.287C240.989 170.783 240.746 170.542 240.746 170.244C240.746 169.946 240.989 169.705 241.287 169.705H301.521C301.819 169.705 302.062 169.946 302.062 170.244C302.062 170.542 301.819 170.783 301.521 170.783" fill="#240448"/>
<path fill-rule="evenodd" clip-rule="evenodd" d="M301.521 178.627H241.287C240.989 178.627 240.746 178.387 240.746 178.089C240.746 177.791 240.989 177.551 241.287 177.551H301.521C301.819 177.551 302.062 177.791 302.062 178.089C302.062 178.387 301.819 178.627 301.521 178.627" fill="#240448"/>
<path fill-rule="evenodd" clip-rule="evenodd" d="M301.522 186.342H263.65C263.352 186.342 263.109 186.102 263.109 185.804C263.109 185.506 263.352 185.264 263.65 185.264H301.522C301.82 185.264 302.063 185.506 302.063 185.804C302.063 186.102 301.82 186.342 301.522 186.342" fill="#240448"/>
<path fill-rule="evenodd" clip-rule="evenodd" d="M255.192 186.342H241.287C240.989 186.342 240.746 186.102 240.746 185.804C240.746 185.506 240.989 185.264 241.287 185.264H255.192C255.489 185.264 255.73 185.506 255.73 185.804C255.73 186.102 255.489 186.342 255.192 186.342" fill="#240448"/>
<path fill-rule="evenodd" clip-rule="evenodd" d="M301.522 194.058H287.905C287.608 194.058 287.367 193.817 287.367 193.519C287.367 193.222 287.608 192.981 287.905 192.981H301.522C301.82 192.981 302.062 193.222 302.062 193.519C302.062 193.817 301.82 194.058 301.522 194.058" fill="#240448"/>
<path fill-rule="evenodd" clip-rule="evenodd" d="M278.781 194.058H241.287C240.989 194.058 240.746 193.817 240.746 193.519C240.746 193.222 240.989 192.981 241.287 192.981H278.781C279.079 192.981 279.319 193.222 279.319 193.519C279.319 193.817 279.079 194.058 278.781 194.058" fill="#240448"/>
<path fill-rule="evenodd" clip-rule="evenodd" d="M57.9368 161.981C57.7918 161.981 57.6448 161.962 57.498 161.924C56.5664 161.683 56.0072 160.732 56.2488 159.8L56.7757 157.768L55.3655 156.748C54.586 156.184 54.4113 155.094 54.9756 154.315C55.5396 153.535 56.6287 153.361 57.4087 153.924L59.7828 155.642C60.364 156.063 60.628 156.797 60.4478 157.492L59.622 160.675C59.4187 161.46 58.7115 161.981 57.9368 161.981" fill="#FFBFAA"/>
<path fill-rule="evenodd" clip-rule="evenodd" d="M503.942 211.929C501.682 211.929 499.646 210.36 499.142 208.061L498.462 204.944C497.883 202.29 499.563 199.67 502.215 199.089C504.869 198.509 507.491 200.19 508.071 202.844L508.753 205.961C509.333 208.613 507.652 211.235 504.998 211.814C504.645 211.892 504.29 211.929 503.942 211.929" fill="#FFBFAA"/>
<path fill-rule="evenodd" clip-rule="evenodd" d="M511.435 212.307C510.998 212.307 510.561 212.142 510.222 211.814L505.051 206.79C504.362 206.119 504.346 205.018 505.017 204.326C505.685 203.637 506.789 203.621 507.481 204.292L512.649 209.314C513.341 209.985 513.357 211.088 512.686 211.778C512.345 212.13 511.889 212.307 511.435 212.307" fill="#FFBFAA"/>
<path fill-rule="evenodd" clip-rule="evenodd" d="M510.892 216.66C510.434 216.66 509.976 216.482 509.635 216.124L503.825 210.067C503.159 209.373 503.182 208.269 503.876 207.603C504.572 206.937 505.673 206.962 506.34 207.656L512.149 213.711C512.816 214.407 512.793 215.508 512.099 216.175C511.76 216.5 511.325 216.66 510.892 216.66" fill="#FFBFAA"/>
<path fill-rule="evenodd" clip-rule="evenodd" d="M507.31 217.956C506.809 217.956 506.309 217.741 505.966 217.324L501.592 212.034C500.978 211.295 501.081 210.195 501.823 209.582C502.565 208.968 503.662 209.073 504.276 209.815L508.65 215.105C509.263 215.845 509.16 216.944 508.418 217.558C508.093 217.826 507.699 217.956 507.31 217.956" fill="#FFBFAA"/>
<path fill-rule="evenodd" clip-rule="evenodd" d="M517.551 252.561L515.279 254.617L512.195 252.989L510.628 254.406L511.707 257.855L502.199 266.47L500.776 264.929C500.041 264.132 499.65 263.097 499.65 262.044C499.65 261.577 499.728 261.105 499.886 260.647L500.513 258.845L501.578 255.797L499.689 251.345L499.574 251.072L503.018 248.267L503.454 247.912L509.053 243.359L510.876 245.331L514.59 249.355L516.129 251.02L517.551 252.561" fill="#001E57"/>
<path fill-rule="evenodd" clip-rule="evenodd" d="M498.049 235.095C497.946 235.095 497.843 235.067 497.752 235.012C497.623 234.934 497.53 234.806 497.493 234.66L492.402 213.722C492.368 213.573 492.391 213.417 492.471 213.289C492.549 213.159 492.677 213.065 492.824 213.03L496.568 212.119C496.875 212.046 497.186 212.233 497.259 212.54C497.335 212.847 497.147 213.156 496.838 213.232L493.65 214.006L498.471 233.833L525.951 227.151L521.133 207.326L513.903 209.082C513.594 209.158 513.285 208.97 513.209 208.661C513.136 208.354 513.324 208.045 513.631 207.969L521.417 206.078C521.566 206.041 521.721 206.066 521.852 206.144C521.98 206.224 522.074 206.35 522.111 206.499L527.199 227.437C527.275 227.744 527.087 228.053 526.778 228.128L498.184 235.079C498.141 235.09 498.095 235.095 498.049 235.095" fill="#240448"/>
<path fill-rule="evenodd" clip-rule="evenodd" d="M459.063 208.881L452.637 201.434L468.019 188.168L472.187 171.877L481.715 174.315L476.783 193.599L459.063 208.881" fill="#006BFF"/>
<path fill-rule="evenodd" clip-rule="evenodd" d="M454.873 212.08L449.402 203.907L453.389 201.239L458.86 209.412L454.873 212.08" fill="#FFBFAA"/>
<path fill-rule="evenodd" clip-rule="evenodd" d="M448.592 215.817C448.017 215.817 447.456 215.533 447.122 215.013C446.604 214.203 446.84 213.127 447.651 212.607L453.626 208.778C454.434 208.258 455.513 208.494 456.033 209.304C456.552 210.115 456.316 211.191 455.506 211.711L449.531 215.54C449.24 215.728 448.913 215.817 448.592 215.817" fill="#FFBFAA"/>
<path fill-rule="evenodd" clip-rule="evenodd" d="M444.439 214.393C443.859 214.393 443.291 214.102 442.959 213.573C442.451 212.758 442.698 211.682 443.516 211.173L450.631 206.726C451.448 206.218 452.523 206.465 453.033 207.282C453.542 208.098 453.294 209.172 452.479 209.682L445.362 214.127C445.073 214.308 444.755 214.393 444.439 214.393" fill="#FFBFAA"/>
<path fill-rule="evenodd" clip-rule="evenodd" d="M443.905 210.619C443.278 210.619 442.673 210.28 442.362 209.687C441.913 208.835 442.238 207.782 443.09 207.333L449.163 204.136C450.015 203.687 451.069 204.012 451.517 204.864C451.966 205.716 451.639 206.769 450.789 207.218L444.714 210.417C444.455 210.552 444.178 210.619 443.905 210.619" fill="#44D4F4"/>
<path fill-rule="evenodd" clip-rule="evenodd" d="M459.284 209.824C458.84 209.824 458.398 209.655 458.059 209.316L451.876 203.14C451.198 202.462 451.198 201.363 451.876 200.685C452.553 200.007 453.653 200.007 454.33 200.685L460.511 206.861C461.189 207.539 461.189 208.638 460.511 209.316C460.172 209.655 459.728 209.824 459.284 209.824" fill="#006BFF"/>
<path fill-rule="evenodd" clip-rule="evenodd" d="M462.774 202.913C463.136 203.541 462.919 204.342 462.291 204.704C461.661 205.066 460.86 204.848 460.498 204.221C460.139 203.591 460.354 202.789 460.984 202.428C461.611 202.068 462.413 202.283 462.774 202.913" fill="white"/>
<path fill-rule="evenodd" clip-rule="evenodd" d="M467.439 266.812H464.373L463.182 263.532H461.068L459.552 266.812H446.721L446.703 264.716V264.673C446.703 263.12 447.553 261.689 448.918 260.945L453.429 258.485L455.018 253.917L455.117 253.637L459.552 253.873L460.111 253.903L467.32 254.288L467.343 256.891L467.439 266.812" fill="#001E57"/>
<path fill-rule="evenodd" clip-rule="evenodd" d="M468.257 254.906L455.027 251.853L458.767 235.642L471.996 238.692L468.257 254.906" fill="#001E57"/>
<path fill-rule="evenodd" clip-rule="evenodd" d="M465.386 243.957C464.879 243.957 464.366 243.9 463.853 243.783C460.201 242.94 457.922 239.295 458.765 235.642L463.345 215.783C463.65 214.466 464.339 213.268 465.328 212.348L480.697 197.998L480.775 190.707C480.816 186.983 483.848 183.993 487.562 183.993C487.587 183.993 487.61 183.993 487.635 183.993C491.384 184.034 494.391 187.105 494.352 190.854L494.27 198.443C494.233 201.946 492.742 205.329 490.18 207.72L476.107 220.855L471.995 238.692C471.271 241.832 468.475 243.957 465.386 243.957" fill="#001E57"/>
<path fill-rule="evenodd" clip-rule="evenodd" d="M468.141 255.373C468.123 255.373 468.104 255.373 468.088 255.371L454.094 254.954C453.137 254.926 452.383 254.127 452.411 253.17C452.438 252.229 453.21 251.484 454.144 251.484C454.163 251.484 454.179 251.487 454.197 251.487L468.191 251.903C469.149 251.931 469.902 252.73 469.875 253.69C469.845 254.629 469.075 255.373 468.141 255.373" fill="#006BFF"/>
<path fill-rule="evenodd" clip-rule="evenodd" d="M498.074 251.013L489.777 239.503L500.792 231.566L509.089 243.076L498.074 251.013" fill="#001E57"/>
<path fill-rule="evenodd" clip-rule="evenodd" d="M495.291 242.322C493.182 242.322 491.105 241.344 489.777 239.503L480.083 226.049C479.57 225.339 479.201 224.538 478.995 223.688L472.984 199.034C472.095 195.393 474.33 191.719 477.972 190.831C481.615 189.942 485.288 192.177 486.174 195.818L491.872 219.186L500.792 231.566C502.983 234.607 502.296 238.85 499.253 241.042C498.053 241.908 496.665 242.322 495.291 242.322" fill="#001E57"/>
<path fill-rule="evenodd" clip-rule="evenodd" d="M487.564 203.918H479.471C475.722 203.918 472.684 200.88 472.684 197.128C472.684 193.38 475.722 190.341 479.471 190.341H487.564C491.315 190.341 494.354 193.38 494.354 197.128C494.354 200.88 491.315 203.918 487.564 203.918" fill="#001E57"/>
<path fill-rule="evenodd" clip-rule="evenodd" d="M498.276 252.286C497.715 252.286 497.165 252.013 496.831 251.512C496.3 250.715 496.513 249.639 497.312 249.107L508.089 241.917C508.886 241.385 509.962 241.598 510.496 242.395C511.027 243.192 510.812 244.271 510.015 244.802L499.238 251.993C498.94 252.19 498.606 252.286 498.276 252.286" fill="#006BFF"/>
<path fill-rule="evenodd" clip-rule="evenodd" d="M494.367 191.415L472.398 196.833L469.376 181.371C468.478 176.491 470.479 171.479 474.592 168.701C476.621 167.33 479.069 166.529 481.703 166.529C488.726 166.529 494.419 172.223 494.419 179.246L494.367 191.415" fill="#006BFF"/>
<path fill-rule="evenodd" clip-rule="evenodd" d="M475.041 168.888L475.338 162.931L475.602 159.104L475.728 157.287C475.842 155.618 477.287 154.361 478.952 154.476C479.085 154.484 479.213 154.502 479.339 154.527C480.557 154.77 481.494 155.735 481.718 156.931C481.764 157.179 481.783 157.437 481.764 157.703L481.322 164.123L481.148 166.626C481.034 168.293 474.924 170.556 475.041 168.888" fill="#FFBFAA"/>
<path fill-rule="evenodd" clip-rule="evenodd" d="M485.829 223.615C485.942 226.088 484.375 228.213 482.172 228.946L480.045 225.994C479.559 225.321 479.207 224.558 479.01 223.752L477.895 219.172C478.74 218.705 479.727 218.46 480.773 218.515C483.501 218.661 485.706 220.887 485.829 223.615" fill="#006BFF"/>
<path fill-rule="evenodd" clip-rule="evenodd" d="M482.032 164.329L473.926 168.869L475.041 170.233L482.273 169.18L482.032 164.329" fill="white"/>
<path fill-rule="evenodd" clip-rule="evenodd" d="M473.955 162.234V162.234C472.075 161.385 471.242 159.174 472.089 157.295L473.365 154.475C474.482 151.999 477.397 150.899 479.873 152.017C482.348 153.136 483.45 156.05 482.33 158.526L482.032 159.184C480.645 162.257 477.029 163.622 473.955 162.234" fill="#FFBFAA"/>
<path fill-rule="evenodd" clip-rule="evenodd" d="M473.683 155.214L470.683 157.547C470.341 157.812 470.451 158.351 470.868 158.462L472.941 159.013L473.683 155.214" fill="#FFBFAA"/>
<path fill-rule="evenodd" clip-rule="evenodd" d="M478.254 154.798C478.254 154.798 478.153 155.724 478.267 156.17C478.416 156.75 478.835 157.157 479.396 157.353C480.102 157.601 480.967 157.596 481.711 157.609C483.402 157.638 485.572 156.547 484.746 154.501C484.466 153.807 483.754 153.293 483.005 153.301C483.5 153.374 484.036 153.229 484.386 152.871C484.737 152.513 484.867 151.938 484.652 151.485C484.409 150.968 483.789 150.713 483.218 150.73C482.646 150.746 482.105 150.981 481.581 151.211C481.434 150.487 480.983 149.814 480.333 149.466C479.68 149.118 478.831 149.131 478.226 149.555C478.034 149.691 477.86 149.876 477.807 150.106C477.754 150.336 477.855 150.612 478.075 150.698C478.185 149.996 477.738 149.247 477.07 149.011C476.399 148.775 475.581 149.078 475.226 149.694C475.132 149.859 475.073 150.051 475.064 150.24C475.114 150.392 475.242 150.65 475.242 150.779C474.468 150.908 472.918 150.005 473.822 149.101C472.918 148.972 471.887 149.618 471.498 150.392C471.175 151.038 471.267 151.767 471.642 152.37C472.464 153.695 474.12 153.946 475.528 154.188C476.337 154.328 477.933 154.708 477.933 154.708L478.233 154.792L478.254 154.798" fill="#72ACFF"/>
<path fill-rule="evenodd" clip-rule="evenodd" d="M472.397 197.405C472.141 197.405 471.905 197.231 471.841 196.97C471.765 196.664 471.953 196.352 472.26 196.277L494.132 190.881C494.439 190.808 494.75 190.993 494.826 191.3C494.902 191.607 494.714 191.919 494.407 191.994L472.535 197.389C472.489 197.399 472.443 197.405 472.397 197.405" fill="white"/>
<path fill-rule="evenodd" clip-rule="evenodd" d="M480.475 195.663C480.475 197.053 479.348 198.179 477.958 198.179C476.568 198.179 475.441 197.053 475.441 195.663C475.441 194.273 476.568 193.146 477.958 193.146C479.348 193.146 480.475 194.273 480.475 195.663" fill="white"/>
<path fill-rule="evenodd" clip-rule="evenodd" d="M474.187 223.507C474.031 223.507 473.877 223.445 473.765 223.324C473.55 223.09 473.566 222.729 473.797 222.513L489.395 208.107C489.626 207.892 489.988 207.905 490.203 208.139C490.418 208.37 490.402 208.732 490.171 208.947L474.574 223.356C474.464 223.457 474.324 223.507 474.187 223.507" fill="white"/>
<path fill-rule="evenodd" clip-rule="evenodd" d="M470.504 216.378C470.504 219.337 468.106 221.735 465.148 221.735C464.051 221.735 463.029 221.405 462.18 220.837L463.345 215.783C463.65 214.466 464.339 213.271 465.326 212.348L466.549 211.208C468.828 211.821 470.504 213.903 470.504 216.378" fill="#006BFF"/>
<path fill-rule="evenodd" clip-rule="evenodd" d="M474.096 186.159L470.324 182.39L474.096 178.62L477.865 182.39L474.096 186.159" fill="#001E57"/>
<path fill-rule="evenodd" clip-rule="evenodd" d="M478.195 186.159L474.426 182.39L478.195 178.62L481.965 182.39L478.195 186.159" fill="white"/>
<path fill-rule="evenodd" clip-rule="evenodd" d="M524.422 230.897L495.829 237.847L490.738 216.91L519.334 209.959L524.422 230.897" fill="#CFE4FF"/>
<path fill-rule="evenodd" clip-rule="evenodd" d="M471.648 158.697C471.914 158.508 472.262 158.38 472.702 158.336C473.306 158.276 473.927 158.444 474.435 158.777C475.001 159.147 475.475 159.635 476.206 159.431C476.483 159.355 476.739 159.223 476.993 159.095C477.612 158.787 478.198 158.395 478.734 157.96C478.736 157.959 478.736 157.958 478.738 157.957C478.738 157.957 481.667 159.366 481.667 159.366C481.951 159.559 480.655 160.993 480.527 161.144C479.258 162.628 477.309 163.609 475.319 163.52C474.188 163.47 473.002 163.104 472.102 162.401C470.89 161.455 470.497 159.515 471.648 158.697" fill="#72ACFF"/>
<path fill-rule="evenodd" clip-rule="evenodd" d="M482.723 158.41C482.471 159.667 481.251 160.483 479.993 160.232C478.736 159.982 477.919 158.76 478.171 157.503C478.42 156.246 479.643 155.43 480.9 155.68C482.155 155.931 482.973 157.153 482.723 158.41" fill="#FFBFAA"/>
<path fill-rule="evenodd" clip-rule="evenodd" d="M498.926 188.958C497.737 188.958 496.546 188.529 495.603 187.664L483.567 176.628C481.565 174.791 481.43 171.68 483.267 169.678C485.101 167.676 488.213 167.541 490.215 169.377L502.251 180.413C504.252 182.25 504.387 185.362 502.551 187.364C501.582 188.422 500.256 188.958 498.926 188.958" fill="#006BFF"/>
<path fill-rule="evenodd" clip-rule="evenodd" d="M501.476 217.068C500.558 217.068 499.788 216.349 499.738 215.419L499.413 209.378C499.36 208.418 500.098 207.596 501.059 207.543C502.017 207.493 502.841 208.23 502.891 209.19L503.219 215.231C503.269 216.191 502.534 217.013 501.572 217.065C501.54 217.065 501.508 217.068 501.476 217.068" fill="#FFBFAA"/>
<path fill-rule="evenodd" clip-rule="evenodd" d="M498.461 204.944L494.121 185.09L503.73 182.99L508.07 202.844L498.461 204.944" fill="#006BFF"/>
<path fill-rule="evenodd" clip-rule="evenodd" d="M498.927 206.765C498.132 206.765 497.417 206.217 497.234 205.411C497.024 204.477 497.61 203.547 498.544 203.337L507.198 201.383C508.133 201.17 509.062 201.759 509.273 202.693C509.484 203.627 508.897 204.557 507.963 204.768L499.309 206.721C499.181 206.751 499.053 206.765 498.927 206.765" fill="#006BFF"/>
<path fill-rule="evenodd" clip-rule="evenodd" d="M506.097 199.086C506.174 199.808 505.652 200.453 504.933 200.531C504.212 200.609 503.564 200.087 503.488 199.368C503.41 198.647 503.93 197.999 504.652 197.923C505.373 197.845 506.019 198.365 506.097 199.086" fill="white"/>
<path fill-rule="evenodd" clip-rule="evenodd" d="M503.995 225.071L507.467 227.412L509.807 223.942L506.338 221.6L503.995 225.071ZM507.62 228.779C507.511 228.779 507.398 228.747 507.3 228.68L502.88 225.699C502.619 225.522 502.55 225.167 502.727 224.904L505.708 220.484C505.885 220.223 506.242 220.155 506.503 220.331L510.923 223.313C511.184 223.489 511.255 223.844 511.076 224.107L508.095 228.527C507.985 228.69 507.804 228.779 507.62 228.779V228.779Z" fill="white"/>
<path fill-rule="evenodd" clip-rule="evenodd" d="M446.566 224.045L373.898 213.703L382.372 154.162L455.041 164.505L446.566 224.045" fill="#CFE4FF"/>
<path fill-rule="evenodd" clip-rule="evenodd" d="M439.157 202.579C439.134 202.579 439.111 202.579 439.088 202.574L405.702 197.508C405.454 197.469 405.285 197.238 405.321 196.991C405.358 196.744 405.589 196.572 405.837 196.611L439.225 201.676C439.473 201.715 439.642 201.946 439.605 202.194C439.571 202.418 439.376 202.579 439.157 202.579" fill="#001E57"/>
<path fill-rule="evenodd" clip-rule="evenodd" d="M398.755 196.448C398.732 196.448 398.709 196.448 398.686 196.444L388.248 194.859C388.001 194.822 387.832 194.591 387.868 194.344C387.907 194.096 388.141 193.925 388.386 193.964L398.821 195.546C399.071 195.585 399.241 195.816 399.204 196.063C399.17 196.288 398.975 196.448 398.755 196.448" fill="#001E57"/>
<path fill-rule="evenodd" clip-rule="evenodd" d="M438.321 208.398C438.3 208.398 438.277 208.395 438.254 208.391L387.304 200.685C387.056 200.646 386.885 200.414 386.923 200.167C386.96 199.92 387.194 199.748 387.439 199.787L438.39 207.495C438.637 207.532 438.806 207.763 438.77 208.01C438.735 208.235 438.543 208.398 438.321 208.398" fill="#001E57"/>
<path fill-rule="evenodd" clip-rule="evenodd" d="M437.173 214.136C437.15 214.136 437.127 214.134 437.104 214.132L422.395 211.922C422.148 211.883 421.976 211.654 422.013 211.404C422.052 211.157 422.285 210.985 422.53 211.024L437.239 213.234C437.486 213.271 437.656 213.502 437.619 213.749C437.585 213.976 437.393 214.136 437.173 214.136" fill="#001E57"/>
<path fill-rule="evenodd" clip-rule="evenodd" d="M415.869 210.935C415.846 210.935 415.824 210.935 415.801 210.93L386.36 206.508C386.11 206.469 385.941 206.24 385.978 205.991C386.014 205.744 386.248 205.574 386.493 205.611L415.936 210.035C416.183 210.072 416.355 210.303 416.316 210.55C416.284 210.775 416.089 210.935 415.869 210.935" fill="#001E57"/>
<path fill-rule="evenodd" clip-rule="evenodd" d="M444.884 175.817C444.861 175.817 444.838 175.815 444.815 175.813L412.78 170.874C412.532 170.836 412.363 170.605 412.4 170.357C412.438 170.109 412.667 169.94 412.917 169.978L444.952 174.915C445.2 174.954 445.371 175.185 445.332 175.433C445.298 175.657 445.103 175.817 444.884 175.817" fill="#001E57"/>
<path fill-rule="evenodd" clip-rule="evenodd" d="M405.769 169.789C405.746 169.789 405.723 169.787 405.701 169.783L393.176 167.853C392.929 167.815 392.76 167.583 392.799 167.336C392.835 167.088 393.066 166.918 393.316 166.957L405.838 168.887C406.085 168.925 406.255 169.157 406.218 169.404C406.181 169.628 405.989 169.789 405.769 169.789" fill="#001E57"/>
<path fill-rule="evenodd" clip-rule="evenodd" d="M443.848 181.849C443.825 181.849 443.802 181.847 443.779 181.845L392.141 173.885C391.894 173.848 391.724 173.614 391.763 173.367C391.8 173.12 392.031 172.95 392.279 172.989L443.916 180.947C444.164 180.986 444.333 181.217 444.297 181.465C444.262 181.689 444.068 181.849 443.848 181.849" fill="#001E57"/>
<path fill-rule="evenodd" clip-rule="evenodd" d="M442.814 187.881C442.791 187.881 442.768 187.879 442.743 187.877L429.545 185.829C429.298 185.793 429.128 185.559 429.165 185.312C429.204 185.065 429.433 184.897 429.683 184.934L442.882 186.979C443.13 187.018 443.299 187.249 443.26 187.497C443.226 187.721 443.034 187.881 442.814 187.881" fill="#001E57"/>
<path fill-rule="evenodd" clip-rule="evenodd" d="M422.111 184.673C422.088 184.673 422.063 184.671 422.04 184.668L391.17 179.885C390.923 179.846 390.753 179.614 390.79 179.367C390.829 179.12 391.06 178.95 391.308 178.987L422.18 183.771C422.427 183.81 422.596 184.041 422.557 184.291C422.523 184.513 422.331 184.673 422.111 184.673" fill="#001E57"/>
<path fill-rule="evenodd" clip-rule="evenodd" d="M451.289 206.05C451.211 206.05 451.133 206.043 451.055 206.034L446.269 205.391C445.316 205.263 444.645 204.385 444.774 203.431C444.902 202.478 445.779 201.809 446.734 201.935L451.52 202.581C452.473 202.709 453.141 203.586 453.013 204.539C452.896 205.414 452.147 206.05 451.289 206.05" fill="#FFBFAA"/>
<path fill-rule="evenodd" clip-rule="evenodd" d="M451.593 208.888C451.156 208.888 450.746 208.792 450.37 208.597C449.312 208.052 448.847 206.884 448.664 206.234L446.264 206.101C445.948 206.082 445.705 205.812 445.724 205.496C445.74 205.182 446.008 204.94 446.326 204.958L449.156 205.114C449.427 205.127 449.651 205.331 449.69 205.597C449.692 205.611 449.937 207.09 450.897 207.58C451.437 207.857 452.152 207.775 453.017 207.335C453.301 207.193 453.645 207.305 453.787 207.587C453.931 207.871 453.817 208.214 453.535 208.356C452.836 208.711 452.188 208.888 451.593 208.888" fill="#240448"/>
<path fill-rule="evenodd" clip-rule="evenodd" d="M443.163 12.4962H441.224C440.956 12.4962 440.738 12.2784 440.738 12.0096C440.738 11.741 440.956 11.5232 441.224 11.5232H443.163C443.431 11.5232 443.649 11.741 443.649 12.0096C443.649 12.2784 443.431 12.4962 443.163 12.4962ZM448.98 12.4962H447.04C446.773 12.4962 446.555 12.2784 446.555 12.0096C446.555 11.741 446.773 11.5232 447.04 11.5232H448.98C449.248 11.5232 449.468 11.741 449.468 12.0096C449.468 12.2784 449.248 12.4962 448.98 12.4962ZM454.799 12.4962H452.859C452.589 12.4962 452.372 12.2784 452.372 12.0096C452.372 11.741 452.589 11.5232 452.859 11.5232H454.799C455.067 11.5232 455.285 11.741 455.285 12.0096C455.285 12.2784 455.067 12.4962 454.799 12.4962ZM460.616 12.4962H458.676C458.408 12.4962 458.191 12.2784 458.191 12.0096C458.191 11.741 458.408 11.5232 458.676 11.5232H460.616C460.884 11.5232 461.101 11.741 461.101 12.0096C461.101 12.2784 460.884 12.4962 460.616 12.4962ZM466.432 12.4962H464.495C464.225 12.4962 464.007 12.2784 464.007 12.0096C464.007 11.741 464.225 11.5232 464.495 11.5232H466.432C466.703 11.5232 466.92 11.741 466.92 12.0096C466.92 12.2784 466.703 12.4962 466.432 12.4962ZM472.251 12.4962H470.312C470.044 12.4962 469.826 12.2784 469.826 12.0096C469.826 11.741 470.044 11.5232 470.312 11.5232H472.251C472.519 11.5232 472.737 11.741 472.737 12.0096C472.737 12.2784 472.519 12.4962 472.251 12.4962ZM478.068 12.4962H476.128C475.86 12.4962 475.643 12.2784 475.643 12.0096C475.643 11.741 475.86 11.5232 476.128 11.5232H478.068C478.336 11.5232 478.553 11.741 478.553 12.0096C478.553 12.2784 478.336 12.4962 478.068 12.4962ZM479.79 16.5919C479.522 16.5919 479.305 16.3742 479.305 16.1053V14.1661C479.305 13.8975 479.522 13.6795 479.79 13.6795C480.058 13.6795 480.276 13.8975 480.276 14.1661V16.1053C480.276 16.3742 480.058 16.5919 479.79 16.5919ZM479.79 22.4095C479.522 22.4095 479.305 22.1915 479.305 21.9229V19.9837C479.305 19.7148 479.522 19.4971 479.79 19.4971C480.058 19.4971 480.276 19.7148 480.276 19.9837V21.9229C480.276 22.1915 480.058 22.4095 479.79 22.4095ZM479.79 28.2269C479.522 28.2269 479.305 28.0091 479.305 27.7405V25.8013C479.305 25.5324 479.522 25.3147 479.79 25.3147C480.058 25.3147 480.276 25.5324 480.276 25.8013V27.7405C480.276 28.0091 480.058 28.2269 479.79 28.2269ZM479.79 34.0445C479.522 34.0445 479.305 33.8267 479.305 33.5581V31.6186C479.305 31.35 479.522 31.1322 479.79 31.1322C480.058 31.1322 480.276 31.35 480.276 31.6186V33.5581C480.276 33.8267 480.058 34.0445 479.79 34.0445ZM479.79 39.862C479.522 39.862 479.305 39.6443 479.305 39.3754V37.4362C479.305 37.1676 479.522 36.9498 479.79 36.9498C480.058 36.9498 480.276 37.1676 480.276 37.4362V39.3754C480.276 39.6443 480.058 39.862 479.79 39.862ZM479.79 45.6794C479.522 45.6794 479.305 45.4616 479.305 45.193V43.2538C479.305 42.9852 479.522 42.7672 479.79 42.7672C480.058 42.7672 480.276 42.9852 480.276 43.2538V45.193C480.276 45.4616 480.058 45.6794 479.79 45.6794ZM479.79 51.4972C479.522 51.4972 479.305 51.2792 479.305 51.0106V49.0714C479.305 48.8025 479.522 48.5848 479.79 48.5848C480.058 48.5848 480.276 48.8025 480.276 49.0714V51.0106C480.276 51.2792 480.058 51.4972 479.79 51.4972V51.4972Z" fill="#240448"/>
<path fill-rule="evenodd" clip-rule="evenodd" d="M428.044 26.1161C427.776 26.1161 427.559 25.8981 427.559 25.6294V23.6902C427.559 23.4214 427.776 23.2036 428.044 23.2036C428.312 23.2036 428.53 23.4214 428.53 23.6902V25.6294C428.53 25.8981 428.312 26.1161 428.044 26.1161ZM428.044 31.9334C427.776 31.9334 427.559 31.7156 427.559 31.447V29.5078C427.559 29.239 427.776 29.0212 428.044 29.0212C428.312 29.0212 428.53 29.239 428.53 29.5078V31.447C428.53 31.7156 428.312 31.9334 428.044 31.9334ZM428.044 37.751C427.776 37.751 427.559 37.5332 427.559 37.2646V35.3252C427.559 35.0566 427.776 34.8388 428.044 34.8388C428.312 34.8388 428.53 35.0566 428.53 35.3252V37.2646C428.53 37.5332 428.312 37.751 428.044 37.751ZM428.044 43.5686C427.776 43.5686 427.559 43.3508 427.559 43.0822V41.1428C427.559 40.8741 427.776 40.6564 428.044 40.6564C428.312 40.6564 428.53 40.8741 428.53 41.1428V43.0822C428.53 43.3508 428.312 43.5686 428.044 43.5686ZM428.044 49.3862C427.776 49.3862 427.559 49.1684 427.559 48.8995V46.9604C427.559 46.6917 427.776 46.474 428.044 46.474C428.312 46.474 428.53 46.6917 428.53 46.9604V48.8995C428.53 49.1684 428.312 49.3862 428.044 49.3862ZM428.044 55.2038C427.776 55.2038 427.559 54.9858 427.559 54.7171V52.7779C427.559 52.5093 427.776 52.2913 428.044 52.2913C428.312 52.2913 428.53 52.5093 428.53 52.7779V54.7171C428.53 54.9858 428.312 55.2038 428.044 55.2038ZM428.044 61.0211C427.776 61.0211 427.559 60.8033 427.559 60.5347V58.5955C427.559 58.3267 427.776 58.1089 428.044 58.1089C428.312 58.1089 428.53 58.3267 428.53 58.5955V60.5347C428.53 60.8033 428.312 61.0211 428.044 61.0211ZM430.639 64.2441H428.699C428.431 64.2441 428.214 64.0263 428.214 63.7577C428.214 63.4889 428.431 63.2711 428.699 63.2711H430.639C430.907 63.2711 431.124 63.4889 431.124 63.7577C431.124 64.0263 430.907 64.2441 430.639 64.2441ZM436.455 64.2441H434.518C434.248 64.2441 434.03 64.0263 434.03 63.7577C434.03 63.4889 434.248 63.2711 434.518 63.2711H436.455C436.726 63.2711 436.943 63.4889 436.943 63.7577C436.943 64.0263 436.726 64.2441 436.455 64.2441ZM442.274 64.2441H440.335C440.067 64.2441 439.849 64.0263 439.849 63.7577C439.849 63.4889 440.067 63.2711 440.335 63.2711H442.274C442.542 63.2711 442.76 63.4889 442.76 63.7577C442.76 64.0263 442.542 64.2441 442.274 64.2441ZM448.091 64.2441H446.151C445.883 64.2441 445.666 64.0263 445.666 63.7577C445.666 63.4889 445.883 63.2711 446.151 63.2711H448.091C448.359 63.2711 448.576 63.4889 448.576 63.7577C448.576 64.0263 448.359 64.2441 448.091 64.2441ZM453.908 64.2441H451.97C451.7 64.2441 451.483 64.0263 451.483 63.7577C451.483 63.4889 451.7 63.2711 451.97 63.2711H453.908C454.178 63.2711 454.395 63.4889 454.395 63.7577C454.395 64.0263 454.178 64.2441 453.908 64.2441ZM459.727 64.2441H457.787C457.519 64.2441 457.301 64.0263 457.301 63.7577C457.301 63.4889 457.519 63.2711 457.787 63.2711H459.727C459.995 63.2711 460.212 63.4889 460.212 63.7577C460.212 64.0263 459.995 64.2441 459.727 64.2441ZM465.543 64.2441H463.604C463.336 64.2441 463.118 64.0263 463.118 63.7577C463.118 63.4889 463.336 63.2711 463.604 63.2711H465.543C465.813 63.2711 466.031 63.4889 466.031 63.7577C466.031 64.0263 465.813 64.2441 465.543 64.2441ZM471.362 64.2441H469.423C469.155 64.2441 468.935 64.0263 468.935 63.7577C468.935 63.4889 469.155 63.2711 469.423 63.2711H471.362C471.63 63.2711 471.848 63.4889 471.848 63.7577C471.848 64.0263 471.63 64.2441 471.362 64.2441ZM477.179 64.2441H475.239C474.971 64.2441 474.754 64.0263 474.754 63.7577C474.754 63.4889 474.971 63.2711 475.239 63.2711H477.179C477.447 63.2711 477.664 63.4889 477.664 63.7577C477.664 64.0263 477.447 64.2441 477.179 64.2441V64.2441Z" fill="#240448"/>
<path fill-rule="evenodd" clip-rule="evenodd" d="M455.099 55.2543L448.703 54.585L451.108 31.5942L457.506 32.2636L455.099 55.2543" fill="white"/>
<path fill-rule="evenodd" clip-rule="evenodd" d="M468.406 27.4675L441.436 24.6458L440.82 30.5181L467.792 33.3398L468.406 27.4675" fill="white"/>
<path fill-rule="evenodd" clip-rule="evenodd" d="M100.639 56.6559C100.639 64.087 94.6139 70.1121 87.1828 70.1121C79.7516 70.1121 73.7266 64.087 73.7266 56.6559C73.7266 52.7033 75.4303 49.1492 78.144 46.6874C80.5325 44.5211 83.7042 43.1997 87.1828 43.1997V57.2994L100.401 54.1254C100.557 54.9453 100.639 55.7903 100.639 56.6559" fill="#72ACFF"/>
<path fill-rule="evenodd" clip-rule="evenodd" d="M100.402 54.1254L87.1836 57.2994V43.1997C93.7491 43.1997 99.2177 47.9034 100.402 54.1254" fill="#CFE4FF"/>
<path fill-rule="evenodd" clip-rule="evenodd" d="M542.837 102.102L546.831 140.256L524.017 151.781L533.148 138.875L484.851 133.202L482.133 94.9722L542.837 102.102" fill="#CFE4FF"/>
<path fill-rule="evenodd" clip-rule="evenodd" d="M531.93 153.325C531.889 153.325 531.847 153.321 531.806 153.312C531.474 153.245 531.259 152.92 531.328 152.588C532.747 145.607 535.972 138.87 539.093 132.355C540.172 130.103 541.287 127.774 542.285 125.512C542.647 124.695 542.936 123.963 542.817 123.292C542.769 123.019 542.666 122.68 542.448 122.612C542.107 122.507 540.953 122.624 537.602 126.01L537.431 126.182C537.231 126.381 536.947 126.702 536.618 127.074C534.934 128.979 532.39 131.86 530.169 131.548C529.294 131.427 528.603 130.844 528.108 129.816C527.542 128.635 527.838 127.334 528.186 126.451C528.992 124.399 530.492 122.861 531.944 121.373C533.375 119.903 534.728 118.514 535.463 116.673C536.118 115.036 536.123 113.528 535.479 112.535C534.939 111.702 533.929 111.233 532.557 111.178C524.725 110.869 522.971 118.676 521.414 125.569C521.043 127.217 520.69 128.775 520.269 130.152C518.591 135.642 513.023 139.416 507.161 139.417C506.291 139.417 505.418 139.334 504.548 139.162C503.231 138.901 497.749 137.24 497.03 134.437C496.844 133.706 496.913 132.589 498.312 131.419C500.737 129.391 503.873 128.812 506.907 128.253C509.575 127.761 512.336 127.252 514.512 125.74C517.026 123.995 518.51 121.658 518.586 119.328C518.604 118.702 518.524 117.534 517.752 116.746C517.189 116.169 516.612 115.91 515.989 115.949C514.21 116.067 512.346 118.556 511.343 119.893C507.358 125.213 500.103 128.383 493.293 127.781C490.753 127.557 488.383 126.238 487.251 124.421C486.368 122.998 486.244 121.359 486.894 119.681C487.973 116.901 490.696 115.239 492.791 114.333C493.634 113.97 494.488 113.612 495.317 113.267C497.584 112.321 499.927 111.343 502.137 110.159C504.232 109.035 506.843 107.636 508.494 105.5C509.481 104.225 509.888 102.548 509.442 101.599C509.169 101.015 508.558 100.702 507.624 100.669C505.166 100.58 502.487 101.664 500.183 102.735C498.15 103.679 496.169 104.871 494.254 106.025C492.525 107.066 490.737 108.144 488.905 109.04C485.069 110.919 481.201 111.788 477.423 111.627C477.084 111.612 476.823 111.325 476.836 110.987C476.85 110.647 477.141 110.384 477.475 110.399C481.05 110.554 484.714 109.724 488.364 107.937C490.148 107.064 491.914 106.001 493.622 104.972C495.564 103.802 497.573 102.593 499.666 101.621C502.102 100.488 504.967 99.3431 507.667 99.4409C509.449 99.5048 510.22 100.366 510.555 101.077C511.311 102.688 510.52 104.889 509.467 106.252C507.656 108.595 504.917 110.063 502.716 111.242C500.456 112.454 498.083 113.443 495.791 114.401C494.967 114.745 494.112 115.1 493.279 115.461C491.399 116.273 488.964 117.742 488.039 120.126C487.526 121.448 487.613 122.674 488.296 123.772C489.23 125.273 491.232 126.366 493.4 126.558C499.801 127.122 506.621 124.149 510.36 119.157C511.558 117.556 513.566 114.878 515.909 114.724C516.898 114.658 517.812 115.05 518.632 115.887C519.438 116.713 519.859 117.949 519.813 119.368C519.726 122.09 518.05 124.78 515.213 126.749C512.82 128.412 509.927 128.945 507.129 129.461C504.12 130.016 501.278 130.54 499.1 132.362C498.003 133.28 498.166 133.921 498.221 134.132C498.667 135.879 502.734 137.55 504.789 137.957C510.928 139.173 517.347 135.51 519.094 129.793C519.502 128.459 519.85 126.924 520.216 125.298C521.797 118.302 523.761 109.595 532.605 109.95C534.863 110.041 535.974 111.043 536.51 111.867C537.373 113.198 537.408 115.116 536.604 117.129C535.779 119.197 534.277 120.739 532.823 122.231C531.394 123.696 530.045 125.08 529.328 126.901C529.118 127.438 528.822 128.462 529.216 129.284C529.674 130.239 530.173 130.309 530.338 130.332C531.909 130.548 534.467 127.653 535.697 126.26C536.041 125.873 536.336 125.538 536.563 125.312L536.728 125.146C538.702 123.152 541.177 120.929 542.814 121.439C543.259 121.578 543.831 121.975 544.026 123.077C544.221 124.172 543.751 125.233 543.41 126.009C542.402 128.287 541.282 130.625 540.202 132.886C537.112 139.334 533.92 146 532.532 152.833C532.473 153.124 532.216 153.325 531.93 153.325" fill="white"/>
<path fill-rule="evenodd" clip-rule="evenodd" d="M173.121 215.247C187.367 215.247 198.916 226.796 198.916 241.042C198.916 255.288 187.367 266.837 173.121 266.837C158.874 266.837 147.328 255.288 147.328 241.042C147.328 226.796 158.874 215.247 173.121 215.247" fill="#72ACFF"/>
<path fill-rule="evenodd" clip-rule="evenodd" d="M173.124 219.129C185.227 219.129 195.04 228.939 195.04 241.042C195.04 253.145 185.227 262.955 173.124 262.955C161.021 262.955 151.211 253.145 151.211 241.042C151.211 228.939 161.021 219.129 173.124 219.129" fill="white"/>
<path fill-rule="evenodd" clip-rule="evenodd" d="M173.123 224.606C182.201 224.606 189.559 231.967 189.559 241.042C189.559 250.12 182.201 257.477 173.123 257.477C164.048 257.477 156.688 250.12 156.688 241.042C156.688 231.967 164.048 224.606 173.123 224.606" fill="#72ACFF"/>
<path fill-rule="evenodd" clip-rule="evenodd" d="M173.124 230.226C179.099 230.226 183.94 235.069 183.94 241.042C183.94 247.017 179.099 251.858 173.124 251.858C167.152 251.858 162.309 247.017 162.309 241.042C162.309 235.069 167.152 230.226 173.124 230.226" fill="white"/>
<path fill-rule="evenodd" clip-rule="evenodd" d="M173.121 235.773C176.032 235.773 178.39 238.131 178.39 241.042C178.39 243.953 176.032 246.311 173.121 246.311C170.21 246.311 167.852 243.953 167.852 241.042C167.852 238.131 170.21 235.773 173.121 235.773" fill="#72ACFF"/>
<path fill-rule="evenodd" clip-rule="evenodd" d="M173.122 241.935C172.863 241.935 172.606 241.823 172.43 241.605L141.677 203.85C141.366 203.467 141.423 202.906 141.806 202.595C142.188 202.283 142.749 202.341 143.06 202.723L173.816 240.479C174.125 240.861 174.067 241.424 173.685 241.734C173.52 241.869 173.321 241.935 173.122 241.935" fill="#001E57"/>
<path fill-rule="evenodd" clip-rule="evenodd" d="M150.625 214.21H144.006C143.512 214.21 143.113 213.811 143.113 213.319C143.113 212.824 143.512 212.426 144.006 212.426H149.851L150.76 206.098C150.828 205.611 151.282 205.272 151.77 205.34C152.257 205.411 152.596 205.865 152.525 206.353L151.509 213.445C151.444 213.884 151.069 214.21 150.625 214.21" fill="#CFE4FF"/>
<path fill-rule="evenodd" clip-rule="evenodd" d="M146.807 210.06H140.186C139.694 210.06 139.293 209.662 139.293 209.167C139.293 208.675 139.694 208.276 140.186 208.276H146.033L146.939 201.949C147.01 201.461 147.461 201.12 147.949 201.191C148.439 201.262 148.778 201.713 148.707 202.201L147.69 209.295C147.626 209.735 147.251 210.06 146.807 210.06" fill="#CFE4FF"/>
<path fill-rule="evenodd" clip-rule="evenodd" d="M370.059 267.409H208.569C208.253 267.409 207.996 267.153 207.996 266.837C207.996 266.521 208.253 266.264 208.569 266.264H370.059C370.375 266.264 370.632 266.521 370.632 266.837C370.632 267.153 370.375 267.409 370.059 267.409" fill="#240448"/>
<path fill-rule="evenodd" clip-rule="evenodd" d="M195.039 267.409H123.256C122.94 267.409 122.684 267.153 122.684 266.837C122.684 266.521 122.94 266.264 123.256 266.264H195.039C195.355 266.264 195.612 266.521 195.612 266.837C195.612 267.153 195.355 267.409 195.039 267.409" fill="#240448"/>
<path fill-rule="evenodd" clip-rule="evenodd" d="M87.1833 42.9009V57.2994L78.1445 46.3886C80.533 44.2222 83.7047 42.9009 87.1833 42.9009" fill="white"/>
<path fill-rule="evenodd" clip-rule="evenodd" d="M26.4766 245.485C30.1385 247.539 32.2522 250.729 31.1972 252.609C30.1424 254.491 26.3188 254.352 22.6566 252.3C20.1231 250.88 18.8357 248.015 18.2826 246.385C18.0552 245.714 18.4564 244.997 19.1473 244.841C20.8271 244.461 23.9429 244.065 26.4766 245.485" fill="#006BFF"/>
<path fill-rule="evenodd" clip-rule="evenodd" d="M41.2737 246.627C39.2061 248.723 36.6568 249.561 35.5798 248.498C34.5028 247.436 35.3062 244.875 37.3738 242.78C38.8044 241.33 40.9808 240.991 42.1863 240.92C42.6823 240.891 43.0918 241.294 43.0691 241.791C43.0142 242.998 42.7043 245.178 41.2737 246.627" fill="#006BFF"/>
<path fill-rule="evenodd" clip-rule="evenodd" d="M32.6771 266.461C32.3609 266.461 32.1046 266.205 32.1046 265.889C32.1046 257.695 30.8284 249.087 28.3114 240.3C28.2242 239.996 28.4003 239.679 28.7041 239.592C29.008 239.505 29.325 239.679 29.412 239.984C31.9585 248.874 33.2496 257.59 33.2496 265.889C33.2496 266.205 32.9934 266.461 32.6771 266.461" fill="#001E57"/>
<path fill-rule="evenodd" clip-rule="evenodd" d="M27.9094 237.57C27.6669 237.57 27.4418 237.414 27.3641 237.172C24.2923 227.544 20.8027 221.24 20.7677 221.176C20.614 220.901 20.713 220.551 20.9889 220.397C21.2653 220.244 21.6139 220.342 21.7678 220.619C21.8033 220.681 25.3459 227.08 28.4551 236.824C28.5511 237.124 28.3848 237.447 28.0837 237.543C28.0257 237.561 27.9671 237.57 27.9094 237.57" fill="#001E57"/>
<path fill-rule="evenodd" clip-rule="evenodd" d="M30.0201 225.589C30.0201 229.512 26.8397 232.692 22.9164 232.692C18.9931 232.692 15.8125 229.512 15.8125 225.589C15.8125 221.666 18.9931 218.485 22.9164 218.485C26.8397 218.485 30.0201 221.666 30.0201 225.589" fill="#006BFF"/>
<path fill-rule="evenodd" clip-rule="evenodd" d="M34.1883 266.34C33.943 266.34 33.742 266.143 33.7369 265.898C33.7326 265.676 33.3636 243.676 38.9234 227.851C39.0058 227.616 39.2632 227.492 39.4991 227.574C39.7343 227.659 39.8579 227.916 39.7753 228.151C34.2691 243.822 34.6355 265.66 34.6399 265.88C34.6449 266.129 34.4468 266.335 34.1974 266.34C34.1945 266.34 34.1913 266.34 34.1883 266.34" fill="#001E57"/>
<path fill-rule="evenodd" clip-rule="evenodd" d="M45.4227 229.509L40.3995 224.485L33.5379 226.324L31.6992 233.185L36.7224 238.209L43.584 236.37L45.4227 229.509" fill="#001E57"/>
<path fill-rule="evenodd" clip-rule="evenodd" d="M22.9182 226.709C19.1346 226.709 15.0625 225.834 15.0625 223.91C15.0625 223.594 15.3188 223.338 15.635 223.338C15.9513 223.338 16.2075 223.594 16.2075 223.91C16.2075 224.405 18.4907 225.564 22.9182 225.564C27.3457 225.564 29.6287 224.405 29.6287 223.91C29.6287 223.594 29.8849 223.338 30.2012 223.338C30.5174 223.338 30.7737 223.594 30.7737 223.91C30.7737 225.834 26.7016 226.709 22.9182 226.709" fill="white"/>
<path fill-rule="evenodd" clip-rule="evenodd" d="M22.9182 226.709C19.1346 226.709 15.0625 225.834 15.0625 223.91C15.0625 223.594 15.3188 223.338 15.635 223.338C15.9513 223.338 16.2075 223.594 16.2075 223.91C16.2075 224.405 18.4907 225.564 22.9182 225.564C27.3457 225.564 29.6287 224.405 29.6287 223.91C29.6287 223.594 29.8849 223.338 30.2012 223.338C30.5174 223.338 30.7737 223.594 30.7737 223.91C30.7737 225.834 26.7016 226.709 22.9182 226.709" fill="white"/>
<path fill-rule="evenodd" clip-rule="evenodd" d="M28.7936 228.6C28.3844 228.6 27.8895 228.543 27.2907 228.406C25.8353 228.069 24.0796 227.334 22.3467 226.333C19.0692 224.444 15.9793 221.65 16.9395 219.985C17.0973 219.713 17.4472 219.619 17.7213 219.777C17.9952 219.935 18.0893 220.285 17.9313 220.558C17.6844 220.986 19.0834 223.129 22.9188 225.341C24.5561 226.287 26.2001 226.979 27.5481 227.288C28.8302 227.586 29.4607 227.43 29.5571 227.265C29.7151 226.99 30.065 226.896 30.3389 227.054C30.613 227.212 30.7069 227.563 30.5489 227.835C30.3281 228.22 29.8445 228.6 28.7936 228.6" fill="white"/>
<path fill-rule="evenodd" clip-rule="evenodd" d="M28.7936 228.6C28.3844 228.6 27.8895 228.543 27.2907 228.406C25.8353 228.069 24.0796 227.334 22.3467 226.333C19.0692 224.444 15.9793 221.65 16.9395 219.985C17.0973 219.713 17.4472 219.619 17.7213 219.777C17.9952 219.935 18.0893 220.285 17.9313 220.558C17.6844 220.986 19.0834 223.129 22.9188 225.341C24.5561 226.287 26.2001 226.979 27.5481 227.288C28.8302 227.586 29.4607 227.43 29.5571 227.265C29.7151 226.99 30.065 226.896 30.3389 227.054C30.613 227.212 30.7069 227.563 30.5489 227.835C30.3281 228.22 29.8445 228.6 28.7936 228.6" fill="white"/>
<path fill-rule="evenodd" clip-rule="evenodd" d="M31.6972 233.76C31.4444 233.76 31.2131 233.59 31.1446 233.334C31.0629 233.029 31.244 232.715 31.5495 232.633L45.2729 228.955C45.5791 228.875 45.8924 229.056 45.9742 229.361C46.0557 229.665 45.8745 229.979 45.569 230.061L31.8458 233.739C31.7961 233.753 31.7462 233.76 31.6972 233.76" fill="white"/>
<path fill-rule="evenodd" clip-rule="evenodd" d="M38.5605 231.921C38.4139 231.921 38.2673 231.863 38.1558 231.751L33.1326 226.729C32.9089 226.505 32.9089 226.143 33.1326 225.919C33.3562 225.696 33.7189 225.696 33.9422 225.919L38.9653 230.943C39.1889 231.165 39.1889 231.529 38.9653 231.751C38.8536 231.863 38.707 231.921 38.5605 231.921" fill="white"/>
<path fill-rule="evenodd" clip-rule="evenodd" d="M534.618 267.384H358.748C358.43 267.384 358.176 267.128 358.176 266.812C358.176 266.495 358.43 266.239 358.748 266.239H534.618C534.934 266.239 535.19 266.495 535.19 266.812C535.19 267.128 534.934 267.384 534.618 267.384" fill="#240448"/>
</svg>
