<svg width="551" height="253" viewBox="0 0 551 253" fill="none" xmlns="http://www.w3.org/2000/svg">
<path fill-rule="evenodd" clip-rule="evenodd" d="M50.9805 145.928H131.252C130.713 139.206 126.316 127.74 125.497 126.419C125.162 125.884 124.874 125.387 124.632 125.003C120.884 119.057 110.547 115.092 105.879 122.223C102.618 127.208 105.331 136.92 98.5414 139.402C90.7551 142.249 88.7944 132.01 88.1015 126.76C87.25 120.308 87.3925 113.698 85.4909 107.419C84.685 105.539 83.3423 103.39 81.1935 103.122C79.0449 103.122 77.1648 104.733 76.3564 106.616C73.9741 112.401 73.3186 118.643 72.4485 124.786C71.7395 129.768 70.7726 140.761 64.1466 141.379C60.6281 141.704 57.4454 135.424 54.1848 138.207C52.1166 139.971 52.2268 143.662 50.9805 145.928" fill="#CFE4FF"/>
<path fill-rule="evenodd" clip-rule="evenodd" d="M249.262 6.87135C249.262 3.17 252.261 0.169678 255.964 0.169678C259.664 0.169678 262.665 3.17 262.665 6.87135C262.665 10.5725 259.664 13.573 255.964 13.573C252.261 13.573 249.262 10.5725 249.262 6.87135" fill="#CFE4FF"/>
<path fill-rule="evenodd" clip-rule="evenodd" d="M212.602 38.9851C212.602 35.284 215.601 32.2834 219.303 32.2834C223.004 32.2834 226.005 35.284 226.005 38.9851C226.005 42.6865 223.004 45.6868 219.303 45.6868C215.601 45.6868 212.602 42.6865 212.602 38.9851" fill="#CFE4FF"/>
<path fill-rule="evenodd" clip-rule="evenodd" d="M193.199 15.4268C193.199 11.7256 196.201 8.7251 199.901 8.7251C203.604 8.7251 206.603 11.7256 206.603 15.4268C206.603 19.1281 203.604 22.1284 199.901 22.1284C196.201 22.1284 193.199 19.1281 193.199 15.4268" fill="#CFE4FF"/>
<path fill-rule="evenodd" clip-rule="evenodd" d="M168.293 15.4268C168.293 11.7256 171.295 8.7251 174.995 8.7251C178.697 8.7251 181.697 11.7256 181.697 15.4268C181.697 19.1281 178.697 22.1284 174.995 22.1284C171.295 22.1284 168.293 19.1281 168.293 15.4268" fill="#CFE4FF"/>
<path fill-rule="evenodd" clip-rule="evenodd" d="M239.773 60.8833C239.773 57.1822 242.773 54.1816 246.475 54.1816C250.176 54.1816 253.177 57.1822 253.177 60.8833C253.177 64.5847 250.176 67.5852 246.475 67.5852C242.773 67.5852 239.773 64.5847 239.773 60.8833" fill="#DCE5F7"/>
<path fill-rule="evenodd" clip-rule="evenodd" d="M246.476 81.4336C245.344 81.4336 244.427 80.5165 244.427 79.3851V40.1519C244.427 27.648 234.254 17.4755 221.751 17.4755H151.166C150.034 17.4755 149.117 16.5581 149.117 15.4269C149.117 14.2955 150.034 13.3784 151.166 13.3784H221.751C236.513 13.3784 248.524 25.389 248.524 40.1519V79.3851C248.524 80.5165 247.606 81.4336 246.476 81.4336" fill="#CFE4FF"/>
<path fill-rule="evenodd" clip-rule="evenodd" d="M13.5947 192.968C13.5947 196.671 10.5942 199.67 6.89308 199.67C3.19173 199.67 0.191406 196.671 0.191406 192.968C0.191406 189.268 3.19173 186.266 6.89308 186.266C10.5942 186.266 13.5947 189.268 13.5947 192.968" fill="#CFE4FF"/>
<path fill-rule="evenodd" clip-rule="evenodd" d="M66.8723 181.824C66.8723 185.527 63.8718 188.526 60.1704 188.526C56.4693 188.526 53.4688 185.527 53.4688 181.824C53.4688 178.124 56.4693 175.125 60.1704 175.125C63.8718 175.125 66.8723 178.124 66.8723 181.824" fill="#CFE4FF"/>
<path fill-rule="evenodd" clip-rule="evenodd" d="M91.7744 181.824C91.7744 185.527 88.7739 188.526 85.0728 188.526C81.3714 188.526 78.3711 185.527 78.3711 181.824C78.3711 178.124 81.3714 175.125 85.0728 175.125C88.7739 175.125 91.7744 178.124 91.7744 181.824" fill="#CFE4FF"/>
<path fill-rule="evenodd" clip-rule="evenodd" d="M20.2979 136.369C20.2979 140.07 17.2976 143.07 13.5962 143.07C9.89507 143.07 6.89453 140.07 6.89453 136.369C6.89453 132.667 9.89507 129.667 13.5962 129.667C17.2976 129.667 20.2979 132.667 20.2979 136.369" fill="#CFE4FF"/>
<path fill-rule="evenodd" clip-rule="evenodd" d="M134.56 183.873H38.3204C23.5574 183.873 11.5469 171.864 11.5469 157.1V117.867C11.5469 116.736 12.464 115.818 13.5954 115.818C14.7266 115.818 15.6439 116.736 15.6439 117.867V157.1C15.6439 169.604 25.8164 179.776 38.3204 179.776H134.56C135.692 179.776 136.609 180.694 136.609 181.824C136.609 182.956 135.692 183.873 134.56 183.873" fill="#CFE4FF"/>
<path fill-rule="evenodd" clip-rule="evenodd" d="M113.128 252.235H85.4525C80.2989 249.292 76.0445 244.684 73.5841 238.782C67.6671 224.584 74.3798 208.28 88.5749 202.363C89.9312 201.798 91.3048 201.348 92.687 201.009C105.789 197.796 119.642 204.513 124.992 217.354C130.456 230.462 125.15 245.369 113.128 252.235" fill="#006BFF"/>
<path fill-rule="evenodd" clip-rule="evenodd" d="M71.5696 210.081C71.4335 210.081 71.2972 210.029 71.1924 209.928C70.9796 209.719 70.9762 209.378 71.1847 209.164C73.9099 206.383 77.1271 204.207 80.7465 202.698C84.5682 201.106 88.5915 200.358 92.7014 200.47C93.3749 200.489 94.0571 200.533 94.7299 200.597C95.0262 200.627 95.2427 200.891 95.2138 201.186C95.1847 201.484 94.9205 201.699 94.6247 201.671C93.9771 201.606 93.3199 201.565 92.6717 201.548C88.7129 201.438 84.8414 202.161 81.1612 203.694C77.6761 205.145 74.5783 207.241 71.9547 209.919C71.8493 210.027 71.7095 210.081 71.5696 210.081ZM74.6031 252.774C74.4893 252.774 74.3745 252.737 74.2769 252.664C70.2299 249.581 67.0519 245.458 65.0859 240.744C62.3698 234.227 62.1216 226.95 64.3873 220.252C64.4828 219.97 64.7886 219.819 65.0706 219.914C65.3527 220.009 65.504 220.315 65.4085 220.597C63.2269 227.047 63.4659 234.055 66.0813 240.33C67.9739 244.869 71.034 248.837 74.9302 251.806C75.167 251.987 75.2127 252.326 75.0322 252.563C74.9264 252.701 74.7657 252.774 74.6031 252.774ZM109.299 252.774C109.137 252.774 108.976 252.701 108.87 252.561C108.69 252.326 108.736 251.987 108.972 251.806C112.882 248.828 115.95 244.819 117.846 240.216C119.256 236.787 119.972 233.199 119.972 229.548C119.972 225.854 119.241 222.23 117.8 218.773C115.816 214.014 112.567 209.906 108.401 206.892C108.16 206.717 108.105 206.381 108.28 206.139C108.454 205.898 108.792 205.844 109.033 206.018C113.36 209.149 116.735 213.417 118.794 218.359C120.291 221.947 121.05 225.712 121.05 229.548C121.05 233.339 120.306 237.065 118.844 240.625C116.875 245.406 113.688 249.57 109.626 252.664C109.528 252.737 109.413 252.774 109.299 252.774V252.774Z" fill="#001E57"/>
<path fill-rule="evenodd" clip-rule="evenodd" d="M90.3323 245.701C89.0113 245.701 87.6647 245.393 86.6561 244.658C85.5609 243.858 85.0212 242.667 85.095 241.214C85.1103 240.916 85.3608 240.69 85.6608 240.703C85.9581 240.718 86.1869 240.973 86.1718 241.27C86.1164 242.357 86.4933 243.202 87.292 243.787C88.7493 244.85 91.2073 244.796 92.7803 244.203C96.21 242.913 98.21 238.868 97.2388 235.187C96.6958 233.128 95.1857 231.28 93.2 230.245C92.3896 229.822 91.4956 229.509 90.549 229.177C88.2878 228.386 85.9497 227.569 84.7446 225.164C83.4937 222.672 83.8454 219.392 85.6625 216.61C87.479 213.826 90.3379 212.188 93.1256 212.328L93.1504 212.33C95.8962 212.468 98.0148 214.814 97.8753 217.559C97.8605 217.854 97.6101 218.085 97.3097 218.07C97.0124 218.055 96.7836 217.801 96.7987 217.503C96.908 215.353 95.2478 213.516 93.098 213.406L93.073 213.404C90.6661 213.287 88.1727 214.736 86.5654 217.199C84.9572 219.661 84.6288 222.529 85.7084 224.681C86.7178 226.695 88.7519 227.407 90.9052 228.162C91.8462 228.49 92.8194 228.83 93.6983 229.29C95.9489 230.463 97.6621 232.565 98.2814 234.911C99.3893 239.112 97.0922 243.733 93.1601 245.212C92.3428 245.52 91.3451 245.701 90.3323 245.701" fill="#001E57"/>
<path fill-rule="evenodd" clip-rule="evenodd" d="M90.4653 250.232C90.458 250.232 90.4509 250.232 90.4437 250.232C90.1462 250.221 89.9144 249.971 89.9262 249.673L91.5521 208.492C91.564 208.194 91.8169 207.965 92.1121 207.974C92.4097 207.987 92.6413 208.237 92.6294 208.535L91.0035 249.714C90.9921 250.005 90.7532 250.232 90.4653 250.232" fill="#001E57"/>
<path fill-rule="evenodd" clip-rule="evenodd" d="M500.504 238.475C500.122 239.511 499.693 240.526 499.221 241.516L509.052 251.297L508.155 252.235H424.053L433.347 242.452C432.623 241.037 431.991 239.571 431.452 238.059H417.934V213.481H431.43C431.779 212.5 432.165 211.534 432.592 210.594L422.861 201.244L439.887 183.519L449.636 192.886C450.977 192.216 452.366 191.623 453.796 191.118V177.622H478.373V191.14C479.527 191.549 480.655 192.017 481.752 192.537L491.294 182.961L508.702 200.311L499.176 209.87C499.73 211.021 500.221 212.207 500.653 213.421H514.171V238.475H500.504" fill="#CFE4FF"/>
<path fill-rule="evenodd" clip-rule="evenodd" d="M487.126 226.327C487.126 237.962 477.692 247.396 466.054 247.396C454.418 247.396 444.984 237.962 444.984 226.327C444.984 214.689 454.418 205.255 466.054 205.255C477.692 205.255 487.126 214.689 487.126 226.327" fill="white"/>
<path fill-rule="evenodd" clip-rule="evenodd" d="M125.928 58.0561V36.0924H114.077C113.699 35.0284 113.266 33.9895 112.783 32.9803L121.134 24.6008L105.873 9.39112L97.5073 17.7851C96.5451 17.3292 95.5567 16.9202 94.5449 16.5601V4.70972H72.9991V16.5409C71.7467 16.9844 70.5296 17.503 69.354 18.0917L60.8067 9.88104L45.8803 25.4189L54.4117 33.6145C54.0373 34.4402 53.6986 35.2852 53.3937 36.1463H41.5625V57.6924H53.4126C53.8847 59.0174 54.4388 60.3032 55.073 61.5421L46.6831 70.3755L62.1626 85.6531L70.9253 76.427C71.5873 76.7147 72.2607 76.981 72.9451 77.2246V90.1023H94.491V77.2436C95.479 76.8939 96.4447 76.4973 97.3855 76.0564L106.39 85.0146L121.438 69.2962L112.822 60.7222C113.233 59.8541 113.611 58.9648 113.947 58.0561H125.928" fill="#CFE4FF"/>
<path fill-rule="evenodd" clip-rule="evenodd" d="M102.217 47.4059C102.217 57.6077 93.9471 65.8777 83.7455 65.8777C73.5436 65.8777 65.2734 57.6077 65.2734 47.4059C65.2734 37.2043 73.5436 28.9341 83.7455 28.9341C93.9471 28.9341 102.217 37.2043 102.217 47.4059" fill="white"/>
<path fill-rule="evenodd" clip-rule="evenodd" d="M148.812 232.194C147.175 232.194 145.729 231.153 145.209 229.6L88.0203 58.5224C87.6304 57.356 88.1451 56.4566 88.3845 56.1241C88.6241 55.7916 89.3137 55.0183 90.5436 55.0183H279.089C280.724 55.0183 282.173 56.0609 282.69 57.6126L339.38 227.191C339.771 228.365 339.583 229.613 338.861 230.616C338.136 231.618 337.013 232.194 335.777 232.194H148.812" fill="white"/>
<path fill-rule="evenodd" clip-rule="evenodd" d="M279.087 50.8845H90.5417C85.9019 50.8845 82.6269 55.4324 84.0979 59.8329L141.287 230.911C142.369 234.148 145.399 236.328 148.81 236.328H335.775C341.192 236.328 345.015 231.019 343.299 225.88L286.611 56.3021C285.528 53.0663 282.499 50.8845 279.087 50.8845ZM278.846 59.1519L335.309 228.06H149.052L92.5874 59.1519H278.846V59.1519Z" fill="#001E57"/>
<path fill-rule="evenodd" clip-rule="evenodd" d="M453.786 240.949C453.786 244.075 452.52 246.898 450.474 248.949C448.427 250.993 445.6 252.259 442.478 252.259H152.028C145.786 252.259 140.723 247.196 140.723 240.949C140.723 237.829 141.988 235.002 144.035 232.955C146.081 230.909 148.908 229.643 152.028 229.643H442.478C448.723 229.643 453.786 234.706 453.786 240.949" fill="#001E57"/>
<path fill-rule="evenodd" clip-rule="evenodd" d="M335.114 240.949C335.114 244.075 333.85 246.898 331.804 248.949C329.758 250.993 326.931 252.259 323.808 252.259H152.028C145.786 252.259 140.723 247.196 140.723 240.949C140.723 237.829 141.988 235.002 144.035 232.955C146.081 230.909 148.908 229.643 152.028 229.643H323.808C330.051 229.643 335.114 234.706 335.114 240.949" fill="#001E57"/>
<path fill-rule="evenodd" clip-rule="evenodd" d="M180.259 242.486H161.138C160.306 242.486 159.629 241.809 159.629 240.977C159.629 240.142 160.306 239.467 161.138 239.467H180.259C181.093 239.467 181.768 240.142 181.768 240.977C181.768 241.809 181.093 242.486 180.259 242.486" fill="white"/>
<path fill-rule="evenodd" clip-rule="evenodd" d="M216.473 242.486H197.353C196.521 242.486 195.844 241.809 195.844 240.977C195.844 240.142 196.521 239.467 197.353 239.467H216.473C217.308 239.467 217.983 240.142 217.983 240.977C217.983 241.809 217.308 242.486 216.473 242.486" fill="white"/>
<path fill-rule="evenodd" clip-rule="evenodd" d="M507.084 62.9602H346.685C346.627 61.7639 346.69 60.4727 346.862 59.1284V59.126C347.373 55.1396 348.852 50.6887 351.02 46.8731C354.411 40.8979 359.494 36.4793 365.202 37.8443C366.95 38.26 368.758 39.2209 370.59 40.8446C373.34 43.2791 375.552 46.2678 378.276 48.7323C380.997 51.1967 384.479 53.1763 388.141 52.9084C392.727 52.5757 396.022 48.4737 396.71 44.1522C398.36 33.7561 398.256 13.2181 411.257 10.3724C411.5 10.3193 411.746 10.2708 411.986 10.2316C423.091 8.33076 430.752 19.1817 433.708 28.9033C434.045 30.0075 434.321 31.0976 434.532 32.1531C435.138 34.6939 435.369 37.4656 435.468 40.2741C435.487 40.452 435.507 40.6275 435.528 40.803C435.617 41.556 435.716 42.3021 435.843 43.0365C436.152 44.8474 436.611 46.5751 437.381 48.0994C437.674 48.6861 438.088 49.2914 438.726 49.446C440.499 49.8758 441.987 47.8199 443.002 46.1824C443.289 45.7227 443.539 45.2955 443.746 44.9652C446.968 39.8514 455.858 36.4422 459.873 42.5746C462.677 46.8614 460.343 55.2134 466.183 57.3477C472.878 59.796 474.565 50.9912 475.162 46.4757C475.893 40.9279 475.77 35.2435 477.407 29.8434C478.099 28.2266 479.255 26.3789 481.103 26.1479C482.951 26.1479 484.566 27.5338 485.262 29.1528C487.311 34.1281 487.873 39.4958 488.622 44.7782C489.232 49.0626 490.064 58.5164 495.761 59.0475C498.787 59.327 501.525 53.9269 504.328 56.3198C506.107 57.8372 506.012 61.0109 507.084 62.9602" fill="#CFE4FF"/>
<path fill-rule="evenodd" clip-rule="evenodd" d="M318.663 53.6905C322.982 39.8546 315.163 25.1297 301.222 20.9904C287.551 16.9315 273.022 24.781 268.907 38.4343C267.432 43.3268 267.469 48.3215 268.752 52.9125C271.148 61.4874 274.967 64.3566 271.493 77.9346L271.223 77.8505C269.584 77.3391 267.84 78.2529 267.329 79.8922C266.837 81.4704 267.668 83.142 269.194 83.7209C268.69 84.0989 268.293 84.6307 268.09 85.278C267.588 86.8905 268.465 88.6014 270.055 89.1437C269.796 89.4514 269.591 89.8152 269.464 90.224C268.951 91.8633 269.865 93.6066 271.504 94.1183L273.526 94.7493C273.427 94.9276 273.345 95.1178 273.283 95.3194C272.772 96.9585 273.686 98.7021 275.325 99.2136L278.102 100.08C279.741 100.592 281.483 99.6778 281.996 98.0388C282.059 97.8372 282.1 97.6343 282.119 97.432L284.142 98.0629C285.781 98.5746 287.525 97.6606 288.036 96.0215C288.163 95.6125 288.202 95.1972 288.163 94.7961C289.779 95.2541 291.473 94.3465 291.978 92.734C292.181 92.0867 292.157 91.424 291.956 90.8263C293.541 91.2179 295.176 90.3159 295.668 88.7376C296.144 87.214 295.387 85.6017 293.962 84.971C298.919 71.3666 303.844 71.5881 310.723 65.727C314.333 62.651 317.145 58.552 318.663 53.6905" fill="#CFE4FF"/>
<path fill-rule="evenodd" clip-rule="evenodd" d="M275.879 100.343C275.67 100.343 275.461 100.325 275.251 100.289L272.386 99.7954C271.426 99.6303 270.587 99.1007 270.024 98.3048C269.462 97.5089 269.244 96.5418 269.41 95.5813C269.414 95.5559 269.419 95.5304 269.423 95.5052L267.926 95.2477C266.967 95.0824 266.128 94.553 265.565 93.7571C265.005 92.9612 264.785 91.9938 264.951 91.0334C264.994 90.7822 265.063 90.5392 265.155 90.3061C263.59 89.6751 262.641 88.04 262.939 86.3112C263.023 85.8263 263.202 85.3704 263.463 84.9633C262.042 84.266 261.196 82.6933 261.475 81.0729C261.8 79.1859 263.525 77.8849 265.403 78.0585C266.503 68.071 264.483 64.3296 261.938 59.616C261.093 58.051 260.22 56.4326 259.368 54.4443C257.391 49.825 256.772 44.752 257.578 39.7732C258.467 34.2882 261.017 29.2982 264.953 25.3428C265.164 25.1317 265.505 25.1311 265.716 25.3409C265.925 25.5509 265.927 25.8923 265.716 26.1034C261.94 29.8979 259.495 34.6845 258.643 39.9457C257.869 44.722 258.462 49.5891 260.358 54.0199C261.19 55.9634 262.053 57.5598 262.887 59.1037C265.57 64.0712 267.689 67.9949 266.41 78.7391C266.393 78.8857 266.316 79.019 266.199 79.1074C266.081 79.1958 265.932 79.232 265.785 79.2066L265.507 79.1589C264.11 78.9178 262.777 79.8591 262.538 81.2557C262.307 82.5907 263.161 83.8793 264.483 84.1894C264.672 84.2343 264.823 84.3798 264.877 84.5689C264.931 84.7583 264.875 84.9614 264.735 85.099C264.347 85.48 264.095 85.9623 264.002 86.4943C263.765 87.8759 264.655 89.1731 266.033 89.4474C266.208 89.4824 266.352 89.6012 266.423 89.765C266.492 89.9291 266.477 90.117 266.38 90.2668C266.195 90.5558 266.072 90.8751 266.014 91.2165C265.897 91.8929 266.05 92.5743 266.447 93.135C266.844 93.6958 267.433 94.0687 268.11 94.1851L270.197 94.5443C270.357 94.5719 270.495 94.6692 270.574 94.8098C270.654 94.9504 270.667 95.1192 270.609 95.27C270.546 95.4304 270.501 95.5966 270.471 95.7642C270.354 96.4408 270.51 97.1222 270.904 97.6829C271.301 98.2435 271.892 98.6164 272.569 98.7328L275.435 99.2264C276.112 99.3433 276.793 99.1889 277.354 98.7928C277.915 98.3966 278.288 97.806 278.404 97.1296C278.432 96.962 278.445 96.7897 278.441 96.6179C278.436 96.4564 278.503 96.3013 278.626 96.1954C278.747 96.0898 278.911 96.0441 279.07 96.0717L281.158 96.4309C282.555 96.6711 283.885 95.7303 284.125 94.3341C284.185 93.993 284.174 93.6508 284.097 93.3161C284.056 93.1427 284.105 92.9603 284.224 92.8292C284.345 92.6981 284.522 92.6343 284.698 92.6604C286.087 92.8626 287.361 91.9375 287.601 90.556C287.691 90.024 287.614 89.4845 287.374 88.9957C287.288 88.8191 287.305 88.6095 287.42 88.4488C287.532 88.288 287.724 88.2021 287.92 88.2233C289.265 88.3723 290.501 87.4433 290.732 86.1083C290.954 84.8212 290.175 83.5744 288.923 83.2081C288.651 83.1285 288.487 82.8516 288.547 82.5745C290.909 71.8938 294.37 68.8242 298.378 65.2702C299.778 64.0298 301.224 62.7473 302.755 61.0459C305.964 57.4819 308.092 53.0875 308.91 48.3378C310.076 41.5639 308.513 34.7563 304.506 29.169C300.502 23.583 294.555 19.9162 287.76 18.8436C282.654 18.038 277.483 18.8031 272.808 21.0569C272.539 21.1865 272.217 21.0735 272.088 20.8053C271.959 20.5372 272.071 20.2149 272.34 20.0857C277.214 17.7361 282.605 16.9381 287.929 17.7788C295.012 18.8965 301.209 22.7186 305.384 28.5409C309.559 34.3645 311.187 41.4601 309.973 48.5206C309.119 53.4714 306.902 58.0518 303.558 61.7672C301.984 63.5136 300.515 64.8167 299.094 66.0771C295.126 69.5947 291.98 72.3837 289.703 82.3498C291.198 83.023 292.079 84.6338 291.795 86.2914C291.515 87.9119 290.193 89.1112 288.621 89.2932C288.731 89.7646 288.746 90.2539 288.662 90.7391C288.364 92.4671 286.926 93.6917 285.24 93.7633C285.248 94.0139 285.231 94.2657 285.188 94.517C284.847 96.4997 282.956 97.8345 280.974 97.4933L279.478 97.2359C279.474 97.2615 279.471 97.2868 279.467 97.3122C279.301 98.2726 278.771 99.1112 277.975 99.6734C277.354 100.113 276.625 100.343 275.879 100.343" fill="#72ACFF"/>
<path fill-rule="evenodd" clip-rule="evenodd" d="M281.566 79.3224C281.553 79.3224 281.538 79.3219 281.523 79.3206C281.225 79.2971 281.005 79.0373 281.029 78.7406C281.329 74.962 282.185 68.801 283.375 61.8371C283.425 61.5438 283.705 61.3461 283.998 61.3965C284.292 61.4468 284.488 61.7252 284.438 62.0189C283.252 68.9523 282.403 75.0783 282.103 78.8262C282.081 79.1084 281.844 79.3224 281.566 79.3224" fill="#72ACFF"/>
<path fill-rule="evenodd" clip-rule="evenodd" d="M292.312 37.9598C291.6 37.9598 290.833 38.3121 290.24 38.9357C289.502 39.7124 289.086 40.7645 288.748 41.7855C288.221 43.3747 287.546 46.0863 286.807 49.5492C288.612 49.0856 290.281 48.2875 291.596 47.2117C293.407 45.729 294.563 43.6074 294.688 41.5365C294.774 40.0762 294.169 38.4033 292.845 38.0313C292.674 37.983 292.493 37.9598 292.312 37.9598ZM284.487 59.1645C284.454 59.1645 284.422 59.1617 284.39 59.1559C284.096 59.103 283.902 58.8227 283.954 58.5297C284.45 55.7784 284.946 53.2059 285.42 50.9021C281.207 51.5082 276.622 50.4676 273.776 47.2316C271.939 45.1419 271.12 42.3466 271.585 39.7547C271.863 38.2157 272.581 36.8747 273.608 35.9781C274.805 34.9327 276.422 34.5236 277.828 34.9105C277.985 34.9538 278.141 35.0069 278.289 35.0681C278.565 35.1811 278.697 35.4959 278.585 35.7715C278.47 36.0469 278.158 36.1788 277.88 36.0659C277.77 36.0208 277.655 35.9818 277.541 35.9498C276.497 35.6628 275.232 35.9921 274.317 36.7902C273.474 37.5263 272.881 38.647 272.646 39.9455C272.245 42.1829 272.987 44.702 274.587 46.5193C277.276 49.5777 281.677 50.4833 285.653 49.7963C286.442 46.0643 287.165 43.138 287.725 41.4461C288.103 40.3063 288.575 39.1231 289.459 38.1929C290.477 37.1225 291.92 36.6519 293.136 36.9933C295.01 37.5197 295.876 39.7094 295.764 41.6005C295.62 44.0018 294.35 46.3513 292.28 48.0462C290.729 49.3139 288.724 50.223 286.565 50.6953C286.065 53.0942 285.541 55.8049 285.015 58.7209C284.97 58.9816 284.741 59.1645 284.487 59.1645V59.1645Z" fill="#72ACFF"/>
<path fill-rule="evenodd" clip-rule="evenodd" d="M276.177 78.4037C276.168 78.4037 276.157 78.4035 276.146 78.4028C275.849 78.3864 275.622 78.1322 275.637 77.8348C276.013 71.0146 276.826 64.2094 278.05 57.6082C278.318 56.176 278.635 54.7159 278.943 53.3037C279.989 48.5033 281.069 43.5392 280.355 38.6383C280.312 38.3437 280.517 38.0701 280.813 38.0272C281.106 37.9843 281.38 38.1887 281.423 38.483C282.165 43.5776 281.063 48.6387 279.995 53.5332C279.691 54.9371 279.374 56.3892 279.111 57.8051C277.893 64.361 277.086 71.12 276.716 77.8941C276.698 78.1814 276.461 78.4037 276.177 78.4037" fill="#72ACFF"/>
<path fill-rule="evenodd" clip-rule="evenodd" d="M289.077 83.2297C289.045 83.2297 289.015 83.2272 288.982 83.2213L265.804 79.0879C265.511 79.0357 265.314 78.7556 265.368 78.4625C265.42 78.1695 265.7 77.9743 265.994 78.0265L289.17 82.16C289.463 82.2122 289.659 82.4923 289.608 82.7853C289.56 83.0465 289.334 83.2297 289.077 83.2297" fill="#72ACFF"/>
<path fill-rule="evenodd" clip-rule="evenodd" d="M250.884 229.732C247.734 229.732 245.177 227.183 245.168 224.03C245.162 220.873 247.712 218.307 250.869 218.299L258.339 218.279C258.343 218.279 258.35 218.279 258.354 218.279C261.504 218.279 264.062 220.83 264.07 223.981C264.079 227.138 261.526 229.704 258.369 229.712L250.9 229.732C250.895 229.732 250.889 229.732 250.884 229.732" fill="#72ACFF"/>
<path fill-rule="evenodd" clip-rule="evenodd" d="M245.72 229.744C242.57 229.744 240.013 227.196 240.004 224.043C239.997 220.886 242.548 218.32 245.705 218.314L250.87 218.299C250.876 218.299 250.88 218.299 250.885 218.299C254.035 218.299 256.593 220.85 256.601 224C256.61 227.157 254.057 229.723 250.9 229.731L245.735 229.744C245.731 229.744 245.725 229.744 245.72 229.744" fill="white"/>
<path fill-rule="evenodd" clip-rule="evenodd" d="M245.721 229.744C245.719 229.744 245.715 229.744 245.713 229.744L169.204 229.626C166.047 229.619 163.492 227.058 163.496 223.901C163.5 220.746 166.06 218.193 169.213 218.193C169.215 218.193 169.219 218.193 169.221 218.193L245.73 218.314C248.887 218.318 251.442 220.88 251.438 224.037C251.434 227.191 248.874 229.744 245.721 229.744" fill="#006BFF"/>
<path fill-rule="evenodd" clip-rule="evenodd" d="M169.214 226.605H164.047C162.559 226.603 161.352 225.395 161.352 223.907C161.352 222.417 162.559 221.212 164.049 221.212L169.214 221.214C170.704 221.214 171.911 222.422 171.909 223.909C171.909 225.4 170.701 226.605 169.214 226.605" fill="#001E57"/>
<path fill-rule="evenodd" clip-rule="evenodd" d="M550.032 252.822H371.829C371.503 252.822 371.242 252.559 371.242 252.235C371.242 251.912 371.503 251.649 371.829 251.649H550.032C550.356 251.649 550.617 251.912 550.617 252.235C550.617 252.559 550.356 252.822 550.032 252.822" fill="#240448"/>
<path fill-rule="evenodd" clip-rule="evenodd" d="M191.407 252.822H176.34C176.015 252.822 175.754 252.559 175.754 252.235C175.754 251.912 176.015 251.649 176.34 251.649H191.407C191.73 251.649 191.993 251.912 191.993 252.235C191.993 252.559 191.73 252.822 191.407 252.822" fill="#240448"/>
<path fill-rule="evenodd" clip-rule="evenodd" d="M358.404 252.845H191.407C191.081 252.845 190.82 252.582 190.82 252.259C190.82 251.935 191.081 251.672 191.407 251.672H358.404C358.728 251.672 358.989 251.935 358.989 252.259C358.989 252.582 358.728 252.845 358.404 252.845" fill="#240448"/>
<path fill-rule="evenodd" clip-rule="evenodd" d="M218.816 203.01H241.361L225.279 159.214H202.734L218.816 203.01" fill="#72ACFF"/>
<path fill-rule="evenodd" clip-rule="evenodd" d="M183.128 203.01H205.672L193.662 170.301H171.117L183.128 203.01" fill="#006BFF"/>
<path fill-rule="evenodd" clip-rule="evenodd" d="M159.815 134.221H182.36L175.326 116.362H152.781L159.815 134.221" fill="#CFE4FF"/>
<path fill-rule="evenodd" clip-rule="evenodd" d="M203.284 96.4475H225.828L218.794 78.5881H196.25L203.284 96.4475" fill="#CFE4FF"/>
<path fill-rule="evenodd" clip-rule="evenodd" d="M257.624 125.949H280.168L273.134 108.089H250.59L257.624 125.949" fill="#CFE4FF"/>
<path fill-rule="evenodd" clip-rule="evenodd" d="M253.236 203.01H275.779L251.759 137.594H229.215L253.236 203.01" fill="#006BFF"/>
<path fill-rule="evenodd" clip-rule="evenodd" d="M211.199 116.804L227.805 127.865L227.193 109.765L211.199 116.804" fill="#CFE4FF"/>
<path fill-rule="evenodd" clip-rule="evenodd" d="M167.703 156.441L167.438 153.96C167.522 153.951 175.957 153.008 186.575 148.395C196.335 144.156 210.004 135.852 219.688 120.367L221.803 121.691C217.367 128.784 211.763 135.025 205.145 140.242C199.858 144.411 193.915 147.936 187.485 150.721C176.533 155.465 168.056 156.404 167.703 156.441" fill="#CFE4FF"/>
<path fill-rule="evenodd" clip-rule="evenodd" d="M423.168 229.643H395.492C390.338 226.7 386.084 222.092 383.623 216.19C377.706 201.992 384.419 185.688 398.614 179.771C399.97 179.206 401.344 178.756 402.726 178.417C415.828 175.204 429.68 181.921 435.032 194.762C440.494 207.871 435.19 222.777 423.168 229.643" fill="#006BFF"/>
<path fill-rule="evenodd" clip-rule="evenodd" d="M381.609 187.489C381.473 187.489 381.337 187.439 381.232 187.336C381.018 187.127 381.016 186.786 381.223 186.572C383.949 183.791 387.166 181.615 390.786 180.108C394.607 178.514 398.631 177.768 402.741 177.878C403.414 177.898 404.097 177.941 404.77 178.008C405.066 178.036 405.281 178.299 405.253 178.596C405.223 178.892 404.958 179.107 404.664 179.079C404.015 179.017 403.36 178.976 402.711 178.956C398.752 178.849 394.879 179.569 391.2 181.102C387.716 182.555 384.617 184.649 381.995 187.327C381.889 187.435 381.749 187.489 381.609 187.489ZM384.643 230.182C384.529 230.182 384.414 230.148 384.315 230.072C380.27 226.989 377.091 222.868 375.125 218.152C372.41 211.638 372.16 204.36 374.426 197.66C374.521 197.378 374.827 197.227 375.11 197.322C375.392 197.419 375.543 197.725 375.448 198.005C373.266 204.457 373.505 211.465 376.121 217.738C378.014 222.277 381.074 226.247 384.971 229.214C385.206 229.395 385.251 229.734 385.072 229.971C384.966 230.109 384.805 230.182 384.643 230.182ZM419.338 230.182C419.177 230.182 419.015 230.109 418.909 229.971C418.728 229.734 418.775 229.395 419.013 229.214C422.922 226.236 425.991 222.227 427.886 217.624C429.296 214.195 430.01 210.607 430.01 206.956C430.01 203.263 429.279 199.638 427.839 196.183C425.857 191.424 422.605 187.314 418.439 184.3C418.2 184.125 418.144 183.789 418.318 183.547C418.493 183.306 418.832 183.252 419.073 183.426C423.399 186.557 426.775 190.825 428.835 195.767C430.329 199.355 431.088 203.12 431.088 206.956C431.088 210.747 430.346 214.475 428.882 218.033C426.913 222.816 423.726 226.978 419.664 230.072C419.567 230.148 419.453 230.182 419.338 230.182V230.182Z" fill="#72ACFF"/>
<path fill-rule="evenodd" clip-rule="evenodd" d="M400.371 223.112C399.051 223.112 397.703 222.803 396.694 222.066C395.599 221.266 395.06 220.075 395.133 218.622C395.148 218.327 395.407 218.1 395.7 218.111C395.998 218.126 396.226 218.381 396.211 218.678C396.155 219.765 396.532 220.612 397.33 221.195C398.788 222.26 401.246 222.206 402.818 221.613C406.249 220.321 408.248 216.276 407.277 212.595C406.734 210.536 405.225 208.69 403.239 207.655C402.428 207.232 401.533 206.918 400.586 206.588C398.326 205.796 395.989 204.977 394.784 202.575C393.533 200.08 393.884 196.802 395.7 194.018C397.518 191.237 400.377 189.596 403.163 189.736L403.193 189.738C404.519 189.805 405.744 190.387 406.635 191.375C407.528 192.362 407.983 193.639 407.914 194.967C407.898 195.265 407.644 195.493 407.349 195.478C407.051 195.463 406.822 195.209 406.838 194.911C406.889 193.872 406.533 192.871 405.835 192.097C405.136 191.323 404.179 190.868 403.137 190.814H403.107C400.703 190.693 398.212 192.144 396.604 194.607C394.995 197.072 394.667 199.94 395.747 202.092C396.757 204.104 398.79 204.815 400.944 205.57C401.884 205.9 402.857 206.24 403.737 206.698C405.988 207.873 407.7 209.973 408.319 212.319C409.427 216.52 407.131 221.143 403.2 222.622C402.38 222.93 401.384 223.109 400.371 223.112" fill="#72ACFF"/>
<path fill-rule="evenodd" clip-rule="evenodd" d="M400.504 227.642C400.498 227.642 400.489 227.642 400.483 227.642C400.185 227.629 399.954 227.379 399.965 227.081L401.591 185.902C401.604 185.604 401.856 185.378 402.152 185.384C402.449 185.395 402.68 185.645 402.669 185.943L401.043 227.125C401.03 227.414 400.793 227.642 400.504 227.642" fill="#72ACFF"/>
<path fill-rule="evenodd" clip-rule="evenodd" d="M125.607 83.8603C123.724 83.8603 121.516 82.1655 120.882 80.2334C120.665 79.5695 120.675 78.9775 120.913 78.6502C121.171 78.294 121.73 78.2407 122.04 78.2407C123.921 78.2407 126.129 79.9356 126.763 81.8677C126.983 82.5316 126.97 83.1235 126.733 83.4509C126.476 83.8071 125.917 83.8603 125.607 83.8603" fill="white"/>
<path fill-rule="evenodd" clip-rule="evenodd" d="M122.037 75.6223C119.038 75.6223 117.407 78.0525 118.393 81.0502C119.376 84.048 122.606 86.4782 125.604 86.4782C128.601 86.4782 130.233 84.048 129.248 81.0502C128.262 78.0525 125.034 75.6223 122.037 75.6223" fill="#001E57"/>
<path fill-rule="evenodd" clip-rule="evenodd" d="M146.56 81.0502C147.546 84.048 145.913 86.4782 142.916 86.4782C139.919 86.4782 136.688 84.048 135.705 81.0502C134.72 78.0525 136.352 75.6223 139.349 75.6223C142.347 75.6223 145.575 78.0525 146.56 81.0502" fill="#006BFF"/>
<path fill-rule="evenodd" clip-rule="evenodd" d="M163.873 81.0502C164.858 84.048 163.226 86.4782 160.228 86.4782C157.231 86.4782 154.003 84.048 153.018 81.0502C152.032 78.0525 153.665 75.6223 156.662 75.6223C159.659 75.6223 162.887 78.0525 163.873 81.0502" fill="#CFE4FF"/>
<path fill-rule="evenodd" clip-rule="evenodd" d="M382.306 153.197C382.306 156.898 379.307 159.899 375.604 159.899C371.904 159.899 368.902 156.898 368.902 153.197C368.902 149.496 371.904 146.495 375.604 146.495C379.307 146.495 382.306 149.496 382.306 153.197" fill="#CFE4FF"/>
<path fill-rule="evenodd" clip-rule="evenodd" d="M418.962 121.083C418.962 124.784 415.963 127.785 412.26 127.785C408.56 127.785 405.559 124.784 405.559 121.083C405.559 117.382 408.56 114.381 412.26 114.381C415.963 114.381 418.962 117.382 418.962 121.083" fill="#CFE4FF"/>
<path fill-rule="evenodd" clip-rule="evenodd" d="M438.369 144.641C438.369 148.343 435.367 151.343 431.667 151.343C427.964 151.343 424.965 148.343 424.965 144.641C424.965 140.94 427.964 137.94 431.667 137.94C435.367 137.94 438.369 140.94 438.369 144.641" fill="#CFE4FF"/>
<path fill-rule="evenodd" clip-rule="evenodd" d="M463.271 144.641C463.271 148.343 460.269 151.343 456.569 151.343C452.867 151.343 449.867 148.343 449.867 144.641C449.867 140.94 452.867 137.94 456.569 137.94C460.269 137.94 463.271 140.94 463.271 144.641" fill="#CFE4FF"/>
<path fill-rule="evenodd" clip-rule="evenodd" d="M391.794 99.1848C391.794 102.886 388.795 105.886 385.093 105.886C381.392 105.886 378.391 102.886 378.391 99.1848C378.391 95.4837 381.392 92.4832 385.093 92.4832C388.795 92.4832 391.794 95.4837 391.794 99.1848" fill="#DCE5F7"/>
<path fill-rule="evenodd" clip-rule="evenodd" d="M480.401 146.69H409.818C395.054 146.69 383.043 134.679 383.043 119.916V80.683C383.043 79.5518 383.962 78.6345 385.091 78.6345C386.224 78.6345 387.14 79.5518 387.14 80.683V119.916C387.14 132.42 397.314 142.593 409.818 142.593H480.401C481.534 142.593 482.45 143.51 482.45 144.641C482.45 145.773 481.534 146.69 480.401 146.69" fill="#CFE4FF"/>
<path fill-rule="evenodd" clip-rule="evenodd" d="M289.6 168.979C289.214 168.979 288.824 168.938 288.434 168.852C285.499 168.211 283.642 165.313 284.283 162.38L285.035 158.935C285.678 156.001 288.578 154.144 291.508 154.784C294.441 155.426 296.3 158.323 295.659 161.257L294.905 164.701C294.351 167.243 292.099 168.979 289.6 168.979" fill="#FFBFAA"/>
<path fill-rule="evenodd" clip-rule="evenodd" d="M281.32 169.395C280.818 169.395 280.317 169.199 279.938 168.811C279.198 168.047 279.215 166.827 279.979 166.087L285.693 160.534C286.456 159.793 287.675 159.811 288.417 160.574C289.158 161.337 289.141 162.556 288.378 163.298L282.661 168.849C282.288 169.214 281.803 169.395 281.32 169.395" fill="#FFBFAA"/>
<path fill-rule="evenodd" clip-rule="evenodd" d="M281.918 174.208C281.439 174.208 280.958 174.029 280.585 173.671C279.817 172.934 279.792 171.715 280.529 170.948L286.951 164.255C287.686 163.486 288.904 163.461 289.674 164.196C290.442 164.934 290.465 166.152 289.73 166.92L283.309 173.615C282.931 174.01 282.424 174.208 281.918 174.208" fill="#FFBFAA"/>
<path fill-rule="evenodd" clip-rule="evenodd" d="M285.882 175.642C285.449 175.642 285.015 175.495 284.655 175.2C283.836 174.521 283.721 173.307 284.399 172.487L289.235 166.639C289.912 165.82 291.126 165.706 291.946 166.383C292.765 167.062 292.882 168.276 292.202 169.095L287.368 174.943C286.986 175.403 286.436 175.642 285.882 175.642" fill="#FFBFAA"/>
<path fill-rule="evenodd" clip-rule="evenodd" d="M274.562 213.891L277.075 216.166L280.482 214.363L282.213 215.933L281.023 219.743L291.533 229.266L293.103 227.564C293.918 226.683 294.349 225.54 294.349 224.375C294.349 223.858 294.265 223.334 294.088 222.829L292.219 217.469L294.308 212.548L294.433 212.246L290.625 209.145L290.144 208.753L283.955 203.72L276.134 212.188L274.562 213.891" fill="#006BFF"/>
<path fill-rule="evenodd" clip-rule="evenodd" d="M296.119 194.452C296.08 194.452 296.039 194.447 296 194.439L264.392 186.754C264.125 186.689 263.961 186.419 264.026 186.15L269.652 163.006C269.684 162.878 269.764 162.766 269.878 162.698C269.99 162.629 270.126 162.608 270.255 162.639L278.861 164.731C279.131 164.798 279.295 165.067 279.228 165.335C279.163 165.602 278.894 165.766 278.626 165.701L270.503 163.726L265.113 185.902L295.75 193.35L301.141 171.176L297.488 170.288C297.22 170.223 297.054 169.951 297.121 169.684C297.186 169.417 297.458 169.253 297.723 169.317L301.863 170.324C302.13 170.389 302.294 170.659 302.23 170.926L296.602 194.07C296.548 194.299 296.343 194.452 296.119 194.452" fill="#240448"/>
<path fill-rule="evenodd" clip-rule="evenodd" d="M339.213 165.609L319.625 148.716L314.172 127.4L324.706 124.705L329.314 142.712L346.314 157.376L339.213 165.609" fill="#72ACFF"/>
<path fill-rule="evenodd" clip-rule="evenodd" d="M343.843 169.145L339.438 166.195L345.486 157.16L349.891 160.11L343.843 169.145" fill="#FFBFAA"/>
<path fill-rule="evenodd" clip-rule="evenodd" d="M350.786 173.274C350.431 173.274 350.071 173.175 349.749 172.97L343.144 168.737C342.25 168.164 341.989 166.971 342.562 166.077C343.136 165.18 344.326 164.919 345.223 165.494L351.828 169.727C352.723 170.301 352.984 171.491 352.41 172.388C352.041 172.962 351.42 173.274 350.786 173.274" fill="#FFBFAA"/>
<path fill-rule="evenodd" clip-rule="evenodd" d="M355.373 171.7C355.026 171.7 354.672 171.608 354.355 171.409L346.489 166.495C345.585 165.93 345.312 164.742 345.874 163.841C346.439 162.938 347.627 162.664 348.529 163.227L356.397 168.14C357.299 168.705 357.572 169.893 357.01 170.795C356.643 171.379 356.016 171.7 355.373 171.7" fill="#FFBFAA"/>
<path fill-rule="evenodd" clip-rule="evenodd" d="M355.963 167.528C355.661 167.528 355.355 167.457 355.068 167.306L348.353 163.771C347.413 163.275 347.051 162.11 347.546 161.169C348.042 160.227 349.207 159.866 350.149 160.362L356.862 163.899C357.804 164.392 358.164 165.559 357.668 166.499C357.323 167.155 356.655 167.528 355.963 167.528" fill="#FFBFAA"/>
<path fill-rule="evenodd" clip-rule="evenodd" d="M347.088 162.479C346.139 162.479 345.311 161.776 345.182 160.809C345.039 159.755 345.779 158.785 346.833 158.643L352.123 157.932C353.177 157.789 354.148 158.53 354.29 159.584C354.43 160.638 353.69 161.608 352.636 161.75L347.347 162.461C347.26 162.473 347.174 162.479 347.088 162.479" fill="#FFBFAA"/>
<path fill-rule="evenodd" clip-rule="evenodd" d="M338.964 166.652C338.475 166.652 337.983 166.465 337.608 166.089C336.86 165.339 336.86 164.125 337.61 163.377L344.441 156.548C345.192 155.799 346.406 155.8 347.154 156.549C347.902 157.298 347.902 158.512 347.154 159.261L340.32 166.089C339.947 166.465 339.456 166.652 338.964 166.652" fill="#72ACFF"/>
<path fill-rule="evenodd" clip-rule="evenodd" d="M335.107 159.01C334.708 159.705 334.947 160.591 335.642 160.991C336.336 161.39 337.222 161.15 337.621 160.456C338.02 159.761 337.781 158.875 337.087 158.475C336.392 158.076 335.506 158.316 335.107 159.01" fill="white"/>
<path fill-rule="evenodd" clip-rule="evenodd" d="M329.953 229.643H333.341L334.658 226.021H336.996L338.671 229.643H352.851L352.873 227.327V227.28C352.873 225.563 351.935 223.981 350.425 223.157L348.571 222.148L345.438 220.44L343.683 215.39L343.575 215.081L338.669 215.342L338.05 215.375L330.085 215.799L329.996 224.944L329.953 229.643" fill="#006BFF"/>
<path fill-rule="evenodd" clip-rule="evenodd" d="M329.048 216.483L324.914 198.562L339.536 195.189L343.67 213.108L329.048 216.483" fill="#006BFF"/>
<path fill-rule="evenodd" clip-rule="evenodd" d="M332.221 204.382C328.805 204.382 325.717 202.033 324.917 198.562L320.367 178.846L304.814 164.325C301.983 161.682 300.335 157.944 300.292 154.07L300.204 145.681C300.158 141.537 303.483 138.142 307.626 138.097C307.654 138.097 307.682 138.097 307.708 138.097C311.815 138.097 315.166 141.404 315.21 145.521L315.296 153.58L332.286 169.44C333.379 170.46 334.14 171.782 334.476 173.238L339.539 195.189C340.471 199.228 337.952 203.256 333.916 204.187C333.346 204.319 332.779 204.382 332.221 204.382" fill="#006BFF"/>
<path fill-rule="evenodd" clip-rule="evenodd" d="M329.174 216.998C328.141 216.998 327.289 216.177 327.259 215.137C327.226 214.079 328.059 213.195 329.117 213.164L344.587 212.703C345.654 212.666 346.53 213.505 346.56 214.564C346.592 215.623 345.76 216.507 344.701 216.537L329.232 216.998C329.212 216.998 329.193 216.998 329.174 216.998" fill="#72ACFF"/>
<path fill-rule="evenodd" clip-rule="evenodd" d="M296.089 212.181L283.914 203.407L293.083 190.682L305.257 199.457L296.089 212.181" fill="#006BFF"/>
<path fill-rule="evenodd" clip-rule="evenodd" d="M299.166 202.575C297.648 202.575 296.113 202.113 294.787 201.158C291.423 198.734 290.661 194.044 293.085 190.682L302.946 176.998L309.243 151.169C310.224 147.143 314.284 144.674 318.31 145.657C322.338 146.638 324.805 150.698 323.824 154.724L317.18 181.975C316.951 182.915 316.544 183.802 315.977 184.584L305.26 199.457C303.794 201.492 301.497 202.575 299.166 202.575" fill="#006BFF"/>
<path fill-rule="evenodd" clip-rule="evenodd" d="M316.652 160.122H307.707C303.563 160.122 300.203 156.763 300.203 152.618C300.203 148.474 303.563 145.115 307.707 145.115H316.652C320.796 145.115 324.156 148.474 324.156 152.618C324.156 156.763 320.796 160.122 316.652 160.122" fill="#006BFF"/>
<path fill-rule="evenodd" clip-rule="evenodd" d="M295.865 213.587C295.499 213.587 295.13 213.481 294.802 213.264L282.888 205.315C282.009 204.727 281.769 203.536 282.358 202.654C282.947 201.775 284.137 201.538 285.017 202.124L296.931 210.074C297.812 210.661 298.05 211.851 297.461 212.733C297.092 213.287 296.484 213.587 295.865 213.587" fill="#72ACFF"/>
<path fill-rule="evenodd" clip-rule="evenodd" d="M300.183 146.3L324.468 152.29L327.808 135.199C328.8 129.803 326.588 124.265 322.042 121.194C319.799 119.678 317.093 118.793 314.182 118.793C306.419 118.793 300.125 125.087 300.125 132.851L300.183 146.3" fill="#72ACFF"/>
<path fill-rule="evenodd" clip-rule="evenodd" d="M315.178 121.262L316.155 114.741L317.198 108.575C317.507 106.752 319.234 105.527 321.054 105.835C321.196 105.858 321.336 105.892 321.474 105.934C322.788 106.333 323.711 107.496 323.827 108.837C323.853 109.115 323.842 109.401 323.792 109.69L322.143 119.439C321.835 121.26 314.87 123.084 315.178 121.262" fill="#FFBFAA"/>
<path fill-rule="evenodd" clip-rule="evenodd" d="M309.623 181.895C309.5 184.63 311.232 186.978 313.666 187.789L316.019 184.526C316.556 183.78 316.942 182.939 317.16 182.046L318.395 176.983C317.459 176.468 316.371 176.196 315.213 176.259C312.198 176.42 309.759 178.879 309.623 181.895" fill="#72ACFF"/>
<path fill-rule="evenodd" clip-rule="evenodd" d="M313.822 116.362L323.172 119.625L321.55 122.888L313.555 121.724L313.822 116.362" fill="white"/>
<path fill-rule="evenodd" clip-rule="evenodd" d="M314.71 113.047V113.047C312.922 111.634 312.616 109.04 314.028 107.251L316.15 104.566C318.011 102.209 321.429 101.807 323.786 103.668C326.143 105.529 326.546 108.948 324.685 111.305L324.189 111.932C321.88 114.857 317.636 115.356 314.71 113.047" fill="#FFBFAA"/>
<path fill-rule="evenodd" clip-rule="evenodd" d="M316.295 105.444L312.453 107.145C312.017 107.338 311.989 107.946 312.408 108.176L314.482 109.32L316.295 105.444" fill="#FFBFAA"/>
<path fill-rule="evenodd" clip-rule="evenodd" d="M321.306 106.219C321.306 106.219 320.952 107.184 320.954 107.694C320.961 108.355 321.299 108.903 321.849 109.264C322.541 109.719 323.471 109.944 324.266 110.157C326.071 110.639 328.691 110.049 328.35 107.634C328.236 106.814 327.609 106.073 326.802 105.882C327.315 106.092 327.928 106.079 328.4 105.789C328.87 105.498 329.163 104.916 329.055 104.374C328.933 103.753 328.335 103.315 327.719 103.18C327.1 103.045 326.457 103.152 325.834 103.26C325.871 102.443 325.567 101.601 324.961 101.054C324.352 100.507 323.44 100.294 322.677 100.587C322.433 100.681 322.198 100.833 322.08 101.066C321.961 101.299 321.998 101.622 322.211 101.773C322.517 101.049 322.237 100.126 321.582 99.6941C320.926 99.2617 319.967 99.3691 319.423 99.9358C319.279 100.087 319.162 100.276 319.102 100.478C319.115 100.653 319.184 100.965 319.149 101.103C318.285 101.035 316.866 99.652 318.075 98.9242C317.14 98.5445 315.861 98.9611 315.238 99.6882C314.72 100.295 314.623 101.101 314.862 101.848C315.391 103.489 317.101 104.201 318.545 104.837C319.376 105.202 320.989 106.036 320.989 106.036L321.286 106.206L321.306 106.219" fill="#72ACFF"/>
<path fill-rule="evenodd" clip-rule="evenodd" d="M324.47 152.79C324.429 152.79 324.39 152.785 324.349 152.775L300.172 146.811C299.905 146.745 299.741 146.475 299.808 146.207C299.873 145.939 300.142 145.776 300.412 145.842L324.588 151.806C324.856 151.872 325.02 152.142 324.953 152.41C324.897 152.637 324.694 152.79 324.47 152.79" fill="white"/>
<path fill-rule="evenodd" clip-rule="evenodd" d="M315.539 150.997C315.539 152.534 316.785 153.779 318.321 153.779C319.858 153.779 321.105 152.534 321.105 150.997C321.105 149.461 319.858 148.215 318.321 148.215C316.785 148.215 315.539 149.461 315.539 150.997" fill="white"/>
<path fill-rule="evenodd" clip-rule="evenodd" d="M322.493 181.643C322.372 181.643 322.252 181.598 322.155 181.509L304.915 165.583C304.712 165.397 304.699 165.08 304.887 164.878C305.074 164.675 305.389 164.662 305.592 164.85L322.832 180.776C323.034 180.964 323.047 181.279 322.86 181.481C322.763 181.589 322.629 181.643 322.493 181.643" fill="white"/>
<path fill-rule="evenodd" clip-rule="evenodd" d="M326.562 173.895C326.562 177.167 329.215 179.817 332.484 179.817C333.698 179.817 334.828 179.452 335.766 178.823L334.476 173.238C334.14 171.782 333.377 170.46 332.285 169.44L330.936 168.181C328.417 168.86 326.562 171.161 326.562 173.895" fill="#72ACFF"/>
<path fill-rule="evenodd" clip-rule="evenodd" d="M322.592 140.492L326.76 136.326L322.592 132.158L318.426 136.326L322.592 140.492" fill="#001E57"/>
<path fill-rule="evenodd" clip-rule="evenodd" d="M318.061 140.492L322.229 136.326L318.061 132.158L313.895 136.326L318.061 140.492" fill="white"/>
<path fill-rule="evenodd" clip-rule="evenodd" d="M266.961 189.943L298.568 197.628L304.197 174.484L272.589 166.799L266.961 189.943" fill="#001E57"/>
<path fill-rule="evenodd" clip-rule="evenodd" d="M313.184 108.637C313.518 108.505 313.926 108.46 314.409 108.531C315.073 108.628 315.694 108.974 316.151 109.466C316.66 110.015 317.035 110.664 317.876 110.641C318.191 110.633 318.504 110.56 318.81 110.491C319.556 110.325 320.289 110.061 320.979 109.739C320.981 109.738 320.983 109.737 320.986 109.736C320.986 109.736 323.75 112.029 323.752 112.03C324.004 112.313 322.232 113.505 322.053 113.632C320.295 114.886 317.943 115.418 315.832 114.791C314.633 114.435 313.458 113.725 312.681 112.732C311.633 111.393 311.728 109.207 313.184 108.637" fill="#72ACFF"/>
<path fill-rule="evenodd" clip-rule="evenodd" d="M325.136 111.286C324.532 112.567 323.003 113.116 321.722 112.512C320.441 111.908 319.891 110.379 320.495 109.098C321.099 107.816 322.628 107.267 323.911 107.871C325.192 108.475 325.742 110.004 325.136 111.286" fill="#FFBFAA"/>
<path fill-rule="evenodd" clip-rule="evenodd" d="M295.145 143.585C293.674 143.585 292.21 142.992 291.136 141.823C289.107 139.61 289.256 136.171 291.471 134.142L304.773 121.942C306.988 119.913 310.425 120.062 312.454 122.274C314.485 124.487 314.336 127.926 312.122 129.955L298.819 142.156C297.776 143.113 296.458 143.585 295.145 143.585" fill="#72ACFF"/>
<path fill-rule="evenodd" clip-rule="evenodd" d="M292.323 174.657C292.288 174.657 292.252 174.657 292.217 174.655C291.154 174.596 290.341 173.689 290.397 172.628L290.757 165.952C290.816 164.889 291.721 164.076 292.784 164.132C293.847 164.188 294.662 165.096 294.604 166.159L294.244 172.835C294.188 173.861 293.339 174.657 292.323 174.657" fill="#FFBFAA"/>
<path fill-rule="evenodd" clip-rule="evenodd" d="M295.659 161.257L285.035 158.935L289.833 136.988L300.455 139.309L295.659 161.257" fill="#72ACFF"/>
<path fill-rule="evenodd" clip-rule="evenodd" d="M295.145 163.268C295.007 163.268 294.864 163.253 294.722 163.221L285.157 161.061C284.124 160.828 283.475 159.801 283.707 158.768C283.943 157.735 284.967 157.088 286.002 157.32L295.567 159.479C296.6 159.713 297.247 160.739 297.014 161.773C296.814 162.664 296.022 163.268 295.145 163.268" fill="#72ACFF"/>
<path fill-rule="evenodd" clip-rule="evenodd" d="M287.219 154.781C287.135 155.578 287.711 156.293 288.506 156.379C289.304 156.464 290.018 155.888 290.104 155.092C290.191 154.295 289.615 153.58 288.817 153.494C288.021 153.409 287.305 153.985 287.219 154.781" fill="white"/>
<path fill-rule="evenodd" clip-rule="evenodd" d="M282.929 182.219L285.668 186.277L289.726 183.541L286.987 179.482L282.929 182.219ZM285.532 187.469C285.502 187.469 285.469 187.467 285.437 187.461C285.307 187.435 285.193 187.36 285.12 187.25L281.823 182.363C281.67 182.135 281.73 181.826 281.959 181.671L286.843 178.376C287.071 178.221 287.382 178.281 287.537 178.51L290.832 183.396C290.985 183.625 290.925 183.935 290.698 184.088L285.812 187.383C285.728 187.439 285.631 187.469 285.532 187.469V187.469Z" fill="white"/>
<path fill-rule="evenodd" clip-rule="evenodd" d="M328.937 219.519L328.892 224.265L334.433 222.54L328.937 219.519ZM328.385 225.445C328.279 225.445 328.176 225.41 328.087 225.346C327.96 225.251 327.885 225.1 327.887 224.94L327.947 218.674C327.947 218.499 328.042 218.338 328.193 218.249C328.344 218.161 328.532 218.156 328.687 218.243L335.943 222.23C336.118 222.327 336.219 222.519 336.199 222.717C336.178 222.915 336.042 223.084 335.85 223.144L328.534 225.421C328.484 225.438 328.435 225.445 328.385 225.445V225.445Z" fill="#72ACFF"/>
<path fill-rule="evenodd" clip-rule="evenodd" d="M277.33 209.255L281.887 211.847L280.388 205.945L277.33 209.255ZM282.659 213.361C282.572 213.361 282.488 213.339 282.411 213.296L276.291 209.811C276.157 209.736 276.067 209.604 276.045 209.453C276.022 209.302 276.067 209.149 276.17 209.037L280.278 204.591C280.403 204.457 280.591 204.401 280.768 204.446C280.944 204.492 281.085 204.63 281.13 204.806L283.142 212.74C283.191 212.934 283.12 213.139 282.961 213.259C282.872 213.326 282.764 213.361 282.659 213.361V213.361Z" fill="#72ACFF"/>
<path fill-rule="evenodd" clip-rule="evenodd" d="M346.752 165.481C346.118 165.481 345.421 165.292 344.669 164.91C344.423 164.785 344.324 164.485 344.449 164.239C344.572 163.993 344.871 163.894 345.119 164.019C346.12 164.526 346.95 164.617 347.588 164.287C348.699 163.715 348.986 162.017 348.988 162C349.024 161.766 349.218 161.589 349.456 161.576L352.582 161.404C352.852 161.392 353.093 161.6 353.108 161.875C353.124 162.151 352.914 162.386 352.638 162.401L349.889 162.552C349.712 163.228 349.225 164.569 348.045 165.175C347.649 165.38 347.217 165.481 346.752 165.481" fill="#240448"/>
<path fill-rule="evenodd" clip-rule="evenodd" d="M432.531 85.551H444.173V78.4987C444.173 78.2704 444.318 78.0668 444.531 77.9907C445.094 77.7915 445.652 77.5623 446.192 77.3095C446.396 77.2134 446.64 77.2558 446.802 77.4156L451.727 82.3167L459.867 73.8158L455.153 69.1271C454.992 68.9658 454.948 68.7196 455.048 68.5132C455.285 68.0127 455.503 67.4982 455.692 66.9839C455.77 66.7724 455.973 66.6318 456.199 66.6318H462.733V54.7431H456.275C456.048 54.7431 455.843 54.5994 455.768 54.3847C455.55 53.7751 455.3 53.1745 455.024 52.5999C454.927 52.3939 454.968 52.1479 455.13 51.9862L459.679 47.4208L451.434 39.2026L446.875 43.7764C446.713 43.9379 446.468 43.9806 446.263 43.8829C445.711 43.6218 445.139 43.3854 444.564 43.1804C444.348 43.1038 444.206 42.9007 444.206 42.6725V36.2156H432.564V42.6613C432.564 42.8897 432.419 43.0935 432.203 43.1696C431.492 43.4214 430.789 43.7205 430.114 44.0589C429.909 44.1613 429.663 44.1235 429.499 43.9657L424.842 39.4915L416.775 47.8874L421.424 52.3523C421.588 52.5106 421.635 52.7556 421.54 52.9636C421.329 53.4301 421.133 53.9185 420.958 54.4157C420.88 54.6309 420.678 54.775 420.449 54.775H414.004V66.417H420.46C420.689 66.417 420.891 66.5604 420.969 66.7752C421.238 67.5336 421.558 68.2764 421.92 68.9833C422.026 69.1868 421.989 69.4342 421.831 69.6L417.243 74.4317L425.614 82.6939L430.409 77.6453C430.565 77.4812 430.806 77.4318 431.015 77.5221C431.395 77.6875 431.785 77.8415 432.173 77.9797C432.387 78.056 432.531 78.2594 432.531 78.4875V85.551ZM444.712 86.6292H431.992C431.695 86.6292 431.453 86.3879 431.453 86.0901V78.8636C431.278 78.798 431.106 78.7295 430.933 78.6585L426.017 83.8348C425.918 83.9396 425.78 84.0002 425.635 84.0024C425.633 84.0026 425.629 84.0026 425.627 84.0026C425.484 84.0026 425.348 83.9469 425.247 83.8471L416.109 74.8276C415.899 74.6214 415.895 74.2857 416.096 74.0727L420.79 69.1314C420.531 68.6005 420.294 68.0526 420.085 67.4952H413.465C413.167 67.4952 412.926 67.2539 412.926 66.9561V54.2359C412.926 53.9381 413.167 53.6968 413.465 53.6968H420.072C420.178 53.4165 420.288 53.1398 420.404 52.8688L415.641 48.2915C415.425 48.0852 415.419 47.744 415.626 47.5293L424.436 38.356C424.643 38.1412 424.984 38.1343 425.2 38.3407L429.974 42.9272C430.468 42.6922 430.974 42.477 431.485 42.2844V35.6765C431.485 35.3787 431.727 35.1375 432.024 35.1375H444.745C445.042 35.1375 445.284 35.3787 445.284 35.6765V42.2963C445.652 42.4358 446.017 42.5872 446.377 42.7484L451.05 38.0597C451.261 37.8486 451.602 37.8484 451.813 38.0584L460.822 47.0378C460.924 47.1387 460.98 47.2759 460.98 47.4186C460.982 47.5616 460.924 47.699 460.822 47.8001L456.158 52.48C456.335 52.867 456.501 53.2636 456.652 53.6649H463.272C463.569 53.6649 463.811 53.9062 463.811 54.204V67.1709C463.811 67.4687 463.569 67.71 463.272 67.71H456.57C456.449 68.0183 456.32 68.3256 456.182 68.6292L461.001 73.4245C461.21 73.6317 461.215 73.9674 461.01 74.1796L452.126 83.4594C452.027 83.564 451.889 83.6239 451.744 83.6256C451.6 83.6293 451.459 83.5707 451.356 83.4687L446.306 78.4431C445.959 78.5973 445.607 78.742 445.251 78.8757V86.0901C445.251 86.3879 445.01 86.6292 444.712 86.6292V86.6292Z" fill="#72ACFF"/>
<path fill-rule="evenodd" clip-rule="evenodd" d="M438.368 50.5171C432.651 50.5171 428 55.1675 428 60.8835C428 66.5993 432.651 71.2496 438.368 71.2496C444.084 71.2496 448.733 66.5993 448.733 60.8835C448.733 55.1675 444.084 50.5171 438.368 50.5171ZM438.368 72.3278C432.056 72.3278 426.922 67.1938 426.922 60.8835C426.922 54.5728 432.056 49.439 438.368 49.439C444.677 49.439 449.811 54.5728 449.811 60.8835C449.811 67.1938 444.677 72.3278 438.368 72.3278V72.3278Z" fill="#72ACFF"/>
<path fill-rule="evenodd" clip-rule="evenodd" d="M101.07 167.215H114.782V158.928C114.782 158.699 114.926 158.496 115.14 158.419C115.797 158.186 116.451 157.919 117.078 157.624C117.283 157.528 117.527 157.57 117.688 157.73L123.478 163.492L133.063 153.481L127.524 147.969C127.36 147.807 127.319 147.561 127.416 147.355C127.694 146.772 127.946 146.172 128.17 145.57C128.248 145.358 128.451 145.217 128.675 145.217H136.36V131.219H128.766C128.537 131.219 128.334 131.075 128.257 130.861C128.004 130.147 127.711 129.446 127.39 128.777C127.291 128.571 127.334 128.325 127.495 128.163L132.847 122.793L123.135 113.113L117.773 118.493C117.611 118.655 117.367 118.697 117.16 118.6C116.518 118.296 115.851 118.02 115.176 117.78C114.963 117.703 114.818 117.5 114.818 117.272V109.676H101.107V117.259C101.107 117.487 100.963 117.691 100.748 117.767C99.9166 118.061 99.0953 118.411 98.3067 118.805C98.1031 118.908 97.8567 118.87 97.6919 118.712L92.2135 113.449L82.7144 123.338L88.1818 128.59C88.3466 128.748 88.3938 128.993 88.2994 129.201C88.0531 129.744 87.8239 130.315 87.618 130.897C87.5418 131.112 87.3381 131.256 87.1097 131.256H79.5274V144.968H87.1229C87.3508 144.968 87.5541 145.111 87.6307 145.326C87.9461 146.212 88.3201 147.079 88.7423 147.904C88.8464 148.107 88.8108 148.355 88.6532 148.521L83.2583 154.201L93.1166 163.931L98.7533 157.996C98.9092 157.832 99.1513 157.782 99.359 157.873C99.8002 158.064 100.255 158.244 100.711 158.407C100.926 158.483 101.07 158.687 101.07 158.914V167.215ZM115.321 168.293H100.531C100.233 168.293 99.9914 168.052 99.9914 167.754V159.291C99.7519 159.201 99.5134 159.107 99.2775 159.009L93.5198 165.072C93.4202 165.177 93.2824 165.238 93.1377 165.24C92.9887 165.236 92.8533 165.186 92.7502 165.085L82.1245 154.597C81.9155 154.39 81.9101 154.055 82.1124 153.842L87.6108 148.052C87.2926 147.402 87.0028 146.73 86.7459 146.046H78.9883C78.6905 146.046 78.4492 145.804 78.4492 145.507V130.717C78.4492 130.419 78.6905 130.178 78.9883 130.178H86.7321C86.8675 129.814 87.0116 129.455 87.1625 129.106L81.5787 123.742C81.3642 123.535 81.3573 123.194 81.5634 122.979L91.8097 112.314C92.0158 112.099 92.3571 112.092 92.5717 112.298L98.167 117.673C98.7742 117.382 99.3978 117.117 100.029 116.881V109.137C100.029 108.84 100.27 108.598 100.568 108.598H115.357C115.655 108.598 115.897 108.84 115.897 109.137V116.895C116.362 117.07 116.824 117.261 117.274 117.465L122.752 111.97C122.963 111.759 123.304 111.759 123.515 111.969L133.99 122.409C134.092 122.51 134.148 122.648 134.148 122.79C134.148 122.933 134.092 123.071 133.99 123.172L128.524 128.656C128.746 129.14 128.953 129.637 129.143 130.141H136.899C137.197 130.141 137.438 130.382 137.438 130.68V145.757C137.438 146.054 137.197 146.296 136.899 146.296H129.048C128.893 146.691 128.727 147.084 128.552 147.471L134.2 153.09C134.407 153.297 134.411 153.633 134.208 153.845L123.877 164.634C123.778 164.74 123.64 164.8 123.495 164.8C123.493 164.8 123.491 164.8 123.489 164.8C123.347 164.8 123.209 164.744 123.107 164.645L117.193 158.758C116.755 158.954 116.311 159.137 115.86 159.305V167.754C115.86 168.052 115.618 168.293 115.321 168.293V168.293Z" fill="#72ACFF"/>
<path fill-rule="evenodd" clip-rule="evenodd" d="M107.945 126.305C101.251 126.305 95.8047 131.751 95.8047 138.446C95.8047 145.14 101.251 150.587 107.945 150.587C114.641 150.587 120.085 145.14 120.085 138.446C120.085 131.751 114.641 126.305 107.945 126.305ZM107.945 151.665C100.656 151.665 94.7266 145.735 94.7266 138.446C94.7266 131.157 100.656 125.227 107.945 125.227C115.234 125.227 121.164 131.157 121.164 138.446C121.164 145.735 115.234 151.665 107.945 151.665V151.665Z" fill="#72ACFF"/>
<path fill-rule="evenodd" clip-rule="evenodd" d="M373.922 134.366H394.541V118.148C394.541 112.464 389.915 107.839 384.231 107.839C378.547 107.839 373.922 112.464 373.922 118.148V134.366ZM395.08 135.444H373.383C373.085 135.444 372.844 135.203 372.844 134.905V118.148C372.844 111.869 377.952 106.761 384.231 106.761C390.511 106.761 395.619 111.869 395.619 118.148V134.905C395.619 135.203 395.377 135.444 395.08 135.444V135.444Z" fill="#001E57"/>
<path fill-rule="evenodd" clip-rule="evenodd" d="M394.768 143.282H373.692C371.046 143.282 368.902 141.139 368.902 138.495V127.51C368.902 124.867 371.046 122.723 373.692 122.723H394.768C397.411 122.723 399.555 124.867 399.555 127.51V138.495C399.555 141.139 397.411 143.282 394.768 143.282" fill="#72ACFF"/>
<path fill-rule="evenodd" clip-rule="evenodd" d="M387.084 131.219C387.084 129.588 385.738 128.271 384.095 128.319C382.551 128.364 381.281 129.676 381.281 131.221C381.283 132.05 381.633 132.796 382.191 133.324L381.499 137.14C381.387 137.765 381.868 138.34 382.502 138.34H385.863C386.5 138.34 386.978 137.765 386.866 137.14L386.174 133.324C386.732 132.796 387.084 132.049 387.084 131.219" fill="white"/>
<path fill-rule="evenodd" clip-rule="evenodd" d="M26.4958 235.396C31.3322 238.109 34.1236 242.32 32.7304 244.807C31.3372 247.291 26.2873 247.107 21.4508 244.397C18.1048 242.521 16.4044 238.739 15.6742 236.584C15.3738 235.698 15.9037 234.754 16.8162 234.547C19.0347 234.046 23.1498 233.522 26.4958 235.396" fill="#CFE4FF"/>
<path fill-rule="evenodd" clip-rule="evenodd" d="M46.042 236.906C43.3113 239.674 39.9446 240.781 38.5223 239.377C37.0999 237.973 38.1606 234.592 40.8914 231.825C42.7808 229.91 45.6552 229.462 47.2474 229.367C47.9023 229.328 48.4431 229.863 48.4131 230.519C48.3405 232.112 47.9314 234.991 46.042 236.906" fill="#CFE4FF"/>
<path fill-rule="evenodd" clip-rule="evenodd" d="M34.2109 252.774C33.9353 252.774 33.7003 252.565 33.6746 252.285C33.4115 249.417 33.0337 246.497 32.552 243.603C32.4625 243.055 32.3648 242.491 32.262 241.926C31.4721 237.507 30.4185 232.988 29.1303 228.489C29.0484 228.203 29.214 227.905 29.5001 227.823C29.7872 227.739 30.0852 227.905 30.1669 228.192C31.465 232.724 32.527 237.281 33.3231 241.734C33.4268 242.305 33.5254 242.877 33.6157 243.429C34.1015 246.346 34.4828 249.292 34.7482 252.185C34.7754 252.483 34.5572 252.744 34.2607 252.772C34.2439 252.774 34.2273 252.774 34.2109 252.774" fill="#001E57"/>
<path fill-rule="evenodd" clip-rule="evenodd" d="M28.3886 224.727C28.1603 224.727 27.9483 224.58 27.8752 224.352C23.8107 211.614 19.1925 203.269 19.1466 203.187C19.0015 202.926 19.0946 202.598 19.3547 202.454C19.6147 202.309 19.9429 202.402 20.088 202.663C20.1348 202.745 24.8026 211.176 28.9025 224.024C28.9928 224.306 28.8363 224.61 28.5527 224.701C28.4982 224.718 28.443 224.727 28.3886 224.727" fill="#001E57"/>
<path fill-rule="evenodd" clip-rule="evenodd" d="M31.1776 209.121C31.1776 214.303 26.9773 218.501 21.7958 218.501C16.6144 218.501 12.4141 214.303 12.4141 209.121C12.4141 203.94 16.6144 199.739 21.7958 199.739C26.9773 199.739 31.1776 203.94 31.1776 209.121" fill="#72ACFF"/>
<path fill-rule="evenodd" clip-rule="evenodd" d="M36.8834 252.774C36.875 252.774 36.8666 252.774 36.8582 252.774C36.5608 252.759 36.3307 252.507 36.3443 252.211C36.5612 247.467 36.9296 242.803 37.4391 238.346C37.4395 238.34 37.44 238.335 37.4406 238.331C37.5402 237.46 37.65 236.561 37.7757 235.582C38.2277 232.104 38.7752 228.742 39.4033 225.585C40.0299 222.435 40.7495 219.439 41.5422 216.681C41.5805 216.546 41.6185 216.412 41.6605 216.28C42.0642 214.887 42.5127 213.486 42.9899 212.127C43.0887 211.847 43.3962 211.698 43.6774 211.797C43.9581 211.897 44.1058 212.205 44.0071 212.485C43.5366 213.824 43.0941 215.207 42.6924 216.593C42.6497 216.727 42.6149 216.85 42.58 216.973C41.794 219.709 41.0816 222.676 40.4608 225.796C39.8374 228.927 39.2938 232.267 38.845 235.72C38.7206 236.688 38.6119 237.578 38.5132 238.441C38.5127 238.445 38.5123 238.45 38.5117 238.454C38.0043 242.892 37.6375 247.536 37.4214 252.259C37.4083 252.548 37.1698 252.774 36.8834 252.774" fill="#001E57"/>
<path fill-rule="evenodd" clip-rule="evenodd" d="M51.5187 214.296L44.8848 207.664L35.8228 210.092L33.3945 219.153L40.0285 225.788L49.0905 223.36L51.5187 214.296" fill="#72ACFF"/>
<path fill-rule="evenodd" clip-rule="evenodd" d="M21.7985 210.381C16.7507 210.381 11.6406 209.188 11.6406 206.905C11.6406 206.607 11.8819 206.365 12.1797 206.365C12.4775 206.365 12.7188 206.607 12.7188 206.905C12.7188 207.884 16.2558 209.302 21.7985 209.302C27.3409 209.302 30.8779 207.884 30.8779 206.905C30.8779 206.607 31.1194 206.365 31.417 206.365C31.7148 206.365 31.9561 206.607 31.9561 206.905C31.9561 209.188 26.8462 210.381 21.7985 210.381" fill="white"/>
<path fill-rule="evenodd" clip-rule="evenodd" d="M21.7985 210.381C16.7507 210.381 11.6406 209.188 11.6406 206.905C11.6406 206.607 11.8819 206.365 12.1797 206.365C12.4775 206.365 12.7188 206.607 12.7188 206.905C12.7188 207.884 16.2558 209.302 21.7985 209.302C27.3409 209.302 30.8779 207.884 30.8779 206.905C30.8779 206.607 31.1194 206.365 31.417 206.365C31.7148 206.365 31.9561 206.607 31.9561 206.905C31.9561 209.188 26.8462 210.381 21.7985 210.381" fill="white"/>
<path fill-rule="evenodd" clip-rule="evenodd" d="M29.5566 212.886C27.4074 212.886 24.1287 211.633 21.151 209.917C18.8804 208.606 16.8965 207.101 15.5646 205.673C14.0711 204.073 13.5609 202.745 14.0892 201.829C14.2378 201.572 14.5673 201.481 14.8256 201.632C15.0835 201.781 15.1719 202.111 15.0231 202.368C14.8346 202.695 15.0697 203.564 16.3527 204.938C17.6137 206.288 19.5092 207.724 21.6896 208.983C26.4909 211.752 30.2647 212.289 30.7531 211.441C30.9017 211.183 31.2314 211.094 31.4893 211.243C31.7474 211.392 31.8358 211.722 31.687 211.981C31.3233 212.61 30.5636 212.886 29.5566 212.886" fill="white"/>
<path fill-rule="evenodd" clip-rule="evenodd" d="M29.5566 212.886C27.4074 212.886 24.1287 211.633 21.151 209.917C18.8804 208.606 16.8965 207.101 15.5646 205.673C14.0711 204.073 13.5609 202.745 14.0892 201.829C14.2378 201.572 14.5673 201.481 14.8256 201.632C15.0835 201.781 15.1719 202.111 15.0231 202.368C14.8346 202.695 15.0697 203.564 16.3527 204.938C17.6137 206.288 19.5092 207.724 21.6896 208.983C26.4909 211.752 30.2647 212.289 30.7531 211.441C30.9017 211.183 31.2314 211.094 31.4893 211.243C31.7474 211.392 31.8358 211.722 31.687 211.981C31.3233 212.61 30.5636 212.886 29.5566 212.886" fill="white"/>
<path fill-rule="evenodd" clip-rule="evenodd" d="M33.3943 219.694C33.1562 219.694 32.9384 219.534 32.8739 219.293C32.797 219.006 32.9675 218.711 33.2552 218.633L51.3794 213.777C51.6675 213.699 51.9627 213.87 52.0397 214.158C52.1166 214.445 51.9461 214.741 51.6584 214.818L33.5342 219.674C33.4874 219.687 33.4404 219.694 33.3943 219.694" fill="white"/>
<path fill-rule="evenodd" clip-rule="evenodd" d="M42.4545 217.264C42.3165 217.264 42.1784 217.212 42.0732 217.106L35.4393 210.473C35.2286 210.262 35.2286 209.921 35.4393 209.71C35.6497 209.501 35.9913 209.501 36.2015 209.71L42.8355 216.345C43.0462 216.554 43.0462 216.895 42.8355 217.106C42.7303 217.212 42.5922 217.264 42.4545 217.264" fill="white"/>
<path fill-rule="evenodd" clip-rule="evenodd" d="M181.146 252.822H30.6884C30.4225 252.822 30.207 252.559 30.207 252.235C30.207 251.912 30.4225 251.649 30.6884 251.649H181.146C181.412 251.649 181.626 251.912 181.626 252.235C181.626 252.559 181.412 252.822 181.146 252.822" fill="#240448"/>
<path fill-rule="evenodd" clip-rule="evenodd" d="M481.276 247.243C484.603 250.618 488.709 251.965 490.442 250.255C492.176 248.546 490.882 244.423 487.553 241.05C485.25 238.715 481.746 238.169 479.805 238.055C479.007 238.007 478.348 238.657 478.384 239.457C478.473 241.399 478.973 244.91 481.276 247.243" fill="#72ACFF"/>
<path fill-rule="evenodd" clip-rule="evenodd" d="M494.499 252.668C494.264 252.668 494.072 252.481 494.066 252.248C493.848 244.341 493.883 228.755 496.587 213.212L496.645 212.873C496.768 212.179 496.884 211.543 497.005 210.928C497.225 209.768 497.46 208.63 497.701 207.543C497.729 207.407 497.76 207.269 497.794 207.131C498.251 205.07 498.764 203.045 499.317 201.119C499.791 199.452 500.302 197.835 500.835 196.313C500.843 196.289 500.854 196.261 500.865 196.231L500.886 196.166C500.962 195.937 501.208 195.815 501.434 195.892C501.66 195.968 501.783 196.211 501.708 196.438C501.699 196.468 501.688 196.496 501.678 196.526L501.654 196.591C501.126 198.107 500.619 199.707 500.149 201.356C499.601 203.265 499.094 205.274 498.637 207.327C498.603 207.463 498.575 207.592 498.547 207.722C498.307 208.809 498.074 209.939 497.855 211.092C497.736 211.702 497.619 212.334 497.497 213.022L497.441 213.358C494.749 228.828 494.713 244.347 494.933 252.222C494.939 252.461 494.749 252.662 494.51 252.668C494.508 252.668 494.504 252.668 494.499 252.668" fill="#240448"/>
<path fill-rule="evenodd" clip-rule="evenodd" d="M491.272 252.668C491.041 252.668 490.849 252.487 490.838 252.257C490.791 251.271 490.722 250.26 490.631 249.253C490.519 248.011 490.375 246.784 490.202 245.602C489.312 239.485 487.61 233.941 485.003 228.653C484.428 227.491 483.811 226.34 483.114 225.132C483.112 225.13 483.112 225.128 483.11 225.126C483.099 225.108 483.088 225.089 483.08 225.072C482.974 224.856 483.063 224.597 483.276 224.492C483.485 224.388 483.735 224.47 483.847 224.671C483.854 224.684 483.86 224.694 483.867 224.707C484.572 225.928 485.197 227.092 485.78 228.27C488.428 233.641 490.155 239.269 491.058 245.477C491.233 246.674 491.38 247.918 491.494 249.175C491.584 250.195 491.656 251.217 491.703 252.214C491.716 252.453 491.53 252.656 491.291 252.666C491.285 252.668 491.278 252.668 491.272 252.668" fill="#240448"/>
<path fill-rule="evenodd" clip-rule="evenodd" d="M501.202 206.562C500.55 209.354 498.858 211.344 497.424 211.01C495.99 210.676 495.354 208.14 496.007 205.348C496.458 203.418 498.092 202.029 499.058 201.356C499.455 201.08 500 201.208 500.233 201.63C500.8 202.661 501.652 204.63 501.202 206.562" fill="#72ACFF"/>
<path fill-rule="evenodd" clip-rule="evenodd" d="M511.37 198.581C512.068 197.285 511.467 195.948 510.03 195.614C508.597 195.28 506.85 196.067 506.153 197.363L501.394 206.202C500.773 207.355 499.456 207.95 498.179 207.651C496.903 207.353 495.984 206.236 495.937 204.927L495.583 194.896C495.531 193.423 494.315 191.946 492.881 191.61C491.454 191.661 490.337 192.858 490.388 194.286C490.388 194.286 490.835 207.53 490.863 207.795L490.878 207.92C491.169 210.081 492.76 211.942 495.012 212.468L498.878 213.369C501.129 213.895 503.38 212.932 504.597 211.12L504.614 211.129L511.37 198.581" fill="#006BFF"/>
<path fill-rule="evenodd" clip-rule="evenodd" d="M479.37 216.496V216.496L482.445 210.506C483.165 209.1 482.289 207.403 480.726 207.174C479.163 206.946 477.841 208.323 478.13 209.878L479.37 216.496" fill="#006BFF"/>
<path fill-rule="evenodd" clip-rule="evenodd" d="M476.73 218.467V218.467L470.11 219.705C468.557 219.996 467.179 218.672 467.408 217.108C467.634 215.545 469.333 214.669 470.739 215.392L476.73 218.467" fill="#006BFF"/>
<path fill-rule="evenodd" clip-rule="evenodd" d="M478.617 220.996V220.996L475.542 226.987C474.819 228.392 475.695 230.089 477.258 230.318C478.822 230.544 480.146 229.167 479.854 227.614L478.617 220.996" fill="#006BFF"/>
<path fill-rule="evenodd" clip-rule="evenodd" d="M481.258 219.025V219.025L487.876 217.788C489.428 217.496 490.806 218.818 490.58 220.382C490.351 221.947 488.654 222.823 487.248 222.1L481.258 219.025" fill="#006BFF"/>
<path fill-rule="evenodd" clip-rule="evenodd" d="M477.671 216.888V216.888L475.61 210.478C475.125 208.975 473.307 208.392 472.039 209.337C470.773 210.281 470.812 212.192 472.115 213.085L477.671 216.888" fill="#006BFF"/>
<path fill-rule="evenodd" clip-rule="evenodd" d="M477.197 220.149V220.149L473.394 225.706C472.501 227.008 470.59 227.047 469.646 225.781C468.702 224.513 469.282 222.695 470.787 222.21L477.197 220.149" fill="#006BFF"/>
<path fill-rule="evenodd" clip-rule="evenodd" d="M480.316 220.604V220.604L482.378 227.015C482.861 228.518 484.681 229.1 485.947 228.155C487.215 227.211 487.176 225.3 485.871 224.408L480.316 220.604" fill="#006BFF"/>
<path fill-rule="evenodd" clip-rule="evenodd" d="M480.793 217.343V217.343L484.597 211.786C485.489 210.482 487.4 210.445 488.344 211.711C489.289 212.977 488.707 214.797 487.204 215.282L480.793 217.343" fill="#006BFF"/>
<path fill-rule="evenodd" clip-rule="evenodd" d="M48.4665 52.3537C48.6149 52.3822 48.7637 52.4014 48.9129 52.4102C49.7079 52.4572 50.4241 52.1935 51.0403 51.6264C51.281 51.4054 51.5868 51.047 51.678 50.5965C51.7834 50.0741 51.5393 49.4785 51.0968 49.1807C50.6544 48.8829 50.0109 48.8805 49.5665 49.1751C49.1078 49.4789 48.7971 50.0693 48.6168 50.9802C48.5241 51.4489 48.4741 51.9089 48.4665 52.3537ZM54.0698 58.6192C51.3532 58.6194 48.7158 57.4155 47.7763 54.81C47.5917 54.2981 47.4727 53.7476 47.4201 53.171C46.2886 52.7503 45.1546 51.9352 44.2121 50.8365C43.1835 49.6378 42.5261 48.2136 42.4085 46.9286C42.3814 46.6323 42.5996 46.3701 42.8959 46.3432C43.1911 46.3156 43.4541 46.5342 43.4811 46.8305C43.5775 47.8821 44.1562 49.1175 45.0296 50.1351C45.618 50.8208 46.4646 51.5514 47.4024 51.9958C47.4257 51.5943 47.4783 51.1848 47.56 50.771C47.7992 49.5637 48.2608 48.7479 48.9713 48.277C49.7765 47.7439 50.8976 47.7482 51.6985 48.2871C52.4993 48.8264 52.925 49.8638 52.7337 50.81C52.6164 51.3907 52.283 51.9473 51.7696 52.4193C50.9302 53.1917 49.9479 53.552 48.8493 53.4856C48.7469 53.4796 48.6436 53.4696 48.5396 53.4558C48.5938 53.8015 48.6772 54.1323 48.7898 54.4447C49.9417 57.6396 54.0107 57.9596 56.5317 57.166C56.6175 57.1391 56.7024 57.1106 56.787 57.0802C57.5048 56.8234 58.1409 56.4749 58.6783 56.045C58.9103 55.8589 59.2493 55.8966 59.4352 56.1288C59.6213 56.3609 59.5837 56.7 59.3515 56.8859C58.721 57.3907 57.9803 57.7974 57.1503 58.0945C57.0526 58.1295 56.9541 58.1625 56.8551 58.1935C55.9624 58.4745 55.011 58.6192 54.0698 58.6192V58.6192Z" fill="#006BFF"/>
<path fill-rule="evenodd" clip-rule="evenodd" d="M454.756 117.631C454.821 117.64 454.886 117.646 454.953 117.65C455.541 117.685 456.05 117.497 456.507 117.075C456.68 116.917 456.898 116.664 456.96 116.352C457.031 116.001 456.867 115.603 456.572 115.403C456.274 115.204 455.843 115.202 455.546 115.4C455.222 115.614 455 116.045 454.869 116.717C454.806 117.028 454.769 117.334 454.756 117.631ZM459.004 122.863C456.803 122.863 454.662 121.88 453.894 119.756C453.756 119.37 453.661 118.957 453.616 118.526C452.729 118.175 451.852 117.533 451.117 116.678C450.286 115.709 449.754 114.555 449.659 113.51C449.629 113.188 449.866 112.902 450.189 112.873C450.511 112.844 450.797 113.081 450.825 113.403C450.899 114.199 451.341 115.138 452.007 115.915C452.412 116.388 452.98 116.89 453.609 117.232C453.633 116.987 453.667 116.739 453.717 116.489C453.915 115.494 454.301 114.818 454.899 114.422C455.584 113.967 456.542 113.971 457.225 114.431C457.909 114.891 458.273 115.776 458.11 116.584C458.01 117.075 457.73 117.543 457.301 117.938C456.617 118.568 455.779 118.872 454.884 118.821C454.871 118.82 454.858 118.819 454.847 118.818C454.886 119.005 454.935 119.186 454.998 119.359C455.869 121.774 458.97 122.007 460.893 121.402C460.958 121.381 461.023 121.36 461.087 121.337C461.635 121.14 462.122 120.875 462.53 120.547C462.782 120.345 463.151 120.386 463.354 120.639C463.556 120.891 463.515 121.26 463.263 121.462C462.752 121.871 462.155 122.2 461.484 122.44C461.404 122.469 461.325 122.495 461.245 122.52C460.527 122.746 459.761 122.862 459.004 122.863V122.863Z" fill="#240448"/>
<path fill-rule="evenodd" clip-rule="evenodd" d="M339.64 17.9214L341.08 20.6412L343.713 22.1286L341.08 23.616L339.64 26.3358L338.199 23.616L335.566 22.1286L338.199 20.6412L339.64 17.9214" fill="#72ACFF"/>
<path fill-rule="evenodd" clip-rule="evenodd" d="M41.5618 111.266L43.002 113.986L45.6351 115.474L43.002 116.961L41.5618 119.681L40.1216 116.961L37.4883 115.474L40.1216 113.986L41.5618 111.266" fill="#006BFF"/>
<path fill-rule="evenodd" clip-rule="evenodd" d="M432.749 163.661L434.19 166.381L436.822 167.868L434.19 169.354L432.749 172.075L431.311 169.354L428.676 167.868L431.311 166.381L432.749 163.661" fill="#72ACFF"/>
</svg>
