<svg width="597" height="311" viewBox="0 0 597 311" fill="none" xmlns="http://www.w3.org/2000/svg">
<path fill-rule="evenodd" clip-rule="evenodd" d="M434 39H336.081C336.026 38.4505 336 37.9013 336 37.3412C336 27.5493 343.864 19.6051 353.558 19.6051C354.865 19.6051 356.143 19.7504 357.371 20.025C361.358 11.7198 369.783 6 379.53 6C389.18 6 397.529 11.6122 401.559 19.7827C402.376 19.6642 403.213 19.6051 404.061 19.6051C410.876 19.6051 416.776 23.5262 419.693 29.2513C420.536 29.0573 421.416 28.9552 422.319 28.9552C428.209 28.9552 433.099 33.307 434 39" fill="#E4E8EB"/>
<path fill-rule="evenodd" clip-rule="evenodd" d="M70 250.916L40.2569 251L40 151.084L69.7431 151L70 250.916" fill="#E4E8EB"/>
<path fill-rule="evenodd" clip-rule="evenodd" d="M54.8506 131L84 163.737L55 163.868L26 164L54.8506 131" fill="#E4E8EB"/>
<path fill-rule="evenodd" clip-rule="evenodd" d="M365 268.805L322.3 269L322 95.1945L364.7 95L365 268.805" fill="#E4E8EB"/>
<path fill-rule="evenodd" clip-rule="evenodd" d="M342.285 63L384 110.617L342.499 110.808L301 111L342.285 63" fill="#E4E8EB"/>
<path fill-rule="evenodd" clip-rule="evenodd" d="M571 308.753L516.47 309L516 72.2473L570.53 72L571 308.753" fill="#E4E8EB"/>
<path fill-rule="evenodd" clip-rule="evenodd" d="M543.225 27L597 87.5127L543.501 87.7565L490 88L543.225 27" fill="#E4E8EB"/>
<path fill-rule="evenodd" clip-rule="evenodd" d="M392 47.0673L429.869 88L456 30L392 47.0673" fill="white"/>
<path fill-rule="evenodd" clip-rule="evenodd" d="M403.719 49.9441L428.893 77.1442L446.265 38.6028L403.719 49.9441ZM432.295 98L382 43.6583L467 21L432.295 98V98Z" fill="#D0E3FF"/>
<path fill-rule="evenodd" clip-rule="evenodd" d="M426.519 121.956C426.519 121.956 433.217 106.214 418.124 106.42C418.124 106.42 419.535 97.6371 410.863 98.3518L409.544 94.4563C407.847 89.4519 401.729 87.38 397.36 90.4182C397.295 90.4627 397.232 90.5081 397.17 90.5544C393.674 93.1268 392.704 97.8862 394.921 101.592L397.942 106.644C397.942 106.644 389.634 102.228 386.521 108.872C383.411 115.515 395.232 118.348 395.232 118.348C395.232 118.348 387.058 119.883 391.351 127.617C395.641 135.351 426.348 138.738 426.519 121.956" fill="#78A9FF"/>
<path fill-rule="evenodd" clip-rule="evenodd" d="M391.73 106.028C391.013 106.028 390.288 106.119 389.596 106.348C388.108 106.838 386.972 107.901 386.221 109.506C385.596 110.836 385.569 112.101 386.139 113.267C387.895 116.861 394.671 118.524 394.739 118.54C394.906 118.58 395.022 118.729 395.017 118.898C395.012 119.067 394.891 119.211 394.722 119.243C394.688 119.249 391.4 119.898 390.257 122.301C389.528 123.829 389.802 125.76 391.066 128.042C392.292 130.25 395.935 132.241 400.809 133.368C405.875 134.539 411.301 134.587 415.701 133.498C420.255 132.372 425.701 129.552 425.773 122.516C425.773 122.469 425.783 122.423 425.8 122.38C425.832 122.305 428.954 114.826 425.96 110.448C424.47 108.27 421.694 107.195 417.694 107.248C417.585 107.252 417.486 107.204 417.413 107.124C417.343 107.044 417.314 106.937 417.328 106.832C417.336 106.794 417.917 102.952 415.81 100.715C414.632 99.4649 412.818 98.9307 410.415 99.1292C410.25 99.1421 410.092 99.0424 410.039 98.885L408.709 94.9658C407.922 92.6421 406.115 90.87 403.75 90.1044C401.437 89.3548 398.978 89.7113 397.004 91.0831C396.943 91.1256 396.883 91.1696 396.82 91.2143C393.445 93.6982 392.515 98.27 394.654 101.849L397.694 106.932C397.779 107.071 397.757 107.247 397.643 107.363C397.532 107.48 397.352 107.507 397.21 107.431C397.176 107.413 394.523 106.028 391.73 106.028ZM408.804 135C406.115 135 403.329 134.689 400.645 134.068C395.57 132.895 391.752 130.771 390.429 128.388C389.043 125.891 388.762 123.739 389.598 121.991C390.431 120.247 392.168 119.334 393.358 118.894C391.231 118.22 386.928 116.534 385.485 113.58C384.814 112.212 384.84 110.74 385.56 109.204C386.4 107.411 387.682 106.22 389.368 105.665C391.994 104.8 394.932 105.689 396.478 106.31L394.026 102.214C391.696 98.3186 392.711 93.3417 396.386 90.6376C396.451 90.5891 396.519 90.5415 396.585 90.4951C398.748 88.9911 401.442 88.5999 403.978 89.4212C406.563 90.2586 408.537 92.1961 409.4 94.7376L410.64 98.3922C413.14 98.2411 415.056 98.8583 416.347 100.229C418.283 102.288 418.203 105.403 418.099 106.527C422.137 106.55 424.984 107.733 426.566 110.047C429.659 114.573 426.837 121.775 426.5 122.593C426.41 128.404 422.641 132.523 415.877 134.196C413.709 134.732 411.296 135 408.804 135V135Z" fill="white"/>
<path fill-rule="evenodd" clip-rule="evenodd" d="M404.719 124.349C404.719 124.349 395.675 109.83 410.577 107.746C410.577 107.746 407.823 99.292 416.478 98.6832L417.174 94.6389C418.07 89.4431 423.774 86.4717 428.554 88.8075C428.624 88.8417 428.693 88.8768 428.763 88.9129C432.607 90.9216 434.302 95.4716 432.691 99.465L430.499 104.908C430.499 104.908 437.999 99.2912 442.1 105.375C446.195 111.46 434.988 116.047 434.988 116.047C434.988 116.047 443.281 116.323 440.253 124.605C437.224 132.888 407.494 140.885 404.719 124.349" fill="#78A9FF"/>
<path fill-rule="evenodd" clip-rule="evenodd" d="M425.117 88.4109C423.981 88.4109 422.844 88.678 421.785 89.2114C419.655 90.2828 418.207 92.2282 417.805 94.5489L417.099 98.6451C417.043 98.965 416.776 99.2066 416.447 99.2297C414.142 99.3917 412.511 100.149 411.598 101.481C409.948 103.894 411.08 107.453 411.092 107.489C411.158 107.687 411.131 107.903 411.019 108.079C410.907 108.255 410.722 108.373 410.512 108.403C406.662 108.941 404.159 110.369 403.074 112.647C400.866 117.282 405.038 124.084 405.079 124.152C405.128 124.229 405.162 124.316 405.177 124.405C406.314 131.168 412.007 133.08 416.583 133.493C421.067 133.898 426.391 133.032 431.186 131.116C435.76 129.288 438.992 126.83 439.83 124.541C440.691 122.188 440.672 120.33 439.774 119.02C438.352 116.947 435.171 116.818 435.139 116.817C434.803 116.805 434.521 116.565 434.46 116.238C434.401 115.912 434.579 115.589 434.891 115.461C434.954 115.435 441.271 112.809 442.405 109.127C442.76 107.97 442.556 106.848 441.777 105.695C440.835 104.296 439.618 103.463 438.162 103.22C434.757 102.651 431.079 105.366 431.042 105.393C430.787 105.584 430.434 105.584 430.181 105.392C429.925 105.2 429.83 104.865 429.949 104.571L432.172 99.0576C433.671 95.3393 432.101 91.1249 428.518 89.2544C428.452 89.2208 428.389 89.1881 428.323 89.1566C427.306 88.6592 426.213 88.4109 425.117 88.4109ZM418.813 135C418.015 135 417.226 134.967 416.454 134.897C409.329 134.253 404.838 130.659 403.792 124.77C403.186 123.759 399.393 117.069 401.781 112.051C403.003 109.481 405.608 107.828 409.529 107.131C409.237 105.769 408.891 102.92 410.415 100.692C411.506 99.1009 413.309 98.1547 415.785 97.8749L416.398 94.3124C416.875 91.5484 418.601 89.2314 421.135 87.9556C423.623 86.7037 426.473 86.6809 428.956 87.8929C429.032 87.9301 429.107 87.9686 429.185 88.0085C433.413 90.2162 435.268 95.1905 433.498 99.5792L432.067 103.125C433.654 102.314 436.032 101.435 438.401 101.83C440.26 102.141 441.796 103.179 442.967 104.914C443.98 106.419 444.25 107.975 443.768 109.539C442.88 112.428 439.579 114.632 437.405 115.81C438.608 116.179 440.032 116.884 440.954 118.23C442.125 119.935 442.196 122.219 441.171 125.02C439.248 130.273 428.292 135 418.813 135V135Z" fill="white"/>
<path fill-rule="evenodd" clip-rule="evenodd" d="M417.741 135C417.708 135 417.675 134.998 417.642 134.994C417.236 134.942 416.951 134.587 417.007 134.201L423.528 87.6122C423.581 87.2258 423.955 86.9546 424.358 87.0063C424.762 87.0581 425.047 87.4127 424.994 87.7989L418.472 134.388C418.422 134.743 418.104 135 417.741 135" fill="white"/>
<path fill-rule="evenodd" clip-rule="evenodd" d="M421.685 114C421.409 114 421.148 113.816 421.045 113.517C420.91 113.131 421.09 112.701 421.442 112.555L442.073 104.048C442.428 103.903 442.823 104.097 442.956 104.483C443.089 104.869 442.911 105.299 442.559 105.445L421.928 113.952C421.846 113.984 421.764 114 421.685 114" fill="white"/>
<path fill-rule="evenodd" clip-rule="evenodd" d="M422.705 98C422.453 98 422.211 97.8781 422.084 97.6635C421.9 97.3532 422.029 96.9662 422.372 96.7998L427.964 94.0761C428.307 93.9091 428.734 94.0262 428.916 94.3366C429.1 94.6471 428.971 95.0339 428.628 95.2004L423.036 97.924C422.931 97.9756 422.816 98 422.705 98" fill="white"/>
<path fill-rule="evenodd" clip-rule="evenodd" d="M419.274 125C419.173 125 419.072 124.98 418.973 124.939L410.421 121.284C410.058 121.129 409.9 120.729 410.066 120.392C410.234 120.054 410.663 119.907 411.026 120.061L419.578 123.716C419.941 123.871 420.101 124.271 419.933 124.608C419.81 124.855 419.548 125 419.274 125" fill="white"/>
<path fill-rule="evenodd" clip-rule="evenodd" d="M81 309C60.0469 309 43 291.954 43 271.001C43 250.049 60.0469 233 81 233V256.333C72.9123 256.333 66.3328 262.914 66.3328 271.001C66.3328 279.089 72.9123 285.667 81 285.667V309" fill="#D8DDE2"/>
<path fill-rule="evenodd" clip-rule="evenodd" d="M81 309V285.666C89.0877 285.666 95.6672 279.088 95.6672 271H119C119 291.953 101.953 309 81 309" fill="#E4E8EB"/>
<path fill-rule="evenodd" clip-rule="evenodd" d="M119 271H95.6672C95.6672 262.913 89.0877 256.332 81 256.332V233C101.953 233 119 250.048 119 271" fill="#E4E8EB"/>
<path fill-rule="evenodd" clip-rule="evenodd" d="M70 309C49.0467 309 32 291.953 32 271C32 250.047 49.0467 233 70 233V256.332C61.9123 256.332 55.3328 262.912 55.3328 271C55.3328 279.088 61.9123 285.666 70 285.666V309" fill="#1063FE"/>
<path fill-rule="evenodd" clip-rule="evenodd" d="M70 309V285.666C78.0875 285.666 84.6673 279.088 84.6673 271H108C108 291.953 90.9532 309 70 309" fill="#8AB4FF"/>
<path fill-rule="evenodd" clip-rule="evenodd" d="M108 271H84.6673C84.6673 262.912 78.0875 256.332 70 256.332V233C90.9532 233 108 250.047 108 271" fill="#D0E3FF"/>
<path fill-rule="evenodd" clip-rule="evenodd" d="M5.99988 245.372C3.44775 245.372 1.37127 247.446 1.37127 250C1.37127 252.554 3.44775 254.631 5.99988 254.631C8.5525 254.631 10.629 252.554 10.629 250C10.629 247.446 8.5525 245.372 5.99988 245.372ZM5.99988 256C2.69147 256 0 253.31 0 250C0 246.69 2.69147 244 5.99988 244C9.30853 244 12 246.69 12 250C12 253.31 9.30853 256 5.99988 256V256Z" fill="#E4E8EB"/>
<path fill-rule="evenodd" clip-rule="evenodd" d="M271.999 28.3712C269.448 28.3712 267.371 30.4477 267.371 33C267.371 35.5523 269.448 37.629 271.999 37.629C274.552 37.629 276.629 35.5523 276.629 33C276.629 30.4477 274.552 28.3712 271.999 28.3712ZM271.999 39C268.692 39 266 36.3083 266 33C266 29.6917 268.692 27 271.999 27C275.308 27 278 29.6917 278 33C278 36.3083 275.308 39 271.999 39V39Z" fill="#E4E8EB"/>
<path fill-rule="evenodd" clip-rule="evenodd" d="M497.065 6L499.436 7.29693C499.55 7.35823 499.642 7.45064 499.702 7.56302L500.999 9.93427L502.296 7.56302C502.358 7.45064 502.45 7.35823 502.562 7.29693L504.933 6L502.562 4.70307C502.45 4.64154 502.358 4.54912 502.296 4.43698L500.999 2.06573L499.702 4.43698C499.642 4.54912 499.55 4.64154 499.436 4.70307L497.065 6ZM500.999 12C500.754 12 500.528 11.8662 500.412 11.6515L498.621 8.3779L495.347 6.58753C495.133 6.46993 495 6.2447 495 6C495 5.75482 495.133 5.52984 495.347 5.41224L498.621 3.62186L500.412 0.348525C500.528 0.133518 500.754 0 500.999 0C501.244 0 501.469 0.133518 501.588 0.348525L503.377 3.62186L506.651 5.41224C506.865 5.52984 507 5.75482 507 6C507 6.2447 506.865 6.46993 506.651 6.58753L503.377 8.3779L501.588 11.6515C501.469 11.8662 501.244 12 500.999 12V12Z" fill="#E4E8EB"/>
<path fill-rule="evenodd" clip-rule="evenodd" d="M210.067 11L212.438 12.2969C212.55 12.3585 212.642 12.4506 212.704 12.563L214.001 14.9343L215.298 12.563C215.36 12.4506 215.45 12.3585 215.564 12.2969L217.935 11L215.564 9.70307C215.45 9.64154 215.36 9.54936 215.298 9.43698L214.001 7.06573L212.704 9.43698C212.642 9.54936 212.55 9.64154 212.438 9.70307L210.067 11ZM214.001 17C213.756 17 213.531 16.8665 213.414 16.6515L211.623 13.3779L208.349 11.5875C208.135 11.4702 208 11.2447 208 11C208 10.7551 208.135 10.5298 208.349 10.4122L211.623 8.62186L213.414 5.34853C213.531 5.13352 213.756 5 214.001 5C214.246 5 214.472 5.13352 214.588 5.34853L216.379 8.62186L219.653 10.4122C219.867 10.5298 220 10.7551 220 11C220 11.2447 219.867 11.4702 219.653 11.5875L216.379 13.3779L214.588 16.6515C214.472 16.8665 214.246 17 214.001 17V17Z" fill="#E4E8EB"/>
<path fill-rule="evenodd" clip-rule="evenodd" d="M277.067 262.001L279.438 263.296C279.55 263.358 279.642 263.45 279.704 263.564L281.001 265.935L282.296 263.564C282.358 263.45 282.45 263.358 282.562 263.296L284.935 262.001L282.562 260.704C282.45 260.642 282.358 260.55 282.296 260.438L281.001 258.067L279.704 260.438C279.642 260.55 279.55 260.642 279.438 260.704L277.067 262.001ZM281.001 268C280.756 268 280.531 267.867 280.412 267.651L278.623 264.379L275.349 262.588C275.133 262.469 275 262.246 275 262.001C275 261.754 275.133 261.531 275.349 261.412L278.623 259.623L280.412 256.349C280.531 256.133 280.756 256 281.001 256C281.246 256 281.472 256.133 281.588 256.349L283.379 259.623L286.651 261.412C286.867 261.531 287 261.754 287 262.001C287 262.246 286.867 262.469 286.651 262.588L283.379 264.379L281.588 267.651C281.472 267.867 281.246 268 281.001 268V268Z" fill="#E4E8EB"/>
<path fill-rule="evenodd" clip-rule="evenodd" d="M98.0658 214.001L100.437 215.298C100.549 215.358 100.642 215.45 100.703 215.564L102 217.935L103.297 215.564C103.358 215.45 103.451 215.358 103.563 215.298L105.934 214.001L103.563 212.704C103.451 212.642 103.358 212.55 103.297 212.438L102 210.067L100.703 212.438C100.642 212.55 100.549 212.642 100.437 212.704L98.0658 214.001ZM102 220C101.755 220 101.53 219.867 101.413 219.651L99.6219 216.379L96.3483 214.588C96.1335 214.469 96 214.246 96 214.001C96 213.756 96.1335 213.531 96.3483 213.412L99.6219 211.623L101.413 208.349C101.53 208.133 101.755 208 102 208C102.245 208 102.47 208.133 102.588 208.349L104.378 211.623L107.651 213.412C107.866 213.531 108 213.756 108 214.001C108 214.246 107.866 214.469 107.651 214.588L104.378 216.379L102.588 219.651C102.47 219.867 102.245 220 102 220V220Z" fill="#E4E8EB"/>
<path fill-rule="evenodd" clip-rule="evenodd" d="M136 15C135.448 15 135 14.7199 135 14.3741V11.6257C135 11.2801 135.448 11 136 11C136.552 11 137 11.2801 137 11.6257V14.3741C137 14.7199 136.552 15 136 15" fill="#E4E8EB"/>
<path fill-rule="evenodd" clip-rule="evenodd" d="M136 22C135.448 22 135 21.7199 135 21.3741V18.6257C135 18.2801 135.448 18 136 18C136.552 18 137 18.2801 137 18.6257V21.3741C137 21.7199 136.552 22 136 22" fill="#E4E8EB"/>
<path fill-rule="evenodd" clip-rule="evenodd" d="M141.374 17H138.626C138.28 17 138 16.552 138 15.9998C138 15.4476 138.28 15 138.626 15H141.374C141.72 15 142 15.4476 142 15.9998C142 16.552 141.72 17 141.374 17" fill="#E4E8EB"/>
<path fill-rule="evenodd" clip-rule="evenodd" d="M134.374 17H131.626C131.28 17 131 16.552 131 15.9998C131 15.4476 131.28 15 131.626 15H134.374C134.72 15 135 15.4476 135 15.9998C135 16.552 134.72 17 134.374 17" fill="#E4E8EB"/>
<path fill-rule="evenodd" clip-rule="evenodd" d="M587 248C586.447 248 586 247.72 586 247.376V244.626C586 244.28 586.447 244 587 244C587.55 244 588 244.28 588 244.626V247.376C588 247.72 587.55 248 587 248" fill="#E4E8EB"/>
<path fill-rule="evenodd" clip-rule="evenodd" d="M587 255C586.447 255 586 254.72 586 254.374V251.626C586 251.28 586.447 251 587 251C587.55 251 588 251.28 588 251.626V254.374C588 254.72 587.55 255 587 255" fill="#E4E8EB"/>
<path fill-rule="evenodd" clip-rule="evenodd" d="M591.374 251H588.626C588.28 251 588 250.55 588 250C588 249.447 588.28 249 588.626 249H591.374C591.72 249 592 249.447 592 250C592 250.55 591.72 251 591.374 251" fill="#E4E8EB"/>
<path fill-rule="evenodd" clip-rule="evenodd" d="M585.374 251H582.626C582.28 251 582 250.55 582 250C582 249.447 582.28 249 582.626 249H585.374C585.72 249 586 249.447 586 250C586 250.55 585.72 251 585.374 251" fill="#E4E8EB"/>
<path fill-rule="evenodd" clip-rule="evenodd" d="M192.999 235C179.096 235 165.607 232.277 152.907 226.906C140.641 221.719 129.626 214.292 120.168 204.834C110.71 195.375 103.283 184.359 98.0951 172.094C92.7237 159.394 90 145.905 90 132.001C90 118.096 92.7237 104.607 98.0951 91.9074C103.283 79.642 110.71 68.6267 120.168 59.168C129.626 49.7096 140.641 42.283 152.907 37.0954C165.607 31.7237 179.096 29 192.999 29C213.64 29 233.554 35.0834 250.591 46.5923C251.661 47.3151 251.941 48.7684 251.218 49.8383C250.495 50.9085 249.043 51.1897 247.974 50.4669C231.714 39.4822 212.705 33.6759 192.999 33.6759C138.784 33.6759 94.6761 77.7841 94.6761 132.001C94.6761 186.217 138.784 230.325 192.999 230.325C247.215 230.325 291.325 186.217 291.325 132.001C291.325 105.199 280.735 80.1518 261.508 61.4721C260.583 60.5722 260.561 59.0922 261.461 58.166C262.36 57.2401 263.841 57.2188 264.767 58.1184C274.543 67.6163 282.228 78.7498 287.607 91.2094C293.177 104.11 296 117.834 296 132.001C296 145.905 293.277 159.394 287.906 172.094C282.716 184.359 275.29 195.375 265.832 204.834C256.374 214.292 245.359 221.719 233.094 226.906C220.394 232.277 206.905 235 192.999 235" fill="#D0E3FF"/>
<path fill-rule="evenodd" clip-rule="evenodd" d="M193 235C191.897 235 191 233.943 191 232.636V187.364C191 186.059 191.897 185 193 185C194.105 185 195 186.059 195 187.364V232.636C195 233.943 194.105 235 193 235" fill="#D0E3FF"/>
<path fill-rule="evenodd" clip-rule="evenodd" d="M293.662 134H92.338C91.0468 134 90 133.105 90 132C90 130.895 91.0468 130 92.338 130H293.662C294.954 130 296 130.895 296 132C296 133.105 294.954 134 293.662 134" fill="#D0E3FF"/>
<path fill-rule="evenodd" clip-rule="evenodd" d="M168.722 231C167.971 231 167.236 230.622 166.8 229.927C159.744 218.669 153.817 207.333 149.183 196.237C148.69 195.055 149.229 193.69 150.387 193.187C151.545 192.683 152.884 193.233 153.378 194.415C157.913 205.275 163.721 216.381 170.642 227.424C171.318 228.507 171.008 229.944 169.949 230.634C169.569 230.883 169.142 231 168.722 231" fill="#D0E3FF"/>
<path fill-rule="evenodd" clip-rule="evenodd" d="M139.837 161C138.739 161 137.764 160.214 137.557 159.088C133.7 138.112 134.209 116.812 139.069 95.7808C143.893 74.9073 153.196 53.4761 166.72 32.0824C167.409 30.9939 168.843 30.6728 169.924 31.3654C171.005 32.058 171.326 33.5017 170.637 34.5902C143.921 76.8519 134.594 117.297 142.122 158.238C142.355 159.507 141.522 160.726 140.262 160.961C140.119 160.987 139.977 161 139.837 161" fill="#D0E3FF"/>
<path fill-rule="evenodd" clip-rule="evenodd" d="M192.575 94C186.11 94 179.647 93.7909 173.189 93.3719C171.902 93.2883 170.923 92.1565 171.005 90.8438C171.086 89.5313 172.194 88.5335 173.486 88.6183C208.103 90.864 242.936 86.9858 277.022 77.0918C278.264 76.7313 279.556 77.4645 279.91 78.7294C280.264 79.9943 279.544 81.3119 278.302 81.6724C250.061 89.8708 221.306 94 192.575 94" fill="#D0E3FF"/>
<path fill-rule="evenodd" clip-rule="evenodd" d="M161.658 92C161.579 92 161.5 91.9962 161.42 91.9881C143.013 90.1538 124.272 86.6419 105.718 81.5493C104.47 81.2069 103.739 79.9298 104.086 78.6972C104.433 77.4643 105.725 76.7429 106.973 77.085C125.271 82.1072 143.748 85.5703 161.89 87.378C163.179 87.5065 164.118 88.6424 163.988 89.9155C163.866 91.1095 162.847 92 161.658 92" fill="#D0E3FF"/>
<path fill-rule="evenodd" clip-rule="evenodd" d="M193 150C191.897 150 191 148.953 191 147.661V30.3388C191 29.0471 191.897 28 193 28C194.105 28 195 29.0471 195 30.3388V147.661C195 148.953 194.105 150 193 150" fill="#D0E3FF"/>
<path fill-rule="evenodd" clip-rule="evenodd" d="M193 152C191.897 152 191 150.919 191 149.586V147.414C191 146.08 191.897 145 193 145C194.105 145 195 146.08 195 147.414V149.586C195 150.919 194.105 152 193 152" fill="#D0E3FF"/>
<path fill-rule="evenodd" clip-rule="evenodd" d="M193 235C191.897 235 191 233.943 191 232.636V187.364C191 186.059 191.897 185 193 185C194.105 185 195 186.059 195 187.364V232.636C195 233.943 194.105 235 193 235" fill="#D0E3FF"/>
<path fill-rule="evenodd" clip-rule="evenodd" d="M247.357 144C247.305 144 247.253 143.998 247.2 143.995C245.921 143.908 244.954 142.786 245.04 141.489C247.374 106.044 237.342 71.0876 214.366 34.6214C213.675 33.5262 213.991 32.0708 215.071 31.3706C216.152 30.6709 217.586 30.991 218.277 32.0865C229.895 50.5302 238.42 69.0498 243.608 87.1303C248.822 105.302 250.862 123.697 249.67 141.803C249.587 143.047 248.568 144 247.357 144" fill="#D0E3FF"/>
<path fill-rule="evenodd" clip-rule="evenodd" d="M216.349 231C215.918 231 215.48 230.884 215.091 230.64C213.993 229.953 213.671 228.522 214.369 227.443C225.83 209.705 234.248 191.949 239.389 174.665C239.755 173.438 241.062 172.734 242.309 173.094C243.555 173.454 244.27 174.74 243.904 175.967C238.638 193.669 230.037 211.824 218.337 229.929C217.887 230.621 217.127 231 216.349 231" fill="#D0E3FF"/>
<path fill-rule="evenodd" clip-rule="evenodd" d="M107.317 185C106.308 185 105.38 184.35 105.089 183.353C104.739 182.148 105.452 180.894 106.683 180.551C109.816 179.677 112.989 178.842 116.114 178.07C117.354 177.762 118.615 178.499 118.929 179.713C119.242 180.927 118.491 182.16 117.25 182.467C114.17 183.229 111.042 184.051 107.954 184.913C107.741 184.972 107.527 185 107.317 185" fill="#D0E3FF"/>
<path fill-rule="evenodd" clip-rule="evenodd" d="M241.609 177C241.484 177 241.356 176.99 241.227 176.971C237.859 176.454 234.447 175.983 231.091 175.572C229.779 175.411 228.853 174.262 229.019 173.005C229.188 171.747 230.386 170.856 231.696 171.019C235.103 171.437 238.564 171.914 241.983 172.439C243.289 172.639 244.178 173.816 243.97 175.067C243.781 176.196 242.765 177 241.609 177" fill="#D0E3FF"/>
<path fill-rule="evenodd" clip-rule="evenodd" d="M279.637 185C279.427 185 279.214 184.974 279.003 184.919C266.687 181.735 254.235 179.196 241.989 177.373C240.702 177.181 239.824 176.052 240.03 174.852C240.235 173.653 241.448 172.837 242.737 173.028C255.157 174.877 267.783 177.451 280.268 180.679C281.526 181.005 282.262 182.217 281.914 183.388C281.623 184.362 280.672 185 279.637 185" fill="#D0E3FF"/>
<path fill-rule="evenodd" clip-rule="evenodd" d="M132 310H181V225H132V310Z" fill="#1063FE"/>
<path fill-rule="evenodd" clip-rule="evenodd" d="M219 310H268V204H219V310Z" fill="#1063FE"/>
<path fill-rule="evenodd" clip-rule="evenodd" d="M306 309H355V167H306V309Z" fill="#1063FE"/>
<path fill-rule="evenodd" clip-rule="evenodd" d="M394 309H443V131H394V309Z" fill="#1063FE"/>
<path fill-rule="evenodd" clip-rule="evenodd" d="M481 309H530V77H481V309Z" fill="#1063FE"/>
<path fill-rule="evenodd" clip-rule="evenodd" d="M118 310H167V225H118V310Z" fill="#1063FE"/>
<path fill-rule="evenodd" clip-rule="evenodd" d="M166 311C165.448 311 165 310.683 165 310.293V224.704C165 224.315 165.448 224 166 224C166.552 224 167 224.315 167 224.704V310.293C167 310.683 166.552 311 166 311" fill="white"/>
<path fill-rule="evenodd" clip-rule="evenodd" d="M204 310H253V204H204V310Z" fill="#1063FE"/>
<path fill-rule="evenodd" clip-rule="evenodd" d="M253 311C252.447 311 252 310.686 252 310.297V203.705C252 203.317 252.447 203 253 203C253.553 203 254 203.317 254 203.705V310.297C254 310.686 253.553 311 253 311" fill="white"/>
<path fill-rule="evenodd" clip-rule="evenodd" d="M291 309H340V167H291V309Z" fill="#1063FE"/>
<path fill-rule="evenodd" clip-rule="evenodd" d="M340.002 250C339.45 250 339 249.688 339 249.303V167.697C339 167.312 339.45 167 340.002 167C340.55 167 341 167.312 341 167.697V249.303C341 249.688 340.55 250 340.002 250" fill="white"/>
<path fill-rule="evenodd" clip-rule="evenodd" d="M309.038 258L410 258.078L409.962 309L309 308.922L309.038 258" fill="#78A9FF"/>
<path fill-rule="evenodd" clip-rule="evenodd" d="M412 256.079H409.307L310.733 256.002L308.041 256L308 308.918L310.693 308.921L409.267 308.998L411.959 309L412 256.079ZM409.305 258.77L409.269 306.305L310.695 306.23L310.731 258.695L409.305 258.77V258.77Z" fill="#78A9FF"/>
<path fill-rule="evenodd" clip-rule="evenodd" d="M311.026 265.488C313.861 265.091 316.11 262.839 316.511 260L402.525 260.067C402.659 261.045 403.017 261.98 403.579 262.803C404.61 264.318 406.22 265.31 408 265.561L407.974 300.512C405.139 300.909 402.89 303.161 402.489 306L316.475 305.933C316.341 304.955 315.98 304.02 315.421 303.194C314.39 301.682 312.78 300.69 311 300.437L311.026 265.488" fill="white"/>
<path fill-rule="evenodd" clip-rule="evenodd" d="M409 264.651C407.113 264.649 405.449 263.684 404.46 262.214C403.86 261.317 403.507 260.236 403.509 259.07L316.529 259C316.527 262.081 314.062 264.576 311.026 264.574L311 301.351C312.885 301.354 314.551 302.318 315.54 303.789C316.14 304.686 316.493 305.767 316.491 306.932L403.471 307C403.473 303.922 405.938 301.426 408.974 301.429L409 264.651ZM407.215 266.235L407.191 299.837C405.928 300.159 404.77 300.819 403.824 301.777C402.88 302.734 402.225 303.91 401.908 305.189L318.057 305.124C317.849 304.289 317.499 303.494 317.013 302.768C315.997 301.262 314.487 300.205 312.785 299.767L312.809 266.163C315.395 265.5 317.435 263.435 318.09 260.814L401.943 260.879C402.151 261.713 402.501 262.509 402.987 263.232C404.003 264.741 405.513 265.797 407.215 266.235V266.235Z" fill="#78A9FF"/>
<path fill-rule="evenodd" clip-rule="evenodd" d="M366.238 284.725C365.067 283.654 363.256 282.639 360.815 281.69C359.511 281.183 358.605 280.665 358.109 280.129C357.622 279.604 357.376 278.919 357.376 278.074C357.376 277.183 357.607 276.462 358.075 275.925C358.542 275.391 359.248 275.121 360.192 275.121C361.127 275.121 361.85 275.47 362.392 276.165C362.66 276.512 362.86 276.934 362.993 277.432C363.268 278.436 364.259 279.094 365.318 279.094H365.367C366.883 279.077 368.027 277.64 367.579 276.225C367.304 275.36 366.895 274.601 366.333 273.935C365.323 272.733 363.96 271.962 362.244 271.631L362.246 269.804C362.246 269.334 362.064 268.901 361.759 268.582C361.75 268.563 361.733 268.544 361.713 268.527C361.38 268.196 360.922 268 360.416 268C359.91 268 359.452 268.196 359.119 268.525C358.785 268.853 358.583 269.303 358.583 269.799V271.574C356.828 271.835 355.407 272.5 354.329 273.559C353.136 274.73 352.542 276.222 352.542 278.052C352.54 280.014 353.131 281.542 354.321 282.622C355.502 283.702 357.322 284.689 359.773 285.573C361.022 286.052 361.898 286.569 362.414 287.123C362.928 287.678 363.186 288.39 363.183 289.273C363.183 290.164 362.916 290.878 362.38 291.403C361.837 291.927 361.073 292.188 360.063 292.188C359.014 292.188 358.157 291.867 357.471 291.24C357.089 290.883 356.814 290.394 356.653 289.774C356.385 288.79 355.424 288.15 354.394 288.15H354.346C352.715 288.176 351.608 289.762 352.131 291.273C352.455 292.21 352.958 292.991 353.655 293.628C354.952 294.811 356.59 295.537 358.564 295.762V297.199C358.561 297.489 358.629 297.771 358.773 298.013C358.839 298.164 358.934 298.296 359.048 298.418C359.058 298.437 359.077 298.456 359.097 298.475C359.43 298.804 359.888 299 360.392 299C360.764 299 361.117 298.887 361.402 298.71C361.509 298.636 361.604 298.562 361.689 298.475C362.022 298.147 362.224 297.697 362.224 297.201V295.652C363.875 295.371 365.201 294.744 366.231 293.779C367.406 292.643 367.998 291.134 368 289.247C368 287.307 367.421 285.805 366.238 284.725" fill="#78A9FF"/>
<path fill-rule="evenodd" clip-rule="evenodd" d="M379 309H428V131H379V309Z" fill="#1063FE"/>
<path fill-rule="evenodd" clip-rule="evenodd" d="M428 273C427.447 273 427 272.682 427 272.294V130.706C427 130.316 427.447 130 428 130C428.553 130 429 130.316 429 130.706V272.294C429 272.682 428.553 273 428 273" fill="white"/>
<path fill-rule="evenodd" clip-rule="evenodd" d="M466 309H515V77H466V309Z" fill="#1063FE"/>
<path fill-rule="evenodd" clip-rule="evenodd" d="M130.003 184L130 172.279C130.365 172.279 167.157 172.082 220.174 158.161C269.017 145.336 342.042 117.895 412.562 60L420 69.0586C388.073 95.2706 352.983 117.623 315.703 135.495C285.882 149.791 254.602 161.268 222.732 169.608C168.354 183.836 131.543 184 130.003 184" fill="#D0E3FF"/>
<path fill-rule="evenodd" clip-rule="evenodd" d="M513.956 287V287C513.427 286.998 513 286.683 513 286.295L513.088 233.7C513.088 233.314 513.515 233 514.044 233C514.573 233 515 233.314 515 233.703L514.912 286.297C514.912 286.686 514.485 287 513.956 287" fill="white"/>
<path fill-rule="evenodd" clip-rule="evenodd" d="M513.904 200V200C513.404 200 513 199.685 513 199.296L513.191 76.7032C513.191 76.3149 513.596 76 514.096 76C514.596 76.0005 515 76.3161 515 76.7049L514.809 199.299C514.809 199.685 514.404 200 513.904 200" fill="white"/>
<path fill-rule="evenodd" clip-rule="evenodd" d="M505.731 243H492.266C491.567 243 491 242.447 491 241.769V230.759C491 226.479 494.587 223 499 223C500.386 223 501.752 223.35 502.95 224.009C503.14 224.115 503.206 224.351 503.099 224.535C502.989 224.722 502.748 224.786 502.556 224.679C501.477 224.086 500.247 223.772 499 223.772C495.028 223.772 491.796 226.906 491.796 230.759V241.769C491.796 242.022 492.006 242.228 492.266 242.228H505.731C505.992 242.228 506.204 242.022 506.204 241.769V234.84C506.204 234.627 506.381 234.453 506.603 234.453C506.822 234.453 507 234.627 507 234.84V241.769C507 242.447 506.433 243 505.731 243" fill="#78A9FF"/>
<path fill-rule="evenodd" clip-rule="evenodd" d="M549 290.565V298H558V290L549 290.565" fill="#FFBFAA"/>
<path fill-rule="evenodd" clip-rule="evenodd" d="M562 309H549V297H558.793L562 304.11V309" fill="#B2BBC6"/>
<path fill-rule="evenodd" clip-rule="evenodd" d="M550.422 198.199L551 197.563V185H542V196.563C544.036 199.535 548.029 200.838 550.422 198.199Z" fill="#FFBFAA"/>
<path fill-rule="evenodd" clip-rule="evenodd" d="M540.46 192H551V179H539V190.452C539 191.307 539.654 192 540.46 192" fill="#FFBFAA"/>
<path fill-rule="evenodd" clip-rule="evenodd" d="M537.248 177.629C537.248 177.629 539.237 174.087 540.931 175.714C540.931 175.714 545.184 173.905 546.551 176.046C546.551 176.046 550.54 173.861 552.841 177.274C552.841 177.274 555.386 179.915 552.934 182.203C552.934 182.203 554.939 184.666 552.307 185.788C552.307 185.788 552.839 188.644 550.321 188.84C550.321 188.84 547.702 189.372 546.328 188.495C546.328 188.495 544.444 188.769 545.192 186.879C545.192 186.879 545.063 186.887 544.859 186.879C544.123 186.85 542.4 186.604 542.142 184.956C542.142 184.956 538.414 183.94 539.314 182.443C539.314 182.443 536.984 182.572 536.823 181.01C536.823 181.01 534.714 177.962 537.248 177.629" fill="#0B1E57"/>
<path fill-rule="evenodd" clip-rule="evenodd" d="M541.999 189V189C543.104 189 544 188.05 544 186.877V186.122C544 184.95 543.104 184 541.999 184C540.896 184 540 184.95 540 186.122V186.877C540 188.05 540.896 189 541.999 189" fill="#FFBFAA"/>
<path opacity="0.5" fill-rule="evenodd" clip-rule="evenodd" d="M541.38 187C541.282 187 541.185 186.962 541.11 186.886C540.962 186.736 540.964 186.494 541.113 186.345L542.354 185.11C542.503 184.962 542.744 184.963 542.891 185.114C543.037 185.264 543.037 185.506 542.888 185.655L541.646 186.89C541.572 186.963 541.477 187 541.38 187" fill="#4886F2"/>
<path fill-rule="evenodd" clip-rule="evenodd" d="M533 293.414L530.813 297.935L522 298L524.182 293L533 293.414" fill="#FFBFAA"/>
<path fill-rule="evenodd" clip-rule="evenodd" d="M515.041 309H532.035L534 297L524.191 297.088L515 304.171L515.041 309" fill="#B2BBC6"/>
<path fill-rule="evenodd" clip-rule="evenodd" d="M520.5 300C520.226 300 520.003 299.784 520 299.515C520 299.246 520.22 299.024 520.494 299.021L522.497 299C522.5 299 522.5 299 522.503 299C522.774 299 522.997 299.216 523 299.485C523.003 299.754 522.784 299.976 522.506 299.979L520.506 300C520.503 300 520.5 300 520.5 300" fill="white"/>
<path fill-rule="evenodd" clip-rule="evenodd" d="M513.413 307C513.19 307 513.008 306.854 513 306.666C512.993 306.476 513.173 306.315 513.401 306.309L524.571 306C524.794 306 524.992 306.144 525 306.334C525.007 306.524 524.827 306.685 524.599 306.691L513.429 307C513.423 307 513.418 307 513.413 307" fill="white"/>
<path fill-rule="evenodd" clip-rule="evenodd" d="M525.374 306C525.305 306 525.234 305.98 525.17 305.939C524.998 305.829 524.948 305.602 525.06 305.431L527.987 301H532.284L531.667 305.264H532.626C532.833 305.264 533 305.428 533 305.631C533 305.833 532.833 306 532.626 306H530.802L531.422 301.736H528.393L525.691 305.831C525.617 305.939 525.498 306 525.374 306" fill="white"/>
<path fill-rule="evenodd" clip-rule="evenodd" d="M536.992 231L563.113 230.907C565.959 230.519 568.061 228.071 567.999 225.213L567.656 209L555.313 209.26L556.583 220.437L536 225.199L536.992 231" fill="#FFBFAA"/>
<path fill-rule="evenodd" clip-rule="evenodd" d="M522 297H535.062L548 234H533.092L522 297" fill="#4886F2"/>
<path fill-rule="evenodd" clip-rule="evenodd" d="M547.695 297H561L560.185 234H545L547.695 297" fill="#4886F2"/>
<path fill-rule="evenodd" clip-rule="evenodd" d="M532.535 237H559.465L561.984 204.459C562.155 202.229 560.9 200.171 558.985 199.547L550.139 196.659C547.449 195.78 544.551 195.78 541.861 196.659L533.01 199.547C531.098 200.173 529.845 202.226 530.016 204.455L532.535 237" fill="#C9DCFF"/>
<path opacity="0.499349" fill-rule="evenodd" clip-rule="evenodd" d="M560.605 293H547.397C547.179 293 547 292.777 547 292.502C547 292.226 547.179 292 547.397 292H560.605C560.823 292 561 292.226 561 292.502C561 292.777 560.823 293 560.605 293" fill="#1063FE"/>
<path opacity="0.499349" fill-rule="evenodd" clip-rule="evenodd" d="M536.607 293H523.391C523.175 293 523 292.777 523 292.502C523 292.226 523.175 292 523.391 292H536.607C536.823 292 537 292.226 537 292.502C537 292.777 536.823 293 536.607 293" fill="#1063FE"/>
<path opacity="0.499349" fill-rule="evenodd" clip-rule="evenodd" d="M560.636 269C560.578 269 560.519 268.985 560.466 268.953C557.968 267.515 556.324 264.53 556.179 261.164L556 257H560.506C560.707 257 560.872 257.18 560.872 257.402C560.872 257.627 560.707 257.807 560.506 257.807H556.766L556.909 261.125C557.041 264.206 558.533 266.933 560.803 268.238C560.982 268.341 561.051 268.586 560.96 268.783C560.895 268.921 560.767 269 560.636 269" fill="#1063FE"/>
<path opacity="0.499349" fill-rule="evenodd" clip-rule="evenodd" d="M560.597 263C559.717 263 559 262.102 559 260.999C559 259.898 559.717 259 560.597 259C560.82 259 561 259.209 561 259.466C561 259.726 560.82 259.935 560.597 259.935C560.162 259.935 559.808 260.412 559.808 260.999C559.808 261.588 560.162 262.065 560.597 262.065C560.82 262.065 561 262.274 561 262.534C561 262.791 560.82 263 560.597 263" fill="#1063FE"/>
<path fill-rule="evenodd" clip-rule="evenodd" d="M506.815 227L523.741 218.351L532 213.304L525.173 204L517.527 208.763L501 221.653L506.815 227" fill="#FFBFAA"/>
<path fill-rule="evenodd" clip-rule="evenodd" d="M556.943 199V199C563.053 200.102 567.867 204.827 569.075 210.916L570 215.572L561.233 219L554 204.164L556.943 199" fill="#C9DCFF"/>
<path fill-rule="evenodd" clip-rule="evenodd" d="M534.153 199.003C537.398 198.904 540.091 201.569 539.998 204.843C539.883 208.909 538.172 212.857 535.086 215.724L531.558 219L520 206.707L531.972 199.635C532.634 199.243 533.384 199.024 534.153 199.003" fill="#C9DCFF"/>
<path fill-rule="evenodd" clip-rule="evenodd" d="M549.864 254H538.383L537 242H553L549.864 254" fill="#4886F2"/>
<path fill-rule="evenodd" clip-rule="evenodd" d="M546.358 251C546.211 251 546.074 250.897 546.022 250.728C545.954 250.516 546.05 250.279 546.235 250.201C547.952 249.486 549.266 247.926 549.837 245.925L550.304 244.282C550.365 244.068 550.568 243.95 550.755 244.02C550.941 244.093 551.043 244.325 550.982 244.542L550.513 246.182C549.874 248.427 548.404 250.174 546.478 250.977C546.438 250.992 546.397 251 546.358 251" fill="white"/>
<path fill-rule="evenodd" clip-rule="evenodd" d="M544.378 254C544.339 254 544.3 253.994 544.26 253.984C544.061 253.924 543.954 253.736 544.019 253.559L545.26 250.23C545.327 250.054 545.54 249.959 545.74 250.017C545.939 250.074 546.046 250.263 545.981 250.439L544.738 253.768C544.687 253.91 544.538 254 544.378 254" fill="white"/>
<path opacity="0.499349" fill-rule="evenodd" clip-rule="evenodd" d="M530.594 269C530.564 269 530.532 268.994 530.5 268.985C529.239 268.623 528.107 267.904 527.131 266.843C526.968 266.665 526.955 266.356 527.104 266.157C527.256 265.961 527.514 265.946 527.677 266.125C528.551 267.075 529.564 267.717 530.688 268.041C530.907 268.103 531.041 268.367 530.989 268.629C530.944 268.849 530.778 269 530.594 269" fill="#1063FE"/>
<path opacity="0.499349" fill-rule="evenodd" clip-rule="evenodd" d="M533.635 257C533.606 257 533.576 256.995 533.547 256.987L529.282 255.824C529.084 255.77 528.963 255.543 529.01 255.321C529.057 255.097 529.255 254.956 529.453 255.012L533.72 256.176C533.916 256.229 534.037 256.457 533.99 256.679C533.949 256.87 533.799 257 533.635 257" fill="#1063FE"/>
<path opacity="0.499349" fill-rule="evenodd" clip-rule="evenodd" d="M529.311 261C529.193 261 529.072 260.986 528.954 260.951C528.607 260.856 528.305 260.63 528.084 260.294C527.945 260.087 527.983 259.795 528.164 259.637C528.345 259.482 528.602 259.522 528.74 259.729C528.846 259.889 528.987 259.995 529.148 260.041C529.347 260.096 529.56 260.047 529.747 259.901C529.943 259.746 530.086 259.502 530.147 259.215C530.207 258.928 530.177 258.638 530.064 258.394C529.955 258.17 529.787 258.015 529.586 257.961C529.357 257.898 529.165 257.978 529.045 258.058C528.848 258.187 528.597 258.11 528.484 257.886C528.37 257.662 528.438 257.375 528.635 257.246C528.989 257.014 529.394 256.942 529.777 257.048C530.207 257.166 530.567 257.484 530.786 257.946C530.997 258.394 531.055 258.922 530.947 259.433C530.839 259.947 530.577 260.386 530.212 260.673C529.935 260.891 529.626 261 529.311 261" fill="#1063FE"/>
<path opacity="0.5" fill-rule="evenodd" clip-rule="evenodd" d="M546.398 229C546.311 229 546.223 228.972 546.15 228.917C545.977 228.785 545.95 228.549 546.089 228.384L557.291 215.141C557.43 214.978 557.679 214.953 557.852 215.083C558.023 215.215 558.049 215.453 557.913 215.615L546.71 228.859C546.63 228.951 546.515 229 546.398 229" fill="#4886F2"/>
<path opacity="0.5" fill-rule="evenodd" clip-rule="evenodd" d="M543.49 223C543.382 223 543.274 222.972 543.182 222.909C542.972 222.767 542.939 222.507 543.107 222.33L546.13 219.153C546.297 218.977 546.606 218.949 546.818 219.09C547.028 219.234 547.061 219.495 546.893 219.672L543.87 222.846C543.774 222.949 543.631 223 543.49 223" fill="#4886F2"/>
<path fill-rule="evenodd" clip-rule="evenodd" d="M561.502 219C561.223 219 561 218.828 561 218.617V211.383C561 211.172 561.223 211 561.502 211C561.777 211 562 211.172 562 211.383V218.617C562 218.828 561.777 219 561.502 219" fill="white"/>
<path fill-rule="evenodd" clip-rule="evenodd" d="M531.951 220C531.855 220 531.76 219.968 531.682 219.901L530.142 218.582C529.971 218.436 529.951 218.18 530.1 218.009C530.251 217.84 530.51 217.823 530.681 217.969L531.964 219.069L538.333 214.086C538.511 213.95 538.768 213.977 538.911 214.153C539.052 214.33 539.022 214.585 538.843 214.724L532.205 219.913C532.132 219.973 532.042 220 531.951 220" fill="white"/>
<path fill-rule="evenodd" clip-rule="evenodd" d="M561.619 306H554.714L553.237 300.77H548.381C548.172 300.77 548 300.598 548 300.386C548 300.172 548.172 300 548.381 300H553.812L555.286 305.23H561.619C561.83 305.23 562 305.402 562 305.614C562 305.826 561.83 306 561.619 306" fill="white"/>
<path fill-rule="evenodd" clip-rule="evenodd" d="M559.47 301C559.218 301 559.009 300.8 559 300.546C558.992 300.289 559.195 300.074 559.453 300.066L561.518 300C561.524 300 561.527 300 561.533 300C561.785 300 561.994 300.197 562 300.451C562.008 300.709 561.808 300.923 561.547 300.931L559.484 301C559.479 301 559.473 301 559.47 301" fill="white"/>
<path fill-rule="evenodd" clip-rule="evenodd" d="M507 226.508L503.784 229.403C503.303 229.834 502.592 229.824 502.126 229.378L501.825 229.094L498.814 230.76C498.071 231.169 497.162 231.048 496.54 230.456L494.533 228.545C493.785 227.833 493.831 226.591 494.627 225.939L499.306 222.104L501.085 221L507 226.508" fill="#FFBFAA"/>
<path fill-rule="evenodd" clip-rule="evenodd" d="M558.615 240H537.385C537.172 240 537 239.777 537 239.498C537 239.223 537.172 239 537.385 239H558.615C558.828 239 559 239.223 559 239.498C559 239.777 558.828 240 558.615 240" fill="white"/>
<path opacity="0.537946" fill-rule="evenodd" clip-rule="evenodd" d="M550.593 184C550.591 184 550.588 184 550.583 184C550.365 183.993 550.189 183.754 550.189 183.464C550.186 183.433 550.174 183.3 550.07 183.205C549.956 183.1 549.574 182.905 548.532 183.364C548.321 183.458 548.091 183.306 548.021 183.024C547.949 182.742 548.066 182.438 548.277 182.344C549.321 181.884 550.09 181.885 550.561 182.349C550.998 182.777 551 183.405 551 183.475C550.995 183.767 550.814 184 550.593 184" fill="#1063FE"/>
<path opacity="0.5" fill-rule="evenodd" clip-rule="evenodd" d="M550.863 192C550.837 192 550.811 191.999 550.785 191.997C550.352 191.969 550.11 191.717 550.084 191.688C549.952 191.542 549.978 191.329 550.146 191.213C550.311 191.098 550.548 191.12 550.683 191.26C550.692 191.268 550.752 191.32 550.851 191.323C550.981 191.33 551.161 191.245 551.348 191.091C551.504 190.964 551.75 190.971 551.895 191.107C552.041 191.244 552.034 191.458 551.878 191.585C551.54 191.861 551.199 192 550.863 192" fill="#4886F2"/>
<path opacity="0.537946" fill-rule="evenodd" clip-rule="evenodd" d="M550.525 180C550.39 180 550.258 179.949 550.155 179.846C549.948 179.641 549.948 179.308 550.155 179.102C551.122 178.132 552.372 178.007 552.424 178.001C552.724 177.981 552.972 178.188 552.998 178.477C553.024 178.766 552.814 179.022 552.524 179.05C552.505 179.052 551.586 179.156 550.899 179.845C550.796 179.948 550.661 180 550.525 180" fill="#1063FE"/>
<path opacity="0.537946" fill-rule="evenodd" clip-rule="evenodd" d="M545.547 182C545.53 182 545.51 181.999 545.494 181.997C545.096 181.952 543.102 181.671 543.002 180.5C542.98 180.247 543.163 180.024 543.413 180.002C543.667 179.979 543.883 180.167 543.906 180.419C543.928 180.657 544.779 180.992 545.594 181.084C545.844 181.111 546.025 181.338 545.997 181.591C545.972 181.826 545.775 182 545.547 182" fill="#1063FE"/>
<path opacity="0.5" fill-rule="evenodd" clip-rule="evenodd" d="M541.502 192C541.318 192 541.141 191.919 541.052 191.778C540.93 191.581 541.031 191.34 541.275 191.242L544.275 190.042C544.523 189.944 544.823 190.023 544.948 190.221C545.07 190.419 544.969 190.659 544.722 190.758L541.722 191.958C541.652 191.986 541.575 192 541.502 192" fill="#4886F2"/>
<path opacity="0.5" fill-rule="evenodd" clip-rule="evenodd" d="M518.513 216C518.432 216 518.349 215.983 518.275 215.948C518.135 215.884 514.884 214.333 515.003 212.383C515.018 212.161 515.244 211.993 515.515 212C515.782 212.01 515.988 212.2 515.976 212.422C515.901 213.63 517.957 214.869 518.754 215.247C518.986 215.356 519.069 215.602 518.938 215.795C518.846 215.926 518.682 216 518.513 216" fill="#4886F2"/>
<path fill-rule="evenodd" clip-rule="evenodd" d="M510.945 242.308C511.25 245.447 510.269 248.414 508.44 250.673C507.312 252.067 505.871 253.19 504.203 253.913C503.165 254.377 502.03 254.68 500.838 254.798L499.368 254.944C493.179 255.562 487.664 250.971 487.055 244.693C486.75 241.554 487.731 238.587 489.56 236.326C491.39 234.066 494.067 232.511 497.162 232.203L498.632 232.057C499.823 231.937 500.994 232.009 502.103 232.259C506.765 233.268 510.454 237.237 510.945 242.308" fill="white"/>
<path fill-rule="evenodd" clip-rule="evenodd" d="M494 245.281C492.98 245.601 491.955 245.867 490.93 246.128L489.389 246.5C488.861 246.641 488.291 246.834 487.706 246.909C486.533 247.086 485.248 247.021 483.995 246.573C482.754 246.118 481.574 245.252 480.787 244.111C480.003 242.988 479.583 241.595 479.519 240.381C479.463 239.353 479.431 238.32 479.465 237.28L479.48 236.89C479.487 236.755 479.495 236.721 479.504 236.629C479.512 236.472 479.509 236.312 479.497 236.143C479.458 235.812 479.352 235.463 479.168 235.12C478.794 234.433 478.091 233.77 477 233.395C477.998 232.807 479.45 232.875 480.603 233.601C481.183 233.956 481.699 234.467 482.06 235.088C482.242 235.4 482.395 235.732 482.498 236.082L482.628 236.586L482.722 236.965C482.962 237.976 483.134 238.997 483.284 240.018C483.316 240.282 483.351 240.41 483.378 240.613C483.432 240.787 483.464 240.973 483.528 241.14C483.621 241.491 483.786 241.798 483.945 242.105C484.29 242.703 484.774 243.208 485.41 243.656C486.054 244.091 486.868 244.423 487.784 244.669C488.244 244.795 488.718 244.906 489.234 244.969L490.82 245.039C491.879 245.098 492.938 245.16 494 245.281" fill="white"/>
<path fill-rule="evenodd" clip-rule="evenodd" d="M507.558 235C507.311 235 507.112 234.823 507.112 234.604V230.407C507.112 228.655 506.401 226.97 505.112 225.658C504.949 225.495 504.966 225.243 505.15 225.099C505.335 224.954 505.614 224.971 505.777 225.133C507.21 226.591 508 228.464 508 230.407V234.604C508 234.823 507.802 235 507.558 235" fill="#78A9FF"/>
<path fill-rule="evenodd" clip-rule="evenodd" d="M497.971 241C494.724 241 491.477 240.591 488.305 239.772C488.094 239.718 487.962 239.479 488.01 239.241C488.058 239.002 488.269 238.856 488.48 238.908C495.302 240.669 502.475 240.499 509.223 238.412L510.504 238.016C510.713 237.951 510.929 238.092 510.987 238.328C511.042 238.563 510.92 238.807 510.711 238.872L509.432 239.268C505.695 240.423 501.832 241 497.971 241" fill="#78A9FF"/>
<path fill-rule="evenodd" clip-rule="evenodd" d="M497.971 252C494.724 252 491.477 251.591 488.305 250.772C488.094 250.718 487.962 250.48 488.01 250.241C488.058 250.003 488.269 249.856 488.48 249.908C495.302 251.669 502.475 251.499 509.223 249.412L510.504 249.016C510.713 248.951 510.929 249.089 510.987 249.328C511.042 249.564 510.92 249.807 510.711 249.87L509.432 250.265C505.695 251.42 501.832 252 497.971 252" fill="#78A9FF"/>
<path fill-rule="evenodd" clip-rule="evenodd" d="M464.427 230C464.209 230 464.02 229.824 464.002 229.586C463.979 229.334 464.152 229.11 464.387 229.087C464.775 229.048 465.166 229.02 465.554 229C465.787 228.989 465.989 229.182 465.999 229.434C466.012 229.689 465.829 229.902 465.593 229.913C465.221 229.933 464.841 229.961 464.469 229.997C464.453 230 464.44 230 464.427 230" fill="#2A0055"/>
<path fill-rule="evenodd" clip-rule="evenodd" d="M460.354 230C460.196 230 460.053 229.893 460.012 229.733C459.962 229.543 460.075 229.35 460.263 229.3C460.694 229.187 461.137 229.089 461.583 229.006C461.771 228.969 461.958 229.098 461.994 229.291C462.029 229.485 461.901 229.67 461.711 229.704C461.282 229.785 460.856 229.878 460.442 229.987C460.412 229.996 460.382 230 460.354 230" fill="#2A0055"/>
<path fill-rule="evenodd" clip-rule="evenodd" d="M455.915 233.126C455.786 233.126 455.66 233.067 455.583 232.957C455.464 232.785 455.515 232.554 455.696 232.439C456.567 231.901 457.49 231.43 458.443 231.031C458.644 230.949 458.877 231.034 458.967 231.224C459.054 231.414 458.964 231.634 458.763 231.718C457.849 232.096 456.964 232.552 456.13 233.067C456.065 233.108 455.99 233.126 455.915 233.126ZM451.396 237C451.309 237 451.219 236.973 451.146 236.915C450.977 236.785 450.95 236.549 451.091 236.389C451.76 235.615 452.48 234.896 453.231 234.248C453.393 234.111 453.643 234.12 453.791 234.273C453.939 234.424 453.927 234.663 453.764 234.802C453.042 235.425 452.349 236.119 451.704 236.863C451.624 236.952 451.51 237 451.396 237V237Z" fill="#2A0055"/>
<path fill-rule="evenodd" clip-rule="evenodd" d="M448.513 241C448.428 241 448.344 240.986 448.265 240.953C448.017 240.85 447.927 240.618 448.065 240.433C448.384 240.002 448.717 239.581 449.053 239.178C449.203 239 449.52 238.946 449.758 239.059C450 239.171 450.072 239.405 449.921 239.586C449.595 239.977 449.272 240.384 448.962 240.803C448.868 240.93 448.692 241 448.513 241" fill="#2A0055"/>
<path fill-rule="evenodd" clip-rule="evenodd" d="M447.315 243C447.269 243 447.225 242.986 447.181 242.956C447.023 242.85 446.956 242.581 447.031 242.354C447.152 241.976 447.279 241.604 447.406 241.247C447.485 241.025 447.675 240.936 447.829 241.05C447.983 241.163 448.044 241.438 447.966 241.66C447.843 242.007 447.719 242.37 447.6 242.739C447.546 242.903 447.433 243 447.315 243" fill="#2A0055"/>
<path fill-rule="evenodd" clip-rule="evenodd" d="M475.56 231C475.504 231 475.45 230.991 475.396 230.976C475.393 230.974 474.999 230.85 474.311 230.684C474.079 230.626 473.947 230.432 474.02 230.246C474.093 230.062 474.341 229.96 474.57 230.015C475.296 230.192 475.706 230.321 475.722 230.327C475.949 230.4 476.059 230.603 475.968 230.78C475.9 230.917 475.733 231 475.56 231" fill="#2A0055"/>
<path fill-rule="evenodd" clip-rule="evenodd" d="M471.474 230C471.439 230 471.403 229.998 471.371 229.993C470.738 229.902 470.093 229.823 469.451 229.758C469.164 229.728 468.964 229.534 469.006 229.327C469.044 229.118 469.312 228.976 469.599 229.004C470.261 229.071 470.925 229.153 471.574 229.248C471.861 229.288 472.045 229.488 471.99 229.695C471.939 229.877 471.719 230 471.474 230" fill="#2A0055"/>
<path fill-rule="evenodd" clip-rule="evenodd" d="M468.478 230C468.459 230 468.44 230 468.424 229.997C467.78 229.939 467.134 229.896 466.5 229.872C466.209 229.859 465.988 229.653 466.001 229.413C466.017 229.173 466.25 228.995 466.551 229C467.204 229.027 467.87 229.072 468.533 229.131C468.821 229.157 469.029 229.371 468.997 229.611C468.971 229.835 468.744 230 468.478 230" fill="#2A0055"/>
<path fill-rule="evenodd" clip-rule="evenodd" d="M465.426 230C465.199 230 465.011 229.798 465 229.54C464.99 229.27 465.17 229.045 465.408 229.033C465.79 229.012 466.182 229 466.571 229C466.807 229 467 229.217 467 229.484C467 229.751 466.809 229.967 466.574 229.97C466.195 229.97 465.816 229.982 465.447 230C465.44 230 465.434 230 465.426 230" fill="#2A0055"/>
<path fill-rule="evenodd" clip-rule="evenodd" d="M474.573 235C474.565 235 474.557 235 474.549 235C474.539 235 474.133 234.973 473.437 234.994C473.434 234.994 473.432 234.994 473.427 234.994C473.196 234.994 473.005 234.78 473 234.512C472.995 234.24 473.181 234.014 473.416 234.008C474.159 233.987 474.583 234.014 474.596 234.014C474.832 234.029 475.012 234.264 474.999 234.536C474.986 234.798 474.798 235 474.573 235" fill="#2A0055"/>
<path fill-rule="evenodd" clip-rule="evenodd" d="M469.525 235C469.274 235 469.049 234.863 469.007 234.668C468.959 234.449 469.155 234.244 469.441 234.21C470.091 234.127 470.756 234.056 471.418 234.003C471.707 233.978 471.965 234.134 471.997 234.354C472.029 234.573 471.82 234.771 471.534 234.793C470.891 234.849 470.245 234.915 469.612 234.995C469.583 234.998 469.554 235 469.525 235" fill="#2A0055"/>
<path fill-rule="evenodd" clip-rule="evenodd" d="M465.075 236.578C464.915 236.578 464.763 236.485 464.702 236.33C464.621 236.13 464.724 235.904 464.93 235.825C465.752 235.518 466.614 235.244 467.495 235.013C467.708 234.958 467.929 235.08 467.986 235.287C468.045 235.497 467.917 235.709 467.703 235.766C466.849 235.987 466.015 236.254 465.222 236.552C465.173 236.571 465.124 236.578 465.075 236.578ZM460.401 239C460.276 239 460.151 238.943 460.075 238.836C459.945 238.659 459.989 238.416 460.168 238.293C460.892 237.793 461.668 237.33 462.473 236.916C462.667 236.814 462.91 236.887 463.015 237.076C463.118 237.266 463.045 237.502 462.849 237.602C462.075 238.002 461.329 238.447 460.632 238.926C460.563 238.976 460.482 239 460.401 239V239Z" fill="#2A0055"/>
<path fill-rule="evenodd" clip-rule="evenodd" d="M457.434 242C457.331 242 457.225 241.963 457.143 241.888C456.965 241.731 456.952 241.461 457.111 241.286C457.479 240.883 457.871 240.488 458.27 240.117C458.445 239.954 458.718 239.962 458.882 240.135C459.046 240.305 459.038 240.577 458.863 240.739C458.48 241.095 458.106 241.472 457.754 241.859C457.669 241.95 457.55 242 457.434 242" fill="#2A0055"/>
<path fill-rule="evenodd" clip-rule="evenodd" d="M455.552 244C455.44 244 455.328 243.973 455.23 243.911C454.984 243.757 454.926 243.455 455.102 243.236C455.396 242.875 455.704 242.52 456.018 242.18C456.207 241.973 456.556 241.94 456.792 242.106C457.032 242.274 457.069 242.579 456.877 242.786C456.579 243.112 456.282 243.452 456.001 243.799C455.893 243.932 455.724 244 455.552 244" fill="#2A0055"/>
<path fill-rule="evenodd" clip-rule="evenodd" d="M465.509 244C465.378 244 465.248 243.949 465.149 243.847C464.95 243.64 464.95 243.312 465.149 243.108C465.471 242.78 465.81 242.452 466.154 242.133C466.362 241.942 466.681 241.958 466.87 242.172C467.056 242.385 467.041 242.713 466.833 242.904C466.501 243.213 466.175 243.532 465.865 243.847C465.766 243.949 465.636 244 465.509 244" fill="#2A0055"/>
<path fill-rule="evenodd" clip-rule="evenodd" d="M463.467 246C463.37 246 463.276 245.975 463.193 245.923C462.985 245.793 462.937 245.541 463.088 245.361C463.427 244.951 463.794 244.541 464.179 244.144C464.344 243.973 464.638 243.951 464.834 244.094C465.031 244.235 465.056 244.492 464.891 244.662C464.524 245.045 464.17 245.437 463.843 245.832C463.752 245.941 463.609 246 463.467 246" fill="#2A0055"/>
<path fill-rule="evenodd" clip-rule="evenodd" d="M460.428 251C460.38 251 460.331 250.991 460.283 250.969C460.06 250.878 459.945 250.591 460.026 250.331C460.352 249.284 460.743 248.251 461.192 247.265C461.302 247.024 461.562 246.929 461.772 247.057C461.982 247.186 462.06 247.488 461.95 247.732C461.52 248.679 461.144 249.665 460.832 250.67C460.769 250.875 460.604 251 460.428 251" fill="#2A0055"/>
<path fill-rule="evenodd" clip-rule="evenodd" d="M460.38 255C460.364 255 460.345 254.997 460.329 254.994C460.12 254.955 459.976 254.691 460.003 254.4C460.066 253.736 460.15 253.069 460.25 252.418C460.292 252.134 460.496 251.951 460.699 252.012C460.905 252.073 461.036 252.35 460.991 252.637C460.896 253.263 460.817 253.904 460.757 254.542C460.731 254.807 460.566 255 460.38 255" fill="#2A0055"/>
<path fill-rule="evenodd" clip-rule="evenodd" d="M460.464 257C460.458 257 460.453 256.997 460.447 256.997C460.192 256.99 459.992 256.791 460 256.555C460.017 256.168 460.043 255.776 460.077 255.391C460.099 255.156 460.323 254.981 460.577 255.002C460.831 255.023 461.021 255.229 460.998 255.465C460.964 255.836 460.939 256.213 460.925 256.587C460.916 256.817 460.71 257 460.464 257" fill="#2A0055"/>
<path fill-rule="evenodd" clip-rule="evenodd" d="M474.442 238C474.266 238 474.098 237.916 474.03 237.781C473.941 237.604 474.055 237.404 474.282 237.335C474.991 237.118 475.413 237.019 475.432 237.015C475.662 236.96 475.911 237.063 475.981 237.246C476.051 237.427 475.919 237.619 475.686 237.674C475.681 237.676 475.275 237.771 474.604 237.975C474.55 237.992 474.496 238 474.442 238" fill="#2A0055"/>
<path fill-rule="evenodd" clip-rule="evenodd" d="M470.378 240C470.251 240 470.123 239.907 470.053 239.744C469.947 239.494 470.005 239.174 470.186 239.027C470.592 238.694 471.017 238.367 471.446 238.06C471.629 237.925 471.859 238.025 471.957 238.284C472.054 238.54 471.982 238.854 471.796 238.988C471.379 239.286 470.968 239.603 470.573 239.926C470.513 239.974 470.446 240 470.378 240" fill="#2A0055"/>
<path fill-rule="evenodd" clip-rule="evenodd" d="M467.393 241C467.272 241 467.154 240.932 467.077 240.802C466.947 240.588 466.986 240.283 467.159 240.126C467.557 239.768 467.971 239.415 468.393 239.077C468.573 238.932 468.819 238.997 468.937 239.22C469.055 239.445 469.002 239.744 468.821 239.889C468.414 240.218 468.012 240.559 467.627 240.905C467.557 240.97 467.475 241 467.393 241" fill="#2A0055"/>
<path fill-rule="evenodd" clip-rule="evenodd" d="M466.497 243C466.361 243 466.227 242.941 466.127 242.824C465.945 242.606 465.96 242.267 466.163 242.071C466.494 241.752 466.837 241.433 467.187 241.123C467.399 240.934 467.712 240.967 467.888 241.195C468.061 241.42 468.031 241.758 467.818 241.944C467.481 242.244 467.147 242.554 466.828 242.86C466.734 242.954 466.616 243 466.497 243" fill="#2A0055"/>
<path fill-rule="evenodd" clip-rule="evenodd" d="M454.57 245C454.465 245 454.36 244.977 454.266 244.928C454 244.786 453.92 244.493 454.088 244.273C454.371 243.905 454.665 243.542 454.962 243.197C455.147 242.986 455.504 242.937 455.759 243.087C456.018 243.241 456.077 243.537 455.892 243.748C455.605 244.081 455.326 244.426 455.056 244.78C454.944 244.922 454.763 245 454.57 245" fill="#2A0055"/>
<path fill-rule="evenodd" clip-rule="evenodd" d="M453.562 247C453.49 247 453.418 246.991 453.345 246.971C453.061 246.891 452.923 246.676 453.044 246.486C453.321 246.051 453.62 245.62 453.939 245.203C454.08 245.022 454.416 244.947 454.691 245.04C454.968 245.131 455.078 245.355 454.941 245.536C454.636 245.937 454.344 246.354 454.08 246.773C453.991 246.914 453.781 247 453.562 247" fill="#2A0055"/>
<path fill-rule="evenodd" clip-rule="evenodd" d="M452.36 253C452.34 253 452.318 252.997 452.296 252.99C452.1 252.938 451.971 252.663 452.006 252.374C452.089 251.713 452.184 251.049 452.29 250.407C452.336 250.122 452.53 249.947 452.724 250.015C452.917 250.083 453.036 250.368 452.99 250.653C452.887 251.279 452.794 251.924 452.715 252.566C452.684 252.822 452.532 253 452.36 253" fill="#2A0055"/>
<path fill-rule="evenodd" clip-rule="evenodd" d="M452.425 254C452.409 254 452.394 254 452.376 253.997C452.144 253.971 451.975 253.758 452.003 253.522C452.045 253.136 452.097 252.747 452.154 252.366C452.188 252.132 452.404 251.966 452.639 252.006C452.87 252.04 453.029 252.258 452.995 252.492C452.941 252.865 452.891 253.243 452.847 253.619C452.824 253.84 452.639 254 452.425 254" fill="#2A0055"/>
<path fill-rule="evenodd" clip-rule="evenodd" d="M435.973 298.452C435.77 297.82 435.599 297.181 435.46 296.539C434.447 291.834 434.738 284.897 440.194 282.937C440.593 282.794 444.839 281.781 444.915 282.174C444.915 282.174 443.207 273.289 452.118 273.765L453.357 269.768C454.95 264.634 461.16 262.353 465.733 265.314C465.799 265.357 465.865 265.403 465.931 265.446C469.595 267.961 470.73 272.77 468.567 276.599L465.618 281.819C465.618 281.819 474.009 277.092 477.398 283.753C480.789 290.417 468.748 293.636 468.748 293.636C468.748 293.636 477.178 294.959 473.006 302.942C471.055 306.676 465.518 308.26 461.693 309.098C456.303 310.278 450.246 310.484 444.993 308.597C440.432 306.96 437.4 302.877 435.973 298.452" fill="#78A9FF"/>
<path fill-rule="evenodd" clip-rule="evenodd" d="M458.021 310H431.684C424.149 301.183 434.871 290.692 434.871 290.692C428.673 281.178 438.359 278.287 438.359 278.287C437.804 278.453 437.698 269.806 437.811 269.026C438.188 266.452 438.833 263.691 440.849 262.087C448.195 256.245 450.763 275.686 451.206 279.404C460.461 285.224 452.166 290.803 452.166 290.803C465.362 294.219 460.558 305.5 458.021 310" fill="#78A9FF"/>
<path fill-rule="evenodd" clip-rule="evenodd" d="M432.334 309.098H458.308C459.95 306.134 462.261 300.76 460.464 296.452C459.329 293.727 456.677 291.81 452.581 290.751C452.412 290.707 452.284 290.565 452.255 290.388C452.224 290.214 452.3 290.037 452.446 289.938C452.479 289.917 455.723 287.695 455.678 284.755C455.647 282.843 454.238 280.998 451.494 279.274C451.379 279.204 451.303 279.083 451.286 278.945C450.839 275.203 449.059 262.851 444.903 261.098C443.894 260.673 442.816 260.936 441.604 261.896C439.705 263.405 439.079 266.112 438.719 268.562C438.6 269.374 438.731 276.344 439.086 277.403C439.164 277.461 439.229 277.543 439.257 277.645C439.326 277.884 439.193 278.133 438.96 278.206C438.957 278.206 438.957 278.206 438.957 278.206C438.919 278.215 435.133 279.385 434.012 282.516C433.267 284.593 433.835 287.095 435.699 289.953C435.818 290.134 435.792 290.376 435.637 290.526C435.611 290.552 432.971 293.156 431.284 296.775C429.094 301.475 429.449 305.619 432.334 309.098ZM458.567 310H432.131C432.003 310 431.879 309.942 431.796 309.845C428.58 306.086 428.128 301.427 430.494 296.369C431.955 293.243 434.035 290.908 434.764 290.144C432.89 287.156 432.36 284.487 433.178 282.202C434.207 279.344 437.039 277.973 438.203 277.519C438.07 276.956 437.939 275.79 437.853 273.257C437.782 271.175 437.777 268.873 437.844 268.429C438.229 265.803 438.912 262.892 441.057 261.188C442.523 260.022 443.932 259.713 445.241 260.267C449.654 262.126 451.522 273.554 452.141 278.624C455.042 280.49 456.53 282.55 456.563 284.745C456.601 287.245 454.742 289.201 453.669 290.12C457.558 291.297 460.117 293.306 461.281 296.101C463.273 300.878 460.676 306.717 458.953 309.773C458.872 309.913 458.727 310 458.567 310V310Z" fill="white"/>
<path fill-rule="evenodd" clip-rule="evenodd" d="M433.468 284C433.417 284 433.366 283.99 433.318 283.973C433.073 283.886 432.942 283.608 433.025 283.352C433.975 280.411 436.764 278.997 437.933 278.521C437.804 277.936 437.679 276.762 437.598 274.285C437.529 272.204 437.525 269.901 437.589 269.453C437.963 266.822 438.629 263.9 440.717 262.189C443.007 260.313 444.76 261.002 445.827 261.911C446.028 262.082 446.058 262.389 445.894 262.599C445.733 262.81 445.438 262.841 445.237 262.672C444.052 261.662 442.762 261.756 441.293 262.96C439.462 264.46 438.86 267.155 438.512 269.596C438.399 270.396 438.526 277.318 438.862 278.405C438.941 278.468 439.003 278.555 439.033 278.661C439.104 278.92 438.964 279.193 438.715 279.268C438.678 279.28 434.941 280.472 433.911 283.666C433.844 283.872 433.661 284 433.468 284" fill="white"/>
<path fill-rule="evenodd" clip-rule="evenodd" d="M446.486 310C446.215 310 445.989 309.8 445.973 309.54L443.001 261.516C442.986 261.246 443.201 261.018 443.486 261.001C443.765 260.984 444.011 261.191 444.029 261.458L446.999 309.485C447.017 309.752 446.801 309.983 446.517 310C446.506 310 446.496 310 446.486 310" fill="white"/>
<path fill-rule="evenodd" clip-rule="evenodd" d="M446.479 301C446.256 301 446.055 300.829 446.009 300.584C445.957 300.303 446.126 300.033 446.386 299.974L455.424 298.011C455.685 297.952 455.938 298.134 455.991 298.414C456.043 298.695 455.874 298.966 455.614 299.024L446.576 300.99C446.543 300.995 446.512 301 446.479 301" fill="white"/>
<path fill-rule="evenodd" clip-rule="evenodd" d="M445.543 292C445.418 292 445.296 291.946 445.205 291.839L440.122 285.841C439.95 285.638 439.961 285.321 440.147 285.133C440.333 284.945 440.622 284.958 440.797 285.161L445.878 291.159C446.05 291.362 446.039 291.678 445.853 291.866C445.765 291.955 445.654 292 445.543 292" fill="white"/>
<path fill-rule="evenodd" clip-rule="evenodd" d="M185 297H228V284H185V297Z" fill="#78A9FF"/>
<path fill-rule="evenodd" clip-rule="evenodd" d="M199 297H203V284H199V297Z" fill="white"/>
<path fill-rule="evenodd" clip-rule="evenodd" d="M213 297H221V284H213V297Z" fill="white"/>
<path fill-rule="evenodd" clip-rule="evenodd" d="M185 310H228V297H185V310Z" fill="#78A9FF"/>
<path fill-rule="evenodd" clip-rule="evenodd" d="M199 310H203V297H199V310Z" fill="white"/>
<path fill-rule="evenodd" clip-rule="evenodd" d="M213 310H221V297H213V310Z" fill="white"/>
<path fill-rule="evenodd" clip-rule="evenodd" d="M195 284H238V271H195V284Z" fill="#78A9FF"/>
<path fill-rule="evenodd" clip-rule="evenodd" d="M210 283H214V271H210V283Z" fill="white"/>
<path fill-rule="evenodd" clip-rule="evenodd" d="M224 284H232V271H224V284Z" fill="white"/>
<path fill-rule="evenodd" clip-rule="evenodd" d="M184.511 298H227.492C227.772 298 228 297.776 228 297.501C228 297.224 227.772 297 227.492 297H184.511C184.23 297 184 297.224 184 297.501C184 297.776 184.23 298 184.511 298" fill="#2A0055"/>
<path fill-rule="evenodd" clip-rule="evenodd" d="M195.508 284H238.489C238.772 284 239 283.776 239 283.499C239 283.224 238.772 283 238.489 283H195.508C195.228 283 195 283.224 195 283.499C195 283.776 195.228 284 195.508 284" fill="#2A0055"/>
<path fill-rule="evenodd" clip-rule="evenodd" d="M478 64H521V51H478V64Z" fill="#D85A5D"/>
<path fill-rule="evenodd" clip-rule="evenodd" d="M478 64H514V51H478V64Z" fill="#EB852C"/>
<path fill-rule="evenodd" clip-rule="evenodd" d="M478 64H521V51H478V64Z" fill="#78A9FF"/>
<path fill-rule="evenodd" clip-rule="evenodd" d="M502 64H506V51H502V64Z" fill="white"/>
<path fill-rule="evenodd" clip-rule="evenodd" d="M484 64H492V51H484V64Z" fill="white"/>
<path fill-rule="evenodd" clip-rule="evenodd" d="M478 77H521V64H478V77Z" fill="#D85A5D"/>
<path fill-rule="evenodd" clip-rule="evenodd" d="M478 77H514V64H478V77Z" fill="#EB852C"/>
<path fill-rule="evenodd" clip-rule="evenodd" d="M478 77H521V64H478V77Z" fill="#78A9FF"/>
<path fill-rule="evenodd" clip-rule="evenodd" d="M502 77H506V64H502V77Z" fill="white"/>
<path fill-rule="evenodd" clip-rule="evenodd" d="M484 77H492V64H484V77Z" fill="white"/>
<path fill-rule="evenodd" clip-rule="evenodd" d="M467 49H510V36H467V49Z" fill="#D85A5D"/>
<path fill-rule="evenodd" clip-rule="evenodd" d="M467 49H503V36H467V49Z" fill="#EB852C"/>
<path fill-rule="evenodd" clip-rule="evenodd" d="M467 49H510V36H467V49Z" fill="#78A9FF"/>
<path fill-rule="evenodd" clip-rule="evenodd" d="M492 49H496V36H492V49Z" fill="white"/>
<path fill-rule="evenodd" clip-rule="evenodd" d="M474 49H482V36H474V49Z" fill="white"/>
<path fill-rule="evenodd" clip-rule="evenodd" d="M520.489 65H477.511C477.23 65 477 64.7761 477 64.5C477 64.2239 477.23 64 477.511 64H520.489C520.77 64 521 64.2239 521 64.5C521 64.7761 520.77 65 520.489 65" fill="#2A0055"/>
<path fill-rule="evenodd" clip-rule="evenodd" d="M510.489 51H467.508C467.228 51 467 50.7761 467 50.5C467 50.2239 467.228 50 467.508 50H510.489C510.772 50 511 50.2239 511 50.5C511 50.7761 510.772 51 510.489 51" fill="#2A0055"/>
<path fill-rule="evenodd" clip-rule="evenodd" d="M594.189 108.99C600.269 120.14 596.16 134.108 585.01 140.188C573.861 146.269 559.892 142.16 553.812 131.011C547.73 119.861 551.841 105.893 562.991 99.8115C574.14 93.7308 588.106 97.8399 594.189 108.99" fill="#78A9FF"/>
<path fill-rule="evenodd" clip-rule="evenodd" d="M579.137 117.422C577.684 117.059 575.73 117.025 573.287 117.324C571.98 117.485 570.999 117.46 570.347 117.238C569.706 117.02 569.189 116.564 568.805 115.868C568.398 115.132 568.257 114.435 568.396 113.786C568.538 113.138 568.995 112.601 569.773 112.183C570.541 111.769 571.296 111.735 572.06 112.067C572.439 112.235 572.796 112.495 573.133 112.846C573.819 113.552 574.935 113.655 575.807 113.186L575.847 113.165C577.085 112.478 577.373 110.787 576.357 109.816C575.735 109.226 575.051 108.781 574.284 108.48C572.904 107.937 571.43 107.906 569.867 108.395L569.032 106.885C568.817 106.498 568.471 106.222 568.075 106.094C568.059 106.083 568.035 106.076 568.01 106.069C567.586 105.946 567.118 105.986 566.702 106.209C566.287 106.433 566 106.798 565.874 107.217C565.75 107.636 565.791 108.096 566.018 108.507L566.826 109.97C565.502 110.964 564.636 112.143 564.233 113.495C563.787 114.99 563.981 116.483 564.816 117.993C565.71 119.611 566.894 120.611 568.368 120.974C569.835 121.341 571.785 121.347 574.203 120.99C575.45 120.832 576.409 120.869 577.085 121.098C577.763 121.326 578.299 121.801 578.702 122.529C579.109 123.264 579.214 123.971 579.015 124.641C578.807 125.315 578.299 125.87 577.466 126.317C576.603 126.782 575.751 126.899 574.899 126.684C574.422 126.559 573.971 126.279 573.556 125.839C572.887 125.145 571.802 125.044 570.953 125.501L570.915 125.522C569.586 126.267 569.397 128.065 570.518 129.079C571.213 129.71 571.985 130.129 572.85 130.347C574.457 130.749 576.137 130.619 577.866 129.93L578.521 131.115C578.654 131.355 578.837 131.558 579.066 131.696C579.19 131.79 579.328 131.856 579.478 131.906C579.494 131.917 579.518 131.924 579.543 131.931C579.967 132.054 580.433 132.015 580.849 131.791C581.156 131.626 581.396 131.377 581.549 131.103C581.602 130.995 581.645 130.891 581.679 130.783C581.803 130.364 581.762 129.904 581.535 129.493L580.828 128.216C582.058 127.253 582.863 126.147 583.27 124.894C583.717 123.438 583.514 121.929 582.653 120.373C581.768 118.77 580.603 117.789 579.137 117.422" fill="white"/>
<path fill-rule="evenodd" clip-rule="evenodd" d="M442.293 132H378.707C378.316 132 378 131.552 378 131C378 130.448 378.316 130 378.707 130H442.293C442.684 130 443 130.448 443 131C443 131.552 442.684 132 442.293 132" fill="white"/>
<path fill-rule="evenodd" clip-rule="evenodd" d="M152.358 188.142L154.674 196.04L158 211H149.258L146.3 193.504L145 186.839L148.128 184L152.358 188.142" fill="#FFBFAA"/>
<path fill-rule="evenodd" clip-rule="evenodd" d="M136.008 247L135.583 249.681L134 252.929V259H145V247H136.008" fill="#0B1E57"/>
<path fill-rule="evenodd" clip-rule="evenodd" d="M144.055 256C142.922 256 142 255.103 142 254C142 252.897 142.922 252 144.055 252C144.261 252 144.464 252.032 144.66 252.088C144.9 252.16 145.033 252.405 144.957 252.633C144.882 252.861 144.626 252.99 144.386 252.918C144.279 252.886 144.168 252.868 144.055 252.868C143.424 252.868 142.911 253.376 142.911 254C142.911 254.624 143.424 255.132 144.055 255.132C144.173 255.132 144.29 255.114 144.401 255.08C144.64 255.003 144.898 255.128 144.977 255.356C145.056 255.582 144.926 255.828 144.687 255.903C144.483 255.968 144.27 256 144.055 256" fill="white"/>
<path fill-rule="evenodd" clip-rule="evenodd" d="M141.528 251H136.473C136.212 251 136 250.776 136 250.5C136 250.224 136.212 250 136.473 250H141.528C141.789 250 142 250.224 142 250.5C142 250.776 141.789 251 141.528 251" fill="white"/>
<path fill-rule="evenodd" clip-rule="evenodd" d="M141.528 253H136.473C136.212 253 136 252.776 136 252.5C136 252.224 136.212 252 136.473 252H141.528C141.789 252 142 252.224 142 252.5C142 252.776 141.789 253 141.528 253" fill="white"/>
<path fill-rule="evenodd" clip-rule="evenodd" d="M144.535 259C144.453 259 144.369 258.973 144.293 258.921L141.559 257.027C140.635 256.386 139.577 256.048 138.5 256.048C136.651 256.048 134.875 257.068 133.751 258.779L133 258.162L133.006 258.154C134.304 256.179 136.358 255 138.5 255C139.748 255 140.974 255.393 142.045 256.135L144.779 258.029C144.997 258.179 145.065 258.503 144.931 258.749C144.844 258.91 144.692 259 144.535 259" fill="white"/>
<path fill-rule="evenodd" clip-rule="evenodd" d="M153 210.401L151.345 206.613L139.486 204L132.198 206.026L131.516 207.562C129.666 211.73 129.502 216.501 131.062 220.796C131.771 222.748 133.371 224.19 135.317 224.635C136.377 224.877 137.459 225 138.544 225H153V210.401" fill="#78A9FF"/>
<path fill-rule="evenodd" clip-rule="evenodd" d="M134 223H160V209H134V223Z" fill="#78A9FF"/>
<path fill-rule="evenodd" clip-rule="evenodd" d="M171.194 247.334L176.134 251.749L182 255.513V260H164V246L171.194 247.334" fill="#0B1E57"/>
<path fill-rule="evenodd" clip-rule="evenodd" d="M132.245 170.261C132.245 170.261 126.999 166.022 124.925 173.088C125.046 172.66 121.969 172.139 121.621 172.135C119.622 172.109 117.811 173.381 116.764 175.119C115.414 177.357 113.741 181.973 116.446 183.894C116.752 184.112 119.125 184.453 119.069 184.29C119.069 184.29 121.509 191.304 129.195 186.043C129.195 186.043 136.989 186.352 136.081 181.313C136.081 181.313 139.81 171.764 132.245 170.261" fill="#FF5C5C"/>
<path fill-rule="evenodd" clip-rule="evenodd" d="M132.245 170.261C132.245 170.261 126.999 166.022 124.925 173.088C125.046 172.66 121.969 172.139 121.621 172.135C119.622 172.109 117.811 173.381 116.764 175.119C115.414 177.357 113.741 181.973 116.446 183.894C116.752 184.112 119.125 184.453 119.069 184.29C119.069 184.29 121.509 191.304 129.195 186.043C129.195 186.043 136.989 186.352 136.081 181.313C136.081 181.313 139.81 171.764 132.245 170.261" fill="#0B1E57"/>
<path fill-rule="evenodd" clip-rule="evenodd" d="M142.48 173.065C142.835 173.029 143.19 173.009 143.546 173.002C146.235 172.955 149.439 173.591 151.107 176.157C152.102 177.689 152.356 179.983 151.403 181.614C150.361 183.397 148.178 183.857 146.395 183.972C142.126 184.249 137.973 182.46 135.016 179.062C134.756 178.762 134.116 178.197 134.019 177.781C133.805 176.859 135.431 175.887 136.143 175.395C138.046 174.08 140.242 173.286 142.48 173.065" fill="#0B1E57"/>
<path fill-rule="evenodd" clip-rule="evenodd" d="M130.426 209L151 206.006L149.142 195.981L148.212 194.713C149.812 192.681 150.684 190.149 150.684 187.537V186.324C150.684 184.366 150.269 182.432 149.467 180.655V180.655C148.736 179.036 147.155 178 145.416 178H127.465C124.791 178 122.717 180.394 123.032 183.117L130.426 209" fill="#1063FE"/>
<path fill-rule="evenodd" clip-rule="evenodd" d="M134 180.618L143 188L141.045 180.618V170H134V180.618" fill="white"/>
<path fill-rule="evenodd" clip-rule="evenodd" d="M134 177H141V165H134V177Z" fill="#FFBFAA"/>
<path fill-rule="evenodd" clip-rule="evenodd" d="M140.516 181H133.484C133.217 181 133 180.776 133 180.5C133 180.224 133.217 180 133.484 180H140.516C140.783 180 141 180.224 141 180.5C141 180.776 140.783 181 140.516 181" fill="#2A0055"/>
<path fill-rule="evenodd" clip-rule="evenodd" d="M133 164.268V166.992C133 171.415 136.44 175 140.684 175C143.62 175 146 172.519 146 169.46V165.357C146 161.847 143.27 159 139.9 159H138.055C135.263 159 133 161.359 133 164.268" fill="#FFBFAA"/>
<path fill-rule="evenodd" clip-rule="evenodd" d="M140.564 176C139.404 176 138.288 175.678 137.246 175.043C137.029 174.911 136.939 174.582 137.044 174.31C137.149 174.037 137.409 173.923 137.626 174.055C138.548 174.618 139.537 174.903 140.564 174.903C140.805 174.903 141 175.148 141 175.451C141 175.754 140.805 176 140.564 176" fill="#2A0055"/>
<path fill-rule="evenodd" clip-rule="evenodd" d="M131 164.44C131 164.44 131 170 131 170C136.291 168 139.335 165.305 140.427 162.004C141.591 164.491 143.923 165.885 147 166.583C147 166.583 147 165.757 147 165.756C147 162.517 144.962 159.928 142.076 158.768C139.275 157.641 135.294 157.574 132.97 159.798C131.721 160.993 131 162.691 131 164.44" fill="#0B1E57"/>
<path fill-rule="evenodd" clip-rule="evenodd" d="M134 159C134 161.209 135.791 163 138 163C140.209 163 142 161.209 142 159C142 156.791 140.209 155 138 155C135.791 155 134 156.791 134 159" fill="#0B1E57"/>
<path fill-rule="evenodd" clip-rule="evenodd" d="M133.479 161C133.347 161 133.216 160.938 133.121 160.817C132.945 160.591 132.963 160.246 133.161 160.046C135.54 157.638 139.108 157.681 141.655 158.524C141.909 158.608 142.055 158.911 141.981 159.2C141.907 159.49 141.641 159.656 141.387 159.572C139.192 158.845 135.887 158.747 133.797 160.862C133.706 160.955 133.592 161 133.479 161" fill="white"/>
<path fill-rule="evenodd" clip-rule="evenodd" d="M144.485 192L154 189.343C153.508 187.914 152.94 186.49 152.506 185.05C151.891 183.005 151.196 180.696 149.386 179.349C147.737 178.122 145.575 177.691 143.568 178.226L142 178.645L144.485 192" fill="#1063FE"/>
<path fill-rule="evenodd" clip-rule="evenodd" d="M127.467 191C127.427 191 127.386 190.996 127.345 190.986C127.096 190.931 126.949 190.72 127.016 190.516L128.082 187.284C128.15 187.079 128.406 186.958 128.655 187.014C128.904 187.069 129.051 187.28 128.984 187.484L127.918 190.717C127.861 190.887 127.673 191 127.467 191" fill="white"/>
<path fill-rule="evenodd" clip-rule="evenodd" d="M133 171V171C134.105 171 135 170.05 135 168.877V168.123C135 166.95 134.105 166 133 166C131.895 166 131 166.95 131 168.123V168.877C131 170.05 131.895 171 133 171" fill="#FFBFAA"/>
<path fill-rule="evenodd" clip-rule="evenodd" d="M134.395 170C134.225 170 134.057 169.935 133.937 169.808L132.147 167.915C131.929 167.684 131.957 167.334 132.209 167.135C132.462 166.935 132.844 166.96 133.063 167.192L134.853 169.085C135.071 169.316 135.044 169.665 134.79 169.865C134.676 169.956 134.535 170 134.395 170" fill="#2A0055"/>
<path opacity="0.486491" fill-rule="evenodd" clip-rule="evenodd" d="M127.439 175C127.129 175 126.878 174.79 126.878 174.53C126.878 173.846 126.001 173.249 125.266 172.869C125.003 172.733 124.921 172.443 125.084 172.223C125.246 172.002 125.592 171.934 125.856 172.07C127.259 172.795 128 173.646 128 174.53C128 174.79 127.749 175 127.439 175" fill="#1063FE"/>
<path fill-rule="evenodd" clip-rule="evenodd" d="M167.999 253.868C167.387 253.868 166.887 254.375 166.887 254.999C166.887 255.625 167.387 256.132 167.999 256.132C168.614 256.132 169.113 255.625 169.113 254.999C169.113 254.375 168.614 253.868 167.999 253.868ZM167.999 257C166.897 257 166 256.102 166 254.999C166 253.898 166.897 253 167.999 253C169.104 253 170 253.898 170 254.999C170 256.102 169.104 257 167.999 257V257Z" fill="white"/>
<path fill-rule="evenodd" clip-rule="evenodd" d="M178.586 253H173.416C173.187 253 173 252.776 173 252.5C173 252.224 173.187 252 173.416 252H178.586C178.816 252 179 252.224 179 252.5C179 252.776 178.816 253 178.586 253" fill="white"/>
<path fill-rule="evenodd" clip-rule="evenodd" d="M175.584 251H170.416C170.187 251 170 250.776 170 250.5C170 250.224 170.187 250 170.416 250H175.584C175.813 250 176 250.224 176 250.5C176 250.776 175.813 251 175.584 251" fill="white"/>
<path fill-rule="evenodd" clip-rule="evenodd" d="M146.643 193C144.714 193 143.359 192.347 143.269 192.303C143.037 192.188 142.936 191.894 143.043 191.645C143.149 191.397 143.423 191.288 143.655 191.402C143.687 191.417 146.883 192.94 150.328 191.054C150.555 190.93 150.834 191.027 150.949 191.271C151.065 191.514 150.975 191.813 150.748 191.937C149.268 192.747 147.845 193 146.643 193" fill="white"/>
<path fill-rule="evenodd" clip-rule="evenodd" d="M174 247H162.517L147 224.487L159.357 218L170.206 239.484L174 247" fill="#78A9FF"/>
<path fill-rule="evenodd" clip-rule="evenodd" d="M158 232.11L152.032 240.191L150.772 241.894L148.884 244.452L146.262 248H135L137.867 241.894L138.667 240.191L146.738 223L158 232.11" fill="#78A9FF"/>
<path fill-rule="evenodd" clip-rule="evenodd" d="M132.425 215C132.261 215 132.105 214.878 132.036 214.673C131.942 214.396 132.04 214.075 132.254 213.952L137.405 211.045C137.62 210.926 137.87 211.051 137.964 211.327C138.058 211.603 137.961 211.928 137.746 212.047L132.595 214.954C132.539 214.986 132.481 215 132.425 215" fill="white"/>
<path fill-rule="evenodd" clip-rule="evenodd" d="M151.259 235C149.731 235 148.191 234.514 146.878 233.509C143.68 231.059 143.052 226.453 145.474 223.22L153.945 211.911C156.367 208.676 160.924 208.041 164.122 210.491C167.32 212.939 167.948 217.547 165.526 220.78L157.055 232.089C155.626 233.994 153.455 235 151.259 235" fill="#78A9FF"/>
<path fill-rule="evenodd" clip-rule="evenodd" d="M123.864 210C122.75 210 121.655 209.622 120.774 208.901C119.564 207.916 118.907 206.409 119.011 204.858L120.004 190L129.711 190.638L129.166 198.788L143.704 198.285L151 203.003L125.116 209.838C124.703 209.947 124.282 210 123.864 210" fill="#FFBFAA"/>
<path fill-rule="evenodd" clip-rule="evenodd" d="M128.034 178H125.733C122.767 178 120.285 180.348 119.995 183.428L119 194H131L128.034 178" fill="#1063FE"/>
<path fill-rule="evenodd" clip-rule="evenodd" d="M163.835 203H145L153.165 182H172L163.835 203" fill="white"/>
<path fill-rule="evenodd" clip-rule="evenodd" d="M164.345 204H158.669C158.415 204 158.21 203.795 158.21 203.543C158.21 203.291 158.415 203.086 158.669 203.086H164.029L171.869 182.914H153.951L152.889 185.645C152.798 185.881 152.531 185.998 152.295 185.907C152.057 185.816 151.939 185.552 152.031 185.316L153.206 182.292C153.275 182.116 153.445 182 153.635 182H172.54C172.691 182 172.832 182.074 172.919 182.198C173.005 182.323 173.024 182.481 172.969 182.621L164.774 203.707C164.705 203.883 164.535 204 164.345 204" fill="#78A9FF"/>
<path fill-rule="evenodd" clip-rule="evenodd" d="M148.297 196H152.071C153.252 196 154.155 197.044 153.978 198.206L153.19 203.372C153.054 204.266 152.31 204.944 151.404 205L144.055 204.532L143 198.039C143 198.039 146.367 196 148.297 196" fill="#FFBFAA"/>
<path fill-rule="evenodd" clip-rule="evenodd" d="M162.531 225C162.346 225 162.171 224.894 162.097 224.716L158.742 216.697C157.779 214.396 155.544 212.908 153.048 212.908H148.469C148.21 212.908 148 212.705 148 212.454C148 212.203 148.21 212 148.469 212H153.048C155.927 212 158.503 213.71 159.61 216.354L162.966 224.376C163.063 224.607 162.947 224.872 162.707 224.967C162.65 224.988 162.59 225 162.531 225" fill="white"/>
<path fill-rule="evenodd" clip-rule="evenodd" d="M155.561 239C155.421 239 155.284 238.925 155.199 238.786L149.078 228.776C148.94 228.551 148.99 228.242 149.19 228.087C149.39 227.932 149.663 227.989 149.801 228.214L155.922 238.224C156.06 238.448 156.01 238.758 155.81 238.912C155.734 238.972 155.647 239 155.561 239" fill="white"/>
<path fill-rule="evenodd" clip-rule="evenodd" d="M131.084 194H128.544C128.243 194 128 193.78 128 193.509C128 193.237 128.243 193.018 128.544 193.018H130.588L130.816 190.769C131.061 188.359 130.835 185.953 130.145 183.618C130.068 183.356 130.24 183.087 130.53 183.017C130.82 182.946 131.119 183.103 131.196 183.365C131.919 185.812 132.156 188.333 131.9 190.858L131.626 193.554C131.601 193.806 131.366 194 131.084 194" fill="white"/>
<path fill-rule="evenodd" clip-rule="evenodd" d="M126.491 199C126.246 199 126.035 198.864 126.004 198.681C125.97 198.483 126.162 198.302 126.431 198.278L129.448 198.003C129.717 197.978 129.963 198.12 129.996 198.318C130.03 198.516 129.838 198.696 129.569 198.721L126.552 198.996C126.532 198.998 126.511 199 126.491 199" fill="#2A0055"/>
<path fill-rule="evenodd" clip-rule="evenodd" d="M137.173 193C135.418 193 134.017 192.534 133.288 192.228C133.045 192.126 132.934 191.854 133.041 191.621C133.148 191.389 133.433 191.283 133.676 191.385C135.121 191.991 138.032 192.754 141.287 191.057C141.521 190.934 141.813 191.017 141.941 191.24C142.069 191.463 141.982 191.743 141.749 191.865C140.11 192.719 138.535 193 137.173 193" fill="white"/>
<path fill-rule="evenodd" clip-rule="evenodd" d="M155.941 199H153.899L153 196H155.941C156.526 196 157 196.671 157 197.499C157 198.327 156.526 199 155.941 199" fill="#FFBFAA"/>
<path fill-rule="evenodd" clip-rule="evenodd" d="M154.634 200H152V197H154.634C155.388 197 156 197.671 156 198.499C156 199.329 155.388 200 154.634 200" fill="#FFBFAA"/>
<path fill-rule="evenodd" clip-rule="evenodd" d="M154.634 203H152V200H154.634C155.388 200 156 200.671 156 201.499C156 202.327 155.388 203 154.634 203" fill="#FFBFAA"/>
<path fill-rule="evenodd" clip-rule="evenodd" d="M154.735 202.612C154.902 202.86 155 203.166 155 203.499C155 204.327 154.388 205 153.634 205H151V202H153.634C154.086 202 154.486 202.239 154.735 202.612" fill="#FFBFAA"/>
<path fill-rule="evenodd" clip-rule="evenodd" d="M150.491 206C150.238 206 150.023 205.842 150.002 205.634C149.979 205.414 150.181 205.222 150.451 205.203L153.468 205.002C153.738 204.981 153.976 205.147 153.998 205.366C154.021 205.586 153.819 205.78 153.549 205.796L150.532 206C150.518 206 150.505 206 150.491 206" fill="#2A0055"/>
<path fill-rule="evenodd" clip-rule="evenodd" d="M154.607 206C154.393 206 154.194 205.843 154.127 205.6C154.045 205.297 154.193 204.98 154.458 204.885C154.774 204.775 154.995 204.423 154.995 204.031C154.995 203.542 154.659 203.142 154.245 203.139H152.502C152.224 203.139 152 202.884 152 202.566C152 202.255 152.225 202 152.502 202C152.503 202 152.503 202 152.503 202H154.246C155.214 202.003 156 202.913 156 204.031C156 204.933 155.5 205.712 154.756 205.973C154.707 205.991 154.656 206 154.607 206" fill="#2A0055"/>
<path fill-rule="evenodd" clip-rule="evenodd" d="M145 196L147.079 193.144C147.495 192.573 148.1 192.181 148.779 192.044L149 192L148.222 195.406L145 196" fill="#FFBFAA"/>
<path fill-rule="evenodd" clip-rule="evenodd" d="M158.547 238C158.399 238 158.253 237.925 158.166 237.788L151.12 226.701C149.628 224.352 147.131 222.95 144.441 222.95H141.482C139.69 222.95 137.94 222.592 136.279 221.887C136.048 221.789 135.939 221.519 136.035 221.284C136.132 221.048 136.397 220.937 136.628 221.036C138.178 221.695 139.811 222.027 141.482 222.027H144.441C147.44 222.027 150.221 223.587 151.881 226.199L158.927 237.286C159.063 237.5 159.003 237.786 158.793 237.925C158.717 237.976 158.632 238 158.547 238" fill="#2A0055"/>
<path fill-rule="evenodd" clip-rule="evenodd" d="M102 48C102 61.2549 91.2549 72 78.0001 72C64.7451 72 54 61.2549 54 48C54 34.7453 64.7451 24 78.0001 24C91.2549 24 102 34.7453 102 48" fill="#E4E8EB"/>
<path fill-rule="evenodd" clip-rule="evenodd" d="M91 74H10C12.0519 69.6262 16.4649 66.5988 21.5751 66.5988C21.7408 66.5988 21.902 66.6031 22.0632 66.612C24.7858 62.6957 29.2861 60.1391 34.3832 60.1391C35.0629 60.1391 35.7336 60.1832 36.3872 60.2757C39.6023 52.4783 47.2175 47 56.1003 47C64.9354 47 72.5112 52.4166 75.7567 60.1437C75.8439 60.1391 75.931 60.1391 76.0182 60.1391C83.8815 60.1391 90.3336 66.2334 91 74" fill="#E4E8EB"/>
<path fill-rule="evenodd" clip-rule="evenodd" d="M11.4338 72.9073H90.8542C89.9367 65.7274 83.7401 60.1868 76.4916 60.1868C76.4125 60.1868 76.3358 60.1866 76.2577 60.1904C76.0309 60.2022 75.8202 60.0695 75.7313 59.8583C72.4661 52.1036 64.9545 47.0927 56.5944 47.0927C48.1732 47.0927 40.6399 52.1537 37.4025 59.9864C37.3077 60.2159 37.0727 60.3534 36.8266 60.3174C36.2124 60.2308 35.564 60.1868 34.9 60.1868C30.185 60.1868 25.7499 62.5114 23.0364 66.4049C22.9289 66.5592 22.747 66.648 22.5636 66.6365C22.4121 66.6283 22.2609 66.6242 22.1053 66.6242C17.6886 66.6242 13.5905 69.0635 11.4338 72.9073ZM91.4577 74H10.5423C10.3565 74 10.1833 73.904 10.084 73.7458C9.98469 73.5874 9.97254 73.389 10.0523 73.2195C12.2486 68.5492 16.9797 65.5315 22.1053 65.5315C22.1782 65.5315 22.2504 65.5322 22.3218 65.5339C25.2517 61.496 29.9311 59.0941 34.9 59.0941C35.4676 59.0941 36.0254 59.1241 36.5639 59.1834C40.0547 51.1604 47.8719 46 56.5944 46C65.2686 46 73.0752 51.1275 76.5842 59.0944C80.4711 59.1172 84.1804 60.5886 87.0381 63.2427C89.9015 65.9021 91.663 69.5116 91.9979 73.4065C92.0113 73.5589 91.96 73.7101 91.8574 73.8229C91.7547 73.9357 91.6097 74 91.4577 74V74Z" fill="white"/>
<path fill-rule="evenodd" clip-rule="evenodd" d="M232.281 222H216.719C216.321 222 216 221.553 216 221C216 220.447 216.321 220 216.719 220H232.281C232.676 220 233 220.447 233 221C233 221.553 232.676 222 232.281 222" fill="white"/>
<path fill-rule="evenodd" clip-rule="evenodd" d="M497.312 95H476.69C476.31 95 476 94.5521 476 93.9998C476 93.4476 476.31 93 476.69 93H497.312C497.693 93 498 93.4476 498 93.9998C498 94.5521 497.693 95 497.312 95" fill="white"/>
</svg>
