<svg width="424" height="600" viewBox="0 0 424 600" fill="none" xmlns="http://www.w3.org/2000/svg">
<rect width="424" height="600" fill="#DF7588"/>
<mask id="mask0" mask-type="alpha" maskUnits="userSpaceOnUse" x="0" y="0" width="424" height="600">
<rect width="424" height="600" fill="white"/>
</mask>
<g mask="url(#mask0)">
<path fill-rule="evenodd" clip-rule="evenodd" d="M-45.8477 -172.696L-31.3584 -188.747L482.344 272.996L467.855 289.048L-45.8477 -172.696Z" fill="#FF8362"/>
<path opacity="0.206822" fill-rule="evenodd" clip-rule="evenodd" d="M-55.3516 38.5063L2.98907 -26.1622L626.255 534.009L567.914 598.678L-55.3516 38.5063Z" fill="#8161AE"/>
<path fill-rule="evenodd" clip-rule="evenodd" d="M-340.539 238.973L-247.2 135.497L261.189 592.361L167.85 695.837L-340.539 238.973Z" fill="#6A5CB7"/>
<path opacity="0.836937" fill-rule="evenodd" clip-rule="evenodd" d="M-505.618 255.493L-420.187 164.025L115.685 648.662L30.2545 740.129L-505.618 255.493Z" fill="#16C7B5"/>
<path fill-rule="evenodd" clip-rule="evenodd" d="M32.1094 -247.777L85.2246 -306.657L508.196 73.4778L455.08 132.358L32.1094 -247.777Z" fill="#FF9F02"/>
<path opacity="0.582241" fill-rule="evenodd" clip-rule="evenodd" d="M-92.4034 -246.434L-6.97247 -337.902L528.9 146.735L443.469 238.202L-92.4034 -246.434Z" fill="#FF9036"/>
<path opacity="0.666527" fill-rule="evenodd" clip-rule="evenodd" d="M-355.654 148.611L-245.51 30.65L445.372 655.653L335.228 773.614L-355.654 148.611Z" fill="#C16E95"/>
</g>
</svg>
