<svg width="510" height="325" viewBox="0 0 510 325" fill="none" xmlns="http://www.w3.org/2000/svg">
<path fill-rule="evenodd" clip-rule="evenodd" d="M319.841 205.29L295.931 192.779L336.483 184.617L319.841 205.29Z" fill="#CFE4FF"/>
<path fill-rule="evenodd" clip-rule="evenodd" d="M298.154 193.096L319.644 204.343L334.599 185.76L298.154 193.096ZM319.841 206.042C319.724 206.042 319.604 206.012 319.494 205.954L295.584 193.443C295.304 193.295 295.144 192.987 295.189 192.673C295.234 192.359 295.474 192.107 295.783 192.044L336.335 183.882C336.643 183.822 336.96 183.958 337.122 184.228C337.287 184.498 337.265 184.841 337.067 185.087L320.426 205.762C320.278 205.942 320.061 206.042 319.841 206.042Z" fill="#72ACFF"/>
<path fill-rule="evenodd" clip-rule="evenodd" d="M336.483 184.617L331.145 223.495L319.841 205.29L336.483 184.617Z" fill="#CFE4FF"/>
<path fill-rule="evenodd" clip-rule="evenodd" d="M320.758 205.347L330.685 221.334L335.373 187.191L320.758 205.347ZM331.144 224.244C330.89 224.244 330.647 224.114 330.507 223.89L319.204 205.687C319.037 205.417 319.057 205.07 319.257 204.823L335.898 184.147C336.11 183.885 336.47 183.796 336.78 183.929C337.087 184.062 337.269 184.385 337.224 184.719L331.886 223.597C331.844 223.91 331.609 224.162 331.302 224.227C331.249 224.239 331.197 224.244 331.144 224.244Z" fill="#72ACFF"/>
<path fill-rule="evenodd" clip-rule="evenodd" d="M331.144 223.495L308.298 214.312L295.931 192.779L319.841 205.29L331.144 223.495Z" fill="#CFE4FF"/>
<path fill-rule="evenodd" clip-rule="evenodd" d="M308.82 213.715L329.301 221.946L319.312 205.859L297.862 194.635L308.82 213.715ZM331.145 224.244C331.052 224.244 330.957 224.227 330.865 224.189L308.018 215.009C307.864 214.947 307.734 214.832 307.649 214.687L295.281 193.152C295.116 192.863 295.161 192.499 295.391 192.259C295.624 192.019 295.983 191.96 296.278 192.115L320.188 204.628C320.308 204.69 320.406 204.783 320.478 204.895L331.782 223.1C331.951 223.375 331.926 223.73 331.719 223.977C331.574 224.149 331.362 224.244 331.145 224.244Z" fill="#72ACFF"/>
<path fill-rule="evenodd" clip-rule="evenodd" d="M320.039 206.242L295.584 193.443C295.216 193.251 295.077 192.798 295.269 192.431C295.459 192.065 295.913 191.923 296.278 192.115L319.644 204.343L335.898 184.147C336.158 183.825 336.63 183.774 336.952 184.033C337.275 184.293 337.325 184.765 337.067 185.087L320.039 206.242Z" fill="white"/>
<path fill-rule="evenodd" clip-rule="evenodd" d="M331.145 224.244C330.895 224.244 330.65 224.119 330.508 223.89L319.204 205.687C318.987 205.335 319.094 204.873 319.447 204.655C319.799 204.435 320.258 204.545 320.478 204.895L331.782 223.1C331.999 223.452 331.891 223.912 331.539 224.132C331.417 224.207 331.279 224.244 331.145 224.244Z" fill="white"/>
<path fill-rule="evenodd" clip-rule="evenodd" d="M356.449 185.157C356.421 185.157 356.396 185.156 356.369 185.153L343.224 183.784C342.812 183.741 342.513 183.373 342.555 182.961C342.597 182.549 342.97 182.247 343.379 182.294L356.526 183.663C356.936 183.705 357.236 184.074 357.193 184.486C357.153 184.871 356.828 185.157 356.449 185.157Z" fill="#CFE4FF"/>
<path fill-rule="evenodd" clip-rule="evenodd" d="M336.095 176.725C336.07 176.725 336.043 176.724 336.018 176.721C335.606 176.678 335.306 176.31 335.348 175.898L336.213 167.598C336.258 167.186 336.627 166.884 337.037 166.931C337.449 166.973 337.747 167.342 337.704 167.753L336.84 176.053C336.8 176.439 336.475 176.725 336.095 176.725Z" fill="#CFE4FF"/>
<path fill-rule="evenodd" clip-rule="evenodd" d="M49.078 142.686L44.4376 157.022L21.2056 161.33L25.846 146.993L49.078 142.686Z" fill="#CFE4FF"/>
<path fill-rule="evenodd" clip-rule="evenodd" d="M25.8461 146.993L21.2056 161.33L14.1509 140.379L18.7916 126.042L25.8461 146.993Z" fill="#CFE4FF"/>
<path fill-rule="evenodd" clip-rule="evenodd" d="M18.7917 126.043L42.0235 121.736L49.0783 142.686L25.8462 146.993L18.7917 126.043Z" fill="#CFE4FF"/>
<path fill-rule="evenodd" clip-rule="evenodd" d="M25.4272 147.706L18.1996 126.242C18.0894 125.915 18.2653 125.561 18.5923 125.451C18.919 125.34 19.2732 125.516 19.3834 125.843L26.265 146.281L48.9642 142.072C49.3024 142.009 49.6292 142.233 49.6921 142.572C49.7551 142.911 49.531 143.237 49.1918 143.3L25.4272 147.706Z" fill="white"/>
<path fill-rule="evenodd" clip-rule="evenodd" d="M21.2056 161.954C21.1419 161.954 21.0769 161.944 21.0132 161.924C20.685 161.818 20.5051 161.466 20.6113 161.137L25.2518 146.801C25.3579 146.473 25.7096 146.292 26.0384 146.399C26.3664 146.505 26.5462 146.857 26.44 147.185L21.7996 161.522C21.7142 161.786 21.4691 161.954 21.2056 161.954Z" fill="white"/>
<path fill-rule="evenodd" clip-rule="evenodd" d="M12.8389 126.871C12.7987 126.871 12.758 126.867 12.717 126.859L4.54071 125.239C4.20223 125.172 3.98241 124.843 4.04936 124.505C4.11655 124.166 4.44503 123.946 4.78326 124.013L12.9596 125.634C13.2981 125.701 13.5179 126.03 13.4509 126.368C13.392 126.665 13.1309 126.871 12.8389 126.871Z" fill="#CFE4FF"/>
<path fill-rule="evenodd" clip-rule="evenodd" d="M18.5552 120.847C18.543 120.847 18.531 120.847 18.5185 120.846C18.1743 120.826 17.9113 120.531 17.9312 120.186L18.24 114.857C18.2597 114.512 18.5542 114.247 18.8995 114.269C19.2439 114.289 19.5067 114.585 19.4867 114.929L19.178 120.259C19.159 120.59 18.8837 120.847 18.5552 120.847Z" fill="#CFE4FF"/>
<path fill-rule="evenodd" clip-rule="evenodd" d="M141.194 45.9831C141.194 58.8229 130.785 69.2316 117.945 69.2316C105.106 69.2316 94.697 58.8229 94.697 45.9831C94.697 33.1434 105.106 22.7346 117.945 22.7346C130.785 22.7346 141.194 33.1434 141.194 45.9831Z" fill="#CFE4FF"/>
<path fill-rule="evenodd" clip-rule="evenodd" d="M117.945 5.0065C95.3509 5.0065 76.9687 23.3885 76.9687 45.9833C76.9687 68.5781 95.3509 86.9603 117.945 86.9603C140.54 86.9603 158.922 68.5781 158.922 45.9833C158.922 23.3885 140.54 5.0065 117.945 5.0065ZM117.945 89.4583C93.9735 89.4583 74.4707 69.9554 74.4707 45.9833C74.4707 22.0111 93.9735 2.50854 117.945 2.50854C141.918 2.50854 161.42 22.0111 161.42 45.9833C161.42 69.9554 141.918 89.4583 117.945 89.4583Z" fill="#CFE4FF"/>
<path fill-rule="evenodd" clip-rule="evenodd" d="M206.599 264.884H281.29V232.518H206.599V264.884Z" fill="#CFE4FF"/>
<path fill-rule="evenodd" clip-rule="evenodd" d="M230.13 244.225H303.575V213.103H230.13V244.225ZM228.883 245.469H304.819V211.857H228.883V245.469Z" fill="#72ACFF"/>
<path fill-rule="evenodd" clip-rule="evenodd" d="M393.526 158.193H371.506V243.234H467.998V158.193H393.526Z" fill="#CFE4FF"/>
<path fill-rule="evenodd" clip-rule="evenodd" d="M387.783 25.6418H363.321V120.132H470.533V25.6418H387.783Z" fill="#CFE4FF"/>
<path fill-rule="evenodd" clip-rule="evenodd" d="M177.425 18.6023H157.351V96.1372H245.327V18.6023H177.425Z" fill="#CFE4FF"/>
<path fill-rule="evenodd" clip-rule="evenodd" d="M142.408 268.386L151.478 286.001H174.591L163.117 262.276L142.408 268.386Z" fill="#FFBFAA"/>
<path fill-rule="evenodd" clip-rule="evenodd" d="M148.588 279.544L150.994 302.565L190.557 302.668L185.884 293.263L174.006 284.153L174.38 275.303L165.839 275.278L162.112 281.438L148.588 279.544Z" fill="#001E57"/>
<path fill-rule="evenodd" clip-rule="evenodd" d="M188.346 299.218C188.344 299.218 188.344 299.218 188.344 299.218L162.404 299.151C162.134 299.148 161.876 299.041 161.687 298.848C161.497 298.656 161.393 298.394 161.397 298.124C161.397 298.106 161.384 295.693 159.43 293.725C157.644 291.926 154.816 291.01 151.025 290.997C150.467 290.997 150.016 290.543 150.018 289.986C150.019 289.429 150.471 288.979 151.028 288.979C151.029 288.979 151.03 288.979 151.03 288.979C155.402 288.991 158.722 290.12 160.898 292.336C162.575 294.045 163.137 295.978 163.324 297.132L188.349 297.197C188.906 297.2 189.358 297.652 189.355 298.211C189.353 298.768 188.903 299.218 188.346 299.218Z" fill="white"/>
<path fill-rule="evenodd" clip-rule="evenodd" d="M176.854 288.374C176.853 288.374 176.852 288.374 176.851 288.374L170.723 288.357C170.165 288.354 169.714 287.902 169.716 287.343C169.718 286.788 170.169 286.336 170.726 286.336C170.727 286.336 170.728 286.336 170.729 286.336L176.857 286.354C177.415 286.356 177.866 286.811 177.864 287.368C177.863 287.925 177.411 288.374 176.854 288.374Z" fill="white"/>
<path fill-rule="evenodd" clip-rule="evenodd" d="M127.587 269.697L125.884 285.559H107.449L107.788 266.173L127.587 269.697Z" fill="#FFBFAA"/>
<path fill-rule="evenodd" clip-rule="evenodd" d="M100.306 112.26L97.5234 115.528C93.9846 120.066 92.4893 125.989 93.4223 131.771L96.7261 159.574C97.093 162.663 99.2193 165.204 102.091 165.986L138.391 175.588L140.611 158.59L115.032 147.934L115.016 130.741C115.008 121.662 108.818 113.886 100.306 112.26Z" fill="#001E57"/>
<path fill-rule="evenodd" clip-rule="evenodd" d="M115.489 188.253L88.2778 226.05H109.278L104.441 271.793H141.037L153.824 204.353C154.772 199.355 151.442 194.574 146.616 194.003L115.489 188.253Z" fill="#72ACFF"/>
<path fill-rule="evenodd" clip-rule="evenodd" d="M70.1426 110.336C78.8567 123.28 86.0556 137.332 87.1429 151.685C92.3329 133.608 88.1646 118.442 86.1917 110.386L81.3712 109.109L70.1426 110.336Z" fill="white"/>
<path fill-rule="evenodd" clip-rule="evenodd" d="M57.7848 112.961L52.0547 187.112L105.393 185.891L102.879 112.961L89.1556 110.386L86.0749 109.563C88.0478 117.62 92.333 133.608 87.143 151.685C86.0557 137.332 78.8568 123.28 70.1427 110.336L57.7848 112.961Z" fill="#001E57"/>
<path fill-rule="evenodd" clip-rule="evenodd" d="M70.1427 110.336L83.8647 125.794L86.1918 110.386L82.1964 82.2968H67.5381L70.1427 110.336Z" fill="#FFBFAA"/>
<path fill-rule="evenodd" clip-rule="evenodd" d="M99.347 170.076L81.0602 165.906L76.5027 181.979H89.9307L99.347 170.076Z" fill="#FFBFAA"/>
<path fill-rule="evenodd" clip-rule="evenodd" d="M79.4509 108.574H86.5941C90.5246 108.574 93.7108 105.388 93.7108 101.457V82.2968H72.334V101.457C72.334 105.388 75.5204 108.574 79.4509 108.574Z" fill="#FFBFAA"/>
<path fill-rule="evenodd" clip-rule="evenodd" d="M70.0061 85.3096C72.6931 87.4988 75.8568 88.9524 79.1998 89.6136C81.8499 90.1377 84.5304 90.5218 87.2083 90.7179C89.4757 90.884 91.8367 91.0567 94.0684 90.4939C95.5862 90.1112 96.9998 89.3076 97.3112 87.5535C97.6572 85.6066 96.1372 83.6405 94.5815 82.7762C94.5815 82.7762 100.09 80.8942 95.9913 77.2644C95.8724 77.1593 96.4365 74.395 96.4517 74.101C96.6585 70.0903 93.5785 67.2596 89.8191 68.1379C82.6213 69.8193 79.0619 78.6056 71.5196 79.4152C65.1778 80.0959 67.1054 82.9458 70.0061 85.3096Z" fill="#72ACFF"/>
<path fill-rule="evenodd" clip-rule="evenodd" d="M84.0912 74.4454C84.0912 74.4454 69.5855 68.0362 65.921 75.567C62.2565 83.0979 68.8221 96.8776 70.8073 98.8003C72.7921 100.723 76.7622 85.341 76.7622 85.341L84.0912 74.4454Z" fill="#72ACFF"/>
<path fill-rule="evenodd" clip-rule="evenodd" d="M71.8847 101.364C74.2115 101.364 76.098 99.3843 76.098 96.9423V95.3704C76.098 92.9286 74.2115 90.949 71.8847 90.949C69.5576 90.949 67.6714 92.9286 67.6714 95.3704V96.9423C67.6714 99.3843 69.5576 101.364 71.8847 101.364Z" fill="#FFBFAA"/>
<path fill-rule="evenodd" clip-rule="evenodd" d="M73.1067 98.5285C72.8202 98.5285 72.5354 98.4071 72.3356 98.1711L69.8926 95.2869C69.5319 94.8615 69.5846 94.2243 70.0105 93.8636C70.4361 93.5031 71.0731 93.5558 71.4338 93.9815L73.8768 96.8656C74.2373 97.291 74.1846 97.9285 73.7589 98.289C73.5693 98.4498 73.3373 98.5285 73.1067 98.5285Z" fill="#001E57"/>
<path fill-rule="evenodd" clip-rule="evenodd" d="M87.5328 166.468C86.984 166.468 86.5339 166.028 86.5234 165.477L86.3166 154.465C86.3061 153.908 86.7497 153.447 87.3075 153.437C87.8713 153.419 88.3257 153.87 88.3362 154.427L88.543 165.439C88.5535 165.997 88.1101 166.457 87.5523 166.468C87.5458 166.468 87.5393 166.468 87.5328 166.468Z" fill="#72ACFF"/>
<path fill-rule="evenodd" clip-rule="evenodd" d="M130.019 284.665V302.678H103.975V284.44L111.907 282.302L113.688 275.348H124.81L126.947 282.142L130.019 284.665Z" fill="#001E57"/>
<path fill-rule="evenodd" clip-rule="evenodd" d="M130.02 299.228C129.686 299.228 129.358 299.063 129.166 298.758L127.655 296.373C125.908 293.613 122.986 291.964 119.84 291.964C116.266 291.964 113.049 294.057 111.444 297.427L110.859 298.653C110.692 299.006 110.337 299.228 109.948 299.228H103.975C103.417 299.228 102.965 298.776 102.965 298.219C102.965 297.662 103.417 297.21 103.975 297.21H109.31L109.621 296.558C111.564 292.478 115.48 289.946 119.84 289.946C123.682 289.946 127.242 291.944 129.362 295.291L130.872 297.679C131.171 298.149 131.031 298.773 130.559 299.073C130.392 299.178 130.205 299.228 130.02 299.228Z" fill="white"/>
<path fill-rule="evenodd" clip-rule="evenodd" d="M124.301 285.991H115.368C114.811 285.991 114.358 285.539 114.358 284.98C114.358 284.423 114.811 283.97 115.368 283.97H124.301C124.859 283.97 125.311 284.423 125.311 284.98C125.311 285.539 124.859 285.991 124.301 285.991Z" fill="white"/>
<path fill-rule="evenodd" clip-rule="evenodd" d="M87.1431 185.145L99.3379 168.169C101.092 165.727 103.837 164.291 106.751 164.291H119.971L119.588 184.846L87.1431 185.145Z" fill="#FFBFAA"/>
<path fill-rule="evenodd" clip-rule="evenodd" d="M92.2734 186.108C91.7198 186.108 91.2687 185.662 91.2637 185.107C91.2585 184.549 91.7063 184.093 92.2641 184.088L118.597 183.845L118.942 165.301H106.751C104.178 165.301 101.713 166.594 100.158 168.758L98.9822 170.395C98.7453 170.726 98.3337 170.88 97.9375 170.791L81.7705 167.104L78.4524 178.805C78.3006 179.342 77.7415 179.653 77.2054 179.501C76.6686 179.349 76.3571 178.79 76.5093 178.254L80.0888 165.63C80.2352 165.113 80.7605 164.802 81.2849 164.921L97.7329 168.672L98.5178 167.58C100.451 164.889 103.529 163.282 106.751 163.282H119.971C120.242 163.282 120.502 163.391 120.691 163.584C120.881 163.778 120.985 164.039 120.98 164.31L120.598 184.865C120.588 185.412 120.145 185.851 119.598 185.856L92.2829 186.108C92.2796 186.108 92.2764 186.108 92.2734 186.108Z" fill="#CFE4FF"/>
<path fill-rule="evenodd" clip-rule="evenodd" d="M87.1422 152.695C86.9546 152.695 86.7648 152.643 86.5954 152.533C86.1268 152.231 85.9922 151.606 86.2944 151.137C89.4816 146.199 91.9011 136.081 93.8453 127.951C94.1827 126.54 94.504 125.196 94.818 123.924L89.6877 119.174C89.4309 118.937 89.3155 118.582 89.3829 118.238C89.4506 117.895 89.6917 117.611 90.0196 117.487L93.7726 116.081L89.3599 113.048C88.9003 112.732 88.7839 112.103 89.0999 111.643C89.4161 111.184 90.0446 111.067 90.5042 111.383L96.5141 115.515C96.8243 115.728 96.9899 116.096 96.9442 116.47C96.8985 116.843 96.6487 117.16 96.2963 117.293L92.2616 118.805L96.628 122.847C96.8983 123.098 97.0109 123.475 96.9217 123.833C96.5645 125.265 96.1978 126.798 95.8099 128.421C93.8298 136.701 91.3658 147.005 87.9915 152.233C87.7985 152.532 87.4737 152.695 87.1422 152.695Z" fill="#72ACFF"/>
<path fill-rule="evenodd" clip-rule="evenodd" d="M83.9863 149.12C83.6261 149.12 83.2774 148.927 83.0953 148.588C78.6437 140.287 73.3255 130.995 67.6374 125.007C67.4121 124.77 67.3157 124.438 67.3784 124.117C67.4413 123.796 67.6557 123.526 67.9537 123.391L71.0906 121.973L68.0983 121.139C67.6337 121.01 67.3254 120.569 67.3627 120.088L68.1073 110.462C68.1505 109.906 68.6331 109.489 69.1924 109.533C69.7485 109.576 70.1644 110.061 70.1214 110.618L69.4407 119.416L74.3135 120.775C74.7226 120.889 75.0169 121.247 75.0491 121.671C75.0816 122.094 74.8453 122.493 74.4581 122.668L70.059 124.656C75.544 130.807 80.6073 139.675 84.8753 147.633C85.1391 148.124 84.9543 148.737 84.4627 149C84.3108 149.082 84.1474 149.12 83.9863 149.12Z" fill="#72ACFF"/>
<path fill-rule="evenodd" clip-rule="evenodd" d="M87.3253 155.456C86.7935 155.456 86.3481 155.04 86.3179 154.502C86.2669 153.596 86.2055 152.674 86.136 151.762C86.0936 151.205 86.51 150.72 87.0663 150.678C87.6236 150.638 88.1077 151.052 88.1501 151.608C88.2206 152.534 88.2828 153.469 88.3345 154.389C88.366 154.946 87.9401 155.422 87.383 155.454C87.3638 155.455 87.3445 155.456 87.3253 155.456Z" fill="#72ACFF"/>
<path fill-rule="evenodd" clip-rule="evenodd" d="M41.0419 153.999C38.9806 153.999 37.7651 153.251 37.6909 153.204C37.2198 152.905 37.0799 152.281 37.3784 151.81C37.6752 151.342 38.2931 151.201 38.7633 151.492C38.8599 151.55 40.7369 152.623 43.9116 151.408C44.4326 151.208 45.0162 151.469 45.2157 151.99C45.4151 152.511 45.1545 153.095 44.6335 153.294C43.2578 153.821 42.0488 153.999 41.0419 153.999Z" fill="white"/>
<path fill-rule="evenodd" clip-rule="evenodd" d="M84.4828 109.619C81.791 109.619 79.3375 108.945 77.176 107.61C76.7016 107.317 76.5545 106.695 76.8475 106.22C77.1408 105.746 77.7635 105.599 78.2376 105.891C80.3269 107.182 82.7547 107.745 85.4562 107.567C86.0108 107.526 86.4936 107.951 86.5306 108.507C86.5676 109.064 86.1464 109.545 85.5899 109.582C85.2167 109.607 84.8475 109.619 84.4828 109.619Z" fill="#001E57"/>
<path fill-rule="evenodd" clip-rule="evenodd" d="M57.7847 112.961L53.7782 114.334C48.5737 116.454 44.4971 120.834 42.5984 126.348L29.4016 174.128C28.2004 178.477 31.2954 182.825 35.6103 182.85L79.3588 183.052L88.2778 165.458L59.528 162.117L67.1251 124.26L57.7847 112.961Z" fill="#001E57"/>
<path fill-rule="evenodd" clip-rule="evenodd" d="M88.2789 166.092C88.2504 166.092 88.2214 166.091 88.1922 166.088L48.0797 162.676C47.5429 162.63 47.1362 162.171 47.156 161.632C47.1757 161.094 47.6151 160.666 48.1539 160.659L56.8086 160.561L60.9919 152.596C61.0474 152.49 61.1211 152.395 61.2097 152.315C61.2622 152.268 66.6181 147.297 67.4631 138.022C67.5136 137.466 68.0059 137.055 68.5605 137.107C69.116 137.158 69.5254 137.65 69.4747 138.205C68.6222 147.561 63.6268 152.79 62.7018 153.684L58.5754 161.541L88.3635 164.076C88.9193 164.123 89.3315 164.612 89.2843 165.168C89.2393 165.694 88.7979 166.092 88.2789 166.092Z" fill="white"/>
<path fill-rule="evenodd" clip-rule="evenodd" d="M83.9383 183.81H52.3879C51.8301 183.81 51.3777 183.358 51.3777 182.8C51.3777 182.242 51.8301 181.791 52.3879 181.791H83.9383C84.4961 181.791 84.9485 182.242 84.9485 182.8C84.9485 183.358 84.4961 183.81 83.9383 183.81Z" fill="white"/>
<path fill-rule="evenodd" clip-rule="evenodd" d="M104.368 157.182C103.826 157.182 103.378 156.752 103.359 156.207L103.134 149.693C103.13 149.576 103.147 149.458 103.183 149.346C105.022 143.692 105.672 137.81 105.115 131.863L104.556 125.888C104.504 125.333 104.912 124.841 105.467 124.789C106.022 124.737 106.515 125.145 106.567 125.7L107.126 131.675C107.703 137.838 107.041 143.935 105.159 149.8L105.378 156.137C105.397 156.695 104.961 157.162 104.403 157.181C104.391 157.182 104.379 157.182 104.368 157.182Z" fill="white"/>
<path fill-rule="evenodd" clip-rule="evenodd" d="M112.56 181.362H104.144L120.562 131.372H128.979L112.56 181.362Z" fill="#72ACFF"/>
<path fill-rule="evenodd" clip-rule="evenodd" d="M52.0547 187.112V199.552C52.0547 214.187 63.36 226.05 77.3061 226.05H109.278L137.63 271.793H174.226L128.633 191.879L115.489 188.253L52.0547 187.112Z" fill="#72ACFF"/>
<path fill-rule="evenodd" clip-rule="evenodd" d="M195.935 182.01C206.664 182.01 215.394 191.17 215.394 202.43V301.671H209.444V202.43C209.444 194.613 203.384 188.253 195.935 188.253H49.003C41.5541 188.253 35.4938 194.613 35.4938 202.43V303.355H29.5447V202.43C29.5447 193.42 35.1339 185.755 42.8648 183.051L195.935 182.01Z" fill="white"/>
<path fill-rule="evenodd" clip-rule="evenodd" d="M42.8647 183.051C44.7952 182.376 46.859 182.01 49.003 182.01H195.935L42.8647 183.051Z" fill="white"/>
<path fill-rule="evenodd" clip-rule="evenodd" d="M29.5446 236.005C28.9868 236.005 28.5347 235.553 28.5347 234.995V202.43C28.5347 190.614 37.7167 181.001 49.0029 181.001C49.5607 181.001 50.0129 181.452 50.0129 182.011C50.0129 182.568 49.5607 183.02 49.0029 183.02C38.8305 183.02 30.5545 191.727 30.5545 202.43V234.995C30.5545 235.553 30.1024 236.005 29.5446 236.005Z" fill="#72ACFF"/>
<path fill-rule="evenodd" clip-rule="evenodd" d="M29.5446 304.364C28.9868 304.364 28.5347 303.912 28.5347 303.355V283.641C28.5347 283.084 28.9868 282.632 29.5446 282.632C30.1024 282.632 30.5548 283.084 30.5548 283.641V303.355C30.5548 303.912 30.1024 304.364 29.5446 304.364Z" fill="#72ACFF"/>
<path fill-rule="evenodd" clip-rule="evenodd" d="M35.4938 304.364C34.936 304.364 34.4839 303.912 34.4839 303.355V202.43C34.4839 194.056 40.9973 187.244 49.003 187.244C49.5608 187.244 50.0129 187.696 50.0129 188.253C50.0129 188.811 49.5608 189.263 49.003 189.263C42.1112 189.263 36.5037 195.171 36.5037 202.43V303.355C36.5037 303.912 36.0516 304.364 35.4938 304.364Z" fill="#72ACFF"/>
<path fill-rule="evenodd" clip-rule="evenodd" d="M191.176 189.263H127.587C127.029 189.263 126.577 188.811 126.577 188.253C126.577 187.696 127.029 187.244 127.587 187.244H191.176C191.733 187.244 192.188 187.696 192.188 188.253C192.188 188.811 191.733 189.263 191.176 189.263Z" fill="#72ACFF"/>
<path fill-rule="evenodd" clip-rule="evenodd" d="M215.394 304.364H209.444C208.887 304.364 208.435 303.912 208.435 303.355V213.77C208.435 213.213 208.887 212.761 209.444 212.761C210.003 212.761 210.456 213.213 210.456 213.77V302.343H214.385V202.43C214.385 191.727 206.109 183.02 195.935 183.02C195.378 183.02 194.926 182.568 194.926 182.011C194.926 181.452 195.378 181.001 195.935 181.001C207.221 181.001 216.403 190.614 216.403 202.43V303.355C216.403 303.912 215.951 304.364 215.394 304.364Z" fill="#72ACFF"/>
<path fill-rule="evenodd" clip-rule="evenodd" d="M149.317 229.14C148.966 229.14 148.625 228.958 148.438 228.631L132.313 200.366C130.986 198.041 128.564 196.594 125.992 196.594H95.3725C94.8147 196.594 94.3625 196.142 94.3625 195.585C94.3625 195.027 94.8147 194.576 95.3725 194.576H125.992C129.287 194.576 132.381 196.412 134.068 199.367L150.193 227.629C150.469 228.114 150.301 228.731 149.816 229.008C149.658 229.098 149.486 229.14 149.317 229.14Z" fill="white"/>
<path fill-rule="evenodd" clip-rule="evenodd" d="M137.63 272.802C137.292 272.802 136.962 272.632 136.771 272.325L108.42 226.582C108.126 226.108 108.272 225.486 108.746 225.191C109.22 224.899 109.843 225.044 110.137 225.518L138.488 271.261C138.782 271.733 138.636 272.357 138.162 272.65C137.996 272.752 137.812 272.802 137.63 272.802Z" fill="white"/>
<path fill-rule="evenodd" clip-rule="evenodd" d="M166.657 261.601H144.908C144.553 261.601 144.224 261.414 144.041 261.109L117.738 217.163H78.7238C78.166 217.163 77.7139 216.71 77.7139 216.151C77.7139 215.594 78.166 215.142 78.7238 215.142H118.311C118.666 215.142 118.995 215.329 119.178 215.634L145.48 259.58H166.657C167.215 259.58 167.667 260.033 167.667 260.59C167.667 261.149 167.215 261.601 166.657 261.601Z" fill="#001E57"/>
<path fill-rule="evenodd" clip-rule="evenodd" d="M65.715 199.674C65.1602 199.674 64.7088 199.227 64.7051 198.673C64.7016 198.113 65.1502 197.659 65.7078 197.656C65.8122 197.654 76.1652 197.511 78.4998 192.105C78.7209 191.593 79.3154 191.357 79.8275 191.578C80.3396 191.799 80.5754 192.394 80.3543 192.906C77.4976 199.522 66.2011 199.672 65.7218 199.674C65.7195 199.674 65.717 199.674 65.715 199.674Z" fill="#001E57"/>
<path fill-rule="evenodd" clip-rule="evenodd" d="M112.658 181.362L129.077 131.372H194.186L177.767 181.362H112.658Z" fill="#72ACFF"/>
<path fill-rule="evenodd" clip-rule="evenodd" d="M177.767 182.372H104.144C103.586 182.372 103.134 181.919 103.134 181.362C103.134 180.804 103.586 180.352 104.144 180.352H177.767C178.325 180.352 178.777 180.804 178.777 181.362C178.777 181.919 178.325 182.372 177.767 182.372Z" fill="#72ACFF"/>
<path fill-rule="evenodd" clip-rule="evenodd" d="M150.895 167.313C148.403 167.313 146.28 166.324 144.916 164.528C143.423 162.562 143.02 159.806 143.811 156.967C145.318 151.562 150.763 147.164 155.949 147.164C157.746 147.164 159.374 147.685 160.655 148.669C161.098 149.008 161.181 149.642 160.841 150.085C160.501 150.527 159.867 150.61 159.425 150.271C158.499 149.56 157.297 149.184 155.949 149.184C151.609 149.184 147.037 152.919 145.757 157.51C145.137 159.735 145.417 161.848 146.525 163.307C147.497 164.588 149.05 165.293 150.895 165.293C154.494 165.293 158.352 162.707 160.278 159.004C160.535 158.509 161.145 158.317 161.64 158.574C162.135 158.831 162.327 159.441 162.07 159.936C159.811 164.279 155.216 167.313 150.895 167.313Z" fill="white"/>
<path fill-rule="evenodd" clip-rule="evenodd" d="M161.173 160.48C161.016 160.48 160.856 160.443 160.708 160.366C160.213 160.108 160.02 159.499 160.278 159.004C160.437 158.698 160.582 158.384 160.71 158.069C160.92 157.552 161.509 157.304 162.026 157.513C162.543 157.723 162.791 158.312 162.582 158.829C162.43 159.202 162.258 159.574 162.07 159.936C161.89 160.282 161.538 160.48 161.173 160.48Z" fill="white"/>
<path fill-rule="evenodd" clip-rule="evenodd" d="M155.949 149.185C155.842 149.185 155.733 149.167 155.625 149.131C155.097 148.953 154.814 148.379 154.992 147.851L156.429 143.6C156.608 143.072 157.181 142.787 157.709 142.967C158.238 143.146 158.522 143.719 158.343 144.247L156.906 148.498C156.763 148.919 156.37 149.185 155.949 149.185Z" fill="white"/>
<path fill-rule="evenodd" clip-rule="evenodd" d="M115.486 180.904C115.381 180.904 115.275 180.887 115.171 180.853C114.641 180.679 114.352 180.108 114.526 179.578L130.463 131.057C130.637 130.527 131.207 130.238 131.737 130.413C132.267 130.587 132.556 131.158 132.382 131.688L116.445 180.209C116.306 180.634 115.911 180.904 115.486 180.904Z" fill="white"/>
<path fill-rule="evenodd" clip-rule="evenodd" d="M168.876 71.7327H148.347V9.29492H236.891V71.7327H168.876Z" fill="#001E57"/>
<path fill-rule="evenodd" clip-rule="evenodd" d="M148.347 86.6777H236.891V24.24H148.347V86.6777Z" fill="#9BD6EE"/>
<path fill-rule="evenodd" clip-rule="evenodd" d="M168.876 86.6777H148.347V24.24H236.891V86.6777H168.876Z" fill="#72ACFF"/>
<path fill-rule="evenodd" clip-rule="evenodd" d="M141.588 13.7773C141.218 13.7773 140.917 13.4768 140.917 13.1063V1.03692C140.917 0.666221 141.218 0.365967 141.588 0.365967H157.23C157.601 0.365967 157.901 0.666221 157.901 1.03692C157.901 1.40737 157.601 1.70787 157.23 1.70787H142.259V13.1063C142.259 13.4768 141.959 13.7773 141.588 13.7773Z" fill="#CFE4FF"/>
<path fill-rule="evenodd" clip-rule="evenodd" d="M185.86 87.3486H168.876C168.506 87.3486 168.205 87.0481 168.205 86.6777C168.205 86.307 168.506 86.0067 168.876 86.0067H185.86C186.231 86.0067 186.531 86.307 186.531 86.6777C186.531 87.0481 186.231 87.3486 185.86 87.3486Z" fill="#2A0055"/>
<path fill-rule="evenodd" clip-rule="evenodd" d="M236.891 87.3486H228.886C228.516 87.3486 228.216 87.0481 228.216 86.6777C228.216 86.307 228.516 86.0067 228.886 86.0067H236.891C237.261 86.0067 237.561 86.307 237.561 86.6777C237.561 87.0481 237.261 87.3486 236.891 87.3486Z" fill="#2A0055"/>
<path fill-rule="evenodd" clip-rule="evenodd" d="M160.785 56.1541L166.994 38.171H179.411L182.194 47.1624H192.683L198.463 57.7598L217.947 49.0894L223.94 79.8008L160.785 56.1541Z" fill="#CFE4FF"/>
<path fill-rule="evenodd" clip-rule="evenodd" d="M157.23 59.5771V71.879L223.939 79.8008L210.91 54.7108L189.408 56.7479L170.17 43.3938L157.23 59.5771Z" fill="#72ACFF"/>
<path fill-rule="evenodd" clip-rule="evenodd" d="M157.23 50.8428V79.8009H223.939L206.117 69.1758L188.786 67.5911L173.05 54.4453L157.23 50.8428Z" fill="#006BFF"/>
<path fill-rule="evenodd" clip-rule="evenodd" d="M197.539 35.8671H202.29V31.1169H197.539V35.8671Z" fill="#CFE4FF"/>
<path fill-rule="evenodd" clip-rule="evenodd" d="M197.539 43.3916H202.29V38.6412H197.539V43.3916Z" fill="#006BFF"/>
<path fill-rule="evenodd" clip-rule="evenodd" d="M206.661 35.0754H228.009V31.9084H206.661V35.0754Z" fill="white"/>
<path fill-rule="evenodd" clip-rule="evenodd" d="M206.661 42.5997H228.009V39.4327H206.661V42.5997Z" fill="white"/>
<path fill-rule="evenodd" clip-rule="evenodd" d="M175.974 54.4452C175.974 56.0604 174.665 57.3698 173.05 57.3698C171.434 57.3698 170.125 56.0604 170.125 54.4452C170.125 52.8303 171.434 51.5209 173.05 51.5209C174.665 51.5209 175.974 52.8303 175.974 54.4452Z" fill="white"/>
<path fill-rule="evenodd" clip-rule="evenodd" d="M191.708 66.7552C191.708 68.3704 190.399 69.6795 188.786 69.6795C187.17 69.6795 185.86 68.3704 185.86 66.7552C185.86 65.14 187.17 63.8308 188.786 63.8308C190.399 63.8308 191.708 65.14 191.708 66.7552Z" fill="white"/>
<path fill-rule="evenodd" clip-rule="evenodd" d="M208.837 68.8083C208.837 70.4235 207.528 71.7326 205.912 71.7326C204.296 71.7326 202.987 70.4235 202.987 68.8083C202.987 67.1931 204.296 65.8837 205.912 65.8837C207.528 65.8837 208.837 67.1931 208.837 68.8083Z" fill="white"/>
<path fill-rule="evenodd" clip-rule="evenodd" d="M358.777 92.1818H461.438V12.4719H358.777V92.1818Z" fill="#001E57"/>
<path fill-rule="evenodd" clip-rule="evenodd" d="M358.777 109.353H461.438V29.6426H358.777V109.353Z" fill="#72ACFF"/>
<path fill-rule="evenodd" clip-rule="evenodd" d="M478.801 126.885H463.849C463.354 126.885 462.954 126.484 462.954 125.99C462.954 125.496 463.354 125.095 463.849 125.095H477.905V109.93C477.905 109.436 478.307 109.035 478.801 109.035C479.296 109.035 479.696 109.436 479.696 109.93V125.99C479.696 126.484 479.296 126.885 478.801 126.885Z" fill="#72ACFF"/>
<path fill-rule="evenodd" clip-rule="evenodd" d="M372.97 80.0453H447.245V40.365H372.97V80.0453Z" fill="white"/>
<path fill-rule="evenodd" clip-rule="evenodd" d="M381.126 73.9416H385.35V57.8635H381.126V73.9416Z" fill="#006BFF"/>
<path fill-rule="evenodd" clip-rule="evenodd" d="M390.421 73.9416H394.645V50.2142H390.421V73.9416Z" fill="#72ACFF"/>
<path fill-rule="evenodd" clip-rule="evenodd" d="M399.716 73.9416H403.94V63.1342H399.716V73.9416Z" fill="#72ACFF"/>
<path fill-rule="evenodd" clip-rule="evenodd" d="M409.011 73.9416H413.235V52.3268H409.011V73.9416Z" fill="#001E57"/>
<path fill-rule="evenodd" clip-rule="evenodd" d="M418.303 73.9416H422.53V46.8345H418.303V73.9416Z" fill="#72ACFF"/>
<path fill-rule="evenodd" clip-rule="evenodd" d="M427.598 73.9415H431.825V59.0867H427.598V73.9415Z" fill="#72ACFF"/>
<path fill-rule="evenodd" clip-rule="evenodd" d="M436.893 73.9416H441.12V52.3268H436.893V73.9416Z" fill="#006BFF"/>
<path fill-rule="evenodd" clip-rule="evenodd" d="M374.689 92.34H381.026V86.0027H374.689V92.34Z" fill="#001E57"/>
<path fill-rule="evenodd" clip-rule="evenodd" d="M374.689 102.378H381.026V96.0408H374.689V102.378Z" fill="#CFE4FF"/>
<path fill-rule="evenodd" clip-rule="evenodd" d="M389.787 91.2839H445.648V87.0591H389.787V91.2839Z" fill="white"/>
<path fill-rule="evenodd" clip-rule="evenodd" d="M389.787 101.322H445.648V97.0972H389.787V101.322Z" fill="white"/>
<path fill-rule="evenodd" clip-rule="evenodd" d="M385.932 144.925H363.913V219.843H460.406V144.925H385.932Z" fill="#001E57"/>
<path fill-rule="evenodd" clip-rule="evenodd" d="M385.932 163.029H363.913V233.674H460.406V163.029H385.932Z" fill="#72ACFF"/>
<path fill-rule="evenodd" clip-rule="evenodd" d="M395.342 195.388L380 186.513C383.899 179.777 391.15 175.592 398.929 175.592V193.315C397.433 193.315 396.091 194.09 395.342 195.388Z" fill="#006BFF"/>
<path fill-rule="evenodd" clip-rule="evenodd" d="M398.929 219.308C386.876 219.308 377.069 209.501 377.069 197.451C377.069 193.609 378.084 189.827 379.999 186.513L395.342 195.388C394.977 196.017 394.792 196.712 394.792 197.451C394.792 199.729 396.648 201.585 398.929 201.585C399.668 201.585 400.36 201.401 400.99 201.038L409.868 216.376C406.553 218.294 402.771 219.308 398.929 219.308Z" fill="white"/>
<path fill-rule="evenodd" clip-rule="evenodd" d="M409.868 216.376L400.99 201.038C402.289 200.286 403.063 198.945 403.063 197.451H420.786C420.786 205.227 416.602 212.479 409.868 216.376Z" fill="#CFE4FF"/>
<path fill-rule="evenodd" clip-rule="evenodd" d="M420.786 197.451H403.063C403.063 195.877 402.231 194.872 401.734 194.413L413.772 181.406C418.231 185.531 420.786 191.379 420.786 197.451Z" fill="#001E57"/>
<path fill-rule="evenodd" clip-rule="evenodd" d="M401.734 194.413C401.195 193.912 400.268 193.315 398.929 193.315V175.592C404.45 175.592 409.723 177.657 413.772 181.406L401.734 194.413Z" fill="#006BFF"/>
<path fill-rule="evenodd" clip-rule="evenodd" d="M429.577 210.693H445.684V206.721H429.577V210.693Z" fill="white"/>
<path fill-rule="evenodd" clip-rule="evenodd" d="M429.577 187.217H443.8V183.247H429.577V187.217Z" fill="#001E57"/>
<path fill-rule="evenodd" clip-rule="evenodd" d="M429.577 198.955H450.887V194.984H429.577V198.955Z" fill="#006BFF"/>
<path fill-rule="evenodd" clip-rule="evenodd" d="M401.02 234.344H382.035C381.663 234.344 381.364 234.044 381.364 233.674C381.364 233.302 381.663 233.002 382.035 233.002H401.02C401.39 233.002 401.689 233.302 401.689 233.674C401.689 234.044 401.39 234.344 401.02 234.344Z" fill="#2A0055"/>
<path fill-rule="evenodd" clip-rule="evenodd" d="M467.486 202.487C467.096 202.487 466.781 202.17 466.781 201.78V185.954C466.781 185.564 467.096 185.248 467.486 185.248C467.878 185.248 468.193 185.564 468.193 185.954V201.78C468.193 202.17 467.878 202.487 467.486 202.487Z" fill="#2A0055"/>
<path fill-rule="evenodd" clip-rule="evenodd" d="M358.777 67.8276C358.365 67.8276 358.032 67.4939 358.032 67.082V52.3772C358.032 51.9656 358.365 51.6318 358.777 51.6318C359.189 51.6318 359.524 51.9656 359.524 52.3772V67.082C359.524 67.4939 359.189 67.8276 358.777 67.8276Z" fill="#2A0055"/>
<path fill-rule="evenodd" clip-rule="evenodd" d="M436.663 110.676H421.898C421.486 110.676 421.151 110.342 421.151 109.93C421.151 109.519 421.486 109.185 421.898 109.185H436.663C437.075 109.185 437.408 109.519 437.408 109.93C437.408 110.342 437.075 110.676 436.663 110.676Z" fill="#2A0055"/>
<path fill-rule="evenodd" clip-rule="evenodd" d="M460.406 163.7H363.915C363.543 163.7 363.243 163.4 363.243 163.029C363.243 162.659 363.543 162.358 363.915 162.358H460.406C460.776 162.358 461.076 162.659 461.076 163.029C461.076 163.4 460.776 163.7 460.406 163.7Z" fill="white"/>
<path fill-rule="evenodd" clip-rule="evenodd" d="M376.95 251.562H354.171C353.723 251.562 353.364 251.202 353.364 250.758V238.37C353.364 237.926 353.723 237.566 354.171 237.566C354.615 237.566 354.975 237.926 354.975 238.37V249.951H376.95C377.394 249.951 377.754 250.313 377.754 250.758C377.754 251.202 377.394 251.562 376.95 251.562Z" fill="#72ACFF"/>
<path fill-rule="evenodd" clip-rule="evenodd" d="M379.607 154.655C379.607 156.609 378.024 158.193 376.07 158.193C374.117 158.193 372.533 156.609 372.533 154.655C372.533 152.702 374.117 151.118 376.07 151.118C378.024 151.118 379.607 152.702 379.607 154.655Z" fill="white"/>
<path fill-rule="evenodd" clip-rule="evenodd" d="M389.961 154.655C389.961 156.609 388.378 158.193 386.424 158.193C384.471 158.193 382.887 156.609 382.887 154.655C382.887 152.702 384.471 151.118 386.424 151.118C388.378 151.118 389.961 152.702 389.961 154.655Z" fill="white"/>
<path fill-rule="evenodd" clip-rule="evenodd" d="M400.318 154.655C400.318 156.609 398.732 158.193 396.778 158.193C394.825 158.193 393.241 156.609 393.241 154.655C393.241 152.702 394.825 151.118 396.778 151.118C398.732 151.118 400.318 152.702 400.318 154.655Z" fill="#006BFF"/>
<path fill-rule="evenodd" clip-rule="evenodd" d="M371.596 21.2498C371.596 23.2154 370.003 24.8091 368.037 24.8091C366.071 24.8091 364.477 23.2154 364.477 21.2498C364.477 19.2839 366.071 17.6902 368.037 17.6902C370.003 17.6902 371.596 19.2839 371.596 21.2498Z" fill="white"/>
<path fill-rule="evenodd" clip-rule="evenodd" d="M382.013 21.2498C382.013 23.2154 380.419 24.8091 378.453 24.8091C376.487 24.8091 374.894 23.2154 374.894 21.2498C374.894 19.2839 376.487 17.6902 378.453 17.6902C380.419 17.6902 382.013 19.2839 382.013 21.2498Z" fill="#006BFF"/>
<path fill-rule="evenodd" clip-rule="evenodd" d="M392.432 21.2498C392.432 23.2154 390.838 24.8091 388.872 24.8091C386.906 24.8091 385.313 23.2154 385.313 21.2498C385.313 19.2839 386.906 17.6902 388.872 17.6902C390.838 17.6902 392.432 19.2839 392.432 21.2498Z" fill="white"/>
<path fill-rule="evenodd" clip-rule="evenodd" d="M160.159 17.551C160.159 19.3203 158.725 20.7544 156.956 20.7544C155.187 20.7544 153.752 19.3203 153.752 17.551C153.752 15.782 155.187 14.3477 156.956 14.3477C158.725 14.3477 160.159 15.782 160.159 17.551Z" fill="#006BFF"/>
<path fill-rule="evenodd" clip-rule="evenodd" d="M169.535 17.551C169.535 19.3203 168.101 20.7544 166.332 20.7544C164.563 20.7544 163.129 19.3203 163.129 17.551C163.129 15.782 164.563 14.3477 166.332 14.3477C168.101 14.3477 169.535 15.782 169.535 17.551Z" fill="white"/>
<path fill-rule="evenodd" clip-rule="evenodd" d="M178.912 17.551C178.912 19.3203 177.478 20.7544 175.709 20.7544C173.939 20.7544 172.505 19.3203 172.505 17.551C172.505 15.782 173.939 14.3477 175.709 14.3477C177.478 14.3477 178.912 15.782 178.912 17.551Z" fill="white"/>
<path fill-rule="evenodd" clip-rule="evenodd" d="M258.014 136.85V149.178C258.014 152.058 258.986 154.848 260.764 157.073L273.989 173.624L290.7 162.619L278.547 135.144L268.038 128.814L258.014 136.85Z" fill="#FFBFAA"/>
<path fill-rule="evenodd" clip-rule="evenodd" d="M346.714 159.14H284.875L312.412 99.3998H374.254L346.714 159.14Z" fill="#72ACFF"/>
<path fill-rule="evenodd" clip-rule="evenodd" d="M283.633 296.398L285.674 302.525L289.631 313.856V323.823H267.097L266.959 296.398H283.633Z" fill="#006BFF"/>
<path fill-rule="evenodd" clip-rule="evenodd" d="M285.674 303.535H281.812C281.258 303.535 280.806 303.082 280.806 302.525C280.806 301.971 281.258 301.519 281.812 301.519H285.674C286.231 301.519 286.683 301.971 286.683 302.525C286.683 303.082 286.231 303.535 285.674 303.535Z" fill="#72ACFF"/>
<path fill-rule="evenodd" clip-rule="evenodd" d="M288.002 309.335H283.551C282.994 309.335 282.542 308.885 282.542 308.328C282.542 307.771 282.994 307.319 283.551 307.319H288.002C288.559 307.319 289.011 307.771 289.011 308.328C289.011 308.885 288.559 309.335 288.002 309.335Z" fill="#72ACFF"/>
<path fill-rule="evenodd" clip-rule="evenodd" d="M289.631 317.238H285.152L282.087 317.161L281.525 316.511C279.177 313.789 275.807 312.227 272.275 312.227H267.032C266.475 312.227 266.025 311.778 266.025 311.221C266.025 310.664 266.475 310.212 267.032 310.212H272.275C276.382 310.212 280.301 312.018 283.029 315.17L285.189 315.222H289.631C290.185 315.222 290.638 315.675 290.638 316.232C290.638 316.789 290.185 317.238 289.631 317.238Z" fill="#72ACFF"/>
<path fill-rule="evenodd" clip-rule="evenodd" d="M322.319 294.432L333.672 305.366L346.392 313.839L346.424 323.988L307.474 324.12L307.371 292.444L322.319 294.432Z" fill="#006BFF"/>
<path fill-rule="evenodd" clip-rule="evenodd" d="M323.548 310.629C323.546 310.629 323.541 310.629 323.538 310.629C322.144 310.634 321.013 311.818 321.018 313.266V313.269C321.02 313.976 321.29 314.638 321.775 315.135C322.252 315.622 322.881 315.889 323.548 315.889C323.551 315.889 323.553 315.889 323.556 315.889C324.95 315.884 326.081 314.7 326.076 313.252C326.074 312.542 325.804 311.88 325.319 311.383C324.842 310.896 324.215 310.629 323.548 310.629ZM323.548 317.905C322.334 317.905 321.193 317.423 320.333 316.544C319.479 315.672 319.007 314.51 319.002 313.274C318.995 310.714 321.025 308.623 323.533 308.613C323.538 308.613 323.543 308.613 323.548 308.613C324.762 308.613 325.901 309.097 326.761 309.974C327.615 310.846 328.087 312.008 328.092 313.244C328.1 315.804 326.069 317.895 323.563 317.905C323.558 317.905 323.553 317.905 323.548 317.905Z" fill="#72ACFF"/>
<path fill-rule="evenodd" clip-rule="evenodd" d="M334.147 309.784C333.592 309.784 333.14 309.335 333.138 308.78C333.138 308.223 333.587 307.771 334.144 307.769L340.117 307.749C340.119 307.749 340.119 307.749 340.122 307.749C340.677 307.749 341.126 308.196 341.129 308.753C341.131 309.31 340.682 309.762 340.124 309.764L334.149 309.784H334.147Z" fill="#72ACFF"/>
<path fill-rule="evenodd" clip-rule="evenodd" d="M327.75 304.701C327.193 304.701 326.743 304.254 326.74 303.697C326.738 303.14 327.188 302.688 327.745 302.685L333.847 302.665H333.85C334.404 302.665 334.856 303.115 334.859 303.669C334.859 304.227 334.409 304.679 333.855 304.681L327.752 304.701C327.75 304.701 327.75 304.701 327.75 304.701Z" fill="#72ACFF"/>
<path fill-rule="evenodd" clip-rule="evenodd" d="M357.118 117.34H319.402L325.701 105.626H362.646L357.118 117.34Z" fill="#006BFF"/>
<path fill-rule="evenodd" clip-rule="evenodd" d="M348.61 136.347H310.894L317.193 124.633H354.138L348.61 136.347Z" fill="white"/>
<path fill-rule="evenodd" clip-rule="evenodd" d="M280.813 173.382L289.441 218.517V218.519L306.307 298.748H327.942C327.742 297.177 327.542 295.586 327.337 293.982C327.108 292.166 326.878 290.333 326.648 288.484C326.496 287.268 326.343 286.044 326.188 284.817C325.961 282.996 325.734 281.163 325.506 279.319C322.819 257.71 319.988 234.816 317.076 215.462C313.993 194.963 310.818 178.439 307.629 171.621L280.813 173.382Z" fill="#001E57"/>
<path fill-rule="evenodd" clip-rule="evenodd" d="M260.272 206.221C260.375 208.684 261.399 211.325 261.501 213.531L264.978 279.319L265.386 288.484L265.848 298.748H285.569L286.066 288.484L286.506 279.319C286.506 279.319 289.441 218.519 289.441 218.516L292.666 173.005C292.666 173.005 292.461 173.011 292.079 173.022C288.589 173.127 270.684 173.657 270.414 173.665C268.733 173.718 265.296 180.133 264.459 181.593C260.272 188.91 259.933 197.943 260.272 206.221Z" fill="#001E57"/>
<path fill-rule="evenodd" clip-rule="evenodd" d="M270.154 173.962L308.193 173.372L314.965 145.854L317.173 143.042C320.711 138.537 322.641 132.92 322.641 127.128V124.437C322.641 120.094 321.722 115.804 319.949 111.863C318.333 108.272 314.835 105.974 310.989 105.974H271.288C265.376 105.974 260.79 111.284 261.484 117.324L270.154 173.962Z" fill="#006BFF"/>
<path fill-rule="evenodd" clip-rule="evenodd" d="M284.71 110.468L303.405 126.461L299.346 110.468V87.4613H284.71V110.468Z" fill="white"/>
<path fill-rule="evenodd" clip-rule="evenodd" d="M329.563 127.275L337.045 138.995L353.286 144.882L346.714 159.14H334.232C327.435 159.14 321.105 155.575 317.446 149.683L309.172 136.37L311.81 121.075L329.563 127.275Z" fill="#FFBFAA"/>
<path fill-rule="evenodd" clip-rule="evenodd" d="M284.71 103.064H299.346V75.8318H284.71V103.064Z" fill="#FFBFAA"/>
<path fill-rule="evenodd" clip-rule="evenodd" d="M299.345 111.475H284.71C284.153 111.475 283.703 111.024 283.703 110.467C283.703 109.91 284.153 109.459 284.71 109.459H299.345C299.902 109.459 300.352 109.91 300.352 110.467C300.352 111.024 299.902 111.475 299.345 111.475Z" fill="#2A0055"/>
<path fill-rule="evenodd" clip-rule="evenodd" d="M282.165 76.4816V82.4217C282.165 92.0633 289.766 99.8792 299.138 99.8792C305.625 99.8792 310.884 94.4716 310.884 87.8008V78.8559C310.884 71.2031 304.851 64.9969 297.41 64.9969H293.333C287.165 64.9969 282.165 70.1387 282.165 76.4816Z" fill="#FFBFAA"/>
<path fill-rule="evenodd" clip-rule="evenodd" d="M275.263 66.5214C275.263 71.3489 279.07 75.2622 283.763 75.2622C288.457 75.2622 292.261 71.3489 292.261 66.5214C292.261 61.6938 288.457 57.7805 283.763 57.7805C279.07 57.7805 275.263 61.6938 275.263 66.5214Z" fill="#72ACFF"/>
<path fill-rule="evenodd" clip-rule="evenodd" d="M256.293 138.054L274.611 138.172L272.213 102.989L265.628 105.216C259.588 107.054 255.514 112.852 255.716 119.327L256.293 138.054Z" fill="#006BFF"/>
<path fill-rule="evenodd" clip-rule="evenodd" d="M307.843 138.995L331.606 128.49C330.09 125.552 328.422 122.652 327.023 119.67C325.037 115.435 322.794 110.655 318.592 108.359C314.765 106.268 310.164 106.09 306.217 107.96L303.137 109.423L307.843 138.995Z" fill="#006BFF"/>
<path fill-rule="evenodd" clip-rule="evenodd" d="M302.223 279.319L303.38 284.817H326.189C325.961 282.996 325.734 281.163 325.507 279.319H302.223Z" fill="white"/>
<path fill-rule="evenodd" clip-rule="evenodd" d="M264.979 279.319L265.223 284.817H286.241L286.506 279.319H264.979Z" fill="white"/>
<path fill-rule="evenodd" clip-rule="evenodd" d="M304.152 288.484L305.306 293.982H327.338C327.108 292.166 326.878 290.333 326.648 288.484H304.152Z" fill="white"/>
<path fill-rule="evenodd" clip-rule="evenodd" d="M265.386 288.484L265.633 293.982H285.799L286.066 288.484H265.386Z" fill="white"/>
<path fill-rule="evenodd" clip-rule="evenodd" d="M252.798 93.7484C252.798 93.7484 237.668 102.01 252.798 109.609C252.798 109.609 251.497 120.554 269.263 119.176C269.263 119.176 277.771 133.804 290.17 125.376C290.17 125.376 300.177 135.249 305.633 125.376C305.633 125.376 320.516 121.63 313.819 110.275C313.819 110.275 318.038 92.1495 299.683 93.7484C299.683 93.7484 297.2 75.953 283.806 86.5433C283.806 86.5433 274.875 75.2226 265.451 84.5195C265.451 84.5195 251.31 76.0766 252.798 93.7484Z" fill="#72ACFF"/>
<path fill-rule="evenodd" clip-rule="evenodd" d="M310.147 72.9542C310.289 73.3614 310.314 73.8027 310.217 74.2234C309.595 76.8617 306.507 86.3527 294.057 87.4613C279.582 88.7505 278.068 82.0005 278.068 82.0005V81.5786C278.068 71.2626 286.199 62.8999 296.228 62.8999C302.463 62.8999 308.031 66.9209 310.147 72.9542Z" fill="#72ACFF"/>
<path fill-rule="evenodd" clip-rule="evenodd" d="M302.166 91.1752C305.006 91.1752 307.307 88.8731 307.307 86.0337V83.8599C307.307 81.0203 305.006 78.7184 302.166 78.7184C299.326 78.7184 297.025 81.0203 297.025 83.8599V86.0337C297.025 88.8731 299.326 91.1752 302.166 91.1752Z" fill="#FFBFAA"/>
<path fill-rule="evenodd" clip-rule="evenodd" d="M288.272 74.9403C287.94 74.9403 287.618 74.7774 287.423 74.4784C287.123 74.0108 287.258 73.387 287.725 73.0853C289.933 71.6604 291.252 69.2067 291.252 66.5214C291.252 65.3998 291.025 64.3182 290.578 63.3073C290.353 62.7982 290.583 62.2029 291.09 61.9774C291.599 61.7518 292.194 61.9814 292.421 62.4902C292.983 63.7602 293.268 65.1165 293.268 66.5214C293.268 69.8944 291.604 72.9816 288.817 74.7791C288.649 74.8881 288.459 74.9403 288.272 74.9403Z" fill="white"/>
<path fill-rule="evenodd" clip-rule="evenodd" d="M289.441 219.523C289.021 219.523 288.629 219.258 288.487 218.841L285.242 209.314C283.993 208.14 277.975 201.883 279.559 191.666C279.646 191.116 280.161 190.74 280.711 190.825C281.26 190.91 281.637 191.425 281.552 191.975C279.994 202.02 286.703 207.923 286.771 207.98L286.978 208.16L290.395 218.192C290.573 218.716 290.293 219.291 289.766 219.471C289.658 219.506 289.548 219.523 289.441 219.523Z" fill="white"/>
<path fill-rule="evenodd" clip-rule="evenodd" d="M269.263 120.183C268.928 120.183 268.601 120.016 268.408 119.71C268.281 119.505 265.298 114.635 268.501 110.926C268.863 110.505 269.5 110.457 269.922 110.821C270.342 111.185 270.389 111.821 270.027 112.243C267.801 114.821 270.094 118.606 270.119 118.644C270.412 119.116 270.267 119.737 269.795 120.031C269.627 120.134 269.445 120.183 269.263 120.183Z" fill="#006BFF"/>
<path fill-rule="evenodd" clip-rule="evenodd" d="M305.635 126.383C305.306 126.383 304.983 126.223 304.791 125.928C304.486 125.464 304.614 124.841 305.078 124.535C305.108 124.514 306.814 123.354 306.992 121.777C307.084 120.942 306.715 120.078 305.888 119.21C305.506 118.806 305.52 118.168 305.925 117.785C306.327 117.401 306.967 117.418 307.349 117.821C308.608 119.146 309.163 120.558 308.993 122.017C308.703 124.541 306.29 126.151 306.187 126.218C306.015 126.33 305.823 126.383 305.635 126.383Z" fill="#006BFF"/>
<path fill-rule="evenodd" clip-rule="evenodd" d="M279.571 96.9164C279.174 96.9164 278.797 96.6793 278.637 96.2881C277.785 94.1968 276.484 92.8484 274.765 92.2807C270.856 90.9887 265.963 93.9193 265.913 93.949C265.438 94.2383 264.819 94.0869 264.529 93.6111C264.239 93.1352 264.391 92.5155 264.866 92.2264C265.098 92.0853 270.614 88.7855 275.4 90.367C277.703 91.1286 279.422 92.8652 280.506 95.5285C280.716 96.0441 280.466 96.6321 279.951 96.8419C279.826 96.8926 279.699 96.9164 279.571 96.9164Z" fill="#006BFF"/>
<path fill-rule="evenodd" clip-rule="evenodd" d="M312.325 110.296C312.307 110.296 312.292 110.295 312.277 110.295C311.72 110.269 311.291 109.797 311.316 109.241C311.415 107.161 310.908 105.519 309.809 104.361C307.976 102.427 305.033 102.387 305.003 102.387C304.449 102.384 303.999 101.932 303.999 101.376C304.002 100.821 304.451 100.371 305.006 100.371C305.161 100.371 308.815 100.401 311.256 102.959C312.757 104.532 313.456 106.677 313.329 109.335C313.304 109.875 312.859 110.296 312.325 110.296Z" fill="#006BFF"/>
<path fill-rule="evenodd" clip-rule="evenodd" d="M303.944 87.9262C303.652 87.9262 303.362 87.7995 303.162 87.555L299.955 83.6177C299.603 83.1863 299.668 82.5513 300.1 82.1996C300.529 81.8484 301.164 81.9126 301.516 82.3445L304.726 86.2818C305.076 86.7132 305.011 87.3481 304.581 87.6996C304.394 87.852 304.169 87.9262 303.944 87.9262Z" fill="#2A0055"/>
<path fill-rule="evenodd" clip-rule="evenodd" d="M269.08 197.549C267.229 197.549 265.595 196.814 264.484 195.48C263.327 194.096 262.87 192.175 263.227 190.21L263.847 186.797C263.947 186.249 264.474 185.886 265.018 185.985C265.568 186.085 265.93 186.61 265.83 187.157L265.211 190.57C264.956 191.966 265.248 193.251 266.03 194.19C266.755 195.056 267.836 195.533 269.08 195.533C271.913 195.533 274.653 193.145 275.188 190.21L275.9 186.291C275.999 185.743 276.524 185.381 277.071 185.479C277.618 185.579 277.983 186.103 277.883 186.651L277.171 190.57C276.472 194.418 272.842 197.549 269.08 197.549Z" fill="white"/>
<path fill-rule="evenodd" clip-rule="evenodd" d="M292.636 197.549C290.785 197.549 289.151 196.814 288.04 195.48C286.883 194.096 286.426 192.175 286.783 190.21L287.403 186.797C287.503 186.249 288.027 185.886 288.574 185.985C289.121 186.085 289.486 186.61 289.386 187.157L288.767 190.57C288.512 191.966 288.804 193.251 289.586 194.19C290.31 195.056 291.392 195.533 292.636 195.533C295.469 195.533 298.209 193.145 298.744 190.21L299.455 186.291C299.555 185.743 300.08 185.381 300.627 185.479C301.174 185.579 301.539 186.103 301.439 186.651L300.727 190.57C300.025 194.418 296.398 197.549 292.636 197.549Z" fill="white"/>
<path fill-rule="evenodd" clip-rule="evenodd" d="M277.473 180.711H270.502C269.947 180.711 269.495 180.259 269.495 179.702C269.495 179.146 269.947 178.694 270.502 178.694H277.473C278.03 178.694 278.48 179.146 278.48 179.702C278.48 180.259 278.03 180.711 277.473 180.711Z" fill="white"/>
<path fill-rule="evenodd" clip-rule="evenodd" d="M298.259 180.711H291.289C290.732 180.711 290.28 180.259 290.28 179.702C290.28 179.146 290.732 178.694 291.289 178.694H298.259C298.816 178.694 299.268 179.146 299.268 179.702C299.268 180.259 298.816 180.711 298.259 180.711Z" fill="white"/>
<path fill-rule="evenodd" clip-rule="evenodd" d="M310.136 186.934C307.054 186.934 305.181 184.934 304.559 183.679C304.311 183.181 304.514 182.576 305.013 182.329C305.51 182.082 306.112 182.284 306.362 182.778C306.43 182.909 307.891 185.637 311.57 184.735C312.11 184.6 312.657 184.932 312.789 185.473C312.922 186.013 312.592 186.559 312.052 186.692C311.368 186.86 310.731 186.934 310.136 186.934Z" fill="white"/>
<path fill-rule="evenodd" clip-rule="evenodd" d="M356.991 136.85C362.391 136.85 366.77 141.354 366.77 146.91V149.08C366.77 154.636 362.391 159.14 356.991 159.14H345.685L356.991 136.85Z" fill="#FFBFAA"/>
<path fill-rule="evenodd" clip-rule="evenodd" d="M265.158 139.119C264.679 139.119 264.254 138.777 264.167 138.289L263.038 131.965C262.938 131.417 263.305 130.894 263.852 130.796C264.402 130.697 264.924 131.062 265.021 131.61L266.153 137.934C266.25 138.482 265.885 139.005 265.336 139.103C265.276 139.114 265.216 139.119 265.158 139.119Z" fill="white"/>
<path fill-rule="evenodd" clip-rule="evenodd" d="M308.088 139.843C307.529 139.843 306.994 139.54 306.707 139.012L304.122 134.262C303.854 133.773 304.034 133.161 304.524 132.895C305.013 132.628 305.625 132.81 305.89 133.298L308.286 137.698L309.867 136.999C310.376 136.774 310.971 137.004 311.196 137.513C311.423 138.023 311.191 138.618 310.684 138.843L308.728 139.706C308.52 139.799 308.303 139.843 308.088 139.843Z" fill="white"/>
<path fill-rule="evenodd" clip-rule="evenodd" d="M349.317 143.001L350.736 138.786C350.991 138.035 351.91 137.794 352.48 138.33L356.252 141.863L354.51 147.376L348.375 145.196L349.317 143.001Z" fill="#FFBFAA"/>
<path fill-rule="evenodd" clip-rule="evenodd" d="M357.481 144.674C356.881 144.674 356.302 144.378 355.944 143.843L354.316 141.393C354.006 140.929 354.131 140.303 354.595 139.995C355.06 139.686 355.685 139.812 355.992 140.276L357.545 142.609L358.737 142.052C359.242 141.815 359.841 142.033 360.076 142.537C360.313 143.041 360.096 143.641 359.591 143.877L358.262 144.499C358.01 144.617 357.743 144.674 357.481 144.674Z" fill="#001E57"/>
<path fill-rule="evenodd" clip-rule="evenodd" d="M275.405 163.844C275.053 163.844 274.711 163.659 274.526 163.331C274.253 162.846 274.423 162.231 274.91 161.958C283.386 157.18 291.117 139.383 291.195 139.204C291.414 138.693 292.006 138.457 292.518 138.677C293.031 138.897 293.265 139.49 293.046 140.001C292.721 140.758 284.962 158.605 275.9 163.714C275.742 163.802 275.572 163.844 275.405 163.844Z" fill="white"/>
<path fill-rule="evenodd" clip-rule="evenodd" d="M328.477 140.003C328.407 140.003 328.334 139.996 328.262 139.98L321.31 138.464C320.765 138.345 320.421 137.808 320.541 137.264C320.658 136.721 321.198 136.375 321.74 136.495L328.691 138.011C329.236 138.129 329.581 138.666 329.461 139.21C329.358 139.682 328.941 140.003 328.477 140.003Z" fill="#001E57"/>
<path fill-rule="evenodd" clip-rule="evenodd" d="M490.926 188.42H492.675V186.182H490.926V188.42ZM490.926 194.415H492.675V191.418H490.926V194.415ZM490.926 200.411H492.675V197.414H490.926V200.411ZM490.926 206.406H492.675V203.409H490.926V206.406ZM490.926 212.401H492.675V209.404H490.926V212.401ZM490.926 218.397H492.675V215.399H490.926V218.397ZM490.926 224.392H492.675V221.394H490.926V224.392ZM490.926 230.387H492.675V227.389H490.926V230.387ZM490.926 236.382H492.675V233.384H490.926V236.382ZM490.926 242.377H492.675V239.379H490.926V242.377ZM490.926 248.372H492.675V245.375H490.926V248.372ZM490.926 254.367H492.675V251.37H490.926V254.367ZM490.926 260.362H492.675V257.365H490.926V260.362ZM490.926 266.357H492.675V263.36H490.926V266.357ZM490.926 272.352H492.675V269.355H490.926V272.352ZM490.926 278.348H492.675V275.35H490.926V278.348ZM437.143 284.515H440.14V282.766H437.143V284.515ZM443.138 284.515H446.135V282.766H443.138V284.515ZM449.133 284.515H452.131V282.766H449.133V284.515ZM455.128 284.515H458.126V282.766H455.128V284.515ZM461.123 284.515H464.121V282.766H461.123V284.515ZM467.118 284.515H470.116V282.766H467.118V284.515ZM473.113 284.515H476.111V282.766H473.113V284.515ZM479.109 284.515H482.106V282.766H479.109V284.515ZM485.104 284.515H488.101V282.766H485.104V284.515ZM492.675 284.515H491.099V283.641H490.926V281.345H492.675V284.515Z" fill="#CFE4FF"/>
<path fill-rule="evenodd" clip-rule="evenodd" d="M346.839 284.515H349.837V282.766H346.839V284.515ZM352.834 284.515H355.832V282.766H352.834V284.515ZM358.829 284.515H361.827V282.766H358.829V284.515ZM364.824 284.515H367.822V282.766H364.824V284.515ZM370.82 284.515H373.817V282.766H370.82V284.515ZM376.815 284.515H379.812V282.766H376.815V284.515ZM382.81 284.515H385.807V282.766H382.81V284.515Z" fill="#CFE4FF"/>
<path fill-rule="evenodd" clip-rule="evenodd" d="M269.385 31.9908H272.383V30.2422H269.385V31.9908ZM275.38 31.9908H278.378V30.2422H275.38V31.9908ZM281.375 31.9908H284.373V30.2422H281.375V31.9908ZM287.37 31.9908H290.368V30.2422H287.37V31.9908ZM293.365 31.9908H296.363V30.2422H293.365V31.9908ZM299.361 31.9908H302.358V30.2422H299.361V31.9908ZM305.356 31.9908H308.353V30.2422H305.356V31.9908ZM311.351 31.9908H314.348V30.2422H311.351V31.9908ZM317.346 31.9908H320.343V30.2422H317.346V31.9908ZM323.341 31.9908H326.338V30.2422H323.341V31.9908ZM328.432 34.1445H330.18V31.1469H328.432V34.1445ZM328.432 40.1396H330.18V37.1421H328.432V40.1396ZM328.432 46.1347H330.18V43.1372H328.432V46.1347ZM328.432 52.1298H330.18V49.1323H328.432V52.1298ZM328.432 58.1249H330.18V55.1274H328.432V58.1249ZM328.432 64.12H330.18V61.1225H328.432V64.12ZM328.432 70.1151H330.18V67.1176H328.432V70.1151ZM328.432 76.1102H330.18V73.1127H328.432V76.1102ZM328.432 82.1053H330.18V79.1078H328.432V82.1053Z" fill="#CFE4FF"/>
<path fill-rule="evenodd" clip-rule="evenodd" d="M482.923 73.7613H485.92V72.0127H482.923V73.7613ZM488.918 73.7613H491.916V72.0127H488.918V73.7613ZM494.913 73.7613H497.911V72.0127H494.913V73.7613ZM500.908 73.7613H503.906V72.0127H500.908V73.7613ZM506.903 73.7613H509.901V72.0127H506.903V73.7613Z" fill="#CFE4FF"/>
<path fill-rule="evenodd" clip-rule="evenodd" d="M5.43512 46.8575H8.43267V45.1089H5.43512V46.8575ZM11.4302 46.8575H14.4278V45.1089H11.4302V46.8575ZM17.4253 46.8575H20.4229V45.1089H17.4253V46.8575ZM23.4204 46.8575H26.418V45.1089H23.4204V46.8575ZM29.4155 46.8575H32.4131V45.1089H29.4155V46.8575ZM35.4106 46.8575H38.4082V45.1089H35.4106V46.8575ZM41.4057 46.8575H44.4033V45.1089H41.4057V46.8575ZM47.4008 46.8575H50.3984V45.1089H47.4008V46.8575ZM53.3959 46.8575H56.3935V45.1089H53.3959V46.8575ZM59.391 46.8575H62.3886V45.1089H59.391V46.8575ZM65.3861 46.8575H68.3837V45.1089H65.3861V46.8575ZM71.3812 46.8575H74.3788V45.1089H71.3812V46.8575ZM77.3763 46.8575H80.3739V45.1089H77.3763V46.8575ZM83.3714 46.8575H86.369V45.1089H83.3714V46.8575ZM89.3665 46.8575H92.3641V45.1089H89.3665V46.8575ZM95.3616 46.8575H98.3592V45.1089H95.3616V46.8575ZM101.357 46.8575H104.354V45.1089H101.357V46.8575ZM107.352 46.8575H110.349V45.1089H107.352V46.8575ZM113.347 46.8575H115.61V45.1089H113.347V46.8575ZM2.19526 48.4776L0.321045 45.1089H2.43757V45.633L2.57196 45.558L3.72327 47.6276L2.19526 48.4776ZM5.11013 53.7166L3.65282 51.097L5.18082 50.2469L6.63813 52.8663L5.11013 53.7166ZM8.02475 58.9553L6.56744 56.336L8.09544 55.4859L9.55275 58.1053L8.02475 58.9553ZM10.9394 64.1943L9.48206 61.5747L11.0101 60.7246L12.4674 63.344L10.9394 64.1943ZM13.854 69.433L12.3967 66.8137L13.9249 65.9636L15.3822 68.583L13.854 69.433ZM16.7689 74.672L15.3113 72.0526L16.8396 71.2023L18.2969 73.8219L16.7689 74.672ZM19.6835 79.9107L18.2262 77.2913L19.7542 76.4413L21.2115 79.0606L19.6835 79.9107ZM22.5981 85.1497L21.1408 82.5303L22.669 81.68L24.1261 84.2996L22.5981 85.1497ZM25.513 90.3886L24.0557 87.769L25.5837 86.919L27.041 89.5383L25.513 90.3886ZM28.4276 95.6274L26.9703 93.008L28.4983 92.1579L29.9556 94.7773L28.4276 95.6274ZM31.3422 100.866L29.8849 98.247L31.4129 97.3967L32.8702 100.016L31.3422 100.866ZM34.2571 106.105L32.7998 103.486L34.3278 102.636L35.7851 105.255L34.2571 106.105Z" fill="#72ACFF"/>
<path fill-rule="evenodd" clip-rule="evenodd" d="M461.438 30.3138H357.67C357.298 30.3138 356.998 30.0133 356.998 29.6426C356.998 29.2722 357.298 28.9717 357.67 28.9717H461.438C461.81 28.9717 462.11 29.2722 462.11 29.6426C462.11 30.0133 461.81 30.3138 461.438 30.3138Z" fill="white"/>
<path fill-rule="evenodd" clip-rule="evenodd" d="M70.122 45.9832C70.122 47.8432 68.614 49.3512 66.754 49.3512C64.894 49.3512 63.386 47.8432 63.386 45.9832C63.386 44.1233 64.894 42.6152 66.754 42.6152C68.614 42.6152 70.122 44.1233 70.122 45.9832Z" fill="#CFE4FF"/>
<path fill-rule="evenodd" clip-rule="evenodd" d="M23.1603 78.554C23.1603 80.414 21.6523 81.922 19.7923 81.922C17.9323 81.922 16.4243 80.414 16.4243 78.554C16.4243 76.6938 17.9323 75.186 19.7923 75.186C21.6523 75.186 23.1603 76.6938 23.1603 78.554Z" fill="#72ACFF"/>
<path fill-rule="evenodd" clip-rule="evenodd" d="M332.209 30.4751C332.209 33.1447 330.043 35.3087 327.375 35.3087C324.705 35.3087 322.542 33.1447 322.542 30.4751C322.542 27.8058 324.705 25.6418 327.375 25.6418C330.043 25.6418 332.209 27.8058 332.209 30.4751Z" fill="#CFE4FF"/>
<path fill-rule="evenodd" clip-rule="evenodd" d="M495.093 283.433C495.093 286.101 492.93 288.267 490.259 288.267C487.589 288.267 485.426 286.101 485.426 283.433C485.426 280.763 487.589 278.6 490.259 278.6C492.93 278.6 495.093 280.763 495.093 283.433Z" fill="#CFE4FF"/>
<path fill-rule="evenodd" clip-rule="evenodd" d="M181.128 107.809H182.877V105.334H181.128V107.809ZM181.128 113.804H182.877V110.807H181.128V113.804ZM181.128 119.799H182.877V116.802H181.128V119.799ZM181.128 125.794H182.877V122.797H181.128V125.794Z" fill="#CFE4FF"/>
<path fill-rule="evenodd" clip-rule="evenodd" d="M206.661 165.166H209.659V163.417H206.661V165.166ZM212.656 165.166H215.654V163.417H212.656V165.166ZM218.651 165.166H221.649V163.417H218.651V165.166ZM224.646 165.166H227.644V163.417H224.646V165.166ZM230.642 165.166H233.639V163.417H230.642V165.166ZM236.637 165.166H239.634V163.417H236.637V165.166ZM242.632 165.166H245.629V163.417H242.632V165.166Z" fill="#CFE4FF"/>
<path fill-rule="evenodd" clip-rule="evenodd" d="M409.263 272.268L396.614 289.846L409.198 298.106L422.018 280.306L409.263 272.268Z" fill="#CFE4FF"/>
<path fill-rule="evenodd" clip-rule="evenodd" d="M418.543 271.303C422.14 273.409 423.694 277.441 422.018 280.306C420.339 283.171 416.062 283.788 412.465 281.682C408.868 279.577 407.312 275.547 408.991 272.68C410.669 269.815 414.946 269.198 418.543 271.303Z" fill="#CFE4FF"/>
<path fill-rule="evenodd" clip-rule="evenodd" d="M403.126 294.407C402.976 294.407 402.821 294.362 402.689 294.267C402.354 294.025 402.276 293.555 402.519 293.22L414.896 276.054C415.138 275.72 415.606 275.645 415.943 275.885C416.278 276.127 416.355 276.597 416.113 276.931L403.735 294.097C403.588 294.3 403.358 294.407 403.126 294.407Z" fill="white"/>
<path fill-rule="evenodd" clip-rule="evenodd" d="M406.166 288.469C409.763 290.575 411.319 294.604 409.64 297.472C407.962 300.337 403.685 300.954 400.088 298.848C396.491 296.743 394.937 292.713 396.613 289.846C398.292 286.981 402.569 286.364 406.166 288.469Z" fill="#CFE4FF"/>
<path fill-rule="evenodd" clip-rule="evenodd" d="M401.737 287.967C401.412 287.967 401.092 287.99 400.778 288.035C399.204 288.262 397.955 289.039 397.261 290.225C396.566 291.409 396.501 292.881 397.073 294.362C397.668 295.906 398.874 297.27 400.468 298.201C403.703 300.095 407.527 299.598 408.993 297.092C409.688 295.908 409.753 294.437 409.181 292.956C408.586 291.412 407.38 290.048 405.786 289.116C404.5 288.362 403.091 287.967 401.737 287.967ZM404.517 300.842C402.941 300.842 401.265 300.405 399.711 299.495C397.825 298.391 396.391 296.76 395.674 294.902C394.935 292.986 395.04 291.055 395.969 289.469C396.896 287.88 398.53 286.846 400.563 286.551C402.536 286.269 404.66 286.718 406.543 287.822C408.429 288.927 409.863 290.558 410.58 292.416C411.319 294.332 411.217 296.263 410.287 297.849C409.143 299.803 406.948 300.842 404.517 300.842Z" fill="white"/>
<path fill-rule="evenodd" clip-rule="evenodd" d="M409.858 268.863C409.663 268.863 409.471 268.788 409.323 268.641L402.591 261.781C402.301 261.486 402.306 261.012 402.601 260.722C402.898 260.432 403.373 260.435 403.663 260.732L410.392 267.589C410.682 267.886 410.677 268.358 410.382 268.651C410.237 268.793 410.048 268.863 409.858 268.863Z" fill="#CFE4FF"/>
<path fill-rule="evenodd" clip-rule="evenodd" d="M416.172 267.199C416.087 267.199 416 267.184 415.915 267.154C415.528 267.012 415.326 266.582 415.468 266.195L418.348 258.284C418.491 257.894 418.92 257.695 419.31 257.834C419.697 257.977 419.897 258.406 419.757 258.796L416.877 266.707C416.767 267.012 416.477 267.199 416.172 267.199Z" fill="#CFE4FF"/>
</svg>
