<?xml version="1.0" encoding="UTF-8" standalone="no"?>
<svg
   xmlns:dc="http://purl.org/dc/elements/1.1/"
   xmlns:cc="http://creativecommons.org/ns#"
   xmlns:rdf="http://www.w3.org/1999/02/22-rdf-syntax-ns#"
   xmlns:svg="http://www.w3.org/2000/svg"
   xmlns="http://www.w3.org/2000/svg"
   xmlns:sodipodi="http://sodipodi.sourceforge.net/DTD/sodipodi-0.dtd"
   xmlns:inkscape="http://www.inkscape.org/namespaces/inkscape"
   width="148"
   height="48"
   viewBox="0 0 148 48"
   version="1.1"
   id="svg21"
   sodipodi:docname="logo.svg"
   inkscape:version="0.92.3 (2405546, 2018-03-11)">
  <metadata
     id="metadata27">
    <rdf:RDF>
      <cc:Work
         rdf:about="">
        <dc:format>image/svg+xml</dc:format>
        <dc:type
           rdf:resource="http://purl.org/dc/dcmitype/StillImage" />
        <dc:title>navbar__logo</dc:title>
      </cc:Work>
    </rdf:RDF>
  </metadata>
  <defs
     id="defs25" />
  <sodipodi:namedview
     pagecolor="#ffffff"
     bordercolor="#666666"
     borderopacity="1"
     objecttolerance="10"
     gridtolerance="10"
     guidetolerance="10"
     inkscape:pageopacity="0"
     inkscape:pageshadow="2"
     inkscape:window-width="1920"
     inkscape:window-height="1012"
     id="namedview23"
     showgrid="false"
     inkscape:zoom="1.7395833"
     inkscape:cx="94"
     inkscape:cy="23.5"
     inkscape:window-x="0"
     inkscape:window-y="919"
     inkscape:window-maximized="1"
     inkscape:current-layer="svg21" />
  <!-- Generator: Sketch 60 (88103) - https://sketch.com -->
  <title
     id="title2">navbar__logo</title>
  <desc
     id="desc4">Created with Sketch.</desc>
  <g
     id="navbar__logo"
     style="fill:none;fill-rule:evenodd;stroke:none;stroke-width:1"
     transform="translate(-2,-2)">
    <g
       id="Logo"
       transform="translate(2,2)">
      <path
         d="m 4.6956522,17.91287 c 0,-1.248587 -1.0508085,-2.260696 -2.3469256,-2.260696 -6.635e-4,0 -0.00123,0 -0.0018,0 -1.2962119,0 -2.346830813021,1.012109 -2.3469256,2.260696 0,2.743969 0,7.343334 0,10.087304 9.4786979e-5,1.248587 1.0507137,2.260696 2.3469256,2.260696 5.687e-4,0 0.00114,0 0.0018,0 1.2961171,0 2.3469256,-1.012109 2.3469256,-2.260696 0,-2.74397 0,-7.343335 0,-10.087304 z"
         id="Fill-9"
         inkscape:connector-curvature="0"
         style="fill:#2f5ba7" />
      <path
         d="m 29.217391,28.000174 c 0,1.248587 1.050809,2.260696 2.346926,2.260696 6.63e-4,0 0.0012,0 0.0018,0 1.296212,0 2.346925,-1.012109 2.346925,-2.260696 0,-2.74397 0,-7.343335 0,-10.087304 0,-1.248587 -1.050713,-2.260696 -2.346925,-2.260696 -5.69e-4,0 -0.0011,0 -0.0018,0 -1.296117,0 -2.346926,1.012109 -2.346926,2.260696 0,2.743969 0,7.343334 0,10.087304 z"
         id="Fill-10"
         inkscape:connector-curvature="0"
         style="fill:#2f5ba7" />
      <path
         d="M 12,10.602519 C 12,9.3573383 10.949192,8.3478261 9.6530744,8.3478261 c -6.635e-4,0 -0.00123,0 -0.0018,0 -1.2962119,0 -2.3469256,1.0095122 -2.3469256,2.2546929 0,2.745243 0,7.354067 0,10.09931 0,1.245181 1.0507137,2.254693 2.3469256,2.254693 5.688e-4,0 0.00114,0 0.0018,0 C 10.949192,22.956522 12,21.94701 12,20.701829 c 0,-2.745243 0,-7.354067 0,-10.09931 z"
         id="Fill-17"
         inkscape:connector-curvature="0"
         style="fill:#2f5ba7" />
      <path
         d="M 19.304348,2.2606957 C 19.304348,1.0121087 18.253539,0 16.957422,0 c -6.63e-4,0 -0.0012,0 -0.0018,0 -1.296212,0 -2.346925,1.0121087 -2.346925,2.2606957 0,2.7438782 0,7.3433347 0,10.0873043 0,1.248496 1.050713,2.260696 2.346925,2.260696 5.69e-4,0 0.0011,0 0.0018,0 1.296117,0 2.346926,-1.0122 2.346926,-2.260696 0,-2.7439696 0,-7.3434261 0,-10.0873043 z"
         id="Fill-18"
         inkscape:connector-curvature="0"
         style="fill:#2f5ba7" />
      <path
         d="m 26.608696,10.602519 c 0,-1.2452718 -1.050735,-2.2546929 -2.346973,-2.2546929 -5.69e-4,0 -0.0011,0 -0.0018,0 -1.296144,0 -2.346879,1.0094211 -2.346879,2.2546929 0,2.745243 0,7.354067 0,10.09931 0,1.245181 1.050735,2.254693 2.346879,2.254693 6.63e-4,0 0.0012,0 0.0018,0 1.296238,0 2.346973,-1.009512 2.346973,-2.254693 0,-2.745243 0,-7.354067 0,-10.09931 z"
         id="Fill-19"
         inkscape:connector-curvature="0"
         style="fill:#2f5ba7" />
      <path
         d="m 19.304348,18.950345 c 0,-1.245181 -1.050809,-2.254693 -2.346926,-2.254693 -1.298013,0 -2.348726,1.009512 -2.348726,2.254693 0,2.745243 0,7.354067 0,10.09931 0,1.245181 1.050713,2.254693 2.346925,2.254693 1.297918,0 2.348727,-1.009512 2.348727,-2.254693 0,-2.745243 0,-7.354067 0,-10.09931 z"
         id="Fill-20"
         inkscape:connector-curvature="0"
         style="fill:#2f5ba7" />
      <path
         d="m 12,35.605863 c 0,-1.223105 -1.050714,-2.214559 -2.3469256,-2.214559 -5.687e-4,0 -0.00114,0 -0.0018,0 -1.2961171,0 -2.3469256,0.991454 -2.3469256,2.214559 0,0.594515 0,1.237238 0,1.831752 0,1.223105 1.0508085,2.214559 2.3469256,2.214559 6.636e-4,0 0.00123,0 0.0018,0 C 10.949286,39.652174 12,38.66072 12,37.437615 c 0,-0.594514 0,-1.237237 0,-1.831752 z"
         id="Fill-11"
         inkscape:connector-curvature="0"
         style="fill:#21a178" />
      <path
         d="m 12,27.258037 c 0,-1.223105 -1.050808,-2.214559 -2.3469256,-2.214559 -5.687e-4,0 -0.00123,0 -0.0018,0 -1.2962119,0 -2.3469256,0.991454 -2.3469256,2.214559 0,0.594515 0,1.237237 0,1.831752 0,1.223105 1.0507137,2.214559 2.3469256,2.214559 5.688e-4,0 0.00123,0 0.0018,0 C 10.949192,31.304348 12,30.312894 12,29.089789 c 0,-0.594515 0,-1.237237 0,-1.831752 z"
         id="Fill-12"
         inkscape:connector-curvature="0"
         style="fill:#21a178" />
      <path
         d="m 19.304348,35.605863 c 0,-1.223105 -1.050809,-2.214559 -2.346926,-2.214559 -6.63e-4,0 -0.0012,0 -0.0018,0 -1.296212,0 -2.346925,0.991454 -2.346925,2.214559 0,0.594515 0,1.237238 0,1.831752 0,1.223105 1.050713,2.214559 2.346925,2.214559 5.69e-4,0 0.0011,0 0.0018,0 1.296117,0 2.346926,-0.991454 2.346926,-2.214559 0,-0.594514 0,-1.237237 0,-1.831752 z"
         id="Fill-13"
         inkscape:connector-curvature="0"
         style="fill:#21a178" />
      <path
         d="m 26.608696,27.258037 c 0,-1.223105 -1.050735,-2.214559 -2.346973,-2.214559 -1.297945,0 -2.34868,0.991454 -2.34868,2.214559 0,0.594515 0,1.237237 0,1.831752 0,1.223105 1.050735,2.214559 2.346879,2.214559 1.298039,0 2.348774,-0.991454 2.348774,-2.214559 0,-0.594515 0,-1.237237 0,-1.831752 z"
         id="Fill-14"
         inkscape:connector-curvature="0"
         style="fill:#21a178" />
      <path
         d="m 19.304348,43.953689 c 0,-1.223105 -1.050809,-2.214559 -2.346926,-2.214559 -6.63e-4,0 -0.0012,0 -0.0018,0 -1.296212,0 -2.346925,0.991454 -2.346925,2.214559 0,0.594515 0,1.237238 0,1.831752 0,1.223106 1.050713,2.21447 2.346925,2.214559 5.69e-4,0 0.0011,0 0.0018,0 1.296117,-8.9e-5 2.346926,-0.991453 2.346926,-2.214559 0,-0.594514 0,-1.237237 0,-1.831752 z"
         id="Fill-15"
         inkscape:connector-curvature="0"
         style="fill:#21a178" />
      <path
         d="m 26.608696,35.605863 c 0,-1.223105 -1.050735,-2.214559 -2.346973,-2.214559 -5.69e-4,0 -0.0011,0 -0.0018,0 -1.296144,0 -2.346879,0.991454 -2.346879,2.214559 0,0.594515 0,1.237238 0,1.831752 0,1.223105 1.050735,2.214559 2.346879,2.214559 6.63e-4,0 0.0012,0 0.0018,0 1.296238,0 2.346973,-0.991454 2.346973,-2.214559 0,-0.594514 0,-1.237237 0,-1.831752 z"
         id="Fill-16"
         inkscape:connector-curvature="0"
         style="fill:#21a178" />
    </g>
    <path
       d="m 54.149051,34.712766 c 4.406012,0 7.286867,-2.800532 7.286867,-8.353723 0,-5.553192 -2.880855,-8.353724 -7.286867,-8.353724 H 48 v 16.707447 z m 0,-2.800532 H 51.19557 V 20.805851 h 2.953481 c 2.372468,0 3.897626,1.388298 3.897626,4.236702 v 2.632979 c 0,2.848404 -1.525158,4.236702 -3.897626,4.236702 z M 67.810918,35 c 1.888291,0 3.268196,-0.837766 3.679747,-2.441489 h 0.145253 c 0.193671,1.292553 1.016772,2.154255 2.348259,2.154255 h 1.718829 v -2.441489 h -1.25886 v -5.888298 c 0,-2.848404 -1.815665,-4.452128 -5.229114,-4.452128 -2.541931,0 -4.018671,0.957447 -4.938608,2.393617 l 1.839874,1.62766 c 0.605221,-0.861703 1.428322,-1.579788 2.880854,-1.579788 1.646202,0 2.348259,0.81383 2.348259,2.202128 v 0.909575 h -2.154588 c -3.437658,0 -5.398576,1.268617 -5.398576,3.829787 0,2.226064 1.452531,3.68617 4.018671,3.68617 z m 1.040981,-2.226064 c -1.210443,0 -1.9125,-0.502659 -1.9125,-1.507979 v -0.406914 c 0,-0.981383 0.798892,-1.531915 2.420886,-1.531915 h 1.985126 v 1.651595 c 0,1.172873 -1.113607,1.795213 -2.493512,1.795213 z m 15.646993,1.93883 v -2.441489 h -2.396677 v -7.611702 h 2.590348 v -2.44149 h -2.590348 v -3.422872 h -2.784019 v 2.130319 c 0,0.861702 -0.290506,1.292553 -1.210443,1.292553 h -0.968354 v 2.44149 h 1.864082 v 6.86968 c 0,2.034575 1.137816,3.183511 3.268196,3.183511 z M 90.70443,35 c 1.888291,0 3.268197,-0.837766 3.679747,-2.441489 h 0.145253 c 0.193671,1.292553 1.016773,2.154255 2.34826,2.154255 h 1.718829 v -2.441489 h -1.258861 v -5.888298 c 0,-2.848404 -1.815664,-4.452128 -5.229114,-4.452128 -2.54193,0 -4.018671,0.957447 -4.938607,2.393617 l 1.839873,1.62766 c 0.605222,-0.861703 1.428323,-1.579788 2.880855,-1.579788 1.646202,0 2.348259,0.81383 2.348259,2.202128 v 0.909575 h -2.154589 c -3.437658,0 -5.398575,1.268617 -5.398575,3.829787 0,2.226064 1.452531,3.68617 4.01867,3.68617 z m 1.040981,-2.226064 c -1.210443,0 -1.9125,-0.502659 -1.9125,-1.507979 v -0.406914 c 0,-0.981383 0.798893,-1.531915 2.420887,-1.531915 h 1.985126 v 1.651595 c 0,1.172873 -1.113608,1.795213 -2.493513,1.795213 z m 12.669309,1.93883 v -7.659575 c 0,-1.364361 1.08939,-1.938829 3.17136,-1.938829 h 0.96835 v -2.896277 h -0.67785 c -2.00933,0 -3.0261,1.268617 -3.34082,2.585106 h -0.12104 v -2.585106 h -3.09874 V 34.712766 Z M 113.88845,35 c 1.88829,0 3.2682,-0.837766 3.67975,-2.441489 h 0.14525 c 0.19367,1.292553 1.01677,2.154255 2.34826,2.154255 h 1.71883 v -2.441489 h -1.25886 v -5.888298 c 0,-2.848404 -1.81567,-4.452128 -5.22912,-4.452128 -2.54193,0 -4.01867,0.957447 -4.9386,2.393617 l 1.83987,1.62766 c 0.60522,-0.861703 1.42832,-1.579788 2.88085,-1.579788 1.64621,0 2.34826,0.81383 2.34826,2.202128 v 0.909575 h -2.15459 c -3.43765,0 -5.39857,1.268617 -5.39857,3.829787 0,2.226064 1.45253,3.68617 4.01867,3.68617 z m 1.04098,-2.226064 c -1.21044,0 -1.9125,-0.502659 -1.9125,-1.507979 v -0.406914 c 0,-0.981383 0.79889,-1.531915 2.42089,-1.531915 h 1.98512 v 1.651595 c 0,1.172873 -1.1136,1.795213 -2.49351,1.795213 z M 128.73655,35 c 1.67041,0 3.02611,-0.957447 3.48608,-2.369681 h 0.12104 v 2.082447 h 3.09873 V 17 h -3.09873 v 7.276596 h -0.12104 c -0.43576,-1.436171 -1.81567,-2.345745 -3.48608,-2.345745 -3.17136,0 -4.93861,2.345745 -4.93861,6.510638 0,4.18883 1.76725,6.558511 4.93861,6.558511 z m 0.99256,-2.537234 c -1.59778,0 -2.68718,-1.148936 -2.68718,-2.920213 v -2.154255 c 0,-1.771277 1.0894,-2.944149 2.68718,-2.944149 1.47674,0 2.61456,0.789894 2.61456,2.010638 v 3.973404 c 0,1.292554 -1.13782,2.034575 -2.61456,2.034575 z M 144.33513,35 c 2.34826,0 4.18813,-0.885638 5.22911,-2.297872 l -1.67041,-1.843085 c -0.77468,0.981382 -1.69462,1.699468 -3.21978,1.699468 -2.03354,0 -3.07453,-1.220745 -3.07453,-3.015958 v -0.31117 H 150 v -1.005319 c 0,-3.422873 -1.81567,-6.295213 -5.76171,-6.295213 -3.70396,0 -5.85854,2.56117 -5.85854,6.510638 0,3.997341 2.22721,6.558511 5.95538,6.558511 z m 2.44509,-7.659575 h -5.1807 v -0.191489 c 0,-1.723404 1.06519,-2.920213 2.68719,-2.920213 1.59778,0 2.49351,1.172873 2.49351,2.896277 z"
       id="Datarade"
       inkscape:connector-curvature="0"
       style="fill:#3f495a;fill-rule:nonzero" />
  </g>
</svg>
