<svg width="60" height="56" viewBox="0 0 60 56" fill="none" xmlns="http://www.w3.org/2000/svg">
<circle cx="26.7332" cy="26.7332" r="26.7332" fill="#70C9FE"/>
<g style="mix-blend-mode:hard-light">
<path d="M45.714 54.4594V49.5405C52.7181 48.5247 56.3003 44.2474 56.3003 38.7403C56.3003 33.2333 52.825 30.2392 45.2328 28.4748V18.53C48.0665 19.1181 49.9913 20.4548 51.3814 22.1657L55.7657 18.3696C53.3597 15.429 50.1517 13.6646 45.714 13.1834V8.3714H40.4208V13.1834C33.7375 13.9319 29.8344 17.5676 29.8344 23.2351C29.8344 28.4748 33.0959 31.8432 40.902 33.5006V44.3543C37.7475 43.9266 35.1811 42.3226 33.0959 39.9166L28.7651 43.8731C31.4384 46.9741 35.0207 49.2732 40.4208 49.7009V54.4594H45.714ZM36.3039 22.9677C36.3039 20.5617 37.8544 19.0112 40.902 18.4766V27.5124C37.7475 26.6569 36.3039 25.4807 36.3039 22.9677ZM49.8844 39.2215C49.8844 41.7344 48.2269 43.6592 45.2328 44.3008V34.463C48.815 35.4254 49.8844 37.0829 49.8844 39.2215Z" fill="#2051B0"/>
</g>
</svg>
