<svg xmlns="http://www.w3.org/2000/svg" width="334.608" height="322" viewBox="0 0 334.608 322">
  <path id="Combined_Shape" data-name="Combined Shape" d="M327.578,318.485A3.515,3.515,0,1,1,331.094,322,3.516,3.516,0,0,1,327.578,318.485Zm-21.089,0A3.515,3.515,0,1,1,310.005,322,3.516,3.516,0,0,1,306.49,318.485Zm-21.088,0A3.514,3.514,0,1,1,288.916,322,3.515,3.515,0,0,1,285.4,318.485Zm-21.089,0A3.515,3.515,0,1,1,267.827,322,3.515,3.515,0,0,1,264.313,318.485Zm-21.089,0A3.515,3.515,0,1,1,246.739,322,3.515,3.515,0,0,1,243.224,318.485Zm-21.089,0A3.515,3.515,0,1,1,225.65,322,3.515,3.515,0,0,1,222.135,318.485Zm-21.089,0A3.514,3.514,0,1,1,204.561,322,3.515,3.515,0,0,1,201.047,318.485Zm-21.089,0A3.515,3.515,0,1,1,183.472,322,3.515,3.515,0,0,1,179.958,318.485Zm-21.089,0A3.515,3.515,0,1,1,162.383,322,3.515,3.515,0,0,1,158.869,318.485Zm-21.089,0A3.514,3.514,0,1,1,141.295,322,3.515,3.515,0,0,1,137.78,318.485Zm-21.089,0A3.515,3.515,0,1,1,120.206,322,3.515,3.515,0,0,1,116.691,318.485Zm-21.089,0A3.514,3.514,0,1,1,99.117,322,3.515,3.515,0,0,1,95.6,318.485Zm-21.089,0A3.515,3.515,0,1,1,78.028,322,3.515,3.515,0,0,1,74.514,318.485Zm-21.089,0A3.515,3.515,0,1,1,56.939,322,3.515,3.515,0,0,1,53.425,318.485Zm-21.089,0A3.515,3.515,0,1,1,35.851,322,3.515,3.515,0,0,1,32.336,318.485Zm-21.089,0A3.515,3.515,0,1,1,14.762,322,3.515,3.515,0,0,1,11.247,318.485Zm305.084-11.249a3.515,3.515,0,1,1,3.515,3.515A3.516,3.516,0,0,1,316.331,307.236Zm-21.089,0a3.515,3.515,0,1,1,3.515,3.515A3.516,3.516,0,0,1,295.242,307.236Zm-21.088,0a3.514,3.514,0,1,1,3.514,3.515A3.515,3.515,0,0,1,274.154,307.236Zm-21.089,0a3.514,3.514,0,1,1,3.514,3.515A3.515,3.515,0,0,1,253.066,307.236Zm-21.089,0a3.514,3.514,0,1,1,3.514,3.515A3.515,3.515,0,0,1,231.977,307.236Zm-21.089,0a3.515,3.515,0,1,1,3.515,3.515A3.515,3.515,0,0,1,210.888,307.236Zm-21.089,0a3.514,3.514,0,1,1,3.514,3.515A3.515,3.515,0,0,1,189.8,307.236Zm-21.089,0a3.515,3.515,0,1,1,3.514,3.515A3.515,3.515,0,0,1,168.71,307.236Zm-21.089,0a3.515,3.515,0,1,1,3.515,3.515A3.515,3.515,0,0,1,147.622,307.236Zm-21.089,0a3.514,3.514,0,1,1,3.514,3.515A3.515,3.515,0,0,1,126.533,307.236Zm-21.089,0a3.514,3.514,0,1,1,3.515,3.515A3.515,3.515,0,0,1,105.444,307.236Zm-21.089,0a3.514,3.514,0,1,1,3.515,3.515A3.515,3.515,0,0,1,84.355,307.236Zm-21.089,0a3.515,3.515,0,1,1,3.514,3.515A3.515,3.515,0,0,1,63.266,307.236Zm-21.089,0a3.515,3.515,0,1,1,3.514,3.515A3.515,3.515,0,0,1,42.178,307.236Zm-21.089,0a3.515,3.515,0,1,1,3.514,3.515A3.515,3.515,0,0,1,21.089,307.236ZM0,307.236a3.515,3.515,0,1,1,3.515,3.515A3.515,3.515,0,0,1,0,307.236Zm327.578-11.249a3.515,3.515,0,1,1,3.515,3.515A3.516,3.516,0,0,1,327.578,295.987Zm-21.089,0a3.515,3.515,0,1,1,3.515,3.515A3.516,3.516,0,0,1,306.49,295.987Zm-21.088,0a3.514,3.514,0,1,1,3.514,3.515A3.515,3.515,0,0,1,285.4,295.987Zm-21.089,0a3.515,3.515,0,1,1,3.514,3.515A3.515,3.515,0,0,1,264.313,295.987Zm-21.089,0a3.515,3.515,0,1,1,3.514,3.515A3.515,3.515,0,0,1,243.224,295.987Zm-21.089,0a3.515,3.515,0,1,1,3.515,3.515A3.515,3.515,0,0,1,222.135,295.987Zm-21.089,0a3.514,3.514,0,1,1,3.514,3.515A3.515,3.515,0,0,1,201.047,295.987Zm-21.089,0a3.515,3.515,0,1,1,3.514,3.515A3.515,3.515,0,0,1,179.958,295.987Zm-21.089,0a3.515,3.515,0,1,1,3.515,3.515A3.515,3.515,0,0,1,158.869,295.987Zm-21.089,0a3.514,3.514,0,1,1,3.514,3.515A3.515,3.515,0,0,1,137.78,295.987Zm-21.089,0a3.515,3.515,0,1,1,3.515,3.515A3.515,3.515,0,0,1,116.691,295.987Zm-21.089,0a3.514,3.514,0,1,1,3.515,3.515A3.515,3.515,0,0,1,95.6,295.987Zm-21.089,0a3.515,3.515,0,1,1,3.514,3.515A3.515,3.515,0,0,1,74.514,295.987Zm-21.089,0a3.515,3.515,0,1,1,3.514,3.515A3.515,3.515,0,0,1,53.425,295.987Zm-21.089,0a3.515,3.515,0,1,1,3.514,3.515A3.515,3.515,0,0,1,32.336,295.987Zm-21.089,0a3.515,3.515,0,1,1,3.515,3.515A3.515,3.515,0,0,1,11.247,295.987Zm305.084-11.248a3.515,3.515,0,1,1,3.515,3.515A3.516,3.516,0,0,1,316.331,284.738Zm-21.089,0a3.515,3.515,0,1,1,3.515,3.515A3.516,3.516,0,0,1,295.242,284.738Zm-21.088,0a3.514,3.514,0,1,1,3.514,3.515A3.515,3.515,0,0,1,274.154,284.738Zm-21.089,0a3.514,3.514,0,1,1,3.514,3.515A3.515,3.515,0,0,1,253.066,284.738Zm-21.089,0a3.514,3.514,0,1,1,3.514,3.515A3.515,3.515,0,0,1,231.977,284.738Zm-21.089,0a3.515,3.515,0,1,1,3.515,3.515A3.515,3.515,0,0,1,210.888,284.738Zm-21.089,0a3.514,3.514,0,1,1,3.514,3.515A3.515,3.515,0,0,1,189.8,284.738Zm-21.089,0a3.515,3.515,0,1,1,3.514,3.515A3.515,3.515,0,0,1,168.71,284.738Zm-21.089,0a3.515,3.515,0,1,1,3.515,3.515A3.515,3.515,0,0,1,147.622,284.738Zm-21.089,0a3.514,3.514,0,1,1,3.514,3.515A3.515,3.515,0,0,1,126.533,284.738Zm-21.089,0a3.514,3.514,0,1,1,3.515,3.515A3.515,3.515,0,0,1,105.444,284.738Zm-21.089,0a3.514,3.514,0,1,1,3.515,3.515A3.515,3.515,0,0,1,84.355,284.738Zm-21.089,0a3.515,3.515,0,1,1,3.514,3.515A3.515,3.515,0,0,1,63.266,284.738Zm-21.089,0a3.515,3.515,0,1,1,3.514,3.515A3.515,3.515,0,0,1,42.178,284.738Zm-21.089,0a3.515,3.515,0,1,1,3.514,3.515A3.515,3.515,0,0,1,21.089,284.738ZM0,284.738a3.515,3.515,0,1,1,3.515,3.515A3.515,3.515,0,0,1,0,284.738Zm327.578-11.249A3.515,3.515,0,1,1,331.094,277,3.516,3.516,0,0,1,327.578,273.489Zm-21.089,0A3.515,3.515,0,1,1,310.005,277,3.516,3.516,0,0,1,306.49,273.489Zm-21.088,0A3.514,3.514,0,1,1,288.916,277,3.515,3.515,0,0,1,285.4,273.489Zm-21.089,0A3.515,3.515,0,1,1,267.827,277,3.515,3.515,0,0,1,264.313,273.489Zm-21.089,0A3.515,3.515,0,1,1,246.739,277,3.515,3.515,0,0,1,243.224,273.489Zm-21.089,0A3.515,3.515,0,1,1,225.65,277,3.515,3.515,0,0,1,222.135,273.489Zm-21.089,0A3.514,3.514,0,1,1,204.561,277,3.515,3.515,0,0,1,201.047,273.489Zm-21.089,0A3.515,3.515,0,1,1,183.472,277,3.515,3.515,0,0,1,179.958,273.489Zm-21.089,0A3.515,3.515,0,1,1,162.383,277,3.515,3.515,0,0,1,158.869,273.489Zm-21.089,0A3.514,3.514,0,1,1,141.295,277,3.515,3.515,0,0,1,137.78,273.489Zm-21.089,0A3.515,3.515,0,1,1,120.206,277,3.515,3.515,0,0,1,116.691,273.489Zm-21.089,0A3.514,3.514,0,1,1,99.117,277,3.515,3.515,0,0,1,95.6,273.489Zm-21.089,0A3.515,3.515,0,1,1,78.028,277,3.515,3.515,0,0,1,74.514,273.489Zm-21.089,0A3.515,3.515,0,1,1,56.939,277,3.515,3.515,0,0,1,53.425,273.489Zm-21.089,0A3.515,3.515,0,1,1,35.851,277,3.515,3.515,0,0,1,32.336,273.489Zm-21.089,0A3.515,3.515,0,1,1,14.762,277,3.515,3.515,0,0,1,11.247,273.489ZM316.331,262.24a3.515,3.515,0,1,1,3.515,3.515A3.516,3.516,0,0,1,316.331,262.24Zm-21.089,0a3.515,3.515,0,1,1,3.515,3.515A3.516,3.516,0,0,1,295.242,262.24Zm-21.088,0a3.514,3.514,0,1,1,3.514,3.515A3.515,3.515,0,0,1,274.154,262.24Zm-21.089,0a3.514,3.514,0,1,1,3.514,3.515A3.515,3.515,0,0,1,253.066,262.24Zm-21.089,0a3.514,3.514,0,1,1,3.514,3.515A3.515,3.515,0,0,1,231.977,262.24Zm-21.089,0a3.515,3.515,0,1,1,3.515,3.515A3.515,3.515,0,0,1,210.888,262.24Zm-21.089,0a3.514,3.514,0,1,1,3.514,3.515A3.515,3.515,0,0,1,189.8,262.24Zm-21.089,0a3.515,3.515,0,1,1,3.514,3.515A3.515,3.515,0,0,1,168.71,262.24Zm-21.089,0a3.515,3.515,0,1,1,3.515,3.515A3.515,3.515,0,0,1,147.622,262.24Zm-21.089,0a3.514,3.514,0,1,1,3.514,3.515A3.515,3.515,0,0,1,126.533,262.24Zm-21.089,0a3.514,3.514,0,1,1,3.515,3.515A3.515,3.515,0,0,1,105.444,262.24Zm-21.089,0a3.514,3.514,0,1,1,3.515,3.515A3.515,3.515,0,0,1,84.355,262.24Zm-21.089,0a3.515,3.515,0,1,1,3.514,3.515A3.515,3.515,0,0,1,63.266,262.24Zm-21.089,0a3.515,3.515,0,1,1,3.514,3.515A3.515,3.515,0,0,1,42.178,262.24Zm-21.089,0a3.515,3.515,0,1,1,3.514,3.515A3.515,3.515,0,0,1,21.089,262.24ZM0,262.24a3.515,3.515,0,1,1,3.515,3.515A3.515,3.515,0,0,1,0,262.24Zm327.578-11.249a3.515,3.515,0,1,1,3.515,3.515A3.516,3.516,0,0,1,327.578,250.991Zm-21.089,0a3.515,3.515,0,1,1,3.515,3.515A3.516,3.516,0,0,1,306.49,250.991Zm-21.088,0a3.514,3.514,0,1,1,3.514,3.515A3.515,3.515,0,0,1,285.4,250.991Zm-21.089,0a3.515,3.515,0,1,1,3.514,3.515A3.515,3.515,0,0,1,264.313,250.991Zm-21.089,0a3.515,3.515,0,1,1,3.514,3.515A3.515,3.515,0,0,1,243.224,250.991Zm-21.089,0a3.515,3.515,0,1,1,3.515,3.515A3.515,3.515,0,0,1,222.135,250.991Zm-21.089,0a3.514,3.514,0,1,1,3.514,3.515A3.515,3.515,0,0,1,201.047,250.991Zm-21.089,0a3.515,3.515,0,1,1,3.514,3.515A3.515,3.515,0,0,1,179.958,250.991Zm-21.089,0a3.515,3.515,0,1,1,3.515,3.515A3.515,3.515,0,0,1,158.869,250.991Zm-21.089,0a3.514,3.514,0,1,1,3.514,3.515A3.515,3.515,0,0,1,137.78,250.991Zm-21.089,0a3.515,3.515,0,1,1,3.515,3.515A3.515,3.515,0,0,1,116.691,250.991Zm-21.089,0a3.514,3.514,0,1,1,3.515,3.515A3.515,3.515,0,0,1,95.6,250.991Zm-21.089,0a3.515,3.515,0,1,1,3.514,3.515A3.515,3.515,0,0,1,74.514,250.991Zm-21.089,0a3.515,3.515,0,1,1,3.514,3.515A3.515,3.515,0,0,1,53.425,250.991Zm-21.089,0a3.515,3.515,0,1,1,3.514,3.515A3.515,3.515,0,0,1,32.336,250.991Zm-21.089,0a3.515,3.515,0,1,1,3.515,3.515A3.515,3.515,0,0,1,11.247,250.991Zm305.084-11.248a3.515,3.515,0,1,1,3.515,3.515A3.516,3.516,0,0,1,316.331,239.743Zm-21.089,0a3.515,3.515,0,1,1,3.515,3.515A3.516,3.516,0,0,1,295.242,239.743Zm-21.088,0a3.514,3.514,0,1,1,3.514,3.515A3.515,3.515,0,0,1,274.154,239.743Zm-21.089,0a3.514,3.514,0,1,1,3.514,3.515A3.515,3.515,0,0,1,253.066,239.743Zm-21.089,0a3.514,3.514,0,1,1,3.514,3.515A3.515,3.515,0,0,1,231.977,239.743Zm-21.089,0a3.515,3.515,0,1,1,3.515,3.515A3.515,3.515,0,0,1,210.888,239.743Zm-21.089,0a3.514,3.514,0,1,1,3.514,3.515A3.515,3.515,0,0,1,189.8,239.743Zm-21.089,0a3.515,3.515,0,1,1,3.514,3.515A3.515,3.515,0,0,1,168.71,239.743Zm-21.089,0a3.515,3.515,0,1,1,3.515,3.515A3.515,3.515,0,0,1,147.622,239.743Zm-21.089,0a3.514,3.514,0,1,1,3.514,3.515A3.515,3.515,0,0,1,126.533,239.743Zm-21.089,0a3.514,3.514,0,1,1,3.515,3.515A3.515,3.515,0,0,1,105.444,239.743Zm-21.089,0a3.514,3.514,0,1,1,3.515,3.515A3.515,3.515,0,0,1,84.355,239.743Zm-21.089,0a3.515,3.515,0,1,1,3.514,3.515A3.515,3.515,0,0,1,63.266,239.743Zm-21.089,0a3.515,3.515,0,1,1,3.514,3.515A3.515,3.515,0,0,1,42.178,239.743Zm-21.089,0a3.515,3.515,0,1,1,3.514,3.515A3.515,3.515,0,0,1,21.089,239.743ZM0,239.743a3.515,3.515,0,1,1,3.515,3.515A3.515,3.515,0,0,1,0,239.743Zm327.578-11.249a3.515,3.515,0,1,1,3.515,3.515A3.516,3.516,0,0,1,327.578,228.494Zm-21.089,0a3.515,3.515,0,1,1,3.515,3.515A3.516,3.516,0,0,1,306.49,228.494Zm-21.088,0a3.514,3.514,0,1,1,3.514,3.515A3.515,3.515,0,0,1,285.4,228.494Zm-21.089,0a3.515,3.515,0,1,1,3.514,3.515A3.515,3.515,0,0,1,264.313,228.494Zm-21.089,0a3.515,3.515,0,1,1,3.514,3.515A3.515,3.515,0,0,1,243.224,228.494Zm-21.089,0a3.515,3.515,0,1,1,3.515,3.515A3.515,3.515,0,0,1,222.135,228.494Zm-21.089,0a3.514,3.514,0,1,1,3.514,3.515A3.515,3.515,0,0,1,201.047,228.494Zm-21.089,0a3.515,3.515,0,1,1,3.514,3.515A3.515,3.515,0,0,1,179.958,228.494Zm-21.089,0a3.515,3.515,0,1,1,3.515,3.515A3.515,3.515,0,0,1,158.869,228.494Zm-21.089,0a3.514,3.514,0,1,1,3.514,3.515A3.515,3.515,0,0,1,137.78,228.494Zm-21.089,0a3.515,3.515,0,1,1,3.515,3.515A3.515,3.515,0,0,1,116.691,228.494Zm-21.089,0a3.514,3.514,0,1,1,3.515,3.515A3.515,3.515,0,0,1,95.6,228.494Zm-21.089,0a3.515,3.515,0,1,1,3.514,3.515A3.515,3.515,0,0,1,74.514,228.494Zm-21.089,0a3.515,3.515,0,1,1,3.514,3.515A3.515,3.515,0,0,1,53.425,228.494Zm-21.089,0a3.515,3.515,0,1,1,3.514,3.515A3.515,3.515,0,0,1,32.336,228.494Zm-21.089,0a3.515,3.515,0,1,1,3.515,3.515A3.515,3.515,0,0,1,11.247,228.494Zm305.084-11.249a3.515,3.515,0,1,1,3.515,3.515A3.516,3.516,0,0,1,316.331,217.245Zm-21.089,0a3.515,3.515,0,1,1,3.515,3.515A3.516,3.516,0,0,1,295.242,217.245Zm-21.088,0a3.514,3.514,0,1,1,3.514,3.515A3.515,3.515,0,0,1,274.154,217.245Zm-21.089,0a3.514,3.514,0,1,1,3.514,3.515A3.515,3.515,0,0,1,253.066,217.245Zm-21.089,0a3.514,3.514,0,1,1,3.514,3.515A3.515,3.515,0,0,1,231.977,217.245Zm-21.089,0a3.515,3.515,0,1,1,3.515,3.515A3.515,3.515,0,0,1,210.888,217.245Zm-21.089,0a3.514,3.514,0,1,1,3.514,3.515A3.515,3.515,0,0,1,189.8,217.245Zm-21.089,0a3.515,3.515,0,1,1,3.514,3.515A3.515,3.515,0,0,1,168.71,217.245Zm-21.089,0a3.515,3.515,0,1,1,3.515,3.515A3.515,3.515,0,0,1,147.622,217.245Zm-21.089,0a3.514,3.514,0,1,1,3.514,3.515A3.515,3.515,0,0,1,126.533,217.245Zm-21.089,0a3.514,3.514,0,1,1,3.515,3.515A3.515,3.515,0,0,1,105.444,217.245Zm-21.089,0a3.514,3.514,0,1,1,3.515,3.515A3.515,3.515,0,0,1,84.355,217.245Zm-21.089,0a3.515,3.515,0,1,1,3.514,3.515A3.515,3.515,0,0,1,63.266,217.245Zm-21.089,0a3.515,3.515,0,1,1,3.514,3.515A3.515,3.515,0,0,1,42.178,217.245Zm-21.089,0A3.515,3.515,0,1,1,24.6,220.76,3.515,3.515,0,0,1,21.089,217.245ZM0,217.245a3.515,3.515,0,1,1,3.515,3.515A3.515,3.515,0,0,1,0,217.245ZM327.578,206a3.515,3.515,0,1,1,3.515,3.515A3.516,3.516,0,0,1,327.578,206Zm-21.089,0a3.515,3.515,0,1,1,3.515,3.515A3.516,3.516,0,0,1,306.49,206ZM285.4,206a3.514,3.514,0,1,1,3.514,3.515A3.515,3.515,0,0,1,285.4,206Zm-21.089,0a3.515,3.515,0,1,1,3.514,3.515A3.515,3.515,0,0,1,264.313,206Zm-21.089,0a3.515,3.515,0,1,1,3.514,3.515A3.515,3.515,0,0,1,243.224,206Zm-21.089,0a3.515,3.515,0,1,1,3.515,3.515A3.515,3.515,0,0,1,222.135,206Zm-21.089,0a3.514,3.514,0,1,1,3.514,3.515A3.515,3.515,0,0,1,201.047,206Zm-21.089,0a3.515,3.515,0,1,1,3.514,3.515A3.515,3.515,0,0,1,179.958,206Zm-21.089,0a3.515,3.515,0,1,1,3.515,3.515A3.515,3.515,0,0,1,158.869,206Zm-21.089,0a3.514,3.514,0,1,1,3.514,3.515A3.515,3.515,0,0,1,137.78,206Zm-21.089,0a3.515,3.515,0,1,1,3.515,3.515A3.515,3.515,0,0,1,116.691,206ZM95.6,206a3.514,3.514,0,1,1,3.515,3.515A3.515,3.515,0,0,1,95.6,206Zm-21.089,0a3.515,3.515,0,1,1,3.514,3.515A3.515,3.515,0,0,1,74.514,206Zm-21.089,0a3.515,3.515,0,1,1,3.514,3.515A3.515,3.515,0,0,1,53.425,206Zm-21.089,0a3.515,3.515,0,1,1,3.514,3.515A3.515,3.515,0,0,1,32.336,206Zm-21.089,0a3.515,3.515,0,1,1,3.515,3.515A3.515,3.515,0,0,1,11.247,206Zm305.084-11.249a3.515,3.515,0,1,1,3.515,3.515A3.516,3.516,0,0,1,316.331,194.747Zm-21.089,0a3.515,3.515,0,1,1,3.515,3.515A3.516,3.516,0,0,1,295.242,194.747Zm-21.088,0a3.514,3.514,0,1,1,3.514,3.515A3.515,3.515,0,0,1,274.154,194.747Zm-21.089,0a3.514,3.514,0,1,1,3.514,3.515A3.515,3.515,0,0,1,253.066,194.747Zm-21.089,0a3.514,3.514,0,1,1,3.514,3.515A3.515,3.515,0,0,1,231.977,194.747Zm-21.089,0a3.515,3.515,0,1,1,3.515,3.515A3.515,3.515,0,0,1,210.888,194.747Zm-21.089,0a3.514,3.514,0,1,1,3.514,3.515A3.515,3.515,0,0,1,189.8,194.747Zm-21.089,0a3.515,3.515,0,1,1,3.514,3.515A3.515,3.515,0,0,1,168.71,194.747Zm-21.089,0a3.515,3.515,0,1,1,3.515,3.515A3.515,3.515,0,0,1,147.622,194.747Zm-21.089,0a3.514,3.514,0,1,1,3.514,3.515A3.515,3.515,0,0,1,126.533,194.747Zm-21.089,0a3.514,3.514,0,1,1,3.515,3.515A3.515,3.515,0,0,1,105.444,194.747Zm-21.089,0a3.514,3.514,0,1,1,3.515,3.515A3.515,3.515,0,0,1,84.355,194.747Zm-21.089,0a3.515,3.515,0,1,1,3.514,3.515A3.515,3.515,0,0,1,63.266,194.747Zm-21.089,0a3.515,3.515,0,1,1,3.514,3.515A3.515,3.515,0,0,1,42.178,194.747Zm-21.089,0a3.515,3.515,0,1,1,3.514,3.515A3.515,3.515,0,0,1,21.089,194.747ZM0,194.747a3.515,3.515,0,1,1,3.515,3.515A3.515,3.515,0,0,1,0,194.747ZM327.578,183.5a3.515,3.515,0,1,1,3.515,3.515A3.516,3.516,0,0,1,327.578,183.5Zm-21.089,0a3.515,3.515,0,1,1,3.515,3.515A3.516,3.516,0,0,1,306.49,183.5Zm-21.088,0a3.514,3.514,0,1,1,3.514,3.515A3.515,3.515,0,0,1,285.4,183.5Zm-21.089,0a3.515,3.515,0,1,1,3.514,3.515A3.515,3.515,0,0,1,264.313,183.5Zm-21.089,0a3.515,3.515,0,1,1,3.514,3.515A3.515,3.515,0,0,1,243.224,183.5Zm-21.089,0a3.515,3.515,0,1,1,3.515,3.515A3.515,3.515,0,0,1,222.135,183.5Zm-21.089,0a3.514,3.514,0,1,1,3.514,3.515A3.515,3.515,0,0,1,201.047,183.5Zm-21.089,0a3.515,3.515,0,1,1,3.514,3.515A3.515,3.515,0,0,1,179.958,183.5Zm-21.089,0a3.515,3.515,0,1,1,3.515,3.515A3.515,3.515,0,0,1,158.869,183.5Zm-21.089,0a3.514,3.514,0,1,1,3.514,3.515A3.515,3.515,0,0,1,137.78,183.5Zm-21.089,0a3.515,3.515,0,1,1,3.515,3.515A3.515,3.515,0,0,1,116.691,183.5Zm-21.089,0a3.514,3.514,0,1,1,3.515,3.515A3.515,3.515,0,0,1,95.6,183.5Zm-21.089,0a3.515,3.515,0,1,1,3.514,3.515A3.515,3.515,0,0,1,74.514,183.5Zm-21.089,0a3.515,3.515,0,1,1,3.514,3.515A3.515,3.515,0,0,1,53.425,183.5Zm-21.089,0a3.515,3.515,0,1,1,3.514,3.515A3.515,3.515,0,0,1,32.336,183.5Zm-21.089,0a3.515,3.515,0,1,1,3.515,3.515A3.515,3.515,0,0,1,11.247,183.5Zm305.084-11.249a3.515,3.515,0,1,1,3.515,3.515A3.516,3.516,0,0,1,316.331,172.249Zm-21.089,0a3.515,3.515,0,1,1,3.515,3.515A3.516,3.516,0,0,1,295.242,172.249Zm-21.088,0a3.514,3.514,0,1,1,3.514,3.515A3.515,3.515,0,0,1,274.154,172.249Zm-21.089,0a3.514,3.514,0,1,1,3.514,3.515A3.515,3.515,0,0,1,253.066,172.249Zm-21.089,0a3.514,3.514,0,1,1,3.514,3.515A3.515,3.515,0,0,1,231.977,172.249Zm-21.089,0a3.515,3.515,0,1,1,3.515,3.515A3.515,3.515,0,0,1,210.888,172.249Zm-21.089,0a3.514,3.514,0,1,1,3.514,3.515A3.515,3.515,0,0,1,189.8,172.249Zm-21.089,0a3.515,3.515,0,1,1,3.514,3.515A3.515,3.515,0,0,1,168.71,172.249Zm-21.089,0a3.515,3.515,0,1,1,3.515,3.515A3.515,3.515,0,0,1,147.622,172.249Zm-21.089,0a3.514,3.514,0,1,1,3.514,3.515A3.515,3.515,0,0,1,126.533,172.249Zm-21.089,0a3.514,3.514,0,1,1,3.515,3.515A3.515,3.515,0,0,1,105.444,172.249Zm-21.089,0a3.514,3.514,0,1,1,3.515,3.515A3.515,3.515,0,0,1,84.355,172.249Zm-21.089,0a3.515,3.515,0,1,1,3.514,3.515A3.515,3.515,0,0,1,63.266,172.249Zm-21.089,0a3.515,3.515,0,1,1,3.514,3.515A3.515,3.515,0,0,1,42.178,172.249Zm-21.089,0a3.515,3.515,0,1,1,3.514,3.515A3.515,3.515,0,0,1,21.089,172.249ZM0,172.249a3.515,3.515,0,1,1,3.515,3.515A3.515,3.515,0,0,1,0,172.249ZM327.578,161a3.515,3.515,0,1,1,3.515,3.515A3.516,3.516,0,0,1,327.578,161Zm-21.089,0a3.515,3.515,0,1,1,3.515,3.515A3.516,3.516,0,0,1,306.49,161ZM285.4,161a3.514,3.514,0,1,1,3.514,3.515A3.515,3.515,0,0,1,285.4,161Zm-21.089,0a3.515,3.515,0,1,1,3.514,3.515A3.515,3.515,0,0,1,264.313,161Zm-21.089,0a3.515,3.515,0,1,1,3.514,3.515A3.515,3.515,0,0,1,243.224,161Zm-21.089,0a3.515,3.515,0,1,1,3.515,3.515A3.515,3.515,0,0,1,222.135,161Zm-21.089,0a3.514,3.514,0,1,1,3.514,3.515A3.515,3.515,0,0,1,201.047,161Zm-21.089,0a3.515,3.515,0,1,1,3.514,3.515A3.515,3.515,0,0,1,179.958,161Zm-21.089,0a3.515,3.515,0,1,1,3.515,3.515A3.515,3.515,0,0,1,158.869,161Zm-21.089,0a3.514,3.514,0,1,1,3.514,3.515A3.515,3.515,0,0,1,137.78,161Zm-21.089,0a3.515,3.515,0,1,1,3.515,3.515A3.515,3.515,0,0,1,116.691,161ZM95.6,161a3.514,3.514,0,1,1,3.515,3.515A3.515,3.515,0,0,1,95.6,161Zm-21.089,0a3.515,3.515,0,1,1,3.514,3.515A3.515,3.515,0,0,1,74.514,161Zm-21.089,0a3.515,3.515,0,1,1,3.514,3.515A3.515,3.515,0,0,1,53.425,161Zm-21.089,0a3.515,3.515,0,1,1,3.514,3.515A3.515,3.515,0,0,1,32.336,161Zm-21.089,0a3.515,3.515,0,1,1,3.515,3.515A3.515,3.515,0,0,1,11.247,161Zm305.084-11.249a3.515,3.515,0,1,1,3.515,3.515A3.516,3.516,0,0,1,316.331,149.751Zm-21.089,0a3.515,3.515,0,1,1,3.515,3.515A3.516,3.516,0,0,1,295.242,149.751Zm-21.088,0a3.514,3.514,0,1,1,3.514,3.515A3.515,3.515,0,0,1,274.154,149.751Zm-21.089,0a3.514,3.514,0,1,1,3.514,3.515A3.515,3.515,0,0,1,253.066,149.751Zm-21.089,0a3.514,3.514,0,1,1,3.514,3.515A3.515,3.515,0,0,1,231.977,149.751Zm-21.089,0a3.515,3.515,0,1,1,3.515,3.515A3.515,3.515,0,0,1,210.888,149.751Zm-21.089,0a3.514,3.514,0,1,1,3.514,3.515A3.515,3.515,0,0,1,189.8,149.751Zm-21.089,0a3.515,3.515,0,1,1,3.514,3.515A3.515,3.515,0,0,1,168.71,149.751Zm-21.089,0a3.515,3.515,0,1,1,3.515,3.515A3.515,3.515,0,0,1,147.622,149.751Zm-21.089,0a3.514,3.514,0,1,1,3.514,3.515A3.515,3.515,0,0,1,126.533,149.751Zm-21.089,0a3.514,3.514,0,1,1,3.515,3.515A3.515,3.515,0,0,1,105.444,149.751Zm-21.089,0a3.514,3.514,0,1,1,3.515,3.515A3.515,3.515,0,0,1,84.355,149.751Zm-21.089,0a3.515,3.515,0,1,1,3.514,3.515A3.515,3.515,0,0,1,63.266,149.751Zm-21.089,0a3.515,3.515,0,1,1,3.514,3.515A3.515,3.515,0,0,1,42.178,149.751Zm-21.089,0a3.515,3.515,0,1,1,3.514,3.515A3.515,3.515,0,0,1,21.089,149.751ZM0,149.751a3.515,3.515,0,1,1,3.515,3.515A3.515,3.515,0,0,1,0,149.751ZM327.578,138.5a3.515,3.515,0,1,1,3.515,3.515A3.516,3.516,0,0,1,327.578,138.5Zm-21.089,0a3.515,3.515,0,1,1,3.515,3.515A3.516,3.516,0,0,1,306.49,138.5Zm-21.088,0a3.514,3.514,0,1,1,3.514,3.515A3.515,3.515,0,0,1,285.4,138.5Zm-21.089,0a3.515,3.515,0,1,1,3.514,3.515A3.515,3.515,0,0,1,264.313,138.5Zm-21.089,0a3.515,3.515,0,1,1,3.514,3.515A3.515,3.515,0,0,1,243.224,138.5Zm-21.089,0a3.515,3.515,0,1,1,3.515,3.515A3.515,3.515,0,0,1,222.135,138.5Zm-21.089,0a3.514,3.514,0,1,1,3.514,3.515A3.515,3.515,0,0,1,201.047,138.5Zm-21.089,0a3.515,3.515,0,1,1,3.514,3.515A3.515,3.515,0,0,1,179.958,138.5Zm-21.089,0a3.515,3.515,0,1,1,3.515,3.515A3.515,3.515,0,0,1,158.869,138.5Zm-21.089,0a3.514,3.514,0,1,1,3.514,3.515A3.515,3.515,0,0,1,137.78,138.5Zm-21.089,0a3.515,3.515,0,1,1,3.515,3.515A3.515,3.515,0,0,1,116.691,138.5Zm-21.089,0a3.514,3.514,0,1,1,3.515,3.515A3.515,3.515,0,0,1,95.6,138.5Zm-21.089,0a3.515,3.515,0,1,1,3.514,3.515A3.515,3.515,0,0,1,74.514,138.5Zm-21.089,0a3.515,3.515,0,1,1,3.514,3.515A3.515,3.515,0,0,1,53.425,138.5Zm-21.089,0a3.515,3.515,0,1,1,3.514,3.515A3.515,3.515,0,0,1,32.336,138.5Zm-21.089,0a3.515,3.515,0,1,1,3.515,3.515A3.515,3.515,0,0,1,11.247,138.5Zm305.084-11.248a3.515,3.515,0,1,1,3.515,3.515A3.516,3.516,0,0,1,316.331,127.254Zm-21.089,0a3.515,3.515,0,1,1,3.515,3.515A3.516,3.516,0,0,1,295.242,127.254Zm-21.088,0a3.514,3.514,0,1,1,3.514,3.515A3.515,3.515,0,0,1,274.154,127.254Zm-21.089,0a3.514,3.514,0,1,1,3.514,3.515A3.515,3.515,0,0,1,253.066,127.254Zm-21.089,0a3.514,3.514,0,1,1,3.514,3.515A3.515,3.515,0,0,1,231.977,127.254Zm-21.089,0a3.515,3.515,0,1,1,3.515,3.515A3.515,3.515,0,0,1,210.888,127.254Zm-21.089,0a3.514,3.514,0,1,1,3.514,3.515A3.515,3.515,0,0,1,189.8,127.254Zm-21.089,0a3.515,3.515,0,1,1,3.514,3.515A3.515,3.515,0,0,1,168.71,127.254Zm-21.089,0a3.515,3.515,0,1,1,3.515,3.515A3.515,3.515,0,0,1,147.622,127.254Zm-21.089,0a3.514,3.514,0,1,1,3.514,3.515A3.515,3.515,0,0,1,126.533,127.254Zm-21.089,0a3.514,3.514,0,1,1,3.515,3.515A3.515,3.515,0,0,1,105.444,127.254Zm-21.089,0a3.514,3.514,0,1,1,3.515,3.515A3.515,3.515,0,0,1,84.355,127.254Zm-21.089,0a3.515,3.515,0,1,1,3.514,3.515A3.515,3.515,0,0,1,63.266,127.254Zm-21.089,0a3.515,3.515,0,1,1,3.514,3.515A3.515,3.515,0,0,1,42.178,127.254Zm-21.089,0a3.515,3.515,0,1,1,3.514,3.515A3.515,3.515,0,0,1,21.089,127.254ZM0,127.254a3.515,3.515,0,1,1,3.515,3.515A3.515,3.515,0,0,1,0,127.254ZM327.578,116a3.515,3.515,0,1,1,3.515,3.515A3.516,3.516,0,0,1,327.578,116Zm-21.089,0a3.515,3.515,0,1,1,3.515,3.515A3.516,3.516,0,0,1,306.49,116ZM285.4,116a3.514,3.514,0,1,1,3.514,3.515A3.515,3.515,0,0,1,285.4,116Zm-21.089,0a3.515,3.515,0,1,1,3.514,3.515A3.515,3.515,0,0,1,264.313,116Zm-21.089,0a3.515,3.515,0,1,1,3.514,3.515A3.515,3.515,0,0,1,243.224,116Zm-21.089,0a3.515,3.515,0,1,1,3.515,3.515A3.515,3.515,0,0,1,222.135,116Zm-21.089,0a3.514,3.514,0,1,1,3.514,3.515A3.515,3.515,0,0,1,201.047,116Zm-21.089,0a3.515,3.515,0,1,1,3.514,3.515A3.515,3.515,0,0,1,179.958,116Zm-21.089,0a3.515,3.515,0,1,1,3.515,3.515A3.515,3.515,0,0,1,158.869,116Zm-21.089,0a3.514,3.514,0,1,1,3.514,3.515A3.515,3.515,0,0,1,137.78,116Zm-21.089,0a3.515,3.515,0,1,1,3.515,3.515A3.515,3.515,0,0,1,116.691,116ZM95.6,116a3.514,3.514,0,1,1,3.515,3.515A3.515,3.515,0,0,1,95.6,116Zm-21.089,0a3.515,3.515,0,1,1,3.514,3.515A3.515,3.515,0,0,1,74.514,116Zm-21.089,0a3.515,3.515,0,1,1,3.514,3.515A3.515,3.515,0,0,1,53.425,116Zm-21.089,0a3.515,3.515,0,1,1,3.514,3.515A3.515,3.515,0,0,1,32.336,116Zm-21.089,0a3.515,3.515,0,1,1,3.515,3.515A3.515,3.515,0,0,1,11.247,116Zm305.084-11.249a3.515,3.515,0,1,1,3.515,3.515A3.516,3.516,0,0,1,316.331,104.756Zm-21.089,0a3.515,3.515,0,1,1,3.515,3.515A3.516,3.516,0,0,1,295.242,104.756Zm-21.088,0a3.514,3.514,0,1,1,3.514,3.515A3.515,3.515,0,0,1,274.154,104.756Zm-21.089,0a3.514,3.514,0,1,1,3.514,3.515A3.515,3.515,0,0,1,253.066,104.756Zm-21.089,0a3.514,3.514,0,1,1,3.514,3.515A3.515,3.515,0,0,1,231.977,104.756Zm-21.089,0a3.515,3.515,0,1,1,3.515,3.515A3.515,3.515,0,0,1,210.888,104.756Zm-21.089,0a3.514,3.514,0,1,1,3.514,3.515A3.515,3.515,0,0,1,189.8,104.756Zm-21.089,0a3.515,3.515,0,1,1,3.514,3.515A3.515,3.515,0,0,1,168.71,104.756Zm-21.089,0a3.515,3.515,0,1,1,3.515,3.515A3.515,3.515,0,0,1,147.622,104.756Zm-21.089,0a3.514,3.514,0,1,1,3.514,3.515A3.515,3.515,0,0,1,126.533,104.756Zm-21.089,0a3.514,3.514,0,1,1,3.515,3.515A3.515,3.515,0,0,1,105.444,104.756Zm-21.089,0a3.514,3.514,0,1,1,3.515,3.515A3.515,3.515,0,0,1,84.355,104.756Zm-21.089,0a3.515,3.515,0,1,1,3.514,3.515A3.515,3.515,0,0,1,63.266,104.756Zm-21.089,0a3.515,3.515,0,1,1,3.514,3.515A3.515,3.515,0,0,1,42.178,104.756Zm-21.089,0a3.515,3.515,0,1,1,3.514,3.515A3.515,3.515,0,0,1,21.089,104.756ZM0,104.756a3.515,3.515,0,1,1,3.515,3.515A3.515,3.515,0,0,1,0,104.756ZM327.578,93.506a3.515,3.515,0,1,1,3.515,3.515A3.516,3.516,0,0,1,327.578,93.506Zm-21.089,0a3.515,3.515,0,1,1,3.515,3.515A3.516,3.516,0,0,1,306.49,93.506Zm-21.088,0a3.514,3.514,0,1,1,3.514,3.515A3.515,3.515,0,0,1,285.4,93.506Zm-21.089,0a3.515,3.515,0,1,1,3.514,3.515A3.515,3.515,0,0,1,264.313,93.506Zm-21.089,0a3.515,3.515,0,1,1,3.514,3.515A3.515,3.515,0,0,1,243.224,93.506Zm-21.089,0a3.515,3.515,0,1,1,3.515,3.515A3.515,3.515,0,0,1,222.135,93.506Zm-21.089,0a3.514,3.514,0,1,1,3.514,3.515A3.515,3.515,0,0,1,201.047,93.506Zm-21.089,0a3.515,3.515,0,1,1,3.514,3.515A3.515,3.515,0,0,1,179.958,93.506Zm-21.089,0a3.515,3.515,0,1,1,3.515,3.515A3.515,3.515,0,0,1,158.869,93.506Zm-21.089,0a3.514,3.514,0,1,1,3.514,3.515A3.515,3.515,0,0,1,137.78,93.506Zm-21.089,0a3.515,3.515,0,1,1,3.515,3.515A3.515,3.515,0,0,1,116.691,93.506Zm-21.089,0a3.514,3.514,0,1,1,3.515,3.515A3.515,3.515,0,0,1,95.6,93.506Zm-21.089,0a3.515,3.515,0,1,1,3.514,3.515A3.515,3.515,0,0,1,74.514,93.506Zm-21.089,0a3.515,3.515,0,1,1,3.514,3.515A3.515,3.515,0,0,1,53.425,93.506Zm-21.089,0a3.515,3.515,0,1,1,3.514,3.515A3.515,3.515,0,0,1,32.336,93.506Zm-21.089,0a3.515,3.515,0,1,1,3.515,3.515A3.515,3.515,0,0,1,11.247,93.506ZM316.331,82.258a3.515,3.515,0,1,1,3.515,3.515A3.516,3.516,0,0,1,316.331,82.258Zm-21.089,0a3.515,3.515,0,1,1,3.515,3.515A3.516,3.516,0,0,1,295.242,82.258Zm-21.088,0a3.514,3.514,0,1,1,3.514,3.515A3.515,3.515,0,0,1,274.154,82.258Zm-21.089,0a3.514,3.514,0,1,1,3.514,3.515A3.515,3.515,0,0,1,253.066,82.258Zm-21.089,0a3.514,3.514,0,1,1,3.514,3.515A3.515,3.515,0,0,1,231.977,82.258Zm-21.089,0a3.515,3.515,0,1,1,3.515,3.515A3.515,3.515,0,0,1,210.888,82.258Zm-21.089,0a3.514,3.514,0,1,1,3.514,3.515A3.515,3.515,0,0,1,189.8,82.258Zm-21.089,0a3.515,3.515,0,1,1,3.514,3.515A3.515,3.515,0,0,1,168.71,82.258Zm-21.089,0a3.515,3.515,0,1,1,3.515,3.515A3.515,3.515,0,0,1,147.622,82.258Zm-21.089,0a3.514,3.514,0,1,1,3.514,3.515A3.515,3.515,0,0,1,126.533,82.258Zm-21.089,0a3.514,3.514,0,1,1,3.515,3.515A3.515,3.515,0,0,1,105.444,82.258Zm-21.089,0a3.514,3.514,0,1,1,3.515,3.515A3.515,3.515,0,0,1,84.355,82.258Zm-21.089,0a3.515,3.515,0,1,1,3.514,3.515A3.515,3.515,0,0,1,63.266,82.258Zm-21.089,0a3.515,3.515,0,1,1,3.514,3.515A3.515,3.515,0,0,1,42.178,82.258Zm-21.089,0A3.515,3.515,0,1,1,24.6,85.774,3.515,3.515,0,0,1,21.089,82.258ZM0,82.258a3.515,3.515,0,1,1,3.515,3.515A3.515,3.515,0,0,1,0,82.258ZM327.578,71.009a3.515,3.515,0,1,1,3.515,3.515A3.516,3.516,0,0,1,327.578,71.009Zm-21.089,0a3.515,3.515,0,1,1,3.515,3.515A3.516,3.516,0,0,1,306.49,71.009Zm-21.088,0a3.514,3.514,0,1,1,3.514,3.515A3.515,3.515,0,0,1,285.4,71.009Zm-21.089,0a3.515,3.515,0,1,1,3.514,3.515A3.515,3.515,0,0,1,264.313,71.009Zm-21.089,0a3.515,3.515,0,1,1,3.514,3.515A3.515,3.515,0,0,1,243.224,71.009Zm-21.089,0a3.515,3.515,0,1,1,3.515,3.515A3.515,3.515,0,0,1,222.135,71.009Zm-21.089,0a3.514,3.514,0,1,1,3.514,3.515A3.515,3.515,0,0,1,201.047,71.009Zm-21.089,0a3.515,3.515,0,1,1,3.514,3.515A3.515,3.515,0,0,1,179.958,71.009Zm-21.089,0a3.515,3.515,0,1,1,3.515,3.515A3.515,3.515,0,0,1,158.869,71.009Zm-21.089,0a3.514,3.514,0,1,1,3.514,3.515A3.515,3.515,0,0,1,137.78,71.009Zm-21.089,0a3.515,3.515,0,1,1,3.515,3.515A3.515,3.515,0,0,1,116.691,71.009Zm-21.089,0a3.514,3.514,0,1,1,3.515,3.515A3.515,3.515,0,0,1,95.6,71.009Zm-21.089,0a3.515,3.515,0,1,1,3.514,3.515A3.515,3.515,0,0,1,74.514,71.009Zm-21.089,0a3.515,3.515,0,1,1,3.514,3.515A3.515,3.515,0,0,1,53.425,71.009Zm-21.089,0a3.515,3.515,0,1,1,3.514,3.515A3.515,3.515,0,0,1,32.336,71.009Zm-21.089,0a3.515,3.515,0,1,1,3.515,3.515A3.515,3.515,0,0,1,11.247,71.009ZM316.331,59.76a3.515,3.515,0,1,1,3.515,3.515A3.516,3.516,0,0,1,316.331,59.76Zm-21.089,0a3.515,3.515,0,1,1,3.515,3.515A3.516,3.516,0,0,1,295.242,59.76Zm-21.088,0a3.514,3.514,0,1,1,3.514,3.515A3.515,3.515,0,0,1,274.154,59.76Zm-21.089,0a3.514,3.514,0,1,1,3.514,3.515A3.515,3.515,0,0,1,253.066,59.76Zm-21.089,0a3.514,3.514,0,1,1,3.514,3.515A3.515,3.515,0,0,1,231.977,59.76Zm-21.089,0a3.515,3.515,0,1,1,3.515,3.515A3.515,3.515,0,0,1,210.888,59.76Zm-21.089,0a3.514,3.514,0,1,1,3.514,3.515A3.515,3.515,0,0,1,189.8,59.76Zm-21.089,0a3.515,3.515,0,1,1,3.514,3.515A3.515,3.515,0,0,1,168.71,59.76Zm-21.089,0a3.515,3.515,0,1,1,3.515,3.515A3.515,3.515,0,0,1,147.622,59.76Zm-21.089,0a3.514,3.514,0,1,1,3.514,3.515A3.515,3.515,0,0,1,126.533,59.76Zm-21.089,0a3.514,3.514,0,1,1,3.515,3.515A3.515,3.515,0,0,1,105.444,59.76Zm-21.089,0a3.514,3.514,0,1,1,3.515,3.515A3.515,3.515,0,0,1,84.355,59.76Zm-21.089,0a3.515,3.515,0,1,1,3.514,3.515A3.515,3.515,0,0,1,63.266,59.76Zm-21.089,0a3.515,3.515,0,1,1,3.514,3.515A3.515,3.515,0,0,1,42.178,59.76Zm-21.089,0A3.515,3.515,0,1,1,24.6,63.275,3.515,3.515,0,0,1,21.089,59.76ZM0,59.76a3.515,3.515,0,1,1,3.515,3.515A3.515,3.515,0,0,1,0,59.76ZM327.578,48.511a3.515,3.515,0,1,1,3.515,3.515A3.516,3.516,0,0,1,327.578,48.511Zm-21.089,0a3.515,3.515,0,1,1,3.515,3.515A3.516,3.516,0,0,1,306.49,48.511Zm-21.088,0a3.514,3.514,0,1,1,3.514,3.515A3.515,3.515,0,0,1,285.4,48.511Zm-21.089,0a3.515,3.515,0,1,1,3.514,3.515A3.515,3.515,0,0,1,264.313,48.511Zm-21.089,0a3.515,3.515,0,1,1,3.514,3.515A3.515,3.515,0,0,1,243.224,48.511Zm-21.089,0a3.515,3.515,0,1,1,3.515,3.515A3.515,3.515,0,0,1,222.135,48.511Zm-21.089,0a3.514,3.514,0,1,1,3.514,3.515A3.515,3.515,0,0,1,201.047,48.511Zm-21.089,0a3.515,3.515,0,1,1,3.514,3.515A3.515,3.515,0,0,1,179.958,48.511Zm-21.089,0a3.515,3.515,0,1,1,3.515,3.515A3.515,3.515,0,0,1,158.869,48.511Zm-21.089,0a3.514,3.514,0,1,1,3.514,3.515A3.515,3.515,0,0,1,137.78,48.511Zm-21.089,0a3.515,3.515,0,1,1,3.515,3.515A3.515,3.515,0,0,1,116.691,48.511Zm-21.089,0a3.514,3.514,0,1,1,3.515,3.515A3.515,3.515,0,0,1,95.6,48.511Zm-21.089,0a3.515,3.515,0,1,1,3.514,3.515A3.515,3.515,0,0,1,74.514,48.511Zm-21.089,0a3.515,3.515,0,1,1,3.514,3.515A3.515,3.515,0,0,1,53.425,48.511Zm-21.089,0a3.515,3.515,0,1,1,3.514,3.515A3.515,3.515,0,0,1,32.336,48.511Zm-21.089,0a3.515,3.515,0,1,1,3.515,3.515A3.515,3.515,0,0,1,11.247,48.511ZM316.331,37.262a3.515,3.515,0,1,1,3.515,3.515A3.516,3.516,0,0,1,316.331,37.262Zm-21.089,0a3.515,3.515,0,1,1,3.515,3.515A3.516,3.516,0,0,1,295.242,37.262Zm-21.088,0a3.514,3.514,0,1,1,3.514,3.515A3.515,3.515,0,0,1,274.154,37.262Zm-21.089,0a3.514,3.514,0,1,1,3.514,3.515A3.515,3.515,0,0,1,253.066,37.262Zm-21.089,0a3.514,3.514,0,1,1,3.514,3.515A3.515,3.515,0,0,1,231.977,37.262Zm-21.089,0a3.515,3.515,0,1,1,3.515,3.515A3.515,3.515,0,0,1,210.888,37.262Zm-21.089,0a3.514,3.514,0,1,1,3.514,3.515A3.515,3.515,0,0,1,189.8,37.262Zm-21.089,0a3.515,3.515,0,1,1,3.514,3.515A3.515,3.515,0,0,1,168.71,37.262Zm-21.089,0a3.515,3.515,0,1,1,3.515,3.515A3.515,3.515,0,0,1,147.622,37.262Zm-21.089,0a3.514,3.514,0,1,1,3.514,3.515A3.515,3.515,0,0,1,126.533,37.262Zm-21.089,0a3.514,3.514,0,1,1,3.515,3.515A3.515,3.515,0,0,1,105.444,37.262Zm-21.089,0a3.514,3.514,0,1,1,3.515,3.515A3.515,3.515,0,0,1,84.355,37.262Zm-21.089,0a3.515,3.515,0,1,1,3.514,3.515A3.515,3.515,0,0,1,63.266,37.262Zm-21.089,0a3.515,3.515,0,1,1,3.514,3.515A3.515,3.515,0,0,1,42.178,37.262Zm-21.089,0A3.515,3.515,0,1,1,24.6,40.777,3.515,3.515,0,0,1,21.089,37.262ZM0,37.262a3.515,3.515,0,1,1,3.515,3.515A3.515,3.515,0,0,1,0,37.262ZM327.578,26.014a3.515,3.515,0,1,1,3.515,3.515A3.516,3.516,0,0,1,327.578,26.014Zm-21.089,0a3.515,3.515,0,1,1,3.515,3.515A3.516,3.516,0,0,1,306.49,26.014Zm-21.088,0a3.514,3.514,0,1,1,3.514,3.515A3.515,3.515,0,0,1,285.4,26.014Zm-21.089,0a3.515,3.515,0,1,1,3.514,3.515A3.515,3.515,0,0,1,264.313,26.014Zm-21.089,0a3.515,3.515,0,1,1,3.514,3.515A3.515,3.515,0,0,1,243.224,26.014Zm-21.089,0a3.515,3.515,0,1,1,3.515,3.515A3.515,3.515,0,0,1,222.135,26.014Zm-21.089,0a3.514,3.514,0,1,1,3.514,3.515A3.515,3.515,0,0,1,201.047,26.014Zm-21.089,0a3.515,3.515,0,1,1,3.514,3.515A3.515,3.515,0,0,1,179.958,26.014Zm-21.089,0a3.515,3.515,0,1,1,3.515,3.515A3.515,3.515,0,0,1,158.869,26.014Zm-21.089,0a3.514,3.514,0,1,1,3.514,3.515A3.515,3.515,0,0,1,137.78,26.014Zm-21.089,0a3.515,3.515,0,1,1,3.515,3.515A3.515,3.515,0,0,1,116.691,26.014Zm-21.089,0a3.514,3.514,0,1,1,3.515,3.515A3.515,3.515,0,0,1,95.6,26.014Zm-21.089,0a3.515,3.515,0,1,1,3.514,3.515A3.515,3.515,0,0,1,74.514,26.014Zm-21.089,0a3.515,3.515,0,1,1,3.514,3.515A3.515,3.515,0,0,1,53.425,26.014Zm-21.089,0a3.515,3.515,0,1,1,3.514,3.515A3.515,3.515,0,0,1,32.336,26.014Zm-21.089,0a3.515,3.515,0,1,1,3.515,3.515A3.515,3.515,0,0,1,11.247,26.014ZM316.331,14.765a3.515,3.515,0,1,1,3.515,3.515A3.516,3.516,0,0,1,316.331,14.765Zm-21.089,0a3.515,3.515,0,1,1,3.515,3.515A3.516,3.516,0,0,1,295.242,14.765Zm-21.088,0a3.514,3.514,0,1,1,3.514,3.515A3.515,3.515,0,0,1,274.154,14.765Zm-21.089,0a3.514,3.514,0,1,1,3.514,3.515A3.515,3.515,0,0,1,253.066,14.765Zm-21.089,0a3.514,3.514,0,1,1,3.514,3.515A3.515,3.515,0,0,1,231.977,14.765Zm-21.089,0A3.515,3.515,0,1,1,214.4,18.28,3.515,3.515,0,0,1,210.888,14.765Zm-21.089,0a3.514,3.514,0,1,1,3.514,3.515A3.515,3.515,0,0,1,189.8,14.765Zm-21.089,0a3.515,3.515,0,1,1,3.514,3.515A3.515,3.515,0,0,1,168.71,14.765Zm-21.089,0a3.515,3.515,0,1,1,3.515,3.515A3.515,3.515,0,0,1,147.622,14.765Zm-21.089,0a3.514,3.514,0,1,1,3.514,3.515A3.515,3.515,0,0,1,126.533,14.765Zm-21.089,0a3.514,3.514,0,1,1,3.515,3.515A3.515,3.515,0,0,1,105.444,14.765Zm-21.089,0A3.514,3.514,0,1,1,87.87,18.28,3.515,3.515,0,0,1,84.355,14.765Zm-21.089,0a3.515,3.515,0,1,1,3.514,3.515A3.515,3.515,0,0,1,63.266,14.765Zm-21.089,0a3.515,3.515,0,1,1,3.514,3.515A3.515,3.515,0,0,1,42.178,14.765Zm-21.089,0A3.515,3.515,0,1,1,24.6,18.28,3.515,3.515,0,0,1,21.089,14.765ZM0,14.765A3.515,3.515,0,1,1,3.515,18.28,3.515,3.515,0,0,1,0,14.765ZM327.578,3.515a3.515,3.515,0,1,1,3.515,3.515A3.516,3.516,0,0,1,327.578,3.515Zm-21.089,0a3.515,3.515,0,1,1,3.515,3.515A3.516,3.516,0,0,1,306.49,3.515Zm-21.088,0a3.514,3.514,0,1,1,3.514,3.515A3.515,3.515,0,0,1,285.4,3.515Zm-21.089,0a3.515,3.515,0,1,1,3.514,3.515A3.515,3.515,0,0,1,264.313,3.515Zm-21.089,0a3.515,3.515,0,1,1,3.514,3.515A3.515,3.515,0,0,1,243.224,3.515Zm-21.089,0a3.515,3.515,0,1,1,3.515,3.515A3.515,3.515,0,0,1,222.135,3.515Zm-21.089,0a3.514,3.514,0,1,1,3.514,3.515A3.515,3.515,0,0,1,201.047,3.515Zm-21.089,0a3.515,3.515,0,1,1,3.514,3.515A3.515,3.515,0,0,1,179.958,3.515Zm-21.089,0a3.515,3.515,0,1,1,3.515,3.515A3.515,3.515,0,0,1,158.869,3.515Zm-21.089,0a3.514,3.514,0,1,1,3.514,3.515A3.515,3.515,0,0,1,137.78,3.515Zm-21.089,0a3.515,3.515,0,1,1,3.515,3.515A3.515,3.515,0,0,1,116.691,3.515Zm-21.089,0a3.514,3.514,0,1,1,3.515,3.515A3.515,3.515,0,0,1,95.6,3.515Zm-21.089,0a3.515,3.515,0,1,1,3.514,3.515A3.515,3.515,0,0,1,74.514,3.515Zm-21.089,0a3.515,3.515,0,1,1,3.514,3.515A3.515,3.515,0,0,1,53.425,3.515Zm-21.089,0a3.515,3.515,0,1,1,3.514,3.515A3.515,3.515,0,0,1,32.336,3.515Zm-21.089,0a3.515,3.515,0,1,1,3.515,3.515A3.515,3.515,0,0,1,11.247,3.515Z" fill="#fff" opacity="0.221"/>
</svg>
