<svg width="244" height="267" viewBox="0 0 244 267" fill="none" xmlns="http://www.w3.org/2000/svg">
<path id="Combined Shape" fill-rule="evenodd" clip-rule="evenodd" d="M-40.9783 6C-39.3094 6 -37.9565 4.65685 -37.9565 3C-37.9565 1.34315 -39.3094 0 -40.9783 0C-42.6471 0 -44 1.34315 -44 3C-44 4.65685 -42.6471 6 -40.9783 6ZM-37.9565 264C-37.9565 265.657 -39.3094 267 -40.9783 267C-42.6471 267 -44 265.657 -44 264C-44 262.343 -42.6471 261 -40.9783 261C-39.3094 261 -37.9565 262.343 -37.9565 264ZM-19.8261 264C-19.8261 265.657 -21.179 267 -22.8478 267C-24.5167 267 -25.8696 265.657 -25.8696 264C-25.8696 262.343 -24.5167 261 -22.8478 261C-21.179 261 -19.8261 262.343 -19.8261 264ZM-4.71739 267C-3.04853 267 -1.69565 265.657 -1.69565 264C-1.69565 262.343 -3.04853 261 -4.71739 261C-6.38625 261 -7.73913 262.343 -7.73913 264C-7.73913 265.657 -6.38625 267 -4.71739 267ZM16.4348 264C16.4348 265.657 15.0819 267 13.413 267C11.7442 267 10.3913 265.657 10.3913 264C10.3913 262.343 11.7442 261 13.413 261C15.0819 261 16.4348 262.343 16.4348 264ZM31.5435 267C33.2123 267 34.5652 265.657 34.5652 264C34.5652 262.343 33.2123 261 31.5435 261C29.8746 261 28.5217 262.343 28.5217 264C28.5217 265.657 29.8746 267 31.5435 267ZM52.6957 264C52.6957 265.657 51.3428 267 49.6739 267C48.0051 267 46.6522 265.657 46.6522 264C46.6522 262.343 48.0051 261 49.6739 261C51.3428 261 52.6957 262.343 52.6957 264ZM67.8043 267C69.4732 267 70.8261 265.657 70.8261 264C70.8261 262.343 69.4732 261 67.8043 261C66.1355 261 64.7826 262.343 64.7826 264C64.7826 265.657 66.1355 267 67.8043 267ZM88.9565 264C88.9565 265.657 87.6036 267 85.9348 267C84.2659 267 82.913 265.657 82.913 264C82.913 262.343 84.2659 261 85.9348 261C87.6036 261 88.9565 262.343 88.9565 264ZM104.065 267C105.734 267 107.087 265.657 107.087 264C107.087 262.343 105.734 261 104.065 261C102.396 261 101.043 262.343 101.043 264C101.043 265.657 102.396 267 104.065 267ZM125.217 264C125.217 265.657 123.865 267 122.196 267C120.527 267 119.174 265.657 119.174 264C119.174 262.343 120.527 261 122.196 261C123.865 261 125.217 262.343 125.217 264ZM140.326 267C141.995 267 143.348 265.657 143.348 264C143.348 262.343 141.995 261 140.326 261C138.657 261 137.304 262.343 137.304 264C137.304 265.657 138.657 267 140.326 267ZM161.478 264C161.478 265.657 160.125 267 158.457 267C156.788 267 155.435 265.657 155.435 264C155.435 262.343 156.788 261 158.457 261C160.125 261 161.478 262.343 161.478 264ZM176.587 267C178.256 267 179.609 265.657 179.609 264C179.609 262.343 178.256 261 176.587 261C174.918 261 173.565 262.343 173.565 264C173.565 265.657 174.918 267 176.587 267ZM197.739 264C197.739 265.657 196.386 267 194.717 267C193.049 267 191.696 265.657 191.696 264C191.696 262.343 193.049 261 194.717 261C196.386 261 197.739 262.343 197.739 264ZM212.848 267C214.517 267 215.87 265.657 215.87 264C215.87 262.343 214.517 261 212.848 261C211.179 261 209.826 262.343 209.826 264C209.826 265.657 211.179 267 212.848 267ZM234 264C234 265.657 232.647 267 230.978 267C229.309 267 227.957 265.657 227.957 264C227.957 262.343 229.309 261 230.978 261C232.647 261 234 262.343 234 264ZM-30.9783 258C-29.3094 258 -27.9565 256.657 -27.9565 255C-27.9565 253.343 -29.3094 252 -30.9783 252C-32.6471 252 -34 253.343 -34 255C-34 256.657 -32.6471 258 -30.9783 258ZM-12.8478 258C-11.179 258 -9.82609 256.657 -9.82609 255C-9.82609 253.343 -11.179 252 -12.8478 252C-14.5167 252 -15.8696 253.343 -15.8696 255C-15.8696 256.657 -14.5167 258 -12.8478 258ZM8.30435 255C8.30435 256.657 6.95147 258 5.28261 258C3.61375 258 2.26087 256.657 2.26087 255C2.26087 253.343 3.61375 252 5.28261 252C6.95147 252 8.30435 253.343 8.30435 255ZM23.413 258C25.0819 258 26.4348 256.657 26.4348 255C26.4348 253.343 25.0819 252 23.413 252C21.7442 252 20.3913 253.343 20.3913 255C20.3913 256.657 21.7442 258 23.413 258ZM44.5652 255C44.5652 256.657 43.2123 258 41.5435 258C39.8746 258 38.5217 256.657 38.5217 255C38.5217 253.343 39.8746 252 41.5435 252C43.2123 252 44.5652 253.343 44.5652 255ZM59.6739 258C61.3428 258 62.6957 256.657 62.6957 255C62.6957 253.343 61.3428 252 59.6739 252C58.0051 252 56.6522 253.343 56.6522 255C56.6522 256.657 58.0051 258 59.6739 258ZM80.8261 255C80.8261 256.657 79.4732 258 77.8043 258C76.1355 258 74.7826 256.657 74.7826 255C74.7826 253.343 76.1355 252 77.8043 252C79.4732 252 80.8261 253.343 80.8261 255ZM95.9348 258C97.6036 258 98.9565 256.657 98.9565 255C98.9565 253.343 97.6036 252 95.9348 252C94.2659 252 92.913 253.343 92.913 255C92.913 256.657 94.2659 258 95.9348 258ZM117.087 255C117.087 256.657 115.734 258 114.065 258C112.396 258 111.043 256.657 111.043 255C111.043 253.343 112.396 252 114.065 252C115.734 252 117.087 253.343 117.087 255ZM132.196 258C133.865 258 135.217 256.657 135.217 255C135.217 253.343 133.865 252 132.196 252C130.527 252 129.174 253.343 129.174 255C129.174 256.657 130.527 258 132.196 258ZM153.348 255C153.348 256.657 151.995 258 150.326 258C148.657 258 147.304 256.657 147.304 255C147.304 253.343 148.657 252 150.326 252C151.995 252 153.348 253.343 153.348 255ZM168.457 258C170.125 258 171.478 256.657 171.478 255C171.478 253.343 170.125 252 168.457 252C166.788 252 165.435 253.343 165.435 255C165.435 256.657 166.788 258 168.457 258ZM189.609 255C189.609 256.657 188.256 258 186.587 258C184.918 258 183.565 256.657 183.565 255C183.565 253.343 184.918 252 186.587 252C188.256 252 189.609 253.343 189.609 255ZM204.717 258C206.386 258 207.739 256.657 207.739 255C207.739 253.343 206.386 252 204.717 252C203.049 252 201.696 253.343 201.696 255C201.696 256.657 203.049 258 204.717 258ZM225.87 255C225.87 256.657 224.517 258 222.848 258C221.179 258 219.826 256.657 219.826 255C219.826 253.343 221.179 252 222.848 252C224.517 252 225.87 253.343 225.87 255ZM240.978 258C242.647 258 244 256.657 244 255C244 253.343 242.647 252 240.978 252C239.309 252 237.957 253.343 237.957 255C237.957 256.657 239.309 258 240.978 258ZM-22.8478 6C-21.179 6 -19.8261 4.65685 -19.8261 3C-19.8261 1.34315 -21.179 0 -22.8478 0C-24.5167 0 -25.8696 1.34315 -25.8696 3C-25.8696 4.65685 -24.5167 6 -22.8478 6ZM-40.9783 248C-39.3094 248 -37.9565 246.657 -37.9565 245C-37.9565 243.343 -39.3094 242 -40.9783 242C-42.6471 242 -44 243.343 -44 245C-44 246.657 -42.6471 248 -40.9783 248ZM-22.8478 248C-21.179 248 -19.8261 246.657 -19.8261 245C-19.8261 243.343 -21.179 242 -22.8478 242C-24.5167 242 -25.8696 243.343 -25.8696 245C-25.8696 246.657 -24.5167 248 -22.8478 248ZM-1.69565 245C-1.69565 246.657 -3.04853 248 -4.71739 248C-6.38625 248 -7.73913 246.657 -7.73913 245C-7.73913 243.343 -6.38625 242 -4.71739 242C-3.04853 242 -1.69565 243.343 -1.69565 245ZM13.413 248C15.0819 248 16.4348 246.657 16.4348 245C16.4348 243.343 15.0819 242 13.413 242C11.7442 242 10.3913 243.343 10.3913 245C10.3913 246.657 11.7442 248 13.413 248ZM34.5652 245C34.5652 246.657 33.2123 248 31.5435 248C29.8746 248 28.5217 246.657 28.5217 245C28.5217 243.343 29.8746 242 31.5435 242C33.2123 242 34.5652 243.343 34.5652 245ZM49.6739 248C51.3428 248 52.6957 246.657 52.6957 245C52.6957 243.343 51.3428 242 49.6739 242C48.0051 242 46.6522 243.343 46.6522 245C46.6522 246.657 48.0051 248 49.6739 248ZM70.8261 245C70.8261 246.657 69.4732 248 67.8043 248C66.1355 248 64.7826 246.657 64.7826 245C64.7826 243.343 66.1355 242 67.8043 242C69.4732 242 70.8261 243.343 70.8261 245ZM85.9348 248C87.6036 248 88.9565 246.657 88.9565 245C88.9565 243.343 87.6036 242 85.9348 242C84.2659 242 82.913 243.343 82.913 245C82.913 246.657 84.2659 248 85.9348 248ZM107.087 245C107.087 246.657 105.734 248 104.065 248C102.396 248 101.043 246.657 101.043 245C101.043 243.343 102.396 242 104.065 242C105.734 242 107.087 243.343 107.087 245ZM122.196 248C123.865 248 125.217 246.657 125.217 245C125.217 243.343 123.865 242 122.196 242C120.527 242 119.174 243.343 119.174 245C119.174 246.657 120.527 248 122.196 248ZM143.348 245C143.348 246.657 141.995 248 140.326 248C138.657 248 137.304 246.657 137.304 245C137.304 243.343 138.657 242 140.326 242C141.995 242 143.348 243.343 143.348 245ZM158.457 248C160.125 248 161.478 246.657 161.478 245C161.478 243.343 160.125 242 158.457 242C156.788 242 155.435 243.343 155.435 245C155.435 246.657 156.788 248 158.457 248ZM179.609 245C179.609 246.657 178.256 248 176.587 248C174.918 248 173.565 246.657 173.565 245C173.565 243.343 174.918 242 176.587 242C178.256 242 179.609 243.343 179.609 245ZM194.717 248C196.386 248 197.739 246.657 197.739 245C197.739 243.343 196.386 242 194.717 242C193.049 242 191.696 243.343 191.696 245C191.696 246.657 193.049 248 194.717 248ZM215.87 245C215.87 246.657 214.517 248 212.848 248C211.179 248 209.826 246.657 209.826 245C209.826 243.343 211.179 242 212.848 242C214.517 242 215.87 243.343 215.87 245ZM230.978 248C232.647 248 234 246.657 234 245C234 243.343 232.647 242 230.978 242C229.309 242 227.957 243.343 227.957 245C227.957 246.657 229.309 248 230.978 248ZM-4.71739 6C-3.04853 6 -1.69565 4.65685 -1.69565 3C-1.69565 1.34315 -3.04853 0 -4.71739 0C-6.38625 0 -7.73913 1.34315 -7.73913 3C-7.73913 4.65685 -6.38625 6 -4.71739 6ZM-30.9783 238C-29.3094 238 -27.9565 236.657 -27.9565 235C-27.9565 233.343 -29.3094 232 -30.9783 232C-32.6471 232 -34 233.343 -34 235C-34 236.657 -32.6471 238 -30.9783 238ZM-12.8478 238C-11.179 238 -9.82609 236.657 -9.82609 235C-9.82609 233.343 -11.179 232 -12.8478 232C-14.5167 232 -15.8696 233.343 -15.8696 235C-15.8696 236.657 -14.5167 238 -12.8478 238ZM8.30435 235C8.30435 236.657 6.95147 238 5.28261 238C3.61375 238 2.26087 236.657 2.26087 235C2.26087 233.343 3.61375 232 5.28261 232C6.95147 232 8.30435 233.343 8.30435 235ZM23.413 238C25.0819 238 26.4348 236.657 26.4348 235C26.4348 233.343 25.0819 232 23.413 232C21.7442 232 20.3913 233.343 20.3913 235C20.3913 236.657 21.7442 238 23.413 238ZM44.5652 235C44.5652 236.657 43.2123 238 41.5435 238C39.8746 238 38.5217 236.657 38.5217 235C38.5217 233.343 39.8746 232 41.5435 232C43.2123 232 44.5652 233.343 44.5652 235ZM59.6739 238C61.3428 238 62.6957 236.657 62.6957 235C62.6957 233.343 61.3428 232 59.6739 232C58.0051 232 56.6522 233.343 56.6522 235C56.6522 236.657 58.0051 238 59.6739 238ZM80.8261 235C80.8261 236.657 79.4732 238 77.8043 238C76.1355 238 74.7826 236.657 74.7826 235C74.7826 233.343 76.1355 232 77.8043 232C79.4732 232 80.8261 233.343 80.8261 235ZM95.9348 238C97.6036 238 98.9565 236.657 98.9565 235C98.9565 233.343 97.6036 232 95.9348 232C94.2659 232 92.913 233.343 92.913 235C92.913 236.657 94.2659 238 95.9348 238ZM117.087 235C117.087 236.657 115.734 238 114.065 238C112.396 238 111.043 236.657 111.043 235C111.043 233.343 112.396 232 114.065 232C115.734 232 117.087 233.343 117.087 235ZM132.196 238C133.865 238 135.217 236.657 135.217 235C135.217 233.343 133.865 232 132.196 232C130.527 232 129.174 233.343 129.174 235C129.174 236.657 130.527 238 132.196 238ZM153.348 235C153.348 236.657 151.995 238 150.326 238C148.657 238 147.304 236.657 147.304 235C147.304 233.343 148.657 232 150.326 232C151.995 232 153.348 233.343 153.348 235ZM168.457 238C170.125 238 171.478 236.657 171.478 235C171.478 233.343 170.125 232 168.457 232C166.788 232 165.435 233.343 165.435 235C165.435 236.657 166.788 238 168.457 238ZM189.609 235C189.609 236.657 188.256 238 186.587 238C184.918 238 183.565 236.657 183.565 235C183.565 233.343 184.918 232 186.587 232C188.256 232 189.609 233.343 189.609 235ZM204.717 238C206.386 238 207.739 236.657 207.739 235C207.739 233.343 206.386 232 204.717 232C203.049 232 201.696 233.343 201.696 235C201.696 236.657 203.049 238 204.717 238ZM225.87 235C225.87 236.657 224.517 238 222.848 238C221.179 238 219.826 236.657 219.826 235C219.826 233.343 221.179 232 222.848 232C224.517 232 225.87 233.343 225.87 235ZM240.978 238C242.647 238 244 236.657 244 235C244 233.343 242.647 232 240.978 232C239.309 232 237.957 233.343 237.957 235C237.957 236.657 239.309 238 240.978 238ZM13.413 6C15.0819 6 16.4348 4.65685 16.4348 3C16.4348 1.34315 15.0819 0 13.413 0C11.7442 0 10.3913 1.34315 10.3913 3C10.3913 4.65685 11.7442 6 13.413 6ZM-40.9783 229C-39.3094 229 -37.9565 227.657 -37.9565 226C-37.9565 224.343 -39.3094 223 -40.9783 223C-42.6471 223 -44 224.343 -44 226C-44 227.657 -42.6471 229 -40.9783 229ZM-22.8478 229C-21.179 229 -19.8261 227.657 -19.8261 226C-19.8261 224.343 -21.179 223 -22.8478 223C-24.5167 223 -25.8696 224.343 -25.8696 226C-25.8696 227.657 -24.5167 229 -22.8478 229ZM-1.69565 226C-1.69565 227.657 -3.04853 229 -4.71739 229C-6.38625 229 -7.73913 227.657 -7.73913 226C-7.73913 224.343 -6.38625 223 -4.71739 223C-3.04853 223 -1.69565 224.343 -1.69565 226ZM13.413 229C15.0819 229 16.4348 227.657 16.4348 226C16.4348 224.343 15.0819 223 13.413 223C11.7442 223 10.3913 224.343 10.3913 226C10.3913 227.657 11.7442 229 13.413 229ZM34.5652 226C34.5652 227.657 33.2123 229 31.5435 229C29.8746 229 28.5217 227.657 28.5217 226C28.5217 224.343 29.8746 223 31.5435 223C33.2123 223 34.5652 224.343 34.5652 226ZM49.6739 229C51.3428 229 52.6957 227.657 52.6957 226C52.6957 224.343 51.3428 223 49.6739 223C48.0051 223 46.6522 224.343 46.6522 226C46.6522 227.657 48.0051 229 49.6739 229ZM70.8261 226C70.8261 227.657 69.4732 229 67.8043 229C66.1355 229 64.7826 227.657 64.7826 226C64.7826 224.343 66.1355 223 67.8043 223C69.4732 223 70.8261 224.343 70.8261 226ZM85.9348 229C87.6036 229 88.9565 227.657 88.9565 226C88.9565 224.343 87.6036 223 85.9348 223C84.2659 223 82.913 224.343 82.913 226C82.913 227.657 84.2659 229 85.9348 229ZM107.087 226C107.087 227.657 105.734 229 104.065 229C102.396 229 101.043 227.657 101.043 226C101.043 224.343 102.396 223 104.065 223C105.734 223 107.087 224.343 107.087 226ZM122.196 229C123.865 229 125.217 227.657 125.217 226C125.217 224.343 123.865 223 122.196 223C120.527 223 119.174 224.343 119.174 226C119.174 227.657 120.527 229 122.196 229ZM143.348 226C143.348 227.657 141.995 229 140.326 229C138.657 229 137.304 227.657 137.304 226C137.304 224.343 138.657 223 140.326 223C141.995 223 143.348 224.343 143.348 226ZM158.457 229C160.125 229 161.478 227.657 161.478 226C161.478 224.343 160.125 223 158.457 223C156.788 223 155.435 224.343 155.435 226C155.435 227.657 156.788 229 158.457 229ZM179.609 226C179.609 227.657 178.256 229 176.587 229C174.918 229 173.565 227.657 173.565 226C173.565 224.343 174.918 223 176.587 223C178.256 223 179.609 224.343 179.609 226ZM194.717 229C196.386 229 197.739 227.657 197.739 226C197.739 224.343 196.386 223 194.717 223C193.049 223 191.696 224.343 191.696 226C191.696 227.657 193.049 229 194.717 229ZM215.87 226C215.87 227.657 214.517 229 212.848 229C211.179 229 209.826 227.657 209.826 226C209.826 224.343 211.179 223 212.848 223C214.517 223 215.87 224.343 215.87 226ZM230.978 229C232.647 229 234 227.657 234 226C234 224.343 232.647 223 230.978 223C229.309 223 227.957 224.343 227.957 226C227.957 227.657 229.309 229 230.978 229ZM31.5435 6C33.2123 6 34.5652 4.65685 34.5652 3C34.5652 1.34315 33.2123 0 31.5435 0C29.8746 0 28.5217 1.34315 28.5217 3C28.5217 4.65685 29.8746 6 31.5435 6ZM-30.9783 219C-29.3094 219 -27.9565 217.657 -27.9565 216C-27.9565 214.343 -29.3094 213 -30.9783 213C-32.6471 213 -34 214.343 -34 216C-34 217.657 -32.6471 219 -30.9783 219ZM-12.8478 219C-11.179 219 -9.82609 217.657 -9.82609 216C-9.82609 214.343 -11.179 213 -12.8478 213C-14.5167 213 -15.8696 214.343 -15.8696 216C-15.8696 217.657 -14.5167 219 -12.8478 219ZM8.30435 216C8.30435 217.657 6.95147 219 5.28261 219C3.61375 219 2.26087 217.657 2.26087 216C2.26087 214.343 3.61375 213 5.28261 213C6.95147 213 8.30435 214.343 8.30435 216ZM23.413 219C25.0819 219 26.4348 217.657 26.4348 216C26.4348 214.343 25.0819 213 23.413 213C21.7442 213 20.3913 214.343 20.3913 216C20.3913 217.657 21.7442 219 23.413 219ZM44.5652 216C44.5652 217.657 43.2123 219 41.5435 219C39.8746 219 38.5217 217.657 38.5217 216C38.5217 214.343 39.8746 213 41.5435 213C43.2123 213 44.5652 214.343 44.5652 216ZM59.6739 219C61.3428 219 62.6957 217.657 62.6957 216C62.6957 214.343 61.3428 213 59.6739 213C58.0051 213 56.6522 214.343 56.6522 216C56.6522 217.657 58.0051 219 59.6739 219ZM80.8261 216C80.8261 217.657 79.4732 219 77.8043 219C76.1355 219 74.7826 217.657 74.7826 216C74.7826 214.343 76.1355 213 77.8043 213C79.4732 213 80.8261 214.343 80.8261 216ZM95.9348 219C97.6036 219 98.9565 217.657 98.9565 216C98.9565 214.343 97.6036 213 95.9348 213C94.2659 213 92.913 214.343 92.913 216C92.913 217.657 94.2659 219 95.9348 219ZM117.087 216C117.087 217.657 115.734 219 114.065 219C112.396 219 111.043 217.657 111.043 216C111.043 214.343 112.396 213 114.065 213C115.734 213 117.087 214.343 117.087 216ZM132.196 219C133.865 219 135.217 217.657 135.217 216C135.217 214.343 133.865 213 132.196 213C130.527 213 129.174 214.343 129.174 216C129.174 217.657 130.527 219 132.196 219ZM153.348 216C153.348 217.657 151.995 219 150.326 219C148.657 219 147.304 217.657 147.304 216C147.304 214.343 148.657 213 150.326 213C151.995 213 153.348 214.343 153.348 216ZM168.457 219C170.125 219 171.478 217.657 171.478 216C171.478 214.343 170.125 213 168.457 213C166.788 213 165.435 214.343 165.435 216C165.435 217.657 166.788 219 168.457 219ZM189.609 216C189.609 217.657 188.256 219 186.587 219C184.918 219 183.565 217.657 183.565 216C183.565 214.343 184.918 213 186.587 213C188.256 213 189.609 214.343 189.609 216ZM204.717 219C206.386 219 207.739 217.657 207.739 216C207.739 214.343 206.386 213 204.717 213C203.049 213 201.696 214.343 201.696 216C201.696 217.657 203.049 219 204.717 219ZM225.87 216C225.87 217.657 224.517 219 222.848 219C221.179 219 219.826 217.657 219.826 216C219.826 214.343 221.179 213 222.848 213C224.517 213 225.87 214.343 225.87 216ZM240.978 219C242.647 219 244 217.657 244 216C244 214.343 242.647 213 240.978 213C239.309 213 237.957 214.343 237.957 216C237.957 217.657 239.309 219 240.978 219ZM49.6739 6C51.3428 6 52.6957 4.65685 52.6957 3C52.6957 1.34315 51.3428 0 49.6739 0C48.0051 0 46.6522 1.34315 46.6522 3C46.6522 4.65685 48.0051 6 49.6739 6ZM-40.9783 209C-39.3094 209 -37.9565 207.657 -37.9565 206C-37.9565 204.343 -39.3094 203 -40.9783 203C-42.6471 203 -44 204.343 -44 206C-44 207.657 -42.6471 209 -40.9783 209ZM-22.8478 209C-21.179 209 -19.8261 207.657 -19.8261 206C-19.8261 204.343 -21.179 203 -22.8478 203C-24.5167 203 -25.8696 204.343 -25.8696 206C-25.8696 207.657 -24.5167 209 -22.8478 209ZM-1.69565 206C-1.69565 207.657 -3.04853 209 -4.71739 209C-6.38625 209 -7.73913 207.657 -7.73913 206C-7.73913 204.343 -6.38625 203 -4.71739 203C-3.04853 203 -1.69565 204.343 -1.69565 206ZM13.413 209C15.0819 209 16.4348 207.657 16.4348 206C16.4348 204.343 15.0819 203 13.413 203C11.7442 203 10.3913 204.343 10.3913 206C10.3913 207.657 11.7442 209 13.413 209ZM34.5652 206C34.5652 207.657 33.2123 209 31.5435 209C29.8746 209 28.5217 207.657 28.5217 206C28.5217 204.343 29.8746 203 31.5435 203C33.2123 203 34.5652 204.343 34.5652 206ZM49.6739 209C51.3428 209 52.6957 207.657 52.6957 206C52.6957 204.343 51.3428 203 49.6739 203C48.0051 203 46.6522 204.343 46.6522 206C46.6522 207.657 48.0051 209 49.6739 209ZM70.8261 206C70.8261 207.657 69.4732 209 67.8043 209C66.1355 209 64.7826 207.657 64.7826 206C64.7826 204.343 66.1355 203 67.8043 203C69.4732 203 70.8261 204.343 70.8261 206ZM85.9348 209C87.6036 209 88.9565 207.657 88.9565 206C88.9565 204.343 87.6036 203 85.9348 203C84.2659 203 82.913 204.343 82.913 206C82.913 207.657 84.2659 209 85.9348 209ZM107.087 206C107.087 207.657 105.734 209 104.065 209C102.396 209 101.043 207.657 101.043 206C101.043 204.343 102.396 203 104.065 203C105.734 203 107.087 204.343 107.087 206ZM122.196 209C123.865 209 125.217 207.657 125.217 206C125.217 204.343 123.865 203 122.196 203C120.527 203 119.174 204.343 119.174 206C119.174 207.657 120.527 209 122.196 209ZM143.348 206C143.348 207.657 141.995 209 140.326 209C138.657 209 137.304 207.657 137.304 206C137.304 204.343 138.657 203 140.326 203C141.995 203 143.348 204.343 143.348 206ZM158.457 209C160.125 209 161.478 207.657 161.478 206C161.478 204.343 160.125 203 158.457 203C156.788 203 155.435 204.343 155.435 206C155.435 207.657 156.788 209 158.457 209ZM179.609 206C179.609 207.657 178.256 209 176.587 209C174.918 209 173.565 207.657 173.565 206C173.565 204.343 174.918 203 176.587 203C178.256 203 179.609 204.343 179.609 206ZM194.717 209C196.386 209 197.739 207.657 197.739 206C197.739 204.343 196.386 203 194.717 203C193.049 203 191.696 204.343 191.696 206C191.696 207.657 193.049 209 194.717 209ZM215.87 206C215.87 207.657 214.517 209 212.848 209C211.179 209 209.826 207.657 209.826 206C209.826 204.343 211.179 203 212.848 203C214.517 203 215.87 204.343 215.87 206ZM230.978 209C232.647 209 234 207.657 234 206C234 204.343 232.647 203 230.978 203C229.309 203 227.957 204.343 227.957 206C227.957 207.657 229.309 209 230.978 209ZM67.8043 6C69.4732 6 70.8261 4.65685 70.8261 3C70.8261 1.34315 69.4732 0 67.8043 0C66.1355 0 64.7826 1.34315 64.7826 3C64.7826 4.65685 66.1355 6 67.8043 6ZM-30.9783 200C-29.3094 200 -27.9565 198.657 -27.9565 197C-27.9565 195.343 -29.3094 194 -30.9783 194C-32.6471 194 -34 195.343 -34 197C-34 198.657 -32.6471 200 -30.9783 200ZM-12.8478 200C-11.179 200 -9.82609 198.657 -9.82609 197C-9.82609 195.343 -11.179 194 -12.8478 194C-14.5167 194 -15.8696 195.343 -15.8696 197C-15.8696 198.657 -14.5167 200 -12.8478 200ZM8.30435 197C8.30435 198.657 6.95147 200 5.28261 200C3.61375 200 2.26087 198.657 2.26087 197C2.26087 195.343 3.61375 194 5.28261 194C6.95147 194 8.30435 195.343 8.30435 197ZM23.413 200C25.0819 200 26.4348 198.657 26.4348 197C26.4348 195.343 25.0819 194 23.413 194C21.7442 194 20.3913 195.343 20.3913 197C20.3913 198.657 21.7442 200 23.413 200ZM44.5652 197C44.5652 198.657 43.2123 200 41.5435 200C39.8746 200 38.5217 198.657 38.5217 197C38.5217 195.343 39.8746 194 41.5435 194C43.2123 194 44.5652 195.343 44.5652 197ZM59.6739 200C61.3428 200 62.6957 198.657 62.6957 197C62.6957 195.343 61.3428 194 59.6739 194C58.0051 194 56.6522 195.343 56.6522 197C56.6522 198.657 58.0051 200 59.6739 200ZM80.8261 197C80.8261 198.657 79.4732 200 77.8043 200C76.1355 200 74.7826 198.657 74.7826 197C74.7826 195.343 76.1355 194 77.8043 194C79.4732 194 80.8261 195.343 80.8261 197ZM95.9348 200C97.6036 200 98.9565 198.657 98.9565 197C98.9565 195.343 97.6036 194 95.9348 194C94.2659 194 92.913 195.343 92.913 197C92.913 198.657 94.2659 200 95.9348 200ZM117.087 197C117.087 198.657 115.734 200 114.065 200C112.396 200 111.043 198.657 111.043 197C111.043 195.343 112.396 194 114.065 194C115.734 194 117.087 195.343 117.087 197ZM132.196 200C133.865 200 135.217 198.657 135.217 197C135.217 195.343 133.865 194 132.196 194C130.527 194 129.174 195.343 129.174 197C129.174 198.657 130.527 200 132.196 200ZM153.348 197C153.348 198.657 151.995 200 150.326 200C148.657 200 147.304 198.657 147.304 197C147.304 195.343 148.657 194 150.326 194C151.995 194 153.348 195.343 153.348 197ZM168.457 200C170.125 200 171.478 198.657 171.478 197C171.478 195.343 170.125 194 168.457 194C166.788 194 165.435 195.343 165.435 197C165.435 198.657 166.788 200 168.457 200ZM189.609 197C189.609 198.657 188.256 200 186.587 200C184.918 200 183.565 198.657 183.565 197C183.565 195.343 184.918 194 186.587 194C188.256 194 189.609 195.343 189.609 197ZM204.717 200C206.386 200 207.739 198.657 207.739 197C207.739 195.343 206.386 194 204.717 194C203.049 194 201.696 195.343 201.696 197C201.696 198.657 203.049 200 204.717 200ZM225.87 197C225.87 198.657 224.517 200 222.848 200C221.179 200 219.826 198.657 219.826 197C219.826 195.343 221.179 194 222.848 194C224.517 194 225.87 195.343 225.87 197ZM240.978 200C242.647 200 244 198.657 244 197C244 195.343 242.647 194 240.978 194C239.309 194 237.957 195.343 237.957 197C237.957 198.657 239.309 200 240.978 200ZM85.9348 6C87.6036 6 88.9565 4.65685 88.9565 3C88.9565 1.34315 87.6036 0 85.9348 0C84.2659 0 82.913 1.34315 82.913 3C82.913 4.65685 84.2659 6 85.9348 6ZM-40.9783 190C-39.3094 190 -37.9565 188.657 -37.9565 187C-37.9565 185.343 -39.3094 184 -40.9783 184C-42.6471 184 -44 185.343 -44 187C-44 188.657 -42.6471 190 -40.9783 190ZM-22.8478 190C-21.179 190 -19.8261 188.657 -19.8261 187C-19.8261 185.343 -21.179 184 -22.8478 184C-24.5167 184 -25.8696 185.343 -25.8696 187C-25.8696 188.657 -24.5167 190 -22.8478 190ZM-1.69565 187C-1.69565 188.657 -3.04853 190 -4.71739 190C-6.38625 190 -7.73913 188.657 -7.73913 187C-7.73913 185.343 -6.38625 184 -4.71739 184C-3.04853 184 -1.69565 185.343 -1.69565 187ZM13.413 190C15.0819 190 16.4348 188.657 16.4348 187C16.4348 185.343 15.0819 184 13.413 184C11.7442 184 10.3913 185.343 10.3913 187C10.3913 188.657 11.7442 190 13.413 190ZM34.5652 187C34.5652 188.657 33.2123 190 31.5435 190C29.8746 190 28.5217 188.657 28.5217 187C28.5217 185.343 29.8746 184 31.5435 184C33.2123 184 34.5652 185.343 34.5652 187ZM49.6739 190C51.3428 190 52.6957 188.657 52.6957 187C52.6957 185.343 51.3428 184 49.6739 184C48.0051 184 46.6522 185.343 46.6522 187C46.6522 188.657 48.0051 190 49.6739 190ZM70.8261 187C70.8261 188.657 69.4732 190 67.8043 190C66.1355 190 64.7826 188.657 64.7826 187C64.7826 185.343 66.1355 184 67.8043 184C69.4732 184 70.8261 185.343 70.8261 187ZM85.9348 190C87.6036 190 88.9565 188.657 88.9565 187C88.9565 185.343 87.6036 184 85.9348 184C84.2659 184 82.913 185.343 82.913 187C82.913 188.657 84.2659 190 85.9348 190ZM107.087 187C107.087 188.657 105.734 190 104.065 190C102.396 190 101.043 188.657 101.043 187C101.043 185.343 102.396 184 104.065 184C105.734 184 107.087 185.343 107.087 187ZM122.196 190C123.865 190 125.217 188.657 125.217 187C125.217 185.343 123.865 184 122.196 184C120.527 184 119.174 185.343 119.174 187C119.174 188.657 120.527 190 122.196 190ZM143.348 187C143.348 188.657 141.995 190 140.326 190C138.657 190 137.304 188.657 137.304 187C137.304 185.343 138.657 184 140.326 184C141.995 184 143.348 185.343 143.348 187ZM158.457 190C160.125 190 161.478 188.657 161.478 187C161.478 185.343 160.125 184 158.457 184C156.788 184 155.435 185.343 155.435 187C155.435 188.657 156.788 190 158.457 190ZM179.609 187C179.609 188.657 178.256 190 176.587 190C174.918 190 173.565 188.657 173.565 187C173.565 185.343 174.918 184 176.587 184C178.256 184 179.609 185.343 179.609 187ZM194.717 190C196.386 190 197.739 188.657 197.739 187C197.739 185.343 196.386 184 194.717 184C193.049 184 191.696 185.343 191.696 187C191.696 188.657 193.049 190 194.717 190ZM215.87 187C215.87 188.657 214.517 190 212.848 190C211.179 190 209.826 188.657 209.826 187C209.826 185.343 211.179 184 212.848 184C214.517 184 215.87 185.343 215.87 187ZM230.978 190C232.647 190 234 188.657 234 187C234 185.343 232.647 184 230.978 184C229.309 184 227.957 185.343 227.957 187C227.957 188.657 229.309 190 230.978 190ZM104.065 6C105.734 6 107.087 4.65685 107.087 3C107.087 1.34315 105.734 0 104.065 0C102.396 0 101.043 1.34315 101.043 3C101.043 4.65685 102.396 6 104.065 6ZM-30.9783 180C-29.3094 180 -27.9565 178.657 -27.9565 177C-27.9565 175.343 -29.3094 174 -30.9783 174C-32.6471 174 -34 175.343 -34 177C-34 178.657 -32.6471 180 -30.9783 180ZM-12.8478 180C-11.179 180 -9.82609 178.657 -9.82609 177C-9.82609 175.343 -11.179 174 -12.8478 174C-14.5167 174 -15.8696 175.343 -15.8696 177C-15.8696 178.657 -14.5167 180 -12.8478 180ZM8.30435 177C8.30435 178.657 6.95147 180 5.28261 180C3.61375 180 2.26087 178.657 2.26087 177C2.26087 175.343 3.61375 174 5.28261 174C6.95147 174 8.30435 175.343 8.30435 177ZM23.413 180C25.0819 180 26.4348 178.657 26.4348 177C26.4348 175.343 25.0819 174 23.413 174C21.7442 174 20.3913 175.343 20.3913 177C20.3913 178.657 21.7442 180 23.413 180ZM44.5652 177C44.5652 178.657 43.2123 180 41.5435 180C39.8746 180 38.5217 178.657 38.5217 177C38.5217 175.343 39.8746 174 41.5435 174C43.2123 174 44.5652 175.343 44.5652 177ZM59.6739 180C61.3428 180 62.6957 178.657 62.6957 177C62.6957 175.343 61.3428 174 59.6739 174C58.0051 174 56.6522 175.343 56.6522 177C56.6522 178.657 58.0051 180 59.6739 180ZM80.8261 177C80.8261 178.657 79.4732 180 77.8043 180C76.1355 180 74.7826 178.657 74.7826 177C74.7826 175.343 76.1355 174 77.8043 174C79.4732 174 80.8261 175.343 80.8261 177ZM95.9348 180C97.6036 180 98.9565 178.657 98.9565 177C98.9565 175.343 97.6036 174 95.9348 174C94.2659 174 92.913 175.343 92.913 177C92.913 178.657 94.2659 180 95.9348 180ZM117.087 177C117.087 178.657 115.734 180 114.065 180C112.396 180 111.043 178.657 111.043 177C111.043 175.343 112.396 174 114.065 174C115.734 174 117.087 175.343 117.087 177ZM132.196 180C133.865 180 135.217 178.657 135.217 177C135.217 175.343 133.865 174 132.196 174C130.527 174 129.174 175.343 129.174 177C129.174 178.657 130.527 180 132.196 180ZM153.348 177C153.348 178.657 151.995 180 150.326 180C148.657 180 147.304 178.657 147.304 177C147.304 175.343 148.657 174 150.326 174C151.995 174 153.348 175.343 153.348 177ZM168.457 180C170.125 180 171.478 178.657 171.478 177C171.478 175.343 170.125 174 168.457 174C166.788 174 165.435 175.343 165.435 177C165.435 178.657 166.788 180 168.457 180ZM189.609 177C189.609 178.657 188.256 180 186.587 180C184.918 180 183.565 178.657 183.565 177C183.565 175.343 184.918 174 186.587 174C188.256 174 189.609 175.343 189.609 177ZM204.717 180C206.386 180 207.739 178.657 207.739 177C207.739 175.343 206.386 174 204.717 174C203.049 174 201.696 175.343 201.696 177C201.696 178.657 203.049 180 204.717 180ZM225.87 177C225.87 178.657 224.517 180 222.848 180C221.179 180 219.826 178.657 219.826 177C219.826 175.343 221.179 174 222.848 174C224.517 174 225.87 175.343 225.87 177ZM240.978 180C242.647 180 244 178.657 244 177C244 175.343 242.647 174 240.978 174C239.309 174 237.957 175.343 237.957 177C237.957 178.657 239.309 180 240.978 180ZM122.196 6C123.865 6 125.217 4.65685 125.217 3C125.217 1.34315 123.865 0 122.196 0C120.527 0 119.174 1.34315 119.174 3C119.174 4.65685 120.527 6 122.196 6ZM-40.9783 171C-39.3094 171 -37.9565 169.657 -37.9565 168C-37.9565 166.343 -39.3094 165 -40.9783 165C-42.6471 165 -44 166.343 -44 168C-44 169.657 -42.6471 171 -40.9783 171ZM-22.8478 171C-21.179 171 -19.8261 169.657 -19.8261 168C-19.8261 166.343 -21.179 165 -22.8478 165C-24.5167 165 -25.8696 166.343 -25.8696 168C-25.8696 169.657 -24.5167 171 -22.8478 171ZM-1.69565 168C-1.69565 169.657 -3.04853 171 -4.71739 171C-6.38625 171 -7.73913 169.657 -7.73913 168C-7.73913 166.343 -6.38625 165 -4.71739 165C-3.04853 165 -1.69565 166.343 -1.69565 168ZM13.413 171C15.0819 171 16.4348 169.657 16.4348 168C16.4348 166.343 15.0819 165 13.413 165C11.7442 165 10.3913 166.343 10.3913 168C10.3913 169.657 11.7442 171 13.413 171ZM34.5652 168C34.5652 169.657 33.2123 171 31.5435 171C29.8746 171 28.5217 169.657 28.5217 168C28.5217 166.343 29.8746 165 31.5435 165C33.2123 165 34.5652 166.343 34.5652 168ZM49.6739 171C51.3428 171 52.6957 169.657 52.6957 168C52.6957 166.343 51.3428 165 49.6739 165C48.0051 165 46.6522 166.343 46.6522 168C46.6522 169.657 48.0051 171 49.6739 171ZM70.8261 168C70.8261 169.657 69.4732 171 67.8043 171C66.1355 171 64.7826 169.657 64.7826 168C64.7826 166.343 66.1355 165 67.8043 165C69.4732 165 70.8261 166.343 70.8261 168ZM85.9348 171C87.6036 171 88.9565 169.657 88.9565 168C88.9565 166.343 87.6036 165 85.9348 165C84.2659 165 82.913 166.343 82.913 168C82.913 169.657 84.2659 171 85.9348 171ZM107.087 168C107.087 169.657 105.734 171 104.065 171C102.396 171 101.043 169.657 101.043 168C101.043 166.343 102.396 165 104.065 165C105.734 165 107.087 166.343 107.087 168ZM122.196 171C123.865 171 125.217 169.657 125.217 168C125.217 166.343 123.865 165 122.196 165C120.527 165 119.174 166.343 119.174 168C119.174 169.657 120.527 171 122.196 171ZM143.348 168C143.348 169.657 141.995 171 140.326 171C138.657 171 137.304 169.657 137.304 168C137.304 166.343 138.657 165 140.326 165C141.995 165 143.348 166.343 143.348 168ZM158.457 171C160.125 171 161.478 169.657 161.478 168C161.478 166.343 160.125 165 158.457 165C156.788 165 155.435 166.343 155.435 168C155.435 169.657 156.788 171 158.457 171ZM179.609 168C179.609 169.657 178.256 171 176.587 171C174.918 171 173.565 169.657 173.565 168C173.565 166.343 174.918 165 176.587 165C178.256 165 179.609 166.343 179.609 168ZM194.717 171C196.386 171 197.739 169.657 197.739 168C197.739 166.343 196.386 165 194.717 165C193.049 165 191.696 166.343 191.696 168C191.696 169.657 193.049 171 194.717 171ZM215.87 168C215.87 169.657 214.517 171 212.848 171C211.179 171 209.826 169.657 209.826 168C209.826 166.343 211.179 165 212.848 165C214.517 165 215.87 166.343 215.87 168ZM230.978 171C232.647 171 234 169.657 234 168C234 166.343 232.647 165 230.978 165C229.309 165 227.957 166.343 227.957 168C227.957 169.657 229.309 171 230.978 171ZM140.326 6C141.995 6 143.348 4.65685 143.348 3C143.348 1.34315 141.995 0 140.326 0C138.657 0 137.304 1.34315 137.304 3C137.304 4.65685 138.657 6 140.326 6ZM-30.9783 161C-29.3094 161 -27.9565 159.657 -27.9565 158C-27.9565 156.343 -29.3094 155 -30.9783 155C-32.6471 155 -34 156.343 -34 158C-34 159.657 -32.6471 161 -30.9783 161ZM-12.8478 161C-11.179 161 -9.82609 159.657 -9.82609 158C-9.82609 156.343 -11.179 155 -12.8478 155C-14.5167 155 -15.8696 156.343 -15.8696 158C-15.8696 159.657 -14.5167 161 -12.8478 161ZM8.30435 158C8.30435 159.657 6.95147 161 5.28261 161C3.61375 161 2.26087 159.657 2.26087 158C2.26087 156.343 3.61375 155 5.28261 155C6.95147 155 8.30435 156.343 8.30435 158ZM23.413 161C25.0819 161 26.4348 159.657 26.4348 158C26.4348 156.343 25.0819 155 23.413 155C21.7442 155 20.3913 156.343 20.3913 158C20.3913 159.657 21.7442 161 23.413 161ZM44.5652 158C44.5652 159.657 43.2123 161 41.5435 161C39.8746 161 38.5217 159.657 38.5217 158C38.5217 156.343 39.8746 155 41.5435 155C43.2123 155 44.5652 156.343 44.5652 158ZM59.6739 161C61.3428 161 62.6957 159.657 62.6957 158C62.6957 156.343 61.3428 155 59.6739 155C58.0051 155 56.6522 156.343 56.6522 158C56.6522 159.657 58.0051 161 59.6739 161ZM80.8261 158C80.8261 159.657 79.4732 161 77.8043 161C76.1355 161 74.7826 159.657 74.7826 158C74.7826 156.343 76.1355 155 77.8043 155C79.4732 155 80.8261 156.343 80.8261 158ZM95.9348 161C97.6036 161 98.9565 159.657 98.9565 158C98.9565 156.343 97.6036 155 95.9348 155C94.2659 155 92.913 156.343 92.913 158C92.913 159.657 94.2659 161 95.9348 161ZM117.087 158C117.087 159.657 115.734 161 114.065 161C112.396 161 111.043 159.657 111.043 158C111.043 156.343 112.396 155 114.065 155C115.734 155 117.087 156.343 117.087 158ZM132.196 161C133.865 161 135.217 159.657 135.217 158C135.217 156.343 133.865 155 132.196 155C130.527 155 129.174 156.343 129.174 158C129.174 159.657 130.527 161 132.196 161ZM153.348 158C153.348 159.657 151.995 161 150.326 161C148.657 161 147.304 159.657 147.304 158C147.304 156.343 148.657 155 150.326 155C151.995 155 153.348 156.343 153.348 158ZM168.457 161C170.125 161 171.478 159.657 171.478 158C171.478 156.343 170.125 155 168.457 155C166.788 155 165.435 156.343 165.435 158C165.435 159.657 166.788 161 168.457 161ZM189.609 158C189.609 159.657 188.256 161 186.587 161C184.918 161 183.565 159.657 183.565 158C183.565 156.343 184.918 155 186.587 155C188.256 155 189.609 156.343 189.609 158ZM204.717 161C206.386 161 207.739 159.657 207.739 158C207.739 156.343 206.386 155 204.717 155C203.049 155 201.696 156.343 201.696 158C201.696 159.657 203.049 161 204.717 161ZM225.87 158C225.87 159.657 224.517 161 222.848 161C221.179 161 219.826 159.657 219.826 158C219.826 156.343 221.179 155 222.848 155C224.517 155 225.87 156.343 225.87 158ZM240.978 161C242.647 161 244 159.657 244 158C244 156.343 242.647 155 240.978 155C239.309 155 237.957 156.343 237.957 158C237.957 159.657 239.309 161 240.978 161ZM158.457 6C160.125 6 161.478 4.65685 161.478 3C161.478 1.34315 160.125 0 158.457 0C156.788 0 155.435 1.34315 155.435 3C155.435 4.65685 156.788 6 158.457 6ZM-40.9783 151C-39.3094 151 -37.9565 149.657 -37.9565 148C-37.9565 146.343 -39.3094 145 -40.9783 145C-42.6471 145 -44 146.343 -44 148C-44 149.657 -42.6471 151 -40.9783 151ZM-22.8478 151C-21.179 151 -19.8261 149.657 -19.8261 148C-19.8261 146.343 -21.179 145 -22.8478 145C-24.5167 145 -25.8696 146.343 -25.8696 148C-25.8696 149.657 -24.5167 151 -22.8478 151ZM-1.69565 148C-1.69565 149.657 -3.04853 151 -4.71739 151C-6.38625 151 -7.73913 149.657 -7.73913 148C-7.73913 146.343 -6.38625 145 -4.71739 145C-3.04853 145 -1.69565 146.343 -1.69565 148ZM13.413 151C15.0819 151 16.4348 149.657 16.4348 148C16.4348 146.343 15.0819 145 13.413 145C11.7442 145 10.3913 146.343 10.3913 148C10.3913 149.657 11.7442 151 13.413 151ZM34.5652 148C34.5652 149.657 33.2123 151 31.5435 151C29.8746 151 28.5217 149.657 28.5217 148C28.5217 146.343 29.8746 145 31.5435 145C33.2123 145 34.5652 146.343 34.5652 148ZM49.6739 151C51.3428 151 52.6957 149.657 52.6957 148C52.6957 146.343 51.3428 145 49.6739 145C48.0051 145 46.6522 146.343 46.6522 148C46.6522 149.657 48.0051 151 49.6739 151ZM70.8261 148C70.8261 149.657 69.4732 151 67.8043 151C66.1355 151 64.7826 149.657 64.7826 148C64.7826 146.343 66.1355 145 67.8043 145C69.4732 145 70.8261 146.343 70.8261 148ZM85.9348 151C87.6036 151 88.9565 149.657 88.9565 148C88.9565 146.343 87.6036 145 85.9348 145C84.2659 145 82.913 146.343 82.913 148C82.913 149.657 84.2659 151 85.9348 151ZM107.087 148C107.087 149.657 105.734 151 104.065 151C102.396 151 101.043 149.657 101.043 148C101.043 146.343 102.396 145 104.065 145C105.734 145 107.087 146.343 107.087 148ZM122.196 151C123.865 151 125.217 149.657 125.217 148C125.217 146.343 123.865 145 122.196 145C120.527 145 119.174 146.343 119.174 148C119.174 149.657 120.527 151 122.196 151ZM143.348 148C143.348 149.657 141.995 151 140.326 151C138.657 151 137.304 149.657 137.304 148C137.304 146.343 138.657 145 140.326 145C141.995 145 143.348 146.343 143.348 148ZM158.457 151C160.125 151 161.478 149.657 161.478 148C161.478 146.343 160.125 145 158.457 145C156.788 145 155.435 146.343 155.435 148C155.435 149.657 156.788 151 158.457 151ZM179.609 148C179.609 149.657 178.256 151 176.587 151C174.918 151 173.565 149.657 173.565 148C173.565 146.343 174.918 145 176.587 145C178.256 145 179.609 146.343 179.609 148ZM194.717 151C196.386 151 197.739 149.657 197.739 148C197.739 146.343 196.386 145 194.717 145C193.049 145 191.696 146.343 191.696 148C191.696 149.657 193.049 151 194.717 151ZM215.87 148C215.87 149.657 214.517 151 212.848 151C211.179 151 209.826 149.657 209.826 148C209.826 146.343 211.179 145 212.848 145C214.517 145 215.87 146.343 215.87 148ZM230.978 151C232.647 151 234 149.657 234 148C234 146.343 232.647 145 230.978 145C229.309 145 227.957 146.343 227.957 148C227.957 149.657 229.309 151 230.978 151ZM176.587 6C178.256 6 179.609 4.65685 179.609 3C179.609 1.34315 178.256 0 176.587 0C174.918 0 173.565 1.34315 173.565 3C173.565 4.65685 174.918 6 176.587 6ZM-30.9783 141C-29.3094 141 -27.9565 139.657 -27.9565 138C-27.9565 136.343 -29.3094 135 -30.9783 135C-32.6471 135 -34 136.343 -34 138C-34 139.657 -32.6471 141 -30.9783 141ZM-12.8478 141C-11.179 141 -9.82609 139.657 -9.82609 138C-9.82609 136.343 -11.179 135 -12.8478 135C-14.5167 135 -15.8696 136.343 -15.8696 138C-15.8696 139.657 -14.5167 141 -12.8478 141ZM8.30435 138C8.30435 139.657 6.95147 141 5.28261 141C3.61375 141 2.26087 139.657 2.26087 138C2.26087 136.343 3.61375 135 5.28261 135C6.95147 135 8.30435 136.343 8.30435 138ZM23.413 141C25.0819 141 26.4348 139.657 26.4348 138C26.4348 136.343 25.0819 135 23.413 135C21.7442 135 20.3913 136.343 20.3913 138C20.3913 139.657 21.7442 141 23.413 141ZM44.5652 138C44.5652 139.657 43.2123 141 41.5435 141C39.8746 141 38.5217 139.657 38.5217 138C38.5217 136.343 39.8746 135 41.5435 135C43.2123 135 44.5652 136.343 44.5652 138ZM59.6739 141C61.3428 141 62.6957 139.657 62.6957 138C62.6957 136.343 61.3428 135 59.6739 135C58.0051 135 56.6522 136.343 56.6522 138C56.6522 139.657 58.0051 141 59.6739 141ZM80.8261 138C80.8261 139.657 79.4732 141 77.8043 141C76.1355 141 74.7826 139.657 74.7826 138C74.7826 136.343 76.1355 135 77.8043 135C79.4732 135 80.8261 136.343 80.8261 138ZM95.9348 141C97.6036 141 98.9565 139.657 98.9565 138C98.9565 136.343 97.6036 135 95.9348 135C94.2659 135 92.913 136.343 92.913 138C92.913 139.657 94.2659 141 95.9348 141ZM117.087 138C117.087 139.657 115.734 141 114.065 141C112.396 141 111.043 139.657 111.043 138C111.043 136.343 112.396 135 114.065 135C115.734 135 117.087 136.343 117.087 138ZM132.196 141C133.865 141 135.217 139.657 135.217 138C135.217 136.343 133.865 135 132.196 135C130.527 135 129.174 136.343 129.174 138C129.174 139.657 130.527 141 132.196 141ZM153.348 138C153.348 139.657 151.995 141 150.326 141C148.657 141 147.304 139.657 147.304 138C147.304 136.343 148.657 135 150.326 135C151.995 135 153.348 136.343 153.348 138ZM168.457 141C170.125 141 171.478 139.657 171.478 138C171.478 136.343 170.125 135 168.457 135C166.788 135 165.435 136.343 165.435 138C165.435 139.657 166.788 141 168.457 141ZM189.609 138C189.609 139.657 188.256 141 186.587 141C184.918 141 183.565 139.657 183.565 138C183.565 136.343 184.918 135 186.587 135C188.256 135 189.609 136.343 189.609 138ZM204.717 141C206.386 141 207.739 139.657 207.739 138C207.739 136.343 206.386 135 204.717 135C203.049 135 201.696 136.343 201.696 138C201.696 139.657 203.049 141 204.717 141ZM225.87 138C225.87 139.657 224.517 141 222.848 141C221.179 141 219.826 139.657 219.826 138C219.826 136.343 221.179 135 222.848 135C224.517 135 225.87 136.343 225.87 138ZM240.978 141C242.647 141 244 139.657 244 138C244 136.343 242.647 135 240.978 135C239.309 135 237.957 136.343 237.957 138C237.957 139.657 239.309 141 240.978 141ZM194.717 6C196.386 6 197.739 4.65685 197.739 3C197.739 1.34315 196.386 0 194.717 0C193.049 0 191.696 1.34315 191.696 3C191.696 4.65685 193.049 6 194.717 6ZM-40.9783 132C-39.3094 132 -37.9565 130.657 -37.9565 129C-37.9565 127.343 -39.3094 126 -40.9783 126C-42.6471 126 -44 127.343 -44 129C-44 130.657 -42.6471 132 -40.9783 132ZM-22.8478 132C-21.179 132 -19.8261 130.657 -19.8261 129C-19.8261 127.343 -21.179 126 -22.8478 126C-24.5167 126 -25.8696 127.343 -25.8696 129C-25.8696 130.657 -24.5167 132 -22.8478 132ZM-1.69565 129C-1.69565 130.657 -3.04853 132 -4.71739 132C-6.38625 132 -7.73913 130.657 -7.73913 129C-7.73913 127.343 -6.38625 126 -4.71739 126C-3.04853 126 -1.69565 127.343 -1.69565 129ZM13.413 132C15.0819 132 16.4348 130.657 16.4348 129C16.4348 127.343 15.0819 126 13.413 126C11.7442 126 10.3913 127.343 10.3913 129C10.3913 130.657 11.7442 132 13.413 132ZM34.5652 129C34.5652 130.657 33.2123 132 31.5435 132C29.8746 132 28.5217 130.657 28.5217 129C28.5217 127.343 29.8746 126 31.5435 126C33.2123 126 34.5652 127.343 34.5652 129ZM49.6739 132C51.3428 132 52.6957 130.657 52.6957 129C52.6957 127.343 51.3428 126 49.6739 126C48.0051 126 46.6522 127.343 46.6522 129C46.6522 130.657 48.0051 132 49.6739 132ZM70.8261 129C70.8261 130.657 69.4732 132 67.8043 132C66.1355 132 64.7826 130.657 64.7826 129C64.7826 127.343 66.1355 126 67.8043 126C69.4732 126 70.8261 127.343 70.8261 129ZM85.9348 132C87.6036 132 88.9565 130.657 88.9565 129C88.9565 127.343 87.6036 126 85.9348 126C84.2659 126 82.913 127.343 82.913 129C82.913 130.657 84.2659 132 85.9348 132ZM107.087 129C107.087 130.657 105.734 132 104.065 132C102.396 132 101.043 130.657 101.043 129C101.043 127.343 102.396 126 104.065 126C105.734 126 107.087 127.343 107.087 129ZM122.196 132C123.865 132 125.217 130.657 125.217 129C125.217 127.343 123.865 126 122.196 126C120.527 126 119.174 127.343 119.174 129C119.174 130.657 120.527 132 122.196 132ZM143.348 129C143.348 130.657 141.995 132 140.326 132C138.657 132 137.304 130.657 137.304 129C137.304 127.343 138.657 126 140.326 126C141.995 126 143.348 127.343 143.348 129ZM158.457 132C160.125 132 161.478 130.657 161.478 129C161.478 127.343 160.125 126 158.457 126C156.788 126 155.435 127.343 155.435 129C155.435 130.657 156.788 132 158.457 132ZM179.609 129C179.609 130.657 178.256 132 176.587 132C174.918 132 173.565 130.657 173.565 129C173.565 127.343 174.918 126 176.587 126C178.256 126 179.609 127.343 179.609 129ZM194.717 132C196.386 132 197.739 130.657 197.739 129C197.739 127.343 196.386 126 194.717 126C193.049 126 191.696 127.343 191.696 129C191.696 130.657 193.049 132 194.717 132ZM215.87 129C215.87 130.657 214.517 132 212.848 132C211.179 132 209.826 130.657 209.826 129C209.826 127.343 211.179 126 212.848 126C214.517 126 215.87 127.343 215.87 129ZM230.978 132C232.647 132 234 130.657 234 129C234 127.343 232.647 126 230.978 126C229.309 126 227.957 127.343 227.957 129C227.957 130.657 229.309 132 230.978 132ZM212.848 6C214.517 6 215.87 4.65685 215.87 3C215.87 1.34315 214.517 0 212.848 0C211.179 0 209.826 1.34315 209.826 3C209.826 4.65685 211.179 6 212.848 6ZM-30.9783 122C-29.3094 122 -27.9565 120.657 -27.9565 119C-27.9565 117.343 -29.3094 116 -30.9783 116C-32.6471 116 -34 117.343 -34 119C-34 120.657 -32.6471 122 -30.9783 122ZM-12.8478 122C-11.179 122 -9.82609 120.657 -9.82609 119C-9.82609 117.343 -11.179 116 -12.8478 116C-14.5167 116 -15.8696 117.343 -15.8696 119C-15.8696 120.657 -14.5167 122 -12.8478 122ZM8.30435 119C8.30435 120.657 6.95147 122 5.28261 122C3.61375 122 2.26087 120.657 2.26087 119C2.26087 117.343 3.61375 116 5.28261 116C6.95147 116 8.30435 117.343 8.30435 119ZM23.413 122C25.0819 122 26.4348 120.657 26.4348 119C26.4348 117.343 25.0819 116 23.413 116C21.7442 116 20.3913 117.343 20.3913 119C20.3913 120.657 21.7442 122 23.413 122ZM44.5652 119C44.5652 120.657 43.2123 122 41.5435 122C39.8746 122 38.5217 120.657 38.5217 119C38.5217 117.343 39.8746 116 41.5435 116C43.2123 116 44.5652 117.343 44.5652 119ZM59.6739 122C61.3428 122 62.6957 120.657 62.6957 119C62.6957 117.343 61.3428 116 59.6739 116C58.0051 116 56.6522 117.343 56.6522 119C56.6522 120.657 58.0051 122 59.6739 122ZM80.8261 119C80.8261 120.657 79.4732 122 77.8043 122C76.1355 122 74.7826 120.657 74.7826 119C74.7826 117.343 76.1355 116 77.8043 116C79.4732 116 80.8261 117.343 80.8261 119ZM95.9348 122C97.6036 122 98.9565 120.657 98.9565 119C98.9565 117.343 97.6036 116 95.9348 116C94.2659 116 92.913 117.343 92.913 119C92.913 120.657 94.2659 122 95.9348 122ZM117.087 119C117.087 120.657 115.734 122 114.065 122C112.396 122 111.043 120.657 111.043 119C111.043 117.343 112.396 116 114.065 116C115.734 116 117.087 117.343 117.087 119ZM132.196 122C133.865 122 135.217 120.657 135.217 119C135.217 117.343 133.865 116 132.196 116C130.527 116 129.174 117.343 129.174 119C129.174 120.657 130.527 122 132.196 122ZM153.348 119C153.348 120.657 151.995 122 150.326 122C148.657 122 147.304 120.657 147.304 119C147.304 117.343 148.657 116 150.326 116C151.995 116 153.348 117.343 153.348 119ZM168.457 122C170.125 122 171.478 120.657 171.478 119C171.478 117.343 170.125 116 168.457 116C166.788 116 165.435 117.343 165.435 119C165.435 120.657 166.788 122 168.457 122ZM189.609 119C189.609 120.657 188.256 122 186.587 122C184.918 122 183.565 120.657 183.565 119C183.565 117.343 184.918 116 186.587 116C188.256 116 189.609 117.343 189.609 119ZM204.717 122C206.386 122 207.739 120.657 207.739 119C207.739 117.343 206.386 116 204.717 116C203.049 116 201.696 117.343 201.696 119C201.696 120.657 203.049 122 204.717 122ZM225.87 119C225.87 120.657 224.517 122 222.848 122C221.179 122 219.826 120.657 219.826 119C219.826 117.343 221.179 116 222.848 116C224.517 116 225.87 117.343 225.87 119ZM240.978 122C242.647 122 244 120.657 244 119C244 117.343 242.647 116 240.978 116C239.309 116 237.957 117.343 237.957 119C237.957 120.657 239.309 122 240.978 122ZM230.978 6C232.647 6 234 4.65685 234 3C234 1.34315 232.647 0 230.978 0C229.309 0 227.957 1.34315 227.957 3C227.957 4.65685 229.309 6 230.978 6ZM-40.9783 112C-39.3094 112 -37.9565 110.657 -37.9565 109C-37.9565 107.343 -39.3094 106 -40.9783 106C-42.6471 106 -44 107.343 -44 109C-44 110.657 -42.6471 112 -40.9783 112ZM-22.8478 112C-21.179 112 -19.8261 110.657 -19.8261 109C-19.8261 107.343 -21.179 106 -22.8478 106C-24.5167 106 -25.8696 107.343 -25.8696 109C-25.8696 110.657 -24.5167 112 -22.8478 112ZM-1.69565 109C-1.69565 110.657 -3.04853 112 -4.71739 112C-6.38625 112 -7.73913 110.657 -7.73913 109C-7.73913 107.343 -6.38625 106 -4.71739 106C-3.04853 106 -1.69565 107.343 -1.69565 109ZM13.413 112C15.0819 112 16.4348 110.657 16.4348 109C16.4348 107.343 15.0819 106 13.413 106C11.7442 106 10.3913 107.343 10.3913 109C10.3913 110.657 11.7442 112 13.413 112ZM34.5652 109C34.5652 110.657 33.2123 112 31.5435 112C29.8746 112 28.5217 110.657 28.5217 109C28.5217 107.343 29.8746 106 31.5435 106C33.2123 106 34.5652 107.343 34.5652 109ZM49.6739 112C51.3428 112 52.6957 110.657 52.6957 109C52.6957 107.343 51.3428 106 49.6739 106C48.0051 106 46.6522 107.343 46.6522 109C46.6522 110.657 48.0051 112 49.6739 112ZM70.8261 109C70.8261 110.657 69.4732 112 67.8043 112C66.1355 112 64.7826 110.657 64.7826 109C64.7826 107.343 66.1355 106 67.8043 106C69.4732 106 70.8261 107.343 70.8261 109ZM85.9348 112C87.6036 112 88.9565 110.657 88.9565 109C88.9565 107.343 87.6036 106 85.9348 106C84.2659 106 82.913 107.343 82.913 109C82.913 110.657 84.2659 112 85.9348 112ZM107.087 109C107.087 110.657 105.734 112 104.065 112C102.396 112 101.043 110.657 101.043 109C101.043 107.343 102.396 106 104.065 106C105.734 106 107.087 107.343 107.087 109ZM122.196 112C123.865 112 125.217 110.657 125.217 109C125.217 107.343 123.865 106 122.196 106C120.527 106 119.174 107.343 119.174 109C119.174 110.657 120.527 112 122.196 112ZM143.348 109C143.348 110.657 141.995 112 140.326 112C138.657 112 137.304 110.657 137.304 109C137.304 107.343 138.657 106 140.326 106C141.995 106 143.348 107.343 143.348 109ZM158.457 112C160.125 112 161.478 110.657 161.478 109C161.478 107.343 160.125 106 158.457 106C156.788 106 155.435 107.343 155.435 109C155.435 110.657 156.788 112 158.457 112ZM179.609 109C179.609 110.657 178.256 112 176.587 112C174.918 112 173.565 110.657 173.565 109C173.565 107.343 174.918 106 176.587 106C178.256 106 179.609 107.343 179.609 109ZM194.717 112C196.386 112 197.739 110.657 197.739 109C197.739 107.343 196.386 106 194.717 106C193.049 106 191.696 107.343 191.696 109C191.696 110.657 193.049 112 194.717 112ZM215.87 109C215.87 110.657 214.517 112 212.848 112C211.179 112 209.826 110.657 209.826 109C209.826 107.343 211.179 106 212.848 106C214.517 106 215.87 107.343 215.87 109ZM230.978 112C232.647 112 234 110.657 234 109C234 107.343 232.647 106 230.978 106C229.309 106 227.957 107.343 227.957 109C227.957 110.657 229.309 112 230.978 112ZM-27.9565 100C-27.9565 101.657 -29.3094 103 -30.9783 103C-32.6471 103 -34 101.657 -34 100C-34 98.3431 -32.6471 97 -30.9783 97C-29.3094 97 -27.9565 98.3431 -27.9565 100ZM-9.82609 100C-9.82609 101.657 -11.179 103 -12.8478 103C-14.5167 103 -15.8696 101.657 -15.8696 100C-15.8696 98.3431 -14.5167 97 -12.8478 97C-11.179 97 -9.82609 98.3431 -9.82609 100ZM5.28261 103C6.95147 103 8.30435 101.657 8.30435 100C8.30435 98.3431 6.95147 97 5.28261 97C3.61375 97 2.26087 98.3431 2.26087 100C2.26087 101.657 3.61375 103 5.28261 103ZM26.4348 100C26.4348 101.657 25.0819 103 23.413 103C21.7442 103 20.3913 101.657 20.3913 100C20.3913 98.3431 21.7442 97 23.413 97C25.0819 97 26.4348 98.3431 26.4348 100ZM41.5435 103C43.2123 103 44.5652 101.657 44.5652 100C44.5652 98.3431 43.2123 97 41.5435 97C39.8746 97 38.5217 98.3431 38.5217 100C38.5217 101.657 39.8746 103 41.5435 103ZM62.6957 100C62.6957 101.657 61.3428 103 59.6739 103C58.0051 103 56.6522 101.657 56.6522 100C56.6522 98.3431 58.0051 97 59.6739 97C61.3428 97 62.6957 98.3431 62.6957 100ZM77.8043 103C79.4732 103 80.8261 101.657 80.8261 100C80.8261 98.3431 79.4732 97 77.8043 97C76.1355 97 74.7826 98.3431 74.7826 100C74.7826 101.657 76.1355 103 77.8043 103ZM98.9565 100C98.9565 101.657 97.6036 103 95.9348 103C94.2659 103 92.913 101.657 92.913 100C92.913 98.3431 94.2659 97 95.9348 97C97.6036 97 98.9565 98.3431 98.9565 100ZM114.065 103C115.734 103 117.087 101.657 117.087 100C117.087 98.3431 115.734 97 114.065 97C112.396 97 111.043 98.3431 111.043 100C111.043 101.657 112.396 103 114.065 103ZM135.217 100C135.217 101.657 133.865 103 132.196 103C130.527 103 129.174 101.657 129.174 100C129.174 98.3431 130.527 97 132.196 97C133.865 97 135.217 98.3431 135.217 100ZM150.326 103C151.995 103 153.348 101.657 153.348 100C153.348 98.3431 151.995 97 150.326 97C148.657 97 147.304 98.3431 147.304 100C147.304 101.657 148.657 103 150.326 103ZM171.478 100C171.478 101.657 170.125 103 168.457 103C166.788 103 165.435 101.657 165.435 100C165.435 98.3431 166.788 97 168.457 97C170.125 97 171.478 98.3431 171.478 100ZM186.587 103C188.256 103 189.609 101.657 189.609 100C189.609 98.3431 188.256 97 186.587 97C184.918 97 183.565 98.3431 183.565 100C183.565 101.657 184.918 103 186.587 103ZM207.739 100C207.739 101.657 206.386 103 204.717 103C203.049 103 201.696 101.657 201.696 100C201.696 98.3431 203.049 97 204.717 97C206.386 97 207.739 98.3431 207.739 100ZM222.848 103C224.517 103 225.87 101.657 225.87 100C225.87 98.3431 224.517 97 222.848 97C221.179 97 219.826 98.3431 219.826 100C219.826 101.657 221.179 103 222.848 103ZM244 100C244 101.657 242.647 103 240.978 103C239.309 103 237.957 101.657 237.957 100C237.957 98.3431 239.309 97 240.978 97C242.647 97 244 98.3431 244 100ZM-40.9783 93C-39.3094 93 -37.9565 91.6569 -37.9565 90C-37.9565 88.3431 -39.3094 87 -40.9783 87C-42.6471 87 -44 88.3431 -44 90C-44 91.6569 -42.6471 93 -40.9783 93ZM-22.8478 93C-21.179 93 -19.8261 91.6569 -19.8261 90C-19.8261 88.3431 -21.179 87 -22.8478 87C-24.5167 87 -25.8696 88.3431 -25.8696 90C-25.8696 91.6569 -24.5167 93 -22.8478 93ZM-1.69565 90C-1.69565 91.6569 -3.04853 93 -4.71739 93C-6.38625 93 -7.73913 91.6569 -7.73913 90C-7.73913 88.3431 -6.38625 87 -4.71739 87C-3.04853 87 -1.69565 88.3431 -1.69565 90ZM13.413 93C15.0819 93 16.4348 91.6569 16.4348 90C16.4348 88.3431 15.0819 87 13.413 87C11.7442 87 10.3913 88.3431 10.3913 90C10.3913 91.6569 11.7442 93 13.413 93ZM34.5652 90C34.5652 91.6569 33.2123 93 31.5435 93C29.8746 93 28.5217 91.6569 28.5217 90C28.5217 88.3431 29.8746 87 31.5435 87C33.2123 87 34.5652 88.3431 34.5652 90ZM49.6739 93C51.3428 93 52.6957 91.6569 52.6957 90C52.6957 88.3431 51.3428 87 49.6739 87C48.0051 87 46.6522 88.3431 46.6522 90C46.6522 91.6569 48.0051 93 49.6739 93ZM70.8261 90C70.8261 91.6569 69.4732 93 67.8043 93C66.1355 93 64.7826 91.6569 64.7826 90C64.7826 88.3431 66.1355 87 67.8043 87C69.4732 87 70.8261 88.3431 70.8261 90ZM85.9348 93C87.6036 93 88.9565 91.6569 88.9565 90C88.9565 88.3431 87.6036 87 85.9348 87C84.2659 87 82.913 88.3431 82.913 90C82.913 91.6569 84.2659 93 85.9348 93ZM107.087 90C107.087 91.6569 105.734 93 104.065 93C102.396 93 101.043 91.6569 101.043 90C101.043 88.3431 102.396 87 104.065 87C105.734 87 107.087 88.3431 107.087 90ZM122.196 93C123.865 93 125.217 91.6569 125.217 90C125.217 88.3431 123.865 87 122.196 87C120.527 87 119.174 88.3431 119.174 90C119.174 91.6569 120.527 93 122.196 93ZM143.348 90C143.348 91.6569 141.995 93 140.326 93C138.657 93 137.304 91.6569 137.304 90C137.304 88.3431 138.657 87 140.326 87C141.995 87 143.348 88.3431 143.348 90ZM158.457 93C160.125 93 161.478 91.6569 161.478 90C161.478 88.3431 160.125 87 158.457 87C156.788 87 155.435 88.3431 155.435 90C155.435 91.6569 156.788 93 158.457 93ZM179.609 90C179.609 91.6569 178.256 93 176.587 93C174.918 93 173.565 91.6569 173.565 90C173.565 88.3431 174.918 87 176.587 87C178.256 87 179.609 88.3431 179.609 90ZM194.717 93C196.386 93 197.739 91.6569 197.739 90C197.739 88.3431 196.386 87 194.717 87C193.049 87 191.696 88.3431 191.696 90C191.696 91.6569 193.049 93 194.717 93ZM215.87 90C215.87 91.6569 214.517 93 212.848 93C211.179 93 209.826 91.6569 209.826 90C209.826 88.3431 211.179 87 212.848 87C214.517 87 215.87 88.3431 215.87 90ZM230.978 93C232.647 93 234 91.6569 234 90C234 88.3431 232.647 87 230.978 87C229.309 87 227.957 88.3431 227.957 90C227.957 91.6569 229.309 93 230.978 93ZM-27.9565 80C-27.9565 81.6569 -29.3094 83 -30.9783 83C-32.6471 83 -34 81.6569 -34 80C-34 78.3431 -32.6471 77 -30.9783 77C-29.3094 77 -27.9565 78.3431 -27.9565 80ZM-9.82609 80C-9.82609 81.6569 -11.179 83 -12.8478 83C-14.5167 83 -15.8696 81.6569 -15.8696 80C-15.8696 78.3431 -14.5167 77 -12.8478 77C-11.179 77 -9.82609 78.3431 -9.82609 80ZM5.28261 83C6.95147 83 8.30435 81.6569 8.30435 80C8.30435 78.3431 6.95147 77 5.28261 77C3.61375 77 2.26087 78.3431 2.26087 80C2.26087 81.6569 3.61375 83 5.28261 83ZM26.4348 80C26.4348 81.6569 25.0819 83 23.413 83C21.7442 83 20.3913 81.6569 20.3913 80C20.3913 78.3431 21.7442 77 23.413 77C25.0819 77 26.4348 78.3431 26.4348 80ZM41.5435 83C43.2123 83 44.5652 81.6569 44.5652 80C44.5652 78.3431 43.2123 77 41.5435 77C39.8746 77 38.5217 78.3431 38.5217 80C38.5217 81.6569 39.8746 83 41.5435 83ZM62.6957 80C62.6957 81.6569 61.3428 83 59.6739 83C58.0051 83 56.6522 81.6569 56.6522 80C56.6522 78.3431 58.0051 77 59.6739 77C61.3428 77 62.6957 78.3431 62.6957 80ZM77.8043 83C79.4732 83 80.8261 81.6569 80.8261 80C80.8261 78.3431 79.4732 77 77.8043 77C76.1355 77 74.7826 78.3431 74.7826 80C74.7826 81.6569 76.1355 83 77.8043 83ZM98.9565 80C98.9565 81.6569 97.6036 83 95.9348 83C94.2659 83 92.913 81.6569 92.913 80C92.913 78.3431 94.2659 77 95.9348 77C97.6036 77 98.9565 78.3431 98.9565 80ZM114.065 83C115.734 83 117.087 81.6569 117.087 80C117.087 78.3431 115.734 77 114.065 77C112.396 77 111.043 78.3431 111.043 80C111.043 81.6569 112.396 83 114.065 83ZM135.217 80C135.217 81.6569 133.865 83 132.196 83C130.527 83 129.174 81.6569 129.174 80C129.174 78.3431 130.527 77 132.196 77C133.865 77 135.217 78.3431 135.217 80ZM150.326 83C151.995 83 153.348 81.6569 153.348 80C153.348 78.3431 151.995 77 150.326 77C148.657 77 147.304 78.3431 147.304 80C147.304 81.6569 148.657 83 150.326 83ZM171.478 80C171.478 81.6569 170.125 83 168.457 83C166.788 83 165.435 81.6569 165.435 80C165.435 78.3431 166.788 77 168.457 77C170.125 77 171.478 78.3431 171.478 80ZM186.587 83C188.256 83 189.609 81.6569 189.609 80C189.609 78.3431 188.256 77 186.587 77C184.918 77 183.565 78.3431 183.565 80C183.565 81.6569 184.918 83 186.587 83ZM207.739 80C207.739 81.6569 206.386 83 204.717 83C203.049 83 201.696 81.6569 201.696 80C201.696 78.3431 203.049 77 204.717 77C206.386 77 207.739 78.3431 207.739 80ZM222.848 83C224.517 83 225.87 81.6569 225.87 80C225.87 78.3431 224.517 77 222.848 77C221.179 77 219.826 78.3431 219.826 80C219.826 81.6569 221.179 83 222.848 83ZM244 80C244 81.6569 242.647 83 240.978 83C239.309 83 237.957 81.6569 237.957 80C237.957 78.3431 239.309 77 240.978 77C242.647 77 244 78.3431 244 80ZM-40.9783 74C-39.3094 74 -37.9565 72.6569 -37.9565 71C-37.9565 69.3431 -39.3094 68 -40.9783 68C-42.6471 68 -44 69.3431 -44 71C-44 72.6569 -42.6471 74 -40.9783 74ZM-22.8478 74C-21.179 74 -19.8261 72.6569 -19.8261 71C-19.8261 69.3431 -21.179 68 -22.8478 68C-24.5167 68 -25.8696 69.3431 -25.8696 71C-25.8696 72.6569 -24.5167 74 -22.8478 74ZM-1.69565 71C-1.69565 72.6569 -3.04853 74 -4.71739 74C-6.38625 74 -7.73913 72.6569 -7.73913 71C-7.73913 69.3431 -6.38625 68 -4.71739 68C-3.04853 68 -1.69565 69.3431 -1.69565 71ZM13.413 74C15.0819 74 16.4348 72.6569 16.4348 71C16.4348 69.3431 15.0819 68 13.413 68C11.7442 68 10.3913 69.3431 10.3913 71C10.3913 72.6569 11.7442 74 13.413 74ZM34.5652 71C34.5652 72.6569 33.2123 74 31.5435 74C29.8746 74 28.5217 72.6569 28.5217 71C28.5217 69.3431 29.8746 68 31.5435 68C33.2123 68 34.5652 69.3431 34.5652 71ZM49.6739 74C51.3428 74 52.6957 72.6569 52.6957 71C52.6957 69.3431 51.3428 68 49.6739 68C48.0051 68 46.6522 69.3431 46.6522 71C46.6522 72.6569 48.0051 74 49.6739 74ZM70.8261 71C70.8261 72.6569 69.4732 74 67.8043 74C66.1355 74 64.7826 72.6569 64.7826 71C64.7826 69.3431 66.1355 68 67.8043 68C69.4732 68 70.8261 69.3431 70.8261 71ZM85.9348 74C87.6036 74 88.9565 72.6569 88.9565 71C88.9565 69.3431 87.6036 68 85.9348 68C84.2659 68 82.913 69.3431 82.913 71C82.913 72.6569 84.2659 74 85.9348 74ZM107.087 71C107.087 72.6569 105.734 74 104.065 74C102.396 74 101.043 72.6569 101.043 71C101.043 69.3431 102.396 68 104.065 68C105.734 68 107.087 69.3431 107.087 71ZM122.196 74C123.865 74 125.217 72.6569 125.217 71C125.217 69.3431 123.865 68 122.196 68C120.527 68 119.174 69.3431 119.174 71C119.174 72.6569 120.527 74 122.196 74ZM143.348 71C143.348 72.6569 141.995 74 140.326 74C138.657 74 137.304 72.6569 137.304 71C137.304 69.3431 138.657 68 140.326 68C141.995 68 143.348 69.3431 143.348 71ZM158.457 74C160.125 74 161.478 72.6569 161.478 71C161.478 69.3431 160.125 68 158.457 68C156.788 68 155.435 69.3431 155.435 71C155.435 72.6569 156.788 74 158.457 74ZM179.609 71C179.609 72.6569 178.256 74 176.587 74C174.918 74 173.565 72.6569 173.565 71C173.565 69.3431 174.918 68 176.587 68C178.256 68 179.609 69.3431 179.609 71ZM194.717 74C196.386 74 197.739 72.6569 197.739 71C197.739 69.3431 196.386 68 194.717 68C193.049 68 191.696 69.3431 191.696 71C191.696 72.6569 193.049 74 194.717 74ZM215.87 71C215.87 72.6569 214.517 74 212.848 74C211.179 74 209.826 72.6569 209.826 71C209.826 69.3431 211.179 68 212.848 68C214.517 68 215.87 69.3431 215.87 71ZM230.978 74C232.647 74 234 72.6569 234 71C234 69.3431 232.647 68 230.978 68C229.309 68 227.957 69.3431 227.957 71C227.957 72.6569 229.309 74 230.978 74ZM-27.9565 61C-27.9565 62.6569 -29.3094 64 -30.9783 64C-32.6471 64 -34 62.6569 -34 61C-34 59.3431 -32.6471 58 -30.9783 58C-29.3094 58 -27.9565 59.3431 -27.9565 61ZM-9.82609 61C-9.82609 62.6569 -11.179 64 -12.8478 64C-14.5167 64 -15.8696 62.6569 -15.8696 61C-15.8696 59.3431 -14.5167 58 -12.8478 58C-11.179 58 -9.82609 59.3431 -9.82609 61ZM5.28261 64C6.95147 64 8.30435 62.6569 8.30435 61C8.30435 59.3431 6.95147 58 5.28261 58C3.61375 58 2.26087 59.3431 2.26087 61C2.26087 62.6569 3.61375 64 5.28261 64ZM26.4348 61C26.4348 62.6569 25.0819 64 23.413 64C21.7442 64 20.3913 62.6569 20.3913 61C20.3913 59.3431 21.7442 58 23.413 58C25.0819 58 26.4348 59.3431 26.4348 61ZM41.5435 64C43.2123 64 44.5652 62.6569 44.5652 61C44.5652 59.3431 43.2123 58 41.5435 58C39.8746 58 38.5217 59.3431 38.5217 61C38.5217 62.6569 39.8746 64 41.5435 64ZM62.6957 61C62.6957 62.6569 61.3428 64 59.6739 64C58.0051 64 56.6522 62.6569 56.6522 61C56.6522 59.3431 58.0051 58 59.6739 58C61.3428 58 62.6957 59.3431 62.6957 61ZM77.8043 64C79.4732 64 80.8261 62.6569 80.8261 61C80.8261 59.3431 79.4732 58 77.8043 58C76.1355 58 74.7826 59.3431 74.7826 61C74.7826 62.6569 76.1355 64 77.8043 64ZM98.9565 61C98.9565 62.6569 97.6036 64 95.9348 64C94.2659 64 92.913 62.6569 92.913 61C92.913 59.3431 94.2659 58 95.9348 58C97.6036 58 98.9565 59.3431 98.9565 61ZM114.065 64C115.734 64 117.087 62.6569 117.087 61C117.087 59.3431 115.734 58 114.065 58C112.396 58 111.043 59.3431 111.043 61C111.043 62.6569 112.396 64 114.065 64ZM135.217 61C135.217 62.6569 133.865 64 132.196 64C130.527 64 129.174 62.6569 129.174 61C129.174 59.3431 130.527 58 132.196 58C133.865 58 135.217 59.3431 135.217 61ZM150.326 64C151.995 64 153.348 62.6569 153.348 61C153.348 59.3431 151.995 58 150.326 58C148.657 58 147.304 59.3431 147.304 61C147.304 62.6569 148.657 64 150.326 64ZM171.478 61C171.478 62.6569 170.125 64 168.457 64C166.788 64 165.435 62.6569 165.435 61C165.435 59.3431 166.788 58 168.457 58C170.125 58 171.478 59.3431 171.478 61ZM186.587 64C188.256 64 189.609 62.6569 189.609 61C189.609 59.3431 188.256 58 186.587 58C184.918 58 183.565 59.3431 183.565 61C183.565 62.6569 184.918 64 186.587 64ZM207.739 61C207.739 62.6569 206.386 64 204.717 64C203.049 64 201.696 62.6569 201.696 61C201.696 59.3431 203.049 58 204.717 58C206.386 58 207.739 59.3431 207.739 61ZM222.848 64C224.517 64 225.87 62.6569 225.87 61C225.87 59.3431 224.517 58 222.848 58C221.179 58 219.826 59.3431 219.826 61C219.826 62.6569 221.179 64 222.848 64ZM244 61C244 62.6569 242.647 64 240.978 64C239.309 64 237.957 62.6569 237.957 61C237.957 59.3431 239.309 58 240.978 58C242.647 58 244 59.3431 244 61ZM-40.9783 54C-39.3094 54 -37.9565 52.6569 -37.9565 51C-37.9565 49.3431 -39.3094 48 -40.9783 48C-42.6471 48 -44 49.3431 -44 51C-44 52.6569 -42.6471 54 -40.9783 54ZM-22.8478 54C-21.179 54 -19.8261 52.6569 -19.8261 51C-19.8261 49.3431 -21.179 48 -22.8478 48C-24.5167 48 -25.8696 49.3431 -25.8696 51C-25.8696 52.6569 -24.5167 54 -22.8478 54ZM-1.69565 51C-1.69565 52.6569 -3.04853 54 -4.71739 54C-6.38625 54 -7.73913 52.6569 -7.73913 51C-7.73913 49.3431 -6.38625 48 -4.71739 48C-3.04853 48 -1.69565 49.3431 -1.69565 51ZM13.413 54C15.0819 54 16.4348 52.6569 16.4348 51C16.4348 49.3431 15.0819 48 13.413 48C11.7442 48 10.3913 49.3431 10.3913 51C10.3913 52.6569 11.7442 54 13.413 54ZM34.5652 51C34.5652 52.6569 33.2123 54 31.5435 54C29.8746 54 28.5217 52.6569 28.5217 51C28.5217 49.3431 29.8746 48 31.5435 48C33.2123 48 34.5652 49.3431 34.5652 51ZM49.6739 54C51.3428 54 52.6957 52.6569 52.6957 51C52.6957 49.3431 51.3428 48 49.6739 48C48.0051 48 46.6522 49.3431 46.6522 51C46.6522 52.6569 48.0051 54 49.6739 54ZM70.8261 51C70.8261 52.6569 69.4732 54 67.8043 54C66.1355 54 64.7826 52.6569 64.7826 51C64.7826 49.3431 66.1355 48 67.8043 48C69.4732 48 70.8261 49.3431 70.8261 51ZM85.9348 54C87.6036 54 88.9565 52.6569 88.9565 51C88.9565 49.3431 87.6036 48 85.9348 48C84.2659 48 82.913 49.3431 82.913 51C82.913 52.6569 84.2659 54 85.9348 54ZM107.087 51C107.087 52.6569 105.734 54 104.065 54C102.396 54 101.043 52.6569 101.043 51C101.043 49.3431 102.396 48 104.065 48C105.734 48 107.087 49.3431 107.087 51ZM122.196 54C123.865 54 125.217 52.6569 125.217 51C125.217 49.3431 123.865 48 122.196 48C120.527 48 119.174 49.3431 119.174 51C119.174 52.6569 120.527 54 122.196 54ZM143.348 51C143.348 52.6569 141.995 54 140.326 54C138.657 54 137.304 52.6569 137.304 51C137.304 49.3431 138.657 48 140.326 48C141.995 48 143.348 49.3431 143.348 51ZM158.457 54C160.125 54 161.478 52.6569 161.478 51C161.478 49.3431 160.125 48 158.457 48C156.788 48 155.435 49.3431 155.435 51C155.435 52.6569 156.788 54 158.457 54ZM179.609 51C179.609 52.6569 178.256 54 176.587 54C174.918 54 173.565 52.6569 173.565 51C173.565 49.3431 174.918 48 176.587 48C178.256 48 179.609 49.3431 179.609 51ZM194.717 54C196.386 54 197.739 52.6569 197.739 51C197.739 49.3431 196.386 48 194.717 48C193.049 48 191.696 49.3431 191.696 51C191.696 52.6569 193.049 54 194.717 54ZM215.87 51C215.87 52.6569 214.517 54 212.848 54C211.179 54 209.826 52.6569 209.826 51C209.826 49.3431 211.179 48 212.848 48C214.517 48 215.87 49.3431 215.87 51ZM230.978 54C232.647 54 234 52.6569 234 51C234 49.3431 232.647 48 230.978 48C229.309 48 227.957 49.3431 227.957 51C227.957 52.6569 229.309 54 230.978 54ZM-27.9565 42C-27.9565 43.6569 -29.3094 45 -30.9783 45C-32.6471 45 -34 43.6569 -34 42C-34 40.3431 -32.6471 39 -30.9783 39C-29.3094 39 -27.9565 40.3431 -27.9565 42ZM-9.82609 42C-9.82609 43.6569 -11.179 45 -12.8478 45C-14.5167 45 -15.8696 43.6569 -15.8696 42C-15.8696 40.3431 -14.5167 39 -12.8478 39C-11.179 39 -9.82609 40.3431 -9.82609 42ZM5.28261 45C6.95147 45 8.30435 43.6569 8.30435 42C8.30435 40.3431 6.95147 39 5.28261 39C3.61375 39 2.26087 40.3431 2.26087 42C2.26087 43.6569 3.61375 45 5.28261 45ZM26.4348 42C26.4348 43.6569 25.0819 45 23.413 45C21.7442 45 20.3913 43.6569 20.3913 42C20.3913 40.3431 21.7442 39 23.413 39C25.0819 39 26.4348 40.3431 26.4348 42ZM41.5435 45C43.2123 45 44.5652 43.6569 44.5652 42C44.5652 40.3431 43.2123 39 41.5435 39C39.8746 39 38.5217 40.3431 38.5217 42C38.5217 43.6569 39.8746 45 41.5435 45ZM62.6957 42C62.6957 43.6569 61.3428 45 59.6739 45C58.0051 45 56.6522 43.6569 56.6522 42C56.6522 40.3431 58.0051 39 59.6739 39C61.3428 39 62.6957 40.3431 62.6957 42ZM77.8043 45C79.4732 45 80.8261 43.6569 80.8261 42C80.8261 40.3431 79.4732 39 77.8043 39C76.1355 39 74.7826 40.3431 74.7826 42C74.7826 43.6569 76.1355 45 77.8043 45ZM98.9565 42C98.9565 43.6569 97.6036 45 95.9348 45C94.2659 45 92.913 43.6569 92.913 42C92.913 40.3431 94.2659 39 95.9348 39C97.6036 39 98.9565 40.3431 98.9565 42ZM114.065 45C115.734 45 117.087 43.6569 117.087 42C117.087 40.3431 115.734 39 114.065 39C112.396 39 111.043 40.3431 111.043 42C111.043 43.6569 112.396 45 114.065 45ZM135.217 42C135.217 43.6569 133.865 45 132.196 45C130.527 45 129.174 43.6569 129.174 42C129.174 40.3431 130.527 39 132.196 39C133.865 39 135.217 40.3431 135.217 42ZM150.326 45C151.995 45 153.348 43.6569 153.348 42C153.348 40.3431 151.995 39 150.326 39C148.657 39 147.304 40.3431 147.304 42C147.304 43.6569 148.657 45 150.326 45ZM171.478 42C171.478 43.6569 170.125 45 168.457 45C166.788 45 165.435 43.6569 165.435 42C165.435 40.3431 166.788 39 168.457 39C170.125 39 171.478 40.3431 171.478 42ZM186.587 45C188.256 45 189.609 43.6569 189.609 42C189.609 40.3431 188.256 39 186.587 39C184.918 39 183.565 40.3431 183.565 42C183.565 43.6569 184.918 45 186.587 45ZM207.739 42C207.739 43.6569 206.386 45 204.717 45C203.049 45 201.696 43.6569 201.696 42C201.696 40.3431 203.049 39 204.717 39C206.386 39 207.739 40.3431 207.739 42ZM222.848 45C224.517 45 225.87 43.6569 225.87 42C225.87 40.3431 224.517 39 222.848 39C221.179 39 219.826 40.3431 219.826 42C219.826 43.6569 221.179 45 222.848 45ZM244 42C244 43.6569 242.647 45 240.978 45C239.309 45 237.957 43.6569 237.957 42C237.957 40.3431 239.309 39 240.978 39C242.647 39 244 40.3431 244 42ZM-40.9783 35C-39.3094 35 -37.9565 33.6569 -37.9565 32C-37.9565 30.3431 -39.3094 29 -40.9783 29C-42.6471 29 -44 30.3431 -44 32C-44 33.6569 -42.6471 35 -40.9783 35ZM-22.8478 35C-21.179 35 -19.8261 33.6569 -19.8261 32C-19.8261 30.3431 -21.179 29 -22.8478 29C-24.5167 29 -25.8696 30.3431 -25.8696 32C-25.8696 33.6569 -24.5167 35 -22.8478 35ZM-1.69565 32C-1.69565 33.6569 -3.04853 35 -4.71739 35C-6.38625 35 -7.73913 33.6569 -7.73913 32C-7.73913 30.3431 -6.38625 29 -4.71739 29C-3.04853 29 -1.69565 30.3431 -1.69565 32ZM13.413 35C15.0819 35 16.4348 33.6569 16.4348 32C16.4348 30.3431 15.0819 29 13.413 29C11.7442 29 10.3913 30.3431 10.3913 32C10.3913 33.6569 11.7442 35 13.413 35ZM34.5652 32C34.5652 33.6569 33.2123 35 31.5435 35C29.8746 35 28.5217 33.6569 28.5217 32C28.5217 30.3431 29.8746 29 31.5435 29C33.2123 29 34.5652 30.3431 34.5652 32ZM49.6739 35C51.3428 35 52.6957 33.6569 52.6957 32C52.6957 30.3431 51.3428 29 49.6739 29C48.0051 29 46.6522 30.3431 46.6522 32C46.6522 33.6569 48.0051 35 49.6739 35ZM70.8261 32C70.8261 33.6569 69.4732 35 67.8043 35C66.1355 35 64.7826 33.6569 64.7826 32C64.7826 30.3431 66.1355 29 67.8043 29C69.4732 29 70.8261 30.3431 70.8261 32ZM85.9348 35C87.6036 35 88.9565 33.6569 88.9565 32C88.9565 30.3431 87.6036 29 85.9348 29C84.2659 29 82.913 30.3431 82.913 32C82.913 33.6569 84.2659 35 85.9348 35ZM107.087 32C107.087 33.6569 105.734 35 104.065 35C102.396 35 101.043 33.6569 101.043 32C101.043 30.3431 102.396 29 104.065 29C105.734 29 107.087 30.3431 107.087 32ZM122.196 35C123.865 35 125.217 33.6569 125.217 32C125.217 30.3431 123.865 29 122.196 29C120.527 29 119.174 30.3431 119.174 32C119.174 33.6569 120.527 35 122.196 35ZM143.348 32C143.348 33.6569 141.995 35 140.326 35C138.657 35 137.304 33.6569 137.304 32C137.304 30.3431 138.657 29 140.326 29C141.995 29 143.348 30.3431 143.348 32ZM158.457 35C160.125 35 161.478 33.6569 161.478 32C161.478 30.3431 160.125 29 158.457 29C156.788 29 155.435 30.3431 155.435 32C155.435 33.6569 156.788 35 158.457 35ZM179.609 32C179.609 33.6569 178.256 35 176.587 35C174.918 35 173.565 33.6569 173.565 32C173.565 30.3431 174.918 29 176.587 29C178.256 29 179.609 30.3431 179.609 32ZM194.717 35C196.386 35 197.739 33.6569 197.739 32C197.739 30.3431 196.386 29 194.717 29C193.049 29 191.696 30.3431 191.696 32C191.696 33.6569 193.049 35 194.717 35ZM215.87 32C215.87 33.6569 214.517 35 212.848 35C211.179 35 209.826 33.6569 209.826 32C209.826 30.3431 211.179 29 212.848 29C214.517 29 215.87 30.3431 215.87 32ZM230.978 35C232.647 35 234 33.6569 234 32C234 30.3431 232.647 29 230.978 29C229.309 29 227.957 30.3431 227.957 32C227.957 33.6569 229.309 35 230.978 35ZM-27.9565 22C-27.9565 23.6569 -29.3094 25 -30.9783 25C-32.6471 25 -34 23.6569 -34 22C-34 20.3431 -32.6471 19 -30.9783 19C-29.3094 19 -27.9565 20.3431 -27.9565 22ZM-9.82609 22C-9.82609 23.6569 -11.179 25 -12.8478 25C-14.5167 25 -15.8696 23.6569 -15.8696 22C-15.8696 20.3431 -14.5167 19 -12.8478 19C-11.179 19 -9.82609 20.3431 -9.82609 22ZM5.28261 25C6.95147 25 8.30435 23.6569 8.30435 22C8.30435 20.3431 6.95147 19 5.28261 19C3.61375 19 2.26087 20.3431 2.26087 22C2.26087 23.6569 3.61375 25 5.28261 25ZM26.4348 22C26.4348 23.6569 25.0819 25 23.413 25C21.7442 25 20.3913 23.6569 20.3913 22C20.3913 20.3431 21.7442 19 23.413 19C25.0819 19 26.4348 20.3431 26.4348 22ZM41.5435 25C43.2123 25 44.5652 23.6569 44.5652 22C44.5652 20.3431 43.2123 19 41.5435 19C39.8746 19 38.5217 20.3431 38.5217 22C38.5217 23.6569 39.8746 25 41.5435 25ZM62.6957 22C62.6957 23.6569 61.3428 25 59.6739 25C58.0051 25 56.6522 23.6569 56.6522 22C56.6522 20.3431 58.0051 19 59.6739 19C61.3428 19 62.6957 20.3431 62.6957 22ZM77.8043 25C79.4732 25 80.8261 23.6569 80.8261 22C80.8261 20.3431 79.4732 19 77.8043 19C76.1355 19 74.7826 20.3431 74.7826 22C74.7826 23.6569 76.1355 25 77.8043 25ZM98.9565 22C98.9565 23.6569 97.6036 25 95.9348 25C94.2659 25 92.913 23.6569 92.913 22C92.913 20.3431 94.2659 19 95.9348 19C97.6036 19 98.9565 20.3431 98.9565 22ZM114.065 25C115.734 25 117.087 23.6569 117.087 22C117.087 20.3431 115.734 19 114.065 19C112.396 19 111.043 20.3431 111.043 22C111.043 23.6569 112.396 25 114.065 25ZM135.217 22C135.217 23.6569 133.865 25 132.196 25C130.527 25 129.174 23.6569 129.174 22C129.174 20.3431 130.527 19 132.196 19C133.865 19 135.217 20.3431 135.217 22ZM150.326 25C151.995 25 153.348 23.6569 153.348 22C153.348 20.3431 151.995 19 150.326 19C148.657 19 147.304 20.3431 147.304 22C147.304 23.6569 148.657 25 150.326 25ZM171.478 22C171.478 23.6569 170.125 25 168.457 25C166.788 25 165.435 23.6569 165.435 22C165.435 20.3431 166.788 19 168.457 19C170.125 19 171.478 20.3431 171.478 22ZM186.587 25C188.256 25 189.609 23.6569 189.609 22C189.609 20.3431 188.256 19 186.587 19C184.918 19 183.565 20.3431 183.565 22C183.565 23.6569 184.918 25 186.587 25ZM207.739 22C207.739 23.6569 206.386 25 204.717 25C203.049 25 201.696 23.6569 201.696 22C201.696 20.3431 203.049 19 204.717 19C206.386 19 207.739 20.3431 207.739 22ZM222.848 25C224.517 25 225.87 23.6569 225.87 22C225.87 20.3431 224.517 19 222.848 19C221.179 19 219.826 20.3431 219.826 22C219.826 23.6569 221.179 25 222.848 25ZM244 22C244 23.6569 242.647 25 240.978 25C239.309 25 237.957 23.6569 237.957 22C237.957 20.3431 239.309 19 240.978 19C242.647 19 244 20.3431 244 22ZM-30.9783 6C-29.3094 6 -27.9565 4.65685 -27.9565 3C-27.9565 1.34315 -29.3094 0 -30.9783 0C-32.6471 0 -34 1.34315 -34 3C-34 4.65685 -32.6471 6 -30.9783 6ZM-12.8478 6C-11.179 6 -9.82609 4.65685 -9.82609 3C-9.82609 1.34315 -11.179 0 -12.8478 0C-14.5167 0 -15.8696 1.34315 -15.8696 3C-15.8696 4.65685 -14.5167 6 -12.8478 6ZM8.30435 3C8.30435 4.65685 6.95147 6 5.28261 6C3.61375 6 2.26087 4.65685 2.26087 3C2.26087 1.34315 3.61375 0 5.28261 0C6.95147 0 8.30435 1.34315 8.30435 3ZM23.413 6C25.0819 6 26.4348 4.65685 26.4348 3C26.4348 1.34315 25.0819 0 23.413 0C21.7442 0 20.3913 1.34315 20.3913 3C20.3913 4.65685 21.7442 6 23.413 6ZM44.5652 3C44.5652 4.65685 43.2123 6 41.5435 6C39.8746 6 38.5217 4.65685 38.5217 3C38.5217 1.34315 39.8746 0 41.5435 0C43.2123 0 44.5652 1.34315 44.5652 3ZM59.6739 6C61.3428 6 62.6957 4.65685 62.6957 3C62.6957 1.34315 61.3428 0 59.6739 0C58.0051 0 56.6522 1.34315 56.6522 3C56.6522 4.65685 58.0051 6 59.6739 6ZM80.8261 3C80.8261 4.65685 79.4732 6 77.8043 6C76.1355 6 74.7826 4.65685 74.7826 3C74.7826 1.34315 76.1355 0 77.8043 0C79.4732 0 80.8261 1.34315 80.8261 3ZM95.9348 6C97.6036 6 98.9565 4.65685 98.9565 3C98.9565 1.34315 97.6036 0 95.9348 0C94.2659 0 92.913 1.34315 92.913 3C92.913 4.65685 94.2659 6 95.9348 6ZM117.087 3C117.087 4.65685 115.734 6 114.065 6C112.396 6 111.043 4.65685 111.043 3C111.043 1.34315 112.396 0 114.065 0C115.734 0 117.087 1.34315 117.087 3ZM132.196 6C133.865 6 135.217 4.65685 135.217 3C135.217 1.34315 133.865 0 132.196 0C130.527 0 129.174 1.34315 129.174 3C129.174 4.65685 130.527 6 132.196 6ZM153.348 3C153.348 4.65685 151.995 6 150.326 6C148.657 6 147.304 4.65685 147.304 3C147.304 1.34315 148.657 0 150.326 0C151.995 0 153.348 1.34315 153.348 3ZM168.457 6C170.125 6 171.478 4.65685 171.478 3C171.478 1.34315 170.125 0 168.457 0C166.788 0 165.435 1.34315 165.435 3C165.435 4.65685 166.788 6 168.457 6ZM189.609 3C189.609 4.65685 188.256 6 186.587 6C184.918 6 183.565 4.65685 183.565 3C183.565 1.34315 184.918 0 186.587 0C188.256 0 189.609 1.34315 189.609 3ZM204.717 6C206.386 6 207.739 4.65685 207.739 3C207.739 1.34315 206.386 0 204.717 0C203.049 0 201.696 1.34315 201.696 3C201.696 4.65685 203.049 6 204.717 6ZM225.87 3C225.87 4.65685 224.517 6 222.848 6C221.179 6 219.826 4.65685 219.826 3C219.826 1.34315 221.179 0 222.848 0C224.517 0 225.87 1.34315 225.87 3ZM240.978 6C242.647 6 244 4.65685 244 3C244 1.34315 242.647 0 240.978 0C239.309 0 237.957 1.34315 237.957 3C237.957 4.65685 239.309 6 240.978 6ZM-37.9565 13C-37.9565 14.6569 -39.3094 16 -40.9783 16C-42.6471 16 -44 14.6569 -44 13C-44 11.3431 -42.6471 10 -40.9783 10C-39.3094 10 -37.9565 11.3431 -37.9565 13ZM-19.8261 13C-19.8261 14.6569 -21.179 16 -22.8478 16C-24.5167 16 -25.8696 14.6569 -25.8696 13C-25.8696 11.3431 -24.5167 10 -22.8478 10C-21.179 10 -19.8261 11.3431 -19.8261 13ZM-4.71739 16C-3.04853 16 -1.69565 14.6569 -1.69565 13C-1.69565 11.3431 -3.04853 10 -4.71739 10C-6.38625 10 -7.73913 11.3431 -7.73913 13C-7.73913 14.6569 -6.38625 16 -4.71739 16ZM16.4348 13C16.4348 14.6569 15.0819 16 13.413 16C11.7442 16 10.3913 14.6569 10.3913 13C10.3913 11.3431 11.7442 10 13.413 10C15.0819 10 16.4348 11.3431 16.4348 13ZM31.5435 16C33.2123 16 34.5652 14.6569 34.5652 13C34.5652 11.3431 33.2123 10 31.5435 10C29.8746 10 28.5217 11.3431 28.5217 13C28.5217 14.6569 29.8746 16 31.5435 16ZM52.6957 13C52.6957 14.6569 51.3428 16 49.6739 16C48.0051 16 46.6522 14.6569 46.6522 13C46.6522 11.3431 48.0051 10 49.6739 10C51.3428 10 52.6957 11.3431 52.6957 13ZM67.8043 16C69.4732 16 70.8261 14.6569 70.8261 13C70.8261 11.3431 69.4732 10 67.8043 10C66.1355 10 64.7826 11.3431 64.7826 13C64.7826 14.6569 66.1355 16 67.8043 16ZM88.9565 13C88.9565 14.6569 87.6036 16 85.9348 16C84.2659 16 82.913 14.6569 82.913 13C82.913 11.3431 84.2659 10 85.9348 10C87.6036 10 88.9565 11.3431 88.9565 13ZM104.065 16C105.734 16 107.087 14.6569 107.087 13C107.087 11.3431 105.734 10 104.065 10C102.396 10 101.043 11.3431 101.043 13C101.043 14.6569 102.396 16 104.065 16ZM125.217 13C125.217 14.6569 123.865 16 122.196 16C120.527 16 119.174 14.6569 119.174 13C119.174 11.3431 120.527 10 122.196 10C123.865 10 125.217 11.3431 125.217 13ZM140.326 16C141.995 16 143.348 14.6569 143.348 13C143.348 11.3431 141.995 10 140.326 10C138.657 10 137.304 11.3431 137.304 13C137.304 14.6569 138.657 16 140.326 16ZM161.478 13C161.478 14.6569 160.125 16 158.457 16C156.788 16 155.435 14.6569 155.435 13C155.435 11.3431 156.788 10 158.457 10C160.125 10 161.478 11.3431 161.478 13ZM176.587 16C178.256 16 179.609 14.6569 179.609 13C179.609 11.3431 178.256 10 176.587 10C174.918 10 173.565 11.3431 173.565 13C173.565 14.6569 174.918 16 176.587 16ZM197.739 13C197.739 14.6569 196.386 16 194.717 16C193.049 16 191.696 14.6569 191.696 13C191.696 11.3431 193.049 10 194.717 10C196.386 10 197.739 11.3431 197.739 13ZM212.848 16C214.517 16 215.87 14.6569 215.87 13C215.87 11.3431 214.517 10 212.848 10C211.179 10 209.826 11.3431 209.826 13C209.826 14.6569 211.179 16 212.848 16ZM234 13C234 14.6569 232.647 16 230.978 16C229.309 16 227.957 14.6569 227.957 13C227.957 11.3431 229.309 10 230.978 10C232.647 10 234 11.3431 234 13Z" fill="#D1D1D1"/>
</svg>
