<?xml version="1.0" encoding="utf-8"?>
<!-- Generator: Adobe Illustrator 24.0.1, SVG Export Plug-In . SVG Version: 6.00 Build 0)  -->
<svg version="1.1" id="Layer_1" xmlns="http://www.w3.org/2000/svg" xmlns:xlink="http://www.w3.org/1999/xlink" x="0px" y="0px"
	 width="133px" height="293px" viewBox="0 0 133 293" style="enable-background:new 0 0 133 293;" xml:space="preserve">
<style type="text/css">
	.st0{fill-rule:evenodd;clip-rule:evenodd;fill:#D1D1D1;}
</style>
<path class="st0" d="M115.5,288c1.4,0,2.5,1.1,2.5,2.5s-1.1,2.5-2.5,2.5s-2.5-1.1-2.5-2.5S114.1,288,115.5,288z M10.5,288
	c1.4,0,2.5,1.1,2.5,2.5s-1.1,2.5-2.5,2.5S8,291.9,8,290.5S9.1,288,10.5,288z M25.5,288c1.4,0,2.5,1.1,2.5,2.5s-1.1,2.5-2.5,2.5
	s-2.5-1.1-2.5-2.5S24.1,288,25.5,288z M40.5,288c1.4,0,2.5,1.1,2.5,2.5s-1.1,2.5-2.5,2.5s-2.5-1.1-2.5-2.5S39.1,288,40.5,288z
	 M55.5,288c1.4,0,2.5,1.1,2.5,2.5s-1.1,2.5-2.5,2.5s-2.5-1.1-2.5-2.5S54.1,288,55.5,288z M70.5,288c1.4,0,2.5,1.1,2.5,2.5
	s-1.1,2.5-2.5,2.5s-2.5-1.1-2.5-2.5S69.1,288,70.5,288z M85.5,288c1.4,0,2.5,1.1,2.5,2.5s-1.1,2.5-2.5,2.5s-2.5-1.1-2.5-2.5
	S84.1,288,85.5,288z M100.5,288c1.4,0,2.5,1.1,2.5,2.5s-1.1,2.5-2.5,2.5s-2.5-1.1-2.5-2.5S99.1,288,100.5,288z M130.5,288
	c1.4,0,2.5,1.1,2.5,2.5s-1.1,2.5-2.5,2.5s-2.5-1.1-2.5-2.5S129.1,288,130.5,288z M2.5,280c1.4,0,2.5,1.1,2.5,2.5S3.9,285,2.5,285
	S0,283.9,0,282.5S1.1,280,2.5,280z M17.5,280c1.4,0,2.5,1.1,2.5,2.5s-1.1,2.5-2.5,2.5s-2.5-1.1-2.5-2.5S16.1,280,17.5,280z
	 M32.5,280c1.4,0,2.5,1.1,2.5,2.5s-1.1,2.5-2.5,2.5s-2.5-1.1-2.5-2.5S31.1,280,32.5,280z M47.5,280c1.4,0,2.5,1.1,2.5,2.5
	s-1.1,2.5-2.5,2.5s-2.5-1.1-2.5-2.5S46.1,280,47.5,280z M62.5,280c1.4,0,2.5,1.1,2.5,2.5s-1.1,2.5-2.5,2.5s-2.5-1.1-2.5-2.5
	S61.1,280,62.5,280z M77.5,280c1.4,0,2.5,1.1,2.5,2.5s-1.1,2.5-2.5,2.5s-2.5-1.1-2.5-2.5S76.1,280,77.5,280z M92.5,280
	c1.4,0,2.5,1.1,2.5,2.5s-1.1,2.5-2.5,2.5s-2.5-1.1-2.5-2.5S91.1,280,92.5,280z M107.5,280c1.4,0,2.5,1.1,2.5,2.5s-1.1,2.5-2.5,2.5
	s-2.5-1.1-2.5-2.5S106.1,280,107.5,280z M122.5,280c1.4,0,2.5,1.1,2.5,2.5s-1.1,2.5-2.5,2.5s-2.5-1.1-2.5-2.5S121.1,280,122.5,280z
	 M10.5,272c1.4,0,2.5,1.1,2.5,2.5s-1.1,2.5-2.5,2.5S8,275.9,8,274.5S9.1,272,10.5,272z M25.5,272c1.4,0,2.5,1.1,2.5,2.5
	s-1.1,2.5-2.5,2.5s-2.5-1.1-2.5-2.5S24.1,272,25.5,272z M40.5,272c1.4,0,2.5,1.1,2.5,2.5s-1.1,2.5-2.5,2.5s-2.5-1.1-2.5-2.5
	S39.1,272,40.5,272z M55.5,272c1.4,0,2.5,1.1,2.5,2.5s-1.1,2.5-2.5,2.5s-2.5-1.1-2.5-2.5S54.1,272,55.5,272z M70.5,272
	c1.4,0,2.5,1.1,2.5,2.5s-1.1,2.5-2.5,2.5s-2.5-1.1-2.5-2.5S69.1,272,70.5,272z M85.5,272c1.4,0,2.5,1.1,2.5,2.5s-1.1,2.5-2.5,2.5
	s-2.5-1.1-2.5-2.5S84.1,272,85.5,272z M100.5,272c1.4,0,2.5,1.1,2.5,2.5s-1.1,2.5-2.5,2.5s-2.5-1.1-2.5-2.5S99.1,272,100.5,272z
	 M115.5,272c1.4,0,2.5,1.1,2.5,2.5s-1.1,2.5-2.5,2.5s-2.5-1.1-2.5-2.5S114.1,272,115.5,272z M130.5,272c1.4,0,2.5,1.1,2.5,2.5
	s-1.1,2.5-2.5,2.5s-2.5-1.1-2.5-2.5S129.1,272,130.5,272z M2.5,264c1.4,0,2.5,1.1,2.5,2.5S3.9,269,2.5,269S0,267.9,0,266.5
	S1.1,264,2.5,264z M17.5,264c1.4,0,2.5,1.1,2.5,2.5s-1.1,2.5-2.5,2.5s-2.5-1.1-2.5-2.5S16.1,264,17.5,264z M32.5,264
	c1.4,0,2.5,1.1,2.5,2.5s-1.1,2.5-2.5,2.5s-2.5-1.1-2.5-2.5S31.1,264,32.5,264z M47.5,264c1.4,0,2.5,1.1,2.5,2.5s-1.1,2.5-2.5,2.5
	s-2.5-1.1-2.5-2.5S46.1,264,47.5,264z M62.5,264c1.4,0,2.5,1.1,2.5,2.5s-1.1,2.5-2.5,2.5s-2.5-1.1-2.5-2.5S61.1,264,62.5,264z
	 M77.5,264c1.4,0,2.5,1.1,2.5,2.5s-1.1,2.5-2.5,2.5s-2.5-1.1-2.5-2.5S76.1,264,77.5,264z M92.5,264c1.4,0,2.5,1.1,2.5,2.5
	s-1.1,2.5-2.5,2.5s-2.5-1.1-2.5-2.5S91.1,264,92.5,264z M107.5,264c1.4,0,2.5,1.1,2.5,2.5s-1.1,2.5-2.5,2.5s-2.5-1.1-2.5-2.5
	S106.1,264,107.5,264z M122.5,264c1.4,0,2.5,1.1,2.5,2.5s-1.1,2.5-2.5,2.5s-2.5-1.1-2.5-2.5S121.1,264,122.5,264z M115.5,256
	c1.4,0,2.5,1.1,2.5,2.5s-1.1,2.5-2.5,2.5s-2.5-1.1-2.5-2.5S114.1,256,115.5,256z M10.5,256c1.4,0,2.5,1.1,2.5,2.5s-1.1,2.5-2.5,2.5
	S8,259.9,8,258.5S9.1,256,10.5,256z M25.5,256c1.4,0,2.5,1.1,2.5,2.5s-1.1,2.5-2.5,2.5s-2.5-1.1-2.5-2.5S24.1,256,25.5,256z
	 M40.5,256c1.4,0,2.5,1.1,2.5,2.5s-1.1,2.5-2.5,2.5s-2.5-1.1-2.5-2.5S39.1,256,40.5,256z M55.5,256c1.4,0,2.5,1.1,2.5,2.5
	s-1.1,2.5-2.5,2.5s-2.5-1.1-2.5-2.5S54.1,256,55.5,256z M70.5,256c1.4,0,2.5,1.1,2.5,2.5s-1.1,2.5-2.5,2.5s-2.5-1.1-2.5-2.5
	S69.1,256,70.5,256z M85.5,256c1.4,0,2.5,1.1,2.5,2.5s-1.1,2.5-2.5,2.5s-2.5-1.1-2.5-2.5S84.1,256,85.5,256z M100.5,256
	c1.4,0,2.5,1.1,2.5,2.5s-1.1,2.5-2.5,2.5s-2.5-1.1-2.5-2.5S99.1,256,100.5,256z M130.5,256c1.4,0,2.5,1.1,2.5,2.5s-1.1,2.5-2.5,2.5
	s-2.5-1.1-2.5-2.5S129.1,256,130.5,256z M107.5,248c1.4,0,2.5,1.1,2.5,2.5s-1.1,2.5-2.5,2.5s-2.5-1.1-2.5-2.5S106.1,248,107.5,248z
	 M2.5,248c1.4,0,2.5,1.1,2.5,2.5S3.9,253,2.5,253S0,251.9,0,250.5S1.1,248,2.5,248z M17.5,248c1.4,0,2.5,1.1,2.5,2.5
	s-1.1,2.5-2.5,2.5s-2.5-1.1-2.5-2.5S16.1,248,17.5,248z M32.5,248c1.4,0,2.5,1.1,2.5,2.5s-1.1,2.5-2.5,2.5s-2.5-1.1-2.5-2.5
	S31.1,248,32.5,248z M47.5,248c1.4,0,2.5,1.1,2.5,2.5s-1.1,2.5-2.5,2.5s-2.5-1.1-2.5-2.5S46.1,248,47.5,248z M62.5,248
	c1.4,0,2.5,1.1,2.5,2.5s-1.1,2.5-2.5,2.5s-2.5-1.1-2.5-2.5S61.1,248,62.5,248z M77.5,248c1.4,0,2.5,1.1,2.5,2.5s-1.1,2.5-2.5,2.5
	s-2.5-1.1-2.5-2.5S76.1,248,77.5,248z M92.5,248c1.4,0,2.5,1.1,2.5,2.5s-1.1,2.5-2.5,2.5s-2.5-1.1-2.5-2.5S91.1,248,92.5,248z
	 M122.5,248c1.4,0,2.5,1.1,2.5,2.5s-1.1,2.5-2.5,2.5s-2.5-1.1-2.5-2.5S121.1,248,122.5,248z M10.5,240c1.4,0,2.5,1.1,2.5,2.5
	s-1.1,2.5-2.5,2.5S8,243.9,8,242.5S9.1,240,10.5,240z M40.5,240c1.4,0,2.5,1.1,2.5,2.5s-1.1,2.5-2.5,2.5s-2.5-1.1-2.5-2.5
	S39.1,240,40.5,240z M55.5,240c1.4,0,2.5,1.1,2.5,2.5s-1.1,2.5-2.5,2.5s-2.5-1.1-2.5-2.5S54.1,240,55.5,240z M70.5,240
	c1.4,0,2.5,1.1,2.5,2.5s-1.1,2.5-2.5,2.5s-2.5-1.1-2.5-2.5S69.1,240,70.5,240z M85.5,240c1.4,0,2.5,1.1,2.5,2.5s-1.1,2.5-2.5,2.5
	s-2.5-1.1-2.5-2.5S84.1,240,85.5,240z M100.5,240c1.4,0,2.5,1.1,2.5,2.5s-1.1,2.5-2.5,2.5s-2.5-1.1-2.5-2.5S99.1,240,100.5,240z
	 M115.5,240c1.4,0,2.5,1.1,2.5,2.5s-1.1,2.5-2.5,2.5s-2.5-1.1-2.5-2.5S114.1,240,115.5,240z M130.5,240c1.4,0,2.5,1.1,2.5,2.5
	s-1.1,2.5-2.5,2.5s-2.5-1.1-2.5-2.5S129.1,240,130.5,240z M25.5,240c1.4,0,2.5,1.1,2.5,2.5s-1.1,2.5-2.5,2.5s-2.5-1.1-2.5-2.5
	S24.1,240,25.5,240z M122.5,232c1.4,0,2.5,1.1,2.5,2.5s-1.1,2.5-2.5,2.5s-2.5-1.1-2.5-2.5S121.1,232,122.5,232z M107.5,232
	c1.4,0,2.5,1.1,2.5,2.5s-1.1,2.5-2.5,2.5s-2.5-1.1-2.5-2.5S106.1,232,107.5,232z M92.5,232c1.4,0,2.5,1.1,2.5,2.5s-1.1,2.5-2.5,2.5
	s-2.5-1.1-2.5-2.5S91.1,232,92.5,232z M77.5,232c1.4,0,2.5,1.1,2.5,2.5s-1.1,2.5-2.5,2.5s-2.5-1.1-2.5-2.5S76.1,232,77.5,232z
	 M62.5,232c1.4,0,2.5,1.1,2.5,2.5s-1.1,2.5-2.5,2.5s-2.5-1.1-2.5-2.5S61.1,232,62.5,232z M47.5,232c1.4,0,2.5,1.1,2.5,2.5
	s-1.1,2.5-2.5,2.5s-2.5-1.1-2.5-2.5S46.1,232,47.5,232z M32.5,232c1.4,0,2.5,1.1,2.5,2.5s-1.1,2.5-2.5,2.5s-2.5-1.1-2.5-2.5
	S31.1,232,32.5,232z M17.5,232c1.4,0,2.5,1.1,2.5,2.5s-1.1,2.5-2.5,2.5s-2.5-1.1-2.5-2.5S16.1,232,17.5,232z M2.5,232
	c1.4,0,2.5,1.1,2.5,2.5S3.9,237,2.5,237S0,235.9,0,234.5S1.1,232,2.5,232z M10.5,224c1.4,0,2.5,1.1,2.5,2.5s-1.1,2.5-2.5,2.5
	S8,227.9,8,226.5S9.1,224,10.5,224z M25.5,224c1.4,0,2.5,1.1,2.5,2.5s-1.1,2.5-2.5,2.5s-2.5-1.1-2.5-2.5S24.1,224,25.5,224z
	 M40.5,224c1.4,0,2.5,1.1,2.5,2.5s-1.1,2.5-2.5,2.5s-2.5-1.1-2.5-2.5S39.1,224,40.5,224z M55.5,224c1.4,0,2.5,1.1,2.5,2.5
	s-1.1,2.5-2.5,2.5s-2.5-1.1-2.5-2.5S54.1,224,55.5,224z M70.5,224c1.4,0,2.5,1.1,2.5,2.5s-1.1,2.5-2.5,2.5s-2.5-1.1-2.5-2.5
	S69.1,224,70.5,224z M85.5,224c1.4,0,2.5,1.1,2.5,2.5s-1.1,2.5-2.5,2.5s-2.5-1.1-2.5-2.5S84.1,224,85.5,224z M100.5,224
	c1.4,0,2.5,1.1,2.5,2.5s-1.1,2.5-2.5,2.5s-2.5-1.1-2.5-2.5S99.1,224,100.5,224z M115.5,224c1.4,0,2.5,1.1,2.5,2.5s-1.1,2.5-2.5,2.5
	s-2.5-1.1-2.5-2.5S114.1,224,115.5,224z M130.5,224c1.4,0,2.5,1.1,2.5,2.5s-1.1,2.5-2.5,2.5s-2.5-1.1-2.5-2.5S129.1,224,130.5,224z
	 M2.5,216c1.4,0,2.5,1.1,2.5,2.5S3.9,221,2.5,221S0,219.9,0,218.5S1.1,216,2.5,216z M17.5,216c1.4,0,2.5,1.1,2.5,2.5
	s-1.1,2.5-2.5,2.5s-2.5-1.1-2.5-2.5S16.1,216,17.5,216z M32.5,216c1.4,0,2.5,1.1,2.5,2.5s-1.1,2.5-2.5,2.5s-2.5-1.1-2.5-2.5
	S31.1,216,32.5,216z M47.5,216c1.4,0,2.5,1.1,2.5,2.5s-1.1,2.5-2.5,2.5s-2.5-1.1-2.5-2.5S46.1,216,47.5,216z M62.5,216
	c1.4,0,2.5,1.1,2.5,2.5s-1.1,2.5-2.5,2.5s-2.5-1.1-2.5-2.5S61.1,216,62.5,216z M77.5,216c1.4,0,2.5,1.1,2.5,2.5s-1.1,2.5-2.5,2.5
	s-2.5-1.1-2.5-2.5S76.1,216,77.5,216z M92.5,216c1.4,0,2.5,1.1,2.5,2.5s-1.1,2.5-2.5,2.5s-2.5-1.1-2.5-2.5S91.1,216,92.5,216z
	 M107.5,216c1.4,0,2.5,1.1,2.5,2.5s-1.1,2.5-2.5,2.5s-2.5-1.1-2.5-2.5S106.1,216,107.5,216z M122.5,216c1.4,0,2.5,1.1,2.5,2.5
	s-1.1,2.5-2.5,2.5s-2.5-1.1-2.5-2.5S121.1,216,122.5,216z M10.5,208c1.4,0,2.5,1.1,2.5,2.5s-1.1,2.5-2.5,2.5S8,211.9,8,210.5
	S9.1,208,10.5,208z M25.5,208c1.4,0,2.5,1.1,2.5,2.5s-1.1,2.5-2.5,2.5s-2.5-1.1-2.5-2.5S24.1,208,25.5,208z M40.5,208
	c1.4,0,2.5,1.1,2.5,2.5s-1.1,2.5-2.5,2.5s-2.5-1.1-2.5-2.5S39.1,208,40.5,208z M55.5,208c1.4,0,2.5,1.1,2.5,2.5s-1.1,2.5-2.5,2.5
	s-2.5-1.1-2.5-2.5S54.1,208,55.5,208z M70.5,208c1.4,0,2.5,1.1,2.5,2.5s-1.1,2.5-2.5,2.5s-2.5-1.1-2.5-2.5S69.1,208,70.5,208z
	 M85.5,208c1.4,0,2.5,1.1,2.5,2.5s-1.1,2.5-2.5,2.5s-2.5-1.1-2.5-2.5S84.1,208,85.5,208z M100.5,208c1.4,0,2.5,1.1,2.5,2.5
	s-1.1,2.5-2.5,2.5s-2.5-1.1-2.5-2.5S99.1,208,100.5,208z M115.5,208c1.4,0,2.5,1.1,2.5,2.5s-1.1,2.5-2.5,2.5s-2.5-1.1-2.5-2.5
	S114.1,208,115.5,208z M130.5,208c1.4,0,2.5,1.1,2.5,2.5s-1.1,2.5-2.5,2.5s-2.5-1.1-2.5-2.5S129.1,208,130.5,208z M2.5,200
	c1.4,0,2.5,1.1,2.5,2.5S3.9,205,2.5,205S0,203.9,0,202.5S1.1,200,2.5,200z M17.5,200c1.4,0,2.5,1.1,2.5,2.5s-1.1,2.5-2.5,2.5
	s-2.5-1.1-2.5-2.5S16.1,200,17.5,200z M32.5,200c1.4,0,2.5,1.1,2.5,2.5s-1.1,2.5-2.5,2.5s-2.5-1.1-2.5-2.5S31.1,200,32.5,200z
	 M47.5,200c1.4,0,2.5,1.1,2.5,2.5s-1.1,2.5-2.5,2.5s-2.5-1.1-2.5-2.5S46.1,200,47.5,200z M62.5,200c1.4,0,2.5,1.1,2.5,2.5
	s-1.1,2.5-2.5,2.5s-2.5-1.1-2.5-2.5S61.1,200,62.5,200z M77.5,200c1.4,0,2.5,1.1,2.5,2.5s-1.1,2.5-2.5,2.5s-2.5-1.1-2.5-2.5
	S76.1,200,77.5,200z M92.5,200c1.4,0,2.5,1.1,2.5,2.5s-1.1,2.5-2.5,2.5s-2.5-1.1-2.5-2.5S91.1,200,92.5,200z M107.5,200
	c1.4,0,2.5,1.1,2.5,2.5s-1.1,2.5-2.5,2.5s-2.5-1.1-2.5-2.5S106.1,200,107.5,200z M122.5,200c1.4,0,2.5,1.1,2.5,2.5s-1.1,2.5-2.5,2.5
	s-2.5-1.1-2.5-2.5S121.1,200,122.5,200z M10.5,192c1.4,0,2.5,1.1,2.5,2.5s-1.1,2.5-2.5,2.5S8,195.9,8,194.5S9.1,192,10.5,192z
	 M25.5,192c1.4,0,2.5,1.1,2.5,2.5s-1.1,2.5-2.5,2.5s-2.5-1.1-2.5-2.5S24.1,192,25.5,192z M40.5,192c1.4,0,2.5,1.1,2.5,2.5
	s-1.1,2.5-2.5,2.5s-2.5-1.1-2.5-2.5S39.1,192,40.5,192z M55.5,192c1.4,0,2.5,1.1,2.5,2.5s-1.1,2.5-2.5,2.5s-2.5-1.1-2.5-2.5
	S54.1,192,55.5,192z M70.5,192c1.4,0,2.5,1.1,2.5,2.5s-1.1,2.5-2.5,2.5s-2.5-1.1-2.5-2.5S69.1,192,70.5,192z M85.5,192
	c1.4,0,2.5,1.1,2.5,2.5s-1.1,2.5-2.5,2.5s-2.5-1.1-2.5-2.5S84.1,192,85.5,192z M100.5,192c1.4,0,2.5,1.1,2.5,2.5s-1.1,2.5-2.5,2.5
	s-2.5-1.1-2.5-2.5S99.1,192,100.5,192z M115.5,192c1.4,0,2.5,1.1,2.5,2.5s-1.1,2.5-2.5,2.5s-2.5-1.1-2.5-2.5S114.1,192,115.5,192z
	 M130.5,192c1.4,0,2.5,1.1,2.5,2.5s-1.1,2.5-2.5,2.5s-2.5-1.1-2.5-2.5S129.1,192,130.5,192z M2.5,184c1.4,0,2.5,1.1,2.5,2.5
	S3.9,189,2.5,189S0,187.9,0,186.5S1.1,184,2.5,184z M17.5,184c1.4,0,2.5,1.1,2.5,2.5s-1.1,2.5-2.5,2.5s-2.5-1.1-2.5-2.5
	S16.1,184,17.5,184z M32.5,184c1.4,0,2.5,1.1,2.5,2.5s-1.1,2.5-2.5,2.5s-2.5-1.1-2.5-2.5S31.1,184,32.5,184z M47.5,184
	c1.4,0,2.5,1.1,2.5,2.5s-1.1,2.5-2.5,2.5s-2.5-1.1-2.5-2.5S46.1,184,47.5,184z M62.5,184c1.4,0,2.5,1.1,2.5,2.5s-1.1,2.5-2.5,2.5
	s-2.5-1.1-2.5-2.5S61.1,184,62.5,184z M77.5,184c1.4,0,2.5,1.1,2.5,2.5s-1.1,2.5-2.5,2.5s-2.5-1.1-2.5-2.5S76.1,184,77.5,184z
	 M92.5,184c1.4,0,2.5,1.1,2.5,2.5s-1.1,2.5-2.5,2.5s-2.5-1.1-2.5-2.5S91.1,184,92.5,184z M107.5,184c1.4,0,2.5,1.1,2.5,2.5
	s-1.1,2.5-2.5,2.5s-2.5-1.1-2.5-2.5S106.1,184,107.5,184z M122.5,184c1.4,0,2.5,1.1,2.5,2.5s-1.1,2.5-2.5,2.5s-2.5-1.1-2.5-2.5
	S121.1,184,122.5,184z M10.5,176c1.4,0,2.5,1.1,2.5,2.5s-1.1,2.5-2.5,2.5S8,179.9,8,178.5S9.1,176,10.5,176z M25.5,176
	c1.4,0,2.5,1.1,2.5,2.5s-1.1,2.5-2.5,2.5s-2.5-1.1-2.5-2.5S24.1,176,25.5,176z M40.5,176c1.4,0,2.5,1.1,2.5,2.5s-1.1,2.5-2.5,2.5
	s-2.5-1.1-2.5-2.5S39.1,176,40.5,176z M55.5,176c1.4,0,2.5,1.1,2.5,2.5s-1.1,2.5-2.5,2.5s-2.5-1.1-2.5-2.5S54.1,176,55.5,176z
	 M70.5,176c1.4,0,2.5,1.1,2.5,2.5s-1.1,2.5-2.5,2.5s-2.5-1.1-2.5-2.5S69.1,176,70.5,176z M85.5,176c1.4,0,2.5,1.1,2.5,2.5
	s-1.1,2.5-2.5,2.5s-2.5-1.1-2.5-2.5S84.1,176,85.5,176z M100.5,176c1.4,0,2.5,1.1,2.5,2.5s-1.1,2.5-2.5,2.5s-2.5-1.1-2.5-2.5
	S99.1,176,100.5,176z M115.5,176c1.4,0,2.5,1.1,2.5,2.5s-1.1,2.5-2.5,2.5s-2.5-1.1-2.5-2.5S114.1,176,115.5,176z M130.5,176
	c1.4,0,2.5,1.1,2.5,2.5s-1.1,2.5-2.5,2.5s-2.5-1.1-2.5-2.5S129.1,176,130.5,176z M2.5,168c1.4,0,2.5,1.1,2.5,2.5S3.9,173,2.5,173
	S0,171.9,0,170.5S1.1,168,2.5,168z M17.5,168c1.4,0,2.5,1.1,2.5,2.5s-1.1,2.5-2.5,2.5s-2.5-1.1-2.5-2.5S16.1,168,17.5,168z
	 M32.5,168c1.4,0,2.5,1.1,2.5,2.5s-1.1,2.5-2.5,2.5s-2.5-1.1-2.5-2.5S31.1,168,32.5,168z M47.5,168c1.4,0,2.5,1.1,2.5,2.5
	s-1.1,2.5-2.5,2.5s-2.5-1.1-2.5-2.5S46.1,168,47.5,168z M62.5,168c1.4,0,2.5,1.1,2.5,2.5s-1.1,2.5-2.5,2.5s-2.5-1.1-2.5-2.5
	S61.1,168,62.5,168z M77.5,168c1.4,0,2.5,1.1,2.5,2.5s-1.1,2.5-2.5,2.5s-2.5-1.1-2.5-2.5S76.1,168,77.5,168z M92.5,168
	c1.4,0,2.5,1.1,2.5,2.5s-1.1,2.5-2.5,2.5s-2.5-1.1-2.5-2.5S91.1,168,92.5,168z M107.5,168c1.4,0,2.5,1.1,2.5,2.5s-1.1,2.5-2.5,2.5
	s-2.5-1.1-2.5-2.5S106.1,168,107.5,168z M122.5,168c1.4,0,2.5,1.1,2.5,2.5s-1.1,2.5-2.5,2.5s-2.5-1.1-2.5-2.5S121.1,168,122.5,168z
	 M10.5,160c1.4,0,2.5,1.1,2.5,2.5s-1.1,2.5-2.5,2.5S8,163.9,8,162.5S9.1,160,10.5,160z M25.5,160c1.4,0,2.5,1.1,2.5,2.5
	s-1.1,2.5-2.5,2.5s-2.5-1.1-2.5-2.5S24.1,160,25.5,160z M40.5,160c1.4,0,2.5,1.1,2.5,2.5s-1.1,2.5-2.5,2.5s-2.5-1.1-2.5-2.5
	S39.1,160,40.5,160z M55.5,160c1.4,0,2.5,1.1,2.5,2.5s-1.1,2.5-2.5,2.5s-2.5-1.1-2.5-2.5S54.1,160,55.5,160z M70.5,160
	c1.4,0,2.5,1.1,2.5,2.5s-1.1,2.5-2.5,2.5s-2.5-1.1-2.5-2.5S69.1,160,70.5,160z M85.5,160c1.4,0,2.5,1.1,2.5,2.5s-1.1,2.5-2.5,2.5
	s-2.5-1.1-2.5-2.5S84.1,160,85.5,160z M100.5,160c1.4,0,2.5,1.1,2.5,2.5s-1.1,2.5-2.5,2.5s-2.5-1.1-2.5-2.5S99.1,160,100.5,160z
	 M115.5,160c1.4,0,2.5,1.1,2.5,2.5s-1.1,2.5-2.5,2.5s-2.5-1.1-2.5-2.5S114.1,160,115.5,160z M130.5,160c1.4,0,2.5,1.1,2.5,2.5
	s-1.1,2.5-2.5,2.5s-2.5-1.1-2.5-2.5S129.1,160,130.5,160z M2.5,152c1.4,0,2.5,1.1,2.5,2.5S3.9,157,2.5,157S0,155.9,0,154.5
	S1.1,152,2.5,152z M17.5,152c1.4,0,2.5,1.1,2.5,2.5s-1.1,2.5-2.5,2.5s-2.5-1.1-2.5-2.5S16.1,152,17.5,152z M32.5,152
	c1.4,0,2.5,1.1,2.5,2.5s-1.1,2.5-2.5,2.5s-2.5-1.1-2.5-2.5S31.1,152,32.5,152z M47.5,152c1.4,0,2.5,1.1,2.5,2.5s-1.1,2.5-2.5,2.5
	s-2.5-1.1-2.5-2.5S46.1,152,47.5,152z M62.5,152c1.4,0,2.5,1.1,2.5,2.5s-1.1,2.5-2.5,2.5s-2.5-1.1-2.5-2.5S61.1,152,62.5,152z
	 M77.5,152c1.4,0,2.5,1.1,2.5,2.5s-1.1,2.5-2.5,2.5s-2.5-1.1-2.5-2.5S76.1,152,77.5,152z M92.5,152c1.4,0,2.5,1.1,2.5,2.5
	s-1.1,2.5-2.5,2.5s-2.5-1.1-2.5-2.5S91.1,152,92.5,152z M107.5,152c1.4,0,2.5,1.1,2.5,2.5s-1.1,2.5-2.5,2.5s-2.5-1.1-2.5-2.5
	S106.1,152,107.5,152z M122.5,152c1.4,0,2.5,1.1,2.5,2.5s-1.1,2.5-2.5,2.5s-2.5-1.1-2.5-2.5S121.1,152,122.5,152z M10.5,144
	c1.4,0,2.5,1.1,2.5,2.5s-1.1,2.5-2.5,2.5S8,147.9,8,146.5S9.1,144,10.5,144z M25.5,144c1.4,0,2.5,1.1,2.5,2.5s-1.1,2.5-2.5,2.5
	s-2.5-1.1-2.5-2.5S24.1,144,25.5,144z M40.5,144c1.4,0,2.5,1.1,2.5,2.5s-1.1,2.5-2.5,2.5s-2.5-1.1-2.5-2.5S39.1,144,40.5,144z
	 M55.5,144c1.4,0,2.5,1.1,2.5,2.5s-1.1,2.5-2.5,2.5s-2.5-1.1-2.5-2.5S54.1,144,55.5,144z M70.5,144c1.4,0,2.5,1.1,2.5,2.5
	s-1.1,2.5-2.5,2.5s-2.5-1.1-2.5-2.5S69.1,144,70.5,144z M85.5,144c1.4,0,2.5,1.1,2.5,2.5s-1.1,2.5-2.5,2.5s-2.5-1.1-2.5-2.5
	S84.1,144,85.5,144z M100.5,144c1.4,0,2.5,1.1,2.5,2.5s-1.1,2.5-2.5,2.5s-2.5-1.1-2.5-2.5S99.1,144,100.5,144z M115.5,144
	c1.4,0,2.5,1.1,2.5,2.5s-1.1,2.5-2.5,2.5s-2.5-1.1-2.5-2.5S114.1,144,115.5,144z M130.5,144c1.4,0,2.5,1.1,2.5,2.5s-1.1,2.5-2.5,2.5
	s-2.5-1.1-2.5-2.5S129.1,144,130.5,144z M2.5,136c1.4,0,2.5,1.1,2.5,2.5S3.9,141,2.5,141S0,139.9,0,138.5S1.1,136,2.5,136z
	 M17.5,136c1.4,0,2.5,1.1,2.5,2.5s-1.1,2.5-2.5,2.5s-2.5-1.1-2.5-2.5S16.1,136,17.5,136z M32.5,136c1.4,0,2.5,1.1,2.5,2.5
	s-1.1,2.5-2.5,2.5s-2.5-1.1-2.5-2.5S31.1,136,32.5,136z M47.5,136c1.4,0,2.5,1.1,2.5,2.5s-1.1,2.5-2.5,2.5s-2.5-1.1-2.5-2.5
	S46.1,136,47.5,136z M62.5,136c1.4,0,2.5,1.1,2.5,2.5s-1.1,2.5-2.5,2.5s-2.5-1.1-2.5-2.5S61.1,136,62.5,136z M77.5,136
	c1.4,0,2.5,1.1,2.5,2.5s-1.1,2.5-2.5,2.5s-2.5-1.1-2.5-2.5S76.1,136,77.5,136z M92.5,136c1.4,0,2.5,1.1,2.5,2.5s-1.1,2.5-2.5,2.5
	s-2.5-1.1-2.5-2.5S91.1,136,92.5,136z M107.5,136c1.4,0,2.5,1.1,2.5,2.5s-1.1,2.5-2.5,2.5s-2.5-1.1-2.5-2.5S106.1,136,107.5,136z
	 M122.5,136c1.4,0,2.5,1.1,2.5,2.5s-1.1,2.5-2.5,2.5s-2.5-1.1-2.5-2.5S121.1,136,122.5,136z M10.5,128c1.4,0,2.5,1.1,2.5,2.5
	s-1.1,2.5-2.5,2.5S8,131.9,8,130.5S9.1,128,10.5,128z M25.5,128c1.4,0,2.5,1.1,2.5,2.5s-1.1,2.5-2.5,2.5s-2.5-1.1-2.5-2.5
	S24.1,128,25.5,128z M40.5,128c1.4,0,2.5,1.1,2.5,2.5s-1.1,2.5-2.5,2.5s-2.5-1.1-2.5-2.5S39.1,128,40.5,128z M55.5,128
	c1.4,0,2.5,1.1,2.5,2.5s-1.1,2.5-2.5,2.5s-2.5-1.1-2.5-2.5S54.1,128,55.5,128z M70.5,128c1.4,0,2.5,1.1,2.5,2.5s-1.1,2.5-2.5,2.5
	s-2.5-1.1-2.5-2.5S69.1,128,70.5,128z M85.5,128c1.4,0,2.5,1.1,2.5,2.5s-1.1,2.5-2.5,2.5s-2.5-1.1-2.5-2.5S84.1,128,85.5,128z
	 M100.5,128c1.4,0,2.5,1.1,2.5,2.5s-1.1,2.5-2.5,2.5s-2.5-1.1-2.5-2.5S99.1,128,100.5,128z M115.5,128c1.4,0,2.5,1.1,2.5,2.5
	s-1.1,2.5-2.5,2.5s-2.5-1.1-2.5-2.5S114.1,128,115.5,128z M130.5,128c1.4,0,2.5,1.1,2.5,2.5s-1.1,2.5-2.5,2.5s-2.5-1.1-2.5-2.5
	S129.1,128,130.5,128z M2.5,120c1.4,0,2.5,1.1,2.5,2.5S3.9,125,2.5,125S0,123.9,0,122.5S1.1,120,2.5,120z M17.5,120
	c1.4,0,2.5,1.1,2.5,2.5s-1.1,2.5-2.5,2.5s-2.5-1.1-2.5-2.5S16.1,120,17.5,120z M32.5,120c1.4,0,2.5,1.1,2.5,2.5s-1.1,2.5-2.5,2.5
	s-2.5-1.1-2.5-2.5S31.1,120,32.5,120z M47.5,120c1.4,0,2.5,1.1,2.5,2.5s-1.1,2.5-2.5,2.5s-2.5-1.1-2.5-2.5S46.1,120,47.5,120z
	 M62.5,120c1.4,0,2.5,1.1,2.5,2.5s-1.1,2.5-2.5,2.5s-2.5-1.1-2.5-2.5S61.1,120,62.5,120z M77.5,120c1.4,0,2.5,1.1,2.5,2.5
	s-1.1,2.5-2.5,2.5s-2.5-1.1-2.5-2.5S76.1,120,77.5,120z M92.5,120c1.4,0,2.5,1.1,2.5,2.5s-1.1,2.5-2.5,2.5s-2.5-1.1-2.5-2.5
	S91.1,120,92.5,120z M107.5,120c1.4,0,2.5,1.1,2.5,2.5s-1.1,2.5-2.5,2.5s-2.5-1.1-2.5-2.5S106.1,120,107.5,120z M122.5,120
	c1.4,0,2.5,1.1,2.5,2.5s-1.1,2.5-2.5,2.5s-2.5-1.1-2.5-2.5S121.1,120,122.5,120z M10.5,112c1.4,0,2.5,1.1,2.5,2.5s-1.1,2.5-2.5,2.5
	S8,115.9,8,114.5S9.1,112,10.5,112z M25.5,112c1.4,0,2.5,1.1,2.5,2.5s-1.1,2.5-2.5,2.5s-2.5-1.1-2.5-2.5S24.1,112,25.5,112z
	 M40.5,112c1.4,0,2.5,1.1,2.5,2.5s-1.1,2.5-2.5,2.5s-2.5-1.1-2.5-2.5S39.1,112,40.5,112z M55.5,112c1.4,0,2.5,1.1,2.5,2.5
	s-1.1,2.5-2.5,2.5s-2.5-1.1-2.5-2.5S54.1,112,55.5,112z M70.5,112c1.4,0,2.5,1.1,2.5,2.5s-1.1,2.5-2.5,2.5s-2.5-1.1-2.5-2.5
	S69.1,112,70.5,112z M85.5,112c1.4,0,2.5,1.1,2.5,2.5s-1.1,2.5-2.5,2.5s-2.5-1.1-2.5-2.5S84.1,112,85.5,112z M100.5,112
	c1.4,0,2.5,1.1,2.5,2.5s-1.1,2.5-2.5,2.5s-2.5-1.1-2.5-2.5S99.1,112,100.5,112z M115.5,112c1.4,0,2.5,1.1,2.5,2.5s-1.1,2.5-2.5,2.5
	s-2.5-1.1-2.5-2.5S114.1,112,115.5,112z M130.5,112c1.4,0,2.5,1.1,2.5,2.5s-1.1,2.5-2.5,2.5s-2.5-1.1-2.5-2.5S129.1,112,130.5,112z
	 M2.5,104c1.4,0,2.5,1.1,2.5,2.5S3.9,109,2.5,109S0,107.9,0,106.5S1.1,104,2.5,104z M17.5,104c1.4,0,2.5,1.1,2.5,2.5
	s-1.1,2.5-2.5,2.5s-2.5-1.1-2.5-2.5S16.1,104,17.5,104z M32.5,104c1.4,0,2.5,1.1,2.5,2.5s-1.1,2.5-2.5,2.5s-2.5-1.1-2.5-2.5
	S31.1,104,32.5,104z M47.5,104c1.4,0,2.5,1.1,2.5,2.5s-1.1,2.5-2.5,2.5s-2.5-1.1-2.5-2.5S46.1,104,47.5,104z M62.5,104
	c1.4,0,2.5,1.1,2.5,2.5s-1.1,2.5-2.5,2.5s-2.5-1.1-2.5-2.5S61.1,104,62.5,104z M77.5,104c1.4,0,2.5,1.1,2.5,2.5s-1.1,2.5-2.5,2.5
	s-2.5-1.1-2.5-2.5S76.1,104,77.5,104z M92.5,104c1.4,0,2.5,1.1,2.5,2.5s-1.1,2.5-2.5,2.5s-2.5-1.1-2.5-2.5S91.1,104,92.5,104z
	 M107.5,104c1.4,0,2.5,1.1,2.5,2.5s-1.1,2.5-2.5,2.5s-2.5-1.1-2.5-2.5S106.1,104,107.5,104z M122.5,104c1.4,0,2.5,1.1,2.5,2.5
	s-1.1,2.5-2.5,2.5s-2.5-1.1-2.5-2.5S121.1,104,122.5,104z M10.5,96c1.4,0,2.5,1.1,2.5,2.5s-1.1,2.5-2.5,2.5S8,99.9,8,98.5
	S9.1,96,10.5,96z M25.5,96c1.4,0,2.5,1.1,2.5,2.5s-1.1,2.5-2.5,2.5S23,99.9,23,98.5S24.1,96,25.5,96z M40.5,96
	c1.4,0,2.5,1.1,2.5,2.5s-1.1,2.5-2.5,2.5S38,99.9,38,98.5S39.1,96,40.5,96z M55.5,96c1.4,0,2.5,1.1,2.5,2.5s-1.1,2.5-2.5,2.5
	S53,99.9,53,98.5S54.1,96,55.5,96z M70.5,96c1.4,0,2.5,1.1,2.5,2.5s-1.1,2.5-2.5,2.5S68,99.9,68,98.5S69.1,96,70.5,96z M85.5,96
	c1.4,0,2.5,1.1,2.5,2.5s-1.1,2.5-2.5,2.5S83,99.9,83,98.5S84.1,96,85.5,96z M100.5,96c1.4,0,2.5,1.1,2.5,2.5s-1.1,2.5-2.5,2.5
	S98,99.9,98,98.5S99.1,96,100.5,96z M115.5,96c1.4,0,2.5,1.1,2.5,2.5s-1.1,2.5-2.5,2.5s-2.5-1.1-2.5-2.5S114.1,96,115.5,96z
	 M130.5,96c1.4,0,2.5,1.1,2.5,2.5s-1.1,2.5-2.5,2.5s-2.5-1.1-2.5-2.5S129.1,96,130.5,96z M2.5,88C3.9,88,5,89.1,5,90.5
	S3.9,93,2.5,93S0,91.9,0,90.5S1.1,88,2.5,88z M17.5,88c1.4,0,2.5,1.1,2.5,2.5S18.9,93,17.5,93S15,91.9,15,90.5S16.1,88,17.5,88z
	 M32.5,88c1.4,0,2.5,1.1,2.5,2.5S33.9,93,32.5,93S30,91.9,30,90.5S31.1,88,32.5,88z M47.5,88c1.4,0,2.5,1.1,2.5,2.5S48.9,93,47.5,93
	S45,91.9,45,90.5S46.1,88,47.5,88z M62.5,88c1.4,0,2.5,1.1,2.5,2.5S63.9,93,62.5,93S60,91.9,60,90.5S61.1,88,62.5,88z M77.5,88
	c1.4,0,2.5,1.1,2.5,2.5S78.9,93,77.5,93S75,91.9,75,90.5S76.1,88,77.5,88z M92.5,88c1.4,0,2.5,1.1,2.5,2.5S93.9,93,92.5,93
	S90,91.9,90,90.5S91.1,88,92.5,88z M107.5,88c1.4,0,2.5,1.1,2.5,2.5s-1.1,2.5-2.5,2.5s-2.5-1.1-2.5-2.5S106.1,88,107.5,88z
	 M122.5,88c1.4,0,2.5,1.1,2.5,2.5s-1.1,2.5-2.5,2.5s-2.5-1.1-2.5-2.5S121.1,88,122.5,88z M10.5,80c1.4,0,2.5,1.1,2.5,2.5
	S11.9,85,10.5,85S8,83.9,8,82.5S9.1,80,10.5,80z M25.5,80c1.4,0,2.5,1.1,2.5,2.5S26.9,85,25.5,85S23,83.9,23,82.5S24.1,80,25.5,80z
	 M40.5,80c1.4,0,2.5,1.1,2.5,2.5S41.9,85,40.5,85S38,83.9,38,82.5S39.1,80,40.5,80z M55.5,80c1.4,0,2.5,1.1,2.5,2.5S56.9,85,55.5,85
	S53,83.9,53,82.5S54.1,80,55.5,80z M70.5,80c1.4,0,2.5,1.1,2.5,2.5S71.9,85,70.5,85S68,83.9,68,82.5S69.1,80,70.5,80z M85.5,80
	c1.4,0,2.5,1.1,2.5,2.5S86.9,85,85.5,85S83,83.9,83,82.5S84.1,80,85.5,80z M100.5,80c1.4,0,2.5,1.1,2.5,2.5s-1.1,2.5-2.5,2.5
	S98,83.9,98,82.5S99.1,80,100.5,80z M115.5,80c1.4,0,2.5,1.1,2.5,2.5s-1.1,2.5-2.5,2.5s-2.5-1.1-2.5-2.5S114.1,80,115.5,80z
	 M130.5,80c1.4,0,2.5,1.1,2.5,2.5s-1.1,2.5-2.5,2.5s-2.5-1.1-2.5-2.5S129.1,80,130.5,80z M2.5,72C3.9,72,5,73.1,5,74.5
	S3.9,77,2.5,77S0,75.9,0,74.5S1.1,72,2.5,72z M17.5,72c1.4,0,2.5,1.1,2.5,2.5S18.9,77,17.5,77S15,75.9,15,74.5S16.1,72,17.5,72z
	 M32.5,72c1.4,0,2.5,1.1,2.5,2.5S33.9,77,32.5,77S30,75.9,30,74.5S31.1,72,32.5,72z M47.5,72c1.4,0,2.5,1.1,2.5,2.5S48.9,77,47.5,77
	S45,75.9,45,74.5S46.1,72,47.5,72z M62.5,72c1.4,0,2.5,1.1,2.5,2.5S63.9,77,62.5,77S60,75.9,60,74.5S61.1,72,62.5,72z M77.5,72
	c1.4,0,2.5,1.1,2.5,2.5S78.9,77,77.5,77S75,75.9,75,74.5S76.1,72,77.5,72z M92.5,72c1.4,0,2.5,1.1,2.5,2.5S93.9,77,92.5,77
	S90,75.9,90,74.5S91.1,72,92.5,72z M107.5,72c1.4,0,2.5,1.1,2.5,2.5s-1.1,2.5-2.5,2.5s-2.5-1.1-2.5-2.5S106.1,72,107.5,72z
	 M122.5,72c1.4,0,2.5,1.1,2.5,2.5s-1.1,2.5-2.5,2.5s-2.5-1.1-2.5-2.5S121.1,72,122.5,72z M10.5,64c1.4,0,2.5,1.1,2.5,2.5
	S11.9,69,10.5,69S8,67.9,8,66.5S9.1,64,10.5,64z M25.5,64c1.4,0,2.5,1.1,2.5,2.5S26.9,69,25.5,69S23,67.9,23,66.5S24.1,64,25.5,64z
	 M40.5,64c1.4,0,2.5,1.1,2.5,2.5S41.9,69,40.5,69S38,67.9,38,66.5S39.1,64,40.5,64z M55.5,64c1.4,0,2.5,1.1,2.5,2.5S56.9,69,55.5,69
	S53,67.9,53,66.5S54.1,64,55.5,64z M70.5,64c1.4,0,2.5,1.1,2.5,2.5S71.9,69,70.5,69S68,67.9,68,66.5S69.1,64,70.5,64z M85.5,64
	c1.4,0,2.5,1.1,2.5,2.5S86.9,69,85.5,69S83,67.9,83,66.5S84.1,64,85.5,64z M100.5,64c1.4,0,2.5,1.1,2.5,2.5s-1.1,2.5-2.5,2.5
	S98,67.9,98,66.5S99.1,64,100.5,64z M115.5,64c1.4,0,2.5,1.1,2.5,2.5s-1.1,2.5-2.5,2.5s-2.5-1.1-2.5-2.5S114.1,64,115.5,64z
	 M130.5,64c1.4,0,2.5,1.1,2.5,2.5s-1.1,2.5-2.5,2.5s-2.5-1.1-2.5-2.5S129.1,64,130.5,64z M2.5,56C3.9,56,5,57.1,5,58.5
	S3.9,61,2.5,61S0,59.9,0,58.5S1.1,56,2.5,56z M17.5,56c1.4,0,2.5,1.1,2.5,2.5S18.9,61,17.5,61S15,59.9,15,58.5S16.1,56,17.5,56z
	 M32.5,56c1.4,0,2.5,1.1,2.5,2.5S33.9,61,32.5,61S30,59.9,30,58.5S31.1,56,32.5,56z M47.5,56c1.4,0,2.5,1.1,2.5,2.5S48.9,61,47.5,61
	S45,59.9,45,58.5S46.1,56,47.5,56z M62.5,56c1.4,0,2.5,1.1,2.5,2.5S63.9,61,62.5,61S60,59.9,60,58.5S61.1,56,62.5,56z M77.5,56
	c1.4,0,2.5,1.1,2.5,2.5S78.9,61,77.5,61S75,59.9,75,58.5S76.1,56,77.5,56z M92.5,56c1.4,0,2.5,1.1,2.5,2.5S93.9,61,92.5,61
	S90,59.9,90,58.5S91.1,56,92.5,56z M107.5,56c1.4,0,2.5,1.1,2.5,2.5s-1.1,2.5-2.5,2.5s-2.5-1.1-2.5-2.5S106.1,56,107.5,56z
	 M122.5,56c1.4,0,2.5,1.1,2.5,2.5s-1.1,2.5-2.5,2.5s-2.5-1.1-2.5-2.5S121.1,56,122.5,56z M10.5,48c1.4,0,2.5,1.1,2.5,2.5
	S11.9,53,10.5,53S8,51.9,8,50.5S9.1,48,10.5,48z M25.5,48c1.4,0,2.5,1.1,2.5,2.5S26.9,53,25.5,53S23,51.9,23,50.5S24.1,48,25.5,48z
	 M40.5,48c1.4,0,2.5,1.1,2.5,2.5S41.9,53,40.5,53S38,51.9,38,50.5S39.1,48,40.5,48z M55.5,48c1.4,0,2.5,1.1,2.5,2.5S56.9,53,55.5,53
	S53,51.9,53,50.5S54.1,48,55.5,48z M70.5,48c1.4,0,2.5,1.1,2.5,2.5S71.9,53,70.5,53S68,51.9,68,50.5S69.1,48,70.5,48z M85.5,48
	c1.4,0,2.5,1.1,2.5,2.5S86.9,53,85.5,53S83,51.9,83,50.5S84.1,48,85.5,48z M100.5,48c1.4,0,2.5,1.1,2.5,2.5s-1.1,2.5-2.5,2.5
	S98,51.9,98,50.5S99.1,48,100.5,48z M115.5,48c1.4,0,2.5,1.1,2.5,2.5s-1.1,2.5-2.5,2.5s-2.5-1.1-2.5-2.5S114.1,48,115.5,48z
	 M130.5,48c1.4,0,2.5,1.1,2.5,2.5s-1.1,2.5-2.5,2.5s-2.5-1.1-2.5-2.5S129.1,48,130.5,48z M2.5,40C3.9,40,5,41.1,5,42.5
	S3.9,45,2.5,45S0,43.9,0,42.5S1.1,40,2.5,40z M17.5,40c1.4,0,2.5,1.1,2.5,2.5S18.9,45,17.5,45S15,43.9,15,42.5S16.1,40,17.5,40z
	 M32.5,40c1.4,0,2.5,1.1,2.5,2.5S33.9,45,32.5,45S30,43.9,30,42.5S31.1,40,32.5,40z M47.5,40c1.4,0,2.5,1.1,2.5,2.5S48.9,45,47.5,45
	S45,43.9,45,42.5S46.1,40,47.5,40z M62.5,40c1.4,0,2.5,1.1,2.5,2.5S63.9,45,62.5,45S60,43.9,60,42.5S61.1,40,62.5,40z M77.5,40
	c1.4,0,2.5,1.1,2.5,2.5S78.9,45,77.5,45S75,43.9,75,42.5S76.1,40,77.5,40z M92.5,40c1.4,0,2.5,1.1,2.5,2.5S93.9,45,92.5,45
	S90,43.9,90,42.5S91.1,40,92.5,40z M107.5,40c1.4,0,2.5,1.1,2.5,2.5s-1.1,2.5-2.5,2.5s-2.5-1.1-2.5-2.5S106.1,40,107.5,40z
	 M122.5,40c1.4,0,2.5,1.1,2.5,2.5s-1.1,2.5-2.5,2.5s-2.5-1.1-2.5-2.5S121.1,40,122.5,40z M10.5,32c1.4,0,2.5,1.1,2.5,2.5
	S11.9,37,10.5,37S8,35.9,8,34.5S9.1,32,10.5,32z M25.5,32c1.4,0,2.5,1.1,2.5,2.5S26.9,37,25.5,37S23,35.9,23,34.5S24.1,32,25.5,32z
	 M40.5,32c1.4,0,2.5,1.1,2.5,2.5S41.9,37,40.5,37S38,35.9,38,34.5S39.1,32,40.5,32z M55.5,32c1.4,0,2.5,1.1,2.5,2.5S56.9,37,55.5,37
	S53,35.9,53,34.5S54.1,32,55.5,32z M70.5,32c1.4,0,2.5,1.1,2.5,2.5S71.9,37,70.5,37S68,35.9,68,34.5S69.1,32,70.5,32z M85.5,32
	c1.4,0,2.5,1.1,2.5,2.5S86.9,37,85.5,37S83,35.9,83,34.5S84.1,32,85.5,32z M100.5,32c1.4,0,2.5,1.1,2.5,2.5s-1.1,2.5-2.5,2.5
	S98,35.9,98,34.5S99.1,32,100.5,32z M115.5,32c1.4,0,2.5,1.1,2.5,2.5s-1.1,2.5-2.5,2.5s-2.5-1.1-2.5-2.5S114.1,32,115.5,32z
	 M130.5,32c1.4,0,2.5,1.1,2.5,2.5s-1.1,2.5-2.5,2.5s-2.5-1.1-2.5-2.5S129.1,32,130.5,32z M2.5,24C3.9,24,5,25.1,5,26.5
	S3.9,29,2.5,29S0,27.9,0,26.5S1.1,24,2.5,24z M17.5,24c1.4,0,2.5,1.1,2.5,2.5S18.9,29,17.5,29S15,27.9,15,26.5S16.1,24,17.5,24z
	 M32.5,24c1.4,0,2.5,1.1,2.5,2.5S33.9,29,32.5,29S30,27.9,30,26.5S31.1,24,32.5,24z M47.5,24c1.4,0,2.5,1.1,2.5,2.5S48.9,29,47.5,29
	S45,27.9,45,26.5S46.1,24,47.5,24z M62.5,24c1.4,0,2.5,1.1,2.5,2.5S63.9,29,62.5,29S60,27.9,60,26.5S61.1,24,62.5,24z M77.5,24
	c1.4,0,2.5,1.1,2.5,2.5S78.9,29,77.5,29S75,27.9,75,26.5S76.1,24,77.5,24z M92.5,24c1.4,0,2.5,1.1,2.5,2.5S93.9,29,92.5,29
	S90,27.9,90,26.5S91.1,24,92.5,24z M107.5,24c1.4,0,2.5,1.1,2.5,2.5s-1.1,2.5-2.5,2.5s-2.5-1.1-2.5-2.5S106.1,24,107.5,24z
	 M122.5,24c1.4,0,2.5,1.1,2.5,2.5s-1.1,2.5-2.5,2.5s-2.5-1.1-2.5-2.5S121.1,24,122.5,24z M10.5,16c1.4,0,2.5,1.1,2.5,2.5
	S11.9,21,10.5,21S8,19.9,8,18.5S9.1,16,10.5,16z M25.5,16c1.4,0,2.5,1.1,2.5,2.5S26.9,21,25.5,21S23,19.9,23,18.5S24.1,16,25.5,16z
	 M40.5,16c1.4,0,2.5,1.1,2.5,2.5S41.9,21,40.5,21S38,19.9,38,18.5S39.1,16,40.5,16z M55.5,16c1.4,0,2.5,1.1,2.5,2.5S56.9,21,55.5,21
	S53,19.9,53,18.5S54.1,16,55.5,16z M70.5,16c1.4,0,2.5,1.1,2.5,2.5S71.9,21,70.5,21S68,19.9,68,18.5S69.1,16,70.5,16z M85.5,16
	c1.4,0,2.5,1.1,2.5,2.5S86.9,21,85.5,21S83,19.9,83,18.5S84.1,16,85.5,16z M100.5,16c1.4,0,2.5,1.1,2.5,2.5s-1.1,2.5-2.5,2.5
	S98,19.9,98,18.5S99.1,16,100.5,16z M115.5,16c1.4,0,2.5,1.1,2.5,2.5s-1.1,2.5-2.5,2.5s-2.5-1.1-2.5-2.5S114.1,16,115.5,16z
	 M130.5,16c1.4,0,2.5,1.1,2.5,2.5s-1.1,2.5-2.5,2.5s-2.5-1.1-2.5-2.5S129.1,16,130.5,16z M2.5,8C3.9,8,5,9.1,5,10.5S3.9,13,2.5,13
	S0,11.9,0,10.5S1.1,8,2.5,8z M17.5,8c1.4,0,2.5,1.1,2.5,2.5S18.9,13,17.5,13S15,11.9,15,10.5S16.1,8,17.5,8z M32.5,8
	c1.4,0,2.5,1.1,2.5,2.5S33.9,13,32.5,13S30,11.9,30,10.5S31.1,8,32.5,8z M47.5,8c1.4,0,2.5,1.1,2.5,2.5S48.9,13,47.5,13
	S45,11.9,45,10.5S46.1,8,47.5,8z M62.5,8c1.4,0,2.5,1.1,2.5,2.5S63.9,13,62.5,13S60,11.9,60,10.5S61.1,8,62.5,8z M77.5,8
	c1.4,0,2.5,1.1,2.5,2.5S78.9,13,77.5,13S75,11.9,75,10.5S76.1,8,77.5,8z M92.5,8c1.4,0,2.5,1.1,2.5,2.5S93.9,13,92.5,13
	S90,11.9,90,10.5S91.1,8,92.5,8z M107.5,8c1.4,0,2.5,1.1,2.5,2.5s-1.1,2.5-2.5,2.5s-2.5-1.1-2.5-2.5S106.1,8,107.5,8z M122.5,8
	c1.4,0,2.5,1.1,2.5,2.5s-1.1,2.5-2.5,2.5s-2.5-1.1-2.5-2.5S121.1,8,122.5,8z M10.5,0C11.9,0,13,1.1,13,2.5S11.9,5,10.5,5
	S8,3.9,8,2.5S9.1,0,10.5,0z M25.5,0C26.9,0,28,1.1,28,2.5S26.9,5,25.5,5S23,3.9,23,2.5S24.1,0,25.5,0z M40.5,0C41.9,0,43,1.1,43,2.5
	S41.9,5,40.5,5S38,3.9,38,2.5S39.1,0,40.5,0z M55.5,0C56.9,0,58,1.1,58,2.5S56.9,5,55.5,5S53,3.9,53,2.5S54.1,0,55.5,0z M70.5,0
	C71.9,0,73,1.1,73,2.5S71.9,5,70.5,5S68,3.9,68,2.5S69.1,0,70.5,0z M85.5,0C86.9,0,88,1.1,88,2.5S86.9,5,85.5,5S83,3.9,83,2.5
	S84.1,0,85.5,0z M100.5,0c1.4,0,2.5,1.1,2.5,2.5S101.9,5,100.5,5S98,3.9,98,2.5S99.1,0,100.5,0z M115.5,0c1.4,0,2.5,1.1,2.5,2.5
	S116.9,5,115.5,5S113,3.9,113,2.5S114.1,0,115.5,0z M130.5,0c1.4,0,2.5,1.1,2.5,2.5S131.9,5,130.5,5S128,3.9,128,2.5
	S129.1,0,130.5,0z"/>
</svg>
