<?xml version="1.0" encoding="utf-8"?>
<!-- Generator: Adobe Illustrator 24.3.0, SVG Export Plug-In . SVG Version: 6.00 Build 0)  -->
<svg version="1.1" id="Vrstva_1" xmlns="http://www.w3.org/2000/svg" xmlns:xlink="http://www.w3.org/1999/xlink" x="0px" y="0px"
	 viewBox="0 0 213.24 49.23" style="enable-background:new 0 0 213.24 49.23;" xml:space="preserve">
<style type="text/css">
	.st0{fill:#E7004C;}
	.st1{fill:#E40428;}
</style>
<g>
	<path d="M44.02,14.33h8.4c4.91,0,8.1,2.54,8.1,6.84v0.06c0,4.64-3.55,7.06-8.38,7.06h-2.71v5.58h-5.42V14.33z M52.03,24.05
		c1.9,0,3.1-1.03,3.1-2.57v-0.06c0-1.68-1.2-2.54-3.13-2.54h-2.57v5.17H52.03z"/>
	<path d="M62.82,14.33h9.24c2.99,0,5.05,0.78,6.37,2.09c1.14,1.14,1.73,2.62,1.73,4.55v0.06c0,3.02-1.59,5-4.02,6.03l4.66,6.81
		h-6.23l-3.94-5.92h-2.4v5.92h-5.42V14.33z M71.84,23.71c1.81,0,2.9-0.89,2.9-2.32v-0.06c0-1.56-1.14-2.34-2.93-2.34h-3.57v4.72
		H71.84z"/>
	<path d="M82.5,14.33h15.72v4.58H87.86v2.99h5.92v4.27h-5.92v3.1h10.5v4.61H82.5V14.33z"/>
	<path d="M197.38,14.33h15.72v4.58h-10.36v2.99h5.92v4.27h-5.92v3.1h10.5v4.61h-15.86V14.33z"/>
	<path d="M100.09,30.97l3.02-3.6c1.95,1.54,4.08,2.34,6.34,2.34c1.48,0,2.26-0.5,2.26-1.34v-0.06c0-0.84-0.64-1.26-3.32-1.9
		c-4.16-0.95-7.37-2.12-7.37-6.11v-0.06c0-3.63,2.88-6.25,7.57-6.25c3.32,0,5.92,0.89,8.04,2.6l-2.71,3.82
		c-1.79-1.28-3.74-1.93-5.47-1.93c-1.31,0-1.95,0.53-1.95,1.26v0.06c0,0.89,0.67,1.28,3.41,1.9c4.47,0.98,7.26,2.43,7.26,6.09v0.06
		c0,3.99-3.16,6.37-7.9,6.37C105.78,34.21,102.52,33.12,100.09,30.97z"/>
	<path d="M118.02,30.97l3.02-3.6c1.95,1.54,4.08,2.34,6.34,2.34c1.48,0,2.26-0.5,2.26-1.34v-0.06c0-0.84-0.64-1.26-3.32-1.9
		c-4.16-0.95-7.37-2.12-7.37-6.11v-0.06c0-3.63,2.88-6.25,7.57-6.25c3.32,0,5.92,0.89,8.04,2.6l-2.71,3.82
		c-1.79-1.28-3.74-1.93-5.47-1.93c-1.31,0-1.95,0.53-1.95,1.26v0.06c0,0.89,0.67,1.28,3.41,1.9c4.47,0.98,7.26,2.43,7.26,6.09v0.06
		c0,3.99-3.16,6.37-7.9,6.37C123.72,34.21,120.45,33.12,118.02,30.97z"/>
	<path d="M135.7,14.33h5.72l3.41,11.31l3.77-11.36h4.66l3.77,11.36l3.41-11.31h5.61l-6.53,19.68h-4.72l-3.91-11.25l-3.94,11.25
		h-4.72L135.7,14.33z"/>
	<path d="M168.36,14.33h5.42v19.54h-5.42V14.33z"/>
	<path d="M177.35,14.33h9.24c2.99,0,5.05,0.78,6.37,2.09c1.14,1.14,1.73,2.62,1.73,4.55v0.06c0,3.02-1.59,5-4.02,6.03l4.66,6.81
		h-6.23l-3.94-5.92h-2.4v5.92h-5.42V14.33z M186.37,23.71c1.81,0,2.9-0.89,2.9-2.32v-0.06c0-1.56-1.14-2.34-2.93-2.34h-3.57v4.72
		H186.37z"/>
	<circle class="st0" cx="171.07" cy="8.83" r="3.56"/>
	<path class="st0" d="M43.97,33.87H39.3l-8.37-10.72v10.72h-5.36V14.33h5.05l8.04,10.32V14.33l5.37,0C40.29,5.89,31.84,0,22.01,0
		C12.19,0,3.74,5.89,0,14.33h13.5v4.58H3.14v2.99h5.89v4.27H3.14v3.1h10.49v4.6H0.03c3.75,8.41,12.18,14.27,21.99,14.27
		c9.8,0,18.23-5.86,21.99-14.27L43.97,33.87L43.97,33.87z M21.99,33.87h-5.41V14.33h5.41V33.87z"/>
	<polygon class="st1" points="43.97,33.87 43.97,33.87 44,33.87 44,33.87 	"/>
	<g>
		<path d="M48.15,45.94v1.43h-4.09v-6.5h4.04v1.43h-2.56v1.08h2.32v1.41h-2.32v1.15H48.15z"/>
		<path d="M53.91,42.72l-1.72,4.65h-1.58l-1.72-4.65h1.54l0.97,2.95l0.97-2.95H53.91z"/>
		<path d="M57.07,46.25c0.38,0,0.71-0.15,0.89-0.35l1.11,0.64c-0.46,0.63-1.14,0.96-2.03,0.96c-1.59,0-2.57-1.07-2.57-2.45
			s1-2.45,2.47-2.45c1.36,0,2.36,1.05,2.36,2.45c0,0.2-0.02,0.38-0.06,0.56h-3.3C56.13,46.09,56.56,46.25,57.07,46.25z M57.92,44.56
			c-0.15-0.54-0.57-0.73-0.99-0.73c-0.53,0-0.88,0.26-1.01,0.73H57.92z"/>
		<path d="M63.35,42.63v1.58c-0.58-0.09-1.39,0.14-1.39,1.06v2.1h-1.39v-4.65h1.39v0.83C62.15,42.93,62.77,42.63,63.35,42.63z"/>
		<path d="M68.98,42.72l-1.59,4.51c-0.52,1.48-1.35,2.06-2.65,2v-1.3c0.65,0,0.96-0.2,1.16-0.77l-1.85-4.43h1.53l1.03,2.84
			l0.87-2.84H68.98z"/>
		<path d="M69.54,45.05c0-1.38,1.1-2.45,2.46-2.45c1.37,0,2.46,1.07,2.46,2.45S73.37,47.5,72,47.5
			C70.64,47.5,69.54,46.43,69.54,45.05z M73.07,45.05c0-0.66-0.46-1.1-1.07-1.1s-1.07,0.44-1.07,1.1s0.46,1.1,1.07,1.1
			S73.07,45.71,73.07,45.05z"/>
		<path d="M80.19,44.52v2.85h-1.39v-2.65c0-0.58-0.36-0.85-0.81-0.85c-0.51,0-0.86,0.3-0.86,0.96v2.54h-1.39v-4.65h1.39v0.44
			c0.25-0.34,0.72-0.57,1.33-0.57C79.39,42.59,80.19,43.26,80.19,44.52z"/>
		<path d="M83.97,46.25c0.38,0,0.71-0.15,0.89-0.35l1.11,0.64c-0.46,0.63-1.14,0.96-2.03,0.96c-1.59,0-2.57-1.07-2.57-2.45
			s1-2.45,2.47-2.45c1.36,0,2.36,1.05,2.36,2.45c0,0.2-0.02,0.38-0.06,0.56h-3.3C83.03,46.09,83.46,46.25,83.97,46.25z M84.83,44.56
			c-0.15-0.54-0.57-0.73-0.99-0.73c-0.53,0-0.88,0.26-1.01,0.73H84.83z"/>
		<path d="M87.56,40.87h1.12l-0.37,2.74h-1.49L87.56,40.87z"/>
		<path d="M92.94,45.98c0,1.07-0.93,1.52-1.93,1.52c-0.93,0-1.64-0.35-2-1.11l1.21-0.69c0.12,0.35,0.38,0.55,0.79,0.55
			c0.33,0,0.5-0.1,0.5-0.29c0-0.51-2.29-0.24-2.29-1.85c0-1.01,0.85-1.52,1.82-1.52c0.75,0,1.42,0.33,1.81,0.99l-1.19,0.64
			c-0.13-0.24-0.32-0.41-0.62-0.41c-0.24,0-0.39,0.09-0.39,0.26C90.65,44.61,92.94,44.26,92.94,45.98z"/>
		<path d="M98.47,40.87v6.5h-1.49v-6.5H98.47z"/>
		<path d="M104.47,44.52v2.85h-1.39v-2.65c0-0.58-0.36-0.85-0.81-0.85c-0.51,0-0.86,0.3-0.86,0.96v2.54h-1.39v-4.65h1.39v0.44
			c0.25-0.34,0.72-0.57,1.33-0.57C103.67,42.59,104.47,43.26,104.47,44.52z"/>
		<path d="M107.66,44.06v1.65c0,0.4,0.34,0.44,0.96,0.4v1.26c-1.82,0.19-2.35-0.36-2.35-1.66v-1.65h-0.74v-1.34h0.74v-0.88
			l1.39-0.42v1.3h0.96v1.34H107.66z"/>
		<path d="M112.14,46.25c0.38,0,0.71-0.15,0.89-0.35l1.11,0.64c-0.46,0.63-1.14,0.96-2.03,0.96c-1.59,0-2.57-1.07-2.57-2.45
			s1-2.45,2.47-2.45c1.36,0,2.36,1.05,2.36,2.45c0,0.2-0.02,0.38-0.06,0.56h-3.3C111.2,46.09,111.63,46.25,112.14,46.25z M113,44.56
			c-0.15-0.54-0.57-0.73-0.99-0.73c-0.53,0-0.88,0.26-1.01,0.73H113z"/>
		<path d="M118.43,42.63v1.58c-0.58-0.09-1.39,0.14-1.39,1.06v2.1h-1.39v-4.65h1.39v0.83C117.22,42.93,117.84,42.63,118.43,42.63z"
			/>
		<path d="M124.01,44.52v2.85h-1.39v-2.65c0-0.58-0.36-0.85-0.81-0.85c-0.51,0-0.86,0.3-0.86,0.96v2.54h-1.39v-4.65h1.39v0.44
			c0.25-0.34,0.71-0.57,1.33-0.57C123.21,42.59,124.01,43.26,124.01,44.52z"/>
		<path d="M127.79,46.25c0.38,0,0.71-0.15,0.89-0.35l1.12,0.64c-0.46,0.63-1.14,0.96-2.03,0.96c-1.59,0-2.57-1.07-2.57-2.45
			s1-2.45,2.47-2.45c1.36,0,2.36,1.05,2.36,2.45c0,0.2-0.02,0.38-0.06,0.56h-3.3C126.86,46.09,127.28,46.25,127.79,46.25z
			 M128.65,44.56c-0.15-0.54-0.57-0.73-0.99-0.73c-0.53,0-0.88,0.26-1.01,0.73H128.65z"/>
		<path d="M132.92,44.06v1.65c0,0.4,0.34,0.44,0.96,0.4v1.26c-1.82,0.19-2.35-0.36-2.35-1.66v-1.65h-0.74v-1.34h0.74v-0.88
			l1.39-0.42v1.3h0.96v1.34H132.92z"/>
		<path d="M143.17,40.87v6.5h-1.12l-2.51-3.53v3.53h-1.49v-6.5h1.12l2.51,3.53v-3.53H143.17z"/>
		<path d="M147.07,46.25c0.38,0,0.71-0.15,0.89-0.35l1.12,0.64c-0.46,0.63-1.14,0.96-2.03,0.96c-1.59,0-2.57-1.07-2.57-2.45
			s1-2.45,2.47-2.45c1.36,0,2.36,1.05,2.36,2.45c0,0.2-0.02,0.38-0.06,0.56h-3.3C146.13,46.09,146.56,46.25,147.07,46.25z
			 M147.93,44.56c-0.15-0.54-0.57-0.73-0.99-0.73c-0.53,0-0.88,0.26-1.01,0.73H147.93z"/>
		<path d="M156.98,42.72l-1.49,4.65h-1.3l-0.74-2.48l-0.74,2.48h-1.3l-1.49-4.65h1.49l0.67,2.49l0.72-2.49h1.3l0.72,2.49l0.67-2.49
			H156.98z"/>
		<path d="M161.34,45.98c0,1.07-0.93,1.52-1.93,1.52c-0.93,0-1.64-0.35-2-1.11l1.21-0.69c0.12,0.35,0.38,0.55,0.79,0.55
			c0.33,0,0.5-0.1,0.5-0.29c0-0.51-2.29-0.24-2.29-1.85c0-1.01,0.86-1.52,1.82-1.52c0.75,0,1.42,0.33,1.81,0.99l-1.19,0.64
			c-0.13-0.24-0.32-0.41-0.62-0.41c-0.24,0-0.39,0.09-0.39,0.26C159.05,44.61,161.34,44.26,161.34,45.98z"/>
		<path d="M170.13,43.1c0,1.24-0.99,2.23-2.28,2.23h-0.98v2.04h-1.49v-6.5h2.46C169.13,40.87,170.13,41.86,170.13,43.1z
			 M168.64,43.1c0-0.47-0.33-0.84-0.79-0.84h-0.98v1.67h0.98C168.31,43.93,168.64,43.57,168.64,43.1z"/>
		<path d="M173.99,42.63v1.58c-0.58-0.09-1.39,0.14-1.39,1.06v2.1h-1.39v-4.65h1.39v0.83C172.78,42.93,173.4,42.63,173.99,42.63z"/>
		<path d="M177.33,46.25c0.38,0,0.71-0.15,0.89-0.35l1.12,0.64c-0.46,0.63-1.14,0.96-2.03,0.96c-1.59,0-2.57-1.07-2.57-2.45
			s1-2.45,2.47-2.45c1.36,0,2.36,1.05,2.36,2.45c0,0.2-0.02,0.38-0.06,0.56h-3.3C176.39,46.09,176.82,46.25,177.33,46.25z
			 M178.18,44.56c-0.15-0.54-0.57-0.73-0.99-0.73c-0.53,0-0.88,0.26-1.01,0.73H178.18z"/>
		<path d="M184.24,45.98c0,1.07-0.93,1.52-1.93,1.52c-0.93,0-1.64-0.35-2-1.11l1.21-0.69c0.12,0.35,0.38,0.55,0.79,0.55
			c0.33,0,0.5-0.1,0.5-0.29c0-0.51-2.29-0.24-2.29-1.85c0-1.01,0.86-1.52,1.82-1.52c0.75,0,1.42,0.33,1.81,0.99l-1.19,0.64
			c-0.13-0.24-0.32-0.41-0.62-0.41c-0.24,0-0.39,0.09-0.39,0.26C181.96,44.61,184.24,44.26,184.24,45.98z"/>
		<path d="M188.78,45.98c0,1.07-0.93,1.52-1.93,1.52c-0.93,0-1.64-0.35-2-1.11l1.21-0.69c0.12,0.35,0.38,0.55,0.79,0.55
			c0.33,0,0.5-0.1,0.5-0.29c0-0.51-2.29-0.24-2.29-1.85c0-1.01,0.86-1.52,1.82-1.52c0.75,0,1.42,0.33,1.81,0.99l-1.19,0.64
			c-0.13-0.24-0.32-0.41-0.62-0.41c-0.24,0-0.39,0.09-0.39,0.26C186.5,44.61,188.78,44.26,188.78,45.98z"/>
		<path d="M196.41,42.72l-1.49,4.65h-1.3l-0.74-2.48l-0.74,2.48h-1.3l-1.49-4.65h1.49l0.67,2.49l0.72-2.49h1.3l0.72,2.49l0.67-2.49
			H196.41z"/>
		<path d="M197.3,41.48c0-0.46,0.38-0.84,0.84-0.84s0.84,0.38,0.84,0.84s-0.38,0.84-0.84,0.84S197.3,41.93,197.3,41.48z
			 M197.44,42.72h1.39v4.65h-1.39V42.72z"/>
		<path d="M203.11,42.63v1.58c-0.58-0.09-1.39,0.14-1.39,1.06v2.1h-1.39v-4.65h1.39v0.83C201.9,42.93,202.52,42.63,203.11,42.63z"/>
		<path d="M206.45,46.25c0.38,0,0.71-0.15,0.89-0.35l1.12,0.64c-0.46,0.63-1.14,0.96-2.03,0.96c-1.59,0-2.57-1.07-2.57-2.45
			s1-2.45,2.47-2.45c1.36,0,2.36,1.05,2.36,2.45c0,0.2-0.02,0.38-0.06,0.56h-3.3C205.51,46.09,205.94,46.25,206.45,46.25z
			 M207.3,44.56c-0.15-0.54-0.57-0.73-0.99-0.73c-0.53,0-0.88,0.26-1.01,0.73H207.3z"/>
		<path d="M210.99,41.44h-0.51v1.28h-0.62v-1.28h-0.51v-0.58h1.65V41.44z M213.21,40.87v1.86h-0.59v-0.93l-0.4,0.59h-0.06l-0.4-0.59
			v0.93h-0.59v-1.86h0.59l0.43,0.64l0.43-0.64H213.21z"/>
	</g>
</g>
</svg>
