<svg width="48" height="48" viewBox="0 0 48 48" fill="none" xmlns="http://www.w3.org/2000/svg">
<path d="M47 43.1824V47H1V43.1824H47Z" fill="white" stroke="white" stroke-width="0.5"/>
<path opacity="0.5" d="M10.5833 22.1851V39.3646H6.75V22.1851H10.5833Z" fill="black" stroke="black" stroke-width="0.5"/>
<path opacity="0.5" d="M41.2513 22.1851V39.3646H37.418V22.1851H41.2513Z" fill="black" stroke="black" stroke-width="0.5"/>
<path fill-rule="evenodd" clip-rule="evenodd" d="M47 11.4118L24 1L1 11.4118V18.3675H47V11.4118ZM4.83333 13.8683L24 5.19268L43.1667 13.8702V14.5498H4.83333V13.8683Z" fill="white"/>
<path d="M24 1L24.1031 0.772249L24 0.725577L23.8969 0.772249L24 1ZM47 11.4118H47.25V11.2506L47.1031 11.1841L47 11.4118ZM1 11.4118L0.8969 11.1841L0.75 11.2506V11.4118H1ZM1 18.3675H0.75V18.6175H1V18.3675ZM47 18.3675V18.6175H47.25V18.3675H47ZM24 5.19268L24.1031 4.96493L24 4.91826L23.8969 4.96492L24 5.19268ZM4.83333 13.8683L4.73024 13.6406L4.58333 13.7071V13.8683H4.83333ZM43.1667 13.8702H43.4167V13.709L43.2698 13.6425L43.1667 13.8702ZM43.1667 14.5498V14.7998H43.4167V14.5498H43.1667ZM4.83333 14.5498H4.58333V14.7998H4.83333V14.5498ZM23.8969 1.22775L46.8969 11.6396L47.1031 11.1841L24.1031 0.772249L23.8969 1.22775ZM1.1031 11.6396L24.1031 1.22775L23.8969 0.772249L0.8969 11.1841L1.1031 11.6396ZM1.25 18.3675V11.4118H0.75V18.3675H1.25ZM47 18.1175H1V18.6175H47V18.1175ZM46.75 11.4118V18.3675H47.25V11.4118H46.75ZM23.8969 4.96492L4.73024 13.6406L4.93642 14.0961L24.1031 5.42043L23.8969 4.96492ZM43.2698 13.6425L24.1031 4.96493L23.8969 5.42042L43.0636 14.098L43.2698 13.6425ZM43.4167 14.5498V13.8702H42.9167V14.5498H43.4167ZM4.83333 14.7998H43.1667V14.2998H4.83333V14.7998ZM4.58333 13.8683V14.5498H5.08333V13.8683H4.58333Z" fill="white"/>
</svg>
