<svg width="135" height="76" viewBox="0 0 135 76" fill="none" xmlns="http://www.w3.org/2000/svg">
<path fill-rule="evenodd" clip-rule="evenodd" d="M133.806 72.8988H127.334V40.4926H127.581C128.165 40.4926 128.639 40.0203 128.639 39.4376C128.639 38.8781 128.194 38.4192 127.634 38.4002C127.732 37.8182 127.732 37.2238 127.634 36.6419C127.461 35.4728 126.826 34.4213 125.87 33.723L122.273 30.9624V29.6085C122.273 29.0258 121.799 28.5535 121.215 28.5535C120.63 28.5535 120.157 29.0258 120.157 29.6085V30.98L116.735 33.6703C115.772 34.3616 115.135 35.4166 114.972 36.5891C114.862 37.1701 114.862 37.7665 114.972 38.3474H114.725C114.141 38.3474 113.667 38.8198 113.667 39.4024C113.667 39.9851 114.141 40.4574 114.725 40.4574H115.289V45.9083H100.141V40.4574H100.406C100.99 40.4574 101.464 39.9851 101.464 39.4024C101.455 38.8401 101.005 38.3837 100.441 38.365C100.54 37.783 100.54 37.1887 100.441 36.6067C100.263 35.4396 99.6293 34.3902 98.6777 33.6878L95.0803 30.9624V29.6085C95.0803 29.0258 94.6066 28.5535 94.0222 28.5535C93.4379 28.5535 92.9642 29.0258 92.9642 29.6085V30.98L89.5431 33.6703C88.5795 34.3616 87.9422 35.4166 87.7796 36.5891C87.6694 37.1701 87.6694 37.7665 87.7796 38.3474H87.5151C86.9308 38.3474 86.4571 38.8198 86.4571 39.4024C86.4571 39.9851 86.9308 40.4574 87.5151 40.4574H88.0794V42.0927H87.7091L83.0889 38.8925V38.7694V36.1847C83.1114 34.4426 81.8511 32.9466 80.1263 32.668C80.1527 32.5523 80.1527 32.4321 80.1263 32.3163V27.1996C80.3965 27.1856 80.6501 27.0655 80.8317 26.8655C82.5368 24.9446 83.299 22.3683 82.9125 19.8322C82.7416 18.7207 82.3585 17.6523 81.7839 16.6847V16.5265V13.0098C81.7887 12.7286 81.6788 12.4574 81.4793 12.2585C81.2799 12.0596 81.0079 11.95 80.7259 11.9548C80.1415 11.9548 79.6678 12.4271 79.6678 13.0098V14.3637C79.4078 14.1563 79.137 13.9626 78.8566 13.7835L71.0269 8.70188V4.30604C71.0172 2.47753 69.5278 1.00034 67.694 1.00037H67.3413C66.4543 0.990995 65.6002 1.33457 64.968 1.95501C64.3358 2.57546 63.9777 3.42158 63.9731 4.30604V8.70188L55.8612 13.6956L55.8612 13.6956L55.8612 13.6956L55.8612 13.6956L55.8612 13.6956L55.8611 13.6957L55.8611 13.6957L55.8611 13.6957L55.8611 13.6957L55.861 13.6957L55.861 13.6958L55.861 13.6958L55.861 13.6958L55.861 13.6958L55.8609 13.6958L55.8609 13.6959L55.8609 13.6959L55.8609 13.6959L55.8608 13.6959L55.8608 13.6959L55.8608 13.696L55.8608 13.696L55.8607 13.696L55.8607 13.696L55.8607 13.696L55.8607 13.6961L55.8607 13.6961L55.8606 13.6961L55.8606 13.6961L55.8606 13.6961L55.8606 13.6962L55.8605 13.6962L55.8605 13.6962L55.8605 13.6962L55.8605 13.6962L55.8604 13.6963L55.8604 13.6963L55.8604 13.6963L55.8604 13.6963L55.8604 13.6963L55.8603 13.6964C55.5785 13.8895 55.2966 14.0827 55.0324 14.2934V12.9219C55.0324 12.3392 54.5587 11.8669 53.9744 11.8669C53.39 11.8669 52.9163 12.3392 52.9163 12.9219V16.4386C52.908 16.491 52.908 16.5444 52.9163 16.5968C52.336 17.5616 51.9524 18.6312 51.7877 19.7442C51.4012 22.2804 52.1634 24.8567 53.8686 26.7776C54.0501 26.9776 54.3037 27.0977 54.5739 27.1117V32.2636C54.5475 32.3793 54.5475 32.4995 54.5739 32.6153C52.8561 32.9016 51.6051 34.3955 51.629 36.1319V38.7519V38.8749L47.0087 42.0751H46.6384V40.4399H46.9029C47.4873 40.4399 47.961 39.9675 47.961 39.3849C47.9519 38.8225 47.502 38.3661 46.9382 38.3474C47.046 37.7663 47.046 37.1703 46.9382 36.5891C46.7604 35.422 46.1263 34.3726 45.1748 33.6703L41.7184 30.9624V29.6085C41.7184 29.0258 41.2447 28.5535 40.6603 28.5535C40.076 28.5535 39.6023 29.0258 39.6023 29.6085V30.98L36.1812 33.6703C35.2237 34.3672 34.5881 35.4193 34.4177 36.5891C34.3075 37.1701 34.3075 37.7665 34.4177 38.3474H34.1532C33.5689 38.3474 33.0951 38.8198 33.0951 39.4024C33.0951 39.9851 33.5689 40.4574 34.1532 40.4574H34.7175V45.9083H19.5871V40.4574H19.9927C20.5771 40.4574 21.0508 39.9851 21.0508 39.4024C21.0508 38.8198 20.5771 38.3474 19.9927 38.3474H19.8869C19.9971 37.7665 19.9971 37.1701 19.8869 36.5891C19.7166 35.4193 19.081 34.3672 18.1235 33.6703L14.5966 30.9624V29.6085C14.5966 29.0258 14.1229 28.5535 13.5385 28.5535C12.9542 28.5535 12.4804 29.0258 12.4804 29.6085V30.98L9.04172 33.6703C8.09013 34.3726 7.45612 35.422 7.27827 36.5891C7.17652 37.1708 7.17652 37.7657 7.27827 38.3474H7.17247C6.58811 38.3474 6.1144 38.8198 6.1144 39.4024C6.1144 39.9851 6.58811 40.4574 7.17247 40.4574H7.57806V72.8988H1.19438C0.78704 72.846 0.385883 73.0331 0.165379 73.3786C-0.0551262 73.7242 -0.0551262 74.1658 0.165379 74.5113C0.385883 74.8569 0.78704 75.044 1.19438 74.9912H133.806C134.213 75.044 134.614 74.8569 134.835 74.5113C135.055 74.1658 135.055 73.7242 134.835 73.3786C134.614 73.0331 134.213 72.846 133.806 72.8988ZM28.2457 68.9425V66.305C28.2457 65.7223 27.7719 65.25 27.1876 65.25C26.6032 65.25 26.1295 65.7223 26.1295 66.305V68.9425H19.5871V61.9092H34.8586V68.9425H28.2457ZM14.6848 66.305V68.9425H17.471V61.9092H9.78237V68.9425H12.5686V66.305C12.5686 65.7223 13.0423 65.25 13.6267 65.25C14.211 65.25 14.6848 65.7223 14.6848 66.305ZM47.4849 44.3258H64.22C64.1931 44.5653 64.1931 44.8071 64.22 45.0467V46.0314H45.1924V44.3258H47.4849ZM89.8076 44.3785V44.3258L89.8252 44.3785H89.8076ZM89.8076 44.3785V46.0841H70.8858V45.0995C70.8779 44.8559 70.8424 44.6141 70.78 44.3785H89.8076ZM121.356 65.4258C120.771 65.4258 120.298 65.8982 120.298 66.4808V68.9425H117.529V61.9092H125.218V68.9425H122.431V66.305C122.431 65.7223 121.958 65.25 121.373 65.25L121.356 65.4258ZM108.87 66.305V68.9425H115.413V61.9092H100.141V68.9425H106.754V66.305C106.754 65.7223 107.228 65.25 107.812 65.25C108.397 65.25 108.87 65.7223 108.87 66.305ZM93.9517 68.9425H90.4248V61.9092H98.1134V68.9425H93.9517ZM57.8892 51.0251V48.0535H50.6767V51.0251H57.8892ZM61.7864 48.0535V52.0625V57.3375V65.0742H60.023V48.0535H61.7864ZM71.1151 51.0251V48.0535H65.1899H63.9731V51.0251H71.1151ZM75.0123 48.0535V65.0742H73.2488V48.0535H75.0123ZM84.3409 51.0251V48.0535H77.1284V51.0251H84.3409ZM88.2205 48.0535V65.0742H86.4571V48.0535H88.2205ZM88.2205 67.1842H46.7795V68.9425H88.2205V67.1842ZM57.8892 56.3001H50.6767V53.1175H57.8892V56.3001ZM57.8892 58.3925H50.6767V65.0742H57.8892V58.3925ZM71.1151 56.2825H63.9731V53.1175H71.1856L71.1151 56.2825ZM71.1856 58.3925H63.9731V65.0742H71.1856V58.3925ZM84.4115 56.2825H77.1284V53.1175H84.3409L84.4115 56.2825ZM84.3409 58.3925H77.1284V65.0742H84.3409V58.3925ZM48.5606 65.0742H46.7971V48.0535H48.5606V65.0742ZM125.218 40.5454H117.529V51.0954H125.218V40.5454ZM125.218 53.1175V59.9222H117.529V53.1175H125.218ZM100.141 59.9222H115.413V53.1175H100.141V59.9222ZM98.0253 59.9222H90.4248V53.1175H98.1134L98.0253 59.9222ZM68.7697 45.9435V44.9588C68.5878 44.1075 68.1366 43.3371 67.4824 42.7609C66.8447 43.3422 66.4119 44.1129 66.248 44.9588V45.9435H68.7697ZM44.6634 59.9398H36.9747V53.1175H44.6634V59.9398ZM19.5871 59.9398H34.8586V53.1175H19.5871V59.9398ZM9.78237 53.1175H17.471V59.9222H9.78237V53.1175ZM17.471 40.5278H9.78237V51.0778H17.471V40.5278ZM36.9747 62.0498H44.6634V69.0832H36.9747V62.0498ZM125.147 71.0877H95.1685V72.846H125.147V71.0877ZM117.123 36.9056C117.201 36.2941 117.518 35.738 118.005 35.3583L121.25 32.8263L124.777 35.3759C125.256 35.752 125.567 36.3019 125.641 36.9056C125.712 37.4064 125.645 37.9171 125.447 38.3826H117.317C117.119 37.9171 117.052 37.4064 117.123 36.9056ZM115.36 51.0251V48.0535H100.141V51.0251H115.36ZM89.9311 36.9056C90.0152 36.292 90.3383 35.7362 90.8304 35.3583L94.0575 32.8263L97.5844 35.3759C98.0586 35.7539 98.363 36.304 98.4309 36.9056C98.5078 37.4048 98.4469 37.9154 98.2545 38.3826H90.1427C89.9384 37.9187 89.8652 37.408 89.9311 36.9056ZM98.1134 40.5454H90.4248V42.1279H90.9715C91.5558 42.1279 92.0295 42.6002 92.0295 43.1829V46.9985C92.0295 47.5811 91.5558 48.0535 90.9715 48.0535H90.4248V51.0954H98.1134V40.5454ZM72.7198 30.2239C72.7198 29.6585 73.166 29.1969 73.7264 29.1701C73.9967 29.1839 74.252 29.3004 74.4391 29.4965C74.6348 29.7015 74.7396 29.9763 74.7301 30.2591V32.6504H78.257C78.2485 32.551 78.2485 32.451 78.257 32.3515V27.2172H56.7253V32.3867C56.7338 32.4861 56.7338 32.5861 56.7253 32.6856H60.2522V30.2591C60.2522 29.6764 60.7259 29.2041 61.3103 29.2041C61.8947 29.2041 62.3684 29.6764 62.3684 30.2591V32.6856H66.4419V30.2591C66.4419 29.6764 66.9156 29.2041 67.5 29.2041C68.0844 29.2041 68.5581 29.6764 68.5581 30.2591V32.6504H72.7198V30.2239ZM78.0807 15.4891L69.8278 10.4602L65.1017 10.5306L56.937 15.5594C55.2814 16.5837 54.1598 18.2805 53.8686 20.2014C53.5988 21.9658 54.0639 23.7634 55.1559 25.1775H64.1142V22.9796C64.1237 22.4601 64.2314 21.9471 64.4316 21.4674C64.9819 20.2362 65.9585 19.2437 67.1826 18.6717C67.4769 18.5542 67.8052 18.5542 68.0996 18.6717C69.3 19.268 70.2407 20.2809 70.7447 21.5202C70.923 21.9621 71.0186 22.4329 71.0269 22.9092V25.1072H79.8441C80.9423 23.6957 81.4138 21.8979 81.1491 20.1311C80.8579 18.2102 79.7363 16.5133 78.0807 15.4891ZM66.3009 22.9092C66.2975 22.6692 66.3393 22.4306 66.4243 22.2059C66.6577 21.6578 67.0509 21.1922 67.5529 20.8696C68.0455 21.2027 68.4361 21.6652 68.6815 22.2059C68.7596 22.4324 68.8013 22.6698 68.805 22.9092V25.1072H66.248L66.3009 22.9092ZM68.5825 3.45529C68.3565 3.23001 68.0487 3.10558 67.7292 3.11037H67.3237C67.0042 3.10558 66.6964 3.23001 66.4704 3.45529C66.2445 3.68057 66.1197 3.98748 66.1245 4.30604V8.35021H68.9284V4.30604C68.9332 3.98748 68.8084 3.68057 68.5825 3.45529ZM53.8686 36.1847C53.8686 35.3981 54.5081 34.7604 55.2969 34.7604H79.7031C80.4948 34.7604 81.1394 35.3953 81.1491 36.1847V37.7496H53.8686V36.1847ZM80.8669 39.8596H54.1331L50.8707 42.1279H65.2604C65.7217 41.5325 66.2415 40.9847 66.8123 40.4926C67.202 40.1745 67.7627 40.1745 68.1525 40.4926C68.726 40.9873 69.2515 41.5348 69.7219 42.1279H84.1293L80.8669 39.8596ZM44.1343 42.1279C43.55 42.1279 43.0763 42.6002 43.0763 43.1829V46.9985C43.0763 47.5811 43.55 48.0535 44.1343 48.0535H44.6634V51.0251H36.9747V40.475H44.6634V42.0575L44.1343 42.1279ZM37.4685 35.3055C36.9755 35.68 36.657 36.2388 36.5868 36.8529V36.9056C36.517 37.3891 36.5842 37.8824 36.7807 38.3299H44.8926C45.0933 37.8648 45.1545 37.3518 45.0689 36.8529C45.0011 36.2513 44.6967 35.7011 44.2225 35.3231L40.6956 32.7735L37.4685 35.3055ZM34.8233 48.0007V50.9723H19.5871V48.0535L34.8233 48.0007ZM10.2761 35.3583C9.7831 35.7327 9.46465 36.2916 9.39441 36.9056C9.31438 37.4063 9.38176 37.9194 9.58839 38.3826H17.7002C17.9009 37.9176 17.9622 37.4046 17.8766 36.9056C17.8087 36.304 17.5043 35.7539 17.0301 35.3759L13.5032 32.8263L10.2761 35.3583ZM9.8 71.0877H39.6023V72.846H9.8V71.0877ZM41.7184 71.1932V72.846H93.1229V71.1932H41.7184ZM12.9994 56.0002C12.4421 56.0179 11.9997 56.4677 12 57.0165C12 57.5597 12.4474 58 12.9994 58C13.5513 58 13.9987 57.5597 13.9987 57.0165C14.0126 56.7487 13.9129 56.4872 13.7235 56.2946C13.534 56.1019 13.2718 55.9953 12.9994 56.0002ZM28 56.9917C28 57.5486 27.5523 58 27 58C26.4667 58.0007 26.0267 57.5792 26 57.0421C25.9997 56.4795 26.4424 56.0183 27 56.0001C27.2637 55.9956 27.5181 56.0981 27.7061 56.2845C27.8942 56.471 28 56.7258 28 56.9917ZM40 58C40.5523 58 41 57.5486 41 56.9917C41 56.7258 40.8942 56.471 40.7061 56.2845C40.5181 56.0981 40.2637 55.9956 40 56.0001C39.4424 56.0183 38.9997 56.4795 39 57.0421C39.0267 57.5792 39.4667 58.0007 40 58ZM122 56.9917C122 57.5486 121.552 58 121 58C120.467 58.0007 120.027 57.5792 120 57.0421C119.996 56.7702 120.099 56.5077 120.286 56.3122C120.474 56.1168 120.73 56.0046 121 56.0001C121.264 55.9956 121.518 56.0981 121.706 56.2845C121.894 56.471 122 56.7258 122 56.9917ZM107 58C107.552 58 108 57.5486 108 56.9917C108 56.7258 107.894 56.471 107.706 56.2845C107.518 56.0981 107.264 55.9956 107 56.0001C106.442 56.0183 106 56.4795 106 57.0421C106.027 57.5792 106.467 58.0007 107 58ZM95 56.9917C95 57.5486 94.5523 58 94 58C93.4667 58.0007 93.0267 57.5792 93 57.0421C92.9997 56.4795 93.4424 56.0183 94 56.0001C94.2637 55.9956 94.5181 56.0981 94.7061 56.2845C94.8941 56.471 95 56.7258 95 56.9917ZM40.9987 65.9673C40.9988 65.7079 40.893 65.4594 40.7051 65.2775C40.5171 65.0957 40.2629 64.9957 39.9994 65.0001C39.4421 65.0178 38.9997 65.4677 39 66.0165C39 66.5597 39.4474 67 39.9994 67C40.2733 67.0003 40.5354 66.89 40.7243 66.6948C40.9132 66.4995 41.0124 66.2365 40.9987 65.9673ZM93 66.0165C92.9997 65.4677 93.4421 65.0179 93.9994 65.0002C94.2718 64.9953 94.534 65.1019 94.7235 65.2946C94.9129 65.4873 95.0126 65.7487 94.9987 66.0165C94.9987 66.5597 94.5513 67 93.9994 67C93.4474 67 93 66.5597 93 66.0165ZM13 44.0002C12.7363 43.9951 12.4819 44.111 12.2939 44.3219C12.1058 44.5328 12 44.821 12 45.1218V47.8594C12 48.4893 12.4477 49 13 49C13.5523 49 14 48.4893 14 47.8594V45.1218C14 44.821 13.8942 44.5328 13.7061 44.3219C13.5181 44.111 13.2637 43.9951 13 44.0002ZM39.2939 44.3219C39.4819 44.111 39.7363 43.9951 40 44.0002C40.2637 43.9951 40.5181 44.111 40.7061 44.3219C40.8942 44.5328 41 44.821 41 45.1218V47.8594C41 48.4893 40.5523 49 40 49C39.4477 49 39 48.4893 39 47.8594V45.1218C39 44.821 39.1058 44.5328 39.2939 44.3219ZM94 49C94.5523 49 95 48.4912 95 47.8636V45.1364C95 44.5088 94.5523 44 94 44C93.4477 44 93 44.5088 93 45.1364V47.8636C93 48.165 93.1054 48.4541 93.2929 48.6672C93.4804 48.8803 93.7348 49 94 49ZM120.294 44.3219C120.482 44.111 120.736 43.9951 121 44.0002C121.264 43.9951 121.518 44.111 121.706 44.3219C121.894 44.5328 122 44.821 122 45.1218V47.8594C122 48.4893 121.552 49 121 49C120.448 49 120 48.4893 120 47.8594V45.1218C120 44.821 120.106 44.5328 120.294 44.3219Z" fill="white"/>
</svg>
