<svg width="72" height="72" viewBox="0 0 72 72" fill="none" xmlns="http://www.w3.org/2000/svg">
<rect width="72" height="72" fill="#1063FE"/>
<rect opacity="0.220447" x="44" y="20" width="28" height="52" fill="#0531AD"/>
<path d="M57.9525 26.5108C58.1523 28.9132 57.7528 31.8495 56.155 31.983C53.5585 32.2499 54.8901 29.3136 54.9566 27.5785C55.0232 22.5067 50.7624 19.0366 46.5681 19.0366C45.3697 19.0366 42.6401 19.8374 43.0396 17.3015C43.2393 16.167 44.1713 16.2337 45.1034 16.1003C52.0939 15.2327 57.4199 20.1043 57.9525 26.5108V26.5108Z" fill="white"/>
<path fill-rule="evenodd" clip-rule="evenodd" d="M47.3235 33.0905C46.8388 32.8569 46.3501 32.6214 45.8759 32.3651C46.5402 30.6481 46.9388 28.4028 45.8759 27.214C44.1017 25.2119 40.7354 26.1346 38.0255 26.8773C36.9812 27.1636 36.0343 27.4231 35.3137 27.4782C36.5758 23.78 35.2472 20.0818 30.7301 21.2044C26.545 22.195 23.4893 24.4404 20.6328 27.3461C17.5771 30.3179 14.5213 33.884 14.0563 38.4408C13.5249 43.7239 16.8464 46.3655 20.1014 48.2146C29.7336 53.6298 45.2116 50.6581 50.3267 43.5258C51.0574 42.4692 51.7881 40.9503 51.921 39.7615C52.4821 35.5773 49.9617 34.3623 47.3235 33.0905ZM44.5473 39.2993C44.5473 41.2144 43.6173 42.8654 42.6209 43.9881C39.9637 46.9598 34.3172 48.941 28.7372 48.5448C23.8878 48.2146 17.3114 45.3749 18.5071 39.3653C19.1049 36.6577 21.2971 34.8746 23.1571 33.884C25.4821 32.4972 27.6743 31.8368 30.9293 31.5726C36.908 31.1104 44.5473 33.2897 44.5473 39.2993Z" fill="white"/>
<path d="M51.9297 26.4964C52.2055 28.3425 51.6539 29.925 50.5506 29.9909C48.6889 30.1228 49.3784 28.8041 49.3095 27.2217C49.2405 26.2326 48.4131 25.1118 47.6546 24.7821C46.2065 24.1228 44 25.2436 44 23.3315C44 21.881 45.3101 22.0788 45.9997 22.0129C49.1716 21.8151 51.5849 23.925 51.9297 26.4964Z" fill="white"/>
<path opacity="0.7" fill-rule="evenodd" clip-rule="evenodd" d="M37.6726 38.7954C40.2509 46.5709 26.8304 50.1951 24.3842 43.4739C22.7315 38.9931 26.6981 35.5007 30.797 35.0394C34.3009 34.7099 36.8792 36.4891 37.6726 38.7954ZM31.5242 40.1133C32.0531 41.0358 33.3092 40.3768 33.2431 39.652C33.0448 38.7954 31.5242 38.9272 31.5242 40.1133ZM29.3426 44.1987C31.5904 43.6715 31.9209 39.4543 28.4831 40.245C25.6404 40.904 26.1692 44.9894 29.3426 44.1987Z" fill="white"/>
</svg>
