<svg width="32" height="32" viewBox="0 0 32 32" fill="none" xmlns="http://www.w3.org/2000/svg">
<rect width="32" height="32" fill="#1063FE"/>
<mask id="mask0" mask-type="alpha" maskUnits="userSpaceOnUse" x="0" y="0" width="32" height="32">
<rect width="32" height="32" fill="white"/>
</mask>
<g mask="url(#mask0)">
<path opacity="0.335635" fill-rule="evenodd" clip-rule="evenodd" d="M7.31189 7.44058L23.0689 21.8596L-77.1838 135.017L-92.9408 120.598L7.31189 7.44058Z" fill="#3D30A7"/>
<path opacity="0.4518" fill-rule="evenodd" clip-rule="evenodd" d="M94.423 -58.7816L110.18 -44.3627L9.9273 68.7944L-5.82972 54.3755L94.423 -58.7816Z" fill="#001241"/>
<path fill-rule="evenodd" clip-rule="evenodd" d="M-24.0646 70.2234L-14.7455 78.5868L30.2869 32.4432L20.9677 24.0799L-24.0646 70.2234Z" fill="#10A5FE"/>
<path fill-rule="evenodd" clip-rule="evenodd" d="M33.7367 -69.672L58.609 -46.918L-68.5668 100.831L-93.4391 78.0773L33.7367 -69.672Z" fill="#107FFE"/>
<path opacity="0.621512" fill-rule="evenodd" clip-rule="evenodd" d="M23.7563 -47.2261L39.5133 -32.8071L-60.7394 80.35L-76.4964 65.931L23.7563 -47.2261Z" fill="#5E4BEF"/>
</g>
</svg>
