<svg width="32" height="32" viewBox="0 0 32 32" fill="none" xmlns="http://www.w3.org/2000/svg">
<circle cx="16" cy="16" r="16" fill="#FA6F6F"/>
<mask id="mask0" mask-type="alpha" maskUnits="userSpaceOnUse" x="0" y="0" width="32" height="32">
<circle cx="16" cy="16" r="16" fill="white"/>
</mask>
<g mask="url(#mask0)">
<g style="mix-blend-mode:hard-light">
<path fill-rule="evenodd" clip-rule="evenodd" d="M15.3676 -2.66663L21.3333 0.762851L8.63241 22.6667L2.66667 19.2372L15.3676 -2.66663Z" fill="#F25656"/>
</g>
<g style="mix-blend-mode:hard-light">
<path fill-rule="evenodd" clip-rule="evenodd" d="M36 19.3676L32.5705 25.3333L2 7.96574L5.42948 2L36 19.3676Z" fill="#E85050"/>
</g>
<g style="mix-blend-mode:hard-light">
<path fill-rule="evenodd" clip-rule="evenodd" d="M30.7009 -4.66671L36.6667 -1.23723L23.9657 20.6666L18 17.2371L30.7009 -4.66671Z" fill="#FA6F6F"/>
</g>
<g style="mix-blend-mode:hard-light">
<path fill-rule="evenodd" clip-rule="evenodd" d="M0.0896218 36.4732L-2.38839 30.0537L21.2666 21.0241L23.7446 27.4437L0.0896218 36.4732Z" fill="white"/>
</g>
<g style="mix-blend-mode:hard-light">
<path fill-rule="evenodd" clip-rule="evenodd" d="M-3.00688 23.3053L-7.15837 17.8174L13.0914 2.61749L17.2429 8.10534L-3.00688 23.3053Z" fill="white"/>
</g>
</g>
</svg>
