<svg width="72" height="72" viewBox="0 0 72 72" fill="none" xmlns="http://www.w3.org/2000/svg">
<rect width="72" height="72" fill="#1063FE"/>
<rect opacity="0.220447" x="44" y="20" width="28" height="52" fill="#0531AD"/>
<path fill-rule="evenodd" clip-rule="evenodd" d="M54 36C54 45.9411 46.165 54 36.5 54C26.835 54 19 45.9411 19 36C19 26.0589 26.835 18 36.5 18C46.165 18 54 26.0589 54 36ZM48.3434 35.9912C48.3396 34.9478 47.7271 34.0071 46.7858 33.5989C45.8445 33.1907 44.7554 33.3935 44.0162 34.1147C42.2603 32.8352 39.8562 32.0036 37.1805 31.8969L38.3511 26.31L42.1557 27.1417C42.1889 28.087 42.9074 28.8591 43.8312 28.9419C44.7549 29.0247 45.5945 28.3924 45.7888 27.4674C45.9831 26.5425 45.4713 25.6148 44.5953 25.3042C43.7194 24.9936 42.7538 25.3975 42.3439 26.2461L38.1003 25.3291C37.9849 25.3044 37.8646 25.3274 37.7658 25.3931C37.6623 25.4587 37.5932 25.5683 37.5777 25.6916L36.2816 31.9183C33.564 32.0036 31.1182 32.8352 29.3413 34.136C28.6104 33.4115 27.5271 33.1999 26.5855 33.5979C25.644 33.9958 25.0248 34.9269 25.0104 35.9664C24.9959 37.0059 25.5891 37.9545 26.5192 38.3795C26.4768 38.6402 26.4558 38.9042 26.4565 39.1685C26.4565 43.1774 31.0346 46.44 36.6788 46.44C42.323 46.44 46.901 43.1987 46.901 39.1685C46.9009 38.9042 46.88 38.6403 46.8383 38.3795C47.7549 37.9523 48.343 37.0191 48.3434 35.9912ZM30.8255 37.8464C30.8255 36.8218 31.6398 35.9912 32.6442 35.9912C33.6487 35.9912 34.4629 36.8218 34.4629 37.8464C34.4629 38.871 33.6487 39.7016 32.6442 39.7016C31.6403 39.7004 30.8267 38.8705 30.8255 37.8464ZM36.6788 44.137C37.3686 44.137 39.7517 44.0517 41.006 42.7723C41.1735 42.5769 41.1735 42.2852 41.006 42.0899C40.9182 41.9976 40.7975 41.9456 40.6715 41.9456C40.5455 41.9456 40.4248 41.9976 40.337 42.0899C39.5636 42.9002 37.8703 43.1774 36.6788 43.1774C35.4872 43.1774 33.8149 42.9002 33.0205 42.0899C32.8358 41.9014 32.5363 41.9014 32.3516 42.0899C32.1668 42.2783 32.1668 42.5838 32.3516 42.7723C33.5849 44.0304 35.9889 44.137 36.6788 44.137ZM40.6715 39.7229C39.6671 39.7229 38.8528 38.8923 38.8528 37.8677C38.8528 36.8431 39.6671 36.0125 40.6715 36.0125C41.6759 36.0125 42.4902 36.8431 42.4902 37.8677C42.489 38.8918 41.6755 39.7217 40.6715 39.7229Z" fill="white"/>
</svg>
