<?xml version="1.0" encoding="utf-8"?>
<!-- Generator: Adobe Illustrator 24.0.1, SVG Export Plug-In . SVG Version: 6.00 Build 0)  -->
<svg version="1.1" id="Layer_1" xmlns="http://www.w3.org/2000/svg" xmlns:xlink="http://www.w3.org/1999/xlink" x="0px" y="0px"
	 width="44px" height="48px" viewBox="0 0 44 48" style="enable-background:new 0 0 44 48;" xml:space="preserve">
<style type="text/css">
	.st0{opacity:0.5;enable-background:new    ;}
	.st1{fill:#FFFFFF;}
</style>
<path class="st0" d="M32.8,23.8c-1.1,0-2-0.9-2-2V13c0-5-4-9-9-9c-5,0-9,4-9,9v8.8c0,1.1-0.9,2-2,2s-2-0.9-2-2V13
	c0-7.2,5.8-13,13-13c7.2,0,13,5.8,13,13v8.8C34.8,22.9,33.9,23.8,32.8,23.8z"/>
<path class="st1" d="M39.6,48H4c-2.2,0-4-1.8-4-4V23.8c0-2.2,1.8-4,4-4h35.6c2.2,0,4,1.8,4,4V44C43.6,46.2,41.8,48,39.6,48z M4,23.8
	L4,23.8V44h35.6V23.8H4z"/>
</svg>
