<svg width="72" height="72" viewBox="0 0 72 72" fill="none" xmlns="http://www.w3.org/2000/svg">
<rect width="72" height="72" fill="#1063FE"/>
<rect opacity="0.220447" x="44" y="20" width="28" height="52" fill="#0531AD"/>
<path fill-rule="evenodd" clip-rule="evenodd" d="M36.8608 16.0226C37.2404 15.9524 37.633 16.0538 37.9294 16.2982C38.2284 16.5452 38.4 16.9118 38.4 17.2992V53.6992C38.4 54.084 38.2284 54.4532 37.9294 54.7002C37.6954 54.8952 37.399 54.9992 37.1 54.9992C37.022 54.9992 36.9388 54.9914 36.8608 54.9758L16.0608 51.0758C15.4446 50.9614 15 50.4232 15 49.7992V21.1992C15 20.5726 15.4446 20.037 16.0608 19.9226L36.8608 16.0226ZM17.6 48.7202L35.8 52.1314V18.867L17.6 22.2782V48.7202Z" fill="white"/>
<path d="M55.2998 21.1992H37.0998C36.3822 21.1992 35.7998 21.7816 35.7998 22.4992C35.7998 23.2168 36.3822 23.7992 37.0998 23.7992H53.9998V47.1992H37.0998C36.3822 47.1992 35.7998 47.7816 35.7998 48.4992C35.7998 49.2168 36.3822 49.7992 37.0998 49.7992H55.2998C56.0174 49.7992 56.5998 49.2168 56.5998 48.4992V22.4992C56.5998 21.7816 56.0174 21.1992 55.2998 21.1992Z" fill="white"/>
<path d="M50.0998 41.9992H37.0998C36.3822 41.9992 35.7998 42.5816 35.7998 43.2992C35.7998 44.0168 36.3822 44.5992 37.0998 44.5992H50.0998C50.8174 44.5992 51.3998 44.0168 51.3998 43.2992C51.3998 42.5816 50.8174 41.9992 50.0998 41.9992Z" fill="white"/>
<path d="M24.0998 28.9992C23.3822 28.9992 22.7998 29.5816 22.7998 30.2992V43.2992C22.7998 44.0168 23.3822 44.5992 24.0998 44.5992C24.8174 44.5992 25.3998 44.0168 25.3998 43.2992V30.2992C25.3998 29.5816 24.8174 28.9992 24.0998 28.9992Z" fill="white"/>
<path d="M27.9998 28.9992H24.0998C23.3822 28.9992 22.7998 29.5816 22.7998 30.2992C22.7998 31.0168 23.3822 31.5992 24.0998 31.5992H27.9998C29.4324 31.5992 30.5998 32.7666 30.5998 34.1992C30.5998 35.6318 29.4324 36.7992 27.9998 36.7992H24.0998C23.3822 36.7992 22.7998 37.3816 22.7998 38.0992C22.7998 38.8168 23.3822 39.3992 24.0998 39.3992H27.9998C30.8676 39.3992 33.1998 37.067 33.1998 34.1992C33.1998 31.3314 30.8676 28.9992 27.9998 28.9992Z" fill="white"/>
<path fill-rule="evenodd" clip-rule="evenodd" d="M38.3999 32.8992C38.3999 29.3164 41.3145 26.3992 44.8999 26.3992C48.4853 26.3992 51.3999 29.3164 51.3999 32.8992C51.3999 36.482 48.4853 39.3992 44.8999 39.3992C41.3145 39.3992 38.3999 36.482 38.3999 32.8992ZM40.9999 32.8992C40.9999 35.0494 42.7497 36.7992 44.8999 36.7992C47.0501 36.7992 48.7999 35.0494 48.7999 32.8992C48.7999 30.749 47.0501 28.9992 44.8999 28.9992C42.7497 28.9992 40.9999 30.749 40.9999 32.8992Z" fill="white"/>
<path d="M50.1001 31.5992H46.2001V27.6992C46.2001 26.9816 45.6177 26.3992 44.9001 26.3992C44.1825 26.3992 43.6001 26.9816 43.6001 27.6992V32.8992C43.6001 33.6168 44.1825 34.1992 44.9001 34.1992H50.1001C50.8177 34.1992 51.4001 33.6168 51.4001 32.8992C51.4001 32.1816 50.8177 31.5992 50.1001 31.5992Z" fill="white"/>
</svg>
