<svg width="32" height="32" viewBox="0 0 32 32" fill="none" xmlns="http://www.w3.org/2000/svg">
<circle cx="16" cy="16" r="16" fill="#FF9494"/>
<mask id="mask0" mask-type="alpha" maskUnits="userSpaceOnUse" x="0" y="0" width="32" height="32">
<circle cx="16" cy="16" r="16" fill="white"/>
</mask>
<g mask="url(#mask0)">
<g style="mix-blend-mode:hard-light" opacity="0.4">
<path fill-rule="evenodd" clip-rule="evenodd" d="M37.6726 11.4362L34.2432 17.4019L12.3393 4.70097L15.7688 -1.26477L37.6726 11.4362Z" fill="#DD5D5D"/>
</g>
<g style="mix-blend-mode:hard-light" opacity="0.3">
<path fill-rule="evenodd" clip-rule="evenodd" d="M21.0377 27.845L15.072 24.4155L27.7729 2.51164L33.7386 5.94111L21.0377 27.845Z" fill="white"/>
</g>
<g style="mix-blend-mode:hard-light">
<path fill-rule="evenodd" clip-rule="evenodd" d="M2.97172 31.4019L-2.99401 27.9724L15.7069 -1.26477L21.6727 2.16471L2.97172 31.4019Z" fill="#DD5D5D"/>
</g>
<g style="mix-blend-mode:hard-light">
<path fill-rule="evenodd" clip-rule="evenodd" d="M-10.5453 21.5556L-8.66091 14.9374L15.6649 21.9621L13.7806 28.5802L-10.5453 21.5556Z" fill="white"/>
</g>
<g style="mix-blend-mode:hard-light">
<path fill-rule="evenodd" clip-rule="evenodd" d="M-5.54527 3.55561L-3.66091 -3.06258L20.6649 3.96206L18.7806 10.5802L-5.54527 3.55561Z" fill="white"/>
</g>
</g>
</svg>
