<svg width="73" height="72" viewBox="0 0 73 72" fill="none" xmlns="http://www.w3.org/2000/svg">
<rect x="0.235321" width="72" height="72" fill="#1063FE"/>
<rect opacity="0.1" x="29" width="33" height="33" fill="black"/>
<path fill-rule="evenodd" clip-rule="evenodd" d="M35.8052 53.9045C35.9213 53.9587 36.0467 53.9905 36.1748 53.9982C36.3437 54.0082 36.5124 53.9759 36.6654 53.9045C36.6654 53.9045 45.1154 50.0579 48.9182 42.7924C50.6215 39.538 51.0867 34.9612 51.2056 31.1387C51.3246 27.3162 51.0478 24.2441 51.0478 24.2441C51.0135 23.866 50.7659 23.5396 50.4085 23.4017L36.6023 18.0683C36.3663 17.9772 36.1043 17.9772 35.8683 18.0683L22.0621 23.4017C21.7048 23.5396 21.4571 23.866 21.4229 24.2441C21.4229 24.2441 21.1461 27.3162 21.265 31.1387C21.384 34.9612 21.8491 39.538 23.5525 42.7924C27.3552 50.0579 35.8052 53.9045 35.8052 53.9045ZM47.124 41.8732C44.0387 47.7678 37.3673 51.2938 36.2353 51.8641C35.1033 51.2938 28.4319 47.7678 25.3466 41.8732C23.9449 39.195 23.3991 34.772 23.2841 31.0775C23.1838 27.8541 23.3672 25.6754 23.4167 25.0881C23.4188 25.063 23.4206 25.0407 23.4222 25.0215L36.2353 20.0722L49.0484 25.0215C49.05 25.0407 49.0519 25.063 49.054 25.0881C49.1034 25.6754 49.2868 27.8541 49.1865 31.0775C49.0715 34.772 48.5257 39.195 47.124 41.8732Z" fill="white"/>
<path d="M36.1748 53.9982L36.1296 54.7469L36.1309 54.747L36.1748 53.9982ZM35.8052 53.9045L36.1226 53.2249L36.1159 53.2219L35.8052 53.9045ZM36.6654 53.9045L36.3547 53.2219L36.3482 53.2249L36.6654 53.9045ZM48.9182 42.7924L49.5827 43.1402L49.5827 43.1402L48.9182 42.7924ZM51.0478 24.2441L51.7947 24.1768L51.7947 24.1765L51.0478 24.2441ZM50.4085 23.4017L50.1382 24.1013L50.1385 24.1014L50.4085 23.4017ZM36.6023 18.0683L36.8726 17.3687L36.8724 17.3686L36.6023 18.0683ZM35.8683 18.0683L35.5983 17.3686L35.5981 17.3687L35.8683 18.0683ZM22.0621 23.4017L22.3322 24.1014L22.3324 24.1013L22.0621 23.4017ZM21.4229 24.2441L20.6759 24.1765L20.6759 24.1768L21.4229 24.2441ZM21.265 31.1387L22.0147 31.1154L21.265 31.1387ZM23.5525 42.7924L22.888 43.1402L22.888 43.1402L23.5525 42.7924ZM36.2353 51.8641L35.8978 52.5339L36.2353 52.7039L36.5728 52.5339L36.2353 51.8641ZM47.124 41.8732L47.7885 42.221L47.7885 42.221L47.124 41.8732ZM25.3466 41.8732L26.0111 41.5254L26.0111 41.5254L25.3466 41.8732ZM23.2841 31.0775L24.0338 31.0542L23.2841 31.0775ZM23.4167 25.0881L22.6693 25.0252L22.6693 25.0252L23.4167 25.0881ZM23.4222 25.0215L23.152 24.3219L22.7135 24.4912L22.6748 24.9597L23.4222 25.0215ZM36.2353 20.0722L36.5056 19.3726L36.2353 19.2682L35.9651 19.3726L36.2353 20.0722ZM49.0484 25.0215L49.7959 24.9597L49.7571 24.4912L49.3186 24.3219L49.0484 25.0215ZM49.054 25.0881L49.8013 25.0252L49.8013 25.0252L49.054 25.0881ZM49.1865 31.0775L49.9362 31.1008L49.9362 31.1008L49.1865 31.0775ZM36.22 53.2496C36.186 53.2476 36.1529 53.2391 36.1225 53.2249L35.4878 54.584C35.6896 54.6783 35.9074 54.7335 36.1296 54.7469L36.22 53.2496ZM36.3482 53.2249C36.3082 53.2436 36.2636 53.2522 36.2187 53.2495L36.1309 54.747C36.4238 54.7641 36.7166 54.7083 36.9826 54.5841L36.3482 53.2249ZM48.2537 42.4447C46.428 45.9328 43.4675 48.6291 40.9265 50.4651C39.661 51.3795 38.5116 52.0718 37.6803 52.5347C37.265 52.7659 36.9298 52.9394 36.7003 53.0543C36.5855 53.1118 36.4972 53.1546 36.4385 53.1825C36.4092 53.1965 36.3873 53.2068 36.3732 53.2134C36.3661 53.2166 36.361 53.219 36.3579 53.2204C36.3564 53.2211 36.3553 53.2216 36.3548 53.2219C36.3545 53.222 36.3544 53.222 36.3544 53.222C36.3544 53.2221 36.3545 53.222 36.3545 53.222C36.3546 53.222 36.3547 53.2219 36.6654 53.9045C36.9762 54.5871 36.9764 54.587 36.9766 54.5869C36.9768 54.5868 36.977 54.5867 36.9773 54.5866C36.9778 54.5864 36.9784 54.5861 36.9792 54.5857C36.9807 54.585 36.9827 54.5841 36.9852 54.5829C36.9903 54.5806 36.9974 54.5773 37.0064 54.5731C37.0245 54.5647 37.0505 54.5525 37.084 54.5365C37.151 54.5046 37.2479 54.4576 37.3717 54.3957C37.6191 54.2719 37.9738 54.0881 38.41 53.8452C39.2819 53.3598 40.4827 52.6363 41.805 51.6809C44.4397 49.7772 47.6056 46.9176 49.5827 43.1402L48.2537 42.4447ZM50.456 31.1154C50.3372 34.933 49.8706 39.3555 48.2537 42.4447L49.5827 43.1402C51.3725 39.7206 51.8361 34.9894 51.9553 31.162L50.456 31.1154ZM51.0478 24.2441C50.3008 24.3114 50.3008 24.3114 50.3008 24.3114C50.3008 24.3114 50.3008 24.3114 50.3008 24.3114C50.3008 24.3114 50.3008 24.3115 50.3008 24.3116C50.3008 24.3118 50.3009 24.3122 50.3009 24.3128C50.301 24.314 50.3012 24.3159 50.3014 24.3186C50.3019 24.3239 50.3026 24.3322 50.3036 24.3433C50.3055 24.3655 50.3083 24.3991 50.3118 24.4436C50.319 24.5325 50.3291 24.6647 50.341 24.8357C50.3647 25.1778 50.3952 25.6748 50.422 26.2907C50.4758 27.5231 50.5147 29.2274 50.456 31.1154L51.9553 31.162C52.0155 29.2275 51.9755 27.4846 51.9206 26.2253C51.8931 25.5953 51.8619 25.0854 51.8374 24.732C51.8251 24.5553 51.8146 24.4177 51.807 24.3236C51.8033 24.2766 51.8002 24.2405 51.7981 24.2158C51.7971 24.2035 51.7963 24.1941 51.7957 24.1875C51.7954 24.1843 51.7952 24.1817 51.795 24.18C51.7949 24.1791 51.7949 24.1784 51.7948 24.1778C51.7948 24.1776 51.7948 24.1774 51.7948 24.1772C51.7948 24.1771 51.7948 24.177 51.7948 24.177C51.7948 24.1769 51.7947 24.1768 51.0478 24.2441ZM50.1385 24.1014C50.2325 24.1377 50.2926 24.2211 50.3008 24.3118L51.7947 24.1765C51.7344 23.5109 51.2992 22.9415 50.6785 22.702L50.1385 24.1014ZM36.332 18.7679L50.1382 24.1013L50.6788 22.7021L36.8726 17.3687L36.332 18.7679ZM36.1384 18.768C36.2006 18.744 36.27 18.744 36.3323 18.768L36.8724 17.3686C36.4626 17.2105 36.0081 17.2105 35.5983 17.3686L36.1384 18.768ZM22.3324 24.1013L36.1386 18.7679L35.5981 17.3687L21.7919 22.7021L22.3324 24.1013ZM22.1698 24.3118C22.178 24.2211 22.2381 24.1377 22.3322 24.1014L21.7921 22.702C21.1714 22.9415 20.7362 23.5109 20.6759 24.1765L22.1698 24.3118ZM22.0147 31.1154C21.9559 29.2274 21.9949 27.5231 22.0486 26.2907C22.0755 25.6748 22.106 25.1778 22.1297 24.8357C22.1415 24.6647 22.1517 24.5325 22.1588 24.4436C22.1624 24.3991 22.1652 24.3655 22.1671 24.3433C22.168 24.3322 22.1687 24.3239 22.1692 24.3186C22.1694 24.3159 22.1696 24.314 22.1697 24.3128C22.1698 24.3122 22.1698 24.3118 22.1698 24.3116C22.1698 24.3115 22.1698 24.3114 22.1698 24.3114C22.1698 24.3114 22.1698 24.3114 22.1698 24.3114C22.1698 24.3114 22.1698 24.3114 21.4229 24.2441C20.6759 24.1768 20.6759 24.1769 20.6759 24.177C20.6759 24.177 20.6759 24.1771 20.6759 24.1772C20.6758 24.1774 20.6758 24.1776 20.6758 24.1778C20.6758 24.1784 20.6757 24.1791 20.6756 24.18C20.6755 24.1817 20.6752 24.1843 20.6749 24.1875C20.6744 24.1941 20.6736 24.2035 20.6725 24.2158C20.6704 24.2405 20.6674 24.2766 20.6636 24.3236C20.6561 24.4177 20.6455 24.5553 20.6333 24.732C20.6088 25.0854 20.5775 25.5953 20.55 26.2253C20.4951 27.4846 20.4552 29.2275 20.5154 31.162L22.0147 31.1154ZM24.2169 42.4447C22.6001 39.3555 22.1335 34.933 22.0147 31.1154L20.5154 31.162C20.6345 34.9894 21.0981 39.7206 22.888 43.1402L24.2169 42.4447ZM35.8052 53.9045C36.1159 53.2219 36.1161 53.222 36.1162 53.222C36.1162 53.222 36.1163 53.2221 36.1163 53.222C36.1163 53.222 36.1161 53.222 36.1158 53.2219C36.1153 53.2216 36.1143 53.2211 36.1127 53.2204C36.1096 53.219 36.1045 53.2166 36.0975 53.2134C36.0834 53.2068 36.0614 53.1965 36.0321 53.1825C35.9734 53.1546 35.8851 53.1118 35.7704 53.0543C35.5408 52.9394 35.2057 52.7659 34.7903 52.5347C33.959 52.0718 32.8096 51.3795 31.5441 50.4651C29.0031 48.6291 26.0426 45.9328 24.2169 42.4447L22.888 43.1402C24.865 46.9176 28.0309 49.7772 30.6656 51.6809C31.9879 52.6363 33.1887 53.3598 34.0606 53.8452C34.4969 54.0881 34.8516 54.2719 35.099 54.3957C35.2227 54.4576 35.3197 54.5046 35.3866 54.5365C35.4201 54.5525 35.4461 54.5647 35.4642 54.5731C35.4733 54.5773 35.4803 54.5806 35.4854 54.5829C35.4879 54.5841 35.49 54.585 35.4915 54.5857C35.4922 54.5861 35.4928 54.5864 35.4933 54.5866C35.4936 54.5867 35.4939 54.5868 35.494 54.5869C35.4942 54.587 35.4945 54.5871 35.8052 53.9045ZM36.5728 52.5339C37.1632 52.2364 39.159 51.1881 41.4047 49.4596C43.6443 47.7356 46.1759 45.302 47.7885 42.221L46.4595 41.5254C44.9869 44.339 42.6401 46.6157 40.4897 48.2709C38.3453 49.9216 36.4394 50.9215 35.8978 51.1943L36.5728 52.5339ZM24.6821 42.221C26.2948 45.302 28.8264 47.7356 31.066 49.4596C33.3116 51.1881 35.3074 52.2364 35.8978 52.5339L36.5728 51.1943C36.0312 50.9215 34.1254 49.9216 31.9809 48.2709C29.8305 46.6157 27.4838 44.339 26.0111 41.5254L24.6821 42.221ZM22.5345 31.1008C22.6497 34.8026 23.1944 39.3786 24.6821 42.221L26.0111 41.5254C24.6954 39.0115 24.1485 34.7413 24.0338 31.0542L22.5345 31.1008ZM22.6693 25.0252C22.6186 25.6277 22.4329 27.8377 22.5345 31.1008L24.0338 31.0542C23.9347 27.8705 24.1159 25.7231 24.164 25.151L22.6693 25.0252ZM22.6748 24.9597C22.6733 24.9783 22.6714 24.9999 22.6693 25.0252L24.164 25.151C24.1661 25.126 24.168 25.1032 24.1697 25.0833L22.6748 24.9597ZM35.9651 19.3726L23.152 24.3219L23.6925 25.7211L36.5056 20.7719L35.9651 19.3726ZM49.3186 24.3219L36.5056 19.3726L35.9651 20.7719L48.7782 25.7211L49.3186 24.3219ZM49.8013 25.0252C49.7992 24.9999 49.7974 24.9783 49.7959 24.9597L48.301 25.0833C48.3026 25.1032 48.3045 25.126 48.3066 25.151L49.8013 25.0252ZM49.9362 31.1008C50.0377 27.8377 49.8521 25.6277 49.8013 25.0252L48.3066 25.151C48.3548 25.7232 48.536 27.8705 48.4369 31.0542L49.9362 31.1008ZM47.7885 42.221C49.2762 39.3785 49.8209 34.8026 49.9362 31.1008L48.4369 31.0542C48.3221 34.7413 47.7753 39.0115 46.4595 41.5254L47.7885 42.221Z" fill="white"/>
</svg>
