<svg width="72" height="72" viewBox="0 0 72 72" fill="none" xmlns="http://www.w3.org/2000/svg">
<rect width="72" height="72" fill="#F4F5F7"/>
<rect opacity="0.220447" x="44" y="20" width="28" height="52" fill="#D8DDE2"/>
<path fill-rule="evenodd" clip-rule="evenodd" d="M5.27036 32L5 33.1034H7.56842L6.62216 36.931L5.94626 39.7586H7.63601L8.31191 36.931L9.25817 33.1034H11.7928L12.0632 32H5.27036ZM56.4022 32.069C56.3228 32.4131 56.2435 32.6979 56.1709 32.9581C56.1199 33.1411 56.0723 33.3119 56.0305 33.4828H55.3884L55.5911 33.3448C55.7596 33.2245 55.8861 33.1385 55.9747 33.0781L55.9748 33.0781L55.9749 33.078L55.9751 33.0779L55.9754 33.0777L55.9755 33.0776C56.0643 33.0172 56.115 32.9828 56.1319 32.9655C56.0967 32.8938 56.0636 32.8253 56.0322 32.7601L56.0315 32.7587L56.0311 32.7579C55.8817 32.4483 55.7702 32.2172 55.6587 32.1034C55.6587 32.069 55.3884 32.2414 54.8814 32.5862L54.6787 32.6897C54.6787 32.6897 54.7125 32.7241 54.7463 32.7931C54.7821 32.8443 54.8179 32.8939 54.8531 32.9427C54.9839 33.1238 55.1057 33.2926 55.1856 33.4828H54.6787L54.5097 34.2759H55.6587L55.5911 34.4483L55.5235 34.6207H54.2731L54.1042 35.4138H54.9828C54.6111 35.8621 54.1717 36.2414 53.6648 36.5172L54.4759 32.5862H52.2454L51.4006 36.6552C51.3837 36.7069 51.3752 36.7586 51.3668 36.8103L51.3668 36.8103L51.3667 36.8104C51.3583 36.8621 51.3499 36.9138 51.333 36.9655C51.1302 37.7586 50.8598 38.4483 50.4543 39.1034C50.6909 39.3103 50.8936 39.5517 51.0288 39.7931C51.5019 39.1034 51.8737 38.2414 52.144 37.1724H52.6172L52.3468 38.5172C52.313 38.6897 52.144 38.7931 51.8061 38.7586C51.8737 39.069 51.9075 39.4138 51.8737 39.7586C52.6848 39.7586 53.0565 39.5862 53.0903 39.2069L53.5296 37.0345L53.5634 36.8966L53.6986 37.0345C53.721 37.065 53.7435 37.0938 53.7652 37.1217C53.8416 37.2199 53.9089 37.3064 53.9352 37.4138C54.0704 37.3448 54.2055 37.2414 54.3745 37.1034L54.0704 38.069H56.7402L56.7064 38.3103C56.605 38.8276 56.436 39.1034 56.267 39.069L56.4022 38.3103H53.5296L53.3607 39.1034H55.6925C55.8277 39.4138 55.8953 39.6897 55.8615 40C56.605 39.9655 57.0781 39.8621 57.2471 39.6552C57.3058 39.5953 57.339 39.5094 57.391 39.3748L57.4161 39.3103C57.5512 38.9311 57.6864 38.3794 57.8554 37.6898L57.8554 37.6897L57.9568 37.2759H56.9767L57.0443 37.0345L57.1119 36.6552C57.2369 36.7827 57.3619 36.8725 57.4732 36.9525C57.5123 36.9806 57.5498 37.0075 57.585 37.0345C57.6864 37.1034 57.7878 37.1724 57.8554 37.2069C57.8723 37.1724 57.8976 37.1466 57.923 37.1207C57.9483 37.0948 57.9737 37.069 57.9906 37.0345L58.0383 36.9797L58.0383 36.9797L58.0383 36.9796L58.0384 36.9795C58.2891 36.6916 58.5116 36.436 58.7341 36.2414C58.1258 36.069 57.6864 35.8276 57.4161 35.4828H58.7341L58.903 34.6897H56.5374C56.605 34.5862 56.6726 34.4828 56.7064 34.3793H58.6665L58.8355 33.5862H58.1258C58.4299 33.2759 58.7003 33.0345 58.9368 32.8276L58.1258 32.3103C57.8554 32.6552 57.585 33 57.2809 33.3103L57.7878 33.6207H57.0443L57.1457 33.2759L57.2809 32.931C57.3823 32.6552 57.4837 32.4483 57.5512 32.3103C57.5512 32.2508 57.5261 32.2427 57.4539 32.2194L57.4538 32.2193C57.4424 32.2157 57.4299 32.2116 57.4161 32.2069C57.2272 32.1243 56.9738 32.1077 56.6557 32.0868C56.5753 32.0815 56.4908 32.0759 56.4022 32.069ZM60.1873 32.6207C60.728 32.3793 61.1335 32.2069 61.3701 32.1379C61.3701 32.1493 61.3884 32.2129 61.4214 32.3276L61.4214 32.3278L61.4215 32.3279L61.4216 32.3283L61.4216 32.3283L61.4217 32.3287L61.4217 32.3288L61.4218 32.3291C61.4892 32.5633 61.6172 33.0088 61.7756 33.6552C61.1673 33.8966 60.7618 34.0345 60.559 34.1034C60.4914 33.6207 60.3562 33.1034 60.1873 32.6207ZM62.2825 32.5862L62.0798 33.4828H62.8233L62.4853 35.1724H61.5729L61.3701 36.069H62.3163L62.1474 36.8966L61.5729 39.6207H62.5867L63.1274 36.8966L63.2964 36.069H64.0399L63.9047 36.7586C63.9047 36.7759 63.8963 36.8017 63.8878 36.8276C63.8794 36.8534 63.8709 36.8793 63.8709 36.8966C63.6681 37.8966 63.7695 38.6897 64.1413 39.2414C64.3778 39.5862 64.6482 39.7241 64.9861 39.6552C65.3241 39.6897 65.662 39.1034 66 37.9655C65.8288 37.8782 65.6576 37.8047 65.4778 37.7275L65.4777 37.7274L65.4774 37.7273C65.3734 37.6826 65.2665 37.6367 65.1551 37.5862C64.9861 38.1034 64.8848 38.2759 64.851 38.1034C64.7834 37.8276 64.7834 37.4138 64.8848 36.8966C64.9186 36.7241 64.9524 36.5172 64.9861 36.3103L65.7634 32.5172L62.2825 32.5862ZM46.6355 34.1034L46.9734 32.6552L49.9474 35.1724H45.0133L45.2837 34.1034H46.6355ZM53.3945 33.3448L53.1579 34.4483H52.6848L52.9213 33.3448H53.3945ZM64.6144 33.4828H63.8371L63.4654 35.1724H64.2765L64.6144 33.4828ZM13.9557 33.7931C12.9418 33.7931 12.0632 34.069 11.2859 34.6207C10.5424 35.1724 10.0355 35.8966 9.83269 36.7931C9.83269 36.8335 9.82109 36.8621 9.81148 36.8857C9.80469 36.9025 9.79889 36.9168 9.79889 36.931C9.62992 37.7586 9.7651 38.4483 10.2382 38.9655C10.7452 39.5172 11.5224 39.7586 12.5701 39.7586C14.3612 39.7586 15.713 38.6552 15.8482 38.5172L15.0709 38.3448C15.0485 38.3494 15.0111 38.3589 14.9608 38.3716L14.9608 38.3716C14.6329 38.4545 13.7578 38.6759 12.908 38.5862C11.6576 38.4828 11.3873 37.5517 11.4548 37.069H16.4903L16.5241 36.931L16.5579 36.7586C16.7945 35.8276 16.6593 35.1034 16.1861 34.5862C15.7468 34.069 15.0033 33.7931 13.9557 33.7931ZM25.8853 34.6552C26.764 34.069 27.744 33.7931 28.8255 33.7931C29.5352 33.7931 30.1435 33.931 30.6504 34.2069L30.2111 35.931C29.9407 35.5517 29.6704 35.3103 29.4 35.1724C29.1634 35.0345 28.8255 34.9655 28.4537 34.9655C27.8454 34.9655 27.2709 35.1379 26.7978 35.4828C26.3247 35.8276 26.0205 36.2759 25.8853 36.7931C25.8853 36.8103 25.8769 36.8362 25.8684 36.862L25.8684 36.8621L25.8684 36.8621C25.86 36.8879 25.8515 36.9138 25.8515 36.931C25.7839 37.3793 25.8853 37.7586 26.1557 38.069C26.4598 38.4138 26.933 38.5862 27.5413 38.5862C27.9468 38.5862 28.2848 38.5172 28.6227 38.3793C28.9607 38.2414 29.3662 38 29.8393 37.6207L29.4 39.3448C28.6903 39.6207 27.9806 39.7586 27.3385 39.7586C26.2571 39.7586 25.4122 39.4483 24.8377 38.8966C24.2632 38.3793 24.0604 37.7241 24.2294 36.931C24.2294 36.8906 24.241 36.8621 24.2506 36.8384C24.2574 36.8217 24.2632 36.8074 24.2632 36.7931C24.4659 35.9655 25.0066 35.2414 25.8853 34.6552ZM34.9086 33.7931C33.8947 33.7931 33.0161 34.069 32.2388 34.6207C31.4953 35.1724 30.9884 35.8966 30.7856 36.7931C30.7856 36.8335 30.774 36.8621 30.7644 36.8857C30.7576 36.9025 30.7518 36.9168 30.7518 36.931C30.5828 37.7586 30.718 38.4483 31.1911 38.9655C31.6981 39.5172 32.4753 39.7586 33.523 39.7586C35.3141 39.7586 36.6659 38.6552 36.8011 38.5172L36.0238 38.3448C36.0014 38.3494 35.964 38.3589 35.9137 38.3716C35.5859 38.4545 34.7107 38.6759 33.8609 38.5862C32.6105 38.4828 32.3402 37.5517 32.4078 37.069H37.4094L37.4432 36.931L37.477 36.7586C37.7136 35.8276 37.5784 35.1034 37.1391 34.5862C36.6997 34.069 35.9224 33.7931 34.9086 33.7931ZM19.7684 34.6552C20.4443 34.1724 21.154 33.9655 21.8637 33.9655C22.6748 33.9655 23.2493 34.1724 23.5873 34.5862C23.8914 34.931 23.959 35.5172 23.7562 36.3103L23.5873 36.9655L22.9114 39.7931H21.323L22.0327 36.9655L22.1003 36.6207C22.2355 36.069 22.2355 35.6897 22.1003 35.4828C21.9651 35.2759 21.6609 35.1724 21.154 35.1724C20.6133 35.1724 20.2078 35.3103 19.9036 35.5862C19.6332 35.8621 19.3967 36.3103 19.2277 36.9655C19.2277 36.9828 19.2193 37 19.2108 37.0172C19.2024 37.0345 19.1939 37.0517 19.1939 37.069L18.518 39.7931H16.9296L17.6055 36.9655L18.2814 34.1379L19.7684 34.6552ZM42.6476 33.9655C41.938 33.9655 41.2283 34.1724 40.5524 34.6552L39.0654 34.1379L38.3895 36.9655L37.7136 39.7931H39.3357L40.0116 37.069C40.0116 37.0517 40.0201 37.0345 40.0285 37.0172C40.037 37 40.0454 36.9828 40.0454 36.9655C40.2144 36.3103 40.451 35.8621 40.7213 35.5862C41.0255 35.3103 41.431 35.1724 41.9717 35.1724C42.4787 35.1724 42.7828 35.2759 42.918 35.4828C43.0532 35.6897 43.0532 36.069 42.918 36.6207L42.8504 36.9655L42.1745 39.7931H43.7967L44.4726 36.9655L44.6416 36.3103C44.8443 35.5172 44.7767 34.931 44.4726 34.5862C44.0332 34.1724 43.4587 33.9655 42.6476 33.9655ZM58.9706 35.4828L59.1734 34.5517H61.0997L60.6266 36.931L60.559 37.3103C60.6189 37.2696 60.6905 37.2049 60.7809 37.1232L60.781 37.1231L60.781 37.1231C60.8437 37.0664 60.9153 37.0016 60.9983 36.931C61.0659 36.8621 61.1335 36.7931 61.2349 36.7241L61.4039 36.5517L61.5729 36.931V36.9655C61.6742 37.2414 61.7418 37.3793 61.7418 37.3793C60.5928 38.3793 59.8831 39.0345 59.6127 39.3448L59.6127 39.3449C59.4438 39.5173 59.3424 39.6207 59.3086 39.6207C59.0382 39.3448 58.8693 39 58.7679 38.6897C58.7679 38.6683 58.7937 38.647 58.8294 38.6176C58.8514 38.5994 58.8772 38.5781 58.903 38.5517C59.1734 38.3103 59.3424 38.1034 59.3762 37.8966L59.5789 36.931L59.8831 35.4828H58.9706ZM13.7191 34.9655C14.5978 34.9655 15.0371 35.3103 15.1047 36H11.8604C11.9618 35.8276 12.0632 35.6897 12.1983 35.5517C12.3335 35.4138 12.4687 35.3103 12.6377 35.2069C12.8066 35.1034 12.9756 35.0345 13.1784 35C13.2392 35 13.3136 34.993 13.3955 34.9854C13.4959 34.976 13.6075 34.9655 13.7191 34.9655ZM36.0238 36C35.9562 35.3103 35.5169 34.9655 34.6382 34.9655C34.4612 34.9655 34.3099 34.9918 34.1395 35.0214L34.0637 35.0345C33.8947 35.1034 33.7258 35.1724 33.5568 35.2069C33.3878 35.3103 33.2526 35.4138 33.1175 35.5517C32.9823 35.6897 32.8809 35.8276 32.7795 36H36.0238ZM52.5158 35.2414H52.9889L52.7861 36.2759H52.313L52.5158 35.2414ZM56.3008 35.3793H56.0305L55.8953 35.5517L55.7601 35.7241H56.4698C56.4022 35.6207 56.3346 35.4828 56.3008 35.3793ZM46.2975 35.4138L45.9258 36.931L45.2161 39.7586H46.8382L47.5479 36.931L47.9197 35.4138H46.2975ZM56.1994 36.4483H55.0504L54.8476 36.6552H55.3208C55.3208 36.6552 55.3546 36.6552 55.3884 36.6897C55.3884 36.7401 55.3703 36.7906 55.3473 36.8546C55.3389 36.8781 55.3298 36.9033 55.3208 36.931C55.3208 37 55.287 37.1034 55.2532 37.2069H56.0305L56.0981 36.931L56.1994 36.4483Z" fill="#006CB6"/>
</svg>
