<svg width="39" height="44" viewBox="0 0 39 44" fill="none" xmlns="http://www.w3.org/2000/svg">
<path fill-rule="evenodd" clip-rule="evenodd" d="M38.882 32.1264V16.6233C38.8806 15.2401 39 13.0449 36.9441 13.2708L23.3789 20.5192C23.3789 20.5192 23.3789 43.2305 23.3789 43.2305L36.9441 35.479C38.1421 34.7874 38.8806 33.5097 38.882 32.1264Z" fill="#40A2FF"/>
<path fill-rule="evenodd" clip-rule="evenodd" d="M34.882 27.1265V11.6234C34.8806 10.2401 34.142 8.96244 32.9441 8.27081L19.3789 0.519256C18.1797 -0.173085 16.7023 -0.173085 15.5031 0.519256L1.93789 8.27081C0.739948 8.96244 0.00141882 10.2401 0 11.6234V27.1265C0.00141882 28.5097 0.739948 29.7874 1.93789 30.479L15.5031 38.2306C16.7023 38.9229 18.1797 38.9229 19.3789 38.2306L32.9441 30.479C34.142 29.7874 34.8806 28.5097 34.882 27.1265Z" fill="#70C9FE"/>
<mask id="mask0" mask-type="alpha" maskUnits="userSpaceOnUse" x="0" y="0" width="35" height="39">
<path fill-rule="evenodd" clip-rule="evenodd" d="M34.882 27.1265V11.6234C34.8806 10.2401 34.142 8.96244 32.9441 8.27081L19.3789 0.519256C18.1797 -0.173085 16.7023 -0.173085 15.5031 0.519256L1.93789 8.27081C0.739948 8.96244 0.00141882 10.2401 0 11.6234V27.1265C0.00141882 28.5097 0.739948 29.7874 1.93789 30.479L15.5031 38.2306C16.7023 38.9229 18.1797 38.9229 19.3789 38.2306L32.9441 30.479C34.142 29.7874 34.8806 28.5097 34.882 27.1265Z" fill="white"/>
</mask>
<g mask="url(#mask0)">
<g style="mix-blend-mode:hard-light">
<path fill-rule="evenodd" clip-rule="evenodd" d="M38.882 32.1264V16.6233C38.8806 15.2401 39 13.0449 36.9441 13.2708L23.3789 20.5192C23.3789 20.5192 23.3789 43.2305 23.3789 43.2305L36.9441 35.479C38.1421 34.7874 38.8806 33.5097 38.882 32.1264Z" fill="#245EA9"/>
</g>
<path d="M0.523438 9.60791L17.4412 19.3942L34.359 9.60791" stroke="#F7FAFF" stroke-width="1.5" stroke-linecap="round" stroke-linejoin="round"/>
<path d="M17.4406 38.9088V19.3749" stroke="#F7FAFF" stroke-width="1.5" stroke-linecap="round" stroke-linejoin="round"/>
</g>
</svg>
