<svg width="72" height="72" viewBox="0 0 72 72" fill="none" xmlns="http://www.w3.org/2000/svg">
<rect width="72" height="72" fill="#F4F5F7"/>
<rect opacity="0.220447" x="44" y="20" width="28" height="52" fill="#D8DDE2"/>
<path fill-rule="evenodd" clip-rule="evenodd" d="M17 35.6715C17.0109 25.3564 25.376 17.0001 35.6912 17C40.6587 17 45.4219 18.9774 48.9289 22.4955C52.4359 26.0137 54.3982 30.7831 54.3824 35.7506C54.3496 46.0657 45.9668 54.4043 35.6517 54.3825C25.3366 54.3606 16.9891 45.9867 17 35.6715ZM45.5118 21.1206C42.6098 19.165 39.1906 18.119 35.6912 18.1163C32.1917 18.119 28.7726 19.165 25.8705 21.1206C24.9383 21.754 24.0675 22.4737 23.2699 23.27C22.4708 24.0651 21.7509 24.9361 21.1205 25.8706C17.1196 31.8021 17.1196 39.5685 21.1205 45.5C21.7479 46.4368 22.468 47.3081 23.2699 48.1006C24.872 49.7044 26.7666 50.9863 28.8512 51.8769C33.2262 53.7136 38.1561 53.7136 42.5312 51.8769C44.6158 50.9863 46.5103 49.7044 48.1124 48.1006C48.9144 47.3081 49.6345 46.4368 50.2618 45.5C54.2627 39.5685 54.2627 31.8021 50.2618 25.8706C49.6314 24.9361 48.9116 24.0651 48.1124 23.27C47.3148 22.4737 46.4441 21.754 45.5118 21.1206Z" fill="#32373C"/>
<path fill-rule="evenodd" clip-rule="evenodd" d="M44.9656 30.6088C45.7849 31.89 46.2291 33.375 46.2481 34.8956H46.1887C46.0858 36.6526 45.7257 38.385 45.12 40.0375L43.5169 45.12L37.8881 28.3881C38.8262 28.3406 39.6694 28.2338 39.6694 28.2338C39.8985 28.2147 40.1 28.0748 40.198 27.8669C40.296 27.6589 40.2756 27.4145 40.1446 27.2256C40.0135 27.0368 39.7916 26.9322 39.5625 26.9513C39.5625 26.9513 36.95 27.1531 35.4181 27.1531C33.8862 27.1531 31.3212 26.9513 31.3212 26.9513C30.9671 26.9217 30.6561 27.1849 30.6266 27.5391C30.597 27.8932 30.8602 28.2043 31.2144 28.2338C31.2144 28.2338 32.01 28.3881 32.8531 28.3881L35.2281 35.0263L31.82 45.2506L26.1556 28.3644C27.0937 28.3169 27.9369 28.21 27.9369 28.21C28.291 28.1805 28.5542 27.8695 28.5247 27.5153C28.4952 27.1612 28.1841 26.898 27.83 26.9275C27.83 26.9275 25.3125 27.1294 23.6856 27.1294H22.6762C25.1825 23.3219 29.2306 20.803 33.7536 20.2365C38.2766 19.67 42.8208 21.1127 46.1887 24.1844H46.0581C44.572 24.2297 43.4005 25.4648 43.4337 26.9513C43.6003 28.2876 44.1301 29.5526 44.9656 30.6088ZM28.8987 49.7038C23.5262 47.0986 20.1169 41.6502 20.1231 35.6794C20.1183 33.4985 20.5756 31.3413 21.465 29.35L28.8987 49.7038ZM36.0119 37.045L31.2975 50.6181C32.7231 51.0445 34.2033 51.2605 35.6912 51.2594C37.4544 51.2613 39.205 50.9642 40.8687 50.3806C40.8222 50.3093 40.7824 50.2338 40.75 50.155L36.0119 37.045ZM49.4144 28.2896C49.4119 28.2631 49.4094 28.2365 49.4069 28.21H49.3712C49.3857 28.2365 49.4001 28.2631 49.4144 28.2896ZM49.4144 28.2896C49.4605 28.7961 49.4778 29.3047 49.4662 29.8131C49.439 31.7333 49.0356 33.6295 48.2787 35.3944L43.5287 49.1456C50.7949 44.9134 53.3918 35.6861 49.4144 28.2896Z" fill="#32373C"/>
</svg>
