<svg width="29" height="34" viewBox="0 0 29 34" fill="none" xmlns="http://www.w3.org/2000/svg">
<circle cx="13" cy="13" r="13" fill="#70C9FE"/>
<g style="mix-blend-mode:hard-light">
<path d="M22.23 29.132V26.74C25.636 26.246 27.378 24.166 27.378 21.488C27.378 18.81 25.688 17.354 21.996 16.496V11.66C23.374 11.946 24.31 12.596 24.986 13.428L27.118 11.582C25.948 10.152 24.388 9.294 22.23 9.06V6.72H19.656V9.06C16.406 9.424 14.508 11.192 14.508 13.948C14.508 16.496 16.094 18.134 19.89 18.94V24.218C18.356 24.01 17.108 23.23 16.094 22.06L13.988 23.984C15.288 25.492 17.03 26.61 19.656 26.818V29.132H22.23ZM17.654 13.818C17.654 12.648 18.408 11.894 19.89 11.634V16.028C18.356 15.612 17.654 15.04 17.654 13.818ZM24.258 21.722C24.258 22.944 23.452 23.88 21.996 24.192V19.408C23.738 19.876 24.258 20.682 24.258 21.722Z" fill="#2051B0"/>
</g>
</svg>
