<svg width="72" height="72" viewBox="0 0 72 72" fill="none" xmlns="http://www.w3.org/2000/svg">
<rect width="72" height="72" fill="#1063FE"/>
<rect opacity="0.220447" x="44" y="20" width="28" height="52" fill="#0531AD"/>
<g clip-path="url(#clip0)">
<path fill-rule="evenodd" clip-rule="evenodd" d="M21 48.4695C21 49.1333 21.2572 49.7573 21.7242 50.2267L27.7393 56.2722C28.2063 56.7415 28.8272 57 29.4876 57H48.9275C50.2908 57 51.4 55.8852 51.4 54.515V37.4435C51.4 36.3799 49.7517 36.3784 49.7517 37.4435V54.515C49.7517 54.9717 49.3819 55.3433 48.9275 55.3433H29.7356V50.6698C29.7356 49.2995 28.6264 48.1847 27.2631 48.1847H22.6483V29.879H49.7517V30.7509C49.7517 31.2084 50.1206 31.5792 50.5758 31.5792C51.031 31.5792 51.4 31.2084 51.4 30.7509V17.8851C51.4 16.5148 50.2908 15.4 48.9275 15.4H23.4725C22.1092 15.4 21 16.5148 21 17.8851V48.4695ZM28.0872 50.6698V54.279L23.672 49.8414H27.2631C27.7176 49.8414 28.0872 50.213 28.0872 50.6698ZM22.6483 17.8851V28.2223H49.7516V17.8851C49.7516 17.4283 49.3819 17.0567 48.9275 17.0567H23.4725C23.0181 17.0567 22.6483 17.4283 22.6483 17.8851Z" fill="white"/>
<path d="M21.7242 50.2267L21.9369 50.0151L21.9369 50.0151L21.7242 50.2267ZM27.7393 56.2722L27.5266 56.4838L27.5266 56.4838L27.7393 56.2722ZM29.7356 55.3433H29.4356V55.6433H29.7356V55.3433ZM22.6483 48.1847H22.3483V48.4847H22.6483V48.1847ZM22.6483 29.879V29.579H22.3483V29.879H22.6483ZM49.7517 29.879H50.0517V29.579H49.7517V29.879ZM28.0872 54.279L27.8746 54.4906L28.3872 55.0059V54.279H28.0872ZM23.672 49.8414V49.5414H22.9503L23.4593 50.053L23.672 49.8414ZM22.6483 28.2223H22.3483V28.5223H22.6483V28.2223ZM49.7516 28.2223V28.5223H50.0516V28.2223H49.7516ZM21.9369 50.0151C21.526 49.6021 21.3 49.0542 21.3 48.4695H20.7C20.7 49.2123 20.9885 49.9126 21.5115 50.4383L21.9369 50.0151ZM27.9519 56.0606L21.9369 50.0151L21.5115 50.4383L27.5266 56.4838L27.9519 56.0606ZM29.4876 56.7C28.9073 56.7 28.3629 56.4735 27.9519 56.0605L27.5266 56.4838C28.0498 57.0095 28.7471 57.3 29.4876 57.3V56.7ZM48.9275 56.7H29.4876V57.3H48.9275V56.7ZM51.1 54.515C51.1 55.721 50.1237 56.7 48.9275 56.7V57.3C50.4579 57.3 51.7 56.0495 51.7 54.515H51.1ZM51.1 37.4435V54.515H51.7V37.4435H51.1ZM50.0517 37.4435C50.0517 37.262 50.1186 37.1463 50.2049 37.072C50.2975 36.9923 50.431 36.9452 50.5757 36.9452C50.7203 36.9453 50.854 36.9925 50.9467 37.0724C51.0332 37.1469 51.1 37.2625 51.1 37.4435H51.7C51.7 37.0928 51.5608 36.8094 51.3382 36.6177C51.1219 36.4314 50.8434 36.3454 50.576 36.3452C50.3085 36.3451 50.03 36.4309 49.8135 36.6172C49.5908 36.8089 49.4517 37.0925 49.4517 37.4435H50.0517ZM50.0517 54.515V37.4435H49.4517V54.515H50.0517ZM48.9275 55.6433C49.549 55.6433 50.0517 55.136 50.0517 54.515H49.4517C49.4517 54.8075 49.2148 55.0433 48.9275 55.0433V55.6433ZM29.7356 55.6433H48.9275V55.0433H29.7356V55.6433ZM29.4356 50.6698V55.3433H30.0356V50.6698H29.4356ZM27.2631 48.4847C28.4593 48.4847 29.4356 49.4638 29.4356 50.6698H30.0356C30.0356 49.1352 28.7935 47.8847 27.2631 47.8847V48.4847ZM22.6483 48.4847H27.2631V47.8847H22.6483V48.4847ZM22.3483 29.879V48.1847H22.9483V29.879H22.3483ZM49.7517 29.579H22.6483V30.179H49.7517V29.579ZM50.0517 30.7509V29.879H49.4517V30.7509H50.0517ZM50.5758 31.2792C50.2877 31.2792 50.0517 31.0441 50.0517 30.7509H49.4517C49.4517 31.3726 49.9535 31.8792 50.5758 31.8792V31.2792ZM51.1 30.7509C51.1 31.0441 50.8639 31.2792 50.5758 31.2792V31.8792C51.1981 31.8792 51.7 31.3726 51.7 30.7509H51.1ZM51.1 17.8851V30.7509H51.7V17.8851H51.1ZM48.9275 15.7C50.1237 15.7 51.1 16.6791 51.1 17.8851H51.7C51.7 16.3506 50.4579 15.1 48.9275 15.1V15.7ZM23.4725 15.7H48.9275V15.1H23.4725V15.7ZM21.3 17.8851C21.3 16.6791 22.2763 15.7 23.4725 15.7V15.1C21.9421 15.1 20.7 16.3506 20.7 17.8851H21.3ZM21.3 48.4695V17.8851H20.7V48.4695H21.3ZM28.3872 54.279V50.6698H27.7872V54.279H28.3872ZM23.4593 50.053L27.8746 54.4906L28.2999 54.0674L23.8846 49.6298L23.4593 50.053ZM27.2631 49.5414H23.672V50.1414H27.2631V49.5414ZM28.3872 50.6698C28.3872 50.0488 27.8847 49.5414 27.2631 49.5414V50.1414C27.5505 50.1414 27.7872 50.3772 27.7872 50.6698H28.3872ZM22.9483 28.2223V17.8851H22.3483V28.2223H22.9483ZM49.7516 27.9223H22.6483V28.5223H49.7516V27.9223ZM49.4516 17.8851V28.2223H50.0516V17.8851H49.4516ZM48.9275 17.3567C49.2148 17.3567 49.4516 17.5926 49.4516 17.8851H50.0516C50.0516 17.264 49.549 16.7567 48.9275 16.7567V17.3567ZM23.4725 17.3567H48.9275V16.7567H23.4725V17.3567ZM22.9483 17.8851C22.9483 17.5926 23.1852 17.3567 23.4725 17.3567V16.7567C22.851 16.7567 22.3483 17.264 22.3483 17.8851H22.9483Z" fill="white"/>
<path fill-rule="evenodd" clip-rule="evenodd" d="M39.2617 42.2348C38.7603 41.8401 38.2837 41.4344 37.9663 41.1171C37.5537 40.7045 37.1861 40.3046 36.8666 39.9237C37.3649 38.3839 37.5834 37.5899 37.5834 37.1667C37.5834 35.3687 36.9338 35 35.9584 35C35.2173 35 34.3334 35.3851 34.3334 37.2185C34.3334 38.0268 34.7761 39.0081 35.6537 40.1485C35.4758 40.6913 35.2722 41.303 35.0465 41.9812L35.0464 41.9813L34.9031 42.412C34.7666 42.8209 34.6185 43.1996 34.4619 43.5498C34.3344 43.6064 34.2106 43.664 34.0911 43.7238C33.6725 43.9331 33.2744 44.1219 32.904 44.2975L32.904 44.2976L32.8723 44.3126C31.1426 45.1314 30 45.6731 30 46.7427C30 47.5192 30.8437 48 31.625 48C32.6321 48 34.1529 46.6548 35.2638 44.3887C36.4169 43.9338 37.8505 43.5968 38.9819 43.3858C39.8886 44.0829 40.8899 44.75 41.375 44.75C42.7181 44.75 43 43.9735 43 43.3223C43 42.0416 41.5368 42.0416 40.8333 42.0416C40.6149 42.0417 40.0288 42.1062 39.2617 42.2348ZM31.625 46.9167C31.3155 46.9167 31.1061 46.7707 31.0833 46.7427C31.0833 46.3586 32.2285 45.8159 33.3362 45.2912L33.4359 45.2442L33.5505 45.1901C32.7369 46.3698 31.9323 46.9167 31.625 46.9167ZM35.9584 36.0834C35.769 36.0834 35.4167 36.0834 35.4167 37.2185C35.4167 37.6423 35.6436 38.2035 36.0689 38.8584C36.3477 37.9665 36.5001 37.3952 36.5001 37.1667C36.5001 36.0834 36.3414 36.0834 35.9584 36.0834ZM35.8319 43.0404C35.8658 42.9462 35.8986 42.851 35.9303 42.7548L36.0474 42.4036C36.2022 41.9393 36.3442 41.5134 36.4736 41.1223C36.6984 41.3699 36.9407 41.6233 37.2004 41.883C37.302 41.9846 37.5538 42.2131 37.8892 42.4992C37.2215 42.6447 36.5111 42.8251 35.8319 43.0404ZM41.4142 43.6699C41.9167 43.6667 41.9167 43.5657 41.9167 43.3223C41.8606 43.2033 41.6337 43.1251 40.8333 43.1251C40.7698 43.1251 40.6572 43.1335 40.5043 43.1504C40.9254 43.4372 41.2666 43.6381 41.4142 43.6699Z" fill="white"/>
<path d="M39.2617 42.2348L39.1999 42.3133L39.2346 42.3407L39.2783 42.3334L39.2617 42.2348ZM36.8666 39.9237L36.7714 39.8929L36.7544 39.9456L36.79 39.988L36.8666 39.9237ZM35.6537 40.1485L35.7487 40.1796L35.7652 40.1294L35.7329 40.0875L35.6537 40.1485ZM35.0465 41.9812L35.1413 42.0128L35.1413 42.0127L35.0465 41.9812ZM35.0464 41.9813L34.9516 41.9496L34.9515 41.9497L35.0464 41.9813ZM34.9031 42.412L34.9979 42.4436L34.998 42.4436L34.9031 42.412ZM34.4619 43.5498L34.5025 43.6412L34.5375 43.6256L34.5532 43.5906L34.4619 43.5498ZM34.0911 43.7238L34.0464 43.6344L34.0464 43.6344L34.0911 43.7238ZM32.904 44.2975L32.9466 44.388L32.9469 44.3879L32.904 44.2975ZM32.904 44.2976L32.8614 44.2071L32.8612 44.2072L32.904 44.2976ZM32.8723 44.3126L32.9151 44.403L32.9152 44.4029L32.8723 44.3126ZM35.2638 44.3887L35.2271 44.2957L35.191 44.3099L35.174 44.3447L35.2638 44.3887ZM38.9819 43.3858L39.0429 43.3065L39.0075 43.2793L38.9636 43.2875L38.9819 43.3858ZM40.8333 42.0416L40.8333 41.9416L40.8333 41.9416L40.8333 42.0416ZM31.0833 46.7427H30.9833V46.7781L31.0057 46.8057L31.0833 46.7427ZM33.3362 45.2912L33.2936 45.2007L33.2934 45.2008L33.3362 45.2912ZM33.4359 45.2442L33.4786 45.3346L33.4786 45.3346L33.4359 45.2442ZM33.5505 45.1901L33.6328 45.2469L33.8436 44.9413L33.5078 45.0997L33.5505 45.1901ZM36.0689 38.8584L35.9851 38.9128L36.1009 39.0912L36.1644 38.8882L36.0689 38.8584ZM35.9303 42.7548L35.8355 42.7231L35.8354 42.7234L35.9303 42.7548ZM35.8319 43.0404L35.7378 43.0065L35.6694 43.1968L35.8621 43.1357L35.8319 43.0404ZM36.0474 42.4036L35.9525 42.372L35.9525 42.372L36.0474 42.4036ZM36.4736 41.1223L36.5476 41.0551L36.4325 40.9283L36.3787 41.0909L36.4736 41.1223ZM37.2004 41.883L37.2711 41.8123L37.2711 41.8123L37.2004 41.883ZM37.8892 42.4992L37.9105 42.5969L38.1075 42.554L37.9541 42.4231L37.8892 42.4992ZM41.9167 43.3223H42.0167V43.3L42.0072 43.2797L41.9167 43.3223ZM41.4142 43.6699L41.3931 43.7676L41.4038 43.77L41.4148 43.7699L41.4142 43.6699ZM40.5043 43.1504L40.4933 43.051L40.2244 43.0808L40.448 43.2331L40.5043 43.1504ZM37.8956 41.1878C38.2171 41.5093 38.6972 41.9178 39.1999 42.3133L39.3236 42.1562C38.8233 41.7625 38.3503 41.3596 38.037 41.0463L37.8956 41.1878ZM36.79 39.988C37.1115 40.3713 37.4812 40.7734 37.8956 41.1878L38.037 41.0463C37.6262 40.6356 37.2606 40.2378 36.9432 39.8594L36.79 39.988ZM37.4834 37.1667C37.4834 37.3644 37.4318 37.658 37.3151 38.101C37.199 38.542 37.0205 39.1232 36.7714 39.8929L36.9617 39.9545C37.211 39.1843 37.3909 38.5987 37.5085 38.1519C37.6257 37.7072 37.6834 37.3922 37.6834 37.1667H37.4834ZM35.9584 35.1C36.4363 35.1 36.8065 35.1908 37.0622 35.4759C37.3213 35.7647 37.4834 36.275 37.4834 37.1667H37.6834C37.6834 36.2604 37.5206 35.6873 37.2111 35.3423C36.8982 34.9935 36.4559 34.9 35.9584 34.9V35.1ZM34.4334 37.2185C34.4334 36.3163 34.6509 35.7911 34.94 35.4911C35.2284 35.1918 35.6042 35.1 35.9584 35.1V34.9C35.5714 34.9 35.1348 35.0007 34.7959 35.3523C34.4578 35.7032 34.2334 36.2873 34.2334 37.2185H34.4334ZM35.7329 40.0875C34.8595 38.9524 34.4334 37.9932 34.4334 37.2185H34.2334C34.2334 38.0604 34.6928 39.0637 35.5744 40.2095L35.7329 40.0875ZM35.1413 42.0127C35.3671 41.3346 35.5708 40.7227 35.7487 40.1796L35.5587 40.1174C35.3809 40.6598 35.1774 41.2713 34.9516 41.9496L35.1413 42.0127ZM35.1413 42.0129L35.1413 42.0128L34.9516 41.9495L34.9516 41.9496L35.1413 42.0129ZM34.998 42.4436L35.1413 42.0128L34.9515 41.9497L34.8082 42.3804L34.998 42.4436ZM34.5532 43.5906C34.7112 43.2373 34.8604 42.8555 34.9979 42.4436L34.8082 42.3803C34.6727 42.7862 34.5258 43.1619 34.3706 43.509L34.5532 43.5906ZM34.1358 43.8133C34.2537 43.7543 34.3761 43.6973 34.5025 43.6412L34.4213 43.4584C34.2928 43.5155 34.1676 43.5738 34.0464 43.6344L34.1358 43.8133ZM32.9469 44.3879C33.3171 44.2123 33.7161 44.0231 34.1358 43.8133L34.0464 43.6344C33.6288 43.8432 33.2316 44.0315 32.8612 44.2072L32.9469 44.3879ZM32.9466 44.388L32.9466 44.388L32.8614 44.2071L32.8614 44.2071L32.9466 44.388ZM32.9152 44.4029L32.9469 44.3879L32.8612 44.2072L32.8295 44.2222L32.9152 44.4029ZM30.1 46.7427C30.1 46.2522 30.3584 45.8756 30.847 45.514C31.3392 45.1497 32.0468 44.814 32.9151 44.403L32.8296 44.2222C31.9681 44.63 31.2395 44.9746 30.728 45.3532C30.2129 45.7345 29.9 46.1636 29.9 46.7427H30.1ZM31.625 47.9C31.2532 47.9 30.8674 47.7852 30.5771 47.5808C30.2879 47.3772 30.1 47.0905 30.1 46.7427H29.9C29.9 47.1714 30.134 47.5134 30.462 47.7443C30.7888 47.9744 31.2156 48.1 31.625 48.1V47.9ZM35.174 44.3447C34.6228 45.4692 33.9713 46.3619 33.3362 46.972C32.6971 47.586 32.0892 47.9 31.625 47.9V48.1C32.1679 48.1 32.824 47.7414 33.4748 47.1163C34.1296 46.4872 34.7939 45.5743 35.3536 44.4327L35.174 44.3447ZM38.9636 43.2875C37.8297 43.499 36.3889 43.8373 35.2271 44.2957L35.3005 44.4817C36.4449 44.0302 37.8713 43.6947 39.0003 43.4841L38.9636 43.2875ZM41.375 44.65C41.2735 44.65 41.1345 44.6143 40.9624 44.5426C40.7922 44.4717 40.5977 44.3691 40.3879 44.2435C39.9684 43.9924 39.4948 43.654 39.0429 43.3065L38.921 43.465C39.3757 43.8147 39.8561 44.1584 40.2852 44.4151C40.4997 44.5435 40.7032 44.6512 40.8855 44.7272C41.0659 44.8023 41.2339 44.85 41.375 44.85V44.65ZM42.9 43.3223C42.9 43.6357 42.8318 43.9649 42.6155 44.2149C42.4016 44.4622 42.027 44.65 41.375 44.65V44.85C42.066 44.85 42.504 44.6495 42.7668 44.3458C43.0272 44.0447 43.1 43.66 43.1 43.3223H42.9ZM40.8333 42.1416C41.1881 42.1416 41.7123 42.1426 42.1472 42.296C42.363 42.3721 42.5501 42.4837 42.6832 42.6454C42.815 42.8057 42.9 43.0226 42.9 43.3223H43.1C43.1 42.9816 43.0021 42.7183 42.8376 42.5184C42.6744 42.3199 42.4517 42.1914 42.2138 42.1074C41.7412 41.9407 41.1821 41.9416 40.8333 41.9416V42.1416ZM39.2783 42.3334C40.0456 42.2048 40.6242 42.1417 40.8333 42.1416L40.8333 41.9416C40.6056 41.9417 40.012 42.0076 39.2452 42.1361L39.2783 42.3334ZM31.0057 46.8057C31.0224 46.8263 31.0521 46.8481 31.0803 46.866C31.1126 46.8866 31.1554 46.91 31.2074 46.9322C31.3115 46.9765 31.4545 47.0167 31.625 47.0167V46.8167C31.486 46.8167 31.3696 46.7839 31.2858 46.7482C31.244 46.7303 31.2108 46.712 31.1878 46.6973C31.1606 46.68 31.1556 46.673 31.161 46.6796L31.0057 46.8057ZM33.2934 45.2008C32.7409 45.4625 32.1732 45.7314 31.7438 45.9834C31.5293 46.1093 31.3446 46.2336 31.2124 46.3536C31.0856 46.4685 30.9833 46.6004 30.9833 46.7427H31.1833C31.1833 46.6929 31.2242 46.6129 31.3467 46.5017C31.4638 46.3955 31.6347 46.2793 31.845 46.1559C32.2651 45.9094 32.8239 45.6445 33.379 45.3815L33.2934 45.2008ZM33.3933 45.1537L33.2936 45.2007L33.3789 45.3816L33.4786 45.3346L33.3933 45.1537ZM33.5078 45.0997L33.3932 45.1537L33.4786 45.3346L33.5931 45.2806L33.5078 45.0997ZM31.625 47.0167C31.7265 47.0167 31.852 46.9733 31.988 46.9011C32.1269 46.8274 32.2874 46.7179 32.4619 46.5726C32.8111 46.2818 33.2216 45.8431 33.6328 45.2469L33.4682 45.1333C33.0658 45.7167 32.6672 46.1413 32.3339 46.4189C32.1671 46.5578 32.018 46.6588 31.8942 46.7245C31.7675 46.7917 31.6771 46.8167 31.625 46.8167V47.0167ZM35.5167 37.2185C35.5167 36.6551 35.6054 36.401 35.6951 36.2871C35.7755 36.185 35.8663 36.1834 35.9584 36.1834V35.9834C35.8611 35.9834 35.681 35.9817 35.538 36.1634C35.4041 36.3333 35.3167 36.6468 35.3167 37.2185H35.5167ZM36.1528 38.8039C35.7299 38.1529 35.5167 37.6121 35.5167 37.2185H35.3167C35.3167 37.6724 35.5572 38.2541 35.9851 38.9128L36.1528 38.8039ZM36.4001 37.1667C36.4001 37.2665 36.3655 37.4547 36.2922 37.7388C36.2199 38.0192 36.1127 38.3831 35.9735 38.8285L36.1644 38.8882C36.3039 38.4417 36.4123 38.074 36.4859 37.7887C36.5585 37.5071 36.6001 37.2954 36.6001 37.1667H36.4001ZM35.9584 36.1834C36.058 36.1834 36.1262 36.184 36.1807 36.1974C36.2278 36.209 36.2606 36.2293 36.2889 36.2731C36.3208 36.3225 36.35 36.4068 36.3702 36.554C36.3901 36.6996 36.4001 36.8975 36.4001 37.1667H36.6001C36.6001 36.8942 36.5901 36.6858 36.5683 36.5268C36.5468 36.3693 36.5124 36.2505 36.4568 36.1645C36.3975 36.0728 36.3188 36.0254 36.2285 36.0032C36.1455 35.9828 36.0502 35.9834 35.9584 35.9834V36.1834ZM35.8354 42.7234C35.8039 42.8189 35.7714 42.9133 35.7378 43.0065L35.926 43.0743C35.9602 42.9792 35.9933 42.8832 36.0253 42.7861L35.8354 42.7234ZM35.9525 42.372L35.8355 42.7231L36.0252 42.7864L36.1423 42.4352L35.9525 42.372ZM36.3787 41.0909C36.2493 41.4819 36.1074 41.9076 35.9525 42.372L36.1423 42.4352C36.2971 41.9709 36.4391 41.545 36.5685 41.1537L36.3787 41.0909ZM37.2711 41.8123C37.0124 41.5536 36.7712 41.3014 36.5476 41.0551L36.3996 41.1896C36.6256 41.4384 36.869 41.693 37.1297 41.9537L37.2711 41.8123ZM37.9541 42.4231C37.619 42.1373 37.3697 41.9109 37.2711 41.8123L37.1297 41.9537C37.2342 42.0582 37.4885 42.2889 37.8243 42.5753L37.9541 42.4231ZM35.8621 43.1357C36.5377 42.9216 37.245 42.7419 37.9105 42.5969L37.8679 42.4015C37.198 42.5475 36.4845 42.7286 35.8017 42.9451L35.8621 43.1357ZM41.8167 43.3223C41.8167 43.3861 41.8163 43.4281 41.8104 43.4612C41.8052 43.4904 41.7971 43.5028 41.7873 43.5116C41.7749 43.5226 41.7478 43.5382 41.6856 43.5503C41.6239 43.5623 41.5369 43.5691 41.4135 43.5699L41.4148 43.7699C41.5427 43.7691 41.6441 43.7621 41.7237 43.7466C41.8029 43.7312 41.87 43.7058 41.9205 43.6608C41.9735 43.6135 41.9968 43.5547 42.0073 43.4965C42.017 43.4421 42.0167 43.3803 42.0167 43.3223H41.8167ZM40.8333 43.2251C41.2321 43.2251 41.4804 43.2447 41.6335 43.2769C41.7908 43.31 41.8194 43.3504 41.8262 43.3649L42.0072 43.2797C41.9579 43.1752 41.845 43.117 41.6747 43.0812C41.5003 43.0445 41.2348 43.0251 40.8333 43.0251V43.2251ZM40.5153 43.2498C40.6679 43.233 40.7758 43.2251 40.8333 43.2251V43.0251C40.7639 43.0251 40.6464 43.0341 40.4933 43.051L40.5153 43.2498ZM41.4352 43.5721C41.3788 43.56 41.2692 43.5098 41.1117 43.4191C40.9583 43.3308 40.77 43.2104 40.5606 43.0678L40.448 43.2331C40.6597 43.3772 40.8525 43.5007 41.0119 43.5924C41.1671 43.6818 41.302 43.748 41.3931 43.7676L41.4352 43.5721Z" fill="white"/>
<path d="M28.738 26V19.718H31.564C31.852 19.718 32.11 19.766 32.338 19.862C32.572 19.952 32.77 20.084 32.932 20.258C33.094 20.426 33.217 20.63 33.301 20.87C33.385 21.11 33.427 21.374 33.427 21.662C33.427 21.956 33.385 22.223 33.301 22.463C33.217 22.697 33.094 22.901 32.932 23.075C32.77 23.243 32.572 23.375 32.338 23.471C32.11 23.561 31.852 23.606 31.564 23.606H29.926V26H28.738ZM29.926 22.58H31.456C31.684 22.58 31.864 22.52 31.996 22.4C32.128 22.274 32.194 22.097 32.194 21.869V21.455C32.194 21.227 32.128 21.053 31.996 20.933C31.864 20.813 31.684 20.753 31.456 20.753H29.926V22.58ZM34.4852 19.718H36.7712C37.1792 19.718 37.5482 19.784 37.8782 19.916C38.2142 20.048 38.4992 20.246 38.7332 20.51C38.9732 20.768 39.1562 21.095 39.2822 21.491C39.4142 21.881 39.4802 22.337 39.4802 22.859C39.4802 23.381 39.4142 23.84 39.2822 24.236C39.1562 24.626 38.9732 24.953 38.7332 25.217C38.4992 25.475 38.2142 25.67 37.8782 25.802C37.5482 25.934 37.1792 26 36.7712 26H34.4852V19.718ZM36.7712 24.947C37.2152 24.947 37.5662 24.818 37.8242 24.56C38.0882 24.296 38.2202 23.894 38.2202 23.354V22.364C38.2202 21.824 38.0882 21.425 37.8242 21.167C37.5662 20.903 37.2152 20.771 36.7712 20.771H35.6732V24.947H36.7712ZM40.6719 26V19.718H44.7129V20.771H41.8599V22.292H44.3439V23.345H41.8599V26H40.6719Z" fill="white"/>
</g>
<defs>
<clipPath id="clip0">
<rect x="21" y="15" width="31" height="42" fill="white"/>
</clipPath>
</defs>
</svg>
