<?xml version="1.0" encoding="utf-8"?>
<!-- Generator: Adobe Illustrator 24.0.1, SVG Export Plug-In . SVG Version: 6.00 Build 0)  -->
<svg version="1.1" id="Layer_1" xmlns="http://www.w3.org/2000/svg" xmlns:xlink="http://www.w3.org/1999/xlink" x="0px" y="0px"
	 width="17.6px" height="17px" viewBox="0 0 17.6 17" style="enable-background:new 0 0 17.6 17;" xml:space="preserve">
<style type="text/css">
	.st0{fill:#FFFFFF;}
</style>
<path class="st0" d="M2.1,0C0.8,0,0,0.9,0,2.1c0,1.1,0.8,2.1,2,2.1h0c1.3,0,2.1-0.9,2.1-2.1C4.1,0.9,3.3,0,2.1,0z"/>
<path class="st0" d="M0.6,5.9h3.5V17H0.6V5.9z"/>
<path class="st0" d="M13.2,5.3c-2.1,0-3.5,1.9-3.5,1.9V5.5H5.9V17h3.8v-6.4c0-0.3,0-0.7,0.1-0.9c0.3-0.7,0.9-1.4,2-1.4
	c1.4,0,1.9,1.1,1.9,2.6V17h3.8v-6.6C17.6,6.9,15.7,5.3,13.2,5.3z"/>
</svg>
