<svg width="73" height="72" viewBox="0 0 73 72" fill="none" xmlns="http://www.w3.org/2000/svg">
<rect x="0.117645" width="72" height="72" fill="#1063FE"/>
<rect opacity="0.1" x="39" y="30" width="33" height="33" fill="black"/>
<path d="M52.84 33.232C52.392 30.32 51.272 27.408 49.48 25.168L45.896 27.856C47.24 29.648 48.136 31.664 48.36 33.904C51.048 33.456 49.928 33.68 52.84 33.232Z" fill="white"/>
<path d="M45.672 21.584C43.432 19.792 40.52 18.448 37.608 18C37.16 20.912 37.384 19.792 36.936 22.48C39.176 22.704 41.192 23.6 42.984 24.944L45.672 21.584Z" fill="white"/>
<path d="M34.92 49.36C27.528 49.36 21.48 43.312 21.48 35.92C21.48 29.2 26.632 23.376 33.128 22.48L32.456 18C23.72 19.344 17 26.96 17 35.92C17 45.776 25.064 53.84 34.92 53.84C43.88 53.84 51.496 47.344 52.616 38.384L48.136 37.712C47.464 44.208 41.64 49.36 34.92 49.36Z" fill="white"/>
</svg>
