<svg width="72" height="72" viewBox="0 0 72 72" fill="none" xmlns="http://www.w3.org/2000/svg">
<rect width="72" height="72" fill="#1063FE"/>
<rect opacity="0.220447" x="44" y="20" width="28" height="52" fill="#0531AD"/>
<path d="M45.7727 49.7167L49.8076 45.6817L48.2123 43.4538C49.0082 42.1634 49.5862 40.7698 49.935 39.3002L52.6363 38.8537V33.1462L49.935 32.6997C49.5862 31.2301 49.0082 29.8366 48.2123 28.5462L49.8076 26.3182L45.7727 22.2832L43.5446 23.8785C43.0955 23.6018 42.628 23.3483 42.1498 23.1225L41.6212 24.2417C42.5006 24.6571 43.0402 25.0208 43.5793 25.3761L45.6397 23.9008L48.19 26.4511L46.7149 28.5113C47.7962 30.1537 48.4003 31.3518 48.9009 33.7834L51.3985 34.1963V37.8037L48.9009 38.2166C48.5071 40.1287 48.0884 41.4025 46.7149 43.4887L48.19 45.5489L45.6397 48.0992L43.5795 46.624C41.9372 47.7054 40.7391 48.3095 38.3074 48.81L37.8946 51.3077H34.2872L33.8744 48.81C31.973 48.4185 30.6974 48.0036 28.6024 46.624L26.5421 48.0992L23.9919 45.5489L25.467 43.4887C24.3893 41.8519 23.7824 40.6531 23.281 38.2166L20.7834 37.8037V34.1963L23.281 33.7834C23.6758 31.865 24.096 30.5936 25.467 28.5113L23.9919 26.4511L26.5421 23.9008L28.6024 25.376C30.2346 24.3012 31.4312 23.6929 33.8744 23.19L34.2872 20.6923H37.8946L38.3074 23.1897C38.9773 23.328 39.555 23.4398 40.4384 23.7543L40.8536 22.5882C40.3791 22.4193 39.8888 22.2745 39.3911 22.1562L38.9446 19.4546H33.2371L32.7907 22.1559C31.321 22.5047 29.9273 23.0827 28.6371 23.8786L26.4091 22.2833L22.3741 26.3183L23.9694 28.5463C23.1735 29.8366 22.5955 31.2302 22.2467 32.6998L19.5454 33.1463V38.8538L22.2467 39.3003C22.5955 40.7699 23.1735 42.1635 23.9694 43.4538L22.3741 45.6818L26.4091 49.7168L28.6371 48.1215C29.9273 48.9174 31.321 49.4954 32.7907 49.8442L33.2371 52.5455H38.9446L39.3912 49.8442C40.8608 49.4954 42.2543 48.9174 43.5447 48.1215L45.7727 49.7167Z" fill="white" stroke="white"/>
<path fill-rule="evenodd" clip-rule="evenodd" d="M50.4546 16.9183C50.4546 15.3092 51.7393 14 53.3183 14C54.8973 14 56.1819 15.3092 56.1819 16.9183C56.1819 18.3188 55.2087 19.4916 53.9154 19.7723V29.9091H52.0744V28.6919H52.721V19.7722C51.4278 19.4915 50.4546 18.3187 50.4546 16.9183ZM51.649 16.9183C51.649 17.8563 52.3978 18.6194 53.3183 18.6194C54.2386 18.6194 54.9875 17.8562 54.9875 16.9183C54.9875 15.9803 54.2387 15.2172 53.3183 15.2172C52.3978 15.2172 51.649 15.9803 51.649 16.9183Z" fill="white"/>
<path d="M53.9154 19.7723L53.8093 19.2837L53.4154 19.3692V19.7723H53.9154ZM53.9154 29.9091V30.4091H54.4154V29.9091H53.9154ZM52.0744 29.9091H51.5744V30.4091H52.0744V29.9091ZM52.0744 28.6919V28.1919H51.5744V28.6919H52.0744ZM52.721 28.6919V29.1919H53.221V28.6919H52.721ZM52.721 19.7722H53.221V19.3691L52.8271 19.2836L52.721 19.7722ZM53.3183 13.5C51.4543 13.5 49.9546 15.042 49.9546 16.9183H50.9546C50.9546 15.5764 52.0243 14.5 53.3183 14.5V13.5ZM56.6819 16.9183C56.6819 15.042 55.1823 13.5 53.3183 13.5V14.5C54.6122 14.5 55.6819 15.5764 55.6819 16.9183H56.6819ZM54.0214 20.2609C55.5455 19.9301 56.6819 18.5532 56.6819 16.9183H55.6819C55.6819 18.0844 54.8718 19.0531 53.8093 19.2837L54.0214 20.2609ZM54.4154 29.9091V19.7723H53.4154V29.9091H54.4154ZM52.0744 30.4091H53.9154V29.4091H52.0744V30.4091ZM51.5744 28.6919V29.9091H52.5744V28.6919H51.5744ZM52.721 28.1919H52.0744V29.1919H52.721V28.1919ZM52.221 19.7722V28.6919H53.221V19.7722H52.221ZM49.9546 16.9183C49.9546 18.5531 51.091 19.93 52.6149 20.2608L52.8271 19.2836C51.7646 19.0529 50.9546 18.0843 50.9546 16.9183H49.9546ZM53.3183 18.1194C52.6828 18.1194 52.149 17.5891 52.149 16.9183H51.149C51.149 18.1235 52.1128 19.1194 53.3183 19.1194V18.1194ZM54.4875 16.9183C54.4875 17.589 53.9536 18.1194 53.3183 18.1194V19.1194C54.5236 19.1194 55.4875 18.1234 55.4875 16.9183H54.4875ZM53.3183 15.7172C53.9536 15.7172 54.4875 16.2475 54.4875 16.9183H55.4875C55.4875 15.7131 54.5237 14.7172 53.3183 14.7172V15.7172ZM52.149 16.9183C52.149 16.2475 52.6828 15.7172 53.3183 15.7172V14.7172C52.1128 14.7172 51.149 15.7131 51.149 16.9183H52.149Z" fill="white"/>
<path fill-rule="evenodd" clip-rule="evenodd" d="M21.8191 17.7593C21.5169 19.119 20.3446 20.1359 18.9477 20.1359C17.3223 20.1359 16 18.7597 16 17.068C16 15.3764 17.3223 14 18.9477 14C20.3796 14 21.5759 15.0686 21.8404 16.4796H29.3636V20.3636H28.1342V17.7593H21.8191ZM20.6659 17.068C20.6659 16.0819 19.8951 15.2796 18.9477 15.2796C18.0002 15.2796 17.2294 16.0819 17.2295 17.068C17.2295 18.0541 18.0003 18.8563 18.9477 18.8563C19.8951 18.8563 20.6659 18.0541 20.6659 17.068Z" fill="white"/>
<path d="M21.8191 17.7593V17.2593H21.418L21.331 17.6508L21.8191 17.7593ZM21.8404 16.4796L21.349 16.5717L21.4254 16.9796H21.8404V16.4796ZM29.3636 16.4796H29.8636V15.9796H29.3636V16.4796ZM29.3636 20.3636V20.8636H29.8636V20.3636H29.3636ZM28.1342 20.3636H27.6342V20.8636H28.1342V20.3636ZM28.1342 17.7593H28.6342V17.2593H28.1342V17.7593ZM17.2295 17.068H17.7295V17.068L17.2295 17.068ZM18.9477 20.6359C20.5977 20.6359 21.9583 19.4375 22.3072 17.8677L21.331 17.6508C21.0755 18.8005 20.0916 19.6359 18.9477 19.6359V20.6359ZM15.5 17.068C15.5 19.0168 17.0275 20.6359 18.9477 20.6359V19.6359C17.6171 19.6359 16.5 18.5026 16.5 17.068H15.5ZM18.9477 13.5C17.0275 13.5 15.5 15.1193 15.5 17.068H16.5C16.5 15.6335 17.6172 14.5 18.9477 14.5V13.5ZM22.3318 16.3874C22.0266 14.7589 20.639 13.5 18.9477 13.5V14.5C20.1202 14.5 21.1252 15.3782 21.349 16.5717L22.3318 16.3874ZM29.3636 15.9796H21.8404V16.9796H29.3636V15.9796ZM29.8636 20.3636V16.4796H28.8636V20.3636H29.8636ZM28.1342 20.8636H29.3636V19.8636H28.1342V20.8636ZM27.6342 17.7593V20.3636H28.6342V17.7593H27.6342ZM21.8191 18.2593H28.1342V17.2593H21.8191V18.2593ZM18.9477 15.7796C19.6003 15.7796 20.1659 16.339 20.1659 17.068H21.1659C21.1659 15.8248 20.1899 14.7796 18.9477 14.7796V15.7796ZM17.7295 17.068C17.7294 16.339 18.295 15.7796 18.9477 15.7796V14.7796C17.7054 14.7796 16.7294 15.8247 16.7295 17.0681L17.7295 17.068ZM18.9477 18.3563C18.2951 18.3563 17.7295 17.797 17.7295 17.068H16.7295C16.7295 18.3112 17.7055 19.3563 18.9477 19.3563V18.3563ZM20.1659 17.068C20.1659 17.797 19.6003 18.3563 18.9477 18.3563V19.3563C20.1899 19.3563 21.1659 18.3112 21.1659 17.068H20.1659Z" fill="white"/>
<path fill-rule="evenodd" clip-rule="evenodd" d="M49.6931 54.7003C49.9315 53.3724 51.1428 52.3584 52.5976 52.3584C54.2229 52.3584 55.5453 53.6238 55.5453 55.1791C55.5453 56.7345 54.2229 58 52.5976 58C51.2237 58 50.0665 57.0959 49.7411 55.8768H42.1816V52.2727H43.4111V54.7003H49.6931ZM50.8792 55.1791C50.8792 56.0858 51.65 56.8234 52.5976 56.8234C53.545 56.8234 54.3158 56.0858 54.3158 55.1791C54.3158 54.2725 53.545 53.5349 52.5976 53.5349C51.65 53.5349 50.8792 54.2725 50.8792 55.1791Z" fill="white"/>
<path d="M49.6931 54.7003V55.2003H50.1113L50.1852 54.7886L49.6931 54.7003ZM49.7411 55.8768L50.2242 55.7479L50.1252 55.3768H49.7411V55.8768ZM42.1816 55.8768H41.6816V56.3768H42.1816V55.8768ZM42.1816 52.2727V51.7727H41.6816V52.2727H42.1816ZM43.4111 52.2727H43.9111V51.7727H43.4111V52.2727ZM43.4111 54.7003H42.9111V55.2003H43.4111V54.7003ZM52.5976 51.8584C50.9118 51.8584 49.4841 53.0351 49.201 54.6119L50.1852 54.7886C50.379 53.7096 51.3739 52.8584 52.5976 52.8584V51.8584ZM56.0453 55.1791C56.0453 53.3271 54.4781 51.8584 52.5976 51.8584V52.8584C53.9678 52.8584 55.0453 53.9204 55.0453 55.1791H56.0453ZM52.5976 58.5C54.4781 58.5 56.0453 57.0311 56.0453 55.1791H55.0453C55.0453 56.4379 53.9677 57.5 52.5976 57.5V58.5ZM49.2581 56.0057C49.6437 57.4507 51.0047 58.5 52.5976 58.5V57.5C51.4428 57.5 50.4893 56.741 50.2242 55.7479L49.2581 56.0057ZM42.1816 56.3768H49.7411V55.3768H42.1816V56.3768ZM41.6816 52.2727V55.8768H42.6816V52.2727H41.6816ZM43.4111 51.7727H42.1816V52.7727H43.4111V51.7727ZM43.9111 54.7003V52.2727H42.9111V54.7003H43.9111ZM49.6931 54.2003H43.4111V55.2003H49.6931V54.2003ZM52.5976 56.3234C51.9052 56.3234 51.3792 55.7892 51.3792 55.1791H50.3792C50.3792 56.3825 51.3949 57.3234 52.5976 57.3234V56.3234ZM53.8158 55.1791C53.8158 55.7892 53.2898 56.3234 52.5976 56.3234V57.3234C53.8002 57.3234 54.8158 56.3825 54.8158 55.1791H53.8158ZM52.5976 54.0349C53.2898 54.0349 53.8158 54.5692 53.8158 55.1791H54.8158C54.8158 53.9758 53.8002 53.0349 52.5976 53.0349V54.0349ZM51.3792 55.1791C51.3792 54.5692 51.9052 54.0349 52.5976 54.0349V53.0349C51.3949 53.0349 50.3792 53.9758 50.3792 55.1791H51.3792Z" fill="white"/>
<path fill-rule="evenodd" clip-rule="evenodd" d="M19.4609 43.3269V52.138C20.7541 52.4232 21.7273 53.6142 21.7273 55.0363C21.7273 56.6704 20.4426 57.9999 18.8636 57.9999C17.2846 57.9999 16 56.6704 16 55.0363C16 53.6141 16.9732 52.4231 18.2665 52.138V42.0908H19.7014V43.3269H19.4609ZM17.1944 55.0362C17.1944 55.9888 17.9432 56.7638 18.8636 56.7638C19.784 56.7638 20.5329 55.9888 20.5329 55.0362C20.5329 54.0837 19.784 53.3088 18.8636 53.3088C17.9432 53.3088 17.1944 54.0837 17.1944 55.0362Z" fill="white"/>
<path d="M19.4609 52.138H18.9609V52.5398L19.3532 52.6263L19.4609 52.138ZM19.4609 43.3269V42.8269H18.9609V43.3269H19.4609ZM18.2665 52.138L18.3741 52.6263L18.7665 52.5398V52.138H18.2665ZM18.2665 42.0908V41.5908H17.7665V42.0908H18.2665ZM19.7014 42.0908H20.2014V41.5908H19.7014V42.0908ZM19.7014 43.3269V43.8269H20.2014V43.3269H19.7014ZM19.9609 52.138V43.3269H18.9609V52.138H19.9609ZM22.2273 55.0363C22.2273 53.3854 21.0967 51.9868 19.5686 51.6498L19.3532 52.6263C20.4116 52.8597 21.2273 53.8429 21.2273 55.0363H22.2273ZM18.8636 58.4999C20.7348 58.4999 22.2273 56.9302 22.2273 55.0363H21.2273C21.2273 56.4106 20.1505 57.4999 18.8636 57.4999V58.4999ZM15.5 55.0363C15.5 56.9302 16.9924 58.4999 18.8636 58.4999V57.4999C17.5768 57.4999 16.5 56.4106 16.5 55.0363H15.5ZM18.1589 51.6498C16.6306 51.9866 15.5 53.3854 15.5 55.0363H16.5C16.5 53.8428 17.3158 52.8596 18.3741 52.6263L18.1589 51.6498ZM17.7665 42.0908V52.138H18.7665V42.0908H17.7665ZM19.7014 41.5908H18.2665V42.5908H19.7014V41.5908ZM20.2014 43.3269V42.0908H19.2014V43.3269H20.2014ZM19.4609 43.8269H19.7014V42.8269H19.4609V43.8269ZM18.8636 56.2638C18.2354 56.2638 17.6944 55.729 17.6944 55.0362H16.6944C16.6944 56.2486 17.651 57.2638 18.8636 57.2638V56.2638ZM20.0329 55.0362C20.0329 55.729 19.4919 56.2638 18.8636 56.2638V57.2638C20.0762 57.2638 21.0329 56.2486 21.0329 55.0362H20.0329ZM18.8636 53.8088C19.4919 53.8088 20.0329 54.3435 20.0329 55.0362H21.0329C21.0329 53.8239 20.0762 52.8088 18.8636 52.8088V53.8088ZM17.6944 55.0362C17.6944 54.3435 18.2354 53.8088 18.8636 53.8088V52.8088C17.6511 52.8088 16.6944 53.8239 16.6944 55.0362H17.6944Z" fill="white"/>
</svg>
