<svg width="72" height="72" viewBox="0 0 72 72" fill="none" xmlns="http://www.w3.org/2000/svg">
<rect width="72" height="72" fill="#1063FE"/>
<rect opacity="0.0935407" x="44" y="20" width="28" height="52" fill="black"/>
<path fill-rule="evenodd" clip-rule="evenodd" d="M55.4212 44.7023L55.4198 47.9306L52.9542 48.8714C52.7994 49.3672 52.5978 49.8517 52.3518 50.3183L53.4312 52.7293L51.1493 55.0113L48.7385 53.9329C48.2745 54.1762 47.7902 54.3773 47.2913 54.533L46.3497 57H43.1203L42.1813 54.5328C41.6801 54.3766 41.1959 54.1761 40.734 53.933L38.325 55.0114L36.0413 52.7294L37.1209 50.3188C36.8768 49.8562 36.6756 49.372 36.5191 48.8717L34.0527 47.9305V44.7013L36.5191 43.7618C36.6756 43.2609 36.8769 42.7761 37.1209 42.3125L36.0413 39.9041L38.325 37.6193L40.734 38.6994C41.1966 38.456 41.6807 38.2551 42.1813 38.0988L43.1203 35.6316H46.3502L47.2908 38.0988C47.7892 38.2543 48.2743 38.4555 48.7388 38.6998L51.1496 37.6193L53.4315 39.9043L52.3521 42.3128C52.5985 42.7802 52.7997 43.265 52.9548 43.7616L55.4212 44.7023ZM51.6272 48.1241L51.7237 47.7552L53.9377 46.9108L53.9384 45.7242L51.7234 44.8793L51.6271 44.5101C51.4657 43.8921 51.2154 43.2913 50.8835 42.7233L50.6914 42.3941L51.6611 40.2304L50.8225 39.3907L48.6588 40.3611L48.3297 40.1691C47.7677 39.8408 47.1656 39.5907 46.5409 39.4263L46.1732 39.3293L45.3288 37.115H44.1415L43.2988 39.329L42.9306 39.4262C42.3024 39.5918 41.7012 39.8415 41.1442 40.1685L40.8149 40.3613L38.6507 39.3906L37.8115 40.2305L38.7815 42.3947L38.5882 42.724C38.2606 43.2826 38.0109 43.8844 37.8458 44.5122L37.7486 44.8804L35.5347 45.7236V46.9107L37.7486 47.7552L37.8453 48.1227C38.0109 48.7502 38.2611 49.3508 38.5881 49.9083L38.7816 50.2377L37.8116 52.4036L38.6508 53.2424L40.815 52.2736L41.1436 52.4661C41.7004 52.792 42.3014 53.0412 42.9308 53.2073L43.2989 53.3043L44.1417 55.5181H45.3292L46.174 53.3041L46.5417 53.2071C47.1669 53.0419 47.7687 52.7922 48.3305 52.465L48.6589 52.2736L50.8226 53.2422L51.6611 52.4034L50.6915 50.2381L50.8835 49.909C51.2155 49.3424 51.4654 48.7418 51.6272 48.1241Z" fill="white"/>
<path d="M55.4198 47.9306L55.5089 48.1642L55.6697 48.1028L55.6698 47.9307L55.4198 47.9306ZM55.4212 44.7023L55.6712 44.7024L55.6712 44.5301L55.5102 44.4687L55.4212 44.7023ZM52.9542 48.8714L52.8651 48.6378L52.7517 48.6811L52.7156 48.7969L52.9542 48.8714ZM52.3518 50.3183L52.1307 50.2017L52.0739 50.3093L52.1237 50.4204L52.3518 50.3183ZM53.4312 52.7293L53.608 52.906L53.7297 52.7843L53.6594 52.6271L53.4312 52.7293ZM51.1493 55.0113L51.0473 55.2395L51.2044 55.3098L51.3261 55.188L51.1493 55.0113ZM48.7385 53.9329L48.8406 53.7047L48.7298 53.6551L48.6224 53.7115L48.7385 53.9329ZM47.2913 54.533L47.2168 54.2944L47.1009 54.3305L47.0577 54.4439L47.2913 54.533ZM46.3497 57V57.25H46.5219L46.5833 57.0892L46.3497 57ZM43.1203 57L42.8866 57.0889L42.9479 57.25H43.1203V57ZM42.1813 54.5328L42.4149 54.4439L42.3717 54.3303L42.2556 54.2941L42.1813 54.5328ZM40.734 53.933L40.8505 53.7117L40.7429 53.6551L40.6319 53.7048L40.734 53.933ZM38.325 55.0114L38.1483 55.1882L38.2701 55.3099L38.4272 55.2395L38.325 55.0114ZM36.0413 52.7294L35.8132 52.6272L35.7428 52.7844L35.8646 52.9062L36.0413 52.7294ZM37.1209 50.3188L37.349 50.421L37.3988 50.3098L37.342 50.2021L37.1209 50.3188ZM36.5191 48.8717L36.7577 48.797L36.7215 48.6813L36.6082 48.6381L36.5191 48.8717ZM34.0527 47.9305H33.8027V48.1027L33.9636 48.1641L34.0527 47.9305ZM34.0527 44.7013L33.9637 44.4677L33.8027 44.529V44.7013H34.0527ZM36.5191 43.7618L36.6081 43.9954L36.7216 43.9522L36.7577 43.8363L36.5191 43.7618ZM37.1209 42.3125L37.3421 42.429L37.3988 42.3213L37.349 42.2103L37.1209 42.3125ZM36.0413 39.9041L35.8645 39.7273L35.7428 39.8492L35.8132 40.0063L36.0413 39.9041ZM38.325 37.6193L38.4273 37.3912L38.27 37.3207L38.1482 37.4426L38.325 37.6193ZM40.734 38.6994L40.6317 38.9275L40.7428 38.9773L40.8504 38.9206L40.734 38.6994ZM42.1813 38.0988L42.2558 38.3374L42.3717 38.3012L42.4149 38.1877L42.1813 38.0988ZM43.1203 35.6316V35.3816H42.9479L42.8866 35.5427L43.1203 35.6316ZM46.3502 35.6316L46.5838 35.5425L46.5224 35.3816H46.3502V35.6316ZM47.2908 38.0988L47.0572 38.1878L47.1004 38.3013L47.2163 38.3374L47.2908 38.0988ZM48.7388 38.6998L48.6224 38.9211L48.73 38.9777L48.841 38.928L48.7388 38.6998ZM51.1496 37.6193L51.3265 37.4427L51.2047 37.3207L51.0474 37.3912L51.1496 37.6193ZM53.4315 39.9043L53.6596 40.0066L53.73 39.8495L53.6084 39.7277L53.4315 39.9043ZM52.3521 42.3128L52.124 42.2106L52.0742 42.3217L52.131 42.4294L52.3521 42.3128ZM52.9548 43.7616L52.7161 43.8361L52.7523 43.9519L52.8657 43.9952L52.9548 43.7616ZM51.7237 47.7552L51.6346 47.5216L51.5144 47.5674L51.4819 47.6919L51.7237 47.7552ZM51.6272 48.1241L51.869 48.1875L51.8691 48.1874L51.6272 48.1241ZM53.9377 46.9108L54.0268 47.1444L54.1876 47.0831L54.1877 46.911L53.9377 46.9108ZM53.9384 45.7242L54.1884 45.7243L54.1885 45.552L54.0275 45.4906L53.9384 45.7242ZM51.7234 44.8793L51.4815 44.9423L51.5139 45.0669L51.6343 45.1128L51.7234 44.8793ZM51.6271 44.5101L51.869 44.447L51.869 44.4469L51.6271 44.5101ZM50.8835 42.7233L50.6675 42.8493L50.6676 42.8494L50.8835 42.7233ZM50.6914 42.3941L50.4633 42.2919L50.4107 42.4092L50.4755 42.5201L50.6914 42.3941ZM51.6611 40.2304L51.8892 40.3327L51.9596 40.1756L51.838 40.0538L51.6611 40.2304ZM50.8225 39.3907L50.9994 39.214L50.8776 39.092L50.7202 39.1626L50.8225 39.3907ZM48.6588 40.3611L48.5328 40.577L48.6438 40.6418L48.7611 40.5892L48.6588 40.3611ZM48.3297 40.1691L48.2036 40.3849L48.2037 40.385L48.3297 40.1691ZM46.5409 39.4263L46.4772 39.668L46.4773 39.668L46.5409 39.4263ZM46.1732 39.3293L45.9396 39.4183L45.9853 39.5383L46.1094 39.571L46.1732 39.3293ZM45.3288 37.115L45.5624 37.0259L45.501 36.865H45.3288V37.115ZM44.1415 37.115V36.865H43.9692L43.9079 37.026L44.1415 37.115ZM43.2988 39.329L43.3626 39.5707L43.4867 39.5379L43.5324 39.4179L43.2988 39.329ZM42.9306 39.4262L42.9943 39.6679L42.9944 39.6679L42.9306 39.4262ZM41.1442 40.1685L41.2705 40.3842L41.2708 40.3841L41.1442 40.1685ZM40.8149 40.3613L40.7126 40.5894L40.8301 40.6421L40.9412 40.577L40.8149 40.3613ZM38.6507 39.3906L38.753 39.1625L38.5957 39.0919L38.4739 39.2139L38.6507 39.3906ZM37.8115 40.2305L37.6347 40.0538L37.513 40.1757L37.5834 40.3328L37.8115 40.2305ZM38.7815 42.3947L38.9971 42.5212L39.0623 42.41L39.0096 42.2924L38.7815 42.3947ZM38.5882 42.724L38.3726 42.5975L38.3726 42.5975L38.5882 42.724ZM37.8458 44.5122L38.0875 44.576L38.0875 44.5758L37.8458 44.5122ZM37.7486 44.8804L37.8376 45.114L37.9576 45.0683L37.9903 44.9441L37.7486 44.8804ZM35.5347 45.7236L35.4458 45.49L35.2847 45.5513V45.7236H35.5347ZM35.5347 46.9107H35.2847V47.0829L35.4456 47.1443L35.5347 46.9107ZM37.7486 47.7552L37.9904 47.6916L37.9577 47.5674L37.8377 47.5216L37.7486 47.7552ZM37.8453 48.1227L37.6035 48.1863L37.6036 48.1865L37.8453 48.1227ZM38.5881 49.9083L38.3724 50.0348L38.3725 50.035L38.5881 49.9083ZM38.7816 50.2377L39.0097 50.3398L39.0624 50.2222L38.9971 50.111L38.7816 50.2377ZM37.8116 52.4036L37.5835 52.3015L37.5131 52.4587L37.6349 52.5804L37.8116 52.4036ZM38.6508 53.2424L38.4741 53.4192L38.5958 53.5409L38.753 53.4706L38.6508 53.2424ZM40.815 52.2736L40.9414 52.0579L40.8303 51.9928L40.7129 52.0454L40.815 52.2736ZM41.1436 52.4661L41.0173 52.6818L41.0174 52.6819L41.1436 52.4661ZM42.9308 53.2073L42.867 53.449L42.8671 53.449L42.9308 53.2073ZM43.2989 53.3043L43.5326 53.2153L43.4869 53.0952L43.3626 53.0625L43.2989 53.3043ZM44.1417 55.5181L43.908 55.607L43.9694 55.7681H44.1417V55.5181ZM45.3292 55.5181V55.7681H45.5014L45.5628 55.6072L45.3292 55.5181ZM46.174 53.3041L46.1103 53.0623L45.9862 53.0951L45.9405 53.2149L46.174 53.3041ZM46.5417 53.2071L46.6055 53.4488L46.6056 53.4488L46.5417 53.2071ZM48.3305 52.465L48.4563 52.6811L48.4564 52.681L48.3305 52.465ZM48.6589 52.2736L48.761 52.0454L48.6439 51.993L48.533 52.0576L48.6589 52.2736ZM50.8226 53.2422L50.7205 53.4704L50.8777 53.5408L50.9994 53.419L50.8226 53.2422ZM51.6611 52.4034L51.838 52.5802L51.9597 52.4584L51.8893 52.3013L51.6611 52.4034ZM50.6915 50.2381L50.4756 50.1121L50.4108 50.2231L50.4633 50.3403L50.6915 50.2381ZM50.8835 49.909L50.6678 49.7826L50.6676 49.783L50.8835 49.909ZM55.6698 47.9307L55.6712 44.7024L55.1712 44.7022L55.1698 47.9305L55.6698 47.9307ZM53.0434 49.105L55.5089 48.1642L55.3307 47.697L52.8651 48.6378L53.0434 49.105ZM52.573 50.4348C52.8259 49.955 53.0335 49.4564 53.1929 48.9459L52.7156 48.7969C52.5654 49.278 52.3696 49.7484 52.1307 50.2017L52.573 50.4348ZM53.6594 52.6271L52.58 50.2161L52.1237 50.4204L53.203 52.8314L53.6594 52.6271ZM51.3261 55.188L53.608 52.906L53.2544 52.5525L50.9726 54.8345L51.3261 55.188ZM48.6364 54.1611L51.0473 55.2395L51.2514 54.7831L48.8406 53.7047L48.6364 54.1611ZM47.3657 54.7716C47.8791 54.6114 48.3774 54.4046 48.8546 54.1542L48.6224 53.7115C48.1716 53.9479 47.7012 54.1431 47.2168 54.2944L47.3657 54.7716ZM46.5833 57.0892L47.5248 54.6221L47.0577 54.4439L46.1161 56.9109L46.5833 57.0892ZM43.1203 57.25H46.3497V56.75H43.1203V57.25ZM41.9476 54.6217L42.8866 57.0889L43.3539 56.9111L42.4149 54.4439L41.9476 54.6217ZM40.6176 54.1542C41.093 54.4044 41.5913 54.6108 42.1069 54.7715L42.2556 54.2941C41.7688 54.1424 41.2987 53.9477 40.8505 53.7117L40.6176 54.1542ZM38.4272 55.2395L40.8362 54.1611L40.6319 53.7048L38.2229 54.7832L38.4272 55.2395ZM35.8646 52.9062L38.1483 55.1882L38.5017 54.8345L36.2181 52.5525L35.8646 52.9062ZM36.8927 50.2166L35.8132 52.6272L36.2695 52.8315L37.349 50.421L36.8927 50.2166ZM36.2805 48.9463C36.4415 49.461 36.6485 49.9593 36.8998 50.4355L37.342 50.2021C37.105 49.7531 36.9097 49.2829 36.7577 48.797L36.2805 48.9463ZM33.9636 48.1641L36.43 49.1052L36.6082 48.6381L34.1419 47.6969L33.9636 48.1641ZM33.8027 44.7013V47.9305H34.3027V44.7013H33.8027ZM36.4301 43.5282L33.9637 44.4677L34.1417 44.9349L36.6081 43.9954L36.4301 43.5282ZM36.8996 42.1961C36.6486 42.6731 36.4414 43.1719 36.2805 43.6872L36.7577 43.8363C36.9097 43.3499 37.1052 42.8791 37.3421 42.429L36.8996 42.1961ZM35.8132 40.0063L36.8927 42.4148L37.349 42.2103L36.2695 39.8018L35.8132 40.0063ZM38.1482 37.4426L35.8645 39.7273L36.2182 40.0808L38.5018 37.7961L38.1482 37.4426ZM40.8363 38.4713L38.4273 37.3912L38.2227 37.8474L40.6317 38.9275L40.8363 38.4713ZM42.1068 37.8601C41.5918 38.0209 41.0936 38.2277 40.6176 38.4781L40.8504 38.9206C41.2996 38.6843 41.7696 38.4892 42.2558 38.3374L42.1068 37.8601ZM42.8866 35.5427L41.9476 38.0099L42.4149 38.1877L43.3539 35.7205L42.8866 35.5427ZM46.3502 35.3816H43.1203V35.8816H46.3502V35.3816ZM47.5244 38.0097L46.5838 35.5425L46.1166 35.7207L47.0572 38.1878L47.5244 38.0097ZM48.8551 38.4786C48.3772 38.2272 47.8782 38.0202 47.3653 37.8601L47.2163 38.3374C47.7003 38.4885 48.1713 38.6838 48.6224 38.9211L48.8551 38.4786ZM51.0474 37.3912L48.6365 38.4717L48.841 38.928L51.2519 37.8475L51.0474 37.3912ZM53.6084 39.7277L51.3265 37.4427L50.9727 37.796L53.2546 40.081L53.6084 39.7277ZM52.5802 42.415L53.6596 40.0066L53.2033 39.8021L52.124 42.2106L52.5802 42.415ZM53.1934 43.6871C53.0338 43.176 52.8267 42.677 52.5733 42.1962L52.131 42.4294C52.3703 42.8833 52.5656 43.3541 52.7161 43.8361L53.1934 43.6871ZM55.5102 44.4687L53.0439 43.528L52.8657 43.9952L55.3321 44.9359L55.5102 44.4687ZM51.4819 47.6919L51.3853 48.0608L51.8691 48.1874L51.9656 47.8185L51.4819 47.6919ZM53.8486 46.6772L51.6346 47.5216L51.8128 47.9888L54.0268 47.1444L53.8486 46.6772ZM53.6884 45.724L53.6877 46.9107L54.1877 46.911L54.1884 45.7243L53.6884 45.724ZM51.6343 45.1128L53.8493 45.9578L54.0275 45.4906L51.8125 44.6457L51.6343 45.1128ZM51.3852 44.5731L51.4815 44.9423L51.9653 44.8162L51.869 44.447L51.3852 44.5731ZM50.6676 42.8494C50.9884 43.3984 51.2298 43.9781 51.3852 44.5732L51.869 44.4469C51.7016 43.8061 51.4424 43.1842 51.0993 42.5971L50.6676 42.8494ZM50.4755 42.5201L50.6675 42.8493L51.0994 42.5973L50.9073 42.2681L50.4755 42.5201ZM51.4329 40.1282L50.4633 42.2919L50.9196 42.4964L51.8892 40.3327L51.4329 40.1282ZM50.6456 39.5673L51.4841 40.4071L51.838 40.0538L50.9994 39.214L50.6456 39.5673ZM48.7611 40.5892L50.9248 39.6188L50.7202 39.1626L48.5565 40.133L48.7611 40.5892ZM48.2037 40.385L48.5328 40.577L48.7848 40.1452L48.4557 39.9531L48.2037 40.385ZM46.4773 39.668C47.0799 39.8266 47.661 40.068 48.2036 40.3849L48.4558 39.9532C47.8745 39.6137 47.2514 39.3547 46.6045 39.1845L46.4773 39.668ZM46.1094 39.571L46.4772 39.668L46.6047 39.1845L46.237 39.0875L46.1094 39.571ZM45.0952 37.2041L45.9396 39.4183L46.4068 39.2402L45.5624 37.0259L45.0952 37.2041ZM44.1415 37.365H45.3288V36.865H44.1415V37.365ZM43.5324 39.4179L44.3752 37.2039L43.9079 37.026L43.0651 39.2401L43.5324 39.4179ZM42.9944 39.6679L43.3626 39.5707L43.235 39.0873L42.8668 39.1844L42.9944 39.6679ZM41.2708 40.3841C41.808 40.0687 42.388 39.8278 42.9943 39.6679L42.8669 39.1844C42.2168 39.3558 41.5944 39.6143 41.0176 39.9529L41.2708 40.3841ZM40.9412 40.577L41.2705 40.3842L41.0179 39.9528L40.6886 40.1455L40.9412 40.577ZM38.5484 39.6187L40.7126 40.5894L40.9172 40.1332L38.753 39.1625L38.5484 39.6187ZM37.9884 40.4072L38.8276 39.5673L38.4739 39.2139L37.6347 40.0538L37.9884 40.4072ZM39.0096 42.2924L38.0397 40.1283L37.5834 40.3328L38.5533 42.4969L39.0096 42.2924ZM38.8039 42.8505L38.9971 42.5212L38.5658 42.2682L38.3726 42.5975L38.8039 42.8505ZM38.0875 44.5758C38.2469 43.9699 38.4878 43.3893 38.8039 42.8505L38.3726 42.5975C38.0334 43.1759 37.7749 43.7989 37.604 44.4486L38.0875 44.5758ZM37.9903 44.9441L38.0875 44.576L37.604 44.4484L37.5069 44.8166L37.9903 44.9441ZM35.6237 45.9572L37.8376 45.114L37.6596 44.6467L35.4458 45.49L35.6237 45.9572ZM35.7847 46.9107V45.7236H35.2847V46.9107H35.7847ZM37.8377 47.5216L35.6238 46.6771L35.4456 47.1443L37.6595 47.9888L37.8377 47.5216ZM38.0871 48.0591L37.9904 47.6916L37.5068 47.8188L37.6035 48.1863L38.0871 48.0591ZM38.8037 49.7819C38.4882 49.244 38.2468 48.6644 38.087 48.0589L37.6036 48.1865C37.775 48.836 38.0339 49.4577 38.3724 50.0348L38.8037 49.7819ZM38.9971 50.111L38.8036 49.7817L38.3725 50.035L38.566 50.3643L38.9971 50.111ZM38.0398 52.5058L39.0097 50.3398L38.5534 50.1355L37.5835 52.3015L38.0398 52.5058ZM38.8276 53.0656L37.9884 52.2268L37.6349 52.5804L38.4741 53.4192L38.8276 53.0656ZM40.7129 52.0454L38.5487 53.0142L38.753 53.4706L40.9171 52.5018L40.7129 52.0454ZM41.27 52.2504L40.9414 52.0579L40.6886 52.4893L41.0173 52.6818L41.27 52.2504ZM42.9946 52.9655C42.3869 52.8052 41.8069 52.5646 41.2699 52.2504L41.0174 52.6819C41.5938 53.0193 42.2159 53.2772 42.867 53.449L42.9946 52.9655ZM43.3626 53.0625L42.9945 52.9655L42.8671 53.449L43.2353 53.546L43.3626 53.0625ZM44.3753 55.4291L43.5326 53.2153L43.0653 53.3932L43.908 55.607L44.3753 55.4291ZM45.3292 55.2681H44.1417V55.7681H45.3292V55.2681ZM45.9405 53.2149L45.0956 55.429L45.5628 55.6072L46.4076 53.3932L45.9405 53.2149ZM46.478 52.9654L46.1103 53.0623L46.2378 53.5458L46.6055 53.4488L46.478 52.9654ZM48.2047 52.249C47.6621 52.565 47.0812 52.806 46.4779 52.9654L46.6056 53.4488C47.2526 53.2779 47.8752 53.0195 48.4563 52.6811L48.2047 52.249ZM48.533 52.0576L48.2046 52.249L48.4564 52.681L48.7848 52.4896L48.533 52.0576ZM50.9248 53.014L48.761 52.0454L48.5567 52.5018L50.7205 53.4704L50.9248 53.014ZM51.4843 52.2267L50.6458 53.0655L50.9994 53.419L51.838 52.5802L51.4843 52.2267ZM50.4633 50.3403L51.433 52.5056L51.8893 52.3013L50.9197 50.1359L50.4633 50.3403ZM50.6676 49.783L50.4756 50.1121L50.9074 50.3641L51.0995 50.035L50.6676 49.783ZM51.3854 48.0607C51.2294 48.6559 50.9885 49.2353 50.6678 49.7826L51.0993 50.0354C51.4425 49.4495 51.7013 48.8278 51.869 48.1875L51.3854 48.0607Z" fill="white"/>
<path fill-rule="evenodd" clip-rule="evenodd" d="M47.3077 21.7641H20.7979V48.8832H30.1184V50.3684H19.3159V21.7641V20.2788V15H48.7896V20.2788V21.7641V32.0177H47.3077V21.7641ZM47.3077 16.4852H20.7979V20.2788H47.3077V16.4852Z" fill="white"/>
<path d="M20.7979 21.7641V21.2641H20.2979V21.7641H20.7979ZM47.3077 21.7641H47.8077V21.2641H47.3077V21.7641ZM20.7979 48.8832H20.2979V49.3832H20.7979V48.8832ZM30.1184 48.8832H30.6184V48.3832H30.1184V48.8832ZM30.1184 50.3684V50.8684H30.6184V50.3684H30.1184ZM19.3159 50.3684H18.8159V50.8684H19.3159V50.3684ZM19.3159 15V14.5H18.8159V15H19.3159ZM48.7896 15H49.2896V14.5H48.7896V15ZM48.7896 32.0177V32.5177H49.2896V32.0177H48.7896ZM47.3077 32.0177H46.8077V32.5177H47.3077V32.0177ZM20.7979 16.4852V15.9852H20.2979V16.4852H20.7979ZM47.3077 16.4852H47.8077V15.9852H47.3077V16.4852ZM20.7979 20.2788H20.2979V20.7788H20.7979V20.2788ZM47.3077 20.2788V20.7788H47.8077V20.2788H47.3077ZM20.7979 22.2641H47.3077V21.2641H20.7979V22.2641ZM21.2979 48.8832V21.7641H20.2979V48.8832H21.2979ZM30.1184 48.3832H20.7979V49.3832H30.1184V48.3832ZM30.6184 50.3684V48.8832H29.6184V50.3684H30.6184ZM19.3159 50.8684H30.1184V49.8684H19.3159V50.8684ZM18.8159 21.7641V50.3684H19.8159V21.7641H18.8159ZM18.8159 20.2788V21.7641H19.8159V20.2788H18.8159ZM18.8159 15V20.2788H19.8159V15H18.8159ZM48.7896 14.5H19.3159V15.5H48.7896V14.5ZM49.2896 20.2788V15H48.2896V20.2788H49.2896ZM49.2896 21.7641V20.2788H48.2896V21.7641H49.2896ZM49.2896 32.0177V21.7641H48.2896V32.0177H49.2896ZM47.3077 32.5177H48.7896V31.5177H47.3077V32.5177ZM46.8077 21.7641V32.0177H47.8077V21.7641H46.8077ZM20.7979 16.9852H47.3077V15.9852H20.7979V16.9852ZM21.2979 20.2788V16.4852H20.2979V20.2788H21.2979ZM47.3077 19.7788H20.7979V20.7788H47.3077V19.7788ZM46.8077 16.4852V20.2788H47.8077V16.4852H46.8077Z" fill="white"/>
</svg>
