<svg width="41" height="40" viewBox="0 0 41 40" fill="none" xmlns="http://www.w3.org/2000/svg">
<path fill-rule="evenodd" clip-rule="evenodd" d="M36.4615 31.0565C36.1938 31.6629 36.3222 32.3713 36.7858 32.8452L36.8448 32.9041C37.2139 33.2728 37.4212 33.7731 37.4212 34.2948C37.4212 34.8165 37.2139 35.3168 36.8448 35.6854C36.4761 36.0545 35.9758 36.2619 35.4541 36.2619C34.9324 36.2619 34.4321 36.0545 34.0634 35.6854L34.0045 35.6265C33.5306 35.1629 32.8222 35.0345 32.2158 35.3022C31.6217 35.5568 31.2355 36.1399 31.233 36.7862V36.9533C31.233 38.0388 30.3529 38.9189 29.2674 38.9189C28.1818 38.9189 27.3018 38.0388 27.3018 36.9533V36.8648C27.2862 36.1991 26.8653 35.6106 26.2403 35.3808C25.6339 35.1131 24.9255 35.2415 24.4516 35.7051L24.3927 35.7641C24.024 36.1332 23.5237 36.3406 23.002 36.3406C22.4803 36.3406 21.98 36.1332 21.6113 35.7641C21.2422 35.3954 21.0349 34.8951 21.0349 34.3734C21.0349 33.8517 21.2422 33.3514 21.6113 32.9827L21.6703 32.9238C22.1339 32.4499 22.2623 31.7416 21.9946 31.1351C21.74 30.541 21.1569 30.1549 20.5106 30.1523H20.3435C19.258 30.1523 18.3779 29.2722 18.3779 28.1867C18.3779 27.1011 19.258 26.2211 20.3435 26.2211H20.432C21.0977 26.2055 21.6862 25.7846 21.916 25.1596C22.1837 24.5532 22.0552 23.8448 21.5917 23.371L21.5327 23.312C21.1636 22.9433 20.9562 22.443 20.9562 21.9213C20.9562 21.3996 21.1636 20.8993 21.5327 20.5307C21.9014 20.1616 22.4017 19.9542 22.9234 19.9542C23.4451 19.9542 23.9454 20.1616 24.314 20.5307L24.373 20.5896C24.8469 21.0532 25.5552 21.1816 26.1617 20.9139H26.2403C26.8344 20.6593 27.2206 20.0763 27.2231 19.4299V19.2628C27.2231 18.1773 28.1032 17.2972 29.1887 17.2972C30.2743 17.2972 31.1543 18.1773 31.1543 19.2628V19.3513C31.1569 19.9976 31.5431 20.5807 32.1371 20.8353C32.7436 21.103 33.4519 20.9746 33.9258 20.511L33.9848 20.452C34.3535 20.0829 34.8538 19.8755 35.3755 19.8755C35.8972 19.8755 36.3975 20.0829 36.7661 20.452C37.1352 20.8207 37.3426 21.321 37.3426 21.8427C37.3426 22.3644 37.1352 22.8647 36.7661 23.2334L36.7072 23.2923C36.2436 23.7662 36.1152 24.4745 36.3828 25.081V25.1596C36.6375 25.7537 37.2205 26.1399 37.8669 26.1425H38.0339C39.1195 26.1425 39.9996 27.0225 39.9996 28.1081C39.9996 29.1936 39.1195 30.0737 38.0339 30.0737H37.9455C37.2992 30.0762 36.7161 30.4624 36.4615 31.0565Z" fill="#FFB79E"/>
<path fill-rule="evenodd" clip-rule="evenodd" d="M27.1253 20.6388C26.7238 21.5485 26.9165 22.611 27.6118 23.3219L27.7002 23.4103C28.2539 23.9633 28.565 24.7138 28.565 25.4963C28.565 26.2788 28.2539 27.0293 27.7002 27.5823C27.1472 28.136 26.3968 28.447 25.6143 28.447C24.8317 28.447 24.0813 28.136 23.5283 27.5823L23.4398 27.4939C22.729 26.7985 21.6665 26.6059 20.7568 27.0074C19.8656 27.3893 19.2864 28.2639 19.2826 29.2334V29.484C19.2826 31.1124 17.9625 32.4324 16.3342 32.4324C14.7058 32.4324 13.3857 31.1124 13.3857 29.484V29.3514C13.3624 28.3528 12.731 27.4701 11.7936 27.1253C10.8839 26.7238 9.82141 26.9165 9.11057 27.6118L9.02211 27.7002C8.46909 28.2539 7.71865 28.565 6.93612 28.565C6.15358 28.565 5.40315 28.2539 4.85012 27.7002C4.29648 27.1472 3.9854 26.3968 3.9854 25.6143C3.9854 24.8317 4.29648 24.0813 4.85012 23.5283L4.93857 23.4398C5.63391 22.729 5.82655 21.6665 5.42506 20.7568C5.04314 19.8656 4.16852 19.2864 3.19902 19.2826H2.9484C1.32004 19.2826 0 17.9625 0 16.3342C0 14.7058 1.32004 13.3857 2.9484 13.3857H3.08108C4.0796 13.3624 4.96236 12.731 5.30713 11.7936C5.70862 10.8839 5.51597 9.82141 4.82064 9.11057L4.73219 9.02211C4.17854 8.46909 3.86746 7.71865 3.86746 6.93612C3.86746 6.15358 4.17854 5.40315 4.73219 4.85012C5.28521 4.29648 6.03565 3.9854 6.81818 3.9854C7.60072 3.9854 8.35115 4.29648 8.90418 4.85012L8.99263 4.93857C9.70347 5.63391 10.766 5.82655 11.6757 5.42506H11.7936C12.6847 5.04314 13.2639 4.16852 13.2678 3.19902V2.9484C13.2678 1.32004 14.5879 0 16.2162 0C17.8446 0 19.1646 1.32004 19.1646 2.9484V3.08108C19.1685 4.05058 19.7477 4.92521 20.6388 5.30713C21.5485 5.70862 22.611 5.51597 23.3219 4.82064L23.4103 4.73219C23.9633 4.17854 24.7138 3.86746 25.4963 3.86746C26.2788 3.86746 27.0293 4.17854 27.5823 4.73219C28.136 5.28521 28.447 6.03565 28.447 6.81818C28.447 7.60072 28.136 8.35115 27.5823 8.90418L27.4939 8.99263C26.7985 9.70347 26.6059 10.766 27.0074 11.6757V11.7936C27.3893 12.6847 28.2639 13.2639 29.2334 13.2678H29.484C31.1124 13.2678 32.4324 14.5879 32.4324 16.2162C32.4324 17.8446 31.1124 19.1646 29.484 19.1646H29.3514C28.3819 19.1685 27.5072 19.7477 27.1253 20.6388Z" fill="#70C9FE"/>
<mask id="mask0" mask-type="alpha" maskUnits="userSpaceOnUse" x="0" y="0" width="33" height="33">
<path fill-rule="evenodd" clip-rule="evenodd" d="M27.1253 20.6388C26.7238 21.5485 26.9165 22.611 27.6118 23.3219L27.7002 23.4103C28.2539 23.9633 28.565 24.7138 28.565 25.4963C28.565 26.2788 28.2539 27.0293 27.7002 27.5823C27.1472 28.136 26.3968 28.447 25.6143 28.447C24.8317 28.447 24.0813 28.136 23.5283 27.5823L23.4398 27.4939C22.729 26.7985 21.6665 26.6059 20.7568 27.0074C19.8656 27.3893 19.2864 28.2639 19.2826 29.2334V29.484C19.2826 31.1124 17.9625 32.4324 16.3342 32.4324C14.7058 32.4324 13.3857 31.1124 13.3857 29.484V29.3514C13.3624 28.3528 12.731 27.4701 11.7936 27.1253C10.8839 26.7238 9.82141 26.9165 9.11057 27.6118L9.02211 27.7002C8.46909 28.2539 7.71865 28.565 6.93612 28.565C6.15358 28.565 5.40315 28.2539 4.85012 27.7002C4.29648 27.1472 3.9854 26.3968 3.9854 25.6143C3.9854 24.8317 4.29648 24.0813 4.85012 23.5283L4.93857 23.4398C5.63391 22.729 5.82655 21.6665 5.42506 20.7568C5.04314 19.8656 4.16852 19.2864 3.19902 19.2826H2.9484C1.32004 19.2826 0 17.9625 0 16.3342C0 14.7058 1.32004 13.3857 2.9484 13.3857H3.08108C4.0796 13.3624 4.96236 12.731 5.30713 11.7936C5.70862 10.8839 5.51597 9.82141 4.82064 9.11057L4.73219 9.02211C4.17854 8.46909 3.86746 7.71865 3.86746 6.93612C3.86746 6.15358 4.17854 5.40315 4.73219 4.85012C5.28521 4.29648 6.03565 3.9854 6.81818 3.9854C7.60072 3.9854 8.35115 4.29648 8.90418 4.85012L8.99263 4.93857C9.70347 5.63391 10.766 5.82655 11.6757 5.42506H11.7936C12.6847 5.04314 13.2639 4.16852 13.2678 3.19902V2.9484C13.2678 1.32004 14.5879 0 16.2162 0C17.8446 0 19.1646 1.32004 19.1646 2.9484V3.08108C19.1685 4.05058 19.7477 4.92521 20.6388 5.30713C21.5485 5.70862 22.611 5.51597 23.3219 4.82064L23.4103 4.73219C23.9633 4.17854 24.7138 3.86746 25.4963 3.86746C26.2788 3.86746 27.0293 4.17854 27.5823 4.73219C28.136 5.28521 28.447 6.03565 28.447 6.81818C28.447 7.60072 28.136 8.35115 27.5823 8.90418L27.4939 8.99263C26.7985 9.70347 26.6059 10.766 27.0074 11.6757V11.7936C27.3893 12.6847 28.2639 13.2639 29.2334 13.2678H29.484C31.1124 13.2678 32.4324 14.5879 32.4324 16.2162C32.4324 17.8446 31.1124 19.1646 29.484 19.1646H29.3514C28.3819 19.1685 27.5072 19.7477 27.1253 20.6388Z" fill="white"/>
</mask>
<g mask="url(#mask0)">
<circle cx="16.2165" cy="16.2162" r="4.4226" fill="#F7FAFF"/>
<g style="mix-blend-mode:hard-light">
<path fill-rule="evenodd" clip-rule="evenodd" d="M36.4615 31.0565C36.1938 31.6629 36.3222 32.3713 36.7858 32.8452L36.8448 32.9041C37.2139 33.2728 37.4212 33.7731 37.4212 34.2948C37.4212 34.8165 37.2139 35.3168 36.8448 35.6854C36.4761 36.0545 35.9758 36.2619 35.4541 36.2619C34.9324 36.2619 34.4321 36.0545 34.0634 35.6854L34.0045 35.6265C33.5306 35.1629 32.8222 35.0345 32.2158 35.3022C31.6217 35.5568 31.2355 36.1399 31.233 36.7862V36.9533C31.233 38.0388 30.3529 38.9189 29.2674 38.9189C28.1818 38.9189 27.3018 38.0388 27.3018 36.9533V36.8648C27.2862 36.1991 26.8653 35.6106 26.2403 35.3808C25.6339 35.1131 24.9255 35.2415 24.4516 35.7051L24.3927 35.7641C24.024 36.1332 23.5237 36.3406 23.002 36.3406C22.4803 36.3406 21.98 36.1332 21.6113 35.7641C21.2422 35.3954 21.0349 34.8951 21.0349 34.3734C21.0349 33.8517 21.2422 33.3514 21.6113 32.9827L21.6703 32.9238C22.1339 32.4499 22.2623 31.7416 21.9946 31.1351C21.74 30.541 21.1569 30.1549 20.5106 30.1523H20.3435C19.258 30.1523 18.3779 29.2722 18.3779 28.1867C18.3779 27.1011 19.258 26.2211 20.3435 26.2211H20.432C21.0977 26.2055 21.6862 25.7846 21.916 25.1596C22.1837 24.5532 22.0552 23.8448 21.5917 23.371L21.5327 23.312C21.1636 22.9433 20.9562 22.443 20.9562 21.9213C20.9562 21.3996 21.1636 20.8993 21.5327 20.5307C21.9014 20.1616 22.4017 19.9542 22.9234 19.9542C23.4451 19.9542 23.9454 20.1616 24.314 20.5307L24.373 20.5896C24.8469 21.0532 25.5552 21.1816 26.1617 20.9139H26.2403C26.8344 20.6593 27.2206 20.0763 27.2231 19.4299V19.2628C27.2231 18.1773 28.1032 17.2972 29.1887 17.2972C30.2743 17.2972 31.1543 18.1773 31.1543 19.2628V19.3513C31.1569 19.9976 31.5431 20.5807 32.1371 20.8353C32.7436 21.103 33.4519 20.9746 33.9258 20.511L33.9848 20.452C34.3535 20.0829 34.8538 19.8755 35.3755 19.8755C35.8972 19.8755 36.3975 20.0829 36.7661 20.452C37.1352 20.8207 37.3426 21.321 37.3426 21.8427C37.3426 22.3644 37.1352 22.8647 36.7661 23.2334L36.7072 23.2923C36.2436 23.7662 36.1152 24.4745 36.3828 25.081V25.1596C36.6375 25.7537 37.2205 26.1399 37.8669 26.1425H38.0339C39.1195 26.1425 39.9996 27.0225 39.9996 28.1081C39.9996 29.1936 39.1195 30.0737 38.0339 30.0737H37.9455C37.2992 30.0762 36.7161 30.4624 36.4615 31.0565Z" fill="#EC6F43"/>
</g>
</g>
<g style="mix-blend-mode:hard-light">
<circle cx="29.1886" cy="28.1081" r="2.9484" fill="#F7FAFF"/>
</g>
</svg>
