<svg width="92" height="92" viewBox="0 0 92 92" fill="none" xmlns="http://www.w3.org/2000/svg">
<path fill-rule="evenodd" clip-rule="evenodd" d="M77.1613 78.6452C77.1613 77.8246 76.4965 77.1613 75.6774 77.1613H71.2258V66.7742C71.2258 65.9536 70.561 65.2903 69.7419 65.2903H65.2903V57.871C65.2903 57.0504 64.6255 56.3871 63.8064 56.3871H62.3226V41.5484C62.3226 40.7293 61.6578 40.0645 60.8387 40.0645H59.3548V29.6774C59.3548 28.8583 58.6901 28.1935 57.871 28.1935H56.3871V23.7419C56.3871 22.9228 55.7223 22.2581 54.9032 22.2581H50.4516V14.8387C50.4516 12.9067 49.2066 11.2745 47.4839 10.6601V0H44.5161V10.6601C42.7934 11.2745 41.5484 12.9067 41.5484 14.8387V22.2581H37.0968C36.2777 22.2581 35.6129 22.9228 35.6129 23.7419V28.1935H34.129C33.3099 28.1935 32.6452 28.8583 32.6452 29.6774V40.0645H31.1613C30.3422 40.0645 29.6774 40.7293 29.6774 41.5484V56.3871H28.1935C27.3745 56.3871 26.7097 57.0504 26.7097 57.871V65.2903H22.2581C21.439 65.2903 20.7742 65.9536 20.7742 66.7742V77.1613H16.3226C15.5035 77.1613 14.8387 77.8246 14.8387 78.6452V89.0323H0V92H16.3226H75.6774H92V89.0323H77.1613V78.6452ZM53.4194 83.0968V80.129H57.871H63.8064H69.7419H74.1935V83.0968H53.4194ZM56.3871 77.1613V68.2581H35.6129V77.1613H56.3871ZM62.3226 59.3548V66.7742V77.1613H59.3548V59.3548H62.3226ZM50.4516 80.129H41.5484V89.0323H50.4516V80.129ZM68.2581 68.2581V77.1613H65.2903V68.2581H68.2581ZM56.3871 57.871C56.3871 57.0504 57.0519 56.3871 57.871 56.3871H59.3548V43.0323H53.4194V65.2903H56.3871V57.871ZM53.4194 40.0645V31.1613H56.3871V40.0645H53.4194ZM46 13.3548C45.1824 13.3548 44.5161 14.0211 44.5161 14.8387V22.2581H47.4839V14.8387C47.4839 14.0211 46.8176 13.3548 46 13.3548ZM38.5806 25.2258H53.4194V28.1936H51.9355C51.1164 28.1936 50.4516 28.8583 50.4516 29.6774V41.5484V65.2903H41.5484V41.5484V29.6774C41.5484 28.8583 40.8836 28.1936 40.0645 28.1936H38.5806V25.2258ZM38.5806 31.1613H35.6129V40.0645H38.5806V31.1613ZM32.6452 43.0323H38.5806V65.2903H35.6129V57.871C35.6129 57.0504 34.9481 56.3871 34.129 56.3871H32.6452V43.0323ZM32.6452 59.3548H29.6774V66.7742V77.1613H32.6452V59.3548ZM23.7419 68.2581H26.7097V77.1613H23.7419V68.2581ZM28.1935 80.129H22.2581H17.8065V83.0968H38.5806V80.129H34.129H28.1935ZM17.8065 86.0645H38.5806V89.0323H17.8065V86.0645ZM53.4194 86.0645V89.0323H74.1935V86.0645H53.4194Z" fill="black"/>
</svg>
