<svg width="72" height="72" viewBox="0 0 72 72" fill="none" xmlns="http://www.w3.org/2000/svg">
<rect width="72" height="72" fill="#1063FE"/>
<rect opacity="0.220447" x="44" y="20" width="28" height="52" fill="#0531AD"/>
<path fill-rule="evenodd" clip-rule="evenodd" d="M37.5245 17.0222C37.8982 16.9531 38.2848 17.053 38.5766 17.2936C38.871 17.5368 39.04 17.8978 39.04 18.2792V54.1192C39.04 54.4981 38.871 54.8616 38.5766 55.1048C38.3462 55.2968 38.0544 55.3992 37.76 55.3992C37.6832 55.3992 37.6013 55.3915 37.5245 55.3762L17.0445 51.5362C16.4378 51.4235 16 50.8936 16 50.2792V22.1192C16 21.5022 16.4378 20.9749 17.0445 20.8622L37.5245 17.0222ZM18.56 49.2168L36.48 52.5755V19.8229L18.56 23.1816V49.2168Z" fill="white"/>
<path d="M55.68 22.1192H37.76C37.0534 22.1192 36.48 22.6926 36.48 23.3992C36.48 24.1058 37.0534 24.6792 37.76 24.6792H54.4V47.7192H37.76C37.0534 47.7192 36.48 48.2926 36.48 48.9992C36.48 49.7058 37.0534 50.2792 37.76 50.2792H55.68C56.3865 50.2792 56.96 49.7058 56.96 48.9992V23.3992C56.96 22.6926 56.3865 22.1192 55.68 22.1192Z" fill="white"/>
<path d="M42.88 27.2392H37.76C37.0534 27.2392 36.48 27.8126 36.48 28.5192C36.48 29.2258 37.0534 29.7992 37.76 29.7992H42.88C43.5865 29.7992 44.16 29.2258 44.16 28.5192C44.16 27.8126 43.5865 27.2392 42.88 27.2392Z" fill="white"/>
<path d="M42.88 32.3592H37.76C37.0534 32.3592 36.48 32.9326 36.48 33.6392C36.48 34.3458 37.0534 34.9192 37.76 34.9192H42.88C43.5865 34.9192 44.16 34.3458 44.16 33.6392C44.16 32.9326 43.5865 32.3592 42.88 32.3592Z" fill="white"/>
<path d="M42.88 37.4792H37.76C37.0534 37.4792 36.48 38.0526 36.48 38.7592C36.48 39.4657 37.0534 40.0392 37.76 40.0392H42.88C43.5865 40.0392 44.16 39.4657 44.16 38.7592C44.16 38.0526 43.5865 37.4792 42.88 37.4792Z" fill="white"/>
<path d="M42.88 42.5992H37.76C37.0534 42.5992 36.48 43.1726 36.48 43.8792C36.48 44.5857 37.0534 45.1592 37.76 45.1592H42.88C43.5865 45.1592 44.16 44.5857 44.16 43.8792C44.16 43.1726 43.5865 42.5992 42.88 42.5992Z" fill="white"/>
<path d="M50.5602 27.2392H48.0002C47.2937 27.2392 46.7202 27.8126 46.7202 28.5192C46.7202 29.2258 47.2937 29.7992 48.0002 29.7992H50.5602C51.2668 29.7992 51.8402 29.2258 51.8402 28.5192C51.8402 27.8126 51.2668 27.2392 50.5602 27.2392Z" fill="white"/>
<path d="M50.5602 32.3592H48.0002C47.2937 32.3592 46.7202 32.9326 46.7202 33.6392C46.7202 34.3458 47.2937 34.9192 48.0002 34.9192H50.5602C51.2668 34.9192 51.8402 34.3458 51.8402 33.6392C51.8402 32.9326 51.2668 32.3592 50.5602 32.3592Z" fill="white"/>
<path d="M50.5602 37.4792H48.0002C47.2937 37.4792 46.7202 38.0526 46.7202 38.7592C46.7202 39.4657 47.2937 40.0392 48.0002 40.0392H50.5602C51.2668 40.0392 51.8402 39.4657 51.8402 38.7592C51.8402 38.0526 51.2668 37.4792 50.5602 37.4792Z" fill="white"/>
<path d="M50.5602 42.5992H48.0002C47.2937 42.5992 46.7202 43.1726 46.7202 43.8792C46.7202 44.5857 47.2937 45.1592 48.0002 45.1592H50.5602C51.2668 45.1592 51.8402 44.5857 51.8402 43.8792C51.8402 43.1726 51.2668 42.5992 50.5602 42.5992Z" fill="white"/>
<path d="M33.6052 40.477L24.6452 30.237C24.1741 29.7019 23.3677 29.6507 22.8378 30.1167C22.3053 30.5826 22.2516 31.3915 22.7175 31.9215L31.6775 42.1615C31.9309 42.4507 32.2842 42.5992 32.64 42.5992C32.9396 42.5992 33.2391 42.4943 33.4848 42.2818C34.0173 41.8159 34.0711 41.0095 33.6052 40.477Z" fill="white"/>
<path d="M33.4259 28.7906C32.8678 28.3528 32.0639 28.4578 31.6287 29.0133L22.6687 40.5333C22.2361 41.0914 22.3359 41.8978 22.894 42.3304C23.1295 42.5122 23.406 42.5992 23.6799 42.5992C24.0588 42.5992 24.4377 42.4302 24.6886 42.1077L33.6486 30.5877C34.0838 30.027 33.9839 29.2232 33.4259 28.7906Z" fill="white"/>
</svg>
