<svg width="100" height="100" viewBox="0 0 100 100" fill="none" xmlns="http://www.w3.org/2000/svg">
<path fill-rule="evenodd" clip-rule="evenodd" d="M50 100C77.6142 100 100 77.6142 100 50C100 22.3858 77.6142 0 50 0C22.3858 0 0 22.3858 0 50C0 77.6142 22.3858 100 50 100Z" fill="#1063FE"/>
<mask id="mask0" mask-type="alpha" maskUnits="userSpaceOnUse" x="0" y="0" width="100" height="100">
<path fill-rule="evenodd" clip-rule="evenodd" d="M50 100C77.6142 100 100 77.6142 100 50C100 22.3858 77.6142 0 50 0C22.3858 0 0 22.3858 0 50C0 77.6142 22.3858 100 50 100Z" fill="white"/>
</mask>
<g mask="url(#mask0)">
<path opacity="0.22" fill-rule="evenodd" clip-rule="evenodd" d="M49.5833 58.75L49.5833 -16.25H147.083V58.75L49.5833 58.75Z" fill="#0531AD"/>
<path fill-rule="evenodd" clip-rule="evenodd" d="M31.8628 29.4119L58.8235 83.3334H4.90198L31.8628 29.4119Z" stroke="white" stroke-width="7"/>
</g>
</svg>
