<svg width="21" height="23" viewBox="0 0 21 23" fill="none" xmlns="http://www.w3.org/2000/svg">
<path fill-rule="evenodd" clip-rule="evenodd" d="M19.48 15.3712V7.15789C19.4792 6.42506 19.088 5.74818 18.4533 5.38176L11.2667 1.27509C10.6314 0.908302 9.84864 0.908302 9.21333 1.27509L2.02667 5.38176C1.39201 5.74818 1.00075 6.42506 1 7.15789V15.3712C1.00075 16.1041 1.39201 16.7809 2.02667 17.1474L9.21333 21.254C9.84864 21.6208 10.6314 21.6208 11.2667 21.254L18.4533 17.1474C19.088 16.7809 19.4792 16.1041 19.48 15.3712Z" stroke="#5E4BEF" stroke-width="1.5" stroke-linecap="round" stroke-linejoin="round"/>
<path opacity="0.4" fill-rule="evenodd" clip-rule="evenodd" d="M14.24 13.2651V9.26424C14.2397 8.90727 14.0703 8.57755 13.7956 8.39906L10.6844 6.39865C10.4094 6.21998 10.0706 6.21998 9.79556 6.39865L6.68444 8.39906C6.4097 8.57755 6.24033 8.90727 6.24 9.26424V13.2651C6.24033 13.622 6.4097 13.9517 6.68444 14.1302L9.79556 16.1306C10.0706 16.3093 10.4094 16.3093 10.6844 16.1306L13.7956 14.1302C14.0703 13.9517 14.2397 13.622 14.24 13.2651Z" fill="#5E4BEF" stroke="#5E4BEF" stroke-width="1.5" stroke-linecap="round" stroke-linejoin="round"/>
</svg>
