<svg width="72" height="72" viewBox="0 0 72 72" fill="none" xmlns="http://www.w3.org/2000/svg">
<rect width="72" height="72" fill="#1063FE"/>
<rect opacity="0.220447" x="44" y="20" width="28" height="52" fill="#0531AD"/>
<path fill-rule="evenodd" clip-rule="evenodd" d="M20 48.4695C20 49.1333 20.2572 49.7573 20.7242 50.2267L26.7393 56.2722C27.2063 56.7415 27.8272 57 28.4876 57H47.9275C49.2908 57 50.4 55.8852 50.4 54.515V37.4435C50.4 36.3799 48.7517 36.3784 48.7517 37.4435V54.515C48.7517 54.9717 48.3819 55.3433 47.9275 55.3433H28.7356V50.6698C28.7356 49.2995 27.6264 48.1847 26.2631 48.1847H21.6483V29.879H48.7517V30.7509C48.7517 31.2084 49.1206 31.5792 49.5758 31.5792C50.031 31.5792 50.4 31.2084 50.4 30.7509V17.8851C50.4 16.5148 49.2908 15.4 47.9275 15.4H22.4725C21.1092 15.4 20 16.5148 20 17.8851V48.4695ZM27.0872 50.6698V54.279L22.672 49.8414H26.2631C26.7176 49.8414 27.0872 50.213 27.0872 50.6698ZM21.6483 17.8851V28.2223H48.7516V17.8851C48.7516 17.4283 48.3819 17.0567 47.9275 17.0567H22.4725C22.0181 17.0567 21.6483 17.4283 21.6483 17.8851Z" fill="white"/>
<path d="M20.7242 50.2267L20.9369 50.0151L20.9369 50.0151L20.7242 50.2267ZM26.7393 56.2722L26.5266 56.4838L26.5266 56.4838L26.7393 56.2722ZM28.7356 55.3433H28.4356V55.6433H28.7356V55.3433ZM21.6483 48.1847H21.3483V48.4847H21.6483V48.1847ZM21.6483 29.879V29.579H21.3483V29.879H21.6483ZM48.7517 29.879H49.0517V29.579H48.7517V29.879ZM27.0872 54.279L26.8746 54.4906L27.3872 55.0059V54.279H27.0872ZM22.672 49.8414V49.5414H21.9503L22.4593 50.053L22.672 49.8414ZM21.6483 28.2223H21.3483V28.5223H21.6483V28.2223ZM48.7516 28.2223V28.5223H49.0516V28.2223H48.7516ZM20.9369 50.0151C20.526 49.6021 20.3 49.0542 20.3 48.4695H19.7C19.7 49.2123 19.9885 49.9126 20.5115 50.4383L20.9369 50.0151ZM26.9519 56.0606L20.9369 50.0151L20.5115 50.4383L26.5266 56.4838L26.9519 56.0606ZM28.4876 56.7C27.9073 56.7 27.3629 56.4735 26.9519 56.0605L26.5266 56.4838C27.0498 57.0095 27.7471 57.3 28.4876 57.3V56.7ZM47.9275 56.7H28.4876V57.3H47.9275V56.7ZM50.1 54.515C50.1 55.721 49.1237 56.7 47.9275 56.7V57.3C49.4579 57.3 50.7 56.0495 50.7 54.515H50.1ZM50.1 37.4435V54.515H50.7V37.4435H50.1ZM49.0517 37.4435C49.0517 37.262 49.1186 37.1463 49.2049 37.072C49.2975 36.9923 49.431 36.9452 49.5757 36.9452C49.7203 36.9453 49.854 36.9925 49.9467 37.0724C50.0332 37.1469 50.1 37.2625 50.1 37.4435H50.7C50.7 37.0928 50.5608 36.8094 50.3382 36.6177C50.1219 36.4314 49.8434 36.3454 49.576 36.3452C49.3085 36.3451 49.03 36.4309 48.8135 36.6172C48.5908 36.8089 48.4517 37.0925 48.4517 37.4435H49.0517ZM49.0517 54.515V37.4435H48.4517V54.515H49.0517ZM47.9275 55.6433C48.549 55.6433 49.0517 55.136 49.0517 54.515H48.4517C48.4517 54.8075 48.2148 55.0433 47.9275 55.0433V55.6433ZM28.7356 55.6433H47.9275V55.0433H28.7356V55.6433ZM28.4356 50.6698V55.3433H29.0356V50.6698H28.4356ZM26.2631 48.4847C27.4593 48.4847 28.4356 49.4638 28.4356 50.6698H29.0356C29.0356 49.1352 27.7935 47.8847 26.2631 47.8847V48.4847ZM21.6483 48.4847H26.2631V47.8847H21.6483V48.4847ZM21.3483 29.879V48.1847H21.9483V29.879H21.3483ZM48.7517 29.579H21.6483V30.179H48.7517V29.579ZM49.0517 30.7509V29.879H48.4517V30.7509H49.0517ZM49.5758 31.2792C49.2877 31.2792 49.0517 31.0441 49.0517 30.7509H48.4517C48.4517 31.3726 48.9535 31.8792 49.5758 31.8792V31.2792ZM50.1 30.7509C50.1 31.0441 49.8639 31.2792 49.5758 31.2792V31.8792C50.1981 31.8792 50.7 31.3726 50.7 30.7509H50.1ZM50.1 17.8851V30.7509H50.7V17.8851H50.1ZM47.9275 15.7C49.1237 15.7 50.1 16.6791 50.1 17.8851H50.7C50.7 16.3506 49.4579 15.1 47.9275 15.1V15.7ZM22.4725 15.7H47.9275V15.1H22.4725V15.7ZM20.3 17.8851C20.3 16.6791 21.2763 15.7 22.4725 15.7V15.1C20.9421 15.1 19.7 16.3506 19.7 17.8851H20.3ZM20.3 48.4695V17.8851H19.7V48.4695H20.3ZM27.3872 54.279V50.6698H26.7872V54.279H27.3872ZM22.4593 50.053L26.8746 54.4906L27.2999 54.0674L22.8846 49.6298L22.4593 50.053ZM26.2631 49.5414H22.672V50.1414H26.2631V49.5414ZM27.3872 50.6698C27.3872 50.0488 26.8847 49.5414 26.2631 49.5414V50.1414C26.5505 50.1414 26.7872 50.3772 26.7872 50.6698H27.3872ZM21.9483 28.2223V17.8851H21.3483V28.2223H21.9483ZM48.7516 27.9223H21.6483V28.5223H48.7516V27.9223ZM48.4516 17.8851V28.2223H49.0516V17.8851H48.4516ZM47.9275 17.3567C48.2148 17.3567 48.4516 17.5926 48.4516 17.8851H49.0516C49.0516 17.264 48.549 16.7567 47.9275 16.7567V17.3567ZM22.4725 17.3567H47.9275V16.7567H22.4725V17.3567ZM21.9483 17.8851C21.9483 17.5926 22.1852 17.3567 22.4725 17.3567V16.7567C21.851 16.7567 21.3483 17.264 21.3483 17.8851H21.9483Z" fill="white"/>
<path d="M28.584 19.5381C28.268 19.3663 27.3346 19.3173 27.3346 19.8809V22.2808H25.4654V19.881C25.4654 19.2397 24 19.2397 24 19.881V26.1109C24 26.7631 25.4654 26.7631 25.4654 26.1109V23.4563H27.3346V26.1108C27.3346 26.763 28.8 26.763 28.8 26.1108V19.881C28.8 19.7309 28.728 19.6165 28.584 19.5381V19.5381Z" fill="white"/>
<path d="M33.9619 19.4H30.0383C29.4512 19.4 29.4569 20.7361 30.0383 20.7361H31.2917V26.1066C31.2917 26.7646 32.7086 26.7645 32.7086 26.1066V20.7361H33.962C34.5433 20.7361 34.549 19.4 33.9619 19.4V19.4Z" fill="white"/>
<path d="M41.3913 19.6016C41.0981 19.3401 40.5629 19.3524 40.2417 19.5477C40.0964 19.6358 39.9341 19.8466 39.7549 20.1799L38.8 21.9445L37.845 20.1799C37.6656 19.8467 37.5034 19.6359 37.3582 19.5477C36.8237 19.223 36 19.4338 36 20.1799V26.1106C36 26.7632 37.4463 26.7632 37.4463 26.1106V22.3366L38.3272 24.0422C38.5189 24.4344 39.0611 24.4073 39.2636 24.0422L40.1537 22.4346V26.1106C40.1537 26.7632 41.6 26.7632 41.6 26.1106V20.1799C41.5998 19.9187 41.5303 19.7259 41.3913 19.6016Z" fill="white"/>
<path d="M46.7698 25.2644H44.6503V19.8823C44.6503 19.2393 43.2002 19.2393 43.2002 19.8823V26.1286C43.2002 26.476 43.5624 26.6 43.8323 26.6H46.7698C47.3437 26.6 47.3437 25.2644 46.7698 25.2644V25.2644Z" fill="white"/>
<path d="M32.5367 38.0413C32.1877 37.7196 31.6218 37.7196 31.2727 38.0413L28.2618 40.8167C27.9127 41.1384 27.9127 41.6601 28.2618 41.9818L31.2727 44.7573C32.0879 45.5087 33.3519 44.3436 32.5367 43.5922L30.1576 41.3992L32.5367 39.2063C32.8858 38.8846 32.8858 38.363 32.5367 38.0413V38.0413Z" fill="white" stroke="white" stroke-width="0.3"/>
<path d="M38.6632 44.7615C39.008 45.0795 39.5824 45.0795 39.9272 44.7615L42.9382 41.985C43.2872 41.6631 43.2872 41.1413 42.9382 40.8194L39.9272 38.0428C39.112 37.2911 37.848 38.4566 38.6632 39.2084L41.0423 41.4022L38.6632 43.596C38.3142 43.9178 38.3142 44.4397 38.6632 44.7615Z" fill="white" stroke="white" stroke-width="0.3"/>
<path d="M35.984 36.7968L33.6336 45.5482C33.3517 46.5976 34.933 47.0565 35.2162 46.0018L37.5666 37.2504C37.8487 36.2008 36.2664 35.7456 35.984 36.7968V36.7968Z" fill="white" stroke="white" stroke-width="0.3"/>
</svg>
