<svg width="72" height="72" viewBox="0 0 72 72" fill="none" xmlns="http://www.w3.org/2000/svg">
<rect width="72" height="72" fill="#1063FE"/>
<rect opacity="0.220447" x="44" y="20" width="28" height="52" fill="#0531AD"/>
<path fill-rule="evenodd" clip-rule="evenodd" d="M21.7242 50.2267C21.2572 49.7573 21 49.1333 21 48.4695V17.8851C21 16.5148 22.1092 15.4 23.4725 15.4H48.9275C50.2908 15.4 51.4 16.5148 51.4 17.8851V21.7509C51.4 22.2084 51.031 22.5792 50.5758 22.5792C50.1206 22.5792 49.7517 22.2084 49.7517 21.7509V16.879H22.6483V48.1847H27.2631C28.6264 48.1847 29.7356 49.2995 29.7356 50.6698V55.3433H48.9275C49.3819 55.3433 49.7517 54.9717 49.7517 54.515V28.4435C49.7517 27.3784 51.4 27.3799 51.4 28.4435V54.515C51.4 55.8852 50.2908 57 48.9275 57H29.4876C28.8272 57 28.2063 56.7415 27.7393 56.2722L21.7242 50.2267ZM28.0872 54.279V50.6698C28.0872 50.213 27.7176 49.8414 27.2631 49.8414H23.672L28.0872 54.279Z" fill="white"/>
<path d="M21.7242 50.2267L21.9369 50.0151L21.9369 50.0151L21.7242 50.2267ZM49.7517 16.879H50.0517V16.579H49.7517V16.879ZM22.6483 16.879V16.579H22.3483V16.879H22.6483ZM22.6483 48.1847H22.3483V48.4847H22.6483V48.1847ZM29.7356 55.3433H29.4356V55.6433H29.7356V55.3433ZM27.7393 56.2722L27.5266 56.4838L27.5266 56.4838L27.7393 56.2722ZM28.0872 54.279L27.8746 54.4906L28.3872 55.0059V54.279H28.0872ZM23.672 49.8414V49.5414H22.9503L23.4593 50.053L23.672 49.8414ZM20.7 48.4695C20.7 49.2123 20.9885 49.9126 21.5115 50.4383L21.9369 50.0151C21.526 49.6021 21.3 49.0542 21.3 48.4695H20.7ZM20.7 17.8851V48.4695H21.3V17.8851H20.7ZM23.4725 15.1C21.9421 15.1 20.7 16.3506 20.7 17.8851H21.3C21.3 16.6791 22.2763 15.7 23.4725 15.7V15.1ZM48.9275 15.1H23.4725V15.7H48.9275V15.1ZM51.7 17.8851C51.7 16.3506 50.4579 15.1 48.9275 15.1V15.7C50.1237 15.7 51.1 16.6791 51.1 17.8851H51.7ZM51.7 21.7509V17.8851H51.1V21.7509H51.7ZM50.5758 22.8792C51.1981 22.8792 51.7 22.3726 51.7 21.7509H51.1C51.1 22.0441 50.8639 22.2792 50.5758 22.2792V22.8792ZM49.4517 21.7509C49.4517 22.3726 49.9535 22.8792 50.5758 22.8792V22.2792C50.2877 22.2792 50.0517 22.0441 50.0517 21.7509H49.4517ZM49.4517 16.879V21.7509H50.0517V16.879H49.4517ZM22.6483 17.179H49.7517V16.579H22.6483V17.179ZM22.9483 48.1847V16.879H22.3483V48.1847H22.9483ZM27.2631 47.8847H22.6483V48.4847H27.2631V47.8847ZM30.0356 50.6698C30.0356 49.1352 28.7935 47.8847 27.2631 47.8847V48.4847C28.4593 48.4847 29.4356 49.4638 29.4356 50.6698H30.0356ZM30.0356 55.3433V50.6698H29.4356V55.3433H30.0356ZM48.9275 55.0433H29.7356V55.6433H48.9275V55.0433ZM49.4517 54.515C49.4517 54.8075 49.2148 55.0433 48.9275 55.0433V55.6433C49.549 55.6433 50.0517 55.136 50.0517 54.515H49.4517ZM49.4517 28.4435V54.515H50.0517V28.4435H49.4517ZM51.7 28.4435C51.7 28.0928 51.5608 27.8094 51.3382 27.6177C51.1219 27.4314 50.8434 27.3454 50.576 27.3452C50.3085 27.3451 50.03 27.4309 49.8135 27.6172C49.5908 27.8089 49.4517 28.0925 49.4517 28.4435H50.0517C50.0517 28.262 50.1186 28.1463 50.2049 28.072C50.2975 27.9923 50.431 27.9452 50.5757 27.9452C50.7203 27.9453 50.854 27.9925 50.9467 28.0724C51.0332 28.1469 51.1 28.2625 51.1 28.4435H51.7ZM51.7 54.515V28.4435H51.1V54.515H51.7ZM48.9275 57.3C50.4579 57.3 51.7 56.0495 51.7 54.515H51.1C51.1 55.721 50.1237 56.7 48.9275 56.7V57.3ZM29.4876 57.3H48.9275V56.7H29.4876V57.3ZM27.5266 56.4838C28.0498 57.0095 28.7471 57.3 29.4876 57.3V56.7C28.9073 56.7 28.3629 56.4735 27.9519 56.0605L27.5266 56.4838ZM21.5115 50.4383L27.5266 56.4838L27.9519 56.0606L21.9369 50.0151L21.5115 50.4383ZM27.7872 50.6698V54.279H28.3872V50.6698H27.7872ZM27.2631 50.1414C27.5505 50.1414 27.7872 50.3772 27.7872 50.6698H28.3872C28.3872 50.0488 27.8847 49.5414 27.2631 49.5414V50.1414ZM23.672 50.1414H27.2631V49.5414H23.672V50.1414ZM28.2999 54.0674L23.8846 49.6298L23.4593 50.053L27.8746 54.4906L28.2999 54.0674Z" fill="white"/>
<path fill-rule="evenodd" clip-rule="evenodd" d="M30.2857 30.4V33.6C30.2857 34.56 29.8211 35.4128 29.1011 36C29.8211 36.5872 30.2857 37.44 30.2857 38.4V41.6C30.2857 42.0408 30.6697 42.4 31.1429 42.4C31.6169 42.4 32 42.7584 32 43.2C32 43.6416 31.6169 44 31.1429 44C29.7251 44 28.5714 42.9232 28.5714 41.6V38.4C28.5714 37.5176 27.8026 36.8 26.8571 36.8C26.3831 36.8 26 36.4416 26 36C26 35.5584 26.3831 35.2 26.8571 35.2C27.8026 35.2 28.5714 34.4824 28.5714 33.6V30.4C28.5714 29.0768 29.7251 28 31.1429 28C31.6169 28 32 28.3584 32 28.8C32 29.2416 31.6169 29.6 31.1429 29.6C30.6697 29.6 30.2857 29.9592 30.2857 30.4ZM41.7143 33.6C41.7143 34.56 42.1789 35.4128 42.8989 36C42.1789 36.5872 41.7143 37.44 41.7143 38.4V41.6C41.7143 42.0408 41.3303 42.4 40.8571 42.4C40.3831 42.4 40 42.7584 40 43.2C40 43.6416 40.3831 44 40.8571 44C42.2749 44 43.4286 42.9232 43.4286 41.6V38.4C43.4286 37.5176 44.1974 36.8 45.1429 36.8C45.6169 36.8 46 36.4416 46 36C46 35.5584 45.6169 35.2 45.1429 35.2C44.1974 35.2 43.4286 34.4824 43.4286 33.6V30.4C43.4286 29.0768 42.2749 28 40.8571 28C40.3831 28 40 28.3584 40 28.8C40 29.2416 40.3831 29.6 40.8571 29.6C41.3303 29.6 41.7143 29.9592 41.7143 30.4V33.6ZM36 34C36.5523 34 37 33.5523 37 33C37 32.4477 36.5523 32 36 32C35.4477 32 35 32.4477 35 33C35 33.5523 35.4477 34 36 34ZM35 38.8C35 38.3584 35.447 38 36 38C36.553 38 37 38.3584 37 38.8V41.2C37 41.6416 36.553 42 36 42C35.447 42 35 41.6416 35 41.2V38.8Z" fill="white"/>
<path d="M29.1011 36L28.9115 35.7675L28.6265 36L28.9115 36.2325L29.1011 36ZM42.8989 36L43.0885 36.2325L43.3735 36L43.0885 35.7675L42.8989 36ZM30.5857 33.6V30.4H29.9857V33.6H30.5857ZM29.2907 36.2325C30.0715 35.5958 30.5857 34.6613 30.5857 33.6H29.9857C29.9857 34.4587 29.5708 35.2298 28.9115 35.7675L29.2907 36.2325ZM30.5857 38.4C30.5857 37.3387 30.0715 36.4042 29.2907 35.7675L28.9115 36.2325C29.5708 36.7702 29.9857 37.5413 29.9857 38.4H30.5857ZM30.5857 41.6V38.4H29.9857V41.6H30.5857ZM31.1429 42.1C30.8158 42.1 30.5857 41.8561 30.5857 41.6H29.9857C29.9857 42.2255 30.5237 42.7 31.1429 42.7V42.1ZM32.3 43.2C32.3 42.5737 31.7629 42.1 31.1429 42.1V42.7C31.4708 42.7 31.7 42.9431 31.7 43.2H32.3ZM31.1429 44.3C31.7629 44.3 32.3 43.8263 32.3 43.2H31.7C31.7 43.4569 31.4708 43.7 31.1429 43.7V44.3ZM28.2714 41.6C28.2714 43.108 29.5793 44.3 31.1429 44.3V43.7C29.871 43.7 28.8714 42.7384 28.8714 41.6H28.2714ZM28.2714 38.4V41.6H28.8714V38.4H28.2714ZM26.8571 37.1C27.6567 37.1 28.2714 37.7024 28.2714 38.4H28.8714C28.8714 37.3328 27.9484 36.5 26.8571 36.5V37.1ZM25.7 36C25.7 36.6263 26.2371 37.1 26.8571 37.1V36.5C26.5292 36.5 26.3 36.2569 26.3 36H25.7ZM26.8571 34.9C26.2371 34.9 25.7 35.3737 25.7 36H26.3C26.3 35.7431 26.5292 35.5 26.8571 35.5V34.9ZM28.2714 33.6C28.2714 34.2976 27.6567 34.9 26.8571 34.9V35.5C27.9484 35.5 28.8714 34.6672 28.8714 33.6H28.2714ZM28.2714 30.4V33.6H28.8714V30.4H28.2714ZM31.1429 27.7C29.5793 27.7 28.2714 28.892 28.2714 30.4H28.8714C28.8714 29.2616 29.871 28.3 31.1429 28.3V27.7ZM32.3 28.8C32.3 28.1737 31.7629 27.7 31.1429 27.7V28.3C31.4708 28.3 31.7 28.5431 31.7 28.8H32.3ZM31.1429 29.9C31.7629 29.9 32.3 29.4263 32.3 28.8H31.7C31.7 29.0569 31.4708 29.3 31.1429 29.3V29.9ZM30.5857 30.4C30.5857 30.1439 30.8158 29.9 31.1429 29.9V29.3C30.5237 29.3 29.9857 29.7745 29.9857 30.4H30.5857ZM43.0885 35.7675C42.4292 35.2298 42.0143 34.4587 42.0143 33.6H41.4143C41.4143 34.6613 41.9285 35.5958 42.7093 36.2325L43.0885 35.7675ZM42.0143 38.4C42.0143 37.5413 42.4292 36.7702 43.0885 36.2325L42.7093 35.7675C41.9285 36.4042 41.4143 37.3387 41.4143 38.4H42.0143ZM42.0143 41.6V38.4H41.4143V41.6H42.0143ZM40.8571 42.7C41.4763 42.7 42.0143 42.2255 42.0143 41.6H41.4143C41.4143 41.8561 41.1842 42.1 40.8571 42.1V42.7ZM40.3 43.2C40.3 42.9431 40.5292 42.7 40.8571 42.7V42.1C40.2371 42.1 39.7 42.5737 39.7 43.2H40.3ZM40.8571 43.7C40.5292 43.7 40.3 43.4569 40.3 43.2H39.7C39.7 43.8263 40.2371 44.3 40.8571 44.3V43.7ZM43.1286 41.6C43.1286 42.7384 42.129 43.7 40.8571 43.7V44.3C42.4207 44.3 43.7286 43.108 43.7286 41.6H43.1286ZM43.1286 38.4V41.6H43.7286V38.4H43.1286ZM45.1429 36.5C44.0516 36.5 43.1286 37.3328 43.1286 38.4H43.7286C43.7286 37.7024 44.3433 37.1 45.1429 37.1V36.5ZM45.7 36C45.7 36.2569 45.4708 36.5 45.1429 36.5V37.1C45.7629 37.1 46.3 36.6263 46.3 36H45.7ZM45.1429 35.5C45.4708 35.5 45.7 35.7431 45.7 36H46.3C46.3 35.3737 45.7629 34.9 45.1429 34.9V35.5ZM43.1286 33.6C43.1286 34.6672 44.0516 35.5 45.1429 35.5V34.9C44.3433 34.9 43.7286 34.2976 43.7286 33.6H43.1286ZM43.1286 30.4V33.6H43.7286V30.4H43.1286ZM40.8571 28.3C42.129 28.3 43.1286 29.2616 43.1286 30.4H43.7286C43.7286 28.892 42.4207 27.7 40.8571 27.7V28.3ZM40.3 28.8C40.3 28.5431 40.5292 28.3 40.8571 28.3V27.7C40.2371 27.7 39.7 28.1737 39.7 28.8H40.3ZM40.8571 29.3C40.5292 29.3 40.3 29.0569 40.3 28.8H39.7C39.7 29.4263 40.2371 29.9 40.8571 29.9V29.3ZM42.0143 30.4C42.0143 29.7745 41.4763 29.3 40.8571 29.3V29.9C41.1842 29.9 41.4143 30.1439 41.4143 30.4H42.0143ZM42.0143 33.6V30.4H41.4143V33.6H42.0143ZM36.7 33C36.7 33.3866 36.3866 33.7 36 33.7V34.3C36.718 34.3 37.3 33.718 37.3 33H36.7ZM36 32.3C36.3866 32.3 36.7 32.6134 36.7 33H37.3C37.3 32.282 36.718 31.7 36 31.7V32.3ZM35.3 33C35.3 32.6134 35.6134 32.3 36 32.3V31.7C35.282 31.7 34.7 32.282 34.7 33H35.3ZM36 33.7C35.6134 33.7 35.3 33.3866 35.3 33H34.7C34.7 33.718 35.282 34.3 36 34.3V33.7ZM36 37.7C35.347 37.7 34.7 38.1339 34.7 38.8H35.3C35.3 38.5829 35.547 38.3 36 38.3V37.7ZM37.3 38.8C37.3 38.1339 36.653 37.7 36 37.7V38.3C36.453 38.3 36.7 38.5829 36.7 38.8H37.3ZM37.3 41.2V38.8H36.7V41.2H37.3ZM36 42.3C36.653 42.3 37.3 41.8661 37.3 41.2H36.7C36.7 41.4171 36.453 41.7 36 41.7V42.3ZM34.7 41.2C34.7 41.8661 35.347 42.3 36 42.3V41.7C35.547 41.7 35.3 41.4171 35.3 41.2H34.7ZM34.7 38.8V41.2H35.3V38.8H34.7Z" fill="white"/>
</svg>
