<svg width="72" height="72" viewBox="0 0 72 72" fill="none" xmlns="http://www.w3.org/2000/svg">
<rect width="72" height="72" fill="#1063FE"/>
<rect opacity="0.220447" x="44" y="20" width="28" height="52" fill="#0531AD"/>
<path d="M56.0269 24.6578C56.3572 23.6631 56.0269 23 54.6395 23H50.0149C48.8257 23 48.2972 23.5968 48.0329 24.3263C48.0329 24.3263 45.7206 30.0292 42.4173 33.7427C41.3603 34.8037 40.8978 35.1353 40.3032 35.1353C40.039 35.1353 39.5765 34.8037 39.5765 33.809V24.6578C39.5765 23.4642 39.2462 23 38.2552 23H30.9879C30.2612 23 29.7988 23.5305 29.7988 24.061C29.7988 25.1883 31.4504 25.4536 31.6486 28.5703V35.3342C31.6486 36.7931 31.3843 37.0584 30.7897 37.0584C29.2702 37.0584 25.4384 31.3554 23.1922 24.7241C22.7958 23.5305 22.3333 23 21.1441 23H16.5195C15.2643 23 15 23.5968 15 24.3263C15 25.5199 16.5195 31.6207 22.2672 39.5782C26.0991 45.0159 31.4504 48 36.2732 48C39.1801 48 39.5765 47.3369 39.5765 46.2095V42.0318C39.5765 40.7056 39.8408 40.4403 40.7657 40.4403C41.4263 40.4403 42.6155 40.7719 45.3242 43.4244C48.4293 46.5411 48.9579 48 50.6756 48H55.3002C56.6215 48 57.2821 47.3369 56.8858 46.0769C56.4894 44.817 54.9698 42.8939 52.9879 40.7056C51.9308 39.4456 50.2792 38.0531 49.8167 37.3899C49.156 36.5279 49.3542 36.13 49.8167 35.3342C49.8828 35.2679 55.4984 27.3767 56.0269 24.6578V24.6578Z" fill="white"/>
</svg>
