<svg width="72" height="72" viewBox="0 0 72 72" fill="none" xmlns="http://www.w3.org/2000/svg">
<rect width="72" height="72" fill="#1063FE"/>
<rect opacity="0.0935407" x="44" y="20" width="28" height="52" fill="black"/>
<g clip-path="url(#clip0)">
<path fill-rule="evenodd" clip-rule="evenodd" d="M20 48.4694C20 49.1331 20.2572 49.7572 20.7242 50.2266L26.7393 56.272C27.2063 56.7414 27.8272 56.9999 28.4876 56.9999H47.9275C49.2908 56.9999 50.4 55.8851 50.4 54.5149V37.4434C50.4 36.3798 48.7517 36.3782 48.7517 37.4434V54.5149C48.7517 54.9716 48.3819 55.3432 47.9275 55.3432H28.7356V50.6696C28.7356 49.2994 27.6264 48.1846 26.2631 48.1846H21.6483V29.8789H48.7517V30.7507C48.7517 31.2082 49.1206 31.5791 49.5758 31.5791C50.031 31.5791 50.4 31.2082 50.4 30.7507V17.8849C50.4 16.5147 49.2908 15.3999 47.9275 15.3999H22.4725C21.1092 15.3999 20 16.5147 20 17.8849V48.4694ZM27.0872 50.6696V54.2789L22.672 49.8413H26.2631C26.7176 49.8413 27.0872 50.2129 27.0872 50.6696ZM21.6483 17.8849V28.2222H48.7516V17.8849C48.7516 17.4282 48.3819 17.0566 47.9275 17.0566H22.4725C22.0181 17.0566 21.6483 17.4282 21.6483 17.8849Z" fill="white"/>
<path d="M20.7242 50.2266L20.9723 49.9797H20.9723L20.7242 50.2266ZM26.7393 56.272L26.4912 56.5189L26.4912 56.5189L26.7393 56.272ZM28.7356 55.3432H28.3856V55.6932H28.7356V55.3432ZM21.6483 48.1846H21.2983V48.5346H21.6483V48.1846ZM21.6483 29.8789V29.5289H21.2983V29.8789H21.6483ZM48.7517 29.8789H49.1017V29.5289H48.7517V29.8789ZM27.0872 54.2789L26.8391 54.5257L27.4372 55.1269V54.2789H27.0872ZM22.672 49.8413V49.4913H21.83L22.4239 50.0881L22.672 49.8413ZM21.6483 28.2222H21.2983V28.5722H21.6483V28.2222ZM48.7516 28.2222V28.5722H49.1017V28.2222H48.7516ZM20.9723 49.9797C20.5708 49.5761 20.35 49.0409 20.35 48.4694H19.65C19.65 49.2254 19.9437 49.9383 20.4761 50.4734L20.9723 49.9797ZM26.9874 56.0252L20.9723 49.9797L20.4761 50.4734L26.4912 56.5189L26.9874 56.0252ZM28.4876 56.6499C27.9206 56.6499 27.3889 56.4287 26.9874 56.0252L26.4912 56.5189C27.0237 57.0541 27.7338 57.3499 28.4876 57.3499V56.6499ZM47.9275 56.6499H28.4876V57.3499H47.9275V56.6499ZM50.05 54.5149C50.05 55.6935 49.0959 56.6499 47.9275 56.6499V57.3499C49.4858 57.3499 50.75 56.0768 50.75 54.5149H50.05ZM50.05 37.4434V54.5149H50.75V37.4434H50.05ZM49.1017 37.4434C49.1017 37.276 49.1625 37.1743 49.2375 37.1097C49.3198 37.0389 49.4412 36.9951 49.5757 36.9951C49.7101 36.9952 49.8316 37.0392 49.9141 37.1101C49.9892 37.1749 50.05 37.2765 50.05 37.4434H50.75C50.75 37.0785 50.6047 36.7811 50.3708 36.5797C50.1442 36.3845 49.8537 36.2953 49.576 36.2951C49.2983 36.295 49.0077 36.384 48.7809 36.5792C48.5468 36.7807 48.4017 37.0783 48.4017 37.4434H49.1017ZM49.1017 54.5149V37.4434H48.4017V54.5149H49.1017ZM47.9275 55.6932C48.5769 55.6932 49.1017 55.1633 49.1017 54.5149H48.4017C48.4017 54.78 48.187 54.9932 47.9275 54.9932V55.6932ZM28.7356 55.6932H47.9275V54.9932H28.7356V55.6932ZM28.3856 50.6696V55.3432H29.0856V50.6696H28.3856ZM26.2631 48.5346C27.4315 48.5346 28.3856 49.491 28.3856 50.6696H29.0856C29.0856 49.1077 27.8214 47.8346 26.2631 47.8346V48.5346ZM21.6483 48.5346H26.2631V47.8346H21.6483V48.5346ZM21.2983 29.8789V48.1846H21.9983V29.8789H21.2983ZM48.7517 29.5289H21.6483V30.2289H48.7517V29.5289ZM49.1017 30.7507V29.8789H48.4017V30.7507H49.1017ZM49.5758 31.2291C49.3156 31.2291 49.1017 31.0166 49.1017 30.7507H48.4017C48.4017 31.3999 48.9257 31.9291 49.5758 31.9291V31.2291ZM50.05 30.7507C50.05 31.0166 49.8361 31.2291 49.5758 31.2291V31.9291C50.226 31.9291 50.75 31.3999 50.75 30.7507H50.05ZM50.05 17.8849V30.7507H50.75V17.8849H50.05ZM47.9275 15.7499C49.0959 15.7499 50.05 16.7063 50.05 17.8849H50.75C50.75 16.3231 49.4858 15.0499 47.9275 15.0499V15.7499ZM22.4725 15.7499H47.9275V15.0499H22.4725V15.7499ZM20.35 17.8849C20.35 16.7063 21.3041 15.7499 22.4725 15.7499V15.0499C20.9142 15.0499 19.65 16.3231 19.65 17.8849H20.35ZM20.35 48.4694V17.8849H19.65V48.4694H20.35ZM27.4372 54.2789V50.6696H26.7372V54.2789H27.4372ZM22.4239 50.0881L26.8391 54.5257L27.3354 54.032L22.9201 49.5944L22.4239 50.0881ZM26.2631 49.4913H22.672V50.1913H26.2631V49.4913ZM27.4372 50.6696C27.4372 50.0213 26.9126 49.4913 26.2631 49.4913V50.1913C26.5226 50.1913 26.7372 50.4045 26.7372 50.6696H27.4372ZM21.9983 28.2222V17.8849H21.2983V28.2222H21.9983ZM48.7516 27.8722H21.6483V28.5722H48.7516V27.8722ZM48.4016 17.8849V28.2222H49.1017V17.8849H48.4016ZM47.9275 17.4066C48.187 17.4066 48.4016 17.6198 48.4016 17.8849H49.1017C49.1017 17.2365 48.5769 16.7066 47.9275 16.7066V17.4066ZM22.4725 17.4066H47.9275V16.7066H22.4725V17.4066ZM21.9983 17.8849C21.9983 17.6198 22.213 17.4066 22.4725 17.4066V16.7066C21.8231 16.7066 21.2983 17.2365 21.2983 17.8849H21.9983Z" fill="white"/>
<path d="M29.53 26.12C29.07 26.12 28.6533 26.0467 28.28 25.9C27.9133 25.7467 27.5967 25.52 27.33 25.22C27.07 24.92 26.87 24.55 26.73 24.11C26.59 23.6633 26.52 23.1467 26.52 22.56C26.52 21.9733 26.59 21.4533 26.73 21C26.87 20.54 27.07 20.1567 27.33 19.85C27.5967 19.5367 27.9133 19.3 28.28 19.14C28.6533 18.98 29.07 18.9 29.53 18.9C30.1567 18.9 30.6767 19.0333 31.09 19.3C31.5033 19.5667 31.8333 19.97 32.08 20.51L30.95 21.11C30.85 20.7967 30.6867 20.5467 30.46 20.36C30.2333 20.1667 29.9233 20.07 29.53 20.07C29.0367 20.07 28.6433 20.2367 28.35 20.57C28.0633 20.9033 27.92 21.37 27.92 21.97V23.07C27.92 23.6767 28.0633 24.1433 28.35 24.47C28.6433 24.79 29.0367 24.95 29.53 24.95C29.9233 24.95 30.2433 24.8433 30.49 24.63C30.7433 24.4167 30.9267 24.1533 31.04 23.84L32.11 24.47C31.8567 24.99 31.52 25.3967 31.1 25.69C30.68 25.9767 30.1567 26.12 29.53 26.12ZM35.3856 26.12C34.7856 26.12 34.2756 26.0133 33.8556 25.8C33.4422 25.5867 33.0856 25.3067 32.7856 24.96L33.6756 24.1C33.9156 24.38 34.1822 24.5933 34.4756 24.74C34.7756 24.8867 35.1056 24.96 35.4656 24.96C35.8722 24.96 36.1789 24.8733 36.3856 24.7C36.5922 24.52 36.6956 24.28 36.6956 23.98C36.6956 23.7467 36.6289 23.5567 36.4956 23.41C36.3622 23.2633 36.1122 23.1567 35.7456 23.09L35.0856 22.99C33.6922 22.77 32.9956 22.0933 32.9956 20.96C32.9956 20.6467 33.0522 20.3633 33.1656 20.11C33.2856 19.8567 33.4556 19.64 33.6756 19.46C33.8956 19.28 34.1589 19.1433 34.4656 19.05C34.7789 18.95 35.1322 18.9 35.5256 18.9C36.0522 18.9 36.5122 18.9867 36.9056 19.16C37.2989 19.3333 37.6356 19.59 37.9156 19.93L37.0156 20.78C36.8422 20.5667 36.6322 20.3933 36.3856 20.26C36.1389 20.1267 35.8289 20.06 35.4556 20.06C35.0756 20.06 34.7889 20.1333 34.5956 20.28C34.4089 20.42 34.3156 20.62 34.3156 20.88C34.3156 21.1467 34.3922 21.3433 34.5456 21.47C34.6989 21.5967 34.9456 21.69 35.2856 21.75L35.9356 21.87C36.6422 21.9967 37.1622 22.2233 37.4956 22.55C37.8356 22.87 38.0056 23.32 38.0056 23.9C38.0056 24.2333 37.9456 24.5367 37.8256 24.81C37.7122 25.0767 37.5422 25.31 37.3156 25.51C37.0956 25.7033 36.8222 25.8533 36.4956 25.96C36.1756 26.0667 35.8056 26.12 35.3856 26.12ZM40.8014 26L38.5214 19.02H39.8714L40.9414 22.42L41.5614 24.74H41.5914L42.2014 22.42L43.2714 19.02H44.5814L42.3014 26H40.8014Z" fill="white"/>
</g>
<defs>
<clipPath id="clip0">
<rect x="20" y="15" width="31" height="42" fill="white"/>
</clipPath>
</defs>
</svg>
