<svg width="32" height="31" viewBox="0 0 32 31" fill="none" xmlns="http://www.w3.org/2000/svg">
<path fill-rule="evenodd" clip-rule="evenodd" d="M21.5872 16.4251C21.2677 17.149 21.421 17.9946 21.9744 18.5603L22.0448 18.6307C22.4854 19.0708 22.733 19.6681 22.733 20.2908C22.733 20.9136 22.4854 21.5108 22.0448 21.9509C21.6047 22.3915 21.0074 22.6391 20.3847 22.6391C19.7619 22.6391 19.1647 22.3915 18.7246 21.9509L18.6542 21.8805C18.0885 21.3272 17.2429 21.1738 16.5189 21.4934C15.8097 21.7973 15.3488 22.4934 15.3457 23.2649V23.4644C15.3457 24.7603 14.2952 25.8108 12.9993 25.8108C11.7034 25.8108 10.6528 24.7603 10.6528 23.4644V23.3588C10.6342 22.5641 10.1318 21.8616 9.38575 21.5872C8.66177 21.2677 7.8162 21.421 7.25049 21.9744L7.1801 22.0448C6.73998 22.4854 6.14276 22.733 5.51999 22.733C4.89723 22.733 4.30001 22.4854 3.85989 22.0448C3.41928 21.6047 3.17171 21.0074 3.17171 20.3847C3.17171 19.7619 3.41928 19.1647 3.85989 18.7246L3.93028 18.6542C4.48365 18.0885 4.63697 17.2429 4.31744 16.5189C4.0135 15.8097 3.31744 15.3488 2.54588 15.3457H2.34644C1.05054 15.3457 0 14.2952 0 12.9993C0 11.7034 1.05054 10.6528 2.34644 10.6528H2.45203C3.24668 10.6342 3.94921 10.1318 4.22359 9.38575C4.54311 8.66177 4.38979 7.8162 3.83643 7.25049L3.76603 7.1801C3.32542 6.73998 3.07785 6.14276 3.07785 5.51999C3.07785 4.89723 3.32542 4.30001 3.76603 3.85989C4.20615 3.41928 4.80337 3.17171 5.42614 3.17171C6.0489 3.17171 6.64612 3.41928 7.08624 3.85989L7.15663 3.93028C7.72234 4.48365 8.56791 4.63697 9.29189 4.31744H9.38575C10.0949 4.0135 10.5559 3.31744 10.559 2.54588V2.34644C10.559 1.05054 11.6095 0 12.9054 0C14.2013 0 15.2518 1.05054 15.2518 2.34644V2.45203C15.2549 3.22359 15.7159 3.91964 16.4251 4.22359C17.149 4.54311 17.9946 4.38979 18.5603 3.83643L18.6307 3.76603C19.0708 3.32542 19.6681 3.07785 20.2908 3.07785C20.9136 3.07785 21.5108 3.32542 21.9509 3.76603C22.3915 4.20615 22.6391 4.80337 22.6391 5.42614C22.6391 6.0489 22.3915 6.64612 21.9509 7.08624L21.8805 7.15663C21.3272 7.72234 21.1738 8.56791 21.4934 9.29189V9.38575C21.7973 10.0949 22.4934 10.5559 23.2649 10.559H23.4644C24.7603 10.559 25.8108 11.6095 25.8108 12.9054C25.8108 14.2013 24.7603 15.2518 23.4644 15.2518H23.3588C22.5872 15.2549 21.8912 15.7159 21.5872 16.4251Z" fill="#70C9FE"/>
<circle cx="12.9054" cy="12.9054" r="3.51966" fill="white"/>
<g style="mix-blend-mode:hard-light">
<path fill-rule="evenodd" clip-rule="evenodd" d="M29.0176 24.7158C28.8046 25.1985 28.9068 25.7622 29.2757 26.1393L29.3226 26.1862C29.6164 26.4796 29.7814 26.8778 29.7814 27.293C29.7814 27.7082 29.6164 28.1063 29.3226 28.3997C29.0292 28.6934 28.6311 28.8585 28.2159 28.8585C27.8007 28.8585 27.4026 28.6934 27.1092 28.3997L27.0622 28.3528C26.6851 27.9839 26.1214 27.8817 25.6387 28.0947C25.166 28.2973 24.8586 28.7613 24.8566 29.2757V29.4087C24.8566 30.2726 24.1562 30.973 23.2923 30.973C22.4284 30.973 21.728 30.2726 21.728 29.4087V29.3383C21.7156 28.8085 21.3806 28.3402 20.8833 28.1572C20.4006 27.9442 19.8369 28.0464 19.4598 28.4154L19.4129 28.4623C19.1195 28.756 18.7213 28.9211 18.3061 28.9211C17.8909 28.9211 17.4928 28.756 17.1994 28.4623C16.9057 28.1689 16.7406 27.7707 16.7406 27.3555C16.7406 26.9404 16.9057 26.5422 17.1994 26.2488L17.2463 26.2019C17.6152 25.8247 17.7174 25.261 17.5044 24.7784C17.3018 24.3056 16.8378 23.9983 16.3234 23.9962H16.1904C15.3265 23.9962 14.6261 23.2959 14.6261 22.4319C14.6261 21.568 15.3265 20.8676 16.1904 20.8676H16.2608C16.7906 20.8553 17.2589 20.5203 17.4419 20.0229C17.6549 19.5403 17.5527 18.9766 17.1837 18.5994L17.1368 18.5525C16.8431 18.2591 16.678 17.8609 16.678 17.4458C16.678 17.0306 16.8431 16.6324 17.1368 16.339C17.4302 16.0453 17.8284 15.8802 18.2436 15.8802C18.6587 15.8802 19.0569 16.0453 19.3503 16.339L19.3972 16.386C19.7744 16.7549 20.3381 16.8571 20.8207 16.6441H20.8833C21.3561 16.4414 21.6634 15.9774 21.6654 15.463V15.3301C21.6654 14.4661 22.3658 13.7658 23.2297 13.7658C24.0937 13.7658 24.794 14.4661 24.794 15.3301V15.4004C24.7961 15.9148 25.1034 16.3789 25.5762 16.5815C26.0588 16.7945 26.6225 16.6923 26.9997 16.3234L27.0466 16.2765C27.34 15.9827 27.7382 15.8177 28.1533 15.8177C28.5685 15.8177 28.9667 15.9827 29.2601 16.2765C29.5538 16.5699 29.7189 16.968 29.7189 17.3832C29.7189 17.7984 29.5538 18.1965 29.2601 18.4899L29.2131 18.5369C28.8442 18.914 28.742 19.4777 28.955 19.9604V20.0229C29.1577 20.4957 29.6217 20.803 30.1361 20.8051H30.269C31.133 20.8051 31.8333 21.5054 31.8333 22.3694C31.8333 23.2333 31.133 23.9337 30.269 23.9337H30.1987C29.6843 23.9357 29.2202 24.243 29.0176 24.7158Z" fill="#2051B0"/>
<circle cx="23.2297" cy="22.3694" r="2.34644" fill="white"/>
</g>
</svg>
