<svg width="72" height="72" viewBox="0 0 72 72" fill="none" xmlns="http://www.w3.org/2000/svg">
<rect width="72" height="72" fill="#1063FE"/>
<rect opacity="0.220447" x="44" y="20" width="28" height="52" fill="#0531AD"/>
<g clip-path="url(#clip0)">
<path fill-rule="evenodd" clip-rule="evenodd" d="M21 48.4695C21 49.1333 21.2572 49.7573 21.7242 50.2267L27.7393 56.2722C28.2063 56.7415 28.8272 57 29.4876 57H48.9275C50.2908 57 51.4 55.8852 51.4 54.515V37.4435C51.4 36.3799 49.7517 36.3784 49.7517 37.4435V54.515C49.7517 54.9717 49.3819 55.3433 48.9275 55.3433H29.7356V50.6698C29.7356 49.2995 28.6264 48.1847 27.2631 48.1847H22.6483V29.879H49.7517V30.7509C49.7517 31.2084 50.1206 31.5792 50.5758 31.5792C51.031 31.5792 51.4 31.2084 51.4 30.7509V17.8851C51.4 16.5148 50.2908 15.4 48.9275 15.4H23.4725C22.1092 15.4 21 16.5148 21 17.8851V48.4695ZM28.0872 50.6698V54.279L23.672 49.8414H27.2631C27.7176 49.8414 28.0872 50.213 28.0872 50.6698ZM22.6483 17.8851V28.2223H49.7516V17.8851C49.7516 17.4283 49.3819 17.0567 48.9275 17.0567H23.4725C23.0181 17.0567 22.6483 17.4283 22.6483 17.8851Z" fill="white"/>
<path d="M21.7242 50.2267L21.9369 50.0151L21.9369 50.0151L21.7242 50.2267ZM27.7393 56.2722L27.5266 56.4838L27.5266 56.4838L27.7393 56.2722ZM29.7356 55.3433H29.4356V55.6433H29.7356V55.3433ZM22.6483 48.1847H22.3483V48.4847H22.6483V48.1847ZM22.6483 29.879V29.579H22.3483V29.879H22.6483ZM49.7517 29.879H50.0517V29.579H49.7517V29.879ZM28.0872 54.279L27.8746 54.4906L28.3872 55.0059V54.279H28.0872ZM23.672 49.8414V49.5414H22.9503L23.4593 50.053L23.672 49.8414ZM22.6483 28.2223H22.3483V28.5223H22.6483V28.2223ZM49.7516 28.2223V28.5223H50.0516V28.2223H49.7516ZM21.9369 50.0151C21.526 49.6021 21.3 49.0542 21.3 48.4695H20.7C20.7 49.2123 20.9885 49.9126 21.5115 50.4383L21.9369 50.0151ZM27.9519 56.0606L21.9369 50.0151L21.5115 50.4383L27.5266 56.4838L27.9519 56.0606ZM29.4876 56.7C28.9073 56.7 28.3629 56.4735 27.9519 56.0605L27.5266 56.4838C28.0498 57.0095 28.7471 57.3 29.4876 57.3V56.7ZM48.9275 56.7H29.4876V57.3H48.9275V56.7ZM51.1 54.515C51.1 55.721 50.1237 56.7 48.9275 56.7V57.3C50.4579 57.3 51.7 56.0495 51.7 54.515H51.1ZM51.1 37.4435V54.515H51.7V37.4435H51.1ZM50.0517 37.4435C50.0517 37.262 50.1186 37.1463 50.2049 37.072C50.2975 36.9923 50.431 36.9452 50.5757 36.9452C50.7203 36.9453 50.854 36.9925 50.9467 37.0724C51.0332 37.1469 51.1 37.2625 51.1 37.4435H51.7C51.7 37.0928 51.5608 36.8094 51.3382 36.6177C51.1219 36.4314 50.8434 36.3454 50.576 36.3452C50.3085 36.3451 50.03 36.4309 49.8135 36.6172C49.5908 36.8089 49.4517 37.0925 49.4517 37.4435H50.0517ZM50.0517 54.515V37.4435H49.4517V54.515H50.0517ZM48.9275 55.6433C49.549 55.6433 50.0517 55.136 50.0517 54.515H49.4517C49.4517 54.8075 49.2148 55.0433 48.9275 55.0433V55.6433ZM29.7356 55.6433H48.9275V55.0433H29.7356V55.6433ZM29.4356 50.6698V55.3433H30.0356V50.6698H29.4356ZM27.2631 48.4847C28.4593 48.4847 29.4356 49.4638 29.4356 50.6698H30.0356C30.0356 49.1352 28.7935 47.8847 27.2631 47.8847V48.4847ZM22.6483 48.4847H27.2631V47.8847H22.6483V48.4847ZM22.3483 29.879V48.1847H22.9483V29.879H22.3483ZM49.7517 29.579H22.6483V30.179H49.7517V29.579ZM50.0517 30.7509V29.879H49.4517V30.7509H50.0517ZM50.5758 31.2792C50.2877 31.2792 50.0517 31.0441 50.0517 30.7509H49.4517C49.4517 31.3726 49.9535 31.8792 50.5758 31.8792V31.2792ZM51.1 30.7509C51.1 31.0441 50.8639 31.2792 50.5758 31.2792V31.8792C51.1981 31.8792 51.7 31.3726 51.7 30.7509H51.1ZM51.1 17.8851V30.7509H51.7V17.8851H51.1ZM48.9275 15.7C50.1237 15.7 51.1 16.6791 51.1 17.8851H51.7C51.7 16.3506 50.4579 15.1 48.9275 15.1V15.7ZM23.4725 15.7H48.9275V15.1H23.4725V15.7ZM21.3 17.8851C21.3 16.6791 22.2763 15.7 23.4725 15.7V15.1C21.9421 15.1 20.7 16.3506 20.7 17.8851H21.3ZM21.3 48.4695V17.8851H20.7V48.4695H21.3ZM28.3872 54.279V50.6698H27.7872V54.279H28.3872ZM23.4593 50.053L27.8746 54.4906L28.2999 54.0674L23.8846 49.6298L23.4593 50.053ZM27.2631 49.5414H23.672V50.1414H27.2631V49.5414ZM28.3872 50.6698C28.3872 50.0488 27.8847 49.5414 27.2631 49.5414V50.1414C27.5505 50.1414 27.7872 50.3772 27.7872 50.6698H28.3872ZM22.9483 28.2223V17.8851H22.3483V28.2223H22.9483ZM49.7516 27.9223H22.6483V28.5223H49.7516V27.9223ZM49.4516 17.8851V28.2223H50.0516V17.8851H49.4516ZM48.9275 17.3567C49.2148 17.3567 49.4516 17.5926 49.4516 17.8851H50.0516C50.0516 17.264 49.549 16.7567 48.9275 16.7567V17.3567ZM23.4725 17.3567H48.9275V16.7567H23.4725V17.3567ZM22.9483 17.8851C22.9483 17.5926 23.1852 17.3567 23.4725 17.3567V16.7567C22.851 16.7567 22.3483 17.264 22.3483 17.8851H22.9483Z" fill="white"/>
<path d="M29.204 20.771V26H28.016V20.771H26.234V19.718H30.986V20.771H29.204ZM31.9403 26V19.718H36.0803V20.771H33.1283V22.292H35.7383V23.345H33.1283V24.947H36.0803V26H31.9403ZM42.3134 26H40.9274L39.4874 23.588H39.4604L38.0384 26H36.7424L38.7764 22.778L36.8324 19.718H38.2184L39.5504 21.95H39.5774L40.9274 19.718H42.2234L40.2614 22.778L42.3134 26ZM45.6634 20.771V26H44.4754V20.771H42.6934V19.718H47.4454V20.771H45.6634Z" fill="white"/>
</g>
<defs>
<clipPath id="clip0">
<rect x="21" y="15" width="31" height="42" fill="white"/>
</clipPath>
</defs>
</svg>
