<svg width="72" height="72" viewBox="0 0 72 72" fill="none" xmlns="http://www.w3.org/2000/svg">
<rect width="72" height="72" fill="#1063FE"/>
<rect opacity="0.220447" x="44" y="20" width="28" height="52" fill="#0531AD"/>
<path fill-rule="evenodd" clip-rule="evenodd" d="M49.02 24H23.7C22.2131 24 21 25.2118 21 26.7V44.7C21 46.1832 22.2077 47.4 23.7 47.4H49.02C50.5032 47.4 51.72 46.1923 51.72 44.7V26.7C51.72 25.2168 50.5123 24 49.02 24ZM48.6472 25.8L36.4172 38.03L24.0815 25.8H48.6472ZM22.8 27.0641V44.3273L31.4687 35.6585L22.8 27.0641ZM24.0728 45.6L32.747 36.9258L35.7864 39.9391C36.1382 40.288 36.706 40.2868 37.0564 39.9364L40.02 36.9728L48.6472 45.6H24.0728ZM41.2928 35.7L49.92 44.3272V27.0727L41.2928 35.7Z" fill="white"/>
<path d="M36.4172 38.03L36.206 38.243L36.4182 38.4533L36.6294 38.2421L36.4172 38.03ZM48.6472 25.8L48.8593 26.0121L49.3714 25.5H48.6472V25.8ZM24.0815 25.8V25.5H23.3528L23.8703 26.013L24.0815 25.8ZM22.8 44.3273H22.5V45.0515L23.0121 44.5394L22.8 44.3273ZM22.8 27.0641L23.0112 26.8511L22.5 26.3443V27.0641H22.8ZM31.4687 35.6585L31.6809 35.8707L31.8939 35.6576L31.68 35.4455L31.4687 35.6585ZM32.747 36.9258L32.9582 36.7128L32.7461 36.5024L32.5348 36.7137L32.747 36.9258ZM24.0728 45.6L23.8606 45.3879L23.3485 45.9H24.0728V45.6ZM35.7864 39.9391L35.9976 39.7261L35.9976 39.7261L35.7864 39.9391ZM37.0564 39.9364L36.8443 39.7242L36.8443 39.7242L37.0564 39.9364ZM40.02 36.9728L40.2321 36.7606L40.02 36.5485L39.8079 36.7606L40.02 36.9728ZM48.6472 45.6V45.9H49.3715L48.8594 45.3879L48.6472 45.6ZM49.92 44.3272L49.7079 44.5394L50.22 45.0515V44.3272H49.92ZM41.2928 35.7L41.0806 35.4879L40.8685 35.7L41.0806 35.9121L41.2928 35.7ZM49.92 27.0727H50.22V26.3485L49.7079 26.8606L49.92 27.0727ZM23.7 24.3H49.02V23.7H23.7V24.3ZM21.3 26.7C21.3 25.3775 22.3787 24.3 23.7 24.3V23.7C22.0475 23.7 20.7 25.046 20.7 26.7H21.3ZM21.3 44.7V26.7H20.7V44.7H21.3ZM23.7 47.1C22.374 47.1 21.3 46.0182 21.3 44.7H20.7C20.7 46.3482 22.0413 47.7 23.7 47.7V47.1ZM49.02 47.1H23.7V47.7H49.02V47.1ZM51.42 44.7C51.42 46.026 50.3382 47.1 49.02 47.1V47.7C50.6682 47.7 52.02 46.3587 52.02 44.7H51.42ZM51.42 26.7V44.7H52.02V26.7H51.42ZM49.02 24.3C50.346 24.3 51.42 25.3818 51.42 26.7H52.02C52.02 25.0518 50.6787 23.7 49.02 23.7V24.3ZM36.6294 38.2421L48.8593 26.0121L48.435 25.5879L36.2051 37.8178L36.6294 38.2421ZM23.8703 26.013L36.206 38.243L36.6285 37.8169L24.2928 25.587L23.8703 26.013ZM48.6472 25.5H24.0815V26.1H48.6472V25.5ZM23.1 44.3273V27.0641H22.5V44.3273H23.1ZM31.2566 35.4464L22.5879 44.1151L23.0121 44.5394L31.6809 35.8707L31.2566 35.4464ZM22.5888 27.2772L31.2575 35.8716L31.68 35.4455L23.0112 26.8511L22.5888 27.2772ZM32.5348 36.7137L23.8606 45.3879L24.2849 45.8121L32.9591 37.1379L32.5348 36.7137ZM35.9976 39.7261L32.9582 36.7128L32.5358 37.1388L35.5752 40.1522L35.9976 39.7261ZM36.8443 39.7242C36.6107 39.9579 36.2322 39.9586 35.9976 39.7261L35.5752 40.1522C36.0443 40.6173 36.8013 40.6158 37.2686 40.1485L36.8443 39.7242ZM39.8079 36.7606L36.8443 39.7242L37.2686 40.1485L40.2321 37.1849L39.8079 36.7606ZM48.8594 45.3879L40.2321 36.7606L39.8079 37.1849L48.4351 45.8121L48.8594 45.3879ZM24.0728 45.9H48.6472V45.3H24.0728V45.9ZM50.1321 44.1151L41.5049 35.4879L41.0806 35.9121L49.7079 44.5394L50.1321 44.1151ZM49.62 27.0727V44.3272H50.22V27.0727H49.62ZM41.5049 35.9121L50.1321 27.2849L49.7079 26.8606L41.0806 35.4879L41.5049 35.9121Z" fill="white"/>
</svg>
