<svg width="73" height="72" viewBox="0 0 73 72" fill="none" xmlns="http://www.w3.org/2000/svg">
<rect x="0.117676" width="72" height="72" fill="#1063FE"/>
<rect opacity="0.1" x="39" y="32" width="33" height="33" fill="black"/>
<path fill-rule="evenodd" clip-rule="evenodd" d="M51.9333 41.7234H53.063C53.6455 41.7234 54.1177 42.1956 54.1177 42.7781C54.1177 43.3605 53.6455 43.8327 53.063 43.8327H52.9879V52.9453C52.9879 53.5278 52.5157 54 51.9332 54H20.302C19.7195 54 19.2473 53.5278 19.2473 52.9453V43.8328H19.1724C18.5899 43.8328 18.1177 43.3606 18.1177 42.7781C18.1177 42.1957 18.5899 41.7234 19.1724 41.7234H20.302H25.5736V33.6656H25.4986C24.9161 33.6656 24.4439 33.1933 24.4439 32.6109C24.4439 32.0284 24.9161 31.5562 25.4986 31.5562H26.6283H28.2849V29.2219C28.2849 25.2605 31.2409 21.9771 35.063 21.4604V19.0547C35.063 18.4722 35.5352 18 36.1177 18C36.7001 18 37.1724 18.4722 37.1724 19.0547V21.4604C40.9943 21.9771 43.9504 25.2605 43.9504 29.2219V31.5562H45.607H46.7367C47.3192 31.5562 47.7914 32.0284 47.7914 32.6109C47.7914 33.1933 47.3192 33.6656 46.7367 33.6656H46.6617V41.7234H51.9333ZM21.3567 51.8906H25.5736V43.8327H21.3567V51.8906ZM30.3942 29.2219C30.3942 26.066 32.9618 23.4985 36.1177 23.4985C39.2736 23.4985 41.841 26.066 41.841 29.2219V31.5562H30.3942V29.2219ZM29.3396 33.6656H27.6831V40.1024L33.6907 33.6656H29.3396ZM36.1177 34.1566L43.1799 41.7234H29.0554L36.1177 34.1566ZM27.683 51.8906H31.8998V43.8327H27.683V51.8906ZM34.0092 51.8906V43.8327H38.2261V51.8906H34.0092ZM40.3354 51.8906H44.5524V43.8327H40.3354V51.8906ZM44.5524 40.1024L38.5447 33.6656H42.8958H44.5524V40.1024ZM46.6617 43.8327V51.8906H50.8786V43.8327H46.6617Z" fill="white"/>
</svg>
