<svg width="42" height="50" viewBox="0 0 42 50" fill="none" xmlns="http://www.w3.org/2000/svg">
<path fill-rule="evenodd" clip-rule="evenodd" d="M20.3317 48.8727C20.4857 48.9449 20.6522 48.9874 20.8222 48.9977C21.0463 49.0109 21.2701 48.9679 21.4731 48.8727C21.4731 48.8727 32.6849 43.7439 37.7304 34.0566C39.9905 29.7174 40.6076 23.6149 40.7655 18.5183C40.9233 13.4217 40.556 9.32552 40.556 9.32552C40.5106 8.82128 40.182 8.38614 39.7078 8.20224L21.3894 1.09108C21.0762 0.969638 20.7286 0.969638 20.4155 1.09108L2.09705 8.20224C1.62288 8.38614 1.2943 8.82128 1.24884 9.32552C1.24884 9.32552 0.881566 13.4217 1.03941 18.5183C1.19725 23.6149 1.81439 29.7174 4.07445 34.0566C9.12003 43.7439 20.3317 48.8727 20.3317 48.8727ZM35.3499 32.8309C31.2562 40.6904 22.4044 45.3917 20.9024 46.1522C19.4005 45.3917 10.5486 40.6904 6.45501 32.8309C4.59516 29.2601 3.87097 23.3626 3.71841 18.4367C3.58531 14.1388 3.82866 11.2339 3.89427 10.4508C3.89707 10.4173 3.89955 10.3877 3.90167 10.362L20.9024 3.76298L37.9032 10.362C37.9053 10.3877 37.9078 10.4173 37.9106 10.4508C37.9762 11.2339 38.2196 14.1388 38.0865 18.4367C37.9339 23.3626 37.2097 29.2601 35.3499 32.8309Z" fill="white"/>
<path d="M20.8222 48.9977L20.7768 49.7463L20.778 49.7464L20.8222 48.9977ZM20.3317 48.8727L20.6504 48.1937L20.6437 48.1906L20.3317 48.8727ZM21.4731 48.8727L21.1611 48.1906L21.1547 48.1936L21.4731 48.8727ZM37.7304 34.0566L37.0652 33.7101L37.7304 34.0566ZM40.7655 18.5183L41.5151 18.5415L40.7655 18.5183ZM40.556 9.32552L41.303 9.25854L41.303 9.25817L40.556 9.32552ZM39.7078 8.20224L39.4364 8.90141L39.4366 8.9015L39.7078 8.20224ZM21.3894 1.09108L21.6608 0.391918L21.6606 0.391832L21.3894 1.09108ZM20.4155 1.09108L20.1443 0.391832L20.1441 0.391918L20.4155 1.09108ZM2.09705 8.20224L2.36825 8.9015L2.36846 8.90141L2.09705 8.20224ZM1.24884 9.32552L0.501872 9.25817L0.501839 9.25854L1.24884 9.32552ZM1.03941 18.5183L1.78905 18.4951L1.03941 18.5183ZM4.07445 34.0566L3.40927 34.403L4.07445 34.0566ZM20.9024 46.1522L20.5637 46.8213L20.9024 46.9928L21.2412 46.8213L20.9024 46.1522ZM35.3499 32.8309L34.6847 32.4844L35.3499 32.8309ZM6.45501 32.8309L7.12019 32.4844L6.45501 32.8309ZM3.71841 18.4367L4.46805 18.4135H4.46805L3.71841 18.4367ZM3.89427 10.4508L3.14689 10.3881L3.89427 10.4508ZM3.90167 10.362L3.63028 9.66281L3.19268 9.83266L3.15419 10.3005L3.90167 10.362ZM20.9024 3.76298L21.1738 3.0638L20.9024 2.95846L20.631 3.0638L20.9024 3.76298ZM37.9032 10.362L38.6507 10.3005L38.6122 9.83265L38.1746 9.66281L37.9032 10.362ZM37.9106 10.4508L38.658 10.3882L38.658 10.3881L37.9106 10.4508ZM38.0865 18.4367L38.8361 18.4599L38.0865 18.4367ZM20.8675 48.249C20.7921 48.2445 20.7184 48.2257 20.6504 48.1937L20.0131 49.5516C20.2531 49.6642 20.5122 49.7303 20.7768 49.7463L20.8675 48.249ZM21.1547 48.1936C21.0649 48.2357 20.9657 48.2548 20.8663 48.249L20.778 49.7464C21.1268 49.7669 21.4753 49.7001 21.7916 49.5517L21.1547 48.1936ZM37.0652 33.7101C34.6177 38.4093 30.6557 42.0315 27.269 44.4905C25.5806 45.7164 24.0472 46.6446 22.9376 47.2654C22.3831 47.5756 21.9352 47.8087 21.6277 47.9633C21.474 48.0407 21.3554 48.0984 21.2763 48.1363C21.2367 48.1553 21.2069 48.1693 21.1876 48.1784C21.1779 48.1829 21.1708 48.1862 21.1664 48.1882C21.1642 48.1893 21.1626 48.19 21.1617 48.1904C21.1613 48.1906 21.161 48.1907 21.1609 48.1907C21.1609 48.1908 21.1609 48.1907 21.1609 48.1907C21.161 48.1907 21.1612 48.1906 21.4731 48.8727C21.7851 49.5547 21.7854 49.5546 21.7856 49.5545C21.7858 49.5544 21.7861 49.5543 21.7864 49.5541C21.787 49.5539 21.7877 49.5535 21.7886 49.5531C21.7905 49.5522 21.793 49.5511 21.7962 49.5496C21.8026 49.5466 21.8117 49.5424 21.8234 49.5369C21.8467 49.526 21.8806 49.51 21.9243 49.4891C22.0118 49.4472 22.1391 49.3852 22.3018 49.3034C22.6271 49.1397 23.0946 48.8964 23.67 48.5744C24.8203 47.9309 26.4052 46.9714 28.1504 45.7042C31.631 43.177 35.7976 39.3912 38.3956 34.403L37.0652 33.7101ZM40.0158 18.4951C39.8581 23.587 39.2395 29.5357 37.0652 33.7101L38.3956 34.403C40.7415 29.8991 41.3571 23.6428 41.5151 18.5415L40.0158 18.4951ZM40.556 9.32552C39.809 9.39249 39.809 9.39246 39.809 9.39243C39.809 9.39245 39.809 9.39244 39.809 9.39246C39.809 9.39252 39.809 9.39263 39.8091 9.39281C39.8091 9.39316 39.8091 9.39376 39.8092 9.39461C39.8094 9.3963 39.8096 9.39898 39.8099 9.40264C39.8106 9.40995 39.8115 9.42116 39.8128 9.43618C39.8154 9.46621 39.8191 9.51145 39.8239 9.57115C39.8334 9.69055 39.8469 9.86777 39.8627 10.0968C39.8943 10.5548 39.9349 11.2197 39.9706 12.0432C40.0422 13.691 40.094 15.9699 40.0158 18.4951L41.5151 18.5415C41.5947 15.97 41.5419 13.6526 41.4692 11.9781C41.4329 11.1405 41.3915 10.4629 41.3592 9.99359C41.343 9.75893 41.3291 9.57632 41.3191 9.4518C41.3142 9.38955 41.3102 9.34181 41.3074 9.30935C41.3061 9.29311 41.305 9.2807 41.3042 9.2722C41.3039 9.26795 41.3036 9.26468 41.3034 9.2624C41.3033 9.26126 41.3032 9.26037 41.3031 9.25972C41.3031 9.2594 41.3031 9.25914 41.3031 9.25894C41.3031 9.25884 41.3031 9.25874 41.3031 9.25869C41.303 9.25861 41.303 9.25854 40.556 9.32552ZM39.4366 8.9015C39.6465 8.98291 39.7894 9.17422 39.8091 9.39286L41.303 9.25817C41.2318 8.46835 40.7174 7.78938 39.979 7.50299L39.4366 8.9015ZM21.118 1.79025L39.4364 8.90141L39.9792 7.50308L21.6608 0.391918L21.118 1.79025ZM20.6867 1.79034C20.8254 1.73655 20.9795 1.73655 21.1182 1.79034L21.6606 0.391832C21.173 0.202723 20.6319 0.202723 20.1443 0.391832L20.6867 1.79034ZM2.36846 8.90141L20.6869 1.79025L20.1441 0.391918L1.82563 7.50308L2.36846 8.90141ZM1.99581 9.39286C2.01553 9.17421 2.15834 8.98291 2.36825 8.9015L1.82585 7.50299C1.08743 7.78938 0.573081 8.46835 0.501872 9.25817L1.99581 9.39286ZM1.78905 18.4951C1.71085 15.9699 1.76272 13.691 1.83423 12.0432C1.86997 11.2197 1.91057 10.5548 1.94215 10.0968C1.95793 9.86777 1.97146 9.69055 1.98099 9.57115C1.98576 9.51145 1.98952 9.46621 1.99207 9.43618C1.99334 9.42116 1.99431 9.40995 1.99495 9.40264C1.99527 9.39899 1.99551 9.3963 1.99566 9.39461C1.99573 9.39376 1.99579 9.39316 1.99582 9.39281C1.99583 9.39263 1.99584 9.39252 1.99585 9.39246C1.99585 9.39244 1.99585 9.39245 1.99585 9.39243C1.99585 9.39246 1.99585 9.3925 1.24884 9.32552C0.501839 9.25854 0.501833 9.25861 0.501825 9.25869C0.50182 9.25874 0.501811 9.25884 0.501803 9.25894C0.501785 9.25914 0.501762 9.2594 0.501733 9.25972C0.501676 9.26037 0.501596 9.26126 0.501495 9.2624C0.501293 9.26468 0.501005 9.26795 0.500634 9.2722C0.499892 9.2807 0.498819 9.29311 0.497442 9.30934C0.494687 9.34181 0.490716 9.38954 0.485747 9.4518C0.475808 9.57631 0.461876 9.75893 0.445698 9.99359C0.413344 10.4629 0.37199 11.1405 0.33564 11.9781C0.262972 13.6526 0.210129 15.97 0.289768 18.5415L1.78905 18.4951ZM4.73963 33.7101C2.5654 29.5357 1.94675 23.587 1.78905 18.4951L0.289768 18.5415C0.447756 23.6428 1.06338 29.8991 3.40927 34.403L4.73963 33.7101ZM20.3317 48.8727C20.6437 48.1906 20.6439 48.1907 20.644 48.1907C20.6439 48.1907 20.644 48.1908 20.6439 48.1907C20.6438 48.1907 20.6436 48.1906 20.6431 48.1904C20.6423 48.19 20.6407 48.1893 20.6385 48.1882C20.6341 48.1862 20.627 48.1829 20.6173 48.1784C20.598 48.1693 20.5682 48.1553 20.5286 48.1363C20.4494 48.0984 20.3309 48.0407 20.1771 47.9633C19.8696 47.8087 19.4218 47.5756 18.8673 47.2654C17.7577 46.6446 16.2243 45.7164 14.5358 44.4905C11.1492 42.0315 7.18717 38.4093 4.73963 33.7101L3.40927 34.403C6.00731 39.3912 10.1739 43.177 13.6545 45.7042C15.3997 46.9714 16.9846 47.9309 18.1349 48.5744C18.7103 48.8964 19.1777 49.1397 19.5031 49.3034C19.6658 49.3852 19.793 49.4472 19.8806 49.4891C19.9243 49.51 19.9581 49.526 19.9815 49.5369C19.9932 49.5424 20.0023 49.5466 20.0087 49.5496C20.0119 49.5511 20.0144 49.5522 20.0162 49.5531C20.0172 49.5535 20.0179 49.5539 20.0185 49.5541C20.0188 49.5543 20.0191 49.5544 20.0192 49.5545C20.0195 49.5546 20.0197 49.5547 20.3317 48.8727ZM21.2412 46.8213C22.0167 46.4286 24.6501 45.0389 27.6132 42.7469C30.5702 40.4595 33.8987 37.2407 36.015 33.1773L34.6847 32.4844C32.7074 36.2806 29.5631 39.3422 26.6954 41.5604C23.8336 43.7741 21.2901 45.1152 20.5637 45.483L21.2412 46.8213ZM5.78983 33.1773C7.90621 37.2407 11.2346 40.4595 14.1917 42.7469C17.1547 45.0389 19.7882 46.4286 20.5637 46.8213L21.2412 45.483C20.5148 45.1152 17.9713 43.7741 15.1095 41.5604C12.2418 39.3422 9.09743 36.2806 7.12019 32.4844L5.78983 33.1773ZM2.96877 18.4599C3.12155 23.393 3.84466 29.4427 5.78983 33.1773L7.12019 32.4844C5.34567 29.0774 4.62039 23.3323 4.46805 18.4135L2.96877 18.4599ZM3.14689 10.3881C3.08002 11.1864 2.83444 14.1225 2.96877 18.4599L4.46805 18.4135C4.33617 14.1551 4.57731 11.2814 4.64165 10.5134L3.14689 10.3881ZM3.15419 10.3005C3.15214 10.3255 3.14971 10.3545 3.14689 10.3881L4.64165 10.5134C4.64444 10.48 4.64697 10.4498 4.64914 10.4235L3.15419 10.3005ZM20.631 3.0638L3.63028 9.66281L4.17306 11.0612L21.1738 4.46215L20.631 3.0638ZM38.1746 9.66281L21.1738 3.0638L20.631 4.46215L37.6318 11.0612L38.1746 9.66281ZM38.658 10.3881C38.6552 10.3545 38.6527 10.3255 38.6507 10.3005L37.1557 10.4235C37.1579 10.4498 37.1604 10.48 37.1632 10.5134L38.658 10.3881ZM38.8361 18.4599C38.9704 14.1225 38.7249 11.1864 38.658 10.3882L37.1632 10.5134C37.2276 11.2814 37.4687 14.1551 37.3368 18.4135L38.8361 18.4599ZM36.015 33.1773C37.9602 29.4427 38.6833 23.393 38.8361 18.4599L37.3368 18.4135C37.1845 23.3322 36.4592 29.0774 34.6847 32.4844L36.015 33.1773Z" fill="white"/>
</svg>
