<svg width="72" height="72" viewBox="0 0 72 72" fill="none" xmlns="http://www.w3.org/2000/svg">
<rect width="72" height="72" fill="#1063FE"/>
<rect opacity="0.220447" x="44" y="20" width="28" height="52" fill="#0531AD"/>
<path fill-rule="evenodd" clip-rule="evenodd" d="M32.3383 55.6649C33.5354 55.8872 34.7674 56 36 56C37.2327 56 38.4647 55.8872 39.6618 55.6649C39.9602 55.6095 40.1996 55.3859 40.2756 55.0914L40.7808 53.1362C42.1554 52.7544 43.4766 52.2084 44.7197 51.5084L46.3684 52.5647C46.6312 52.7333 46.9694 52.7287 47.2277 52.5531C49.3316 51.1238 51.123 49.3324 52.5526 47.2285C52.7287 46.9691 52.7334 46.6294 52.5642 46.3653L51.5089 44.7184C52.2084 43.4758 52.754 42.1554 53.1357 40.7815L55.0918 40.2762C55.3858 40.2002 55.6092 39.9605 55.6648 39.6615C55.8873 38.4645 56 37.2323 56 35.9991C56 34.766 55.8873 33.5338 55.6646 32.3368C55.6091 32.0379 55.3856 31.7981 55.0916 31.7222L53.1355 31.2169C52.7539 29.843 52.2083 28.5226 51.5088 27.2799L52.564 25.6331C52.7332 25.369 52.7287 25.0293 52.5524 24.7699C51.1229 22.666 49.3314 20.8745 47.2276 19.4452C46.9692 19.2697 46.6311 19.2651 46.3682 19.4336L44.7195 20.49C43.4765 19.7901 42.1552 19.2441 40.7806 18.8622L40.2755 16.907C40.1995 16.6127 39.9601 16.389 39.6616 16.3336C37.2677 15.8888 34.7325 15.8888 32.3382 16.3336C32.0398 16.389 31.8004 16.6126 31.7244 16.907L31.2192 18.8622C29.8446 19.2441 28.5234 19.7901 27.2803 20.49L25.6316 19.4336C25.3687 19.2651 25.0307 19.2697 24.7723 19.4452C22.6684 20.8746 20.877 22.666 19.4474 24.7699C19.2713 25.0293 19.2666 25.369 19.4359 25.6331L20.4911 27.2798C19.7916 28.5224 19.246 29.8429 18.8643 31.2168L16.9082 31.7221C16.6142 31.7981 16.3908 32.0378 16.3352 32.3368C16.1127 33.5342 16 34.7665 16 35.9991C16 37.2318 16.1127 38.464 16.3353 39.6615C16.3909 39.9605 16.6143 40.2002 16.9083 40.2762L18.8644 40.7815C19.246 42.1554 19.7917 43.4759 20.4912 44.7184L19.4359 46.3653C19.2667 46.6294 19.2713 46.9691 19.4475 47.2285C20.877 49.3324 22.6685 51.1239 24.7723 52.5531C25.0308 52.7287 25.3687 52.7332 25.6317 52.5647L27.2804 51.5084C28.5235 52.2084 29.8447 52.7544 31.2193 53.1362L31.7245 55.0914C31.8004 55.3859 32.0398 55.6095 32.3383 55.6649ZM38.8895 54.2094C36.9913 54.5086 35.0091 54.5085 33.1105 54.2094L32.6171 52.3C32.5454 52.0221 32.3276 51.806 32.0496 51.7366C30.5041 51.351 29.0278 50.7401 27.6618 49.9206C27.4075 49.7681 27.0891 49.7727 26.8395 49.9327L25.2298 50.9641C23.6091 49.7973 22.2009 48.3894 21.0339 46.7689L22.0641 45.1611C22.2248 44.9106 22.2295 44.5904 22.0763 44.3352C21.257 42.9695 20.6462 41.4936 20.2605 39.9484C20.1911 39.67 19.9752 39.452 19.6977 39.3803L17.7876 38.8869C17.6381 37.9381 17.5625 36.969 17.5625 35.9991C17.5625 35.0293 17.6381 34.0602 17.7876 33.1114L19.6977 32.618C19.9752 32.5463 20.1911 32.3284 20.2605 32.0499C20.6461 30.5048 21.257 29.0288 22.0764 27.663C22.2295 27.4078 22.2248 27.0877 22.0642 26.8371L21.034 25.2293C22.201 23.6089 23.6092 22.201 25.2298 21.0342L26.8396 22.0656C27.0893 22.2256 27.4077 22.2302 27.6619 22.0777C29.0278 21.2583 30.5041 20.6473 32.0497 20.2617C32.3277 20.1923 32.5455 19.9762 32.6172 19.6983L33.1105 17.7889C35.0091 17.4898 36.9912 17.4897 38.8895 17.7889L39.3827 19.6983C39.4545 19.9762 39.6723 20.1923 39.9502 20.2617C41.4958 20.6473 42.9721 21.2583 44.338 22.0777C44.5923 22.2302 44.9106 22.2256 45.1603 22.0656L46.7701 21.0342C48.3907 22.201 49.7989 23.6089 50.966 25.2294L49.9359 26.8372C49.7753 27.0878 49.7705 27.4079 49.9237 27.6631C50.743 29.0289 51.3538 30.5049 51.7394 32.05C51.8088 32.3284 52.0248 32.5463 52.3022 32.618L54.2123 33.1115C54.3618 34.0599 54.4374 35.0291 54.4374 35.9991C54.4374 36.9693 54.3618 37.9385 54.2123 38.8869L52.3022 39.3803C52.0248 39.452 51.8088 39.6699 51.7394 39.9484C51.3539 41.4935 50.743 42.9694 49.9237 44.3352C49.7705 44.5904 49.7752 44.9105 49.9358 45.1611L50.9661 46.7689C49.799 48.3894 48.3908 49.7973 46.7702 50.9641L45.1604 49.9327C44.9108 49.7728 44.5923 49.7682 44.3381 49.9206C42.9721 50.7401 41.4958 51.351 39.9503 51.7366C39.6723 51.806 39.4545 52.0221 39.3828 52.3L38.8895 54.2094Z" fill="white"/>
<path d="M32.3383 55.6649L32.4296 55.1733L32.4296 55.1733L32.3383 55.6649ZM39.6618 55.6649L39.5705 55.1733L39.5705 55.1733L39.6618 55.6649ZM40.2756 55.0914L39.7915 54.9664L39.7915 54.9664L40.2756 55.0914ZM40.7808 53.1362L40.647 52.6545L40.3689 52.7317L40.2967 53.0111L40.7808 53.1362ZM44.7197 51.5084L44.9894 51.0874L44.7363 50.9252L44.4744 51.0727L44.7197 51.5084ZM46.3684 52.5647L46.6383 52.1438L46.6381 52.1437L46.3684 52.5647ZM47.2277 52.5531L46.9467 52.1396L46.9467 52.1396L47.2277 52.5531ZM52.5526 47.2285L52.9661 47.5095L52.9662 47.5094L52.5526 47.2285ZM52.5642 46.3653L52.9853 46.0956L52.9852 46.0955L52.5642 46.3653ZM51.5089 44.7184L51.0732 44.4731L50.9257 44.735L51.0879 44.9881L51.5089 44.7184ZM53.1357 40.7815L53.0106 40.2974L52.7312 40.3696L52.654 40.6477L53.1357 40.7815ZM55.0918 40.2762L54.9668 39.792L54.9667 39.7921L55.0918 40.2762ZM55.6648 39.6615L55.1732 39.5702L55.1732 39.5702L55.6648 39.6615ZM55.6646 32.3368L55.173 32.4282L55.173 32.4283L55.6646 32.3368ZM55.0916 31.7222L54.9666 32.2063L54.9666 32.2063L55.0916 31.7222ZM53.1355 31.2169L52.6538 31.3507L52.731 31.6288L53.0105 31.701L53.1355 31.2169ZM51.5088 27.2799L51.0878 27.0102L50.9256 27.2632L51.073 27.5252L51.5088 27.2799ZM52.564 25.6331L52.143 25.3633L52.143 25.3633L52.564 25.6331ZM52.5524 24.7699L52.1389 25.0509L52.1389 25.0509L52.5524 24.7699ZM47.2276 19.4452L46.9466 19.8588L46.9466 19.8588L47.2276 19.4452ZM46.3682 19.4336L46.6379 19.8546L46.638 19.8546L46.3682 19.4336ZM44.7195 20.49L44.4742 20.9257L44.7362 21.0732L44.9893 20.911L44.7195 20.49ZM40.7806 18.8622L40.2965 18.9873L40.3687 19.2667L40.6468 19.344L40.7806 18.8622ZM40.2755 16.907L39.7913 17.0319L39.7914 17.0321L40.2755 16.907ZM39.6616 16.3336L39.5703 16.8252L39.5704 16.8252L39.6616 16.3336ZM32.3382 16.3336L32.4295 16.8252L32.4295 16.8252L32.3382 16.3336ZM31.7244 16.907L32.2085 17.0321L32.2085 17.032L31.7244 16.907ZM31.2192 18.8622L31.353 19.344L31.6311 19.2667L31.7033 18.9873L31.2192 18.8622ZM27.2803 20.49L27.0106 20.911L27.2637 21.0732L27.5256 20.9257L27.2803 20.49ZM25.6316 19.4336L25.3618 19.8546L25.3619 19.8546L25.6316 19.4336ZM24.7723 19.4452L24.4913 19.0316L24.4913 19.0317L24.7723 19.4452ZM19.4474 24.7699L19.0339 24.4889L19.0338 24.489L19.4474 24.7699ZM19.4359 25.6331L19.8568 25.3633L19.8568 25.3633L19.4359 25.6331ZM20.4911 27.2798L20.9268 27.5251L21.0743 27.2632L20.9121 27.0101L20.4911 27.2798ZM18.8643 31.2168L18.9894 31.7009L19.2688 31.6287L19.346 31.3506L18.8643 31.2168ZM16.9082 31.7221L16.7831 31.238L16.7831 31.2381L16.9082 31.7221ZM16.3352 32.3368L16.8268 32.4282L16.8268 32.4281L16.3352 32.3368ZM16.3353 39.6615L16.8269 39.5702L16.8269 39.5701L16.3353 39.6615ZM16.9083 40.2762L17.0333 39.7921L17.0333 39.792L16.9083 40.2762ZM18.8644 40.7815L19.3461 40.6477L19.2689 40.3696L18.9894 40.2974L18.8644 40.7815ZM20.4912 44.7184L20.9122 44.9881L21.0743 44.735L20.9269 44.4731L20.4912 44.7184ZM19.4359 46.3653L19.8569 46.6351L19.8569 46.635L19.4359 46.3653ZM19.4475 47.2285L19.8611 46.9475L19.8611 46.9475L19.4475 47.2285ZM24.7723 52.5531L24.4914 52.9667L24.4914 52.9668L24.7723 52.5531ZM25.6317 52.5647L25.362 52.1437L25.362 52.1437L25.6317 52.5647ZM27.2804 51.5084L27.5257 51.0727L27.2638 50.9252L27.0106 51.0874L27.2804 51.5084ZM31.2193 53.1362L31.7034 53.0111L31.6312 52.7317L31.3531 52.6545L31.2193 53.1362ZM31.7245 55.0914L32.2086 54.9666L32.2086 54.9664L31.7245 55.0914ZM33.1105 54.2094L32.6264 54.3345L32.7086 54.6522L33.0327 54.7033L33.1105 54.2094ZM38.8895 54.2094L38.9674 54.7033L39.2916 54.6522L39.3736 54.3344L38.8895 54.2094ZM32.6171 52.3L32.133 52.4249L32.133 52.4251L32.6171 52.3ZM32.0496 51.7366L31.9286 52.2217L31.9286 52.2217L32.0496 51.7366ZM27.6618 49.9206L27.919 49.4918L27.9189 49.4917L27.6618 49.9206ZM26.8395 49.9327L27.1093 50.3537L27.1093 50.3537L26.8395 49.9327ZM25.2298 50.9641L24.9376 51.3699L25.2134 51.5685L25.4995 51.3851L25.2298 50.9641ZM21.0339 46.7689L20.6129 46.4992L20.4296 46.7853L20.6282 47.0611L21.0339 46.7689ZM22.0641 45.1611L21.6432 44.8913L21.6432 44.8914L22.0641 45.1611ZM22.0763 44.3352L21.6476 44.5924L21.6476 44.5924L22.0763 44.3352ZM20.2605 39.9484L19.7754 40.0694L19.7754 40.0695L20.2605 39.9484ZM19.6977 39.3803L19.5727 39.8644L19.5728 39.8645L19.6977 39.3803ZM17.7876 38.8869L17.2937 38.9647L17.3447 39.2889L17.6625 39.371L17.7876 38.8869ZM17.7876 33.1114L17.6625 32.6273L17.3447 32.7094L17.2937 33.0336L17.7876 33.1114ZM19.6977 32.618L19.5728 32.1338L19.5727 32.1339L19.6977 32.618ZM20.2605 32.0499L19.7754 31.9289L19.7754 31.9289L20.2605 32.0499ZM22.0764 27.663L21.6477 27.4058L21.6476 27.4058L22.0764 27.663ZM22.0642 26.8371L21.6432 27.1069L21.6433 27.1069L22.0642 26.8371ZM21.034 25.2293L20.6283 24.9371L20.4296 25.2129L20.613 25.4991L21.034 25.2293ZM25.2298 21.0342L25.4996 20.6132L25.2135 20.4298L24.9377 20.6284L25.2298 21.0342ZM26.8396 22.0656L26.5699 22.4866L26.5699 22.4866L26.8396 22.0656ZM27.6619 22.0777L27.9191 22.5065L27.6619 22.0777ZM32.0497 20.2617L31.9287 19.7766L31.9286 19.7766L32.0497 20.2617ZM32.6172 19.6983L32.1331 19.5733L32.1331 19.5734L32.6172 19.6983ZM33.1105 17.7889L33.0327 17.295L32.7085 17.3461L32.6264 17.6639L33.1105 17.7889ZM38.8895 17.7889L39.3736 17.6639L39.2915 17.3461L38.9673 17.295L38.8895 17.7889ZM39.3827 19.6983L39.8669 19.5734L39.8668 19.5733L39.3827 19.6983ZM39.9502 20.2617L40.0713 19.7766L40.0713 19.7766L39.9502 20.2617ZM44.338 22.0777L44.0808 22.5065L44.0809 22.5065L44.338 22.0777ZM45.1603 22.0656L45.43 22.4866L45.4301 22.4866L45.1603 22.0656ZM46.7701 21.0342L47.0622 20.6284L46.7865 20.4298L46.5003 20.6132L46.7701 21.0342ZM50.966 25.2294L51.387 25.4991L51.5704 25.213L51.3717 24.9372L50.966 25.2294ZM49.9359 26.8372L49.5149 26.5674L49.5148 26.5675L49.9359 26.8372ZM49.9237 27.6631L50.3524 27.4059L50.3524 27.4059L49.9237 27.6631ZM51.7394 32.05L52.2245 31.929L52.2245 31.9289L51.7394 32.05ZM52.3022 32.618L52.1771 33.1021L52.1771 33.1021L52.3022 32.618ZM54.2123 33.1115L54.7062 33.0337L54.6552 32.7095L54.3374 32.6274L54.2123 33.1115ZM54.2123 38.8869L54.3374 39.371L54.6552 39.2889L54.7062 38.9647L54.2123 38.8869ZM52.3022 39.3803L52.4272 39.8645L52.4272 39.8644L52.3022 39.3803ZM51.7394 39.9484L52.2245 40.0694L52.2245 40.0694L51.7394 39.9484ZM49.9237 44.3352L50.3524 44.5924L50.3524 44.5924L49.9237 44.3352ZM49.9358 45.1611L49.5148 45.4308L49.5148 45.4309L49.9358 45.1611ZM50.9661 46.7689L51.3718 47.0611L51.5705 46.7853L51.3871 46.4991L50.9661 46.7689ZM46.7702 50.9641L46.5004 51.3851L46.7865 51.5685L47.0623 51.3699L46.7702 50.9641ZM45.1604 49.9327L45.4301 49.5117L45.4301 49.5117L45.1604 49.9327ZM44.3381 49.9206L44.0811 49.4917L44.0809 49.4918L44.3381 49.9206ZM39.9503 51.7366L40.0713 52.2217L40.0714 52.2217L39.9503 51.7366ZM39.3828 52.3L39.8669 52.425L39.8669 52.4249L39.3828 52.3ZM36 55.5C34.7977 55.5 33.5962 55.39 32.4296 55.1733L32.247 56.1565C33.4746 56.3845 34.7372 56.5 36 56.5V55.5ZM39.5705 55.1733C38.4039 55.39 37.2024 55.5 36 55.5V56.5C37.2629 56.5 38.5255 56.3845 39.7531 56.1565L39.5705 55.1733ZM39.7915 54.9664C39.764 55.0731 39.6775 55.1534 39.5705 55.1733L39.7531 56.1565C40.243 56.0655 40.6353 55.6986 40.7598 55.2164L39.7915 54.9664ZM40.2967 53.0111L39.7915 54.9664L40.7597 55.2165L41.2649 53.2613L40.2967 53.0111ZM44.4744 51.0727C43.2664 51.7529 41.9827 52.2834 40.647 52.6545L40.9146 53.618C42.3281 53.2253 43.6867 52.6639 44.965 51.9441L44.4744 51.0727ZM46.6381 52.1437L44.9894 51.0874L44.4499 51.9294L46.0986 52.9857L46.6381 52.1437ZM46.9467 52.1396C46.8538 52.2027 46.7325 52.2042 46.6383 52.1438L46.0985 52.9856C46.53 53.2624 47.0849 53.2547 47.5087 52.9667L46.9467 52.1396ZM52.139 46.9475C50.7449 48.9992 48.9984 50.7457 46.9467 52.1396L47.5087 52.9667C49.6647 51.5019 51.5012 49.6656 52.9661 47.5095L52.139 46.9475ZM52.1432 46.635C52.2044 46.7305 52.2027 46.8537 52.139 46.9475L52.9662 47.5094C53.2548 47.0846 53.2623 46.5282 52.9853 46.0956L52.1432 46.635ZM51.0879 44.9881L52.1432 46.6351L52.9852 46.0955L51.9299 44.4486L51.0879 44.9881ZM52.654 40.6477C52.283 41.9827 51.7529 43.2657 51.0732 44.4731L51.9446 44.9637C52.6639 43.6859 53.2249 42.3281 53.6175 40.9154L52.654 40.6477ZM54.9667 39.7921L53.0106 40.2974L53.2608 41.2656L55.2169 40.7603L54.9667 39.7921ZM55.1732 39.5702C55.153 39.6786 55.0722 39.7648 54.9668 39.792L55.2168 40.7603C55.6994 40.6357 56.0654 40.2424 56.1564 39.7529L55.1732 39.5702ZM55.5 35.9991C55.5 37.2021 55.39 38.4037 55.1732 39.5702L56.1563 39.7529C56.3845 38.5253 56.5 37.2625 56.5 35.9991H55.5ZM55.173 32.4283C55.39 33.5947 55.5 34.7962 55.5 35.9991H56.5C56.5 34.7358 56.3845 33.473 56.1562 32.2454L55.173 32.4283ZM54.9666 32.2063C55.072 32.2336 55.1529 32.3198 55.173 32.4282L56.1562 32.2455C56.0652 31.7559 55.6992 31.3627 55.2167 31.2381L54.9666 32.2063ZM53.0105 31.701L54.9666 32.2063L55.2167 31.2381L53.2606 30.7328L53.0105 31.701ZM51.073 27.5252C51.7528 28.7327 52.2829 30.0157 52.6538 31.3507L53.6173 31.083C53.2249 29.6703 52.6638 28.3125 51.9445 27.0346L51.073 27.5252ZM52.143 25.3633L51.0878 27.0102L51.9297 27.5497L52.985 25.9028L52.143 25.3633ZM52.1389 25.0509C52.2026 25.1447 52.2043 25.2677 52.143 25.3633L52.985 25.9028C53.2621 25.4703 53.2548 24.9139 52.966 24.4889L52.1389 25.0509ZM46.9466 19.8588C48.9983 21.2526 50.7448 22.9991 52.1389 25.0509L52.966 24.4889C51.501 22.3328 49.6646 20.4964 47.5086 19.0316L46.9466 19.8588ZM46.638 19.8546C46.7323 19.7941 46.8538 19.7957 46.9466 19.8588L47.5086 19.0317C47.0847 18.7436 46.5298 18.7361 46.0984 19.0127L46.638 19.8546ZM44.9893 20.911L46.6379 19.8546L46.0985 19.0126L44.4498 20.069L44.9893 20.911ZM40.6468 19.344C41.9825 19.715 43.2663 20.2456 44.4742 20.9257L44.9649 20.0543C43.6866 19.3346 42.3279 18.7731 40.9145 18.3805L40.6468 19.344ZM39.7914 17.0321L40.2965 18.9873L41.2647 18.7372L40.7596 16.782L39.7914 17.0321ZM39.5704 16.8252C39.6774 16.845 39.7638 16.9254 39.7913 17.0319L40.7596 16.7821C40.6352 16.2999 40.2428 15.9329 39.7529 15.842L39.5704 16.8252ZM32.4295 16.8252C34.7635 16.3916 37.2367 16.3916 39.5703 16.8252L39.753 15.842C37.2986 15.386 34.7015 15.386 32.2469 15.842L32.4295 16.8252ZM32.2085 17.032C32.236 16.9253 32.3225 16.845 32.4295 16.8252L32.2469 15.842C31.757 15.9329 31.3647 16.2998 31.2402 16.782L32.2085 17.032ZM31.7033 18.9873L32.2085 17.0321L31.2403 16.782L30.7351 18.7372L31.7033 18.9873ZM27.5256 20.9257C28.7335 20.2456 30.0173 19.715 31.353 19.344L31.0854 18.3805C29.6719 18.7731 28.3132 19.3346 27.035 20.0543L27.5256 20.9257ZM25.3619 19.8546L27.0106 20.911L27.5501 20.069L25.9014 19.0126L25.3619 19.8546ZM25.0532 19.8588C25.1462 19.7957 25.2675 19.7941 25.3618 19.8546L25.9015 19.0127C25.4699 18.736 24.9152 18.7437 24.4913 19.0316L25.0532 19.8588ZM19.861 25.0509C21.2551 22.9991 23.0016 21.2527 25.0533 19.8588L24.4913 19.0317C22.3353 20.4964 20.4988 22.3328 19.0339 24.4889L19.861 25.0509ZM19.8568 25.3633C19.7956 25.2678 19.7973 25.1447 19.861 25.0508L19.0338 24.489C18.7452 24.9138 18.7377 25.4702 19.0149 25.9028L19.8568 25.3633ZM20.9121 27.0101L19.8568 25.3633L19.0149 25.9028L20.0701 27.5496L20.9121 27.0101ZM19.346 31.3506C19.717 30.0156 20.2471 28.7325 20.9268 27.5251L20.0554 27.0346C19.3361 28.3123 18.7751 29.6702 18.3825 31.0829L19.346 31.3506ZM17.0333 32.2062L18.9894 31.7009L18.7392 30.7327L16.7831 31.238L17.0333 32.2062ZM16.8268 32.4281C16.847 32.3198 16.9278 32.2335 17.0333 32.2062L16.7831 31.2381C16.3007 31.3628 15.9346 31.7558 15.8436 32.2455L16.8268 32.4281ZM16.5 35.9991C16.5 34.7967 16.61 33.595 16.8268 32.4282L15.8436 32.2455C15.6155 33.4734 15.5 34.7362 15.5 35.9991H16.5ZM16.8269 39.5701C16.61 38.4032 16.5 37.2016 16.5 35.9991H15.5C15.5 37.2621 15.6155 38.5249 15.8437 39.7528L16.8269 39.5701ZM17.0333 39.792C16.9279 39.7648 16.8471 39.6786 16.8269 39.5702L15.8437 39.7528C15.9347 40.2424 16.3007 40.6357 16.7833 40.7603L17.0333 39.792ZM18.9894 40.2974L17.0333 39.7921L16.7832 40.7603L18.7393 41.2656L18.9894 40.2974ZM20.9269 44.4731C20.2472 43.2658 19.717 41.9827 19.3461 40.6477L18.3826 40.9153C18.7751 42.3281 19.3362 43.6861 20.0555 44.9637L20.9269 44.4731ZM19.8569 46.635L20.9122 44.9881L20.0702 44.4486L19.0149 46.0956L19.8569 46.635ZM19.8611 46.9475C19.7974 46.8537 19.7957 46.7307 19.8569 46.6351L19.015 46.0955C18.7378 46.5281 18.7451 47.0845 19.0339 47.5095L19.8611 46.9475ZM25.0533 52.1396C23.0017 50.7457 21.2552 48.9992 19.8611 46.9475L19.0339 47.5095C20.4989 49.6656 22.3354 51.502 24.4914 52.9667L25.0533 52.1396ZM25.362 52.1437C25.2675 52.2042 25.1462 52.2027 25.0533 52.1395L24.4914 52.9668C24.9153 53.2547 25.47 53.2622 25.9015 52.9857L25.362 52.1437ZM27.0106 51.0874L25.362 52.1437L25.9015 52.9857L27.5501 51.9294L27.0106 51.0874ZM31.3531 52.6545C30.0174 52.2834 28.7337 51.7529 27.5257 51.0727L27.0351 51.9441C28.3134 52.6639 29.672 53.2253 31.0855 53.618L31.3531 52.6545ZM32.2086 54.9664L31.7034 53.0111L30.7352 53.2613L31.2403 55.2165L32.2086 54.9664ZM32.4296 55.1733C32.3225 55.1534 32.2361 55.073 32.2086 54.9666L31.2403 55.2163C31.3647 55.6987 31.7572 56.0655 32.247 56.1565L32.4296 55.1733ZM33.0327 54.7033C34.9829 55.0105 37.0175 55.0106 38.9674 54.7033L38.8117 53.7155C36.965 54.0066 35.0354 54.0065 33.1884 53.7155L33.0327 54.7033ZM32.133 52.4251L32.6264 54.3345L33.5946 54.0843L33.1012 52.1749L32.133 52.4251ZM31.9286 52.2217C32.0284 52.2466 32.107 52.3244 32.133 52.4249L33.1012 52.175C32.9838 51.7199 32.6268 51.3653 32.1706 51.2515L31.9286 52.2217ZM27.4046 50.3493C28.813 51.1943 30.3352 51.8242 31.9286 52.2217L32.1707 51.2515C30.6731 50.8778 29.2427 50.2859 27.919 49.4918L27.4046 50.3493ZM27.1093 50.3537C27.1989 50.2963 27.3131 50.2945 27.4047 50.3494L27.9189 49.4917C27.5019 49.2417 26.9794 49.2492 26.5697 49.5117L27.1093 50.3537ZM25.4995 51.3851L27.1093 50.3537L26.5698 49.5117L24.96 50.5431L25.4995 51.3851ZM20.6282 47.0611C21.8267 48.7253 23.2733 50.1716 24.9376 51.3699L25.5219 50.5584C23.945 49.423 22.5752 48.0534 21.4396 46.4767L20.6282 47.0611ZM21.6432 44.8914L20.6129 46.4992L21.4549 47.0387L22.4851 45.4309L21.6432 44.8914ZM21.6476 44.5924C21.703 44.6848 21.7012 44.8008 21.6432 44.8913L22.4851 45.431C22.7483 45.0204 22.7559 44.496 22.5051 44.078L21.6476 44.5924ZM19.7754 40.0695C20.173 41.6625 20.8029 43.1843 21.6476 44.5924L22.5051 44.078C21.7112 42.7546 21.1193 41.3246 20.7457 39.8273L19.7754 40.0695ZM19.5728 39.8645C19.6722 39.8901 19.7502 39.9685 19.7754 40.0694L20.7457 39.8274C20.632 39.3715 20.2781 39.0138 19.8227 38.8962L19.5728 39.8645ZM17.6625 39.371L19.5727 39.8644L19.8228 38.8962L17.9126 38.4028L17.6625 39.371ZM17.0625 35.9991C17.0625 36.9949 17.1401 37.9899 17.2937 38.9647L18.2815 38.8091C18.1361 37.8862 18.0625 36.9432 18.0625 35.9991H17.0625ZM17.2937 33.0336C17.1401 34.0084 17.0625 35.0034 17.0625 35.9991H18.0625C18.0625 35.0551 18.1361 34.1121 18.2815 33.1892L17.2937 33.0336ZM19.5727 32.1339L17.6625 32.6273L17.9126 33.5955L19.8228 33.1021L19.5727 32.1339ZM19.7754 31.9289C19.7502 32.0299 19.6722 32.1082 19.5728 32.1338L19.8227 33.1021C20.2781 32.9845 20.632 32.6269 20.7457 32.1709L19.7754 31.9289ZM21.6476 27.4058C20.8029 28.8139 20.1729 30.3358 19.7754 31.9289L20.7457 32.171C21.1193 30.6738 21.7112 29.2437 22.5052 27.9202L21.6476 27.4058ZM21.6433 27.1069C21.7013 27.1975 21.7031 27.3134 21.6477 27.4058L22.5052 27.9203C22.756 27.5022 22.7483 26.9779 22.4852 26.5673L21.6433 27.1069ZM20.613 25.4991L21.6432 27.1069L22.4852 26.5673L21.455 24.9595L20.613 25.4991ZM24.9377 20.6284C23.2733 21.8267 21.8268 23.273 20.6283 24.9371L21.4397 25.5215C22.5752 23.9449 23.9451 22.5753 25.522 21.4399L24.9377 20.6284ZM27.1094 21.6446L25.4996 20.6132L24.9601 21.4552L26.5699 22.4866L27.1094 21.6446ZM27.4047 21.649C27.3134 21.7038 27.1991 21.7021 27.1093 21.6446L26.5699 22.4866C26.9795 22.7491 27.5021 22.7567 27.9191 22.5065L27.4047 21.649ZM31.9286 19.7766C30.3352 20.1741 28.813 20.8041 27.4047 21.649L27.9191 22.5065C29.2427 21.7125 30.6731 21.1205 32.1707 20.7468L31.9286 19.7766ZM32.1331 19.5734C32.1071 19.6739 32.0284 19.7517 31.9287 19.7766L32.1707 20.7468C32.6269 20.633 32.9838 20.2784 33.1013 19.8233L32.1331 19.5734ZM32.6264 17.6639L32.1331 19.5733L33.1013 19.8234L33.5946 17.914L32.6264 17.6639ZM38.9673 17.295C37.0174 16.9877 34.9828 16.9878 33.0327 17.295L33.1883 18.2828C35.0353 17.9918 36.9649 17.9917 38.8116 18.2828L38.9673 17.295ZM39.8668 19.5733L39.3736 17.6639L38.4053 17.914L38.8986 19.8234L39.8668 19.5733ZM40.0713 19.7766C39.9715 19.7517 39.8928 19.6739 39.8669 19.5734L38.8986 19.8233C39.0161 20.2784 39.373 20.633 39.8292 20.7468L40.0713 19.7766ZM44.5953 21.649C43.187 20.8041 41.6647 20.1741 40.0713 19.7766L39.8292 20.7468C41.3268 21.1205 42.7573 21.7125 44.0808 22.5065L44.5953 21.649ZM44.8906 21.6446C44.8009 21.7021 44.6866 21.7038 44.5952 21.6489L44.0809 22.5065C44.4979 22.7566 45.0204 22.7491 45.43 22.4866L44.8906 21.6446ZM46.5003 20.6132L44.8906 21.6446L45.4301 22.4866L47.0398 21.4552L46.5003 20.6132ZM51.3717 24.9372C50.1731 23.273 48.7266 21.8267 47.0622 20.6284L46.4779 21.4399C48.0548 22.5753 49.4247 23.9449 50.5603 25.5216L51.3717 24.9372ZM50.3569 27.1069L51.387 25.4991L50.545 24.9596L49.5149 26.5674L50.3569 27.1069ZM50.3524 27.4059C50.2971 27.3136 50.2987 27.1976 50.3569 27.1069L49.5148 26.5675C49.2519 26.9779 49.244 27.5022 49.4949 27.9203L50.3524 27.4059ZM52.2245 31.9289C51.827 30.3359 51.1972 28.814 50.3524 27.4059L49.4949 27.9203C50.2888 29.2437 50.8807 30.6739 51.2542 32.171L52.2245 31.9289ZM52.4273 32.1339C52.3277 32.1082 52.2497 32.0298 52.2245 31.929L51.2542 32.171C51.368 32.6269 51.7218 32.9845 52.1771 33.1021L52.4273 32.1339ZM54.3374 32.6274L52.4272 32.1339L52.1771 33.1021L54.0873 33.5956L54.3374 32.6274ZM54.9374 35.9991C54.9374 35.0032 54.8598 34.008 54.7062 33.0337L53.7184 33.1893C53.8638 34.1118 53.9374 35.0549 53.9374 35.9991H54.9374ZM54.7062 38.9647C54.8598 37.9903 54.9374 36.9952 54.9374 35.9991H53.9374C53.9374 36.9435 53.8638 37.8866 53.7184 38.809L54.7062 38.9647ZM52.4272 39.8644L54.3374 39.371L54.0873 38.4028L52.1771 38.8962L52.4272 39.8644ZM52.2245 40.0694C52.2497 39.9684 52.3277 39.8901 52.4272 39.8645L52.1772 38.8962C51.7218 39.0138 51.368 39.3714 51.2542 39.8274L52.2245 40.0694ZM50.3524 44.5924C51.1971 43.1843 51.8271 41.6625 52.2245 40.0694L51.2542 39.8274C50.8807 41.3245 50.2888 42.7545 49.4949 44.078L50.3524 44.5924ZM50.3568 44.8914C50.2987 44.8007 50.297 44.6848 50.3524 44.5924L49.4949 44.078C49.2441 44.496 49.2518 45.0203 49.5148 45.4308L50.3568 44.8914ZM51.3871 46.4991L50.3568 44.8914L49.5148 45.4309L50.5451 47.0387L51.3871 46.4991ZM47.0623 51.3699C48.7267 50.1716 50.1732 48.7253 51.3718 47.0611L50.5604 46.4767C49.4248 48.0534 48.0549 49.423 46.478 50.5584L47.0623 51.3699ZM44.8906 50.3537L46.5004 51.3851L47.0399 50.5431L45.4301 49.5117L44.8906 50.3537ZM44.5952 50.3494C44.6867 50.2946 44.8011 50.2963 44.8907 50.3537L45.4301 49.5117C45.0205 49.2493 44.498 49.2418 44.0811 49.4917L44.5952 50.3494ZM40.0714 52.2217C41.6647 51.8242 43.187 51.1943 44.5954 50.3493L44.0809 49.4918C42.7573 50.2859 41.3268 50.8778 39.8293 51.2515L40.0714 52.2217ZM39.8669 52.4249C39.8929 52.3244 39.9716 52.2466 40.0713 52.2217L39.8293 51.2515C39.3731 51.3653 39.0162 51.7199 38.8987 52.175L39.8669 52.4249ZM39.3736 54.3344L39.8669 52.425L38.8987 52.1749L38.4054 54.0843L39.3736 54.3344Z" fill="white"/>
</svg>
