<svg width="18" height="18" viewBox="0 0 18 18" fill="none" xmlns="http://www.w3.org/2000/svg">
<path fill-rule="evenodd" clip-rule="evenodd" d="M0 5C0 2.239 2.239 0 5 0H13C15.761 0 18 2.239 18 5V13C18 15.761 15.761 18 13 18H5C2.239 18 0 15.761 0 13V5ZM16 3C16 2.448 15.552 2 15 2C14.448 2 14 2.448 14 3C14 3.552 14.448 4 15 4C15.552 4 16 3.552 16 3ZM9 4C11.761 4 14 6.239 14 9C14 11.761 11.761 14 9 14C6.239 14 4 11.761 4 9C4 6.239 6.239 4 9 4ZM6 9C6 7.34315 7.34315 6 9 6C10.6569 6 12 7.34315 12 9C12 10.6569 10.6569 12 9 12C7.34315 12 6 10.6569 6 9Z" fill="#0055FB"/>
</svg>
