<svg width="548" height="355" viewBox="0 0 548 355" fill="none" xmlns="http://www.w3.org/2000/svg">
<path fill-rule="evenodd" clip-rule="evenodd" d="M155.512 173.496L150.61 139.279L132.149 141.923C131.321 140.35 130.417 138.828 129.437 137.364L140.578 122.446L113.409 102.156L102.249 117.1C100.649 116.605 99.0175 116.188 97.3609 115.853L94.7165 97.3914L61.1507 102.2L63.7908 120.631C61.9384 121.602 60.1585 122.681 58.4582 123.861L43.3103 112.976L23.5241 140.514L38.6438 151.378C38.2449 152.748 37.9059 154.139 37.6231 155.549L19.1914 158.189L23.9996 191.755L42.4609 189.111C43.4917 191.07 44.642 192.95 45.9063 194.738L34.8071 210.372L62.3318 230.717L73.9241 214.389C75.0196 214.69 76.1284 214.954 77.2487 215.181L80.1224 235.242L113.689 230.435L110.819 210.403C112.28 209.637 113.696 208.804 115.063 207.907L131.09 219.854L151.027 192.008L135.688 180.574C136.138 179.129 136.526 177.66 136.847 176.169L155.512 173.496" fill="#CFE4FF"/>
<path fill-rule="evenodd" clip-rule="evenodd" d="M116.493 166.317C116.493 182.373 103.478 195.388 87.4223 195.388C71.3671 195.388 58.3516 182.373 58.3516 166.317C58.3516 150.262 71.3671 137.246 87.4223 137.246C103.478 137.246 116.493 150.262 116.493 166.317" fill="white"/>
<path fill-rule="evenodd" clip-rule="evenodd" d="M216.921 69.6275L222.263 46.3297L209.692 43.4471C209.551 42.2263 209.344 41.0193 209.076 39.831L219.974 32.974L207.486 13.1282L196.57 19.997C195.66 19.2796 194.711 18.6054 193.726 17.977L196.608 5.40721L173.754 0.165894L170.876 12.7158C169.439 12.8814 168.022 13.1357 166.632 13.4741L159.563 2.68532L139.95 15.5362L147.006 26.3048C146.408 27.0896 145.843 27.9037 145.31 28.7427L132.761 25.8647L127.52 48.7195L140.09 51.6021C140.268 53.1225 140.543 54.6215 140.914 56.0894L129.866 63.4188L142.569 83.3898L154.109 75.7348C154.741 76.2011 155.39 76.6472 156.057 77.0723L152.924 90.7318L175.779 95.9731L178.907 82.3334C180.04 82.2027 181.161 82.0169 182.266 81.7782L189.638 93.4707L209.424 80.4583L202.368 69.2672C203.019 68.4472 203.633 67.5953 204.212 66.7132L216.921 69.6275" fill="#CFE4FF"/>
<path fill-rule="evenodd" clip-rule="evenodd" d="M194.869 48.0696C194.869 59.172 185.869 68.172 174.766 68.172C163.664 68.172 154.664 59.172 154.664 48.0696C154.664 36.9675 163.664 27.9672 174.766 27.9672C185.869 27.9672 194.869 36.9675 194.869 48.0696" fill="white"/>
<path fill-rule="evenodd" clip-rule="evenodd" d="M275.799 120.492C275.053 120.492 274.295 120.366 273.552 120.1C270.091 118.86 268.288 115.048 269.529 111.585L274.724 97.0756C275.963 93.6127 279.776 91.811 283.238 93.0505C286.702 94.2904 288.502 98.1023 287.264 101.565L282.068 116.075C281.095 118.796 278.532 120.492 275.799 120.492" fill="#FFBFAA"/>
<path fill-rule="evenodd" clip-rule="evenodd" d="M287.244 101.616L274.742 97.0244L277.418 89.7389L289.92 94.3308L287.244 101.616" fill="#CFE4FF"/>
<path fill-rule="evenodd" clip-rule="evenodd" d="M283.67 98.6962C282.907 98.6962 282.132 98.5643 281.375 98.2864C277.921 97.0184 276.15 93.1917 277.417 89.7392L279.494 84.0892C280.761 80.6366 284.589 78.8663 288.039 80.1335C291.492 81.4013 293.263 85.2279 291.996 88.6808L289.92 94.3305C288.932 97.0258 286.383 98.6962 283.67 98.6962" fill="#CFE4FF"/>
<path fill-rule="evenodd" clip-rule="evenodd" d="M287.199 103.871C286.951 103.871 286.7 103.828 286.455 103.737L274.02 99.113C272.914 98.7029 272.352 97.4757 272.764 96.3724C273.173 95.2691 274.4 94.7072 275.503 95.1173L287.942 99.7417C289.045 100.152 289.606 101.379 289.197 102.482C288.878 103.341 288.063 103.871 287.199 103.871" fill="#CFE4FF"/>
<path fill-rule="evenodd" clip-rule="evenodd" d="M329.595 120.944C328.872 120.944 328.143 120.826 327.44 120.585C325.324 119.862 323.714 118.125 323.149 115.961L319.641 102.479C318.717 98.9194 320.851 95.2831 324.411 94.3569C327.967 93.4298 331.605 95.5654 332.532 99.125L333.503 102.857L357.03 84.7052C359.941 82.4585 364.123 82.9976 366.372 85.9096C368.619 88.8218 368.077 93.0039 365.166 95.2506L333.664 119.557C332.48 120.468 331.046 120.944 329.595 120.944" fill="#FFBFAA"/>
<path fill-rule="evenodd" clip-rule="evenodd" d="M319.64 102.479L317.688 94.9675L330.575 91.614L332.531 99.1251L319.64 102.479" fill="#CFE4FF"/>
<path fill-rule="evenodd" clip-rule="evenodd" d="M318.566 104.822C317.613 104.822 316.743 104.176 316.502 103.208C316.216 102.066 316.91 100.908 318.051 100.622L331.431 97.2706C332.572 96.9841 333.73 97.6781 334.018 98.8204C334.303 99.9626 333.609 101.12 332.468 101.406L319.088 104.757C318.912 104.801 318.739 104.822 318.566 104.822" fill="#CFE4FF"/>
<path fill-rule="evenodd" clip-rule="evenodd" d="M324.13 99.9519C321.169 99.9519 318.468 97.965 317.69 94.9678L316.173 89.143C315.248 85.5836 317.382 81.947 320.942 81.0211C324.502 80.094 328.139 82.2293 329.063 85.789L330.578 91.6138C331.506 95.1731 329.372 98.8097 325.812 99.7359C325.25 99.8822 324.686 99.9519 324.13 99.9519" fill="#CFE4FF"/>
<path fill-rule="evenodd" clip-rule="evenodd" d="M364.478 94.952C363.77 94.952 363.067 94.6334 362.603 94.0269C361.811 92.9921 362.007 91.5112 363.044 90.7189L370.791 84.7856C371.828 83.9939 373.308 84.1903 374.1 85.2245C374.892 86.2593 374.696 87.7402 373.663 88.5325L365.912 94.4658C365.483 94.7933 364.979 94.952 364.478 94.952" fill="#FFBFAA"/>
<path fill-rule="evenodd" clip-rule="evenodd" d="M363.414 90.2985C362.735 90.2985 362.058 90.0053 361.591 89.4385C360.765 88.4322 360.909 86.9456 361.914 86.1173L370.686 78.8963C371.694 78.0683 373.181 78.2128 374.007 79.2185C374.837 80.2245 374.693 81.7115 373.685 82.5397L364.912 89.7608C364.474 90.1222 363.941 90.2985 363.414 90.2985" fill="#FFBFAA"/>
<path fill-rule="evenodd" clip-rule="evenodd" d="M360.848 87.1826C360.226 87.1826 359.606 86.9381 359.143 86.4525C358.241 85.5102 358.276 84.0166 359.218 83.1169L365.939 76.6976C366.884 75.7979 368.376 75.8325 369.277 76.7745C370.176 77.7169 370.141 79.2104 369.2 80.1104L362.478 86.5297C362.02 86.966 361.435 87.1826 360.848 87.1826" fill="#FFBFAA"/>
<path fill-rule="evenodd" clip-rule="evenodd" d="M317.318 95.496C316.788 95.496 316.356 95.0657 316.356 94.5346V83.3649C316.356 81.3143 314.689 79.6459 312.638 79.6459C312.229 79.6459 311.841 79.7398 311.481 79.9253C311.005 80.1683 310.426 79.982 310.185 79.5103C309.943 79.0382 310.127 78.4588 310.599 78.2157C311.224 77.8937 311.93 77.7235 312.638 77.7235C315.749 77.7235 318.28 80.2542 318.28 83.3649V94.5346C318.28 95.0657 317.848 95.496 317.318 95.496" fill="#001E57"/>
<path fill-rule="evenodd" clip-rule="evenodd" d="M305.683 95.496C305.15 95.496 304.721 95.0657 304.721 94.5346V79.6459H301.003C300.594 79.6459 300.202 79.7398 299.842 79.9253C299.37 80.1683 298.791 79.982 298.549 79.5103C298.304 79.0382 298.491 78.4588 298.964 78.2157C299.589 77.8937 300.294 77.7235 301.003 77.7235H306.645V94.5346C306.645 95.0657 306.213 95.496 305.683 95.496" fill="#001E57"/>
<path fill-rule="evenodd" clip-rule="evenodd" d="M323.191 202.482V219.172H351.243V215.093C351.243 213.732 350.491 212.48 349.29 211.84L345.912 210.041L342.055 207.985L339.708 201.444L333.701 201.821L332.946 201.868L323.191 202.482" fill="#FCCC6C"/>
<path fill-rule="evenodd" clip-rule="evenodd" d="M323.191 219.172H351.243V215.502H323.191V219.172Z" fill="#FC346C"/>
<path fill-rule="evenodd" clip-rule="evenodd" d="M323.191 204.301V213.48C323.39 213.508 323.595 213.522 323.802 213.522C326.362 213.522 328.433 211.447 328.433 208.89C328.433 206.332 326.362 204.259 323.802 204.259C323.595 204.259 323.39 204.273 323.191 204.301" fill="#FC346C"/>
<path fill-rule="evenodd" clip-rule="evenodd" d="M291.486 202.482V219.172H263.438V215.093C263.438 213.732 264.186 212.48 265.39 211.84L268.768 210.041L272.625 207.985L274.834 201.821L274.972 201.444L280.977 201.821L281.734 201.868L291.486 202.482" fill="#FCCC6C"/>
<path fill-rule="evenodd" clip-rule="evenodd" d="M292.168 202.902L274.016 199.987L287.598 115.416L305.75 118.331L292.168 202.902" fill="#001E57"/>
<path fill-rule="evenodd" clip-rule="evenodd" d="M322.254 202.731L304.855 118.699L322.858 114.973L340.256 199.004L322.254 202.731" fill="#001E57"/>
<path fill-rule="evenodd" clip-rule="evenodd" d="M281.963 200.844L281.951 200.891L279.832 210.041H268.77L272.626 207.985L275.054 200.844H281.963" fill="#FC346C"/>
<path fill-rule="evenodd" clip-rule="evenodd" d="M332.719 200.844L332.73 200.891L334.853 210.041H345.915L342.059 207.985L339.628 200.844H332.719" fill="#FC346C"/>
<path fill-rule="evenodd" clip-rule="evenodd" d="M312.392 130.45H297.911C293.499 130.45 289.922 126.872 289.922 122.458C289.922 118.045 293.499 114.467 297.911 114.467H312.392C316.807 114.467 320.384 118.045 320.384 122.458C320.384 126.872 316.807 130.45 312.392 130.45" fill="#001E57"/>
<path fill-rule="evenodd" clip-rule="evenodd" d="M322.557 115.896H288.118L283.374 89.2824C282.487 84.3003 286.318 79.7266 291.378 79.7266H319.296C324.357 79.7266 328.187 84.3003 327.3 89.2824L322.557 115.896" fill="#CFE4FF"/>
<path fill-rule="evenodd" clip-rule="evenodd" d="M323.301 119.797H287.37L285.316 100.355L297.654 92.6611H309.779L325.351 100.355L323.301 119.797" fill="#001E57"/>
<path fill-rule="evenodd" clip-rule="evenodd" d="M304.463 83.5299C306.706 83.8184 308.76 82.2333 309.045 79.9875L309.422 77.0741L309.615 75.5744L310.589 67.9756C310.877 65.7297 309.293 63.678 307.049 63.3894C306.871 63.3667 306.698 63.3563 306.519 63.3563C304.84 63.3563 303.343 64.3891 302.726 65.9184C302.6 66.2366 302.507 66.5739 302.461 66.9321L300.921 78.944C300.633 81.1881 302.217 83.2416 304.463 83.5299" fill="#FFBFAA"/>
<path fill-rule="evenodd" clip-rule="evenodd" d="M303.296 70.6761C304.068 74.2312 305.799 76.7944 309.422 77.0741L309.615 75.5744L310.588 67.9756C310.876 65.7297 309.292 63.678 307.049 63.3894C306.87 63.3667 306.697 63.3563 306.519 63.3563C304.84 63.3563 303.342 64.3891 302.726 65.9184C302.599 66.2366 302.507 66.5739 302.461 66.9321L303.296 70.6761" fill="#240448"/>
<path fill-rule="evenodd" clip-rule="evenodd" d="M311.635 75.0143V75.0143C314.354 74.3839 316.047 71.6683 315.416 68.949L314.472 64.8661C313.639 61.2822 310.062 59.0505 306.477 59.8814C302.894 60.7122 300.662 64.2906 301.494 67.8745L301.713 68.8275C302.744 73.2754 307.188 76.0454 311.635 75.0143" fill="#FFBFAA"/>
<path fill-rule="evenodd" clip-rule="evenodd" d="M340.54 203.217H321.967C320.668 203.217 319.617 202.165 319.617 200.868C319.617 199.57 320.668 198.518 321.967 198.518H340.54C341.836 198.518 342.888 199.57 342.888 200.868C342.888 202.165 341.836 203.217 340.54 203.217" fill="#44D4F4"/>
<path fill-rule="evenodd" clip-rule="evenodd" d="M291.92 203.217H273.745C272.446 203.217 271.395 202.165 271.395 200.868C271.395 199.57 272.446 198.518 273.745 198.518H291.92C293.216 198.518 294.27 199.57 294.27 200.868C294.27 202.165 293.216 203.217 291.92 203.217" fill="#44D4F4"/>
<path fill-rule="evenodd" clip-rule="evenodd" d="M314.002 65.0089L317.371 68.9009C317.751 69.3419 317.463 70.0296 316.882 70.0665L313.984 70.2494L314.002 65.0089" fill="#FFBFAA"/>
<path fill-rule="evenodd" clip-rule="evenodd" d="M310.23 59.3816C310.23 61.6698 312.085 63.5251 314.372 63.5251C316.662 63.5251 318.516 61.6698 318.516 59.3816C318.516 57.0932 316.662 55.2382 314.372 55.2382C312.085 55.2382 310.23 57.0932 310.23 59.3816" fill="#72ACFF"/>
<path fill-rule="evenodd" clip-rule="evenodd" d="M305.883 59.3209C305.883 60.9391 307.193 62.2507 308.812 62.2507C310.43 62.2507 311.744 60.9391 311.744 59.3209C311.744 57.7026 310.43 56.3907 308.812 56.3907C307.193 56.3907 305.883 57.7026 305.883 59.3209" fill="#72ACFF"/>
<path fill-rule="evenodd" clip-rule="evenodd" d="M303.207 63.5251H314.007C315.447 63.5251 316.616 62.3564 316.616 60.9146C316.616 59.4729 315.447 58.3042 314.007 58.3042H303.207C301.767 58.3042 300.598 59.4729 300.598 60.9146C300.598 62.3564 301.767 63.5251 303.207 63.5251" fill="#72ACFF"/>
<path fill-rule="evenodd" clip-rule="evenodd" d="M300.598 68.7039H305.257L307.276 60.8916H300.598V68.7039" fill="#72ACFF"/>
<path fill-rule="evenodd" clip-rule="evenodd" d="M299.766 67.8878C299.766 69.6233 301.171 71.0301 302.908 71.0301C304.641 71.0301 306.05 69.6233 306.05 67.8878C306.05 66.1523 304.641 64.7451 302.908 64.7451C301.171 64.7451 299.766 66.1523 299.766 67.8878" fill="#FFBFAA"/>
<path fill-rule="evenodd" clip-rule="evenodd" d="M263.438 219.172H291.486V215.502H263.438V219.172Z" fill="#FC346C"/>
<path fill-rule="evenodd" clip-rule="evenodd" d="M291.488 204.301V213.48C291.289 213.508 291.084 213.522 290.877 213.522C288.32 213.522 286.246 211.447 286.246 208.89C286.246 206.332 288.32 204.259 290.877 204.259C291.084 204.259 291.289 204.273 291.488 204.301" fill="#FC346C"/>
<path fill-rule="evenodd" clip-rule="evenodd" d="M304.903 123.965H302.484C302.118 123.965 301.81 123.689 301.77 123.324L301.012 116.428C300.969 116.033 301.254 115.678 301.649 115.634C302.046 115.59 302.4 115.876 302.444 116.271L303.129 122.525H304.903C305.3 122.525 305.623 122.848 305.623 123.245C305.623 123.643 305.3 123.965 304.903 123.965" fill="#006BFF"/>
<path fill-rule="evenodd" clip-rule="evenodd" d="M295.48 119.807H287.298C286.901 119.807 286.578 119.485 286.578 119.087C286.578 118.69 286.901 118.367 287.298 118.367H295.48C295.878 118.367 296.2 118.69 296.2 119.087C296.2 119.485 295.878 119.807 295.48 119.807" fill="#006BFF"/>
<path fill-rule="evenodd" clip-rule="evenodd" d="M323.726 119.807H315.544C315.147 119.807 314.824 119.485 314.824 119.087C314.824 118.69 315.147 118.367 315.544 118.367H323.726C324.124 118.367 324.446 118.69 324.446 119.087C324.446 119.485 324.124 119.807 323.726 119.807" fill="#006BFF"/>
<path fill-rule="evenodd" clip-rule="evenodd" d="M279.833 210.76H268.771C268.37 210.76 268.051 210.438 268.051 210.04C268.051 209.643 268.37 209.32 268.771 209.32H279.833C280.23 209.32 280.553 209.643 280.553 210.04C280.553 210.438 280.23 210.76 279.833 210.76" fill="#240448"/>
<path fill-rule="evenodd" clip-rule="evenodd" d="M345.914 210.76H334.849C334.451 210.76 334.129 210.438 334.129 210.04C334.129 209.643 334.451 209.32 334.849 209.32H345.914C346.311 209.32 346.634 209.643 346.634 210.04C346.634 210.438 346.311 210.76 345.914 210.76" fill="#240448"/>
<path fill-rule="evenodd" clip-rule="evenodd" d="M303.787 104.201C303.787 107.097 301.44 109.444 298.542 109.444C295.648 109.444 293.301 107.097 293.301 104.201C293.301 101.305 295.648 98.958 298.542 98.958C301.44 98.958 303.787 101.305 303.787 104.201" fill="white"/>
<path fill-rule="evenodd" clip-rule="evenodd" d="M314.443 104.201C314.443 107.097 312.096 109.444 309.199 109.444C306.304 109.444 303.957 107.097 303.957 104.201C303.957 101.305 306.304 98.958 309.199 98.958C312.096 98.958 314.443 101.305 314.443 104.201" fill="white"/>
<path fill-rule="evenodd" clip-rule="evenodd" d="M303.374 110.458L297.004 104.086L303.374 97.715L309.745 104.086L303.374 110.458" fill="#006BFF"/>
<path fill-rule="evenodd" clip-rule="evenodd" d="M305.684 95.496H296.543V82.1826C296.543 80.5044 297.47 78.9843 298.965 78.2157C299.437 77.9723 300.016 78.1586 300.258 78.6307C300.503 79.1024 300.316 79.6822 299.843 79.9252C298.994 80.3627 298.467 81.2276 298.467 82.1826V93.5736H305.684C306.214 93.5736 306.646 94.0038 306.646 94.5346C306.646 95.0657 306.214 95.496 305.684 95.496" fill="#001E57"/>
<path fill-rule="evenodd" clip-rule="evenodd" d="M309.139 95.496C308.609 95.496 308.18 95.0657 308.18 94.5346V82.1826C308.18 80.5044 309.107 78.9843 310.599 78.2157C311.071 77.9723 311.65 78.1586 311.895 78.6307C312.137 79.1024 311.95 79.6822 311.48 79.9252C310.628 80.3627 310.101 81.2276 310.101 82.1826V94.5346C310.101 95.0657 309.672 95.496 309.139 95.496" fill="#001E57"/>
<path fill-rule="evenodd" clip-rule="evenodd" d="M228.707 120.008C228.707 161.373 195.173 194.906 153.808 194.906C112.443 194.906 78.9102 161.373 78.9102 120.008C78.9102 78.6433 112.443 45.1106 153.808 45.1106C195.173 45.1106 228.707 78.6433 228.707 120.008" fill="#72ACFF"/>
<path fill-rule="evenodd" clip-rule="evenodd" d="M217.435 120.008C217.435 155.15 188.947 183.638 153.806 183.638C118.664 183.638 90.1758 155.15 90.1758 120.008C90.1758 84.8665 118.664 56.3784 153.806 56.3784C188.947 56.3784 217.435 84.8665 217.435 120.008" fill="white"/>
<path fill-rule="evenodd" clip-rule="evenodd" d="M201.531 120.008C201.531 146.365 180.165 167.731 153.808 167.731C127.452 167.731 106.086 146.365 106.086 120.008C106.086 93.6519 127.452 72.2858 153.808 72.2858C180.165 72.2858 201.531 93.6519 201.531 120.008" fill="#72ACFF"/>
<path fill-rule="evenodd" clip-rule="evenodd" d="M494.108 172.698L496.032 176.331L499.549 178.318L496.032 180.304L494.108 183.937L492.184 180.304L488.668 178.318L492.184 176.331L494.108 172.698" fill="#72ACFF"/>
<path fill-rule="evenodd" clip-rule="evenodd" d="M37.507 255.488L39.4306 259.12L42.9473 261.107L39.4306 263.094L37.507 266.726L35.5835 263.094L32.0664 261.107L35.5835 259.12L37.507 255.488" fill="#006BFF"/>
<path fill-rule="evenodd" clip-rule="evenodd" d="M312.143 25.0914L314.067 28.7237L317.584 30.7106L314.067 32.6972L312.143 36.3298L310.222 32.6972L306.703 30.7106L310.222 28.7237L312.143 25.0914" fill="#72ACFF"/>
<path fill-rule="evenodd" clip-rule="evenodd" d="M49.8182 175.7C49.1503 175.7 48.4753 175.852 47.8685 176.156C47.4655 176.357 46.5091 176.92 46.3265 177.794C46.1387 178.694 46.8147 179.662 47.4146 180.316C48.5905 181.598 50.0354 182.564 51.5929 183.158C52.954 181.846 53.7797 180.298 53.4533 178.524C53.2564 177.455 52.6144 176.6 51.645 176.117C51.0869 175.839 50.4558 175.7 49.8182 175.7ZM42.0091 189.528C41.6986 189.528 41.4121 189.325 41.319 189.012C41.2059 188.631 41.423 188.231 41.804 188.117C43.5343 187.603 47.5082 186.273 50.3484 184.195C48.8649 183.516 47.4961 182.534 46.3539 181.29C45.1494 179.978 44.6659 178.702 44.917 177.5C45.1394 176.435 45.9587 175.5 47.2242 174.868C48.8079 174.075 50.7479 174.06 52.2878 174.828C53.6717 175.518 54.5886 176.738 54.8694 178.264C55.2516 180.339 54.4942 182.12 53.1535 183.62C54.3747 183.882 55.6318 183.919 56.8569 183.711C59.749 183.216 62.0015 181.402 63.1993 178.6C63.3557 178.234 63.7787 178.065 64.1445 178.221C64.5102 178.378 64.6799 178.801 64.5235 179.167C63.1267 182.433 60.4901 184.551 57.0991 185.13C55.3829 185.423 53.6126 185.293 51.9318 184.791C49.0075 187.228 44.676 188.766 42.2144 189.498C42.1459 189.518 42.0771 189.528 42.0091 189.528V189.528Z" fill="#006BFF"/>
<path fill-rule="evenodd" clip-rule="evenodd" d="M389.103 239.703C389.103 302.692 338.043 353.751 275.055 353.751C212.069 353.751 161.008 302.692 161.008 239.703C161.008 176.717 212.069 125.656 275.055 125.656C338.043 125.656 389.103 176.717 389.103 239.703" fill="#006BFF"/>
<path fill-rule="evenodd" clip-rule="evenodd" d="M346.667 169.687C346.454 169.687 346.243 169.593 346.102 169.414C329.908 148.96 307.044 134.62 281.717 129.035C281.328 128.949 281.083 128.565 281.17 128.177C281.256 127.789 281.639 127.543 282.028 127.629C307.677 133.285 330.832 147.807 347.231 168.52C347.479 168.832 347.427 169.285 347.113 169.532C346.981 169.636 346.825 169.687 346.667 169.687" fill="#CFE4FF"/>
<path fill-rule="evenodd" clip-rule="evenodd" d="M143.489 249.247C143.116 249.247 142.801 248.962 142.772 248.585C142.548 245.65 142.434 242.661 142.434 239.703C142.434 225.764 144.905 212.14 149.781 199.213C154.49 186.724 161.303 175.23 170.03 165.05C187.633 144.514 211.947 130.807 238.489 126.454C238.884 126.39 239.253 126.656 239.316 127.048C239.382 127.44 239.114 127.811 238.723 127.875C183.764 136.888 143.874 183.919 143.874 239.703C143.874 242.626 143.986 245.575 144.208 248.473C144.238 248.87 143.941 249.216 143.545 249.247C143.526 249.247 143.508 249.247 143.489 249.247" fill="#CFE4FF"/>
<path fill-rule="evenodd" clip-rule="evenodd" d="M184.724 328.485C184.563 328.485 184.401 328.43 184.267 328.321C173.114 319.131 163.902 308.089 156.884 295.494C156.691 295.149 156.815 294.711 157.163 294.515C157.511 294.322 157.949 294.446 158.142 294.795C165.072 307.228 174.169 318.134 185.182 327.209C185.489 327.462 185.533 327.915 185.28 328.223C185.138 328.396 184.932 328.485 184.724 328.485" fill="#CFE4FF"/>
<path fill-rule="evenodd" clip-rule="evenodd" d="M257.202 354.471C234.191 354.471 211.992 347.686 193.004 334.85C192.675 334.628 192.588 334.181 192.811 333.85C193.034 333.522 193.481 333.436 193.811 333.657C212.56 346.332 234.479 353.031 257.202 353.031C278.486 353.031 299.224 347.101 317.181 335.878C317.518 335.668 317.962 335.768 318.175 336.105C318.385 336.442 318.281 336.889 317.944 337.099C299.76 348.463 278.753 354.471 257.202 354.471" fill="#CFE4FF"/>
<path fill-rule="evenodd" clip-rule="evenodd" d="M331.709 326.774C331.507 326.774 331.306 326.688 331.165 326.524C330.903 326.221 330.937 325.769 331.237 325.507C356.209 303.941 370.529 272.668 370.529 239.703C370.529 218.139 364.449 197.163 352.946 179.045C352.733 178.709 352.831 178.264 353.168 178.051C353.502 177.838 353.948 177.937 354.162 178.273C365.811 196.623 371.969 217.865 371.969 239.703C371.969 273.088 357.468 304.759 332.179 326.598C332.043 326.717 331.876 326.774 331.709 326.774" fill="#CFE4FF"/>
<path fill-rule="evenodd" clip-rule="evenodd" d="M269.202 239.703C269.202 246.333 263.828 251.704 257.201 251.704C250.574 251.704 245.203 246.333 245.203 239.703C245.203 233.076 250.574 227.705 257.201 227.705C263.828 227.705 269.202 233.076 269.202 239.703" fill="#CFE4FF"/>
<path fill-rule="evenodd" clip-rule="evenodd" d="M288.696 266.104C287.703 266.104 286.695 265.819 285.808 265.22L254.413 244.098C252.037 242.5 251.406 239.277 253.004 236.904C254.603 234.528 257.826 233.897 260.202 235.495L291.596 256.617C293.97 258.216 294.6 261.438 293.002 263.814C292.002 265.3 290.364 266.104 288.696 266.104" fill="#CFE4FF"/>
<path fill-rule="evenodd" clip-rule="evenodd" d="M257.306 242.39C256.272 242.39 255.292 241.765 254.892 240.743L231.95 182.237C231.426 180.904 232.082 179.4 233.416 178.878C234.749 178.355 236.253 179.012 236.777 180.345L259.719 238.851C260.24 240.184 259.584 241.687 258.25 242.209C257.939 242.333 257.619 242.39 257.306 242.39" fill="#CFE4FF"/>
<path fill-rule="evenodd" clip-rule="evenodd" d="M262.504 239.703C262.504 242.635 260.131 245.008 257.199 245.008C254.271 245.008 251.895 242.635 251.895 239.703C251.895 236.774 254.271 234.398 257.199 234.398C260.131 234.398 262.504 236.774 262.504 239.703" fill="#CFE4FF"/>
<path fill-rule="evenodd" clip-rule="evenodd" d="M257.201 155.696C255.77 155.696 254.609 154.536 254.609 153.104V137.205C254.609 135.774 255.77 134.613 257.201 134.613C258.633 134.613 259.793 135.774 259.793 137.205V153.104C259.793 154.536 258.633 155.696 257.201 155.696" fill="#CFE4FF"/>
<path fill-rule="evenodd" clip-rule="evenodd" d="M257.201 344.794C255.77 344.794 254.609 343.634 254.609 342.202V326.305C254.609 324.873 255.77 323.713 257.201 323.713C258.633 323.713 259.793 324.873 259.793 326.305V342.202C259.793 343.634 258.633 344.794 257.201 344.794" fill="#CFE4FF"/>
<path fill-rule="evenodd" clip-rule="evenodd" d="M318.437 179.797C318.097 179.797 317.757 179.667 317.498 179.408C316.98 178.889 316.98 178.048 317.498 177.53L328.739 166.287C329.257 165.769 330.098 165.769 330.617 166.287C331.135 166.806 331.135 167.647 330.617 168.166L319.376 179.408C319.117 179.667 318.777 179.797 318.437 179.797" fill="#CFE4FF"/>
<path fill-rule="evenodd" clip-rule="evenodd" d="M184.722 313.509C184.383 313.509 184.043 313.379 183.784 313.12C183.265 312.602 183.265 311.761 183.784 311.242L195.026 300.002C195.544 299.483 196.385 299.483 196.904 300.002C197.423 300.52 197.423 301.361 196.904 301.879L185.662 313.12C185.402 313.379 185.063 313.509 184.722 313.509" fill="#CFE4FF"/>
<path fill-rule="evenodd" clip-rule="evenodd" d="M290.985 163.265C290.778 163.265 290.568 163.217 290.372 163.114C289.721 162.775 289.467 161.973 289.807 161.322L297.621 146.344C297.96 145.694 298.764 145.442 299.412 145.781C300.063 146.121 300.316 146.923 299.976 147.573L292.163 162.551C291.924 163.005 291.463 163.265 290.985 163.265" fill="#CFE4FF"/>
<path fill-rule="evenodd" clip-rule="evenodd" d="M329.678 313.509C329.338 313.509 328.998 313.379 328.739 313.12L317.498 301.879C316.98 301.361 316.98 300.52 317.498 300.002C318.017 299.483 318.858 299.483 319.376 300.002L330.617 311.242C331.135 311.761 331.135 312.602 330.617 313.12C330.357 313.379 330.018 313.509 329.678 313.509" fill="#CFE4FF"/>
<path fill-rule="evenodd" clip-rule="evenodd" d="M195.965 179.797C195.625 179.797 195.285 179.667 195.026 179.408L183.784 168.166C183.265 167.647 183.265 166.806 183.784 166.287C184.302 165.769 185.143 165.769 185.662 166.287L196.904 177.53C197.423 178.048 197.423 178.889 196.904 179.408C196.644 179.667 196.305 179.797 195.965 179.797" fill="#CFE4FF"/>
<path fill-rule="evenodd" clip-rule="evenodd" d="M337.078 207.574C336.56 207.574 336.067 207.268 335.854 206.759C335.569 206.083 335.889 205.305 336.566 205.021L351.231 198.879C351.905 198.595 352.685 198.914 352.967 199.591C353.25 200.267 352.933 201.045 352.256 201.328L337.591 207.471C337.424 207.541 337.248 207.574 337.078 207.574" fill="#CFE4FF"/>
<path fill-rule="evenodd" clip-rule="evenodd" d="M223.745 161.157C223.226 161.157 222.734 160.851 222.521 160.342L216.378 145.677C216.093 145.001 216.412 144.222 217.089 143.939C217.766 143.656 218.544 143.974 218.826 144.651L224.969 159.315C225.254 159.992 224.934 160.77 224.257 161.053C224.09 161.124 223.918 161.157 223.745 161.157" fill="#CFE4FF"/>
<path fill-rule="evenodd" clip-rule="evenodd" d="M350.809 282.788C350.627 282.788 350.443 282.75 350.267 282.673L335.749 276.195C335.078 275.896 334.779 275.113 335.075 274.442C335.375 273.773 336.161 273.471 336.829 273.771L351.35 280.248C352.021 280.547 352.321 281.331 352.021 282.002C351.802 282.494 351.316 282.788 350.809 282.788" fill="#CFE4FF"/>
<path fill-rule="evenodd" clip-rule="evenodd" d="M178.113 205.753C177.932 205.753 177.748 205.716 177.573 205.638L163.053 199.161C162.383 198.862 162.082 198.077 162.381 197.407C162.68 196.738 163.465 196.437 164.135 196.736L178.655 203.212C179.324 203.511 179.625 204.296 179.327 204.966C179.106 205.46 178.621 205.753 178.113 205.753" fill="#CFE4FF"/>
<path fill-rule="evenodd" clip-rule="evenodd" d="M215.446 334.639C215.264 334.639 215.08 334.605 214.904 334.524C214.233 334.228 213.934 333.441 214.233 332.77L220.71 318.252C221.007 317.581 221.793 317.282 222.462 317.581C223.133 317.878 223.432 318.664 223.135 319.335L216.658 333.853C216.437 334.348 215.953 334.639 215.446 334.639" fill="#CFE4FF"/>
<path fill-rule="evenodd" clip-rule="evenodd" d="M359.701 242.295H343.803C342.372 242.295 341.211 241.134 341.211 239.703C341.211 238.272 342.372 237.111 343.803 237.111H359.701C361.132 237.111 362.293 238.272 362.293 239.703C362.293 241.134 361.132 242.295 359.701 242.295" fill="#CFE4FF"/>
<path fill-rule="evenodd" clip-rule="evenodd" d="M170.6 242.295H154.701C153.27 242.295 152.109 241.134 152.109 239.703C152.109 238.272 153.27 237.111 154.701 237.111H170.6C172.032 237.111 173.192 238.272 173.192 239.703C173.192 241.134 172.032 242.295 170.6 242.295" fill="#CFE4FF"/>
<path fill-rule="evenodd" clip-rule="evenodd" d="M296.522 333.879C296.024 333.879 295.549 333.6 295.321 333.124L289.132 320.124C288.818 319.462 289.1 318.67 289.763 318.353C290.425 318.039 291.217 318.321 291.531 318.981L297.72 331.981C298.034 332.643 297.755 333.435 297.092 333.752C296.908 333.839 296.712 333.879 296.522 333.879" fill="#CFE4FF"/>
<path fill-rule="evenodd" clip-rule="evenodd" d="M185.211 120.008C185.211 137.352 171.151 151.413 153.807 151.413C136.463 151.413 122.402 137.352 122.402 120.008C122.402 102.664 136.463 88.6039 153.807 88.6039C171.151 88.6039 185.211 102.664 185.211 120.008" fill="white"/>
<path fill-rule="evenodd" clip-rule="evenodd" d="M452.234 289.271C436.936 289.271 424.488 276.823 424.488 261.525V242.35H479.98V261.525C479.98 276.823 467.533 289.271 452.234 289.271" fill="white"/>
<path fill-rule="evenodd" clip-rule="evenodd" d="M485.534 236.794H418.934V261.525C418.934 279.916 433.843 294.823 452.235 294.823C470.627 294.823 485.534 279.916 485.534 261.525V236.794ZM474.428 247.902V261.525C474.428 273.762 464.472 283.718 452.235 283.718C439.998 283.718 430.042 273.762 430.042 261.525V261.963H474.428V247.902V247.902Z" fill="#006BFF"/>
<path fill-rule="evenodd" clip-rule="evenodd" d="M452.235 285.812V285.812C470.627 285.812 485.534 300.722 485.534 319.113V343.841H418.934V319.113C418.934 300.722 433.843 285.812 452.235 285.812" fill="#006BFF"/>
<path fill-rule="evenodd" clip-rule="evenodd" d="M412.016 244.4H492.454V229.404H412.016V244.4Z" fill="#001E57"/>
<path fill-rule="evenodd" clip-rule="evenodd" d="M412.016 353.751H492.454V338.755H412.016V353.751Z" fill="#001E57"/>
<path fill-rule="evenodd" clip-rule="evenodd" d="M452.233 317.941L430.098 338.755H474.366L452.233 317.941" fill="white"/>
<path fill-rule="evenodd" clip-rule="evenodd" d="M452.233 324.352C451.438 324.352 450.793 323.707 450.793 322.912V316.363C450.793 315.568 451.438 314.923 452.233 314.923C453.028 314.923 453.673 315.568 453.673 316.363V322.912C453.673 323.707 453.028 324.352 452.233 324.352" fill="white"/>
<path fill-rule="evenodd" clip-rule="evenodd" d="M452.233 308.875C451.438 308.875 450.793 308.23 450.793 307.435V282.304C450.793 281.509 451.438 280.864 452.233 280.864C453.028 280.864 453.673 281.509 453.673 282.304V307.435C453.673 308.23 453.028 308.875 452.233 308.875" fill="white"/>
<path fill-rule="evenodd" clip-rule="evenodd" d="M169.714 120.008C169.714 128.794 162.592 135.916 153.806 135.916C145.021 135.916 137.898 128.794 137.898 120.008C137.898 111.223 145.021 104.101 153.806 104.101C162.592 104.101 169.714 111.223 169.714 120.008" fill="#72ACFF"/>
<path fill-rule="evenodd" clip-rule="evenodd" d="M79.7143 279.171C79.2432 279.171 78.7654 279.122 78.2861 279.015C74.6928 278.232 72.4167 274.681 73.2018 271.086L74.1242 266.867C74.9096 263.276 78.4592 261.001 82.052 261.784C85.6451 262.567 87.9215 266.118 87.1361 269.713L86.2139 273.932C85.5334 277.045 82.7763 279.171 79.7143 279.171" fill="#FFBFAA"/>
<path fill-rule="evenodd" clip-rule="evenodd" d="M69.5707 279.68C68.9552 279.68 68.3406 279.441 67.8781 278.966C66.9701 278.03 66.9917 276.535 67.9262 275.628L74.9269 268.828C75.8618 267.918 77.3553 267.941 78.2634 268.875C79.1715 269.811 79.1496 271.305 78.215 272.212L71.2143 279.012C70.7558 279.459 70.1628 279.68 69.5707 279.68" fill="#FFBFAA"/>
<path fill-rule="evenodd" clip-rule="evenodd" d="M70.3044 285.576C69.7171 285.576 69.1288 285.357 68.6714 284.919C67.7311 284.018 67.7 282.523 68.602 281.584L76.4676 273.382C77.3699 272.443 78.8634 272.411 79.8035 273.313C80.7438 274.217 80.7749 275.709 79.8729 276.65L72.0073 284.85C71.5442 285.331 70.9247 285.576 70.3044 285.576" fill="#FFBFAA"/>
<path fill-rule="evenodd" clip-rule="evenodd" d="M75.159 287.332C74.6294 287.332 74.0966 287.154 73.6568 286.791C72.6526 285.962 72.5115 284.473 73.3421 283.47L79.2653 276.305C80.0959 275.303 81.5832 275.162 82.5871 275.991C83.5914 276.823 83.7322 278.309 82.9019 279.315L76.9786 286.477C76.5121 287.042 75.8379 287.332 75.159 287.332" fill="#FFBFAA"/>
<path fill-rule="evenodd" clip-rule="evenodd" d="M61.2891 334.187L64.3652 336.972L68.5403 334.766L70.662 336.687L69.2027 341.355L82.0763 353.019L84.0005 350.934C84.9984 349.854 85.528 348.455 85.528 347.029C85.528 346.395 85.4232 345.756 85.208 345.137L82.917 338.568L85.4756 332.54L85.6311 332.171L80.9646 328.372L80.3757 327.894L72.7944 321.728L65.2966 329.847L63.2152 332.099L61.2891 334.187" fill="#001E57"/>
<path fill-rule="evenodd" clip-rule="evenodd" d="M140.487 275.044L116.494 254.351L109.812 228.238L122.716 224.937L128.36 246.995L149.186 264.958L140.487 275.044" fill="#006BFF"/>
<path fill-rule="evenodd" clip-rule="evenodd" d="M146.159 279.375L140.762 275.764L148.171 264.693L153.569 268.307L146.159 279.375" fill="#FFBFAA"/>
<path fill-rule="evenodd" clip-rule="evenodd" d="M154.663 284.432C154.227 284.432 153.786 284.311 153.392 284.061L145.301 278.874C144.204 278.171 143.885 276.711 144.588 275.617C145.291 274.519 146.75 274.2 147.848 274.902L155.938 280.086C157.035 280.789 157.354 282.249 156.651 283.347C156.201 284.049 155.44 284.432 154.663 284.432" fill="#FFBFAA"/>
<path fill-rule="evenodd" clip-rule="evenodd" d="M160.283 282.506C159.856 282.506 159.424 282.39 159.036 282.149L149.399 276.126C148.294 275.438 147.957 273.981 148.648 272.878C149.338 271.772 150.794 271.435 151.899 272.126L161.536 278.145C162.641 278.837 162.977 280.291 162.287 281.397C161.839 282.114 161.07 282.506 160.283 282.506" fill="#FFBFAA"/>
<path fill-rule="evenodd" clip-rule="evenodd" d="M161.008 277.394C160.637 277.394 160.261 277.307 159.91 277.123L151.686 272.791C150.533 272.184 150.091 270.758 150.698 269.603C151.305 268.451 152.733 268.011 153.885 268.615L162.109 272.947C163.262 273.555 163.705 274.98 163.097 276.135C162.675 276.936 161.856 277.394 161.008 277.394" fill="#FFBFAA"/>
<path fill-rule="evenodd" clip-rule="evenodd" d="M150.134 271.207C148.971 271.207 147.958 270.349 147.799 269.163C147.625 267.872 148.531 266.683 149.822 266.51L156.302 265.637C157.595 265.465 158.781 266.372 158.955 267.662C159.129 268.955 158.223 270.142 156.931 270.315L150.451 271.187C150.345 271.202 150.239 271.207 150.134 271.207" fill="#FFBFAA"/>
<path fill-rule="evenodd" clip-rule="evenodd" d="M140.185 276.319C139.584 276.319 138.982 276.089 138.524 275.631C137.606 274.712 137.607 273.226 138.525 272.307L146.894 263.944C147.812 263.028 149.299 263.028 150.216 263.944C151.134 264.863 151.133 266.349 150.216 267.267L141.846 275.631C141.387 276.092 140.786 276.319 140.185 276.319" fill="#006BFF"/>
<path fill-rule="evenodd" clip-rule="evenodd" d="M135.459 266.959C134.97 267.812 135.263 268.898 136.115 269.387C136.965 269.874 138.051 269.58 138.54 268.731C139.029 267.881 138.736 266.795 137.885 266.306C137.034 265.816 135.948 266.11 135.459 266.959" fill="white"/>
<path fill-rule="evenodd" clip-rule="evenodd" d="M129.145 353.483H133.295L134.909 349.045H137.771L139.823 353.483H157.195L157.221 350.646V350.589C157.221 348.486 156.071 346.548 154.222 345.537L151.952 344.302L148.114 342.208L145.963 336.025L145.83 335.645L139.821 335.964L139.065 336.005L129.306 336.526L129.145 353.483" fill="#001E57"/>
<path fill-rule="evenodd" clip-rule="evenodd" d="M128.036 337.361L122.973 315.41L140.886 311.277L145.95 333.228L128.036 337.361" fill="#001E57"/>
<path fill-rule="evenodd" clip-rule="evenodd" d="M131.921 322.538C127.736 322.538 123.953 319.661 122.972 315.41L117.401 291.258L98.348 273.471C94.8788 270.231 92.8602 265.655 92.8095 260.909L92.6998 250.633C92.6456 245.555 96.7165 241.397 101.793 241.342C101.826 241.342 101.86 241.342 101.893 241.342C106.924 241.342 111.029 245.394 111.083 250.437L111.188 260.309L131.999 279.735C133.337 280.985 134.272 282.606 134.684 284.389L140.886 311.277C142.027 316.225 138.942 321.158 133.995 322.301C133.3 322.46 132.605 322.538 131.921 322.538" fill="#001E57"/>
<path fill-rule="evenodd" clip-rule="evenodd" d="M128.192 337.995C126.927 337.995 125.883 336.987 125.845 335.714C125.806 334.418 126.826 333.335 128.123 333.297L147.072 332.733C148.372 332.698 149.451 333.715 149.49 335.011C149.528 336.307 148.509 337.39 147.212 337.43L128.263 337.992C128.239 337.995 128.215 337.995 128.192 337.995" fill="#006BFF"/>
<path fill-rule="evenodd" clip-rule="evenodd" d="M87.6647 332.094L72.75 321.345L83.9817 305.759L98.8964 316.507L87.6647 332.094" fill="#001E57"/>
<path fill-rule="evenodd" clip-rule="evenodd" d="M91.4312 320.326C89.5695 320.326 87.6906 319.761 86.0648 318.589C81.9462 315.623 81.0133 309.877 83.9815 305.759L96.061 288.994L103.775 257.355C104.977 252.424 109.949 249.4 114.882 250.601C119.814 251.805 122.838 256.779 121.635 261.709L113.497 295.091C113.217 296.243 112.717 297.329 112.024 298.288L98.8964 316.507C97.0999 318.998 94.2858 320.326 91.4312 320.326" fill="#001E57"/>
<path fill-rule="evenodd" clip-rule="evenodd" d="M112.85 268.322H101.891C96.8147 268.322 92.6992 264.206 92.6992 259.132C92.6992 254.054 96.8147 249.939 101.891 249.939H112.85C117.926 249.939 122.042 254.054 122.042 259.132C122.042 264.206 117.926 268.322 112.85 268.322" fill="#001E57"/>
<path fill-rule="evenodd" clip-rule="evenodd" d="M87.3861 333.813C86.938 333.813 86.485 333.686 86.0844 333.418L71.4908 323.681C70.4117 322.961 70.1205 321.504 70.8405 320.424C71.5608 319.344 73.0195 319.053 74.0987 319.773L88.6919 329.51C89.7714 330.23 90.0625 331.69 89.3425 332.767C88.8895 333.447 88.1447 333.813 87.3861 333.813" fill="#006BFF"/>
<path fill-rule="evenodd" clip-rule="evenodd" d="M92.6778 251.39L122.424 258.728L126.517 237.791C127.731 231.184 125.021 224.398 119.453 220.637C116.705 218.78 113.392 217.696 109.826 217.696C100.315 217.696 92.6055 225.406 92.6055 234.916L92.6778 251.39" fill="#006BFF"/>
<path fill-rule="evenodd" clip-rule="evenodd" d="M118.849 220.89L118.446 212.824L117.918 205.181C117.762 202.922 115.806 201.22 113.55 201.376C113.373 201.386 113.198 201.41 113.026 201.445C111.377 201.773 110.11 203.079 109.806 204.699C109.742 205.035 109.719 205.385 109.745 205.744L110.578 217.827C110.734 220.084 119.005 223.149 118.849 220.89" fill="#FFBFAA"/>
<path fill-rule="evenodd" clip-rule="evenodd" d="M104.242 294.993C104.09 298.343 106.212 301.22 109.194 302.213L112.075 298.216C112.733 297.303 113.208 296.272 113.474 295.18L114.986 288.977C113.842 288.346 112.506 288.012 111.089 288.087C107.396 288.286 104.409 291.298 104.242 294.993" fill="#006BFF"/>
<path fill-rule="evenodd" clip-rule="evenodd" d="M109.386 214.717L120.363 220.864L118.852 222.711L109.059 221.285L109.386 214.717" fill="white"/>
<path fill-rule="evenodd" clip-rule="evenodd" d="M120.316 211.88V211.88C122.86 210.731 123.99 207.737 122.841 205.193L121.116 201.373C119.601 198.021 115.655 196.531 112.303 198.046C108.95 199.56 107.461 203.506 108.975 206.858L109.378 207.75C111.258 211.911 116.155 213.76 120.316 211.88" fill="#FFBFAA"/>
<path fill-rule="evenodd" clip-rule="evenodd" d="M120.688 202.375L124.751 205.534C125.212 205.892 125.063 206.623 124.499 206.772L121.693 207.518L120.688 202.375" fill="#FFBFAA"/>
<path fill-rule="evenodd" clip-rule="evenodd" d="M114.499 201.812C114.499 201.812 114.635 203.065 114.48 203.669C114.278 204.454 113.712 205.005 112.952 205.271C111.995 205.607 110.823 205.599 109.815 205.617C107.528 205.657 104.587 204.18 105.706 201.41C106.086 200.469 107.05 199.774 108.065 199.785C107.394 199.884 106.668 199.687 106.194 199.202C105.72 198.717 105.544 197.938 105.834 197.326C106.165 196.625 107.002 196.28 107.777 196.302C108.552 196.324 109.283 196.642 109.993 196.955C110.19 195.973 110.801 195.062 111.684 194.591C112.568 194.12 113.716 194.137 114.535 194.712C114.797 194.895 115.032 195.146 115.103 195.458C115.175 195.77 115.037 196.143 114.739 196.259C114.59 195.309 115.195 194.294 116.103 193.975C117.011 193.655 118.118 194.066 118.597 194.901C118.725 195.123 118.806 195.383 118.818 195.64C118.751 195.845 118.576 196.195 118.576 196.369C119.625 196.544 121.722 195.321 120.499 194.097C121.722 193.923 123.12 194.796 123.644 195.845C124.082 196.72 123.958 197.707 123.452 198.523C122.338 200.318 120.095 200.657 118.189 200.986C117.095 201.174 114.932 201.689 114.932 201.689L114.525 201.803L114.499 201.812" fill="#006BFF"/>
<path fill-rule="evenodd" clip-rule="evenodd" d="M122.427 259.448C122.37 259.448 122.312 259.443 122.254 259.428L92.6377 252.122C92.2514 252.027 92.0159 251.638 92.1109 251.249C92.2062 250.863 92.5959 250.627 92.9824 250.725L122.599 258.028C122.985 258.124 123.22 258.515 123.125 258.901C123.044 259.229 122.75 259.448 122.427 259.448" fill="white"/>
<path fill-rule="evenodd" clip-rule="evenodd" d="M111.488 257.144C111.488 259.025 113.014 260.551 114.896 260.551C116.778 260.551 118.304 259.025 118.304 257.144C118.304 255.261 116.778 253.737 114.896 253.737C113.014 253.737 111.488 255.261 111.488 257.144" fill="white"/>
<path fill-rule="evenodd" clip-rule="evenodd" d="M120.007 294.792C119.832 294.792 119.657 294.728 119.518 294.602L98.3994 275.092C98.1074 274.822 98.0892 274.367 98.3591 274.073C98.6289 273.782 99.0846 273.765 99.3766 274.036L120.495 293.545C120.787 293.812 120.806 294.268 120.536 294.561C120.394 294.714 120.2 294.792 120.007 294.792" fill="white"/>
<path fill-rule="evenodd" clip-rule="evenodd" d="M124.988 285.193C124.988 289.199 128.235 292.447 132.241 292.447C133.729 292.447 135.111 292.001 136.261 291.232L134.683 284.389C134.271 282.606 133.335 280.985 131.998 279.735L130.345 278.191C127.259 279.024 124.988 281.843 124.988 285.193" fill="#006BFF"/>
<path fill-rule="evenodd" clip-rule="evenodd" d="M120.128 244.276L125.232 239.173L120.128 234.067L115.023 239.173L120.128 244.276" fill="#001E57"/>
<path fill-rule="evenodd" clip-rule="evenodd" d="M114.577 244.276L119.681 239.173L114.577 234.067L109.473 239.173L114.577 244.276" fill="white"/>
<path fill-rule="evenodd" clip-rule="evenodd" d="M123.438 207.091C123.078 206.835 122.607 206.661 122.012 206.602C121.194 206.521 120.354 206.748 119.666 207.198C118.898 207.7 118.258 208.361 117.267 208.085C116.894 207.981 116.545 207.802 116.2 207.63C115.364 207.212 114.57 206.681 113.844 206.093C113.842 206.091 113.84 206.09 113.838 206.088C113.838 206.088 109.873 207.996 109.871 207.997C109.487 208.258 111.242 210.2 111.416 210.403C113.134 212.414 115.772 213.742 118.467 213.622C119.999 213.553 121.606 213.058 122.823 212.107C124.464 210.825 124.999 208.199 123.438 207.091" fill="#006BFF"/>
<path fill-rule="evenodd" clip-rule="evenodd" d="M108.444 206.702C108.783 208.404 110.437 209.509 112.14 209.17C113.842 208.831 114.947 207.176 114.608 205.474C114.269 203.772 112.614 202.667 110.912 203.006C109.21 203.345 108.105 205 108.444 206.702" fill="#FFBFAA"/>
<path fill-rule="evenodd" clip-rule="evenodd" d="M86.5052 248.064C84.7037 248.064 82.9086 247.338 81.595 245.907C79.1093 243.197 79.2916 238.983 82.0023 236.498L98.299 221.552C101.009 219.067 105.222 219.249 107.708 221.96C110.194 224.671 110.012 228.883 107.301 231.368L91.0043 246.313C89.7259 247.485 88.1131 248.064 86.5052 248.064" fill="#006BFF"/>
<path fill-rule="evenodd" clip-rule="evenodd" d="M83.0491 286.126C83.0059 286.126 82.963 286.126 82.9195 286.123C81.6184 286.054 80.6207 284.942 80.691 283.64L81.1328 275.461C81.2031 274.159 82.3217 273.163 83.6159 273.232C84.9171 273.304 85.915 274.416 85.8448 275.717L85.4027 283.894C85.335 285.152 84.2936 286.126 83.0491 286.126" fill="#FFBFAA"/>
<path fill-rule="evenodd" clip-rule="evenodd" d="M87.1368 269.713L74.125 266.867L79.9999 239.982L93.012 242.828L87.1368 269.713" fill="#006BFF"/>
<path fill-rule="evenodd" clip-rule="evenodd" d="M86.5061 272.175C86.3347 272.175 86.1608 272.158 85.9865 272.117L74.2698 269.474C73.0044 269.186 72.2098 267.93 72.4958 266.663C72.7812 265.398 74.0377 264.604 75.3046 264.889L87.0213 267.535C88.2871 267.82 89.0814 269.079 88.7957 270.343C88.5492 271.435 87.5801 272.175 86.5061 272.175" fill="#006BFF"/>
<path fill-rule="evenodd" clip-rule="evenodd" d="M76.7955 261.778C76.6904 262.755 77.3963 263.63 78.372 263.737C79.3478 263.84 80.2236 263.135 80.3287 262.161C80.4338 261.185 79.7279 260.309 78.7522 260.203C77.7767 260.099 76.9006 260.805 76.7955 261.778" fill="white"/>
<path fill-rule="evenodd" clip-rule="evenodd" d="M127.9 341.082L127.844 346.894L134.633 344.78L127.9 341.082ZM127.225 348.34C127.095 348.34 126.967 348.299 126.86 348.219C126.703 348.103 126.612 347.919 126.613 347.723L126.687 340.048C126.689 339.832 126.804 339.633 126.989 339.524C127.175 339.414 127.404 339.412 127.593 339.518L136.481 344.403C136.696 344.521 136.82 344.754 136.795 344.999C136.771 345.244 136.603 345.448 136.369 345.52L127.406 348.314C127.347 348.331 127.286 348.34 127.225 348.34V348.34Z" fill="#006BFF"/>
<path fill-rule="evenodd" clip-rule="evenodd" d="M64.6844 328.508L70.2647 331.684L68.4293 324.453L64.6844 328.508ZM71.2105 333.539C71.1065 333.539 71.0022 333.51 70.9081 333.459L63.4106 329.187C63.2484 329.095 63.1375 328.934 63.1087 328.75C63.0802 328.565 63.1375 328.378 63.264 328.243L68.2956 322.794C68.4477 322.63 68.6772 322.563 68.8952 322.618C69.1124 322.673 69.282 322.843 69.3373 323.059L71.8035 332.776C71.8637 333.015 71.7761 333.266 71.5811 333.412C71.4723 333.496 71.3418 333.539 71.2105 333.539V333.539Z" fill="#006BFF"/>
<path fill-rule="evenodd" clip-rule="evenodd" d="M149.721 274.994C148.926 274.994 148.056 274.758 147.118 274.283C146.763 274.105 146.621 273.673 146.8 273.315C146.98 272.961 147.413 272.82 147.768 272.999C148.962 273.603 149.947 273.713 150.695 273.327C152.007 272.653 152.35 270.626 152.353 270.605C152.404 270.268 152.685 270.015 153.025 269.995L156.858 269.785C157.251 269.756 157.594 270.067 157.616 270.464C157.638 270.862 157.334 271.202 156.936 271.222L153.646 271.403C153.408 272.27 152.79 273.868 151.355 274.609C150.853 274.868 150.308 274.994 149.721 274.994" fill="#240448"/>
<path fill-rule="evenodd" clip-rule="evenodd" d="M417.275 204.599C415.21 204.599 413.212 203.506 412.143 201.572C410.582 198.741 411.61 195.179 414.441 193.617L436.108 181.663C438.941 180.101 442.501 181.129 444.062 183.961C445.626 186.792 444.598 190.353 441.764 191.915L420.098 203.87C419.202 204.365 418.231 204.599 417.275 204.599" fill="#FFBFAA"/>
<path fill-rule="evenodd" clip-rule="evenodd" d="M422.012 187.909L430.467 200.35L440.778 193.645C444.415 191.684 445.777 187.144 443.816 183.504C441.855 179.864 437.313 178.503 433.676 180.464L422.012 187.909" fill="#001E57"/>
<path fill-rule="evenodd" clip-rule="evenodd" d="M429.567 201.373C428.855 201.373 428.152 201.051 427.692 200.44L420.158 190.477C419.377 189.442 419.582 187.969 420.616 187.186C421.649 186.404 423.124 186.609 423.907 187.643L431.439 197.606C432.222 198.641 432.017 200.114 430.984 200.897C430.56 201.218 430.062 201.373 429.567 201.373" fill="#001E57"/>
<path fill-rule="evenodd" clip-rule="evenodd" d="M449.082 230.507H435.852L436.952 220.592H449.082V230.507" fill="#240444"/>
<path fill-rule="evenodd" clip-rule="evenodd" d="M461.974 156.692C461.887 159.237 459.753 161.229 457.21 161.142C454.667 161.055 452.674 158.922 452.761 156.378C452.847 153.834 454.981 151.841 457.524 151.928C460.07 152.015 462.06 154.148 461.974 156.692" fill="#72ACFF"/>
<path fill-rule="evenodd" clip-rule="evenodd" d="M454.071 160.254V160.254C453.048 160.798 451.778 160.411 451.234 159.389L451.211 159.348C450.667 158.327 451.055 157.057 452.078 156.513C453.097 155.968 454.367 156.356 454.912 157.377L454.935 157.418C455.479 158.44 455.09 159.709 454.071 160.254" fill="#001E57"/>
<path fill-rule="evenodd" clip-rule="evenodd" d="M412.82 241.967L417.184 254.351L425.976 250.492L422.509 236.388L412.82 241.967" fill="#FFBFAA"/>
<path fill-rule="evenodd" clip-rule="evenodd" d="M431.768 259.958L408.832 268.644L407.847 266.052L407.614 265.43C407.164 264.241 407.404 262.904 408.242 261.948L410.361 259.529L412.878 256.652L412.795 251.963C412.783 251.142 413.31 250.411 414.097 250.169L417.797 249.026L419.047 253.567L425.404 247.456C425.968 246.915 426.904 247.125 427.183 247.856L431.768 259.958" fill="#72ACFF"/>
<path fill-rule="evenodd" clip-rule="evenodd" d="M388.653 233.062L380.906 243.666L389.06 248.732L398.731 237.897L388.653 233.062" fill="#FFBFAA"/>
<path fill-rule="evenodd" clip-rule="evenodd" d="M391.743 177.029C391.276 178.537 391.694 180.277 393.013 181.604L410.613 203.231C412.92 205.829 416.897 206.064 419.495 203.757C422.092 201.449 422.329 197.472 420.022 194.874L400.636 175.612C398.629 173.595 395.297 173.301 393.192 174.955C392.472 175.522 391.988 176.244 391.743 177.029" fill="#FFBFAA"/>
<path fill-rule="evenodd" clip-rule="evenodd" d="M398.365 178.974C398.091 178.974 397.815 178.923 397.547 178.816L387.415 174.762C386.283 174.31 385.733 173.025 386.186 171.893C386.641 170.761 387.925 170.211 389.057 170.663L399.186 174.716C400.318 175.169 400.868 176.454 400.416 177.586C400.07 178.449 399.241 178.974 398.365 178.974" fill="#FFBFAA"/>
<path fill-rule="evenodd" clip-rule="evenodd" d="M396.252 180.105C396.151 180.105 396.047 180.098 395.944 180.083L383.957 178.407C382.748 178.238 381.907 177.123 382.077 175.915C382.244 174.708 383.358 173.866 384.568 174.034L396.554 175.711C397.764 175.879 398.605 176.995 398.435 178.202C398.282 179.306 397.338 180.105 396.252 180.105" fill="#FFBFAA"/>
<path fill-rule="evenodd" clip-rule="evenodd" d="M394.294 183.333C394.179 183.333 394.064 183.324 393.946 183.306L386.077 182.056C384.874 181.865 384.05 180.734 384.243 179.53C384.433 178.326 385.568 177.504 386.769 177.696L394.64 178.945C395.844 179.136 396.664 180.267 396.471 181.472C396.299 182.558 395.363 183.333 394.294 183.333" fill="#FFBFAA"/>
<path fill-rule="evenodd" clip-rule="evenodd" d="M399.001 178.156C398.186 178.156 397.402 177.704 397.017 176.923L395.251 173.336C394.713 172.242 395.162 170.919 396.256 170.38C397.351 169.842 398.673 170.292 399.211 171.385L400.979 174.972C401.518 176.066 401.066 177.389 399.974 177.928C399.66 178.083 399.326 178.156 399.001 178.156" fill="#FFBFAA"/>
<path fill-rule="evenodd" clip-rule="evenodd" d="M436.938 204.429L456.818 212.152L456.784 188.173C456.542 185.272 455.597 182.638 454.16 180.5C451.899 177.131 448.415 174.997 444.547 174.997C441.387 174.997 438.484 176.421 436.293 178.781C435.843 179.265 435.423 179.789 435.037 180.348C434.965 180.457 434.89 180.566 434.818 180.677C432.825 183.738 432.174 187.484 432.883 191.068L436.938 204.429" fill="#001E57"/>
<path fill-rule="evenodd" clip-rule="evenodd" d="M440.442 189.284C439.855 192.406 436.848 194.461 433.726 193.874C430.604 193.287 428.548 190.281 429.135 187.158C429.723 184.036 437.378 177.934 437.378 177.934C440.203 179.387 441.03 186.162 440.442 189.284" fill="#001E57"/>
<path fill-rule="evenodd" clip-rule="evenodd" d="M437.3 204.955C436.997 204.955 436.718 204.763 436.617 204.462L433.294 194.473C430.993 193.982 429.118 192.274 428.435 190.016C427.709 187.626 428.464 185.128 430.673 182.592C431.482 181.664 432.412 180.802 433.317 179.969C434.008 179.331 434.722 178.671 435.393 177.972C435.67 177.685 436.125 177.676 436.41 177.951C436.698 178.226 436.707 178.682 436.433 178.969C435.73 179.699 434.999 180.374 434.293 181.027C433.377 181.871 432.516 182.668 431.759 183.538C429.869 185.706 429.233 187.688 429.812 189.599C430.379 191.469 431.995 192.853 433.93 193.125C434.201 193.161 434.437 193.351 434.524 193.612L437.982 204.007C438.109 204.384 437.905 204.792 437.527 204.918C437.452 204.943 437.375 204.955 437.3 204.955" fill="white"/>
<path fill-rule="evenodd" clip-rule="evenodd" d="M436.106 230.496C434.847 230.496 433.566 230.248 432.336 229.73L403.717 217.641C398.781 215.556 396.471 209.866 398.556 204.931C400.639 199.996 406.33 197.686 411.266 199.77L439.884 211.858C444.818 213.943 447.128 219.633 445.045 224.568C443.482 228.269 439.887 230.496 436.106 230.496" fill="#240444"/>
<path fill-rule="evenodd" clip-rule="evenodd" d="M460.062 219.433C460.039 219.931 459.979 220.425 459.89 220.915C459.083 225.239 455.705 229.044 451.425 230.173C450.584 230.395 449.761 230.499 448.954 230.507C444.159 230.542 439.905 227.163 435.795 224.945C431.536 222.643 427.279 220.343 423.02 218.042C420.563 216.713 418.121 215.141 415.561 214.013C410.915 211.965 408.81 206.54 410.858 201.895C412.905 197.249 418.331 195.143 422.977 197.19C430.237 199.78 437.498 202.368 444.758 204.957C447.998 206.112 451.641 206.939 454.55 208.88C454.994 209.174 455.42 209.494 455.823 209.845C458.542 212.21 460.229 215.808 460.062 219.433" fill="#72ACFF"/>
<path fill-rule="evenodd" clip-rule="evenodd" d="M425.076 211.428L396.051 242.001L384.707 234.459C384.742 234.415 384.782 234.375 384.819 234.332L411.071 199.52C414.357 195.654 420.16 195.184 424.028 198.471C427.896 201.761 428.362 207.56 425.076 211.428" fill="#72ACFF"/>
<path fill-rule="evenodd" clip-rule="evenodd" d="M445.422 218.811C445.12 218.811 444.84 218.622 444.739 218.322C444.61 217.945 444.814 217.537 445.189 217.409C445.549 217.287 445.825 216.69 445.912 215.85C446.021 214.775 445.831 213.444 445.376 212.102C444.4 209.231 442.723 207.757 441.998 208.003C441.623 208.131 441.214 207.929 441.085 207.552C440.958 207.176 441.16 206.767 441.537 206.639C443.331 206.029 445.566 208.181 446.738 211.64C447.259 213.173 447.473 214.721 447.343 215.996C447.193 217.468 446.591 218.454 445.652 218.772C445.575 218.799 445.497 218.811 445.422 218.811" fill="#240448"/>
<path fill-rule="evenodd" clip-rule="evenodd" d="M427.183 241.941L412.803 245.673L397.683 210.604C395.892 205.854 398.294 200.551 403.046 198.763C407.798 196.973 413.1 199.375 414.888 204.127L427.183 241.941" fill="#72ACFF"/>
<path fill-rule="evenodd" clip-rule="evenodd" d="M435.737 213.837C435.553 213.837 435.363 213.813 435.176 213.764L431.308 212.747C430.127 212.438 429.424 211.23 429.733 210.051C430.044 208.872 431.25 208.168 432.431 208.477L436.296 209.494C437.477 209.803 438.18 211.011 437.872 212.19C437.609 213.181 436.717 213.837 435.737 213.837" fill="#FFBFAA"/>
<path fill-rule="evenodd" clip-rule="evenodd" d="M466.969 208.937C465.336 208.937 463.709 208.256 462.551 206.927L447.18 189.273C445.058 186.834 445.314 183.136 447.754 181.013C450.19 178.889 453.888 179.145 456.013 181.584L471.384 199.237C473.507 201.676 473.25 205.375 470.811 207.498C469.702 208.463 468.334 208.937 466.969 208.937" fill="#FFBFAA"/>
<path fill-rule="evenodd" clip-rule="evenodd" d="M465.498 188.209L453.364 197.122L447.368 191.126C444.445 188.202 444.445 183.462 447.368 180.538C450.294 177.615 455.032 177.615 457.958 180.538L465.498 188.209" fill="white"/>
<path fill-rule="evenodd" clip-rule="evenodd" d="M453.794 199.302C453.172 199.302 452.559 199.025 452.15 198.495C451.447 197.588 451.614 196.284 452.521 195.582L463.315 187.237C464.223 186.536 465.527 186.703 466.23 187.61C466.93 188.518 466.763 189.822 465.856 190.523L455.061 198.868C454.684 199.161 454.238 199.302 453.794 199.302" fill="white"/>
<path fill-rule="evenodd" clip-rule="evenodd" d="M434.248 219.87C435.552 220.756 437.341 220.863 438.994 219.987L468.984 209.087C472.14 207.636 473.525 203.9 472.074 200.742C470.622 197.585 466.884 196.202 463.728 197.654L435.48 210.951C432.966 212.284 431.713 215.387 432.684 217.882C433.018 218.736 433.568 219.409 434.248 219.87" fill="#FFBFAA"/>
<path fill-rule="evenodd" clip-rule="evenodd" d="M424.998 217.664V217.664C421.447 217.664 418.57 214.785 418.57 211.233V206.64H431.43V211.233C431.43 214.785 428.552 217.664 424.998 217.664" fill="white"/>
<path fill-rule="evenodd" clip-rule="evenodd" d="M425.423 215.664C424.248 215.664 423.272 214.74 423.217 213.556C423.162 212.338 424.107 211.306 425.325 211.252L437.485 210.704C438.7 210.643 439.734 211.592 439.789 212.81C439.843 214.028 438.902 215.06 437.683 215.115L425.524 215.662C425.489 215.664 425.455 215.664 425.423 215.664" fill="#FFBFAA"/>
<path fill-rule="evenodd" clip-rule="evenodd" d="M429.066 218.432C428.035 218.432 427.113 217.706 426.903 216.656C426.664 215.461 427.438 214.298 428.636 214.059L435.695 212.648C436.891 212.408 438.051 213.184 438.29 214.379C438.529 215.575 437.755 216.738 436.559 216.977L429.5 218.388C429.354 218.418 429.21 218.432 429.066 218.432" fill="#FFBFAA"/>
<path fill-rule="evenodd" clip-rule="evenodd" d="M430.544 221.499C429.57 221.499 428.68 220.851 428.412 219.866C428.096 218.689 428.793 217.477 429.97 217.16L435.843 215.575C437.018 215.257 438.23 215.954 438.547 217.131C438.867 218.308 438.17 219.52 436.992 219.838L431.12 221.422C430.927 221.474 430.734 221.499 430.544 221.499" fill="#FFBFAA"/>
<path fill-rule="evenodd" clip-rule="evenodd" d="M450.598 166.023L447.87 177.102L438.551 181.18L440.829 174.805L442.194 169.183L449.253 166.528L450.598 166.023" fill="#FFBFAA"/>
<path fill-rule="evenodd" clip-rule="evenodd" d="M438.552 181.899C438.382 181.899 438.212 181.838 438.077 181.721C437.866 181.535 437.78 181.242 437.864 180.971L439.586 175.248C439.701 174.867 440.104 174.652 440.481 174.766C440.865 174.881 441.081 175.282 440.965 175.663L439.698 179.865L448.373 175.914C448.736 175.749 449.162 175.91 449.326 176.271C449.49 176.633 449.332 177.06 448.969 177.225L438.851 181.834C438.753 181.878 438.653 181.899 438.552 181.899" fill="white"/>
<path fill-rule="evenodd" clip-rule="evenodd" d="M455.821 201.531C455.513 201.531 455.231 201.333 455.133 201.023C455.018 200.644 455.228 200.241 455.608 200.123L458.511 199.225C458.891 199.108 459.295 199.321 459.413 199.701C459.531 200.081 459.318 200.484 458.938 200.602L456.035 201.499C455.963 201.521 455.893 201.531 455.821 201.531" fill="#240448"/>
<path fill-rule="evenodd" clip-rule="evenodd" d="M392.551 248.254L386.941 256.321L385.357 258.596L365.223 244.593L366.804 242.318L366.905 242.177C367.803 240.884 369.341 240.193 370.902 240.377L373.609 240.699L377.402 241.149L381.04 238.56C381.817 238.007 382.868 238.033 383.614 238.626L386.474 240.895L383.436 244.492L391.736 246.212C392.66 246.405 393.092 247.479 392.551 248.254" fill="#72ACFF"/>
<path fill-rule="evenodd" clip-rule="evenodd" d="M449.471 165.727L447.72 166.386C447.354 170.744 445.355 174.076 441.047 174.004L442.412 168.382L449.471 165.727" fill="#240444"/>
<path fill-rule="evenodd" clip-rule="evenodd" d="M439.443 171.407V171.407C436.819 170.452 435.468 167.551 436.424 164.928L437.859 160.99C439.117 157.533 442.939 155.752 446.395 157.01C449.851 158.269 451.634 162.092 450.375 165.548L450.041 166.468C448.477 170.758 443.734 172.969 439.443 171.407" fill="#FFBFAA"/>
<path fill-rule="evenodd" clip-rule="evenodd" d="M436.96 157.529C437.925 155.963 439.187 154.631 440.894 153.944C442.812 153.175 445.01 153.319 446.951 153.914C447.132 153.969 447.308 154.028 447.487 154.092C447.587 154.128 447.688 154.167 447.792 154.206C452.443 156.031 455.231 161.626 453.227 166.363C452.823 167.315 450.804 170.62 449.874 171.116C449.143 171.506 448.161 167.095 447.331 167.05C446.502 167.004 445.675 166.645 445.157 165.997C444.448 165.106 444.425 163.868 444.44 162.728C442.867 162.467 441.3 162.103 439.855 161.434C438.956 161.019 438.107 160.482 437.378 159.81C437.058 159.515 436.355 158.659 436.355 158.659C436.355 158.659 436.845 157.718 436.96 157.529" fill="#72ACFF"/>
<path fill-rule="evenodd" clip-rule="evenodd" d="M443.314 174.504V174.504C443.046 174.471 442.845 174.241 442.847 173.97L442.605 161.387L446.105 161.815L443.904 174.05C443.864 174.337 443.602 174.539 443.314 174.504" fill="#72ACFF"/>
<path fill-rule="evenodd" clip-rule="evenodd" d="M450.844 166.679C450.633 168.401 449.067 169.628 447.344 169.418C445.622 169.207 444.395 167.64 444.605 165.917C444.816 164.195 446.382 162.969 448.105 163.179C449.827 163.389 451.054 164.956 450.844 166.679" fill="#FFBFAA"/>
<path fill-rule="evenodd" clip-rule="evenodd" d="M449.26 169.651C449.153 170.518 448.367 171.134 447.5 171.028C446.633 170.923 446.017 170.135 446.121 169.268C446.227 168.402 447.016 167.785 447.883 167.891C448.747 167.997 449.367 168.785 449.26 169.651" fill="white"/>
<path fill-rule="evenodd" clip-rule="evenodd" d="M437.831 161.345C436.901 162.983 435.951 164.506 434.885 165.32C434.597 165.54 434.491 165.94 434.684 166.247C434.805 166.439 435.015 166.574 435.28 166.574L438.183 166.574L437.831 161.345" fill="#FFBFAA"/>
<path fill-rule="evenodd" clip-rule="evenodd" d="M412.797 248.343C411.755 248.343 410.801 247.64 410.525 246.583C410.199 245.328 410.954 244.046 412.21 243.718L425.858 240.175C427.114 239.85 428.398 240.605 428.724 241.86C429.049 243.116 428.294 244.397 427.039 244.723L413.39 248.268C413.192 248.317 412.993 248.343 412.797 248.343" fill="white"/>
<path fill-rule="evenodd" clip-rule="evenodd" d="M396.901 218.266C396.746 218.266 396.59 218.216 396.458 218.112C396.147 217.866 396.092 217.414 396.337 217.101L410.503 199.075C412.807 196.367 416.384 195.091 419.861 195.724C420.249 195.795 420.509 196.17 420.439 196.561C420.367 196.953 419.993 197.211 419.601 197.141C416.629 196.598 413.571 197.69 411.618 199.987L397.469 217.991C397.327 218.171 397.117 218.266 396.901 218.266" fill="white"/>
<path fill-rule="evenodd" clip-rule="evenodd" d="M403.603 235.729C403.427 235.729 403.251 235.665 403.113 235.539C402.822 235.268 402.805 234.813 403.073 234.519L421.096 215.029C421.366 214.737 421.822 214.719 422.112 214.989C422.403 215.259 422.423 215.715 422.153 216.007L404.13 235.498C403.989 235.651 403.796 235.729 403.603 235.729" fill="white"/>
<path fill-rule="evenodd" clip-rule="evenodd" d="M407.773 266.568C407.485 266.568 407.214 266.398 407.102 266.116C406.955 265.747 407.136 265.326 407.505 265.18L419.359 260.439C419.728 260.289 420.148 260.471 420.295 260.839C420.442 261.208 420.263 261.629 419.895 261.775L408.038 266.516C407.951 266.55 407.859 266.568 407.773 266.568" fill="white"/>
<path fill-rule="evenodd" clip-rule="evenodd" d="M396.141 184.306C395.349 184.306 394.559 184.169 393.952 183.999C393.569 183.892 393.344 183.495 393.453 183.112C393.56 182.73 393.955 182.506 394.338 182.612C394.997 182.794 397.532 183.245 397.923 182.134C398.056 181.759 398.468 181.561 398.842 181.695C399.216 181.827 399.415 182.238 399.283 182.613C398.822 183.912 397.48 184.306 396.141 184.306" fill="#240448"/>
<path fill-rule="evenodd" clip-rule="evenodd" d="M378.506 251.177C378.365 251.177 378.221 251.137 378.094 251.047L366.39 242.909C366.065 242.681 365.984 242.232 366.211 241.906C366.439 241.581 366.885 241.5 367.214 241.725L378.918 249.867C379.243 250.094 379.324 250.541 379.097 250.869C378.958 251.07 378.734 251.177 378.506 251.177" fill="white"/>
<path fill-rule="evenodd" clip-rule="evenodd" d="M445.027 218.875C443.365 218.875 441.49 216.838 440.451 213.772C439.276 210.314 439.742 207.247 441.536 206.639C441.914 206.511 442.32 206.713 442.449 207.089C442.576 207.466 442.375 207.875 441.997 208.003C441.271 208.249 440.839 210.439 441.813 213.31C442.786 216.181 444.463 217.655 445.188 217.409C445.566 217.28 445.975 217.483 446.101 217.859C446.231 218.236 446.029 218.645 445.652 218.772C445.447 218.842 445.237 218.875 445.027 218.875" fill="#240448"/>
<path fill-rule="evenodd" clip-rule="evenodd" d="M442.094 216.279V216.279C440.78 216.578 439.473 215.755 439.173 214.44L439.026 213.793C438.727 212.478 439.551 211.17 440.864 210.871C442.18 210.572 443.487 211.395 443.787 212.71L443.934 213.357C444.233 214.672 443.41 215.98 442.094 216.279" fill="white"/>
<path fill-rule="evenodd" clip-rule="evenodd" d="M441.407 211.421C441.272 211.421 441.137 211.436 440.998 211.467C440.523 211.575 440.117 211.863 439.858 212.277C439.596 212.69 439.512 213.181 439.622 213.657L439.769 214.305C439.99 215.288 440.972 215.906 441.957 215.683C442.435 215.575 442.841 215.287 443.101 214.873C443.363 214.46 443.446 213.97 443.337 213.493L443.19 212.846C443.081 212.369 442.793 211.963 442.381 211.703C442.084 211.516 441.75 211.421 441.407 211.421ZM441.551 216.952C440.157 216.952 438.896 215.99 438.576 214.576L438.429 213.928C438.248 213.133 438.386 212.315 438.821 211.625C439.256 210.935 439.933 210.455 440.728 210.274C442.366 209.902 444.008 210.933 444.382 212.575L444.529 213.222C444.904 214.863 443.87 216.502 442.228 216.875C442.003 216.927 441.776 216.952 441.551 216.952V216.952Z" fill="#240448"/>
<path fill-rule="evenodd" clip-rule="evenodd" d="M395.433 243.942C394.984 243.942 394.535 243.813 394.134 243.548L383.896 236.739C382.816 236.022 382.522 234.562 383.242 233.482C383.959 232.402 385.419 232.108 386.499 232.828L396.735 239.637C397.815 240.354 398.109 241.811 397.391 242.894C396.939 243.574 396.193 243.942 395.433 243.942" fill="white"/>
<path fill-rule="evenodd" clip-rule="evenodd" d="M451.522 196.607C451.309 196.607 451.098 196.514 450.957 196.335C450.709 196.023 450.761 195.57 451.075 195.323L458.215 189.665C458.526 189.418 458.978 189.47 459.226 189.782C459.473 190.094 459.421 190.546 459.11 190.793L451.968 196.452C451.836 196.557 451.68 196.607 451.522 196.607" fill="#240448"/>
<path fill-rule="evenodd" clip-rule="evenodd" d="M427.739 250.872C426.377 250.872 425.268 251.981 425.268 253.34C425.268 254.702 426.377 255.811 427.739 255.811C429.101 255.811 430.207 254.702 430.207 253.34C430.207 251.981 429.101 250.872 427.739 250.872ZM427.739 257.035C425.703 257.035 424.047 255.376 424.047 253.34C424.047 251.304 425.703 249.648 427.739 249.648C429.775 249.648 431.431 251.304 431.431 253.34C431.431 255.376 429.775 257.035 427.739 257.035V257.035Z" fill="#001E57"/>
<path fill-rule="evenodd" clip-rule="evenodd" d="M388.055 249.345C386.693 249.345 385.587 250.451 385.587 251.813C385.587 253.176 386.693 254.285 388.055 254.285C389.418 254.285 390.526 253.176 390.526 251.813C390.526 250.451 389.418 249.345 388.055 249.345ZM388.055 255.506C386.019 255.506 384.363 253.85 384.363 251.813C384.363 249.777 386.019 248.121 388.055 248.121C390.092 248.121 391.748 249.777 391.748 251.813C391.748 253.85 390.092 255.506 388.055 255.506V255.506Z" fill="#001E57"/>
<path fill-rule="evenodd" clip-rule="evenodd" d="M267.743 142.986C266.997 142.986 266.24 142.86 265.499 142.594C262.035 141.354 260.235 137.542 261.473 134.079L269.528 111.585C270.767 108.123 274.577 106.321 278.042 107.56C281.506 108.8 283.306 112.612 282.068 116.075L274.013 138.569C273.039 141.29 270.476 142.986 267.743 142.986" fill="#FFBFAA"/>
<path fill-rule="evenodd" clip-rule="evenodd" d="M260.667 146.757C260.431 146.757 260.192 146.722 259.955 146.647C258.711 146.254 258.023 144.929 258.415 143.686L261.358 134.379C261.75 133.137 263.074 132.448 264.319 132.841C265.56 133.233 266.248 134.559 265.856 135.801L262.916 145.108C262.596 146.114 261.669 146.757 260.667 146.757" fill="#FFBFAA"/>
<path fill-rule="evenodd" clip-rule="evenodd" d="M264.112 151.6C263.902 151.6 263.691 151.572 263.478 151.513C262.223 151.164 261.488 149.864 261.837 148.608L264.878 137.66C265.226 136.405 266.525 135.669 267.781 136.018C269.037 136.367 269.774 137.667 269.423 138.923L266.384 149.871C266.093 150.915 265.146 151.6 264.112 151.6" fill="#FFBFAA"/>
<path fill-rule="evenodd" clip-rule="evenodd" d="M269.217 150.846C269.065 150.846 268.909 150.831 268.754 150.799C267.475 150.544 266.646 149.301 266.902 148.023L268.722 138.909C268.978 137.631 270.22 136.803 271.498 137.057C272.774 137.313 273.604 138.555 273.35 139.833L271.527 148.948C271.305 150.07 270.318 150.846 269.217 150.846" fill="#FFBFAA"/>
<path fill-rule="evenodd" clip-rule="evenodd" d="M274.436 144.831C273.402 144.831 272.452 144.144 272.164 143.098L270.566 137.305C270.22 136.049 270.957 134.75 272.216 134.404C273.472 134.058 274.77 134.795 275.116 136.052L276.712 141.844C277.057 143.1 276.32 144.399 275.064 144.746C274.854 144.803 274.644 144.831 274.436 144.831" fill="#FFBFAA"/>
<path fill-rule="evenodd" clip-rule="evenodd" d="M153.808 122.6C153.056 122.6 152.31 122.274 151.797 121.645C150.893 120.535 151.06 118.903 152.17 117.999L261.8 28.7009C262.911 27.7963 264.541 27.9637 265.446 29.0736C266.35 30.1836 266.183 31.8159 265.074 32.7203L155.444 122.018C154.963 122.41 154.384 122.6 153.808 122.6" fill="#001E57"/>
<path fill-rule="evenodd" clip-rule="evenodd" d="M268.217 49.143C268.096 49.143 267.972 49.1344 267.846 49.1162L247.251 46.1613C245.975 45.9782 245.027 44.8846 245.027 43.5955V24.3747C245.027 22.9431 246.188 21.7827 247.619 21.7827C249.051 21.7827 250.211 22.9431 250.211 24.3747V41.3489L268.583 43.9849C270 44.1883 270.985 45.5018 270.78 46.9188C270.596 48.2107 269.487 49.143 268.217 49.143" fill="#CFE4FF"/>
<path fill-rule="evenodd" clip-rule="evenodd" d="M254.909 60.2309C254.785 60.2309 254.661 60.2223 254.537 60.2041L233.942 57.2492C232.666 57.0661 231.719 55.9725 231.719 54.6834V35.4626C231.719 34.031 232.879 32.8706 234.311 32.8706C235.742 32.8706 236.903 34.031 236.903 35.4626V52.4368L255.274 55.0728C256.691 55.2761 257.673 56.5897 257.472 58.0067C257.285 59.2986 256.176 60.2309 254.909 60.2309" fill="#CFE4FF"/>
<path fill-rule="evenodd" clip-rule="evenodd" d="M491.777 141.621L362.344 123.729L376.174 23.6754L505.606 41.568L491.777 141.621" fill="#CFE4FF"/>
<path fill-rule="evenodd" clip-rule="evenodd" d="M469.334 131.471H422.033C421.635 131.471 421.312 131.149 421.312 130.751C421.312 130.353 421.635 130.031 422.033 130.031H469.334C469.734 130.031 470.054 130.353 470.054 130.751C470.054 131.149 469.734 131.471 469.334 131.471" fill="#001E57"/>
<path fill-rule="evenodd" clip-rule="evenodd" d="M491.513 116.101C491.116 116.101 490.793 115.778 490.793 115.381V29.7461C490.793 29.3487 491.116 29.0261 491.513 29.0261C491.91 29.0261 492.233 29.3487 492.233 29.7461V115.381C492.233 115.778 491.91 116.101 491.513 116.101" fill="#001E57"/>
<path fill-rule="evenodd" clip-rule="evenodd" d="M491.511 30.4661H477.013C476.616 30.4661 476.293 30.1439 476.293 29.7461C476.293 29.3487 476.616 29.0261 477.013 29.0261H491.511C491.908 29.0261 492.231 29.3487 492.231 29.7461C492.231 30.1439 491.908 30.4661 491.511 30.4661" fill="#001E57"/>
<path fill-rule="evenodd" clip-rule="evenodd" d="M477.014 30.4661H360.849C360.451 30.4661 360.129 30.1439 360.129 29.7461C360.129 29.3487 360.451 29.0261 360.849 29.0261H477.014C477.411 29.0261 477.734 29.3487 477.734 29.7461C477.734 30.1439 477.411 30.4661 477.014 30.4661" fill="#001E57"/>
<path fill-rule="evenodd" clip-rule="evenodd" d="M360.849 114.55C360.451 114.55 360.129 114.228 360.129 113.83V31.2809C360.129 30.8832 360.451 30.5609 360.849 30.5609C361.246 30.5609 361.569 30.8832 361.569 31.2809V113.83C361.569 114.228 361.246 114.55 360.849 114.55" fill="#001E57"/>
<path fill-rule="evenodd" clip-rule="evenodd" d="M379.219 71.8766H398.99V52.1045H379.219V71.8766Z" fill="#006BFF"/>
<path fill-rule="evenodd" clip-rule="evenodd" d="M379.219 109.64H398.99V89.8682H379.219V109.64Z" fill="white"/>
<path fill-rule="evenodd" clip-rule="evenodd" d="M356.922 89.1623C356.832 89.1623 356.74 89.1571 356.648 89.1461C355.352 88.9961 354.425 87.8248 354.574 86.5305L355.061 82.3473C355.179 81.3341 355.934 80.5113 356.933 80.3077L362.944 79.0831C364.222 78.8234 365.467 79.647 365.726 80.9237C365.988 82.2007 365.164 83.4466 363.885 83.7067L359.551 84.59L359.263 87.0749C359.125 88.2767 358.102 89.1623 356.922 89.1623" fill="#FFBFAA"/>
<path fill-rule="evenodd" clip-rule="evenodd" d="M393.32 117.631C393.274 117.631 393.228 117.627 393.182 117.617C392.304 117.445 391.402 117.326 390.506 117.264C390.109 117.236 389.809 116.892 389.838 116.496C389.867 116.098 390.216 115.801 390.607 115.827C391.563 115.893 392.522 116.02 393.458 116.204C393.847 116.281 394.104 116.659 394.026 117.05C393.96 117.393 393.657 117.631 393.32 117.631ZM382.296 118.229C381.987 118.229 381.705 118.032 381.607 117.724C381.489 117.345 381.699 116.941 382.08 116.822C382.992 116.536 383.931 116.306 384.873 116.136C385.265 116.066 385.639 116.326 385.711 116.718C385.78 117.109 385.521 117.483 385.129 117.554C384.245 117.712 383.364 117.928 382.512 118.196C382.44 118.219 382.368 118.229 382.296 118.229ZM401.036 120.734C400.903 120.734 400.768 120.697 400.647 120.62C399.892 120.135 399.097 119.694 398.291 119.308C397.931 119.137 397.781 118.707 397.951 118.349C398.124 117.99 398.553 117.838 398.91 118.009C399.771 118.42 400.618 118.891 401.424 119.407C401.761 119.622 401.856 120.067 401.643 120.402C401.505 120.617 401.272 120.734 401.036 120.734ZM374.966 122.153C374.756 122.153 374.545 122.062 374.404 121.885C374.154 121.576 374.203 121.122 374.514 120.873C375.257 120.272 376.046 119.713 376.858 119.211C377.198 119.002 377.641 119.106 377.849 119.444C378.059 119.782 377.955 120.226 377.616 120.435C376.855 120.906 376.115 121.431 375.415 121.994C375.283 122.101 375.124 122.153 374.966 122.153ZM369.566 128.482C369.445 128.482 369.321 128.451 369.209 128.386C368.863 128.189 368.745 127.749 368.941 127.404C369.416 126.575 369.949 125.766 370.525 125.001C370.761 124.683 371.213 124.619 371.533 124.858C371.85 125.096 371.913 125.548 371.674 125.866C371.136 126.583 370.637 127.342 370.191 128.119C370.058 128.351 369.816 128.482 369.566 128.482ZM410.139 132.314C409.84 132.314 409.56 132.126 409.457 131.827C409.166 130.98 408.82 130.142 408.423 129.336C408.25 128.979 408.397 128.548 408.754 128.373C409.111 128.198 409.543 128.346 409.719 128.702C410.139 129.563 410.511 130.457 410.819 131.36C410.949 131.736 410.747 132.146 410.373 132.275C410.295 132.301 410.214 132.314 410.139 132.314ZM366.862 136.345C366.827 136.345 366.792 136.343 366.758 136.338C366.363 136.281 366.09 135.916 366.147 135.522C366.283 134.576 366.481 133.628 366.735 132.707C366.841 132.324 367.236 132.098 367.622 132.203C368.005 132.309 368.23 132.705 368.123 133.089C367.887 133.953 367.7 134.841 367.573 135.728C367.521 136.087 367.213 136.345 366.862 136.345ZM411.32 140.547C411.309 140.547 411.3 140.546 411.288 140.546C410.891 140.529 410.583 140.193 410.6 139.796C410.615 139.482 410.62 139.163 410.62 138.846C410.62 138.263 410.597 137.674 410.551 137.098C410.52 136.701 410.816 136.354 411.211 136.323C411.614 136.291 411.957 136.587 411.985 136.983C412.034 137.597 412.06 138.224 412.06 138.846C412.06 139.184 412.055 139.524 412.04 139.858C412.023 140.244 411.703 140.547 411.32 140.547ZM367.21 144.654C366.882 144.654 366.588 144.43 366.51 144.097C366.294 143.167 366.133 142.212 366.035 141.26C365.995 140.865 366.28 140.511 366.677 140.47C367.069 140.431 367.426 140.716 367.466 141.111C367.559 142.004 367.708 142.899 367.913 143.77C368.002 144.158 367.76 144.545 367.374 144.635C367.32 144.648 367.265 144.654 367.21 144.654ZM409.422 148.644C409.324 148.644 409.224 148.624 409.128 148.581C408.766 148.42 408.601 147.994 408.763 147.631C409.128 146.812 409.445 145.961 409.704 145.102C409.82 144.721 410.22 144.506 410.6 144.621C410.98 144.736 411.196 145.137 411.081 145.518C410.805 146.434 410.468 147.342 410.079 148.216C409.961 148.484 409.696 148.644 409.422 148.644ZM370.577 152.256C370.349 152.256 370.125 152.147 369.986 151.945C369.442 151.158 368.944 150.33 368.5 149.482C368.319 149.13 368.454 148.695 368.808 148.511C369.16 148.328 369.595 148.465 369.779 148.817C370.194 149.612 370.66 150.389 371.17 151.126C371.395 151.454 371.314 151.902 370.986 152.128C370.862 152.214 370.718 152.256 370.577 152.256ZM404.685 155.481C404.5 155.481 404.313 155.41 404.172 155.267C403.893 154.984 403.898 154.528 404.181 154.249C404.82 153.618 405.425 152.942 405.978 152.239C406.225 151.926 406.678 151.873 406.992 152.12C407.303 152.366 407.354 152.819 407.11 153.131C406.519 153.881 405.871 154.602 405.192 155.274C405.05 155.412 404.869 155.481 404.685 155.481ZM376.489 158.106C376.348 158.106 376.21 158.066 376.086 157.983C375.294 157.448 374.525 156.857 373.805 156.228C373.509 155.966 373.477 155.511 373.739 155.212C374.001 154.912 374.453 154.882 374.756 155.143C375.43 155.734 376.15 156.288 376.893 156.789C377.221 157.012 377.307 157.459 377.086 157.789C376.947 157.995 376.72 158.106 376.489 158.106ZM397.79 160.123C397.511 160.123 397.243 159.959 397.128 159.686C396.969 159.321 397.139 158.897 397.505 158.741C398.328 158.387 399.138 157.979 399.91 157.526C400.252 157.325 400.693 157.44 400.895 157.783C401.096 158.126 400.981 158.567 400.638 158.768C399.815 159.251 398.951 159.687 398.072 160.064C397.98 160.104 397.882 160.123 397.79 160.123ZM384.13 161.393C384.078 161.393 384.026 161.388 383.975 161.376C383.041 161.17 382.111 160.901 381.21 160.579C380.835 160.445 380.64 160.032 380.775 159.658C380.907 159.284 381.319 159.088 381.694 159.223C382.537 159.525 383.41 159.776 384.286 159.97C384.674 160.056 384.919 160.441 384.833 160.829C384.758 161.165 384.461 161.393 384.13 161.393ZM389.668 161.912C389.28 161.912 388.96 161.603 388.948 161.213C388.937 160.816 389.248 160.484 389.645 160.472C390.544 160.445 391.448 160.362 392.332 160.225C392.727 160.162 393.093 160.433 393.153 160.826C393.216 161.219 392.946 161.587 392.554 161.648C391.609 161.794 390.648 161.883 389.688 161.911C389.683 161.912 389.674 161.912 389.668 161.912V161.912Z" fill="#001E57"/>
<path fill-rule="evenodd" clip-rule="evenodd" d="M388.065 150.316L380.067 141.679C379.797 141.387 379.814 140.931 380.105 140.661C380.399 140.391 380.854 140.409 381.124 140.7L387.941 148.062L412.427 114.952C412.663 114.633 413.115 114.565 413.435 114.802C413.755 115.038 413.821 115.489 413.585 115.809L388.065 150.316" fill="#72ACFF"/>
<path fill-rule="evenodd" clip-rule="evenodd" d="M429.907 56.1252C429.901 56.1252 429.898 56.1252 429.895 56.1252C429.895 56.1252 429.803 56.1416 429.599 56.3709C428.87 57.1971 428.499 58.4784 428.631 59.7148C428.646 59.8344 428.663 59.9513 428.683 60.0656C429.452 58.5127 430.189 56.6399 429.959 56.1281C429.947 56.1266 429.93 56.1252 429.907 56.1252ZM438.705 59.0959C438.619 59.0959 438.53 59.1092 438.449 59.1429C437.853 59.3862 437.45 60.0884 437.427 60.8354C437.931 60.4749 438.397 60.0702 438.812 59.6307C439.08 59.3491 439.106 59.2431 439.106 59.2108C439.074 59.1633 438.898 59.0959 438.705 59.0959ZM457.319 62.2881C457.258 62.5174 457.299 62.7564 457.376 62.8465C457.397 62.8696 457.428 62.8863 457.454 62.8955C457.471 62.7714 457.42 62.5493 457.319 62.2881ZM472.139 72.0738L471.969 67.7379C471.88 65.4843 471.791 63.1538 471.137 60.9947C471.045 60.6923 470.93 60.5224 470.866 60.4619C470.84 60.4803 470.786 60.5221 470.699 60.6122C470.431 60.8876 470.201 61.3988 469.979 61.8933C469.481 63.0107 468.79 64.54 467.016 64.3732C464.959 64.1794 464.412 62.4215 463.974 61.0088C463.545 59.6345 463.234 58.7811 462.27 58.572C461.863 58.4842 461.348 58.5787 460.74 58.854C459.888 59.2408 458.9 59.9352 458.183 60.7839C458.67 61.6254 459.208 62.905 458.635 63.7474C458.399 64.0982 458.016 64.3145 457.587 64.341C457.109 64.3704 456.613 64.1613 456.294 63.7958C455.769 63.1959 455.787 62.3472 455.962 61.8025C456.08 61.4382 456.239 61.0906 456.432 60.7611C456.173 60.4803 455.882 60.3159 455.622 60.3058C455.395 60.298 455.176 60.406 454.96 60.6292C454.848 60.7462 454.718 60.8907 454.577 61.0497C453.782 61.937 452.696 63.1527 451.446 63.1766C450.894 63.1913 450.392 62.9632 449.975 62.5295C449.577 62.1188 449.382 61.6113 449.24 61.1687C449.122 60.8023 449.027 60.4302 448.955 60.0547C448.61 60.8461 448.218 61.6185 447.749 62.3451C445.436 65.925 441.724 66.9459 438.51 64.8867C437.686 64.3585 437.038 63.7105 436.603 62.9937C434.958 63.8073 433.167 64.2359 431.595 64.1204C430.578 64.0466 429.717 63.7563 429.034 63.2578C428.91 63.1654 428.79 63.0657 428.674 62.96C428.044 63.8111 427.076 64.9512 425.935 65.7032C424.009 66.9724 422.586 66.4929 421.731 65.8677C421.057 65.3749 420.72 64.5221 420.726 63.3324C420.731 62.3682 420.881 61.4273 421.031 60.5178C421.106 60.0466 421.183 59.5596 421.238 59.0864C421.469 57.0937 421.149 55.6975 420.259 54.8188C419.784 54.3511 419.257 54.1656 418.646 54.2544C417.275 54.4513 415.654 56.0169 414.879 57.4166C413.995 59.0098 413.955 60.8458 413.911 62.7895C413.888 63.7892 413.865 64.8225 413.718 65.8245C413.661 66.2176 413.295 66.4918 412.901 66.4319C412.506 66.374 412.235 66.0082 412.293 65.6145C412.428 64.701 412.448 63.7569 412.471 62.7576C412.518 60.7246 412.564 58.6227 413.621 56.7185C414.392 55.3225 416.316 53.1346 418.439 52.829C419.499 52.6767 420.478 53.0105 421.27 53.7944C422.497 55.0049 422.952 56.7896 422.67 59.2514C422.612 59.7572 422.528 60.2606 422.451 60.7476C422.307 61.6424 422.168 62.4877 422.166 63.3399C422.163 63.8223 422.232 64.451 422.58 64.7053C423.038 65.0402 423.801 65.3841 425.141 64.5011C426.189 63.8108 427.11 62.6614 427.566 62.0376C427.623 61.9578 427.686 61.8627 427.756 61.7544C427.465 61.1954 427.275 60.559 427.2 59.8692C427.024 58.2432 427.531 56.537 428.522 55.4173C428.677 55.2399 429.155 54.6984 429.87 54.6855C429.881 54.6852 429.893 54.6852 429.907 54.6852C430.71 54.6852 431.076 55.1538 431.223 55.4363C431.943 56.823 430.411 59.9576 429.44 61.6865C429.576 61.8397 429.723 61.9768 429.887 62.0957C430.339 62.4275 430.967 62.6311 431.698 62.6844C433.061 62.784 434.63 62.3955 436.064 61.6629C436.064 61.6536 436.062 61.6439 436.059 61.6344C435.73 60.0472 436.54 58.3673 437.902 57.81C438.527 57.5548 439.313 57.6242 439.857 57.9819C440.284 58.2607 440.534 58.6973 440.546 59.1797C440.56 59.8776 440.07 60.3968 439.86 60.6186C439.273 61.2404 438.59 61.8002 437.853 62.2809C438.268 62.9453 438.881 63.4151 439.287 63.6743C442.36 65.6442 445.116 63.7684 446.539 61.5638C447.472 60.1198 448.091 58.3998 448.687 56.7363C448.794 56.4423 448.898 56.15 449.004 55.8602L450.384 56.2554C450.076 57.74 450.153 59.2883 450.611 60.7332C450.703 61.0169 450.819 61.3331 451.009 61.5295C451.19 61.7164 451.326 61.736 451.421 61.7369C452.04 61.7248 452.956 60.7015 453.503 60.0901C453.658 59.915 453.802 59.7557 453.926 59.627C454.566 58.9678 455.231 58.8514 455.68 58.8667C456.253 58.8888 456.818 59.1446 457.304 59.5962C458.166 58.6599 459.243 57.9523 460.144 57.5424C461.054 57.1306 461.849 57.0076 462.575 57.1649C464.409 57.5623 464.931 59.2362 465.348 60.5808C465.798 62.0208 466.1 62.8405 467.151 62.9396C467.837 63.0035 468.136 62.4909 468.666 61.3055C468.94 60.6966 469.219 60.0668 469.665 59.6086C469.893 59.3733 470.259 59.0553 470.768 59.0138C471.549 58.9505 472.2 59.5357 472.517 60.578C472.733 61.2954 472.891 62.0214 473.012 62.7506C473.084 62.2265 473.147 61.6885 473.205 61.1352C473.242 60.7398 473.591 60.4481 473.991 60.4907C474.389 60.5304 474.677 60.8832 474.636 61.279C474.391 63.7307 473.98 65.9016 473.378 67.9159L472.139 72.0738V72.0738Z" fill="#001E57"/>
<path fill-rule="evenodd" clip-rule="evenodd" d="M461.31 98.9494C461.293 98.9494 461.273 98.9497 461.256 98.95C460.999 98.9575 460.953 99.0453 460.933 99.0874C460.795 99.3472 460.893 99.9073 461.14 100.286C461.699 101.141 462.56 101.719 463.502 102.048C463.421 101.13 463.125 100.151 462.575 99.5364C462.223 99.1418 461.809 98.9494 461.31 98.9494ZM420.172 90.1458C419.841 90.1458 419.493 90.2487 419.127 90.4546C415.599 92.4496 415.608 97.2571 416.691 100.768C416.935 101.56 417.229 102.304 417.572 102.99C418.131 102.437 418.666 101.854 419.17 101.237C420.619 99.4658 422.367 96.7045 422.465 93.6113C422.505 92.3015 421.872 90.9119 420.99 90.3794C420.731 90.2236 420.458 90.1458 420.172 90.1458ZM436.266 100.016C436.18 100.022 435.889 100.241 435.601 100.726C435.12 101.537 434.99 102.572 435.29 103.241C435.35 103.379 435.428 103.499 435.523 103.603C436.154 102.402 436.488 101.056 436.344 100.18C436.329 100.095 436.295 100.032 436.266 100.016ZM411.337 109.401C411.1 109.401 410.867 109.283 410.729 109.066C410.516 108.73 410.617 108.286 410.951 108.073C412.636 107.007 414.62 105.667 416.48 104.014C416.02 103.152 415.628 102.206 415.314 101.192C414.076 97.1702 414.145 91.6169 418.419 89.2009C419.553 88.5598 420.731 88.5405 421.733 89.1468C423.07 89.9535 423.96 91.8076 423.902 93.6563C423.793 97.1529 421.875 100.205 420.285 102.149C419.666 102.906 419.003 103.614 418.318 104.277C418.419 104.431 418.525 104.579 418.629 104.718C419.712 106.14 421.221 107.017 422.672 107.063C425.005 107.14 426.385 105.12 426.871 104.249C427.491 103.137 427.871 101.86 428.188 100.645C428.188 100.644 428.188 100.643 428.188 100.642C428.188 100.642 428.188 100.642 428.188 100.642L429.581 101.006C429.581 101.006 429.581 101.006 429.581 101.007C429.17 102.588 429.76 104.916 431.301 105.862C432.101 106.354 432.891 106.325 433.714 105.772C434.077 105.529 434.414 105.204 434.722 104.827C434.405 104.563 434.152 104.228 433.973 103.827C433.481 102.723 433.637 101.217 434.362 99.9903C435.114 98.73 436.119 98.2631 436.992 98.7717C437.401 99.0102 437.683 99.4387 437.766 99.9476C437.951 101.067 437.617 102.645 436.9 104.084C438.037 104.05 439.103 103.166 440.289 101.3C440.641 100.75 440.969 100.165 441.289 99.5986C441.502 99.225 441.712 98.8515 441.931 98.4823L442.075 98.2352C442.711 97.1396 443.774 95.3062 445.56 95.6559C446.219 95.7852 446.792 96.2264 447.132 96.8669C447.679 97.8988 447.708 98.9814 447.737 100.029C447.754 100.677 447.772 101.289 447.91 101.854C448.028 102.335 448.281 103.004 448.808 103.461C449.258 103.847 449.724 103.978 450.24 103.86C451.395 103.596 452.572 102.183 453.091 100.987C453.258 100.601 453.393 100.203 453.511 99.7938C453.618 99.3175 453.736 98.8501 453.851 98.3959C453.923 98.1024 453.998 97.8112 454.067 97.5227C454.067 97.5178 454.07 97.5132 454.07 97.5086L455.47 97.8444C455.418 98.0676 455.366 98.2913 455.314 98.5154C455.19 99.0548 455.064 99.604 454.908 100.151C454.548 101.751 454.335 103.359 454.799 104.865C455.173 106.087 456.034 107.044 457.103 107.427C458.361 107.877 459.865 107.703 461.123 106.962C461.855 106.531 462.439 105.949 462.811 105.279C463.105 104.749 463.312 104.167 463.433 103.543C461.981 103.124 460.706 102.258 459.934 101.073C459.49 100.39 459.211 99.268 459.657 98.4195C459.954 97.8536 460.507 97.531 461.213 97.5106C462.163 97.4864 463.004 97.8524 463.649 98.5776C464.539 99.5738 464.925 101.067 464.962 102.358C465.443 102.399 465.913 102.382 466.345 102.309C467.289 102.151 468.45 101.521 468.605 100.27C468.617 100.174 468.623 100.073 468.623 99.9727H470.063C470.063 100.387 470.063 100.815 470.034 101.17C470.074 101.696 470.152 102.202 470.259 102.598C470.411 103.159 470.567 103.345 470.621 103.394C470.656 103.381 470.731 103.347 470.852 103.248C471.16 102.996 471.612 103.041 471.866 103.349C472.116 103.656 472.073 104.11 471.765 104.362C471.097 104.908 470.541 104.888 470.189 104.775C469.573 104.578 469.141 103.988 468.868 102.972C468.844 102.884 468.821 102.795 468.801 102.705C468.214 103.22 467.448 103.584 466.584 103.729C466.005 103.826 465.42 103.848 464.85 103.802C464.7 104.58 464.441 105.31 464.069 105.977C463.574 106.872 462.808 107.642 461.855 108.203C460.23 109.158 458.272 109.375 456.616 108.782C455.124 108.248 453.929 106.941 453.422 105.288C453.246 104.722 453.151 104.151 453.114 103.58C452.403 104.385 451.518 105.046 450.559 105.264C449.595 105.484 448.664 105.238 447.869 104.551C447.221 103.993 446.752 103.18 446.51 102.199C446.334 101.483 446.314 100.763 446.297 100.067C446.271 99.1456 446.248 98.2749 445.859 97.5408C445.727 97.29 445.511 97.1137 445.283 97.0691C444.506 96.917 443.791 98.1448 443.319 98.9575C443.267 99.0485 443.218 99.1355 443.169 99.2167C442.956 99.577 442.749 99.9419 442.544 100.306C442.216 100.889 441.873 101.491 441.505 102.073C440.425 103.772 438.685 105.97 436.073 105.449C436.073 105.449 436.07 105.448 436.067 105.448C435.621 106.05 435.1 106.577 434.518 106.968C433.233 107.83 431.822 107.873 430.546 107.089C429.535 106.468 428.836 105.465 428.432 104.362C428.337 104.561 428.236 104.757 428.127 104.95C426.831 107.278 424.838 108.575 422.626 108.502C420.746 108.442 418.825 107.353 417.483 105.588C417.402 105.483 417.324 105.373 417.244 105.261C415.369 106.9 413.399 108.226 411.723 109.289C411.604 109.365 411.469 109.401 411.337 109.401V109.401Z" fill="white"/>
<path fill-rule="evenodd" clip-rule="evenodd" d="M382.658 36.8022C382.26 36.8022 381.938 36.4799 381.938 36.0822V23.4102C381.938 23.0127 382.26 22.6902 382.658 22.6902C383.055 22.6902 383.378 23.0127 383.378 23.4102V36.0822C383.378 36.4799 383.055 36.8022 382.658 36.8022" fill="#2A0055"/>
<path fill-rule="evenodd" clip-rule="evenodd" d="M404.892 36.8022C404.494 36.8022 404.172 36.4799 404.172 36.0822V23.4102C404.172 23.0127 404.494 22.6902 404.892 22.6902C405.289 22.6902 405.612 23.0127 405.612 23.4102V36.0822C405.612 36.4799 405.289 36.8022 404.892 36.8022" fill="#2A0055"/>
<path fill-rule="evenodd" clip-rule="evenodd" d="M427.122 36.8022C426.725 36.8022 426.402 36.4799 426.402 36.0822V23.4102C426.402 23.0127 426.725 22.6902 427.122 22.6902C427.52 22.6902 427.842 23.0127 427.842 23.4102V36.0822C427.842 36.4799 427.52 36.8022 427.122 36.8022" fill="#2A0055"/>
<path fill-rule="evenodd" clip-rule="evenodd" d="M449.357 36.8022C448.959 36.8022 448.637 36.4799 448.637 36.0822V23.4102C448.637 23.0127 448.959 22.6902 449.357 22.6902C449.754 22.6902 450.077 23.0127 450.077 23.4102V36.0822C450.077 36.4799 449.754 36.8022 449.357 36.8022" fill="#2A0055"/>
<path fill-rule="evenodd" clip-rule="evenodd" d="M471.591 36.8022C471.194 36.8022 470.871 36.4799 470.871 36.0822V23.4102C470.871 23.0127 471.194 22.6902 471.591 22.6902C471.989 22.6902 472.311 23.0127 472.311 23.4102V36.0822C472.311 36.4799 471.989 36.8022 471.591 36.8022" fill="#2A0055"/>
<path fill-rule="evenodd" clip-rule="evenodd" d="M507.97 343.726C511.294 347.09 515.386 348.435 517.117 346.73C518.848 345.022 517.558 340.909 514.234 337.545C511.939 335.215 508.442 334.671 506.507 334.556C505.709 334.51 505.053 335.158 505.087 335.955C505.177 337.894 505.675 341.396 507.97 343.726" fill="#006BFF"/>
<path fill-rule="evenodd" clip-rule="evenodd" d="M521.375 354.471C521.001 354.471 520.684 354.18 520.658 353.8C520.635 353.449 518.331 318.094 527.268 292.663C527.397 292.286 527.809 292.09 528.184 292.223C528.561 292.352 528.757 292.764 528.624 293.139C519.788 318.293 522.072 353.351 522.095 353.702C522.121 354.1 521.822 354.442 521.427 354.471C521.41 354.471 521.393 354.471 521.375 354.471" fill="#001E57"/>
<path fill-rule="evenodd" clip-rule="evenodd" d="M518.033 354.471C518.03 354.471 518.027 354.471 518.024 354.471C517.627 354.468 517.307 354.14 517.313 353.742C517.512 337.476 512.97 327.707 509.534 321.772C509.335 321.429 509.453 320.988 509.799 320.789C510.142 320.591 510.582 320.706 510.781 321.052C514.3 327.131 518.954 337.139 518.753 353.76C518.747 354.154 518.427 354.471 518.033 354.471" fill="#001E57"/>
<path fill-rule="evenodd" clip-rule="evenodd" d="M527.85 303.135C527.199 305.923 525.512 307.91 524.08 307.576C522.649 307.242 522.015 304.713 522.666 301.925C523.115 299.999 524.748 298.613 525.71 297.942C526.105 297.669 526.649 297.796 526.882 298.219C527.45 299.244 528.299 301.208 527.85 303.135" fill="#006BFF"/>
<path fill-rule="evenodd" clip-rule="evenodd" d="M537.999 295.175C538.696 293.882 538.094 292.548 536.662 292.214C535.231 291.88 533.489 292.666 532.792 293.959L528.045 302.778C527.426 303.927 526.11 304.52 524.837 304.224C523.564 303.927 522.645 302.812 522.602 301.505L522.248 291.5C522.196 290.031 520.984 288.554 519.552 288.219C518.127 288.271 517.015 289.467 517.064 290.889C517.064 290.889 517.51 304.103 517.539 304.368L517.554 304.491C517.845 306.649 519.431 308.503 521.678 309.027L525.534 309.929C527.781 310.453 530.027 309.491 531.242 307.685L531.257 307.694L537.999 295.175" fill="#006BFF"/>
<path fill-rule="evenodd" clip-rule="evenodd" d="M506.069 313.048V313.048L509.136 307.072C509.856 305.669 508.983 303.976 507.423 303.748C505.864 303.521 504.543 304.895 504.833 306.444L506.069 313.048" fill="#72ACFF"/>
<path fill-rule="evenodd" clip-rule="evenodd" d="M503.434 315.015V315.015L496.83 316.251C495.28 316.539 493.907 315.219 494.134 313.659C494.362 312.1 496.055 311.225 497.458 311.945L503.434 315.015" fill="#72ACFF"/>
<path fill-rule="evenodd" clip-rule="evenodd" d="M505.315 317.538V317.538L502.248 323.514C501.528 324.917 502.403 326.61 503.961 326.837C505.522 327.065 506.841 325.688 506.553 324.142L505.315 317.538" fill="#72ACFF"/>
<path fill-rule="evenodd" clip-rule="evenodd" d="M507.953 315.571V315.571L514.554 314.335C516.104 314.044 517.48 315.366 517.253 316.924C517.025 318.485 515.332 319.358 513.929 318.638L507.953 315.571" fill="#72ACFF"/>
<path fill-rule="evenodd" clip-rule="evenodd" d="M504.372 313.44V313.44L502.316 307.043C501.832 305.543 500.018 304.964 498.753 305.906C497.489 306.847 497.527 308.754 498.828 309.644L504.372 313.44" fill="#72ACFF"/>
<path fill-rule="evenodd" clip-rule="evenodd" d="M503.901 316.691V316.691L500.105 322.235C499.215 323.537 497.311 323.574 496.367 322.31C495.425 321.049 496.007 319.231 497.507 318.75L503.901 316.691" fill="#72ACFF"/>
<path fill-rule="evenodd" clip-rule="evenodd" d="M507.016 317.146V317.146L509.072 323.543C509.556 325.043 511.37 325.622 512.635 324.68C513.899 323.739 513.859 321.832 512.56 320.942L507.016 317.146" fill="#72ACFF"/>
<path fill-rule="evenodd" clip-rule="evenodd" d="M507.488 313.892V313.892L511.284 308.351C512.174 307.049 514.081 307.011 515.022 308.273C515.964 309.537 515.385 311.352 513.885 311.835L507.488 313.892" fill="#72ACFF"/>
<path fill-rule="evenodd" clip-rule="evenodd" d="M30.4488 324.905C35.6265 327.808 38.6147 332.318 37.1235 334.979C35.6319 337.64 30.2256 337.442 25.0479 334.541C21.4658 332.534 19.6456 328.482 18.8637 326.175C18.5423 325.228 19.1094 324.217 20.0863 323.995C22.4614 323.459 26.8666 322.898 30.4488 324.905" fill="#CFE4FF"/>
<path fill-rule="evenodd" clip-rule="evenodd" d="M51.3751 326.521C48.4516 329.484 44.8473 330.668 43.3246 329.167C41.802 327.664 42.9375 324.044 45.861 321.08C47.8837 319.03 50.9609 318.552 52.6653 318.451C53.3666 318.408 53.9458 318.981 53.9135 319.681C53.8357 321.389 53.3977 324.47 51.3751 326.521" fill="#CFE4FF"/>
<path fill-rule="evenodd" clip-rule="evenodd" d="M39.2199 354.471C38.8222 354.471 38.4999 354.148 38.4999 353.751C38.4999 342.159 36.6944 329.98 33.1336 317.549C33.0239 317.166 33.245 316.769 33.6272 316.66C34.0097 316.55 34.4083 316.769 34.5177 317.152C38.1157 329.712 39.9399 342.027 39.9399 353.751C39.9399 354.148 39.6176 354.471 39.2199 354.471" fill="#CFE4FF"/>
<path fill-rule="evenodd" clip-rule="evenodd" d="M32.4777 313.624C32.1727 313.624 31.8896 313.431 31.7919 313.123C27.442 299.492 22.508 290.581 22.4584 290.492C22.2649 290.146 22.3893 289.708 22.7364 289.513C23.0837 289.32 23.5223 289.443 23.7161 289.792C23.766 289.881 28.7705 298.919 33.1637 312.685C33.2846 313.065 33.0756 313.468 32.6968 313.589C32.624 313.612 32.55 313.624 32.4777 313.624" fill="#CFE4FF"/>
<path fill-rule="evenodd" clip-rule="evenodd" d="M35.4663 296.776C35.4663 302.323 30.9695 306.819 25.4226 306.819C19.8755 306.819 15.3789 302.323 15.3789 296.776C15.3789 291.229 19.8755 286.731 25.4226 286.731C30.9695 286.731 35.4663 291.229 35.4663 296.776" fill="#001E57"/>
<path fill-rule="evenodd" clip-rule="evenodd" d="M41.3575 354.471C40.9664 354.471 40.6456 354.16 40.6381 353.765C40.6317 353.454 40.1099 322.333 47.9752 299.947C48.1071 299.572 48.5183 299.374 48.893 299.506C49.2683 299.639 49.4656 300.05 49.3337 300.425C41.5556 322.563 42.0715 353.428 42.0778 353.737C42.0856 354.137 41.7696 354.465 41.3719 354.471C41.3673 354.471 41.3624 354.471 41.3575 354.471" fill="#006BFF"/>
<path fill-rule="evenodd" clip-rule="evenodd" d="M57.2388 302.317L50.137 295.215L40.4354 297.816L37.8359 307.516L44.938 314.618L54.6393 312.02L57.2388 302.317" fill="#001E57"/>
<path fill-rule="evenodd" clip-rule="evenodd" d="M25.4198 298.268C19.9449 298.268 14.4023 296.94 14.4023 294.403C14.4023 294.005 14.7246 293.683 15.1223 293.683C15.5201 293.683 15.8423 294.005 15.8423 294.403C15.8423 295.227 19.2229 296.828 25.4198 296.828C31.6167 296.828 34.9969 295.227 34.9969 294.403C34.9969 294.005 35.3195 293.683 35.7169 293.683C36.1147 293.683 36.4369 294.005 36.4369 294.403C36.4369 296.94 30.8947 298.268 25.4198 298.268" fill="white"/>
<path fill-rule="evenodd" clip-rule="evenodd" d="M25.4198 298.268C19.9449 298.268 14.4023 296.94 14.4023 294.403C14.4023 294.005 14.7246 293.683 15.1223 293.683C15.5201 293.683 15.8423 294.005 15.8423 294.403C15.8423 295.227 19.2229 296.828 25.4198 296.828C31.6167 296.828 34.9969 295.227 34.9969 294.403C34.9969 294.005 35.3195 293.683 35.7169 293.683C36.1147 293.683 36.4369 294.005 36.4369 294.403C36.4369 296.94 30.8947 298.268 25.4198 298.268" fill="white"/>
<path fill-rule="evenodd" clip-rule="evenodd" d="M33.7313 300.943C33.1599 300.943 32.4664 300.863 31.624 300.67C29.5749 300.197 27.1013 299.161 24.6587 297.752C22.2159 296.341 20.0804 294.72 18.645 293.182C16.5657 290.956 16.6279 289.625 17.0463 288.899C17.245 288.554 17.6851 288.436 18.0298 288.634C18.3743 288.833 18.4924 289.274 18.2937 289.616C18.1606 289.85 18.283 290.685 19.6977 292.2C21.0383 293.637 23.0554 295.163 25.3782 296.502C27.7006 297.845 30.0337 298.824 31.9477 299.267C33.9678 299.731 34.7529 299.42 34.8859 299.189C35.0846 298.844 35.5247 298.726 35.8691 298.925C36.2136 299.123 36.332 299.564 36.1332 299.907C35.8334 300.428 35.173 300.943 33.7313 300.943" fill="white"/>
<path fill-rule="evenodd" clip-rule="evenodd" d="M33.7313 300.943C33.1599 300.943 32.4664 300.863 31.624 300.67C29.5749 300.197 27.1013 299.161 24.6587 297.752C22.2159 296.341 20.0804 294.72 18.645 293.182C16.5657 290.956 16.6279 289.625 17.0463 288.899C17.245 288.554 17.6851 288.436 18.0298 288.634C18.3743 288.833 18.4924 289.274 18.2937 289.616C18.1606 289.85 18.283 290.685 19.6977 292.2C21.0383 293.637 23.0554 295.163 25.3782 296.502C27.7006 297.845 30.0337 298.824 31.9477 299.267C33.9678 299.731 34.7529 299.42 34.8859 299.189C35.0846 298.844 35.5247 298.726 35.8691 298.925C36.2136 299.123 36.332 299.564 36.1332 299.907C35.8334 300.428 35.173 300.943 33.7313 300.943" fill="white"/>
<path fill-rule="evenodd" clip-rule="evenodd" d="M37.8371 308.236C37.5191 308.236 37.228 308.025 37.1418 307.703C37.039 307.32 37.2671 306.922 37.651 306.821L57.0542 301.623C57.4395 301.519 57.8332 301.747 57.936 302.13C58.0388 302.516 57.8107 302.91 57.4268 303.014L38.0237 308.213C37.9612 308.227 37.8984 308.236 37.8371 308.236" fill="white"/>
<path fill-rule="evenodd" clip-rule="evenodd" d="M47.5369 305.638C47.3525 305.638 47.1682 305.566 47.0277 305.425L39.9259 298.323C39.6445 298.043 39.6445 297.588 39.9259 297.306C40.2067 297.024 40.6629 297.024 40.944 297.306L48.046 304.408C48.3271 304.687 48.3271 305.145 48.046 305.425C47.9055 305.566 47.7212 305.638 47.5369 305.638" fill="white"/>
<path fill-rule="evenodd" clip-rule="evenodd" d="M369.463 321.083H379.204V314.799H369.463V321.083ZM379.924 322.523H368.743C368.343 322.523 368.023 322.201 368.023 321.803V314.079C368.023 313.682 368.343 313.359 368.743 313.359H379.924C380.321 313.359 380.644 313.682 380.644 314.079V321.803C380.644 322.201 380.321 322.523 379.924 322.523V322.523Z" fill="#240448"/>
<path fill-rule="evenodd" clip-rule="evenodd" d="M397.727 353.751L350.809 353.578L350.935 319.223L397.853 319.395L397.727 353.751" fill="#72ACFF"/>
<path fill-rule="evenodd" clip-rule="evenodd" d="M369.344 336.912L374.082 342.148L379.318 337.413L374.583 332.177L369.344 336.912ZM374.03 343.884C374.019 343.884 374.004 343.884 373.993 343.884C373.803 343.876 373.624 343.789 373.495 343.648L367.795 337.344C367.665 337.2 367.599 337.015 367.611 336.822C367.619 336.632 367.703 336.454 367.847 336.327L374.151 330.625C374.445 330.357 374.9 330.38 375.168 330.677L380.867 336.981C381.135 337.275 381.112 337.733 380.818 337.997L374.514 343.7C374.379 343.818 374.209 343.884 374.03 343.884V343.884Z" fill="white"/>
<path fill-rule="evenodd" clip-rule="evenodd" d="M546.996 354.471H509.392C508.994 354.471 508.672 354.148 508.672 353.751C508.672 353.354 508.994 353.031 509.392 353.031H546.996C547.393 353.031 547.716 353.354 547.716 353.751C547.716 354.148 547.393 354.471 546.996 354.471" fill="#240448"/>
<path fill-rule="evenodd" clip-rule="evenodd" d="M499.381 354.471H182.677C182.279 354.471 181.957 354.148 181.957 353.751C181.957 353.354 182.279 353.031 182.677 353.031H499.381C499.779 353.031 500.101 353.354 500.101 353.751C500.101 354.148 499.779 354.471 499.381 354.471" fill="#240448"/>
<path fill-rule="evenodd" clip-rule="evenodd" d="M169.237 354.471H63.7122C63.3145 354.471 62.9922 354.148 62.9922 353.751C62.9922 353.354 63.3145 353.031 63.7122 353.031H169.237C169.635 353.031 169.957 353.354 169.957 353.751C169.957 354.148 169.635 354.471 169.237 354.471" fill="#240448"/>
<path fill-rule="evenodd" clip-rule="evenodd" d="M52.5025 354.471H0.950469C0.552741 354.471 0.230469 354.148 0.230469 353.751C0.230469 353.354 0.552741 353.031 0.950469 353.031H52.5025C52.9002 353.031 53.2225 353.354 53.2225 353.751C53.2225 354.148 52.9002 354.471 52.5025 354.471" fill="#240448"/>
<path fill-rule="evenodd" clip-rule="evenodd" d="M489.69 147.372L493.109 130.083L477.727 138.817L480.486 119.495C480.543 119.102 480.906 118.827 481.301 118.884C481.695 118.941 481.969 119.305 481.911 119.699L479.567 136.116L495.13 127.279L491.72 144.519L505.625 136.405C505.968 136.205 506.411 136.32 506.61 136.664C506.812 137.007 506.696 137.448 506.351 137.649L489.69 147.372" fill="#72ACFF"/>
</svg>
