<svg width="522" height="336" viewBox="0 0 522 336" fill="none" xmlns="http://www.w3.org/2000/svg">
<path fill-rule="evenodd" clip-rule="evenodd" d="M80.7298 240.412C73.6987 228.328 71.4336 212.715 91.726 199.517C90.9121 200.046 80.7574 188.974 79.7558 187.873C75.4217 183.107 72.4628 177.242 68.6054 172.043C62.2431 163.469 65.5712 141.642 82.2033 145.011C82.2033 145.011 57.684 138.757 73.4262 116.882C70.8597 107.599 58.0241 58.8298 80.6112 66.5262C86.8054 68.6371 90.9616 74.698 94.3147 80.5407C95.33 82.3096 103.426 103.113 101.986 103.192C101.986 103.192 127.127 101.808 122.005 129.913C122.005 129.913 169.49 151.615 139.513 188.203C139.513 188.203 179.367 229.972 151.555 250.238C142.595 256.765 133.893 260.122 126.213 261.674C108.23 265.311 90.4333 257.092 80.7298 240.412" fill="#CFE4FF"/>
<path fill-rule="evenodd" clip-rule="evenodd" d="M120.973 281.382C119.026 284.225 113.928 283.84 110.964 284.27C106.03 284.989 101.266 286.346 96.2492 286.605C85.2242 287.168 67.9773 283.851 65.3752 270.91C63.6603 262.383 68.878 254.241 74.0039 247.935C74.0039 247.935 55.0609 253.134 47.7505 248.446C31.9768 238.331 45.898 219.14 45.898 219.14C45.898 219.14 40.7776 218.876 38.2522 218.402C31.9115 217.208 26.111 211.614 24.6369 205.329C21.96 193.917 32.0825 187.322 40.8214 182.79C40.8214 182.79 35.2422 172.407 38.3194 163.755C41.4013 155.09 52.5771 148.424 68.7963 163.648C69.3367 164.156 69.8827 164.687 70.4337 165.242C71.0816 165.829 71.5844 166.332 72.0874 167.086C71.3552 157.932 83.465 152.338 91.1269 154.019C94.6515 154.793 97.8613 156.983 99.8705 159.98C102.302 163.607 102.509 168.109 102.502 172.339C102.501 172.588 102.5 172.837 102.498 173.085C102.498 173.085 137.666 163.855 142.958 202.459C148.249 241.058 120.984 281.363 120.973 281.382" fill="#CFE4FF"/>
<path fill-rule="evenodd" clip-rule="evenodd" d="M136.855 185.507C136.62 185.507 136.389 185.393 136.25 185.182C131.535 178.053 124.461 173.966 115.227 173.036C108.307 172.339 102.739 173.772 102.684 173.786C102.465 173.843 102.233 173.796 102.055 173.658C101.877 173.519 101.774 173.306 101.775 173.081C101.777 172.833 101.778 172.585 101.779 172.337C101.786 168.193 101.598 163.855 99.2702 160.384C97.354 157.525 94.3297 155.464 90.9735 154.727C88.7806 154.246 86.1174 154.388 83.4747 155.128C83.0894 155.235 82.6894 155.011 82.5817 154.626C82.4739 154.24 82.6987 153.84 83.0842 153.733C85.9514 152.93 88.8633 152.781 91.2836 153.312C95.0019 154.128 98.3513 156.411 100.474 159.577C102.997 163.34 103.23 167.858 103.228 172.178C105.129 171.786 109.785 171.031 115.372 171.594C122.033 172.265 131.271 175.028 137.458 184.383C137.679 184.717 137.588 185.166 137.254 185.387C137.131 185.468 136.992 185.507 136.855 185.507" fill="white"/>
<path fill-rule="evenodd" clip-rule="evenodd" d="M132.142 309.869C132.019 311.111 131.763 312.328 131.392 313.522C131.127 314.381 130.8 315.229 130.417 316.059C127.286 322.915 120.537 328.821 113.799 333.392H40.4861L35.9378 308.876C34.1958 299.482 39.1984 290.088 48.0194 286.418C48.0835 286.391 48.1449 286.367 48.2086 286.341C48.2086 286.341 36.0608 266.955 57.0397 260.02L56.1991 249.482C55.1206 235.949 67.3203 224.955 80.5986 227.798C80.7901 227.841 80.9843 227.885 81.1783 227.93C89.1076 229.856 95.0291 235.954 97.017 243.424C97.7295 246.091 97.9408 248.929 97.5601 251.822L95.5943 266.786C95.5943 266.786 106.958 252.565 119.129 257.274C120.92 257.967 122.728 259.074 124.522 260.692C134.972 270.138 123.753 282.847 117.433 288.655C115.367 290.557 113.824 291.719 113.73 291.79C113.834 291.769 115.581 291.403 117.969 291.429C123.131 291.474 131.279 293.342 132.223 304.418C132.36 306.03 132.343 307.843 132.142 309.869" fill="#CFE4FF"/>
<path fill-rule="evenodd" clip-rule="evenodd" d="M41.2257 332.507H113.529C121.637 326.968 127.048 321.311 129.614 315.69C129.984 314.889 130.298 314.072 130.549 313.261C130.909 312.101 131.149 310.934 131.263 309.782C131.453 307.875 131.479 306.093 131.343 304.491C130.493 294.52 123.598 292.365 117.964 292.315C115.914 292.296 114.353 292.57 113.924 292.655C113.519 292.736 113.104 292.528 112.935 292.151C112.765 291.777 112.868 291.335 113.196 291.084C113.597 290.781 115.004 289.69 116.836 288.004C120.986 284.191 127.941 276.729 127.912 269.572C127.9 266.491 126.56 263.727 123.931 261.35C122.299 259.877 120.577 258.784 118.812 258.101C107.381 253.675 96.3992 267.203 96.2896 267.34C96.0411 267.651 95.6166 267.756 95.2503 267.601C94.8846 267.445 94.6672 267.066 94.7191 266.671L96.6846 251.706C97.0422 248.992 96.8669 246.283 96.1642 243.653C94.2032 236.283 88.3821 230.592 80.9724 228.792C80.7869 228.747 80.5987 228.705 80.4132 228.665C74.4506 227.387 68.3734 228.984 63.7442 233.04C59.0135 237.187 56.5866 243.155 57.0855 249.414L57.9258 259.949C57.9582 260.354 57.7084 260.731 57.321 260.86C51.5303 262.776 47.8415 265.835 46.3564 269.956C43.6981 277.335 48.9095 285.785 48.9624 285.869C49.1002 286.088 49.1347 286.36 49.0567 286.607C48.9788 286.855 48.7961 287.055 48.5571 287.155L48.368 287.234C40.0067 290.713 35.1487 299.748 36.812 308.715L41.2257 332.507ZM113.802 334.28H40.4892C40.062 334.28 39.6958 333.975 39.618 333.556L35.07 309.039C34.1891 304.288 34.9598 299.335 37.2399 295.082C39.4006 291.055 42.8294 287.827 46.9511 285.922C45.6014 283.422 42.2444 276.141 44.6892 269.356C46.3092 264.86 50.1482 261.514 56.105 259.403L55.3192 249.553C54.7753 242.731 57.4204 236.228 62.5761 231.709C67.6306 227.277 74.268 225.538 80.7871 226.932C80.9876 226.976 81.1879 227.021 81.3882 227.071C89.4314 229.021 95.7486 235.2 97.8761 243.195C98.6393 246.051 98.8292 248.992 98.4414 251.938L96.8437 264.101C98.1315 262.8 100.006 261.092 102.302 259.532C108.262 255.48 114.192 254.412 119.451 256.449C121.419 257.208 123.326 258.415 125.119 260.036C128.134 262.76 129.669 265.967 129.684 269.564C129.716 277.4 122.4 285.298 118.036 289.306C117.53 289.772 117.056 290.194 116.623 290.568C117.048 290.547 117.501 290.539 117.981 290.541C123.195 290.589 132.095 292.444 133.108 304.341C133.254 306.051 133.227 307.941 133.026 309.956C132.9 311.226 132.636 312.515 132.241 313.785C131.968 314.67 131.625 315.561 131.224 316.431C128.5 322.399 122.805 328.354 114.3 334.128C114.153 334.225 113.98 334.28 113.802 334.28V334.28Z" fill="white"/>
<path fill-rule="evenodd" clip-rule="evenodd" d="M108.629 166.76C108.329 166.76 108.049 166.574 107.945 166.275L71.8144 63.1645C71.6821 62.7869 71.881 62.3735 72.2586 62.2412C72.6357 62.1089 73.0497 62.3073 73.182 62.6854L109.312 165.796C109.445 166.173 109.246 166.587 108.868 166.719C108.789 166.747 108.708 166.76 108.629 166.76" fill="white"/>
<path fill-rule="evenodd" clip-rule="evenodd" d="M98.7827 138.664C98.612 138.664 98.441 138.605 98.3032 138.483C98.0033 138.218 97.9754 137.76 98.2405 137.46L123.428 108.988C123.694 108.689 124.151 108.661 124.451 108.926C124.75 109.191 124.778 109.649 124.513 109.948L99.3256 138.42C99.1825 138.582 98.9833 138.664 98.7827 138.664" fill="white"/>
<path fill-rule="evenodd" clip-rule="evenodd" d="M95.7444 129.991C95.7344 129.991 95.7244 129.991 95.7141 129.99L68.2731 128.87C67.8733 128.854 67.5624 128.516 67.5787 128.117C67.5951 127.717 67.9376 127.41 68.3321 127.422L95.7734 128.542C96.1731 128.559 96.4841 128.896 96.4677 129.296C96.4517 129.685 96.1307 129.991 95.7444 129.991" fill="white"/>
<path fill-rule="evenodd" clip-rule="evenodd" d="M122.389 257.3C122.18 257.3 121.973 257.211 121.829 257.037L48.3176 167.843C48.0633 167.534 48.1073 167.078 48.4162 166.824C48.7247 166.569 49.1816 166.613 49.4359 166.922L122.947 256.115C123.202 256.423 123.158 256.881 122.849 257.134C122.714 257.245 122.551 257.3 122.389 257.3" fill="white"/>
<path fill-rule="evenodd" clip-rule="evenodd" d="M77.2331 202.512C77.1841 202.512 77.1345 202.508 77.0845 202.497C76.6929 202.415 76.4415 202.032 76.5232 201.64L82.5683 172.64C82.6497 172.249 83.0328 171.996 83.4254 172.079C83.817 172.161 84.0684 172.545 83.9867 172.936L77.9417 201.936C77.8705 202.278 77.5691 202.512 77.2331 202.512" fill="white"/>
<path fill-rule="evenodd" clip-rule="evenodd" d="M326.917 215.849C326.917 215.849 266.907 157.861 340.085 149.79C340.085 149.79 316.614 108.828 356.332 106.374C356.332 106.374 355.073 64.2734 390.859 82.8878C390.859 82.8878 394.414 72.4436 404.63 69.0362C418.327 64.4668 438.277 70.1651 423.025 107.886C423.025 107.886 450.796 107.744 445.257 128.233C443.953 133.06 439.089 138.422 431.65 142.856C431.65 142.856 445.283 145.946 449.689 153.777C455.605 164.293 453.926 186.582 420.775 199.929C378.77 216.842 326.917 215.849 326.917 215.849" fill="#CFE4FF"/>
<path fill-rule="evenodd" clip-rule="evenodd" d="M481.019 312.744C480.687 315.68 478.239 318.028 475.494 319.118C472.745 320.207 469.715 320.27 466.764 320.32C469.604 321.14 471.43 324.251 471.241 327.205C471.238 327.226 471.235 327.245 471.235 327.266C471.017 330.325 468.413 332.668 465.349 332.668H411.52C405.18 328.275 425.562 321.535 425.317 313.543C425.272 312.112 425.378 310.647 425.646 309.158C426.026 307.074 426.669 305.029 427.575 303.113C429.141 299.804 426.089 295.603 425.855 292.252C425.707 290.154 426.392 288.418 428.121 287.161C429.206 286.37 430.595 285.682 431.986 285.324C433.533 284.929 435.652 285.443 437.051 284.926C438.355 284.441 438.318 282.779 438.785 281.698C439.42 280.228 440.339 278.995 441.697 278.12C444.076 276.584 443.112 269.092 445.675 270.291C447.148 267.345 438.758 273.137 453.791 268.323C483.098 258.937 481.857 287.627 474.534 297.551C473.443 299.032 469.457 304.072 467.567 304.391C470.592 303.88 473.828 303.938 476.561 305.335C479.291 306.728 481.364 309.698 481.019 312.744" fill="#CFE4FF"/>
<path fill-rule="evenodd" clip-rule="evenodd" d="M400.714 332.67H312.274C303.133 291.627 376.408 231.195 376.408 231.195C372.761 190.278 408.906 198.03 408.906 198.03C406.832 197.587 421.309 170.042 423.011 167.773C428.642 160.288 435.451 152.676 444.687 151.117C478.352 145.442 453.298 211.437 448.35 223.972C468.173 258.531 431.907 261.717 431.907 261.717C452.89 281.095 450.429 298.336 441.512 311.374C432.331 324.797 416.977 332.67 400.714 332.67" fill="#CFE4FF"/>
<path fill-rule="evenodd" clip-rule="evenodd" d="M312.861 331.946H400.713C416.901 331.946 431.928 324.101 440.914 310.965C452.023 294.718 448.827 278.328 431.414 262.249C431.204 262.054 431.127 261.753 431.219 261.482C431.312 261.211 431.557 261.021 431.841 260.995C431.989 260.981 446.669 259.572 451.781 249.772C455.109 243.39 453.744 234.831 447.72 224.333C447.612 224.141 447.596 223.912 447.675 223.706C452.692 210.995 468.236 168.499 457.593 155.363C454.903 152.043 450.603 150.854 444.808 151.831C435.825 153.348 429.04 160.961 423.591 168.208C422.829 169.225 419.148 175.979 415.723 182.84C411.093 192.111 409.451 196.482 409.422 197.523C409.588 197.69 409.667 197.935 409.615 198.182C409.533 198.563 409.164 198.808 408.782 198.744C408.774 198.742 408.764 198.74 408.753 198.738C408.608 198.707 394.047 195.716 384.743 203.956C378.569 209.419 376.01 218.563 377.13 231.132C377.151 231.369 377.053 231.601 376.869 231.754C376.687 231.904 358.389 247.063 341.454 267.026C331.523 278.728 323.997 289.764 319.085 299.825C313.112 312.064 311.019 322.865 312.861 331.946ZM400.713 333.395H312.274C311.936 333.395 311.641 333.158 311.567 332.826C309.446 323.3 311.538 311.98 317.789 299.182C322.756 289.008 330.35 277.869 340.361 266.072C356.205 247.406 373.225 232.918 375.654 230.881C374.577 218.02 377.312 208.593 383.789 202.865C392.276 195.357 404.41 196.567 408.023 197.136C408.255 195.702 409.47 192.143 414.292 182.461C417.549 175.926 421.504 168.576 422.431 167.338C428.055 159.862 435.082 152.004 444.566 150.403C450.914 149.333 455.678 150.695 458.721 154.451C463.659 160.546 463.986 172.856 459.694 191.039C456.597 204.165 451.812 217.145 449.151 223.914C455.288 234.736 456.605 243.661 453.061 250.447C448.547 259.095 437.599 261.593 433.517 262.238C442.597 270.942 447.686 279.888 448.642 288.844C449.462 296.528 447.264 304.243 442.11 311.782C432.853 325.316 417.38 333.395 400.713 333.395V333.395Z" fill="white"/>
<path fill-rule="evenodd" clip-rule="evenodd" d="M382.797 306.367C382.695 306.367 382.589 306.346 382.489 306.299C382.128 306.128 381.973 305.695 382.144 305.334L454.644 152.118C454.813 151.756 455.245 151.602 455.609 151.773C455.97 151.944 456.125 152.376 455.954 152.738L383.454 305.954C383.33 306.215 383.071 306.367 382.797 306.367" fill="white"/>
<path fill-rule="evenodd" clip-rule="evenodd" d="M429.209 286.199C429.138 286.199 429.067 286.188 428.996 286.164L396.696 276.27C396.314 276.154 396.098 275.748 396.216 275.366C396.332 274.981 396.738 274.768 397.12 274.884L429.42 284.781C429.805 284.897 430.018 285.303 429.902 285.685C429.808 285.996 429.52 286.199 429.209 286.199" fill="white"/>
<path fill-rule="evenodd" clip-rule="evenodd" d="M386.721 162.293C386.65 162.293 386.573 162.282 386.502 162.258C386.12 162.137 385.909 161.73 386.03 161.348L415.812 67.8346C415.933 67.4531 416.339 67.2431 416.721 67.364C417.103 67.4855 417.314 67.8931 417.192 68.2744L387.411 161.788C387.314 162.096 387.029 162.293 386.721 162.293" fill="white"/>
<path fill-rule="evenodd" clip-rule="evenodd" d="M402.378 114.046C402.235 114.046 402.09 114.005 401.967 113.918L362.813 86.8315C362.483 86.6038 362.401 86.1527 362.628 85.8236C362.857 85.4942 363.308 85.4125 363.637 85.6399L402.789 112.726C403.118 112.954 403.2 113.405 402.973 113.734C402.834 113.937 402.607 114.046 402.378 114.046" fill="white"/>
<path fill-rule="evenodd" clip-rule="evenodd" d="M54.044 222.196C53.6745 222.196 53.3588 221.914 53.3235 221.54C53.2861 221.14 53.5789 220.786 53.9773 220.75L89.4344 217.424C89.8312 217.39 90.1859 217.68 90.2236 218.078C90.2607 218.476 89.9683 218.829 89.5698 218.866L54.1125 222.194C54.0895 222.194 54.0666 222.196 54.044 222.196" fill="white"/>
<path fill-rule="evenodd" clip-rule="evenodd" d="M229.725 312.412L229.672 332.486L252.36 332.544L252.41 312.47L229.725 312.412" fill="#AA5FFF"/>
<path fill-rule="evenodd" clip-rule="evenodd" d="M141.348 312.27L141.297 332.344L237.753 332.589L237.806 312.515L141.348 312.27" fill="#CFE4FF"/>
<path fill-rule="evenodd" clip-rule="evenodd" d="M141.417 332.328L141.437 312.273L135.63 312.244L126.713 317.883L119.684 322.27L126.69 326.692L135.653 332.299L141.417 332.328" fill="#001E57"/>
<path fill-rule="evenodd" clip-rule="evenodd" d="M126.713 317.883L119.684 322.27L126.69 326.692L126.713 317.883" fill="#006BFF"/>
<path fill-rule="evenodd" clip-rule="evenodd" d="M199.928 327.116C199.926 327.116 199.923 327.116 199.92 327.116L190.793 327.039C190.304 327.037 189.91 326.636 189.914 326.146C189.918 325.661 190.314 325.269 190.8 325.269C190.803 325.269 190.805 325.269 190.807 325.269L199.934 325.342C200.424 325.348 200.816 325.745 200.814 326.236C200.808 326.723 200.413 327.116 199.928 327.116" fill="white"/>
<path fill-rule="evenodd" clip-rule="evenodd" d="M182.425 326.973C182.423 326.973 182.42 326.973 182.418 326.973L158.715 326.778C158.225 326.776 157.832 326.375 157.836 325.888C157.84 325.4 158.236 325.008 158.722 325.008C158.724 325.008 158.727 325.008 158.729 325.008L182.432 325.2C182.922 325.205 183.315 325.603 183.311 326.093C183.307 326.581 182.911 326.973 182.425 326.973" fill="white"/>
<path fill-rule="evenodd" clip-rule="evenodd" d="M237.756 332.971H237.754C237.264 332.971 236.868 332.573 236.871 332.083L236.921 312.512C236.921 312.022 237.316 311.627 237.807 311.627C237.807 311.627 237.807 311.627 237.809 311.627C238.297 311.63 238.692 312.027 238.692 312.515L238.642 332.088C238.642 332.576 238.244 332.971 237.756 332.971" fill="white"/>
<path fill-rule="evenodd" clip-rule="evenodd" d="M141.296 332.821C141.295 332.821 141.295 332.821 141.294 332.821C140.805 332.821 140.409 332.423 140.41 331.933L140.46 312.267C140.461 311.777 140.858 311.382 141.346 311.382C141.347 311.382 141.347 311.382 141.348 311.382C141.838 311.384 142.233 311.782 142.232 312.27L142.182 331.938C142.181 332.425 141.784 332.821 141.296 332.821" fill="white"/>
<path fill-rule="evenodd" clip-rule="evenodd" d="M109.827 230.684C109.791 230.684 109.754 230.681 109.717 230.676C109.322 230.615 109.05 230.246 109.11 229.848L116.124 183.762C116.184 183.366 116.553 183.095 116.949 183.154C117.345 183.215 117.617 183.584 117.556 183.979L110.543 230.067C110.488 230.425 110.179 230.684 109.827 230.684" fill="white"/>
<path fill-rule="evenodd" clip-rule="evenodd" d="M397.758 128.135C397.392 128.135 397.078 127.858 397.039 127.486C396.999 127.088 397.286 126.732 397.684 126.69L444.878 121.751C445.273 121.709 445.632 121.998 445.674 122.396C445.716 122.794 445.426 123.15 445.028 123.192L397.835 128.131C397.811 128.134 397.785 128.135 397.758 128.135" fill="white"/>
<path fill-rule="evenodd" clip-rule="evenodd" d="M382.602 103.77V285.126H115.309V103.77C115.309 102.527 116.321 101.515 117.564 101.515H380.346C381.59 101.515 382.602 102.527 382.602 103.77" fill="#CFE4FF"/>
<path fill-rule="evenodd" clip-rule="evenodd" d="M121.207 279.227H376.701V107.414H121.207V279.227ZM309.444 95.6169H117.564C113.06 95.6169 109.41 99.2675 109.41 103.771V282.51C109.41 287.213 113.223 291.026 117.927 291.026H379.984C384.688 291.026 388.503 287.213 388.503 282.51V103.771C388.503 99.2673 384.851 95.6169 380.345 95.6169H309.444V95.6169Z" fill="#001E57"/>
<path fill-rule="evenodd" clip-rule="evenodd" d="M274.823 331.35H223.09C220.457 331.35 218.32 330.781 218.32 330.077V291.026H279.593V330.077C279.593 330.781 277.459 331.35 274.823 331.35" fill="#001E57"/>
<path fill-rule="evenodd" clip-rule="evenodd" d="M299.562 333.395H198.348C198.348 325.624 204.648 319.324 212.419 319.324H285.491C293.262 319.324 299.562 325.624 299.562 333.395" fill="#001E57"/>
<path fill-rule="evenodd" clip-rule="evenodd" d="M279.592 320.209H218.319C217.829 320.209 217.434 319.814 217.434 319.324C217.434 318.834 217.829 318.438 218.319 318.438H279.592C280.082 318.438 280.48 318.834 280.48 319.324C280.48 319.814 280.082 320.209 279.592 320.209" fill="white"/>
<path fill-rule="evenodd" clip-rule="evenodd" d="M279.592 291.912H218.319C217.829 291.912 217.434 291.516 217.434 291.026C217.434 290.536 217.829 290.141 218.319 290.141H279.592C280.082 290.141 280.48 290.536 280.48 291.026C280.48 291.516 280.082 291.912 279.592 291.912" fill="white"/>
<path fill-rule="evenodd" clip-rule="evenodd" d="M15.8402 252.41C13.1432 252.41 10.9487 254.602 10.9487 257.3C10.9487 259.999 13.1432 262.191 15.8402 262.191C18.5377 262.191 20.7319 259.999 20.7319 257.3C20.7319 254.602 18.5377 252.41 15.8402 252.41ZM15.8402 263.64C12.3443 263.64 9.5 260.797 9.5 257.3C9.5 253.804 12.3443 250.96 15.8402 250.96C19.3366 250.96 22.1809 253.804 22.1809 257.3C22.1809 260.797 19.3366 263.64 15.8402 263.64V263.64Z" fill="#CFE4FF"/>
<path fill-rule="evenodd" clip-rule="evenodd" d="M492.04 192.356L494.607 193.758C494.728 193.825 494.828 193.925 494.894 194.046L496.296 196.611L497.701 194.046C497.766 193.925 497.867 193.825 497.988 193.758L500.552 192.356L497.988 190.953C497.867 190.887 497.766 190.786 497.701 190.665L496.296 188.1L494.894 190.665C494.828 190.786 494.728 190.887 494.607 190.953L492.04 192.356ZM496.296 198.845C496.033 198.845 495.788 198.701 495.661 198.469L493.724 194.928L490.185 192.991C489.951 192.864 489.809 192.621 489.809 192.356C489.809 192.091 489.951 191.847 490.185 191.72L493.724 189.784L495.661 186.243C495.788 186.01 496.033 185.866 496.296 185.866C496.562 185.866 496.805 186.01 496.934 186.243L498.87 189.784L502.409 191.72C502.641 191.847 502.786 192.091 502.786 192.356C502.786 192.621 502.641 192.864 502.409 192.991L498.87 194.928L496.934 198.469C496.805 198.701 496.562 198.845 496.296 198.845V198.845Z" fill="#F0E6FF"/>
<path fill-rule="evenodd" clip-rule="evenodd" d="M15.8418 156.334C15.4416 156.334 15.1172 156.01 15.1172 155.61V152.428C15.1172 152.027 15.4416 151.703 15.8418 151.703C16.2421 151.703 16.5662 152.027 16.5662 152.428V155.61C16.5662 156.01 16.2421 156.334 15.8418 156.334" fill="#F0E6FF"/>
<path fill-rule="evenodd" clip-rule="evenodd" d="M15.8418 163.866C15.4416 163.866 15.1172 163.542 15.1172 163.141V159.959C15.1172 159.559 15.4416 159.235 15.8418 159.235C16.2421 159.235 16.5662 159.559 16.5662 159.959V163.141C16.5662 163.542 16.2421 163.866 15.8418 163.866" fill="#F0E6FF"/>
<path fill-rule="evenodd" clip-rule="evenodd" d="M21.196 158.509H18.0134C17.6134 158.509 17.2891 158.185 17.2891 157.784C17.2891 157.384 17.6134 157.06 18.0134 157.06H21.196C21.596 157.06 21.9204 157.384 21.9204 157.784C21.9204 158.185 21.596 158.509 21.196 158.509" fill="#F0E6FF"/>
<path fill-rule="evenodd" clip-rule="evenodd" d="M13.6648 158.509H10.4824C10.0822 158.509 9.75781 158.185 9.75781 157.784C9.75781 157.384 10.0822 157.06 10.4824 157.06H13.6648C14.0648 157.06 14.3892 157.384 14.3892 157.784C14.3892 158.185 14.0648 158.509 13.6648 158.509" fill="#F0E6FF"/>
<path fill-rule="evenodd" clip-rule="evenodd" d="M261.008 50.9069L251.285 51.895L242.66 39.2247L252.386 38.2366L261.008 50.9069" fill="#CFE4FF"/>
<path fill-rule="evenodd" clip-rule="evenodd" d="M252.386 38.2365L242.66 39.2246L253.258 29.5648L262.984 28.5767L252.386 38.2365" fill="#CFE4FF"/>
<path fill-rule="evenodd" clip-rule="evenodd" d="M262.981 28.5767L271.603 41.247L261.005 50.9068L252.383 38.2365L262.981 28.5767" fill="#CFE4FF"/>
<path fill-rule="evenodd" clip-rule="evenodd" d="M261.011 51.631C260.779 51.631 260.55 51.5204 260.41 51.3143L251.786 38.644C251.583 38.3457 251.63 37.9438 251.896 37.7009L262.494 28.0411C262.792 27.7715 263.248 27.7929 263.52 28.0883C263.788 28.3839 263.767 28.8424 263.472 29.1117L253.338 38.3483L261.609 50.499C261.833 50.8297 261.749 51.2803 261.417 51.5056C261.293 51.5907 261.151 51.631 261.011 51.631" fill="white"/>
<path fill-rule="evenodd" clip-rule="evenodd" d="M242.659 39.9491C242.29 39.9491 241.977 39.6711 241.937 39.298C241.898 38.8996 242.188 38.5441 242.585 38.5038L252.311 37.5157C252.715 37.474 253.065 37.7652 253.105 38.1631C253.144 38.5613 252.854 38.9167 252.456 38.957L242.733 39.9455C242.707 39.9481 242.683 39.9491 242.659 39.9491" fill="white"/>
<path fill-rule="evenodd" clip-rule="evenodd" d="M261.302 25.8196C260.97 25.8196 260.673 25.5896 260.596 25.2523L259.424 19.9738C259.337 19.5833 259.584 19.1962 259.974 19.1095C260.364 19.0233 260.752 19.2692 260.839 19.6594L262.011 24.9377C262.098 25.3285 261.853 25.7153 261.461 25.802C261.408 25.8138 261.355 25.8196 261.302 25.8196" fill="#CFE4FF"/>
<path fill-rule="evenodd" clip-rule="evenodd" d="M266.378 27.6407C266.083 27.6407 265.806 27.4605 265.698 27.169C265.559 26.794 265.748 26.3769 266.125 26.2373L269.369 25.0288C269.743 24.8894 270.162 25.0797 270.302 25.4549C270.441 25.8299 270.249 26.247 269.875 26.3867L266.631 27.5951C266.547 27.6259 266.462 27.6407 266.378 27.6407" fill="#CFE4FF"/>
<path fill-rule="evenodd" clip-rule="evenodd" d="M88.4919 320.209C88.0637 320.209 87.6871 319.898 87.6181 319.461L75.6321 243.682C75.5557 243.2 75.8853 242.744 76.3686 242.668C76.854 242.594 77.3059 242.923 77.3823 243.406L89.368 319.184C89.4445 319.669 89.1148 320.122 88.6315 320.199C88.5846 320.206 88.538 320.209 88.4919 320.209" fill="white"/>
<path fill-rule="evenodd" clip-rule="evenodd" d="M86.3024 306.36C86.2234 306.36 86.1433 306.349 86.0637 306.325L53.0814 297.113C52.6103 296.981 52.3349 296.494 52.4664 296.022C52.5982 295.551 53.0878 295.277 53.5581 295.408L86.5401 304.62C87.0115 304.752 87.2869 305.24 87.1551 305.711C87.0458 306.104 86.6901 306.36 86.3024 306.36" fill="white"/>
<path fill-rule="evenodd" clip-rule="evenodd" d="M82.5528 282.647C82.4666 282.647 82.3789 282.634 82.2922 282.607L60.9697 276.049C60.502 275.906 60.2393 275.408 60.3831 274.942C60.527 274.473 61.0227 274.212 61.4904 274.354L82.8131 280.913C83.2806 281.058 83.5433 281.553 83.3994 282.022C83.2822 282.402 82.9317 282.647 82.5528 282.647" fill="white"/>
<path fill-rule="evenodd" clip-rule="evenodd" d="M84.0196 291.911C83.7393 291.911 83.4636 291.78 83.2916 291.532C83.0122 291.129 83.1111 290.578 83.5129 290.299L101.634 277.693C102.035 277.414 102.587 277.514 102.867 277.914C103.146 278.317 103.047 278.868 102.646 279.147L84.5248 291.753C84.3706 291.861 84.1941 291.911 84.0196 291.911" fill="white"/>
<path fill-rule="evenodd" clip-rule="evenodd" d="M520.721 334.28H493.659C493.171 334.28 492.773 333.883 492.773 333.395C492.773 332.905 493.171 332.507 493.659 332.507H520.721C521.211 332.507 521.609 332.905 521.609 333.395C521.609 333.883 521.211 334.28 520.721 334.28" fill="#2A0055"/>
<path fill-rule="evenodd" clip-rule="evenodd" d="M164.155 334.28H1.63981C1.15048 334.28 0.753906 333.883 0.753906 333.395C0.753906 332.905 1.15048 332.507 1.63981 332.507H164.155C164.644 332.507 165.041 332.905 165.041 333.395C165.041 333.883 164.644 334.28 164.155 334.28" fill="#2A0055"/>
<path fill-rule="evenodd" clip-rule="evenodd" d="M481.055 334.28H176.472C175.983 334.28 175.586 333.883 175.586 333.395C175.586 332.905 175.983 332.507 176.472 332.507H481.055C481.545 332.507 481.94 332.905 481.94 333.395C481.94 333.883 481.545 334.28 481.055 334.28" fill="#2A0055"/>
<path fill-rule="evenodd" clip-rule="evenodd" d="M183.277 56.2231L185.895 64.6505L189.654 80.6165H179.774L176.43 61.9446L174.961 54.8315L178.496 51.8018L183.277 56.2231" fill="#FFBFAA"/>
<path fill-rule="evenodd" clip-rule="evenodd" d="M164.965 119.828L164.502 122.852L162.781 126.516V133.361H174.743V119.828H164.965" fill="#006BFF"/>
<path fill-rule="evenodd" clip-rule="evenodd" d="M174.207 129.302C172.971 129.302 171.965 128.274 171.965 127.01C171.965 125.746 172.971 124.718 174.207 124.718C174.432 124.718 174.654 124.752 174.867 124.819C175.129 124.902 175.275 125.181 175.192 125.443C175.11 125.705 174.831 125.85 174.569 125.768C174.452 125.731 174.331 125.713 174.207 125.713C173.519 125.713 172.959 126.295 172.959 127.01C172.959 127.726 173.519 128.308 174.207 128.308C174.336 128.308 174.463 128.287 174.585 128.247C174.846 128.161 175.127 128.303 175.213 128.563C175.299 128.824 175.158 129.106 174.897 129.192C174.674 129.265 174.442 129.302 174.207 129.302" fill="#72ACFF"/>
<path fill-rule="evenodd" clip-rule="evenodd" d="M171.422 123.349H166.103C165.828 123.349 165.605 123.127 165.605 122.852C165.605 122.578 165.828 122.355 166.103 122.355H171.422C171.697 122.355 171.919 122.578 171.919 122.852C171.919 123.127 171.697 123.349 171.422 123.349" fill="#72ACFF"/>
<path fill-rule="evenodd" clip-rule="evenodd" d="M170.879 126.331H165.56C165.285 126.331 165.062 126.109 165.062 125.834C165.062 125.559 165.285 125.337 165.56 125.337H170.879C171.154 125.337 171.377 125.559 171.377 125.834C171.377 126.109 171.154 126.331 170.879 126.331" fill="#72ACFF"/>
<path fill-rule="evenodd" clip-rule="evenodd" d="M174.743 131.651C174.654 131.651 174.565 131.627 174.483 131.577L171.554 129.779C170.563 129.171 169.429 128.849 168.276 128.849C166.294 128.849 164.391 129.819 163.187 131.441C163.023 131.662 162.709 131.712 162.488 131.549C162.268 131.386 162.218 131.079 162.381 130.858L162.388 130.85C163.779 128.974 165.98 127.855 168.276 127.855C169.613 127.855 170.927 128.227 172.074 128.932L175.004 130.73C175.238 130.873 175.311 131.18 175.167 131.414C175.073 131.566 174.91 131.651 174.743 131.651" fill="#72ACFF"/>
<path fill-rule="evenodd" clip-rule="evenodd" d="M183.824 79.8541L182.006 75.7719L168.981 72.9558L160.977 75.1405L160.228 76.7964C158.196 81.2862 158.016 86.4306 159.73 91.0591C160.508 93.1613 162.265 94.7176 164.402 95.1966C165.567 95.4577 166.755 95.5895 167.947 95.5895H183.824V79.8541" fill="#001E57"/>
<path fill-rule="evenodd" clip-rule="evenodd" d="M163.996 94.1507H191.394V78.635H163.996V94.1507Z" fill="#001E57"/>
<path fill-rule="evenodd" clip-rule="evenodd" d="M203.129 119.22L208.402 124.151L214.665 128.352V133.361H195.445V117.731L203.129 119.22" fill="#006BFF"/>
<path fill-rule="evenodd" clip-rule="evenodd" d="M161.756 35.5292C161.756 35.5292 155.94 30.8207 153.641 38.6689C153.775 38.1932 150.363 37.6154 149.977 37.6104C147.761 37.5819 145.754 38.994 144.592 40.9247C143.096 43.4106 141.241 48.5379 144.24 50.6717C144.58 50.9131 147.21 51.292 147.147 51.1113C147.147 51.1113 149.853 58.9023 158.375 53.0591C158.375 53.0591 167.016 53.4022 166.01 47.8048C166.01 47.8048 170.143 37.1985 161.756 35.5292" fill="#FF5C5C"/>
<path fill-rule="evenodd" clip-rule="evenodd" d="M161.756 35.5292C161.756 35.5292 155.94 30.8207 153.641 38.6689C153.775 38.1932 150.363 37.6154 149.977 37.6104C147.761 37.5819 145.754 38.994 144.592 40.9247C143.096 43.4106 141.241 48.5379 144.24 50.6717C144.58 50.9131 147.21 51.292 147.147 51.1113C147.147 51.1113 149.853 58.9023 158.375 53.0591C158.375 53.0591 167.016 53.4022 166.01 47.8048C166.01 47.8048 170.143 37.1985 161.756 35.5292" fill="#72ACFF"/>
<path fill-rule="evenodd" clip-rule="evenodd" d="M173.151 39.5475C173.534 39.5122 173.918 39.4911 174.302 39.4848C177.205 39.4376 180.665 40.0779 182.465 42.6661C183.54 44.2115 183.815 46.5243 182.785 48.1696C181.66 49.967 179.303 50.4305 177.379 50.547C172.77 50.8258 168.285 49.0221 165.093 45.5949C164.812 45.2932 164.121 44.7227 164.017 44.3035C163.786 43.3741 165.541 42.3941 166.309 41.898C168.365 40.5715 170.735 39.7712 173.151 39.5475" fill="#72ACFF"/>
<path fill-rule="evenodd" clip-rule="evenodd" d="M159.556 79.0499L182.008 75.7719L179.98 64.8009L178.965 63.4136C180.711 61.1904 181.663 58.4191 181.663 55.5612V54.2331C181.663 52.0908 181.21 49.9738 180.335 48.0294C179.537 46.2576 177.812 45.1238 175.914 45.1238H156.326C153.408 45.1238 151.144 47.7435 151.488 50.7238L159.556 79.0499" fill="#006BFF"/>
<path fill-rule="evenodd" clip-rule="evenodd" d="M162.945 47.341L172.169 55.2322L170.166 47.341V35.9893H162.945V47.341" fill="white"/>
<path fill-rule="evenodd" clip-rule="evenodd" d="M162.945 43.6876H170.166V30.251H162.945V43.6876Z" fill="#FFBFAA"/>
<path fill-rule="evenodd" clip-rule="evenodd" d="M170.167 47.8375H162.946C162.672 47.8375 162.449 47.6151 162.449 47.3402C162.449 47.0657 162.672 46.843 162.946 46.843H170.167C170.442 46.843 170.664 47.0657 170.664 47.3402C170.664 47.6151 170.442 47.8375 170.167 47.8375" fill="#2A0055"/>
<path fill-rule="evenodd" clip-rule="evenodd" d="M161.898 30.475V33.406C161.898 38.1633 165.648 42.0199 170.273 42.0199H170.273C173.473 42.0199 176.068 39.3514 176.068 36.0602V31.6465C176.068 27.8708 173.092 24.8083 169.419 24.8083H167.408C164.365 24.8083 161.898 27.3454 161.898 30.475" fill="#FFBFAA"/>
<path fill-rule="evenodd" clip-rule="evenodd" d="M170.204 42.6618C168.881 42.6618 167.609 42.3701 166.421 41.7943C166.174 41.6747 166.071 41.3772 166.191 41.13C166.31 40.8828 166.607 40.7793 166.855 40.8994C167.906 41.4088 169.033 41.6673 170.204 41.6673C170.479 41.6673 170.701 41.89 170.701 42.1645C170.701 42.4394 170.479 42.6618 170.204 42.6618" fill="#2A0055"/>
<path fill-rule="evenodd" clip-rule="evenodd" d="M160.598 30.5389V36.4019C166.143 34.2936 169.333 31.4509 170.477 27.9697C171.697 30.5929 174.141 32.0635 177.366 32.7992C177.366 32.7992 177.366 31.9273 177.366 31.9268C177.366 28.5118 175.23 25.7821 172.206 24.5581C169.27 23.3697 165.097 23.2991 162.662 25.6446C161.353 26.9049 160.598 28.6944 160.598 30.5389" fill="#72ACFF"/>
<path fill-rule="evenodd" clip-rule="evenodd" d="M162.832 24.8084C162.832 27.1905 164.709 29.1214 167.025 29.1214C169.341 29.1214 171.219 27.1905 171.219 24.8084C171.219 22.4266 169.341 20.4956 167.025 20.4956C164.709 20.4956 162.832 22.4266 162.832 24.8084" fill="#72ACFF"/>
<path fill-rule="evenodd" clip-rule="evenodd" d="M162.833 25.9833C162.696 25.9833 162.56 25.9272 162.461 25.8165C162.279 25.6113 162.298 25.2969 162.503 25.1146C164.973 22.9188 168.678 22.9578 171.322 23.7272C171.585 23.8039 171.737 24.0798 171.66 24.3435C171.583 24.6073 171.307 24.7586 171.044 24.6821C168.765 24.0194 165.333 23.9293 163.164 25.8579C163.069 25.942 162.951 25.9833 162.833 25.9833" fill="white"/>
<path fill-rule="evenodd" clip-rule="evenodd" d="M174.955 60.045L184.549 57.2134C184.053 55.6898 183.481 54.1721 183.043 52.6371C182.423 50.4577 181.722 47.9971 179.896 46.561C178.234 45.2535 176.054 44.7939 174.03 45.3647L172.449 45.8111L174.955 60.045" fill="#006BFF"/>
<path fill-rule="evenodd" clip-rule="evenodd" d="M156.002 59.9187C155.959 59.9187 155.915 59.9132 155.871 59.9013C155.606 59.8294 155.449 59.5564 155.521 59.2913L156.657 55.1021C156.728 54.8373 157 54.6802 157.267 54.7524C157.532 54.8241 157.688 55.0974 157.616 55.3624L156.481 59.5514C156.421 59.773 156.221 59.9187 156.002 59.9187" fill="white"/>
<path fill-rule="evenodd" clip-rule="evenodd" d="M162.091 37.8215V37.8215C163.493 37.8215 164.628 36.6534 164.628 35.2123V34.2845C164.628 32.8437 163.493 31.6753 162.092 31.6753C160.69 31.6753 159.555 32.8437 159.555 34.2845V35.2123C159.555 36.6534 160.69 37.8215 162.091 37.8215" fill="#FFBFAA"/>
<path fill-rule="evenodd" clip-rule="evenodd" d="M162.828 36.0493C162.688 36.0493 162.55 35.991 162.451 35.8772L160.981 34.1752C160.801 33.9673 160.824 33.6535 161.031 33.4738C161.239 33.2943 161.554 33.317 161.733 33.5249L163.204 35.2269C163.383 35.4348 163.36 35.7486 163.153 35.9283C163.059 36.0095 162.943 36.0493 162.828 36.0493" fill="#2A0055"/>
<path fill-rule="evenodd" clip-rule="evenodd" d="M155.286 41.0082C155.011 41.0082 154.789 40.7858 154.789 40.511C154.789 39.7863 154.012 39.1547 153.361 38.7521C153.127 38.6079 153.055 38.3015 153.199 38.0678C153.344 37.8343 153.65 37.7616 153.884 37.9062C155.127 38.6738 155.783 39.5747 155.783 40.511C155.783 40.7858 155.561 41.0082 155.286 41.0082" fill="white"/>
<path fill-rule="evenodd" clip-rule="evenodd" d="M199.742 126.586C199.055 126.586 198.493 127.168 198.493 127.884C198.493 128.599 199.055 129.181 199.742 129.181C200.43 129.181 200.989 128.599 200.989 127.884C200.989 127.168 200.43 126.586 199.742 126.586ZM199.742 130.176C198.507 130.176 197.5 129.148 197.5 127.884C197.5 126.62 198.507 125.592 199.742 125.592C200.978 125.592 201.985 126.62 201.985 127.884C201.985 129.148 200.978 130.176 199.742 130.176V130.176Z" fill="#72ACFF"/>
<path fill-rule="evenodd" clip-rule="evenodd" d="M211.579 126.331H205.406C205.131 126.331 204.91 126.109 204.91 125.834C204.91 125.559 205.131 125.337 205.406 125.337H211.579C211.853 125.337 212.075 125.559 212.075 125.834C212.075 126.109 211.853 126.331 211.579 126.331" fill="#72ACFF"/>
<path fill-rule="evenodd" clip-rule="evenodd" d="M208.494 123.813H202.32C202.046 123.813 201.824 123.59 201.824 123.316C201.824 123.041 202.046 122.818 202.32 122.818H208.494C208.768 122.818 208.989 123.041 208.989 123.316C208.989 123.59 208.768 123.813 208.494 123.813" fill="#72ACFF"/>
<path fill-rule="evenodd" clip-rule="evenodd" d="M176.804 61.112C174.727 61.112 173.269 60.4572 173.172 60.4127C172.923 60.2975 172.814 60.0021 172.929 59.7529C173.043 59.5033 173.339 59.394 173.587 59.5089C173.622 59.5244 177.061 61.0519 180.769 59.16C181.014 59.0351 181.313 59.1321 181.438 59.3768C181.563 59.6216 181.466 59.921 181.221 60.0459C179.629 60.8583 178.097 61.112 176.804 61.112" fill="white"/>
<path fill-rule="evenodd" clip-rule="evenodd" d="M206.785 120.039H194.122L177.012 95.2084L190.638 88.0535L202.601 111.749L203.513 113.558L206.785 120.039" fill="#001E57"/>
<path fill-rule="evenodd" clip-rule="evenodd" d="M188.23 103.173L175.651 120.039H163.582L176.161 93.5027L188.23 103.173" fill="#001E57"/>
<path fill-rule="evenodd" clip-rule="evenodd" d="M160.978 84.388C160.787 84.388 160.604 84.2768 160.522 84.09C160.412 83.8384 160.527 83.5454 160.778 83.4352L166.815 80.7915C167.067 80.6816 167.36 80.7962 167.47 81.0476C167.58 81.2993 167.466 81.5925 167.214 81.7027L161.177 84.3461C161.112 84.3746 161.045 84.388 160.978 84.388" fill="white"/>
<path fill-rule="evenodd" clip-rule="evenodd" d="M182.19 106.096C180.558 106.096 178.913 105.583 177.512 104.522C174.096 101.935 173.425 97.0692 176.012 93.6536L185.059 81.7087C187.646 78.2935 192.512 77.6221 195.928 80.2089C199.343 82.7957 200.015 87.6616 197.427 91.0768L188.38 103.022C186.854 105.036 184.536 106.096 182.19 106.096" fill="#001E57"/>
<path fill-rule="evenodd" clip-rule="evenodd" d="M152.146 79.4183C150.94 79.4183 149.755 78.9917 148.802 78.1856C147.493 77.0773 146.782 75.3877 146.894 73.647L147.969 56.968L158.472 57.6842L157.882 66.8318L173.613 66.2676L181.507 71.5622L153.5 79.2357C153.053 79.3582 152.598 79.418 152.146 79.4183" fill="#FFBFAA"/>
<path fill-rule="evenodd" clip-rule="evenodd" d="M156.327 45.1238H153.821C150.591 45.1238 147.888 47.6442 147.572 50.9504L146.488 62.3006H159.557L156.327 45.1238" fill="#006BFF"/>
<path fill-rule="evenodd" clip-rule="evenodd" d="M196.276 72.0899H175.836L184.696 49.1289H205.135L196.276 72.0899" fill="white"/>
<path fill-rule="evenodd" clip-rule="evenodd" d="M196.278 72.587H190.14C189.866 72.587 189.643 72.3643 189.643 72.0898C189.643 71.8149 189.866 71.5923 190.14 71.5923H195.935L204.412 49.6263H185.038L183.891 52.6005C183.792 52.8566 183.504 52.9839 183.248 52.8853C182.992 52.7865 182.864 52.4985 182.963 52.2424L184.233 48.9499C184.308 48.7581 184.492 48.6316 184.698 48.6316H205.137C205.3 48.6316 205.453 48.7125 205.548 48.8477C205.64 48.9828 205.661 49.1549 205.601 49.308L196.741 72.2687C196.668 72.4605 196.483 72.587 196.278 72.587" fill="#CFE4FF"/>
<path fill-rule="evenodd" clip-rule="evenodd" d="M179.26 64.0208H183.284C184.542 64.0208 185.505 65.1731 185.316 66.4526L184.476 72.1412C184.331 73.1251 183.538 73.8719 182.573 73.934L174.738 73.4168L173.613 66.2674C173.613 66.2674 177.203 64.0208 179.26 64.0208" fill="#FFBFAA"/>
<path fill-rule="evenodd" clip-rule="evenodd" d="M194.284 95.3351C194.088 95.3351 193.902 95.2181 193.824 95.0247L190.262 86.2398C189.24 83.7196 186.868 82.0914 184.217 82.0914H179.357C179.082 82.0914 178.859 81.8687 178.859 81.5939C178.859 81.3193 179.082 81.0967 179.357 81.0967H184.217C187.274 81.0967 190.009 82.9689 191.184 85.8661L194.745 94.6511C194.848 94.9053 194.727 95.1955 194.471 95.2988C194.41 95.3235 194.347 95.3351 194.284 95.3351" fill="white"/>
<path fill-rule="evenodd" clip-rule="evenodd" d="M186.54 109.534C186.382 109.534 186.227 109.459 186.13 109.319L179.201 99.2638C179.045 99.0377 179.102 98.7281 179.328 98.5721C179.554 98.4167 179.864 98.4731 180.02 98.6994L186.949 108.754C187.105 108.981 187.048 109.29 186.822 109.446C186.736 109.505 186.637 109.534 186.54 109.534" fill="white"/>
<path fill-rule="evenodd" clip-rule="evenodd" d="M160.522 62.4418H158.2C157.926 62.4418 157.703 62.2191 157.703 61.9445C157.703 61.6697 157.926 61.4471 158.2 61.4471H160.069L160.277 59.1701C160.501 56.7295 160.294 54.2937 159.664 51.9303C159.593 51.6647 159.751 51.3923 160.016 51.3216C160.282 51.2508 160.554 51.4086 160.625 51.6737C161.286 54.1506 161.502 56.7032 161.268 59.261L161.017 61.9899C160.994 62.2457 160.78 62.4418 160.522 62.4418" fill="white"/>
<path fill-rule="evenodd" clip-rule="evenodd" d="M154.833 67.7072C154.585 67.7072 154.371 67.5227 154.34 67.2708C154.306 66.9983 154.499 66.7501 154.772 66.7161L157.825 66.338C158.096 66.3045 158.345 66.4977 158.379 66.7704C158.413 67.0429 158.219 67.2914 157.947 67.3251L154.894 67.7035C154.874 67.7058 154.853 67.7072 154.833 67.7072" fill="#2A0055"/>
<path fill-rule="evenodd" clip-rule="evenodd" d="M166.088 61.6161C164.276 61.6161 162.831 61.1118 162.079 60.7816C161.828 60.6715 161.713 60.3779 161.823 60.1265C161.934 59.8752 162.227 59.7608 162.479 59.8709C163.97 60.526 166.973 61.3508 170.333 59.5163C170.574 59.385 170.876 59.4736 171.008 59.7144C171.139 59.9555 171.05 60.2578 170.809 60.3893C169.118 61.3128 167.493 61.6161 166.088 61.6161" fill="white"/>
<path fill-rule="evenodd" clip-rule="evenodd" d="M186.114 66.6869H183.615L182.516 64.0208H186.114C186.83 64.0208 187.41 64.6176 187.41 65.3538C187.41 66.09 186.83 66.6869 186.114 66.6869" fill="#FFBFAA"/>
<path fill-rule="evenodd" clip-rule="evenodd" d="M185.792 68.9777H183.293V66.3113H185.792C186.508 66.3113 187.088 66.9081 187.088 67.6443C187.088 68.3806 186.508 68.9777 185.792 68.9777" fill="#FFBFAA"/>
<path fill-rule="evenodd" clip-rule="evenodd" d="M185.397 71.2643H182.898V68.5981H185.397C186.113 68.5981 186.693 69.195 186.693 69.9312C186.693 70.6674 186.113 71.2643 185.397 71.2643" fill="#FFBFAA"/>
<path fill-rule="evenodd" clip-rule="evenodd" d="M185.938 71.466C186.096 71.6871 186.19 71.9598 186.19 72.2552C186.19 72.9914 185.609 73.5883 184.893 73.5883H182.395V70.9221H184.893C185.322 70.9221 185.702 71.1361 185.938 71.466" fill="#FFBFAA"/>
<path fill-rule="evenodd" clip-rule="evenodd" d="M181.852 74.4313C181.596 74.4313 181.379 74.2348 181.357 73.975C181.335 73.7012 181.538 73.4611 181.812 73.4385L184.864 73.1868C185.137 73.1639 185.378 73.3678 185.4 73.6414C185.423 73.9151 185.219 74.1552 184.946 74.1779L181.894 74.4298C181.88 74.4308 181.866 74.4313 181.852 74.4313" fill="#2A0055"/>
<path fill-rule="evenodd" clip-rule="evenodd" d="M185.165 74.1291C184.953 74.1291 184.757 73.9926 184.69 73.7794C184.609 73.5172 184.755 73.2384 185.018 73.1567C185.331 73.0595 185.549 72.7525 185.549 72.4102C185.549 71.9815 185.216 71.6321 184.806 71.6313L183.082 71.6295L183.083 70.635L184.808 70.6369C185.765 70.6384 186.543 71.434 186.543 72.4102C186.543 73.196 186.049 73.8777 185.313 74.1067C185.264 74.122 185.214 74.1291 185.165 74.1291" fill="#2A0055"/>
<path fill-rule="evenodd" clip-rule="evenodd" d="M175.742 65.1074L178.092 61.8966C178.563 61.2539 179.248 60.8133 180.015 60.6597L180.265 60.6096L179.385 64.4404L175.742 65.1074" fill="#FFBFAA"/>
<path fill-rule="evenodd" clip-rule="evenodd" d="M190.244 63.7399C190.122 63.7399 190 63.7333 189.879 63.7199C189.016 63.6239 188.319 63.2 187.916 62.5264C187.488 61.811 187.451 60.8822 187.815 59.9784C188.515 58.2371 190.442 57.0266 192.205 57.2221C192.816 57.2901 193.353 57.5265 193.757 57.9056C193.957 58.0935 193.967 58.4081 193.78 58.6084C193.591 58.8089 193.277 58.8189 193.077 58.6311C192.83 58.4 192.491 58.2545 192.095 58.2105C190.798 58.0664 189.261 59.0461 188.738 60.3494C188.488 60.9715 188.499 61.5633 188.77 62.016C189.009 62.4166 189.442 62.6706 189.989 62.7315C191.064 62.85 192.346 62.1934 193.038 61.1686C193.192 60.9409 193.501 60.8806 193.729 61.0348C193.956 61.1884 194.016 61.4975 193.863 61.7251C193.036 62.9486 191.591 63.7399 190.244 63.7399" fill="#CFE4FF"/>
<path fill-rule="evenodd" clip-rule="evenodd" d="M192.149 58.2138C192.079 58.2138 192.007 58.1987 191.939 58.1668C191.69 58.0504 191.583 57.7545 191.699 57.5055L192.299 56.2227C192.416 55.974 192.712 55.8665 192.961 55.9832C193.209 56.0994 193.317 56.3953 193.2 56.6443L192.6 57.9271C192.516 58.1078 192.336 58.2138 192.149 58.2138" fill="#CFE4FF"/>
<path fill-rule="evenodd" clip-rule="evenodd" d="M190.755 109.074C190.592 109.074 190.432 108.994 190.337 108.847L182.604 96.9026C180.966 94.373 178.226 92.8626 175.275 92.8626H172.028C170.061 92.8626 168.14 92.4771 166.318 91.7163C166.064 91.6107 165.944 91.3195 166.05 91.066C166.156 90.8125 166.447 90.6926 166.701 90.7986C168.401 91.5082 170.193 91.8681 172.028 91.8681H175.275C178.565 91.8681 181.617 93.5482 183.439 96.3622L191.172 108.307C191.321 108.537 191.255 108.845 191.025 108.994C190.941 109.049 190.847 109.074 190.755 109.074" fill="#72ACFF"/>
<path fill-rule="evenodd" clip-rule="evenodd" d="M382.093 171.876C381.843 171.876 381.603 171.77 381.432 171.579C381.221 171.343 381.152 171.013 381.252 170.712L412.839 75.064C412.936 74.7633 413.189 74.5386 413.5 74.4743C413.811 74.4094 414.13 74.5159 414.341 74.752L435.123 98.0566C435.447 98.4218 435.416 98.982 435.052 99.3077C434.686 99.6331 434.127 99.6017 433.8 99.236L414.04 77.0766L383.416 169.811L479.039 149.964L443.033 109.589C442.707 109.224 442.738 108.664 443.105 108.338C443.468 108.013 444.03 108.045 444.356 108.41L481.381 149.93C481.592 150.166 481.661 150.497 481.56 150.798C481.463 151.098 481.21 151.323 480.899 151.387L382.275 171.857C382.214 171.87 382.154 171.876 382.093 171.876" fill="#2A0055"/>
<path fill-rule="evenodd" clip-rule="evenodd" d="M396.352 70.0093L463.393 145.187L364.766 165.658L396.352 70.0093" fill="white"/>
<path fill-rule="evenodd" clip-rule="evenodd" d="M397.419 75.1692L368.697 162.15L458.386 143.535L397.419 75.1692ZM364.763 168.293C364.02 168.293 363.303 167.978 362.797 167.411C362.17 166.709 361.967 165.725 362.262 164.831L393.846 69.1829C394.141 68.2889 394.892 67.6204 395.814 67.429C396.736 67.2377 397.688 67.5529 398.315 68.2554L465.358 143.434C465.983 144.136 466.188 145.12 465.893 146.014C465.598 146.908 464.847 147.576 463.925 147.767L365.298 168.238C365.121 168.275 364.942 168.293 364.763 168.293V168.293Z" fill="#FF5C5C"/>
<path fill-rule="evenodd" clip-rule="evenodd" d="M437.779 229.142L436.535 254.47L464.749 251.329L466.164 218.439L458.77 213.822C455.832 211.988 452.49 210.955 449.057 210.818C445.924 210.697 442.804 211.327 439.948 212.657L437.879 213.622L437.779 229.142" fill="#72ACFF"/>
<path fill-rule="evenodd" clip-rule="evenodd" d="M424.757 315.111L422.083 320.692L413.785 316.481L416.723 310.357L424.757 315.111" fill="#FFBFAA"/>
<path fill-rule="evenodd" clip-rule="evenodd" d="M400.461 323.545L417.678 332.473L423.673 319.972L413.689 314.91L402.793 318.681L400.461 323.545" fill="#001E57"/>
<path fill-rule="evenodd" clip-rule="evenodd" d="M411.465 318.976C411.368 318.976 411.27 318.95 411.181 318.894L408.38 317.092C408.135 316.934 408.064 316.61 408.219 316.362C408.377 316.117 408.704 316.046 408.949 316.204L411.753 318.006C411.998 318.162 412.069 318.489 411.911 318.734C411.811 318.892 411.639 318.976 411.465 318.976" fill="#72ACFF"/>
<path fill-rule="evenodd" clip-rule="evenodd" d="M415.281 325.529L402.58 319.58C402.317 319.456 402.204 319.142 402.328 318.879C402.451 318.615 402.765 318.502 403.028 318.626L415.384 324.412L421.993 322.689C422.275 322.615 422.565 322.784 422.638 323.066C422.712 323.348 422.541 323.637 422.259 323.709L415.281 325.529" fill="#72ACFF"/>
<path fill-rule="evenodd" clip-rule="evenodd" d="M479.635 297.877L484.976 300.794L480.639 309.197L474.773 305.993L479.635 297.877" fill="#FFBFAA"/>
<path fill-rule="evenodd" clip-rule="evenodd" d="M487.104 323.11L496.295 305.677L484.329 299.139L479.109 309.25L482.445 320.565L487.104 323.11" fill="#001E57"/>
<path fill-rule="evenodd" clip-rule="evenodd" d="M481.351 317.387C481.227 317.387 481.1 317.342 481 317.253C480.784 317.058 480.763 316.726 480.958 316.507L483.651 313.482C483.844 313.263 484.178 313.245 484.394 313.437C484.613 313.632 484.631 313.967 484.439 314.183L481.746 317.208C481.643 317.326 481.498 317.387 481.351 317.387" fill="#72ACFF"/>
<path fill-rule="evenodd" clip-rule="evenodd" d="M480.386 314.42C480.278 314.42 480.167 314.386 480.072 314.315C479.838 314.141 479.79 313.811 479.964 313.577L482.449 310.233C482.623 309.998 482.955 309.948 483.189 310.122C483.421 310.296 483.471 310.628 483.297 310.863L480.81 314.207C480.707 314.346 480.546 314.42 480.386 314.42" fill="#72ACFF"/>
<path fill-rule="evenodd" clip-rule="evenodd" d="M484.373 322.146C484.296 322.146 484.217 322.128 484.143 322.093C483.882 321.967 483.769 321.653 483.896 321.39L490.423 307.748L486.947 301.068C486.815 300.81 486.915 300.491 487.174 300.357C487.432 300.222 487.751 300.323 487.885 300.581L491.603 307.727L484.847 321.846C484.757 322.035 484.568 322.146 484.373 322.146" fill="#72ACFF"/>
<path fill-rule="evenodd" clip-rule="evenodd" d="M474.815 310.088L446.783 293.917C444.496 292.597 442.849 290.357 442.264 287.772C442.232 287.635 442.206 287.495 442.182 287.358L436.746 255.055L451.629 252.549L456.612 282.162L482.356 297.016L474.815 310.088" fill="#006BFF"/>
<path fill-rule="evenodd" clip-rule="evenodd" d="M426.676 317.424L412.75 311.606L426.55 278.573C427.206 277.005 428.154 275.611 429.369 274.428C429.409 274.391 429.448 274.354 429.488 274.315L449.116 256.054C449.356 255.83 449.482 255.464 449.446 255.097L449.121 251.999L464.133 250.436L464.455 253.535C464.982 258.594 463.092 263.667 459.398 267.103L440.26 284.908L426.676 317.424" fill="#006BFF"/>
<path fill-rule="evenodd" clip-rule="evenodd" d="M441.708 285.105C441.571 285.105 441.437 285.055 441.334 284.952C441.128 284.747 441.128 284.412 441.334 284.207L454.095 271.432C454.301 271.226 454.633 271.226 454.841 271.432C455.047 271.638 455.047 271.972 454.841 272.178L442.08 284.952C441.977 285.055 441.842 285.105 441.708 285.105" fill="white"/>
<path fill-rule="evenodd" clip-rule="evenodd" d="M428.743 312.615C428.674 312.615 428.603 312.602 428.535 312.573L415.122 306.76C414.856 306.644 414.732 306.336 414.848 306.067C414.964 305.798 415.275 305.677 415.541 305.793L428.954 311.603C429.222 311.719 429.344 312.03 429.228 312.296C429.141 312.496 428.948 312.615 428.743 312.615" fill="#001E57"/>
<path fill-rule="evenodd" clip-rule="evenodd" d="M470.299 307.719C470.218 307.719 470.131 307.698 470.052 307.656C469.796 307.519 469.699 307.2 469.836 306.942L476.834 293.819C476.971 293.564 477.293 293.466 477.548 293.601C477.807 293.74 477.904 294.059 477.767 294.315L470.766 307.44C470.671 307.616 470.489 307.719 470.299 307.719" fill="#001E57"/>
<path fill-rule="evenodd" clip-rule="evenodd" d="M445.299 222.81L427.916 232.589C425.489 234.634 421.821 233.506 420.886 230.425L409.305 208.81L413.584 204.207L427.234 219.469L439.191 214.199L445.299 222.81" fill="#FFBFAA"/>
<path fill-rule="evenodd" clip-rule="evenodd" d="M447.385 226.123L434.065 232.834L429.105 217.282L438.823 213.348C441.849 212.125 445.206 214.041 445.798 217.324L447.385 226.123" fill="#72ACFF"/>
<path fill-rule="evenodd" clip-rule="evenodd" d="M444.238 212.038V212.038C446.415 215.298 450.905 215.798 453.709 213.09L454.386 212.436L453.551 200.059L444.694 199.711L444.238 212.038" fill="#FFBFAA"/>
<path fill-rule="evenodd" clip-rule="evenodd" d="M449.415 215.366C449.18 215.366 448.943 215.356 448.706 215.329C446.717 215.116 444.93 214.022 443.8 212.331C443.639 212.088 443.702 211.762 443.945 211.598C444.187 211.437 444.516 211.503 444.677 211.746C445.634 213.177 447.141 214.099 448.817 214.281C450.474 214.457 452.126 213.885 453.344 212.71L454.021 212.057C454.229 211.854 454.564 211.859 454.767 212.07C454.97 212.281 454.964 212.613 454.754 212.816L454.076 213.469C452.809 214.694 451.141 215.366 449.415 215.366" fill="white"/>
<path fill-rule="evenodd" clip-rule="evenodd" d="M452.798 201.276L452.513 208.921L442.853 208.542C442.002 208.508 441.33 207.808 441.293 206.946C441.288 206.9 441.288 206.853 441.291 206.806L441.581 198.997C441.66 196.878 443.394 195.227 445.452 195.308L447.494 195.388C450.54 195.507 452.914 198.144 452.798 201.276" fill="#FFBFAA"/>
<path fill-rule="evenodd" clip-rule="evenodd" d="M452.715 203.983C452.715 203.983 457.332 202.192 454.541 199.999C454.541 199.999 458.114 198.4 454.997 196.958C454.997 196.958 457.332 193.258 453.532 193.354C453.532 193.354 451.216 188.683 447.933 191.989C447.933 191.989 446.749 187.205 443.479 190.467C443.479 190.467 439.203 191.462 439.442 195.156C439.442 195.156 437.669 199.639 440.929 198.919C440.929 198.919 438.892 201.243 441.511 200.551C441.511 200.551 442.428 198.936 441.972 197.837C441.972 197.837 444.886 199.175 446.884 198.082C446.884 198.082 447.495 199.411 449.624 198.865C449.624 198.865 449.856 201.161 451.4 200.785C451.4 200.785 450.283 205.676 452.715 203.983" fill="#001E57"/>
<path fill-rule="evenodd" clip-rule="evenodd" d="M441.523 201.267L440.076 204.303C439.926 204.618 440.139 204.988 440.479 205.001L441.826 205.054L441.523 201.267" fill="#FFBFAA"/>
<path fill-rule="evenodd" clip-rule="evenodd" d="M436.533 254.47L464.77 252.544C467.821 251.912 469.927 249.029 469.666 245.838L468.19 227.732L454.86 228.884L456.994 241.295L435.062 248.054L436.533 254.47" fill="#FFBFAA"/>
<path fill-rule="evenodd" clip-rule="evenodd" d="M466.164 218.439L470.04 234.294L455.229 234.007L454.707 226.707L466.164 218.439" fill="#72ACFF"/>
<path fill-rule="evenodd" clip-rule="evenodd" d="M414.201 204.108C413.94 204.108 413.676 204.03 413.445 203.869C412.849 203.451 412.704 202.628 413.12 202.031L413.813 201.042L414.306 198.797C414.462 198.085 415.163 197.634 415.877 197.79C416.588 197.945 417.039 198.649 416.883 199.361L416.28 202.122L415.284 203.545C415.026 203.912 414.617 204.108 414.201 204.108" fill="#FFBFAA"/>
<path fill-rule="evenodd" clip-rule="evenodd" d="M411.593 204.621C411.06 204.621 410.56 204.297 410.359 203.771L409.129 200.541C408.973 200.131 409.031 199.67 409.284 199.311L411.192 196.601C411.614 196.006 412.436 195.863 413.031 196.283C413.627 196.703 413.769 197.526 413.35 198.122L411.846 200.258L412.826 202.831C413.084 203.512 412.741 204.275 412.062 204.534C411.906 204.593 411.748 204.621 411.593 204.621" fill="#FFBFAA"/>
<path fill-rule="evenodd" clip-rule="evenodd" d="M409.39 205.194C408.832 205.194 408.313 204.836 408.133 204.275L407.203 201.358C407.071 200.946 407.151 200.497 407.414 200.154L409.377 197.597C409.82 197.019 410.647 196.909 411.227 197.354C411.804 197.797 411.912 198.625 411.469 199.204L409.928 201.213L410.647 203.474C410.869 204.168 410.486 204.911 409.791 205.132C409.659 205.174 409.522 205.194 409.39 205.194" fill="#FFBFAA"/>
<path fill-rule="evenodd" clip-rule="evenodd" d="M408.613 205.843C408.154 205.843 407.712 205.606 407.467 205.183L405.467 201.714C405.288 201.407 405.243 201.041 405.338 200.7C405.432 200.358 405.662 200.07 405.973 199.899L408.21 198.669C408.847 198.318 409.651 198.551 410.002 199.19C410.352 199.829 410.118 200.631 409.48 200.982L408.426 201.562L409.754 203.864C410.118 204.495 409.901 205.302 409.269 205.666C409.064 205.786 408.834 205.843 408.613 205.843" fill="#FFBFAA"/>
<path fill-rule="evenodd" clip-rule="evenodd" d="M413.436 203.034C412.932 203.034 412.45 202.742 412.232 202.25L410.89 199.239C410.785 199.003 410.753 198.74 410.795 198.485L411.639 193.457C411.76 192.738 412.442 192.254 413.159 192.374C413.878 192.495 414.363 193.175 414.242 193.894L413.465 198.53L414.643 201.178C414.938 201.843 414.637 202.623 413.973 202.919C413.797 202.997 413.615 203.034 413.436 203.034" fill="#FFBFAA"/>
<path fill-rule="evenodd" clip-rule="evenodd" d="M444.755 208.916C444.512 208.916 444.294 208.747 444.238 208.499C444.178 208.214 444.357 207.933 444.641 207.871L445.021 207.788C446.078 207.558 447.066 207.126 447.959 206.504C448.196 206.337 448.526 206.396 448.694 206.635C448.86 206.875 448.8 207.204 448.562 207.37C447.553 208.072 446.439 208.559 445.248 208.818L444.868 208.902C444.829 208.91 444.792 208.916 444.755 208.916" fill="#2A0055"/>
<path fill-rule="evenodd" clip-rule="evenodd" d="M460.386 243.016C460.328 243.016 460.27 243.005 460.212 242.987L456.821 241.793C456.547 241.696 456.402 241.395 456.499 241.121C456.594 240.844 456.894 240.699 457.171 240.797L460.562 241.991C460.836 242.086 460.981 242.389 460.884 242.663C460.807 242.879 460.605 243.016 460.386 243.016" fill="#001E57"/>
<path fill-rule="evenodd" clip-rule="evenodd" d="M455.746 234.544C455.741 234.544 455.735 234.544 455.727 234.544L453.398 234.462C453.14 234.452 452.926 234.26 452.892 234.007L451.856 226.397C451.817 226.109 452.02 225.843 452.31 225.804C452.594 225.764 452.863 225.967 452.903 226.254L453.878 233.422L455.764 233.488C456.057 233.498 456.283 233.743 456.273 234.033C456.265 234.32 456.03 234.544 455.746 234.544" fill="white"/>
<path fill-rule="evenodd" clip-rule="evenodd" d="M411.513 212.8L405.945 202.539L416.264 202.327L416.08 207.321L411.513 212.8" fill="#FFBFAA"/>
<path fill-rule="evenodd" clip-rule="evenodd" d="M438.73 247.429C438.73 247.429 434.962 245.951 434.833 246.439L435.273 245.877C435.273 245.877 428.196 246.043 426.981 246.123L425.268 246.231C424.704 246.267 424.264 246.742 424.256 247.321C424.248 247.917 424.699 248.415 425.279 248.444L427.202 248.547L430.954 248.578L428.657 248.684C427.816 248.723 426.986 248.902 426.201 249.211L424.825 249.751C424.235 249.983 423.9 250.628 424.045 251.261C424.151 251.727 424.496 252.096 424.944 252.223L425.186 252.291L425.107 252.391C424.836 252.734 424.773 253.205 424.941 253.611C425.189 254.202 425.848 254.483 426.427 254.249L427.79 253.696C428.48 253.416 429.231 253.324 429.966 253.435L431.9 253.719L427.647 254.618C426.82 254.792 426.659 255.975 427.426 256.331C427.452 256.341 427.481 256.352 427.508 256.362C427.682 256.426 427.866 256.433 428.04 256.397C428.459 256.302 428.878 256.204 429.308 256.165L433.716 255.748C435.669 255.73 437.603 255.374 439.442 254.697L439.574 254.647L441.972 254.26L443.658 249.4L438.73 247.429" fill="#FFBFAA"/>
<path fill-rule="evenodd" clip-rule="evenodd" d="M425.268 252.576C425.049 252.576 424.843 252.436 424.767 252.217C424.672 251.943 424.82 251.643 425.096 251.548L425.384 251.448C427.331 250.778 429.357 250.494 431.407 250.605C431.697 250.62 431.921 250.868 431.905 251.161C431.89 251.45 431.644 251.677 431.349 251.659C429.436 251.556 427.544 251.822 425.729 252.446L425.439 252.547C425.381 252.565 425.323 252.576 425.268 252.576" fill="#001E57"/>
<path fill-rule="evenodd" clip-rule="evenodd" d="M436.166 250.083C437.458 250.375 438.736 249.537 439.02 248.209C439.305 246.881 438.491 245.569 437.199 245.277C435.908 244.981 434.63 245.822 434.346 247.147C434.061 248.476 434.878 249.79 436.166 250.083" fill="#FFBFAA"/>
<path fill-rule="evenodd" clip-rule="evenodd" d="M437.88 248.478C437.672 248.478 437.472 248.352 437.39 248.146L436.325 245.458L433.582 244.204C433.316 244.083 433.2 243.769 433.321 243.506C433.443 243.24 433.756 243.124 434.022 243.245L436.958 244.586C437.082 244.644 437.179 244.747 437.229 244.874L438.373 247.756C438.478 248.028 438.346 248.333 438.075 248.441C438.012 248.468 437.946 248.478 437.88 248.478" fill="#FFBFAA"/>
<path fill-rule="evenodd" clip-rule="evenodd" d="M449.955 204.265V204.265C451.17 204.313 452.192 203.339 452.239 202.09L452.268 201.286C452.316 200.038 451.367 198.986 450.155 198.939C448.94 198.891 447.918 199.865 447.871 201.114L447.842 201.918C447.794 203.167 448.743 204.218 449.955 204.265" fill="#FFBFAA"/>
<path fill-rule="evenodd" clip-rule="evenodd" d="M449.313 202.716C449.162 202.716 449.015 202.652 448.91 202.529C448.722 202.307 448.749 201.974 448.973 201.785L450.454 200.53C450.678 200.342 451.01 200.37 451.199 200.592C451.386 200.815 451.36 201.148 451.136 201.336L449.655 202.591C449.555 202.675 449.434 202.716 449.313 202.716" fill="#2A0055"/>
<path fill-rule="evenodd" clip-rule="evenodd" d="M441.987 279.129C441.845 279.129 441.705 279.074 441.6 278.963C438.367 275.493 438.612 269.761 442.161 265.912L445.26 262.552L451.982 269.761C452.18 269.975 452.169 270.307 451.956 270.507C451.742 270.705 451.408 270.694 451.21 270.481L445.265 264.104L442.939 266.628C439.761 270.072 439.513 275.176 442.372 278.241C442.572 278.454 442.559 278.789 442.346 278.987C442.246 279.084 442.116 279.129 441.987 279.129" fill="#001E57"/>
<path fill-rule="evenodd" clip-rule="evenodd" d="M458.006 259.253C457.326 259.253 456.625 259.145 455.961 258.86C454.63 258.291 453.708 257.129 453.215 255.406C453.136 255.126 453.297 254.834 453.579 254.752C453.858 254.673 454.151 254.836 454.23 255.116C454.63 256.518 455.35 257.45 456.372 257.888C458.554 258.826 461.476 257.321 461.508 257.305C461.766 257.171 462.085 257.269 462.219 257.527C462.354 257.785 462.256 258.104 461.998 258.241C461.895 258.294 460.043 259.253 458.006 259.253" fill="white"/>
<path fill-rule="evenodd" clip-rule="evenodd" d="M437.753 231.316C437.743 231.316 437.732 231.316 437.724 231.316C437.432 231.3 437.208 231.053 437.223 230.76L437.408 227.393C437.424 227.103 437.679 226.879 437.964 226.895C438.256 226.91 438.478 227.161 438.462 227.451L438.277 230.818C438.264 231.1 438.03 231.316 437.753 231.316" fill="white"/>
<path fill-rule="evenodd" clip-rule="evenodd" d="M419.286 203.192L405.163 205.941L401.176 185.457L415.3 182.707L419.286 203.192" fill="white"/>
<path fill-rule="evenodd" clip-rule="evenodd" d="M402.216 186.157L405.862 204.902L418.25 202.492L414.6 183.746L402.216 186.157ZM405.162 206.828C404.745 206.828 404.376 206.534 404.295 206.111L400.305 185.626C400.213 185.145 400.526 184.68 401.006 184.587L415.133 181.837C415.612 181.744 416.076 182.058 416.171 182.538L420.158 203.023C420.202 203.254 420.155 203.492 420.023 203.687C419.891 203.882 419.689 204.017 419.457 204.062L405.333 206.811C405.275 206.822 405.217 206.828 405.162 206.828V206.828Z" fill="#001E57"/>
<path fill-rule="evenodd" clip-rule="evenodd" d="M461.566 36.6626C461.566 48.681 471.311 58.4238 483.327 58.4238C495.345 58.4238 505.089 48.681 505.089 36.6626C505.089 24.6442 495.345 14.9014 483.327 14.9014C471.311 14.9014 461.566 24.6442 461.566 36.6626" fill="#CFE4FF"/>
<path fill-rule="evenodd" clip-rule="evenodd" d="M492.662 45.7753C492.419 45.7753 492.174 45.6921 491.976 45.5221L473.091 29.3606C472.648 28.9822 472.598 28.3169 472.975 27.8744C473.355 27.432 474.019 27.3809 474.461 27.759L493.347 43.9205C493.789 44.2992 493.842 44.9645 493.463 45.4067C493.254 45.6504 492.959 45.7753 492.662 45.7753" fill="white"/>
<path fill-rule="evenodd" clip-rule="evenodd" d="M473.776 45.7754C473.481 45.7754 473.183 45.6505 472.975 45.4067C472.598 44.9646 472.648 44.2992 473.091 43.9206L491.976 27.7591C492.419 27.3804 493.083 27.4326 493.463 27.8745C493.842 28.3169 493.789 28.9822 493.347 29.3606L474.461 45.5221C474.264 45.6921 474.019 45.7754 473.776 45.7754" fill="white"/>
<path fill-rule="evenodd" clip-rule="evenodd" d="M453.125 63.5185C453.125 66.6223 455.641 69.1382 458.746 69.1382C461.85 69.1382 464.366 66.6223 464.366 63.5185C464.366 60.4146 461.85 57.8984 458.746 57.8984C455.641 57.8984 453.125 60.4146 453.125 63.5185" fill="#CFE4FF"/>
<path fill-rule="evenodd" clip-rule="evenodd" d="M51.4717 87.3235C51.4717 99.3419 41.7289 109.085 29.7104 109.085C17.692 109.085 7.94922 99.3419 7.94922 87.3235C7.94922 75.3051 17.692 65.5623 29.7104 65.5623C41.7289 65.5623 51.4717 75.3051 51.4717 87.3235" fill="#CFE4FF"/>
<path fill-rule="evenodd" clip-rule="evenodd" d="M20.3826 96.4365C20.0854 96.4365 19.79 96.3113 19.5813 96.0679C19.2029 95.6254 19.2546 94.9601 19.6967 94.5814L38.5813 78.4199C39.0237 78.0415 39.6888 78.0932 40.0674 78.5353C40.4461 78.9778 40.3942 79.6431 39.952 80.0215L21.0677 96.1833C20.8691 96.3532 20.625 96.4365 20.3826 96.4365" fill="white"/>
<path fill-rule="evenodd" clip-rule="evenodd" d="M39.2661 96.4366C39.0237 96.4366 38.78 96.3534 38.5813 96.1834L19.6967 80.0217C19.2546 79.6433 19.2029 78.9779 19.5813 78.5355C19.9597 78.0936 20.625 78.0417 21.0677 78.4201L39.952 94.5816C40.3942 94.9602 40.4461 95.6256 40.0674 96.068C39.859 96.3115 39.5633 96.4366 39.2661 96.4366" fill="white"/>
<path fill-rule="evenodd" clip-rule="evenodd" d="M51.4741 123.464C51.4741 126.568 48.9579 129.084 45.8541 129.084C42.7506 129.084 40.2344 126.568 40.2344 123.464C40.2344 120.36 42.7506 117.844 45.8541 117.844C48.9579 117.844 51.4741 120.36 51.4741 123.464" fill="#CFE4FF"/>
<path fill-rule="evenodd" clip-rule="evenodd" d="M334.083 120.749C333.686 120.749 333.324 120.481 333.224 120.078L322.26 76.4859L313.946 84.5275C313.596 84.8674 313.035 84.8585 312.695 84.5067C312.355 84.1549 312.363 83.5942 312.716 83.254L322.128 74.1468C322.357 73.927 322.684 73.8445 322.987 73.9315C323.293 74.0182 323.527 74.2606 323.604 74.5673L334.942 119.646C335.061 120.121 334.774 120.602 334.299 120.722C334.226 120.74 334.155 120.749 334.083 120.749" fill="#2A0055"/>
<path fill-rule="evenodd" clip-rule="evenodd" d="M375.516 285.463C375.434 285.463 375.355 285.453 375.276 285.432L364.525 282.417C364.056 282.286 363.779 281.796 363.911 281.326C364.046 280.855 364.536 280.581 365.005 280.713L374.283 283.313L337.988 139.008C337.869 138.534 338.156 138.052 338.631 137.933C339.105 137.813 339.587 138.101 339.706 138.576L376.375 284.362C376.451 284.668 376.359 284.992 376.132 285.213C375.966 285.377 375.743 285.463 375.516 285.463" fill="white"/>
<path fill-rule="evenodd" clip-rule="evenodd" d="M144.727 235.458L301.014 84.2725L353.783 294.067L144.727 235.458" fill="white"/>
<path fill-rule="evenodd" clip-rule="evenodd" d="M153.709 233.187L347.371 287.482L298.489 93.1322L153.709 233.187ZM353.785 298.678C353.369 298.678 352.95 298.623 352.539 298.507L143.484 239.898C141.893 239.45 140.663 238.188 140.258 236.589C139.853 234.987 140.335 233.292 141.522 232.144L297.809 80.9581C298.992 79.8137 300.697 79.3865 302.281 79.8379C303.864 80.2896 305.087 81.5509 305.488 83.1478L358.257 292.942C358.657 294.539 358.178 296.225 357 297.371C356.128 298.22 354.968 298.678 353.785 298.678V298.678Z" fill="#FF5C5C"/>
<path fill-rule="evenodd" clip-rule="evenodd" d="M238.938 138.96C238.664 138.96 238.387 138.852 238.182 138.639C237.776 138.22 237.786 137.553 238.205 137.148L269.728 106.656C270.145 106.252 270.811 106.263 271.217 106.681C271.623 107.099 271.612 107.767 271.193 108.171L239.67 138.663C239.467 138.861 239.204 138.96 238.938 138.96ZM160.521 245.73C160.426 245.73 160.331 245.717 160.236 245.69L143.198 240.913C141.249 240.368 139.731 238.808 139.235 236.847C138.738 234.884 139.334 232.792 140.788 231.385L227.634 147.376C228.053 146.971 228.719 146.983 229.122 147.401C229.528 147.819 229.518 148.487 229.099 148.891L142.253 232.9C141.34 233.785 140.967 235.097 141.278 236.331C141.59 237.561 142.543 238.539 143.767 238.884L160.804 243.659C161.365 243.817 161.692 244.399 161.535 244.96C161.404 245.424 160.981 245.73 160.521 245.73ZM279.628 279.121C279.533 279.121 279.438 279.108 279.344 279.082L172.069 249.008C171.509 248.85 171.182 248.267 171.339 247.709C171.496 247.147 172.078 246.821 172.638 246.976L279.913 277.053C280.471 277.208 280.798 277.79 280.643 278.352C280.511 278.815 280.089 279.121 279.628 279.121ZM354.78 280.183C354.308 280.183 353.878 279.864 353.757 279.387L310.237 106.353C310.094 105.789 310.437 105.216 311.001 105.074C311.565 104.933 312.139 105.275 312.282 105.839L355.802 278.873C355.944 279.437 355.602 280.009 355.038 280.151C354.951 280.172 354.864 280.183 354.78 280.183V280.183Z" fill="white"/>
<path fill-rule="evenodd" clip-rule="evenodd" d="M254.651 248.797C250.901 247.661 248.78 243.701 249.916 239.948L250.039 239.537C251.175 235.788 255.138 233.667 258.888 234.802C262.64 235.938 264.759 239.898 263.623 243.651L263.499 244.062C262.364 247.814 258.403 249.933 254.651 248.797ZM263.064 220.852C260.245 219.999 258.601 217.079 259.331 214.228L278.559 139.088C279.81 134.195 284.891 131.333 289.723 132.797C294.559 134.26 297.196 139.459 295.523 144.225L269.844 217.411C268.869 220.188 265.881 221.703 263.064 220.852V220.852Z" fill="#FF5C5C"/>
<path fill-rule="evenodd" clip-rule="evenodd" d="M263.939 217.962C265.211 218.346 266.553 217.664 266.993 216.41L292.674 143.225C293.206 141.705 293.098 140.076 292.371 138.639C291.641 137.203 290.389 136.155 288.848 135.688C287.304 135.221 285.683 135.4 284.281 136.19C282.877 136.981 281.883 138.277 281.483 139.838L262.255 214.976C261.926 216.265 262.666 217.574 263.939 217.962ZM264.671 224.112C263.849 224.112 263.014 223.993 262.186 223.743C257.81 222.418 255.269 217.909 256.402 213.477L275.63 138.34C276.442 135.167 278.46 132.534 281.314 130.927C284.168 129.319 287.464 128.957 290.597 129.906C293.733 130.855 296.273 132.985 297.757 135.905C299.238 138.825 299.459 142.135 298.373 145.225L272.692 218.41C271.464 221.909 268.197 224.112 264.671 224.112ZM256.827 237.516C256.165 237.516 255.509 237.68 254.908 238.001C253.949 238.515 253.246 239.371 252.932 240.412L252.806 240.823C252.492 241.867 252.6 242.968 253.114 243.93C253.628 244.889 254.484 245.59 255.525 245.906C257.675 246.555 259.957 245.337 260.608 243.187L260.732 242.773C261.048 241.732 260.937 240.631 260.426 239.672C259.912 238.713 259.053 238.009 258.012 237.693C257.622 237.574 257.222 237.516 256.827 237.516ZM256.7 252.122C255.733 252.122 254.75 251.983 253.775 251.688C251.19 250.905 249.064 249.163 247.789 246.779C246.513 244.396 246.242 241.661 247.024 239.074L247.148 238.665C247.931 236.075 249.675 233.949 252.057 232.676C254.442 231.4 257.177 231.129 259.762 231.912C262.35 232.694 264.476 234.439 265.752 236.821C267.027 239.203 267.298 241.941 266.513 244.526L266.389 244.939C265.066 249.303 261.043 252.122 256.7 252.122V252.122Z" fill="#FF5C5C"/>
<path fill-rule="evenodd" clip-rule="evenodd" d="M257.27 222.425C256.603 222.425 255.926 222.328 255.257 222.125C251.712 221.053 249.654 217.4 250.571 213.811L262.279 168.068C262.424 167.499 263.004 167.155 263.573 167.301C264.142 167.447 264.484 168.026 264.34 168.596L252.635 214.341C252 216.821 253.423 219.348 255.873 220.088C258.324 220.831 260.909 219.519 261.757 217.103L289.014 139.427C289.776 137.257 289.62 134.933 288.579 132.882C287.538 130.831 285.755 129.335 283.554 128.669C281.351 128.002 279.035 128.257 277.033 129.386C275.03 130.515 273.612 132.364 273.04 134.592L266.685 159.431C266.54 160.001 265.96 160.344 265.391 160.199C264.822 160.053 264.477 159.473 264.624 158.904L270.98 134.064C271.694 131.268 273.473 128.948 275.989 127.532C278.503 126.115 281.407 125.796 284.168 126.632C286.932 127.468 289.172 129.346 290.477 131.919C291.783 134.492 291.976 137.409 291.022 140.132L263.765 217.806C262.772 220.642 260.123 222.425 257.27 222.425ZM249.183 248.444C253.12 249.637 257.291 247.403 258.484 243.469L258.632 242.973C259.209 241.066 259.011 239.05 258.071 237.292C257.13 235.537 255.562 234.251 253.657 233.674C251.749 233.097 249.731 233.298 247.976 234.236C246.218 235.176 244.932 236.744 244.355 238.652L244.208 239.145C243.014 243.082 245.249 247.253 249.183 248.444ZM251.341 250.894C250.421 250.894 249.488 250.76 248.566 250.483C243.507 248.95 240.637 243.587 242.171 238.528L242.319 238.035C243.062 235.585 244.714 233.569 246.972 232.36C249.228 231.153 251.82 230.894 254.274 231.638C256.724 232.378 258.737 234.03 259.947 236.288C261.156 238.547 261.412 241.139 260.669 243.59L260.521 244.085C259.267 248.22 255.454 250.894 251.341 250.894V250.894Z" fill="#2A0055"/>
<path fill-rule="evenodd" clip-rule="evenodd" d="M259.266 84.1628C255.806 80.0658 252.349 75.9686 248.889 71.8714C246.839 69.44 243.361 72.9478 245.401 75.3623C248.858 79.4597 252.315 83.557 255.775 87.6539C257.827 90.0853 261.303 86.5775 259.266 84.1628" fill="#FF5C5C"/>
<path fill-rule="evenodd" clip-rule="evenodd" d="M308.043 72.3593C310.589 63.464 313.134 54.5689 315.677 45.6738C316.555 42.6132 311.717 41.6153 310.847 44.6543C309.406 49.6875 307.635 55.8809 303.211 71.3398C302.336 74.4004 307.174 75.3981 308.043 72.3593" fill="#FF5C5C"/>
<path fill-rule="evenodd" clip-rule="evenodd" d="M329.683 134.285C336.51 131.605 343.338 128.924 350.165 126.243C353.087 125.095 351.814 120.318 348.853 121.482C342.025 124.163 335.198 126.844 328.37 129.524C325.446 130.673 326.718 135.449 329.683 134.285" fill="#FF5C5C"/>
<path fill-rule="evenodd" clip-rule="evenodd" d="M412.336 147.892C410.689 148.224 409.084 147.156 408.752 145.508L408.715 145.327C408.386 143.679 409.453 142.074 411.1 141.743C412.749 141.412 414.354 142.479 414.684 144.127L414.72 144.308C415.052 145.956 413.985 147.561 412.336 147.892ZM409.848 135.623C408.61 135.872 407.398 135.102 407.095 133.876L399.124 101.575C398.605 99.4711 399.943 97.3594 402.067 96.932C404.191 96.5048 406.244 97.9349 406.578 100.076L411.714 132.947C411.909 134.195 411.087 135.374 409.848 135.623V135.623Z" fill="#FF5C5C"/>
<path fill-rule="evenodd" clip-rule="evenodd" d="M70.6406 313.398L71.6274 323.898H81.595L83.6867 310.459L70.6406 313.398" fill="#FFBFAA"/>
<path fill-rule="evenodd" clip-rule="evenodd" d="M79.2148 215.696L89.2533 215.445L88.3945 208.665L92.9518 195.982L81.6407 194.644L79.2148 215.696" fill="#FFBFAA"/>
<path fill-rule="evenodd" clip-rule="evenodd" d="M70.7494 318.728L70.4922 332.525H89.5509V327.453L83.1327 322.56L86.0898 317.785L82.2698 318.159L81.2229 321.087L70.7494 318.728" fill="#001E57"/>
<path fill-rule="evenodd" clip-rule="evenodd" d="M83.48 329.69C83.3638 329.69 83.2484 329.653 83.1525 329.58L77.9923 325.701H72.8092L71.0632 328.373C70.8988 328.623 70.5615 328.694 70.3093 328.531C70.0574 328.367 69.9868 328.028 70.1512 327.777L72.0585 324.858C72.1591 324.705 72.3307 324.61 72.5146 324.61H78.1744C78.2924 324.61 78.4073 324.649 78.5017 324.721L83.5486 328.515L85.6023 327.58C85.8758 327.453 86.1991 327.574 86.3238 327.848C86.4487 328.122 86.328 328.446 86.0542 328.57L83.7059 329.64C83.6337 329.674 83.5565 329.69 83.48 329.69" fill="white"/>
<path fill-rule="evenodd" clip-rule="evenodd" d="M85.8633 313.398L86.8504 323.898H96.8177L98.9094 310.459L85.8633 313.398" fill="#FFBFAA"/>
<path fill-rule="evenodd" clip-rule="evenodd" d="M85.9681 318.728L85.7109 332.525H104.769V327.453L98.3512 322.56L101.308 317.785L97.4883 318.159L96.4416 321.087L85.9681 318.728" fill="#001E57"/>
<path fill-rule="evenodd" clip-rule="evenodd" d="M85.8259 333.068C85.525 333.068 85.2812 332.826 85.2812 332.526V328.075C85.2812 327.97 85.3118 327.864 85.3698 327.777L87.2768 324.858C87.3774 324.705 87.549 324.61 87.7329 324.61H93.3927C93.511 324.61 93.6259 324.649 93.7202 324.721L98.8325 328.565L104.631 327.448C104.925 327.392 105.212 327.585 105.269 327.88C105.326 328.175 105.133 328.46 104.837 328.518L98.8014 329.68C98.6504 329.709 98.4941 329.674 98.3711 329.58L93.2109 325.701H88.0275L86.3703 328.236V332.526C86.3703 332.826 86.1266 333.068 85.8259 333.068" fill="white"/>
<path fill-rule="evenodd" clip-rule="evenodd" d="M67.3555 217.593L68.1505 254.834H101.962L102.915 235.192L102.91 218.212C102.909 215.638 101.118 213.448 98.6924 213.058L88.9343 211.485L85.133 211.509L79.4827 211.54L70.776 213.264C68.7926 213.659 67.356 215.474 67.3555 217.593" fill="#72ACFF"/>
<path fill-rule="evenodd" clip-rule="evenodd" d="M138.104 224.765L141.708 222.341C142.288 221.891 142.258 220.971 141.649 220.565C140.396 219.727 135.695 221.59 134.276 222.057C134.276 222.057 132.416 222.655 131.179 223.904L123.484 227.943L125.387 235.458L129.16 233.545C130.649 233.764 134.773 233.342 135.641 233.224C136.437 233.116 137.141 232.573 137.465 231.767C137.626 231.364 137.68 230.924 137.622 230.489L137.509 229.667C138.086 229.58 138.548 229.121 138.661 228.52L138.808 227.748L138.104 224.765" fill="#FFBFAA"/>
<path fill-rule="evenodd" clip-rule="evenodd" d="M131.392 220.981C131.378 220.494 131.124 220.046 130.72 219.804C129.898 219.308 128.86 219.841 128.726 220.823C128.643 223.227 128.042 225.261 126.438 226.586L132.763 224.829L131.392 220.981" fill="#FFBFAA"/>
<path fill-rule="evenodd" clip-rule="evenodd" d="M96.0163 215.282V215.282C94.9051 218.22 95.0596 221.522 96.4401 224.331L102.959 241.374L104.757 243.05C105.443 243.69 106.413 243.872 107.268 243.522L129.089 234.584L124.782 226.52L110.064 228.929L107.344 219.928C106.207 216.167 102.99 213.524 99.2395 213.269C97.8717 213.174 96.5905 213.975 96.0163 215.282" fill="#72ACFF"/>
<path fill-rule="evenodd" clip-rule="evenodd" d="M99.3714 316.402H70.3604L68.1602 254.697H101.949L99.3714 316.402" fill="#001E57"/>
<path fill-rule="evenodd" clip-rule="evenodd" d="M85.3331 316.947C85.0443 316.947 84.8037 316.721 84.7895 316.431L82.5157 269.827C81.9107 269.44 80.4169 268.36 79.2045 266.431C79.0446 266.175 79.1215 265.838 79.3761 265.68C79.6311 265.519 79.9671 265.595 80.1271 265.851C81.4933 268.025 83.2875 269.021 83.3054 269.032C83.472 269.121 83.5803 269.292 83.5895 269.482L85.8775 316.375C85.8923 316.676 85.6604 316.931 85.36 316.947C85.351 316.947 85.3421 316.947 85.3331 316.947" fill="white"/>
<path fill-rule="evenodd" clip-rule="evenodd" d="M92.8326 200.838L92.9066 201.009L94.2811 204.175C94.4821 204.638 94.1596 205.165 93.6745 205.165H91.5625L92.8326 200.838" fill="#FFBFAA"/>
<path fill-rule="evenodd" clip-rule="evenodd" d="M92.8326 200.838L92.9066 201.009L94.2811 204.175C94.4821 204.638 94.1596 205.165 93.6745 205.165H91.5625L92.8326 200.838" fill="#FFBFAA"/>
<path fill-rule="evenodd" clip-rule="evenodd" d="M85.1661 208.813H89.018C91.1376 208.813 92.8559 207.096 92.8559 204.976V194.644H81.3281V204.976C81.3281 207.096 83.0464 208.813 85.1661 208.813" fill="#FFBFAA"/>
<path fill-rule="evenodd" clip-rule="evenodd" d="M80.0713 196.268C81.5204 197.449 83.2265 198.233 85.0294 198.589C86.4584 198.872 87.904 199.079 89.348 199.185C90.5707 199.274 91.8439 199.368 93.0473 199.064C93.866 198.857 94.6281 198.424 94.7962 197.478C94.9828 196.428 94.163 195.368 93.324 194.902C93.324 194.902 96.2948 193.887 94.0842 191.93C94.0202 191.873 94.3243 190.382 94.3327 190.224C94.4442 188.061 92.7833 186.534 90.7559 187.008C86.8742 187.915 84.9549 192.653 80.8874 193.089C77.4674 193.457 78.5072 194.994 80.0713 196.268" fill="#2A0055"/>
<path fill-rule="evenodd" clip-rule="evenodd" d="M87.6691 190.41C87.6691 190.41 79.8464 186.953 77.8704 191.014C75.8941 195.075 79.4348 202.507 80.5052 203.543C81.5758 204.58 87.8232 203.973 87.8232 203.973L87.6691 190.41" fill="#2A0055"/>
<path fill-rule="evenodd" clip-rule="evenodd" d="M87.8227 204.926V204.926C89.0775 204.926 90.0949 203.858 90.0949 202.541V201.694C90.0949 200.377 89.0775 199.309 87.8227 199.309C86.5679 199.309 85.5508 200.377 85.5508 201.694V202.541C85.5508 203.858 86.5679 204.926 87.8227 204.926" fill="#FFBFAA"/>
<path fill-rule="evenodd" clip-rule="evenodd" d="M88.4833 203.397C88.3289 203.397 88.1752 203.331 88.0675 203.204L86.7502 201.649C86.5557 201.419 86.5842 201.075 86.8137 200.881C87.043 200.687 87.3871 200.715 87.5813 200.945L88.8985 202.5C89.093 202.729 89.0646 203.073 88.835 203.268C88.7328 203.354 88.6076 203.397 88.4833 203.397" fill="#2A0055"/>
<path fill-rule="evenodd" clip-rule="evenodd" d="M88.5114 209.306C88.4555 209.306 88.3986 209.298 88.3422 209.279C88.3022 209.266 87.3425 208.95 86.3109 208.363C86.0492 208.215 85.9578 207.882 86.1064 207.621C86.255 207.359 86.5875 207.267 86.8489 207.416C87.781 207.945 88.6719 208.24 88.6808 208.243C88.9665 208.337 89.1225 208.644 89.0289 208.929C88.9538 209.158 88.7406 209.306 88.5114 209.306" fill="#2A0055"/>
<path fill-rule="evenodd" clip-rule="evenodd" d="M77.9453 212.262L78.6104 210.694H88.4641C89.2539 210.694 89.979 211.153 90.3474 211.885L91.0378 213.261L77.9453 212.262" fill="#72ACFF"/>
<path fill-rule="evenodd" clip-rule="evenodd" d="M91.0383 213.632C90.9026 213.632 90.7716 213.556 90.7065 213.427L90.0159 212.054C89.7097 211.443 89.1152 211.066 88.4644 211.066H78.8565L78.2873 212.407C78.2072 212.597 77.9885 212.684 77.8006 212.605C77.612 212.523 77.5237 212.307 77.6038 212.117L78.2689 210.549C78.3271 210.412 78.4618 210.323 78.6106 210.323H88.4644C89.3977 210.323 90.2464 210.858 90.6794 211.719L91.3698 213.095C91.462 213.277 91.3879 213.501 91.2048 213.593C91.1513 213.619 91.0944 213.632 91.0383 213.632" fill="white"/>
<path fill-rule="evenodd" clip-rule="evenodd" d="M102.913 241.358C102.695 241.358 102.489 241.227 102.405 241.011L99.139 232.642C99.0296 232.362 99.168 232.046 99.4484 231.938C99.729 231.827 100.044 231.967 100.154 232.246L103.42 240.615C103.529 240.895 103.391 241.211 103.111 241.322C103.045 241.345 102.979 241.358 102.913 241.358" fill="white"/>
<path fill-rule="evenodd" clip-rule="evenodd" d="M66.7783 253.561L66.7129 254.27C66.5791 255.73 66.7208 257.2 67.1306 258.602L67.5119 259.904L67.1106 263.746C67.0038 264.765 67.5717 265.73 68.4884 266.088C68.851 266.23 69.2436 266.265 69.6239 266.191L70.348 266.049C70.447 266.607 70.8708 267.039 71.4051 267.126L72.0937 267.24C73.0344 267.392 73.9917 267.097 74.7045 266.436L75.0267 266.855C75.4468 267.403 76.2594 267.337 76.5946 266.728C77.3066 265.435 77.6631 263.962 77.6241 262.47L77.5759 260.631C77.5511 259.68 77.2594 258.757 76.7377 257.977L75.3163 255.859L73.3466 251.414L66.7783 253.561" fill="#FFBFAA"/>
<path fill-rule="evenodd" clip-rule="evenodd" d="M78.6394 256.963L76.2447 252.057C70.7369 254.391 74.7938 255.163 76.2447 257.872L76.7548 258.465C77.0318 258.787 77.4478 258.934 77.8536 258.855C78.6787 258.694 79.0879 257.709 78.6394 256.963" fill="#FFBFAA"/>
<path fill-rule="evenodd" clip-rule="evenodd" d="M70.3619 213.372L70.3482 231.316L77.5611 254.584H65.209L62.5703 235.192L64.0657 220.597C64.3371 215.495 70.3619 213.372 70.3619 213.372" fill="#72ACFF"/>
<path fill-rule="evenodd" clip-rule="evenodd" d="M101.947 255.242C101.947 255.242 101.946 255.242 101.945 255.242L78.8194 255.134C78.5187 255.134 78.276 254.889 78.2773 254.589C78.2787 254.288 78.5224 254.046 78.822 254.046C78.8228 254.046 78.8236 254.046 78.8246 254.046L101.95 254.154C102.251 254.154 102.493 254.399 102.492 254.699C102.491 255 102.247 255.242 101.947 255.242" fill="white"/>
<path fill-rule="evenodd" clip-rule="evenodd" d="M77.2456 252.478C77.0184 252.478 76.8066 252.336 76.7296 252.107L71.7663 237.451C71.7539 237.414 71.7455 237.374 71.7412 237.337L70.6443 227.888C70.6098 227.59 70.8237 227.319 71.1225 227.285C71.4227 227.25 71.6917 227.464 71.7262 227.764L72.8166 237.155L77.7613 251.759C77.8577 252.043 77.7051 252.352 77.4203 252.449C77.3623 252.468 77.3033 252.478 77.2456 252.478" fill="white"/>
<path fill-rule="evenodd" clip-rule="evenodd" d="M99.6592 311.93H95.24C95.0927 311.93 94.9517 311.869 94.8492 311.764C94.7467 311.659 94.6911 311.516 94.6956 311.369L95.8484 273.332C95.8574 273.029 96.0995 272.8 96.4094 272.802C96.7101 272.813 96.9464 273.063 96.9372 273.364L95.8015 310.839H99.6592C99.9601 310.839 100.204 311.084 100.204 311.385C100.204 311.685 99.9601 311.93 99.6592 311.93" fill="#72ACFF"/>
<path fill-rule="evenodd" clip-rule="evenodd" d="M83.0462 311.93H80.6148C80.467 311.93 80.3255 311.869 80.223 311.761C80.1202 311.656 80.0652 311.514 80.0707 311.366L81.0952 282.386C81.1057 282.085 81.3624 281.851 81.6586 281.861C81.9592 281.872 82.1943 282.125 82.1837 282.425L81.179 310.839H83.0462C83.3471 310.839 83.5908 311.084 83.5908 311.384C83.5908 311.685 83.3471 311.93 83.0462 311.93" fill="#72ACFF"/>
<path fill-rule="evenodd" clip-rule="evenodd" d="M99.2627 263.34C94.6206 263.34 92.9818 259.569 92.9645 259.53C92.848 259.25 92.9787 258.931 93.2562 258.815C93.5334 258.7 93.8514 258.829 93.9681 259.105C94.0332 259.258 95.6106 262.818 100.37 262.175C100.669 262.138 100.943 262.344 100.983 262.642C101.023 262.939 100.814 263.213 100.516 263.253C100.076 263.313 99.6582 263.34 99.2627 263.34" fill="#72ACFF"/>
<path fill-rule="evenodd" clip-rule="evenodd" d="M91.5643 247.295C91.4004 247.295 91.2387 247.221 91.1314 247.082L78.7841 230.958C78.6013 230.721 78.6466 230.378 78.8853 230.196C79.1241 230.012 79.4656 230.057 79.649 230.296L91.9962 246.42C92.1791 246.66 92.1338 247 91.895 247.184C91.7962 247.258 91.6798 247.295 91.5643 247.295" fill="white"/>
<path fill-rule="evenodd" clip-rule="evenodd" d="M359.783 22.9019C359.672 22.5201 359.583 22.1396 359.493 21.7528C359.245 20.6932 359.414 22.3717 359.456 21.3272C359.469 20.9765 359.461 20.6197 359.472 20.2682C359.501 19.2468 359.219 20.919 359.535 19.9688C359.64 19.6558 359.72 19.3251 359.817 19.0089C360.036 18.3037 359.88 18.8956 359.807 19.035C359.962 18.742 360.11 18.4489 360.286 18.1659C360.402 17.9778 360.526 17.7933 360.655 17.6131C360.373 17.9651 360.376 17.968 360.663 17.6221C361.137 17.1235 361.604 16.6424 362.131 16.197C361.48 16.747 362.365 16.0395 362.452 15.9807C362.65 15.8497 362.847 15.723 363.05 15.6013C363.662 15.231 364.299 14.8953 364.958 14.6136C364.181 14.9464 365.29 14.509 365.366 14.4835C365.835 14.3214 366.31 14.1796 366.792 14.0553C369.243 13.4215 371.98 13.3991 374.291 13.9739C375.032 14.1578 375.756 14.392 376.468 14.6603C375.738 14.3852 376.879 14.8482 376.924 14.87C377.266 15.0368 377.606 15.2147 377.938 15.4031C378.494 15.7196 379.029 16.0692 379.553 16.4392C380.518 17.123 379.106 15.9657 379.972 16.7836C380.352 17.1433 380.747 17.4837 381.113 17.8608C383.074 19.8816 384.336 22.2408 384.816 25.3788C384.713 24.7101 384.824 25.557 384.834 25.7224C384.858 26.0545 384.871 26.3867 384.874 26.7198C384.876 27.1201 384.845 27.5161 384.834 27.9156C384.797 29.1029 385.019 27.289 384.771 28.4523C384.373 30.2992 384.146 31.0044 383.256 32.431C382.544 33.5728 381.777 34.344 380.499 35.5119C379.946 36.0194 380.262 35.7169 380.407 35.6049C380.109 35.8347 379.796 36.0486 379.482 36.2571C378.75 36.744 377.988 37.1838 377.208 37.588C376.534 37.9369 375.846 38.2573 375.15 38.5606C375.727 38.3084 375.135 38.5672 375.034 38.6065C374.679 38.748 374.323 38.8908 373.965 39.0283C372.399 39.6299 370.813 40.1754 369.24 40.7517C365.949 41.9569 362.547 43.275 360.094 45.8947C357.227 48.9551 356.399 52.871 357.303 56.9189C357.767 58.9969 360.17 60.2154 362.152 59.6715C364.289 59.0834 365.369 56.9079 364.903 54.8238C364.85 54.5872 364.766 53.6884 364.795 54.3469C364.779 53.9374 364.821 53.5184 364.797 53.1134C364.771 52.6699 364.795 53.2504 364.768 53.3335C364.818 53.1814 364.839 53.0149 364.882 52.8602C364.924 52.7079 364.99 52.5543 365.021 52.4004C364.958 52.706 364.768 52.8618 364.998 52.471C365.156 52.2043 365.337 51.9342 365.482 51.6605C365.164 52.2692 365.509 51.6299 365.78 51.3516C366.007 51.1155 366.254 50.9029 366.497 50.6829C366.824 50.3885 366.405 50.7469 366.357 50.7819C366.542 50.6486 366.729 50.519 366.918 50.3946C367.559 49.9759 368.236 49.612 368.929 49.2868C369.092 49.2099 369.258 49.1343 369.424 49.0618C369.351 49.0939 368.897 49.2768 369.337 49.1063C369.762 48.9432 370.183 48.779 370.605 48.6207C372.178 48.0328 373.767 47.4881 375.337 46.9008C382.544 44.2094 389.274 40.1917 391.864 32.4934C394.384 25.0136 391.414 16.2774 385.546 11.2105C379.72 6.18283 371.717 4.48955 364.312 6.55911C360.452 7.63763 356.821 9.77254 354.357 12.9681C351.683 16.4368 350.966 20.8026 352.183 24.997C352.776 27.041 354.958 28.3187 357.029 27.7496C359.069 27.1896 360.378 24.9535 359.783 22.9019" fill="#FF5C5C"/>
<path fill-rule="evenodd" clip-rule="evenodd" d="M377.833 10.6273C380.898 11.7066 383.522 13.5338 385.625 16.0081C386.062 16.524 386.803 15.7778 386.368 15.265C384.147 12.6513 381.343 10.7525 378.112 9.61389C377.472 9.38886 377.198 10.4036 377.833 10.6273" fill="white"/>
<path fill-rule="evenodd" clip-rule="evenodd" d="M354.757 22.9241C354.489 22.0287 354.325 21.1278 354.302 20.1929C354.283 19.5181 353.232 19.5154 353.25 20.1929C353.277 21.2185 353.451 22.2208 353.743 23.2034C353.935 23.8501 354.95 23.5747 354.757 22.9241" fill="white"/>
<path fill-rule="evenodd" clip-rule="evenodd" d="M355.297 70.9476C355.323 71.7911 355.515 72.6649 355.871 73.5284C356.496 75.042 357.557 76.4825 359.054 77.2457C365.486 80.5239 367.932 69.7785 363.713 66.2409C362.243 65.0096 360.264 64.8449 358.643 65.5703C356.348 66.6004 355.22 68.6628 355.297 70.9476" fill="#FF5C5C"/>
<path fill-rule="evenodd" clip-rule="evenodd" d="M359.071 67.0377C357.474 67.8013 356.568 69.302 356.586 71.0659C356.591 71.7418 357.643 71.7433 357.638 71.0659C357.622 69.6472 358.325 68.5549 359.603 67.9449C360.212 67.6535 359.68 66.747 359.071 67.0377" fill="white"/>
<path fill-rule="evenodd" clip-rule="evenodd" d="M196.945 13.1365C196.21 10.3191 199.938 9.23875 202.094 9.57234C204.934 10.0127 207.374 12.8909 206.507 15.8274C205.646 18.7336 202.21 19.3974 199.767 20.3786C197.145 21.4329 195.417 23.3757 195.983 26.328C196.352 28.2577 199.301 27.4406 198.932 25.5154C198.6 23.7834 200.771 23.2419 202.017 22.7921C203.68 22.1913 205.356 21.5858 206.763 20.4867C209.883 18.0495 210.621 13.726 208.46 10.3842C206.444 7.26932 202.66 5.8817 199.079 6.70331C195.68 7.48275 193.057 10.3499 193.998 13.9491C194.494 15.8503 197.443 15.0443 196.945 13.1365" fill="#FF5C5C"/>
<path fill-rule="evenodd" clip-rule="evenodd" d="M195.208 31.768C195.219 32.095 195.293 32.4339 195.432 32.7688C195.675 33.3556 196.086 33.9145 196.666 34.2104C199.158 35.4816 200.11 31.3145 198.471 29.9427C197.901 29.4652 197.135 29.4015 196.507 29.6826C195.617 30.0821 195.179 30.8818 195.208 31.768" fill="#FF5C5C"/>
<path fill-rule="evenodd" clip-rule="evenodd" d="M118.904 43.2459C116.369 42.1487 117.174 39.0797 118.67 37.364C120.403 35.3766 123.535 34.7055 125.758 36.3126C131.254 40.2849 121.559 48.4799 128.322 51.9724C130.067 52.8736 131.615 50.2369 129.865 49.3334C128.118 48.4312 128.987 46.5503 129.473 45.0704C130.143 43.0322 130.787 40.9895 130.49 38.8185C129.985 35.1147 126.898 32.5751 123.227 32.3732C119.723 32.1803 116.429 34.3535 114.992 37.5084C113.618 40.5245 113.996 44.4283 117.362 45.8849C119.148 46.6578 120.707 44.0256 118.904 43.2459" fill="#FF5C5C"/>
<path fill-rule="evenodd" clip-rule="evenodd" d="M132.3 56.0354C132.564 56.229 132.876 56.38 133.225 56.478C133.837 56.6501 134.53 56.6722 135.121 56.3987C137.662 55.223 134.972 51.902 132.882 52.3416C132.154 52.4944 131.63 53.0588 131.463 53.726C131.227 54.6733 131.586 55.5107 132.3 56.0354" fill="#FF5C5C"/>
<path fill-rule="evenodd" clip-rule="evenodd" d="M72.0248 167.793V167.793C71.1758 167.929 70.3669 167.384 70.1732 166.546L65.5173 146.419C65.1163 144.685 66.2686 142.974 68.0262 142.694H68.0264C69.784 142.414 71.4109 143.682 71.5684 145.455L73.3972 166.033C73.4733 166.889 72.8738 167.658 72.0248 167.793" fill="#FF5C5C"/>
<path fill-rule="evenodd" clip-rule="evenodd" d="M75.2463 173.139C75.4498 174.415 74.5802 175.614 73.3048 175.817C72.0292 176.02 70.8305 175.151 70.6271 173.875C70.424 172.6 71.2933 171.401 72.5689 171.197C73.8445 170.994 75.0432 171.864 75.2463 173.139" fill="#FF5C5C"/>
<path fill-rule="evenodd" clip-rule="evenodd" d="M56.1071 188.912V188.912C55.5466 189.564 54.5772 189.67 53.8884 189.156L37.3322 176.801C35.9056 175.736 35.68 173.686 36.8408 172.336C38.0015 170.987 40.0626 170.904 41.3282 172.155L56.0175 186.681C56.6286 187.286 56.6679 188.26 56.1071 188.912" fill="#FF5C5C"/>
<path fill-rule="evenodd" clip-rule="evenodd" d="M62.0205 190.913C62.9994 191.755 63.1103 193.231 62.2679 194.211C61.4255 195.19 59.9488 195.301 58.9696 194.458C57.9907 193.616 57.8798 192.139 58.7219 191.16C59.5646 190.181 61.0413 190.07 62.0205 190.913" fill="#FF5C5C"/>
<path fill-rule="evenodd" clip-rule="evenodd" d="M148.685 23.2997C148.447 23.2997 148.206 23.2348 147.989 23.0991L139.952 18.0662C139.338 17.681 139.151 16.8704 139.536 16.2554C139.921 15.6407 140.732 15.4544 141.347 15.8393L149.384 20.8725C149.999 21.2575 150.185 22.0683 149.8 22.6831C149.551 23.0812 149.123 23.2997 148.685 23.2997" fill="#FF5C5C"/>
<path fill-rule="evenodd" clip-rule="evenodd" d="M172.174 15.9215C172.083 15.9215 171.991 15.912 171.898 15.8923C171.189 15.7402 170.737 15.0422 170.889 14.3329L173.68 1.2894C173.832 0.579784 174.529 0.127084 175.24 0.279916C175.949 0.431695 176.401 1.12972 176.249 1.83907L173.458 14.8825C173.326 15.4994 172.781 15.9215 172.174 15.9215" fill="#FF5C5C"/>
<path fill-rule="evenodd" clip-rule="evenodd" d="M437.78 93.096C437.749 93.096 437.715 93.0939 437.678 93.0899C437.193 93.0338 436.845 92.5945 436.9 92.1084L438.115 81.5682C438.17 81.0826 438.605 80.7324 439.095 80.7896C439.583 80.8457 439.931 81.285 439.875 81.7711L438.661 92.3113C438.608 92.7629 438.226 93.096 437.78 93.096" fill="#2A0055"/>
<path fill-rule="evenodd" clip-rule="evenodd" d="M447.648 101.297C447.221 101.297 446.844 100.987 446.773 100.551C446.696 100.068 447.026 99.6133 447.508 99.5361L462.543 97.1319C463.028 97.0555 463.482 97.3838 463.561 97.8668C463.637 98.3501 463.308 98.8044 462.825 98.8816L447.79 101.286C447.742 101.293 447.695 101.297 447.648 101.297" fill="#2A0055"/>
<path fill-rule="evenodd" clip-rule="evenodd" d="M409.483 189.876L412.455 193.254L415.43 196.631L411.019 197.518L406.605 198.405L409.483 189.876" fill="#FF5C5C"/>
<path fill-rule="evenodd" clip-rule="evenodd" d="M409.575 190.338L406.961 198.094L414.984 196.481L409.575 190.338ZM406.605 198.64C406.539 198.64 406.476 198.611 406.428 198.56C406.373 198.497 406.357 198.409 406.384 198.33L409.258 189.801C409.285 189.722 409.353 189.662 409.435 189.646C409.517 189.629 409.604 189.658 409.659 189.721L415.606 196.475C415.662 196.538 415.68 196.626 415.654 196.706C415.625 196.786 415.559 196.845 415.477 196.862L406.652 198.635C406.636 198.639 406.621 198.64 406.605 198.64V198.64Z" fill="#FF5C5C"/>
<path fill-rule="evenodd" clip-rule="evenodd" d="M79.6139 22.1008L69.0898 33.1356L70.9805 9.83838L79.6139 22.1008" fill="#CFE4FF"/>
<path fill-rule="evenodd" clip-rule="evenodd" d="M71.4748 11.6534L69.8735 31.3859L78.7875 22.0394L71.4748 11.6534ZM69.0231 33.7721C68.9567 33.7653 68.8906 33.7479 68.8273 33.7194C68.5799 33.6085 68.4294 33.354 68.4513 33.0836L70.3417 9.78669C70.3636 9.51818 70.5512 9.29183 70.8115 9.22095C71.0713 9.1498 71.348 9.24941 71.5032 9.46996L80.1369 21.7324C80.313 21.9819 80.2877 22.3213 80.0769 22.5427L69.5525 33.5772C69.4131 33.7231 69.2165 33.7922 69.0231 33.7721V33.7721Z" fill="#F0E6FF"/>
<path fill-rule="evenodd" clip-rule="evenodd" d="M70.9805 9.83838L91.2637 18.8002L79.6139 22.1008L70.9805 9.83838" fill="#CFE4FF"/>
<path fill-rule="evenodd" clip-rule="evenodd" d="M72.8317 11.3564L79.876 21.3611L89.3808 18.6681L72.8317 11.3564ZM79.5479 22.7374C79.3677 22.7187 79.1993 22.6238 79.0905 22.4691L70.4565 10.207C70.291 9.97164 70.3026 9.65518 70.4849 9.43251C70.667 9.21038 70.9753 9.1366 71.2386 9.25281L91.5218 18.2146C91.7687 18.3237 91.9205 18.5758 91.9018 18.8449C91.8828 19.1139 91.6973 19.3424 91.4377 19.4159L79.7882 22.7165C79.7084 22.7392 79.6272 22.7455 79.5479 22.7374V22.7374Z" fill="#F0E6FF"/>
<path fill-rule="evenodd" clip-rule="evenodd" d="M91.2637 18.8L82.7143 29.7763L69.0898 33.1355L79.6139 22.1007L91.2637 18.8" fill="#CFE4FF"/>
<path fill-rule="evenodd" clip-rule="evenodd" d="M79.9562 22.6689L71.0677 31.9882L82.3452 29.208L89.557 19.9487L79.9562 22.6689ZM69.0235 33.7721C68.8237 33.7513 68.6403 33.6375 68.5355 33.4564C68.3929 33.2103 68.4298 32.8997 68.6261 32.6936L79.1505 21.6588C79.2292 21.5761 79.3291 21.516 79.4393 21.4849L91.0888 18.1843C91.3549 18.1087 91.6395 18.213 91.7942 18.4425C91.9488 18.672 91.9383 18.9751 91.7681 19.1932L83.219 30.1698C83.1304 30.2831 83.0066 30.3634 82.8672 30.3977L69.2427 33.7568C69.1694 33.775 69.0954 33.7795 69.0235 33.7721V33.7721Z" fill="#F0E6FF"/>
<path fill-rule="evenodd" clip-rule="evenodd" d="M79.3331 22.0509C79.1553 22.0325 78.9864 21.9402 78.8754 21.7827L70.2417 9.52024C70.0383 9.23118 70.1076 8.83197 70.3966 8.62854C70.6857 8.42485 71.0849 8.49442 71.2883 8.78348L79.9221 21.0456C80.1257 21.3347 80.0562 21.7339 79.7674 21.9373C79.6359 22.0301 79.4815 22.0662 79.3331 22.0509" fill="white"/>
<path fill-rule="evenodd" clip-rule="evenodd" d="M69.023 33.7721C68.8888 33.7581 68.7581 33.702 68.6519 33.6029C68.3937 33.3613 68.3805 32.9563 68.6219 32.698L79.3771 21.2003C79.4582 21.1134 79.5621 21.0509 79.6764 21.0198L91.2511 17.8696C91.5921 17.7766 91.9439 17.9779 92.0369 18.3192C92.1296 18.6604 91.9283 19.0119 91.5873 19.1049L80.1881 22.2074L69.5568 33.5726C69.4145 33.7247 69.215 33.7919 69.023 33.7721" fill="white"/>
</svg>
