<svg width="593" height="252" viewBox="0 0 593 252" fill="none" xmlns="http://www.w3.org/2000/svg">
<path fill-rule="evenodd" clip-rule="evenodd" d="M465.963 177L464 178.051L464.234 178.979L465.797 178.135H465.825V186H467V177H465.963" fill="#CFE4FF"/>
<path fill-rule="evenodd" clip-rule="evenodd" d="M472.993 185.989C471.905 185.989 471.197 184.561 471.197 182.045C471.197 179.411 471.959 178.013 473.007 178.013C474.246 178.013 474.803 179.576 474.803 181.955C474.803 184.426 474.219 185.989 472.993 185.989ZM473.074 177C471.278 177 470 178.785 470 182.031C470.027 185.231 471.197 187 472.926 187C474.885 187 476 185.185 476 181.896C476 178.815 474.94 177 473.074 177V177Z" fill="#CFE4FF"/>
<path fill-rule="evenodd" clip-rule="evenodd" d="M480.963 177L479 178.051L479.234 178.979L480.797 178.135H480.825V186H482V177H480.963" fill="#CFE4FF"/>
<path fill-rule="evenodd" clip-rule="evenodd" d="M487.993 185.989C486.905 185.989 486.197 184.561 486.197 182.045C486.197 179.411 486.959 178.013 488.007 178.013C489.246 178.013 489.803 179.576 489.803 181.955C489.803 184.426 489.219 185.989 487.993 185.989ZM488.074 177C486.278 177 485 178.785 485 182.031C485.027 185.231 486.197 187 487.926 187C489.885 187 491 185.185 491 181.896C491 178.815 489.94 177 488.074 177V177Z" fill="#CFE4FF"/>
<path fill-rule="evenodd" clip-rule="evenodd" d="M495.993 185.989C494.905 185.989 494.197 184.561 494.197 182.045C494.197 179.411 494.959 178.013 496.007 178.013C497.244 178.013 497.803 179.576 497.803 181.955C497.803 184.426 497.217 185.989 495.993 185.989ZM496.074 177C494.278 177 493 178.785 493 182.031C493.027 185.231 494.197 187 495.926 187C497.885 187 499 185.185 499 181.896C499 178.815 497.94 177 496.074 177V177Z" fill="#CFE4FF"/>
<path fill-rule="evenodd" clip-rule="evenodd" d="M502.963 177L501 178.051L501.234 178.979L502.797 178.135H502.825V186H504V177H502.963" fill="#CFE4FF"/>
<path fill-rule="evenodd" clip-rule="evenodd" d="M509.993 185.989C508.905 185.989 508.197 184.561 508.197 182.045C508.197 179.411 508.959 178.013 510.007 178.013C511.246 178.013 511.803 179.576 511.803 181.955C511.803 184.426 511.219 185.989 509.993 185.989ZM510.074 177C508.278 177 507 178.785 507 182.031C507.027 185.231 508.197 187 509.926 187C511.885 187 513 185.185 513 181.896C513 178.815 511.94 177 510.074 177V177Z" fill="#CFE4FF"/>
<path fill-rule="evenodd" clip-rule="evenodd" d="M516.963 177L515 178.051L515.236 178.979L516.797 178.135H516.825V186H518V177H516.963" fill="#CFE4FF"/>
<path fill-rule="evenodd" clip-rule="evenodd" d="M524.995 185.989C523.905 185.989 523.199 184.561 523.199 182.045C523.199 179.411 523.959 178.013 525.007 178.013C526.246 178.013 526.803 179.576 526.803 181.955C526.803 184.426 526.219 185.989 524.995 185.989ZM525.076 177C523.28 177 522 178.785 522 182.031C522.027 185.231 523.199 187 524.926 187C526.885 187 528 185.185 528 181.896C528 178.815 526.94 177 525.076 177V177Z" fill="#CFE4FF"/>
<path fill-rule="evenodd" clip-rule="evenodd" d="M531.963 177L530 178.051L530.236 178.979L531.797 178.135H531.825V186H533V177H531.963" fill="#CFE4FF"/>
<path fill-rule="evenodd" clip-rule="evenodd" d="M539.994 185.989C538.904 185.989 538.198 184.561 538.198 182.045C538.198 179.411 538.959 178.013 540.006 178.013C541.244 178.013 541.802 179.576 541.802 181.955C541.802 184.426 541.217 185.989 539.994 185.989ZM540.075 177C538.28 177 537 178.785 537 182.031C537.027 185.231 538.198 187 539.925 187C541.883 187 543 185.185 543 181.896C543 178.815 541.938 177 540.075 177V177Z" fill="#CFE4FF"/>
<path fill-rule="evenodd" clip-rule="evenodd" d="M546.964 177L545 178.051L545.234 178.979L546.798 178.135H546.826V186H548V177H546.964" fill="#CFE4FF"/>
<path fill-rule="evenodd" clip-rule="evenodd" d="M553.993 185.989C552.905 185.989 552.197 184.561 552.197 182.045C552.197 179.411 552.959 178.013 554.005 178.013C555.244 178.013 555.803 179.576 555.803 181.955C555.803 184.426 555.217 185.989 553.993 185.989ZM554.074 177C552.278 177 551 178.785 551 182.031C551.027 185.231 552.197 187 553.926 187C555.883 187 557 185.185 557 181.896C557 178.815 555.937 177 554.074 177V177Z" fill="#CFE4FF"/>
<path fill-rule="evenodd" clip-rule="evenodd" d="M561.994 185.989C560.904 185.989 560.198 184.561 560.198 182.045C560.198 179.411 560.959 178.013 562.006 178.013C563.244 178.013 563.802 179.576 563.802 181.955C563.802 184.426 563.217 185.989 561.994 185.989ZM564.95 180.8C564.721 178.389 563.705 177 562.075 177C560.28 177 559 178.785 559 182.031C559.027 185.231 560.198 187 561.925 187C563.37 187 564.359 186.01 564.776 184.167C564.925 183.516 565 182.755 565 181.896C565 181.511 564.983 181.146 564.95 180.8V180.8Z" fill="#CFE4FF"/>
<path fill-rule="evenodd" clip-rule="evenodd" d="M419.963 141L418.881 141.58L418 142.051L418.236 142.979L418.82 142.664L419.797 142.135H419.825V150H421V141H419.963" fill="#CFE4FF"/>
<path fill-rule="evenodd" clip-rule="evenodd" d="M427.994 149.989C426.904 149.989 426.198 148.561 426.198 146.045C426.198 143.411 426.959 142.013 428.006 142.013C429.244 142.013 429.802 143.576 429.802 145.955C429.802 148.426 429.217 149.989 427.994 149.989ZM428.075 141C426.28 141 425 142.785 425 146.031C425.027 149.231 426.198 151 427.925 151C429.883 151 431 149.185 431 145.896C431 142.815 429.938 141 428.075 141V141Z" fill="#CFE4FF"/>
<path fill-rule="evenodd" clip-rule="evenodd" d="M458.993 149.989C457.905 149.989 457.197 148.561 457.197 146.045C457.197 143.411 457.959 142.013 459.007 142.013C460.246 142.013 460.803 143.576 460.803 145.955C460.803 148.426 460.219 149.989 458.993 149.989ZM459.074 141C457.278 141 456 142.785 456 146.031C456.027 149.231 457.197 151 458.926 151C460.885 151 462 149.185 462 145.896C462 142.815 460.94 141 459.074 141V141Z" fill="#CFE4FF"/>
<path fill-rule="evenodd" clip-rule="evenodd" d="M465.963 141L464 142.051L464.234 142.979L465.797 142.135H465.825V150H467V141H465.963" fill="#CFE4FF"/>
<path fill-rule="evenodd" clip-rule="evenodd" d="M473.993 149.989C472.905 149.989 472.197 148.561 472.197 146.045C472.197 143.411 472.959 142.013 474.007 142.013C475.246 142.013 475.803 143.576 475.803 145.955C475.803 148.426 475.219 149.989 473.993 149.989ZM474.074 141C472.278 141 471 142.785 471 146.031C471.027 149.231 472.197 151 473.926 151C475.885 151 477 149.185 477 145.896C477 142.815 475.94 141 474.074 141V141Z" fill="#CFE4FF"/>
<path fill-rule="evenodd" clip-rule="evenodd" d="M480.993 149.989C479.905 149.989 479.197 148.561 479.197 146.045C479.197 143.411 479.959 142.013 481.007 142.013C482.244 142.013 482.803 143.576 482.803 145.955C482.803 148.426 482.217 149.989 480.993 149.989ZM481.074 141C479.278 141 478 142.785 478 146.031C478.027 149.231 479.197 151 480.926 151C482.885 151 484 149.185 484 145.896C484 142.815 482.94 141 481.074 141V141Z" fill="#CFE4FF"/>
<path fill-rule="evenodd" clip-rule="evenodd" d="M500.963 141L499 142.051L499.236 142.979L500.797 142.135H500.825V150H502V141H500.963" fill="#006BFF"/>
<path fill-rule="evenodd" clip-rule="evenodd" d="M508.995 149.989C507.905 149.989 507.199 148.561 507.199 146.045C507.199 143.411 507.959 142.013 509.007 142.013C510.246 142.013 510.803 143.576 510.803 145.955C510.803 148.426 510.219 149.989 508.995 149.989ZM509.076 141C507.28 141 506 142.785 506 146.031C506.027 149.231 507.199 151 508.926 151C510.885 151 512 149.185 512 145.896C512 142.815 510.94 141 509.076 141V141Z" fill="#CFE4FF"/>
<path fill-rule="evenodd" clip-rule="evenodd" d="M515.963 141L514 142.051L514.236 142.979L515.797 142.135H515.825V150H517V141H515.963" fill="#CFE4FF"/>
<path fill-rule="evenodd" clip-rule="evenodd" d="M522.994 149.989C521.904 149.989 521.198 148.561 521.198 146.045C521.198 143.411 521.959 142.013 523.006 142.013C524.244 142.013 524.802 143.576 524.802 145.955C524.802 148.426 524.217 149.989 522.994 149.989ZM523.075 141C521.28 141 520 142.785 520 146.031C520.027 149.231 521.198 151 522.925 151C524.883 151 526 149.185 526 145.896C526 142.815 524.938 141 523.075 141V141Z" fill="#CFE4FF"/>
<path fill-rule="evenodd" clip-rule="evenodd" d="M530.964 141L529 142.051L529.234 142.979L530.798 142.135H530.826V150H532V141H530.964" fill="#CFE4FF"/>
<path fill-rule="evenodd" clip-rule="evenodd" d="M537.993 149.989C536.905 149.989 536.197 148.561 536.197 146.045C536.197 143.411 536.959 142.013 538.005 142.013C539.244 142.013 539.803 143.576 539.803 145.955C539.803 148.426 539.217 149.989 537.993 149.989ZM538.074 141C536.278 141 535 142.785 535 146.031C535.027 149.231 536.197 151 537.926 151C539.883 151 541 149.185 541 145.896C541 142.815 539.937 141 538.074 141V141Z" fill="#CFE4FF"/>
<path fill-rule="evenodd" clip-rule="evenodd" d="M545.994 149.989C544.904 149.989 544.198 148.561 544.198 146.045C544.198 143.411 544.959 142.013 546.006 142.013C547.244 142.013 547.802 143.576 547.802 145.955C547.802 148.426 547.217 149.989 545.994 149.989ZM548.95 144.8C548.721 142.389 547.705 141 546.075 141C544.28 141 543 142.785 543 146.031C543.027 149.231 544.198 151 545.925 151C547.37 151 548.359 150.01 548.776 148.167C548.925 147.516 549 146.755 549 145.896C549 145.511 548.983 145.146 548.95 144.8V144.8Z" fill="#CFE4FF"/>
<path fill-rule="evenodd" clip-rule="evenodd" d="M439.207 181C439.183 181 439.158 181 439.134 181L431.723 180.696C430.734 180.655 429.962 179.796 430.001 178.776C430.041 177.756 430.874 176.961 431.864 177.002L439.277 177.305C440.266 177.344 441.038 178.205 440.999 179.225C440.959 180.22 440.165 181 439.207 181" fill="#FFBFAA"/>
<path fill-rule="evenodd" clip-rule="evenodd" d="M442.241 178C442.237 178 442.235 178 442.232 178L433.755 177.959C432.781 177.954 431.998 177.066 432 175.971C432.004 174.881 432.792 174 433.761 174C433.763 174 433.768 174 433.77 174L442.247 174.041C443.219 174.046 444.004 174.937 444 176.029C443.996 177.121 443.208 178 442.241 178" fill="#FFBFAA"/>
<path fill-rule="evenodd" clip-rule="evenodd" d="M433.853 175C432.889 175 432.073 174.29 432.004 173.362C431.934 172.394 432.705 171.552 433.728 171.485L441.015 171.004C442.031 170.939 442.925 171.669 442.996 172.637C443.066 173.608 442.295 174.448 441.272 174.517L433.985 174.996C433.942 175 433.896 175 433.853 175" fill="#FC346C"/>
<path fill-rule="evenodd" clip-rule="evenodd" d="M384.268 151C382.863 151 381.464 150.475 380.428 149.434C378.436 147.435 378.541 144.293 380.661 142.416L384.13 139.345C386.25 137.468 389.582 137.568 391.574 139.566C393.564 141.565 393.458 144.707 391.339 146.584L387.869 149.655C386.854 150.555 385.56 151 384.268 151" fill="#CFE4FF"/>
<path fill-rule="evenodd" clip-rule="evenodd" d="M388.731 151C388.621 151 388.508 150.975 388.403 150.922C388.042 150.742 387.897 150.303 388.077 149.943L391.886 142.362C392.946 140.251 395.528 139.395 397.643 140.454C398.123 140.695 398.545 141.051 398.859 141.482C399.097 141.808 399.027 142.264 398.701 142.502C398.373 142.74 397.918 142.668 397.679 142.343C397.498 142.095 397.265 141.898 396.986 141.759C395.594 141.061 393.89 141.625 393.192 143.017L389.384 150.597C389.256 150.853 388.999 151 388.731 151" fill="#001E57"/>
<path fill-rule="evenodd" clip-rule="evenodd" d="M396.731 155C396.618 155 396.508 154.974 396.403 154.919C396.042 154.73 395.897 154.273 396.077 153.897L401.808 142L405.641 144.003C406.123 144.254 406.543 144.625 406.86 145.075C407.097 145.414 407.027 145.89 406.699 146.138C406.374 146.386 405.916 146.312 405.679 145.973C405.496 145.714 405.265 145.509 404.986 145.363L402.459 144.043L397.384 154.58C397.256 154.846 396.997 155 396.731 155" fill="#001E57"/>
<path fill-rule="evenodd" clip-rule="evenodd" d="M431.86 181C431.798 181 431.735 180.998 431.673 180.996L400.959 179.901C399.232 179.839 397.653 178.922 396.752 177.457C395.854 175.992 395.754 174.178 396.486 172.624L401.055 162.942C402.261 160.387 405.322 159.286 407.896 160.485C410.467 161.684 411.575 164.727 410.369 167.283L409.104 169.962L432.041 170.781C434.879 170.881 437.099 173.25 436.997 176.072C436.896 178.831 434.615 181 431.86 181" fill="#FFBFAA"/>
<path fill-rule="evenodd" clip-rule="evenodd" d="M442 167.049L450.869 160L454 163.952L445.129 171L442 167.049" fill="#72ACFF"/>
<path fill-rule="evenodd" clip-rule="evenodd" d="M418 183.882L444.347 163L450 170.118L423.653 191L418 183.882" fill="#72ACFF"/>
<path fill-rule="evenodd" clip-rule="evenodd" d="M489.908 149.723C489.912 149.653 489.915 149.583 489.919 149.513C490.479 138.805 482.22 129.64 471.514 129.081C460.877 128.527 451.76 136.673 451.094 147.278C451.09 147.348 451.086 147.417 451.081 147.488C450.811 152.675 452.576 157.657 456.053 161.515C459.53 165.375 464.301 167.649 469.488 167.919C480.125 168.474 489.24 160.328 489.908 149.723ZM448.047 147.086C448.816 134.814 459.365 125.389 471.671 126.031C484.062 126.677 493.615 137.282 492.969 149.672C492.965 149.753 492.96 149.835 492.956 149.915C492.184 162.186 481.638 171.611 469.329 170.969C463.328 170.657 457.807 168.025 453.784 163.559C449.763 159.095 447.719 153.33 448.031 147.329C448.036 147.248 448.04 147.166 448.047 147.086V147.086Z" fill="#72ACFF"/>
<path fill-rule="evenodd" clip-rule="evenodd" d="M410.425 168L401 163.541L403.575 158L413 162.458L410.425 168" fill="#240448"/>
<path fill-rule="evenodd" clip-rule="evenodd" d="M409.34 169C409.099 169 408.853 168.948 408.622 168.837L398.941 164.17C398.114 163.772 397.768 162.774 398.164 161.944C398.56 161.117 399.551 160.766 400.377 161.164L410.058 165.832C410.885 166.23 411.234 167.225 410.835 168.055C410.551 168.652 409.957 169 409.34 169" fill="#CFE4FF"/>
<path fill-rule="evenodd" clip-rule="evenodd" d="M408.031 165C407.314 165 406.588 164.849 405.898 164.53C403.381 163.365 402.297 160.407 403.477 157.923L405.408 153.859C406.588 151.376 409.586 150.307 412.104 151.471C414.621 152.636 415.703 155.593 414.522 158.077L412.592 162.142C411.735 163.943 409.922 165 408.031 165" fill="#CFE4FF"/>
<path fill-rule="evenodd" clip-rule="evenodd" d="M378 163.299L399.518 175L413.769 158.537C416.074 155.432 415.027 150.986 411.584 149.249L392.575 139.664C389.129 137.926 384.958 139.741 383.861 143.456L378 163.299" fill="#CFE4FF"/>
<path fill-rule="evenodd" clip-rule="evenodd" d="M365 179.25L374.435 202L408 164.819L402.15 155.266L393.786 151.081L380.379 151L365 179.25" fill="#001E57"/>
<path fill-rule="evenodd" clip-rule="evenodd" d="M401.021 146.823C399.447 146.25 398.618 144.464 399.172 142.832L402.126 134.097C402.679 132.464 404.402 131.605 405.976 132.177C406.1 132.222 406.219 132.275 406.337 132.335C407.444 132.912 408.09 134.13 407.99 135.386C407.968 135.647 407.917 135.909 407.828 136.169L406.925 138.835L405.703 142.453L404.874 144.903C404.321 146.535 402.598 147.395 401.021 146.823" fill="#FFBFAA"/>
<path fill-rule="evenodd" clip-rule="evenodd" d="M406.067 138.367C404.407 140.506 402.445 141.65 400 140.612L402.207 134.073C402.752 132.458 404.451 131.61 406.004 132.175C406.126 132.22 406.244 132.272 406.36 132.331C407.451 132.901 408.089 134.106 407.99 135.347C407.969 135.605 407.918 135.863 407.83 136.121L406.067 138.367" fill="#240448"/>
<path fill-rule="evenodd" clip-rule="evenodd" d="M399.403 138.57V138.57C397.753 137.232 397.526 134.84 398.894 133.227L400.951 130.807C402.754 128.682 405.979 128.389 408.153 130.153C410.325 131.916 410.625 135.068 408.821 137.192L408.342 137.758C406.103 140.395 402.101 140.758 399.403 138.57" fill="#FFBFAA"/>
<path fill-rule="evenodd" clip-rule="evenodd" d="M401 131L397.335 132.678C396.921 132.868 396.881 133.502 397.271 133.753L399.203 135L401 131" fill="#FFBFAA"/>
<path fill-rule="evenodd" clip-rule="evenodd" d="M404.681 128.345C403.937 129.826 402.137 130.424 400.654 129.681C399.174 128.938 398.577 127.136 399.318 125.655C400.062 124.175 401.864 123.576 403.345 124.319C404.825 125.062 405.424 126.864 404.681 128.345" fill="#001E57"/>
<path fill-rule="evenodd" clip-rule="evenodd" d="M407.787 129.896C407.292 130.884 406.092 131.282 405.105 130.787C404.116 130.292 403.717 129.091 404.213 128.104C404.708 127.116 405.91 126.718 406.897 127.213C407.884 127.708 408.283 128.909 407.787 129.896" fill="#001E57"/>
<path fill-rule="evenodd" clip-rule="evenodd" d="M408.203 133.779L401.065 129.93C400.113 129.417 399.728 128.169 400.205 127.145C400.684 126.121 401.843 125.707 402.795 126.221L409.934 130.07C410.888 130.584 411.273 131.831 410.794 132.855C410.317 133.879 409.155 134.293 408.203 133.779" fill="#001E57"/>
<path fill-rule="evenodd" clip-rule="evenodd" d="M408.26 139L405 137.324L406.33 131L411 133.401L408.26 139" fill="#001E57"/>
<path fill-rule="evenodd" clip-rule="evenodd" d="M409.734 138.621C409.116 139.855 407.614 140.353 406.379 139.734C405.146 139.115 404.647 137.613 405.266 136.379C405.887 135.145 407.386 134.647 408.621 135.266C409.854 135.885 410.353 137.387 409.734 138.621" fill="#FFBFAA"/>
<path fill-rule="evenodd" clip-rule="evenodd" d="M388.345 176C388.258 176 388.166 175.979 388.082 175.936L386.324 175.041C386.034 174.893 385.917 174.535 386.063 174.241C386.209 173.945 386.562 173.826 386.853 173.974L388.138 174.63L390.92 170.272C391.096 169.996 391.461 169.917 391.731 170.096C392.004 170.275 392.082 170.645 391.905 170.922L388.839 175.726C388.729 175.902 388.541 176 388.345 176" fill="#CFE4FF"/>
<path fill-rule="evenodd" clip-rule="evenodd" d="M400.421 178C400.335 178 400.245 177.982 400.162 177.939L394.32 175.071C394.034 174.931 393.918 174.592 394.061 174.311C394.205 174.033 394.551 173.92 394.838 174.06L400.682 176.93C400.966 177.07 401.082 177.41 400.938 177.688C400.837 177.887 400.633 178 400.421 178" fill="#CFE4FF"/>
<path fill-rule="evenodd" clip-rule="evenodd" d="M381.421 168C381.335 168 381.245 167.982 381.162 167.941L375.319 165.07C375.033 164.93 374.92 164.591 375.06 164.313C375.204 164.032 375.553 163.921 375.837 164.059L381.682 166.93C381.966 167.07 382.082 167.41 381.938 167.688C381.837 167.887 381.633 168 381.421 168" fill="#CFE4FF"/>
<path fill-rule="evenodd" clip-rule="evenodd" d="M394.425 161.206C393.435 163.181 394.233 165.586 396.206 166.574C398.181 167.565 400.586 166.768 401.574 164.794C402.565 162.819 401.768 160.416 399.794 159.425C397.819 158.435 395.416 159.233 394.425 161.206" fill="white"/>
<path fill-rule="evenodd" clip-rule="evenodd" d="M387.425 158.207C386.435 160.181 387.233 162.584 389.208 163.575C391.18 164.565 393.585 163.767 394.576 161.792C395.564 159.819 394.768 157.416 392.793 156.425C390.818 155.435 388.416 156.233 387.425 158.207" fill="white"/>
<path fill-rule="evenodd" clip-rule="evenodd" d="M392.242 166L399 163.756L396.756 157L390 159.242L392.242 166" fill="#CFE4FF"/>
<path fill-rule="evenodd" clip-rule="evenodd" d="M401.892 158L395.42 154.852C395.044 154.67 394.893 154.226 395.081 153.861C395.269 153.497 395.727 153.35 396.103 153.533L401.214 156.018L405.262 148.198C405.601 147.542 405.534 146.767 405.087 146.174C404.84 145.844 404.913 145.382 405.255 145.142C405.594 144.902 406.071 144.974 406.318 145.303C407.102 146.345 407.219 147.708 406.623 148.86L401.892 158" fill="#001E57"/>
<path fill-rule="evenodd" clip-rule="evenodd" d="M393.736 154C393.625 154 393.512 153.974 393.406 153.92C393.043 153.733 392.896 153.281 393.078 152.909L397.32 144.261C397.648 143.593 397.583 142.801 397.152 142.197C396.912 141.861 396.985 141.39 397.313 141.145C397.641 140.9 398.102 140.973 398.341 141.309C399.099 142.371 399.212 143.761 398.636 144.936L394.394 153.584C394.265 153.848 394.006 154 393.736 154" fill="#001E57"/>
<path fill-rule="evenodd" clip-rule="evenodd" d="M368.445 178L359 174.064L365.418 159.104C365.654 158.552 365.988 158.046 366.405 157.609L376.531 147L384 153.926L374.504 163.875L368.445 178" fill="#FFBFAA"/>
<path fill-rule="evenodd" clip-rule="evenodd" d="M383.761 154L377 146.272L381.239 142L388 149.728L383.761 154" fill="#CFE4FF"/>
<path fill-rule="evenodd" clip-rule="evenodd" d="M383.399 156C382.969 156 382.54 155.821 382.225 155.466L375.43 147.822C374.826 147.143 374.863 146.081 375.511 145.45C376.158 144.818 377.171 144.856 377.774 145.534L384.571 153.178C385.173 153.857 385.138 154.918 384.49 155.55C384.181 155.851 383.788 156 383.399 156" fill="#CFE4FF"/>
<path fill-rule="evenodd" clip-rule="evenodd" d="M428.697 174C428.343 174 427.985 173.889 427.679 173.657C426.929 173.094 426.777 172.024 427.341 171.272L429.285 168.68C429.787 168.008 430.705 167.805 431.445 168.202L434.102 169.631C434.929 170.075 435.242 171.109 434.798 171.939C434.354 172.768 433.326 173.079 432.499 172.634L431.124 171.897L430.057 173.319C429.724 173.766 429.214 174 428.697 174" fill="#FFBFAA"/>
<path fill-rule="evenodd" clip-rule="evenodd" d="M367.797 181C367.598 181 367.396 180.967 367.197 180.896C366.27 180.563 365.784 179.531 366.116 178.595L367.219 175.468L365.342 172.862C364.762 172.056 364.937 170.93 365.734 170.344C366.532 169.759 367.648 169.938 368.228 170.742L370.658 174.116C371.006 174.598 371.094 175.221 370.897 175.782L369.477 179.803C369.219 180.541 368.53 181 367.797 181" fill="#FC346C"/>
<path fill-rule="evenodd" clip-rule="evenodd" d="M364.797 180C364.598 180 364.396 179.965 364.199 179.894C363.27 179.561 362.786 178.531 363.116 177.593L364.219 174.466L362.342 171.86C361.762 171.056 361.937 169.93 362.734 169.345C363.532 168.76 364.648 168.936 365.228 169.743L367.658 173.117C368.006 173.596 368.094 174.219 367.897 174.78L366.479 178.801C366.219 179.538 365.53 180 364.797 180" fill="#FC346C"/>
<path fill-rule="evenodd" clip-rule="evenodd" d="M360.762 176C360.252 176 359.745 175.759 359.397 175.299C358.782 174.481 358.894 173.283 359.648 172.617L362.124 170.43C362.878 169.764 363.988 169.885 364.603 170.701C365.218 171.516 365.106 172.717 364.352 173.383L361.876 175.57C361.548 175.857 361.155 176 360.762 176" fill="#FC346C"/>
<path fill-rule="evenodd" clip-rule="evenodd" d="M163.169 186C163.121 186 163.071 185.993 163.023 185.979C162.733 185.896 162.563 185.578 162.642 185.271C163.302 182.722 162.735 179.984 161.128 177.947C160.934 177.703 160.964 177.34 161.195 177.135C161.426 176.93 161.77 176.962 161.962 177.207C163.798 179.534 164.445 182.662 163.692 185.576C163.626 185.832 163.406 186 163.169 186" fill="#240448"/>
<path fill-rule="evenodd" clip-rule="evenodd" d="M438.001 79.1161C431.998 79.1161 427.116 83.9986 427.116 90.0001C427.116 96.0014 431.998 100.884 438.001 100.884C444.002 100.884 448.884 96.0014 448.884 90.0001C448.884 83.9986 444.002 79.1161 438.001 79.1161ZM438.001 102C431.384 102 426 96.6168 426 90.0001C426 83.3832 431.384 78 438.001 78C444.618 78 450 83.3832 450 90.0001C450 96.6168 444.618 102 438.001 102V102Z" fill="#240448"/>
<path fill-rule="evenodd" clip-rule="evenodd" d="M328.558 56L80 252H380L364.785 90.839L328.558 56" fill="#CFE4FF"/>
<path fill-rule="evenodd" clip-rule="evenodd" d="M438.5 252C438.224 252 438 251.752 438 251.446V101.554C438 101.248 438.224 101 438.5 101C438.776 101 439 101.248 439 101.554V251.446C439 251.752 438.776 252 438.5 252" fill="#240448"/>
<path fill-rule="evenodd" clip-rule="evenodd" d="M124 96L125.414 98.9091L128 100.5L125.414 102.091L124 105L122.586 102.091L120 100.5L122.586 98.9091L124 96" fill="#72ACFF"/>
<path fill-rule="evenodd" clip-rule="evenodd" d="M257 50L258.412 52.9091L261 54.5L258.412 56.0912L257 59L255.585 56.0912L253 54.5L255.585 52.9091L257 50" fill="#72ACFF"/>
<path fill-rule="evenodd" clip-rule="evenodd" d="M406 222L407.415 224.909L410 226.5L407.415 228.091L406 231L404.585 228.091L402 226.5L404.585 224.909L406 222" fill="#72ACFF"/>
<path fill-rule="evenodd" clip-rule="evenodd" d="M542.999 47L544.413 49.9091L547 51.5L544.413 53.0909L542.999 56L541.587 53.0909L539 51.5L541.587 49.9091L542.999 47" fill="#72ACFF"/>
<path fill-rule="evenodd" clip-rule="evenodd" d="M107 6L108.414 8.90898L111 10.5001L108.414 12.091L107 15L105.586 12.091L103 10.5001L105.586 8.90898L107 6" fill="#72ACFF"/>
<path fill-rule="evenodd" clip-rule="evenodd" d="M320.5 152C319.118 152 318 150.881 318 149.5C318 148.119 319.118 147 320.5 147C321.879 147 323 148.119 323 149.5C323 150.881 321.879 152 320.5 152" fill="white"/>
<path fill-rule="evenodd" clip-rule="evenodd" d="M311.499 152C310.119 152 309 150.881 309 149.5C309 148.119 310.119 147 311.499 147C312.881 147 314 148.119 314 149.5C314 150.881 312.881 152 311.499 152" fill="white"/>
<path fill-rule="evenodd" clip-rule="evenodd" d="M311.499 142C310.119 142 309 140.881 309 139.5C309 138.119 310.119 137 311.499 137C312.881 137 314 138.119 314 139.5C314 140.881 312.881 142 311.499 142" fill="white"/>
<path fill-rule="evenodd" clip-rule="evenodd" d="M311.499 161C310.119 161 309 159.881 309 158.5C309 157.119 310.119 156 311.499 156C312.881 156 314 157.119 314 158.5C314 159.881 312.881 161 311.499 161" fill="white"/>
<path fill-rule="evenodd" clip-rule="evenodd" d="M302.5 152C301.121 152 300 150.881 300 149.5C300 148.119 301.121 147 302.5 147C303.879 147 305 148.119 305 149.5C305 150.881 303.879 152 302.5 152" fill="white"/>
<path fill-rule="evenodd" clip-rule="evenodd" d="M273 90.5V90.5C273 93.5375 270.537 96 267.501 96C264.463 96 262 93.5375 262 90.5C262 87.4625 264.463 85 267.501 85C270.537 85 273 87.4625 273 90.5" fill="#001E57"/>
<path fill-rule="evenodd" clip-rule="evenodd" d="M286 105V105C286 106.657 284.655 108 283 108C281.343 108 280 106.657 280 105C280 103.343 281.343 102 283 102C284.655 102 286 103.343 286 105" fill="#001E57"/>
<path fill-rule="evenodd" clip-rule="evenodd" d="M268.154 100.846H277.846V91.1538H268.154V100.846ZM278.423 102H267.577C267.258 102 267 101.742 267 101.423V90.5769C267 90.2582 267.258 90 267.577 90H278.423C278.742 90 279 90.2582 279 90.5769V101.423C279 101.742 278.742 102 278.423 102V102Z" fill="#006BFF"/>
<path fill-rule="evenodd" clip-rule="evenodd" d="M529.62 91.3305C529.128 91.3305 528.631 91.4438 528.182 91.6705C527.888 91.8187 527.193 92.2309 527.063 92.8584C526.929 93.5066 527.426 94.221 527.868 94.7063C528.738 95.665 529.802 96.3918 530.952 96.8462C531.937 95.8689 532.524 94.7232 532.287 93.4188C532.104 92.4067 531.467 91.8934 530.965 91.6409C530.554 91.4336 530.09 91.3305 529.62 91.3305ZM523.66 102C523.377 102 523.113 101.812 523.027 101.523C522.924 101.17 523.124 100.799 523.471 100.694C524.755 100.308 527.674 99.3235 529.813 97.796C528.732 97.2702 527.734 96.5318 526.896 95.6078C525.951 94.5675 525.573 93.5508 525.773 92.5858C525.949 91.7302 526.595 90.9818 527.591 90.4781C528.831 89.8517 530.35 89.8401 531.555 90.4476C532.643 90.9961 533.364 91.9656 533.584 93.1775C533.872 94.7526 533.34 96.1092 532.372 97.2596C533.232 97.424 534.113 97.4393 534.975 97.2909C537.145 96.9162 538.835 95.5394 539.734 93.4137C539.877 93.0751 540.264 92.918 540.598 93.0629C540.935 93.2075 541.091 93.5995 540.946 93.9379C539.864 96.494 537.824 98.1517 535.197 98.6053C533.887 98.831 532.539 98.7355 531.258 98.3566C529.009 100.229 525.725 101.408 523.849 101.972C523.786 101.991 523.722 102 523.66 102V102Z" fill="#240448"/>
<path fill-rule="evenodd" clip-rule="evenodd" d="M539 116C539 116 495.579 115.98 495.532 116H485.129C485.016 115.344 484.976 114.674 485.014 114.006V114.004C485.018 113.95 485.02 113.896 485.025 113.842C485.029 113.789 485.032 113.753 485.034 113.739C485.167 112.845 485.367 111.962 485.634 111.098C486.005 109.89 486.522 108.699 487.211 107.626C488.031 106.346 489.095 105.235 490.448 104.462C491.764 103.712 493.219 103.177 494.708 102.927C497.172 102.51 499.725 102.87 501.882 104.316C503.177 105.186 504.377 106.529 506.01 106.738C508.508 107.058 509.165 104.35 509.367 102.476C509.916 97.4277 510.349 89.5625 516.602 88.1101C517.706 87.853 518.646 88.0646 519.435 88.5538C520.99 89.5168 521.974 91.5582 522.536 93.2329C523.443 95.9381 523.94 98.8692 525.071 101.489C525.911 103.428 527.575 104.604 529.762 104.315C530.495 104.218 531.206 104.282 531.879 104.467C533.437 104.895 534.803 105.978 535.829 107.267C536.198 107.729 536.523 108.217 536.798 108.71C537.998 110.868 538.511 113.586 539 116" fill="#DCE5F7"/>
<path fill-rule="evenodd" clip-rule="evenodd" d="M234 82H76.0207C75.9637 80.8252 76.0251 79.557 76.1958 78.2368V78.2346C76.6985 74.3192 78.1545 69.948 80.2907 66.2007C83.63 60.3323 88.6371 55.9928 94.2584 57.3334C95.9805 57.7417 97.7594 58.6855 99.5656 60.2801C102.273 62.6711 104.452 65.6063 107.134 68.0267C109.814 70.447 113.245 72.3911 116.85 72.1281C121.368 71.8013 124.614 67.7726 125.29 63.5284C126.917 53.3183 126.814 33.1478 139.617 30.353C139.858 30.3009 140.1 30.2533 140.336 30.2148C151.273 28.3478 158.819 39.0047 161.732 48.5525C162.063 49.6368 162.335 50.7074 162.543 51.7442C163.139 54.2394 163.366 56.9615 163.466 59.7198C163.483 59.8945 163.503 60.0669 163.523 60.2393C163.611 60.9788 163.709 61.7114 163.832 62.4329C164.139 64.2113 164.592 65.908 165.349 67.4052C165.637 67.9813 166.045 68.5757 166.672 68.7276C168.419 69.1495 169.886 67.1306 170.886 65.5224C171.169 65.071 171.414 64.6513 171.619 64.3269C174.79 59.3047 183.547 55.9566 187.502 61.9792C190.262 66.1892 187.966 74.3919 193.716 76.4879C200.311 78.8924 201.971 70.2453 202.559 65.8105C203.279 60.3618 203.16 54.7792 204.77 49.4758C205.452 47.8879 206.589 46.0731 208.409 45.8463C210.229 45.8463 211.821 47.2074 212.508 48.7976C214.524 53.6836 215.081 58.9555 215.816 64.1432C216.417 68.351 217.236 77.6356 222.848 78.1575C225.829 78.4319 228.523 73.1283 231.286 75.4784C233.037 76.9688 232.944 80.0855 234 82" fill="#DCE5F7"/>
<path fill-rule="evenodd" clip-rule="evenodd" d="M291 36H359C358.543 30.3464 354.817 20.7038 354.123 19.5925C353.84 19.143 353.595 18.725 353.39 18.402C350.216 13.4012 341.461 10.0672 337.505 16.0643C334.744 20.2565 337.041 28.4242 331.289 30.5113C324.694 32.9056 323.033 24.2953 322.446 19.8793C321.723 14.4538 321.845 8.89491 320.235 3.61388C319.552 2.0329 318.415 0.225854 316.595 0C314.773 0 313.18 1.35512 312.495 2.93851C310.479 7.80402 309.922 13.0533 309.187 18.2192C308.586 22.4091 307.766 31.6542 302.154 32.1736C299.172 32.4471 296.475 27.166 293.715 29.5062C291.963 30.9902 292.056 34.0936 291 36" fill="#DCE5F7"/>
<path fill-rule="evenodd" clip-rule="evenodd" d="M74.3617 81.3664C74.5174 81.3965 74.6738 81.4171 74.8302 81.4262C75.6639 81.4762 76.4168 81.197 77.0637 80.5965C77.3161 80.3623 77.6371 79.9828 77.7328 79.5061C77.8435 78.9527 77.5873 78.3222 77.1228 78.0069C76.6583 77.6916 75.9829 77.6891 75.5163 78.0009C75.0349 78.3226 74.7089 78.9477 74.5195 79.9121C74.4221 80.4084 74.3696 80.8954 74.3617 81.3664ZM80.2436 88C77.3919 88.0002 74.6233 86.7256 73.6371 83.967C73.4433 83.425 73.3184 82.8424 73.2632 82.2319C72.0755 81.7862 70.8851 80.9232 69.8957 79.76C68.8159 78.4909 68.1258 76.9829 68.0024 75.6224C67.9739 75.3088 68.203 75.0311 68.5137 75.0026C68.825 74.9727 69.0998 75.2046 69.1283 75.5183C69.2295 76.6318 69.837 77.9397 70.7538 79.0173C71.3715 79.7436 72.2602 80.5168 73.2446 80.9874C73.2691 80.5623 73.3243 80.129 73.4103 79.6904C73.6611 78.4121 74.1457 77.5484 74.8916 77.05C75.7368 76.4857 76.9139 76.4902 77.7543 77.0608C78.595 77.6318 79.0418 78.7301 78.8411 79.7319C78.7179 80.3468 78.368 80.936 77.829 81.436C76.9478 82.2536 75.9158 82.6325 74.7637 82.5647C74.6559 82.5584 74.5475 82.5478 74.4384 82.5332C74.4952 82.8992 74.5828 83.2494 74.701 83.5802C75.9102 86.963 80.1813 87.3016 82.8279 86.4615C82.918 86.4329 83.0074 86.4028 83.0961 86.3706C83.8494 86.0987 84.5172 85.73 85.0811 85.2745C85.3246 85.0775 85.6807 85.1172 85.8758 85.3633C86.0711 85.609 86.0318 85.9681 85.788 86.1649C85.1259 86.6993 84.3486 87.1299 83.4773 87.4445C83.3748 87.4815 83.2713 87.5165 83.1674 87.5493C82.2303 87.8468 81.2316 88 80.2436 88V88Z" fill="#240448"/>
<path fill-rule="evenodd" clip-rule="evenodd" d="M260 252H245V194.2L252.5 186L260 194.2V252" fill="white"/>
<path fill-rule="evenodd" clip-rule="evenodd" d="M284 252H269V194.2L276.5 186L284 194.2V252" fill="white"/>
<path fill-rule="evenodd" clip-rule="evenodd" d="M308 252H293V194.2L300.5 186L308 194.2V252" fill="white"/>
<path fill-rule="evenodd" clip-rule="evenodd" d="M331 252H316V194.2L323.499 186L331 194.2V252" fill="white"/>
<path fill-rule="evenodd" clip-rule="evenodd" d="M355 252H340V194.2L347.5 186L355 194.2V252" fill="white"/>
<path fill-rule="evenodd" clip-rule="evenodd" d="M592.442 252H565.558C565.25 252 565 251.776 565 251.5C565 251.224 565.25 251 565.558 251H592.442C592.75 251 593 251.224 593 251.5C593 251.776 592.75 252 592.442 252" fill="#240448"/>
<path fill-rule="evenodd" clip-rule="evenodd" d="M556.448 252H378.552C378.245 252 378 251.776 378 251.5C378 251.224 378.245 251 378.552 251H556.448C556.753 251 557 251.224 557 251.5C557 251.776 556.753 252 556.448 252" fill="#240448"/>
<path fill-rule="evenodd" clip-rule="evenodd" d="M362.448 252H274.552C274.245 252 274 251.776 274 251.5C274 251.224 274.245 251 274.552 251H362.448C362.753 251 363 251.224 363 251.5C363 251.776 362.753 252 362.448 252" fill="#240448"/>
<path fill-rule="evenodd" clip-rule="evenodd" d="M258.446 252H179.554C179.248 252 179 251.776 179 251.5C179 251.224 179.248 251 179.554 251H258.446C258.752 251 259 251.224 259 251.5C259 251.776 258.752 252 258.446 252" fill="#240448"/>
<path fill-rule="evenodd" clip-rule="evenodd" d="M188.448 252H41.5515C41.2469 252 41 251.776 41 251.5C41 251.224 41.2469 251 41.5515 251H188.448C188.753 251 189 251.224 189 251.5C189 251.776 188.753 252 188.448 252" fill="#240448"/>
<path fill-rule="evenodd" clip-rule="evenodd" d="M25.4377 252H0.562313C0.251691 252 0 251.776 0 251.5C0 251.224 0.251691 251 0.562313 251H25.4377C25.7483 251 26 251.224 26 251.5C26 251.776 25.7483 252 25.4377 252" fill="#240448"/>
<path fill-rule="evenodd" clip-rule="evenodd" d="M469.876 84.1798L387.962 101.13C365.501 105.778 343.522 91.3438 338.87 68.8907C334.221 46.4376 348.662 24.468 371.124 19.8202L453.038 2.87019C475.499 -1.77763 497.478 12.6562 502.13 35.1093C506.779 57.5622 492.338 79.532 469.876 84.1798" fill="#72ACFF"/>
<path fill-rule="evenodd" clip-rule="evenodd" d="M499.468 14.0995C498.168 14.0995 496.849 14.23 495.526 14.5018L411.596 31.7438C401.108 33.8983 394.343 44.1183 396.515 54.5258C397.565 59.5677 400.532 63.9012 404.869 66.7281C409.205 69.5552 414.39 70.5373 419.469 69.4936L503.399 52.2518L503.512 52.7901L503.399 52.2518C508.48 51.2081 512.848 48.2635 515.695 43.9606C518.545 39.6577 519.533 34.5114 518.483 29.4696C516.586 20.3748 508.48 14.0995 499.468 14.0995ZM415.492 71C411.527 71 407.65 69.8567 404.259 67.6471C399.677 64.6587 396.541 60.0781 395.429 54.7488C393.133 43.7475 400.286 32.9445 411.372 30.667L495.302 13.4251C506.386 11.1484 517.273 18.2452 519.567 29.2468C520.679 34.576 519.633 40.0159 516.622 44.5642C513.61 49.1128 508.995 52.2254 503.625 53.3284L419.695 70.5705C418.295 70.8579 416.888 71 415.492 71V71Z" fill="#240448"/>
<path fill-rule="evenodd" clip-rule="evenodd" d="M363.659 92.6559L355.19 94.4319C340.716 97.4664 326.556 88.0423 323.561 73.3827C320.564 58.723 329.868 44.3787 344.34 41.344L352.81 39.5682C367.282 36.5335 381.442 45.9575 384.439 60.6172C387.434 75.2771 378.131 89.6211 363.659 92.6559" fill="#001E57"/>
<path fill-rule="evenodd" clip-rule="evenodd" d="M362.868 60.5396L361.23 60.8884C358.43 61.4846 355.688 59.6335 355.109 56.7538C354.528 53.8741 356.329 51.0566 359.129 50.4604L360.77 50.1116C363.57 49.5154 366.312 51.3665 366.891 54.2462C367.472 57.1259 365.671 59.9434 362.868 60.5396" fill="#006BFF"/>
<path fill-rule="evenodd" clip-rule="evenodd" d="M339 64L340.415 66.9088L343 68.5L340.415 70.0909L339 73L337.585 70.0909L335 68.5L337.585 66.9088L339 64" fill="white"/>
<path fill-rule="evenodd" clip-rule="evenodd" d="M347.5 72L349.799 76.2018L354 78.5L349.799 80.798L347.5 85L345.203 80.798L341 78.5L345.203 76.2018L347.5 72" fill="white"/>
<path fill-rule="evenodd" clip-rule="evenodd" d="M163.044 177C162.053 177 161.047 176.764 160.118 176.266C157.197 174.704 156.14 171.149 157.759 168.326L159.661 165.011C161.278 162.19 164.959 161.169 167.882 162.733C170.803 164.295 171.86 167.85 170.241 170.673L168.342 173.988C167.238 175.912 165.172 177 163.044 177" fill="#FFBFAA"/>
<path fill-rule="evenodd" clip-rule="evenodd" d="M153.118 174C152.355 174 151.617 173.599 151.24 172.9C150.7 171.897 151.102 170.663 152.14 170.141L159.905 166.232C160.943 165.71 162.22 166.098 162.76 167.101C163.3 168.102 162.898 169.338 161.863 169.859L154.095 173.769C153.783 173.926 153.45 174 153.118 174" fill="#FFBFAA"/>
<path fill-rule="evenodd" clip-rule="evenodd" d="M153.102 180C152.371 180 151.659 179.625 151.274 178.955C150.701 177.968 151.056 176.712 152.064 176.151L160.864 171.268C161.874 170.707 163.156 171.055 163.726 172.044C164.299 173.032 163.944 174.287 162.934 174.848L154.137 179.731C153.808 179.913 153.453 180 153.102 180" fill="#FFBFAA"/>
<path fill-rule="evenodd" clip-rule="evenodd" d="M156.088 183C155.413 183 154.754 182.666 154.352 182.047C153.712 181.06 153.969 179.726 154.927 179.067L161.756 174.362C162.713 173.703 164.008 173.968 164.648 174.955C165.288 175.942 165.031 177.276 164.073 177.935L157.244 182.639C156.888 182.884 156.485 183 156.088 183" fill="#FFBFAA"/>
<path fill-rule="evenodd" clip-rule="evenodd" d="M160 234.147L162.781 236.64L166.554 234.666L168.47 236.386L167.153 240.564L178.786 251L180.526 249.133C181.428 248.166 181.907 246.914 181.907 245.639C181.907 245.072 181.812 244.498 181.618 243.945L179.546 238.069L182 232.344L177.783 228.946L170.398 223L168.17 225.39L163.623 230.263L161.742 232.281L160 234.147" fill="#001E57"/>
<path fill-rule="evenodd" clip-rule="evenodd" d="M236.163 172L211.477 158.033L201 136.208L211.722 131L220.572 149.438L242 161.562L236.163 172" fill="#001E57"/>
<path fill-rule="evenodd" clip-rule="evenodd" d="M242.423 175L237 172.827L241.577 162L247 164.173L242.423 175" fill="#FFBFAA"/>
<path fill-rule="evenodd" clip-rule="evenodd" d="M250.929 178C250.681 178 250.427 177.956 250.181 177.862L242.319 174.893C241.255 174.49 240.727 173.323 241.141 172.285C241.555 171.247 242.755 170.736 243.82 171.137L251.678 174.108C252.745 174.511 253.273 175.678 252.859 176.714C252.541 177.511 251.758 178 250.929 178" fill="#FFBFAA"/>
<path fill-rule="evenodd" clip-rule="evenodd" d="M254.848 175C254.596 175 254.342 174.955 254.092 174.861L244.396 171.196C243.283 170.776 242.719 169.525 243.139 168.407C243.555 167.287 244.795 166.718 245.908 167.138L255.604 170.805C256.717 171.225 257.281 172.474 256.861 173.594C256.538 174.463 255.72 175 254.848 175" fill="#FFBFAA"/>
<path fill-rule="evenodd" clip-rule="evenodd" d="M254.923 171C254.729 171 254.533 170.972 254.338 170.909L246.492 168.412C245.392 168.062 244.762 166.811 245.084 165.618C245.407 164.425 246.559 163.742 247.66 164.092L255.508 166.589C256.608 166.939 257.238 168.19 256.916 169.383C256.649 170.363 255.822 171 254.923 171" fill="#FFBFAA"/>
<path fill-rule="evenodd" clip-rule="evenodd" d="M244.165 167C243.267 167 242.43 166.463 242.12 165.609C241.728 164.533 242.327 163.356 243.458 162.984L249.127 161.114C250.258 160.741 251.49 161.313 251.881 162.389C252.271 163.467 251.672 164.642 250.543 165.014L244.874 166.884C244.638 166.961 244.401 167 244.165 167" fill="#FFBFAA"/>
<path fill-rule="evenodd" clip-rule="evenodd" d="M236.086 173C235.69 173 235.288 172.886 234.933 172.65C233.972 172.008 233.711 170.706 234.348 169.741L240.17 160.938C240.81 159.972 242.106 159.71 243.067 160.351C244.028 160.992 244.289 162.294 243.65 163.26L237.828 172.063C237.428 172.67 236.762 173 236.086 173" fill="#001E57"/>
<path fill-rule="evenodd" clip-rule="evenodd" d="M231.078 166.024C230.815 166.811 231.239 167.661 232.025 167.923C232.812 168.185 233.66 167.76 233.922 166.976C234.185 166.189 233.761 165.341 232.975 165.077C232.19 164.815 231.34 165.24 231.078 166.024" fill="white"/>
<path fill-rule="evenodd" clip-rule="evenodd" d="M221 252H224.696L226.131 248.019H228.681L230.509 252H245.976L246 249.453V249.403C246 247.516 244.976 245.779 243.33 244.875L237.89 241.888L235.975 236.34L235.858 236L230.506 236.287L229.831 236.325L221.142 236.79L221.113 239.953L221.048 246.838L221.022 249.453L221 252" fill="#001E57"/>
<path fill-rule="evenodd" clip-rule="evenodd" d="M220.629 237L216 216.801L232.373 213L237 233.199L220.629 237" fill="#001E57"/>
<path fill-rule="evenodd" clip-rule="evenodd" d="M223.638 223C219.835 223 216.397 220.414 215.506 216.592L210.446 194.878L193.134 178.887C189.981 175.975 188.147 171.859 188.1 167.591L188 158.353C187.952 153.789 191.65 150.049 196.263 150.001C196.294 150 196.323 150 196.354 150C200.926 150 204.655 153.642 204.704 158.176L204.799 167.052L223.709 184.518C224.924 185.642 225.773 187.098 226.149 188.703L231.785 212.878C232.82 217.325 230.018 221.762 225.522 222.787C224.891 222.932 224.26 223 223.638 223" fill="#001E57"/>
<path fill-rule="evenodd" clip-rule="evenodd" d="M220.084 238C218.961 238 218.034 237.043 218.001 235.835C217.966 234.603 218.872 233.574 220.023 233.537L236.853 233C236.873 233 236.894 233 236.916 233C238.039 233 238.966 233.957 238.999 235.165C239.034 236.397 238.128 237.426 236.977 237.463L220.147 237.998C220.127 238 220.106 238 220.084 238" fill="#001E57"/>
<path fill-rule="evenodd" clip-rule="evenodd" d="M183.691 232L170 222.203L180.309 208L194 217.794L183.691 232" fill="#001E57"/>
<path fill-rule="evenodd" clip-rule="evenodd" d="M187.339 221C185.649 221 183.943 220.494 182.467 219.439C178.727 216.766 177.881 211.597 180.575 207.889L191.542 192.798L198.546 164.317C199.636 159.877 204.153 157.155 208.629 158.238C213.108 159.32 215.853 163.797 214.76 168.236L207.372 198.287C207.117 199.322 206.664 200.3 206.036 201.165L194.116 217.563C192.486 219.807 189.93 221 187.339 221" fill="#001E57"/>
<path fill-rule="evenodd" clip-rule="evenodd" d="M206.542 175H196.458C191.788 175 188 171.194 188 166.499C188 161.806 191.788 158 196.458 158H206.542C211.212 158 215 161.806 215 166.499C215 171.194 211.212 175 206.542 175" fill="#001E57"/>
<path fill-rule="evenodd" clip-rule="evenodd" d="M182.928 234C182.534 234 182.135 233.885 181.781 233.643L168.921 224.875C167.971 224.227 167.714 222.913 168.348 221.941C168.984 220.97 170.268 220.708 171.219 221.355L184.079 230.124C185.029 230.773 185.286 232.086 184.652 233.057C184.254 233.67 183.596 234 182.928 234" fill="#001E57"/>
<path fill-rule="evenodd" clip-rule="evenodd" d="M188.067 159.384L215.03 166L218.741 147.121C219.841 141.162 217.384 135.044 212.336 131.652C209.847 129.978 206.843 129 203.61 129C194.99 129 188 135.952 188 144.528L188.067 159.384" fill="#001E57"/>
<path fill-rule="evenodd" clip-rule="evenodd" d="M210.961 132.399L211.558 125.014L211.992 118C212.121 115.926 210.592 114.14 208.576 114.009C208.417 113.997 208.259 113.997 208.104 114.008C206.606 114.106 205.33 115.141 204.869 116.577C204.773 116.875 204.712 117.19 204.69 117.52L204.002 128.61C203.873 130.681 210.835 134.472 210.961 132.399" fill="#FFBFAA"/>
<path fill-rule="evenodd" clip-rule="evenodd" d="M202.29 126L212 131.383L210.663 133L202 131.751L202.29 126" fill="white"/>
<path fill-rule="evenodd" clip-rule="evenodd" d="M212.762 123.681V123.681C215.165 122.951 216.528 120.39 215.807 117.961L214.723 114.313C213.771 111.112 210.434 109.296 207.267 110.257C204.101 111.219 202.303 114.594 203.255 117.795L203.508 118.646C204.688 122.62 208.832 124.874 212.762 123.681" fill="#FFBFAA"/>
<path fill-rule="evenodd" clip-rule="evenodd" d="M215 115L217.84 118.507C218.161 118.904 217.971 119.578 217.515 119.648L215.248 120L215 115" fill="#FFBFAA"/>
<path fill-rule="evenodd" clip-rule="evenodd" d="M209.094 113.987C209.094 113.987 209.068 115.129 208.858 115.654C208.588 116.335 208.023 116.762 207.319 116.911C206.434 117.097 205.401 116.95 204.507 116.845C202.482 116.607 200.058 114.927 201.374 112.572C201.819 111.772 202.754 111.263 203.648 111.394C203.044 111.403 202.427 111.138 202.065 110.646C201.703 110.154 201.64 109.433 201.967 108.917C202.342 108.327 203.123 108.117 203.805 108.23C204.487 108.343 205.096 108.716 205.686 109.082C205.976 108.224 206.622 107.478 207.459 107.161C208.294 106.844 209.307 106.996 209.964 107.611C210.173 107.807 210.352 108.061 210.378 108.35C210.404 108.638 210.238 108.957 209.961 109.026C209.942 108.154 210.596 107.315 211.435 107.136C212.274 106.958 213.205 107.46 213.53 108.268C213.615 108.483 213.656 108.726 213.637 108.959C213.554 109.135 213.358 109.428 213.338 109.585C214.243 109.868 216.24 109.02 215.305 107.774C216.405 107.763 217.537 108.716 217.877 109.721C218.16 110.56 217.936 111.432 217.391 112.105C216.196 113.584 214.175 113.62 212.451 113.687C211.463 113.725 209.49 113.929 209.49 113.929L209.118 113.982L209.094 113.987" fill="#006BFF"/>
<path fill-rule="evenodd" clip-rule="evenodd" d="M215.444 167C215.4 167 215.355 166.995 215.311 166.984L188.423 160.13C188.125 160.055 187.943 159.744 188.016 159.436C188.089 159.129 188.391 158.94 188.689 159.017L215.577 165.869C215.875 165.945 216.057 166.257 215.984 166.564C215.919 166.826 215.693 167 215.444 167" fill="white"/>
<path fill-rule="evenodd" clip-rule="evenodd" d="M205 163.999C205 165.657 206.343 167 208.001 167C209.657 167 211 165.657 211 163.999C211 162.343 209.657 161 208.001 161C206.343 161 205 162.343 205 163.999" fill="white"/>
<path fill-rule="evenodd" clip-rule="evenodd" d="M212.451 199C212.32 199 212.186 198.951 212.081 198.85L193.175 180.972C192.954 180.761 192.941 180.407 193.144 180.181C193.35 179.952 193.696 179.939 193.919 180.149L212.823 198.027C213.047 198.238 213.06 198.592 212.854 198.818C212.747 198.939 212.6 199 212.451 199" fill="white"/>
<path fill-rule="evenodd" clip-rule="evenodd" d="M216.373 119.953C216.08 119.693 215.676 119.49 215.148 119.372C214.423 119.209 213.64 119.308 212.968 119.615C212.218 119.956 211.564 120.448 210.705 120.099C210.381 119.968 210.091 119.775 209.8 119.588C209.099 119.136 208.449 118.591 207.866 118.005C207.866 118.003 207.864 118.002 207.861 118C207.861 118 204.068 119.18 204.066 119.18C203.691 119.36 205.035 121.221 205.166 121.415C206.47 123.33 208.684 124.767 211.12 124.972C212.504 125.088 214.01 124.847 215.217 124.173C216.848 123.264 217.642 121.079 216.373 119.953" fill="#006BFF"/>
<path fill-rule="evenodd" clip-rule="evenodd" d="M203.006 118.192C203.114 119.845 204.538 121.1 206.193 120.994C207.845 120.888 209.099 119.462 208.994 117.808C208.886 116.155 207.46 114.9 205.807 115.006C204.155 115.112 202.901 116.538 203.006 118.192" fill="#FFBFAA"/>
<path fill-rule="evenodd" clip-rule="evenodd" d="M177.02 152C174.787 152 172.642 150.736 171.604 148.567C170.155 145.541 171.403 141.899 174.391 140.432L192.36 131.612C195.349 130.144 198.945 131.408 200.396 134.434C201.845 137.459 200.597 141.101 197.609 142.568L179.64 151.388C178.794 151.803 177.899 152 177.02 152" fill="#001E57"/>
<path fill-rule="evenodd" clip-rule="evenodd" d="M163.206 184C162.959 184 162.708 183.959 162.461 183.877C161.315 183.487 160.719 182.29 161.13 181.206L163.718 174.383C164.13 173.299 165.392 172.734 166.539 173.123C167.685 173.513 168.281 174.71 167.87 175.794L165.282 182.617C164.96 183.468 164.111 184 163.206 184" fill="#FFBFAA"/>
<path fill-rule="evenodd" clip-rule="evenodd" d="M170.726 171L160 165.08L172.274 143L183 148.919L170.726 171" fill="#001E57"/>
<path fill-rule="evenodd" clip-rule="evenodd" d="M169.829 173C169.468 173 169.105 172.908 168.768 172.714L159.105 167.152C158.062 166.551 157.692 165.198 158.279 164.132C158.866 163.063 160.189 162.684 161.232 163.287L170.895 168.849C171.938 169.449 172.308 170.802 171.721 171.869C171.322 172.591 170.586 173 169.829 173" fill="#001E57"/>
<path fill-rule="evenodd" clip-rule="evenodd" d="M164.118 160.918C163.796 161.682 164.155 162.561 164.919 162.883C165.683 163.203 166.562 162.844 166.882 162.08C167.204 161.318 166.845 160.438 166.081 160.117C165.317 159.797 164.438 160.155 164.118 160.918" fill="white"/>
<path fill-rule="evenodd" clip-rule="evenodd" d="M244.025 170C243.53 170 242.99 169.918 242.41 169.755C242.113 169.67 241.939 169.355 242.02 169.05C242.102 168.746 242.408 168.567 242.707 168.652C243.915 168.993 244.846 168.906 245.47 168.391C246.559 167.499 246.498 165.524 246.498 165.503C246.485 165.233 246.659 164.991 246.913 164.922L250.301 164.018C250.6 163.94 250.904 164.123 250.982 164.428C251.06 164.734 250.881 165.048 250.582 165.126L247.605 165.92C247.56 166.718 247.324 168.336 246.168 169.286C245.586 169.762 244.87 170 244.025 170" fill="#001E57"/>
<path fill-rule="evenodd" clip-rule="evenodd" d="M196 118L226 109.643L213.72 107L201.991 110.506L196 118" fill="#001E57"/>
<path fill-rule="evenodd" clip-rule="evenodd" d="M201.335 110V110C200.314 107.484 201.721 104.619 204.277 104.003L207.963 103.114C210.179 102.58 212.403 103.967 212.998 106.253L213 106.264L201.335 110" fill="#001E57"/>
<path fill-rule="evenodd" clip-rule="evenodd" d="M130.245 201.016L166.714 210.776L172.754 188.984L136.285 179.224L130.245 201.016ZM167.107 212C167.058 212 167.009 211.993 166.96 211.98L129.412 201.932C129.269 201.895 129.148 201.801 129.074 201.675C129 201.548 128.981 201.398 129.02 201.258L135.353 178.404C135.434 178.112 135.742 177.94 136.039 178.019L173.588 188.069C173.731 188.107 173.852 188.199 173.926 188.326C174 188.452 174.02 188.601 173.98 188.742L167.646 211.596C167.579 211.84 167.353 212 167.107 212V212Z" fill="#001E57"/>
<path fill-rule="evenodd" clip-rule="evenodd" d="M147.571 182C147.521 182 147.471 181.994 147.42 181.981C147.117 181.904 146.936 181.609 147.021 181.324C147.103 181.037 147.206 180.751 147.322 180.471C148.208 178.336 149.927 176.653 152.165 175.731C154.402 174.809 156.889 174.757 159.167 175.587C160.604 176.111 161.884 176.971 162.866 178.071C163.069 178.297 163.037 178.635 162.795 178.826C162.553 179.014 162.193 178.984 161.992 178.757C161.131 177.795 160.012 177.042 158.754 176.584C156.761 175.857 154.583 175.902 152.626 176.708C150.667 177.517 149.16 178.988 148.386 180.858C148.283 181.104 148.194 181.354 148.121 181.606C148.051 181.844 147.822 182 147.571 182" fill="#001E57"/>
<path fill-rule="evenodd" clip-rule="evenodd" d="M198.963 18L197 19.0533L197.234 19.9808L198.797 19.1365H198.825V27H200V18H198.963" fill="#CFE4FF"/>
<path fill-rule="evenodd" clip-rule="evenodd" d="M205.993 25.9869C204.905 25.9869 204.197 24.559 204.197 22.0447C204.197 19.4112 204.959 18.0108 206.007 18.0108C207.246 18.0108 207.803 19.5739 207.803 21.9553C207.803 24.4261 207.219 25.9869 205.993 25.9869ZM206.074 17C204.278 17 203 18.7855 203 22.0286C203.027 25.2283 204.197 27 205.926 27C207.885 27 209 25.1847 209 21.8957C209 18.8153 207.94 17 206.074 17V17Z" fill="#006BFF"/>
<path fill-rule="evenodd" clip-rule="evenodd" d="M212.993 25.9869C211.905 25.9869 211.197 24.559 211.197 22.0447C211.197 19.4112 211.959 18.0108 213.005 18.0108C214.244 18.0108 214.801 19.5739 214.801 21.9553C214.801 24.4261 214.217 25.9869 212.993 25.9869ZM213.074 17C211.278 17 210 18.7855 210 22.0286C210.027 25.2283 211.197 27 212.926 27C214.883 27 216 25.1847 216 21.8957C216 18.8153 214.937 17 213.074 17V17Z" fill="#CFE4FF"/>
<path fill-rule="evenodd" clip-rule="evenodd" d="M220.963 18L219 19.0533L219.234 19.9808L220.797 19.1365H220.825V27H222V18H220.963" fill="#CFE4FF"/>
<path fill-rule="evenodd" clip-rule="evenodd" d="M227.993 25.9869C226.905 25.9869 226.197 24.559 226.197 22.0447C226.197 19.4112 226.959 18.0108 228.007 18.0108C229.246 18.0108 229.803 19.5739 229.803 21.9553C229.803 24.4261 229.219 25.9869 227.993 25.9869ZM228.074 17C226.278 17 225 18.7855 225 22.0286C225.027 25.2283 226.197 27 227.926 27C229.885 27 231 25.1847 231 21.8957C231 18.8153 229.94 17 228.074 17V17Z" fill="#CFE4FF"/>
<path fill-rule="evenodd" clip-rule="evenodd" d="M234.963 18L233 19.0533L233.234 19.9808L234.797 19.1365H234.825V27H236V18H234.963" fill="#CFE4FF"/>
<path fill-rule="evenodd" clip-rule="evenodd" d="M242.993 25.9869C241.905 25.9869 241.197 24.559 241.197 22.0447C241.197 19.4112 241.959 18.0108 243.007 18.0108C244.246 18.0108 244.803 19.5739 244.803 21.9553C244.803 24.4261 244.219 25.9869 242.993 25.9869ZM243.074 17C241.278 17 240 18.7855 240 22.0286C240.027 25.2283 241.197 27 242.926 27C244.885 27 246 25.1847 246 21.8957C246 18.8153 244.94 17 243.074 17V17Z" fill="#CFE4FF"/>
<path fill-rule="evenodd" clip-rule="evenodd" d="M249.963 18L248 19.0533L248.236 19.9808L249.797 19.1365H249.825V27H251V18H249.963" fill="#CFE4FF"/>
<path fill-rule="evenodd" clip-rule="evenodd" d="M257.994 25.9869C256.904 25.9869 256.198 24.559 256.198 22.0447C256.198 19.4112 256.959 18.0108 258.006 18.0108C259.244 18.0108 259.802 19.5739 259.802 21.9553C259.802 24.4261 259.217 25.9869 257.994 25.9869ZM260.34 18.4829C259.844 17.5226 259.075 17 258.075 17C256.28 17 255 18.7855 255 22.0286C255.027 25.2283 256.198 27 257.925 27C258.76 27 259.439 26.67 259.948 26.0374C260.631 25.1847 261 23.7843 261 21.8957C261 20.4678 260.772 19.3126 260.34 18.4829V18.4829Z" fill="#CFE4FF"/>
<path fill-rule="evenodd" clip-rule="evenodd" d="M191.963 2L190 3.05142L190.234 3.97915L191.797 3.13438H191.825V11H193V2H191.963" fill="#CFE4FF"/>
<path fill-rule="evenodd" clip-rule="evenodd" d="M199.993 9.98943C198.905 9.98943 198.197 8.56148 198.197 6.04458C198.197 3.41124 198.959 2.01309 200.007 2.01309C201.246 2.01309 201.803 3.57627 201.803 5.95542C201.803 8.42625 201.219 9.98943 199.993 9.98943ZM200.074 1C198.278 1 197 2.7878 197 6.03106C197.027 9.23076 198.197 11 199.926 11C201.885 11 203 9.18492 203 5.89812C203 2.8176 201.94 1 200.074 1V1Z" fill="#CFE4FF"/>
<path fill-rule="evenodd" clip-rule="evenodd" d="M206.963 2L205 3.05142L205.236 3.97915L206.797 3.13438H206.825V11H208V2H206.963" fill="#CFE4FF"/>
<path fill-rule="evenodd" clip-rule="evenodd" d="M213.994 9.98943C212.904 9.98943 212.198 8.56148 212.198 6.04458C212.198 3.41124 212.959 2.01309 214.006 2.01309C215.244 2.01309 215.802 3.57627 215.802 5.95542C215.802 8.42625 215.217 9.98943 213.994 9.98943ZM214.075 1C212.28 1 211 2.7878 211 6.03106C211.027 9.23076 212.198 11 213.925 11C215.883 11 217 9.18492 217 5.89812C217 2.8176 215.938 1 214.075 1V1Z" fill="#CFE4FF"/>
<path fill-rule="evenodd" clip-rule="evenodd" d="M221.963 2L220 3.05142L220.236 3.97915L221.797 3.13438H221.825V11H223V2H221.963" fill="#CFE4FF"/>
<path fill-rule="evenodd" clip-rule="evenodd" d="M228.993 9.98943C227.905 9.98943 227.197 8.56148 227.197 6.04458C227.197 3.41124 227.959 2.01309 229.005 2.01309C230.244 2.01309 230.801 3.57627 230.801 5.95542C230.801 8.42625 230.217 9.98943 228.993 9.98943ZM229.074 1C227.278 1 226 2.7878 226 6.03106C226.027 9.23076 227.197 11 228.926 11C230.883 11 232 9.18492 232 5.89812C232 2.8176 230.937 1 229.074 1V1Z" fill="#CFE4FF"/>
<path fill-rule="evenodd" clip-rule="evenodd" d="M235.963 2L234 3.05142L234.234 3.97915L235.797 3.13438H235.825V11H237V2H235.963" fill="#006BFF"/>
<path fill-rule="evenodd" clip-rule="evenodd" d="M243.993 9.98943C242.905 9.98943 242.197 8.56148 242.197 6.04458C242.197 3.41124 242.959 2.01309 244.007 2.01309C245.246 2.01309 245.803 3.57627 245.803 5.95542C245.803 8.42625 245.219 9.98943 243.993 9.98943ZM244.074 1C242.278 1 241 2.7878 241 6.03106C241.027 9.23076 242.197 11 243.926 11C245.885 11 247 9.18492 247 5.89812C247 2.8176 245.94 1 244.074 1V1Z" fill="#CFE4FF"/>
<path fill-rule="evenodd" clip-rule="evenodd" d="M250.963 2L249 3.05142L249.234 3.97915L250.797 3.13438H250.825V11H252V2H250.963" fill="#006BFF"/>
<path fill-rule="evenodd" clip-rule="evenodd" d="M258.993 9.98943C257.905 9.98943 257.197 8.56148 257.197 6.04458C257.197 3.41124 257.959 2.01309 259.007 2.01309C260.246 2.01309 260.803 3.57627 260.803 5.95542C260.803 8.42625 260.219 9.98943 258.993 9.98943ZM259.074 1C257.278 1 256 2.7878 256 6.03106C256.027 9.23076 257.197 11 258.926 11C260.885 11 262 9.18492 262 5.89812C262 2.8176 260.94 1 259.074 1V1Z" fill="#CFE4FF"/>
<path fill-rule="evenodd" clip-rule="evenodd" d="M265.993 9.98943C264.905 9.98943 264.197 8.56148 264.197 6.04458C264.197 3.41124 264.959 2.01309 266.005 2.01309C267.244 2.01309 267.803 3.57627 267.803 5.95542C267.803 8.42625 267.217 9.98943 265.993 9.98943ZM266.074 1C264.278 1 263 2.7878 263 6.03106C263.027 9.23076 264.197 11 265.926 11C267.883 11 269 9.18492 269 5.89812C269 2.8176 267.937 1 266.074 1V1Z" fill="#CFE4FF"/>
<path fill-rule="evenodd" clip-rule="evenodd" d="M76.9633 150L75 151.051L75.2342 151.979L76.797 151.135H76.8247V159H78V150H76.9633" fill="#CFE4FF"/>
<path fill-rule="evenodd" clip-rule="evenodd" d="M83.9926 157.989C82.9051 157.989 82.1966 156.561 82.1966 154.045C82.1966 151.411 82.9596 150.013 84.0074 150.013C85.2457 150.013 85.8032 151.576 85.8032 153.955C85.8032 156.426 85.2187 157.989 83.9926 157.989ZM84.0743 149C82.2785 149 81 150.785 81 154.031C81.0275 157.231 82.1966 159 83.9255 159C85.8849 159 87 157.185 87 153.896C87 150.815 85.9396 149 84.0743 149V149Z" fill="#CFE4FF"/>
<path fill-rule="evenodd" clip-rule="evenodd" d="M91.9631 150L90 151.051L90.2366 151.979L91.797 151.135H91.8247V159H93V150H91.9631" fill="#CFE4FF"/>
<path fill-rule="evenodd" clip-rule="evenodd" d="M98.995 157.989C97.905 157.989 97.199 156.561 97.199 154.045C97.199 151.411 97.9595 150.013 99.0073 150.013C100.246 150.013 100.804 151.576 100.804 153.955C100.804 156.426 100.219 157.989 98.995 157.989ZM99.0765 149C97.2805 149 96 150.785 96 154.031C96.0272 157.231 97.199 159 98.9258 159C100.885 159 102 157.185 102 153.896C102 150.815 100.94 149 99.0765 149V149Z" fill="#CFE4FF"/>
<path fill-rule="evenodd" clip-rule="evenodd" d="M105.963 150L104 151.051L104.236 151.979L105.797 151.135H105.825V159H107V150H105.963" fill="#CFE4FF"/>
<path fill-rule="evenodd" clip-rule="evenodd" d="M113.994 157.989C112.904 157.989 112.198 156.561 112.198 154.045C112.198 151.411 112.959 150.013 114.006 150.013C115.244 150.013 115.802 151.576 115.802 153.955C115.802 156.426 115.217 157.989 113.994 157.989ZM114.076 149C112.28 149 111 150.785 111 154.031C111.027 157.231 112.198 159 113.925 159C115.884 159 117 157.185 117 153.896C117 150.815 115.938 149 114.076 149V149Z" fill="#CFE4FF"/>
<path fill-rule="evenodd" clip-rule="evenodd" d="M120.964 150L119 151.051L119.234 151.979L120.798 151.135H120.826V159H122V150H120.964" fill="#CFE4FF"/>
<path fill-rule="evenodd" clip-rule="evenodd" d="M128.993 157.989C127.905 157.989 127.196 156.561 127.196 154.045C127.196 151.411 127.959 150.013 129.005 150.013C130.244 150.013 130.804 151.576 130.804 153.955C130.804 156.426 130.216 157.989 128.993 157.989ZM129.075 149C127.278 149 126 150.785 126 154.031C126.027 157.231 127.196 159 128.925 159C130.883 159 132 157.185 132 153.896C132 150.815 130.938 149 129.075 149V149Z" fill="#CFE4FF"/>
<path fill-rule="evenodd" clip-rule="evenodd" d="M135.994 157.989C134.904 157.989 134.198 156.561 134.198 154.045C134.198 151.411 134.959 150.013 136.006 150.013C137.244 150.013 137.801 151.576 137.801 153.955C137.801 156.426 137.217 157.989 135.994 157.989ZM138.95 152.8C138.721 150.389 137.705 149 136.075 149C134.28 149 133 150.785 133 154.031C133.027 157.231 134.198 159 135.925 159C137.37 159 138.359 158.01 138.776 156.167C138.924 155.516 139 154.755 139 153.896C139 153.511 138.983 153.146 138.95 152.8V152.8Z" fill="#CFE4FF"/>
<path fill-rule="evenodd" clip-rule="evenodd" d="M30.9936 132.987C29.9045 132.987 29.1983 131.559 29.1983 129.045C29.1983 126.411 29.9589 125.011 31.0064 125.011C32.2443 125.011 32.8015 126.574 32.8015 128.955C32.8015 131.426 32.217 132.987 30.9936 132.987ZM31.0753 124C29.2802 124 28 125.785 28 129.029C28.0272 132.228 29.1983 134 30.9245 134C32.8832 134 34 132.185 34 128.896C34 125.815 32.9377 124 31.0753 124V124Z" fill="#CFE4FF"/>
<path fill-rule="evenodd" clip-rule="evenodd" d="M37.9624 124L36 125.054L36.2346 125.981L37.7983 125.137H37.826V133H39V124H37.9624" fill="#CFE4FF"/>
<path fill-rule="evenodd" clip-rule="evenodd" d="M45.9927 132.987C44.905 132.987 44.1969 131.559 44.1969 129.045C44.1969 126.411 44.9595 125.011 46.0052 125.011C47.2438 125.011 47.8013 126.574 47.8013 128.955C47.8013 131.426 47.2166 132.987 45.9927 132.987ZM46.0744 124C44.2784 124 43 125.785 43 129.029C43.0272 132.228 44.1969 134 45.9258 134C47.883 134 49 132.185 49 128.896C49 125.815 47.9375 124 46.0744 124V124Z" fill="#CFE4FF"/>
<path fill-rule="evenodd" clip-rule="evenodd" d="M52.9937 132.987C51.9043 132.987 51.1985 131.559 51.1985 129.045C51.1985 126.411 51.959 125.011 53.0065 125.011C54.2444 125.011 54.8019 126.574 54.8019 128.955C54.8019 131.426 54.2172 132.987 52.9937 132.987ZM53.0756 124C51.28 124 50 125.785 50 129.029C50.0272 132.228 51.1985 134 52.9246 134C54.8834 134 56 132.185 56 128.896C56 125.815 54.9378 124 53.0756 124V124Z" fill="#CFE4FF"/>
<path fill-rule="evenodd" clip-rule="evenodd" d="M60.9926 132.987C59.9049 132.987 59.1966 131.559 59.1966 129.045C59.1966 126.411 59.9596 125.011 61.0074 125.011C62.2457 125.011 62.8032 126.574 62.8032 128.955C62.8032 131.426 62.2187 132.987 60.9926 132.987ZM61.0743 124C59.2785 124 58 125.785 58 129.029C58.0275 132.228 59.1966 134 60.9255 134C62.8849 134 64 132.185 64 128.896C64 125.815 62.9394 124 61.0743 124V124Z" fill="#CFE4FF"/>
<path fill-rule="evenodd" clip-rule="evenodd" d="M67.9631 124L66 125.054L66.2342 125.981L67.7972 125.137H67.8247V133H69V124H67.9631" fill="#CFE4FF"/>
<path fill-rule="evenodd" clip-rule="evenodd" d="M74.9926 132.987C73.9049 132.987 73.1965 131.559 73.1965 129.045C73.1965 126.411 73.9593 125.011 75.0072 125.011C76.246 125.011 76.8033 126.574 76.8033 128.955C76.8033 131.426 76.2186 132.987 74.9926 132.987ZM75.0743 124C73.2782 124 72 125.785 72 129.029C72.027 132.228 73.1965 134 74.9255 134C76.885 134 78 132.185 78 128.896C78 125.815 76.9395 124 75.0743 124V124Z" fill="#CFE4FF"/>
<path fill-rule="evenodd" clip-rule="evenodd" d="M82.9927 132.987C81.905 132.987 81.1969 131.559 81.1969 129.045C81.1969 126.411 81.9595 125.011 83.0073 125.011C84.2438 125.011 84.8034 126.574 84.8034 128.955C84.8034 131.426 84.2166 132.987 82.9927 132.987ZM83.0744 124C81.2784 124 80 125.785 80 129.029C80.0272 132.228 81.1969 134 82.9258 134C84.8851 134 86 132.185 86 128.896C86 125.815 84.9396 124 83.0744 124V124Z" fill="#CFE4FF"/>
<path fill-rule="evenodd" clip-rule="evenodd" d="M89.9633 124L88 125.054L88.2342 125.981L89.797 125.137H89.8247V133H91V124H89.9633" fill="#CFE4FF"/>
<path fill-rule="evenodd" clip-rule="evenodd" d="M96.9926 132.987C95.9051 132.987 95.1966 131.559 95.1966 129.045C95.1966 126.411 95.9596 125.011 97.0074 125.011C98.246 125.011 98.8032 126.574 98.8032 128.955C98.8032 131.426 98.2187 132.987 96.9926 132.987ZM97.0743 124C95.2785 124 94 125.785 94 129.029C94.0275 132.228 95.1966 134 96.9255 134C98.8849 134 100 132.185 100 128.896C100 125.815 98.9396 124 97.0743 124V124Z" fill="#CFE4FF"/>
<path fill-rule="evenodd" clip-rule="evenodd" d="M104.963 124L103 125.054L103.237 125.981L104.797 125.137H104.825V133H106V124H104.963" fill="#CFE4FF"/>
<path fill-rule="evenodd" clip-rule="evenodd" d="M111.995 132.987C110.905 132.987 110.199 131.559 110.199 129.045C110.199 126.411 110.959 125.011 112.007 125.011C113.246 125.011 113.804 126.574 113.804 128.955C113.804 131.426 113.219 132.987 111.995 132.987ZM112.076 124C110.28 124 109 125.785 109 129.029C109.027 132.228 110.199 134 111.926 134C113.885 134 115 132.185 115 128.896C115 125.815 113.94 124 112.076 124V124Z" fill="#CFE4FF"/>
<path fill-rule="evenodd" clip-rule="evenodd" d="M118.963 124L117 125.054L117.236 125.981L118.797 125.137H118.825V133H120V124H118.963" fill="#CFE4FF"/>
<path fill-rule="evenodd" clip-rule="evenodd" d="M126.994 132.987C125.904 132.987 125.198 131.559 125.198 129.045C125.198 126.411 125.959 125.011 127.006 125.011C128.244 125.011 128.802 126.574 128.802 128.955C128.802 131.426 128.217 132.987 126.994 132.987ZM127.076 124C125.28 124 124 125.785 124 129.029C124.027 132.228 125.198 134 126.925 134C128.884 134 130 132.185 130 128.896C130 125.815 128.938 124 127.076 124V124Z" fill="#CFE4FF"/>
<path fill-rule="evenodd" clip-rule="evenodd" d="M133.993 132.987C132.905 132.987 132.196 131.559 132.196 129.045C132.196 126.411 132.96 125.011 134.007 125.011C135.246 125.011 135.803 126.574 135.803 128.955C135.803 131.426 135.219 132.987 133.993 132.987ZM134.074 124C132.278 124 131 125.785 131 129.029C131.027 132.228 132.196 134 133.925 134C135.885 134 137 132.185 137 128.896C137 125.815 135.94 124 134.074 124V124Z" fill="#CFE4FF"/>
<path fill-rule="evenodd" clip-rule="evenodd" d="M141.963 124L140 125.054L140.236 125.981L141.797 125.137H141.825V133H143V124H141.963" fill="#CFE4FF"/>
<path fill-rule="evenodd" clip-rule="evenodd" d="M148.994 132.987C147.904 132.987 147.198 131.559 147.198 129.045C147.198 126.411 147.959 125.011 149.006 125.011C150.244 125.011 150.802 126.574 150.802 128.955C150.802 131.426 150.217 132.987 148.994 132.987ZM149.075 124C147.28 124 146 125.785 146 129.029C146.027 132.228 147.198 134 148.925 134C150.883 134 152 132.185 152 128.896C152 125.815 150.938 124 149.075 124V124Z" fill="#CFE4FF"/>
<path fill-rule="evenodd" clip-rule="evenodd" d="M65.8413 221.481C71.0927 224.523 74.1234 229.249 72.6109 232.037C71.0983 234.823 65.615 234.619 60.3637 231.578C56.7307 229.473 54.8845 225.228 54.0917 222.814C53.7654 221.82 54.3408 220.758 55.3315 220.527C57.7403 219.965 62.2083 219.378 65.8413 221.481" fill="#72ACFF"/>
<path fill-rule="evenodd" clip-rule="evenodd" d="M88.2949 223.521C85.181 226.648 81.3421 227.897 79.7202 226.314C78.0985 224.728 79.3079 220.906 82.4217 217.779C84.5761 215.616 87.8536 215.11 89.6691 215.002C90.416 214.959 91.0328 215.562 90.9986 216.302C90.9155 218.102 90.4491 221.357 88.2949 223.521" fill="#001E57"/>
<path fill-rule="evenodd" clip-rule="evenodd" d="M75.4864 252C75.2029 252 74.9731 251.783 74.9731 251.515C74.9731 239.378 72.9701 226.63 69.02 213.62C68.9419 213.36 69.0995 213.092 69.3722 213.019C69.6455 212.945 69.9293 213.095 70.0072 213.352C73.9838 226.449 76 239.289 76 251.515C76 251.783 75.7702 252 75.4864 252" fill="#240448"/>
<path fill-rule="evenodd" clip-rule="evenodd" d="M68.5053 210C68.2958 210 68.1015 209.867 68.0345 209.659C63.3915 195.257 58.1154 185.822 58.0627 185.727C57.9296 185.493 58.0153 185.195 58.2537 185.062C58.4923 184.931 58.7933 185.014 58.9261 185.251C58.9795 185.346 64.3012 194.86 68.9765 209.362C69.0594 209.619 68.9159 209.894 68.6556 209.975C68.6057 209.993 68.5549 210 68.5053 210" fill="#240448"/>
<path fill-rule="evenodd" clip-rule="evenodd" d="M72 192.5C72 198.299 67.299 203 61.5 203C55.701 203 51 198.299 51 192.5C51 186.701 55.701 182 61.5 182C67.299 182 72 186.701 72 192.5" fill="#001E57"/>
<path fill-rule="evenodd" clip-rule="evenodd" d="M77.5165 252C77.2413 252 77.0156 251.791 77.01 251.532C77.0032 251.211 76.4335 219.278 85.0148 196.319C85.1075 196.071 85.397 195.939 85.6611 196.027C85.9251 196.115 86.0641 196.385 85.9711 196.633C77.4513 219.429 78.017 251.196 78.0236 251.512C78.0292 251.776 77.8067 251.993 77.5268 252C77.5235 252 77.52 252 77.5165 252" fill="#001E57"/>
<path fill-rule="evenodd" clip-rule="evenodd" d="M94 198.322L86.6794 191L76.6794 193.679L74 203.68L81.3204 211L91.3204 208.321L94 198.322" fill="#72ACFF"/>
<path fill-rule="evenodd" clip-rule="evenodd" d="M60.9999 194C55.6675 194 50 192.737 50 190.398C50 190.179 50.18 190 50.4019 190C50.6239 190 50.8036 190.179 50.8036 190.398C50.8036 191.727 54.9912 193.205 60.9999 193.205C67.0088 193.205 71.1961 191.727 71.1961 190.398C71.1961 190.179 71.3761 190 71.5981 190C71.82 190 72 190.179 72 190.398C72 192.737 66.3323 194 60.9999 194" fill="white"/>
<path fill-rule="evenodd" clip-rule="evenodd" d="M60.9999 194C55.6675 194 50 192.737 50 190.398C50 190.179 50.18 190 50.4019 190C50.6239 190 50.8036 190.179 50.8036 190.398C50.8036 191.727 54.9912 193.205 60.9999 193.205C67.0088 193.205 71.1961 191.727 71.1961 190.398C71.1961 190.179 71.3761 190 71.5981 190C71.82 190 72 190.179 72 190.398C72 192.737 66.3323 194 60.9999 194" fill="white"/>
<path fill-rule="evenodd" clip-rule="evenodd" d="M69.8178 197C69.2288 197 68.5355 196.908 67.7445 196.723C65.7008 196.247 63.2283 195.204 60.7824 193.781C56.2373 191.137 52.0337 187.23 53.1957 185.2C53.3048 185.008 53.5466 184.943 53.7357 185.054C53.9249 185.163 53.9897 185.408 53.8806 185.598C53.2214 186.75 56.0559 190.111 61.1775 193.089C63.5573 194.475 65.9528 195.487 67.9224 195.946C69.6661 196.352 70.9456 196.26 71.2621 195.708C71.371 195.516 71.6128 195.452 71.8022 195.562C71.9914 195.671 72.0561 195.915 71.947 196.105C71.6078 196.699 70.8837 197 69.8178 197" fill="white"/>
<path fill-rule="evenodd" clip-rule="evenodd" d="M69.8178 197C69.2288 197 68.5355 196.908 67.7445 196.723C65.7008 196.247 63.2283 195.204 60.7824 193.781C56.2373 191.137 52.0337 187.23 53.1957 185.2C53.3048 185.008 53.5466 184.943 53.7357 185.054C53.9249 185.163 53.9897 185.408 53.8806 185.598C53.2214 186.75 56.0559 190.111 61.1775 193.089C63.5573 194.475 65.9528 195.487 67.9224 195.946C69.6661 196.352 70.9456 196.26 71.2621 195.708C71.371 195.516 71.6128 195.452 71.8022 195.562C71.9914 195.671 72.0561 195.915 71.947 196.105C71.6078 196.699 70.8837 197 69.8178 197" fill="white"/>
<path fill-rule="evenodd" clip-rule="evenodd" d="M73.4062 204C73.2268 204 73.0626 203.884 73.0139 203.708C72.9559 203.5 73.0844 203.286 73.3013 203.228L93.4886 198.013C93.7054 197.958 93.928 198.082 93.9861 198.29C94.0441 198.5 93.9156 198.714 93.6987 198.77L73.5114 203.985C73.4763 203.996 73.4409 204 73.4062 204" fill="white"/>
<path fill-rule="evenodd" clip-rule="evenodd" d="M83.6038 201C83.5025 201 83.401 200.961 83.3235 200.885L76.1162 193.675C75.9613 193.521 75.9613 193.27 76.1162 193.116C76.2708 192.961 76.5218 192.961 76.6765 193.116L83.8838 200.323C84.0387 200.479 84.0387 200.729 83.8838 200.885C83.8066 200.961 83.7051 201 83.6038 201" fill="white"/>
<path fill-rule="evenodd" clip-rule="evenodd" d="M500.503 252C500.503 252 500.503 252 500.501 252C500.225 251.998 500 251.785 500 251.521C500.035 242.566 500.598 229.083 503.094 215.705C503.236 214.942 503.37 214.244 503.507 213.567C503.76 212.318 504.034 211.066 504.319 209.842C504.883 207.411 505.514 205.032 506.196 202.777C506.764 200.894 507.379 199.058 508.023 197.319C508.114 197.07 508.402 196.941 508.664 197.026C508.926 197.114 509.063 197.387 508.972 197.635C508.334 199.357 507.724 201.173 507.163 203.038C506.488 205.276 505.862 207.635 505.3 210.049C505.017 211.261 504.746 212.507 504.495 213.748C504.358 214.417 504.224 215.114 504.085 215.871C501.601 229.182 501.039 242.606 501.007 251.526C501.007 251.787 500.782 252 500.503 252" fill="#240448"/>
<path fill-rule="evenodd" clip-rule="evenodd" d="M496.513 252C496.275 252 496.068 251.826 496.033 251.586C495.03 244.781 493.125 238.606 490.211 232.714C489.553 231.387 488.851 230.083 488.066 228.729C487.931 228.497 488.01 228.199 488.243 228.065C488.474 227.931 488.772 228.011 488.907 228.244C489.704 229.615 490.415 230.937 491.083 232.284C494.043 238.271 495.976 244.537 496.995 251.443C497.033 251.709 496.849 251.955 496.584 251.993C496.56 251.998 496.535 252 496.513 252" fill="#240448"/>
<path fill-rule="evenodd" clip-rule="evenodd" d="M508.863 208.983C508.161 212.106 506.342 214.332 504.801 213.959C503.257 213.584 502.574 210.749 503.276 207.628C503.759 205.469 505.518 203.915 506.557 203.165C506.985 202.854 507.571 202.997 507.822 203.471C508.432 204.623 509.349 206.824 508.863 208.983" fill="#006BFF"/>
<path fill-rule="evenodd" clip-rule="evenodd" d="M519.672 199.64C520.46 198.218 519.78 196.754 518.162 196.387C516.543 196.021 514.574 196.883 513.786 198.305L508.419 207.989C507.718 209.253 506.232 209.905 504.79 209.577C503.351 209.251 502.315 208.028 502.263 206.593L501.865 195.601C501.806 193.989 500.434 192.368 498.815 192C497.205 192.055 495.946 193.367 496.002 194.932C496.002 194.932 496.506 209.446 496.54 209.737L496.556 209.872C496.885 212.239 498.68 214.278 501.218 214.854L505.579 215.843C508.119 216.42 510.658 215.364 512.032 213.377L512.052 213.388L519.672 199.64" fill="#72ACFF"/>
<path fill-rule="evenodd" clip-rule="evenodd" d="M484.388 219V219L487.723 212.592C488.504 211.088 487.556 209.27 485.86 209.026C484.165 208.783 482.729 210.257 483.043 211.919L484.388 219" fill="#006BFF"/>
<path fill-rule="evenodd" clip-rule="evenodd" d="M481 221.613V221.613L473.919 222.956C472.257 223.272 470.783 221.836 471.026 220.14C471.27 218.444 473.088 217.496 474.592 218.278L481 221.613" fill="#006BFF"/>
<path fill-rule="evenodd" clip-rule="evenodd" d="M483.613 225V225L480.278 231.41C479.494 232.914 480.445 234.73 482.141 234.974C483.836 235.217 485.272 233.743 484.956 232.081L483.613 225" fill="#72ACFF"/>
<path fill-rule="evenodd" clip-rule="evenodd" d="M487 222.388V222.388L494.083 221.043C495.743 220.729 497.217 222.165 496.974 223.86C496.73 225.556 494.914 226.504 493.41 225.723L487 222.388" fill="#72ACFF"/>
<path fill-rule="evenodd" clip-rule="evenodd" d="M482 220V220L479.799 212.798C479.283 211.108 477.34 210.453 475.988 211.514C474.637 212.576 474.678 214.723 476.069 215.726L482 220" fill="#006BFF"/>
<path fill-rule="evenodd" clip-rule="evenodd" d="M482 224V224L477.726 229.93C476.723 231.321 474.576 231.364 473.515 230.011C472.454 228.659 473.107 226.718 474.798 226.2L482 224" fill="#72ACFF"/>
<path fill-rule="evenodd" clip-rule="evenodd" d="M485 224V224L487.2 231.204C487.718 232.893 489.659 233.546 491.011 232.485C492.364 231.424 492.321 229.279 490.93 228.276L485 224" fill="#72ACFF"/>
<path fill-rule="evenodd" clip-rule="evenodd" d="M486 220V220L490.274 214.069C491.277 212.678 493.424 212.637 494.486 213.988C495.547 215.342 494.892 217.283 493.202 217.801L486 220" fill="#006BFF"/>
</svg>
