<svg width="585" height="365" viewBox="0 0 585 365" fill="none" xmlns="http://www.w3.org/2000/svg">
<path opacity="0.679618" fill-rule="evenodd" clip-rule="evenodd" d="M119 220.474V196.811H106.218C105.809 195.665 105.344 194.545 104.821 193.458L113.829 184.43L97.3686 168.044L88.3448 177.087C87.3069 176.596 86.2408 176.155 85.1495 175.767V163H61.9091V175.747C60.558 176.225 59.2455 176.783 57.9773 177.418L48.7577 168.571L32.6574 185.312L41.8597 194.141C41.4561 195.031 41.0907 195.941 40.7617 196.869H28V220.082H40.7824C41.2913 221.511 41.8891 222.897 42.5732 224.23L33.5235 233.748L50.2204 250.208L59.6722 240.268C60.3862 240.578 61.1128 240.863 61.8508 241.126V255H85.0912V241.147C86.1567 240.769 87.1986 240.341 88.2134 239.868L97.9258 249.52L114.158 232.584L104.862 223.345C105.309 222.412 105.714 221.454 106.077 220.474H119Z" fill="#E4E8EB"/>
<path fill-rule="evenodd" clip-rule="evenodd" d="M92 209.5C92 220.268 83.4934 229 72.9998 229C62.5066 229 54 220.268 54 209.5C54 198.73 62.5066 190 72.9998 190C83.4934 190 92 198.73 92 209.5Z" fill="white"/>
<path opacity="0.679618" fill-rule="evenodd" clip-rule="evenodd" d="M551 66.2272V45.1359H539.621C539.258 44.1142 538.844 43.1165 538.378 42.1474L546.398 34.1007L531.744 19.4952L523.713 27.5559C522.787 27.1182 521.841 26.7253 520.867 26.3797V15H500.184V26.3612C498.981 26.787 497.81 27.2852 496.682 27.8504L488.476 19.9658L474.146 34.8864L482.337 42.7565C481.977 43.5492 481.651 44.3607 481.361 45.1876H470V65.8776H481.379C481.829 67.15 482.362 68.3848 482.972 69.5743L474.917 78.0569L489.779 92.7277L498.191 83.8683C498.826 84.1444 499.474 84.4 500.13 84.6341V97H520.816V84.6522C521.765 84.3162 522.694 83.9354 523.595 83.512L532.24 92.1144L546.688 77.0207L538.415 68.7871C538.811 67.9538 539.174 67.0997 539.497 66.2272H551Z" fill="#E4E8EB"/>
<path fill-rule="evenodd" clip-rule="evenodd" d="M527 56C527 65.3888 519.389 73 510 73C500.614 73 493 65.3888 493 56C493 46.6112 500.614 39 510 39C519.389 39 527 46.6112 527 56Z" fill="white"/>
<path fill-rule="evenodd" clip-rule="evenodd" d="M38.1908 114H24.8092C24.3622 114 24 113.552 24 113C24 112.448 24.3622 112 24.8092 112H38.1908C38.6378 112 39 112.448 39 113C39 113.552 38.6378 114 38.1908 114Z" fill="#1063FE"/>
<path fill-rule="evenodd" clip-rule="evenodd" d="M119.221 78C118.791 78 118.442 77.6489 118.442 77.216V56.5681H101.779C101.349 56.5681 101 56.2169 101 55.784C101 55.3511 101.349 55 101.779 55H119.221C119.651 55 120 55.3511 120 55.784V77.216C120 77.6489 119.651 78 119.221 78Z" fill="#1063FE"/>
<path fill-rule="evenodd" clip-rule="evenodd" d="M26.8033 78C26.59 78 26.377 77.9159 26.2189 77.75C25.9145 77.4295 25.9294 76.9252 26.2521 76.6231L41.6453 62.2172C41.968 61.9152 42.4769 61.93 42.781 62.2502C43.0854 62.5706 43.0707 63.075 42.7481 63.377L27.3545 77.7829C27.1994 77.928 27.0011 78 26.8033 78Z" fill="#DFECFF"/>
<path fill-rule="evenodd" clip-rule="evenodd" d="M24.8086 88C24.5939 88 24.3795 87.9163 24.2203 87.7508C23.9139 87.4322 23.929 86.9299 24.2538 86.6293L50.6367 62.2162C50.9614 61.9156 51.4733 61.9303 51.7797 62.249C52.0861 62.5679 52.071 63.0699 51.7463 63.3705L25.3634 87.7836C25.2072 87.9281 25.0076 88 24.8086 88Z" fill="#DFECFF"/>
<path fill-rule="evenodd" clip-rule="evenodd" d="M24.8131 97C24.5969 97 24.3813 96.9165 24.2216 96.7513C23.9135 96.4331 23.9286 95.9317 24.2552 95.6316L60.629 62.2158C60.9559 61.9157 61.4703 61.9304 61.7784 62.2486C62.0865 62.567 62.0714 63.0681 61.7448 63.3682L25.371 96.784C25.2137 96.9282 25.0132 97 24.8131 97Z" fill="#DFECFF"/>
<path fill-rule="evenodd" clip-rule="evenodd" d="M24.802 106C24.5888 106 24.3762 105.916 24.2186 105.751C23.9148 105.431 23.9294 104.929 24.2515 104.628L69.6478 62.2164C69.9699 61.9155 70.4778 61.9302 70.7814 62.2493C71.0852 62.5687 71.0706 63.0712 70.7482 63.3722L25.3522 105.783C25.1971 105.928 24.9994 106 24.802 106Z" fill="#DFECFF"/>
<path fill-rule="evenodd" clip-rule="evenodd" d="M34.8007 106C34.5878 106 34.3756 105.916 34.2183 105.751C33.9149 105.432 33.9295 104.93 34.2514 104.63L79.65 62.2161C79.9716 61.9156 80.4785 61.9303 80.7818 62.2489C81.0852 62.5678 81.0703 63.0696 80.7487 63.3701L35.3501 105.784C35.1952 105.928 34.9978 106 34.8007 106Z" fill="#DFECFF"/>
<path fill-rule="evenodd" clip-rule="evenodd" d="M43.8002 106C43.5875 106 43.3754 105.916 43.218 105.751C42.9149 105.433 42.9297 104.931 43.251 104.631L88.6512 62.2159C88.9725 61.9157 89.4789 61.9304 89.782 62.2487C90.0851 62.5673 90.0703 63.0686 89.749 63.3688L44.3488 105.784C44.1943 105.928 43.9971 106 43.8002 106Z" fill="#DFECFF"/>
<path fill-rule="evenodd" clip-rule="evenodd" d="M53.8002 106C53.5875 106 53.3754 105.916 53.218 105.751C52.9149 105.433 52.9297 104.931 53.251 104.631L98.6512 62.2159C98.9725 61.9157 99.4789 61.9304 99.782 62.2487C100.085 62.5673 100.07 63.0686 99.749 63.3688L54.3488 105.784C54.1943 105.928 53.9971 106 53.8002 106Z" fill="#DFECFF"/>
<path fill-rule="evenodd" clip-rule="evenodd" d="M63.8014 107C63.5886 107 63.3758 106.914 63.2184 106.745C62.9147 106.419 62.9296 105.906 63.2515 105.599L107.649 63.221C107.971 62.9137 108.478 62.9287 108.782 63.2546C109.085 63.5804 109.07 64.0939 108.748 64.4012L64.3513 106.779C64.1966 106.927 63.9987 107 63.8014 107Z" fill="#DFECFF"/>
<path fill-rule="evenodd" clip-rule="evenodd" d="M72.8079 107C72.5931 107 72.379 106.916 72.2201 106.75C71.914 106.431 71.9291 105.928 72.2534 105.627L113.638 67.2166C113.963 66.9154 114.474 66.9302 114.78 67.2494C115.086 67.5686 115.071 68.0718 114.747 68.3729L73.3617 106.783C73.2058 106.928 73.0067 107 72.8079 107Z" fill="#DFECFF"/>
<path fill-rule="evenodd" clip-rule="evenodd" d="M82.7961 106C82.5847 106 82.3734 105.917 82.2169 105.752C81.9153 105.435 81.9301 104.936 82.2498 104.637L112.658 76.215C112.977 75.916 113.481 75.9307 113.783 76.2476C114.085 76.5648 114.07 77.064 113.75 77.363L83.3424 105.785C83.1887 105.929 82.9921 106 82.7961 106Z" fill="#DFECFF"/>
<path fill-rule="evenodd" clip-rule="evenodd" d="M92.8051 107C92.5913 107 92.3776 106.914 92.2194 106.745C91.9143 106.419 91.9293 105.906 92.2527 105.598L112.643 86.2213C112.966 85.9136 113.476 85.9287 113.781 86.2545C114.086 86.5807 114.071 87.094 113.747 87.4017L93.3575 106.779C93.202 106.927 93.0032 107 92.8051 107Z" fill="#DFECFF"/>
<path fill-rule="evenodd" clip-rule="evenodd" d="M101.851 106C101.624 106 101.399 105.913 101.232 105.741C100.91 105.409 100.925 104.886 101.267 104.573L112.566 94.2251C112.908 93.9119 113.446 93.9276 113.768 94.2593C114.091 94.5909 114.075 95.1137 113.733 95.4265L102.434 105.775C102.27 105.925 102.06 106 101.851 106Z" fill="#DFECFF"/>
<path fill-rule="evenodd" clip-rule="evenodd" d="M24.7481 71C24.5495 71 24.3508 70.9172 24.2038 70.7534C23.9204 70.4379 23.9343 69.9407 24.2348 69.6432L31.7383 62.2141C32.0391 61.9162 32.5124 61.9311 32.7962 62.2466C33.0796 62.562 33.0657 63.0592 32.7652 63.3568L25.2614 70.7858C25.117 70.9291 24.9322 71 24.7481 71Z" fill="#DFECFF"/>
<path fill-rule="evenodd" clip-rule="evenodd" d="M112.8 107C112.587 107 112.375 106.921 112.218 106.763C111.915 106.46 111.93 105.981 112.251 105.695L120.652 98.206C120.973 97.9194 121.479 97.9338 121.782 98.237C122.085 98.5404 122.07 99.0187 121.749 99.305L113.348 106.794C113.194 106.932 112.996 107 112.8 107Z" fill="#DFECFF"/>
<path fill-rule="evenodd" clip-rule="evenodd" d="M124.855 107C124.628 107 124.401 106.922 124.233 106.767C123.909 106.469 123.925 105.999 124.268 105.718L128.559 102.202C128.902 101.921 129.443 101.935 129.767 102.233C130.091 102.531 130.075 103.001 129.732 103.282L125.441 106.798C125.276 106.933 125.065 107 124.855 107Z" fill="#DFECFF"/>
<path fill-rule="evenodd" clip-rule="evenodd" d="M134.204 107H94.724C94.2842 107 93.9278 106.646 93.9278 106.209C93.9278 105.772 94.2842 105.418 94.724 105.418H131.295L112.463 94.3466C112.22 94.2041 112.072 93.9455 112.072 93.666V63.5819H25.5929V105.418H70.9182C71.3579 105.418 71.7146 105.772 71.7146 106.209C71.7146 106.646 71.3579 107 70.9182 107H24.7964C24.3567 107 24 106.646 24 106.209V62.791C24 62.3542 24.3567 62 24.7964 62H112.868C113.308 62 113.665 62.3542 113.665 62.791V93.2152L134.609 105.528C134.918 105.71 135.066 106.074 134.972 106.418C134.877 106.762 134.562 107 134.204 107Z" fill="#0B1E57"/>
<path fill-rule="evenodd" clip-rule="evenodd" d="M54 84.4998C54 86.4328 52.4331 88 50.4998 88C48.5672 88 47 86.4328 47 84.4998C47 82.5669 48.5672 81 50.4998 81C52.4331 81 54 82.5669 54 84.4998Z" fill="#1063FE"/>
<path fill-rule="evenodd" clip-rule="evenodd" d="M73 84.4998C73 86.4328 71.4328 88 69.4998 88C67.5669 88 66 86.4328 66 84.4998C66 82.5669 67.5669 81 69.4998 81C71.4328 81 73 82.5669 73 84.4998Z" fill="#1063FE"/>
<path fill-rule="evenodd" clip-rule="evenodd" d="M91 84.4998C91 86.4328 89.4331 88 87.5002 88C85.5672 88 84 86.4328 84 84.4998C84 82.5669 85.5672 81 87.5002 81C89.4331 81 91 82.5669 91 84.4998Z" fill="#1063FE"/>
<path fill-rule="evenodd" clip-rule="evenodd" d="M26.7822 58C26.7045 58 26.6253 57.9885 26.547 57.9647C26.1353 57.8391 25.9067 57.4137 26.0363 57.0146L28.472 49.5299C28.6016 49.1312 29.0409 48.9094 29.4528 49.0352C29.8648 49.1608 30.0935 49.5862 29.9636 49.9853L27.5282 57.47C27.4229 57.7932 27.1147 58 26.7822 58Z" fill="#1063FE"/>
<path fill-rule="evenodd" clip-rule="evenodd" d="M17.2321 64C17.2213 64 17.2108 63.9997 17.2003 63.9994L8.7373 63.6354C8.31316 63.6174 7.98317 63.2366 8.00066 62.7848C8.01757 62.3333 8.37846 61.9827 8.79939 62.0007L17.2624 62.3643C17.6866 62.3827 18.0166 62.7634 17.9994 63.2149C17.9827 63.6549 17.6423 64 17.2321 64Z" fill="#1063FE"/>
<path fill-rule="evenodd" clip-rule="evenodd" d="M428 231.22L427.704 231.272L423.44 232L418 225.862L419.764 224.099L419.962 223.899L420.509 223.352L421.371 221.717C421.855 220.793 423.176 220.754 423.742 221.647C424.742 223.225 425.579 224.897 426.245 226.635L427.651 230.304L427.77 230.619L428 231.22Z" fill="#FFBFAA"/>
<path fill-rule="evenodd" clip-rule="evenodd" d="M428 230.977L427.428 237L424.324 234.975C419.683 232.522 416.486 228.923 414.357 223.818C414.034 223.041 413.901 222.22 414.081 221.387C414.14 221.122 415.216 218.918 415.423 219.119L415.299 219L418.37 221.493L420.521 223.599L418.859 225.413L423.983 231.726L428 230.977Z" fill="#FFBFAA"/>
<path fill-rule="evenodd" clip-rule="evenodd" d="M426.278 230C426.472 230 426.666 229.926 426.808 229.782C427.079 229.502 427.06 229.065 426.771 228.806L418.21 221.185C417.92 220.925 417.464 220.941 417.193 221.22C416.922 221.498 416.938 221.934 417.23 222.194L425.788 229.817C425.927 229.941 426.102 230 426.278 230Z" fill="#C8C8C8"/>
<path fill-rule="evenodd" clip-rule="evenodd" d="M418.214 223C418.426 223 418.634 222.924 418.789 222.772C419.085 222.485 419.068 222.035 418.749 221.766L413.322 217.191C413.003 216.922 412.505 216.94 412.21 217.227C411.914 217.515 411.934 217.966 412.25 218.234L417.68 222.808C417.831 222.936 418.023 223 418.214 223Z" fill="#C8C8C8"/>
<path fill-rule="evenodd" clip-rule="evenodd" d="M462.786 227.894L455.95 244.197C455.776 244.621 455.539 245.005 455.259 245.347C454.343 246.461 452.937 247.087 451.422 246.99L429.149 238.527L425 236.947L427.599 229.918L427.806 229.361L427.89 229.131L428.497 227.491L445.813 232.021L452.75 214L461.629 214.507L462.903 217.102C464.405 220.622 464.363 224.559 462.786 227.894Z" fill="#78A9FF"/>
<path fill-rule="evenodd" clip-rule="evenodd" d="M458.631 199L458.55 199.197L457.066 202.857C456.848 203.392 457.197 204 457.722 204H460L458.631 199Z" fill="#FFBFAA"/>
<path fill-rule="evenodd" clip-rule="evenodd" d="M512.418 310L523 314.958L518.453 328L505 320.743L512.418 310Z" fill="#FFBFAA"/>
<path fill-rule="evenodd" clip-rule="evenodd" d="M518.591 311L533 316.231L524.331 340.414C524.102 341.05 523.277 341.206 522.836 340.696L519.247 336.556L516.468 326.903L511 325.173L512.97 319.685L517.578 318.665L518.591 311Z" fill="#78A9FF"/>
<path fill-rule="evenodd" clip-rule="evenodd" d="M521.716 341C522.01 341 522.288 340.83 522.392 340.555L528.722 323.748C528.82 323.484 528.905 323.221 528.977 322.957C529.003 322.866 529.006 322.772 528.99 322.682L527.485 314.552C527.42 314.189 527.048 313.947 526.659 314.01C526.271 314.071 526.009 314.416 526.075 314.777L527.554 322.763C527.498 322.948 527.439 323.13 527.371 323.312L521.04 340.118C520.91 340.464 521.106 340.842 521.478 340.964C521.556 340.988 521.638 341 521.716 341Z" fill="white"/>
<path fill-rule="evenodd" clip-rule="evenodd" d="M517.679 332C517.945 332 518.199 331.852 518.304 331.607L519.947 327.882C520.092 327.556 519.928 327.184 519.582 327.05C519.235 326.913 518.836 327.067 518.694 327.393L517.051 331.119C516.909 331.444 517.073 331.817 517.419 331.951C517.503 331.985 517.593 332 517.679 332Z" fill="white"/>
<path fill-rule="evenodd" clip-rule="evenodd" d="M458.631 199L458.55 199.197L457.066 202.857C456.848 203.392 457.197 204 457.722 204H460L458.631 199Z" fill="#FFBFAA"/>
<path fill-rule="evenodd" clip-rule="evenodd" d="M507.893 325L517 308.139L483.624 290.321L474.626 256L456 260.827L465.774 298.112C466.628 301.363 468.81 304.132 471.765 305.711L507.893 325Z" fill="#C9DCFF"/>
<path fill-rule="evenodd" clip-rule="evenodd" d="M426.4 344C426.662 344 426.902 343.736 426.978 343.335C427.066 342.856 426.88 342.356 426.561 342.22L423.759 341.034C423.44 340.898 423.11 341.183 423.023 341.666C422.933 342.145 423.118 342.645 423.437 342.781L426.239 343.963C426.294 343.988 426.348 344 426.4 344Z" fill="white"/>
<path fill-rule="evenodd" clip-rule="evenodd" d="M446 334.701L442.093 346L429 342.446L434.893 328L446 334.701Z" fill="#FFBFAA"/>
<path fill-rule="evenodd" clip-rule="evenodd" d="M444 343.013L440.484 357L418 350.673L419.537 344.559L428.696 340.816L429.917 335L435.425 336.549L436.808 341.234L444 343.013Z" fill="#78A9FF"/>
<path fill-rule="evenodd" clip-rule="evenodd" d="M434.706 353C434.825 353 434.941 352.964 435.045 352.897C435.201 352.798 435.314 352.633 435.356 352.444C435.372 352.378 435.76 350.773 437.317 349.797C438.752 348.894 440.716 348.808 443.15 349.545C443.507 349.655 443.877 349.426 443.975 349.042C444.075 348.655 443.868 348.255 443.51 348.149C440.698 347.295 438.38 347.434 436.618 348.559C435.277 349.413 434.602 350.631 434.291 351.395L419.852 347.027C419.494 346.918 419.125 347.146 419.024 347.53C418.926 347.917 419.134 348.318 419.491 348.424L434.526 352.974C434.584 352.99 434.645 353 434.706 353Z" fill="white"/>
<path fill-rule="evenodd" clip-rule="evenodd" d="M428.364 343C428.643 343 428.898 342.763 428.976 342.398C429.072 341.958 428.872 341.502 428.535 341.382L424.807 340.031C424.468 339.907 424.117 340.167 424.024 340.603C423.928 341.043 424.126 341.499 424.465 341.619L428.193 342.97C428.251 342.992 428.306 343 428.364 343Z" fill="white"/>
<path fill-rule="evenodd" clip-rule="evenodd" d="M430.364 343C430.642 343 430.898 342.763 430.976 342.398C431.072 341.958 430.874 341.503 430.535 341.382L426.807 340.031C426.468 339.907 426.117 340.163 426.024 340.603C425.928 341.043 426.126 341.499 426.465 341.619L430.193 342.97C430.251 342.992 430.309 343 430.364 343Z" fill="white"/>
<path fill-rule="evenodd" clip-rule="evenodd" d="M448.109 337L463.8 294.33L491 263.794L476.581 251L449.142 281.809C447.72 283.355 446.63 285.144 445.901 287.13L430 330.363L448.109 337Z" fill="#C9DCFF"/>
<path fill-rule="evenodd" clip-rule="evenodd" d="M474 209.788C468.276 218.301 466.122 227.561 465.408 237C461.998 225.114 462.833 215.131 464.128 209.833L469.202 209L474 209.788Z" fill="white"/>
<path fill-rule="evenodd" clip-rule="evenodd" d="M489.154 212.636L491 260H455.942L453.007 214.699C452.905 213.158 453.967 211.789 455.456 211.534L464.126 210.051L464.169 210.044C462.852 215.282 462.003 225.152 465.47 236.902C466.196 227.571 468.387 218.416 474.208 210L474.319 210.018L489.154 212.636Z" fill="#78A9FF"/>
<path fill-rule="evenodd" clip-rule="evenodd" d="M475 210.783L464 214L464.644 210.783L464.907 192H475V210.783Z" fill="#FFBFAA"/>
<path fill-rule="evenodd" clip-rule="evenodd" d="M468.339 209H463.661C461.087 209 459 206.817 459 204.125V191H473V204.125C473 206.817 470.913 209 468.339 209Z" fill="#FFBFAA"/>
<path fill-rule="evenodd" clip-rule="evenodd" d="M474.204 194.352C472.427 195.786 470.332 196.738 468.119 197.171C466.366 197.514 464.592 197.765 462.82 197.894C461.317 198.003 459.756 198.116 458.278 197.747C457.272 197.497 456.339 196.971 456.131 195.822C455.903 194.546 456.909 193.258 457.939 192.693C457.939 192.693 454.29 191.46 457.003 189.082C457.083 189.014 456.711 187.203 456.699 187.011C456.564 184.384 458.601 182.53 461.092 183.105C465.854 184.206 468.21 189.961 473.204 190.491C477.402 190.937 476.125 192.804 474.204 194.352Z" fill="#C8C8C8"/>
<path fill-rule="evenodd" clip-rule="evenodd" d="M465 186.694C465 186.694 474.771 182.424 477.241 187.442C479.707 192.458 475.491 201.584 474.154 202.864C472.817 204.145 465.425 195.939 465.425 195.939L465 186.694Z" fill="#C8C8C8"/>
<path fill-rule="evenodd" clip-rule="evenodd" d="M470 204C468.344 204 467 202.67 467 201.029V199.972C467 198.33 468.344 197 470 197C471.656 197 473 198.33 473 199.972V201.029C473 202.67 471.656 204 470 204Z" fill="#FFBFAA"/>
<path fill-rule="evenodd" clip-rule="evenodd" d="M496 255.581L495.868 256.434C495.595 258.185 494.984 259.864 494.065 261.375L493.212 262.784L491.829 265.322C491.337 266.226 490.92 267.166 490.503 268.106C490.117 268.971 489.299 269.59 488.327 269.692C487.841 269.743 487.352 269.662 486.909 269.455L486.063 269.061C485.777 269.686 485.131 270.059 484.451 269.992L483.576 269.908C482.378 269.791 481.296 269.145 480.619 268.145L480.102 268.536C479.424 269.043 478.449 268.713 478.22 267.893C477.75 266.208 478.041 264.4 479.017 262.949C479.017 262.949 483.115 256.578 484.871 255.59L488.603 251L496 255.581Z" fill="#FFBFAA"/>
<path fill-rule="evenodd" clip-rule="evenodd" d="M489 251C487.207 252.472 485.031 252.495 482.653 251.765C481.649 251.586 480.809 252.648 481.038 253.807C481.153 254.377 481.508 254.838 481.985 255.023L485.323 258L489 251Z" fill="#FFBFAA"/>
<path fill-rule="evenodd" clip-rule="evenodd" d="M482.363 212.459L485.132 212.049C488.823 211.717 492.468 213.085 495.13 215.802L508.38 228.182C509.855 229.557 510.383 231.743 509.714 233.695L497.173 256.887C496.751 258.112 496.019 259.19 495.054 260L487.538 251.779L495.457 234.358L480 223.209L482.363 212.459Z" fill="#78A9FF"/>
<path fill-rule="evenodd" clip-rule="evenodd" d="M465.371 238C465.486 238 465.607 237.963 465.71 237.893C466.004 237.69 466.087 237.273 465.9 236.963C463.429 232.878 459.738 224.332 458.343 218.71L462.264 215.341C462.454 215.179 462.537 214.916 462.483 214.664C462.428 214.412 462.244 214.216 462.008 214.16L459.865 213.649L461.85 212.233C462.14 212.026 462.218 211.608 462.025 211.299C461.83 210.99 461.438 210.907 461.148 211.114L457.943 213.403C457.733 213.553 457.626 213.822 457.672 214.086C457.718 214.351 457.908 214.56 458.156 214.619L460.454 215.168L457.235 217.934C457.042 218.099 456.959 218.367 457.019 218.621C458.397 224.525 462.247 233.409 464.839 237.69C464.96 237.89 465.164 238 465.371 238Z" fill="white"/>
<path fill-rule="evenodd" clip-rule="evenodd" d="M467.688 235C467.932 235 468.17 234.874 468.292 234.652C471.323 229.251 474.939 223.201 478.809 219.305C478.962 219.151 479.028 218.935 478.988 218.726C478.944 218.517 478.8 218.341 478.596 218.253L476.462 217.33L478.496 216.788C478.699 216.733 478.865 216.593 478.947 216.406C479.028 216.219 479.016 216.008 478.912 215.832L475.092 209.338C474.976 209.137 474.76 209.009 474.519 209C474.281 208.993 474.052 209.103 473.92 209.294L473.864 209.374C473.654 209.677 473.739 210.085 474.055 210.286C474.065 210.291 474.074 210.296 474.08 210.301L477.283 215.746L474.268 216.55C473.989 216.625 473.789 216.858 473.767 217.133C473.745 217.409 473.905 217.669 474.168 217.783L477.164 219.077C473.432 223.079 469.985 228.852 467.083 234.032C466.901 234.35 467.029 234.748 467.362 234.922C467.465 234.973 467.578 235 467.688 235Z" fill="white"/>
<path fill-rule="evenodd" clip-rule="evenodd" d="M465.228 261C465.235 261 465.239 261 465.242 261C465.667 260.991 466.007 260.693 466 260.329L465.54 237.65C465.53 237.286 465.193 236.994 464.758 237C464.333 237.006 463.993 237.307 464 237.671L464.46 260.35C464.467 260.711 464.811 261 465.228 261Z" fill="white"/>
<path fill-rule="evenodd" clip-rule="evenodd" d="M489.317 231C489.582 231 489.834 230.854 489.946 230.609C490.092 230.285 489.931 229.908 489.582 229.771C489.261 229.643 481.94 226.613 483.612 218.766C483.687 218.419 483.447 218.082 483.077 218.012C482.709 217.944 482.348 218.168 482.273 218.514C480.377 227.404 488.962 230.915 489.049 230.95C489.137 230.985 489.227 231 489.317 231Z" fill="white"/>
<path fill-rule="evenodd" clip-rule="evenodd" d="M458.656 273C458.842 273 459.025 272.921 459.153 272.77L464.842 266.095C465.078 265.82 465.045 265.4 464.773 265.161C464.497 264.922 464.081 264.952 463.845 265.231L458.159 271.905C457.923 272.183 457.953 272.601 458.228 272.84C458.354 272.949 458.507 273 458.656 273Z" fill="white"/>
<path fill-rule="evenodd" clip-rule="evenodd" d="M464.657 294C464.843 294 465.025 293.924 465.154 293.775L479.843 277.058C480.077 276.789 480.047 276.385 479.771 276.154C479.496 275.923 479.083 275.956 478.846 276.225L464.157 292.941C463.923 293.21 463.953 293.614 464.229 293.845C464.354 293.95 464.504 294 464.657 294Z" fill="white"/>
<path fill-rule="evenodd" clip-rule="evenodd" d="M445.088 329C445.182 329 445.277 328.982 445.366 328.943C445.528 328.872 445.653 328.74 445.717 328.576L459.293 293.17C459.543 292.512 459.907 291.923 460.377 291.412L469.828 281.091C470.075 280.822 470.054 280.409 469.776 280.167C469.501 279.925 469.079 279.949 468.832 280.218L459.378 290.537C458.798 291.17 458.345 291.9 458.037 292.709L444.7 327.497L432.909 323.089C432.563 322.961 432.175 323.128 432.044 323.466C431.912 323.806 432.087 324.183 432.432 324.314L444.849 328.958C444.926 328.985 445.008 329 445.088 329Z" fill="white"/>
<path fill-rule="evenodd" clip-rule="evenodd" d="M503.606 323C503.87 323 504.114 322.84 504.215 322.577L508.956 310.094C509.075 309.783 508.947 309.433 508.661 309.276L478.932 292.789L477.273 287.462C477.164 287.112 476.798 286.922 476.456 287.031C476.111 287.142 475.921 287.514 476.031 287.861L477.767 293.441C477.817 293.604 477.93 293.74 478.076 293.822L507.535 310.158L503 322.1C502.869 322.441 503.038 322.825 503.374 322.955C503.451 322.985 503.529 323 503.606 323Z" fill="white"/>
<path fill-rule="evenodd" clip-rule="evenodd" d="M455.658 262H477.339C477.703 262 478 261.549 478 260.998C478 260.446 477.703 260 477.339 260H455.658C455.294 260 455 260.446 455 260.998C455 261.549 455.294 262 455.658 262Z" fill="white"/>
<path fill-rule="evenodd" clip-rule="evenodd" d="M486.651 253C486.897 253 487.135 252.845 487.242 252.578L489.94 246.023C490.091 245.66 489.946 245.231 489.619 245.067C489.293 244.898 488.907 245.06 488.756 245.423L486.06 251.978C485.909 252.341 486.054 252.769 486.381 252.934C486.467 252.98 486.559 253 486.651 253Z" fill="white"/>
<path fill-rule="evenodd" clip-rule="evenodd" d="M380.466 181C380.396 181 380.347 181 380.317 180.999C378.468 180.982 376.982 179.477 377 177.638C377.015 175.809 378.514 174.339 380.347 174.339C380.36 174.339 380.369 174.339 380.381 174.339C380.384 174.34 380.39 174.34 380.399 174.34C381.155 174.34 402.189 174.208 425.154 162.772C456.205 147.308 475.957 119.542 483.858 80.2457C489.626 51.563 500.646 30.8519 516.612 18.6874C518.08 17.5685 520.181 17.8446 521.308 19.3044C522.435 20.7642 522.155 22.8546 520.687 23.9736C506.049 35.1266 495.867 54.4984 490.427 81.5511C485.847 104.336 477.224 123.754 464.8 139.265C454.819 151.722 442.399 161.68 427.88 168.862C403.973 180.688 382.623 181 380.466 181Z" fill="#B2BBC6"/>
<path fill-rule="evenodd" clip-rule="evenodd" d="M518.652 22C518.156 22 517.667 21.783 517.34 21.3697C516.787 20.6646 516.922 19.655 517.646 19.1145C525.644 13.1441 534.884 9.40994 545.122 8.01547C546.023 7.89351 546.857 8.50593 546.983 9.38567C547.112 10.2657 546.482 11.0785 545.578 11.2016C535.914 12.5183 527.193 16.0396 519.657 21.6678C519.357 21.8915 519.003 22 518.652 22Z" fill="#D8DDE2"/>
<path fill-rule="evenodd" clip-rule="evenodd" d="M90.3199 258C89.743 258 89.1585 257.849 88.6263 257.535C87.0486 256.597 86.5294 254.564 87.4664 252.986C94.8349 240.599 104.253 230.623 115.458 223.334C124.426 217.503 134.534 213.384 145.502 211.093C164.135 207.2 178.693 209.909 179.304 210.027C181.106 210.373 182.286 212.112 181.94 213.912C181.593 215.712 179.851 216.892 178.049 216.544C177.915 216.519 163.989 213.959 146.614 217.642C123.535 222.532 105.558 235.564 93.1799 256.377C92.5588 257.421 91.4539 258 90.3199 258Z" fill="#0B1E57"/>
<path fill-rule="evenodd" clip-rule="evenodd" d="M77.6407 288C77.4991 288 77.3558 287.979 77.2127 287.942C76.3386 287.698 75.8212 286.778 76.057 285.886C79.2263 273.879 83.5644 263.091 88.9514 253.82C89.4136 253.025 90.4195 252.763 91.198 253.235C91.9761 253.707 92.2321 254.737 91.7699 255.532C86.5355 264.541 82.3136 275.046 79.2224 286.76C79.0251 287.506 78.3631 288 77.6407 288Z" fill="#D8DDE2"/>
<path fill-rule="evenodd" clip-rule="evenodd" d="M15.244 355C11.2465 355 7.10726 354.671 2.83209 354.011C1.00639 353.73 -0.243588 352.035 0.040166 350.223C0.324224 348.413 2.03526 347.173 3.86005 347.454C28.5293 351.257 60.5367 344.619 72.9294 291.382C73.3953 289.379 73.898 287.386 74.4236 285.456C74.905 283.685 76.7423 282.639 78.5251 283.115C80.3088 283.595 81.3651 285.413 80.8836 287.184C80.3791 289.039 79.8964 290.951 79.449 292.875C73.3868 318.916 62.1972 337.051 46.1911 346.772C37.1761 352.246 26.8043 355 15.244 355Z" fill="#B2BBC6"/>
<path fill-rule="evenodd" clip-rule="evenodd" d="M204 167C180.795 172.569 163.255 185.604 151.379 206.107C149.805 208.825 149.551 212.119 150.76 215.018C162.642 243.484 180.389 258.811 204 261V167Z" fill="#1063FE"/>
<path fill-rule="evenodd" clip-rule="evenodd" d="M227 214C227 239.959 216.703 261 204 261C191.297 261 181 239.959 181 214C181 188.043 191.297 167 204 167C216.703 167 227 188.043 227 214Z" fill="white"/>
<path fill-rule="evenodd" clip-rule="evenodd" d="M181.663 233C181.104 233 180.607 232.602 180.501 232.028C179.505 226.655 179 220.992 179 215.201C179 202.464 181.443 190.472 185.879 181.432C190.447 172.126 196.616 167 203.253 167C208.977 167 214.509 170.951 218.829 178.124C219.167 178.686 218.989 179.419 218.431 179.76C217.873 180.101 217.143 179.922 216.805 179.359C212.932 172.926 208.118 169.382 203.253 169.382C197.564 169.382 192.148 174.036 188 182.487C183.722 191.206 181.366 202.823 181.366 215.201C181.366 220.846 181.857 226.36 182.827 231.591C182.947 232.238 182.523 232.86 181.881 232.982C181.808 232.994 181.735 233 181.663 233Z" fill="#2A0055"/>
<path fill-rule="evenodd" clip-rule="evenodd" d="M202.702 263C194.823 263 187.669 255.79 183.074 243.214C182.847 242.593 183.16 241.902 183.774 241.672C184.388 241.443 185.07 241.761 185.297 242.382C189.466 253.789 195.972 260.602 202.702 260.602C208.401 260.602 213.829 255.915 217.985 247.402C222.27 238.622 224.631 226.922 224.631 214.455C224.631 205.602 223.419 196.993 221.125 189.558C220.931 188.926 221.279 188.253 221.905 188.055C222.527 187.857 223.192 188.21 223.388 188.843C225.752 196.506 227 205.363 227 214.455C227 227.283 224.552 239.36 220.109 248.466C215.534 257.839 209.35 263 202.702 263Z" fill="#2A0055"/>
<path fill-rule="evenodd" clip-rule="evenodd" d="M213 199C213 203.418 210.537 207 207.5 207C204.463 207 202 203.418 202 199C202 194.582 204.463 191 207.5 191C210.537 191 213 194.582 213 199Z" fill="#0B1E57"/>
<path fill-rule="evenodd" clip-rule="evenodd" d="M207.5 191.607C204.802 191.607 202.607 194.923 202.607 199C202.607 203.077 204.802 206.394 207.5 206.394C210.198 206.394 212.393 203.077 212.393 199C212.393 194.923 210.198 191.607 207.5 191.607ZM207.5 208C203.916 208 201 203.963 201 199C201 194.037 203.916 190 207.5 190C211.083 190 214 194.037 214 199C214 203.963 211.083 208 207.5 208Z" fill="#0B1E57"/>
<path fill-rule="evenodd" clip-rule="evenodd" d="M213 231C213 235.418 210.537 239 207.5 239C204.463 239 202 235.418 202 231C202 226.582 204.463 223 207.5 223C210.537 223 213 226.582 213 231Z" fill="#0B1E57"/>
<path fill-rule="evenodd" clip-rule="evenodd" d="M207.5 223.606C204.802 223.606 202.607 226.921 202.607 230.998C202.607 235.076 204.802 238.391 207.5 238.391C210.198 238.391 212.393 235.076 212.393 230.998C212.393 226.921 210.198 223.606 207.5 223.606ZM207.5 240C203.916 240 201 235.963 201 230.998C201 226.037 203.916 222 207.5 222C211.083 222 214 226.037 214 230.998C214 235.963 211.083 240 207.5 240Z" fill="#0B1E57"/>
<path fill-rule="evenodd" clip-rule="evenodd" d="M379 209C402.206 203.431 419.747 190.396 431.622 169.893C433.194 167.175 433.45 163.881 432.24 160.982C420.358 132.517 402.611 117.189 379 115V209Z" fill="#1063FE"/>
<path fill-rule="evenodd" clip-rule="evenodd" d="M356 162C356 136.042 366.297 115 379 115C391.703 115 402 136.042 402 162C402 187.957 391.703 209 379 209C366.297 209 356 187.957 356 162Z" fill="white"/>
<path fill-rule="evenodd" clip-rule="evenodd" d="M362.906 197C362.47 197 362.053 196.755 361.849 196.333C357.432 187.253 355 175.207 355 162.415C355 149.622 357.432 137.576 361.849 128.496C366.394 119.148 372.534 114 379.14 114C385.445 114 391.381 118.745 395.864 127.362C396.167 127.946 395.948 128.67 395.371 128.979C394.798 129.287 394.083 129.064 393.78 128.48C389.727 120.685 384.529 116.393 379.14 116.393C373.477 116.393 368.088 121.068 363.959 129.556C359.702 138.313 357.354 149.982 357.354 162.415C357.354 174.847 359.702 186.516 363.959 195.273C364.248 195.865 364.007 196.583 363.425 196.876C363.257 196.96 363.08 197 362.906 197Z" fill="#2A0055"/>
<path fill-rule="evenodd" clip-rule="evenodd" d="M378.672 210C375.468 210 372.363 208.821 369.446 206.497C368.935 206.089 368.85 205.344 369.259 204.832C369.667 204.321 370.415 204.237 370.929 204.645C373.413 206.626 376.018 207.63 378.672 207.63C384.379 207.63 389.813 203 393.974 194.593C398.265 185.92 400.628 174.363 400.628 162.051C400.628 155.943 400.047 150.012 398.903 144.422C398.773 143.781 399.187 143.155 399.829 143.024C400.47 142.894 401.097 143.307 401.227 143.948C402.404 149.693 403 155.784 403 162.051C403 174.72 400.549 186.651 396.101 195.643C391.52 204.901 385.329 210 378.672 210Z" fill="#2A0055"/>
<path fill-rule="evenodd" clip-rule="evenodd" d="M375.985 152H350.015C347.245 152 345 149.761 345 147C345 144.239 347.245 142 350.015 142H375.985C378.755 142 381 144.239 381 147C381 149.761 378.755 152 375.985 152Z" fill="#0B1E57"/>
<path fill-rule="evenodd" clip-rule="evenodd" d="M375.985 181H350.015C347.245 181 345 178.762 345 176C345 173.238 347.245 171 350.015 171H375.985C378.755 171 381 173.238 381 176C381 178.762 378.755 181 375.985 181Z" fill="#0B1E57"/>
<path fill-rule="evenodd" clip-rule="evenodd" d="M121.246 161.83L117.861 172.945L113 194H125.776L130.101 169.376L132 159.996L127.429 156L121.246 161.83Z" fill="#FFBFAA"/>
<path fill-rule="evenodd" clip-rule="evenodd" d="M145.079 245L145.698 249.021L148 253.895V263H132V245H145.079Z" fill="#0B1E57"/>
<path fill-rule="evenodd" clip-rule="evenodd" d="M132.262 258C131.974 258 131.691 257.951 131.419 257.854C131.099 257.742 130.925 257.371 131.031 257.028C131.137 256.685 131.482 256.5 131.802 256.612C131.95 256.664 132.104 256.691 132.262 256.691C133.099 256.691 133.78 255.932 133.78 255C133.78 254.068 133.099 253.309 132.262 253.309C132.111 253.309 131.963 253.333 131.823 253.382C131.5 253.488 131.158 253.3 131.057 252.953C130.956 252.61 131.134 252.243 131.455 252.134C131.715 252.046 131.986 252 132.262 252C133.772 252 135 253.345 135 255C135 256.655 133.772 258 132.262 258Z" fill="#1063FE"/>
<path fill-rule="evenodd" clip-rule="evenodd" d="M144.367 250H137.633C137.284 250 137 249.55 137 248.998C137 248.445 137.284 248 137.633 248H144.367C144.716 248 145 248.445 145 248.998C145 249.55 144.716 250 144.367 250Z" fill="#1063FE"/>
<path fill-rule="evenodd" clip-rule="evenodd" d="M144.367 255H137.633C137.284 255 137 254.555 137 254.002C137 253.45 137.284 253 137.633 253H144.367C144.716 253 145 253.45 145 254.002C145 254.555 144.716 255 144.367 255Z" fill="#1063FE"/>
<path fill-rule="evenodd" clip-rule="evenodd" d="M131.662 261C131.44 261 131.223 260.887 131.098 260.685C130.907 260.377 131.004 259.971 131.316 259.781L135.189 257.417C136.706 256.492 138.443 256 140.212 256C143.249 256 146.16 257.472 148 259.937L147.477 260.34L146.943 260.728L146.935 260.719C145.346 258.59 142.832 257.316 140.212 257.316C138.688 257.316 137.19 257.738 135.881 258.538L132.008 260.902C131.9 260.966 131.78 261 131.662 261Z" fill="#1063FE"/>
<path fill-rule="evenodd" clip-rule="evenodd" d="M120 192.838L122.374 187.608L139.389 184L149.846 186.799L150.825 188.921C153.479 194.673 153.714 201.265 151.475 207.195C150.459 209.889 148.163 211.883 145.371 212.496C143.85 212.831 142.297 213 140.741 213H120V192.838Z" fill="#78A9FF"/>
<path fill-rule="evenodd" clip-rule="evenodd" d="M110 213H146V192H110V213Z" fill="#78A9FF"/>
<path fill-rule="evenodd" clip-rule="evenodd" d="M95.0061 244.906L88.1456 251.215L80 256.593V263H105V243L95.0061 244.906Z" fill="#0B1E57"/>
<path fill-rule="evenodd" clip-rule="evenodd" d="M148.916 135.858C148.916 135.858 156.546 129.612 159.563 140.024C159.387 139.393 163.863 138.626 164.37 138.62C167.277 138.582 169.911 140.456 171.435 143.017C173.398 146.316 175.831 153.118 171.896 155.949C171.451 156.269 168 156.772 168.082 156.532C168.082 156.533 164.533 166.869 153.353 159.117C153.353 159.117 142.016 159.572 143.336 152.145C143.336 152.145 137.913 138.073 148.916 135.858Z" fill="#FF5C5C"/>
<path fill-rule="evenodd" clip-rule="evenodd" d="M148.916 135.858C148.916 135.858 156.546 129.612 159.563 140.024C159.387 139.393 163.863 138.626 164.37 138.62C167.277 138.582 169.911 140.456 171.435 143.017C173.398 146.316 175.831 153.118 171.896 155.949C171.451 156.269 168 156.772 168.082 156.532C168.082 156.533 164.533 166.869 153.353 159.117C153.353 159.117 142.016 159.572 143.336 152.145C143.336 152.145 137.913 138.073 148.916 135.858Z" fill="#78A9FF"/>
<path fill-rule="evenodd" clip-rule="evenodd" d="M134.223 141.082C133.73 141.037 133.236 141.011 132.741 141.003C129.007 140.943 124.556 141.752 122.241 145.018C120.858 146.968 120.505 149.887 121.829 151.964C123.276 154.232 126.309 154.818 128.784 154.964C134.713 155.316 140.482 153.04 144.589 148.714C144.95 148.334 145.839 147.614 145.973 147.085C146.27 145.912 144.013 144.675 143.024 144.049C140.38 142.374 137.331 141.364 134.223 141.082Z" fill="#78A9FF"/>
<path fill-rule="evenodd" clip-rule="evenodd" d="M152.392 192L123 187.749L125.655 173.52L126.984 171.721C124.698 168.838 123.451 165.243 123.451 161.537V159.815C123.451 157.036 124.044 154.29 125.19 151.769C126.234 149.471 128.493 148 130.978 148H156.621C160.441 148 163.404 151.398 162.955 155.263L152.392 192Z" fill="#C9DCFF"/>
<path fill-rule="evenodd" clip-rule="evenodd" d="M147 151.748L135 162L137.606 151.748V137H147V151.748Z" fill="white"/>
<path fill-rule="evenodd" clip-rule="evenodd" d="M138 147H147V129H138V147Z" fill="#FFBFAA"/>
<path fill-rule="evenodd" clip-rule="evenodd" d="M147.331 152H137.669C137.3 152 137 151.552 137 151C137 150.447 137.3 150 137.669 150H147.331C147.7 150 148 150.447 148 151C148 151.552 147.7 152 147.331 152Z" fill="#78A9FF"/>
<path fill-rule="evenodd" clip-rule="evenodd" d="M149 128.573V132.489C149 138.846 144.237 144 138.361 144C134.296 144 131 140.434 131 136.036V130.138C131 125.092 134.78 121 139.446 121H142.001C145.866 121 149 124.39 149 128.573Z" fill="#FFBFAA"/>
<path fill-rule="evenodd" clip-rule="evenodd" d="M138.657 145C138.294 145 138 144.631 138 144.175C138 143.719 138.294 143.349 138.657 143.349C140.195 143.349 141.675 142.923 143.056 142.083C143.382 141.884 143.776 142.056 143.934 142.466C144.092 142.876 143.956 143.37 143.629 143.568C142.068 144.518 140.395 145 138.657 145Z" fill="#78A9FF"/>
<path fill-rule="evenodd" clip-rule="evenodd" d="M151 129.123V137C143.725 134.168 139.539 130.348 138.038 125.672C136.437 129.196 133.231 131.171 129 132.16C129 132.16 129 130.988 129 130.988C129 126.4 131.803 122.732 135.77 121.088C139.622 119.492 145.097 119.396 148.292 122.547C150.009 124.241 151 126.645 151 129.123Z" fill="#78A9FF"/>
<path fill-rule="evenodd" clip-rule="evenodd" d="M148 121.5C148 124.538 145.538 127 142.5 127C139.463 127 137 124.538 137 121.5C137 118.462 139.463 116 142.5 116C145.538 116 148 118.462 148 121.5Z" fill="#78A9FF"/>
<path fill-rule="evenodd" clip-rule="evenodd" d="M148.304 123C148.14 123 147.975 122.954 147.842 122.862C144.827 120.751 140.058 120.85 136.89 121.575C136.521 121.659 136.135 121.493 136.028 121.202C135.921 120.912 136.133 120.608 136.502 120.523C140.178 119.682 145.331 119.638 148.766 122.043C149.054 122.244 149.08 122.59 148.824 122.816C148.687 122.938 148.496 123 148.304 123Z" fill="white"/>
<path fill-rule="evenodd" clip-rule="evenodd" d="M132.687 167L120 163.395C120.656 161.454 121.413 159.522 121.991 157.567C122.812 154.792 123.738 151.659 126.153 149.831C128.351 148.166 131.234 147.58 133.909 148.307L136 148.875L132.687 167Z" fill="#C9DCFF"/>
<path fill-rule="evenodd" clip-rule="evenodd" d="M157.297 168C156.987 168 156.704 167.802 156.619 167.501L155.025 161.852C154.923 161.492 155.145 161.121 155.519 161.024C155.895 160.926 156.28 161.139 156.381 161.498L157.975 167.148C158.077 167.508 157.856 167.879 157.481 167.976C157.419 167.992 157.358 168 157.297 168Z" fill="white"/>
<path fill-rule="evenodd" clip-rule="evenodd" d="M148.5 139C146.567 139 145 137.479 145 135.604V134.396C145 132.52 146.567 131 148.5 131C150.433 131 152 132.52 152 134.396V135.604C152 137.479 150.433 139 148.5 139Z" fill="#FFBFAA"/>
<path fill-rule="evenodd" clip-rule="evenodd" d="M147.607 135C147.466 135 147.325 134.956 147.21 134.865C146.956 134.664 146.929 134.314 147.148 134.082L148.933 132.192C149.153 131.96 149.536 131.935 149.79 132.135C150.044 132.336 150.071 132.686 149.852 132.919L148.067 134.808C147.947 134.935 147.777 135 147.607 135Z" fill="#78A9FF"/>
<path fill-rule="evenodd" clip-rule="evenodd" d="M99.9998 254.309C99.0831 254.309 98.3368 255.068 98.3368 256C98.3368 256.932 99.0831 257.691 99.9998 257.691C100.917 257.691 101.663 256.932 101.663 256C101.663 255.068 100.917 254.309 99.9998 254.309ZM99.9998 259C98.3458 259 97 257.655 97 256C97 254.345 98.3458 253 99.9998 253C101.654 253 103 254.345 103 256C103 257.655 101.654 259 99.9998 259Z" fill="#1063FE"/>
<path fill-rule="evenodd" clip-rule="evenodd" d="M92.3721 255H84.6277C84.281 255 84 254.555 84 254.002C84 253.45 84.281 253 84.6277 253H92.3721C92.719 253 93 253.45 93 254.002C93 254.555 92.719 255 92.3721 255Z" fill="#1063FE"/>
<path fill-rule="evenodd" clip-rule="evenodd" d="M96.3723 251H88.6277C88.281 251 88 250.553 88 250C88 249.447 88.281 249 88.6277 249H96.3723C96.7193 249 97 249.447 97 250C97 250.553 96.7193 251 96.3723 251Z" fill="#1063FE"/>
<path fill-rule="evenodd" clip-rule="evenodd" d="M129.99 169C128.339 169 126.382 168.622 124.348 167.41C124.034 167.223 123.91 166.774 124.07 166.407C124.23 166.041 124.615 165.894 124.929 166.082C129.662 168.9 134.051 166.625 134.095 166.602C134.415 166.432 134.795 166.595 134.942 166.969C135.088 167.343 134.949 167.785 134.629 167.957C134.505 168.023 132.642 169 129.99 169Z" fill="white"/>
<path fill-rule="evenodd" clip-rule="evenodd" d="M91 246H107.162L114.452 235.117L129 213.396L111.609 204L91 246Z" fill="#78A9FF"/>
<path fill-rule="evenodd" clip-rule="evenodd" d="M115 223.39L123.304 234.381L125.056 236.697L127.683 240.174L131.331 245H147L141.898 234.381L130.669 211L115 223.39Z" fill="#78A9FF"/>
<path fill-rule="evenodd" clip-rule="evenodd" d="M150.36 199C150.274 199 150.187 198.981 150.103 198.942L142.383 195.315C142.06 195.163 141.912 194.758 142.054 194.411C142.196 194.064 142.573 193.906 142.897 194.058L150.617 197.685C150.94 197.837 151.088 198.241 150.946 198.589C150.841 198.846 150.606 199 150.36 199Z" fill="white"/>
<path fill-rule="evenodd" clip-rule="evenodd" d="M122.465 228C119.277 228 116.127 226.552 114.054 223.8L102.139 207.992C98.6237 203.328 99.5364 196.682 104.177 193.15C108.818 189.617 115.431 190.534 118.946 195.198L130.861 211.007C134.376 215.672 133.464 222.317 128.822 225.851C126.918 227.299 124.683 228 122.465 228Z" fill="#78A9FF"/>
<path fill-rule="evenodd" clip-rule="evenodd" d="M162.16 192C163.727 192 165.267 191.449 166.505 190.408C168.208 188.977 169.131 186.794 168.985 184.545L167.588 163L153.938 163.925L154.704 175.741L134.259 175.013L124 181.852L160.399 191.764C160.98 191.922 161.572 192 162.16 192Z" fill="#FFBFAA"/>
<path fill-rule="evenodd" clip-rule="evenodd" d="M156.202 148H159.461C163.663 148 167.179 151.375 167.59 155.802L169 171H152L156.202 148Z" fill="#C9DCFF"/>
<path fill-rule="evenodd" clip-rule="evenodd" d="M120 231L122.599 234H141L139.349 231H120Z" fill="white"/>
<path fill-rule="evenodd" clip-rule="evenodd" d="M125 238L127.676 241H145L143.298 238H125Z" fill="white"/>
<path fill-rule="evenodd" clip-rule="evenodd" d="M96 234H114.556L117 231H97.7907L96 234Z" fill="white"/>
<path fill-rule="evenodd" clip-rule="evenodd" d="M93 241H110.544L113 238H94.799L93 241Z" fill="white"/>
<path fill-rule="evenodd" clip-rule="evenodd" d="M90.5739 183H131L119.426 153H79L90.5739 183Z" fill="white"/>
<path fill-rule="evenodd" clip-rule="evenodd" d="M121 157.302L119.344 153H79L90.5503 183H112.249L121 157.302Z" fill="white"/>
<path fill-rule="evenodd" clip-rule="evenodd" d="M112.445 183H90.3985C90.1246 183 89.8787 182.835 89.7802 182.586L78.0445 152.88C77.9657 152.681 77.9928 152.457 78.1162 152.281C78.2399 152.105 78.4442 152 78.6627 152H119.654C119.928 152 120.174 152.165 120.272 152.414L121.955 156.674C122.087 157.007 121.917 157.382 121.576 157.511C121.235 157.64 120.851 157.474 120.719 157.14L119.2 153.295H79.6287L90.853 181.705H112.445C112.811 181.705 113.108 181.995 113.108 182.353C113.108 182.71 112.811 183 112.445 183Z" fill="#78A9FF"/>
<path fill-rule="evenodd" clip-rule="evenodd" d="M126.777 172H121.63C120.021 172 118.789 173.511 119.03 175.189L120.105 182.649C120.29 183.939 121.304 184.918 122.54 185L132.562 184.321L134 174.946C134 174.946 129.408 172 126.777 172Z" fill="#FFBFAA"/>
<path fill-rule="evenodd" clip-rule="evenodd" d="M106.659 213C106.577 213 106.493 212.985 106.412 212.953C106.074 212.822 105.912 212.453 106.049 212.13L110.745 201.029C112.294 197.367 115.9 195 119.932 195H126.341C126.705 195 127 195.283 127 195.632C127 195.981 126.705 196.264 126.341 196.264H119.932C116.44 196.264 113.314 198.321 111.967 201.504L107.271 212.605C107.167 212.851 106.92 213 106.659 213Z" fill="white"/>
<path fill-rule="evenodd" clip-rule="evenodd" d="M116.63 232C116.507 232 116.382 231.965 116.273 231.888C115.986 231.691 115.914 231.297 116.111 231.008L124.85 218.274C125.047 217.986 125.44 217.913 125.727 218.112C126.014 218.311 126.086 218.705 125.888 218.993L117.15 231.726C117.028 231.906 116.831 232 116.63 232Z" fill="white"/>
<path fill-rule="evenodd" clip-rule="evenodd" d="M154.317 171H151.147C150.794 171 150.499 170.752 150.466 170.429L150.125 167C149.805 163.786 150.101 160.579 151.003 157.467C151.1 157.131 151.475 156.932 151.839 157.021C152.204 157.111 152.42 157.455 152.323 157.791C151.462 160.76 151.18 163.82 151.486 166.886L151.77 169.743H154.317C154.694 169.743 155 170.024 155 170.372C155 170.719 154.694 171 154.317 171Z" fill="white"/>
<path fill-rule="evenodd" clip-rule="evenodd" d="M158.384 178C158.358 178 158.333 177.998 158.307 177.994L154.541 177.446C154.203 177.397 153.963 177.034 154.005 176.637C154.047 176.239 154.355 175.954 154.693 176.006L158.458 176.555C158.797 176.604 159.037 176.966 158.995 177.364C158.957 177.731 158.69 178 158.384 178Z" fill="#2A0055"/>
<path fill-rule="evenodd" clip-rule="evenodd" d="M143.435 169C141.62 169 139.522 168.58 137.337 167.301C137.023 167.117 136.908 166.696 137.079 166.361C137.25 166.025 137.643 165.902 137.956 166.085C142.293 168.624 146.17 167.482 148.094 166.575C148.421 166.422 148.802 166.581 148.945 166.931C149.089 167.282 148.94 167.691 148.614 167.844C147.642 168.301 145.775 169 143.435 169Z" fill="white"/>
<path fill-rule="evenodd" clip-rule="evenodd" d="M116.854 176H120.427L122 173H116.854C115.83 173 115 173.671 115 174.5C115 175.328 115.83 176 116.854 176Z" fill="#FFBFAA"/>
<path fill-rule="evenodd" clip-rule="evenodd" d="M117.708 179H121V176H117.708C116.765 176 116 176.672 116 177.5C116 178.328 116.765 179 117.708 179Z" fill="#FFBFAA"/>
<path fill-rule="evenodd" clip-rule="evenodd" d="M118.708 181H122V178H118.708C117.765 178 117 178.671 117 179.5C117 180.328 117.765 181 118.708 181Z" fill="#FFBFAA"/>
<path fill-rule="evenodd" clip-rule="evenodd" d="M117.331 182.612C117.123 182.861 117 183.168 117 183.5C117 184.328 117.765 185 118.708 185H122V182H118.708C118.143 182 117.642 182.241 117.331 182.612Z" fill="#FFBFAA"/>
<path fill-rule="evenodd" clip-rule="evenodd" d="M123.383 186C123.366 186 123.349 185.999 123.332 185.997L119.567 185.595C119.227 185.559 118.974 185.173 119.002 184.734C119.03 184.294 119.327 183.966 119.668 184.003L123.433 184.405C123.773 184.442 124.026 184.827 123.998 185.267C123.971 185.684 123.701 186 123.383 186Z" fill="#0B1E57"/>
<path fill-rule="evenodd" clip-rule="evenodd" d="M118.742 186C118.68 186 118.617 185.992 118.555 185.974C117.625 185.712 117 184.932 117 184.032C117 182.915 117.984 182.004 119.192 182.002L121.369 182C121.369 182 121.369 182 121.369 182C121.717 182 122 182.256 122 182.571C122 182.887 121.718 183.143 121.369 183.144L119.195 183.146C118.681 183.146 118.262 183.544 118.262 184.032C118.262 184.422 118.537 184.772 118.929 184.882C119.262 184.976 119.448 185.296 119.345 185.598C119.261 185.843 119.011 186 118.742 186Z" fill="#0B1E57"/>
<path fill-rule="evenodd" clip-rule="evenodd" d="M131 174L127.882 169.717C127.258 168.86 126.35 168.272 125.332 168.067L125 168L126.168 173.11L131 174Z" fill="#FFBFAA"/>
<path fill-rule="evenodd" clip-rule="evenodd" d="M100 169.408C101.017 171.082 102.889 172.182 104.568 171.975C106.552 171.73 107.516 169.752 106.722 167.557C105.927 165.361 103.674 163.78 101.69 164.025C101.012 164.109 100.454 164.394 100.043 164.822L100 169.408Z" fill="white"/>
<path fill-rule="evenodd" clip-rule="evenodd" d="M102 164L101 162L102 164Z" fill="white"/>
<path fill-rule="evenodd" clip-rule="evenodd" d="M111.654 232C111.532 232 111.409 231.963 111.299 231.893C110.996 231.696 110.909 231.291 111.105 230.987L121.213 215.341C123.595 211.653 127.586 209.451 131.888 209.451H136.132C138.529 209.451 140.872 208.98 143.094 208.051C143.428 207.911 143.81 208.069 143.949 208.403C144.088 208.737 143.931 209.121 143.598 209.261C141.215 210.257 138.703 210.762 136.132 210.762H131.888C128.031 210.762 124.451 212.74 122.311 216.053L112.203 231.699C112.078 231.893 111.868 232 111.654 232Z" fill="#0B1E57"/>
<path opacity="0.627255" fill-rule="evenodd" clip-rule="evenodd" d="M340 91.8783L328.89 89.5656L334.045 71L316 93.0132L327.268 95.3592L327.28 95.3666L321.83 115L333.901 99.2539L340 91.8783Z" fill="#1063FE"/>
<path opacity="0.13458" fill-rule="evenodd" clip-rule="evenodd" d="M222.082 119.12L215.345 128.236L201 116L212.984 141.315L219.816 132.068L219.828 132.06L235 145L226.076 127.65L222.082 119.12Z" fill="#1063FE"/>
<path fill-rule="evenodd" clip-rule="evenodd" d="M241.147 184C240.875 184 240.603 183.9 240.384 183.696C239.911 183.255 239.87 182.497 240.291 182.001L250.998 169.403C251.419 168.907 252.144 168.863 252.614 169.304C253.088 169.744 253.132 170.503 252.711 170.999L242.003 183.598C241.775 183.864 241.463 184 241.147 184Z" fill="#78A9FF"/>
<path fill-rule="evenodd" clip-rule="evenodd" d="M246.178 213C245.535 213 245.009 212.439 245 211.738C244.991 211.031 245.508 210.448 246.16 210.437L271.801 210C271.807 210 271.816 210 271.822 210C272.462 210 272.988 210.561 273 211.262C273.009 211.97 272.489 212.553 271.84 212.563L246.196 213C246.19 213 246.184 213 246.178 213Z" fill="#78A9FF"/>
<path fill-rule="evenodd" clip-rule="evenodd" d="M259.781 249C259.61 249 259.44 248.967 259.275 248.895L239.713 240.249C239.101 239.979 238.831 239.28 239.11 238.689C239.39 238.098 240.113 237.836 240.725 238.107L260.287 246.752C260.899 247.025 261.169 247.722 260.89 248.313C260.685 248.745 260.241 249 259.781 249Z" fill="#78A9FF"/>
<path fill-rule="evenodd" clip-rule="evenodd" d="M317.999 248C317.819 248 317.637 247.955 317.472 247.855C317.005 247.571 316.859 246.969 317.15 246.513L331.149 224.464C331.44 224.004 332.057 223.862 332.528 224.146C332.995 224.431 333.141 225.032 332.85 225.492L318.851 247.541C318.659 247.837 318.334 248 317.999 248Z" fill="#1063FE"/>
<path fill-rule="evenodd" clip-rule="evenodd" d="M331.999 251C331.819 251 331.637 250.955 331.472 250.855C331.005 250.571 330.859 249.969 331.15 249.51L345.149 227.461C345.44 227.004 346.057 226.862 346.528 227.147C346.995 227.431 347.141 228.032 346.85 228.489L332.851 250.538C332.659 250.837 332.334 251 331.999 251Z" fill="#1063FE"/>
<path fill-rule="evenodd" clip-rule="evenodd" d="M347.032 236C346.945 236 346.858 235.992 346.773 235.969L322.71 229.78C322.197 229.648 321.894 229.149 322.035 228.666C322.176 228.184 322.71 227.9 323.227 228.032L347.287 234.221C347.803 234.356 348.107 234.853 347.965 235.335C347.845 235.736 347.455 236 347.032 236Z" fill="#1063FE"/>
<path fill-rule="evenodd" clip-rule="evenodd" d="M341.032 247C340.945 247 340.858 246.989 340.773 246.966L316.713 240.778C316.197 240.646 315.893 240.147 316.035 239.665C316.176 239.182 316.713 238.899 317.227 239.034L341.287 245.222C341.803 245.353 342.107 245.853 341.965 246.332C341.845 246.736 341.455 247 341.032 247Z" fill="#1063FE"/>
<path opacity="0.679618" fill-rule="evenodd" clip-rule="evenodd" d="M412.562 34.8574C411.388 34.3767 410.189 33.936 409 33.5482L409.49 32C410.716 32.3995 411.951 32.8534 413.158 33.3488L412.562 34.8574ZM421.533 39.5487C420.465 38.8607 419.363 38.204 418.267 37.5967L419.033 36.1683C420.162 36.7925 421.291 37.4676 422.389 38.1745L421.533 39.5487ZM429.583 45.7493C428.685 44.9276 427.749 44.1252 426.808 43.364L426.687 43.2653L427.68 41.9894L427.807 42.0923C428.772 42.8726 429.732 43.6968 430.655 44.5398L429.583 45.7493ZM436.532 53.208C435.743 52.2108 434.913 51.2253 434.066 50.2788L435.252 49.185C436.121 50.1555 436.971 51.1663 437.782 52.1884L436.532 53.208ZM442.225 61.6962C441.605 60.5881 440.939 59.4811 440.249 58.4062L441.59 57.518C442.298 58.62 442.979 59.7549 443.618 60.8914L442.225 61.6962ZM446.499 71C446.066 69.8067 445.585 68.6054 445.073 67.4294L446.538 66.772C447.065 67.9792 447.555 69.2121 448 70.437L446.499 71Z" fill="#E4E8EB"/>
<path opacity="0.679618" fill-rule="evenodd" clip-rule="evenodd" d="M336.326 2.5721L336 0.997985C337.262 0.734974 338.561 0.52177 339.85 0.361716L340.046 1.9574C338.799 2.11107 337.546 2.3179 336.326 2.5721ZM350.083 1.7858C348.824 1.67951 347.556 1.61937 346.315 1.60753L346.33 0C347.61 0.012452 348.92 0.0744085 350.216 0.184351L350.083 1.7858ZM359.987 3.57009C358.767 3.2351 357.529 2.93868 356.309 2.68934L356.629 1.114C357.882 1.37063 359.154 1.67525 360.407 2.01966L359.987 3.57009ZM369.459 7.03904C368.309 6.51029 367.137 6.0119 365.972 5.55786L366.551 4.05936C367.744 4.52464 368.946 5.03548 370.123 5.5773L369.459 7.03904ZM378.303 11.9451C377.243 11.2515 376.156 10.5803 375.069 9.95039L375.869 8.55819C376.981 9.20236 378.092 9.88874 379.176 10.5985L378.303 11.9451ZM386.35 18.0964C385.405 17.26 384.424 16.4382 383.433 15.654L384.424 14.3918C385.435 15.1939 386.438 16.0343 387.404 16.8898L386.35 18.0964ZM393.434 25.3502C392.622 24.3878 391.77 23.4317 390.901 22.5081L392.06 21.4026C392.951 22.3478 393.823 23.3266 394.654 24.3118L393.434 25.3502ZM379.837 31.244C378.56 31.2886 377.295 31.3797 376.069 31.5146L375.897 29.9165C377.159 29.7774 378.466 29.6835 379.78 29.6374L379.837 31.244ZM366.34 33.7997L365.76 32.3015C366.938 31.842 368.194 31.4344 369.495 31.0888L369.903 32.6432C368.659 32.973 367.46 33.362 366.34 33.7997ZM388.271 31.5932C387.567 31.5103 386.848 31.4396 386.133 31.3834L386.26 29.7807C386.993 29.8387 387.733 29.9116 388.458 29.9972L388.271 31.5932ZM358.079 39.107L356.928 37.9884C357.831 37.053 358.849 36.1795 359.954 35.3923L360.878 36.7046C359.851 37.4345 358.909 38.2426 358.079 39.107ZM399.343 33.5898C398.694 32.5144 397.999 31.438 397.281 30.3915L398.594 29.4761C399.331 30.5497 400.044 31.6537 400.708 32.757L399.343 33.5898ZM353.543 47.6582L351.976 47.3375C352.248 45.9908 352.656 44.7004 353.187 43.5016L354.648 44.1561C354.162 45.2476 353.791 46.426 353.543 47.6582ZM403.776 42.6768C403.474 41.8592 403.148 41.0458 402.8 40.2598C402.643 39.8993 402.48 39.5398 402.314 39.1814L403.764 38.5023C403.936 38.8704 404.102 39.2403 404.265 39.6114C404.621 40.4272 404.962 41.2709 405.273 42.1185L403.776 42.6768ZM352.239 57.8804C352.064 57.0722 351.919 56.261 351.81 55.4696C351.744 54.9639 351.686 54.4576 351.644 53.9653L353.238 53.8301C353.278 54.2948 353.329 54.7722 353.395 55.25C353.498 55.9998 353.634 56.7694 353.8 57.5369L352.239 57.8804ZM407.728 52.2745L406.14 52.4689C406.113 52.2448 406.086 52.0212 406.055 51.7974C405.917 50.7827 405.735 49.7522 405.521 48.7354L407.085 48.4004C407.309 49.4552 407.493 50.5246 407.638 51.5781C407.671 51.8099 407.698 52.0422 407.728 52.2745ZM355.908 67.6914C355.289 66.5406 354.718 65.3449 354.22 64.1371L355.693 63.5184C356.173 64.6762 356.72 65.823 357.312 66.9263L355.908 67.6914ZM407.629 62.7479L406.049 62.5074C406.234 61.2919 406.351 60.0297 406.403 58.756L408 58.8216C407.946 60.1536 407.822 61.4745 407.629 62.7479ZM362.079 76.1345C361.174 75.2103 360.304 74.2147 359.489 73.1754L360.742 72.1799C361.521 73.1736 362.354 74.1245 363.218 75.0068L362.079 76.1345ZM404.026 72.6436L402.671 71.7917C403.326 70.7354 403.906 69.6233 404.389 68.4865L405.856 69.1179C405.343 70.3306 404.727 71.5172 404.026 72.6436ZM370.516 82.3259C369.356 81.754 368.209 81.0873 367.107 80.3439L367.998 79.0094C369.039 79.7118 370.123 80.3423 371.219 80.8823L370.516 82.3259ZM396.813 80.2852L395.895 78.9693C396.906 78.2559 397.87 77.4595 398.766 76.6025L399.868 77.7666C398.917 78.6786 397.888 79.526 396.813 80.2852ZM380.646 85C379.333 84.9317 378.013 84.7589 376.727 84.4864L377.056 82.9135C378.264 83.1686 379.499 83.3305 380.731 83.3946L380.646 85ZM387.205 84.4919L386.879 82.9187C388.08 82.6651 389.279 82.3137 390.436 81.8745L391 83.3785C389.765 83.8468 388.491 84.2216 387.205 84.4919Z" fill="#E4E8EB"/>
<path fill-rule="evenodd" clip-rule="evenodd" d="M293 20.597L322 27L319.925 15L293 20.597Z" fill="#0B1E57"/>
<path fill-rule="evenodd" clip-rule="evenodd" d="M312.482 0L293 20.8476L328 21L322.472 13.5214L318.577 14.1731L318.103 7.60611L312.482 0Z" fill="#1063FE"/>
<path fill-rule="evenodd" clip-rule="evenodd" d="M320 13.8347L299 19L318.822 7L320 13.8347Z" fill="#0B1E57"/>
<path opacity="0.679618" fill-rule="evenodd" clip-rule="evenodd" d="M221.318 329.1C220.118 328.523 219.001 327.906 218 327.263L218.853 326C219.801 326.61 220.862 327.196 222.003 327.746L221.318 329.1ZM230.87 332.284C229.649 332.036 228.415 331.728 227.196 331.363L227.652 329.918C228.824 330.269 230.012 330.568 231.184 330.804L230.87 332.284ZM237.571 333C237.437 333 237.301 333 237.168 332.997L237.193 331.486C237.332 331.489 237.475 331.489 237.614 331.489C238.721 331.489 239.785 331.42 240.78 331.281L241 332.776C239.918 332.927 238.764 332.994 237.571 333Z" fill="#E4E8EB"/>
<path opacity="0.679618" fill-rule="evenodd" clip-rule="evenodd" d="M202.935 281.247L202.423 279.814C202.685 279.723 202.951 279.638 203.213 279.562C204.178 279.276 205.18 279.088 206.191 279L206.325 280.512C205.416 280.591 204.515 280.761 203.647 281.016C203.411 281.086 203.171 281.162 202.935 281.247ZM215.34 282.471C214.281 281.915 213.185 281.469 212.087 281.138L212.527 279.686C213.721 280.042 214.909 280.528 216.053 281.129L215.34 282.471ZM195.503 286.701L194.304 285.757C195.106 284.755 195.993 283.835 196.938 283.024L197.938 284.175C197.065 284.922 196.246 285.772 195.503 286.701ZM222.417 288.563C221.725 287.625 220.945 286.732 220.094 285.912L221.159 284.825C222.071 285.702 222.91 286.659 223.651 287.667L222.417 288.563ZM191.537 295.104L190.037 294.8C190.286 293.58 190.655 292.365 191.133 291.184L192.553 291.748C192.11 292.845 191.768 293.971 191.537 295.104ZM226.127 297.115C225.9 295.976 225.579 294.834 225.169 293.728L226.604 293.203C227.042 294.387 227.388 295.605 227.63 296.823L226.127 297.115ZM190.477 304.77C190.129 303.543 189.886 302.298 189.753 301.074L191.275 300.914C191.398 302.052 191.626 303.212 191.951 304.36L190.477 304.77ZM227.428 306.784L225.937 306.441C226.206 305.287 226.387 304.114 226.473 302.957L228 303.07C227.908 304.306 227.715 305.554 227.428 306.784ZM194.929 313.668C194.18 312.645 193.498 311.588 192.9 310.525L194.237 309.784C194.805 310.795 195.454 311.8 196.168 312.775L194.929 313.668ZM223.403 315.882L222.129 315.038C222.797 314.048 223.403 313.018 223.926 311.974L225.294 312.648C224.743 313.75 224.107 314.837 223.403 315.882ZM201.85 320.795C200.872 320.024 199.925 319.198 199.033 318.342L200.097 317.252C200.953 318.074 201.863 318.864 202.802 319.605L201.85 320.795ZM216.595 323.146L215.649 321.952C216.589 321.221 217.492 320.428 218.337 319.599L219.414 320.677C218.53 321.549 217.581 322.378 216.595 323.146ZM173.204 323.283C172.155 322.706 171.077 322.083 170 321.43L170.799 320.136C171.856 320.777 172.914 321.388 173.944 321.952L173.204 323.283ZM182.202 327.391C181.068 326.984 179.906 326.52 178.747 326.016L179.363 324.625C180.491 325.117 181.622 325.566 182.724 325.964L182.202 327.391ZM207.88 327.996L207.347 326.571C207.612 326.474 207.876 326.374 208.141 326.268C208.98 325.934 209.815 325.557 210.627 325.144L211.324 326.496C210.473 326.93 209.592 327.325 208.71 327.677C208.433 327.786 208.157 327.892 207.88 327.996ZM191.856 329.763C190.644 329.611 189.404 329.399 188.169 329.128L188.498 327.646C189.687 327.908 190.881 328.111 192.046 328.257L191.856 329.763ZM198.099 330L198.02 328.482C199.216 328.421 200.415 328.293 201.583 328.099L201.835 329.596C200.61 329.8 199.353 329.936 198.099 330Z" fill="#E4E8EB"/>
<path fill-rule="evenodd" clip-rule="evenodd" d="M280 335.524L279.857 335.567L279.605 335.646C279.595 335.643 278.89 335.857 278.89 335.857L255.199 343L250 335L254.323 335.065L279.27 335.441C279.282 335.438 279.854 335.45 279.854 335.45L280 335.524Z" fill="#0B1E57"/>
<path fill-rule="evenodd" clip-rule="evenodd" d="M280 334.977L279.982 335L254 334.487L255.001 330L280 334.977Z" fill="#0B1E57"/>
<path fill-rule="evenodd" clip-rule="evenodd" d="M279.466 335.704L280 335.713L279.982 335.747L278.757 335.933L253.008 339.915L246 341L250.096 335L254.385 335.105L279.457 335.7L279.466 335.704Z" fill="#1063FE"/>
<path fill-rule="evenodd" clip-rule="evenodd" d="M280 335.976L279.982 336L279.687 335.93L279.129 335.792C279.117 335.796 256 330.851 256 330.851L256.056 330.772L260.571 327L279.684 335.805L279.826 335.884L280 335.976Z" fill="#1063FE"/>
<path fill-rule="evenodd" clip-rule="evenodd" d="M494 145.5C494 146.328 493.328 147 492.5 147C491.669 147 491 146.328 491 145.5C491 144.672 491.669 144 492.5 144C493.328 144 494 144.672 494 145.5Z" fill="#D0E3FF"/>
<path fill-rule="evenodd" clip-rule="evenodd" d="M501 145.5C501 146.328 500.328 147 499.5 147C498.672 147 498 146.328 498 145.5C498 144.672 498.672 144 499.5 144C500.328 144 501 144.672 501 145.5Z" fill="#D0E3FF"/>
<path fill-rule="evenodd" clip-rule="evenodd" d="M509 145.5C509 146.328 508.331 147 507.5 147C506.672 147 506 146.328 506 145.5C506 144.672 506.672 144 507.5 144C508.331 144 509 144.672 509 145.5Z" fill="#D0E3FF"/>
<path fill-rule="evenodd" clip-rule="evenodd" d="M516 145.5C516 146.328 515.328 147 514.5 147C513.672 147 513 146.328 513 145.5C513 144.672 513.672 144 514.5 144C515.328 144 516 144.672 516 145.5Z" fill="#D0E3FF"/>
<path fill-rule="evenodd" clip-rule="evenodd" d="M523 145.5C523 146.328 522.328 147 521.5 147C520.672 147 520 146.328 520 145.5C520 144.672 520.672 144 521.5 144C522.328 144 523 144.672 523 145.5Z" fill="#D0E3FF"/>
<path fill-rule="evenodd" clip-rule="evenodd" d="M530 145.5C530 146.328 529.331 147 528.503 147C527.672 147 527 146.328 527 145.5C527 144.672 527.672 144 528.503 144C529.331 144 530 144.672 530 145.5Z" fill="#D0E3FF"/>
<path fill-rule="evenodd" clip-rule="evenodd" d="M538 145.5C538 146.328 537.328 147 536.5 147C535.672 147 535 146.328 535 145.5C535 144.672 535.672 144 536.5 144C537.328 144 538 144.672 538 145.5Z" fill="#D0E3FF"/>
<path fill-rule="evenodd" clip-rule="evenodd" d="M545 145.5C545 146.328 544.328 147 543.5 147C542.672 147 542 146.328 542 145.5C542 144.672 542.672 144 543.5 144C544.328 144 545 144.672 545 145.5Z" fill="#D0E3FF"/>
<path fill-rule="evenodd" clip-rule="evenodd" d="M552 145.5C552 146.328 551.328 147 550.5 147C549.669 147 549 146.328 549 145.5C549 144.672 549.669 144 550.5 144C551.328 144 552 144.672 552 145.5Z" fill="#D0E3FF"/>
<path fill-rule="evenodd" clip-rule="evenodd" d="M560 145.5C560 146.328 559.328 147 558.5 147C557.672 147 557 146.328 557 145.5C557 144.672 557.672 144 558.5 144C559.328 144 560 144.672 560 145.5Z" fill="#D0E3FF"/>
<path fill-rule="evenodd" clip-rule="evenodd" d="M566 145.5C566 146.328 565.328 147 564.5 147C563.672 147 563 146.328 563 145.5C563 144.672 563.672 144 564.5 144C565.328 144 566 144.672 566 145.5Z" fill="#D0E3FF"/>
<path fill-rule="evenodd" clip-rule="evenodd" d="M494 153.5C494 154.328 493.328 155 492.5 155C491.669 155 491 154.328 491 153.5C491 152.672 491.669 152 492.5 152C493.328 152 494 152.672 494 153.5Z" fill="#D0E3FF"/>
<path fill-rule="evenodd" clip-rule="evenodd" d="M501 153.5C501 154.328 500.328 155 499.5 155C498.672 155 498 154.328 498 153.5C498 152.672 498.672 152 499.5 152C500.328 152 501 152.672 501 153.5Z" fill="#D0E3FF"/>
<path fill-rule="evenodd" clip-rule="evenodd" d="M509 153.5C509 154.328 508.331 155 507.5 155C506.672 155 506 154.328 506 153.5C506 152.672 506.672 152 507.5 152C508.331 152 509 152.672 509 153.5Z" fill="#D0E3FF"/>
<path fill-rule="evenodd" clip-rule="evenodd" d="M516 153.5C516 154.328 515.328 155 514.5 155C513.672 155 513 154.328 513 153.5C513 152.672 513.672 152 514.5 152C515.328 152 516 152.672 516 153.5Z" fill="#D0E3FF"/>
<path fill-rule="evenodd" clip-rule="evenodd" d="M523 153.5C523 154.328 522.328 155 521.5 155C520.672 155 520 154.328 520 153.5C520 152.672 520.672 152 521.5 152C522.328 152 523 152.672 523 153.5Z" fill="#D0E3FF"/>
<path fill-rule="evenodd" clip-rule="evenodd" d="M530 153.5C530 154.328 529.331 155 528.503 155C527.672 155 527 154.328 527 153.5C527 152.672 527.672 152 528.503 152C529.331 152 530 152.672 530 153.5Z" fill="#D0E3FF"/>
<path fill-rule="evenodd" clip-rule="evenodd" d="M538 153.5C538 154.328 537.328 155 536.5 155C535.672 155 535 154.328 535 153.5C535 152.672 535.672 152 536.5 152C537.328 152 538 152.672 538 153.5Z" fill="#D0E3FF"/>
<path fill-rule="evenodd" clip-rule="evenodd" d="M545 153.5C545 154.328 544.328 155 543.5 155C542.672 155 542 154.328 542 153.5C542 152.672 542.672 152 543.5 152C544.328 152 545 152.672 545 153.5Z" fill="#D0E3FF"/>
<path fill-rule="evenodd" clip-rule="evenodd" d="M552 153.5C552 154.328 551.328 155 550.5 155C549.669 155 549 154.328 549 153.5C549 152.672 549.669 152 550.5 152C551.328 152 552 152.672 552 153.5Z" fill="#D0E3FF"/>
<path fill-rule="evenodd" clip-rule="evenodd" d="M560 153.5C560 154.328 559.328 155 558.5 155C557.672 155 557 154.328 557 153.5C557 152.672 557.672 152 558.5 152C559.328 152 560 152.672 560 153.5Z" fill="#D0E3FF"/>
<path fill-rule="evenodd" clip-rule="evenodd" d="M566 153.5C566 154.328 565.328 155 564.5 155C563.672 155 563 154.328 563 153.5C563 152.672 563.672 152 564.5 152C565.328 152 566 152.672 566 153.5Z" fill="#D0E3FF"/>
<path fill-rule="evenodd" clip-rule="evenodd" d="M494 160.5C494 161.328 493.328 162 492.5 162C491.669 162 491 161.328 491 160.5C491 159.672 491.669 159 492.5 159C493.328 159 494 159.672 494 160.5Z" fill="#D0E3FF"/>
<path fill-rule="evenodd" clip-rule="evenodd" d="M501 160.5C501 161.328 500.328 162 499.5 162C498.672 162 498 161.328 498 160.5C498 159.672 498.672 159 499.5 159C500.328 159 501 159.672 501 160.5Z" fill="#D0E3FF"/>
<path fill-rule="evenodd" clip-rule="evenodd" d="M509 160.5C509 161.328 508.331 162 507.5 162C506.672 162 506 161.328 506 160.5C506 159.672 506.672 159 507.5 159C508.331 159 509 159.672 509 160.5Z" fill="#D0E3FF"/>
<path fill-rule="evenodd" clip-rule="evenodd" d="M523 160.5C523 161.328 522.328 162 521.5 162C520.672 162 520 161.328 520 160.5C520 159.672 520.672 159 521.5 159C522.328 159 523 159.672 523 160.5Z" fill="#D0E3FF"/>
<path fill-rule="evenodd" clip-rule="evenodd" d="M530 160.5C530 161.328 529.331 162 528.503 162C527.672 162 527 161.328 527 160.5C527 159.672 527.672 159 528.503 159C529.331 159 530 159.672 530 160.5Z" fill="#D0E3FF"/>
<path fill-rule="evenodd" clip-rule="evenodd" d="M516 160.5C516 161.328 515.328 162 514.5 162C513.672 162 513 161.328 513 160.5C513 159.672 513.672 159 514.5 159C515.328 159 516 159.672 516 160.5Z" fill="#D0E3FF"/>
<path fill-rule="evenodd" clip-rule="evenodd" d="M538 160.5C538 161.328 537.328 162 536.5 162C535.672 162 535 161.328 535 160.5C535 159.672 535.672 159 536.5 159C537.328 159 538 159.672 538 160.5Z" fill="#D0E3FF"/>
<path fill-rule="evenodd" clip-rule="evenodd" d="M545 160.5C545 161.328 544.328 162 543.5 162C542.672 162 542 161.328 542 160.5C542 159.672 542.672 159 543.5 159C544.328 159 545 159.672 545 160.5Z" fill="#D0E3FF"/>
<path fill-rule="evenodd" clip-rule="evenodd" d="M545 168.5C545 169.328 544.328 170 543.5 170C542.672 170 542 169.328 542 168.5C542 167.672 542.672 167 543.5 167C544.328 167 545 167.672 545 168.5Z" fill="#D0E3FF"/>
<path fill-rule="evenodd" clip-rule="evenodd" d="M552 160.5C552 161.328 551.328 162 550.5 162C549.669 162 549 161.328 549 160.5C549 159.672 549.669 159 550.5 159C551.328 159 552 159.672 552 160.5Z" fill="#D0E3FF"/>
<path fill-rule="evenodd" clip-rule="evenodd" d="M560 160.5C560 161.328 559.328 162 558.5 162C557.672 162 557 161.328 557 160.5C557 159.672 557.672 159 558.5 159C559.328 159 560 159.672 560 160.5Z" fill="#D0E3FF"/>
<path fill-rule="evenodd" clip-rule="evenodd" d="M566 160.5C566 161.328 565.328 162 564.5 162C563.672 162 563 161.328 563 160.5C563 159.672 563.672 159 564.5 159C565.328 159 566 159.672 566 160.5Z" fill="#D0E3FF"/>
<path fill-rule="evenodd" clip-rule="evenodd" d="M494 168.5C494 169.328 493.328 170 492.5 170C491.669 170 491 169.328 491 168.5C491 167.672 491.669 167 492.5 167C493.328 167 494 167.672 494 168.5Z" fill="#D0E3FF"/>
<path fill-rule="evenodd" clip-rule="evenodd" d="M501 168.5C501 169.328 500.328 170 499.5 170C498.672 170 498 169.328 498 168.5C498 167.672 498.672 167 499.5 167C500.328 167 501 167.672 501 168.5Z" fill="#D0E3FF"/>
<path fill-rule="evenodd" clip-rule="evenodd" d="M509 168.5C509 169.328 508.331 170 507.5 170C506.672 170 506 169.328 506 168.5C506 167.672 506.672 167 507.5 167C508.331 167 509 167.672 509 168.5Z" fill="#D0E3FF"/>
<path fill-rule="evenodd" clip-rule="evenodd" d="M516 168.5C516 169.328 515.328 170 514.5 170C513.672 170 513 169.328 513 168.5C513 167.672 513.672 167 514.5 167C515.328 167 516 167.672 516 168.5Z" fill="#D0E3FF"/>
<path fill-rule="evenodd" clip-rule="evenodd" d="M523 168.5C523 169.328 522.328 170 521.5 170C520.672 170 520 169.328 520 168.5C520 167.672 520.672 167 521.5 167C522.328 167 523 167.672 523 168.5Z" fill="#D0E3FF"/>
<path fill-rule="evenodd" clip-rule="evenodd" d="M530 168.5C530 169.328 529.331 170 528.503 170C527.672 170 527 169.328 527 168.5C527 167.672 527.672 167 528.503 167C529.331 167 530 167.672 530 168.5Z" fill="#D0E3FF"/>
<path fill-rule="evenodd" clip-rule="evenodd" d="M538 168.5C538 169.328 537.328 170 536.5 170C535.672 170 535 169.328 535 168.5C535 167.672 535.672 167 536.5 167C537.328 167 538 167.672 538 168.5Z" fill="#D0E3FF"/>
<path fill-rule="evenodd" clip-rule="evenodd" d="M552 168.5C552 169.328 551.328 170 550.5 170C549.669 170 549 169.328 549 168.5C549 167.672 549.669 167 550.5 167C551.328 167 552 167.672 552 168.5Z" fill="#D0E3FF"/>
<path fill-rule="evenodd" clip-rule="evenodd" d="M560 168.5C560 169.328 559.328 170 558.5 170C557.672 170 557 169.328 557 168.5C557 167.672 557.672 167 558.5 167C559.328 167 560 167.672 560 168.5Z" fill="#D0E3FF"/>
<path fill-rule="evenodd" clip-rule="evenodd" d="M566 168.5C566 169.328 565.328 170 564.5 170C563.672 170 563 169.328 563 168.5C563 167.672 563.672 167 564.5 167C565.328 167 566 167.672 566 168.5Z" fill="#D0E3FF"/>
<path fill-rule="evenodd" clip-rule="evenodd" d="M494 175.5C494 176.328 493.328 177 492.5 177C491.669 177 491 176.328 491 175.5C491 174.671 491.669 174 492.5 174C493.328 174 494 174.671 494 175.5Z" fill="#D0E3FF"/>
<path fill-rule="evenodd" clip-rule="evenodd" d="M501 175.5C501 176.328 500.328 177 499.5 177C498.672 177 498 176.328 498 175.5C498 174.671 498.672 174 499.5 174C500.328 174 501 174.671 501 175.5Z" fill="#D0E3FF"/>
<path fill-rule="evenodd" clip-rule="evenodd" d="M509 175.5C509 176.328 508.331 177 507.5 177C506.672 177 506 176.328 506 175.5C506 174.671 506.672 174 507.5 174C508.331 174 509 174.671 509 175.5Z" fill="#D0E3FF"/>
<path fill-rule="evenodd" clip-rule="evenodd" d="M516 175.5C516 176.328 515.328 177 514.5 177C513.672 177 513 176.328 513 175.5C513 174.671 513.672 174 514.5 174C515.328 174 516 174.671 516 175.5Z" fill="#D0E3FF"/>
<path fill-rule="evenodd" clip-rule="evenodd" d="M523 175.5C523 176.328 522.328 177 521.5 177C520.672 177 520 176.328 520 175.5C520 174.671 520.672 174 521.5 174C522.328 174 523 174.671 523 175.5Z" fill="#D0E3FF"/>
<path fill-rule="evenodd" clip-rule="evenodd" d="M530 175.5C530 176.328 529.331 177 528.503 177C527.672 177 527 176.328 527 175.5C527 174.671 527.672 174 528.503 174C529.331 174 530 174.671 530 175.5Z" fill="#D0E3FF"/>
<path fill-rule="evenodd" clip-rule="evenodd" d="M545 175.5C545 176.328 544.328 177 543.5 177C542.672 177 542 176.328 542 175.5C542 174.671 542.672 174 543.5 174C544.328 174 545 174.671 545 175.5Z" fill="#D0E3FF"/>
<path fill-rule="evenodd" clip-rule="evenodd" d="M538 175.5C538 176.328 537.328 177 536.5 177C535.672 177 535 176.328 535 175.5C535 174.671 535.672 174 536.5 174C537.328 174 538 174.671 538 175.5Z" fill="#D0E3FF"/>
<path fill-rule="evenodd" clip-rule="evenodd" d="M552 175.5C552 176.328 551.328 177 550.5 177C549.669 177 549 176.328 549 175.5C549 174.671 549.669 174 550.5 174C551.328 174 552 174.671 552 175.5Z" fill="#D0E3FF"/>
<path fill-rule="evenodd" clip-rule="evenodd" d="M560 175.5C560 176.328 559.328 177 558.5 177C557.672 177 557 176.328 557 175.5C557 174.671 557.672 174 558.5 174C559.328 174 560 174.671 560 175.5Z" fill="#D0E3FF"/>
<path fill-rule="evenodd" clip-rule="evenodd" d="M566 175.5C566 176.328 565.328 177 564.5 177C563.672 177 563 176.328 563 175.5C563 174.671 563.672 174 564.5 174C565.328 174 566 174.671 566 175.5Z" fill="#D0E3FF"/>
<path fill-rule="evenodd" clip-rule="evenodd" d="M494 183.5C494 184.329 493.328 185 492.5 185C491.669 185 491 184.329 491 183.5C491 182.672 491.669 182 492.5 182C493.328 182 494 182.672 494 183.5Z" fill="#D0E3FF"/>
<path fill-rule="evenodd" clip-rule="evenodd" d="M501 183.5C501 184.329 500.328 185 499.5 185C498.672 185 498 184.329 498 183.5C498 182.672 498.672 182 499.5 182C500.328 182 501 182.672 501 183.5Z" fill="#D0E3FF"/>
<path fill-rule="evenodd" clip-rule="evenodd" d="M509 183.5C509 184.329 508.331 185 507.5 185C506.672 185 506 184.329 506 183.5C506 182.672 506.672 182 507.5 182C508.331 182 509 182.672 509 183.5Z" fill="#D0E3FF"/>
<path fill-rule="evenodd" clip-rule="evenodd" d="M516 183.5C516 184.329 515.328 185 514.5 185C513.672 185 513 184.329 513 183.5C513 182.672 513.672 182 514.5 182C515.328 182 516 182.672 516 183.5Z" fill="#D0E3FF"/>
<path fill-rule="evenodd" clip-rule="evenodd" d="M523 183.5C523 184.329 522.328 185 521.5 185C520.672 185 520 184.329 520 183.5C520 182.672 520.672 182 521.5 182C522.328 182 523 182.672 523 183.5Z" fill="#D0E3FF"/>
<path fill-rule="evenodd" clip-rule="evenodd" d="M538 183.5C538 184.329 537.328 185 536.5 185C535.672 185 535 184.329 535 183.5C535 182.672 535.672 182 536.5 182C537.328 182 538 182.672 538 183.5Z" fill="#D0E3FF"/>
<path fill-rule="evenodd" clip-rule="evenodd" d="M530 183.5C530 184.329 529.331 185 528.503 185C527.672 185 527 184.329 527 183.5C527 182.672 527.672 182 528.503 182C529.331 182 530 182.672 530 183.5Z" fill="#D0E3FF"/>
<path fill-rule="evenodd" clip-rule="evenodd" d="M545 183.5C545 184.329 544.328 185 543.5 185C542.672 185 542 184.329 542 183.5C542 182.672 542.672 182 543.5 182C544.328 182 545 182.672 545 183.5Z" fill="#D0E3FF"/>
<path fill-rule="evenodd" clip-rule="evenodd" d="M552 183.5C552 184.329 551.328 185 550.5 185C549.669 185 549 184.329 549 183.5C549 182.672 549.669 182 550.5 182C551.328 182 552 182.672 552 183.5Z" fill="#D0E3FF"/>
<path fill-rule="evenodd" clip-rule="evenodd" d="M560 183.5C560 184.329 559.328 185 558.5 185C557.672 185 557 184.329 557 183.5C557 182.672 557.672 182 558.5 182C559.328 182 560 182.672 560 183.5Z" fill="#D0E3FF"/>
<path fill-rule="evenodd" clip-rule="evenodd" d="M566 183.5C566 184.329 565.328 185 564.5 185C563.672 185 563 184.329 563 183.5C563 182.672 563.672 182 564.5 182C565.328 182 566 182.672 566 183.5Z" fill="#D0E3FF"/>
<path fill-rule="evenodd" clip-rule="evenodd" d="M494 190.5C494 191.328 493.328 192 492.5 192C491.669 192 491 191.328 491 190.5C491 189.671 491.669 189 492.5 189C493.328 189 494 189.671 494 190.5Z" fill="#D0E3FF"/>
<path fill-rule="evenodd" clip-rule="evenodd" d="M501 190.5C501 191.328 500.328 192 499.5 192C498.672 192 498 191.328 498 190.5C498 189.671 498.672 189 499.5 189C500.328 189 501 189.671 501 190.5Z" fill="#D0E3FF"/>
<path fill-rule="evenodd" clip-rule="evenodd" d="M509 190.5C509 191.328 508.331 192 507.5 192C506.672 192 506 191.328 506 190.5C506 189.671 506.672 189 507.5 189C508.331 189 509 189.671 509 190.5Z" fill="#D0E3FF"/>
<path fill-rule="evenodd" clip-rule="evenodd" d="M516 190.5C516 191.328 515.328 192 514.5 192C513.672 192 513 191.328 513 190.5C513 189.671 513.672 189 514.5 189C515.328 189 516 189.671 516 190.5Z" fill="#D0E3FF"/>
<path fill-rule="evenodd" clip-rule="evenodd" d="M523 190.5C523 191.328 522.328 192 521.5 192C520.672 192 520 191.328 520 190.5C520 189.671 520.672 189 521.5 189C522.328 189 523 189.671 523 190.5Z" fill="#D0E3FF"/>
<path fill-rule="evenodd" clip-rule="evenodd" d="M530 190.5C530 191.328 529.331 192 528.503 192C527.672 192 527 191.328 527 190.5C527 189.671 527.672 189 528.503 189C529.331 189 530 189.671 530 190.5Z" fill="#D0E3FF"/>
<path fill-rule="evenodd" clip-rule="evenodd" d="M538 190.5C538 191.328 537.328 192 536.5 192C535.672 192 535 191.328 535 190.5C535 189.671 535.672 189 536.5 189C537.328 189 538 189.671 538 190.5Z" fill="#D0E3FF"/>
<path fill-rule="evenodd" clip-rule="evenodd" d="M545 190.5C545 191.328 544.328 192 543.5 192C542.672 192 542 191.328 542 190.5C542 189.671 542.672 189 543.5 189C544.328 189 545 189.671 545 190.5Z" fill="#D0E3FF"/>
<path fill-rule="evenodd" clip-rule="evenodd" d="M552 190.5C552 191.328 551.328 192 550.5 192C549.669 192 549 191.328 549 190.5C549 189.671 549.669 189 550.5 189C551.328 189 552 189.671 552 190.5Z" fill="#D0E3FF"/>
<path fill-rule="evenodd" clip-rule="evenodd" d="M560 190.5C560 191.328 559.328 192 558.5 192C557.672 192 557 191.328 557 190.5C557 189.671 557.672 189 558.5 189C559.328 189 560 189.671 560 190.5Z" fill="#D0E3FF"/>
<path fill-rule="evenodd" clip-rule="evenodd" d="M566 190.5C566 191.328 565.328 192 564.5 192C563.672 192 563 191.328 563 190.5C563 189.671 563.672 189 564.5 189C565.328 189 566 189.671 566 190.5Z" fill="#D0E3FF"/>
<path fill-rule="evenodd" clip-rule="evenodd" d="M566 198.5C566 199.328 565.328 200 564.5 200C563.672 200 563 199.328 563 198.5C563 197.672 563.672 197 564.5 197C565.328 197 566 197.672 566 198.5Z" fill="#D0E3FF"/>
<path fill-rule="evenodd" clip-rule="evenodd" d="M559 205.5C559 206.328 558.328 207 557.5 207C556.669 207 556 206.328 556 205.5C556 204.671 556.669 204 557.5 204C558.328 204 559 204.671 559 205.5Z" fill="#D0E3FF"/>
<path fill-rule="evenodd" clip-rule="evenodd" d="M560 198.5C560 199.328 559.328 200 558.5 200C557.672 200 557 199.328 557 198.5C557 197.672 557.672 197 558.5 197C559.328 197 560 197.672 560 198.5Z" fill="#D0E3FF"/>
<path fill-rule="evenodd" clip-rule="evenodd" d="M565.209 127H553.791C553.353 127 553 126.552 553 126C553 125.448 553.353 125 553.791 125H565.209C565.647 125 566 125.448 566 126C566 126.552 565.647 127 565.209 127Z" fill="#0B1E57"/>
<path fill-rule="evenodd" clip-rule="evenodd" d="M584.197 152C583.753 152 583.395 151.653 583.395 151.225V127.549H572.803C572.358 127.549 572 127.202 572 126.775C572 126.347 572.358 126 572.803 126H584.197C584.642 126 585 126.347 585 126.775V151.225C585 151.653 584.642 152 584.197 152Z" fill="#0B1E57"/>
<path fill-rule="evenodd" clip-rule="evenodd" d="M554.834 208C554.701 208 554.564 207.964 554.442 207.891C554.15 207.713 554.007 207.361 554.098 207.028L559.452 187.571H495.764C495.344 187.571 495 187.228 495 186.804V134.768C495 134.344 495.344 134 495.764 134H514.175C514.598 134 514.939 134.344 514.939 134.768C514.939 135.192 514.598 135.535 514.175 135.535H496.53V186.036H560.456C560.697 186.036 560.922 186.148 561.065 186.339C561.211 186.529 561.257 186.777 561.196 187.008L556.307 204.769L575.47 186.474V135.535H523.597C523.174 135.535 522.83 135.192 522.83 134.768C522.83 134.344 523.174 134 523.597 134H576.236C576.656 134 577 134.344 577 134.768V186.804C577 187.014 576.912 187.215 576.763 187.36L555.364 207.789C555.218 207.928 555.026 208 554.834 208Z" fill="#A7C8FF"/>
<path fill-rule="evenodd" clip-rule="evenodd" d="M526.212 127C525.948 127 525.688 126.878 525.541 126.658L521.117 120.084C520.888 119.748 521.007 119.309 521.377 119.104C521.75 118.9 522.233 119.005 522.462 119.342L526.886 125.916C527.111 126.252 526.992 126.691 526.622 126.896C526.494 126.966 526.353 127 526.212 127Z" fill="#1063FE"/>
<path fill-rule="evenodd" clip-rule="evenodd" d="M535.752 126C535.662 126 535.572 125.984 535.482 125.951C535.096 125.805 534.901 125.378 535.051 124.998L539.546 113.475C539.692 113.094 540.127 112.903 540.517 113.049C540.903 113.195 541.098 113.621 540.951 114.002L536.456 125.525C536.339 125.819 536.054 126 535.752 126Z" fill="#1063FE"/>
<path fill-rule="evenodd" clip-rule="evenodd" d="M557.233 156H530.764C530.341 156 530 155.552 530 155C530 154.448 530.341 154 530.764 154H557.233C557.656 154 558 154.448 558 155C558 155.552 557.656 156 557.233 156Z" fill="#0B1E57"/>
<path fill-rule="evenodd" clip-rule="evenodd" d="M557.213 163H536.784C536.35 163 536 162.552 536 162C536 161.448 536.35 161 536.784 161H557.213C557.647 161 558 161.448 558 162C558 162.552 557.647 163 557.213 163Z" fill="#0B1E57"/>
<path fill-rule="evenodd" clip-rule="evenodd" d="M557.229 171H515.768C515.343 171 515 170.552 515 170C515 169.448 515.343 169 515.768 169H557.229C557.654 169 558 169.448 558 170C558 170.552 557.654 171 557.229 171Z" fill="#0B1E57"/>
<path opacity="0.679618" fill-rule="evenodd" clip-rule="evenodd" d="M284 56.4997C284 72.7922 270.791 86 254.5 86C238.209 86 225 72.7922 225 56.4997C225 40.2075 238.209 27 254.5 27C270.791 27 284 40.2075 284 56.4997Z" fill="#E4E8EB"/>
<path opacity="0.679618" fill-rule="evenodd" clip-rule="evenodd" d="M270 88H170C172.533 82.6542 177.981 78.9539 184.29 78.9539C184.495 78.9539 184.694 78.9594 184.893 78.9703C188.254 74.1838 193.81 71.059 200.103 71.059C200.942 71.059 201.77 71.1128 202.577 71.2258C206.546 61.6957 215.947 55 226.913 55C237.82 55 247.175 61.6205 251.182 71.0645C251.287 71.059 251.396 71.059 251.505 71.059C261.21 71.059 269.178 78.5077 270 88Z" fill="#E4E8EB"/>
<path fill-rule="evenodd" clip-rule="evenodd" d="M170.784 87.673H269.575C268.434 78.9547 260.725 72.2269 251.71 72.2269C251.613 72.2263 251.516 72.2263 251.418 72.2314C251.132 72.2478 250.874 72.0842 250.764 71.8278C246.701 62.4113 237.359 56.327 226.958 56.327C216.484 56.327 207.113 62.4727 203.086 71.9837C202.968 72.2619 202.674 72.4276 202.37 72.3855C201.605 72.2801 200.799 72.2269 199.973 72.2269C194.108 72.2269 188.592 75.0493 185.216 79.7773C185.083 79.9646 184.862 80.0711 184.628 80.0585C184.439 80.0487 184.251 80.0436 184.058 80.0436C178.564 80.0436 173.466 83.0057 170.784 87.673ZM270.326 89H169.675C169.443 89 169.228 88.8833 169.105 88.6913C168.981 88.4992 168.966 88.2578 169.065 88.0523C171.797 82.3811 177.682 78.7166 184.058 78.7166C184.148 78.7166 184.238 78.7178 184.328 78.7196C187.972 73.8163 193.792 70.8999 199.973 70.8999C200.679 70.8999 201.373 70.9364 202.043 71.0085C206.385 61.2662 216.11 55 226.958 55C237.748 55 247.459 61.2261 251.826 70.9002C256.658 70.9283 261.272 72.7145 264.827 75.9378C268.388 79.1671 270.581 83.5502 270.998 88.2794C271.013 88.4645 270.949 88.6479 270.821 88.7849C270.694 88.9219 270.514 89 270.326 89Z" fill="white"/>
<path opacity="0.679618" fill-rule="evenodd" clip-rule="evenodd" d="M353 305H278.06C278.021 304.582 278 304.168 278 303.741C278 296.325 284.02 290.306 291.437 290.306C292.437 290.306 293.414 290.418 294.355 290.625C297.405 284.333 303.855 280 311.314 280C318.698 280 325.09 284.252 328.173 290.442C328.798 290.352 329.439 290.306 330.088 290.306C335.302 290.306 339.819 293.278 342.052 297.614C342.695 297.467 343.368 297.389 344.059 297.389C348.567 297.389 352.309 300.685 353 305Z" fill="#E4E8EB"/>
<path fill-rule="evenodd" clip-rule="evenodd" d="M406 320.988L395.93 322L387 309.012L397.07 308L406 320.988Z" fill="#D0E3FF"/>
<path fill-rule="evenodd" clip-rule="evenodd" d="M397.527 307.887L387 309L398.473 298.113L409 297L397.527 307.887Z" fill="#D0E3FF"/>
<path fill-rule="evenodd" clip-rule="evenodd" d="M409.027 297L418 310.05L406.973 320L398 306.95L409.027 297Z" fill="#D0E3FF"/>
<path fill-rule="evenodd" clip-rule="evenodd" d="M406.072 322C405.789 322 405.51 321.858 405.339 321.593L396 307.228L407.51 296.244C407.875 295.896 408.438 295.924 408.768 296.306C409.098 296.685 409.074 297.275 408.709 297.62L398.339 307.518L406.809 320.544C407.086 320.97 406.98 321.55 406.573 321.84C406.42 321.948 406.246 322 406.072 322Z" fill="white"/>
<path fill-rule="evenodd" clip-rule="evenodd" d="M386.977 310C386.482 310 386.057 309.637 386.005 309.144C385.95 308.619 386.342 308.152 386.88 308.098L397.922 307.005C398.46 306.954 398.943 307.333 398.995 307.858C399.05 308.382 398.658 308.85 398.123 308.904L387.078 309.997C387.042 310 387.01 310 386.977 310Z" fill="white"/>
<path fill-rule="evenodd" clip-rule="evenodd" d="M406.106 295C405.698 295 405.328 294.687 405.236 294.227L404.021 288.2C403.915 287.669 404.216 287.144 404.698 287.023C405.18 286.906 405.656 287.242 405.766 287.773L406.978 293.8C407.087 294.332 406.783 294.86 406.301 294.977C406.236 294.993 406.171 295 406.106 295Z" fill="#D0E3FF"/>
<path fill-rule="evenodd" clip-rule="evenodd" d="M411.867 296C411.516 296 411.186 295.781 411.054 295.425C410.888 294.969 411.117 294.461 411.565 294.292L414.829 293.057C415.277 292.884 415.776 293.118 415.946 293.574C416.112 294.032 415.883 294.537 415.435 294.709L412.171 295.945C412.07 295.982 411.967 296 411.867 296Z" fill="#D0E3FF"/>
<path fill-rule="evenodd" clip-rule="evenodd" d="M117.588 316L95 329.186L105.115 344L128 330.658L117.588 316Z" fill="#D0E3FF"/>
<path fill-rule="evenodd" clip-rule="evenodd" d="M128.868 319.189C131.871 323.234 131.678 328.445 128.437 330.826C125.196 333.204 120.135 331.857 117.132 327.809C114.129 323.764 114.322 318.557 117.563 316.176C120.804 313.795 125.865 315.145 128.868 319.189Z" fill="#D0E3FF"/>
<path fill-rule="evenodd" clip-rule="evenodd" d="M121.295 315.088C120.174 315.088 119.11 315.397 118.217 316.054C115.469 318.075 115.376 322.61 118.011 326.164C120.645 329.718 125.025 330.965 127.773 328.944C129.067 327.993 129.818 326.443 129.887 324.583C129.959 322.631 129.282 320.592 127.979 318.834C126.2 316.435 123.625 315.088 121.295 315.088ZM124.717 332C121.722 332 118.504 330.366 116.315 327.411C112.99 322.928 113.282 317.074 116.965 314.366C120.648 311.658 126.35 313.103 129.675 317.587C131.26 319.725 132.083 322.235 131.993 324.658C131.901 327.172 130.846 329.295 129.025 330.632C127.766 331.559 126.272 332 124.717 332Z" fill="white"/>
<path fill-rule="evenodd" clip-rule="evenodd" d="M101.056 337C100.698 337 100.349 336.819 100.151 336.496C99.8508 336.005 100.012 335.368 100.512 335.071L122.402 322.148C122.901 321.854 123.549 322.011 123.849 322.503C124.149 322.995 123.987 323.632 123.488 323.925L101.598 336.849C101.428 336.95 101.241 337 101.056 337Z" fill="white"/>
<path fill-rule="evenodd" clip-rule="evenodd" d="M106.868 331.189C109.871 335.236 109.678 340.444 106.437 342.824C103.196 345.205 98.1346 343.855 95.132 339.811C92.129 335.764 92.3217 330.556 95.5628 328.176C98.8033 325.795 103.865 327.145 106.868 331.189Z" fill="#D0E3FF"/>
<path fill-rule="evenodd" clip-rule="evenodd" d="M98.2918 329.099C97.1469 329.099 96.093 329.425 95.225 330.063C93.9311 331.013 93.1808 332.562 93.1122 334.419C93.0399 336.366 93.7171 338.406 95.0185 340.162C96.3202 341.914 98.0787 343.16 99.97 343.663C101.775 344.146 103.481 343.888 104.775 342.936C106.069 341.986 106.819 340.437 106.888 338.58C106.96 336.633 106.283 334.593 104.981 332.837C103.68 331.085 101.922 329.839 100.03 329.336C99.4361 329.177 98.8531 329.099 98.2918 329.099ZM101.718 346C100.972 346 100.203 345.898 99.4247 345.688C97.0741 345.062 94.9077 343.541 93.3237 341.405C91.74 339.272 90.9172 336.762 91.0066 334.341C91.0996 331.831 92.1533 329.713 93.9735 328.377C95.7938 327.038 98.1386 326.661 100.576 327.311C102.926 327.937 105.093 329.458 106.677 331.594C108.26 333.727 109.083 336.237 108.993 338.658C108.901 341.168 107.847 343.286 106.027 344.622C104.788 345.533 103.306 346 101.718 346Z" fill="white"/>
<path fill-rule="evenodd" clip-rule="evenodd" d="M120.83 312C120.362 312 119.92 311.742 119.74 311.321L115.08 300.447C114.846 299.901 115.144 299.285 115.746 299.072C116.349 298.86 117.027 299.13 117.26 299.676L121.92 310.553C122.154 311.099 121.856 311.715 121.254 311.927C121.115 311.976 120.971 312 120.83 312Z" fill="#D0E3FF"/>
<path fill-rule="evenodd" clip-rule="evenodd" d="M128.047 313C127.79 313 127.532 312.909 127.33 312.729C126.909 312.35 126.888 311.72 127.284 311.318L134.19 304.315C134.586 303.913 135.248 303.893 135.67 304.27C136.091 304.649 136.112 305.279 135.716 305.681L128.81 312.684C128.604 312.895 128.326 313 128.047 313Z" fill="#D0E3FF"/>
<path fill-rule="evenodd" clip-rule="evenodd" d="M150.014 19H136.986C136.441 19 136 18.552 136 18C136 17.4476 136.441 17 136.986 17H150.014C150.559 17 151 17.4476 151 18C151 18.552 150.559 19 150.014 19Z" fill="#D0E3FF"/>
<path fill-rule="evenodd" clip-rule="evenodd" d="M161.014 29H147.986C147.442 29 147 28.5524 147 28C147 27.4476 147.442 27 147.986 27H161.014C161.559 27 162 27.4476 162 28C162 28.5524 161.559 29 161.014 29Z" fill="#D0E3FF"/>
<path fill-rule="evenodd" clip-rule="evenodd" d="M398.014 248H384.986C384.443 248 384 247.553 384 246.998C384 246.447 384.443 246 384.986 246H398.014C398.557 246 399 246.447 399 246.998C399 247.553 398.557 248 398.014 248Z" fill="#D0E3FF"/>
<path fill-rule="evenodd" clip-rule="evenodd" d="M410.016 258H396.987C396.443 258 396 257.551 396 257C396 256.446 396.443 256 396.987 256H410.016C410.56 256 411 256.446 411 257C411 257.551 410.56 258 410.016 258Z" fill="#D0E3FF"/>
<path fill-rule="evenodd" clip-rule="evenodd" d="M26.0141 296H12.9859C12.4413 296 12 295.553 12 294.998C12 294.447 12.4413 294 12.9859 294H26.0141C26.5587 294 27 294.447 27 294.998C27 295.553 26.5587 296 26.0141 296Z" fill="#D0E3FF"/>
<path fill-rule="evenodd" clip-rule="evenodd" d="M37.0141 306H23.9859C23.4416 306 23 305.551 23 305C23 304.446 23.4416 304 23.9859 304H37.0141C37.5587 304 38 304.446 38 305C38 305.551 37.5587 306 37.0141 306Z" fill="#D0E3FF"/>
<path fill-rule="evenodd" clip-rule="evenodd" d="M447.016 94H433.987C433.443 94 433 93.5524 433 93C433 92.448 433.443 92 433.987 92H447.016C447.56 92 448 92.448 448 93C448 93.5524 447.56 94 447.016 94Z" fill="#D0E3FF"/>
<path fill-rule="evenodd" clip-rule="evenodd" d="M433.013 104H419.987C419.44 104 419 103.552 419 103C419 102.448 419.44 102 419.987 102H433.013C433.56 102 434 102.448 434 103C434 103.552 433.56 104 433.013 104Z" fill="#D0E3FF"/>
<path opacity="0.679618" fill-rule="evenodd" clip-rule="evenodd" d="M541.013 280H527.987C527.44 280 527 279.553 527 278.998C527 278.447 527.44 278 527.987 278H541.013C541.56 278 542 278.447 542 278.998C542 279.553 541.56 280 541.013 280Z" fill="#E4E8EB"/>
<path opacity="0.679618" fill-rule="evenodd" clip-rule="evenodd" d="M555.013 291H541.987C541.44 291 541 290.551 541 290C541 289.446 541.44 289 541.987 289H555.013C555.56 289 556 289.446 556 290C556 290.551 555.56 291 555.013 291Z" fill="#E4E8EB"/>
<path opacity="0.679618" fill-rule="evenodd" clip-rule="evenodd" d="M418 365H470V357H418V365Z" fill="#E4E8EB"/>
<path opacity="0.679618" fill-rule="evenodd" clip-rule="evenodd" d="M497 350H549V342H497V350Z" fill="#E4E8EB"/>
</svg>
