<svg width="209" height="223" viewBox="0 0 209 223" fill="none" xmlns="http://www.w3.org/2000/svg">
<path d="M105.798 24.0532L104.798 39.0532L103.202 38.9468L104.202 23.9468L105.798 24.0532ZM103.202 38.9468L104.202 23.9468L105.798 24.0532L104.798 39.0532L103.202 38.9468ZM4.68133 1.58072L12.6813 14.5807L11.3187 15.4193L3.31867 2.41928L4.68133 1.58072ZM11.3187 15.4193L3.31867 2.41928L4.68133 1.58072L12.6813 14.5807L11.3187 15.4193ZM4.68133 25.5807L12.6813 38.5807L11.3187 39.4193L3.31867 26.4193L4.68133 25.5807ZM11.3187 39.4193L3.31867 26.4193L4.68133 25.5807L12.6813 38.5807L11.3187 39.4193ZM29.7353 1.68486L35.7353 15.6849L34.2647 16.3151L28.2647 2.31514L29.7353 1.68486ZM34.2647 16.3151L28.2647 2.31514L29.7353 1.68486L35.7353 15.6849L34.2647 16.3151ZM1.16762 218.218L15.1676 221.218L14.8324 222.782L0.832377 219.782L1.16762 218.218ZM14.8324 222.782L0.832377 219.782L1.16762 218.218L15.1676 221.218L14.8324 222.782ZM4.66564 48.5562L12.6656 60.5562L11.3344 61.4438L3.33436 49.4438L4.66564 48.5562ZM11.3344 61.4438L3.33436 49.4438L4.66564 48.5562L12.6656 60.5562L11.3344 61.4438ZM1.21978 194.231L15.2198 198.231L14.7802 199.769L0.780223 195.769L1.21978 194.231ZM14.7802 199.769L0.780223 195.769L1.21978 194.231L15.2198 198.231L14.7802 199.769ZM4.64 72.52L13.64 84.52L12.36 85.48L3.36 73.48L4.64 72.52ZM12.36 85.48L3.36 73.48L4.64 72.52L13.64 84.52L12.36 85.48ZM29.7353 24.6849L35.7353 38.6849L34.2647 39.3151L28.2647 25.3151L29.7353 24.6849ZM34.2647 39.3151L28.2647 25.3151L29.7353 24.6849L35.7353 38.6849L34.2647 39.3151ZM3.59195 96.4619L13.592 107.462L12.408 108.538L2.40805 97.5381L3.59195 96.4619ZM12.408 108.538L2.40805 97.5381L3.59195 96.4619L13.592 107.462L12.408 108.538ZM1.35777 169.284L15.3578 176.284L14.6422 177.716L0.642229 170.716L1.35777 169.284ZM14.6422 177.716L0.642229 170.716L1.35777 169.284L15.3578 176.284L14.6422 177.716ZM2.45537 144.342L15.4554 153.342L14.5446 154.658L1.54463 145.658L2.45537 144.342ZM14.5446 154.658L1.54463 145.658L2.45537 144.342L15.4554 153.342L14.5446 154.658ZM2.48 121.36L14.48 130.36L13.52 131.64L1.52 122.64L2.48 121.36ZM13.52 131.64L1.52 122.64L2.48 121.36L14.48 130.36L13.52 131.64ZM55.7822 0.832377L58.7822 14.8324L57.2178 15.1676L54.2178 1.16762L55.7822 0.832377ZM57.2178 15.1676L54.2178 1.16762L55.7822 0.832377L58.7822 14.8324L57.2178 15.1676ZM25.1676 218.218L39.1676 221.218L38.8324 222.782L24.8324 219.782L25.1676 218.218ZM38.8324 222.782L24.8324 219.782L25.1676 218.218L39.1676 221.218L38.8324 222.782ZM29.7155 47.6422L36.7155 61.6422L35.2845 62.3578L28.2845 48.3578L29.7155 47.6422ZM35.2845 62.3578L28.2845 48.3578L29.7155 47.6422L36.7155 61.6422L35.2845 62.3578ZM28.6813 71.5807L36.6813 84.5807L35.3187 85.4193L27.3187 72.4193L28.6813 71.5807ZM35.3187 85.4193L27.3187 72.4193L28.6813 71.5807L36.6813 84.5807L35.3187 85.4193ZM25.3151 193.265L39.3151 199.265L38.6849 200.735L24.6849 194.735L25.3151 193.265ZM38.6849 200.735L24.6849 194.735L25.3151 193.265L39.3151 199.265L38.6849 200.735ZM55.7692 24.7802L59.7692 38.7802L58.2308 39.2198L54.2308 25.2198L55.7692 24.7802ZM58.2308 39.2198L54.2308 25.2198L55.7692 24.7802L59.7692 38.7802L58.2308 39.2198ZM80.7982 0.946785L81.7982 15.9468L80.2018 16.0532L79.2018 1.05322L80.7982 0.946785ZM80.2018 16.0532L79.2018 1.05322L80.7982 0.946785L81.7982 15.9468L80.2018 16.0532ZM25.4193 168.319L38.4193 176.319L37.5807 177.681L24.5807 169.681L25.4193 168.319ZM37.5807 177.681L24.5807 169.681L25.4193 168.319L38.4193 176.319L37.5807 177.681ZM27.64 96.52L36.64 108.52L35.36 109.48L26.36 97.48L27.64 96.52ZM35.36 109.48L26.36 97.48L27.64 96.52L36.64 108.52L35.36 109.48ZM27.592 120.462L37.592 131.462L36.408 132.538L26.408 121.538L27.592 120.462ZM36.408 132.538L26.408 121.538L27.592 120.462L37.592 131.462L36.408 132.538ZM26.48 145.36L38.48 154.36L37.52 155.64L25.52 146.64L26.48 145.36ZM37.52 155.64L25.52 146.64L26.48 145.36L38.48 154.36L37.52 155.64ZM49.2198 218.231L63.2198 222.231L62.7802 223.769L48.7802 219.769L49.2198 218.231ZM62.7802 223.769L48.7802 219.769L49.2198 218.231L63.2198 222.231L62.7802 223.769ZM54.7534 48.7309L59.7534 62.7309L58.2466 63.2691L53.2466 49.2691L54.7534 48.7309ZM58.2466 63.2691L53.2466 49.2691L54.7534 48.7309L59.7534 62.7309L58.2466 63.2691ZM79.792 24.8869L81.792 38.8869L80.208 39.1131L78.208 25.1131L79.792 24.8869ZM80.208 39.1131L78.208 25.1131L79.792 24.8869L81.792 38.8869L80.208 39.1131ZM49.3578 193.284L63.3578 200.284L62.6422 201.716L48.6422 194.716L49.3578 193.284ZM62.6422 201.716L48.6422 194.716L49.3578 193.284L63.3578 200.284L62.6422 201.716ZM54.7353 71.6849L60.7353 85.6849L59.2647 86.3151L53.2647 72.3151L54.7353 71.6849ZM59.2647 86.3151L53.2647 72.3151L54.7353 71.6849L60.7353 85.6849L59.2647 86.3151ZM53.6813 95.5807L61.6813 108.581L60.3187 109.419L52.3187 96.4193L53.6813 95.5807ZM60.3187 109.419L52.3187 96.4193L53.6813 95.5807L61.6813 108.581L60.3187 109.419ZM50.48 168.36L62.48 177.36L61.52 178.64L49.52 169.64L50.48 168.36ZM61.52 178.64L49.52 169.64L50.48 168.36L62.48 177.36L61.52 178.64ZM51.64 119.52L60.64 131.52L59.36 132.48L50.36 120.48L51.64 119.52ZM59.36 132.48L50.36 120.48L51.64 119.52L60.64 131.52L59.36 132.48ZM50.5381 144.408L61.5381 154.408L60.4619 155.592L49.4619 145.592L50.5381 144.408ZM60.4619 155.592L49.4619 145.592L50.5381 144.408L61.5381 154.408L60.4619 155.592ZM73.2198 218.231L87.2198 222.231L86.7802 223.769L72.7802 219.769L73.2198 218.231ZM86.7802 223.769L72.7802 219.769L73.2198 218.231L87.2198 222.231L86.7802 223.769ZM79.7822 48.8324L82.7822 62.8324L81.2178 63.1676L78.2178 49.1676L79.7822 48.8324ZM81.2178 63.1676L78.2178 49.1676L79.7822 48.8324L82.7822 62.8324L81.2178 63.1676ZM73.3578 193.284L87.3578 200.284L86.6422 201.716L72.6422 194.716L73.3578 193.284ZM86.6422 201.716L72.6422 194.716L73.3578 193.284L87.3578 200.284L86.6422 201.716ZM78.7822 71.8324L81.7822 85.8324L80.2178 86.1676L77.2178 72.1676L78.7822 71.8324ZM80.2178 86.1676L77.2178 72.1676L78.7822 71.8324L81.7822 85.8324L80.2178 86.1676ZM105.498 48.0212L105.101 63.0212L103.502 62.9788L103.899 47.9788L105.498 48.0212ZM103.502 62.9788L103.899 47.9788L105.498 48.0212L105.101 63.0212L103.502 62.9788ZM74.48 168.36L86.48 177.36L85.52 178.64L73.52 169.64L74.48 168.36ZM85.52 178.64L73.52 169.64L74.48 168.36L86.48 177.36L85.52 178.64ZM77.7534 95.7309L82.7534 109.731L81.2466 110.269L76.2466 96.2691L77.7534 95.7309ZM81.2466 110.269L76.2466 96.2691L77.7534 95.7309L82.7534 109.731L81.2466 110.269ZM97.2198 218.231L111.22 222.231L110.78 223.769L96.7802 219.769L97.2198 218.231ZM110.78 223.769L96.7802 219.769L97.2198 218.231L111.22 222.231L110.78 223.769ZM76.6192 144.493L85.6192 155.493L84.3808 156.507L75.3808 145.507L76.6192 144.493ZM84.3808 156.507L75.3808 145.507L76.6192 144.493L85.6192 155.493L84.3808 156.507ZM76.6813 119.581L84.6813 132.581L83.3187 133.419L75.3187 120.419L76.6813 119.581ZM83.3187 133.419L75.3187 120.419L76.6813 119.581L84.6813 132.581L83.3187 133.419ZM98.4193 192.319L111.419 200.319L110.581 201.681L97.5807 193.681L98.4193 192.319ZM110.581 201.681L97.5807 193.681L98.4193 192.319L111.419 200.319L110.581 201.681ZM104.818 71.9488L105.779 86.9488L104.182 87.0512L103.221 72.0512L104.818 71.9488ZM104.182 87.0512L103.221 72.0512L104.818 71.9488L105.779 86.9488L104.182 87.0512ZM122.168 218.218L136.168 221.218L135.832 222.782L121.832 219.782L122.168 218.218ZM135.832 222.782L121.832 219.782L122.168 218.218L136.168 221.218L135.832 222.782ZM103.782 95.8324L106.782 109.832L105.218 110.168L102.218 96.1676L103.782 95.8324ZM105.218 110.168L102.218 96.1676L103.782 95.8324L106.782 109.832L105.218 110.168ZM99.5381 168.408L110.538 178.408L109.462 179.592L98.4619 169.592L99.5381 168.408ZM109.462 179.592L98.4619 169.592L99.5381 168.408L110.538 178.408L109.462 179.592ZM101.666 143.556L109.666 155.556L108.334 156.444L100.334 144.444L101.666 143.556ZM108.334 156.444L100.334 144.444L101.666 143.556L109.666 155.556L108.334 156.444ZM101.735 118.685L107.735 132.685L106.265 133.315L100.265 119.315L101.735 118.685ZM106.265 133.315L100.265 119.315L101.735 118.685L107.735 132.685L106.265 133.315ZM106.792 1.11314L104.792 15.1131L103.208 14.8869L105.208 0.886863L106.792 1.11314ZM103.208 14.8869L105.208 0.886863L106.792 1.11314L104.792 15.1131L103.208 14.8869ZM121.358 193.284L135.358 200.284L134.642 201.716L120.642 194.716L121.358 193.284ZM134.642 201.716L120.642 194.716L121.358 193.284L135.358 200.284L134.642 201.716ZM146.168 218.218L160.168 221.218L159.832 222.782L145.832 219.782L146.168 218.218ZM159.832 222.782L145.832 219.782L146.168 218.218L160.168 221.218L159.832 222.782ZM129.147 95.9837L129.453 110.984L127.853 111.016L127.547 96.0163L129.147 95.9837ZM127.853 111.016L127.547 96.0163L129.147 95.9837L129.453 110.984L127.853 111.016ZM123.538 168.408L134.538 178.408L133.462 179.592L122.462 169.592L123.538 168.408ZM133.462 179.592L122.462 169.592L123.538 168.408L134.538 178.408L133.462 179.592ZM169.001 219.687L184.001 219.713L183.999 221.313L168.999 221.287L169.001 219.687ZM183.999 221.313L168.999 221.287L169.001 219.687L184.001 219.713L183.999 221.313ZM127.782 118.832L130.782 132.832L129.218 133.168L126.218 119.168L127.782 118.832ZM129.218 133.168L126.218 119.168L127.782 118.832L130.782 132.832L129.218 133.168ZM125.681 143.581L133.681 156.581L132.319 157.419L124.319 144.419L125.681 143.581ZM132.319 157.419L124.319 144.419L125.681 143.581L133.681 156.581L132.319 157.419ZM146.315 193.265L160.315 199.265L159.685 200.735L145.685 194.735L146.315 193.265ZM159.685 200.735L145.685 194.735L146.315 193.265L160.315 199.265L159.685 200.735ZM193.832 221.218L207.832 218.218L208.168 219.782L194.168 222.782L193.832 221.218ZM208.168 219.782L194.168 222.782L193.832 221.218L207.832 218.218L208.168 219.782ZM147.538 168.408L158.538 178.408L157.462 179.592L146.462 169.592L147.538 168.408ZM157.462 179.592L146.462 169.592L147.538 168.408L158.538 178.408L157.462 179.592ZM170.168 195.218L184.168 198.218L183.832 199.782L169.832 196.782L170.168 195.218ZM183.832 199.782L169.832 196.782L170.168 195.218L184.168 198.218L183.832 199.782ZM152.793 118.894L154.793 133.894L153.207 134.106L151.207 119.106L152.793 118.894ZM153.207 134.106L151.207 119.106L152.793 118.894L154.793 133.894L153.207 134.106ZM149.716 142.642L156.716 156.642L155.284 157.358L148.284 143.358L149.716 142.642ZM155.284 157.358L148.284 143.358L149.716 142.642L156.716 156.642L155.284 157.358ZM193.947 197.202L208.947 196.202L209.053 197.798L194.053 198.798L193.947 197.202ZM209.053 197.798L194.053 198.798L193.947 197.202L208.947 196.202L209.053 197.798ZM171.419 168.319L184.419 176.319L183.581 177.681L170.581 169.681L171.419 168.319ZM183.581 177.681L170.581 169.681L171.419 168.319L184.419 176.319L183.581 177.681ZM173.716 142.642L180.716 156.642L179.284 157.358L172.284 143.358L173.716 142.642ZM179.284 157.358L172.284 143.358L173.716 142.642L180.716 156.642L179.284 157.358ZM194.168 171.218L208.168 174.218L207.832 175.782L193.832 172.782L194.168 171.218ZM207.832 175.782L193.832 172.782L194.168 171.218L208.168 174.218L207.832 175.782ZM195.538 144.408L206.538 154.408L205.462 155.592L194.462 145.592L195.538 144.408ZM205.462 155.592L194.462 145.592L195.538 144.408L206.538 154.408L205.462 155.592ZM205.619 121.507L196.619 132.507L195.381 131.493L204.381 120.493L205.619 121.507ZM195.381 131.493L204.381 120.493L205.619 121.507L196.619 132.507L195.381 131.493ZM207.379 100.704L194.379 107.704L193.621 106.296L206.621 99.2956L207.379 100.704ZM193.621 106.296L206.621 99.2956L207.379 100.704L194.379 107.704L193.621 106.296ZM208.358 76.7155L194.358 83.7155L193.642 82.2845L207.642 75.2845L208.358 76.7155ZM193.642 82.2845L207.642 75.2845L208.358 76.7155L194.358 83.7155L193.642 82.2845ZM207.419 52.6813L194.419 60.6813L193.581 59.3187L206.581 51.3187L207.419 52.6813ZM193.581 59.3187L206.581 51.3187L207.419 52.6813L194.419 60.6813L193.581 59.3187ZM207.455 28.6578L194.455 37.6578L193.545 36.3422L206.545 27.3422L207.455 28.6578ZM193.545 36.3422L206.545 27.3422L207.455 28.6578L194.455 37.6578L193.545 36.3422ZM207.48 4.64L195.48 13.64L194.52 12.36L206.52 3.36L207.48 4.64ZM194.52 12.36L206.52 3.36L207.48 4.64L195.48 13.64L194.52 12.36ZM178.792 119.113L176.792 133.113L175.208 132.887L177.208 118.887L178.792 119.113ZM175.208 132.887L177.208 118.887L178.792 119.113L176.792 133.113L175.208 132.887ZM181.681 96.4193L173.681 109.419L172.319 108.581L180.319 95.5807L181.681 96.4193ZM172.319 108.581L180.319 95.5807L181.681 96.4193L173.681 109.419L172.319 108.581ZM182.619 73.5066L173.619 84.5066L172.381 83.4934L181.381 72.4934L182.619 73.5066ZM172.381 83.4934L181.381 72.4934L182.619 73.5066L173.619 84.5066L172.381 83.4934ZM182.592 50.5381L172.592 61.5381L171.408 60.4619L181.408 49.4619L182.592 50.5381ZM171.408 60.4619L181.408 49.4619L182.592 50.5381L172.592 61.5381L171.408 60.4619ZM182.592 27.5381L172.592 38.5381L171.408 37.4619L181.408 26.4619L182.592 27.5381ZM171.408 37.4619L181.408 26.4619L182.592 27.5381L172.592 38.5381L171.408 37.4619ZM182.64 3.48L173.64 15.48L172.36 14.52L181.36 2.52L182.64 3.48ZM172.36 14.52L181.36 2.52L182.64 3.48L173.64 15.48L172.36 14.52ZM154.782 96.1676L151.782 110.168L150.218 109.832L153.218 95.8324L154.782 96.1676ZM150.218 109.832L153.218 95.8324L154.782 96.1676L151.782 110.168L150.218 109.832ZM156.735 72.3151L150.735 86.3151L149.265 85.6849L155.265 71.6849L156.735 72.3151ZM149.265 85.6849L155.265 71.6849L156.735 72.3151L150.735 86.3151L149.265 85.6849ZM156.716 48.3578L149.716 62.3578L148.284 61.6422L155.284 47.6422L156.716 48.3578ZM148.284 61.6422L155.284 47.6422L156.716 48.3578L149.716 62.3578L148.284 61.6422ZM156.704 26.3793L149.704 39.3793L148.296 38.6207L155.296 25.6207L156.704 26.3793ZM148.296 38.6207L155.296 25.6207L156.704 26.3793L149.704 39.3793L148.296 38.6207ZM156.716 2.35777L149.716 16.3578L148.284 15.6422L155.284 1.64223L156.716 2.35777ZM148.284 15.6422L155.284 1.64223L156.716 2.35777L149.716 16.3578L148.284 15.6422ZM129.792 72.1131L127.792 86.1131L126.208 85.8869L128.208 71.8869L129.792 72.1131ZM126.208 85.8869L128.208 71.8869L129.792 72.1131L127.792 86.1131L126.208 85.8869ZM130.782 49.1676L127.782 63.1676L126.218 62.8324L129.218 48.8324L130.782 49.1676ZM126.218 62.8324L129.218 48.8324L130.782 49.1676L127.782 63.1676L126.218 62.8324ZM131.769 25.2198L127.769 39.2198L126.231 38.7802L130.231 24.7802L131.769 25.2198ZM126.231 38.7802L130.231 24.7802L131.769 25.2198L127.769 39.2198L126.231 38.7802ZM131.769 1.21978L127.769 15.2198L126.231 14.7802L130.231 0.780223L131.769 1.21978ZM126.231 14.7802L130.231 0.780223L131.769 1.21978L127.769 15.2198L126.231 14.7802Z" fill="#EA293C"/>
</svg>
