<?xml version="1.0" encoding="UTF-8"?>
<svg width="43px" height="60px" viewBox="0 0 43 60" version="1.1" xmlns="http://www.w3.org/2000/svg" xmlns:xlink="http://www.w3.org/1999/xlink">
    <!-- Generator: Sketch 44.1 (41455) - http://www.bohemiancoding.com/sketch -->
    <title>fundomate-logo</title>
    <desc>Created with Sketch.</desc>
    <defs>
        <linearGradient x1="85.5607178%" y1="3.18495789%" x2="15.7208786%" y2="100%" id="linearGradient-1">
            <stop stop-color="#FF9E06" offset="0%"></stop>
            <stop stop-color="#DF7588" offset="29.4882015%"></stop>
            <stop stop-color="#7A60B1" offset="66.8267698%"></stop>
            <stop stop-color="#17C4B5" offset="100%"></stop>
        </linearGradient>
        <path d="M20.0352083,11.4979167 C20.0352083,5.20979167 25.1327083,0.112083333 31.4208333,0.112083333 C37.7091667,0.112083333 42.8066667,5.20979167 42.8066667,11.4979167 C42.8066667,17.78625 37.7091667,22.88375 31.4208333,22.88375 L22.8814583,22.88375 L22.8814583,28.5772917 L27.15125,28.5770833 C30.2954167,28.5770833 32.8439583,31.1260417 32.8439583,34.2702083 C32.8439583,37.4141667 30.2954167,39.9627083 27.15125,39.9627083 L22.8814583,39.9627083 L22.8814583,48.5022917 C22.8814583,54.790625 17.7839583,59.8877083 11.4958333,59.8877083 C5.2075,59.8877083 0.110208333,54.790625 0.110208333,48.5022917 C0.110208333,42.2139583 5.2075,37.1164583 11.4958333,37.1164583 L11.4958333,37.116875 L20.0352083,37.116875 L20.0352083,31.4239583 L15.7654167,31.4239583 C12.6210417,31.4239583 10.0725,28.875 10.0725,25.7310417 C10.0725,22.586875 12.6210417,20.0379167 15.7654167,20.0379167 L20.0352083,20.0372917 L20.0352083,11.4979167 Z M22.8814583,11.4979167 L22.8814583,20.0372917 L31.4208333,20.0372917 C36.1370833,20.0372917 39.9604167,16.2141667 39.9604167,11.4979167 C39.9604167,6.78166667 36.1370833,2.95854167 31.4208333,2.95854167 C26.7047917,2.95854167 22.8814583,6.78166667 22.8814583,11.4979167 Z M12.9183333,25.7310417 C12.9183333,27.3029167 14.193125,28.5777083 15.7654167,28.5777083 L20.0352083,28.5777083 L20.0352083,22.88375 L15.7654167,22.88375 C14.193125,22.88375 12.9183333,24.1583333 12.9183333,25.7310417 Z M22.8814583,31.4239583 L22.8814583,37.116875 L27.15125,37.116875 C28.7233333,37.116875 29.998125,35.8422917 29.998125,34.2702083 C29.998125,32.6975 28.7233333,31.4229167 27.15125,31.4229167 L22.8814583,31.4239583 Z M2.95666667,48.5022917 C2.95666667,53.2183333 6.77958333,57.0414583 11.4958333,57.0414583 C16.2120833,57.0414583 20.0352083,53.2183333 20.0352083,48.5022917 L20.0352083,39.9627083 L11.4958333,39.9627083 C6.77958333,39.9627083 2.95666667,43.7860417 2.95666667,48.5022917 Z" id="path-2"></path>
    </defs>
    <g id="Artwork" stroke="none" stroke-width="1" fill="none" fill-rule="evenodd">
        <g id="fundomate-symbol-primary-RGB">
            <mask id="mask-3" fill="white">
                <use xlink:href="#path-2"></use>
            </mask>
            <use id="Clip-2" fill="url(#linearGradient-1)" xlink:href="#path-2"></use>
        </g>
    </g>
</svg>