<?xml version="1.0" encoding="utf-8"?>
<!-- Generator: Adobe Illustrator 24.0.1, SVG Export Plug-In . SVG Version: 6.00 Build 0)  -->
<svg version="1.1" id="Layer_1" xmlns="http://www.w3.org/2000/svg" xmlns:xlink="http://www.w3.org/1999/xlink" x="0px" y="0px"
	 width="990.2px" height="127.2px" viewBox="0 0 990.2 127.2" style="enable-background:new 0 0 990.2 127.2;" xml:space="preserve"
	>
<style type="text/css">
	.st0{fill:#FFFFFF;}
</style>
<g>
	<path class="st0" d="M53.6,0L0,127.2h23.9l9.3-21h74l9.5,21h23.8L87,0H53.6z M43,85.7l27.4-69.8l27.2,69.8H43z"/>
	<path class="st0" d="M285.8,0h-81.5c-6.6,0-12.2,2.3-16.8,7c-4.6,4.7-7,10.3-7,16.7v79.7c0,6.5,2.3,12,7,16.7
		c4.6,4.7,10.2,7,16.8,7h81.5c6.6,0,12.2-2.3,16.8-7c4.6-4.6,7-10.2,7-16.8V89.4h-22.8v7.5c0,2.1-0.7,3.8-2.2,5.3
		c-1.5,1.5-3.2,2.2-5.3,2.2h-68.3c-2.1,0-3.9-0.7-5.4-2.2c-1.5-1.5-2.3-3.2-2.3-5.3V30.5c0-2.2,0.8-4,2.3-5.5
		c1.5-1.5,3.3-2.2,5.4-2.2h68.3c2.1,0,3.8,0.7,5.3,2.2c1.5,1.5,2.2,3.3,2.2,5.5V38h22.8V23.7c0-6.5-2.3-12-7-16.7
		C298,2.3,292.4,0,285.8,0z"/>
	<path class="st0" d="M462.2,0h-81.5c-6.6,0-12.2,2.3-16.8,7c-4.6,4.7-7,10.3-7,16.7v79.7c0,6.5,2.3,12,7,16.7
		c4.6,4.7,10.2,7,16.8,7h81.5c6.6,0,12.2-2.3,16.8-7c4.6-4.6,7-10.2,7-16.8V89.4h-22.8v7.5c0,2.1-0.7,3.8-2.2,5.3
		c-1.5,1.5-3.2,2.2-5.3,2.2h-68.3c-2.1,0-3.9-0.7-5.4-2.2c-1.5-1.5-2.3-3.2-2.3-5.3V30.5c0-2.2,0.8-4,2.3-5.5
		c1.5-1.5,3.3-2.2,5.4-2.2h68.3c2.1,0,3.8,0.7,5.3,2.2c1.5,1.5,2.2,3.3,2.2,5.5V38H486V23.7c0-6.5-2.3-12-7-16.7S468.8,0,462.2,0z"
		/>
	<polygon class="st0" points="533.3,127.2 645.1,127.2 645.1,106.4 558.3,106.4 558.3,75.1 630,75.1 630,52.1 558.3,52.1 558.3,21 
		645.1,21 645.1,0 533.3,0 	"/>
	<path class="st0" d="M793.9,0H692.7v127.2h24.7v-38h44.2l25.4,38h26.5l-24.9-37.3l7.9-0.7c6-0.7,11-3.3,15.1-7.8
		c4.1-4.5,6.1-9.7,6.1-15.8V23.7c0-6.5-2.3-12-6.9-16.7C806.1,2.3,800.5,0,793.9,0z M794.8,58.8c0,2.1-0.7,3.9-2.2,5.4
		c-1.5,1.5-3.2,2.3-5.3,2.3h-70V22.8h70c2.1,0,3.8,0.7,5.3,2.2c1.5,1.5,2.2,3.3,2.2,5.5V58.8z"/>
	<polygon class="st0" points="965.5,0 965.5,97.8 900.3,0 865,0 865,127.2 889.7,127.2 889.7,26.7 956.7,127.2 990.2,127.2 990.2,0 
			"/>
</g>
</svg>
