<?xml version="1.0" encoding="utf-8"?>
<!-- Generator: Adobe Illustrator 24.1.0, SVG Export Plug-In . SVG Version: 6.00 Build 0)  -->
<svg version="1.1" id="Layer_1" xmlns:sketch="http://www.bohemiancoding.com/sketch/ns"
	 xmlns="http://www.w3.org/2000/svg" xmlns:xlink="http://www.w3.org/1999/xlink" x="0px" y="0px" viewBox="0 0 73.1 28.3"
	 style="enable-background:new 0 0 73.1 28.3;" xml:space="preserve">
<style type="text/css">
	.st0{fill:#221F1F;}
</style>
<desc>Created with Sketch.</desc>
<g id="Tablet_x2F_Mobile" sketch:type="MSPage">
	<g id="Tablet-Nav-_x5B_Default_x5D_" transform="translate(-332.000000, -20.000000)" sketch:type="MSArtboardGroup">
		<g id="IBT-Logo-_x5B_small_x5D_" transform="translate(0.000000, -1.000000)" sketch:type="MSLayerGroup">
			<g transform="translate(337.000000, 26.000000)" sketch:type="MSShapeGroup">
				<path id="Fill-1" class="st0" d="M-5,18.3h1.4c0.5,0,1.1-0.7,1.1-1.2V1.4c0-0.5-0.6-1.1-1.1-1.1H-5v-5.2H9.4v5.1H8
					c-0.4,0-1.1,0.7-1.1,1.1v15.8c0,0.4,0.6,1.2,1.1,1.2h1.4v4.9H-5V18.3"/>
				<path id="Fill-2" class="st0" d="M13.9,18.3h1.2c0.5,0,1.1-0.7,1.1-1.2V1.4c0-0.5-0.6-1.1-1.1-1.1h-1.2v-5.2h13.6
					C35-4.9,39-2.5,39,2.4c0,3.5-2.1,5.2-5.6,6v0.2c4.1,0.6,6.4,2.8,6.4,6.6c0,5.4-4.7,8.1-12.2,8.1H13.9V18.3L13.9,18.3z M25.4,6.4
					h1.5c2.2,0,3.1-1,3.1-3s-0.8-3-3.1-3h-1.5V6.4L25.4,6.4z M27,18.1c2.5,0,3.4-1.1,3.4-3.5c0-2.3-0.9-3.3-3.4-3.3h-1.6v6.8H27
					L27,18.1z"/>
				<path id="Fill-3" class="st0" d="M47.8,18.1h1.3c0.5,0,1.1-0.7,1.1-1.2V0.3H48l-0.6,5.2h-5.6V-5h26.3V5.6h-5.5L62,0.4h-2.2V17
					c0,0.4,0.6,1.2,1.1,1.2h1.3v4.9H47.8V18.1"/>
			</g>
		</g>
	</g>
</g>
</svg>
