<svg width="462" height="547" viewBox="0 0 462 547" fill="none" xmlns="http://www.w3.org/2000/svg">
<path fill-rule="evenodd" clip-rule="evenodd" d="M392.507 779.933L232.533 687.578L653.809 -37.5307L813.783 54.8241L392.507 779.933Z" fill="#1063FE"/>
<path fill-rule="evenodd" clip-rule="evenodd" d="M275.953 933.151L175.022 874.934L586.945 162.136L687.876 220.353L275.953 933.151Z" fill="#5410FE"/>
<path fill-rule="evenodd" clip-rule="evenodd" d="M547.26 454.359L387.287 362.005L808.563 -363.104L968.536 -270.75L547.26 454.359Z" fill="#1091FE"/>
<path opacity="0.04" fill-rule="evenodd" clip-rule="evenodd" d="M330.974 712.609L171 620.254L592.276 -104.855L752.25 -12.4999L330.974 712.609Z" fill="black"/>
<path opacity="0.04" fill-rule="evenodd" clip-rule="evenodd" d="M502.974 487.609L343 395.254L764.276 -329.855L924.25 -237.5L502.974 487.609Z" fill="black"/>
<path opacity="0.230818" fill-rule="evenodd" clip-rule="evenodd" d="M371.127 1032.6L207.185 949.213L676.034 -3.08247L839.976 80.2999L371.127 1032.6Z" fill="#011D6C"/>
</svg>
