<svg width="37" height="36" viewBox="0 0 37 36" fill="none" xmlns="http://www.w3.org/2000/svg">
<path fill-rule="evenodd" clip-rule="evenodd" d="M33.9333 23.7234H35.063C35.6455 23.7234 36.1177 24.1956 36.1177 24.7781C36.1177 25.3605 35.6455 25.8327 35.063 25.8327H34.9879V34.9453C34.9879 35.5278 34.5157 36 33.9332 36H2.302C1.71954 36 1.24732 35.5278 1.24732 34.9453V25.8328H1.17236C0.589895 25.8328 0.117676 25.3606 0.117676 24.7781C0.117676 24.1957 0.589895 23.7234 1.17236 23.7234H2.302H7.57361V15.6656H7.49859C6.91612 15.6656 6.4439 15.1933 6.4439 14.6109C6.4439 14.0284 6.91612 13.5562 7.49859 13.5562H8.6283H10.2849V11.2219C10.2849 7.26054 13.2409 3.97709 17.063 3.46036V1.05469C17.063 0.472219 17.5352 0 18.1177 0C18.7001 0 19.1724 0.472219 19.1724 1.05469V3.46036C22.9943 3.97709 25.9504 7.26054 25.9504 11.2219V13.5562H27.607H28.7367C29.3192 13.5562 29.7914 14.0284 29.7914 14.6109C29.7914 15.1933 29.3192 15.6656 28.7367 15.6656H28.6617V23.7234H33.9333ZM3.35669 33.8906H7.57361V25.8327H3.35669V33.8906ZM12.3942 11.2219C12.3942 8.06597 14.9618 5.49851 18.1177 5.49851C21.2736 5.49851 23.841 8.06604 23.841 11.2219V13.5562H12.3942V11.2219ZM11.3396 15.6656H9.68306V22.1024L15.6907 15.6656H11.3396ZM18.1177 16.1566L25.1799 23.7234H11.0554L18.1177 16.1566ZM9.68299 33.8906H13.8998V25.8327H9.68299V33.8906ZM16.0092 33.8906V25.8327H20.2261V33.8906H16.0092ZM22.3354 33.8906H26.5524V25.8327H22.3354V33.8906ZM26.5524 22.1024L20.5447 15.6656H24.8958H26.5524V22.1024ZM28.6617 25.8327V33.8906H32.8786V25.8327H28.6617Z" fill="white"/>
</svg>
