<svg width="520" height="317" viewBox="0 0 520 317" fill="none" xmlns="http://www.w3.org/2000/svg">
<path fill-rule="evenodd" clip-rule="evenodd" d="M88.2025 188.386C80.9709 176.036 78.6413 160.082 99.5123 146.595C98.675 147.136 88.2311 135.822 87.2007 134.697C82.7434 129.827 79.7 123.834 75.7324 118.521C69.1887 109.759 72.6118 87.4548 89.7181 90.8975C89.7181 90.8975 64.4997 84.5068 80.6904 62.1535C78.0509 52.6674 64.8497 2.83243 88.0803 10.6969C94.4514 12.8542 98.7263 19.0477 102.175 25.0179C103.219 26.8254 111.546 48.084 110.064 48.1648C110.065 48.1648 135.922 46.7505 130.654 75.47C130.654 75.47 179.491 97.6459 148.661 135.034C148.661 135.034 189.652 177.717 161.046 198.425C151.831 205.096 142.881 208.527 134.983 210.113C116.486 213.827 98.1824 205.431 88.2025 188.386" fill="#D0E3FF"/>
<path fill-rule="evenodd" clip-rule="evenodd" d="M130.256 231.207C128.264 234.12 123.049 233.725 120.016 234.167C114.966 234.9 110.092 236.291 104.959 236.552C93.6783 237.133 76.0312 233.737 73.3688 220.493C71.6138 211.765 76.9528 203.433 82.1978 196.979C82.1978 196.979 62.815 202.301 55.3349 197.503C39.1953 187.15 53.4396 167.511 53.4396 167.511C53.4396 167.511 48.2002 167.239 45.6163 166.753C39.1286 165.533 33.1936 159.808 31.6852 153.376C28.946 141.697 39.3033 134.948 48.2449 130.309C48.2449 130.309 42.5364 119.683 45.6851 110.828C48.8386 101.961 60.2736 95.1391 76.8692 110.719C77.4222 111.239 77.9808 111.783 78.5445 112.351C79.2078 112.951 79.7219 113.466 80.2367 114.238C79.4874 104.87 91.8781 99.1443 99.7179 100.865C103.324 101.657 106.609 103.898 108.664 106.965C111.152 110.677 111.364 115.284 111.357 119.613C111.356 119.868 111.355 120.123 111.353 120.377C111.353 120.377 147.337 110.931 152.752 150.439C158.166 189.941 130.268 231.19 130.256 231.207" fill="#B2BBC6"/>
<path fill-rule="evenodd" clip-rule="evenodd" d="M69.2702 103.518C69.0417 103.518 68.8254 103.293 68.7332 102.92C68.6113 102.427 68.7529 101.863 69.0494 101.66C69.653 101.248 70.2787 100.89 70.9092 100.597C71.218 100.453 71.5381 100.752 71.6245 101.266C71.7111 101.779 71.5309 102.312 71.2221 102.455C70.635 102.729 70.0525 103.062 69.4905 103.446C69.4183 103.495 69.3438 103.518 69.2702 103.518" fill="white"/>
<path fill-rule="evenodd" clip-rule="evenodd" d="M144.851 133.095C144.619 133.095 144.392 132.974 144.255 132.75C139.61 125.182 132.641 120.844 123.544 119.857C116.728 119.118 111.242 120.638 111.187 120.654C110.972 120.714 110.744 120.664 110.568 120.517C110.393 120.37 110.291 120.144 110.292 119.905C110.294 119.642 110.295 119.379 110.296 119.116C110.303 114.716 110.117 110.112 107.825 106.427C105.937 103.393 102.958 101.205 99.651 100.423C97.4908 99.9123 94.8672 100.063 92.2636 100.849C91.8842 100.962 91.4899 100.724 91.384 100.315C91.2778 99.9062 91.4996 99.482 91.879 99.3673C94.7039 98.5155 97.5724 98.3568 99.9571 98.9206C103.62 99.7865 106.919 102.21 109.01 105.571C111.496 109.565 111.725 114.361 111.723 118.946C113.597 118.531 118.183 117.73 123.687 118.327C130.249 119.039 139.35 121.972 145.446 131.902C145.663 132.256 145.573 132.733 145.244 132.967C145.123 133.053 144.986 133.095 144.851 133.095" fill="white"/>
<path fill-rule="evenodd" clip-rule="evenodd" d="M189.915 257.816C189.281 265.198 137.563 265.446 133.61 271.668C131.086 275.638 132.747 278.103 128.764 280.913C127.563 281.762 125.907 282.626 124.035 283.449H102.68C94.6333 283.449 87.6213 277.815 85.9369 269.88C85.9249 269.824 85.9128 269.764 85.901 269.708C85.901 269.708 67.9812 276.853 65.4596 258.257L56.6045 257.324C45.2302 256.13 38 244.237 42.3945 233.587C42.4581 233.433 42.5246 233.278 42.5935 233.124C45.404 226.798 51.3644 222.798 57.8563 222.293C60.1738 222.112 62.5599 222.377 64.8951 223.143L76.987 227.101C76.987 227.101 66.9541 215.407 72.7257 205.972C73.5738 204.584 74.767 203.244 76.3839 201.997C85.8115 194.733 94.6153 206.073 98.4529 212.251C99.7506 214.336 100.482 215.833 100.482 215.833C100.482 215.833 100.433 214.284 100.831 212.233C101.664 207.928 104.462 201.412 113.78 202.339C115.136 202.476 116.633 202.77 118.281 203.252C119.29 203.548 120.261 203.95 121.191 204.444C121.863 204.8 122.515 205.205 123.143 205.653C130.951 211.174 135.723 223.181 138.288 231.203C140.278 237.421 182.107 244.271 181.537 250.914L189.915 257.816Z" fill="#D0E3FF"/>
<path fill-rule="evenodd" clip-rule="evenodd" d="M118.212 114.363C117.906 114.363 117.62 114.171 117.513 113.865L80.5576 7.89218C80.4221 7.5044 80.6255 7.0794 81.0117 6.94329C81.3976 6.80748 81.8209 7.01149 81.956 7.39986L118.911 113.372C119.046 113.76 118.843 114.185 118.457 114.321C118.376 114.349 118.293 114.363 118.212 114.363" fill="white"/>
<path fill-rule="evenodd" clip-rule="evenodd" d="M106.891 84.7864C106.714 84.7864 106.537 84.7251 106.394 84.6008C106.083 84.33 106.054 83.862 106.329 83.5562L132.424 54.4734C132.699 54.1676 133.173 54.1389 133.483 54.4094C133.794 54.6803 133.823 55.148 133.548 55.454L107.453 84.5366C107.305 84.7021 107.099 84.7864 106.891 84.7864" fill="white"/>
<path fill-rule="evenodd" clip-rule="evenodd" d="M103.429 75.9135C103.419 75.9135 103.408 75.9135 103.398 75.9128L75.3138 74.6232C74.9048 74.6045 74.5866 74.2161 74.6032 73.7557C74.6201 73.2952 74.9706 72.9419 75.3743 72.9562L103.459 74.2458C103.868 74.2649 104.186 74.6532 104.169 75.1134C104.153 75.5621 103.824 75.9135 103.429 75.9135" fill="white"/>
<path fill-rule="evenodd" clip-rule="evenodd" d="M132.009 205.065C131.795 205.065 131.582 204.974 131.436 204.798L56.0466 114.576C55.7856 114.264 55.8308 113.802 56.1473 113.544C56.4638 113.287 56.9325 113.332 57.1931 113.644L132.582 203.866C132.843 204.178 132.798 204.64 132.481 204.897C132.343 205.01 132.176 205.065 132.009 205.065" fill="white"/>
<path fill-rule="evenodd" clip-rule="evenodd" d="M85.2212 149.855C85.1697 149.855 85.1172 149.85 85.0648 149.84C84.6526 149.758 84.3883 149.372 84.4742 148.979L90.8341 119.872C90.9198 119.479 91.3228 119.225 91.7359 119.308C92.1478 119.39 92.4122 119.775 92.3265 120.169L85.9666 149.276C85.8916 149.619 85.5746 149.855 85.2212 149.855" fill="white"/>
<path fill-rule="evenodd" clip-rule="evenodd" d="M326.758 183.364C326.758 183.364 265.86 124.33 340.121 116.113C340.121 116.113 316.303 74.4121 356.61 71.9139C356.61 71.9139 355.331 29.0539 391.65 48.0041C391.65 48.0041 395.255 37.3713 405.621 33.9025C419.522 29.2509 439.767 35.0519 424.289 73.453C424.289 73.453 452.471 73.3094 446.851 94.1681C445.528 99.0816 440.59 104.54 433.041 109.054C433.041 109.054 446.878 112.2 451.348 120.172C457.353 130.879 455.647 153.57 422.004 167.158C379.381 184.375 326.758 183.364 326.758 183.364" fill="#D8DDE2"/>
<path fill-rule="evenodd" clip-rule="evenodd" d="M123.881 283.449C114.602 241.183 368.182 178.95 368.182 178.95C364.481 136.813 401.173 144.796 401.173 144.796C399.07 144.341 413.768 115.974 415.495 113.638C421.211 105.93 428.125 98.0907 437.501 96.4854C471.679 90.641 446.242 158.602 441.22 171.511C461.344 207.099 424.524 210.382 424.524 210.382C445.827 230.335 443.33 248.091 434.277 261.517C424.957 275.343 409.37 283.449 392.859 283.449H123.881Z" fill="#D0E3FF"/>
<path fill-rule="evenodd" clip-rule="evenodd" d="M303.408 288.363H392.317C408.699 288.363 423.906 280.306 433 266.815C444.244 250.13 441.01 233.296 423.387 216.782C423.173 216.583 423.096 216.274 423.19 215.995C423.284 215.716 423.53 215.52 423.818 215.494C423.967 215.481 438.825 214.032 443.998 203.967C447.365 197.412 445.984 188.622 439.889 177.839C439.778 177.643 439.76 177.406 439.842 177.196C444.922 164.14 460.65 120.495 449.881 107.005C447.16 103.595 442.804 102.373 436.942 103.377C427.85 104.934 420.985 112.754 415.468 120.197C414.697 121.241 410.972 128.177 407.506 135.225C402.822 144.747 401.159 149.235 401.13 150.305C401.297 150.477 401.376 150.727 401.324 150.981C401.241 151.373 400.869 151.625 400.482 151.558C400.473 151.557 400.461 151.555 400.453 151.553C400.306 151.52 385.569 148.449 376.152 156.912C369.905 162.523 367.315 171.914 368.447 184.822C368.471 185.066 368.371 185.306 368.183 185.461C367.999 185.617 349.484 201.186 332.342 221.687C322.295 233.706 314.678 245.04 309.707 255.374C303.66 267.943 301.542 279.038 303.408 288.363ZM392.317 289.851H302.812C302.469 289.851 302.173 289.61 302.097 289.268C299.95 279.485 302.067 267.859 308.393 254.713C313.42 244.266 321.107 232.825 331.237 220.709C347.27 201.536 364.497 186.658 366.955 184.565C365.864 171.355 368.632 161.675 375.187 155.791C383.777 148.079 396.056 149.323 399.713 149.907C399.948 148.434 401.177 144.779 406.057 134.836C409.353 128.123 413.357 120.575 414.295 119.303C419.988 111.625 427.097 103.554 436.696 101.909C443.118 100.811 447.94 102.209 451.022 106.068C456.019 112.327 456.351 124.97 452.007 143.645C448.872 157.127 444.03 170.457 441.335 177.41C447.547 188.525 448.881 197.692 445.294 204.661C440.725 213.543 429.645 216.109 425.513 216.77C434.704 225.709 439.851 234.897 440.822 244.097C441.652 251.987 439.426 259.913 434.209 267.654C424.844 281.553 409.183 289.851 392.317 289.851V289.851Z" fill="white"/>
<path fill-rule="evenodd" clip-rule="evenodd" d="M373.976 261.261C373.869 261.261 373.762 261.237 373.658 261.189C373.286 261.014 373.129 260.571 373.304 260.199L447.706 102.958C447.881 102.587 448.324 102.428 448.696 102.604C449.068 102.78 449.226 103.223 449.05 103.594L374.648 260.835C374.52 261.103 374.253 261.261 373.976 261.261" fill="white"/>
<path fill-rule="evenodd" clip-rule="evenodd" d="M420.785 248.444C420.714 248.444 420.64 248.435 420.569 248.411L387.554 238.091C387.163 237.967 386.944 237.544 387.062 237.145C387.184 236.746 387.596 236.525 387.989 236.646L421.002 246.966C421.393 247.09 421.612 247.513 421.493 247.912C421.396 248.235 421.102 248.444 420.785 248.444" fill="white"/>
<path fill-rule="evenodd" clip-rule="evenodd" d="M387.739 128.165C387.668 128.165 387.594 128.154 387.523 128.13C387.149 128.006 386.945 127.587 387.064 127.195L416.198 31.0814C416.317 30.6892 416.717 30.4732 417.088 30.5977C417.463 30.7225 417.667 31.1413 417.551 31.5333L388.414 127.647C388.317 127.964 388.039 128.165 387.739 128.165" fill="white"/>
<path fill-rule="evenodd" clip-rule="evenodd" d="M403.029 79.857C402.881 79.857 402.73 79.8152 402.6 79.7281L361.732 52.5893C361.387 52.3611 361.302 51.909 361.541 51.5792C361.777 51.2491 362.249 51.1675 362.591 51.3951L403.459 78.5339C403.804 78.7621 403.888 79.2142 403.649 79.544C403.504 79.7478 403.268 79.857 403.029 79.857" fill="white"/>
<path fill-rule="evenodd" clip-rule="evenodd" d="M73.3652 181.404C72.9903 181.404 72.6697 181.171 72.6341 180.861C72.5962 180.532 72.8929 180.24 73.2973 180.209L109.279 177.462C109.682 177.434 110.041 177.673 110.079 178.002C110.118 178.331 109.82 178.623 109.416 178.654L73.4346 181.401C73.4114 181.403 73.3881 181.404 73.3652 181.404" fill="white"/>
<path fill-rule="evenodd" clip-rule="evenodd" d="M234.57 150.138C232.578 153.05 227.362 152.656 224.329 153.098C219.28 153.83 214.406 155.221 209.273 155.482C197.992 156.064 180.345 152.668 177.682 139.424C175.927 130.696 181.266 122.364 186.511 115.91C186.511 115.91 167.129 121.232 159.648 116.433C143.509 106.081 157.753 86.4416 157.753 86.4416C157.753 86.4416 152.514 86.1697 149.93 85.6839C143.442 84.4641 137.507 78.7384 135.999 72.3066C133.26 60.6276 143.617 53.8782 152.558 49.2401C152.558 49.2401 146.85 38.6136 149.999 29.7591C153.152 20.8915 164.587 14.0698 181.183 29.6499C181.736 30.1692 182.294 30.7135 182.858 31.2814C183.521 31.882 184.035 32.3968 184.55 33.1685C183.801 23.8003 196.192 18.075 204.031 19.7957C207.638 20.5873 210.922 22.8288 212.978 25.8959C215.466 29.6078 215.677 34.2148 215.67 38.5439C215.67 38.7986 215.668 39.0534 215.667 39.3081C215.667 39.3081 251.65 29.8614 257.065 69.3697C262.479 108.872 234.582 150.12 234.57 150.138" fill="#D8DDE2"/>
<path fill-rule="evenodd" clip-rule="evenodd" d="M249.164 52.0256C248.933 52.0256 248.706 51.9044 248.569 51.6808C243.923 44.1129 236.955 39.7751 227.858 38.788C221.041 38.0485 215.555 39.569 215.501 39.5843C215.286 39.6449 215.057 39.5945 214.882 39.4478C214.706 39.301 214.604 39.0746 214.606 38.8353C214.607 38.5726 214.609 38.3096 214.609 38.0466C214.616 33.647 214.431 29.0428 212.138 25.3577C210.25 22.3238 207.271 20.1355 203.965 19.3536C201.804 18.843 199.181 18.994 196.577 19.7793C196.198 19.8928 195.803 19.6548 195.697 19.246C195.591 18.8368 195.813 18.4127 196.192 18.2979C199.017 17.4462 201.886 17.2875 204.271 17.8513C207.933 18.7172 211.233 21.1411 213.324 24.5014C215.809 28.4959 216.038 33.2917 216.037 37.8768C217.91 37.4613 222.497 36.6603 228.001 37.2576C234.562 37.9697 243.664 40.9027 249.759 50.8324C249.977 51.1865 249.886 51.6636 249.557 51.898C249.436 51.9841 249.3 52.0256 249.164 52.0256" fill="white"/>
<path fill-rule="evenodd" clip-rule="evenodd" d="M236.323 123.995C236.109 123.995 235.896 123.904 235.749 123.729L160.36 33.507C160.099 33.1945 160.144 32.7325 160.461 32.4751C160.777 32.2178 161.246 32.2623 161.507 32.5748L236.896 122.797C237.157 123.109 237.112 123.571 236.795 123.828C236.657 123.94 236.489 123.995 236.323 123.995" fill="white"/>
<path fill-rule="evenodd" clip-rule="evenodd" d="M189.535 68.7857C189.483 68.7857 189.431 68.7807 189.378 68.7703C188.966 68.6883 188.702 68.3031 188.788 67.9099L195.148 38.8023C195.233 38.4093 195.636 38.156 196.049 38.2389C196.461 38.3209 196.726 38.706 196.64 39.0992L190.28 68.2066C190.205 68.5498 189.888 68.7857 189.535 68.7857" fill="white"/>
<path fill-rule="evenodd" clip-rule="evenodd" d="M177.679 100.334C177.304 100.334 176.983 100.102 176.948 99.7918C176.91 99.4627 177.206 99.1709 177.611 99.14L213.592 96.3929C213.995 96.3644 214.355 96.6038 214.393 96.9329C214.431 97.262 214.134 97.5536 213.729 97.5844L177.748 100.332C177.725 100.333 177.702 100.334 177.679 100.334" fill="white"/>
<path fill-rule="evenodd" clip-rule="evenodd" d="M119.798 191.262C119.756 191.262 119.713 191.26 119.67 191.254C119.209 191.192 118.892 190.808 118.963 190.398L127.131 142.606C127.201 142.196 127.631 141.915 128.092 141.977C128.553 142.039 128.869 142.422 128.799 142.832L120.631 190.624C120.567 190.996 120.208 191.262 119.798 191.262" fill="white"/>
<path fill-rule="evenodd" clip-rule="evenodd" d="M398.603 93.6594C398.233 93.6594 397.913 93.3604 397.875 92.9582C397.834 92.5283 398.125 92.1433 398.53 92.0982L446.341 86.7626C446.74 86.7172 447.104 87.0296 447.146 87.4594C447.19 87.8892 446.896 88.2743 446.494 88.3194L398.682 93.655C398.656 93.6578 398.629 93.6594 398.603 93.6594" fill="white"/>
<path fill-rule="evenodd" clip-rule="evenodd" d="M488.051 117.321C487.779 117.321 487.559 117.045 487.559 116.704V113.994C487.559 113.654 487.779 113.377 488.051 113.377C488.323 113.377 488.544 113.654 488.544 113.994V116.704C488.544 117.045 488.323 117.321 488.051 117.321" fill="#F0E6FF"/>
<path fill-rule="evenodd" clip-rule="evenodd" d="M488.051 125.208C487.779 125.208 487.559 124.932 487.559 124.591V121.881C487.559 121.54 487.779 121.264 488.051 121.264C488.323 121.264 488.544 121.54 488.544 121.881V124.591C488.544 124.932 488.323 125.208 488.051 125.208" fill="#F0E6FF"/>
<path fill-rule="evenodd" clip-rule="evenodd" d="M493.841 119.293H491.132C490.792 119.293 490.516 119.072 490.516 118.8C490.516 118.527 490.792 118.307 491.132 118.307H493.841C494.184 118.307 494.458 118.527 494.458 118.8C494.458 119.072 494.184 119.293 493.841 119.293" fill="#F0E6FF"/>
<path fill-rule="evenodd" clip-rule="evenodd" d="M485.956 119.293H483.248C482.907 119.293 482.631 119.072 482.631 118.8C482.631 118.527 482.907 118.307 483.248 118.307H485.956C486.299 118.307 486.573 118.527 486.573 118.8C486.573 119.072 486.299 119.293 485.956 119.293" fill="#F0E6FF"/>
<path fill-rule="evenodd" clip-rule="evenodd" d="M438.773 3.94355C438.501 3.94355 438.28 3.66742 438.28 3.32664V0.616913C438.28 0.27613 438.501 0 438.773 0C439.045 0 439.266 0.27613 439.266 0.616913V3.32664C439.266 3.66742 439.045 3.94355 438.773 3.94355" fill="#F0E6FF"/>
<path fill-rule="evenodd" clip-rule="evenodd" d="M438.773 11.8306C438.501 11.8306 438.28 11.5545 438.28 11.2137V8.504C438.28 8.16322 438.501 7.88708 438.773 7.88708C439.045 7.88708 439.266 8.16322 439.266 8.504V11.2137C439.266 11.5545 439.045 11.8306 438.773 11.8306" fill="#F0E6FF"/>
<path fill-rule="evenodd" clip-rule="evenodd" d="M443.577 6.90117H440.868C440.525 6.90117 440.251 6.68053 440.251 6.40823C440.251 6.13593 440.525 5.91528 440.868 5.91528H443.577C443.917 5.91528 444.193 6.13593 444.193 6.40823C444.193 6.68053 443.917 6.90117 443.577 6.90117" fill="#F0E6FF"/>
<path fill-rule="evenodd" clip-rule="evenodd" d="M435.692 6.90117H432.983C432.643 6.90117 432.366 6.68053 432.366 6.40823C432.366 6.13593 432.643 5.91528 432.983 5.91528H435.692C436.032 5.91528 436.309 6.13593 436.309 6.40823C436.309 6.68053 436.032 6.90117 435.692 6.90117" fill="#F0E6FF"/>
<path fill-rule="evenodd" clip-rule="evenodd" d="M492.486 67.0277L483.084 68.0263L474.746 55.2225L484.149 54.2239L492.486 67.0277" fill="#D0E3FF"/>
<path fill-rule="evenodd" clip-rule="evenodd" d="M483.665 53.2175L473.761 54.2239L484.556 44.3856L494.458 43.3792L483.665 53.2175" fill="#D0E3FF"/>
<path fill-rule="evenodd" clip-rule="evenodd" d="M495.469 43.3792L504.313 56.2452L493.445 66.0546L484.602 53.1883L495.469 43.3792" fill="#D0E3FF"/>
<path fill-rule="evenodd" clip-rule="evenodd" d="M491.808 67.0405C491.581 67.0405 491.359 66.93 491.222 66.725L482.753 54.1177C482.554 53.821 482.603 53.421 482.864 53.1791L493.268 43.5671C493.558 43.299 494.007 43.3203 494.272 43.6144C494.536 43.9086 494.516 44.3644 494.226 44.6326L484.278 53.8233L492.397 65.9139C492.619 66.2432 492.534 66.6913 492.209 66.9156C492.087 67.0001 491.948 67.0405 491.808 67.0405" fill="white"/>
<path fill-rule="evenodd" clip-rule="evenodd" d="M473.476 56.1957C473.119 56.1957 472.816 55.8585 472.779 55.4055C472.74 54.9224 473.021 54.4912 473.406 54.442L482.843 53.2429C483.233 53.1922 483.574 53.5456 483.613 54.0285C483.652 54.5116 483.371 54.9431 482.983 54.992L473.55 56.1915C473.524 56.1943 473.499 56.1957 473.476 56.1957" fill="white"/>
<path fill-rule="evenodd" clip-rule="evenodd" d="M493.641 42.3932C493.265 42.3932 492.929 42.1574 492.844 41.8111L491.521 36.3964C491.423 35.9956 491.7 35.5985 492.141 35.5096C492.582 35.4213 493.017 35.6734 493.115 36.0738L494.438 41.4885C494.536 41.8893 494.258 42.2864 493.817 42.3753C493.759 42.3872 493.7 42.3932 493.641 42.3932" fill="#F0E6FF"/>
<path fill-rule="evenodd" clip-rule="evenodd" d="M498.024 44.365C497.776 44.365 497.545 44.1644 497.452 43.84C497.335 43.4227 497.496 42.9583 497.81 42.8029L500.535 41.4582C500.849 41.303 501.201 41.5149 501.318 41.9325C501.435 42.3498 501.274 42.8139 500.961 42.9693L498.236 44.3141C498.165 44.3486 498.095 44.365 498.024 44.365" fill="#F0E6FF"/>
<path fill-rule="evenodd" clip-rule="evenodd" d="M26.3093 38.8245L19.2559 55.2098L12.5112 28.5908L26.3093 38.8245" fill="#D0E3FF"/>
<path fill-rule="evenodd" clip-rule="evenodd" d="M13.5235 30.1329L19.4333 52.2605L25.6137 38.6397L13.5235 30.1329ZM19.4249 55.1892C19.349 55.2073 19.2698 55.2138 19.1891 55.2073C18.8733 55.1815 18.6084 54.9619 18.5274 54.6591L11.5503 28.5341C11.4698 28.2331 11.5885 27.9139 11.8471 27.7366C12.1058 27.559 12.449 27.5611 12.7058 27.742L26.98 37.7854C27.2709 37.9899 27.375 38.3697 27.2291 38.6918L19.932 54.773C19.8354 54.9859 19.6456 55.1368 19.4249 55.1892V55.1892Z" fill="white"/>
<path fill-rule="evenodd" clip-rule="evenodd" d="M12.5112 28.5908L37.1506 30.5152L26.1342 38.4497L12.5112 28.5908" fill="#D0E3FF"/>
<path fill-rule="evenodd" clip-rule="evenodd" d="M38.1364 30.5625L33.2916 45.5019L20.396 54.2238L27.2669 38.4774L38.1364 30.5625" fill="#D0E3FF"/>
<path fill-rule="evenodd" clip-rule="evenodd" d="M27.7875 39.5113L21.814 52.5646L32.802 45.4788L37.0092 33.1088L27.7875 39.5113ZM20.3044 55.19C20.0835 55.2421 19.8447 55.1906 19.6648 55.0398C19.4196 54.8347 19.3419 54.4953 19.4738 54.2071L26.5468 38.7514C26.5999 38.6353 26.6839 38.5354 26.7897 38.462L37.9786 30.6931C38.2342 30.5156 38.5773 30.5193 38.8292 30.7028C39.0807 30.886 39.1836 31.2072 39.0842 31.4991L34.0969 46.163C34.0456 46.3143 33.9436 46.4447 33.8077 46.532L20.5324 55.093C20.4611 55.1391 20.3838 55.1712 20.3044 55.19V55.19Z" fill="white"/>
<path fill-rule="evenodd" clip-rule="evenodd" d="M25.7369 38.4302C25.5341 38.4756 25.312 38.4422 25.1287 38.3208L10.8547 28.8689C10.5181 28.646 10.4391 28.2112 10.6783 27.8978C10.9175 27.5844 11.3839 27.5109 11.7205 27.7337L25.9949 37.1856C26.3312 37.4084 26.4101 37.843 26.171 38.1567C26.0621 38.299 25.9064 38.3921 25.7369 38.4302" fill="white"/>
<path fill-rule="evenodd" clip-rule="evenodd" d="M20.3019 56.1747C20.1539 56.2119 19.9937 56.2007 19.8434 56.132C19.4777 55.9644 19.3109 55.5185 19.471 55.1358L26.5986 38.0937C26.6523 37.9651 26.7391 37.8547 26.8495 37.7752L37.9876 29.7112C38.316 29.4734 38.7661 29.5591 38.993 29.9027C39.2205 30.2464 39.1382 30.7171 38.81 30.9549L27.8405 38.8966L20.7953 55.7424C20.7008 55.9678 20.5141 56.1211 20.3019 56.1747" fill="white"/>
<path fill-rule="evenodd" clip-rule="evenodd" d="M517.126 155.652L497.925 139.996L487.559 153.707L506.996 169.573L517.126 155.652" fill="#D0E3FF"/>
<path fill-rule="evenodd" clip-rule="evenodd" d="M516.247 169.361C513.435 173.198 508.46 174.637 505.137 172.576C501.81 170.515 501.396 165.734 504.208 161.898C507.019 158.061 511.994 156.622 515.321 158.683C518.645 160.744 519.058 165.524 516.247 169.361" fill="#D0E3FF"/>
<path fill-rule="evenodd" clip-rule="evenodd" d="M511.449 163.658C511.281 163.658 511.11 163.607 510.972 163.502L491.776 149.097C491.454 148.857 491.409 148.425 491.67 148.133C491.935 147.84 492.409 147.799 492.727 148.039L511.923 162.444C512.245 162.684 512.29 163.116 512.029 163.408C511.878 163.573 511.665 163.658 511.449 163.658" fill="white"/>
<path fill-rule="evenodd" clip-rule="evenodd" d="M498.506 152.601C495.694 156.438 490.719 157.877 487.393 155.816C484.069 153.755 483.655 148.974 486.467 145.137C489.278 141.301 494.253 139.862 497.577 141.922C500.904 143.983 501.317 148.764 498.506 152.601" fill="#D0E3FF"/>
<path fill-rule="evenodd" clip-rule="evenodd" d="M512.706 159.119C510.432 159.119 507.944 160.484 506.311 162.869C505.161 164.55 504.61 166.473 504.756 168.285C504.897 170.038 505.684 171.473 506.966 172.325C509.667 174.119 513.771 172.795 516.113 169.375C517.262 167.695 517.816 165.772 517.667 163.96C517.527 162.207 516.742 160.772 515.458 159.92C514.64 159.376 513.692 159.119 512.706 159.119ZM509.701 174.502C508.447 174.502 507.233 174.171 506.181 173.473C504.537 172.38 503.531 170.577 503.356 168.395C503.182 166.272 503.82 164.034 505.147 162.095C507.921 158.042 512.9 156.551 516.242 158.772C517.889 159.864 518.893 161.668 519.07 163.849C519.241 165.972 518.606 168.21 517.276 170.149C515.376 172.928 512.439 174.502 509.701 174.502V174.502Z" fill="white"/>
<path fill-rule="evenodd" clip-rule="evenodd" d="M493.985 141.373C491.71 141.373 489.221 142.738 487.588 145.123C486.437 146.804 485.883 148.727 486.032 150.539C486.173 152.292 486.96 153.727 488.243 154.579C490.945 156.373 495.051 155.05 497.394 151.63C499.734 148.21 499.441 143.967 496.739 142.174C495.92 141.63 494.972 141.373 493.985 141.373ZM490.979 156.756C489.722 156.756 488.51 156.425 487.458 155.727C485.81 154.634 484.806 152.831 484.629 150.649C484.457 148.526 485.093 146.288 486.423 144.349C489.199 140.296 494.179 138.805 497.523 141.026C500.87 143.247 501.334 148.351 498.558 152.403C496.657 155.182 493.715 156.756 490.979 156.756V156.756Z" fill="white"/>
<path fill-rule="evenodd" clip-rule="evenodd" d="M177.191 229.69C177.132 229.696 177.072 229.711 177.013 229.734L177.191 229.69" fill="#2A0055"/>
<path fill-rule="evenodd" clip-rule="evenodd" d="M449.525 270.134C449.264 270.134 449.027 269.948 448.963 269.673L437.31 219.604C437.235 219.283 437.426 218.961 437.739 218.884C438.049 218.807 438.362 219.004 438.438 219.325L450.09 269.395C450.165 269.715 449.974 270.038 449.661 270.116C449.618 270.128 449.571 270.134 449.525 270.134" fill="white"/>
<path fill-rule="evenodd" clip-rule="evenodd" d="M462.339 270.133H438.861C438.539 270.133 438.28 269.912 438.28 269.641C438.28 269.367 438.539 269.148 438.861 269.148H462.339C462.658 269.148 462.92 269.367 462.92 269.641C462.92 269.912 462.658 270.133 462.339 270.133" fill="white"/>
<path fill-rule="evenodd" clip-rule="evenodd" d="M508.356 303.271V208.067C508.356 202.771 504.172 198.476 499.006 198.476H353.474C348.31 198.476 344.124 202.771 344.124 208.067V303.271H508.356" fill="#B2BBC6"/>
<path fill-rule="evenodd" clip-rule="evenodd" d="M352.278 295.907H500.197V207.562H352.278V295.907Z" fill="white"/>
<path fill-rule="evenodd" clip-rule="evenodd" d="M335.755 303.271V307.771C335.755 310.256 337.719 312.272 340.138 312.272H512.338C514.761 312.272 516.727 310.256 516.727 307.771V303.271H335.755" fill="#FFFFFE"/>
<path fill-rule="evenodd" clip-rule="evenodd" d="M337.837 305.358V307.771C337.837 309.102 338.87 310.185 340.138 310.185H512.337C513.609 310.185 514.644 309.102 514.644 307.771V305.358H337.837ZM512.337 314.359H340.138C336.573 314.359 333.672 311.404 333.672 307.771V303.271C333.672 302.117 334.603 301.185 335.754 301.185H516.727C517.878 301.185 518.809 302.117 518.809 303.271V307.771C518.809 311.404 515.906 314.359 512.337 314.359V314.359Z" fill="#D8DDE2"/>
<path fill-rule="evenodd" clip-rule="evenodd" d="M347.041 301.272H505.303V299.186C505.303 298.032 505.303 256.515 505.303 255.363V238.668C505.303 237.514 505.303 223.126 505.303 221.974V208.067C505.303 203.773 502.889 201.106 499.005 201.106H353.473C349.565 201.106 347.041 203.837 347.041 208.067V301.272ZM344.958 305.446C343.807 305.446 342.876 304.511 342.876 303.359V208.067C342.876 201.51 347.232 196.932 353.473 196.932H499.005C505.165 196.932 509.467 201.51 509.467 208.067V219.887V240.755V253.276V301.272V303.359C509.467 304.511 508.534 305.446 507.385 305.446H344.958Z" fill="#D8DDE2"/>
<path fill-rule="evenodd" clip-rule="evenodd" d="M135.347 299.077C135.347 290.901 135.347 279.044 135.347 279.044H103.543C103.543 279.044 103.543 290.901 103.543 299.077C103.543 307.253 81.917 313.87 81.917 313.87H156.968C156.968 313.87 135.347 307.253 135.347 299.077" fill="#FFFFFE"/>
<path fill-rule="evenodd" clip-rule="evenodd" d="M93.0145 311.784H145.874C139.702 308.81 133.265 304.428 133.265 299.077V281.131H105.625V299.077C105.625 304.428 99.1888 308.81 93.0145 311.784ZM156.969 315.957H81.9174C80.8866 315.957 80.0099 315.202 79.8579 314.177C79.7059 313.157 80.3223 312.176 81.3093 311.875C89.6764 309.309 101.461 303.643 101.461 299.077V279.044C101.461 277.892 102.391 276.957 103.543 276.957H135.347C136.499 276.957 137.43 277.892 137.43 279.044V299.077C137.43 303.643 149.212 309.309 157.577 311.875C158.564 312.176 159.182 313.157 159.028 314.177C158.876 315.202 158 315.957 156.969 315.957V315.957Z" fill="#D8DDE2"/>
<path fill-rule="evenodd" clip-rule="evenodd" d="M208.175 138.276H8.86696C5.40811 138.276 2.60938 141.15 2.60938 144.693V271.437H214.43V144.693C214.43 141.15 211.627 138.276 208.175 138.276" fill="#B2BBC6"/>
<path fill-rule="evenodd" clip-rule="evenodd" d="M12.7754 261.928H204.518V147.71H12.7754V261.928Z" fill="#FFFFFE"/>
<path fill-rule="evenodd" clip-rule="evenodd" d="M2.60938 270.185V278.413C2.60938 281.957 5.40811 284.83 8.86696 284.83H208.175C211.627 284.83 214.43 281.957 214.43 278.413V270.185H2.60938" fill="#FFFFFE"/>
<path fill-rule="evenodd" clip-rule="evenodd" d="M4.69164 272.272V278.413C4.69164 280.801 6.56371 282.744 8.86683 282.744H208.175C210.474 282.744 212.348 280.801 212.348 278.413V272.272H4.69164ZM208.175 286.917H8.86683C4.26683 286.917 0.526855 283.103 0.526855 278.413V268.098H216.512V278.413C216.512 283.103 212.773 286.917 208.175 286.917V286.917Z" fill="#D8DDE2"/>
<path fill-rule="evenodd" clip-rule="evenodd" d="M12.7754 158.136H204.559V147.71H12.7754V158.136Z" fill="#FFFFFE"/>
<path fill-rule="evenodd" clip-rule="evenodd" d="M12.7754 261.928H204.559V254.513H12.7754V261.928Z" fill="#FFFFFE"/>
<path fill-rule="evenodd" clip-rule="evenodd" d="M8.48161 269.97H211.685V144.693C211.685 142.708 210.763 140.588 208.175 140.588H8.86676C5.85145 140.588 5.5266 143.46 5.5266 144.693V169.803C5.41732 169.707 6.39922 267.883 6.39922 267.883C7.5487 267.883 8.48161 268.816 8.48161 269.97ZM3.44421 274.144C2.29473 274.144 1.36182 273.209 1.36182 272.057V203.192V194.845V167.717V144.693C1.36182 139.82 4.44792 136.415 8.86676 136.415H208.175C212.693 136.415 215.85 139.82 215.85 144.693V272.057C215.85 273.209 214.917 274.144 213.768 274.144H3.44421Z" fill="#D8DDE2"/>
<path fill-rule="evenodd" clip-rule="evenodd" d="M377.865 290.1H161.248C156.09 290.1 151.904 285.909 151.904 280.738V63.6601C151.904 58.489 156.09 54.2987 161.248 54.2987H377.865C383.027 54.2987 387.208 58.489 387.208 63.6601V280.738C387.208 285.909 383.027 290.1 377.865 290.1" fill="white"/>
<path fill-rule="evenodd" clip-rule="evenodd" d="M161.248 56.3855C157.244 56.3855 153.987 59.6493 153.987 63.6601V280.738C153.987 284.751 157.244 288.013 161.248 288.013H377.865C381.869 288.013 385.126 284.751 385.126 280.738V63.6601C385.126 59.6493 381.869 56.3855 377.865 56.3855H161.248ZM377.865 292.186H161.248C154.947 292.186 149.822 287.051 149.822 280.738V63.6601C149.822 57.3475 154.947 52.2119 161.248 52.2119H377.865C384.166 52.2119 389.291 57.3475 389.291 63.6601V280.738C389.291 287.051 384.166 292.186 377.865 292.186V292.186Z" fill="#1063FE"/>
<path fill-rule="evenodd" clip-rule="evenodd" d="M172.817 269.144H366.309V75.2545H172.817V269.144Z" fill="#1063FE"/>
<path opacity="0.384301" fill-rule="evenodd" clip-rule="evenodd" d="M174.9 267.057H364.227V77.3412H174.9V267.057ZM366.309 271.231H172.818C171.668 271.231 170.735 270.298 170.735 269.144V75.2544C170.735 74.1004 171.668 73.1676 172.818 73.1676H366.309C367.461 73.1676 368.392 74.1004 368.392 75.2544V269.144C368.392 270.298 367.461 271.231 366.309 271.231V271.231Z" fill="#1063FE"/>
<path opacity="0.123093" fill-rule="evenodd" clip-rule="evenodd" d="M172.818 98.7728V112.416H161.487V129.743H172.818V143.389H184.146V98.7728H172.818" fill="black"/>
<path fill-rule="evenodd" clip-rule="evenodd" d="M174.236 295.208V298.544C174.236 305.166 180.229 310.556 187.595 310.556H208.725C216.091 310.556 222.084 305.166 222.084 298.544V295.208H174.236ZM209.144 314.167H188.078C178.454 314.167 170.625 307.18 170.625 298.589V293.443C170.625 292.422 171.55 291.597 172.693 291.597H224.529C225.671 291.597 226.597 292.422 226.597 293.443V298.589C226.597 307.18 218.766 314.167 209.144 314.167V314.167Z" fill="#C6DBFF"/>
<path fill-rule="evenodd" clip-rule="evenodd" d="M316.875 295.208V298.544C316.875 305.166 322.912 310.556 330.334 310.556H350.359C357.782 310.556 363.82 305.166 363.82 298.544V295.208H316.875ZM350.768 314.167H330.828C321.144 314.167 313.264 307.18 313.264 298.589V293.443C313.264 292.422 314.195 291.597 315.346 291.597H366.252C367.403 291.597 368.334 292.422 368.334 293.443V298.589C368.334 307.18 360.454 314.167 350.768 314.167V314.167Z" fill="#C6DBFF"/>
<path fill-rule="evenodd" clip-rule="evenodd" d="M161.487 112.416H172.818V98.7728H161.487V112.416Z" fill="#1063FE"/>
<path fill-rule="evenodd" clip-rule="evenodd" d="M161.487 143.389H172.818V129.743H161.487V143.389Z" fill="#1063FE"/>
<path fill-rule="evenodd" clip-rule="evenodd" d="M161.487 214.649H172.818V201.008H161.487V214.649Z" fill="#1063FE"/>
<path fill-rule="evenodd" clip-rule="evenodd" d="M161.487 245.628H172.818V231.986H161.487V245.628Z" fill="#1063FE"/>
<path opacity="0.123093" fill-rule="evenodd" clip-rule="evenodd" d="M172.818 201.008V214.649H161.487V231.986H172.818V245.628H184.146V201.008H172.818" fill="black"/>
<path fill-rule="evenodd" clip-rule="evenodd" d="M172.326 293.157V298.975C172.326 307.549 179.261 314.498 187.819 314.498H209.032C217.589 314.498 224.525 307.549 224.525 298.975V293.157H172.326" fill="#C6DBFF"/>
<path fill-rule="evenodd" clip-rule="evenodd" d="M314.914 293.157V298.975C314.914 307.549 321.848 314.498 330.401 314.498H350.346C358.9 314.498 365.835 307.549 365.835 298.975V293.157H314.914" fill="#C6DBFF"/>
<path fill-rule="evenodd" clip-rule="evenodd" d="M235.229 216.638V216.638C234.677 216.638 234.148 216.419 233.757 216.026L228.376 210.632C227.564 209.818 227.564 208.497 228.376 207.681L307.515 128.372C308.329 127.558 309.645 127.558 310.459 128.372L315.844 133.767C316.236 134.159 316.455 134.689 316.455 135.242C316.455 135.797 316.236 136.327 315.844 136.717L236.701 216.026C236.312 216.419 235.783 216.638 235.229 216.638V216.638Z" fill="white"/>
<path fill-rule="evenodd" clip-rule="evenodd" d="M308.987 216.638C308.454 216.638 307.921 216.433 307.515 216.026L228.376 136.717C227.564 135.903 227.564 134.582 228.376 133.766L233.757 128.372C234.537 127.59 235.92 127.59 236.701 128.372L315.844 207.681C316.236 208.073 316.455 208.601 316.455 209.157C316.455 209.712 316.236 210.242 315.844 210.632L310.459 216.026C310.053 216.433 309.52 216.638 308.987 216.638V216.638Z" fill="white"/>
<path fill-rule="evenodd" clip-rule="evenodd" d="M273.575 150.496C261.88 150.496 252.402 159.992 252.402 171.71C252.402 183.413 261.88 192.915 273.575 192.915C285.273 192.915 294.758 183.413 294.758 171.71C294.758 159.992 285.273 150.496 273.575 150.496" fill="#1063FE"/>
<path fill-rule="evenodd" clip-rule="evenodd" d="M272.349 152.36C261.76 152.36 253.146 160.991 253.146 171.601C253.146 182.205 261.76 190.833 272.349 190.833C282.943 190.833 291.561 182.205 291.561 171.601C291.561 160.991 282.943 152.36 272.349 152.36ZM272.349 194.779C259.589 194.779 249.206 184.384 249.206 171.601C249.206 158.817 259.589 148.414 272.349 148.414C285.116 148.414 295.501 158.817 295.501 171.601C295.501 184.384 285.116 194.779 272.349 194.779V194.779Z" fill="white"/>
<path fill-rule="evenodd" clip-rule="evenodd" d="M292.321 221.365C286.038 223.973 279.123 225.444 271.859 225.444C242.494 225.444 218.671 201.598 218.671 172.183C218.671 142.765 242.494 118.903 271.859 118.903C301.242 118.903 325.052 142.765 325.052 172.183C325.052 179.368 323.611 186.22 321.035 192.473C315.681 205.504 305.319 215.925 292.321 221.365ZM271.861 113.971C239.756 113.971 213.746 140.033 213.746 172.181C213.746 204.319 239.756 230.377 271.861 230.377C303.965 230.377 329.977 204.319 329.977 172.181C329.977 140.033 303.965 113.971 271.861 113.971V113.971Z" fill="white"/>
<path opacity="0.419178" fill-rule="evenodd" clip-rule="evenodd" d="M453.42 221.114C447.011 220.219 440.418 219.887 436.653 219.887H436.632C433.009 219.887 426.809 220.164 420.608 221.007C419.896 227.765 415.552 233.315 409.523 235.891C410.102 240.788 410.981 245.866 412.006 250.513C413.059 255.264 414.267 259.461 415.467 262.372C419.102 271.176 430.808 279.899 436.632 284.037L436.653 284.017C442.484 279.872 454.166 271.135 457.797 262.341C459.001 259.428 460.209 255.196 461.258 250.446C462.312 245.696 463.203 240.563 463.78 235.565C458.131 232.867 454.137 227.535 453.42 221.114" fill="#78A9FF"/>
<path fill-rule="evenodd" clip-rule="evenodd" d="M435.15 257.292V257.292C434.666 257.292 434.208 257.074 433.912 256.701L429.147 250.712C428.618 250.048 428.743 249.091 429.426 248.577C430.112 248.064 431.092 248.186 431.622 248.85L435.15 253.284L442.267 244.341C442.797 243.676 443.777 243.554 444.461 244.068C445.146 244.583 445.271 245.538 444.742 246.204L436.387 256.701C436.091 257.074 435.634 257.292 435.15 257.292" fill="#1063FE"/>
<path opacity="0.419178" fill-rule="evenodd" clip-rule="evenodd" d="M117.086 173.545C110.677 172.648 104.084 171.89 100.317 171.89H100.3C96.6726 171.89 90.4733 172.596 84.2719 173.439C83.5598 180.196 79.2159 185.96 73.1895 188.533C73.7663 193.432 74.645 198.614 75.6737 203.263C76.7233 208.015 77.9311 212.264 79.1347 215.175C82.7664 223.981 94.4715 232.731 100.3 236.867L100.317 236.859C106.15 232.715 117.83 223.988 121.461 215.194C122.665 212.276 123.875 208.051 124.922 203.299C125.976 198.549 126.871 193.205 127.444 188.209C121.795 185.509 117.803 179.964 117.086 173.545" fill="#78A9FF"/>
<path fill-rule="evenodd" clip-rule="evenodd" d="M98.4133 211.25V211.25C97.9293 211.25 97.4724 211.033 97.1752 210.66L92.4103 204.67C91.8815 204.006 92.0066 203.049 92.6909 202.536C93.3752 202.023 94.3557 202.144 94.8856 202.808L98.4133 207.242L105.53 198.299C106.06 197.634 107.041 197.513 107.726 198.026C108.409 198.54 108.534 199.496 108.006 200.161L99.6515 210.66C99.3542 211.033 98.8973 211.25 98.4133 211.25" fill="#1063FE"/>
</svg>
