<svg width="534" height="275" viewBox="0 0 534 275" fill="none" xmlns="http://www.w3.org/2000/svg">
<path fill-rule="evenodd" clip-rule="evenodd" d="M17.2426 242.174C22.7342 245.253 25.9036 250.034 24.3218 252.857C22.7398 255.679 17.0059 255.471 11.5143 252.392C7.71488 250.263 5.78422 245.967 4.95515 243.521C4.61417 242.514 5.21564 241.442 6.25192 241.208C8.77089 240.639 13.4434 240.043 17.2426 242.174" fill="#CFE4FF"/>
<path fill-rule="evenodd" clip-rule="evenodd" d="M39.4392 243.888C36.3384 247.03 32.5157 248.286 30.9008 246.693C29.2857 245.099 30.4902 241.261 33.591 238.116C35.7361 235.942 39 235.434 40.8078 235.328C41.5514 235.282 42.1656 235.89 42.1316 236.633C42.049 238.443 41.5845 241.714 39.4392 243.888" fill="#006BFF"/>
<path fill-rule="evenodd" clip-rule="evenodd" d="M26.5455 273.261C26.2736 273.261 26.0535 273.041 26.0535 272.769C26.0535 260.449 24.1349 247.504 20.3511 234.296C20.2765 234.035 20.4275 233.763 20.6887 233.688C20.9498 233.614 21.2223 233.763 21.2969 234.026C25.1059 247.323 27.0372 260.356 27.0372 272.769C27.0372 273.041 26.8171 273.261 26.5455 273.261" fill="#006BFF"/>
<path fill-rule="evenodd" clip-rule="evenodd" d="M19.3967 229.936C19.1886 229.936 18.995 229.805 18.9283 229.594C14.3091 215.121 9.06013 205.635 9.00776 205.542C8.87536 205.304 8.96038 205.005 9.19774 204.874C9.43488 204.74 9.73436 204.826 9.86676 205.064C9.91981 205.157 15.2142 214.72 19.8656 229.297C19.9481 229.555 19.8052 229.832 19.5466 229.914C19.4967 229.93 19.4464 229.936 19.3967 229.936" fill="#006BFF"/>
<path fill-rule="evenodd" clip-rule="evenodd" d="M22.5631 212.337C22.5631 218.22 17.7935 222.99 11.9104 222.99C6.0271 222.99 1.25781 218.22 1.25781 212.337C1.25781 206.454 6.0271 201.686 11.9104 201.686C17.7935 201.686 22.5631 206.454 22.5631 212.337" fill="#001E57"/>
<path fill-rule="evenodd" clip-rule="evenodd" d="M28.8138 273.26C28.5465 273.26 28.3275 273.047 28.3223 272.78C28.3155 272.449 27.7627 239.49 36.0889 215.792C36.1789 215.536 36.4602 215.402 36.7159 215.49C36.9721 215.581 37.107 215.862 37.017 216.118C28.7505 239.646 29.2991 272.431 29.3055 272.759C29.3109 273.032 29.0953 273.256 28.8237 273.26C28.8203 273.26 28.8169 273.26 28.8138 273.26" fill="#001E57"/>
<path fill-rule="evenodd" clip-rule="evenodd" d="M45.6575 218.215L38.125 210.684L27.8354 213.441L25.0781 223.729L32.6108 231.263L42.9004 228.506L45.6575 218.215" fill="#001E57"/>
<path fill-rule="evenodd" clip-rule="evenodd" d="M11.9101 213.572C6.41493 213.572 0.574219 212.257 0.574219 209.823C0.574219 209.594 0.759667 209.408 0.988417 209.408C1.21717 209.408 1.40262 209.594 1.40262 209.823C1.40262 211.203 5.7178 212.743 11.9101 212.743C18.1023 212.743 22.4174 211.203 22.4174 209.823C22.4174 209.594 22.6029 209.408 22.8316 209.408C23.0604 209.408 23.2458 209.594 23.2458 209.823C23.2458 212.257 17.4054 213.572 11.9101 213.572" fill="white"/>
<path fill-rule="evenodd" clip-rule="evenodd" d="M11.9101 213.572C6.41493 213.572 0.574219 212.257 0.574219 209.823C0.574219 209.594 0.759667 209.408 0.988417 209.408C1.21717 209.408 1.40262 209.594 1.40262 209.823C1.40262 211.203 5.7178 212.743 11.9101 212.743C18.1023 212.743 22.4174 211.203 22.4174 209.823C22.4174 209.594 22.6029 209.408 22.8316 209.408C23.0604 209.408 23.2458 209.594 23.2458 209.823C23.2458 212.257 17.4054 213.572 11.9101 213.572" fill="white"/>
<path fill-rule="evenodd" clip-rule="evenodd" d="M20.7386 216.413C20.1218 216.413 19.3956 216.318 18.5672 216.127C16.4269 215.633 13.8372 214.547 11.2756 213.069C6.51535 210.324 2.1131 206.268 3.32985 204.157C3.44411 203.96 3.69735 203.892 3.89549 204.005C4.09364 204.121 4.16165 204.375 4.04716 204.572C3.35683 205.769 6.32559 209.258 11.6893 212.353C14.1818 213.79 16.6907 214.844 18.7534 215.32C20.5797 215.742 21.9196 215.647 22.2513 215.071C22.3655 214.874 22.6183 214.806 22.8167 214.921C23.0148 215.035 23.0828 215.289 22.9686 215.486C22.6131 216.103 21.855 216.413 20.7386 216.413" fill="white"/>
<path fill-rule="evenodd" clip-rule="evenodd" d="M20.7386 216.413C20.1218 216.413 19.3956 216.318 18.5672 216.127C16.4269 215.633 13.8372 214.547 11.2756 213.069C6.51535 210.324 2.1131 206.268 3.32985 204.157C3.44411 203.96 3.69735 203.892 3.89549 204.005C4.09364 204.121 4.16165 204.375 4.04716 204.572C3.35683 205.769 6.32559 209.258 11.6893 212.353C14.1818 213.79 16.6907 214.844 18.7534 215.32C20.5797 215.742 21.9196 215.647 22.2513 215.071C22.3655 214.874 22.6183 214.806 22.8167 214.921C23.0148 215.035 23.0828 215.289 22.9686 215.486C22.6131 216.103 21.855 216.413 20.7386 216.413" fill="white"/>
<path fill-rule="evenodd" clip-rule="evenodd" d="M25.078 224.144C24.8952 224.144 24.7279 224.022 24.6783 223.838C24.6191 223.616 24.7501 223.389 24.9712 223.33L45.5505 217.816C45.7718 217.758 45.9983 217.887 46.0574 218.109C46.1168 218.329 45.9858 218.556 45.7647 218.617L25.1854 224.13C25.1496 224.139 25.1136 224.144 25.078 224.144" fill="white"/>
<path fill-rule="evenodd" clip-rule="evenodd" d="M35.3684 221.387C35.2626 221.387 35.1565 221.346 35.0758 221.265L27.5431 213.733C27.3815 213.57 27.3815 213.309 27.5431 213.146C27.7048 212.985 27.9671 212.985 28.1287 213.146L35.6613 220.68C35.823 220.841 35.823 221.104 35.6613 221.265C35.5804 221.346 35.4743 221.387 35.3684 221.387" fill="white"/>
<path fill-rule="evenodd" clip-rule="evenodd" d="M453.23 117.757L453.897 118.983L442.156 125.625L439.725 123.974L439.097 123.546C438.61 123.215 437.964 123.631 438.064 124.211L438.646 127.611L435.792 129.226L429.777 115.719L438.191 110.993L443.922 115.095L451.417 116.447C451.759 116.509 452.081 116.637 452.367 116.823C452.725 117.055 453.022 117.373 453.23 117.757" fill="#006BFF"/>
<path fill-rule="evenodd" clip-rule="evenodd" d="M366.228 146.294L365.257 147.296L355.402 138.087L356.47 134.545C356.638 133.982 356.048 133.49 355.525 133.759L352.455 135.333L350.059 133.094L352.042 131.343L361.142 123.309L368.173 129.918L365.978 136.616L366.935 144.172C366.978 144.517 366.951 144.863 366.86 145.189C366.747 145.601 366.531 145.98 366.228 146.294" fill="#006BFF"/>
<path fill-rule="evenodd" clip-rule="evenodd" d="M288.443 193.722C286.684 192.262 285.222 190.391 284.218 188.17L257.103 128.144C253.573 120.331 257.046 111.135 264.861 107.605C272.673 104.075 281.869 107.548 285.399 115.362L312.515 175.386C316.045 183.2 312.572 192.396 304.757 195.925C299.167 198.451 292.866 197.392 288.443 193.722" fill="#FC346C"/>
<path fill-rule="evenodd" clip-rule="evenodd" d="M257.103 128.146L284.22 188.17C285.222 190.394 286.684 192.262 288.441 193.719C292.869 197.392 299.167 198.451 304.757 195.923C312.57 192.398 316.045 183.2 312.513 175.388L285.399 115.36C281.869 107.547 272.676 104.076 264.859 107.605C257.046 111.137 253.573 120.329 257.103 128.146" fill="#FFBFAA"/>
<path fill-rule="evenodd" clip-rule="evenodd" d="M227.271 203.479C229.948 206.694 234.424 208.279 239.278 207.261L299.199 200.065C308.308 198.684 314.575 190.18 313.196 181.071C311.816 171.961 303.314 165.694 294.202 167.074L236.961 181.658C229.577 183.209 224.111 190.196 224.75 197.265C224.97 199.686 225.877 201.804 227.271 203.479" fill="#FFBFAA"/>
<path fill-rule="evenodd" clip-rule="evenodd" d="M238.784 137.207C235.503 144.966 226.555 148.598 218.795 145.318C211.037 142.039 207.405 133.091 210.683 125.332C213.964 117.572 237.24 106.073 237.24 106.073C243.742 111.429 242.062 129.447 238.784 137.207" fill="#72ACFF"/>
<path fill-rule="evenodd" clip-rule="evenodd" d="M214.719 202.833H294.947L281.451 152.135L284.625 141.48C287.474 131.918 286.225 121.527 280.886 113.099C280.703 112.809 280.514 112.523 280.324 112.239C274.323 103.304 265.087 97.646 254.833 97.646C246.449 97.646 238.752 101.423 232.944 107.679C231.754 108.963 230.636 110.353 229.618 111.836C225.655 117.573 223.041 124.705 222.384 132.583L214.719 202.833" fill="#72ACFF"/>
<path fill-rule="evenodd" clip-rule="evenodd" d="M308.503 214.667C308.489 214.844 308.473 215.026 308.457 215.214L249.81 218.304L209.156 220.444L215.32 175.809C253.578 182.298 271.733 186.406 291.259 177.467C302.583 187.634 306.839 199.507 308.251 212.067C308.348 212.931 308.432 213.797 308.503 214.667" fill="#001E57"/>
<path fill-rule="evenodd" clip-rule="evenodd" d="M259.044 185.578C258.061 185.671 257.07 185.757 256.065 185.839C243.544 186.834 229.094 186.748 213.118 185.585C211.331 185.454 209.987 183.901 210.118 182.114C210.247 180.326 213.369 175.678 215.156 175.809C246.637 178.103 269.886 179.409 287.351 173.176C289.038 172.574 290.895 173.454 291.498 175.141C292.099 176.828 291.219 178.684 289.532 179.287C280.947 182.35 270.702 184.463 259.044 185.578" fill="white"/>
<path fill-rule="evenodd" clip-rule="evenodd" d="M308.503 214.667C308.489 214.844 308.473 215.026 308.457 215.214C308.416 215.665 308.362 216.146 308.298 216.649C307.897 219.8 307.045 223.87 306.131 227.864C305.041 232.632 303.451 241.793 303.451 241.793H254.292L249.81 218.304L249.787 218.188L246.86 202.835L246.386 200.342L244.852 192.309L258.295 196.499L258.615 196.596L262.542 197.825L270.22 200.217L278.622 202.835L279.234 203.024L301.493 209.961L305.084 211.079L305.932 211.348L308.251 212.067C308.348 212.931 308.432 213.797 308.503 214.667" fill="#001E57"/>
<path fill-rule="evenodd" clip-rule="evenodd" d="M198.645 273.544H314.439L302.65 230.802L269.818 217.247L270.668 213.303L270.133 217.234L270.672 213.289L272.094 202.835L272.452 200.217L273.527 192.309L260.527 196.499L260.003 196.667L248.618 200.342L240.874 202.835L210.223 212.715L210.177 212.729L209.202 220.439L198.645 273.544" fill="#001E57"/>
<path fill-rule="evenodd" clip-rule="evenodd" d="M245.008 67.7698L245.103 89.5664L245.105 89.5902L245.119 92.8226L245.153 99.8805C245.18 105.885 250.064 110.727 256.065 110.699C262.066 110.671 266.904 105.782 266.879 99.7869L266.749 71.5291L266.729 67.671C266.729 66.7181 266.597 65.7952 266.364 64.9215C265.525 61.7469 263.281 59.1467 260.343 57.8141C259.368 57.3736 258.318 57.076 257.216 56.9392C256.756 56.883 256.287 56.8536 255.817 56.857C249.821 56.8857 244.981 61.765 245.008 67.7698" fill="#FFBFAA"/>
<path fill-rule="evenodd" clip-rule="evenodd" d="M245.008 67.7698L245.103 89.5664L245.105 89.5902L245.119 92.8226C252.884 92.0114 259.966 87.0651 263.136 79.3316L264.12 76.9325C264.641 75.6559 265.008 74.3539 265.219 73.0504C266.133 67.4472 264.262 61.7761 260.343 57.8141C259.368 57.3736 258.318 57.076 257.216 56.9392C256.756 56.883 256.287 56.8536 255.817 56.857C249.821 56.8857 244.981 61.765 245.008 67.7698" fill="#72ACFF"/>
<path fill-rule="evenodd" clip-rule="evenodd" d="M238.736 86.2301V86.2301C231.887 83.4218 228.611 75.5933 231.42 68.7446L235.634 58.4618C239.337 49.4367 249.652 45.1202 258.677 48.821C267.702 52.5215 272.019 62.838 268.319 71.8633L267.335 74.2637C262.742 85.4656 249.938 90.8232 238.736 86.2301" fill="#FFBFAA"/>
<path fill-rule="evenodd" clip-rule="evenodd" d="M236.328 58.7026C233.748 62.9822 231.128 66.9542 228.248 69.0381C227.471 69.6017 227.153 70.6568 227.645 71.4825C227.954 71.9989 228.507 72.3732 229.203 72.3911L236.9 72.5868L236.328 58.7026" fill="#FFBFAA"/>
<path fill-rule="evenodd" clip-rule="evenodd" d="M255.681 73.8726C255.681 73.8726 261.453 62.1514 253.507 61.7549C234.669 60.815 233.425 52.3522 233.42 52.349C233.338 52.2919 235.683 49.5344 235.821 49.3859C237.82 47.2097 240.115 45.2718 242.677 43.7855C252.212 38.2499 264.815 41.5826 271.97 49.4886C279.907 58.2582 278.175 66.8747 274.588 72.7658C271.584 77.7044 265.121 79.2562 260.099 76.3922L255.681 73.8726" fill="#006BFF"/>
<path fill-rule="evenodd" clip-rule="evenodd" d="M271.32 42.4236C270.705 40.3333 269.807 38.3186 269.44 36.171C268.787 32.3398 269.968 28.2364 272.562 25.3406C275.153 22.4448 279.102 20.8173 282.981 21.0449C288.749 21.3832 293.535 25.4254 297.854 29.2647C301.272 24.8677 305.961 21.3487 311.336 19.8928C319.389 17.7125 332.629 21.2256 331.654 31.7299C331.323 35.299 329.278 38.5482 326.614 40.9468C325.784 41.6941 324.852 42.4263 324.476 43.478C323.964 44.9174 324.671 46.542 325.728 47.6472C326.782 48.7522 328.151 49.496 329.359 50.4321C332.776 53.0794 334.841 57.3885 334.762 61.7102C334.683 66.0322 332.463 70.2633 328.954 72.7845C327.099 74.1162 324.884 75.0024 323.483 76.8617C319.3 82.4186 321.057 90.4064 316.022 95.7604C312.606 99.3939 307.085 100.54 302.204 99.5084C297.325 98.4768 293.032 95.5389 289.461 92.0567C285.591 88.284 282.29 83.4562 282.111 78.0549C281.954 73.3855 284.337 68.7088 288.207 66.09C290.311 64.6658 293.111 63.3911 293.36 60.8623C293.58 58.651 291.451 56.7591 289.252 56.444C287.053 56.1291 284.863 56.9677 282.83 57.8605C277.024 60.4078 271.415 63.5518 265.255 65.0526C265.752 65.224 266.246 65.3954 266.742 65.5668C266.239 67.2508 263.668 67.4947 262.405 66.273C261.14 65.0512 260.988 63.0598 261.328 61.3353C261.777 59.0552 262.959 56.9251 264.654 55.3354C266.844 53.2812 269.928 52.0191 271.254 49.3253C272.256 47.2913 272.009 44.8616 271.394 42.6793C271.369 42.5939 271.344 42.5088 271.32 42.4236" fill="#006BFF"/>
<path fill-rule="evenodd" clip-rule="evenodd" d="M267.366 70.6188C266.627 75.161 262.344 78.2438 257.803 77.5045C253.26 76.7654 250.179 72.484 250.918 67.9416C251.657 63.3995 255.937 60.3165 260.481 61.0558C265.022 61.7951 268.105 66.0765 267.366 70.6188" fill="#FFBFAA"/>
<path fill-rule="evenodd" clip-rule="evenodd" d="M278.555 61.5219C278.172 61.5219 277.798 61.3324 277.576 60.9855L269.997 49.0756C269.655 48.5362 269.813 47.8207 270.353 47.4775C270.892 47.1338 271.609 47.2932 271.951 47.8325L279.53 59.7427C279.872 60.282 279.714 60.9975 279.174 61.3408C278.981 61.4632 278.766 61.5219 278.555 61.5219" fill="#72ACFF"/>
<path fill-rule="evenodd" clip-rule="evenodd" d="M260.439 75.783L260.412 77.995L260.439 75.783" fill="#240448"/>
<path fill-rule="evenodd" clip-rule="evenodd" d="M260.412 79.1525C260.408 79.1525 260.403 79.1525 260.397 79.1523C259.757 79.1448 259.247 78.6205 259.254 77.9811L259.281 75.7691C259.288 75.13 259.812 74.6165 260.451 74.6256C261.09 74.6333 261.603 75.1577 261.596 75.7968L261.569 78.0088C261.562 78.6434 261.045 79.1525 260.412 79.1525" fill="white"/>
<path fill-rule="evenodd" clip-rule="evenodd" d="M241.738 110.699H270.632V94.8582H241.738V110.699Z" fill="#72ACFF"/>
<path fill-rule="evenodd" clip-rule="evenodd" d="M145.628 161.539C145.419 161.539 145.206 161.482 145.015 161.362C142.397 159.721 140.86 156.757 140.688 153.019C140.524 149.437 141.64 145.538 143.834 142.039C146.029 138.541 149.051 135.836 152.347 134.424C155.786 132.95 159.124 133.043 161.742 134.684C162.284 135.024 162.447 135.738 162.107 136.28C161.767 136.822 161.055 136.985 160.511 136.646C158.557 135.42 155.979 135.386 153.259 136.552C150.393 137.78 147.743 140.166 145.795 143.269C143.85 146.373 142.857 149.797 143 152.912C143.136 155.87 144.288 158.175 146.244 159.401C146.786 159.74 146.949 160.455 146.611 160.996C146.392 161.347 146.013 161.539 145.628 161.539" fill="#240448"/>
<path fill-rule="evenodd" clip-rule="evenodd" d="M209.142 193.717C206.827 193.717 204.479 193.198 202.264 192.103C194.581 188.297 191.436 178.984 195.24 171.301L224.348 112.523C228.152 104.84 237.465 101.696 245.15 105.501C252.834 109.306 255.978 118.619 252.172 126.302L223.067 185.079C220.357 190.548 214.858 193.717 209.142 193.717" fill="#FFBFAA"/>
<path fill-rule="evenodd" clip-rule="evenodd" d="M129.883 142.387C129.883 146.571 132.306 150.653 136.686 152.978L198.224 193.957C206.107 198.727 216.363 196.206 221.136 188.324C225.908 180.441 223.385 170.183 215.502 165.412L151.296 131.824C144.63 128.289 135.956 130.158 131.923 135.999C130.543 137.999 129.883 140.208 129.883 142.387" fill="#FFBFAA"/>
<path fill-rule="evenodd" clip-rule="evenodd" d="M152.004 145.795C150.58 145.795 149.152 145.279 148.027 144.236L124.348 122.303C121.976 120.106 121.836 116.402 124.032 114.03C126.229 111.659 129.934 111.517 132.305 113.714L155.983 135.647C158.354 137.844 158.495 141.548 156.298 143.919C155.146 145.165 153.577 145.795 152.004 145.795" fill="#FFBFAA"/>
<path fill-rule="evenodd" clip-rule="evenodd" d="M145.689 146.586C144.56 146.586 143.419 146.26 142.413 145.58L126.604 134.884C123.927 133.072 123.226 129.433 125.038 126.756C126.849 124.078 130.488 123.376 133.165 125.188L148.974 135.884C151.651 137.695 152.354 141.334 150.542 144.012C149.411 145.685 147.566 146.586 145.689 146.586" fill="#FFBFAA"/>
<path fill-rule="evenodd" clip-rule="evenodd" d="M137.773 152.717C136.536 152.717 135.291 152.327 134.23 151.52L123.296 143.191C120.725 141.232 120.226 137.559 122.185 134.987C124.146 132.415 127.819 131.919 130.389 133.877L141.324 142.206C143.897 144.165 144.393 147.838 142.435 150.41C141.283 151.922 139.537 152.717 137.773 152.717" fill="#FFBFAA"/>
<path fill-rule="evenodd" clip-rule="evenodd" d="M154.34 144.372C151.347 144.372 148.794 142.089 148.516 139.05L147.552 128.491C147.257 125.271 149.629 122.423 152.848 122.128C156.067 121.833 158.915 124.205 159.209 127.425L160.175 137.984C160.47 141.204 158.099 144.053 154.879 144.347C154.698 144.363 154.517 144.372 154.34 144.372" fill="#FFBFAA"/>
<path fill-rule="evenodd" clip-rule="evenodd" d="M149.675 162.665C147.981 162.665 146.399 162.23 145.016 161.362C144.474 161.023 144.311 160.308 144.648 159.767C144.989 159.225 145.703 159.061 146.245 159.401C148.201 160.628 150.776 160.661 153.499 159.495C156.365 158.267 159.015 155.881 160.96 152.778C162.908 149.674 163.901 146.25 163.756 143.135C163.62 140.177 162.468 137.872 160.514 136.646C159.972 136.306 159.806 135.592 160.146 135.05C160.486 134.509 161.201 134.345 161.742 134.684C164.361 136.326 165.898 139.29 166.07 143.028C166.233 146.61 165.116 150.509 162.924 154.008C160.729 157.506 157.705 160.211 154.411 161.623C152.787 162.318 151.187 162.665 149.675 162.665" fill="#240448"/>
<path fill-rule="evenodd" clip-rule="evenodd" d="M160.01 149.797C160.849 152.408 163.646 153.844 166.256 153.004C168.867 152.164 170.305 149.367 169.464 146.756C168.625 144.145 165.827 142.709 163.216 143.549C160.606 144.388 159.169 147.186 160.01 149.797" fill="white"/>
<path fill-rule="evenodd" clip-rule="evenodd" d="M155.44 156.483C156.278 159.094 159.076 160.53 161.688 159.69C164.297 158.851 165.734 156.053 164.893 153.442C164.055 150.831 161.257 149.395 158.647 150.235C156.036 151.074 154.598 153.872 155.44 156.483" fill="white"/>
<path fill-rule="evenodd" clip-rule="evenodd" d="M209.695 162.659C209.509 162.659 209.321 162.614 209.146 162.52L201.526 158.414C200.964 158.111 200.753 157.409 201.057 156.846C201.359 156.283 202.061 156.073 202.624 156.376L210.246 160.482C210.808 160.785 211.019 161.487 210.715 162.05C210.506 162.438 210.107 162.659 209.695 162.659" fill="#72ACFF"/>
<path fill-rule="evenodd" clip-rule="evenodd" d="M266.034 140.335L278.555 127.647L266.909 114.993L258.16 128.018L266.034 140.335" fill="#FC346C"/>
<path fill-rule="evenodd" clip-rule="evenodd" d="M266.034 140.335L278.555 127.647L266.909 114.993L258.16 128.018L266.034 140.335" fill="#CFE4FF"/>
<path fill-rule="evenodd" clip-rule="evenodd" d="M259.541 128.034L266.226 138.49L276.954 127.619L267.049 116.857L259.541 128.034ZM266.031 141.492C265.993 141.492 265.952 141.49 265.911 141.486C265.56 141.449 265.247 141.255 265.056 140.958L257.183 128.642C256.933 128.254 256.94 127.755 257.196 127.373L265.945 114.347C266.142 114.053 266.464 113.865 266.818 113.838C267.174 113.812 267.519 113.948 267.759 114.209L279.405 126.863C279.824 127.318 279.811 128.021 279.378 128.46L266.857 141.148C266.637 141.369 266.34 141.492 266.031 141.492V141.492Z" fill="white"/>
<path fill-rule="evenodd" clip-rule="evenodd" d="M260.305 82.8994L260.203 91.486L260.305 82.8994" fill="#240448"/>
<path fill-rule="evenodd" clip-rule="evenodd" d="M260.203 92.6435C260.199 92.6435 260.194 92.6435 260.19 92.6435C259.55 92.6358 259.038 92.1114 259.047 91.4721L259.149 82.8854C259.156 82.2509 259.673 81.7417 260.305 81.7417C260.31 81.7417 260.314 81.7417 260.321 81.7417C260.96 81.7494 261.471 82.2738 261.464 82.9131L261.362 91.4997C261.353 92.1343 260.836 92.6435 260.203 92.6435" fill="white"/>
<path fill-rule="evenodd" clip-rule="evenodd" d="M326.829 119.758L328.344 122.618L331.112 124.182L328.344 125.745L326.829 128.605L325.315 125.745L322.547 124.182L325.315 122.618L326.829 119.758" fill="#CFE4FF"/>
<path fill-rule="evenodd" clip-rule="evenodd" d="M99.2476 101.801L100.762 104.661L103.53 106.225L100.762 107.789L99.2476 110.648L97.7334 107.789L94.9648 106.225L97.7334 104.661L99.2476 101.801" fill="#001E57"/>
<path fill-rule="evenodd" clip-rule="evenodd" d="M250.025 0.0969238L251.539 2.95618L254.307 4.52025L251.539 6.08409L250.025 8.94358L248.51 6.08409L245.742 4.52025L248.51 2.95618L250.025 0.0969238" fill="#001E57"/>
<path fill-rule="evenodd" clip-rule="evenodd" d="M519.263 158.78L520.777 161.639L523.548 163.203L520.777 164.767L519.263 167.627L517.751 164.767L514.98 163.203L517.751 161.639L519.263 158.78" fill="#006BFF"/>
<path fill-rule="evenodd" clip-rule="evenodd" d="M65.721 61.2926V61.2926C65.721 64.5271 63.0989 67.1492 59.8644 67.1492C56.6297 67.1492 54.0078 64.5271 54.0078 61.2926C54.0078 58.0579 56.6297 55.4358 59.8644 55.4358C63.0989 55.4358 65.721 58.0579 65.721 61.2926" fill="#006BFF"/>
<path fill-rule="evenodd" clip-rule="evenodd" d="M79.3581 76.161V76.161C79.3581 77.879 77.9654 79.2717 76.2474 79.2717C74.5294 79.2717 73.1367 77.879 73.1367 76.161C73.1367 74.443 74.5294 73.0503 76.2474 73.0503C77.9654 73.0503 79.3581 74.443 79.3581 76.161" fill="#72ACFF"/>
<path fill-rule="evenodd" clip-rule="evenodd" d="M60.8875 71.3809H70.4093V61.8591H60.8875V71.3809ZM70.976 72.5145H60.3207C60.0076 72.5145 59.7539 72.2608 59.7539 71.9477V61.2924C59.7539 60.9795 60.0076 60.7256 60.3207 60.7256H70.976C71.2891 60.7256 71.5428 60.9795 71.5428 61.2924V71.9477C71.5428 72.2608 71.2891 72.5145 70.976 72.5145V72.5145Z" fill="#006BFF"/>
<path fill-rule="evenodd" clip-rule="evenodd" d="M34.0967 171.389C33.5886 171.389 33.0747 171.505 32.6127 171.736C32.3105 171.887 31.5929 172.308 31.4592 172.948C31.3211 173.609 31.8339 174.338 32.2882 174.834C33.1858 175.811 34.2853 176.553 35.4706 177.017C36.4849 176.02 37.0918 174.851 36.8467 173.52C36.6567 172.487 36.0008 171.964 35.4842 171.706C35.0604 171.495 34.5812 171.389 34.0967 171.389ZM27.9495 182.275C27.6563 182.275 27.3856 182.085 27.2979 181.788C27.1909 181.427 27.3958 181.049 27.7559 180.942C29.0798 180.55 32.089 179.544 34.2953 177.986C33.1799 177.449 32.1513 176.696 31.2862 175.753C30.3118 174.692 29.9221 173.655 30.1277 172.67C30.3097 171.797 30.9763 171.034 32.0042 170.519C33.2817 169.88 34.8478 169.868 36.0911 170.489C37.2135 171.048 37.9569 172.037 38.1845 173.274C38.4804 174.881 37.9308 176.265 36.9342 177.438C37.8227 177.606 38.7313 177.622 39.6184 177.47C41.8558 177.088 43.5988 175.683 44.526 173.515C44.6736 173.169 45.0735 173.009 45.4188 173.157C45.7643 173.305 45.9244 173.704 45.7768 174.05C44.6616 176.658 42.5559 178.349 39.8474 178.811C38.4976 179.041 37.1072 178.945 35.7846 178.558C33.4653 180.468 30.0778 181.672 28.1435 182.246C28.0789 182.266 28.0136 182.275 27.9495 182.275V182.275Z" fill="#240448"/>
<path fill-rule="evenodd" clip-rule="evenodd" d="M517.109 75.1705H354.93C354.874 73.9608 354.937 72.6554 355.112 71.2962V71.2937C355.626 67.2631 357.123 62.7629 359.315 58.9048C362.743 52.8634 367.882 48.3959 373.654 49.7761C375.423 50.1964 377.248 51.1678 379.102 52.8097C381.882 55.2711 384.119 58.2931 386.871 60.7849C389.624 63.2766 393.144 65.278 396.847 65.0071C401.485 64.6709 404.815 60.5232 405.509 56.1539C407.18 45.6425 407.076 24.8766 420.218 21.9996C420.465 21.9459 420.712 21.8967 420.955 21.857C432.184 19.9352 439.931 30.9066 442.921 40.736C443.261 41.8521 443.54 42.9546 443.753 44.0217C444.365 46.5906 444.598 49.3929 444.7 52.2327C444.719 52.4127 444.739 52.5902 444.759 52.7675C444.848 53.529 444.95 54.2833 445.077 55.0258C445.39 56.8567 445.854 58.6037 446.632 60.1449C446.929 60.7382 447.348 61.35 447.992 61.5065C449.786 61.9408 451.289 59.8624 452.318 58.2065C452.606 57.742 452.86 57.3099 453.068 56.9759C456.326 51.8053 465.315 48.3585 469.376 54.5587C472.209 58.8932 469.852 67.3377 475.755 69.4957C482.525 71.9712 484.23 63.0687 484.833 58.5033C485.572 52.8938 485.449 47.1465 487.102 41.6864C487.802 40.0516 488.97 38.1835 490.838 37.9498C492.706 37.9498 494.341 39.3511 495.044 40.9881C497.116 46.0186 497.685 51.4458 498.442 56.7866C499.059 61.1188 499.9 70.6773 505.66 71.2144C508.721 71.4971 511.487 66.037 514.323 68.4565C516.121 69.9906 516.026 73.1995 517.109 75.1705" fill="#CFE4FF"/>
<path fill-rule="evenodd" clip-rule="evenodd" d="M14.4375 136.244H84.2339C83.7643 130.398 79.9414 120.429 79.2293 119.28C78.9395 118.815 78.6874 118.383 78.477 118.049C75.2194 112.879 66.2306 109.432 62.1719 115.632C59.3366 119.966 61.6955 128.411 55.7918 130.569C49.0216 133.044 47.3167 124.142 46.7144 119.576C45.9739 113.967 46.0977 108.22 44.4443 102.76C43.7438 101.125 42.576 99.2567 40.7077 99.0232C38.8394 99.0232 37.2048 100.424 36.5018 102.062C34.4303 107.092 33.8606 112.519 33.1039 117.86C32.4874 122.192 31.6468 131.751 25.8854 132.288C22.8262 132.57 20.0588 127.11 17.2235 129.53C15.4255 131.064 15.5212 134.273 14.4375 136.244" fill="#CFE4FF"/>
<path fill-rule="evenodd" clip-rule="evenodd" d="M504.531 111.862C504.687 111.892 504.843 111.912 505.002 111.922C505.836 111.97 506.589 111.694 507.238 111.098C507.491 110.865 507.813 110.488 507.909 110.015C508.02 109.465 507.761 108.839 507.296 108.526C506.832 108.213 506.156 108.21 505.689 108.52C505.206 108.84 504.88 109.461 504.689 110.418C504.592 110.911 504.54 111.395 504.531 111.862ZM510.423 118.45C507.566 118.45 504.794 117.184 503.805 114.445C503.612 113.907 503.488 113.328 503.431 112.722C502.243 112.279 501.051 111.422 500.06 110.267C498.976 109.007 498.287 107.51 498.162 106.158C498.135 105.847 498.364 105.571 498.675 105.543C498.985 105.513 499.262 105.744 499.291 106.055C499.391 107.161 500.001 108.46 500.919 109.53C501.538 110.251 502.427 111.019 503.413 111.486C503.438 111.064 503.492 110.633 503.578 110.198C503.83 108.929 504.315 108.071 505.063 107.576C505.909 107.016 507.088 107.02 507.929 107.587C508.772 108.154 509.219 109.244 509.017 110.239C508.895 110.85 508.543 111.435 508.004 111.931C507.122 112.743 506.086 113.12 504.934 113.052C504.828 113.046 504.719 113.036 504.608 113.021C504.664 113.384 504.753 113.732 504.871 114.061C506.084 117.42 510.362 117.756 513.012 116.922C513.1 116.893 513.191 116.863 513.279 116.832C514.034 116.562 514.703 116.195 515.268 115.743C515.512 115.548 515.868 115.587 516.063 115.831C516.261 116.076 516.22 116.432 515.975 116.627C515.313 117.158 514.533 117.585 513.662 117.898C513.558 117.935 513.456 117.969 513.352 118.002C512.413 118.297 511.414 118.45 510.423 118.45V118.45Z" fill="#72ACFF"/>
<path fill-rule="evenodd" clip-rule="evenodd" d="M236.5 273.544H297.829V207.669H236.5V273.544Z" fill="#CFE4FF"/>
<path fill-rule="evenodd" clip-rule="evenodd" d="M157.082 272.836H218.411V228.202H157.082V272.836Z" fill="#CFE4FF"/>
<path fill-rule="evenodd" clip-rule="evenodd" d="M316.219 272.837H377.548V176.44H316.219V272.837Z" fill="#CFE4FF"/>
<path fill-rule="evenodd" clip-rule="evenodd" d="M395.938 272.836H457.267V148.4H395.938V272.836Z" fill="#CFE4FF"/>
<path fill-rule="evenodd" clip-rule="evenodd" d="M96.7449 185.352C97.6504 187.494 100.121 188.496 102.263 187.591C104.405 186.685 105.408 184.216 104.503 182.073C103.597 179.93 97.1709 176.756 97.1709 176.756C95.376 178.234 95.8397 183.209 96.7449 185.352" fill="#006BFF"/>
<path fill-rule="evenodd" clip-rule="evenodd" d="M70.9737 194.123C71.6046 194.123 72.2453 193.982 72.8504 193.688L89.1923 185.712C91.3195 184.674 92.2025 182.107 91.1644 179.98C90.1263 177.853 87.5595 176.97 85.433 178.008L69.0911 185.984C66.9636 187.02 66.0806 189.587 67.1187 191.715C67.8616 193.237 69.3869 194.123 70.9737 194.123" fill="#FC346C"/>
<path fill-rule="evenodd" clip-rule="evenodd" d="M89.1918 185.712L88.3242 186.136L72.8497 193.688C72.2446 193.982 71.6049 194.123 70.9741 194.123C69.3865 194.123 67.8612 193.237 67.1192 191.713C66.0804 189.589 66.9632 187.02 69.0909 185.984L85.4328 178.008C87.5604 176.97 90.1259 177.853 91.1647 179.981C92.2023 182.107 91.3195 184.674 89.1918 185.712" fill="#FFBFAA"/>
<path fill-rule="evenodd" clip-rule="evenodd" d="M88.324 186.136L81.7467 189.344C79.8276 183.908 84.5135 180.197 84.5135 180.197L88.324 186.136" fill="#001E57"/>
<path fill-rule="evenodd" clip-rule="evenodd" d="M70.5589 267.053C71.2442 267.053 71.9783 266.969 72.753 266.799C73.0586 266.734 73.2526 266.43 73.1858 266.124C73.1191 265.82 72.8187 265.625 72.5111 265.693C71.4696 265.92 70.5226 265.976 69.6974 265.863C68.905 265.754 68.2458 264.974 68.2274 264.126C68.217 263.641 68.4861 263.161 68.9123 262.902C69.1211 262.775 69.5441 262.601 70.0277 262.864C71.1379 263.469 72.066 264.58 72.7505 265.478C72.9405 265.727 73.2962 265.775 73.5449 265.586C73.794 265.396 73.8421 265.04 73.6525 264.791C72.8994 263.802 71.8688 262.576 70.5702 261.868C69.8524 261.478 69.0333 261.501 68.3231 261.934C67.5577 262.399 67.0753 263.269 67.0943 264.149C67.1244 265.555 68.1997 266.799 69.5425 266.985C69.8674 267.031 70.2066 267.053 70.5589 267.053" fill="#240448"/>
<path fill-rule="evenodd" clip-rule="evenodd" d="M102.411 261.383H109.447L106.163 221.396L92.1289 216.431L102.411 261.383" fill="#FC346C"/>
<path fill-rule="evenodd" clip-rule="evenodd" d="M103.391 203.47H81.2422L84.9677 189.473L84.0912 186.53C83.3048 183.892 83.6496 181.021 85.1239 178.695C85.1745 178.615 85.2262 178.536 85.2787 178.458C86.9355 175.991 89.4853 174.429 92.3167 174.429C94.6312 174.429 96.7564 175.472 98.3594 177.199C98.6882 177.553 98.9965 177.937 99.2781 178.347C100.372 179.931 101.094 181.899 101.275 184.075L103.391 203.47" fill="#006BFF"/>
<path fill-rule="evenodd" clip-rule="evenodd" d="M77.4883 206.887C77.7782 203.098 78.8748 199.505 82.261 196.467C87.6517 198.934 92.664 197.8 103.226 196.009L104.928 208.331L77.4883 206.887" fill="#001E57"/>
<path fill-rule="evenodd" clip-rule="evenodd" d="M91.5867 198.09C95.2914 198.09 99.5125 197.689 104.222 196.891C104.709 196.809 105.038 196.347 104.955 195.86C104.872 195.37 104.407 195.043 103.922 195.125C95.3304 196.583 88.4575 196.685 83.4941 195.431C83.0135 195.311 82.5274 195.601 82.4064 196.079C82.2853 196.56 82.5757 197.048 83.0552 197.168C85.4878 197.782 88.3389 198.09 91.5867 198.09" fill="#72ACFF"/>
<path fill-rule="evenodd" clip-rule="evenodd" d="M83.4382 258.313H72.6641L78.3343 213.781C77.9355 211.908 76.6766 207.317 76.8974 206.036L94.4572 200.564L83.4382 258.313" fill="#001E57"/>
<path fill-rule="evenodd" clip-rule="evenodd" d="M99.3278 259.2L111.345 259.202L104.646 206.202L87.1562 200.564L88.2435 208.553L87.9445 206.356L99.3278 259.2" fill="#001E57"/>
<path fill-rule="evenodd" clip-rule="evenodd" d="M82.2517 206.977C81.1161 207.188 79.8858 206.737 79.0338 205.665L67.5698 193.574C65.8774 191.674 66.0447 188.764 67.9436 187.07C69.8428 185.379 72.7542 185.547 74.4468 187.444L84.0391 200.634C85.3348 202.264 85.2649 204.713 83.8827 206.102C83.4093 206.578 82.8432 206.869 82.2517 206.977" fill="#FFBFAA"/>
<path fill-rule="evenodd" clip-rule="evenodd" d="M77.2252 212.317C77.6464 212.317 78.0667 212.153 78.3837 211.827L83.8122 206.25C84.4348 205.61 84.4209 204.588 83.7812 203.965C83.1418 203.343 82.1182 203.357 81.4959 203.996L76.0674 209.573C75.4448 210.213 75.4586 211.235 76.0984 211.859C76.4122 212.165 76.8191 212.317 77.2252 212.317" fill="#FFBFAA"/>
<path fill-rule="evenodd" clip-rule="evenodd" d="M76.8062 209.124C77.3646 209.124 77.9075 208.834 78.2068 208.317L80.9633 203.545C81.4097 202.772 81.1452 201.784 80.3725 201.337C79.5997 200.893 78.6112 201.156 78.1648 201.929L75.4085 206.701C74.9619 207.472 75.2265 208.46 75.9991 208.907C76.2537 209.054 76.5319 209.124 76.8062 209.124" fill="#FFBFAA"/>
<path fill-rule="evenodd" clip-rule="evenodd" d="M113.202 267.053C113.553 267.053 113.893 267.031 114.217 266.985C115.562 266.799 116.636 265.555 116.666 264.149C116.686 263.269 116.203 262.399 115.437 261.934C114.727 261.501 113.909 261.478 113.19 261.868C111.892 262.576 110.862 263.802 110.108 264.791C109.918 265.04 109.966 265.396 110.216 265.584C110.464 265.775 110.821 265.727 111.01 265.478C111.695 264.578 112.623 263.469 113.732 262.864C114.217 262.601 114.639 262.775 114.848 262.902C115.274 263.161 115.544 263.641 115.532 264.126C115.514 264.974 114.854 265.754 114.063 265.863C113.238 265.976 112.291 265.92 111.249 265.693C110.942 265.625 110.641 265.82 110.575 266.124C110.508 266.43 110.702 266.734 111.008 266.799C111.782 266.969 112.517 267.053 113.202 267.053" fill="#240448"/>
<path fill-rule="evenodd" clip-rule="evenodd" d="M119.2 271.544L119.177 272.837H106.682L105.476 270.395L105.163 269.765C104.921 269.275 104.211 269.316 104.026 269.828L102.945 272.837H99.9062L101.219 259.2L110.158 259.227L112.909 265.151L118.336 269.66C118.583 269.867 118.785 270.116 118.93 270.395C119.114 270.746 119.207 271.138 119.2 271.544" fill="#001E57"/>
<path fill-rule="evenodd" clip-rule="evenodd" d="M64.262 271.544L64.2849 272.837H76.7812L77.9875 270.395L78.3001 269.765C78.5418 269.275 79.2521 269.316 79.4366 269.828L80.5182 272.837H83.5568L82.2442 259.2L73.3048 259.227L70.5541 265.151L65.1269 269.66C64.8787 269.867 64.6778 270.116 64.5332 270.395C64.3502 270.746 64.2555 271.138 64.262 271.544" fill="#001E57"/>
<path fill-rule="evenodd" clip-rule="evenodd" d="M72.8876 260.757H82.7393C83.592 260.757 84.283 260.066 84.283 259.214C84.283 258.361 83.592 257.67 82.7393 257.67H72.8876C72.035 257.67 71.3438 258.361 71.3438 259.214C71.3438 260.066 72.035 260.757 72.8876 260.757" fill="#006BFF"/>
<path fill-rule="evenodd" clip-rule="evenodd" d="M110.946 260.746C111.799 260.746 112.49 260.055 112.49 259.202C112.49 258.35 111.799 257.658 110.947 257.658L100.349 257.656C99.4962 257.656 98.8049 258.347 98.8047 259.2C98.8047 260.052 99.4959 260.744 100.348 260.744L110.946 260.746" fill="#006BFF"/>
<path fill-rule="evenodd" clip-rule="evenodd" d="M93.1426 209.829C94.0553 209.829 94.9189 209.498 95.6022 208.877C96.4151 208.14 96.8912 207.048 96.9087 205.885L96.9189 205.218C96.9234 204.905 96.6738 204.647 96.3607 204.642C96.3578 204.642 96.3546 204.642 96.3519 204.642C96.0429 204.642 95.7901 204.892 95.7853 205.2L95.7751 205.867C95.7622 206.733 95.4303 207.503 94.8404 208.038C94.3149 208.515 93.6352 208.746 92.9245 208.687C91.3366 208.558 90.0655 207.048 90.0911 205.325L90.1371 202.273L91.007 202.346C91.3198 202.371 91.5926 202.139 91.618 201.827C91.6436 201.516 91.4117 201.242 91.0995 201.217L89.6256 201.094C89.4706 201.083 89.3146 201.135 89.1985 201.239C89.0822 201.346 89.0149 201.493 89.0126 201.652L88.9575 205.307C88.9233 207.617 90.6613 209.639 92.832 209.818C92.9361 209.825 93.0397 209.829 93.1426 209.829" fill="#72ACFF"/>
<path fill-rule="evenodd" clip-rule="evenodd" d="M95.0265 166.181L95.0022 171.79L95 172.199L94.9997 172.205L94.9961 173.097L94.9866 175.046C94.9789 176.704 93.6306 178.041 91.9741 178.033C90.3175 178.025 88.9817 176.675 88.9883 175.02L89.0239 167.219L89.0296 166.154C89.0296 165.89 89.0658 165.636 89.1302 165.395C89.3621 164.518 89.9817 163.8 90.7929 163.432C91.0622 163.311 91.352 163.229 91.6558 163.191C91.7827 163.175 91.9124 163.167 92.0423 163.168C93.6975 163.176 95.0342 164.523 95.0265 166.181" fill="#FFBFAA"/>
<path fill-rule="evenodd" clip-rule="evenodd" d="M95.0259 166.181L95.0016 171.79L94.9993 172.199L94.9991 172.205L94.9955 173.097C92.8513 172.873 90.8959 171.508 90.0208 169.373L89.7497 168.71C89.6055 168.358 89.5041 167.999 89.4456 167.639C89.1938 166.092 89.7104 164.526 90.7923 163.432C91.0616 163.311 91.3514 163.229 91.6552 163.191C91.7821 163.175 91.9118 163.167 92.0417 163.168C93.6969 163.176 95.0336 164.523 95.0259 166.181" fill="#240448"/>
<path fill-rule="evenodd" clip-rule="evenodd" d="M96.76 171.278V171.278C98.6507 170.502 99.5551 168.341 98.7797 166.45L97.6158 163.611C96.594 161.12 93.7459 159.928 91.2541 160.95C88.7624 161.971 87.5708 164.82 88.5923 167.311L88.8641 167.974C90.1324 171.067 93.6674 172.546 96.76 171.278" fill="#FFBFAA"/>
<path fill-rule="evenodd" clip-rule="evenodd" d="M97.423 163.677C98.1351 164.859 98.8589 165.956 99.654 166.531C99.8689 166.687 99.956 166.978 99.8202 167.206C99.7354 167.348 99.5828 167.452 99.3903 167.457L97.2656 167.511L97.423 163.677" fill="#FFBFAA"/>
<path fill-rule="evenodd" clip-rule="evenodd" d="M92.0806 167.866C92.0806 167.866 90.4875 164.63 92.6812 164.52C97.8819 164.261 98.2253 161.924 98.2267 161.923C98.2489 161.908 97.6017 161.146 97.564 161.105C97.0115 160.505 96.3781 159.969 95.6712 159.559C93.0382 158.031 89.5591 158.951 87.5836 161.134C85.3924 163.555 85.8706 165.934 86.8604 167.56C87.6904 168.923 89.4743 169.352 90.8609 168.561L92.0806 167.866" fill="#72ACFF"/>
<path fill-rule="evenodd" clip-rule="evenodd" d="M87.7657 159.183C87.9355 158.606 88.1835 158.05 88.2847 157.457C88.4651 156.399 88.1387 155.266 87.4229 154.467C86.7072 153.667 85.6172 153.218 84.546 153.281C82.9536 153.374 81.6326 154.49 80.4405 155.55C79.4965 154.336 78.2022 153.365 76.7179 152.963C74.4951 152.361 70.8394 153.331 71.1087 156.231C71.2003 157.216 71.765 158.113 72.5002 158.776C72.7294 158.982 72.9865 159.184 73.0901 159.474C73.2318 159.872 73.0366 160.32 72.7451 160.625C72.4538 160.93 72.0756 161.136 71.7421 161.394C70.7988 162.125 70.2288 163.315 70.2506 164.508C70.2721 165.701 70.8849 166.869 71.8543 167.565C72.3663 167.933 72.9777 168.178 73.3642 168.691C74.5193 170.225 74.0344 172.43 75.4243 173.908C76.3677 174.912 77.8916 175.228 79.239 174.943C80.5863 174.658 81.7718 173.847 82.7577 172.886C83.826 171.844 84.7371 170.512 84.7868 169.02C84.8296 167.731 84.1717 166.44 83.1034 165.717C82.5224 165.324 81.75 164.972 81.6806 164.274C81.6199 163.663 82.2077 163.141 82.8151 163.054C83.4224 162.967 84.0264 163.199 84.5884 163.445C86.1912 164.148 87.7394 165.016 89.44 165.431C89.3033 165.478 89.1663 165.525 89.0294 165.573C89.1686 166.037 89.8782 166.105 90.2271 165.767C90.576 165.43 90.6182 164.88 90.5243 164.404C90.4001 163.775 90.0743 163.187 89.6061 162.748C89.0015 162.181 88.1502 161.832 87.7841 161.089C87.5075 160.527 87.5757 159.856 87.7453 159.254C87.7521 159.23 87.7589 159.207 87.7657 159.183" fill="#72ACFF"/>
<path fill-rule="evenodd" clip-rule="evenodd" d="M88.8544 166.968C89.0587 168.222 90.2405 169.073 91.4947 168.869C92.7486 168.665 93.5997 167.482 93.3956 166.229C93.1916 164.974 92.0095 164.123 90.7556 164.327C89.5015 164.532 88.6504 165.713 88.8544 166.968" fill="#FFBFAA"/>
<path fill-rule="evenodd" clip-rule="evenodd" d="M85.7656 164.703C85.9528 164.703 86.1362 164.61 86.2441 164.441L88.3367 161.152C88.5047 160.888 88.4267 160.538 88.1626 160.37C87.8989 160.202 87.5482 160.28 87.3802 160.544L85.2879 163.832C85.1199 164.096 85.1976 164.447 85.4618 164.615C85.5561 164.675 85.6613 164.703 85.7656 164.703" fill="white"/>
<path fill-rule="evenodd" clip-rule="evenodd" d="M91.8535 226.545C91.8852 226.545 91.9176 226.542 91.9503 226.538C92.2586 226.483 92.4658 226.191 92.4128 225.883L89.9289 211.441C89.9072 211.317 89.8439 211.201 89.7489 211.117L87.254 208.877C87.0209 208.669 86.6623 208.687 86.4535 208.92C86.2444 209.154 86.2639 209.512 86.4968 209.721L88.845 211.829L91.2955 226.075C91.3429 226.35 91.5828 226.545 91.8535 226.545" fill="white"/>
<path fill-rule="evenodd" clip-rule="evenodd" d="M85.8681 199.469C85.9264 199.469 85.9858 199.46 86.044 199.442C86.3417 199.344 86.504 199.024 86.407 198.727C86.0792 197.723 86.2281 196.921 86.8756 196.202C87.0853 195.971 87.0667 195.612 86.8344 195.402C86.6015 195.193 86.2431 195.211 86.0338 195.442C85.1125 196.465 84.8754 197.687 85.3295 199.079C85.4074 199.317 85.6296 199.469 85.8681 199.469" fill="#001E57"/>
<path fill-rule="evenodd" clip-rule="evenodd" d="M96.6211 199.584C96.8055 199.584 96.9861 199.494 97.095 199.328C97.8515 198.179 97.9009 196.934 97.2416 195.628C97.1006 195.349 96.7601 195.238 96.4806 195.379C96.201 195.52 96.0891 195.86 96.2301 196.141C96.7057 197.082 96.6796 197.898 96.1482 198.705C95.9759 198.968 96.0485 199.319 96.3099 199.489C96.406 199.553 96.5144 199.584 96.6211 199.584" fill="#001E57"/>
<path fill-rule="evenodd" clip-rule="evenodd" d="M87.9531 178.033H95.9299V173.659H87.9531V178.033Z" fill="#006BFF"/>
<path fill-rule="evenodd" clip-rule="evenodd" d="M122.462 192.316C122.566 192.316 122.671 192.289 122.764 192.23C123.557 191.731 124.022 190.843 124.074 189.727C124.122 188.689 123.8 187.562 123.167 186.553C121.798 184.372 119.479 183.445 117.883 184.445C117.617 184.613 117.538 184.962 117.704 185.227C117.869 185.492 118.22 185.572 118.486 185.406C119.506 184.767 121.211 185.567 122.206 187.156C122.718 187.97 122.979 188.866 122.941 189.675C122.906 190.41 122.63 190.974 122.161 191.269C121.895 191.437 121.816 191.786 121.982 192.051C122.09 192.221 122.274 192.316 122.462 192.316" fill="#240448"/>
<path fill-rule="evenodd" clip-rule="evenodd" d="M104.928 200.954C105.567 200.954 106.215 200.809 106.827 200.507C108.948 199.455 109.816 196.884 108.765 194.765L100.73 178.537C99.6791 176.415 97.1075 175.547 94.9866 176.598C92.8653 177.648 91.9972 180.219 93.0476 182.341L101.083 198.569C101.831 200.079 103.35 200.954 104.928 200.954" fill="#FFBFAA"/>
<path fill-rule="evenodd" clip-rule="evenodd" d="M126.813 186.782C126.813 187.936 126.144 189.063 124.934 189.705L107.945 201.02C105.769 202.337 102.937 201.641 101.62 199.464C100.302 197.288 100.999 194.456 103.175 193.139L120.901 183.864C122.742 182.89 125.136 183.404 126.249 185.018C126.63 185.569 126.813 186.179 126.813 186.782" fill="#FFBFAA"/>
<path fill-rule="evenodd" clip-rule="evenodd" d="M120.705 187.723C121.1 187.723 121.492 187.58 121.805 187.292L128.341 181.237C128.996 180.629 129.035 179.607 128.429 178.952C127.822 178.298 126.799 178.258 126.144 178.865L119.608 184.921C118.953 185.526 118.914 186.549 119.52 187.204C119.839 187.548 120.272 187.723 120.705 187.723" fill="#FFBFAA"/>
<path fill-rule="evenodd" clip-rule="evenodd" d="M122.45 187.941C122.761 187.941 123.076 187.85 123.354 187.662L127.719 184.71C128.458 184.209 128.653 183.205 128.152 182.466C127.653 181.727 126.646 181.532 125.907 182.033L121.543 184.987C120.804 185.485 120.609 186.49 121.11 187.231C121.423 187.691 121.931 187.941 122.45 187.941" fill="#FFBFAA"/>
<path fill-rule="evenodd" clip-rule="evenodd" d="M124.633 189.634C124.976 189.634 125.318 189.525 125.61 189.303L128.63 187.002C129.34 186.462 129.478 185.449 128.936 184.737C128.394 184.028 127.381 183.892 126.671 184.431L123.654 186.732C122.942 187.272 122.806 188.287 123.345 188.997C123.665 189.414 124.146 189.634 124.633 189.634" fill="#FFBFAA"/>
<path fill-rule="evenodd" clip-rule="evenodd" d="M120.06 187.329C120.885 187.329 121.59 186.698 121.668 185.859L121.933 182.944C122.014 182.055 121.359 181.269 120.471 181.189C119.577 181.108 118.795 181.763 118.716 182.652L118.448 185.567C118.367 186.456 119.022 187.24 119.911 187.322C119.96 187.326 120.01 187.329 120.06 187.329" fill="#FFBFAA"/>
<path fill-rule="evenodd" clip-rule="evenodd" d="M121.334 192.631C121.844 192.631 122.331 192.502 122.766 192.23C123.032 192.062 123.111 191.713 122.945 191.448C122.778 191.183 122.429 191.103 122.163 191.269C121.143 191.91 119.438 191.108 118.441 189.518C117.931 188.705 117.67 187.809 117.708 187C117.74 186.265 118.019 185.701 118.488 185.406C118.754 185.238 118.833 184.889 118.667 184.624C118.5 184.359 118.151 184.279 117.885 184.445C117.092 184.943 116.627 185.832 116.575 186.948C116.527 187.986 116.849 189.113 117.482 190.122C118.477 191.708 119.978 192.631 121.334 192.631" fill="#240448"/>
<path fill-rule="evenodd" clip-rule="evenodd" d="M118.494 188.827C118.263 189.548 117.49 189.945 116.769 189.713C116.048 189.48 115.651 188.709 115.882 187.988C116.116 187.267 116.887 186.871 117.608 187.102C118.329 187.333 118.725 188.106 118.494 188.827" fill="white"/>
<path fill-rule="evenodd" clip-rule="evenodd" d="M119.753 190.673C119.522 191.393 118.751 191.79 118.03 191.559C117.31 191.328 116.913 190.555 117.144 189.834C117.375 189.113 118.148 188.716 118.869 188.947C119.59 189.181 119.987 189.952 119.753 190.673" fill="white"/>
<path fill-rule="evenodd" clip-rule="evenodd" d="M104.778 192.624C104.869 192.624 104.961 192.604 105.047 192.556L107.15 191.423C107.426 191.275 107.529 190.931 107.381 190.657C107.232 190.38 106.888 190.278 106.613 190.425L104.509 191.559C104.233 191.708 104.13 192.051 104.279 192.327C104.381 192.518 104.577 192.624 104.778 192.624" fill="#001E57"/>
<path fill-rule="evenodd" clip-rule="evenodd" d="M124.137 14.0659L222.327 32.7797L197.031 90.4251L179.958 87.2189L183.211 115.652L154.088 82.1962L98.8398 71.7113L124.137 14.0659" fill="#CFE4FF"/>
<path fill-rule="evenodd" clip-rule="evenodd" d="M200.38 84.6806C200.332 84.6806 200.282 84.6745 200.235 84.6616C199.931 84.5816 199.752 84.2712 199.831 83.9685L215.755 23.7994L117.014 20.4901L101.207 80.2224L156.698 82.039C157.01 82.0492 157.258 82.3111 157.246 82.6242C157.237 82.937 156.972 83.1864 156.661 83.1719L100.458 81.3321C100.286 81.3265 100.125 81.2424 100.022 81.1038C99.9191 80.9653 99.8849 80.7876 99.9291 80.6205L116.035 19.7635C116.103 19.508 116.341 19.3341 116.602 19.3421L216.504 22.6903C216.676 22.696 216.837 22.7801 216.939 22.9186C217.043 23.0571 217.077 23.2349 217.032 23.4017L200.926 84.2587C200.861 84.5126 200.629 84.6806 200.38 84.6806" fill="#72ACFF"/>
<path fill-rule="evenodd" clip-rule="evenodd" d="M184.836 104.968C184.285 104.968 183.707 104.916 183.103 104.81C175.921 103.555 169.329 94.8799 164.967 89.1392C164.581 88.6311 164.212 88.1444 163.858 87.6858C157.9 79.9368 153.677 70.9816 149.594 62.321C149.253 61.5981 148.913 60.8755 148.571 60.1542C145.524 53.7124 141.273 47.3115 138.614 47.5335C137.288 47.6446 136.469 49.582 136.018 51.1876C135.472 53.125 135.413 55.0942 135.352 57.1788C135.304 58.7461 135.256 60.3668 134.98 61.9603C134.379 65.4138 132.448 68.0733 130.056 68.7353C128.156 69.2618 126.159 68.4538 124.438 66.4603C118.754 59.8782 120.652 50.7078 121.731 47.0707C122.431 44.7109 123.35 42.3958 124.238 40.1566C125.104 37.9743 126 35.7174 126.682 33.4441C127.757 29.854 129.709 21.1112 124.601 17.4752C124.1 17.1181 123.576 16.8372 123.044 16.6404C122.735 16.5262 122.579 16.1834 122.692 15.8744C122.806 15.5658 123.148 15.408 123.458 15.5223C124.089 15.7556 124.705 16.0859 125.293 16.5037C130.822 20.4401 129.251 29.0215 127.825 33.7865C127.129 36.1091 126.222 38.3903 125.347 40.5964C124.467 42.8111 123.558 45.1013 122.874 47.4099C121.851 50.8593 120.042 59.5443 125.34 65.6809C126.764 67.33 128.285 67.9888 129.738 67.5864C131.656 67.055 133.291 64.7119 133.806 61.7561C134.066 60.2466 134.114 58.669 134.159 57.1434C134.22 55.0784 134.284 52.9428 134.871 50.8641C135.678 48.0007 136.902 46.4804 138.514 46.3453C142.838 45.9862 148.129 56.4327 149.65 59.6441C149.99 60.3661 150.333 61.0891 150.673 61.8125C154.729 70.4159 158.923 79.312 164.803 86.9589C165.157 87.4194 165.529 87.9079 165.917 88.4178C170.165 94.01 176.588 102.461 183.308 103.636C185.581 104.033 187.409 103.572 188.737 102.265C191.87 99.1826 191.977 91.7058 191.115 86.2393C189.78 77.7686 185.849 69.6263 180.047 63.312C178.313 61.4258 176.377 59.654 174.502 57.9403C171.745 55.4173 168.893 52.8083 166.594 49.7545C163.289 45.3632 160.958 37.3408 162.96 32.0374C164.019 29.2289 166.227 27.4037 169.342 26.7594C174.355 25.7224 176.794 31.406 177.71 33.5455C177.982 34.1782 178.245 34.8151 178.506 35.4517C179.905 38.843 181.224 42.0464 183.797 44.5756C186.436 47.1689 189.859 48.862 193.172 50.4993C193.548 50.6847 193.922 50.8704 194.296 51.0574C194.591 51.2043 194.711 51.5623 194.564 51.857C194.416 52.1515 194.058 52.271 193.766 52.1241C193.392 51.938 193.017 51.753 192.643 51.568C189.247 49.8892 185.736 48.1531 182.961 45.4257C180.215 42.7259 178.787 39.2588 177.404 35.906C177.143 35.2746 176.885 34.643 176.615 34.0157C175.232 30.7901 173.18 27.1827 169.585 27.9269C166.851 28.4924 164.996 30.017 164.076 32.4584C162.112 37.6603 164.831 45.4291 167.547 49.0375C169.777 52.003 172.589 54.5741 175.307 57.0607C177.2 58.7914 179.156 60.581 180.925 62.5051C186.885 68.9904 190.92 77.3537 192.292 86.0537C192.621 88.1335 194.031 98.7313 189.574 103.115C188.318 104.348 186.731 104.968 184.836 104.968" fill="white"/>
<path fill-rule="evenodd" clip-rule="evenodd" d="M139.247 255.396C138.057 255.396 137.094 254.432 137.094 253.242V216.431C137.094 215.241 138.057 214.277 139.247 214.277H209.731V192.103C209.731 190.913 210.695 189.949 211.885 189.949H302.288V156.237C302.288 155.047 303.251 154.083 304.442 154.083H377.506V132.68C377.506 131.491 378.471 130.526 379.659 130.526H468.869L487.711 51.7235C487.988 50.5666 489.151 49.8532 490.307 50.1295C491.463 50.4061 492.177 51.5682 491.901 52.7251L472.662 133.181C472.431 134.15 471.565 134.834 470.57 134.834H381.813V156.237C381.813 157.427 380.85 158.391 379.659 158.391H306.595V192.103C306.595 193.291 305.632 194.257 304.442 194.257H214.039V216.431C214.039 217.621 213.075 218.585 211.885 218.585H141.401V253.242C141.401 254.432 140.435 255.396 139.247 255.396" fill="#72ACFF"/>
<path fill-rule="evenodd" clip-rule="evenodd" d="M532.428 274.086H349.778C349.465 274.086 349.211 273.832 349.211 273.519C349.211 273.206 349.465 272.952 349.778 272.952H532.428C532.741 272.952 532.995 273.206 532.995 273.519C532.995 273.832 532.741 274.086 532.428 274.086" fill="#240448"/>
<path fill-rule="evenodd" clip-rule="evenodd" d="M366.802 274.111H243.2C242.887 274.111 242.633 273.857 242.633 273.544C242.633 273.231 242.887 272.977 243.2 272.977H366.802C367.114 272.977 367.368 273.231 367.368 273.544C367.368 273.857 367.114 274.111 366.802 274.111" fill="#240448"/>
<path fill-rule="evenodd" clip-rule="evenodd" d="M237.67 274.111H145.864C145.551 274.111 145.297 273.857 145.297 273.544C145.297 273.231 145.551 272.977 145.864 272.977H237.67C237.983 272.977 238.236 273.231 238.236 273.544C238.236 273.857 237.983 274.111 237.67 274.111" fill="#240448"/>
<path fill-rule="evenodd" clip-rule="evenodd" d="M155.149 274.086H4.19177C3.87869 274.086 3.625 273.832 3.625 273.519C3.625 273.206 3.87869 272.952 4.19177 272.952H155.149C155.462 272.952 155.716 273.206 155.716 273.519C155.716 273.832 155.462 274.086 155.149 274.086" fill="#240448"/>
<path fill-rule="evenodd" clip-rule="evenodd" d="M468.927 73.3216C468.373 73.3216 467.818 73.1087 467.396 72.6834C466.56 71.8382 466.567 70.4746 467.412 69.6376L488.288 48.9644C489.133 48.1274 490.498 48.1337 491.335 48.9791C492.171 49.8243 492.164 51.1882 491.319 52.0252L470.443 72.6984C470.024 73.1142 469.475 73.3216 468.927 73.3216" fill="#001E57"/>
<path fill-rule="evenodd" clip-rule="evenodd" d="M499.423 79.4928C498.541 79.4928 497.711 78.9446 497.396 78.0649L487.779 51.2212C487.378 50.1012 487.961 48.8684 489.078 48.4671C490.198 48.0661 491.431 48.648 491.833 49.768L501.452 76.612C501.853 77.7317 501.271 78.9648 500.151 79.366C499.91 79.452 499.666 79.4928 499.423 79.4928" fill="#001E57"/>
<path fill-rule="evenodd" clip-rule="evenodd" d="M386.648 52.8707L387.364 53.5168L400.153 65.0464C400.654 65.4971 401.023 66.0382 401.259 66.6234C401.853 68.0958 401.602 69.8415 400.466 71.0988C398.883 72.8574 396.172 72.9982 394.415 71.4126L380.908 59.2374C379.151 57.652 379.01 54.9426 380.595 53.1836C382.179 51.4259 384.889 51.2856 386.648 52.8707" fill="#FFBFAA"/>
<path fill-rule="evenodd" clip-rule="evenodd" d="M408.968 51.3571C409.587 52.3315 409.628 53.6414 408.952 54.8324L402.024 69.9854C400.895 72.2652 398.131 73.1983 395.853 72.07C393.572 70.9414 392.641 68.1785 393.767 65.8987L402.414 52.0713C403.443 50.2599 405.74 49.4092 407.544 50.1717C408.163 50.4328 408.644 50.8495 408.968 51.3571" fill="#FFBFAA"/>
<path fill-rule="evenodd" clip-rule="evenodd" d="M388.865 81.3184H372.309L376.033 67.3216L375.158 64.3798C374.378 61.7668 374.707 58.9266 376.149 56.6121C376.213 56.5089 376.278 56.4074 376.344 56.3072C378.001 53.8403 380.552 52.2783 383.383 52.2783C385.698 52.2783 387.822 53.321 389.425 55.0483C389.754 55.4026 390.062 55.7864 390.346 56.1959C391.438 57.7799 392.159 59.7489 392.341 61.9239L393.851 75.7582C394.175 78.7262 391.851 81.3184 388.865 81.3184" fill="#001E57"/>
<path fill-rule="evenodd" clip-rule="evenodd" d="M431.008 119.932L418.895 108.739L428.031 98.8547L440.142 110.048L431.008 119.932" fill="#006BFF"/>
<path fill-rule="evenodd" clip-rule="evenodd" d="M428.401 108.363C427.074 109.799 425.27 110.526 423.458 110.526C421.824 110.526 420.187 109.935 418.892 108.738L405.566 96.4227L390.234 94.0604L386.709 93.5163C383.274 92.9858 380.166 91.0474 378.18 88.1977L377.908 87.8054L373.877 82.0266C372.31 79.7777 372.306 76.9075 373.634 74.7039C373.934 74.2051 374.303 73.7404 374.736 73.3232C376.718 73.8084 378.996 74.0805 381.562 74.1371C382.583 74.1598 383.646 74.1507 384.757 74.1077C384.811 74.1802 384.866 74.255 384.918 74.3298L389.051 80.2606L393.433 80.9361L409.649 83.4345C410.973 83.6385 412.207 84.2348 413.191 85.1439L428.026 98.8553C430.756 101.376 430.924 105.634 428.401 108.363" fill="#006BFF"/>
<path fill-rule="evenodd" clip-rule="evenodd" d="M430.393 120.548C429.86 120.548 429.337 120.303 429.001 119.839C428.441 119.07 428.613 117.995 429.382 117.437L440.613 109.285C441.382 108.727 442.456 108.898 443.014 109.667C443.574 110.435 443.402 111.511 442.633 112.069L431.402 120.22C431.098 120.442 430.744 120.548 430.393 120.548" fill="#001E57"/>
<path fill-rule="evenodd" clip-rule="evenodd" d="M368.985 130.751L358.066 122.883L366.289 111.473L377.207 119.341L368.985 130.751" fill="#006BFF"/>
<path fill-rule="evenodd" clip-rule="evenodd" d="M393.85 79.2265L387.894 103.664C387.688 104.507 387.323 105.3 386.815 106.005L377.205 119.341C375.89 121.166 373.829 122.136 371.739 122.136C370.376 122.136 369.003 121.723 367.81 120.866C364.797 118.692 364.112 114.487 366.287 111.474L375.128 99.2019L380.776 76.039C380.787 75.9937 380.798 75.9483 380.812 75.9053C380.98 75.2659 381.236 74.6742 381.562 74.1369C382.582 74.1596 383.646 74.1505 384.757 74.1074C387.139 74.0145 389.726 73.7651 392.512 73.3616C392.925 73.8649 393.265 74.4248 393.517 75.0256C394.058 76.3088 394.206 77.7688 393.85 79.2265" fill="#006BFF"/>
<path fill-rule="evenodd" clip-rule="evenodd" d="M368.78 132.012C368.451 132.012 368.12 131.918 367.828 131.722L357.145 124.594C356.354 124.067 356.141 122.999 356.669 122.209C357.195 121.419 358.263 121.206 359.054 121.733L369.737 128.861C370.526 129.388 370.739 130.456 370.213 131.246C369.882 131.743 369.335 132.012 368.78 132.012" fill="#001E57"/>
<path fill-rule="evenodd" clip-rule="evenodd" d="M387.81 63.2002C388.717 65.3426 391.186 66.3451 393.328 65.4399C395.471 64.5346 396.475 62.0642 395.568 59.922C394.664 57.7796 388.237 54.605 388.237 54.605C386.443 56.0838 386.906 61.058 387.81 63.2002" fill="#001E57"/>
<path fill-rule="evenodd" clip-rule="evenodd" d="M379.39 63.985L372.814 67.1941C370.893 61.7562 375.579 58.0459 375.579 58.0459L379.39 63.985" fill="#240448"/>
<path fill-rule="evenodd" clip-rule="evenodd" d="M394.378 75.0082C393.772 75.0633 393.178 75.11 392.593 75.1551C389.882 75.3524 387.352 75.4274 385.005 75.378C383.854 75.3537 382.745 75.3011 381.686 75.2184C381.061 75.1694 380.451 75.1102 379.857 75.0411C377.377 74.7493 375.171 74.2812 373.253 73.633C373.058 73.5677 372.901 73.4419 372.795 73.2834C372.648 73.0603 372.6 72.7724 372.691 72.4976C372.849 72.0299 373.357 71.7787 373.826 71.9361C373.883 71.9565 373.944 71.9748 374.001 71.993C375.939 72.6312 378.191 73.0801 380.743 73.3367C381.759 73.4389 382.82 73.5128 383.931 73.5566C386.314 73.6498 388.912 73.6028 391.721 73.4179C392.534 73.3655 393.366 73.3011 394.217 73.2242C394.704 73.1805 395.144 73.5446 395.189 74.037C395.235 74.5294 394.87 74.9649 394.378 75.0082" fill="#72ACFF"/>
<path fill-rule="evenodd" clip-rule="evenodd" d="M386.092 44.0301L386.085 45.8358L386.067 49.6391L386.065 50.0479V50.0542L386.063 50.9468L386.051 52.8953C386.044 54.553 384.695 55.89 383.04 55.882C381.383 55.8743 380.048 54.5245 380.055 52.8695L380.089 45.068L380.096 44.0029C380.096 43.7397 380.132 43.4849 380.195 43.2436C380.429 42.3672 381.048 41.6494 381.859 41.2815C382.127 41.16 382.417 41.0777 382.721 41.04C382.848 41.0244 382.979 41.0165 383.108 41.0171C384.763 41.0253 386.099 42.3722 386.092 44.0301" fill="#FFBFAA"/>
<path fill-rule="evenodd" clip-rule="evenodd" d="M386.091 44.0301L386.085 45.8358L386.066 49.6391L386.064 50.0479V50.0542L386.062 50.9468C383.917 50.7228 381.961 49.3571 381.086 47.2222L380.816 46.5597C380.671 46.2072 380.571 45.8479 380.512 45.4881C380.26 43.941 380.775 42.3753 381.859 41.2815C382.126 41.16 382.416 41.0777 382.72 41.04C382.847 41.0244 382.979 41.0165 383.108 41.0171C384.763 41.0253 386.098 42.3722 386.091 44.0301" fill="#240448"/>
<path fill-rule="evenodd" clip-rule="evenodd" d="M387.825 49.1267V49.1267C389.716 48.3514 390.621 46.1899 389.845 44.2992L388.682 41.4603C387.66 38.9686 384.812 37.777 382.321 38.7988C379.829 39.8203 378.637 42.6685 379.659 45.1602L379.931 45.8229C381.198 48.9157 384.733 50.3947 387.825 49.1267" fill="#FFBFAA"/>
<path fill-rule="evenodd" clip-rule="evenodd" d="M388.488 41.5266C389.2 42.7082 389.926 43.8048 390.719 44.3802C390.935 44.5357 391.021 44.827 390.887 45.0549C390.801 45.1975 390.649 45.3009 390.456 45.3059L388.332 45.3598L388.488 41.5266" fill="#FFBFAA"/>
<path fill-rule="evenodd" clip-rule="evenodd" d="M383.149 45.7148C383.149 45.7148 381.555 42.4787 383.747 42.3692C388.948 42.1097 389.293 39.7734 389.295 39.7725C389.315 39.7566 388.669 38.9953 388.631 38.9543C388.08 38.3535 387.445 37.8185 386.737 37.4082C384.105 35.8799 380.625 36.8001 378.651 38.9829C376.458 41.4039 376.937 43.7828 377.928 45.4092C378.757 46.7726 380.542 47.2011 381.929 46.4103L383.149 45.7148" fill="#001E57"/>
<path fill-rule="evenodd" clip-rule="evenodd" d="M378.829 37.0325C378.999 36.4553 379.246 35.8992 379.348 35.3063C379.529 34.2485 379.203 33.1156 378.486 32.3162C377.77 31.5166 376.679 31.0673 375.609 31.1301C374.018 31.2237 372.696 32.3396 371.504 33.3995C370.561 32.1857 369.266 31.214 367.781 30.812C365.559 30.2101 361.902 31.1802 362.172 34.08C362.263 35.0655 362.827 35.9626 363.564 36.6249C363.793 36.8312 364.049 37.0332 364.154 37.3236C364.294 37.721 364.099 38.1694 363.809 38.4746C363.517 38.7797 363.138 38.9851 362.805 39.2433C361.862 39.9743 361.293 41.164 361.313 42.3572C361.336 43.5504 361.948 44.7186 362.918 45.4146C363.43 45.7821 364.04 46.0269 364.428 46.5402C365.582 48.0744 365.097 50.2796 366.487 51.7577C367.432 52.7609 368.955 53.0772 370.302 52.7924C371.649 52.5077 372.834 51.6965 373.821 50.7353C374.888 49.6937 375.8 48.3607 375.85 46.8696C375.893 45.5806 375.235 44.2892 374.167 43.5662C373.585 43.1731 372.814 42.8213 372.744 42.123C372.683 41.5125 373.272 40.9901 373.877 40.9033C374.485 40.8163 375.09 41.0477 375.652 41.2944C377.255 41.9976 378.804 42.8655 380.504 43.2799C380.366 43.3273 380.23 43.3744 380.094 43.4218C380.232 43.8868 380.942 43.9541 381.291 43.6168C381.64 43.2795 381.681 42.7297 381.588 42.2536C381.463 41.624 381.137 41.0359 380.669 40.597C380.064 40.03 379.214 39.6816 378.847 38.938C378.57 38.3764 378.638 37.7056 378.808 37.103C378.815 37.0794 378.822 37.0561 378.829 37.0325" fill="#001E57"/>
<path fill-rule="evenodd" clip-rule="evenodd" d="M379.921 44.8167C380.125 46.0706 381.306 46.9217 382.56 46.7177C383.813 46.5136 384.666 45.3316 384.462 44.0774C384.258 42.8235 383.074 41.9724 381.821 42.1765C380.567 42.3805 379.717 43.5626 379.921 44.8167" fill="#FFBFAA"/>
<path fill-rule="evenodd" clip-rule="evenodd" d="M376.831 42.5523C377.02 42.5523 377.203 42.4596 377.31 42.2898L379.402 39.0016C379.57 38.7375 379.493 38.3872 379.23 38.2192C378.965 38.0515 378.616 38.1288 378.446 38.3931L376.355 41.6813C376.185 41.9454 376.265 42.2955 376.528 42.4637C376.623 42.5238 376.727 42.5523 376.831 42.5523" fill="white"/>
<path fill-rule="evenodd" clip-rule="evenodd" d="M377.014 76.236C377.071 76.2405 377.132 76.2362 377.191 76.2217C377.495 76.148 377.681 75.8418 377.608 75.5375C377.359 74.5112 377.572 73.7232 378.273 73.058C378.499 72.8426 378.508 72.484 378.293 72.2568C378.078 72.0299 377.72 72.0201 377.493 72.2355C376.495 73.182 376.162 74.3827 376.507 75.8041C376.566 76.0487 376.776 76.2174 377.014 76.236" fill="#240448"/>
<path fill-rule="evenodd" clip-rule="evenodd" d="M387.722 77.1887C387.906 77.203 388.092 77.1277 388.214 76.9711C389.058 75.8847 389.205 74.6475 388.65 73.2943C388.529 73.0048 388.198 72.8665 387.91 72.9851C387.62 73.1039 387.482 73.4349 387.6 73.7246C388.001 74.7017 387.91 75.5124 387.319 76.276C387.126 76.5231 387.171 76.8793 387.418 77.0713C387.509 77.1418 387.616 77.1803 387.722 77.1887" fill="#240448"/>
<path fill-rule="evenodd" clip-rule="evenodd" d="M379.02 55.8822H386.995V51.5085H379.02V55.8822Z" fill="#001E57"/>
<path fill-rule="evenodd" clip-rule="evenodd" d="M368.174 83.8634C368.165 83.9661 368.185 84.072 368.235 84.1704C368.666 85.0024 369.512 85.54 370.62 85.6835C371.652 85.8172 372.801 85.5898 373.858 85.0437C376.147 83.8605 377.263 81.6242 376.397 79.9518C376.254 79.6739 375.912 79.565 375.633 79.7085C375.356 79.8523 375.247 80.1944 375.39 80.4723C375.943 81.5426 375.005 83.1752 373.338 84.0366C372.484 84.4781 371.57 84.6637 370.765 84.5592C370.038 84.4649 369.496 84.1418 369.242 83.6499C369.099 83.3717 368.757 83.2629 368.478 83.4066C368.299 83.4996 368.19 83.6755 368.174 83.8634" fill="#240448"/>
<path fill-rule="evenodd" clip-rule="evenodd" d="M361.023 65.6727C360.969 66.3095 361.059 66.9677 361.311 67.6018C362.181 69.8029 364.671 70.8811 366.872 70.0103L383.71 63.3478C385.911 62.4768 386.99 59.9862 386.117 57.7853C385.247 55.5844 382.758 54.5061 380.556 55.3769L363.719 62.0395C362.152 62.6595 361.155 64.1 361.023 65.6727" fill="#FFBFAA"/>
<path fill-rule="evenodd" clip-rule="evenodd" d="M373.329 88.6544C372.177 88.559 371.109 87.799 370.57 86.5401L360.706 68.6711C359.572 66.3934 360.502 63.6289 362.78 62.4967C365.056 61.3643 367.822 62.2931 368.953 64.5713L376.725 83.0053C377.546 84.9201 376.832 87.2633 375.134 88.2395C374.551 88.5737 373.927 88.7043 373.329 88.6544" fill="#FFBFAA"/>
<path fill-rule="evenodd" clip-rule="evenodd" d="M372.897 82.4916C372.863 82.8833 372.971 83.2875 373.234 83.6213L378.725 90.6379C379.276 91.3409 380.292 91.4647 380.995 90.9145C381.698 90.3645 381.822 89.3484 381.271 88.6458L375.778 81.6292C375.23 80.9264 374.214 80.8024 373.511 81.3526C373.142 81.6414 372.933 82.0588 372.897 82.4916" fill="#FFBFAA"/>
<path fill-rule="evenodd" clip-rule="evenodd" d="M372.536 84.2105C372.512 84.5209 372.575 84.8423 372.738 85.1343L375.318 89.7286C375.756 90.5069 376.742 90.7835 377.52 90.3464C378.297 89.9095 378.574 88.924 378.136 88.1459L375.556 83.5514C375.119 82.7734 374.135 82.4968 373.355 82.9339C372.87 83.2068 372.58 83.6936 372.536 84.2105" fill="#FFBFAA"/>
<path fill-rule="evenodd" clip-rule="evenodd" d="M370.666 86.2476C370.637 86.5881 370.716 86.9397 370.915 87.2496L372.956 90.4487C373.437 91.2012 374.434 91.422 375.187 90.9418C375.939 90.4616 376.162 89.4623 375.681 88.7103L373.638 85.5112C373.16 84.7588 372.16 84.5379 371.407 85.0181C370.965 85.3004 370.707 85.7622 370.666 86.2476" fill="#FFBFAA"/>
<path fill-rule="evenodd" clip-rule="evenodd" d="M373.341 81.8812C373.273 82.7044 373.842 83.4589 374.672 83.6049L377.556 84.1121C378.436 84.2667 379.272 83.6795 379.426 82.8005C379.583 81.9175 378.996 81.0837 378.116 80.9288L375.232 80.4217C374.353 80.2671 373.516 80.8542 373.362 81.7334C373.353 81.7828 373.346 81.832 373.341 81.8812" fill="#FFBFAA"/>
<path fill-rule="evenodd" clip-rule="evenodd" d="M367.956 82.7105C367.913 83.2172 368.001 83.7148 368.237 84.1705C368.38 84.4484 368.722 84.5572 369.001 84.4137C369.28 84.2698 369.389 83.9281 369.244 83.6499C368.69 82.5799 369.631 80.9469 371.298 80.0856C372.152 79.6442 373.064 79.4585 373.868 79.5628C374.596 79.6571 375.138 79.9804 375.392 80.4724C375.537 80.7506 375.877 80.8594 376.156 80.7156C376.435 80.5719 376.544 80.23 376.398 79.9519C375.97 79.1198 375.122 78.5823 374.016 78.4388C372.984 78.305 371.835 78.5324 370.776 79.0788C369.112 79.9392 368.067 81.3575 367.956 82.7105" fill="#240448"/>
<path fill-rule="evenodd" clip-rule="evenodd" d="M371.981 80.1964C371.283 79.9055 370.952 79.1032 371.242 78.404C371.532 77.7048 372.335 77.3739 373.033 77.6645C373.733 77.9554 374.064 78.7577 373.774 79.4569C373.482 80.156 372.679 80.487 371.981 80.1964" fill="white"/>
<path fill-rule="evenodd" clip-rule="evenodd" d="M370.036 81.3005C369.337 81.0096 369.006 80.2071 369.297 79.5081C369.587 78.8089 370.389 78.4777 371.09 78.7686C371.788 79.0595 372.119 79.8618 371.829 80.561C371.539 81.2601 370.736 81.5911 370.036 81.3005" fill="white"/>
<path fill-rule="evenodd" clip-rule="evenodd" d="M369.334 66.2116C369.327 66.3021 369.341 66.3957 369.379 66.4848L370.333 68.6755C370.46 68.9623 370.794 69.0935 371.079 68.9684C371.367 68.843 371.499 68.5093 371.374 68.2225L370.417 66.0318C370.293 65.7448 369.959 65.6138 369.672 65.7387C369.474 65.8251 369.35 66.0107 369.334 66.2116" fill="#240448"/>
<path fill-rule="evenodd" clip-rule="evenodd" d="M404.039 53.3546C404.429 53.3147 404.807 53.1331 405.086 52.815L410.976 46.1276C411.566 45.4576 411.5 44.4363 410.831 43.8466C410.162 43.2567 409.14 43.3216 408.55 43.9915L402.66 50.679C402.071 51.3487 402.137 52.37 402.806 52.9597C403.157 53.2694 403.606 53.3986 404.039 53.3546" fill="#FFBFAA"/>
<path fill-rule="evenodd" clip-rule="evenodd" d="M405.792 53.395C406.103 53.3634 406.407 53.2419 406.665 53.027L410.707 49.6465C411.392 49.0739 411.483 48.0546 410.909 47.3699C410.338 46.6855 409.318 46.5941 408.633 47.167L404.591 50.5475C403.906 51.1199 403.815 52.1394 404.389 52.8241C404.745 53.2514 405.278 53.4475 405.792 53.395" fill="#FFBFAA"/>
<path fill-rule="evenodd" clip-rule="evenodd" d="M408.14 54.8572C408.48 54.8225 408.811 54.6806 409.079 54.429L411.849 51.835C412.502 51.2251 412.534 50.2022 411.924 49.5509C411.314 48.8988 410.291 48.866 409.641 49.476L406.87 52.0701C406.22 52.6799 406.186 53.7028 406.796 54.3542C407.154 54.7373 407.655 54.9066 408.14 54.8572" fill="#FFBFAA"/>
<path fill-rule="evenodd" clip-rule="evenodd" d="M403.355 53.0291C404.177 52.9452 404.815 52.2467 404.805 51.4043L404.774 48.477C404.765 47.5847 404.032 46.8687 403.141 46.878C402.244 46.8882 401.532 47.6187 401.543 48.5112L401.573 51.4385C401.582 52.3308 402.314 53.0468 403.205 53.0375C403.257 53.0368 403.305 53.0341 403.355 53.0291" fill="#FFBFAA"/>
<path fill-rule="evenodd" clip-rule="evenodd" d="M495.718 261.277C499.497 265.108 504.158 266.638 506.126 264.698C508.094 262.755 506.627 258.075 502.846 254.244C500.232 251.594 496.253 250.973 494.049 250.843C493.143 250.789 492.394 251.528 492.435 252.435C492.537 254.641 493.104 258.626 495.718 261.277" fill="#006BFF"/>
<path fill-rule="evenodd" clip-rule="evenodd" d="M510.976 273.181C510.719 273.181 510.504 272.982 510.486 272.723C510.479 272.623 509.801 262.505 510.386 248.962C510.926 236.452 512.685 218.37 517.988 203.273C518.078 203.017 518.357 202.881 518.616 202.971C518.872 203.062 519.006 203.341 518.915 203.597C508.835 232.29 511.438 272.256 511.465 272.655C511.486 272.927 511.279 273.161 511.01 273.181C510.998 273.181 510.987 273.181 510.976 273.181" fill="#001E57"/>
<path fill-rule="evenodd" clip-rule="evenodd" d="M507.169 273.181C507.167 273.181 507.164 273.181 507.162 273.181C506.89 273.179 506.675 272.955 506.677 272.685C506.904 254.092 501.707 242.918 497.781 236.13C497.645 235.894 497.726 235.593 497.96 235.457C498.196 235.321 498.497 235.402 498.633 235.636C502.616 242.526 507.89 253.861 507.661 272.696C507.656 272.966 507.436 273.181 507.169 273.181" fill="#001E57"/>
<path fill-rule="evenodd" clip-rule="evenodd" d="M518.342 215.085C517.603 218.254 515.682 220.517 514.052 220.136C512.424 219.755 511.704 216.878 512.443 213.706C512.955 211.514 514.812 209.938 515.909 209.174C516.358 208.859 516.979 209.004 517.244 209.485C517.888 210.655 518.854 212.89 518.342 215.085" fill="#72ACFF"/>
<path fill-rule="evenodd" clip-rule="evenodd" d="M529.889 206.023C530.683 204.552 529.998 203.035 528.368 202.654C526.74 202.273 524.759 203.169 523.965 204.64L518.563 214.674C517.855 215.985 516.359 216.66 514.911 216.322C513.462 215.985 512.419 214.715 512.367 213.228L511.966 201.84C511.907 200.167 510.524 198.487 508.896 198.109C507.275 198.165 506.008 199.526 506.064 201.147C506.064 201.147 506.572 216.184 506.604 216.486L506.622 216.626C506.953 219.082 508.758 221.194 511.315 221.791L515.704 222.815C518.261 223.412 520.816 222.317 522.199 220.26L522.217 220.269L529.889 206.023" fill="#006BFF"/>
<path fill-rule="evenodd" clip-rule="evenodd" d="M493.555 226.366V226.366L497.046 219.562C497.865 217.966 496.872 216.039 495.094 215.781C493.319 215.522 491.818 217.086 492.147 218.85L493.555 226.366" fill="#006BFF"/>
<path fill-rule="evenodd" clip-rule="evenodd" d="M490.555 228.601V228.601L483.039 230.009C481.275 230.338 479.711 228.837 479.969 227.059C480.228 225.284 482.155 224.291 483.751 225.11L490.555 228.601" fill="#006BFF"/>
<path fill-rule="evenodd" clip-rule="evenodd" d="M492.696 231.473V231.473L489.205 238.275C488.386 239.871 489.379 241.8 491.157 242.058C492.932 242.317 494.432 240.753 494.104 238.989L492.696 231.473" fill="#006BFF"/>
<path fill-rule="evenodd" clip-rule="evenodd" d="M495.695 229.236V229.236L503.211 227.83C504.975 227.499 506.539 229.002 506.28 230.777C506.022 232.553 504.095 233.548 502.499 232.727L495.695 229.236" fill="#006BFF"/>
<path fill-rule="evenodd" clip-rule="evenodd" d="M491.623 226.81V226.81L489.281 219.53C488.732 217.823 486.665 217.164 485.227 218.236C483.79 219.308 483.833 221.478 485.314 222.491L491.623 226.81" fill="#006BFF"/>
<path fill-rule="evenodd" clip-rule="evenodd" d="M491.083 230.512V230.512L486.762 236.822C485.748 238.302 483.581 238.345 482.509 236.908C481.436 235.468 482.096 233.403 483.803 232.854L491.083 230.512" fill="#006BFF"/>
<path fill-rule="evenodd" clip-rule="evenodd" d="M494.629 231.029V231.029L496.971 238.306C497.519 240.016 499.587 240.676 501.024 239.603C502.462 238.531 502.419 236.361 500.938 235.348L494.629 231.029" fill="#006BFF"/>
<path fill-rule="evenodd" clip-rule="evenodd" d="M495.168 227.327V227.327L499.489 221.018C500.502 219.537 502.67 219.494 503.742 220.932C504.814 222.369 504.155 224.436 502.448 224.985L495.168 227.327" fill="#006BFF"/>
<path fill-rule="evenodd" clip-rule="evenodd" d="M121.79 104.843L110.389 104.895L110.289 79.124L121.69 79.0723L121.79 104.843" fill="#CFE4FF"/>
<path fill-rule="evenodd" clip-rule="evenodd" d="M115.931 69.5149L127.182 82.1546L115.99 82.2056L104.797 82.2564L115.931 69.5149" fill="#CFE4FF"/>
<path fill-rule="evenodd" clip-rule="evenodd" d="M193.362 82.4971L181.961 82.549L181.863 56.7782L193.265 56.7263L193.362 82.4971" fill="#006BFF"/>
<path fill-rule="evenodd" clip-rule="evenodd" d="M187.507 47.1692L198.756 59.8089L187.564 59.8597L176.371 59.9107L187.507 47.1692" fill="#006BFF"/>
<path fill-rule="evenodd" clip-rule="evenodd" d="M159.87 44.9158L148.469 44.9677L148.371 19.197L159.772 19.1453L159.87 44.9158" fill="#72ACFF"/>
<path fill-rule="evenodd" clip-rule="evenodd" d="M154.011 9.58789L165.26 22.2276L154.068 22.2784L142.875 22.3294L154.011 9.58789" fill="#72ACFF"/>
<path fill-rule="evenodd" clip-rule="evenodd" d="M498.217 189.979C498.217 189.979 456.868 189.958 456.822 189.979H446.917C446.808 189.344 446.77 188.696 446.806 188.05V188.047C446.811 187.995 446.813 187.943 446.818 187.891C446.82 187.841 446.824 187.805 446.827 187.791C446.951 186.927 447.144 186.073 447.396 185.238C447.752 184.071 448.244 182.917 448.899 181.881C449.681 180.643 450.694 179.568 451.982 178.821C453.236 178.095 454.621 177.578 456.038 177.336C458.384 176.933 460.817 177.281 462.869 178.68C464.104 179.52 465.247 180.82 466.802 181.022C469.18 181.33 469.806 178.712 470.001 176.9C470.52 172.018 470.935 164.412 476.888 163.008C477.94 162.759 478.833 162.964 479.586 163.437C481.067 164.368 482.003 166.342 482.538 167.962C483.402 170.578 483.878 173.412 484.955 175.945C485.753 177.821 487.337 178.958 489.421 178.679C490.119 178.585 490.795 178.646 491.436 178.825C492.919 179.239 494.22 180.287 495.2 181.534C495.549 181.98 495.859 182.452 496.12 182.928C497.265 185.014 497.752 187.644 498.217 189.979" fill="#CFE4FF"/>
<path fill-rule="evenodd" clip-rule="evenodd" d="M396.301 237.669C396.151 237.669 396.006 237.61 395.897 237.502C395.741 237.343 395.691 237.107 395.773 236.901L399.602 226.96L389.45 230.594C389.246 230.669 389.019 230.619 388.863 230.467C388.708 230.317 388.652 230.091 388.72 229.886L392.492 218.29C392.587 217.991 392.909 217.83 393.206 217.925C393.503 218.023 393.667 218.342 393.569 218.639L390.155 229.138L400.384 225.475C400.593 225.4 400.826 225.454 400.98 225.613C401.137 225.772 401.184 226.005 401.105 226.214L397.28 236.135L407.31 232.41C407.602 232.301 407.929 232.451 408.038 232.743C408.147 233.038 407.997 233.364 407.704 233.473L396.498 237.635C396.435 237.658 396.367 237.669 396.301 237.669" fill="#72ACFF"/>
<path fill-rule="evenodd" clip-rule="evenodd" d="M418.79 188.514L420.305 191.373L423.073 192.937L420.305 194.502L418.79 197.36L417.276 194.502L414.508 192.937L417.276 191.373L418.79 188.514" fill="white"/>
<path fill-rule="evenodd" clip-rule="evenodd" d="M428.237 194.64L430.681 199.258L435.154 201.784L430.681 204.309L428.237 208.927L425.791 204.309L421.32 201.784L425.791 199.258L428.237 194.64" fill="white"/>
<path fill-rule="evenodd" clip-rule="evenodd" d="M275.616 243.074L272.757 244.588L271.193 247.357L269.628 244.588L266.77 243.074L269.628 241.56L271.193 238.792L272.757 241.56L275.616 243.074" fill="white"/>
<path fill-rule="evenodd" clip-rule="evenodd" d="M269.49 252.521L264.872 254.965L262.347 259.438L259.821 254.965L255.203 252.521L259.821 250.075L262.347 245.604L264.872 250.075L269.49 252.521" fill="white"/>
</svg>
