<svg width="544" height="333" viewBox="0 0 544 333" fill="none" xmlns="http://www.w3.org/2000/svg">
<path fill-rule="evenodd" clip-rule="evenodd" d="M62.1818 257.319C53.1044 250.378 46.5293 239.287 57.749 222.993C44.3064 236.583 44.0715 220.544 45.0775 217.926C46.9663 213.012 36.2559 212.167 31.7217 209.44C24.2432 204.943 19.9579 187.416 33.5737 184.78C33.5737 184.78 13.1002 187.694 18.1787 166.262C13.3478 160.048 -11.5432 127.2 7.91986 125.979C13.2573 125.644 18.2858 128.928 22.6393 132.298C23.9573 133.318 36.5555 146.513 35.492 147.022C35.4923 147.022 54.0559 138.144 58.9413 160.974C58.9413 160.974 101.578 162.576 90.3286 199.559C90.3286 199.559 133.453 218.701 118.753 242.677C114.017 250.401 108.489 255.648 103.17 259.214C90.7151 267.56 74.7095 266.897 62.1818 257.319" fill="#CFE4FF"/>
<path fill-rule="evenodd" clip-rule="evenodd" d="M101.884 207.353C99.5087 208.867 95.8006 206.941 93.4341 206.317C89.4948 205.272 85.4787 204.764 81.6249 203.35C73.1561 200.24 61.2557 192.215 63.4493 181.653C64.8949 174.693 71.428 170.246 77.3038 167.149C77.3038 167.149 61.3964 164.983 57.405 159.115C48.7921 146.453 65.4104 136.492 65.4104 136.492C65.4104 136.492 61.6463 134.65 59.9003 133.483C55.5165 130.554 52.9502 124.488 53.8574 119.292C55.5048 109.855 65.2287 108.144 73.2512 107.539C73.2512 107.539 72.387 97.9448 77.4746 92.4283C82.57 86.9034 93.1083 85.4765 100.418 102.121C100.662 102.676 100.902 103.251 101.138 103.845C101.437 104.494 101.654 105.033 101.79 105.761C104.175 98.6455 115.072 98.3235 120.292 102.045C122.693 103.756 124.404 106.432 124.953 109.329C125.618 112.835 124.329 116.285 122.968 119.463C122.887 119.65 122.807 119.836 122.726 120.023C122.726 120.023 152.121 124.362 143.719 155.078C135.319 185.789 101.898 207.343 101.884 207.353" fill="#CFE4FF"/>
<path fill-rule="evenodd" clip-rule="evenodd" d="M114.258 100.252C114.24 100.252 114.222 100.25 114.204 100.248C113.581 100.166 112.947 100.121 112.32 100.112C112.091 100.109 111.907 99.9209 111.91 99.6915C111.913 99.4621 112.108 99.2874 112.331 99.2817C112.99 99.2906 113.657 99.3385 114.312 99.4243C114.539 99.4541 114.699 99.6628 114.67 99.8903C114.642 100.099 114.464 100.252 114.258 100.252" fill="white"/>
<path fill-rule="evenodd" clip-rule="evenodd" d="M144.797 140.248C144.601 140.248 144.426 140.108 144.389 139.907C142.81 131.28 136.993 126.447 132.393 123.912C127.387 121.154 122.711 120.441 122.664 120.434C122.536 120.415 122.424 120.338 122.362 120.225C122.299 120.112 122.292 119.976 122.344 119.857C122.425 119.671 122.505 119.485 122.585 119.299C123.93 116.161 125.189 112.812 124.544 109.406C124.012 106.599 122.374 104.039 120.05 102.383C118.533 101.301 116.457 100.544 114.205 100.248C113.978 100.218 113.818 100.01 113.847 99.7823C113.877 99.555 114.086 99.3951 114.313 99.4244C116.698 99.737 118.907 100.547 120.532 101.706C123.029 103.486 124.788 106.236 125.36 109.252C126.049 112.887 124.744 116.37 123.349 119.626C123.337 119.653 123.326 119.679 123.315 119.705C124.702 119.972 128.594 120.871 132.794 123.185C137.552 125.807 143.568 130.81 145.206 139.758C145.248 139.983 145.098 140.2 144.873 140.241C144.847 140.246 144.822 140.248 144.797 140.248" fill="white"/>
<path fill-rule="evenodd" clip-rule="evenodd" d="M60.0901 192.848C59.9758 192.848 59.862 192.801 59.7798 192.709L0.359245 126.061C0.206576 125.89 0.22161 125.627 0.392941 125.475C0.564013 125.322 0.826582 125.337 0.97951 125.509L60.4001 192.156C60.5527 192.327 60.5375 192.59 60.3664 192.742C60.2871 192.813 60.1883 192.848 60.0901 192.848" fill="white"/>
<path fill-rule="evenodd" clip-rule="evenodd" d="M43.9 174.688C43.8549 174.688 43.809 174.681 43.7641 174.665C43.5472 174.59 43.4324 174.353 43.5073 174.136L53.6671 144.778C53.7423 144.561 53.9792 144.446 54.1957 144.522C54.4123 144.596 54.5274 144.833 54.4523 145.05L44.2924 174.408C44.233 174.58 44.0721 174.688 43.9 174.688" fill="white"/>
<path fill-rule="evenodd" clip-rule="evenodd" d="M17.8178 176.784C17.6485 176.784 17.4891 176.679 17.4277 176.511C17.3489 176.296 17.4598 176.057 17.6755 175.978L38.7573 168.276C38.9724 168.197 39.2111 168.308 39.2899 168.523C39.3685 168.739 39.2578 168.977 39.0421 169.056L17.9604 176.758C17.9134 176.776 17.8652 176.784 17.8178 176.784" fill="white"/>
<path fill-rule="evenodd" clip-rule="evenodd" d="M110.903 189.576C110.723 189.576 110.558 189.459 110.505 189.278L83.849 98.6576C83.7842 98.4376 83.9102 98.2066 84.1303 98.1418C84.3511 98.0765 84.5813 98.203 84.6461 98.4231L111.302 189.044C111.366 189.264 111.241 189.495 111.02 189.559C110.981 189.571 110.942 189.576 110.903 189.576" fill="white"/>
<path fill-rule="evenodd" clip-rule="evenodd" d="M94.5285 133.911C94.4463 133.911 94.3637 133.887 94.2913 133.837C94.1029 133.706 94.0568 133.447 94.1879 133.259L108.032 113.398C108.163 113.21 108.422 113.164 108.61 113.295C108.798 113.426 108.844 113.685 108.713 113.873L94.8696 133.734C94.7888 133.849 94.6597 133.911 94.5285 133.911" fill="white"/>
<path fill-rule="evenodd" clip-rule="evenodd" d="M103.026 162.806C102.984 162.806 102.941 162.8 102.899 162.786L75.1796 153.916C74.9611 153.846 74.8405 153.612 74.9105 153.394C74.9805 153.175 75.2148 153.055 75.4326 153.125L103.152 161.995C103.371 162.065 103.491 162.299 103.421 162.517C103.365 162.693 103.202 162.806 103.026 162.806" fill="white"/>
<path fill-rule="evenodd" clip-rule="evenodd" d="M106.345 174.091C106.27 174.091 106.195 174.071 106.127 174.029C105.931 173.908 105.871 173.652 105.992 173.457L126.044 141.062C126.165 140.867 126.421 140.807 126.616 140.927C126.811 141.048 126.871 141.304 126.75 141.499L106.698 173.894C106.62 174.021 106.484 174.091 106.345 174.091" fill="white"/>
<path fill-rule="evenodd" clip-rule="evenodd" d="M58.0851 223.24C48.9813 236.467 50.4455 247.822 62.4356 256.988C69.0348 262.034 76.677 264.585 84.2441 264.585C90.769 264.585 97.2376 262.69 102.94 258.867C109.023 254.79 114.224 249.271 118.4 242.459C121.437 237.506 122.164 232.379 120.56 227.224C115.641 211.407 90.4154 200.051 90.1614 199.939C89.9696 199.854 89.8714 199.639 89.9325 199.438C93.0212 189.284 92.2785 180.895 87.7254 174.503C79.0192 162.282 59.1269 161.396 58.927 161.389C58.737 161.382 58.5763 161.246 58.5364 161.061C57.0172 153.961 54.0144 149.263 49.6119 147.096C43.1651 143.923 35.8167 147.329 35.6742 147.396C35.6734 147.396 35.6729 147.396 35.6724 147.397C35.4756 147.491 35.2398 147.417 35.1322 147.227C35.0607 147.102 35.0617 146.953 35.1234 146.833C34.5791 145.117 23.6807 133.628 22.3863 132.626C18.1673 129.361 13.1513 126.065 7.94705 126.393C4.66169 126.599 2.52044 127.758 1.58343 129.836C-2.23044 138.294 13.5735 159.66 18.5082 166.007C18.5851 166.106 18.6134 166.235 18.5844 166.358C17.0649 172.77 17.7153 177.578 20.5175 180.649C24.9653 185.522 33.4313 184.381 33.5164 184.369C33.7393 184.338 33.9471 184.489 33.9845 184.711C34.0218 184.933 33.8751 185.145 33.6537 185.188C27.7398 186.333 25.8596 190.186 25.3236 193.217C24.3109 198.942 27.4013 206.358 31.9368 209.085C33.7139 210.153 35.4404 211.355 37.1099 212.519C39.7014 214.323 42.3812 216.192 45.2563 217.55C49.649 219.627 56.4968 222.638 57.5343 222.638C57.5354 222.638 57.5362 222.638 57.5372 222.638C57.6725 222.555 57.8477 222.558 57.9859 222.651C58.1748 222.781 58.2225 223.04 58.0924 223.229C58.0901 223.232 58.0875 223.237 58.0851 223.24ZM84.2433 265.417C76.4979 265.417 68.682 262.812 61.9306 257.649H61.9309C56.5445 253.53 53.1868 248.859 51.9514 243.761C50.4385 237.519 52.1331 230.666 56.9882 223.377C56.1326 223.175 54.5447 222.6 51.4934 221.283C48.7604 220.101 45.8081 218.73 44.9012 218.302C41.9632 216.913 39.2545 215.026 36.635 213.201C34.9767 212.045 33.2618 210.85 31.5088 209.795C26.7123 206.913 23.4397 199.097 24.5055 193.072C25.1442 189.46 27.2157 186.788 30.4435 185.326C27.4106 185.23 22.8881 184.478 19.9037 181.208C16.9343 177.955 16.2033 172.959 17.7306 166.36C11.2539 158.011 -3.04485 138.079 0.826045 129.494C1.89965 127.113 4.27807 125.791 7.89495 125.564C13.377 125.221 18.5533 128.609 22.8949 131.969C23.6147 132.527 27.0356 136.044 29.9339 139.208C34.2354 143.902 35.4883 145.673 35.8414 146.42C37.6664 145.673 43.5093 143.685 49.1101 145.961C54.1616 148.014 57.5828 152.93 59.2811 160.576C60.4988 160.653 65.0092 161.021 70.2699 162.52C75.9583 164.14 83.7216 167.451 88.4019 174.021C93.0598 180.56 93.8768 189.075 90.8317 199.332C92.2417 199.987 97.9169 202.717 103.993 206.921C110.458 211.394 118.719 218.507 121.353 226.977C123.031 232.371 122.276 237.726 119.108 242.892C114.869 249.808 109.585 255.414 103.402 259.559C97.5587 263.475 90.9271 265.417 84.2433 265.417V265.417Z" fill="white"/>
<path fill-rule="evenodd" clip-rule="evenodd" d="M71.6888 263.957C68.9094 269.173 64.9745 273.779 60.1036 277.094C56.994 279.211 57.4514 281.542 53.6254 282.348C52.4719 282.589 50.9764 282.703 49.3338 282.713L33.5371 275.974C27.5843 273.436 24.1603 267.091 25.3975 260.738C25.4063 260.692 25.4154 260.648 25.4247 260.601C25.4247 260.601 9.93282 260.186 13.8869 245.749L7.6275 242.273C-0.41237 237.807 -2.03885 226.801 4.54405 220.376C4.6397 220.282 4.73716 220.189 4.83643 220.098C8.89472 216.345 14.5562 215.293 19.5157 216.972C21.2871 217.568 22.9693 218.517 24.4571 219.816L32.1631 226.537C32.1631 226.537 28.4008 214.79 35.6227 209.691C36.6849 208.94 37.9866 208.333 39.5731 207.929C48.8198 205.578 51.7843 216.674 52.6894 222.416C52.9973 224.354 53.0694 225.684 53.0694 225.684C53.0694 225.684 53.5181 224.533 54.4546 223.154C56.418 220.259 60.5266 216.363 67.1289 219.982C68.0898 220.51 69.1053 221.2 70.1735 222.073C70.8272 222.607 71.4197 223.209 71.9526 223.864C72.3386 224.339 72.694 224.842 73.0185 225.368C77.0664 231.881 76.8396 242.195 76.2271 248.888C75.753 254.079 74.1888 259.263 71.6888 263.957" fill="#CFE4FF"/>
<path fill-rule="evenodd" clip-rule="evenodd" d="M14.8021 216.609C11.2663 216.609 7.79745 217.926 5.11758 220.404C5.02038 220.492 4.92577 220.583 4.83298 220.674C1.83326 223.6 0.434357 227.685 0.995525 231.876C1.56862 236.158 4.05927 239.816 7.82856 241.91L14.088 245.386C14.2552 245.479 14.3373 245.673 14.2868 245.857C13.1803 249.898 13.5328 253.18 15.3347 255.611C18.5467 259.945 25.3665 260.183 25.435 260.186C25.5576 260.189 25.6724 260.246 25.7489 260.342C25.8248 260.437 25.8551 260.562 25.8308 260.684L25.8043 260.816C24.6156 266.92 27.936 273.133 33.6993 275.593L49.4162 282.298C51.1007 282.283 52.4872 282.161 53.5387 281.941C55.6548 281.495 56.3443 280.58 57.2168 279.419C57.8402 278.589 58.5462 277.651 59.8689 276.752C64.5208 273.584 68.4808 269.092 71.3211 263.76C73.7921 259.123 75.3452 253.968 75.8126 248.851C76.7758 238.325 75.7167 230.497 72.6648 225.588C72.3463 225.07 71.9987 224.58 71.6301 224.129C71.1071 223.483 70.5283 222.9 69.9093 222.392C68.8989 221.568 67.8958 220.878 66.928 220.347C60.8619 217.021 56.9832 220.163 54.7974 223.387C53.9014 224.707 53.4599 225.824 53.4555 225.834C53.3843 226.016 53.1953 226.125 53.0027 226.093C52.8096 226.062 52.6645 225.902 52.6538 225.705C52.653 225.692 52.5787 224.372 52.2782 222.48C51.6795 218.68 50.0613 211.902 45.9538 209.196C44.1663 208.017 42.0536 207.727 39.6746 208.333C38.2104 208.706 36.9276 209.277 35.8618 210.031C28.9681 214.899 32.521 226.296 32.5578 226.41C32.6146 226.586 32.5464 226.78 32.3906 226.884C32.2346 226.985 32.0295 226.972 31.8891 226.848L24.1833 220.127C22.7655 218.89 21.1501 217.962 19.3821 217.366C17.8824 216.858 16.3358 216.609 14.8021 216.609ZM49.333 283.13C49.277 283.13 49.2215 283.117 49.1699 283.097L33.3732 276.358C27.3554 273.789 23.8458 267.366 24.9288 260.987C23.2421 260.855 17.646 260.121 14.6699 256.109C12.7544 253.527 12.328 250.114 13.4016 245.956L7.42498 242.636C3.42397 240.412 0.780389 236.531 0.172046 231.985C-0.424114 227.532 1.06318 223.19 4.25289 220.077C4.35165 219.982 4.45196 219.888 4.55408 219.792C8.61963 216.034 14.4032 214.803 19.6481 216.578C21.5192 217.208 23.2292 218.193 24.7294 219.502L31.4082 225.326C30.6405 222.04 29.3826 213.59 35.3823 209.352C36.5313 208.54 37.9064 207.926 39.4699 207.527C42.0847 206.861 44.4201 207.19 46.4107 208.502C50.785 211.384 52.4789 218.416 53.0989 222.351C53.2088 223.045 53.2891 223.657 53.3467 224.162C53.552 223.792 53.8057 223.369 54.11 222.921C56.0579 220.049 60.3653 215.801 67.3277 219.619C68.3401 220.176 69.3857 220.891 70.4355 221.749C71.0982 222.294 71.7167 222.918 72.2745 223.603C72.6654 224.082 73.0347 224.603 73.3714 225.15C76.5199 230.217 77.62 238.216 76.6399 248.926C76.1627 254.152 74.577 259.416 72.0544 264.152C69.1511 269.6 65.0991 274.196 60.3363 277.438C59.1273 278.26 58.4936 279.102 57.8809 279.919C56.9812 281.114 56.1313 282.244 53.7101 282.752C52.5864 282.99 51.1147 283.117 49.3361 283.13C49.335 283.13 49.334 283.13 49.333 283.13V283.13Z" fill="#CFE4FF"/>
<path fill-rule="evenodd" clip-rule="evenodd" d="M71.6859 264.372C71.6131 264.372 71.5395 264.354 71.4726 264.313L2.73301 223.092C2.53627 222.973 2.47251 222.719 2.59045 222.522C2.70838 222.325 2.96344 222.26 3.16017 222.379L71.8997 263.6C72.0965 263.719 72.1605 263.973 72.0423 264.17C71.9646 264.3 71.8269 264.372 71.6859 264.372" fill="white"/>
<path fill-rule="evenodd" clip-rule="evenodd" d="M41.4782 246.257C41.4743 246.257 41.4704 246.257 41.4665 246.257C41.2371 246.249 41.0562 246.057 41.0627 245.829L41.8138 218.455C41.8201 218.224 42.0098 218.04 42.2405 218.051C42.4696 218.058 42.6505 218.248 42.6443 218.478L41.8931 245.852C41.8869 246.078 41.7021 246.257 41.4782 246.257" fill="white"/>
<path fill-rule="evenodd" clip-rule="evenodd" d="M426.99 139.456C431.736 129.062 441.085 120.183 459.465 127.494C443.226 117.414 458.812 113.614 461.588 114.012C466.798 114.76 465.238 104.13 466.886 99.1027C469.605 90.8114 485.74 82.7319 491.342 95.4192C491.342 95.4192 483.944 76.108 505.968 76.2887C510.95 70.1959 537.433 38.6178 542.956 57.3207C544.473 62.4497 542.389 68.0832 540.074 73.0774C539.371 74.5894 529.312 89.8088 528.578 88.885C528.578 88.8853 541.367 105.007 520.196 114.852C520.196 114.852 528.125 156.775 489.566 154.04C489.566 154.04 480.502 200.343 453.856 191.349C445.271 188.451 438.926 184.229 434.266 179.838C423.356 169.553 420.44 153.801 426.99 139.456" fill="#CFE4FF"/>
<path fill-rule="evenodd" clip-rule="evenodd" d="M421.755 157.865C420.298 160.277 416.123 160.201 413.722 160.692C409.731 161.508 405.907 162.838 401.828 163.283C392.857 164.261 378.632 162.361 375.903 151.925C374.104 145.048 377.979 138.161 381.867 132.775C381.867 132.775 366.654 137.905 360.47 134.422C347.126 126.907 357.587 110.598 357.587 110.598C357.587 110.598 353.396 110.621 351.315 110.352C346.084 109.676 341.092 105.383 339.594 100.324C336.875 91.1384 344.824 85.2839 351.742 81.1771C351.742 81.1771 346.706 72.9664 348.811 65.7633C350.921 58.5495 359.726 52.5876 373.671 64.2495C374.137 64.6383 374.607 65.0466 375.083 65.4737C375.638 65.9219 376.074 66.3086 376.519 66.9006C375.493 59.4663 385.112 54.3349 391.442 55.3478C394.352 55.8141 397.074 57.451 398.855 59.8019C401.009 62.6474 401.387 66.3104 401.579 69.7622C401.589 69.9654 401.602 70.1686 401.61 70.3718C401.61 70.3718 429.873 61.1941 435.998 92.4437C442.12 123.689 421.763 157.851 421.755 157.865" fill="#CFE4FF"/>
<path fill-rule="evenodd" clip-rule="evenodd" d="M383.264 57.2004C383.108 57.2004 382.961 57.1133 382.888 56.9645C382.79 56.7577 382.878 56.5096 383.082 56.4104C383.679 56.1253 384.295 55.8723 384.92 55.6579C385.138 55.5833 385.374 55.6991 385.449 55.9161C385.524 56.133 385.407 56.3694 385.19 56.4438C384.596 56.6478 384.008 56.8883 383.443 57.1595C383.386 57.1872 383.323 57.2004 383.264 57.2004" fill="white"/>
<path fill-rule="evenodd" clip-rule="evenodd" d="M430.189 78.7226C430.062 78.7226 429.938 78.6648 429.855 78.5557C425.646 72.9219 419.648 69.8953 412.027 69.5604C406.317 69.3095 401.784 70.7524 401.74 70.767C401.618 70.8069 401.483 70.7872 401.374 70.7138C401.268 70.6405 401.203 70.5217 401.195 70.3924C401.185 70.1902 401.175 69.9875 401.164 69.7851C400.975 66.3758 400.615 62.816 398.523 60.0527C396.799 57.7746 394.194 56.2092 391.377 55.7582C389.536 55.464 387.338 55.7074 385.19 56.4438C384.972 56.5185 384.736 56.4023 384.663 56.1854C384.588 55.9684 384.705 55.7323 384.92 55.6579C387.196 54.878 389.536 54.6229 391.506 54.9379C394.534 55.4223 397.333 57.104 399.184 59.5514C401.418 62.5011 401.797 66.2017 401.994 69.7392C401.996 69.7677 401.996 69.7962 401.999 69.8245C403.36 69.4471 407.245 68.5231 412.038 68.7291C417.465 68.9629 425.078 70.7714 430.521 78.0585C430.659 78.2423 430.622 78.5025 430.438 78.6399C430.363 78.6956 430.275 78.7226 430.189 78.7226" fill="white"/>
<path fill-rule="evenodd" clip-rule="evenodd" d="M489.781 123.388C489.698 123.388 489.615 123.363 489.543 123.311C489.353 123.178 489.312 122.919 489.444 122.732L541.193 49.9674C541.326 49.7805 541.585 49.7367 541.771 49.8696C541.958 50.0026 542.002 50.2618 541.87 50.4487L490.121 123.214C490.04 123.327 489.911 123.388 489.781 123.388" fill="white"/>
<path fill-rule="evenodd" clip-rule="evenodd" d="M534.765 106.932C534.75 106.932 534.734 106.931 534.719 106.929L503.835 103.559C503.607 103.534 503.444 103.329 503.467 103.101C503.493 102.873 503.698 102.708 503.926 102.733L534.81 106.103C535.038 106.128 535.201 106.333 535.178 106.561C535.154 106.774 534.973 106.932 534.765 106.932" fill="white"/>
<path fill-rule="evenodd" clip-rule="evenodd" d="M508.234 97.4404C508.1 97.4404 507.965 97.3735 507.887 97.2507L495.684 78.4123C495.56 78.2199 495.614 77.9626 495.806 77.8379C495.998 77.7127 496.257 77.7682 496.381 77.9607L508.582 96.7991C508.709 96.9915 508.652 97.2488 508.46 97.3735C508.39 97.4186 508.312 97.4404 508.234 97.4404" fill="white"/>
<path fill-rule="evenodd" clip-rule="evenodd" d="M421.748 137.976C421.636 137.976 421.525 137.931 421.444 137.843L357.29 68.5108C357.134 68.3423 357.145 68.0795 357.313 67.9237C357.482 67.768 357.743 67.7781 357.899 67.9465L422.054 137.278C422.209 137.447 422.199 137.71 422.03 137.865C421.95 137.939 421.849 137.976 421.748 137.976" fill="white"/>
<path fill-rule="evenodd" clip-rule="evenodd" d="M382.342 95.3881C382.322 95.3881 382.301 95.3868 382.28 95.3834C382.055 95.3497 381.897 95.1382 381.93 94.9114L385.507 70.9676C385.541 70.7405 385.751 70.5834 385.979 70.6179C386.205 70.6519 386.363 70.8634 386.329 71.0902L382.752 95.034C382.723 95.2401 382.545 95.3881 382.342 95.3881" fill="white"/>
<path fill-rule="evenodd" clip-rule="evenodd" d="M374.026 121.868C373.824 121.868 373.645 121.721 373.614 121.515C373.58 121.288 373.736 121.077 373.964 121.042L402.738 116.669C402.966 116.635 403.176 116.79 403.209 117.017C403.246 117.244 403.088 117.455 402.862 117.49L374.088 121.864C374.068 121.867 374.047 121.868 374.026 121.868" fill="white"/>
<path fill-rule="evenodd" clip-rule="evenodd" d="M410.788 126.128C410.775 126.128 410.762 126.128 410.749 126.127C410.521 126.105 410.352 125.903 410.373 125.674L413.939 87.7427C413.96 87.5144 414.162 87.3467 414.39 87.3682C414.621 87.3897 414.787 87.5921 414.766 87.8205L411.202 125.752C411.182 125.967 411 126.128 410.788 126.128" fill="white"/>
<path fill-rule="evenodd" clip-rule="evenodd" d="M446.989 125.204C438.327 125.204 431.751 130.024 427.368 139.628C420.942 153.702 423.76 169.366 434.55 179.535C439.879 184.557 446.419 188.4 453.988 190.955C459.493 192.813 464.651 192.381 469.322 189.67C483.643 181.357 489.104 154.233 489.159 153.96C489.197 153.754 489.389 153.61 489.594 153.626C500.182 154.378 508.194 151.785 513.412 145.924C523.389 134.716 519.825 115.125 519.788 114.929C519.752 114.742 519.848 114.555 520.022 114.475C526.603 111.414 530.517 107.441 531.649 102.667C533.313 95.6428 528.303 89.2074 528.254 89.1431C528.116 88.9707 528.137 88.7214 528.3 88.5749C528.409 88.4801 528.549 88.449 528.681 88.4821C530.231 87.5697 539.005 74.3876 539.695 72.9024C541.939 68.0626 544.034 62.4406 542.559 57.4383C541.626 54.281 540.019 52.4515 537.784 52.0005C528.689 50.1646 511.377 70.328 506.289 76.5517C506.209 76.6489 506.082 76.7056 505.962 76.7041C499.368 76.6543 494.832 78.3544 492.461 81.7696C488.7 87.1905 491.699 95.1902 491.727 95.2706C491.808 95.4811 491.706 95.7172 491.499 95.8032C491.289 95.8888 491.051 95.7929 490.96 95.5868C488.529 90.0762 484.35 89.0998 481.279 89.2527C475.47 89.5399 468.931 94.2035 467.282 99.2322C466.634 101.202 465.846 103.153 465.084 105.04C463.902 107.968 462.679 110.996 461.992 114.102C460.945 118.852 459.532 126.208 459.765 127.207C459.874 127.321 459.913 127.492 459.851 127.648C459.768 127.861 459.524 127.965 459.312 127.88C454.825 126.095 450.714 125.204 446.989 125.204ZM460.52 192.92C458.319 192.92 456.051 192.528 453.723 191.742C446.041 189.148 439.397 185.245 433.98 180.14C422.928 169.722 420.035 153.685 426.611 139.283C429.429 133.115 433.236 128.802 437.928 126.463C443.677 123.599 450.737 123.725 458.92 126.837C458.928 125.957 459.138 124.281 459.742 121.013C460.395 117.49 461.173 113.958 461.181 113.923C461.88 110.749 463.119 107.689 464.314 104.729C465.071 102.855 465.854 100.917 466.492 98.9733C468.236 93.6552 475.125 88.7253 481.237 88.423C484.9 88.2406 487.966 89.6664 490.112 92.4878C489.529 89.5099 489.254 84.9329 491.779 81.2961C494.278 77.6963 498.946 75.8721 505.662 75.8721C505.698 75.8721 505.734 75.8721 505.771 75.8721C512.468 67.6997 528.718 49.3238 537.95 51.1861C540.509 51.7027 542.328 53.727 543.355 57.2029C544.91 62.4701 542.759 68.2715 540.449 73.2521C540.065 74.0776 537.398 78.1958 534.959 81.7258C531.336 86.9687 529.889 88.5827 529.241 89.0918C530.374 90.7211 533.674 96.1107 532.613 102.103C531.675 107.405 527.655 111.774 520.659 115.093C520.856 116.297 521.499 120.776 521.209 126.239C520.895 132.145 519.397 140.45 514.034 146.476C508.694 152.473 500.574 155.165 489.897 154.479C489.573 155.999 488.176 162.14 485.429 168.999C482.507 176.298 477.412 185.934 469.739 190.388C466.834 192.075 463.749 192.92 460.52 192.92V192.92Z" fill="white"/>
<path fill-rule="evenodd" clip-rule="evenodd" d="M449.16 99.8209C443.724 97.4953 438.802 93.9666 435.083 89.3956C432.708 86.4775 430.427 87.1317 429.297 83.3881C428.958 82.2596 428.719 80.779 428.566 79.1435L433.937 62.8304C435.961 56.683 441.993 52.7315 448.426 53.4236C448.473 53.4285 448.52 53.4337 448.566 53.4389C448.566 53.4389 447.659 37.968 462.382 40.6792L465.313 34.1466C469.079 25.7558 479.906 23.1985 486.868 29.2107C486.969 29.298 487.068 29.3874 487.169 29.4787C491.254 33.2029 492.786 38.7539 491.534 43.8383C491.088 45.654 490.287 47.4109 489.121 49.0039L483.081 57.2538C483.081 57.2538 494.463 52.5057 500.157 59.2675C500.997 60.2618 501.71 61.5072 502.249 63.0536C505.38 72.0665 494.577 75.9644 488.931 77.3552C487.026 77.8267 485.71 78.0118 485.71 78.0118C485.71 78.0118 486.894 78.3609 488.348 79.1766C491.399 80.8866 495.632 84.6486 492.586 91.535C492.14 92.5374 491.542 93.6079 490.761 94.7465C490.285 95.4435 489.735 96.0848 489.126 96.6721C488.688 97.0967 488.219 97.4935 487.721 97.8616C481.575 102.449 471.28 103.101 464.559 103.06C459.346 103.03 454.048 101.912 449.16 99.8209" fill="#CFE4FF"/>
<path fill-rule="evenodd" clip-rule="evenodd" d="M449.323 99.4389C454.155 101.506 459.424 102.615 464.561 102.645C464.751 102.646 464.94 102.647 465.127 102.647C475.406 102.647 482.921 100.926 487.472 97.5288C487.959 97.1678 488.418 96.7795 488.838 96.3738C489.434 95.7976 489.968 95.1714 490.419 94.5115C491.158 93.4345 491.757 92.3765 492.205 91.3666C495.005 85.0401 491.542 81.4426 488.143 79.5391C486.754 78.7586 485.603 78.4136 485.59 78.4102C485.404 78.3548 485.279 78.1762 485.295 77.9813C485.308 77.7861 485.458 77.6277 485.65 77.6005C485.663 77.5987 486.972 77.4123 488.833 76.952C492.568 76.0318 499.183 73.8426 501.531 69.5194C502.552 67.6384 502.661 65.5088 501.858 63.19C501.36 61.7626 500.681 60.5332 499.841 59.5353C494.403 53.0815 483.351 57.5908 483.239 57.6372C483.068 57.709 482.869 57.6574 482.755 57.5107C482.638 57.3642 482.635 57.159 482.744 57.0084L488.786 48.7585C489.898 47.2404 490.686 45.5517 491.129 43.7396C492.381 38.6583 490.756 33.3118 486.889 29.7856C486.79 29.6965 486.695 29.6099 486.596 29.5251C483.423 26.7854 479.235 25.7387 475.108 26.6547C470.889 27.5905 467.457 30.3831 465.692 34.317L462.76 40.8493C462.682 41.024 462.493 41.1222 462.306 41.0878C458.185 40.3288 454.945 40.9595 452.677 42.9618C448.634 46.531 448.976 53.3464 448.981 53.4148C448.986 53.5372 448.939 53.6564 448.851 53.7406C448.761 53.8249 448.639 53.8653 448.52 53.8516L448.382 53.8368C442.2 53.1701 436.291 57.0086 434.331 62.9604L428.989 79.191C429.147 80.8669 429.385 82.2384 429.696 83.2684C430.321 85.3387 431.291 85.9475 432.522 86.7181C433.4 87.2684 434.396 87.8923 435.404 89.1339C438.958 93.4991 443.768 97.0625 449.323 99.4389ZM465.124 103.477C464.935 103.477 464.748 103.477 464.556 103.476C459.31 103.445 453.929 102.313 448.997 100.203C443.32 97.7738 438.398 94.1274 434.761 89.658C433.839 88.5232 432.944 87.9633 432.081 87.4224C430.811 86.6277 429.614 85.877 428.901 83.5079C428.569 82.4076 428.318 80.9522 428.154 79.1819C428.149 79.1249 428.154 79.0678 428.172 79.0137L433.543 62.7006C435.588 56.4863 441.69 52.4457 448.139 52.9788C448.126 51.2868 448.382 45.6487 452.125 42.342C454.533 40.2135 457.9 39.4981 462.135 40.214L464.935 33.9766C466.809 29.8009 470.451 26.8367 474.927 25.8437C479.315 24.8707 483.766 25.9832 487.138 28.8966C487.244 28.9865 487.345 29.0783 487.449 29.1724C491.542 32.903 493.26 38.5611 491.936 43.9377C491.466 45.8555 490.632 47.6429 489.455 49.2495L484.219 56.3998C487.431 55.3552 495.743 53.3824 500.476 58.9998C501.383 60.0755 502.112 61.3935 502.641 62.9173C503.527 65.4661 503.4 67.8206 502.262 69.916C499.761 74.5197 492.9 76.8058 489.03 77.7586C488.351 77.9271 487.744 78.059 487.247 78.1596C487.635 78.3325 488.079 78.5494 488.55 78.8146C491.578 80.5105 496.176 84.4411 492.965 91.7033C492.498 92.7593 491.871 93.8622 491.106 94.9812C490.621 95.6875 490.051 96.357 489.416 96.971C488.97 97.4016 488.483 97.814 487.967 98.1955C483.273 101.701 475.585 103.477 465.124 103.477V103.477Z" fill="white"/>
<path fill-rule="evenodd" clip-rule="evenodd" d="M449.159 100.236C449.1 100.236 449.037 100.222 448.978 100.193C448.773 100.093 448.688 99.8437 448.789 99.6376L484.009 27.6391C484.11 27.4331 484.359 27.3475 484.566 27.4486C484.771 27.5494 484.856 27.7983 484.755 28.0043L449.535 100.003C449.463 100.15 449.315 100.236 449.159 100.236" fill="white"/>
<path fill-rule="evenodd" clip-rule="evenodd" d="M464.639 68.5928C464.422 68.5928 464.24 68.4222 464.227 68.2014C464.214 67.9723 464.388 67.7761 464.616 67.7626L491.956 66.1812C492.19 66.1698 492.382 66.3432 492.395 66.5721C492.407 66.8009 492.234 66.9974 492.003 67.0106L464.665 68.5923C464.658 68.5925 464.65 68.5928 464.639 68.5928" fill="white"/>
<path fill-rule="evenodd" clip-rule="evenodd" d="M308.335 45.998C308.335 58.929 297.853 69.4116 284.921 69.4116C271.99 69.4116 261.508 58.929 261.508 45.998C261.508 33.0668 271.99 22.5842 284.921 22.5842C297.853 22.5842 308.335 33.0668 308.335 45.998" fill="#CFE4FF"/>
<path fill-rule="evenodd" clip-rule="evenodd" d="M284.922 6.59934C263.199 6.59934 245.524 24.2734 245.524 45.998C245.524 67.7223 263.199 85.3967 284.922 85.3967C306.649 85.3967 324.321 67.7223 324.321 45.998C324.321 24.2734 306.649 6.59934 284.922 6.59934ZM284.922 91.6509C259.749 91.6509 239.27 71.171 239.27 45.998C239.27 20.8248 259.749 0.344849 284.922 0.344849C310.096 0.344849 330.575 20.8248 330.575 45.998C330.575 71.171 310.096 91.6509 284.922 91.6509V91.6509Z" fill="#CFE4FF"/>
<path fill-rule="evenodd" clip-rule="evenodd" d="M382.29 268.983V230.487H361.521C360.857 228.623 360.1 226.801 359.253 225.033L373.89 210.345L347.143 183.687L332.477 198.399C330.792 197.601 329.058 196.884 327.285 196.252V175.482H289.523V196.219C287.327 196.996 285.194 197.905 283.133 198.937L268.152 184.546L241.991 211.781L256.944 226.145C256.288 227.592 255.694 229.072 255.16 230.583H234.422V268.346H255.192C256.021 270.668 256.99 272.923 258.102 275.093L243.398 290.577L270.528 317.353L285.889 301.184C287.047 301.687 288.229 302.153 289.427 302.581V325.152H327.192V302.615C328.924 302 330.616 301.306 332.265 300.533L348.047 316.236L374.424 288.685L359.317 273.657C360.043 272.135 360.702 270.577 361.292 268.983H382.29" fill="#CFE4FF"/>
<path fill-rule="evenodd" clip-rule="evenodd" d="M339.542 249.416C339.542 266.638 325.581 280.601 308.358 280.601C291.136 280.601 277.176 266.638 277.176 249.416C277.176 232.195 291.136 218.232 308.358 218.232C325.581 218.232 339.542 232.195 339.542 249.416" fill="white"/>
<path fill-rule="evenodd" clip-rule="evenodd" d="M397.001 94.7141L401.581 99.8388C407.403 106.955 409.865 116.242 408.328 125.308L402.893 168.904C402.289 173.749 398.79 177.734 394.064 178.959L334.334 194.015L330.68 167.361L372.771 150.653L372.797 123.693C372.81 109.457 382.994 97.2639 397.001 94.7141" fill="#72ACFF"/>
<path fill-rule="evenodd" clip-rule="evenodd" d="M446.637 91.6975C432.298 111.993 420.453 134.028 418.662 156.535C410.123 128.189 416.982 104.408 420.227 91.7753L428.159 89.7729L446.637 91.6975" fill="white"/>
<path fill-rule="evenodd" clip-rule="evenodd" d="M466.971 95.8137L476.398 211.467H388.633L392.77 95.8137L415.351 91.7754L420.419 90.4858C417.173 103.119 410.123 128.189 418.661 156.535C420.452 134.028 432.298 111.993 446.637 91.6976L466.971 95.8137" fill="#72ACFF"/>
<path fill-rule="evenodd" clip-rule="evenodd" d="M446.636 91.6975L424.058 115.937L420.227 91.7753L426.802 47.7302H450.921L446.636 91.6975" fill="#FFBFAA"/>
<path fill-rule="evenodd" clip-rule="evenodd" d="M400.895 185.2L431.571 182.515L435.824 208.465L408.429 206.739L400.895 185.2" fill="#FFBFAA"/>
<path fill-rule="evenodd" clip-rule="evenodd" d="M432.364 88.9347H420.052C413.738 88.9347 408.621 83.8166 408.621 77.503V47.7302H443.795V77.503C443.795 83.8166 438.678 88.9347 432.364 88.9347" fill="#FFBFAA"/>
<path fill-rule="evenodd" clip-rule="evenodd" d="M446.858 52.4545C442.439 55.8876 437.232 58.1667 431.731 59.2032C427.372 60.0254 422.96 60.6275 418.554 60.9352C414.824 61.196 410.938 61.4663 407.266 60.584C404.769 59.9837 402.442 58.7237 401.929 55.9734C401.361 52.92 403.862 49.8373 406.421 48.4822C406.421 48.4822 397.356 45.531 404.101 39.8392C404.298 39.6743 403.37 35.34 403.344 34.8791C403.004 28.5899 408.072 24.1514 414.259 25.5282C426.102 28.1651 431.957 41.9426 444.37 43.2116C454.805 44.279 451.633 48.7482 446.858 52.4545" fill="#006BFF"/>
<path fill-rule="evenodd" clip-rule="evenodd" d="M423.684 35.419C423.684 35.419 447.551 25.369 453.582 37.1777C459.611 48.9863 448.808 70.5937 445.542 73.6088C442.276 76.6235 435.744 52.5039 435.744 52.5039L423.684 35.419" fill="#006BFF"/>
<path fill-rule="evenodd" clip-rule="evenodd" d="M443.77 77.6285V77.6285C439.941 77.6285 436.836 74.5246 436.836 70.6957V68.2307C436.836 64.4015 439.941 61.2976 443.77 61.2976C447.598 61.2976 450.703 64.4015 450.703 68.2307V70.6957C450.703 74.5246 447.598 77.6285 443.77 77.6285" fill="#FFBFAA"/>
<path fill-rule="evenodd" clip-rule="evenodd" d="M442.98 75.5852V75.5852C440.294 75.5852 438.117 73.4077 438.117 70.7211V68.992C438.117 66.3053 440.294 64.1278 442.98 64.1278C445.668 64.1278 447.845 66.3053 447.845 68.992V70.7211C447.845 73.4077 445.668 75.5852 442.98 75.5852" fill="#001E57"/>
<path fill-rule="evenodd" clip-rule="evenodd" d="M442.463 69.1835V70.5295C442.463 72.1171 443.754 73.4087 445.343 73.4087C446.929 73.4087 448.222 72.1171 448.222 70.5295V69.1835C448.222 67.5959 446.929 66.3043 445.343 66.3043C443.754 66.3043 442.463 67.5959 442.463 69.1835ZM440.648 70.5295V69.1835C440.648 66.5953 442.753 64.4899 445.343 64.4899C447.929 64.4899 450.037 66.5953 450.037 69.1835V70.5295C450.037 73.1176 447.929 75.2231 445.343 75.2231C442.753 75.2231 440.648 73.1176 440.648 70.5295V70.5295Z" fill="white"/>
<path fill-rule="evenodd" clip-rule="evenodd" d="M406.425 49.3896C406.596 49.3896 406.772 49.3398 406.928 49.2364C407.889 48.5964 410.764 47.0679 412.503 47.6667C412.977 47.8302 413.491 47.5778 413.654 47.1042C413.817 46.6304 413.566 46.1141 413.091 45.951C410.196 44.9534 406.347 47.4409 405.919 47.7279C405.502 48.0062 405.391 48.5697 405.668 48.9863C405.844 49.2481 406.132 49.3896 406.425 49.3896" fill="#72ACFF"/>
<path fill-rule="evenodd" clip-rule="evenodd" d="M406.14 43.9058C406.537 43.9058 406.902 43.6422 407.014 43.2401C407.148 42.7575 406.863 42.2575 406.381 42.124C405.096 41.7687 405.01 39.835 405.01 39.8158C404.997 39.3148 404.58 38.925 404.079 38.9322C403.579 38.9452 403.183 39.3617 403.196 39.8625C403.201 39.9968 403.312 43.1574 405.896 43.8728C405.979 43.8951 406.06 43.9058 406.14 43.9058" fill="#72ACFF"/>
<path fill-rule="evenodd" clip-rule="evenodd" d="M418.021 179.039C418.513 179.039 418.918 178.644 418.928 178.149L419.267 160.882C419.278 160.381 418.879 159.967 418.378 159.957C417.881 159.947 417.463 160.346 417.453 160.847L417.113 178.114C417.103 178.614 417.502 179.028 418.003 179.038C418.008 179.039 418.013 179.039 418.021 179.039" fill="#2A0055"/>
<path fill-rule="evenodd" clip-rule="evenodd" d="M445.544 51.3531C445.63 51.3531 445.718 51.3407 445.803 51.3145C452.34 49.3563 456.13 45.6821 456.762 40.6897C456.827 40.1925 456.475 39.7384 455.977 39.6757C455.479 39.6119 455.026 39.9647 454.963 40.4616C454.419 44.7482 451.164 47.8151 445.282 49.5766C444.803 49.7204 444.531 50.2261 444.676 50.7059C444.792 51.0991 445.153 51.3531 445.544 51.3531" fill="#72ACFF"/>
<path fill-rule="evenodd" clip-rule="evenodd" d="M450.274 54.8982C450.372 54.8982 450.474 54.8819 450.575 54.8469C453.288 53.8935 455.336 52.189 456.655 49.7811C456.897 49.3417 456.736 48.7904 456.295 48.5496C455.857 48.3086 455.305 48.4695 455.064 48.9089C453.965 50.9125 452.254 52.3342 449.973 53.1349C449.502 53.3007 449.253 53.8186 449.419 54.2914C449.548 54.6647 449.898 54.8982 450.274 54.8982" fill="#72ACFF"/>
<path fill-rule="evenodd" clip-rule="evenodd" d="M421.916 38.7C422.255 38.7 422.582 38.5074 422.737 38.1792C423.917 35.6712 428.066 34.0976 429.565 33.7031C430.049 33.5756 430.34 33.0792 430.213 32.5948C430.083 32.1103 429.588 31.8211 429.103 31.9483C428.849 32.0152 422.875 33.6264 421.094 37.4058C420.881 37.8591 421.076 38.3998 421.529 38.6132C421.654 38.672 421.786 38.7 421.916 38.7" fill="#72ACFF"/>
<path fill-rule="evenodd" clip-rule="evenodd" d="M413.268 190.38L410.123 185.593C407.236 181.764 402.721 179.512 397.926 179.512H376.173L373.734 211.467H401.891C412.723 211.467 419.216 199.432 413.268 190.38" fill="#FFBFAA"/>
<path fill-rule="evenodd" clip-rule="evenodd" d="M410.603 182.725C410.811 182.725 411.021 182.654 411.192 182.509C411.573 182.185 411.619 181.612 411.295 181.23C408.216 177.604 403.719 175.525 398.963 175.525H377.208C376.708 175.525 376.301 175.931 376.301 176.432C376.301 176.933 376.708 177.339 377.208 177.339H398.963C403.188 177.339 407.177 179.186 409.911 182.405C410.093 182.616 410.347 182.725 410.603 182.725" fill="#2A0055"/>
<path fill-rule="evenodd" clip-rule="evenodd" d="M418.665 157.442C418.838 157.442 419.017 157.391 419.173 157.286C419.588 157.005 419.696 156.441 419.414 156.026C414.105 148.189 410.109 132.264 406.9 119.467C406.309 117.119 405.751 114.89 405.205 112.789L413.947 105.075C414.188 104.862 414.297 104.538 414.238 104.223C414.178 103.908 413.955 103.648 413.652 103.54L406.208 100.882L414.572 95.4031C414.989 95.1283 415.106 94.5661 414.834 94.147C414.556 93.7281 413.997 93.611 413.577 93.8855L403.688 100.364C403.401 100.553 403.242 100.888 403.284 101.23C403.325 101.572 403.556 101.862 403.88 101.977L411.594 104.731L403.585 111.798C403.328 112.025 403.222 112.376 403.307 112.708C403.896 114.957 404.5 117.363 405.14 119.909C408.385 132.843 412.423 148.941 417.913 157.043C418.087 157.302 418.372 157.442 418.665 157.442" fill="#2A0055"/>
<path fill-rule="evenodd" clip-rule="evenodd" d="M423.857 151.836C424.173 151.836 424.481 151.67 424.647 151.374C431.996 138.319 440.775 123.7 450.194 114.252C450.407 114.039 450.5 113.735 450.443 113.44C450.386 113.145 450.186 112.897 449.912 112.778L442.983 109.795L449.785 107.988C450.21 107.876 450.492 107.476 450.456 107.038L449.23 91.9431C449.191 91.4439 448.75 91.0696 448.253 91.1123C447.752 91.153 447.382 91.5906 447.421 92.09L448.587 106.43L439.984 108.715C439.611 108.814 439.341 109.139 439.313 109.525C439.284 109.911 439.505 110.272 439.86 110.425L447.98 113.922C438.763 123.529 430.233 137.75 423.066 150.484C422.82 150.921 422.975 151.474 423.411 151.72C423.553 151.799 423.704 151.836 423.857 151.836" fill="#2A0055"/>
<path fill-rule="evenodd" clip-rule="evenodd" d="M418.36 161.771C418.836 161.771 419.236 161.399 419.264 160.917C419.35 159.487 419.451 158.037 419.565 156.607C419.606 156.107 419.233 155.67 418.733 155.63C418.238 155.59 417.797 155.963 417.756 156.462C417.642 157.904 417.54 159.367 417.455 160.81C417.424 161.31 417.805 161.74 418.305 161.769C418.323 161.77 418.341 161.771 418.36 161.771" fill="#2A0055"/>
<path fill-rule="evenodd" clip-rule="evenodd" d="M424.764 165.242C424.764 166.671 425.925 167.833 427.353 167.833C428.781 167.833 429.942 166.671 429.942 165.242C429.942 163.815 428.781 162.653 427.353 162.653C425.925 162.653 424.764 163.815 424.764 165.242ZM422.949 165.242C422.949 162.814 424.924 160.838 427.353 160.838C429.782 160.838 431.757 162.814 431.757 165.242C431.757 167.671 429.782 169.647 427.353 169.647C424.924 169.647 422.949 167.671 422.949 165.242V165.242Z" fill="#2A0055"/>
<path fill-rule="evenodd" clip-rule="evenodd" d="M494.539 159.492C497.678 159.492 499.5 158.423 499.612 158.355C500.042 158.096 500.179 157.538 499.92 157.109C499.661 156.683 499.106 156.544 498.678 156.799C498.531 156.887 495.171 158.789 489.516 156.726C489.044 156.555 488.523 156.797 488.352 157.268C488.181 157.739 488.422 158.259 488.894 158.431C491.068 159.225 492.968 159.492 494.539 159.492" fill="white"/>
<path fill-rule="evenodd" clip-rule="evenodd" d="M466.969 95.8136L473.56 97.9663C482.124 101.29 488.832 108.159 491.956 116.805L513.672 191.727C515.649 198.546 510.556 205.365 503.456 205.404L431.469 211.467L416.793 178.131L464.1 172.892L451.598 113.531L466.969 95.8136" fill="#72ACFF"/>
<path fill-rule="evenodd" clip-rule="evenodd" d="M437.255 205.293C437.4 205.293 437.545 205.259 437.683 205.186C438.123 204.951 438.292 204.401 438.056 203.959L428.58 186.168C428.344 185.725 427.794 185.558 427.354 185.794C426.91 186.029 426.742 186.578 426.978 187.021L436.454 204.813C436.617 205.119 436.931 205.293 437.255 205.293" fill="#2A0055"/>
<path fill-rule="evenodd" clip-rule="evenodd" d="M466.177 170.405C466.324 170.405 466.475 170.369 466.612 170.293C467.05 170.051 467.211 169.499 466.97 169.06L461.019 158.261C460.964 158.166 460.897 158.082 460.814 158.011C460.726 157.933 451.713 149.993 450.295 135.167C450.246 134.669 449.806 134.299 449.305 134.351C448.805 134.398 448.44 134.841 448.489 135.34C449.901 150.13 458.313 158.199 459.505 159.274L465.381 169.936C465.544 170.236 465.855 170.405 466.177 170.405" fill="white"/>
<path fill-rule="evenodd" clip-rule="evenodd" d="M416.794 178.449C416.817 178.449 416.843 178.448 416.867 178.446L463.157 174.693C463.655 174.653 464.028 174.215 463.987 173.716C463.948 173.216 463.507 172.845 463.009 172.885L416.722 176.638C416.221 176.678 415.851 177.116 415.89 177.615C415.928 178.09 416.325 178.449 416.794 178.449" fill="white"/>
<path fill-rule="evenodd" clip-rule="evenodd" d="M390.32 164.478C390.805 164.478 391.206 164.093 391.225 163.604L391.595 153.39C391.598 153.279 391.582 153.169 391.546 153.064C388.493 144.115 387.414 134.805 388.337 125.394L389.257 116.026C389.306 115.527 388.944 115.083 388.443 115.034C387.948 114.986 387.5 115.349 387.453 115.848L386.533 125.217C385.587 134.832 386.678 144.343 389.776 153.491L389.413 163.538C389.395 164.039 389.786 164.459 390.286 164.477C390.297 164.478 390.307 164.478 390.32 164.478" fill="white"/>
<path fill-rule="evenodd" clip-rule="evenodd" d="M390.43 211.467H404.28L377.263 133.082H363.414L390.43 211.467" fill="#001E57"/>
<path fill-rule="evenodd" clip-rule="evenodd" d="M376.701 133.87H364.519L390.991 210.679H403.173L376.701 133.87ZM389.684 211.723L362.668 133.339C362.585 133.098 362.624 132.832 362.772 132.624C362.919 132.417 363.158 132.294 363.414 132.294H377.263C377.6 132.294 377.898 132.507 378.007 132.825L405.024 211.21C405.107 211.451 405.068 211.718 404.92 211.926C404.772 212.133 404.534 212.255 404.28 212.255H390.431C390.094 212.255 389.793 212.042 389.684 211.723V211.723Z" fill="#001E57"/>
<path fill-rule="evenodd" clip-rule="evenodd" d="M395.386 211.467L368.37 133.082H261.234L288.251 211.467H395.386" fill="white"/>
<path fill-rule="evenodd" clip-rule="evenodd" d="M288.249 212.374C288.347 212.374 288.446 212.359 288.544 212.325C289.019 212.162 289.27 211.646 289.107 211.171L282.453 191.865C282.29 191.392 281.774 191.139 281.3 191.303C280.825 191.467 280.574 191.983 280.737 192.457L287.391 211.762C287.521 212.138 287.873 212.374 288.249 212.374" fill="#001E57"/>
<path fill-rule="evenodd" clip-rule="evenodd" d="M395.384 212.374C395.479 212.374 395.581 212.359 395.679 212.325C396.151 212.162 396.405 211.646 396.241 211.171L369.225 132.786C369.098 132.421 368.753 132.175 368.367 132.175H261.232C260.939 132.175 260.664 132.317 260.493 132.555C260.322 132.794 260.278 133.1 260.374 133.377L264.964 146.693C265.125 147.166 265.644 147.417 266.118 147.255C266.59 147.091 266.841 146.575 266.678 146.101L262.505 133.989H367.719L394.526 211.762C394.655 212.138 395.005 212.374 395.384 212.374" fill="#001E57"/>
<path fill-rule="evenodd" clip-rule="evenodd" d="M332.465 188.761C336.444 188.761 339.785 187.227 341.874 184.441C344.077 181.5 344.616 177.574 343.39 173.386C340.993 165.189 332.361 158.521 324.15 158.521C321.366 158.521 318.854 159.284 316.882 160.727C316.478 161.023 316.39 161.591 316.685 161.995C316.98 162.4 317.548 162.487 317.952 162.191C319.611 160.977 321.755 160.335 324.15 160.335C331.612 160.335 339.461 166.419 341.649 173.896C342.711 177.522 342.273 180.88 340.423 183.352C338.686 185.67 335.858 186.947 332.465 186.947C326.265 186.947 319.637 182.735 316.348 176.705C316.107 176.265 315.557 176.103 315.117 176.344C314.676 176.583 314.515 177.135 314.757 177.575C318.349 184.161 325.633 188.761 332.465 188.761" fill="#001E57"/>
<path fill-rule="evenodd" clip-rule="evenodd" d="M324.151 160.335C324.252 160.335 324.353 160.319 324.454 160.283C324.926 160.116 325.172 159.597 325.007 159.125L322.64 152.46C322.474 151.987 321.956 151.74 321.481 151.908C321.01 152.076 320.763 152.594 320.932 153.066L323.296 159.732C323.428 160.103 323.778 160.335 324.151 160.335" fill="#001E57"/>
<path fill-rule="evenodd" clip-rule="evenodd" d="M398.281 211.464H457.687L453.753 204.38H398.281V211.464" fill="#001E57"/>
<path fill-rule="evenodd" clip-rule="evenodd" d="M453.311 205.129H399.029V210.715H456.416L453.311 205.129ZM397.531 211.464V204.38C397.531 203.968 397.868 203.633 398.28 203.633H453.752C454.024 203.633 454.275 203.78 454.408 204.018L458.342 211.099C458.469 211.332 458.467 211.615 458.332 211.843C458.197 212.071 457.951 212.211 457.686 212.211H398.28C397.868 212.211 397.531 211.876 397.531 211.464V211.464Z" fill="#001E57"/>
<path fill-rule="evenodd" clip-rule="evenodd" d="M427.963 85.2004C437.637 85.2004 444.275 75.2412 444.555 74.813C444.83 74.3938 444.713 73.8316 444.293 73.5569C443.876 73.2824 443.313 73.3995 443.038 73.8179C442.974 73.9156 436.533 83.5651 427.707 83.3834C427.702 83.3832 427.694 83.3832 427.689 83.3832C427.196 83.3832 426.792 83.7769 426.781 84.2714C426.771 84.7725 427.168 85.1869 427.671 85.1973C427.766 85.1994 427.865 85.2004 427.963 85.2004" fill="white"/>
<path fill-rule="evenodd" clip-rule="evenodd" d="M421.985 85.1976H427.69C428.191 85.1976 428.598 84.7914 428.598 84.2904C428.598 83.7893 428.191 83.3832 427.69 83.3832H421.985C421.485 83.3832 421.078 83.7893 421.078 84.2904C421.078 84.7914 421.485 85.1976 421.985 85.1976" fill="#2A0055"/>
<path fill-rule="evenodd" clip-rule="evenodd" d="M424.836 95.5249C424.948 95.5249 425.062 95.5042 425.168 95.4625L429.691 93.6921C430.158 93.5096 430.388 92.9835 430.207 92.5166C430.023 92.0501 429.497 91.8199 429.03 92.0024L424.937 93.604L422.574 92.084C422.154 91.8134 421.591 91.9353 421.319 92.3567C421.049 92.7782 421.171 93.3396 421.594 93.6105L424.346 95.3808C424.494 95.4762 424.665 95.5249 424.836 95.5249" fill="#2A0055"/>
<path fill-rule="evenodd" clip-rule="evenodd" d="M228.631 212.322H524.567C525.07 212.322 525.475 211.915 525.475 211.415C525.475 210.915 525.07 210.508 524.567 210.508H231.671L236.547 207.314C236.967 207.04 237.083 206.477 236.809 206.057C236.534 205.637 235.972 205.521 235.554 205.796L228.133 210.656C227.799 210.876 227.646 211.291 227.76 211.674C227.877 212.06 228.229 212.322 228.631 212.322" fill="#001E57"/>
<path fill-rule="evenodd" clip-rule="evenodd" d="M248.191 173.688H274.827L271.514 210.635H251.504L248.191 173.688" fill="#006BFF"/>
<path fill-rule="evenodd" clip-rule="evenodd" d="M259.814 166.293C260.275 166.293 260.669 165.944 260.716 165.477C260.726 165.384 261.532 156.201 251.436 154.479C244 153.211 243.056 147.971 242.432 144.504C242.328 143.924 242.237 143.422 242.123 142.995C241.994 142.511 241.496 142.223 241.014 142.351C240.529 142.48 240.241 142.977 240.371 143.461C240.464 143.817 240.55 144.284 240.646 144.825C241.273 148.306 242.439 154.786 251.13 156.268C259.578 157.708 258.943 164.985 258.911 165.295C258.86 165.793 259.225 166.238 259.723 166.288C259.754 166.291 259.785 166.293 259.814 166.293" fill="#006BFF"/>
<path fill-rule="evenodd" clip-rule="evenodd" d="M265.605 167.55C265.997 167.55 266.354 167.298 266.473 166.906C267.067 164.959 268.63 163.647 270.286 162.258C270.442 162.127 270.597 161.996 270.753 161.866C273.627 159.43 274.527 156.699 273.506 153.515C273.353 153.038 272.839 152.776 272.363 152.929C271.886 153.082 271.624 153.593 271.777 154.07C272.572 156.543 271.893 158.521 269.579 160.481C269.426 160.61 269.273 160.739 269.12 160.868C267.334 162.366 265.486 163.916 264.739 166.379C264.592 166.858 264.864 167.365 265.343 167.511C265.429 167.538 265.52 167.55 265.605 167.55" fill="#006BFF"/>
<path fill-rule="evenodd" clip-rule="evenodd" d="M252.452 198.758C252.952 198.758 253.359 198.351 253.359 197.85C253.359 197.35 252.952 196.943 252.452 196.943C247.62 196.943 243.561 193.48 242.802 188.708L242.193 184.88C242.05 183.975 242.307 183.055 242.903 182.358C243.499 181.66 244.365 181.26 245.282 181.26H255.142C255.643 181.26 256.05 180.854 256.05 180.353C256.05 179.852 255.643 179.446 255.142 179.446H245.282C243.833 179.446 242.462 180.078 241.521 181.18C240.583 182.282 240.174 183.735 240.402 185.166L241.011 188.993C241.91 194.651 246.724 198.758 252.452 198.758" fill="#006BFF"/>
<path fill-rule="evenodd" clip-rule="evenodd" d="M226.909 261.07V261.07C228.669 259.243 229.135 256.467 228.042 254.152C226.67 251.246 224.478 248.789 221.704 247.133L217.363 250.158L216.93 251.671L226.909 261.07" fill="#FFBFAA"/>
<path fill-rule="evenodd" clip-rule="evenodd" d="M150.975 301.935C153.347 303.094 155.965 303.703 158.645 303.682L209.24 283.594L195.089 267.265L176.935 267.4L174.271 235.057L142.664 247.4L140.964 284.766C140.739 289.725 142.505 294.559 145.849 298.136C147.336 299.727 149.077 301.007 150.975 301.935" fill="#FFBFAA"/>
<path fill-rule="evenodd" clip-rule="evenodd" d="M163.613 150.434C163.458 150.452 163.307 150.492 163.156 150.55L163.613 150.434" fill="#2A0055"/>
<path fill-rule="evenodd" clip-rule="evenodd" d="M105.826 234.069C121.118 236.495 137.207 240.329 152.975 240.741C156.613 240.837 160.232 240.751 163.82 240.425C167.802 240.062 172.124 239.287 175.69 237.237C177.209 236.368 178.589 235.269 179.745 233.867C186.104 226.163 185.399 213.553 180.874 205.122C175.15 194.46 164.423 187.526 161.268 175.285C159.809 169.606 155.866 155.786 162.071 151.187C162.398 150.948 162.763 150.695 163.157 150.55L105.294 164.988C105.294 164.988 121.371 190.525 95.0433 195.992C68.7192 201.456 58.5756 226.573 105.826 234.069" fill="#72ACFF"/>
<path fill-rule="evenodd" clip-rule="evenodd" d="M142.154 193.812H142.233C149.075 193.81 154.619 188.263 154.618 181.421L154.612 154.283L120.875 154.291L120.879 172.547C120.882 184.294 130.407 193.815 142.154 193.812" fill="#FFBFAA"/>
<path fill-rule="evenodd" clip-rule="evenodd" d="M82.3281 331.082L88.2483 331.08L97.9397 331.077H104.282L110.221 331.075L140.106 331.07L115.228 289.354C112.502 292.983 109.192 296.578 105.708 300.225C104.233 301.775 102.725 303.33 101.216 304.903C100.905 305.227 100.594 305.554 100.283 305.878C98.1108 308.154 95.9517 310.468 93.9014 312.837C88.9947 318.509 84.705 324.504 82.3281 331.082" fill="#72ACFF"/>
<path fill-rule="evenodd" clip-rule="evenodd" d="M100.684 300.354L103.953 328.278L104.282 331.077L110.221 331.075L140.105 331.07L143.631 331.067L159.803 331.064C159.856 321.456 159.517 312.309 158.738 303.646C158.72 303.447 158.702 303.25 158.682 303.05C158.554 301.64 158.411 300.243 158.258 298.861L146.883 299.157L121.467 299.815L105.707 300.225L100.684 300.354" fill="#72ACFF"/>
<path fill-rule="evenodd" clip-rule="evenodd" d="M152.977 240.741L152.985 278.665L180.109 267.379L175.692 237.237C172.125 239.287 167.803 240.062 163.821 240.425C160.234 240.751 156.614 240.837 152.977 240.741" fill="#006BFF"/>
<path fill-rule="evenodd" clip-rule="evenodd" d="M36.2906 283.88L77.0394 331.082H82.3271L88.2472 331.08L97.9387 331.077L101.884 328.514L74.9295 275.585L77.5293 273.524L95.1808 259.554L73.7476 230.909L39.2507 258.214C35.5052 261.181 33.0765 265.577 32.5218 270.406C31.962 275.238 33.3228 280.093 36.2906 283.88" fill="#FFBFAA"/>
<path fill-rule="evenodd" clip-rule="evenodd" d="M116.508 147.846L118.887 227.068L142.707 227.063L141.89 219.108V219.103L134.564 147.842L116.508 147.846" fill="#FFBFAA"/>
<path fill-rule="evenodd" clip-rule="evenodd" d="M44.1289 247.071L82.2653 277.275L91.5446 269.385L100.624 307.301L157.274 307.739L159.609 299.963L160.139 298.203L173.862 252.496C173.929 252.221 173.993 251.946 174.048 251.671C175.702 243.831 173.423 235.757 168.319 229.87C167.932 229.422 167.528 228.986 167.106 228.564C166.537 227.996 165.943 227.452 165.317 226.936L157.953 220.853L152.442 216.301L150.684 214.847L140.593 206.511L141.783 217.05L115.209 204.414L109.215 208.012L107.693 208.922L100.121 213.471L98.5995 214.383L82.7313 223.906L81.0271 224.93L79.4636 225.865L72.8962 229.808L44.1289 247.071" fill="#006BFF"/>
<path fill-rule="evenodd" clip-rule="evenodd" d="M167.912 273.221C168.302 273.221 168.662 272.967 168.78 272.576L174.732 252.755C174.737 252.739 174.741 252.724 174.745 252.711C174.814 252.426 174.878 252.143 174.938 251.858C175.988 246.876 175.538 241.705 173.637 236.905C173.453 236.438 172.925 236.21 172.459 236.394C171.993 236.578 171.765 237.107 171.95 237.571C173.72 242.04 174.139 246.85 173.163 251.485C173.108 251.741 173.05 252.001 172.987 252.257L167.042 272.052C166.898 272.534 167.171 273.04 167.65 273.182C167.737 273.208 167.825 273.221 167.912 273.221" fill="white"/>
<path fill-rule="evenodd" clip-rule="evenodd" d="M139.848 199.25L141.89 219.103L144.987 204.406L139.848 199.25" fill="white"/>
<path fill-rule="evenodd" clip-rule="evenodd" d="M162.461 255.409C168.98 255.409 174.058 253.193 174.375 253.053C174.832 252.848 175.038 252.312 174.834 251.855C174.63 251.397 174.094 251.192 173.636 251.397C173.49 251.461 162.463 256.239 152.454 251.412C152.002 251.194 151.46 251.384 151.243 251.835C151.025 252.286 151.214 252.827 151.665 253.045C155.343 254.818 159.094 255.409 162.461 255.409" fill="white"/>
<path fill-rule="evenodd" clip-rule="evenodd" d="M132.574 255.417C139.093 255.417 144.171 253.201 144.489 253.058C144.946 252.856 145.152 252.319 144.947 251.861C144.743 251.404 144.207 251.197 143.749 251.402C143.603 251.467 132.576 256.244 122.567 251.42C122.116 251.2 121.573 251.391 121.356 251.842C121.138 252.293 121.328 252.835 121.779 253.053C125.456 254.826 129.207 255.417 132.574 255.417" fill="white"/>
<path fill-rule="evenodd" clip-rule="evenodd" d="M143.634 331.974C143.989 331.974 144.325 331.764 144.471 331.417C145.339 329.338 146.05 327.044 146.584 324.597C146.914 323.084 147.186 321.51 147.418 319.784C147.485 319.289 147.136 318.833 146.64 318.765C146.14 318.695 145.687 319.048 145.62 319.543C145.395 321.22 145.13 322.744 144.811 324.211C144.301 326.549 143.623 328.739 142.797 330.717C142.604 331.178 142.822 331.71 143.284 331.904C143.398 331.951 143.517 331.974 143.634 331.974" fill="white"/>
<path fill-rule="evenodd" clip-rule="evenodd" d="M140.133 163.958C135.042 163.396 130.191 161.678 128.607 157.422C128.607 157.422 130.294 169.726 119.928 174.33C116.621 175.798 111.874 176.452 108.791 174.129C103.906 170.45 105.189 162.945 106.443 157.782C112.082 134.564 138.123 130.274 156.442 140.146C163.138 143.755 167.358 151.007 161.074 157.385C155.831 162.708 147.289 164.748 140.133 163.958" fill="#72ACFF"/>
<path fill-rule="evenodd" clip-rule="evenodd" d="M116.786 178.839V178.839C120.323 178.839 123.19 175.889 123.189 172.25L123.189 169.908C123.188 166.27 120.32 163.321 116.782 163.322C113.245 163.323 110.378 166.273 110.379 169.911L110.379 172.253C110.38 175.891 113.249 178.84 116.786 178.839" fill="#FFBFAA"/>
<path fill-rule="evenodd" clip-rule="evenodd" d="M114.697 173.779C114.915 173.779 115.134 173.7 115.309 173.541L119.486 169.72C119.855 169.382 119.881 168.808 119.543 168.439C119.205 168.069 118.631 168.043 118.261 168.381L114.084 172.202C113.714 172.54 113.689 173.114 114.027 173.484C114.206 173.679 114.451 173.779 114.697 173.779" fill="#2A0055"/>
<path fill-rule="evenodd" clip-rule="evenodd" d="M139.343 194.566C139.794 194.566 140.186 194.229 140.242 193.769C140.303 193.272 139.949 192.819 139.452 192.759C136.011 192.337 132.718 190.989 129.926 188.861C129.527 188.557 128.958 188.635 128.655 189.033C128.351 189.432 128.428 190.001 128.826 190.304C131.873 192.627 135.472 194.099 139.231 194.559C139.269 194.564 139.306 194.566 139.343 194.566" fill="#2A0055"/>
<path fill-rule="evenodd" clip-rule="evenodd" d="M141.888 215.974L118.088 198.539L113.492 209.715L141.889 220.793L141.888 215.974" fill="white"/>
<path fill-rule="evenodd" clip-rule="evenodd" d="M208.351 275.684L181.996 275.689L194.111 238.263L221.428 238.258L208.351 275.684" fill="#006BFF"/>
<path fill-rule="evenodd" clip-rule="evenodd" d="M214.86 275.681L188.504 275.689L200.62 238.263L227.934 238.255L214.86 275.681" fill="#006BFF"/>
<path fill-rule="evenodd" clip-rule="evenodd" d="M209.381 254.852L223.406 254.696C227.375 254.652 230.293 258.504 229.28 262.449L225.814 275.961C224.71 280.269 220.983 283.32 216.654 283.46L199.669 284.009L198.391 284.025C196.208 284.048 194.618 281.91 195.211 279.748L200.032 262.211C201.216 257.897 205.024 254.901 209.381 254.852" fill="#FFBFAA"/>
<path fill-rule="evenodd" clip-rule="evenodd" d="M88.25 331.08L97.941 331.077H104.284L110.223 331.075L103.955 328.278L101.123 327.013L100.803 326.87C100.743 326.811 100.658 326.793 100.58 326.813L88.25 331.08" fill="#FFBFAA"/>
<path fill-rule="evenodd" clip-rule="evenodd" d="M128.607 158.329C129.009 158.329 129.376 158.06 129.484 157.653C129.539 157.445 130.819 152.492 129.823 147.66C129.722 147.169 129.244 146.853 128.751 146.955C128.261 147.056 127.945 147.535 128.046 148.026C128.954 152.431 127.742 157.144 127.729 157.191C127.602 157.675 127.891 158.171 128.376 158.299C128.453 158.319 128.531 158.329 128.607 158.329" fill="white"/>
<path fill-rule="evenodd" clip-rule="evenodd" d="M91.5447 270.295C91.714 270.295 91.885 270.246 92.0374 270.147L93.9309 268.913L116.574 254.126C116.994 253.851 117.112 253.289 116.838 252.869C116.564 252.452 116.002 252.332 115.582 252.607L91.0507 268.626C90.6302 268.898 90.5102 269.46 90.7827 269.88C90.9563 270.147 91.2477 270.295 91.5447 270.295" fill="white"/>
<path fill-rule="evenodd" clip-rule="evenodd" d="M8.10642 332.005H8.10668L18.2194 332.003C18.7201 332.003 19.1263 331.596 19.1263 331.095C19.1263 330.595 18.7199 330.188 18.2191 330.188H18.2188L8.10616 330.191C7.60513 330.191 7.19922 330.598 7.19922 331.098C7.19948 331.601 7.60539 332.005 8.10642 332.005" fill="#2A0055"/>
<path fill-rule="evenodd" clip-rule="evenodd" d="M27.5009 332.008C27.5009 332.008 27.5009 332.008 27.5012 332.008L37.0647 332.005C37.5654 332.005 37.9716 331.598 37.9716 331.098C37.9716 330.595 37.5652 330.191 37.0644 330.191C37.0644 330.191 37.0644 330.191 37.0641 330.191L27.5007 330.194C26.9999 330.194 26.5938 330.598 26.5938 331.101C26.5938 331.601 27.0002 332.008 27.5009 332.008" fill="#2A0055"/>
<path fill-rule="evenodd" clip-rule="evenodd" d="M48.7783 331.997H48.7786L110.222 331.982L159.804 331.971L201.713 331.961C202.214 331.961 202.62 331.554 202.62 331.054C202.62 330.551 202.214 330.147 201.713 330.147L143.632 330.16L140.107 330.162L77.0415 330.175L48.778 330.183C48.2773 330.183 47.8708 330.587 47.8711 331.09C47.8711 331.59 48.2775 331.997 48.7783 331.997" fill="#2A0055"/>
<path fill-rule="evenodd" clip-rule="evenodd" d="M209.239 331.959V331.959L233.513 331.953C234.016 331.953 234.421 331.546 234.421 331.046C234.421 330.543 234.016 330.139 233.513 330.139L209.239 330.144C208.739 330.144 208.332 330.551 208.332 331.051C208.332 331.552 208.739 331.959 209.239 331.959" fill="#2A0055"/>
<path fill-rule="evenodd" clip-rule="evenodd" d="M100.688 308.732H160.259C160.76 308.732 161.166 308.325 161.166 307.824C161.166 307.324 160.76 306.917 160.259 306.917H100.688C100.187 306.917 99.7812 307.324 99.7812 307.824C99.7812 308.325 100.187 308.732 100.688 308.732" fill="white"/>
<path fill-rule="evenodd" clip-rule="evenodd" d="M72.728 124.066L72.5357 123.928L72.1886 123.676C72.1837 123.664 71.2257 122.963 71.2257 122.963L39.1406 99.4381L45.3402 84.6914L72.1583 123.036C72.1713 123.052 72.6946 123.802 72.6946 123.802L72.728 124.066" fill="#72ACFF"/>
<path fill-rule="evenodd" clip-rule="evenodd" d="M72.7294 124.384L72.6806 124.385L49.1953 90.4519L56.266 87.2985L72.7294 124.384" fill="#72ACFF"/>
<path fill-rule="evenodd" clip-rule="evenodd" d="M72.188 123.676L72.6805 124.385L72.6211 124.388L71.2251 122.963L33.8438 84.862L45.3395 84.6914L49.2592 90.3881L72.1831 123.664L72.188 123.676" fill="#CFE4FF"/>
<path fill-rule="evenodd" clip-rule="evenodd" d="M72.7786 124.386L72.7303 124.385L72.5372 123.928L72.1728 123.052C72.1598 123.036 56.2266 87.5804 56.2266 87.5804L56.3818 87.5784L65.6112 90.0799L72.6961 123.802L72.7296 124.066L72.7786 124.386" fill="#CFE4FF"/>
<path fill-rule="evenodd" clip-rule="evenodd" d="M127.999 24.2431H133.025V22.4287H127.999V24.2431ZM117.946 24.2431H122.973V22.4287H117.946V24.2431ZM107.894 24.2431H112.92V22.4287H107.894V24.2431ZM97.8407 24.2431H102.867V22.4287H97.8407V24.2431ZM87.7882 24.2431H92.8146V22.4287H87.7882V24.2431ZM77.7356 24.2431H82.7618V22.4287H77.7356V24.2431ZM67.5584 23.698C69.2056 23.2501 70.9055 22.9165 72.6115 22.7063L72.8334 24.507C71.2131 24.7068 69.5983 25.0238 68.0343 25.4489L67.5584 23.698ZM58.131 27.7942C59.5906 26.8908 61.1274 26.0865 62.6982 25.4041L63.4211 27.0681C61.9299 27.7161 60.4714 28.4795 59.0859 29.3369L58.131 27.7942ZM50.2488 34.3877C51.396 33.1127 52.6427 31.9095 53.9548 30.8112L55.1191 32.2026C53.8724 33.2459 52.6876 34.3895 51.5974 35.601L50.2488 34.3877ZM44.514 42.9089C45.2612 41.3692 46.1252 39.8682 47.0816 38.447L48.5868 39.46C47.6775 40.8109 46.8564 42.2378 46.1462 43.701L44.514 42.9089ZM41.381 52.6875C41.6651 51.0029 42.0749 49.3205 42.5987 47.6867L44.3266 48.2406C43.8289 49.7925 43.4398 51.3899 43.17 52.9892L41.381 52.6875ZM40.8828 58.6283C40.8826 58.3562 40.8857 58.0843 40.8919 57.8131L42.7058 57.8549C42.7001 58.1117 42.697 58.3689 42.6972 58.6273C42.6972 59.9943 42.7815 61.3779 42.9476 62.7395L41.1464 62.9593C40.9715 61.5249 40.8828 60.0674 40.8828 58.6283ZM42.9805 70.7444C42.663 69.8465 42.3776 68.9276 42.1314 68.014L43.8836 67.5425C44.1177 68.4116 44.389 69.2856 44.691 70.1402L45.1469 71.4305L43.4362 72.0347L42.9805 70.7444V70.7444Z" fill="#CFE4FF"/>
<path fill-rule="evenodd" clip-rule="evenodd" d="M188.505 276.596C188.888 276.596 189.244 276.352 189.368 275.969L201.484 238.543C201.637 238.066 201.375 237.553 200.898 237.4C200.424 237.244 199.911 237.506 199.758 237.983L187.642 275.409C187.488 275.886 187.749 276.396 188.226 276.552C188.318 276.581 188.413 276.596 188.505 276.596" fill="white"/>
<path fill-rule="evenodd" clip-rule="evenodd" d="M124.096 62.5125L130.043 66.3007C130.908 64.6778 131.383 62.8678 131.423 61.0148C131.493 57.8645 130.332 54.8767 128.154 52.6012C125.976 50.3249 123.042 49.0336 119.893 48.9641C114.582 48.8516 109.857 52.3212 108.343 57.3388L115.229 58.8505C115.989 57.0921 117.763 55.921 119.738 55.9612C121.018 55.9889 122.212 56.5141 123.098 57.4399C123.983 58.3658 124.455 59.5809 124.427 60.8611C124.414 61.4306 124.301 61.9897 124.096 62.5125ZM130.349 68.4793C130.183 68.4793 130.014 68.4334 129.863 68.3372L122.43 63.6029C122.008 63.3336 121.883 62.773 122.152 62.3505C122.442 61.8961 122.601 61.3671 122.613 60.8207C122.631 60.0249 122.337 59.2699 121.786 58.6942C121.236 58.1188 120.494 57.7924 119.698 57.7751C118.283 57.7365 117.025 58.7243 116.721 60.1068C116.614 60.5962 116.131 60.9067 115.641 60.7984L107.033 58.9088C106.544 58.8015 106.234 58.3176 106.342 57.8282C107.731 51.4983 113.453 47.0064 119.932 47.1502C123.566 47.2303 126.951 48.7204 129.465 51.3467C131.978 53.9724 133.318 57.42 133.237 61.0545C133.182 63.5438 132.449 65.9661 131.115 68.0594C130.942 68.331 130.649 68.4793 130.349 68.4793V68.4793Z" fill="#CFE4FF"/>
<path fill-rule="evenodd" clip-rule="evenodd" d="M319.702 114.922C318.43 114.922 317.152 114.696 315.923 114.241C314.054 113.551 312.413 112.365 311.18 110.812L315.236 107.586C315.882 108.397 316.74 109.017 317.719 109.378C319.147 109.906 320.698 109.846 322.082 109.209C323.466 108.573 324.518 107.435 325.044 106.006C325.988 103.455 324.99 100.579 322.675 99.1657L325.376 94.7404C329.801 97.4407 331.706 102.934 329.907 107.802C328.901 110.53 326.89 112.702 324.249 113.918C322.8 114.586 321.252 114.922 319.702 114.922" fill="#CFE4FF"/>
<path fill-rule="evenodd" clip-rule="evenodd" d="M191.414 185.057L187.699 179.747L204.945 167.68L208.659 172.99L191.414 185.057" fill="#CFE4FF"/>
<path fill-rule="evenodd" clip-rule="evenodd" d="M498.271 230.35L491.607 238.74L507.89 251.671L514.551 243.281L498.271 230.35ZM489.557 239.357C489.489 239.245 489.445 239.121 489.432 238.989C489.404 238.75 489.471 238.509 489.621 238.323L497.413 228.512C497.724 228.118 498.297 228.053 498.688 228.364L516.392 242.426C516.578 242.573 516.7 242.794 516.729 243.032C516.754 243.271 516.687 243.512 516.537 243.698L508.745 253.509C508.595 253.698 508.377 253.82 508.139 253.846C507.9 253.875 507.659 253.805 507.47 253.657L489.769 239.595C489.684 239.53 489.611 239.447 489.557 239.357V239.357Z" fill="#CFE4FF"/>
<path fill-rule="evenodd" clip-rule="evenodd" d="M236.048 217.592C236.333 217.592 236.611 217.46 236.789 217.211C237.08 216.801 236.984 216.236 236.574 215.946L229.153 210.676C228.746 210.386 228.179 210.482 227.889 210.891C227.601 211.298 227.697 211.866 228.104 212.156L235.525 217.423C235.683 217.537 235.867 217.592 236.048 217.592" fill="#001E57"/>
<path fill-rule="evenodd" clip-rule="evenodd" d="M161.023 108.699H268.964V45.5234H161.023V108.699Z" fill="#72ACFF"/>
<path fill-rule="evenodd" clip-rule="evenodd" d="M207.629 108.436L218.645 125.647L229.658 108.358L207.629 108.436" fill="#72ACFF"/>
<path fill-rule="evenodd" clip-rule="evenodd" d="M161.023 55.6911C160.851 55.6911 160.679 55.6226 160.552 55.4876C160.306 55.2273 160.318 54.817 160.578 54.5716L170.672 45.0519C170.933 44.8065 171.343 44.8187 171.588 45.0789C171.834 45.3391 171.822 45.7494 171.561 45.9949L161.468 55.5143C161.342 55.6325 161.182 55.6911 161.023 55.6911" fill="#CFE4FF"/>
<path fill-rule="evenodd" clip-rule="evenodd" d="M161.023 69.0894C160.851 69.0894 160.679 69.0209 160.552 68.8859C160.306 68.6254 160.318 68.2153 160.578 67.9699L184.879 45.0519C185.14 44.8065 185.55 44.8187 185.795 45.0789C186.041 45.3391 186.029 45.7494 185.768 45.9949L161.468 68.9126C161.342 69.0308 161.182 69.0894 161.023 69.0894" fill="#CFE4FF"/>
<path fill-rule="evenodd" clip-rule="evenodd" d="M161.023 82.4897C160.851 82.4897 160.679 82.4216 160.552 82.2865C160.306 82.026 160.318 81.616 160.578 81.3703L199.086 45.0519C199.348 44.8065 199.757 44.8187 200.003 45.0789C200.247 45.3391 200.237 45.7494 199.975 45.9949L161.468 82.3132C161.342 82.4314 161.182 82.4897 161.023 82.4897" fill="#CFE4FF"/>
<path fill-rule="evenodd" clip-rule="evenodd" d="M161.023 95.8881C160.851 95.8881 160.679 95.8199 160.552 95.6846C160.306 95.4243 160.318 95.0143 160.578 94.7686L213.293 45.0519C213.554 44.8065 213.964 44.8187 214.21 45.0789C214.456 45.3391 214.443 45.7494 214.184 45.9949L161.468 95.7115C161.342 95.8297 161.182 95.8881 161.023 95.8881" fill="#CFE4FF"/>
<path fill-rule="evenodd" clip-rule="evenodd" d="M161.023 109.286C160.851 109.286 160.679 109.218 160.552 109.083C160.306 108.823 160.318 108.412 160.578 108.167L227.502 45.0519C227.761 44.8065 228.171 44.8187 228.417 45.0789C228.663 45.3391 228.65 45.7494 228.391 45.9949L161.468 109.11C161.342 109.228 161.182 109.286 161.023 109.286" fill="#CFE4FF"/>
<path fill-rule="evenodd" clip-rule="evenodd" d="M175.168 109.346C174.995 109.346 174.824 109.278 174.696 109.143C174.45 108.883 174.463 108.472 174.723 108.227L241.708 45.0519C241.967 44.8065 242.379 44.8187 242.623 45.0789C242.869 45.3391 242.856 45.7494 242.597 45.9949L175.612 109.17C175.487 109.288 175.327 109.346 175.168 109.346" fill="#CFE4FF"/>
<path fill-rule="evenodd" clip-rule="evenodd" d="M189.375 109.346C189.202 109.346 189.031 109.278 188.903 109.143C188.658 108.883 188.67 108.472 188.93 108.227L255.914 45.0519C256.176 44.8065 256.586 44.8187 256.832 45.0789C257.076 45.3391 257.065 45.7494 256.804 45.9949L189.819 109.17C189.694 109.288 189.534 109.346 189.375 109.346" fill="#CFE4FF"/>
<path fill-rule="evenodd" clip-rule="evenodd" d="M203.582 109.346C203.411 109.346 203.237 109.278 203.11 109.143C202.864 108.883 202.877 108.472 203.136 108.227L268.517 46.5659C268.779 46.3202 269.188 46.3324 269.435 46.5926C269.678 46.8529 269.668 47.2632 269.406 47.5087L204.025 109.17C203.901 109.288 203.743 109.346 203.582 109.346" fill="#CFE4FF"/>
<path fill-rule="evenodd" clip-rule="evenodd" d="M211.559 115.224C211.385 115.224 211.214 115.156 211.087 115.021C210.841 114.76 210.854 114.35 211.113 114.105L268.518 59.9639C268.777 59.7187 269.189 59.7304 269.436 59.9909C269.679 60.2511 269.669 60.6614 269.407 60.9069L212.002 115.048C211.878 115.166 211.717 115.224 211.559 115.224" fill="#CFE4FF"/>
<path fill-rule="evenodd" clip-rule="evenodd" d="M231.999 109.346C231.828 109.346 231.657 109.278 231.527 109.143C231.283 108.883 231.294 108.472 231.556 108.227L268.518 73.3646C268.777 73.1192 269.189 73.1308 269.435 73.3916C269.679 73.6518 269.668 74.0621 269.407 74.3076L232.445 109.17C232.318 109.288 232.16 109.346 231.999 109.346" fill="#CFE4FF"/>
<path fill-rule="evenodd" clip-rule="evenodd" d="M216.906 123.58C216.735 123.58 216.561 123.512 216.434 123.377C216.188 123.116 216.201 122.706 216.463 122.461L225.584 113.859C225.846 113.614 226.255 113.626 226.499 113.886C226.745 114.146 226.732 114.556 226.473 114.802L217.349 123.403C217.225 123.522 217.067 123.58 216.906 123.58" fill="#CFE4FF"/>
<path fill-rule="evenodd" clip-rule="evenodd" d="M246.203 109.346C246.03 109.346 245.859 109.278 245.732 109.143C245.485 108.883 245.498 108.472 245.757 108.227L268.515 86.763C268.777 86.5175 269.187 86.5294 269.433 86.7899C269.676 87.0502 269.666 87.4602 269.404 87.7059L246.647 109.17C246.522 109.288 246.361 109.346 246.203 109.346" fill="#CFE4FF"/>
<path fill-rule="evenodd" clip-rule="evenodd" d="M260.414 109.346C260.241 109.346 260.069 109.278 259.942 109.143C259.696 108.883 259.709 108.473 259.968 108.227L268.517 100.163C268.779 99.9181 269.188 99.9295 269.434 100.19C269.678 100.451 269.668 100.861 269.406 101.106L260.857 109.17C260.733 109.288 260.572 109.346 260.414 109.346" fill="#CFE4FF"/>
<path fill-rule="evenodd" clip-rule="evenodd" d="M189.376 37.0919H165.554C165.196 37.0919 164.906 36.8019 164.906 36.4439C164.906 36.0859 165.196 35.7959 165.554 35.7959H189.376C189.734 35.7959 190.024 36.0859 190.024 36.4439C190.024 36.8019 189.734 37.0919 189.376 37.0919" fill="#006BFF"/>
<path fill-rule="evenodd" clip-rule="evenodd" d="M276.631 55.2509C276.273 55.2509 275.983 54.9609 275.983 54.6029V37.0919H254.441C254.083 37.0919 253.793 36.8019 253.793 36.4439C253.793 36.0859 254.083 35.7959 254.441 35.7959H277.279V54.6029C277.279 54.9609 276.989 55.2509 276.631 55.2509" fill="#006BFF"/>
<path fill-rule="evenodd" clip-rule="evenodd" d="M214.598 137.941L203.035 119.877C202.843 119.575 202.931 119.174 203.232 118.982C203.535 118.788 203.934 118.877 204.126 119.178L214.595 135.533L216.545 132.473C216.736 132.172 217.136 132.083 217.439 132.275C217.739 132.467 217.83 132.868 217.636 133.17L214.598 137.941" fill="#006BFF"/>
<path fill-rule="evenodd" clip-rule="evenodd" d="M355.887 309.978H489.421V251.171H355.887V309.978Z" fill="#72ACFF"/>
<path fill-rule="evenodd" clip-rule="evenodd" d="M439.644 251.366L423.278 233.043L417.617 251.443L439.644 251.366" fill="#72ACFF"/>
<path fill-rule="evenodd" clip-rule="evenodd" d="M409.937 246.083H389.621C389.191 246.083 388.844 245.736 388.844 245.305C388.844 244.875 389.191 244.528 389.621 244.528H408.789L411.845 234.593C411.972 234.183 412.405 233.95 412.817 234.077C413.227 234.204 413.457 234.639 413.33 235.049L409.937 246.083" fill="#2A0055"/>
<path fill-rule="evenodd" clip-rule="evenodd" d="M451.495 321.826H419.098C418.668 321.826 418.32 321.479 418.32 321.049C418.32 320.619 418.668 320.271 419.098 320.271H451.495C451.926 320.271 452.273 320.619 452.273 321.049C452.273 321.479 451.926 321.826 451.495 321.826" fill="#2A0055"/>
<path fill-rule="evenodd" clip-rule="evenodd" d="M435.484 303.934C435.484 302.993 436.246 302.228 437.187 302.228C438.128 302.228 438.89 302.993 438.89 303.934C438.89 304.872 438.128 305.637 437.187 305.637C436.246 305.637 435.484 304.872 435.484 303.934" fill="#CFE4FF"/>
<path fill-rule="evenodd" clip-rule="evenodd" d="M427.941 303.934C427.941 302.993 428.703 302.228 429.644 302.228C430.585 302.228 431.347 302.993 431.347 303.934C431.347 304.872 430.585 305.637 429.644 305.637C428.703 305.637 427.941 304.872 427.941 303.934" fill="#CFE4FF"/>
<path fill-rule="evenodd" clip-rule="evenodd" d="M420.398 303.934C420.398 302.993 421.163 302.228 422.101 302.228C423.042 302.228 423.807 302.993 423.807 303.934C423.807 304.872 423.042 305.637 422.101 305.637C421.163 305.637 420.398 304.872 420.398 303.934" fill="#CFE4FF"/>
<path fill-rule="evenodd" clip-rule="evenodd" d="M412.859 303.934C412.859 302.993 413.621 302.228 414.562 302.228C415.501 302.228 416.265 302.993 416.265 303.934C416.265 304.872 415.501 305.637 414.562 305.637C413.621 305.637 412.859 304.872 412.859 303.934" fill="#CFE4FF"/>
<path fill-rule="evenodd" clip-rule="evenodd" d="M405.316 303.934C405.316 302.993 406.078 302.228 407.019 302.228C407.96 302.228 408.722 302.993 408.722 303.934C408.722 304.872 407.96 305.637 407.019 305.637C406.078 305.637 405.316 304.872 405.316 303.934" fill="#CFE4FF"/>
<path fill-rule="evenodd" clip-rule="evenodd" d="M397.773 303.934C397.773 302.993 398.535 302.228 399.476 302.228C400.417 302.228 401.179 302.993 401.179 303.934C401.179 304.872 400.417 305.637 399.476 305.637C398.535 305.637 397.773 304.872 397.773 303.934" fill="#CFE4FF"/>
<path fill-rule="evenodd" clip-rule="evenodd" d="M390.23 303.934C390.23 302.993 390.993 302.228 391.933 302.228C392.874 302.228 393.636 302.993 393.636 303.934C393.636 304.872 392.874 305.637 391.933 305.637C390.993 305.637 390.23 304.872 390.23 303.934" fill="#CFE4FF"/>
<path fill-rule="evenodd" clip-rule="evenodd" d="M382.688 303.934C382.688 302.993 383.45 302.228 384.39 302.228C385.331 302.228 386.093 302.993 386.093 303.934C386.093 304.872 385.331 305.637 384.39 305.637C383.45 305.637 382.688 304.872 382.688 303.934" fill="#CFE4FF"/>
<path fill-rule="evenodd" clip-rule="evenodd" d="M375.148 303.934C375.148 302.993 375.91 302.228 376.851 302.228C377.792 302.228 378.554 302.993 378.554 303.934C378.554 304.872 377.792 305.637 376.851 305.637C375.91 305.637 375.148 304.872 375.148 303.934" fill="#CFE4FF"/>
<path fill-rule="evenodd" clip-rule="evenodd" d="M367.605 303.934C367.605 302.993 368.368 302.228 369.308 302.228C370.249 302.228 371.011 302.993 371.011 303.934C371.011 304.872 370.249 305.637 369.308 305.637C368.368 305.637 367.605 304.872 367.605 303.934" fill="#CFE4FF"/>
<path fill-rule="evenodd" clip-rule="evenodd" d="M360.062 303.934C360.062 302.993 360.825 302.228 361.765 302.228C362.706 302.228 363.468 302.993 363.468 303.934C363.468 304.872 362.706 305.637 361.765 305.637C360.825 305.637 360.062 304.872 360.062 303.934" fill="#CFE4FF"/>
<path fill-rule="evenodd" clip-rule="evenodd" d="M435.484 296.148C435.484 295.207 436.246 294.445 437.187 294.445C438.128 294.445 438.89 295.207 438.89 296.148C438.89 297.088 438.128 297.85 437.187 297.85C436.246 297.85 435.484 297.088 435.484 296.148" fill="#CFE4FF"/>
<path fill-rule="evenodd" clip-rule="evenodd" d="M427.941 296.148C427.941 295.207 428.703 294.445 429.644 294.445C430.585 294.445 431.347 295.207 431.347 296.148C431.347 297.088 430.585 297.85 429.644 297.85C428.703 297.85 427.941 297.088 427.941 296.148" fill="#CFE4FF"/>
<path fill-rule="evenodd" clip-rule="evenodd" d="M420.398 296.148C420.398 295.207 421.163 294.445 422.101 294.445C423.042 294.445 423.807 295.207 423.807 296.148C423.807 297.088 423.042 297.85 422.101 297.85C421.163 297.85 420.398 297.088 420.398 296.148" fill="#CFE4FF"/>
<path fill-rule="evenodd" clip-rule="evenodd" d="M412.859 296.148C412.859 295.207 413.621 294.445 414.562 294.445C415.501 294.445 416.265 295.207 416.265 296.148C416.265 297.088 415.501 297.85 414.562 297.85C413.621 297.85 412.859 297.088 412.859 296.148" fill="#CFE4FF"/>
<path fill-rule="evenodd" clip-rule="evenodd" d="M405.316 296.148C405.316 295.207 406.078 294.445 407.019 294.445C407.96 294.445 408.722 295.207 408.722 296.148C408.722 297.088 407.96 297.85 407.019 297.85C406.078 297.85 405.316 297.088 405.316 296.148" fill="#CFE4FF"/>
<path fill-rule="evenodd" clip-rule="evenodd" d="M397.773 296.148C397.773 295.207 398.535 294.445 399.476 294.445C400.417 294.445 401.179 295.207 401.179 296.148C401.179 297.088 400.417 297.85 399.476 297.85C398.535 297.85 397.773 297.088 397.773 296.148" fill="#CFE4FF"/>
<path fill-rule="evenodd" clip-rule="evenodd" d="M390.23 296.148C390.23 295.207 390.993 294.445 391.933 294.445C392.874 294.445 393.636 295.207 393.636 296.148C393.636 297.088 392.874 297.85 391.933 297.85C390.993 297.85 390.23 297.088 390.23 296.148" fill="#CFE4FF"/>
<path fill-rule="evenodd" clip-rule="evenodd" d="M382.688 296.148C382.688 295.207 383.45 294.445 384.39 294.445C385.331 294.445 386.093 295.207 386.093 296.148C386.093 297.088 385.331 297.85 384.39 297.85C383.45 297.85 382.688 297.088 382.688 296.148" fill="#CFE4FF"/>
<path fill-rule="evenodd" clip-rule="evenodd" d="M375.148 296.148C375.148 295.207 375.91 294.445 376.851 294.445C377.792 294.445 378.554 295.207 378.554 296.148C378.554 297.088 377.792 297.85 376.851 297.85C375.91 297.85 375.148 297.088 375.148 296.148" fill="#CFE4FF"/>
<path fill-rule="evenodd" clip-rule="evenodd" d="M367.605 296.148C367.605 295.207 368.368 294.445 369.308 294.445C370.249 294.445 371.011 295.207 371.011 296.148C371.011 297.088 370.249 297.85 369.308 297.85C368.368 297.85 367.605 297.088 367.605 296.148" fill="#CFE4FF"/>
<path fill-rule="evenodd" clip-rule="evenodd" d="M360.062 296.148C360.062 295.207 360.825 294.445 361.765 294.445C362.706 294.445 363.468 295.207 363.468 296.148C363.468 297.088 362.706 297.85 361.765 297.85C360.825 297.85 360.062 297.088 360.062 296.148" fill="#CFE4FF"/>
<path fill-rule="evenodd" clip-rule="evenodd" d="M435.484 288.361C435.484 287.42 436.246 286.658 437.187 286.658C438.128 286.658 438.89 287.42 438.89 288.361C438.89 289.302 438.128 290.064 437.187 290.064C436.246 290.064 435.484 289.302 435.484 288.361" fill="#CFE4FF"/>
<path fill-rule="evenodd" clip-rule="evenodd" d="M427.941 288.361C427.941 287.42 428.703 286.658 429.644 286.658C430.585 286.658 431.347 287.42 431.347 288.361C431.347 289.302 430.585 290.064 429.644 290.064C428.703 290.064 427.941 289.302 427.941 288.361" fill="#CFE4FF"/>
<path fill-rule="evenodd" clip-rule="evenodd" d="M420.398 288.361C420.398 287.42 421.163 286.658 422.101 286.658C423.042 286.658 423.807 287.42 423.807 288.361C423.807 289.302 423.042 290.064 422.101 290.064C421.163 290.064 420.398 289.302 420.398 288.361" fill="#CFE4FF"/>
<path fill-rule="evenodd" clip-rule="evenodd" d="M367.605 288.361C367.605 287.42 368.368 286.658 369.308 286.658C370.249 286.658 371.011 287.42 371.011 288.361C371.011 289.302 370.249 290.064 369.308 290.064C368.368 290.064 367.605 289.302 367.605 288.361" fill="#CFE4FF"/>
<path fill-rule="evenodd" clip-rule="evenodd" d="M360.062 288.361C360.062 287.42 360.825 286.658 361.765 286.658C362.706 286.658 363.468 287.42 363.468 288.361C363.468 289.302 362.706 290.064 361.765 290.064C360.825 290.064 360.062 289.302 360.062 288.361" fill="#CFE4FF"/>
<path fill-rule="evenodd" clip-rule="evenodd" d="M435.484 280.575C435.484 279.634 436.246 278.872 437.187 278.872C438.128 278.872 438.89 279.634 438.89 280.575C438.89 281.516 438.128 282.278 437.187 282.278C436.246 282.278 435.484 281.516 435.484 280.575" fill="#CFE4FF"/>
<path fill-rule="evenodd" clip-rule="evenodd" d="M427.941 280.575C427.941 279.634 428.703 278.872 429.644 278.872C430.585 278.872 431.347 279.634 431.347 280.575C431.347 281.516 430.585 282.278 429.644 282.278C428.703 282.278 427.941 281.516 427.941 280.575" fill="#CFE4FF"/>
<path fill-rule="evenodd" clip-rule="evenodd" d="M420.398 280.575C420.398 279.634 421.163 278.872 422.101 278.872C423.042 278.872 423.807 279.634 423.807 280.575C423.807 281.516 423.042 282.278 422.101 282.278C421.163 282.278 420.398 281.516 420.398 280.575" fill="#CFE4FF"/>
<path fill-rule="evenodd" clip-rule="evenodd" d="M367.605 280.575C367.605 279.634 368.368 278.872 369.308 278.872C370.249 278.872 371.011 279.634 371.011 280.575C371.011 281.516 370.249 282.278 369.308 282.278C368.368 282.278 367.605 281.516 367.605 280.575" fill="#CFE4FF"/>
<path fill-rule="evenodd" clip-rule="evenodd" d="M360.062 280.575C360.062 279.634 360.825 278.872 361.765 278.872C362.706 278.872 363.468 279.634 363.468 280.575C363.468 281.516 362.706 282.278 361.765 282.278C360.825 282.278 360.062 281.516 360.062 280.575" fill="#CFE4FF"/>
<path fill-rule="evenodd" clip-rule="evenodd" d="M435.484 272.788C435.484 271.85 436.246 271.085 437.187 271.085C438.128 271.085 438.89 271.85 438.89 272.788C438.89 273.729 438.128 274.494 437.187 274.494C436.246 274.494 435.484 273.729 435.484 272.788" fill="#CFE4FF"/>
<path fill-rule="evenodd" clip-rule="evenodd" d="M427.941 272.788C427.941 271.85 428.703 271.085 429.644 271.085C430.585 271.085 431.347 271.85 431.347 272.788C431.347 273.729 430.585 274.494 429.644 274.494C428.703 274.494 427.941 273.729 427.941 272.788" fill="#CFE4FF"/>
<path fill-rule="evenodd" clip-rule="evenodd" d="M420.398 272.788C420.398 271.85 421.163 271.085 422.101 271.085C423.042 271.085 423.807 271.85 423.807 272.788C423.807 273.729 423.042 274.494 422.101 274.494C421.163 274.494 420.398 273.729 420.398 272.788" fill="#CFE4FF"/>
<path fill-rule="evenodd" clip-rule="evenodd" d="M412.859 272.788C412.859 271.85 413.621 271.085 414.562 271.085C415.501 271.085 416.265 271.85 416.265 272.788C416.265 273.729 415.501 274.494 414.562 274.494C413.621 274.494 412.859 273.729 412.859 272.788" fill="#CFE4FF"/>
<path fill-rule="evenodd" clip-rule="evenodd" d="M367.605 272.788C367.605 271.85 368.368 271.085 369.308 271.085C370.249 271.085 371.011 271.85 371.011 272.788C371.011 273.729 370.249 274.494 369.308 274.494C368.368 274.494 367.605 273.729 367.605 272.788" fill="#CFE4FF"/>
<path fill-rule="evenodd" clip-rule="evenodd" d="M360.062 272.788C360.062 271.85 360.825 271.085 361.765 271.085C362.706 271.085 363.468 271.85 363.468 272.788C363.468 273.729 362.706 274.494 361.765 274.494C360.825 274.494 360.062 273.729 360.062 272.788" fill="#CFE4FF"/>
<path fill-rule="evenodd" clip-rule="evenodd" d="M435.484 265.005C435.484 264.064 436.246 263.302 437.187 263.302C438.128 263.302 438.89 264.064 438.89 265.005C438.89 265.946 438.128 266.708 437.187 266.708C436.246 266.708 435.484 265.946 435.484 265.005" fill="#CFE4FF"/>
<path fill-rule="evenodd" clip-rule="evenodd" d="M427.941 265.005C427.941 264.064 428.703 263.302 429.644 263.302C430.585 263.302 431.347 264.064 431.347 265.005C431.347 265.946 430.585 266.708 429.644 266.708C428.703 266.708 427.941 265.946 427.941 265.005" fill="#CFE4FF"/>
<path fill-rule="evenodd" clip-rule="evenodd" d="M420.398 265.005C420.398 264.064 421.163 263.302 422.101 263.302C423.042 263.302 423.807 264.064 423.807 265.005C423.807 265.946 423.042 266.708 422.101 266.708C421.163 266.708 420.398 265.946 420.398 265.005" fill="#CFE4FF"/>
<path fill-rule="evenodd" clip-rule="evenodd" d="M412.859 265.005C412.859 264.064 413.621 263.302 414.562 263.302C415.501 263.302 416.265 264.064 416.265 265.005C416.265 265.946 415.501 266.708 414.562 266.708C413.621 266.708 412.859 265.946 412.859 265.005" fill="#CFE4FF"/>
<path fill-rule="evenodd" clip-rule="evenodd" d="M405.316 265.005C405.316 264.064 406.078 263.302 407.019 263.302C407.96 263.302 408.722 264.064 408.722 265.005C408.722 265.946 407.96 266.708 407.019 266.708C406.078 266.708 405.316 265.946 405.316 265.005" fill="#CFE4FF"/>
<path fill-rule="evenodd" clip-rule="evenodd" d="M397.773 265.005C397.773 264.064 398.535 263.302 399.476 263.302C400.417 263.302 401.179 264.064 401.179 265.005C401.179 265.946 400.417 266.708 399.476 266.708C398.535 266.708 397.773 265.946 397.773 265.005" fill="#CFE4FF"/>
<path fill-rule="evenodd" clip-rule="evenodd" d="M390.23 265.005C390.23 264.064 390.993 263.302 391.933 263.302C392.874 263.302 393.636 264.064 393.636 265.005C393.636 265.946 392.874 266.708 391.933 266.708C390.993 266.708 390.23 265.946 390.23 265.005" fill="#CFE4FF"/>
<path fill-rule="evenodd" clip-rule="evenodd" d="M382.688 265.005C382.688 264.064 383.45 263.302 384.39 263.302C385.331 263.302 386.093 264.064 386.093 265.005C386.093 265.946 385.331 266.708 384.39 266.708C383.45 266.708 382.688 265.946 382.688 265.005" fill="#CFE4FF"/>
<path fill-rule="evenodd" clip-rule="evenodd" d="M375.148 265.005C375.148 264.064 375.91 263.302 376.851 263.302C377.792 263.302 378.554 264.064 378.554 265.005C378.554 265.946 377.792 266.708 376.851 266.708C375.91 266.708 375.148 265.946 375.148 265.005" fill="#CFE4FF"/>
<path fill-rule="evenodd" clip-rule="evenodd" d="M367.605 265.005C367.605 264.064 368.368 263.302 369.308 263.302C370.249 263.302 371.011 264.064 371.011 265.005C371.011 265.946 370.249 266.708 369.308 266.708C368.368 266.708 367.605 265.946 367.605 265.005" fill="#CFE4FF"/>
<path fill-rule="evenodd" clip-rule="evenodd" d="M360.062 265.005C360.062 264.064 360.825 263.302 361.765 263.302C362.706 263.302 363.468 264.064 363.468 265.005C363.468 265.946 362.706 266.708 361.765 266.708C360.825 266.708 360.062 265.946 360.062 265.005" fill="#CFE4FF"/>
<path fill-rule="evenodd" clip-rule="evenodd" d="M435.484 257.218C435.484 256.277 436.246 255.515 437.187 255.515C438.128 255.515 438.89 256.277 438.89 257.218C438.89 258.159 438.128 258.921 437.187 258.921C436.246 258.921 435.484 258.159 435.484 257.218" fill="#CFE4FF"/>
<path fill-rule="evenodd" clip-rule="evenodd" d="M443.219 303.934C443.219 302.993 443.981 302.228 444.922 302.228C445.863 302.228 446.625 302.993 446.625 303.934C446.625 304.872 445.863 305.637 444.922 305.637C443.981 305.637 443.219 304.872 443.219 303.934" fill="#CFE4FF"/>
<path fill-rule="evenodd" clip-rule="evenodd" d="M443.219 296.148C443.219 295.207 443.981 294.445 444.922 294.445C445.863 294.445 446.625 295.207 446.625 296.148C446.625 297.088 445.863 297.85 444.922 297.85C443.981 297.85 443.219 297.088 443.219 296.148" fill="#CFE4FF"/>
<path fill-rule="evenodd" clip-rule="evenodd" d="M443.219 288.361C443.219 287.42 443.981 286.658 444.922 286.658C445.863 286.658 446.625 287.42 446.625 288.361C446.625 289.302 445.863 290.064 444.922 290.064C443.981 290.064 443.219 289.302 443.219 288.361" fill="#CFE4FF"/>
<path fill-rule="evenodd" clip-rule="evenodd" d="M443.219 280.575C443.219 279.634 443.981 278.872 444.922 278.872C445.863 278.872 446.625 279.634 446.625 280.575C446.625 281.516 445.863 282.278 444.922 282.278C443.981 282.278 443.219 281.516 443.219 280.575" fill="#CFE4FF"/>
<path fill-rule="evenodd" clip-rule="evenodd" d="M443.219 272.788C443.219 271.85 443.981 271.085 444.922 271.085C445.863 271.085 446.625 271.85 446.625 272.788C446.625 273.729 445.863 274.494 444.922 274.494C443.981 274.494 443.219 273.729 443.219 272.788" fill="#CFE4FF"/>
<path fill-rule="evenodd" clip-rule="evenodd" d="M443.219 265.005C443.219 264.064 443.981 263.302 444.922 263.302C445.863 263.302 446.625 264.064 446.625 265.005C446.625 265.946 445.863 266.708 444.922 266.708C443.981 266.708 443.219 265.946 443.219 265.005" fill="#CFE4FF"/>
<path fill-rule="evenodd" clip-rule="evenodd" d="M443.219 257.218C443.219 256.277 443.981 255.515 444.922 255.515C445.863 255.515 446.625 256.277 446.625 257.218C446.625 258.159 445.863 258.921 444.922 258.921C443.981 258.921 443.219 258.159 443.219 257.218" fill="#CFE4FF"/>
<path fill-rule="evenodd" clip-rule="evenodd" d="M450.945 303.934C450.945 302.993 451.707 302.228 452.648 302.228C453.589 302.228 454.351 302.993 454.351 303.934C454.351 304.872 453.589 305.637 452.648 305.637C451.707 305.637 450.945 304.872 450.945 303.934" fill="#CFE4FF"/>
<path fill-rule="evenodd" clip-rule="evenodd" d="M450.945 296.148C450.945 295.207 451.707 294.445 452.648 294.445C453.589 294.445 454.351 295.207 454.351 296.148C454.351 297.088 453.589 297.85 452.648 297.85C451.707 297.85 450.945 297.088 450.945 296.148" fill="#CFE4FF"/>
<path fill-rule="evenodd" clip-rule="evenodd" d="M450.945 288.361C450.945 287.42 451.707 286.658 452.648 286.658C453.589 286.658 454.351 287.42 454.351 288.361C454.351 289.302 453.589 290.064 452.648 290.064C451.707 290.064 450.945 289.302 450.945 288.361" fill="#CFE4FF"/>
<path fill-rule="evenodd" clip-rule="evenodd" d="M450.945 280.575C450.945 279.634 451.707 278.872 452.648 278.872C453.589 278.872 454.351 279.634 454.351 280.575C454.351 281.516 453.589 282.278 452.648 282.278C451.707 282.278 450.945 281.516 450.945 280.575" fill="#CFE4FF"/>
<path fill-rule="evenodd" clip-rule="evenodd" d="M450.945 272.788C450.945 271.85 451.707 271.085 452.648 271.085C453.589 271.085 454.351 271.85 454.351 272.788C454.351 273.729 453.589 274.494 452.648 274.494C451.707 274.494 450.945 273.729 450.945 272.788" fill="#CFE4FF"/>
<path fill-rule="evenodd" clip-rule="evenodd" d="M450.945 265.005C450.945 264.064 451.707 263.302 452.648 263.302C453.589 263.302 454.351 264.064 454.351 265.005C454.351 265.946 453.589 266.708 452.648 266.708C451.707 266.708 450.945 265.946 450.945 265.005" fill="#CFE4FF"/>
<path fill-rule="evenodd" clip-rule="evenodd" d="M450.945 257.218C450.945 256.277 451.707 255.515 452.648 255.515C453.589 255.515 454.351 256.277 454.351 257.218C454.351 258.159 453.589 258.921 452.648 258.921C451.707 258.921 450.945 258.159 450.945 257.218" fill="#CFE4FF"/>
<path fill-rule="evenodd" clip-rule="evenodd" d="M458.676 303.934C458.676 302.993 459.44 302.228 460.381 302.228C461.32 302.228 462.084 302.993 462.084 303.934C462.084 304.872 461.32 305.637 460.381 305.637C459.44 305.637 458.676 304.872 458.676 303.934" fill="#CFE4FF"/>
<path fill-rule="evenodd" clip-rule="evenodd" d="M458.676 296.148C458.676 295.207 459.44 294.445 460.381 294.445C461.32 294.445 462.084 295.207 462.084 296.148C462.084 297.088 461.32 297.85 460.381 297.85C459.44 297.85 458.676 297.088 458.676 296.148" fill="#CFE4FF"/>
<path fill-rule="evenodd" clip-rule="evenodd" d="M458.676 288.361C458.676 287.42 459.44 286.658 460.381 286.658C461.32 286.658 462.084 287.42 462.084 288.361C462.084 289.302 461.32 290.064 460.381 290.064C459.44 290.064 458.676 289.302 458.676 288.361" fill="#CFE4FF"/>
<path fill-rule="evenodd" clip-rule="evenodd" d="M458.676 280.575C458.676 279.634 459.44 278.872 460.381 278.872C461.32 278.872 462.084 279.634 462.084 280.575C462.084 281.516 461.32 282.278 460.381 282.278C459.44 282.278 458.676 281.516 458.676 280.575" fill="#CFE4FF"/>
<path fill-rule="evenodd" clip-rule="evenodd" d="M458.676 272.788C458.676 271.85 459.44 271.085 460.381 271.085C461.32 271.085 462.084 271.85 462.084 272.788C462.084 273.729 461.32 274.494 460.381 274.494C459.44 274.494 458.676 273.729 458.676 272.788" fill="#CFE4FF"/>
<path fill-rule="evenodd" clip-rule="evenodd" d="M458.676 265.005C458.676 264.064 459.44 263.302 460.381 263.302C461.32 263.302 462.084 264.064 462.084 265.005C462.084 265.946 461.32 266.708 460.381 266.708C459.44 266.708 458.676 265.946 458.676 265.005" fill="#CFE4FF"/>
<path fill-rule="evenodd" clip-rule="evenodd" d="M458.676 257.218C458.676 256.277 459.44 255.515 460.381 255.515C461.32 255.515 462.084 256.277 462.084 257.218C462.084 258.159 461.32 258.921 460.381 258.921C459.44 258.921 458.676 258.159 458.676 257.218" fill="#CFE4FF"/>
<path fill-rule="evenodd" clip-rule="evenodd" d="M466.41 303.934C466.41 302.993 467.172 302.228 468.113 302.228C469.054 302.228 469.816 302.993 469.816 303.934C469.816 304.872 469.054 305.637 468.113 305.637C467.172 305.637 466.41 304.872 466.41 303.934" fill="#CFE4FF"/>
<path fill-rule="evenodd" clip-rule="evenodd" d="M466.41 296.148C466.41 295.207 467.172 294.445 468.113 294.445C469.054 294.445 469.816 295.207 469.816 296.148C469.816 297.088 469.054 297.85 468.113 297.85C467.172 297.85 466.41 297.088 466.41 296.148" fill="#CFE4FF"/>
<path fill-rule="evenodd" clip-rule="evenodd" d="M466.41 288.361C466.41 287.42 467.172 286.658 468.113 286.658C469.054 286.658 469.816 287.42 469.816 288.361C469.816 289.302 469.054 290.064 468.113 290.064C467.172 290.064 466.41 289.302 466.41 288.361" fill="#CFE4FF"/>
<path fill-rule="evenodd" clip-rule="evenodd" d="M466.41 280.575C466.41 279.634 467.172 278.872 468.113 278.872C469.054 278.872 469.816 279.634 469.816 280.575C469.816 281.516 469.054 282.278 468.113 282.278C467.172 282.278 466.41 281.516 466.41 280.575" fill="#CFE4FF"/>
<path fill-rule="evenodd" clip-rule="evenodd" d="M466.41 272.788C466.41 271.85 467.172 271.085 468.113 271.085C469.054 271.085 469.816 271.85 469.816 272.788C469.816 273.729 469.054 274.494 468.113 274.494C467.172 274.494 466.41 273.729 466.41 272.788" fill="#CFE4FF"/>
<path fill-rule="evenodd" clip-rule="evenodd" d="M466.41 265.005C466.41 264.064 467.172 263.302 468.113 263.302C469.054 263.302 469.816 264.064 469.816 265.005C469.816 265.946 469.054 266.708 468.113 266.708C467.172 266.708 466.41 265.946 466.41 265.005" fill="#CFE4FF"/>
<path fill-rule="evenodd" clip-rule="evenodd" d="M466.41 257.218C466.41 256.277 467.172 255.515 468.113 255.515C469.054 255.515 469.816 256.277 469.816 257.218C469.816 258.159 469.054 258.921 468.113 258.921C467.172 258.921 466.41 258.159 466.41 257.218" fill="#CFE4FF"/>
<path fill-rule="evenodd" clip-rule="evenodd" d="M474.66 303.934C474.66 302.993 475.422 302.228 476.363 302.228C477.304 302.228 478.066 302.993 478.066 303.934C478.066 304.872 477.304 305.637 476.363 305.637C475.422 305.637 474.66 304.872 474.66 303.934" fill="#CFE4FF"/>
<path fill-rule="evenodd" clip-rule="evenodd" d="M474.66 296.148C474.66 295.207 475.422 294.445 476.363 294.445C477.304 294.445 478.066 295.207 478.066 296.148C478.066 297.088 477.304 297.85 476.363 297.85C475.422 297.85 474.66 297.088 474.66 296.148" fill="#CFE4FF"/>
<path fill-rule="evenodd" clip-rule="evenodd" d="M474.66 288.361C474.66 287.42 475.422 286.658 476.363 286.658C477.304 286.658 478.066 287.42 478.066 288.361C478.066 289.302 477.304 290.064 476.363 290.064C475.422 290.064 474.66 289.302 474.66 288.361" fill="#CFE4FF"/>
<path fill-rule="evenodd" clip-rule="evenodd" d="M474.66 280.575C474.66 279.634 475.422 278.872 476.363 278.872C477.304 278.872 478.066 279.634 478.066 280.575C478.066 281.516 477.304 282.278 476.363 282.278C475.422 282.278 474.66 281.516 474.66 280.575" fill="#CFE4FF"/>
<path fill-rule="evenodd" clip-rule="evenodd" d="M474.66 272.788C474.66 271.85 475.422 271.085 476.363 271.085C477.304 271.085 478.066 271.85 478.066 272.788C478.066 273.729 477.304 274.494 476.363 274.494C475.422 274.494 474.66 273.729 474.66 272.788" fill="#CFE4FF"/>
<path fill-rule="evenodd" clip-rule="evenodd" d="M474.66 265.005C474.66 264.064 475.422 263.302 476.363 263.302C477.304 263.302 478.066 264.064 478.066 265.005C478.066 265.946 477.304 266.708 476.363 266.708C475.422 266.708 474.66 265.946 474.66 265.005" fill="#CFE4FF"/>
<path fill-rule="evenodd" clip-rule="evenodd" d="M474.66 257.218C474.66 256.277 475.422 255.515 476.363 255.515C477.304 255.515 478.066 256.277 478.066 257.218C478.066 258.159 477.304 258.921 476.363 258.921C475.422 258.921 474.66 258.159 474.66 257.218" fill="#CFE4FF"/>
<path fill-rule="evenodd" clip-rule="evenodd" d="M482.91 303.934C482.91 302.993 483.672 302.228 484.613 302.228C485.551 302.228 486.316 302.993 486.316 303.934C486.316 304.872 485.551 305.637 484.613 305.637C483.672 305.637 482.91 304.872 482.91 303.934" fill="#CFE4FF"/>
<path fill-rule="evenodd" clip-rule="evenodd" d="M482.91 296.148C482.91 295.207 483.672 294.445 484.613 294.445C485.551 294.445 486.316 295.207 486.316 296.148C486.316 297.088 485.551 297.85 484.613 297.85C483.672 297.85 482.91 297.088 482.91 296.148" fill="#CFE4FF"/>
<path fill-rule="evenodd" clip-rule="evenodd" d="M482.91 288.361C482.91 287.42 483.672 286.658 484.613 286.658C485.551 286.658 486.316 287.42 486.316 288.361C486.316 289.302 485.551 290.064 484.613 290.064C483.672 290.064 482.91 289.302 482.91 288.361" fill="#CFE4FF"/>
<path fill-rule="evenodd" clip-rule="evenodd" d="M482.91 280.575C482.91 279.634 483.672 278.872 484.613 278.872C485.551 278.872 486.316 279.634 486.316 280.575C486.316 281.516 485.551 282.278 484.613 282.278C483.672 282.278 482.91 281.516 482.91 280.575" fill="#CFE4FF"/>
<path fill-rule="evenodd" clip-rule="evenodd" d="M482.91 272.788C482.91 271.85 483.672 271.085 484.613 271.085C485.551 271.085 486.316 271.85 486.316 272.788C486.316 273.729 485.551 274.494 484.613 274.494C483.672 274.494 482.91 273.729 482.91 272.788" fill="#CFE4FF"/>
<path fill-rule="evenodd" clip-rule="evenodd" d="M482.91 265.005C482.91 264.064 483.672 263.302 484.613 263.302C485.551 263.302 486.316 264.064 486.316 265.005C486.316 265.946 485.551 266.708 484.613 266.708C483.672 266.708 482.91 265.946 482.91 265.005" fill="#CFE4FF"/>
<path fill-rule="evenodd" clip-rule="evenodd" d="M482.91 257.218C482.91 256.277 483.672 255.515 484.613 255.515C485.551 255.515 486.316 256.277 486.316 257.218C486.316 258.159 485.551 258.921 484.613 258.921C483.672 258.921 482.91 258.159 482.91 257.218" fill="#CFE4FF"/>
<path fill-rule="evenodd" clip-rule="evenodd" d="M427.941 257.218C427.941 256.277 428.703 255.515 429.644 255.515C430.585 255.515 431.347 256.277 431.347 257.218C431.347 258.159 430.585 258.921 429.644 258.921C428.703 258.921 427.941 258.159 427.941 257.218" fill="#CFE4FF"/>
<path fill-rule="evenodd" clip-rule="evenodd" d="M420.398 257.218C420.398 256.277 421.163 255.515 422.101 255.515C423.042 255.515 423.807 256.277 423.807 257.218C423.807 258.159 423.042 258.921 422.101 258.921C421.163 258.921 420.398 258.159 420.398 257.218" fill="#CFE4FF"/>
<path fill-rule="evenodd" clip-rule="evenodd" d="M427.941 250.316C427.941 249.377 428.703 248.613 429.644 248.613C430.585 248.613 431.347 249.377 431.347 250.316C431.347 251.257 430.585 252.021 429.644 252.021C428.703 252.021 427.941 251.257 427.941 250.316" fill="#CFE4FF"/>
<path fill-rule="evenodd" clip-rule="evenodd" d="M423.809 242.713C423.809 241.773 424.571 241.01 425.512 241.01C426.45 241.01 427.214 241.773 427.214 242.713C427.214 243.654 426.45 244.416 425.512 244.416C424.571 244.416 423.809 243.654 423.809 242.713" fill="#CFE4FF"/>
<path fill-rule="evenodd" clip-rule="evenodd" d="M420.398 250.316C420.398 249.377 421.163 248.613 422.101 248.613C423.042 248.613 423.807 249.377 423.807 250.316C423.807 251.257 423.042 252.021 422.101 252.021C421.163 252.021 420.398 251.257 420.398 250.316" fill="#CFE4FF"/>
<path fill-rule="evenodd" clip-rule="evenodd" d="M412.859 257.218C412.859 256.277 413.621 255.515 414.562 255.515C415.501 255.515 416.265 256.277 416.265 257.218C416.265 258.159 415.501 258.921 414.562 258.921C413.621 258.921 412.859 258.159 412.859 257.218" fill="#CFE4FF"/>
<path fill-rule="evenodd" clip-rule="evenodd" d="M405.316 257.218C405.316 256.277 406.078 255.515 407.019 255.515C407.96 255.515 408.722 256.277 408.722 257.218C408.722 258.159 407.96 258.921 407.019 258.921C406.078 258.921 405.316 258.159 405.316 257.218" fill="#CFE4FF"/>
<path fill-rule="evenodd" clip-rule="evenodd" d="M397.773 257.218C397.773 256.277 398.535 255.515 399.476 255.515C400.417 255.515 401.179 256.277 401.179 257.218C401.179 258.159 400.417 258.921 399.476 258.921C398.535 258.921 397.773 258.159 397.773 257.218" fill="#CFE4FF"/>
<path fill-rule="evenodd" clip-rule="evenodd" d="M390.23 257.218C390.23 256.277 390.993 255.515 391.933 255.515C392.874 255.515 393.636 256.277 393.636 257.218C393.636 258.159 392.874 258.921 391.933 258.921C390.993 258.921 390.23 258.159 390.23 257.218" fill="#CFE4FF"/>
<path fill-rule="evenodd" clip-rule="evenodd" d="M382.688 257.218C382.688 256.277 383.45 255.515 384.39 255.515C385.331 255.515 386.093 256.277 386.093 257.218C386.093 258.159 385.331 258.921 384.39 258.921C383.45 258.921 382.688 258.159 382.688 257.218" fill="#CFE4FF"/>
<path fill-rule="evenodd" clip-rule="evenodd" d="M375.148 257.218C375.148 256.277 375.91 255.515 376.851 255.515C377.792 255.515 378.554 256.277 378.554 257.218C378.554 258.159 377.792 258.921 376.851 258.921C375.91 258.921 375.148 258.159 375.148 257.218" fill="#CFE4FF"/>
<path fill-rule="evenodd" clip-rule="evenodd" d="M367.605 257.218C367.605 256.277 368.368 255.515 369.308 255.515C370.249 255.515 371.011 256.277 371.011 257.218C371.011 258.159 370.249 258.921 369.308 258.921C368.368 258.921 367.605 258.159 367.605 257.218" fill="#CFE4FF"/>
<path fill-rule="evenodd" clip-rule="evenodd" d="M360.062 257.218C360.062 256.277 360.825 255.515 361.765 255.515C362.706 255.515 363.468 256.277 363.468 257.218C363.468 258.159 362.706 258.921 361.765 258.921C360.825 258.921 360.062 258.159 360.062 257.218" fill="#CFE4FF"/>
<path fill-rule="evenodd" clip-rule="evenodd" d="M401.104 288.141H373.821C373.39 288.141 373.043 287.794 373.043 287.363C373.043 286.933 373.39 286.586 373.821 286.586H401.104C401.534 286.586 401.882 286.933 401.882 287.363C401.882 287.794 401.534 288.141 401.104 288.141" fill="white"/>
<path fill-rule="evenodd" clip-rule="evenodd" d="M417.719 288.141H407.797C407.367 288.141 407.02 287.794 407.02 287.363C407.02 286.933 407.367 286.586 407.797 286.586H417.719C418.15 286.586 418.497 286.933 418.497 287.363C418.497 287.794 418.15 288.141 417.719 288.141" fill="white"/>
<path fill-rule="evenodd" clip-rule="evenodd" d="M392.128 280.427H373.821C373.39 280.427 373.043 280.08 373.043 279.649C373.043 279.222 373.39 278.872 373.821 278.872H392.128C392.558 278.872 392.905 279.222 392.905 279.649C392.905 280.08 392.558 280.427 392.128 280.427" fill="white"/>
<path fill-rule="evenodd" clip-rule="evenodd" d="M417.72 280.427H397.875C397.445 280.427 397.098 280.08 397.098 279.649C397.098 279.222 397.445 278.872 397.875 278.872H417.72C418.15 278.872 418.497 279.222 418.497 279.649C418.497 280.08 418.15 280.427 417.72 280.427" fill="white"/>
<path fill-rule="evenodd" clip-rule="evenodd" d="M404.671 272.716H373.821C373.39 272.716 373.043 272.369 373.043 271.938C373.043 271.508 373.39 271.161 373.821 271.161H404.671C405.101 271.161 405.448 271.508 405.448 271.938C405.448 272.369 405.101 272.716 404.671 272.716" fill="white"/>
</svg>
