<svg width="510" height="291" viewBox="0 0 510 291" fill="none" xmlns="http://www.w3.org/2000/svg">
<path fill-rule="evenodd" clip-rule="evenodd" d="M77.6207 188.429C70.4028 176.055 68.0777 160.069 88.9091 146.556C88.0734 147.098 77.6493 135.762 76.6209 134.634C72.172 129.754 69.1343 123.75 65.1742 118.427C58.6429 109.647 62.0596 87.2991 79.1334 90.7486C79.1334 90.7486 53.9629 84.3453 70.1229 61.948C67.4884 52.4433 54.3122 2.51026 77.4987 10.3902C83.8578 12.5518 88.1246 18.7574 91.5665 24.7393C92.6086 26.5504 100.92 47.8508 99.4412 47.9318C99.4418 47.9318 125.25 46.5147 119.992 75.2907C119.992 75.2907 168.737 97.5103 137.965 134.972C137.965 134.972 178.878 177.739 150.327 198.488C141.129 205.172 132.196 208.61 124.312 210.199C105.851 213.92 87.5817 205.507 77.6207 188.429" fill="#D0E3FF"/>
<path fill-rule="evenodd" clip-rule="evenodd" d="M120.059 231.427C118.067 234.351 112.849 233.955 109.815 234.399C104.765 235.134 99.8894 236.53 94.7546 236.792C83.4705 237.376 65.8183 233.967 63.1551 220.672C61.3995 211.911 66.7401 203.547 71.9867 197.068C71.9867 197.068 52.5982 202.41 45.1159 197.594C28.9716 187.202 43.22 167.487 43.22 167.487C43.22 167.487 37.979 167.214 35.3945 166.727C28.9049 165.502 22.9681 159.755 21.4593 153.298C18.7193 141.574 29.0795 134.799 38.0238 130.143C38.0238 130.143 32.3137 119.476 35.4633 110.588C38.6176 101.686 50.056 94.8386 66.6565 110.478C67.2096 111 67.7684 111.546 68.3323 112.116C68.9958 112.719 69.5101 113.236 70.025 114.01C69.2755 104.606 81.6698 98.8591 89.5119 100.586C93.1195 101.381 96.4046 103.631 98.461 106.71C100.95 110.436 101.161 115.061 101.154 119.406C101.153 119.662 101.152 119.918 101.151 120.173C101.151 120.173 137.144 110.691 142.561 150.35C147.977 190.003 120.071 231.41 120.059 231.427" fill="#D8DDE2"/>
<path fill-rule="evenodd" clip-rule="evenodd" d="M58.821 104.101C58.5997 104.101 58.39 103.883 58.3007 103.522C58.1826 103.044 58.3198 102.498 58.6071 102.301C59.192 101.902 59.7983 101.555 60.4093 101.271C60.7085 101.131 61.0187 101.422 61.1024 101.919C61.1863 102.416 61.0118 102.932 60.7126 103.071C60.1436 103.336 59.5792 103.659 59.0345 104.031C58.9646 104.079 58.8923 104.101 58.821 104.101" fill="white"/>
<path fill-rule="evenodd" clip-rule="evenodd" d="M134.902 132.753C134.669 132.753 134.441 132.632 134.303 132.409C129.638 124.869 122.64 120.546 113.504 119.563C106.658 118.826 101.149 120.341 101.094 120.356C100.878 120.417 100.649 120.366 100.473 120.22C100.297 120.074 100.194 119.848 100.196 119.61C100.197 119.348 100.198 119.086 100.199 118.824C100.206 114.44 100.02 109.853 97.7173 106.181C95.8214 103.158 92.8293 100.977 89.5087 100.198C87.3392 99.6896 84.7044 99.8401 82.0897 100.623C81.7087 100.736 81.3127 100.498 81.2064 100.091C81.0997 99.6834 81.3225 99.2608 81.7035 99.1464C84.5404 98.2978 87.4212 98.1396 89.8161 98.7014C93.4942 99.5642 96.8082 101.979 98.908 105.328C101.404 109.308 101.634 114.086 101.633 118.655C103.514 118.241 108.12 117.443 113.647 118.038C120.237 118.748 129.378 121.67 135.499 131.564C135.717 131.917 135.627 132.392 135.296 132.626C135.175 132.711 135.038 132.753 134.902 132.753" fill="white"/>
<path fill-rule="evenodd" clip-rule="evenodd" d="M180.506 263.674C179.867 271.078 127.759 271.327 123.777 277.567C121.234 281.549 122.907 284.021 118.894 286.838C117.684 287.69 116.016 288.557 114.129 289.382H92.6138C84.5061 289.382 77.4413 283.732 75.7442 275.774C75.732 275.717 75.7199 275.658 75.708 275.601C75.708 275.601 57.6531 282.767 55.1125 264.116L46.1907 263.181C34.7307 261.984 27.446 250.055 31.8735 239.375C31.9376 239.22 32.0046 239.065 32.0741 238.91C34.9057 232.566 40.9111 228.555 47.4519 228.048C49.7869 227.867 52.191 228.132 54.5438 228.9L66.7268 232.87C66.7268 232.87 56.6182 221.142 62.4334 211.68C63.2879 210.287 64.4901 208.943 66.1192 207.693C75.6178 200.408 84.488 211.781 88.3545 217.977C89.662 220.067 90.3984 221.569 90.3984 221.569C90.3984 221.569 90.3495 220.016 90.7509 217.959C91.5903 213.641 94.4088 207.106 103.797 208.036C105.163 208.173 106.672 208.467 108.332 208.951C109.349 209.248 110.327 209.651 111.264 210.147C111.941 210.504 112.598 210.91 113.231 211.359C121.097 216.897 125.906 228.939 128.49 236.983C130.495 243.22 172.639 250.09 172.065 256.753L180.506 263.674Z" fill="#D0E3FF"/>
<path fill-rule="evenodd" clip-rule="evenodd" d="M108.14 114.607C107.836 114.607 107.551 114.414 107.445 114.106L70.716 7.6806C70.5814 7.29116 70.7835 6.86434 71.1673 6.72765C71.5509 6.59125 71.9716 6.79614 72.1059 7.18617L108.835 113.612C108.969 114.001 108.767 114.428 108.383 114.565C108.303 114.593 108.221 114.607 108.14 114.607" fill="white"/>
<path fill-rule="evenodd" clip-rule="evenodd" d="M97.2133 85C97.0359 85 96.8578 84.9388 96.7146 84.8144C96.4031 84.5436 96.3738 84.0756 96.6496 83.7699L122.84 54.6877C123.116 54.3819 123.591 54.3532 123.903 54.6238C124.215 54.8946 124.244 55.3623 123.968 55.6684L97.778 84.7502C97.6292 84.9157 97.4218 85 97.2133 85" fill="white"/>
<path fill-rule="evenodd" clip-rule="evenodd" d="M93.8087 75.4494C93.7983 75.4494 93.7879 75.4494 93.7778 75.4488L65.656 74.1995C65.2465 74.1814 64.9278 73.8051 64.9445 73.3591C64.9614 72.913 65.3124 72.5707 65.7166 72.5846L93.8384 73.8339C94.2479 73.8523 94.5666 74.2286 94.55 74.6743C94.5336 75.109 94.2046 75.4494 93.8087 75.4494" fill="white"/>
<path fill-rule="evenodd" clip-rule="evenodd" d="M121.5 205.337C121.284 205.337 121.07 205.246 120.923 205.07L45.0584 114.851C44.7958 114.538 44.8413 114.076 45.1598 113.819C45.4783 113.562 45.9499 113.606 46.2122 113.919L122.077 204.138C122.339 204.45 122.294 204.912 121.975 205.17C121.836 205.282 121.667 205.337 121.5 205.337" fill="white"/>
<path fill-rule="evenodd" clip-rule="evenodd" d="M74.2791 149.944C74.2292 149.944 74.1784 149.939 74.1275 149.928C73.7281 149.846 73.472 149.461 73.5553 149.068L79.7182 119.961C79.8012 119.568 80.1918 119.315 80.5921 119.398C80.9913 119.48 81.2474 119.865 81.1644 120.258L75.0015 149.365C74.9288 149.708 74.6215 149.944 74.2791 149.944" fill="white"/>
<path fill-rule="evenodd" clip-rule="evenodd" d="M316.721 183.36C316.721 183.36 255.78 124.302 330.093 116.083C330.093 116.083 306.259 74.3658 346.594 71.8667C346.594 71.8667 345.313 28.9902 381.658 47.9477C381.658 47.9477 385.266 37.3108 395.639 33.8407C409.55 29.1873 429.809 34.9905 414.321 73.4064C414.321 73.4064 442.522 73.2626 436.898 94.1294C435.574 99.0448 430.633 104.506 423.079 109.021C423.079 109.021 436.925 112.168 441.398 120.144C447.407 130.854 445.7 153.554 412.034 167.147C369.38 184.371 316.721 183.36 316.721 183.36" fill="#D8DDE2"/>
<path fill-rule="evenodd" clip-rule="evenodd" d="M112.946 289.382C103.64 247.145 357.952 184.954 357.952 184.954C354.24 142.846 391.039 150.824 391.039 150.824C388.93 150.369 403.67 122.022 405.402 119.687C411.135 111.984 418.069 104.15 427.472 102.546C461.748 96.7059 436.238 164.621 431.202 177.521C451.383 213.085 414.457 216.365 414.457 216.365C435.822 236.304 433.317 254.049 424.238 267.466C414.891 281.282 399.259 289.382 382.701 289.382H112.946Z" fill="#D0E3FF"/>
<path fill-rule="evenodd" clip-rule="evenodd" d="M293.415 288.85H382.332C398.716 288.85 413.924 280.8 423.019 267.32C434.265 250.649 431.029 233.829 413.405 217.329C413.191 217.13 413.114 216.822 413.208 216.543C413.302 216.265 413.549 216.068 413.836 216.043C413.986 216.029 428.844 214.582 434.018 204.525C437.385 197.976 436.004 189.193 429.909 178.419C429.798 178.223 429.78 177.987 429.862 177.776C434.942 164.732 450.672 121.124 439.902 107.645C437.18 104.237 432.824 103.017 426.961 104.02C417.869 105.576 411.003 113.389 405.486 120.826C404.714 121.869 400.989 128.799 397.522 135.841C392.838 145.355 391.175 149.84 391.146 150.908C391.313 151.08 391.392 151.331 391.34 151.584C391.258 151.976 390.885 152.227 390.498 152.161C390.489 152.159 390.477 152.157 390.469 152.155C390.322 152.123 375.583 149.054 366.165 157.51C359.918 163.117 357.328 172.499 358.46 185.396C358.484 185.64 358.384 185.879 358.196 186.035C358.012 186.19 339.495 201.747 322.352 222.23C312.303 234.24 304.686 245.564 299.715 255.889C293.667 268.447 291.549 279.533 293.415 288.85ZM382.332 290.337H292.819C292.476 290.337 292.18 290.096 292.104 289.754C289.957 279.979 292.074 268.364 298.401 255.229C303.428 244.791 311.115 233.359 321.246 221.253C337.281 202.096 354.51 187.231 356.967 185.139C355.876 171.941 358.645 162.268 365.2 156.39C373.791 148.685 386.072 149.927 389.729 150.511C389.964 149.039 391.193 145.387 396.074 135.452C399.37 128.746 403.374 121.203 404.312 119.933C410.005 112.261 417.115 104.197 426.715 102.554C433.138 101.456 437.96 102.853 441.043 106.709C446.041 112.963 446.372 125.595 442.028 144.254C438.893 157.725 434.05 171.044 431.355 177.99C437.567 189.096 438.902 198.255 435.315 205.219C430.745 214.093 419.664 216.657 415.531 217.318C424.723 226.249 429.871 235.429 430.842 244.621C431.672 252.505 429.446 260.424 424.228 268.159C414.863 282.046 399.2 290.337 382.332 290.337V290.337Z" fill="white"/>
<path fill-rule="evenodd" clip-rule="evenodd" d="M364.625 261.685C364.518 261.685 364.41 261.662 364.305 261.614C363.931 261.439 363.772 260.996 363.949 260.625L438.855 103.571C439.032 103.201 439.478 103.042 439.853 103.218C440.227 103.393 440.385 103.836 440.209 104.207L365.302 261.261C365.173 261.528 364.904 261.685 364.625 261.685" fill="white"/>
<path fill-rule="evenodd" clip-rule="evenodd" d="M410.892 248.315C410.821 248.315 410.747 248.306 410.676 248.282L377.769 238.286C377.379 238.166 377.161 237.756 377.279 237.369C377.4 236.983 377.81 236.769 378.203 236.886L411.107 246.883C411.497 247.003 411.715 247.413 411.597 247.799C411.5 248.113 411.207 248.315 410.892 248.315" fill="white"/>
<path fill-rule="evenodd" clip-rule="evenodd" d="M377.956 127.978C377.885 127.978 377.811 127.966 377.74 127.942C377.366 127.818 377.162 127.4 377.281 127.009L406.424 31.0797C406.543 30.6882 406.942 30.4727 407.314 30.5969C407.688 30.7215 407.893 31.1395 407.776 31.5307L378.631 127.46C378.535 127.776 378.257 127.978 377.956 127.978" fill="white"/>
<path fill-rule="evenodd" clip-rule="evenodd" d="M393.672 79.2696C393.521 79.2696 393.368 79.2277 393.236 79.1404L351.791 51.9438C351.442 51.7151 351.356 51.2621 351.598 50.9316C351.837 50.6007 352.316 50.519 352.662 50.7471L394.107 77.9436C394.457 78.1723 394.543 78.6254 394.3 78.9559C394.153 79.1602 393.914 79.2696 393.672 79.2696" fill="white"/>
<path fill-rule="evenodd" clip-rule="evenodd" d="M62.8089 181.461C62.436 181.461 62.1173 181.235 62.0819 180.935C62.0441 180.616 62.3392 180.334 62.7414 180.304L98.5261 177.643C98.9268 177.615 99.2848 177.847 99.3225 178.166C99.3605 178.485 99.0648 178.767 98.6627 178.797L62.878 181.458C62.8549 181.46 62.8317 181.461 62.8089 181.461" fill="white"/>
<path fill-rule="evenodd" clip-rule="evenodd" d="M233.711 169.349C231.718 172.272 226.501 171.876 223.467 172.32C218.417 173.055 213.541 174.451 208.406 174.713C197.122 175.297 179.47 171.888 176.807 158.594C175.051 149.832 180.392 141.468 185.639 134.989C185.639 134.989 166.25 140.332 158.768 135.515C142.623 125.123 156.872 105.409 156.872 105.409C156.872 105.409 151.631 105.136 149.046 104.648C142.557 103.424 136.62 97.676 135.111 91.2196C132.371 79.4959 142.731 72.7207 151.676 68.0648C151.676 68.0648 145.966 57.3977 149.115 48.5093C152.269 39.6078 163.708 32.76 180.308 48.3997C180.861 48.921 181.42 49.4673 181.984 50.0374C182.648 50.6403 183.162 51.1571 183.677 51.9317C182.927 42.5278 195.322 36.7805 203.164 38.5078C206.771 39.3024 210.056 41.5525 212.113 44.6314C214.602 48.3575 214.813 52.9821 214.806 57.3277C214.805 57.5834 214.804 57.8392 214.802 58.0949C214.802 58.0949 250.796 48.612 256.213 88.2714C261.629 127.925 233.723 169.331 233.711 169.349" fill="#D8DDE2"/>
<path fill-rule="evenodd" clip-rule="evenodd" d="M248.553 70.6741C248.321 70.6741 248.093 70.5534 247.955 70.3306C243.29 62.7898 236.292 58.4676 227.156 57.4841C220.31 56.7472 214.801 58.2623 214.746 58.2776C214.53 58.338 214.3 58.2877 214.124 58.1415C213.948 57.9953 213.846 57.7697 213.847 57.5313C213.849 57.2695 213.85 57.0075 213.851 56.7454C213.858 52.3616 213.672 47.7739 211.369 44.1021C209.473 41.0791 206.481 38.8987 203.161 38.1196C200.991 37.6108 198.356 37.7613 195.742 38.5438C195.361 38.6569 194.965 38.4197 194.858 38.0123C194.752 37.6047 194.974 37.182 195.355 37.0677C198.192 36.219 201.073 36.0609 203.468 36.6227C207.146 37.4855 210.46 39.9007 212.56 43.2488C215.056 47.229 215.286 52.0076 215.284 56.5762C217.166 56.1621 221.772 55.364 227.299 55.9592C233.889 56.6688 243.03 59.5912 249.151 69.4852C249.369 69.838 249.279 70.3134 248.948 70.5469C248.827 70.6328 248.689 70.6741 248.553 70.6741" fill="white"/>
<path fill-rule="evenodd" clip-rule="evenodd" d="M235.152 143.258C234.936 143.258 234.722 143.167 234.574 142.992L158.71 52.7721C158.448 52.4596 158.493 51.9976 158.812 51.7403C159.13 51.4829 159.602 51.5275 159.864 51.8399L235.729 142.06C235.991 142.372 235.946 142.834 235.627 143.091C235.488 143.203 235.319 143.258 235.152 143.258" fill="white"/>
<path fill-rule="evenodd" clip-rule="evenodd" d="M188.886 87.8651C188.836 87.8651 188.785 87.8602 188.734 87.8497C188.335 87.7677 188.078 87.3826 188.162 86.9894L194.325 57.8825C194.408 57.4895 194.798 57.2362 195.199 57.3191C195.598 57.4011 195.854 57.7862 195.771 58.1794L189.608 87.286C189.535 87.6293 189.228 87.8651 188.886 87.8651" fill="white"/>
<path fill-rule="evenodd" clip-rule="evenodd" d="M176.461 119.382C176.088 119.382 175.769 119.157 175.734 118.857C175.696 118.538 175.991 118.255 176.393 118.225L212.178 115.564C212.579 115.536 212.937 115.768 212.974 116.087C213.012 116.406 212.717 116.688 212.315 116.718L176.53 119.38C176.507 119.381 176.484 119.382 176.461 119.382" fill="white"/>
<path fill-rule="evenodd" clip-rule="evenodd" d="M109.777 191.966C109.732 191.966 109.686 191.964 109.641 191.958C109.149 191.895 108.812 191.509 108.887 191.096L117.593 142.946C117.668 142.533 118.127 142.25 118.618 142.312C119.109 142.375 119.447 142.761 119.372 143.174L110.665 191.323C110.597 191.698 110.214 191.966 109.777 191.966" fill="white"/>
<path fill-rule="evenodd" clip-rule="evenodd" d="M389.446 93.5955C389.073 93.5955 388.75 93.3059 388.712 92.9162C388.67 92.4999 388.963 92.1269 389.372 92.0832L437.556 86.9144C437.958 86.8704 438.325 87.1731 438.367 87.5895C438.411 88.0058 438.115 88.3788 437.71 88.4225L389.526 93.5913C389.499 93.594 389.472 93.5955 389.446 93.5955" fill="white"/>
<path fill-rule="evenodd" clip-rule="evenodd" d="M478.961 117.472C478.697 117.472 478.483 117.204 478.483 116.874V114.249C478.483 113.919 478.697 113.652 478.961 113.652C479.225 113.652 479.438 113.919 479.438 114.249V116.874C479.438 117.204 479.225 117.472 478.961 117.472" fill="#F0E6FF"/>
<path fill-rule="evenodd" clip-rule="evenodd" d="M478.961 125.112C478.697 125.112 478.483 124.845 478.483 124.515V121.89C478.483 121.56 478.697 121.292 478.961 121.292C479.225 121.292 479.438 121.56 479.438 121.89V124.515C479.438 124.845 479.225 125.112 478.961 125.112" fill="#F0E6FF"/>
<path fill-rule="evenodd" clip-rule="evenodd" d="M484.571 119.382H481.946C481.616 119.382 481.348 119.168 481.348 118.905C481.348 118.641 481.616 118.427 481.946 118.427H484.571C484.903 118.427 485.168 118.641 485.168 118.905C485.168 119.168 484.903 119.382 484.571 119.382" fill="#F0E6FF"/>
<path fill-rule="evenodd" clip-rule="evenodd" d="M476.931 119.382H474.306C473.976 119.382 473.708 119.168 473.708 118.905C473.708 118.641 473.976 118.427 474.306 118.427H476.931C477.263 118.427 477.528 118.641 477.528 118.905C477.528 119.168 477.263 119.382 476.931 119.382" fill="#F0E6FF"/>
<path fill-rule="evenodd" clip-rule="evenodd" d="M429.298 3.82022C429.034 3.82022 428.82 3.55273 428.82 3.2226V0.59762C428.82 0.267495 429.034 0 429.298 0C429.561 0 429.775 0.267495 429.775 0.59762V3.2226C429.775 3.55273 429.561 3.82022 429.298 3.82022" fill="#F0E6FF"/>
<path fill-rule="evenodd" clip-rule="evenodd" d="M429.298 11.4607C429.034 11.4607 428.82 11.1932 428.82 10.8631V8.23812C428.82 7.908 429.034 7.6405 429.298 7.6405C429.561 7.6405 429.775 7.908 429.775 8.23812V10.8631C429.775 11.1932 429.561 11.4607 429.298 11.4607" fill="#F0E6FF"/>
<path fill-rule="evenodd" clip-rule="evenodd" d="M433.953 6.6854H431.328C430.996 6.6854 430.73 6.47166 430.73 6.20787C430.73 5.94409 430.996 5.73035 431.328 5.73035H433.953C434.283 5.73035 434.551 5.94409 434.551 6.20787C434.551 6.47166 434.283 6.6854 433.953 6.6854" fill="#F0E6FF"/>
<path fill-rule="evenodd" clip-rule="evenodd" d="M426.312 6.6854H423.688C423.358 6.6854 423.09 6.47166 423.09 6.20787C423.09 5.94409 423.358 5.73035 423.688 5.73035H426.312C426.642 5.73035 426.91 5.94409 426.91 6.20787C426.91 6.47166 426.642 6.6854 426.312 6.6854" fill="#F0E6FF"/>
<path fill-rule="evenodd" clip-rule="evenodd" d="M484.213 66.8417L474.596 67.809L466.067 55.4056L475.685 54.4382L484.213 66.8417" fill="#D0E3FF"/>
<path fill-rule="evenodd" clip-rule="evenodd" d="M474.71 53.3746L465.112 54.4382L475.574 44.0411L485.168 42.9775L474.71 53.3746" fill="#D0E3FF"/>
<path fill-rule="evenodd" clip-rule="evenodd" d="M486.149 42.9775L494.719 55.9831L484.188 65.8989L475.618 52.8931L486.149 42.9775" fill="#D0E3FF"/>
<path fill-rule="evenodd" clip-rule="evenodd" d="M482.601 66.8539C482.381 66.8539 482.166 66.7425 482.033 66.5356L473.827 53.8137C473.634 53.5143 473.681 53.1107 473.934 52.8666L484.015 43.1672C484.297 42.8966 484.732 42.9182 484.988 43.215C485.245 43.5118 485.226 43.9718 484.944 44.2424L475.304 53.5166L483.172 65.7171C483.387 66.0494 483.304 66.5016 482.99 66.728C482.871 66.8132 482.736 66.8539 482.601 66.8539" fill="white"/>
<path fill-rule="evenodd" clip-rule="evenodd" d="M463.943 56.3483C463.566 56.3483 463.245 56.0216 463.206 55.5829C463.164 55.1148 463.462 54.6972 463.869 54.6495L473.844 53.4878C474.258 53.4388 474.617 53.7811 474.659 54.2489C474.701 54.7169 474.403 55.1349 473.993 55.1823L464.02 56.3442C463.994 56.347 463.967 56.3483 463.943 56.3483" fill="white"/>
<path fill-rule="evenodd" clip-rule="evenodd" d="M484.377 42.0224C484.013 42.0224 483.687 41.7941 483.604 41.4586L482.322 36.2132C482.227 35.825 482.496 35.4402 482.924 35.3541C483.351 35.2686 483.772 35.5128 483.867 35.9007L485.149 41.1461C485.244 41.5343 484.975 41.919 484.548 42.0052C484.491 42.0167 484.434 42.0224 484.377 42.0224" fill="#F0E6FF"/>
<path fill-rule="evenodd" clip-rule="evenodd" d="M488.625 43.9326C488.384 43.9326 488.16 43.7382 488.071 43.424C487.957 43.0197 488.113 42.5699 488.417 42.4193L491.058 41.1166C491.362 40.9663 491.704 41.1716 491.817 41.5761C491.93 41.9804 491.775 42.4299 491.47 42.5805L488.83 43.8832C488.761 43.9166 488.693 43.9326 488.625 43.9326" fill="#F0E6FF"/>
<path fill-rule="evenodd" clip-rule="evenodd" d="M15.2809 38.9325L8.446 55.3933L1.91016 28.6517L15.2809 38.9325" fill="#D0E3FF"/>
<path fill-rule="evenodd" clip-rule="evenodd" d="M3.01232 30.2331L9.09706 52.4342L15.4604 38.7682L3.01232 30.2331ZM9.08845 55.3727C9.01026 55.3908 8.92869 55.3973 8.84557 55.3908C8.52051 55.365 8.24778 55.1446 8.16436 54.8408L0.980688 28.629C0.897884 28.3269 1.02009 28.0068 1.28636 27.8289C1.55262 27.6507 1.906 27.6528 2.17042 27.8342L16.8671 37.911C17.1667 38.1163 17.2738 38.4973 17.1236 38.8204L9.61051 54.9551C9.51109 55.1687 9.31562 55.3201 9.08845 55.3727V55.3727Z" fill="white"/>
<path fill-rule="evenodd" clip-rule="evenodd" d="M1.91016 28.6517L26.7416 30.7024L15.6393 39.1574L1.91016 28.6517" fill="#D0E3FF"/>
<path fill-rule="evenodd" clip-rule="evenodd" d="M28.6519 30.5618L23.6964 45.637L10.5059 54.4382L17.5339 38.5486L28.6519 30.5618" fill="#D0E3FF"/>
<path fill-rule="evenodd" clip-rule="evenodd" d="M17.6687 39.5775L11.8802 52.7284L22.528 45.5895L26.6048 33.1271L17.6687 39.5775ZM10.4173 55.3734C10.2033 55.4258 9.97189 55.374 9.79749 55.222C9.55991 55.0154 9.48465 54.6734 9.61242 54.3831L16.4664 38.8119C16.5178 38.6949 16.5993 38.5943 16.7018 38.5204L27.5442 30.6933C27.7919 30.5145 28.1244 30.5182 28.3685 30.7031C28.6122 30.8877 28.7119 31.2113 28.6156 31.5054L23.7827 46.2789C23.733 46.4314 23.6342 46.5626 23.5025 46.6506L10.6383 55.2756C10.5692 55.3221 10.4942 55.3545 10.4173 55.3734V55.3734Z" fill="white"/>
<path fill-rule="evenodd" clip-rule="evenodd" d="M15.6466 38.1817C15.4379 38.2297 15.2092 38.1944 15.0205 38.0661L0.32398 28.0774C-0.0226314 27.8419 -0.103897 27.3823 0.142363 27.0511C0.388623 26.72 0.868831 26.6422 1.21544 26.8777L15.9123 36.8664C16.2586 37.1019 16.3398 37.5612 16.0936 37.8927C15.9815 38.0431 15.8211 38.1414 15.6466 38.1817" fill="white"/>
<path fill-rule="evenodd" clip-rule="evenodd" d="M10.4149 56.3272C10.2715 56.3646 10.1163 56.3533 9.97058 56.2843C9.61621 56.116 9.45457 55.668 9.60977 55.2835L16.5166 38.163C16.5687 38.0338 16.6527 37.9229 16.7597 37.8429L27.5529 29.7419C27.8712 29.503 28.3073 29.589 28.5272 29.9343C28.7477 30.2795 28.6679 30.7524 28.3499 30.9913L17.7201 38.9696L10.8931 55.8929C10.8015 56.1193 10.6205 56.2734 10.4149 56.3272" fill="white"/>
<path fill-rule="evenodd" clip-rule="evenodd" d="M508.09 156.065L488.864 140.393L478.483 154.118L497.947 170L508.09 156.065" fill="#D0E3FF"/>
<path fill-rule="evenodd" clip-rule="evenodd" d="M507.125 169.543C504.23 173.492 499.108 174.974 495.686 172.852C492.26 170.731 491.834 165.81 494.729 161.861C497.624 157.912 502.746 156.431 506.171 158.552C509.594 160.674 510.019 165.594 507.125 169.543" fill="#D0E3FF"/>
<path fill-rule="evenodd" clip-rule="evenodd" d="M502.589 164.27C502.426 164.27 502.26 164.217 502.126 164.109L483.524 149.283C483.213 149.036 483.169 148.592 483.423 148.291C483.679 147.99 484.138 147.947 484.447 148.194L503.048 163.02C503.36 163.268 503.403 163.712 503.15 164.012C503.005 164.182 502.798 164.27 502.589 164.27" fill="white"/>
<path fill-rule="evenodd" clip-rule="evenodd" d="M488.979 152.352C486.084 156.301 480.962 157.783 477.537 155.661C474.115 153.54 473.689 148.619 476.583 144.67C479.478 140.721 484.6 139.24 488.023 141.361C491.448 143.483 491.874 148.403 488.979 152.352" fill="#D0E3FF"/>
<path fill-rule="evenodd" clip-rule="evenodd" d="M503.419 158.997C501.078 158.997 498.517 160.397 496.835 162.843C495.651 164.567 495.084 166.539 495.235 168.398C495.379 170.196 496.19 171.668 497.509 172.542C500.291 174.382 504.516 173.025 506.927 169.517C508.111 167.793 508.681 165.82 508.528 163.962C508.383 162.163 507.575 160.691 506.253 159.818C505.411 159.261 504.435 158.997 503.419 158.997ZM500.325 174.775C499.035 174.775 497.784 174.436 496.702 173.719C495.009 172.599 493.973 170.749 493.793 168.511C493.614 166.333 494.271 164.038 495.637 162.049C498.493 157.892 503.619 156.363 507.06 158.64C508.756 159.761 509.789 161.611 509.972 163.848C510.148 166.026 509.494 168.321 508.125 170.31C506.169 173.16 503.144 174.775 500.325 174.775V174.775Z" fill="white"/>
<path fill-rule="evenodd" clip-rule="evenodd" d="M484.325 141.805C481.982 141.805 479.42 143.206 477.737 145.652C476.553 147.376 475.983 149.349 476.136 151.207C476.281 153.005 477.092 154.477 478.412 155.351C481.195 157.191 485.422 155.834 487.834 152.326C490.243 148.818 489.942 144.467 487.159 142.627C486.317 142.07 485.341 141.805 484.325 141.805ZM481.229 157.584C479.935 157.584 478.687 157.245 477.604 156.528C475.907 155.408 474.874 153.558 474.691 151.32C474.515 149.142 475.169 146.847 476.539 144.858C479.397 140.701 484.524 139.172 487.967 141.449C491.413 143.727 491.891 148.963 489.033 153.12C487.075 155.969 484.047 157.584 481.229 157.584V157.584Z" fill="white"/>
<path d="M224.017 246.777H149.835C118.496 246.777 93 221.266 93 189.903C93 168.12 107.176 145.509 126.713 136.138L129.685 134.717V131.413C129.685 130.747 129.727 130.071 129.763 129.389L129.81 128.55L129.748 127.449C129.716 127.024 129.685 126.6 129.685 126.17C129.685 105.934 146.146 89.4629 166.369 89.4629C167.989 89.4629 169.587 89.6045 171.175 89.8142C171.584 89.8667 171.993 89.9348 172.396 90.003C173.795 90.2337 175.174 90.5379 176.531 90.9312C176.714 90.9836 176.903 91.0203 177.087 91.0727C178.58 91.529 180.037 92.1058 181.462 92.756C181.835 92.9238 182.196 93.1073 182.563 93.2856C183.821 93.9097 185.052 94.5913 186.242 95.3622C196.341 101.906 203.054 113.259 203.054 126.17C203.054 129.069 205.397 131.413 208.295 131.413C211.193 131.413 213.535 129.069 213.535 126.17C213.535 111.728 207.006 98.8021 196.765 90.1393C211.79 70.475 236.531 58 261.147 58C301.736 58 335.444 90.1708 338.96 130.826C333.604 130.449 325.586 130.255 317.563 131.476C314.701 131.912 312.736 134.586 313.171 137.449C313.564 140.045 315.797 141.906 318.344 141.906C318.606 141.906 318.873 141.885 319.135 141.843C330.806 140.076 342.969 141.733 343.682 141.833C368.083 146.474 386.477 168.964 386.477 194.192C386.477 223.185 362.9 246.777 333.924 246.777H265.942H224.017Z" fill="#1063FE"/>
<path fill-rule="evenodd" clip-rule="evenodd" d="M288.916 121.221C287.511 139.452 279.946 192.99 239.341 215.05C198.74 192.992 191.173 139.459 189.768 121.221C190.849 121.253 191.918 121.271 192.971 121.271C218.58 121.271 232.578 111.24 239.341 104.005C246.108 111.24 260.106 121.271 285.711 121.271C286.766 121.271 287.835 121.253 288.916 121.221" fill="white"/>
<path fill-rule="evenodd" clip-rule="evenodd" d="M228.663 161.886H249.227V144.097C249.227 137.746 244.615 132.58 238.945 132.58C233.276 132.58 228.663 137.746 228.663 144.097V161.886ZM249.698 162.7H228.193C227.998 162.7 227.841 162.525 227.841 162.31V144.09C227.841 137.294 232.822 131.766 238.945 131.766C245.068 131.766 250.05 137.294 250.05 144.09V162.31C250.05 162.525 249.893 162.7 249.698 162.7V162.7Z" fill="#1063FE"/>
<path d="M228.663 161.886H226.663V163.886H228.663V161.886ZM249.227 161.886V163.886H251.227V161.886H249.227ZM228.663 163.886H249.227V159.886H228.663V163.886ZM251.227 161.886V144.097H247.227V161.886H251.227ZM251.227 144.097C251.227 136.861 245.926 130.58 238.945 130.58V134.58C243.303 134.58 247.227 138.632 247.227 144.097H251.227ZM238.945 130.58C231.964 130.58 226.663 136.861 226.663 144.097H230.663C230.663 138.632 234.588 134.58 238.945 134.58V130.58ZM226.663 144.097V161.886H230.663V144.097H226.663ZM249.698 160.7H228.193V164.7H249.698V160.7ZM228.193 160.7C229.295 160.7 229.841 161.623 229.841 162.31H225.841C225.841 163.428 226.701 164.7 228.193 164.7V160.7ZM229.841 162.31V144.09H225.841V162.31H229.841ZM229.841 144.09C229.841 138.198 234.118 133.766 238.945 133.766V129.766C231.527 129.766 225.841 136.391 225.841 144.09H229.841ZM238.945 133.766C243.773 133.766 248.05 138.198 248.05 144.09H252.05C252.05 136.391 246.364 129.766 238.945 129.766V133.766ZM248.05 144.09V162.31H252.05V144.09H248.05ZM248.05 162.31C248.05 161.623 248.596 160.7 249.698 160.7V164.7C251.189 164.7 252.05 163.428 252.05 162.31H248.05Z" fill="#1063FE"/>
<path fill-rule="evenodd" clip-rule="evenodd" d="M253.251 177.771H225.434C221.945 177.771 219.116 174.794 219.116 171.122V155.865C219.116 152.193 221.945 149.216 225.434 149.216H253.251C256.74 149.216 259.569 152.193 259.569 155.865V171.122C259.569 174.794 256.74 177.771 253.251 177.771" fill="#1063FE"/>
<path fill-rule="evenodd" clip-rule="evenodd" d="M243.705 159.923C243.705 157.471 241.496 155.491 238.802 155.563C236.269 155.631 234.185 157.603 234.187 159.927C234.189 161.174 234.764 162.295 235.681 163.09L234.544 168.827C234.359 169.767 235.145 170.632 236.188 170.632H241.703C242.746 170.632 243.532 169.767 243.348 168.827L242.21 163.09C243.129 162.294 243.705 161.172 243.705 159.923" fill="white"/>
<path fill-rule="evenodd" clip-rule="evenodd" d="M167.224 230.146C167.164 230.152 167.105 230.167 167.046 230.191L167.224 230.146" fill="#2A0055"/>
<path fill-rule="evenodd" clip-rule="evenodd" d="M440.673 269.326C440.42 269.326 440.19 269.143 440.128 268.872L428.836 219.436C428.763 219.119 428.949 218.8 429.252 218.724C429.552 218.648 429.856 218.843 429.929 219.16L441.22 268.597C441.293 268.913 441.108 269.231 440.805 269.308C440.762 269.32 440.717 269.326 440.673 269.326" fill="white"/>
<path fill-rule="evenodd" clip-rule="evenodd" d="M453.067 271.236H429.405C429.081 271.236 428.82 271.021 428.82 270.758C428.82 270.493 429.081 270.281 429.405 270.281H453.067C453.388 270.281 453.652 270.493 453.652 270.758C453.652 271.021 453.388 271.236 453.067 271.236" fill="white"/>
</svg>
