<svg width="510" height="334" viewBox="0 0 510 334" fill="none" xmlns="http://www.w3.org/2000/svg">
<path fill-rule="evenodd" clip-rule="evenodd" d="M242.054 36.4056C237.598 36.3623 234.011 32.7032 234.055 28.2488C234.097 23.7947 237.756 20.2061 242.21 20.2494C245.141 20.2779 247.832 21.8958 249.231 24.472C249.402 24.7862 249.288 25.1797 248.972 25.3507C248.658 25.5218 248.264 25.4057 248.093 25.0913C246.917 22.928 244.656 21.5693 242.197 21.5454C238.459 21.5091 235.387 24.5218 235.351 28.2615C235.312 32.0013 238.327 35.0733 242.067 35.1096C242.425 35.113 242.71 35.4059 242.707 35.7638C242.705 36.1218 242.412 36.409 242.054 36.4056" fill="#CFE4FF"/>
<path fill-rule="evenodd" clip-rule="evenodd" d="M279.294 45.6766L274.59 44.0537L272.63 52.1592L271.246 53.5041L279.294 45.6766" fill="white"/>
<path fill-rule="evenodd" clip-rule="evenodd" d="M271.247 53.5041L264.062 60.4948L244.207 30.4097L287.722 37.4806L271.247 53.5041" fill="#CFE4FF"/>
<path fill-rule="evenodd" clip-rule="evenodd" d="M279.166 59.4863L250.734 34.0471L279.272 45.6611L279.166 59.4863" fill="#CFE4FF"/>
<path fill-rule="evenodd" clip-rule="evenodd" d="M272.269 53.9652C272.116 53.9636 271.966 53.9092 271.844 53.8003L250.304 34.5303C250.071 34.3201 250.022 33.9715 250.188 33.7043C250.356 33.4368 250.69 33.3287 250.981 33.4471L279.521 45.0611C279.853 45.1959 280.011 45.5741 279.876 45.9053C279.742 46.2371 279.363 46.3965 279.031 46.2615L253.954 36.056L272.707 52.8343C272.974 53.0727 272.997 53.4825 272.759 53.7492C272.629 53.8939 272.448 53.967 272.269 53.9652" fill="white"/>
<path fill-rule="evenodd" clip-rule="evenodd" d="M264.379 20.6461C264.109 20.6438 263.86 20.4714 263.769 20.2011C260.592 10.5568 251.631 4.01093 241.47 3.91218C234.625 3.84556 228.085 6.74057 223.526 11.8551C223.288 12.1221 222.878 12.1457 222.611 11.9077C222.344 11.6695 222.321 11.26 222.559 10.9927C227.367 5.59905 234.265 2.54593 241.483 2.61618C252.199 2.72037 261.649 9.62391 265.001 19.7954C265.112 20.1352 264.928 20.5018 264.588 20.6137C264.518 20.6365 264.449 20.6469 264.379 20.6461" fill="#CFE4FF"/>
<path fill-rule="evenodd" clip-rule="evenodd" d="M240.999 52.6391C230.978 52.5419 221.74 46.2268 218.013 36.9244C215.626 30.9622 215.831 24.5481 218.659 16.7386C218.783 16.4019 219.154 16.2285 219.491 16.3501C219.828 16.4719 220.001 16.8434 219.879 17.1801C217.163 24.6725 216.953 30.7932 219.216 36.4425C222.751 45.2628 231.51 51.2511 241.012 51.3434C241.37 51.3468 241.657 51.6399 241.652 51.9976C241.65 52.3556 241.357 52.6428 240.999 52.6391" fill="#CFE4FF"/>
<path fill-rule="evenodd" clip-rule="evenodd" d="M217.705 8.7791C217.453 8.77651 217.215 8.62695 217.114 8.38045L214.073 1.09278C213.936 0.762564 214.092 0.383354 214.421 0.24546C214.753 0.107565 215.131 0.263863 215.268 0.594084L218.309 7.88149C218.446 8.21171 218.291 8.59118 217.961 8.72908C217.876 8.76381 217.79 8.77988 217.705 8.7791" fill="#CFE4FF"/>
<path fill-rule="evenodd" clip-rule="evenodd" d="M215.573 14.5474L201.838 14.4139C201.478 14.4106 201.193 14.1177 201.195 13.7597C201.198 13.4018 201.491 13.1146 201.849 13.1179L215.586 13.2514C215.944 13.2551 216.232 13.548 216.229 13.9057C216.224 14.2636 215.931 14.5508 215.573 14.5474" fill="#CFE4FF"/>
<path fill-rule="evenodd" clip-rule="evenodd" d="M485.073 328.732C485.278 328.732 485.477 328.636 485.604 328.457C485.809 328.164 485.739 327.76 485.446 327.555C477.663 322.101 471.04 311.526 470.045 302.949C467.315 279.465 481.955 263.04 496.112 247.156C497.551 245.541 499.031 243.883 500.482 242.224L500.726 248.997C500.739 249.354 501.037 249.626 501.397 249.621C501.755 249.608 502.035 249.308 502.022 248.95L501.721 240.539C501.711 240.274 501.54 240.041 501.289 239.953C501.037 239.865 500.757 239.938 500.584 240.14C498.795 242.198 496.939 244.282 495.146 246.296C480.796 262.392 465.96 279.038 468.756 303.099C469.791 312.003 476.646 322.972 484.702 328.615C484.814 328.695 484.943 328.732 485.073 328.732" fill="#CFE4FF"/>
<path fill-rule="evenodd" clip-rule="evenodd" d="M482.087 232.167C482.284 232.167 482.479 232.078 482.606 231.91C482.714 231.762 482.826 231.617 482.935 231.469C484.112 229.901 485.208 228.354 486.196 226.869C495.223 213.289 498.414 198.889 495.68 184.07C493.303 171.189 486.341 158.24 475.55 146.624C475.307 146.362 474.897 146.347 474.633 146.591C474.371 146.834 474.355 147.244 474.599 147.506C497.865 172.545 501.696 201.21 485.115 226.151C484.14 227.615 483.059 229.144 481.898 230.692C481.789 230.837 481.68 230.982 481.571 231.127C481.356 231.412 481.411 231.819 481.698 232.034C481.815 232.123 481.952 232.167 482.087 232.167" fill="#CFE4FF"/>
<path fill-rule="evenodd" clip-rule="evenodd" d="M469.797 142.427C469.97 142.427 470.144 142.357 470.271 142.221C470.515 141.959 470.502 141.549 470.24 141.305C463.41 134.93 455.699 129.332 447.319 124.666C432.308 116.309 415.181 110.121 396.412 106.274C379.167 102.74 360.987 101.253 342.374 101.856C337.49 102.014 332.576 102.295 327.993 102.575C326.884 102.642 325.777 102.711 324.67 102.78C301.902 104.193 278.357 105.655 256.281 96.3654C244.71 91.4963 234.643 83.1771 224.907 75.1318C221.206 72.0745 217.38 68.913 213.52 65.9799C213.235 65.7635 212.828 65.819 212.613 66.1038C212.395 66.3887 212.452 66.7954 212.735 67.0118C216.576 69.9291 220.392 73.0817 224.08 76.1307C233.888 84.2359 244.033 92.6166 255.78 97.5598C278.134 106.967 301.832 105.496 324.751 104.073C325.858 104.004 326.964 103.936 328.071 103.868C332.646 103.589 337.55 103.309 342.415 103.151C381.173 101.895 418.205 109.939 446.689 125.798C454.978 130.413 462.604 135.949 469.353 142.252C469.48 142.369 469.638 142.427 469.797 142.427" fill="#CFE4FF"/>
<path fill-rule="evenodd" clip-rule="evenodd" d="M344.304 332.226C227.568 332.226 71.9921 332.226 71.9921 332.226C71.9921 332.226 37.4236 195.192 108.586 169.854C113.619 168.062 112.431 171.487 107.343 169.857C100.901 167.795 94.8042 165.365 89.9494 162.457C27.0753 124.797 101.916 56.4479 147.208 49.3813C161.578 47.1393 176.833 48.2722 190.525 53.4041L344.304 332.226" fill="white"/>
<path fill-rule="evenodd" clip-rule="evenodd" d="M71.9916 332.874H344.304C344.664 332.874 344.952 332.583 344.952 332.226C344.952 331.868 344.664 331.578 344.304 331.578H72.5002C71.46 327.252 64.014 295.038 64.2506 260.523C64.4821 226.819 72.2944 184.005 108.072 170.73C110.233 171.225 111.796 170.864 112.288 170.169C112.518 169.844 112.519 169.438 112.289 169.135C111.62 168.253 109.545 168.824 108.368 169.243C108.245 169.287 108.121 169.331 107.998 169.376C107.851 169.336 107.698 169.291 107.54 169.24C100.306 166.925 94.6613 164.524 90.2818 161.901C71.8835 150.881 63.9152 136.041 67.2387 118.985C73.3503 87.6186 116.373 54.848 147.308 50.0214C162.249 47.6899 177.115 49.0699 190.297 54.0108C190.632 54.1365 191.006 53.9667 191.131 53.6316C191.257 53.2964 191.087 52.9229 190.752 52.7972C177.361 47.7783 162.27 46.3755 147.108 48.741C131.877 51.1173 113.303 60.3049 97.4215 73.3178C89.3632 79.9204 82.3132 87.3146 77.0338 94.7008C71.2104 102.848 67.487 110.934 65.9665 118.737C64.332 127.126 65.297 135.021 68.8359 142.201C72.7169 150.077 79.7085 157.078 89.6162 163.013C93.8577 165.553 99.2431 167.883 106.054 170.121C90.8103 176.267 79.4436 188.214 72.2469 205.667C66.2286 220.262 63.1024 238.724 62.9546 260.536C62.704 297.617 71.2765 332.042 71.3633 332.384C71.4359 332.672 71.6946 332.874 71.9916 332.874" fill="#CFE4FF"/>
<path fill-rule="evenodd" clip-rule="evenodd" d="M501.337 241.169C501.309 241.179 501.278 241.189 501.246 241.197L492.924 242.576C492.574 242.654 492.226 242.434 492.149 242.084C492.071 241.736 492.289 241.386 492.641 241.311L500.964 239.932C501.314 239.852 501.661 240.072 501.739 240.422C501.809 240.741 501.633 241.057 501.337 241.169" fill="#CFE4FF"/>
<path fill-rule="evenodd" clip-rule="evenodd" d="M52.2018 167.222C48.5667 165.791 45.1865 164.211 42.2583 162.457C12.6753 144.738 13.5799 120.224 27.5492 98.4968L28.6394 105.98L52.2018 167.222" fill="white"/>
<path fill-rule="evenodd" clip-rule="evenodd" d="M52.2013 167.87C52.46 167.87 52.7042 167.714 52.8045 167.459C52.9356 167.126 52.7718 166.749 52.439 166.618C48.6244 165.117 45.311 163.53 42.591 161.901C29.8951 154.296 22.1912 145.028 19.693 134.353C17.2747 124.019 19.8573 112.287 27.1621 100.334L27.9983 106.074C28.0496 106.428 28.3803 106.672 28.7328 106.622C29.0869 106.57 29.3324 106.241 29.2805 105.887L28.1901 98.4034C28.1512 98.1356 27.9506 97.9205 27.6862 97.8634C27.4216 97.8067 27.1502 97.9189 27.004 98.1462C18.7951 110.914 15.8309 123.536 18.4309 134.648C21.0121 145.678 28.9166 155.221 41.9253 163.013C44.706 164.678 48.0837 166.297 51.9642 167.824C52.0422 167.855 52.1225 167.87 52.2013 167.87" fill="#CFE4FF"/>
<path fill-rule="evenodd" clip-rule="evenodd" d="M53.6493 177.087C2.80103 202.409 15.6649 290.735 21.8966 321.534L26.1741 315.803L53.6493 177.087" fill="white"/>
<path fill-rule="evenodd" clip-rule="evenodd" d="M21.8987 322.182C22.1003 322.182 22.294 322.086 22.4179 321.92L26.6957 316.191C26.9098 315.904 26.8507 315.497 26.564 315.284C26.2779 315.069 25.8712 315.129 25.6573 315.414L22.2491 319.981C19.175 304.403 14.7279 275.505 17.0159 247.309C19.892 211.869 32.3149 188.437 53.9402 177.668C54.2606 177.508 54.391 177.119 54.2316 176.799C54.0721 176.478 53.6828 176.348 53.3627 176.507C41.4424 182.444 32.1615 192.276 25.7768 205.731C20.4241 217.011 17.0421 230.964 15.7243 247.203C13.3516 276.441 18.1766 306.404 21.2636 321.661C21.3142 321.912 21.5073 322.109 21.7566 322.166C21.8041 322.176 21.8515 322.182 21.8987 322.182" fill="#CFE4FF"/>
<path fill-rule="evenodd" clip-rule="evenodd" d="M311.952 293.62C313.362 293.62 314.021 292.716 314.06 292.659C314.267 292.366 314.194 291.962 313.901 291.757C313.611 291.555 313.215 291.619 313.007 291.905C312.961 291.964 312.17 292.902 310.115 291.726C309.804 291.547 309.41 291.656 309.231 291.964C309.052 292.275 309.161 292.672 309.472 292.851C310.472 293.423 311.294 293.62 311.952 293.62" fill="#F0E6FF"/>
<path fill-rule="evenodd" clip-rule="evenodd" d="M323.57 332.226C206.834 332.226 51.2577 332.226 51.2577 332.226C51.2577 332.226 16.6892 195.192 87.8515 169.854C92.8849 168.061 91.697 171.487 86.6084 169.857C80.167 167.795 74.0699 165.365 69.2151 162.457C6.34091 124.797 81.1818 56.4479 126.474 49.3813C144.681 46.5405 164.311 49.118 180.381 58.3841C199.589 69.4597 214.784 88.3311 235.297 96.9627C258.568 106.756 282.93 104.709 307.297 103.221C312.087 102.929 316.877 102.658 321.66 102.503C357.144 101.355 395.003 107.824 426.27 125.232C462.377 145.336 491.521 186.498 464.919 226.511C448.66 250.969 418.39 269.608 422.273 303.024C423.642 314.805 424.769 332.521 438.478 332.521C425.562 332.521 424.474 332.226 386.657 332.226H323.57" fill="#CFE4FF"/>
<path fill-rule="evenodd" clip-rule="evenodd" d="M209.141 305.295C208.871 305.295 208.62 305.126 208.529 304.859L198.786 277.122C198.669 276.783 198.848 276.415 199.187 276.298C199.524 276.179 199.892 276.36 200.012 276.697L209.752 304.434C209.869 304.774 209.69 305.142 209.353 305.259C209.283 305.284 209.211 305.295 209.141 305.295" fill="#2A0055"/>
<path fill-rule="evenodd" clip-rule="evenodd" d="M213.244 128.787H223.884L258.044 253.96H169.25L213.244 128.787" fill="white"/>
<path fill-rule="evenodd" clip-rule="evenodd" d="M258.044 254.608H169.25C168.892 254.608 168.602 254.318 168.602 253.96C168.602 253.603 168.892 253.312 169.25 253.312H257.194L223.392 129.435H213.244C212.886 129.435 212.596 129.145 212.596 128.787C212.596 128.429 212.886 128.139 213.244 128.139H223.884C224.177 128.139 224.434 128.335 224.512 128.617L258.669 253.789C258.721 253.984 258.682 254.191 258.557 254.352C258.436 254.512 258.244 254.608 258.044 254.608" fill="#2A0055"/>
<path fill-rule="evenodd" clip-rule="evenodd" d="M169.251 253.652L135.094 128.479H221.348L169.251 253.652" fill="white"/>
<path fill-rule="evenodd" clip-rule="evenodd" d="M169.25 254.3C168.965 254.3 168.704 254.111 168.626 253.823L134.468 128.65C134.415 128.455 134.456 128.247 134.578 128.086C134.701 127.926 134.891 127.831 135.093 127.831H221.348C221.705 127.831 221.996 128.121 221.996 128.479C221.996 128.837 221.705 129.127 221.348 129.127H135.942L169.876 253.481C169.97 253.826 169.767 254.183 169.421 254.277C169.364 254.292 169.306 254.3 169.25 254.3" fill="#2A0055"/>
<path fill-rule="evenodd" clip-rule="evenodd" d="M184.93 254.608C184.645 254.608 184.384 254.419 184.306 254.131L150.148 128.958C150.054 128.613 150.257 128.257 150.602 128.162C150.947 128.068 151.304 128.272 151.398 128.617L185.556 253.789C185.65 254.134 185.446 254.492 185.101 254.585C185.044 254.6 184.987 254.608 184.93 254.608" fill="#2A0055"/>
<path fill-rule="evenodd" clip-rule="evenodd" d="M142.32 333.478C142.251 333.478 142.18 333.467 142.111 333.444C141.772 333.327 141.591 332.959 141.707 332.62L168.793 253.735C168.909 253.395 169.277 253.216 169.616 253.33C169.955 253.447 170.135 253.815 170.02 254.152L142.933 333.04C142.841 333.309 142.59 333.478 142.32 333.478" fill="#2A0055"/>
<path fill-rule="evenodd" clip-rule="evenodd" d="M214.946 305.79C214.876 305.79 214.806 305.78 214.736 305.754C214.396 305.64 214.217 305.272 214.331 304.932L232.061 254.86C232.177 254.523 232.545 254.341 232.885 254.458C233.222 254.572 233.403 254.94 233.287 255.28L215.557 305.352C215.467 305.621 215.215 305.79 214.946 305.79" fill="#2A0055"/>
<path fill-rule="evenodd" clip-rule="evenodd" d="M196.795 269.632C196.523 269.632 196.269 269.458 196.181 269.186L191.371 254.673H170.308C169.95 254.673 169.66 254.383 169.66 254.025C169.66 253.667 169.95 253.377 170.308 253.377H192.309L197.412 268.781C197.524 269.121 197.34 269.489 196.997 269.6C196.933 269.621 196.863 269.632 196.795 269.632" fill="#2A0055"/>
<path fill-rule="evenodd" clip-rule="evenodd" d="M274.754 333.467C274.485 333.467 274.233 333.301 274.14 333.032L254.77 277.122C254.653 276.783 254.832 276.415 255.169 276.298C255.509 276.179 255.877 276.36 255.996 276.697L275.366 332.607C275.483 332.946 275.304 333.314 274.967 333.431C274.894 333.457 274.824 333.467 274.754 333.467" fill="#2A0055"/>
<path fill-rule="evenodd" clip-rule="evenodd" d="M252.78 269.562C252.508 269.562 252.254 269.388 252.166 269.116L247.355 254.603H226.293C225.935 254.603 225.645 254.313 225.645 253.955C225.645 253.597 225.935 253.307 226.293 253.307H248.293L253.397 268.711C253.509 269.051 253.324 269.419 252.982 269.53C252.915 269.551 252.848 269.562 252.78 269.562" fill="#2A0055"/>
<path fill-rule="evenodd" clip-rule="evenodd" d="M255.722 166.201L258.045 181.882L268.164 190.404L267.205 199.733L259.354 202.144H243.231L239.828 196.441L242.475 175.25L255.722 166.201" fill="#FFBFAA"/>
<path fill-rule="evenodd" clip-rule="evenodd" d="M290.803 304.865L307.348 315.074L322.872 323.366V332.301H295.866L292.677 321.313H289.487L288.105 332.301H282.683L280.254 304.865H290.803" fill="#001E57"/>
<path fill-rule="evenodd" clip-rule="evenodd" d="M321.455 324.175H303.921C303.747 324.175 303.578 324.118 303.441 324.017L292.627 316.018C292.269 315.754 292.194 315.248 292.459 314.89C292.723 314.533 293.229 314.458 293.586 314.722L304.188 322.56H321.455C321.901 322.56 322.262 322.923 322.262 323.366C322.262 323.812 321.901 324.175 321.455 324.175" fill="white"/>
<path fill-rule="evenodd" clip-rule="evenodd" d="M217.922 304.865L205.651 315.383L195.18 323.366V332.301H218.272L220.885 321.313H221.657L223.039 332.301H226.045L228.474 304.865H217.922" fill="#001E57"/>
<path fill-rule="evenodd" clip-rule="evenodd" d="M211.155 324.113H195.852C195.406 324.113 195.043 323.75 195.043 323.304C195.043 322.858 195.406 322.498 195.852 322.498H210.789L219.677 312.304C219.97 311.967 220.478 311.933 220.815 312.226C221.152 312.519 221.186 313.027 220.893 313.364L211.764 323.835C211.611 324.012 211.388 324.113 211.155 324.113" fill="white"/>
<path fill-rule="evenodd" clip-rule="evenodd" d="M251.679 219.679L247.692 210.972L201.555 209.624L199.911 213.157C195.453 222.734 195.059 233.706 198.817 243.579C200.526 248.064 204.382 251.384 209.071 252.405C211.624 252.962 214.232 253.242 216.847 253.242H251.679V219.679" fill="#006BFF"/>
<path fill-rule="evenodd" clip-rule="evenodd" d="M208.879 250.409H268.985V216.845H208.879V250.409Z" fill="#006BFF"/>
<path fill-rule="evenodd" clip-rule="evenodd" d="M304.482 308.934H276.701L264.169 291.254L260.071 285.466L239.164 255.972L269.058 240.707L304.482 308.934" fill="#006BFF"/>
<path fill-rule="evenodd" clip-rule="evenodd" d="M262.051 269.419L252.455 281.925L248.018 287.713L245.055 291.57L240.618 297.358L232.782 307.897H206.305L211.893 297.358L216.598 287.713L219.415 281.925L235.574 248.792L262.051 269.419" fill="#006BFF"/>
<path fill-rule="evenodd" clip-rule="evenodd" d="M248.797 275.889C245.192 275.889 241.561 274.733 238.497 272.345C231.185 266.648 229.876 256.104 235.57 248.792L255.42 223.312C261.115 216.003 271.659 214.692 278.971 220.389C286.283 226.083 287.594 236.628 281.897 243.94L262.05 269.419C258.74 273.667 253.795 275.889 248.797 275.889" fill="#006BFF"/>
<path fill-rule="evenodd" clip-rule="evenodd" d="M248.646 92.0854C248.534 92.0981 248.425 92.1261 248.316 92.1665L248.646 92.0854" fill="#2A0055"/>
<path fill-rule="evenodd" clip-rule="evenodd" d="M206.944 150.732C217.975 152.436 229.58 155.128 240.953 155.42C243.579 155.488 246.189 155.427 248.779 155.199C251.651 154.946 254.769 154.403 257.34 152.966C258.436 152.357 259.432 151.587 260.266 150.603C264.854 145.201 264.346 136.356 261.086 130.442C256.959 122.964 249.222 118.099 246.946 109.513C245.896 105.531 243.053 95.8373 247.529 92.6128C247.765 92.4454 248.03 92.2679 248.315 92.1665L206.573 102.284C206.573 102.284 218.165 120.196 199.173 124.026C180.183 127.854 172.862 145.467 206.944 150.732" fill="#72ACFF"/>
<path fill-rule="evenodd" clip-rule="evenodd" d="M232.939 122.504H233.336C238.204 122.504 242.149 118.56 242.149 113.693V94.7837H217.812V107.376C217.812 115.731 224.585 122.504 232.939 122.504" fill="#FFBFAA"/>
<path fill-rule="evenodd" clip-rule="evenodd" d="M214.664 90.2627L216.37 145.825H233.552L232.964 140.245V140.243L227.689 90.2627H214.664" fill="#FFBFAA"/>
<path fill-rule="evenodd" clip-rule="evenodd" d="M259.079 165.911C259.041 166.104 258.994 166.298 258.947 166.491L254.629 173.795L251.316 178.886L246.114 195.722L245.731 196.957L248.343 210.967L202.429 209.624L201.112 193.686L196.638 175.5L189.059 144.318L190.288 143.601L201.734 136.923L202.833 136.287L208.297 133.097L213.719 129.937L232.885 138.803L232.029 131.411L238.864 136.905L239.308 137.259L239.963 137.785L240.575 138.279L243.489 140.621L244.191 141.185L244.549 141.472L245.29 142.068L249.86 145.738C250.311 146.101 250.741 146.485 251.15 146.882C251.454 147.178 251.744 147.484 252.024 147.798C255.705 151.928 260.274 160.415 259.079 165.911" fill="#001E57"/>
<path fill-rule="evenodd" clip-rule="evenodd" d="M267.203 199.733L253.24 209.668L207.577 209.624C201.807 208.896 196.952 204.952 195.06 199.453L186.875 175.677L212.955 177.099L215.068 185.612L267.203 199.733" fill="#FFBFAA"/>
<path fill-rule="evenodd" clip-rule="evenodd" d="M231.488 126.318L232.961 140.243L235.195 129.936L231.488 126.318" fill="white"/>
<path fill-rule="evenodd" clip-rule="evenodd" d="M236.405 114.734H234.205C233.759 114.734 233.398 114.373 233.398 113.927C233.398 113.482 233.759 113.12 234.205 113.12H236.283L235.262 110.541C235.099 110.127 235.301 109.658 235.716 109.494C236.128 109.33 236.597 109.533 236.763 109.947L237.828 112.641C238.015 113.113 237.955 113.645 237.67 114.064C237.388 114.484 236.913 114.734 236.405 114.734V114.734Z" fill="#001E57"/>
<path fill-rule="evenodd" clip-rule="evenodd" d="M236.014 111.051C235.692 111.051 235.389 110.858 235.265 110.541L234.448 108.476C234.282 108.062 234.487 107.593 234.899 107.43C235.314 107.265 235.783 107.469 235.946 107.883L236.766 109.947C236.929 110.362 236.727 110.83 236.312 110.994C236.213 111.033 236.112 111.051 236.014 111.051" fill="#001E57"/>
<path fill-rule="evenodd" clip-rule="evenodd" d="M238.09 107.799C238.09 108.372 238.554 108.837 239.127 108.837C239.702 108.837 240.166 108.372 240.166 107.799C240.166 107.225 239.702 106.76 239.127 106.76C238.554 106.76 238.09 107.225 238.09 107.799" fill="#001E57"/>
<path fill-rule="evenodd" clip-rule="evenodd" d="M229.914 107.799C229.914 108.372 230.378 108.837 230.953 108.837C231.526 108.837 231.99 108.372 231.99 107.799C231.99 107.225 231.526 106.76 230.953 106.76C230.378 106.76 229.914 107.225 229.914 107.799" fill="#001E57"/>
<path fill-rule="evenodd" clip-rule="evenodd" d="M241.399 105.683C241.243 105.683 241.082 105.638 240.945 105.542C240.854 105.481 238.905 104.191 237.381 105.491C237.044 105.78 236.533 105.739 236.243 105.4C235.955 105.061 235.994 104.552 236.334 104.263C238.314 102.573 240.813 103.491 241.857 104.213C242.225 104.466 242.316 104.968 242.065 105.335C241.907 105.562 241.655 105.683 241.399 105.683" fill="#001E57"/>
<path fill-rule="evenodd" clip-rule="evenodd" d="M233.222 105.683C233.066 105.683 232.908 105.638 232.768 105.542C232.677 105.481 230.728 104.191 229.204 105.491C228.867 105.78 228.356 105.739 228.069 105.4C227.778 105.061 227.82 104.552 228.157 104.263C230.14 102.573 232.638 103.491 233.683 104.213C234.048 104.466 234.142 104.968 233.888 105.335C233.732 105.562 233.478 105.683 233.222 105.683" fill="#001E57"/>
<path fill-rule="evenodd" clip-rule="evenodd" d="M232.381 117.812C231.945 117.812 231.455 117.738 231.002 117.5C230.426 117.197 230.017 116.68 229.822 116.005C229.695 115.577 229.942 115.129 230.369 115.004C230.797 114.88 231.245 115.126 231.37 115.554C231.468 115.889 231.637 116.01 231.754 116.072C232.21 116.313 232.961 116.144 233.138 116.086C233.56 115.946 234.016 116.175 234.156 116.598C234.296 117.021 234.066 117.478 233.643 117.618C233.552 117.648 233.029 117.812 232.381 117.812" fill="#001E57"/>
<path fill-rule="evenodd" clip-rule="evenodd" d="M231.704 101.567C228.031 101.172 224.531 99.9659 223.388 96.9805C223.388 96.9805 224.604 105.611 217.126 108.838C214.742 109.867 211.317 110.325 209.094 108.695C205.571 106.114 206.496 100.851 207.401 97.2298C211.473 80.9466 230.257 77.942 243.471 84.8691C248.3 87.401 251.343 92.4875 246.81 96.96C243.025 100.692 236.864 102.122 231.704 101.567" fill="#72ACFF"/>
<path fill-rule="evenodd" clip-rule="evenodd" d="M214.86 112V112C217.41 112 219.479 109.931 219.479 107.38V105.737C219.479 103.185 217.41 101.116 214.86 101.116C212.307 101.116 210.238 103.185 210.238 105.737V107.38C210.238 109.931 212.307 112 214.86 112" fill="#FFBFAA"/>
<path fill-rule="evenodd" clip-rule="evenodd" d="M213.355 108.621C213.132 108.621 212.909 108.529 212.751 108.35C212.455 108.017 212.484 107.507 212.818 107.211L215.83 104.532C216.164 104.236 216.675 104.266 216.971 104.599C217.266 104.932 217.237 105.442 216.903 105.738L213.889 108.417C213.736 108.554 213.544 108.621 213.355 108.621" fill="#001E57"/>
<path fill-rule="evenodd" clip-rule="evenodd" d="M231.128 123.204C231.097 123.204 231.066 123.202 231.032 123.198C228.298 122.871 225.677 121.829 223.461 120.185C223.101 119.92 223.026 119.415 223.293 119.057C223.557 118.699 224.062 118.624 224.42 118.889C226.413 120.366 228.767 121.303 231.224 121.596C231.667 121.649 231.981 122.05 231.929 122.493C231.88 122.903 231.533 123.204 231.128 123.204" fill="#001E57"/>
<path fill-rule="evenodd" clip-rule="evenodd" d="M232.959 138.047L215.794 125.816L212.477 133.653L232.959 141.427V138.047" fill="white"/>
<path fill-rule="evenodd" clip-rule="evenodd" d="M223.391 97.7876C223.321 97.7876 223.248 97.7782 223.178 97.7591C222.748 97.6424 222.494 97.1997 222.61 96.7697C222.618 96.737 223.481 93.4727 222.838 90.4299C222.745 89.994 223.025 89.5658 223.461 89.4732C223.896 89.3809 224.324 89.6596 224.417 90.0956C225.143 93.5281 224.207 97.0439 224.168 97.1919C224.07 97.5512 223.746 97.7876 223.391 97.7876" fill="#001E57"/>
<path fill-rule="evenodd" clip-rule="evenodd" d="M218.806 183.579L187.963 183.45L181.037 161.786C178.96 155.291 181.755 148.228 187.718 144.916L193.523 141.692L210.654 159.893L218.806 183.579" fill="#001E57"/>
<path fill-rule="evenodd" clip-rule="evenodd" d="M231.397 169.684C229.176 169.684 226.96 169.146 224.972 168.079L222.8 166.912C222.408 166.701 222.261 166.212 222.471 165.819C222.68 165.427 223.17 165.279 223.564 165.49L225.736 166.658C228.984 168.402 232.929 168.54 236.291 167.027L239.497 165.584C239.904 165.401 240.381 165.583 240.565 165.989C240.749 166.395 240.568 166.873 240.161 167.056L236.952 168.499C235.195 169.291 233.295 169.684 231.397 169.684" fill="white"/>
<path fill-rule="evenodd" clip-rule="evenodd" d="M233.4 254.051C233.278 254.051 233.154 254.022 233.04 253.963C232.641 253.763 232.48 253.279 232.679 252.882L243.74 235.202C243.939 234.803 244.426 234.642 244.823 234.842C245.222 235.044 245.383 235.529 245.181 235.925L234.121 253.605C233.981 253.888 233.696 254.051 233.4 254.051" fill="white"/>
<path fill-rule="evenodd" clip-rule="evenodd" d="M255.513 278.745C255.345 278.745 255.173 278.693 255.028 278.584C254.673 278.315 254.601 277.809 254.87 277.454L274.406 251.555C274.673 251.197 275.178 251.127 275.534 251.394C275.891 251.664 275.961 252.169 275.694 252.524L256.158 278.424C256 278.636 255.759 278.745 255.513 278.745" fill="white"/>
<path fill-rule="evenodd" clip-rule="evenodd" d="M218.673 184.386H215.799C215.353 184.386 214.99 184.025 214.99 183.579C214.99 183.134 215.353 182.773 215.799 182.773H217.556L214.404 173.263C214.264 172.84 214.493 172.384 214.918 172.244C215.338 172.104 215.796 172.333 215.936 172.756L219.438 183.325C219.521 183.572 219.48 183.842 219.327 184.052C219.176 184.262 218.933 184.386 218.673 184.386" fill="white"/>
<path opacity="0.646554" fill-rule="evenodd" clip-rule="evenodd" d="M188.723 177.984C186.977 177.984 185.555 176.562 185.555 174.815C185.555 173.069 186.977 171.646 188.723 171.646C190.47 171.646 191.892 173.069 191.892 174.815C191.892 176.562 190.47 177.984 188.723 177.984ZM188.723 170.379C186.939 170.379 185.395 171.439 184.695 172.965L186.442 178.618C187.109 179.021 187.889 179.252 188.723 179.252C191.17 179.252 193.159 177.261 193.159 174.815C193.159 172.369 191.17 170.379 188.723 170.379V170.379Z" fill="#006BFF"/>
<path opacity="0.646554" fill-rule="evenodd" clip-rule="evenodd" d="M202.122 180.357C201.456 180.357 200.878 179.922 200.429 179.582C199.932 179.207 199.613 178.987 199.369 179.096C199.05 179.239 198.677 179.097 198.532 178.778C198.389 178.459 198.532 178.084 198.851 177.94C199.797 177.515 200.603 178.125 201.194 178.571C201.692 178.947 202.01 179.167 202.254 179.058C202.498 178.948 202.544 178.563 202.594 177.942C202.653 177.205 202.731 176.195 203.677 175.77C204.623 175.346 205.432 175.956 206.023 176.402C206.518 176.777 206.837 176.997 207.08 176.888C207.324 176.778 207.373 176.393 207.422 175.772C207.482 175.035 207.56 174.025 208.506 173.6C209.455 173.175 210.261 173.785 210.852 174.231C211.349 174.607 211.668 174.826 211.912 174.717C212.231 174.574 212.606 174.716 212.749 175.035C212.894 175.354 212.752 175.73 212.433 175.873C211.484 176.298 210.678 175.688 210.087 175.242C209.589 174.867 209.271 174.647 209.027 174.756C208.783 174.866 208.734 175.251 208.685 175.872C208.628 176.609 208.547 177.619 207.601 178.044C206.655 178.469 205.846 177.859 205.258 177.413C204.76 177.037 204.442 176.816 204.198 176.926C203.954 177.036 203.908 177.421 203.858 178.042C203.799 178.779 203.718 179.789 202.772 180.214C202.547 180.315 202.332 180.357 202.122 180.357" fill="#006BFF"/>
<path opacity="0.646554" fill-rule="evenodd" clip-rule="evenodd" d="M225.786 152.938C225.12 152.938 224.542 152.503 224.093 152.163C223.596 151.787 223.277 151.567 223.033 151.676C222.714 151.82 222.338 151.678 222.196 151.358C222.053 151.039 222.196 150.664 222.515 150.52C223.461 150.096 224.267 150.706 224.858 151.152C225.356 151.527 225.674 151.747 225.918 151.638C226.162 151.528 226.208 151.143 226.258 150.523C226.317 149.785 226.395 148.776 227.341 148.351C228.287 147.926 229.096 148.537 229.687 148.982C230.182 149.358 230.503 149.578 230.744 149.468C230.991 149.359 231.037 148.974 231.086 148.352C231.144 147.615 231.224 146.606 232.17 146.181C233.116 145.756 233.925 146.366 234.516 146.812C235.013 147.187 235.332 147.407 235.576 147.298C235.895 147.154 236.27 147.297 236.413 147.616C236.558 147.935 236.416 148.31 236.094 148.454C235.151 148.878 234.342 148.269 233.751 147.823C233.253 147.448 232.935 147.227 232.691 147.337C232.447 147.447 232.398 147.832 232.349 148.453C232.292 149.19 232.211 150.199 231.265 150.624C230.319 151.05 229.511 150.439 228.922 149.993C228.424 149.618 228.106 149.397 227.862 149.507C227.618 149.617 227.572 150.001 227.522 150.622C227.463 151.36 227.383 152.369 226.436 152.794C226.211 152.895 225.993 152.938 225.786 152.938" fill="#006BFF"/>
<path opacity="0.646554" fill-rule="evenodd" clip-rule="evenodd" d="M197.906 155.382C197.782 155.498 197.623 155.557 197.465 155.557C197.299 155.557 197.131 155.493 197.007 155.361C196.32 154.644 196.493 153.8 196.618 153.181C196.734 152.603 196.763 152.345 196.553 152.129C196.346 151.911 196.086 151.929 195.506 152.023C194.884 152.122 194.031 152.258 193.342 151.541C192.655 150.824 192.828 149.977 192.953 149.361C193.069 148.783 193.095 148.525 192.888 148.309C192.681 148.094 192.424 148.109 191.841 148.203C191.241 148.299 190.429 148.428 189.758 147.797C190.036 147.483 190.328 147.178 190.632 146.882C190.835 147.057 191.096 147.039 191.641 146.95C192.263 146.852 193.116 146.714 193.803 147.432C194.49 148.149 194.321 148.994 194.194 149.612C194.078 150.19 194.049 150.446 194.256 150.664C194.466 150.88 194.723 150.865 195.306 150.77C195.928 150.672 196.779 150.535 197.468 151.252C198.157 151.969 197.986 152.816 197.859 153.432C197.743 154.01 197.714 154.269 197.924 154.484C198.165 154.738 198.157 155.138 197.906 155.382" fill="#006BFF"/>
<path opacity="0.646554" fill-rule="evenodd" clip-rule="evenodd" d="M225.173 180.615L228.472 174.901L231.772 180.615H225.173ZM233.418 180.932L229.022 173.316C228.908 173.119 228.698 173 228.472 173C228.247 173 228.037 173.119 227.926 173.316L223.527 180.932C223.413 181.129 223.413 181.37 223.527 181.565C223.641 181.763 223.848 181.882 224.074 181.882H232.871C233.097 181.882 233.307 181.763 233.418 181.565C233.532 181.37 233.532 181.129 233.418 180.932V180.932Z" fill="#006BFF"/>
<path opacity="0.646554" fill-rule="evenodd" clip-rule="evenodd" d="M206.334 158.621L209.633 152.905L212.933 158.621H206.334ZM214.579 158.938L210.18 151.321C210.066 151.125 209.859 151.004 209.633 151.004C209.405 151.004 209.198 151.125 209.084 151.321L204.685 158.938C204.574 159.133 204.574 159.374 204.685 159.572C204.799 159.767 205.009 159.889 205.235 159.889H214.029C214.257 159.889 214.465 159.767 214.579 159.572C214.69 159.374 214.69 159.133 214.579 158.938V158.938Z" fill="#006BFF"/>
<path opacity="0.646554" fill-rule="evenodd" clip-rule="evenodd" d="M200.337 137.712L199.765 141.697L197.118 139.615L195.949 140.307L199.842 143.373C199.933 143.442 200.037 143.485 200.143 143.501C200.255 143.517 200.366 143.505 200.47 143.463C200.682 143.379 200.83 143.19 200.861 142.964L201.737 136.885L200.337 137.712" fill="#006BFF"/>
<path opacity="0.646554" fill-rule="evenodd" clip-rule="evenodd" d="M242.477 179.657C240.727 179.657 239.307 178.235 239.307 176.488C239.307 174.741 240.727 173.319 242.477 173.319C244.221 173.319 245.644 174.741 245.644 176.488C245.644 178.235 244.221 179.657 242.477 179.657ZM242.477 172.052C240.03 172.052 238.039 174.042 238.039 176.488C238.039 178.934 240.03 180.924 242.477 180.924C244.921 180.924 246.911 178.934 246.911 176.488C246.911 174.042 244.921 172.052 242.477 172.052V172.052Z" fill="#006BFF"/>
<path opacity="0.646554" fill-rule="evenodd" clip-rule="evenodd" d="M248.484 161.511C246.737 161.511 245.314 160.089 245.314 158.343C245.314 156.596 246.737 155.174 248.484 155.174C250.234 155.174 251.652 156.596 251.652 158.343C251.652 160.089 250.234 161.511 248.484 161.511ZM248.484 153.906C246.04 153.906 244.047 155.896 244.047 158.343C244.047 160.789 246.04 162.779 248.484 162.779C250.931 162.779 252.919 160.789 252.919 158.343C252.919 155.896 250.931 153.906 248.484 153.906V153.906Z" fill="#006BFF"/>
<path opacity="0.646554" fill-rule="evenodd" clip-rule="evenodd" d="M244.547 141.472L244.19 141.184C243.617 141.397 242.974 141.445 242.339 141.287C240.753 140.892 239.744 139.367 239.962 137.785L239.306 137.259L238.863 136.905C238.84 136.982 238.814 137.06 238.796 137.141C238.205 139.517 239.659 141.928 242.031 142.516C243.179 142.801 244.335 142.61 245.289 142.068L244.547 141.472" fill="#006BFF"/>
<path fill-rule="evenodd" clip-rule="evenodd" d="M250.666 181.793C250.588 181.793 250.508 181.781 250.427 181.757C250.002 181.626 249.764 181.174 249.896 180.748L251.609 175.198C251.674 174.995 251.814 174.825 252.001 174.725C252.047 174.7 256.62 172.189 258.087 166.985C259.183 163.107 258.322 158.709 255.531 153.912C255.308 153.526 255.438 153.032 255.824 152.808C256.207 152.584 256.702 152.715 256.925 153.1C259.95 158.299 260.863 163.126 259.634 167.447C258.18 172.565 254.193 175.29 253.058 175.976L251.438 181.224C251.329 181.571 251.01 181.793 250.666 181.793" fill="white"/>
<path fill-rule="evenodd" clip-rule="evenodd" d="M380.709 303.817H362.573C360.316 303.817 358.48 301.98 358.48 299.722V297.192C358.48 296.765 358.828 296.415 359.258 296.415C359.686 296.415 360.036 296.765 360.036 297.192V299.722C360.036 301.122 361.174 302.262 362.573 302.262H380.709C382.109 302.262 383.247 301.122 383.247 299.722V281.588C383.247 280.189 382.109 279.048 380.709 279.048H362.573C361.174 279.048 360.036 280.189 360.036 281.588V287.804C360.036 288.232 359.686 288.582 359.258 288.582C358.828 288.582 358.48 288.232 358.48 287.804V281.588C358.48 279.331 360.316 277.493 362.573 277.493H380.709C382.967 277.493 384.802 279.331 384.802 281.588V299.722C384.802 301.98 382.967 303.817 380.709 303.817" fill="white"/>
<path fill-rule="evenodd" clip-rule="evenodd" d="M371.64 285.43C368.76 285.43 366.415 287.773 366.415 290.655C366.415 293.537 368.76 295.883 371.64 295.883C374.522 295.883 376.868 293.537 376.868 290.655C376.868 287.773 374.522 285.43 371.64 285.43ZM371.64 297.438C367.902 297.438 364.859 294.395 364.859 290.655C364.859 286.915 367.902 283.875 371.64 283.875C375.38 283.875 378.423 286.915 378.423 290.655C378.423 294.395 375.38 297.438 371.64 297.438V297.438Z" fill="white"/>
<path fill-rule="evenodd" clip-rule="evenodd" d="M342.813 294.351C341.61 294.351 340.402 294.333 339.192 294.292C326.786 293.887 317.561 291.358 311.771 286.772C307.486 283.379 305.091 278.849 304.653 273.307C303.935 264.245 304.42 256.052 304.848 248.825C305.869 231.532 306.543 220.106 289.666 215.565C289.251 215.453 289.005 215.026 289.117 214.611C289.228 214.196 289.656 213.953 290.071 214.062C308.17 218.932 307.427 231.508 306.4 248.916C305.975 256.093 305.496 264.23 306.203 273.182C306.605 278.278 308.803 282.439 312.738 285.554C325.625 295.759 353.945 292.721 365.521 290.94C365.946 290.873 366.343 291.166 366.408 291.591C366.475 292.016 366.182 292.413 365.759 292.477C359.979 293.366 351.592 294.351 342.813 294.351" fill="white"/>
<path fill-rule="evenodd" clip-rule="evenodd" d="M124.883 100.704C124.883 105.559 120.947 109.495 116.092 109.495C111.237 109.495 107.301 105.559 107.301 100.704C107.301 95.849 111.237 91.9133 116.092 91.9133C120.947 91.9133 124.883 95.849 124.883 100.704" fill="#72ACFF"/>
<path fill-rule="evenodd" clip-rule="evenodd" d="M114.57 65.5073L90.8203 101.049H155.5L114.606 65.5431L114.57 65.5073" fill="white"/>
<path fill-rule="evenodd" clip-rule="evenodd" d="M92.1666 100.328H153.569L114.711 66.5904L92.1666 100.328ZM155.498 101.769H90.8182C90.5523 101.769 90.3083 101.623 90.1826 101.388C90.0574 101.154 90.0714 100.869 90.2189 100.648L113.969 65.107C114.19 64.776 114.637 64.6871 114.968 64.9082C115.015 64.9393 115.057 64.9748 115.094 65.0139L155.97 100.505C156.197 100.702 156.278 101.019 156.173 101.301C156.068 101.582 155.799 101.769 155.498 101.769V101.769Z" fill="#001E57"/>
<path fill-rule="evenodd" clip-rule="evenodd" d="M114.224 58.5528C113.826 58.5528 113.504 58.2304 113.504 57.8325V1.10191C113.504 0.704037 113.826 0.381592 114.224 0.381592C114.622 0.381592 114.945 0.704037 114.945 1.10191V57.8325C114.945 58.2304 114.622 58.5528 114.224 58.5528" fill="#72ACFF"/>
<path fill-rule="evenodd" clip-rule="evenodd" d="M114.606 65.1731L77.0781 101.049H135.932L114.793 65.1316L114.606 65.1731" fill="white"/>
<path fill-rule="evenodd" clip-rule="evenodd" d="M78.8766 100.328H134.674L114.583 66.1934L78.8766 100.328ZM135.934 101.769H77.0798C76.7854 101.769 76.5205 101.59 76.4111 101.317C76.3017 101.043 76.3691 100.731 76.5819 100.528L114.11 64.6522C114.233 64.5343 114.388 64.4687 114.545 64.4552C114.866 64.3368 115.236 64.4609 115.415 64.766L136.555 100.683C136.686 100.906 136.688 101.182 136.559 101.406C136.431 101.63 136.192 101.769 135.934 101.769V101.769Z" fill="#001E57"/>
<path fill-rule="evenodd" clip-rule="evenodd" d="M115.904 122.775C115.506 122.775 115.184 122.452 115.184 122.054V115.104C115.184 114.706 115.506 114.383 115.904 114.383C116.302 114.383 116.625 114.706 116.625 115.104V122.054C116.625 122.452 116.302 122.775 115.904 122.775" fill="#72ACFF"/>
<path fill-rule="evenodd" clip-rule="evenodd" d="M99.7209 115.028C99.5151 115.028 99.3108 114.94 99.168 114.77C98.9127 114.465 98.9529 114.01 99.2577 113.755L104.587 109.293C104.892 109.038 105.346 109.078 105.602 109.383C105.857 109.688 105.817 110.142 105.512 110.398L100.183 114.86C100.048 114.973 99.8842 115.028 99.7209 115.028" fill="#72ACFF"/>
<path fill-rule="evenodd" clip-rule="evenodd" d="M132.088 115.028C131.925 115.028 131.761 114.973 131.626 114.86L126.297 110.398C125.992 110.142 125.952 109.688 126.207 109.383C126.463 109.078 126.917 109.037 127.222 109.293L132.551 113.755C132.856 114.01 132.896 114.465 132.641 114.77C132.498 114.94 132.294 115.028 132.088 115.028" fill="#72ACFF"/>
<path fill-rule="evenodd" clip-rule="evenodd" d="M416.519 209.951C427.849 209.951 437.069 219.17 437.069 230.503V332.324H430.786V230.503C430.786 222.633 424.386 216.234 416.519 216.234H131.667C123.8 216.234 117.4 222.633 117.4 230.503V332.075H111.117V230.503C111.117 221.433 117.02 213.719 125.184 210.998L416.519 209.951" fill="white"/>
<path fill-rule="evenodd" clip-rule="evenodd" d="M125.184 211.257C127.222 210.578 129.402 210.21 131.666 210.21H416.518L125.184 211.257" fill="white"/>
<path fill-rule="evenodd" clip-rule="evenodd" d="M111.117 264.183C110.759 264.183 110.469 263.893 110.469 263.535V230.762C110.469 219.072 119.978 209.562 131.667 209.562C132.025 209.562 132.315 209.852 132.315 210.21C132.315 210.568 132.025 210.858 131.667 210.858C120.693 210.858 111.765 219.787 111.765 230.762V263.535C111.765 263.893 111.475 264.183 111.117 264.183" fill="#72ACFF"/>
<path fill-rule="evenodd" clip-rule="evenodd" d="M111.117 332.983C110.759 332.983 110.469 332.692 110.469 332.335V312.493C110.469 312.135 110.759 311.845 111.117 311.845C111.475 311.845 111.765 312.135 111.765 312.493V332.335C111.765 332.692 111.475 332.983 111.117 332.983" fill="#AA5FFF"/>
<path fill-rule="evenodd" clip-rule="evenodd" d="M117.402 332.983C117.044 332.983 116.754 332.692 116.754 332.335V230.762C116.754 222.538 123.445 215.845 131.669 215.845H150.298C150.656 215.845 150.946 216.135 150.946 216.493C150.946 216.851 150.656 217.141 150.298 217.141H131.669C124.159 217.141 118.05 223.25 118.05 230.762V332.335C118.05 332.692 117.76 332.983 117.402 332.983" fill="#72ACFF"/>
<path fill-rule="evenodd" clip-rule="evenodd" d="M408.306 217.141H158.937C158.579 217.141 158.289 216.851 158.289 216.493C158.289 216.135 158.579 215.845 158.937 215.845H408.306C408.664 215.845 408.954 216.135 408.954 216.493C408.954 216.851 408.664 217.141 408.306 217.141" fill="#72ACFF"/>
<path fill-rule="evenodd" clip-rule="evenodd" d="M437.068 333.586H430.785C430.428 333.586 430.137 333.296 430.137 332.938V242.174C430.137 241.817 430.428 241.526 430.785 241.526C431.143 241.526 431.433 241.817 431.433 242.174V332.29H436.42V230.762C436.42 219.787 427.491 210.858 416.519 210.858C416.161 210.858 415.871 210.568 415.871 210.21C415.871 209.852 416.161 209.562 416.519 209.562C428.206 209.562 437.716 219.072 437.716 230.762V332.938C437.716 333.296 437.426 333.586 437.068 333.586" fill="#AA5FFF"/>
<path fill-rule="evenodd" clip-rule="evenodd" d="M398.431 210.205H143.902C143.544 210.205 143.254 209.914 143.254 209.557C143.254 209.199 143.544 208.909 143.902 208.909H398.431C398.789 208.909 399.079 209.199 399.079 209.557C399.079 209.914 398.789 210.205 398.431 210.205" fill="#72ACFF"/>
<path fill-rule="evenodd" clip-rule="evenodd" d="M258.095 209.297H249.207L266.545 158.988H275.435L258.095 209.297" fill="#001E57"/>
<path fill-rule="evenodd" clip-rule="evenodd" d="M258.199 209.297L275.54 158.988H344.3L326.962 209.297H258.199" fill="#006BFF"/>
<path fill-rule="evenodd" clip-rule="evenodd" d="M298.582 194.79C296.005 194.79 293.841 193.796 292.488 191.991C291.062 190.086 290.712 187.546 291.505 184.838C293.053 179.551 298.621 175.25 303.919 175.25C305.717 175.25 307.345 175.744 308.62 176.678C308.911 176.89 308.973 177.295 308.763 177.584C308.55 177.873 308.146 177.936 307.856 177.724C306.803 176.953 305.44 176.546 303.919 176.546C299.157 176.546 294.147 180.429 292.75 185.202C292.073 187.509 292.35 189.644 293.527 191.214C294.629 192.684 296.422 193.494 298.582 193.494C302.537 193.494 306.767 190.805 308.867 186.955C309.038 186.641 309.432 186.525 309.745 186.697C310.062 186.868 310.176 187.262 310.005 187.576C307.687 191.824 302.991 194.79 298.582 194.79" fill="white"/>
<path fill-rule="evenodd" clip-rule="evenodd" d="M303.919 176.546C303.846 176.546 303.773 176.534 303.701 176.509C303.364 176.389 303.188 176.019 303.307 175.681L304.826 171.403C304.945 171.066 305.316 170.89 305.653 171.009C305.99 171.129 306.166 171.499 306.047 171.836L304.528 176.114C304.434 176.38 304.185 176.546 303.919 176.546" fill="white"/>
<path fill-rule="evenodd" clip-rule="evenodd" d="M369.782 183.178H351.555L353.82 209.186H367.516L369.782 183.178" fill="#006BFF"/>
<path fill-rule="evenodd" clip-rule="evenodd" d="M361.714 178.82C361.447 178.82 361.198 178.654 361.102 178.389C361.081 178.327 358.995 172.204 365.41 169.272C370.12 167.119 369.86 163.381 369.689 160.908C369.661 160.494 369.635 160.137 369.637 159.825C369.643 159.47 369.93 159.184 370.285 159.184C370.288 159.184 370.291 159.184 370.293 159.184C370.651 159.188 370.939 159.481 370.933 159.839C370.931 160.099 370.954 160.432 370.98 160.818C371.154 163.301 371.475 167.925 365.949 170.45C360.628 172.883 362.253 177.751 362.325 177.957C362.442 178.295 362.266 178.664 361.929 178.783C361.856 178.808 361.784 178.82 361.714 178.82" fill="white"/>
<path fill-rule="evenodd" clip-rule="evenodd" d="M359.616 179.401C359.362 179.401 359.118 179.249 359.017 178.998C358.476 177.68 357.322 176.877 356.099 176.027L355.754 175.786C353.621 174.288 352.812 172.441 353.281 170.139C353.354 169.788 353.699 169.561 354.046 169.633C354.398 169.705 354.624 170.047 354.551 170.398C354.186 172.189 354.787 173.523 356.498 174.725L356.837 174.963C358.162 175.883 359.531 176.834 360.215 178.507C360.352 178.838 360.194 179.216 359.862 179.352C359.782 179.385 359.699 179.401 359.616 179.401" fill="white"/>
<path fill-rule="evenodd" clip-rule="evenodd" d="M366.867 200.835C366.51 200.835 366.219 200.545 366.219 200.187C366.219 199.829 366.51 199.539 366.867 199.539C370.159 199.539 372.927 197.105 373.446 193.752L373.863 191.058C373.964 190.405 373.777 189.748 373.355 189.253C372.948 188.779 372.386 188.518 371.774 188.518H365.027C364.669 188.518 364.379 188.228 364.379 187.87C364.379 187.512 364.669 187.222 365.027 187.222H371.774C372.756 187.222 373.692 187.655 374.337 188.41C375.009 189.192 375.302 190.229 375.143 191.256L374.726 193.95C374.109 197.939 370.804 200.835 366.867 200.835" fill="#2A0055"/>
<path fill-rule="evenodd" clip-rule="evenodd" d="M422.607 184.937C423.713 185.87 424.667 186.856 425.572 187.859C426.484 188.859 427.316 189.888 428.125 190.924C429.714 193.006 431.147 195.142 432.422 197.332C434.986 201.708 437.01 206.27 438.646 210.967C440.268 215.666 441.487 220.508 442.168 225.534C442.516 228.043 442.702 230.609 442.733 233.229C442.733 234.543 442.713 235.865 442.606 237.218C442.511 238.566 442.363 239.932 442.065 241.35C440.953 240.417 439.996 239.432 439.089 238.431C438.171 237.431 437.342 236.405 436.531 235.368C434.939 233.286 433.503 231.151 432.231 228.96C429.67 224.582 427.645 220.021 426.025 215.319C424.416 210.614 423.198 205.774 422.518 200.748C422.174 198.237 421.984 195.672 421.953 193.053C421.951 191.738 421.969 190.417 422.073 189.066C422.168 187.718 422.311 186.354 422.607 184.937" fill="#72ACFF"/>
<path fill-rule="evenodd" clip-rule="evenodd" d="M380.902 193.875C383.292 194.939 385.537 196.228 387.737 197.578C389.943 198.923 392.056 200.39 394.147 201.893C398.3 204.931 402.222 208.261 405.957 211.799C409.694 215.332 413.212 219.111 416.491 223.097C419.772 227.086 422.843 231.265 425.638 235.645C428.419 240.036 430.933 244.616 433.129 249.36C435.28 254.131 437.107 259.067 438.489 264.131C439.816 269.222 440.715 274.429 441.045 279.66C441.096 282.301 441.205 284.898 440.941 287.516C440.816 290.111 440.327 292.708 439.774 295.233C438.834 292.768 438.165 290.352 437.252 287.998C436.459 285.635 435.487 283.338 434.635 281.054C432.745 276.518 430.772 272.12 428.655 267.807C426.465 263.517 424.209 259.3 421.846 255.134C419.435 250.987 416.942 246.889 414.373 242.815C409.189 234.694 403.696 226.695 398.046 218.644C392.403 210.562 386.597 202.532 380.902 193.875" fill="#72ACFF"/>
<path fill-rule="evenodd" clip-rule="evenodd" d="M403.512 182.146C405.629 183.679 407.563 185.403 409.437 187.176C411.321 188.946 413.084 190.816 414.823 192.717C418.263 196.544 421.415 200.61 424.344 204.838C427.275 209.067 429.937 213.486 432.327 218.064C434.719 222.641 436.866 227.364 438.698 232.226C440.518 237.094 442.037 242.091 443.211 247.187C444.333 252.299 445.106 257.503 445.417 262.744C445.665 268.001 445.479 273.281 444.725 278.468C444.232 281.062 443.804 283.626 443.006 286.135C442.35 288.649 441.337 291.088 440.277 293.447C439.865 290.839 439.706 288.338 439.297 285.847C439.007 283.369 438.527 280.922 438.162 278.512C437.247 273.685 436.223 268.976 435.036 264.318C433.776 259.67 432.436 255.08 430.979 250.515C429.473 245.961 427.877 241.438 426.202 236.923C422.796 227.908 419.066 218.953 415.194 209.912C411.334 200.843 407.304 191.789 403.512 182.146" fill="#72ACFF"/>
<path fill-rule="evenodd" clip-rule="evenodd" d="M450.626 174.807C451.212 177.333 451.64 179.85 452.013 182.363C452.397 184.877 452.692 187.385 452.964 189.892C453.491 194.904 453.807 199.904 454.009 204.897C454.406 214.881 454.211 224.829 453.615 234.754C453.001 244.676 451.972 254.572 450.354 264.432C449.54 269.362 448.61 274.287 447.472 279.196C446.889 281.651 446.287 284.103 445.595 286.55C444.911 288.999 444.175 291.443 443.278 293.877C442.687 291.35 442.257 288.836 441.878 286.321C441.495 283.807 441.197 281.298 440.922 278.792C440.393 273.779 440.077 268.779 439.875 263.787C439.483 253.802 439.678 243.854 440.29 233.932C440.917 224.01 441.948 214.114 443.568 204.253C444.382 199.323 445.313 194.4 446.448 189.49C447.029 187.036 447.63 184.583 448.32 182.135C449.001 179.687 449.732 177.242 450.626 174.807" fill="#72ACFF"/>
<path fill-rule="evenodd" clip-rule="evenodd" d="M459.238 249.046C459.329 248.012 459.49 247.055 459.715 246.171C459.925 245.272 460.195 244.442 460.48 243.626C461.068 242.019 461.763 240.536 462.572 239.181C464.173 236.454 466.154 234.16 468.404 232.177C470.661 230.202 473.201 228.548 476.115 227.325C477.566 226.705 479.129 226.216 480.804 225.853C481.651 225.682 482.512 225.529 483.432 225.441C484.339 225.339 485.311 225.311 486.351 225.363C486.262 226.4 486.104 227.359 485.881 228.245C485.671 229.144 485.402 229.977 485.119 230.793C484.534 232.403 483.839 233.885 483.03 235.241C481.426 237.965 479.446 240.259 477.185 242.231C474.917 244.194 472.377 245.847 469.461 247.068C468.01 247.688 466.447 248.178 464.775 248.543C463.93 248.717 463.069 248.87 462.149 248.96C461.244 249.064 460.275 249.093 459.238 249.046" fill="#72ACFF"/>
<path fill-rule="evenodd" clip-rule="evenodd" d="M444.049 288.522C443.705 287.011 443.58 285.51 443.536 284.028C443.487 282.542 443.552 281.073 443.676 279.611C443.948 276.692 444.505 273.815 445.361 271.021C447.048 265.425 449.832 260.075 453.78 255.378C455.739 253.027 458.044 250.873 460.646 249.048C463.253 247.239 466.131 245.694 469.275 244.813C472.393 243.898 475.685 243.603 478.818 243.955C479.609 244.098 480.381 244.225 481.141 244.393L481.706 244.523L482.266 244.704C482.636 244.818 483.004 244.956 483.365 245.088C483.728 245.225 484.085 245.35 484.435 245.5C484.788 245.643 485.13 245.845 485.469 246.021C486.146 246.402 486.802 246.778 487.424 247.221C485.965 247.859 484.624 248.216 483.349 248.81C482.074 249.297 480.889 249.914 479.759 250.451C477.517 251.643 475.568 252.947 473.751 254.323C471.934 255.7 470.288 257.26 468.671 258.862C467.061 260.471 465.496 262.18 463.969 264.004C462.437 265.821 460.915 267.711 459.381 269.668L454.723 275.715C453.139 277.781 451.481 279.878 449.744 282.016C447.981 284.152 446.185 286.316 444.049 288.522" fill="#72ACFF"/>
<path fill-rule="evenodd" clip-rule="evenodd" d="M459.385 191.837C460.022 193.013 460.497 194.174 460.922 195.331C461.355 196.488 461.699 197.637 462.023 198.785C462.64 201.076 463.091 203.352 463.376 205.614C463.962 210.137 463.978 214.609 463.584 219.041C463.177 223.473 462.345 227.867 460.945 232.208C460.253 234.378 459.393 236.534 458.366 238.675C457.837 239.743 457.285 240.808 456.648 241.869C456.015 242.926 455.333 243.981 454.489 245.02C453.846 243.844 453.369 242.682 452.941 241.526C452.506 240.368 452.158 239.22 451.832 238.071C451.215 235.78 450.761 233.504 450.479 231.244C449.895 226.721 449.88 222.25 450.289 217.817C450.712 213.388 451.544 208.994 452.946 204.653C453.638 202.482 454.499 200.326 455.523 198.186C456.049 197.117 456.598 196.05 457.236 194.991C457.866 193.932 458.545 192.877 459.385 191.837" fill="#72ACFF"/>
<path fill-rule="evenodd" clip-rule="evenodd" d="M447.268 270.624C447.007 268.618 446.963 266.674 446.986 264.753C446.999 262.827 447.134 260.941 447.3 259.061C447.668 255.318 448.274 251.648 449.119 248.058C450.783 240.873 453.284 233.963 456.48 227.333C459.702 220.718 463.645 214.354 468.658 208.603C471.177 205.735 473.995 203.032 477.196 200.683C478.002 200.108 478.805 199.533 479.684 199.02L480.975 198.257C481.421 198.012 481.89 197.794 482.346 197.576C484.134 196.683 486.172 196.04 488.157 195.861C487.152 197.653 486.34 199.221 485.635 200.912C485.459 201.328 485.285 201.737 485.104 202.132L484.611 203.382C484.456 203.803 484.269 204.186 484.111 204.595L483.645 205.841C482.377 209.103 481.185 212.364 479.902 215.575C477.39 222.042 474.656 228.398 471.594 234.676C468.531 240.954 465.171 247.146 461.265 253.18C459.321 256.2 457.211 259.168 454.936 262.091C453.785 263.548 452.605 265 451.335 266.423C450.073 267.851 448.759 269.261 447.268 270.624" fill="#72ACFF"/>
<path fill-rule="evenodd" clip-rule="evenodd" d="M400.141 254.129C401.504 253.517 402.935 252.986 404.381 252.716C405.107 252.558 405.846 252.402 406.582 252.327C407.32 252.244 408.059 252.203 408.813 252.143C411.786 252.078 414.84 252.39 417.753 253.245C423.611 254.891 429.044 258.289 433.23 262.84C435.319 265.116 437.147 267.649 438.526 270.404L439.054 271.428C439.228 271.77 439.36 272.135 439.513 272.488C439.814 273.19 440.096 273.913 440.366 274.613C440.786 275.889 441.185 277.174 441.543 278.481C442.271 281.086 442.849 283.766 443.277 286.518C443.476 287.903 443.655 289.297 443.754 290.728C443.862 292.156 443.922 293.608 443.837 295.132C442.582 294.263 441.473 293.325 440.413 292.363C439.342 291.407 438.352 290.409 437.382 289.403C435.47 287.376 433.71 285.277 432.1 283.102C431.286 282.019 430.516 280.914 429.767 279.797C429.047 278.869 428.453 277.916 427.725 277.037C426.379 275.22 424.91 273.538 423.414 271.889C420.402 268.597 417.074 265.617 413.305 262.726C411.421 261.272 409.397 259.909 407.232 258.478C405.055 257.05 402.717 255.759 400.141 254.129" fill="#72ACFF"/>
<path fill-rule="evenodd" clip-rule="evenodd" d="M427.724 277.685C427.527 277.685 427.33 277.594 427.203 277.423C425.813 275.546 424.263 273.792 422.934 272.325C420.054 269.175 416.775 266.205 412.91 263.242C410.995 261.765 408.963 260.401 406.873 259.017C405.71 258.255 404.494 257.529 403.208 256.76C402.115 256.104 400.982 255.427 399.792 254.676C399.59 254.546 399.476 254.318 399.494 254.082C399.51 253.844 399.657 253.634 399.875 253.535C401.542 252.791 402.934 252.327 404.261 252.078C404.94 251.933 405.728 251.762 406.516 251.682C407.05 251.622 407.599 251.583 408.131 251.545C408.341 251.529 408.551 251.513 408.763 251.498C408.776 251.498 408.786 251.498 408.799 251.495C412.073 251.423 415.147 251.804 417.936 252.623C423.068 254.064 427.913 256.83 431.938 260.614C432.2 260.86 432.21 261.27 431.967 261.532C431.72 261.791 431.311 261.804 431.049 261.56C427.177 257.916 422.519 255.256 417.578 253.87C414.914 253.087 411.977 252.721 408.846 252.791C408.636 252.807 408.429 252.822 408.221 252.838C407.68 252.877 407.169 252.913 406.653 252.97C405.93 253.045 405.178 253.206 404.515 253.349C403.587 253.522 402.625 253.81 401.542 254.238C402.34 254.73 403.115 255.194 403.875 255.648C405.171 256.423 406.397 257.156 407.586 257.936C409.613 259.279 411.754 260.712 413.701 262.213C417.625 265.223 420.958 268.245 423.89 271.451C425.246 272.947 426.822 274.73 428.245 276.651C428.457 276.938 428.397 277.345 428.11 277.558C427.993 277.643 427.858 277.685 427.724 277.685" fill="white"/>
<path fill-rule="evenodd" clip-rule="evenodd" d="M448.02 286.733C448.053 285.603 448.206 284.517 448.486 283.509C448.613 282.993 448.769 282.493 448.94 281.998C449.113 281.508 449.323 281.041 449.52 280.554C450.383 278.693 451.485 276.931 452.835 275.417C454.168 273.88 455.7 272.522 457.384 271.389C459.059 270.235 460.881 269.302 462.784 268.589C464.678 267.856 466.677 267.395 468.688 267.141C469.696 267.019 470.712 266.956 471.729 266.969C471.983 266.967 472.237 266.975 472.488 266.98L473.167 267.026C473.618 267.071 474.067 267.109 474.52 267.169C476.329 267.384 478.164 267.768 480.023 268.315C480.956 268.602 481.892 268.913 482.843 269.313C483.792 269.704 484.748 270.145 485.728 270.749C484.976 271.62 484.199 272.332 483.413 272.991C482.631 273.659 481.832 274.24 481.031 274.797C479.424 275.883 477.794 276.804 476.135 277.558C475.72 277.755 475.303 277.926 474.888 278.105L474.266 278.356C474.087 278.436 473.911 278.522 473.732 278.597C473.374 278.75 473.019 278.895 472.667 279.038C472.317 279.196 471.967 279.338 471.617 279.473C470.223 280.056 468.841 280.564 467.462 281.093C466.078 281.604 464.683 282.096 463.26 282.589C461.825 283.063 460.365 283.553 458.818 284.014C457.265 284.473 455.653 284.95 453.888 285.406C452.105 285.852 450.277 286.373 448.02 286.733" fill="#72ACFF"/>
<path fill-rule="evenodd" clip-rule="evenodd" d="M439.94 285.756C440.152 287.039 440.297 288.346 440.44 289.608C440.494 290.088 440.549 290.575 440.608 291.065C441.277 289.463 441.923 287.726 442.384 285.969C442.387 285.959 442.389 285.948 442.392 285.938C443.071 283.799 443.473 281.653 443.898 279.377C443.96 279.04 444.022 278.701 444.087 278.359C444.8 273.452 445.03 268.209 444.771 262.776C444.476 257.809 443.74 252.61 442.578 247.325C441.438 242.366 439.927 237.361 438.094 232.452C436.337 227.794 434.204 223.053 431.757 218.364C429.377 213.805 426.705 209.378 423.815 205.208C420.769 200.814 417.584 196.757 414.344 193.15C412.812 191.473 410.972 189.504 408.996 187.648C407.89 186.6 406.513 185.332 404.984 184.092C407.501 190.383 410.129 196.482 412.68 202.401C413.703 204.78 414.764 207.242 415.793 209.658C418.965 217.066 423.087 226.835 426.811 236.695C428.574 241.446 430.139 245.902 431.596 250.313C432.998 254.699 434.328 259.225 435.663 264.149C436.819 268.685 437.845 273.341 438.802 278.392C438.934 279.269 439.082 280.147 439.224 280.995C439.484 282.547 439.753 284.152 439.94 285.756ZM440.279 294.095C440.251 294.095 440.222 294.092 440.194 294.087C439.911 294.051 439.686 293.83 439.639 293.548C439.434 292.257 439.292 290.984 439.152 289.753C439.007 288.444 438.867 287.208 438.659 285.953C438.657 285.943 438.657 285.933 438.654 285.922C438.47 284.344 438.203 282.75 437.946 281.21C437.804 280.355 437.656 279.473 437.524 278.61C436.575 273.61 435.557 268.978 434.411 264.479C433.081 259.582 431.757 255.075 430.365 250.713C428.913 246.322 427.353 241.884 425.598 237.149C421.881 227.317 417.768 217.563 414.6 210.166C413.571 207.75 412.514 205.292 411.49 202.914C408.641 196.303 405.697 189.468 402.913 182.383C402.807 182.115 402.89 181.81 403.118 181.634C403.346 181.457 403.662 181.453 403.895 181.621C406.223 183.306 408.32 185.223 409.885 186.705C411.892 188.59 413.75 190.581 415.305 192.279C418.584 195.931 421.806 200.031 424.88 204.47C427.801 208.683 430.5 213.157 432.905 217.766C435.378 222.499 437.532 227.289 439.307 231.996C441.161 236.959 442.687 242.022 443.843 247.04C445.02 252.397 445.767 257.667 446.065 262.708C446.329 268.234 446.096 273.566 445.367 278.561C445.367 278.569 445.365 278.579 445.365 278.587C445.297 278.932 445.235 279.274 445.17 279.616C444.758 281.824 444.333 284.105 443.633 286.314C442.939 288.963 441.847 291.539 440.87 293.711C440.767 293.947 440.533 294.095 440.279 294.095V294.095Z" fill="white"/>
<path fill-rule="evenodd" clip-rule="evenodd" d="M461.729 267.364C461.587 267.364 461.442 267.317 461.323 267.221C461.045 266.995 461.001 266.586 461.227 266.309C462.017 265.331 462.753 264.442 463.474 263.587C464.993 261.773 466.587 260.028 468.212 258.403C469.778 256.853 471.483 255.228 473.36 253.807C475.4 252.263 477.393 250.977 479.456 249.878C479.464 249.873 479.474 249.868 479.482 249.865C479.746 249.741 480.011 249.611 480.28 249.479C481.175 249.046 482.1 248.595 483.098 248.214C483.785 247.895 484.469 247.649 485.195 247.387C485.467 247.291 485.744 247.19 486.024 247.086C485.744 246.92 485.454 246.755 485.151 246.583C485.073 246.545 484.974 246.493 484.876 246.438C484.638 246.311 484.412 246.189 484.192 246.099C483.953 245.998 483.723 245.912 483.476 245.821C483.362 245.78 483.248 245.738 483.137 245.694L483.09 245.679C482.756 245.554 482.411 245.427 482.074 245.321L481.535 245.147L480.996 245.026C480.415 244.896 479.824 244.792 479.2 244.681L478.728 244.598C475.687 244.258 472.484 244.549 469.456 245.433C466.667 246.218 463.907 247.574 461.017 249.58C458.523 251.329 456.255 253.419 454.28 255.793C452.67 257.706 451.219 259.777 449.967 261.954C449.788 262.262 449.392 262.369 449.083 262.19C448.772 262.014 448.666 261.617 448.845 261.306C450.135 259.064 451.628 256.931 453.285 254.961C455.332 252.501 457.686 250.334 460.275 248.517C463.29 246.425 466.175 245.01 469.098 244.188C472.289 243.255 475.68 242.949 478.891 243.312C478.907 243.312 478.92 243.315 478.935 243.318L479.425 243.406C480.037 243.515 480.667 243.626 481.281 243.761L481.851 243.89C481.869 243.896 481.887 243.901 481.906 243.906L482.465 244.087C482.828 244.199 483.189 244.334 483.539 244.463L483.59 244.481C483.704 244.525 483.816 244.564 483.925 244.606C484.174 244.696 484.433 244.792 484.692 244.904C484.967 245.015 485.234 245.158 485.49 245.298C485.584 245.347 485.674 245.396 485.768 245.446C486.512 245.863 487.162 246.239 487.802 246.695C487.992 246.83 488.093 247.058 488.069 247.288C488.043 247.522 487.898 247.724 487.683 247.817C486.97 248.128 486.291 248.372 485.633 248.608C484.93 248.859 484.264 249.1 483.624 249.398C483.609 249.404 483.596 249.411 483.58 249.417C482.629 249.779 481.724 250.22 480.845 250.645C480.578 250.775 480.314 250.904 480.052 251.029C478.056 252.094 476.123 253.341 474.143 254.842C472.326 256.215 470.659 257.807 469.127 259.321C467.53 260.917 465.962 262.633 464.467 264.422C463.749 265.269 463.02 266.153 462.235 267.125C462.105 267.283 461.919 267.364 461.729 267.364" fill="white"/>
<path fill-rule="evenodd" clip-rule="evenodd" d="M448.102 253.722C448.066 253.722 448.03 253.719 447.994 253.711C447.641 253.652 447.403 253.317 447.462 252.965C447.753 251.27 448.097 249.569 448.486 247.91C450.114 240.897 452.605 233.877 455.897 227.05C459.453 219.746 463.468 213.572 468.167 208.178C470.948 205.011 473.776 202.389 476.811 200.161L476.874 200.117C477.659 199.556 478.473 198.976 479.357 198.46L480.645 197.699C481.065 197.468 481.482 197.27 481.884 197.079L482.068 196.992C484.033 196.009 486.122 195.393 488.1 195.215C488.338 195.193 488.571 195.307 488.701 195.509C488.831 195.711 488.841 195.969 488.722 196.178C487.599 198.175 486.855 199.665 486.233 201.161L486.174 201.302C486.021 201.66 485.863 202.031 485.699 202.387L485.212 203.62C485.127 203.857 485.026 204.091 484.927 204.317C484.854 204.487 484.782 204.656 484.714 204.83L484.253 206.067C483.732 207.408 483.227 208.74 482.721 210.067C482.003 211.957 481.262 213.911 480.502 215.816C477.838 222.672 475.114 228.937 472.174 234.961C470.977 237.415 469.821 239.686 468.636 241.902C468.468 242.216 468.074 242.335 467.76 242.167C467.444 241.998 467.325 241.607 467.493 241.291C468.67 239.09 469.821 236.832 471.011 234.393C473.934 228.401 476.643 222.169 479.297 215.342C480.054 213.442 480.795 211.493 481.511 209.609C482.016 208.276 482.522 206.941 483.04 205.605L483.504 204.369C483.579 204.172 483.66 203.988 483.737 203.805C483.833 203.585 483.921 203.377 484.002 203.159L484.499 201.894C484.505 201.882 484.51 201.871 484.515 201.859C484.673 201.517 484.823 201.166 484.981 200.794L485.038 200.658C485.554 199.417 486.153 198.182 486.964 196.679C485.528 196.946 484.054 197.448 482.636 198.156L482.441 198.249C482.055 198.432 481.656 198.622 481.288 198.825L480.013 199.578C479.175 200.066 478.424 200.604 477.625 201.172L477.571 201.211C474.619 203.378 471.861 205.937 469.144 209.031C464.52 214.336 460.567 220.417 457.063 227.615C453.815 234.354 451.353 241.283 449.748 248.206C449.365 249.839 449.025 251.513 448.74 253.183C448.686 253.499 448.414 253.722 448.102 253.722" fill="white"/>
<path fill-rule="evenodd" clip-rule="evenodd" d="M450.114 280.813C450.057 280.953 450 281.093 449.943 281.231C449.8 281.568 449.668 281.887 449.551 282.216C449.367 282.739 449.225 283.214 449.116 283.665C448.914 284.393 448.779 285.158 448.712 285.956C450.168 285.689 451.446 285.362 452.688 285.044C453.04 284.953 453.385 284.865 453.732 284.779C455.469 284.328 457.063 283.856 458.605 283.403L458.634 283.392C460.021 282.98 461.353 282.54 462.638 282.112L463.056 281.975C464.284 281.547 465.751 281.034 467.237 280.487C467.561 280.36 467.895 280.235 468.227 280.108C469.256 279.717 470.319 279.313 471.366 278.877C471.661 278.761 472.032 278.615 472.397 278.447C472.408 278.444 472.416 278.439 472.426 278.437C472.773 278.294 473.123 278.151 473.476 278.001C473.605 277.947 473.724 277.892 473.844 277.838L473.997 277.765C474.007 277.763 474.015 277.757 474.025 277.755L474.878 277.405C475.217 277.26 475.536 277.125 475.858 276.972C477.48 276.233 479.098 275.324 480.668 274.261C481.363 273.779 482.187 273.185 482.993 272.498C483.483 272.086 484.09 271.557 484.709 270.907C483.921 270.474 483.183 270.155 482.597 269.911C481.617 269.502 480.65 269.186 479.831 268.932C478.022 268.4 476.205 268.022 474.445 267.815C474.085 267.765 473.74 267.732 473.375 267.698L473.105 267.672L472.294 267.625C472.11 267.62 471.923 267.615 471.739 267.618C470.777 267.605 469.787 267.662 468.766 267.786C466.695 268.045 464.759 268.52 463.017 269.193C461.117 269.904 459.349 270.821 457.753 271.923C456.112 273.024 454.624 274.341 453.325 275.842C452.079 277.236 451 278.908 450.114 280.813ZM448.02 287.382C447.861 287.382 447.709 287.325 447.589 287.221C447.447 287.091 447.364 286.907 447.372 286.713C447.405 285.523 447.571 284.388 447.861 283.335C447.976 282.866 448.131 282.353 448.328 281.785C448.458 281.417 448.605 281.067 448.745 280.73C448.805 280.591 448.862 280.453 448.919 280.311C448.924 280.3 448.927 280.292 448.932 280.282C449.873 278.255 451.024 276.472 452.351 274.987C453.719 273.408 455.293 272.014 457.024 270.85C458.701 269.694 460.565 268.727 462.556 267.983C464.388 267.273 466.428 266.773 468.608 266.498C469.689 266.368 470.738 266.309 471.736 266.322C471.918 266.319 472.123 266.324 472.325 266.329L472.501 266.332C472.514 266.332 472.524 266.332 472.535 266.335L473.496 266.407C473.857 266.441 474.23 266.477 474.608 266.529C476.431 266.744 478.317 267.135 480.207 267.693C481.065 267.957 482.068 268.286 483.095 268.717C483.888 269.043 484.95 269.51 486.068 270.197C486.228 270.295 486.34 270.461 486.368 270.648C486.397 270.837 486.342 271.029 486.218 271.171C485.363 272.164 484.492 272.931 483.831 273.488C482.986 274.206 482.128 274.823 481.402 275.329C479.761 276.438 478.082 277.384 476.402 278.149C476.068 278.307 475.72 278.455 475.386 278.597L474.388 279.012C474.251 279.077 474.113 279.139 473.976 279.196C473.631 279.344 473.276 279.489 472.924 279.631C472.53 279.81 472.143 279.963 471.85 280.077C470.798 280.518 469.725 280.925 468.688 281.319C468.356 281.446 468.025 281.573 467.693 281.697C466.19 282.255 464.717 282.77 463.473 283.201L463.045 283.343C461.749 283.771 460.412 284.214 459.002 284.637L458.973 284.644C457.421 285.103 455.816 285.578 454.051 286.034C453.704 286.122 453.359 286.21 453.012 286.298C451.519 286.682 449.974 287.076 448.121 287.374C448.087 287.379 448.053 287.382 448.02 287.382V287.382Z" fill="white"/>
<path fill-rule="evenodd" clip-rule="evenodd" d="M440.188 236.348C440.175 236.348 440.162 236.348 440.149 236.345C439.794 236.327 439.519 236.021 439.54 235.663C439.574 235.072 439.608 234.481 439.644 233.89C440.32 223.217 441.396 213.486 442.93 204.147C443.835 198.682 444.779 193.84 445.821 189.344C446.336 187.159 446.961 184.575 447.697 181.96C448.26 179.941 449.032 177.277 450.02 174.584C450.118 174.315 450.38 174.145 450.668 174.16C450.955 174.178 451.194 174.382 451.259 174.66C451.909 177.455 452.347 180.193 452.658 182.267C453.065 184.95 453.368 187.592 453.612 189.822C454.092 194.416 454.436 199.338 454.659 204.871C455.025 214.077 454.911 223.585 454.315 233.937C454.294 234.295 453.983 234.567 453.63 234.546C453.273 234.526 453 234.22 453.021 233.862C453.615 223.554 453.729 214.088 453.366 204.923C453.14 199.418 452.801 194.523 452.324 189.959C452.083 187.746 451.782 185.121 451.375 182.461C451.155 180.974 450.865 179.145 450.481 177.205C449.859 179.083 449.348 180.862 448.947 182.309C448.216 184.902 447.594 187.469 447.083 189.639C446.049 194.105 445.108 198.921 444.208 204.358C442.682 213.655 441.611 223.341 440.937 233.971C440.901 234.559 440.867 235.148 440.834 235.736C440.815 236.081 440.528 236.348 440.188 236.348" fill="white"/>
<path fill-rule="evenodd" clip-rule="evenodd" d="M470.464 332.889H436.615L426.91 279.629H480.171L470.464 332.889" fill="white"/>
<path fill-rule="evenodd" clip-rule="evenodd" d="M437.156 332.241H469.924L479.392 280.277H427.687L437.156 332.241ZM470.463 333.537H436.614C436.303 333.537 436.033 333.312 435.976 333.003L426.272 279.745C426.238 279.556 426.29 279.362 426.412 279.214C426.536 279.066 426.718 278.981 426.909 278.981H480.17C480.362 278.981 480.543 279.066 480.668 279.214C480.789 279.362 480.841 279.556 480.807 279.745L471.1 333.003C471.046 333.312 470.776 333.537 470.463 333.537V333.537Z" fill="#006BFF"/>
<path fill-rule="evenodd" clip-rule="evenodd" d="M457.159 332.889H423.31L413.605 279.629H466.863L457.159 332.889" fill="white"/>
<path fill-rule="evenodd" clip-rule="evenodd" d="M423.851 332.241H456.619L466.088 280.277H414.382L423.851 332.241ZM457.158 333.537H423.309C422.998 333.537 422.729 333.312 422.672 333.003L412.967 279.745C412.933 279.556 412.985 279.362 413.107 279.214C413.231 279.066 413.413 278.981 413.605 278.981H466.863C467.057 278.981 467.238 279.066 467.36 279.214C467.485 279.362 467.536 279.556 467.5 279.745L457.796 333.003C457.741 333.312 457.472 333.537 457.158 333.537V333.537Z" fill="#006BFF"/>
<path fill-rule="evenodd" clip-rule="evenodd" d="M508.83 333.54H492.781C492.423 333.54 492.133 333.25 492.133 332.892C492.133 332.534 492.423 332.244 492.781 332.244H508.83C509.188 332.244 509.478 332.534 509.478 332.892C509.478 333.25 509.188 333.54 508.83 333.54" fill="#2A0055"/>
<path fill-rule="evenodd" clip-rule="evenodd" d="M487.403 333.54H0.726125C0.36817 333.54 0.078125 333.25 0.078125 332.892C0.078125 332.534 0.36817 332.244 0.726125 332.244H487.403C487.761 332.244 488.051 332.534 488.051 332.892C488.051 333.25 487.761 333.54 487.403 333.54" fill="#2A0055"/>
<path fill-rule="evenodd" clip-rule="evenodd" d="M68.4327 273.46H93.6147V261.843C93.6147 259.258 91.5113 257.154 88.9258 257.154H73.1216C70.5361 257.154 68.4327 259.258 68.4327 261.843V273.46ZM95.4032 277.037H66.6442C65.6564 277.037 64.8555 276.236 64.8555 275.248V261.843C64.8555 257.286 68.5638 253.577 73.1216 253.577H88.9258C93.4836 253.577 97.1917 257.286 97.1917 261.843V275.248C97.1917 276.236 96.391 277.037 95.4032 277.037V277.037Z" fill="#072A6C"/>
<path fill-rule="evenodd" clip-rule="evenodd" d="M63.0652 273.46H88.2476V261.843C88.2476 259.258 86.1439 257.154 83.5584 257.154H67.7544C65.1689 257.154 63.0652 259.258 63.0652 261.843V273.46ZM90.036 277.037H61.277C60.2892 277.037 59.4883 276.236 59.4883 275.248V261.843C59.4883 257.286 63.1964 253.577 67.7544 253.577H83.5584C88.1164 253.577 91.8245 257.286 91.8245 261.843V275.248C91.8245 276.236 91.0236 277.037 90.036 277.037V277.037Z" fill="#001E57"/>
<path fill-rule="evenodd" clip-rule="evenodd" d="M125.047 332.28H45.1797V275.062C45.1797 271.977 47.6799 269.479 50.7639 269.479H119.463C122.547 269.479 125.047 271.977 125.047 275.062V332.28" fill="#072A6C"/>
<path fill-rule="evenodd" clip-rule="evenodd" d="M45.3185 331.884H124.914V274.803C124.914 271.798 122.47 269.354 119.466 269.354H50.7666C47.7628 269.354 45.3185 271.798 45.3185 274.803V331.884ZM125.186 332.156H45.0469V274.803C45.0469 271.648 47.613 269.082 50.7666 269.082H119.466C122.62 269.082 125.186 271.648 125.186 274.803V332.156V332.156Z" fill="#2A0055"/>
<path fill-rule="evenodd" clip-rule="evenodd" d="M116.289 332.005H36.4219V274.787C36.4219 271.703 38.9221 269.204 42.0061 269.204H110.705C113.789 269.204 116.289 271.703 116.289 274.787V332.005" fill="#001E57"/>
<path fill-rule="evenodd" clip-rule="evenodd" d="M81.8988 300.466L115.959 278.359C117.313 277.42 118.121 275.881 118.121 274.232C118.121 271.464 115.876 269.219 113.106 269.219H41.4371C38.6673 269.219 36.4219 271.464 36.4219 274.232V274.393C36.4219 275.736 36.9589 277.011 37.8972 277.947L67.2109 300.295L81.8988 300.466" fill="#001E57"/>
<path fill-rule="evenodd" clip-rule="evenodd" d="M70.5664 299.986H79.6519V269.323H70.5664V299.986Z" fill="#006BFF"/>
<path fill-rule="evenodd" clip-rule="evenodd" d="M67.4329 299.649L81.7102 299.815L115.606 277.814C116.769 277.011 117.473 275.668 117.473 274.235C117.473 271.824 115.514 269.867 113.106 269.867H41.4367C39.0287 269.867 37.0694 271.824 37.0694 274.235V274.393C37.0694 275.531 37.5267 276.645 38.3253 277.457L67.4329 299.649ZM81.8983 301.114C81.896 301.114 81.8934 301.114 81.8908 301.114L67.203 300.943C67.0635 300.94 66.9285 300.894 66.8178 300.811L37.5041 278.46C37.4813 278.444 37.4598 278.424 37.4396 278.405C36.3807 277.351 35.7734 275.886 35.7734 274.393V274.235C35.7734 271.112 38.3139 268.571 41.4367 268.571H113.106C116.229 268.571 118.769 271.112 118.769 274.235C118.769 276.093 117.856 277.833 116.327 278.89L82.2514 301.01C82.1461 301.078 82.0238 301.114 81.8983 301.114V301.114Z" fill="white"/>
<path fill-rule="evenodd" clip-rule="evenodd" d="M65.7383 312.576H84.4232V299.38H65.7383V312.576Z" fill="white"/>
<path fill-rule="evenodd" clip-rule="evenodd" d="M70.3858 308.747H79.4265V302.851H70.3858V308.747ZM80.0745 310.043H69.7378C69.3799 310.043 69.0898 309.753 69.0898 309.395V302.203C69.0898 301.845 69.3799 301.555 69.7378 301.555H80.0745C80.4324 301.555 80.7225 301.845 80.7225 302.203V309.395C80.7225 309.753 80.4324 310.043 80.0745 310.043V310.043Z" fill="#2A0055"/>
<path fill-rule="evenodd" clip-rule="evenodd" d="M111.152 290.005C110.794 290.005 110.504 289.714 110.504 289.357V288.188C110.504 287.83 110.794 287.54 111.152 287.54C111.51 287.54 111.8 287.83 111.8 288.188V289.357C111.8 289.714 111.51 290.005 111.152 290.005" fill="white"/>
<path fill-rule="evenodd" clip-rule="evenodd" d="M111.152 294.896C110.794 294.896 110.504 294.605 110.504 294.248V291.804C110.504 291.446 110.794 291.156 111.152 291.156C111.51 291.156 111.8 291.446 111.8 291.804V294.248C111.8 294.605 111.51 294.896 111.152 294.896ZM111.152 299.787C110.794 299.787 110.504 299.497 110.504 299.139V296.695C110.504 296.337 110.794 296.047 111.152 296.047C111.51 296.047 111.8 296.337 111.8 296.695V299.139C111.8 299.497 111.51 299.787 111.152 299.787ZM111.152 304.681C110.794 304.681 110.504 304.39 110.504 304.033V301.586C110.504 301.228 110.794 300.938 111.152 300.938C111.51 300.938 111.8 301.228 111.8 301.586V304.033C111.8 304.39 111.51 304.681 111.152 304.681ZM111.152 309.572C110.794 309.572 110.504 309.281 110.504 308.924V306.477C110.504 306.119 110.794 305.829 111.152 305.829C111.51 305.829 111.8 306.119 111.8 306.477V308.924C111.8 309.281 111.51 309.572 111.152 309.572ZM111.152 314.463C110.794 314.463 110.504 314.172 110.504 313.815V311.368C110.504 311.01 110.794 310.72 111.152 310.72C111.51 310.72 111.8 311.01 111.8 311.368V313.815C111.8 314.172 111.51 314.463 111.152 314.463ZM111.152 319.354C110.794 319.354 110.504 319.064 110.504 318.706V316.259C110.504 315.901 110.794 315.611 111.152 315.611C111.51 315.611 111.8 315.901 111.8 316.259V318.706C111.8 319.064 111.51 319.354 111.152 319.354ZM111.152 324.245C110.794 324.245 110.504 323.955 110.504 323.597V321.15C110.504 320.792 110.794 320.502 111.152 320.502C111.51 320.502 111.8 320.792 111.8 321.15V323.597C111.8 323.955 111.51 324.245 111.152 324.245V324.245Z" fill="white"/>
<path fill-rule="evenodd" clip-rule="evenodd" d="M111.154 327.861H109.984C109.722 327.861 109.485 327.703 109.385 327.462C109.285 327.218 109.34 326.941 109.526 326.754L110.696 325.585C110.882 325.398 111.159 325.344 111.403 325.445C111.644 325.544 111.802 325.782 111.802 326.044V327.213C111.802 327.57 111.512 327.861 111.154 327.861" fill="white"/>
<path fill-rule="evenodd" clip-rule="evenodd" d="M48.8876 327.861H46.6246C46.2669 327.861 45.9766 327.571 45.9766 327.213C45.9766 326.855 46.2669 326.565 46.6246 326.565H48.8876C49.2456 326.565 49.5356 326.855 49.5356 327.213C49.5356 327.571 49.2456 327.861 48.8876 327.861ZM53.4133 327.861H51.1502C50.7922 327.861 50.5022 327.571 50.5022 327.213C50.5022 326.855 50.7922 326.565 51.1502 326.565H53.4133C53.7712 326.565 54.0613 326.855 54.0613 327.213C54.0613 327.571 53.7712 327.861 53.4133 327.861ZM57.9389 327.861H55.6758C55.3179 327.861 55.0278 327.571 55.0278 327.213C55.0278 326.855 55.3179 326.565 55.6758 326.565H57.9389C58.2969 326.565 58.5869 326.855 58.5869 327.213C58.5869 327.571 58.2969 327.861 57.9389 327.861ZM62.4645 327.861H60.2015C59.8435 327.861 59.5535 327.571 59.5535 327.213C59.5535 326.855 59.8435 326.565 60.2015 326.565H62.4645C62.8225 326.565 63.1125 326.855 63.1125 327.213C63.1125 327.571 62.8225 327.861 62.4645 327.861ZM66.9902 327.861H64.7271C64.3691 327.861 64.0791 327.571 64.0791 327.213C64.0791 326.855 64.3691 326.565 64.7271 326.565H66.9902C67.3481 326.565 67.6382 326.855 67.6382 327.213C67.6382 327.571 67.3481 327.861 66.9902 327.861ZM71.5155 327.861H69.2525C68.8945 327.861 68.6045 327.571 68.6045 327.213C68.6045 326.855 68.8945 326.565 69.2525 326.565H71.5155C71.8735 326.565 72.1635 326.855 72.1635 327.213C72.1635 327.571 71.8735 327.861 71.5155 327.861ZM76.0412 327.861H73.7781C73.4201 327.861 73.1301 327.571 73.1301 327.213C73.1301 326.855 73.4201 326.565 73.7781 326.565H76.0412C76.3991 326.565 76.6892 326.855 76.6892 327.213C76.6892 327.571 76.3991 327.861 76.0412 327.861ZM80.5668 327.861H78.3037C77.9458 327.861 77.6557 327.571 77.6557 327.213C77.6557 326.855 77.9458 326.565 78.3037 326.565H80.5668C80.9245 326.565 81.2148 326.855 81.2148 327.213C81.2148 327.571 80.9245 327.861 80.5668 327.861ZM85.0924 327.861H82.8294C82.4714 327.861 82.1814 327.571 82.1814 327.213C82.1814 326.855 82.4714 326.565 82.8294 326.565H85.0924C85.4501 326.565 85.7404 326.855 85.7404 327.213C85.7404 327.571 85.4501 327.861 85.0924 327.861ZM89.6181 327.861H87.3547C86.9968 327.861 86.7067 327.571 86.7067 327.213C86.7067 326.855 86.9968 326.565 87.3547 326.565H89.6181C89.9758 326.565 90.2661 326.855 90.2661 327.213C90.2661 327.571 89.9758 327.861 89.6181 327.861ZM94.1434 327.861H91.8804C91.5224 327.861 91.2324 327.571 91.2324 327.213C91.2324 326.855 91.5224 326.565 91.8804 326.565H94.1434C94.5011 326.565 94.7914 326.855 94.7914 327.213C94.7914 327.571 94.5011 327.861 94.1434 327.861ZM98.6688 327.861H96.406C96.048 327.861 95.758 327.571 95.758 327.213C95.758 326.855 96.048 326.565 96.406 326.565H98.6688C99.0268 326.565 99.3168 326.855 99.3168 327.213C99.3168 327.571 99.0268 327.861 98.6688 327.861ZM103.194 327.861H100.932C100.574 327.861 100.284 327.571 100.284 327.213C100.284 326.855 100.574 326.565 100.932 326.565H103.194C103.552 326.565 103.842 326.855 103.842 327.213C103.842 327.571 103.552 327.861 103.194 327.861ZM107.72 327.861H105.457C105.099 327.861 104.809 327.571 104.809 327.213C104.809 326.855 105.099 326.565 105.457 326.565H107.72C108.078 326.565 108.368 326.855 108.368 327.213C108.368 327.571 108.078 327.861 107.72 327.861V327.861Z" fill="white"/>
<path fill-rule="evenodd" clip-rule="evenodd" d="M44.3615 327.861H43.191C42.833 327.861 42.543 327.57 42.543 327.213V326.044C42.543 325.782 42.7011 325.544 42.9429 325.445C43.186 325.344 43.4639 325.398 43.6492 325.585L44.8195 326.754C45.0049 326.941 45.0603 327.218 44.96 327.462C44.86 327.703 44.6236 327.861 44.3615 327.861" fill="white"/>
<path fill-rule="evenodd" clip-rule="evenodd" d="M43.191 293.416C42.833 293.416 42.543 293.125 42.543 292.768V290.549C42.543 290.191 42.833 289.901 43.191 289.901C43.5489 289.901 43.839 290.191 43.839 290.549V292.768C43.839 293.125 43.5489 293.416 43.191 293.416ZM43.191 297.853C42.833 297.853 42.543 297.563 42.543 297.205V294.986C42.543 294.629 42.833 294.338 43.191 294.338C43.5489 294.338 43.839 294.629 43.839 294.986V297.205C43.839 297.563 43.5489 297.853 43.191 297.853ZM43.191 302.291C42.833 302.291 42.543 302 42.543 301.643V299.424C42.543 299.066 42.833 298.776 43.191 298.776C43.5489 298.776 43.839 299.066 43.839 299.424V301.643C43.839 302 43.5489 302.291 43.191 302.291ZM43.191 306.726C42.833 306.726 42.543 306.435 42.543 306.078V303.859C42.543 303.501 42.833 303.211 43.191 303.211C43.5489 303.211 43.839 303.501 43.839 303.859V306.078C43.839 306.435 43.5489 306.726 43.191 306.726ZM43.191 311.163C42.833 311.163 42.543 310.873 42.543 310.515V308.296C42.543 307.939 42.833 307.648 43.191 307.648C43.5489 307.648 43.839 307.939 43.839 308.296V310.515C43.839 310.873 43.5489 311.163 43.191 311.163ZM43.191 315.601C42.833 315.601 42.543 315.31 42.543 314.953V312.734C42.543 312.376 42.833 312.086 43.191 312.086C43.5489 312.086 43.839 312.376 43.839 312.734V314.953C43.839 315.31 43.5489 315.601 43.191 315.601ZM43.191 320.035C42.833 320.035 42.543 319.745 42.543 319.387V317.169C42.543 316.811 42.833 316.521 43.191 316.521C43.5489 316.521 43.839 316.811 43.839 317.169V319.387C43.839 319.745 43.5489 320.035 43.191 320.035ZM43.191 324.473C42.833 324.473 42.543 324.183 42.543 323.825V321.606C42.543 321.249 42.833 320.958 43.191 320.958C43.5489 320.958 43.839 321.249 43.839 321.606V323.825C43.839 324.183 43.5489 324.473 43.191 324.473V324.473Z" fill="white"/>
<path fill-rule="evenodd" clip-rule="evenodd" d="M43.191 288.981C42.833 288.981 42.543 288.69 42.543 288.333V287.161C42.543 286.803 42.833 286.513 43.191 286.513C43.5489 286.513 43.839 286.803 43.839 287.161V288.333C43.839 288.69 43.5489 288.981 43.191 288.981" fill="white"/>
<path fill-rule="evenodd" clip-rule="evenodd" d="M480.185 30.0741C484.263 34.7755 486.73 40.911 486.73 47.6227C486.73 62.4218 474.734 74.4181 459.937 74.4181C445.136 74.4181 433.141 62.4218 433.141 47.6227C433.141 32.824 445.136 20.8269 459.937 20.8269C465.154 20.8269 470.025 22.3189 474.143 24.8992L480.185 30.0741" fill="#CFE4FF"/>
<path fill-rule="evenodd" clip-rule="evenodd" d="M472.412 30.0741C476.492 34.7755 478.959 40.911 478.959 47.6227C478.959 62.4218 466.961 74.4181 452.163 74.4181C437.363 74.4181 425.367 62.4218 425.367 47.6227C425.367 32.824 437.363 20.8269 452.163 20.8269C457.381 20.8269 462.251 22.3189 466.37 24.8992L472.412 30.0741" fill="white"/>
<path fill-rule="evenodd" clip-rule="evenodd" d="M452.163 75.0661C437.031 75.0661 424.719 62.7551 424.719 47.6228C424.719 32.4902 437.031 20.179 452.163 20.179C457.326 20.179 462.357 21.6214 466.714 24.35C467.018 24.54 467.108 24.9399 466.919 25.2432C466.727 25.5467 466.328 25.638 466.025 25.4485C461.875 22.849 457.082 21.475 452.163 21.475C437.744 21.475 426.015 33.2048 426.015 47.6228C426.015 62.0405 437.744 73.7701 452.163 73.7701C466.58 73.7701 478.311 62.0405 478.311 47.6228C478.311 41.3289 476.04 35.2473 471.922 30.499C471.688 30.2287 471.717 29.8191 471.989 29.5848C472.259 29.3505 472.668 29.379 472.901 29.6496C477.225 34.634 479.607 41.0168 479.607 47.6228C479.607 62.7551 467.295 75.0661 452.163 75.0661" fill="#006BFF"/>
<path fill-rule="evenodd" clip-rule="evenodd" d="M460.212 42.3765L452.766 47.0517L460.212 42.3765" fill="white"/>
<path fill-rule="evenodd" clip-rule="evenodd" d="M452.765 47.6994C452.55 47.6994 452.34 47.5919 452.216 47.3959C452.027 47.0929 452.117 46.693 452.421 46.5027L459.867 41.8275C460.171 41.6373 460.57 41.7288 460.762 42.0318C460.951 42.3348 460.86 42.735 460.557 42.925L453.11 47.6002C453.004 47.6673 452.885 47.6994 452.765 47.6994" fill="#006BFF"/>
<path fill-rule="evenodd" clip-rule="evenodd" d="M451.644 29.3396C451.286 29.3396 450.996 29.0495 450.996 28.6916V24.9332C450.996 24.5752 451.286 24.2852 451.644 24.2852C452.002 24.2852 452.292 24.5752 452.292 24.9332V28.6916C452.292 29.0495 452.002 29.3396 451.644 29.3396" fill="#006BFF"/>
<path fill-rule="evenodd" clip-rule="evenodd" d="M451.644 71.719C451.286 71.719 450.996 71.4289 450.996 71.071V67.3126C450.996 66.9546 451.286 66.6646 451.644 66.6646C452.002 66.6646 452.292 66.9546 452.292 67.3126V71.071C452.292 71.4289 452.002 71.719 451.644 71.719" fill="#006BFF"/>
<path fill-rule="evenodd" clip-rule="evenodd" d="M473.156 47.0948H469.398C469.04 47.0948 468.75 46.8048 468.75 46.4468C468.75 46.0889 469.04 45.7988 469.398 45.7988H473.156C473.514 45.7988 473.804 46.0889 473.804 46.4468C473.804 46.8048 473.514 47.0948 473.156 47.0948" fill="#006BFF"/>
<path fill-rule="evenodd" clip-rule="evenodd" d="M433.887 47.0948H430.128C429.771 47.0948 429.48 46.8048 429.48 46.4468C429.48 46.0889 429.771 45.7988 430.128 45.7988H433.887C434.245 45.7988 434.535 46.0889 434.535 46.4468C434.535 46.8048 434.245 47.0948 433.887 47.0948" fill="#006BFF"/>
<path fill-rule="evenodd" clip-rule="evenodd" d="M455.685 47.0516C455.685 48.6631 454.378 49.9697 452.766 49.9697C451.154 49.9697 449.848 48.6631 449.848 47.0516C449.848 45.4402 451.154 44.1335 452.766 44.1335C454.378 44.1335 455.685 45.4402 455.685 47.0516" fill="#006BFF"/>
<path fill-rule="evenodd" clip-rule="evenodd" d="M445.051 31.6196L452.767 47.0516L445.051 31.6196" fill="white"/>
<path fill-rule="evenodd" clip-rule="evenodd" d="M452.767 47.6995C452.531 47.6995 452.3 47.5683 452.186 47.3413L444.47 31.9093C444.312 31.5894 444.441 31.2001 444.76 31.0399C445.081 30.88 445.47 31.0096 445.631 31.3297L453.347 46.7617C453.505 47.0818 453.376 47.4711 453.057 47.6311C452.964 47.6775 452.865 47.6995 452.767 47.6995" fill="#006BFF"/>
<path fill-rule="evenodd" clip-rule="evenodd" d="M423.435 92.7139H428.99V146.044H360.289V92.7139H423.435" fill="white"/>
<path fill-rule="evenodd" clip-rule="evenodd" d="M416.349 86.4929H420.955V139.823H352.254V86.4929H416.349" fill="white"/>
<path fill-rule="evenodd" clip-rule="evenodd" d="M420.954 140.471H352.253C351.896 140.471 351.605 140.181 351.605 139.823V86.4932C351.605 86.1353 351.896 85.8452 352.253 85.8452H363.236C363.593 85.8452 363.884 86.1353 363.884 86.4932C363.884 86.8512 363.593 87.1412 363.236 87.1412H352.901V139.175H420.306V87.1412H416.348C415.988 87.1412 415.7 86.8512 415.7 86.4932C415.7 86.1353 415.988 85.8452 416.348 85.8452H420.954C421.312 85.8452 421.602 86.1353 421.602 86.4932V139.823C421.602 140.181 421.312 140.471 420.954 140.471" fill="#006BFF"/>
<path fill-rule="evenodd" clip-rule="evenodd" d="M402.906 87.1412H379.023C378.663 87.1412 378.375 86.8512 378.375 86.4932C378.375 86.1353 378.663 85.8452 379.023 85.8452H402.906C403.263 85.8452 403.554 86.1353 403.554 86.4932C403.554 86.8512 403.263 87.1412 402.906 87.1412" fill="#006BFF"/>
<path fill-rule="evenodd" clip-rule="evenodd" d="M367.312 95.6693C362.245 95.6693 358.137 91.5609 358.137 86.4931C358.137 81.4254 362.245 77.3174 367.312 77.3174C370.682 77.3174 373.627 79.1333 375.223 81.8402L367.312 95.6693" fill="white"/>
<path fill-rule="evenodd" clip-rule="evenodd" d="M367.312 96.3171C361.895 96.3171 357.488 91.9099 357.488 86.4931C357.488 81.0761 361.895 76.6692 367.312 76.6692C370.775 76.6692 374.02 78.5243 375.78 81.511C375.961 81.8192 375.86 82.2166 375.552 82.3983C375.243 82.58 374.847 82.4776 374.665 82.1692C373.136 79.5759 370.319 77.9652 367.312 77.9652C362.61 77.9652 358.784 81.7907 358.784 86.4931C358.784 91.1953 362.61 95.0211 367.312 95.0211C367.67 95.0211 367.96 95.3111 367.96 95.6691C367.96 96.027 367.67 96.3171 367.312 96.3171" fill="#006BFF"/>
<path fill-rule="evenodd" clip-rule="evenodd" d="M404.735 95.6413C404.496 95.6597 404.255 95.6693 404.012 95.6693C398.944 95.6693 394.836 91.5609 394.836 86.4931C394.836 81.4254 398.944 77.3174 404.012 77.3174C407.446 77.3174 410.437 79.202 412.011 81.9934L404.735 95.6413" fill="white"/>
<path fill-rule="evenodd" clip-rule="evenodd" d="M404.018 96.3171C398.6 96.3171 394.191 91.9099 394.191 86.4931C394.191 81.0761 398.6 76.6692 404.018 76.6692C407.558 76.6692 410.84 78.5873 412.579 81.6749C412.755 81.9867 412.644 82.382 412.333 82.5577C412.022 82.7332 411.625 82.623 411.452 82.3115C409.938 79.6305 407.092 77.9652 404.018 77.9652C399.313 77.9652 395.487 81.7907 395.487 86.4931C395.487 91.1953 399.313 95.0211 404.018 95.0211C404.241 95.0211 404.466 95.0123 404.689 94.9949C405.044 94.9684 405.358 95.2341 405.384 95.5908C405.412 95.9477 405.145 96.2595 404.788 96.2873C404.533 96.307 404.272 96.3171 404.018 96.3171" fill="#006BFF"/>
<path fill-rule="evenodd" clip-rule="evenodd" d="M361.664 114.492H373.603V104.139H361.664V114.492Z" fill="white"/>
<path fill-rule="evenodd" clip-rule="evenodd" d="M362.312 113.843H372.954V104.787H362.312V113.843ZM373.602 115.139H361.664C361.303 115.139 361.016 114.849 361.016 114.491V104.139C361.016 103.781 361.303 103.491 361.664 103.491H373.602C373.96 103.491 374.25 103.781 374.25 104.139V114.491C374.25 114.849 373.96 115.139 373.602 115.139V115.139Z" fill="#006BFF"/>
<path fill-rule="evenodd" clip-rule="evenodd" d="M381.281 114.492H393.22V104.139H381.281V114.492Z" fill="white"/>
<path fill-rule="evenodd" clip-rule="evenodd" d="M381.929 113.843H392.572V104.787H381.929V113.843ZM393.22 115.139H381.281C380.923 115.139 380.633 114.849 380.633 114.491V104.139C380.633 103.781 380.923 103.491 381.281 103.491H393.22C393.577 103.491 393.868 103.781 393.868 104.139V114.491C393.868 114.849 393.577 115.139 393.22 115.139V115.139Z" fill="#006BFF"/>
<path fill-rule="evenodd" clip-rule="evenodd" d="M400.898 114.492H412.837V104.139H400.898V114.492Z" fill="white"/>
<path fill-rule="evenodd" clip-rule="evenodd" d="M401.546 113.843H412.189V104.787H401.546V113.843ZM412.837 115.139H400.898C400.54 115.139 400.25 114.849 400.25 114.491V104.139C400.25 103.781 400.54 103.491 400.898 103.491H412.837C413.197 103.491 413.485 103.781 413.485 104.139V114.491C413.485 114.849 413.197 115.139 412.837 115.139V115.139Z" fill="#006BFF"/>
<path fill-rule="evenodd" clip-rule="evenodd" d="M361.664 132.138H373.603V121.785H361.664V132.138Z" fill="white"/>
<path fill-rule="evenodd" clip-rule="evenodd" d="M362.312 131.49H372.954V122.433H362.312V131.49ZM373.602 132.786H361.664C361.303 132.786 361.016 132.496 361.016 132.138V121.785C361.016 121.427 361.303 121.137 361.664 121.137H373.602C373.96 121.137 374.25 121.427 374.25 121.785V132.138C374.25 132.496 373.96 132.786 373.602 132.786V132.786Z" fill="#006BFF"/>
<path fill-rule="evenodd" clip-rule="evenodd" d="M381.281 132.138H393.22V121.785H381.281V132.138Z" fill="white"/>
<path fill-rule="evenodd" clip-rule="evenodd" d="M381.929 131.49H392.572V122.433H381.929V131.49ZM393.22 132.786H381.281C380.923 132.786 380.633 132.496 380.633 132.138V121.785C380.633 121.427 380.923 121.137 381.281 121.137H393.22C393.577 121.137 393.868 121.427 393.868 121.785V132.138C393.868 132.496 393.577 132.786 393.22 132.786V132.786Z" fill="#006BFF"/>
<path fill-rule="evenodd" clip-rule="evenodd" d="M400.898 132.138H412.837V121.785H400.898V132.138Z" fill="white"/>
<path fill-rule="evenodd" clip-rule="evenodd" d="M401.546 131.49H412.189V122.433H401.546V131.49ZM412.837 132.786H400.898C400.54 132.786 400.25 132.496 400.25 132.138V121.785C400.25 121.427 400.54 121.137 400.898 121.137H412.837C413.197 121.137 413.485 121.427 413.485 121.785V132.138C413.485 132.496 413.197 132.786 412.837 132.786V132.786Z" fill="#006BFF"/>
<path fill-rule="evenodd" clip-rule="evenodd" d="M28.0172 98.9944C27.9936 99.0141 27.9682 99.0325 27.9415 99.0488L20.5195 103.064C20.2147 103.252 19.8155 103.157 19.6279 102.852C19.4405 102.547 19.5333 102.147 19.8402 101.961L27.2621 97.9451C27.5669 97.7575 27.9663 97.8526 28.1538 98.1574C28.3246 98.4353 28.2608 98.7914 28.0172 98.9944" fill="#CFE4FF"/>
<path fill-rule="evenodd" clip-rule="evenodd" d="M418.847 2.27888L418.803 0.724462C419.824 0.694914 420.877 0.677288 421.931 0.672363L421.939 2.22756C420.897 2.23249 419.855 2.24985 418.847 2.27888ZM428.126 2.33047C427.079 2.2921 426.037 2.26411 425.031 2.24674L425.057 0.691803C426.073 0.70917 427.126 0.737682 428.183 0.776302L428.126 2.33047ZM412.678 2.62336L412.548 1.0736C413.567 0.987291 414.619 0.913678 415.672 0.855358L415.76 2.40848C414.721 2.46577 413.684 2.53808 412.678 2.62336ZM406.553 3.34109L406.32 1.80351C407.333 1.64955 408.38 1.50932 409.428 1.38698L409.609 2.93181C408.577 3.05182 407.548 3.18971 406.553 3.34109ZM400.503 4.4966L400.151 2.98184C401.157 2.74778 402.191 2.52927 403.225 2.33228L403.515 3.86026C402.502 4.05311 401.488 4.26721 400.503 4.4966ZM394.586 6.15574L394.096 4.67934C395.078 4.35378 396.092 4.04507 397.105 3.76177L397.525 5.25943C396.532 5.53625 395.545 5.8377 394.586 6.15574ZM388.865 8.3776L388.225 6.95978C389.171 6.53313 390.151 6.12386 391.133 5.74309L391.696 7.19306C390.739 7.56397 389.785 7.96236 388.865 8.3776ZM383.427 11.2055L382.632 9.86982C383.526 9.33586 384.454 8.81928 385.387 8.33432L386.105 9.71456C385.198 10.1853 384.296 10.6871 383.427 11.2055ZM378.425 14.6837L377.435 13.4838C378.267 12.7975 379.119 12.1534 379.967 11.5699L380.848 12.8509C380.037 13.4089 379.22 14.0258 378.425 14.6837ZM374.005 18.899L372.862 17.8451C373.593 17.0515 374.337 16.2923 375.071 15.5893L376.146 16.7124C375.436 17.3934 374.716 18.129 374.005 18.899ZM370.068 23.6193L368.832 22.6748C369.49 21.8156 370.148 20.9882 370.791 20.216L371.986 21.2106C371.356 21.9664 370.711 22.7767 370.068 23.6193ZM366.47 28.6429L365.182 27.7707C365.794 26.8694 366.395 26.0042 366.971 25.1989L368.236 26.1027C367.668 26.8974 367.074 27.7523 366.47 28.6429ZM363.08 33.836L361.766 33.0021C362.38 32.0345 362.935 31.1755 363.453 30.3759L364.757 31.225C364.239 32.0195 363.692 32.8736 363.08 33.836ZM359.765 39.1104L358.446 38.2841L360.102 35.6441L361.419 36.4707L359.765 39.1104ZM356.416 44.3678L355.112 43.5186C355.631 42.7245 356.18 41.8717 356.789 40.9119L358.101 41.7462C357.489 42.711 356.937 43.5684 356.416 44.3678ZM352.901 49.5445L351.634 48.6412C352.209 47.8364 352.787 47.0054 353.399 46.1003L354.687 46.973C354.068 47.8882 353.482 48.7296 352.901 49.5445ZM349.083 54.5302L347.888 53.5378C348.516 52.7801 349.158 51.9688 349.804 51.1259L351.04 52.0697C350.384 52.9289 349.726 53.7568 349.083 54.5302ZM344.817 59.1691L343.736 58.0515C344.446 57.3651 345.164 56.6261 345.869 55.855L347.017 56.9058C346.289 57.6997 345.55 58.4613 344.817 59.1691ZM295.17 60.6445C294.265 60.1209 293.363 59.5691 292.484 59.0048L293.324 57.6966C294.182 58.2482 295.066 58.7873 295.95 59.299L295.17 60.6445ZM339.957 63.223L339.06 61.9517C339.866 61.384 340.677 60.7596 341.471 60.0958L342.469 61.2878C341.642 61.9796 340.797 62.6305 339.957 63.223ZM300.753 63.5439C299.807 63.1082 298.856 62.6422 297.928 62.159L298.643 60.779C299.553 61.2508 300.481 61.7059 301.403 62.1318L300.753 63.5439ZM306.59 65.9008C305.608 65.5608 304.618 65.188 303.64 64.7935L304.224 63.3518C305.175 63.7365 306.144 64.0999 307.098 64.4317L306.59 65.9008ZM334.436 66.3653L333.809 64.9423C334.716 64.5424 335.623 64.0841 336.507 63.5797L337.277 64.9299C336.349 65.461 335.392 65.9441 334.436 66.3653ZM312.645 67.6486C311.634 67.4169 310.608 67.1502 309.592 66.8562L310.024 65.3622C311.012 65.6481 312.013 65.9076 312.992 66.1331L312.645 67.6486ZM328.371 68.2787L328.067 66.7533C329.052 66.5579 330.035 66.3067 330.986 66.0061L331.455 67.4892C330.449 67.8067 329.41 68.0724 328.371 68.2787ZM318.876 68.6885C318.467 68.6486 318.047 68.6012 317.632 68.5475C317.007 68.4664 316.37 68.3715 315.74 68.2655L315.999 66.7318C316.608 66.8347 317.225 66.9265 317.832 67.005C318.231 67.0569 318.632 67.1025 319.026 67.1406L318.876 68.6885ZM322.323 68.8591L322.049 68.8578L322.062 67.3026L322.323 67.3039C323.254 67.3039 324.182 67.2627 325.084 67.1815L325.224 68.7302C324.275 68.8158 323.301 68.8591 322.323 68.8591V68.8591Z" fill="#CFE4FF"/>
</svg>
