<svg width="507" height="308" viewBox="0 0 507 308" fill="none" xmlns="http://www.w3.org/2000/svg">
<path fill-rule="evenodd" clip-rule="evenodd" d="M72.8867 305.865H104.727V294.961H72.8867V305.865Z" fill="#DCE5F7"/>
<path fill-rule="evenodd" clip-rule="evenodd" d="M85.4805 287.812H117.321V276.907H85.4805V287.812Z" fill="#DCE5F7"/>
<path fill-rule="evenodd" clip-rule="evenodd" d="M98.1537 296.264C99.1957 297.327 99.8398 298.794 99.8398 300.414C99.8398 302.905 98.3149 305.033 96.1641 305.883V306.28H140.076C143.256 306.28 145.833 303.652 145.833 300.414C145.833 298.794 145.189 297.327 144.147 296.264C143.105 295.204 141.667 294.546 140.076 294.546H96.1641V294.942C96.9168 295.238 97.5936 295.694 98.1537 296.264" fill="#001E57"/>
<path fill-rule="evenodd" clip-rule="evenodd" d="M71.33 306.845H140.213C143.759 306.845 146.644 303.96 146.644 300.414C146.644 296.866 143.759 293.981 140.213 293.981H71.33C70.7896 293.981 70.3516 294.419 70.3516 294.961C70.3516 295.5 70.7896 295.941 71.33 295.941H140.213C142.68 295.941 144.687 297.947 144.687 300.414C144.687 302.879 142.68 304.888 140.213 304.888H71.33C70.7896 304.888 70.3516 305.326 70.3516 305.865C70.3516 306.407 70.7896 306.845 71.33 306.845" fill="#001E57"/>
<path fill-rule="evenodd" clip-rule="evenodd" d="M80.875 292.732H128.485V276.907H80.875V292.732Z" fill="#DCE5F7"/>
<path fill-rule="evenodd" clip-rule="evenodd" d="M57.7731 293.986H132.167C132.695 293.986 133.123 293.558 133.123 293.03C133.123 292.503 132.695 292.076 132.167 292.076H57.7731C53.8037 292.076 50.5744 288.846 50.5744 284.878C50.5744 280.907 53.8037 277.677 57.7731 277.677H132.167C132.695 277.677 133.123 277.249 133.123 276.723C133.123 276.195 132.695 275.767 132.167 275.767H57.7731C52.7504 275.767 48.6641 279.854 48.6641 284.878C48.6641 289.898 52.7504 293.986 57.7731 293.986" fill="#006BFF"/>
<path fill-rule="evenodd" clip-rule="evenodd" d="M49.4297 284.875C49.4297 289.577 53.2407 293.387 57.9413 293.387H99.0989V293.175C95.3138 292.312 92.4895 288.924 92.4895 284.875C92.4895 282.524 93.4416 280.399 94.982 278.857C96.0942 277.745 97.5121 276.941 99.0989 276.578V276.363H57.9413C55.5906 276.363 53.4631 277.317 51.9229 278.857C50.3828 280.399 49.4297 282.524 49.4297 284.875" fill="#006BFF"/>
<path fill-rule="evenodd" clip-rule="evenodd" d="M92.8281 275.272H123.02V264.365H92.8281V275.272Z" fill="#DCE5F7"/>
<path fill-rule="evenodd" clip-rule="evenodd" d="M99.3977 265.671C98.3557 266.731 97.7119 268.198 97.7119 269.818C97.7119 272.309 99.2368 274.44 101.388 275.287V275.684H67.386C64.2064 275.684 61.6289 273.058 61.6289 269.818C61.6289 268.198 62.273 266.731 63.315 265.671C64.357 264.608 65.7955 263.953 67.386 263.953H101.388V264.349C100.635 264.645 99.9581 265.098 99.3977 265.671" fill="#001E57"/>
<path fill-rule="evenodd" clip-rule="evenodd" d="M126.193 276.311C126.694 276.311 127.102 275.904 127.105 275.404C127.107 274.899 126.701 274.489 126.198 274.487L67.0797 274.183C65.8669 274.175 64.729 273.699 63.876 272.835C63.0227 271.975 62.5564 270.832 62.5626 269.619C62.5756 267.123 64.61 265.101 67.1028 265.101C67.1108 265.101 67.1183 265.101 67.1263 265.101L126.244 265.407C126.246 265.407 126.247 265.407 126.249 265.407C126.75 265.407 127.158 265 127.161 264.5C127.164 263.994 126.757 263.585 126.253 263.582L67.1357 263.279C67.1248 263.276 67.1136 263.276 67.1028 263.276C63.6082 263.276 60.7565 266.112 60.7384 269.608C60.7298 271.309 61.3835 272.911 62.5795 274.118C63.7754 275.326 65.3703 275.998 67.0704 276.005L126.188 276.311C126.189 276.311 126.191 276.311 126.193 276.311" fill="#001E57"/>
<path fill-rule="evenodd" clip-rule="evenodd" d="M235.748 87.239C234.613 87.239 233.454 87.2613 232.314 87.3012C205.997 88.2082 182.425 99.4424 165.923 118.925C149.426 138.407 141.983 163.809 144.964 190.455C147.875 216.49 160.479 240.785 180.454 258.87C200.385 276.91 225.499 286.848 251.176 286.848C252.319 286.848 253.48 286.824 254.623 286.785C280.934 285.873 304.511 274.644 321.009 255.163C337.505 235.679 344.949 210.277 341.973 183.632C339.057 157.597 326.452 133.301 306.479 115.217C286.546 97.177 261.432 87.239 235.748 87.239ZM248.718 254.888C212.677 254.888 180.603 226.016 176.504 189.362C172.317 151.911 198.9 120.517 235.88 119.239C236.663 119.208 237.438 119.194 238.218 119.194C274.257 119.199 306.328 148.066 310.431 184.725C314.62 222.172 288.036 253.569 251.051 254.847C250.268 254.875 249.493 254.888 248.718 254.888V254.888Z" fill="white"/>
<path fill-rule="evenodd" clip-rule="evenodd" d="M225.925 68.2668C224.554 68.2668 223.188 68.2889 221.816 68.3376C156.694 70.5898 109.883 125.872 117.256 191.814C124.478 256.366 180.951 307.203 244.413 307.203C245.785 307.203 247.151 307.179 248.527 307.133C313.648 304.88 360.46 249.593 353.083 183.651C345.864 119.102 289.387 68.2668 225.925 68.2668ZM242.879 287.54C217.203 287.54 192.089 277.602 172.157 259.562C152.182 241.477 139.578 217.182 136.667 191.146C133.686 164.5 141.13 139.098 157.627 119.616C174.128 100.134 197.7 88.8994 224.017 87.9922C225.157 87.9523 226.316 87.9303 227.454 87.9303C253.136 87.9303 278.249 97.8683 298.182 115.908C318.156 133.992 330.761 158.288 333.677 184.323C336.652 210.969 329.208 236.371 312.713 255.852C296.215 275.337 272.638 286.565 246.326 287.477C245.183 287.516 244.022 287.54 242.879 287.54V287.54Z" fill="#006BFF"/>
<path fill-rule="evenodd" clip-rule="evenodd" d="M314.967 89.8278C314.843 89.8278 314.716 89.7923 314.605 89.7179C293.656 75.6563 269.758 68.2237 245.494 68.2237C244.081 68.2237 242.744 68.2468 241.409 68.2942C234.61 68.5293 227.863 69.3585 221.355 70.759C221.005 70.8344 220.66 70.6115 220.585 70.2618C220.51 69.9119 220.73 69.5672 221.083 69.4917C227.666 68.0755 234.488 67.2367 241.362 66.999C242.715 66.9511 244.066 66.9277 245.494 66.9277C270.017 66.9277 294.164 74.4365 315.328 88.6417C315.626 88.8413 315.704 89.2438 315.504 89.5409C315.38 89.7272 315.175 89.8278 314.967 89.8278ZM185.575 279.002C185.432 279.002 185.29 278.955 185.17 278.859C168.648 265.65 155.361 248.598 146.749 229.546C146.602 229.222 146.746 228.836 147.072 228.691C147.4 228.543 147.782 228.688 147.93 229.012C156.458 247.88 169.616 264.767 185.979 277.846C186.259 278.071 186.306 278.478 186.083 278.758C185.953 278.919 185.767 279.002 185.575 279.002V279.002Z" fill="#72ACFF"/>
<path fill-rule="evenodd" clip-rule="evenodd" d="M239.613 137.166C239.045 137.166 238.464 137.175 237.892 137.193C210.743 138.132 191.166 161.26 194.24 188.748C195.694 201.76 201.995 213.904 211.974 222.937C221.935 231.957 234.488 236.921 247.316 236.921C247.886 236.921 248.467 236.913 249.042 236.89C262.192 236.436 273.972 230.824 282.217 221.086C290.465 211.348 294.185 198.655 292.697 185.34C291.243 172.326 284.942 160.183 274.957 151.15C264.996 142.131 252.448 137.166 239.613 137.166ZM245.198 209.438C233.301 209.438 222.721 199.906 221.362 187.809C219.981 175.446 228.757 165.084 240.963 164.663C241.22 164.654 241.479 164.649 241.733 164.649C253.63 164.649 264.216 174.177 265.569 186.279C266.953 198.637 258.179 209.002 245.968 209.425C245.712 209.433 245.458 209.438 245.198 209.438V209.438Z" fill="white"/>
<path fill-rule="evenodd" clip-rule="evenodd" d="M233.03 116.805C232.224 116.805 231.423 116.819 230.612 116.851C192.328 118.175 164.81 150.674 169.145 189.444C173.388 227.39 206.589 257.278 243.901 257.278C244.705 257.278 245.505 257.263 246.317 257.237C284.603 255.912 312.122 223.408 307.789 184.643C303.54 146.693 270.339 116.81 233.03 116.805ZM242.315 236.921C229.487 236.921 216.934 231.957 206.973 222.937C196.994 213.904 190.692 201.76 189.238 188.747C186.164 161.26 205.742 138.132 232.89 137.193C233.463 137.175 234.044 137.166 234.614 137.166C247.447 137.166 259.995 142.131 269.956 151.15C279.94 160.183 286.241 172.326 287.695 185.339C289.183 198.655 285.464 211.348 277.216 221.086C268.971 230.824 257.19 236.436 244.041 236.889C243.466 236.913 242.885 236.921 242.315 236.921V236.921Z" fill="#006BFF"/>
<path fill-rule="evenodd" clip-rule="evenodd" d="M238.114 169.583C237.917 169.583 237.715 169.586 237.515 169.593C227.997 169.922 221.155 178.001 222.233 187.64C223.29 197.072 231.541 204.505 240.818 204.505C241.02 204.505 241.217 204.5 241.419 204.495C250.937 204.165 257.78 196.083 256.699 186.447C255.646 177.011 247.391 169.583 238.114 169.583" fill="#006BFF"/>
<path fill-rule="evenodd" clip-rule="evenodd" d="M238.516 174.78C238.376 174.78 238.233 174.783 238.093 174.788C231.408 175.018 226.603 180.692 227.36 187.462C228.104 194.087 233.897 199.307 240.413 199.307C240.553 199.307 240.693 199.304 240.835 199.3C247.52 199.069 252.326 193.392 251.566 186.625C250.828 179.997 245.029 174.78 238.516 174.78" fill="#72ACFF"/>
<path fill-rule="evenodd" clip-rule="evenodd" d="M406.783 78.6274L408.514 81.8967L411.679 83.6847L408.514 85.4729L406.783 88.7419L405.052 85.4729L401.887 83.6847L405.052 81.8967L406.783 78.6274" fill="#001E57"/>
<path fill-rule="evenodd" clip-rule="evenodd" d="M38.4002 182.677L40.1314 185.947L43.2967 187.734L40.1314 189.523L38.4002 192.792L36.669 189.523L33.5039 187.734L36.669 185.947L38.4002 182.677" fill="#72ACFF"/>
<path fill-rule="evenodd" clip-rule="evenodd" d="M236.178 2.71094L237.909 5.98023L241.074 7.76819L237.909 9.55615L236.178 12.8254L234.446 9.55615L231.281 7.76819L234.446 5.98023L236.178 2.71094" fill="#72ACFF"/>
<path fill-rule="evenodd" clip-rule="evenodd" d="M476.283 206.519L478.014 209.788L481.179 211.576L478.014 213.365L476.283 216.633L474.552 213.365L471.387 211.576L474.552 209.788L476.283 206.519" fill="#001E57"/>
<path fill-rule="evenodd" clip-rule="evenodd" d="M172.595 19.0482V19.0482C172.595 22.7462 169.597 25.7441 165.899 25.7441C162.201 25.7441 159.203 22.7462 159.203 19.0482C159.203 15.35 162.201 12.3521 165.899 12.3521C169.597 12.3521 172.595 15.35 172.595 19.0482" fill="#72ACFF"/>
<path fill-rule="evenodd" clip-rule="evenodd" d="M188.184 36.0475V36.0475C188.184 38.0117 186.59 39.6039 184.628 39.6039C182.663 39.6039 181.07 38.0117 181.07 36.0475C181.07 34.0832 182.663 32.491 184.628 32.491C186.59 32.491 188.184 34.0832 188.184 36.0475" fill="#72ACFF"/>
<path fill-rule="evenodd" clip-rule="evenodd" d="M167.069 30.5825H177.956V19.6961H167.069V30.5825ZM178.604 31.8785H166.421C166.063 31.8785 165.773 31.5882 165.773 31.2305V19.0481C165.773 18.6902 166.063 18.4001 166.421 18.4001H178.604C178.962 18.4001 179.252 18.6902 179.252 19.0481V31.2305C179.252 31.5882 178.962 31.8785 178.604 31.8785V31.8785Z" fill="#006BFF"/>
<path fill-rule="evenodd" clip-rule="evenodd" d="M93.9113 13.6032C93.3302 13.6032 92.7428 13.7356 92.2143 14C91.8688 14.1729 91.0484 14.6537 90.8955 15.3854C90.7379 16.1415 91.324 16.9751 91.8437 17.5412C92.8698 18.6594 94.1264 19.5072 95.4818 20.0373C96.6417 18.8973 97.3353 17.5609 97.0554 16.0394C96.8379 14.8588 96.0883 14.2597 95.4976 13.9653C95.0132 13.7237 94.4652 13.6032 93.9113 13.6032ZM86.8831 26.0487C86.5477 26.0487 86.2385 25.8302 86.1379 25.4924C86.0155 25.0808 86.2501 24.648 86.6617 24.5256C88.1752 24.0756 91.6156 22.9269 94.1381 21.1451C92.8628 20.5319 91.6868 19.6705 90.6977 18.5925C89.584 17.379 89.1384 16.1929 89.3732 15.0677C89.5816 14.0697 90.3437 13.1965 91.5189 12.6089C92.9795 11.8782 94.7703 11.8647 96.1917 12.5736C97.4748 13.2134 98.3247 14.3442 98.5847 15.7579C98.9229 17.5951 98.2946 19.1775 97.1552 20.5192C98.1707 20.7115 99.2099 20.7294 100.224 20.556C102.782 20.119 104.775 18.5127 105.835 16.0332C106.004 15.6382 106.461 15.4552 106.856 15.6242C107.251 15.7929 107.434 16.2499 107.265 16.6449C105.99 19.6265 103.583 21.5601 100.486 22.0889C98.9429 22.3527 97.353 22.241 95.8408 21.7988C93.1894 23.9829 89.3162 25.3589 87.105 26.0163C87.0311 26.0383 86.9564 26.0487 86.8831 26.0487V26.0487Z" fill="#240448"/>
<path fill-rule="evenodd" clip-rule="evenodd" d="M478.213 145.702C477.062 146.244 476.272 147.245 475.139 147.818C469.266 150.792 469.603 140.058 469.626 136.955C469.678 130.424 469.395 122.033 461.274 120.578C456.096 119.65 451.135 123.118 449.872 128.229C448.291 134.628 450.831 152.752 438.908 150.277C435.735 149.619 433.372 147.006 431.438 144.404C428.988 141.11 426.596 137.433 422.262 136.651C415.694 135.466 409.061 139.259 404.564 143.748C401.57 146.735 399.222 150.57 397.719 154.52C397.716 154.524 397.693 154.597 397.688 154.597C401.918 154.592 406.148 154.588 410.378 154.583C415.984 154.576 421.591 154.566 427.197 154.557C431.98 154.55 486.487 154.477 486.487 154.513C486.155 150.479 483.918 143.018 478.213 145.702" fill="#CFE4FF"/>
<path fill-rule="evenodd" clip-rule="evenodd" d="M432.142 52.047H275.575C275.518 50.8793 275.581 49.619 275.749 48.3067V48.3046C276.247 44.4133 277.69 40.0686 279.808 36.3441C283.115 30.5116 288.079 26.1988 293.649 27.5313C295.357 27.937 297.12 28.875 298.909 30.4598C301.591 32.8361 303.753 35.7534 306.41 38.159C309.067 40.5647 312.467 42.4967 316.039 42.2352C320.518 41.9107 323.735 37.9066 324.403 33.6884C326.016 23.5407 325.915 3.49337 338.602 0.715782C338.841 0.663942 339.082 0.616508 339.315 0.578146C350.155 -1.27721 357.633 9.31448 360.52 18.8038C360.85 19.8815 361.117 20.9456 361.324 21.9759C361.915 24.4559 362.14 27.1614 362.236 29.903C362.254 30.0767 362.275 30.248 362.296 30.4193C362.381 31.1542 362.477 31.8825 362.602 32.5995C362.905 34.3669 363.353 36.0533 364.105 37.5414C364.39 38.1139 364.795 38.7047 365.417 38.8558C367.148 39.2752 368.6 37.2684 369.592 35.6702C369.872 35.2215 370.116 34.8042 370.318 34.482C373.462 29.4904 382.14 26.1627 386.059 32.1484C388.796 36.333 386.518 44.4853 392.218 46.5685C398.755 48.9583 400.401 40.3641 400.981 35.9564C401.697 30.5409 401.578 24.9925 403.172 19.7214C403.848 18.1434 404.976 16.3396 406.78 16.1141C408.584 16.1141 410.162 17.4668 410.841 19.0474C412.84 23.9036 413.389 29.1433 414.12 34.2993C414.716 38.4815 415.528 47.7093 421.09 48.2279C424.042 48.5006 426.715 43.2295 429.452 45.5652C431.189 47.0465 431.095 50.1442 432.142 52.047" fill="#CFE4FF"/>
<path fill-rule="evenodd" clip-rule="evenodd" d="M47.7305 79.3592H116.791C116.327 73.5754 112.544 63.711 111.839 62.5742C111.553 62.1144 111.303 61.6867 111.095 61.3565C107.872 56.2404 98.9779 52.8298 94.9619 58.9648C92.1566 63.2535 94.4904 71.6091 88.6491 73.7441C81.9501 76.1936 80.2634 67.3852 79.6673 62.8676C78.9348 57.3173 79.0571 51.6305 77.4211 46.228C76.728 44.6106 75.5724 42.762 73.7241 42.5308C71.8755 42.5308 70.2578 43.9172 69.5624 45.5372C67.5129 50.5144 66.9489 55.8845 66.2003 61.1693C65.5901 65.4557 64.7584 74.9134 59.0578 75.445C56.0308 75.7244 53.2924 70.3219 50.4873 72.7159C48.7082 74.234 48.8028 77.409 47.7305 79.3592" fill="#CFE4FF"/>
<path fill-rule="evenodd" clip-rule="evenodd" d="M446.811 119.042C446.99 119.077 447.169 119.1 447.348 119.11C448.307 119.167 449.165 118.85 449.906 118.168C450.194 117.902 450.562 117.472 450.673 116.93C450.8 116.302 450.505 115.586 449.973 115.228C449.442 114.87 448.667 114.868 448.133 115.222C447.584 115.587 447.21 116.296 446.993 117.391C446.881 117.955 446.822 118.508 446.811 119.042ZM453.548 126.574C450.282 126.574 447.112 125.127 445.982 121.995C445.761 121.379 445.616 120.718 445.554 120.025C444.193 119.519 442.83 118.539 441.697 117.219C440.461 115.778 439.67 114.066 439.53 112.521C439.497 112.165 439.758 111.85 440.116 111.818C440.471 111.784 440.787 112.047 440.818 112.403C440.935 113.667 441.63 115.152 442.68 116.376C443.387 117.2 444.406 118.078 445.533 118.612C445.562 118.13 445.624 117.637 445.723 117.14C446.01 115.688 446.565 114.708 447.418 114.142C448.387 113.501 449.735 113.506 450.697 114.154C451.658 114.802 452.171 116.049 451.941 117.187C451.801 117.885 451.399 118.554 450.782 119.122C449.774 120.05 448.589 120.48 447.273 120.403C447.148 120.396 447.024 120.384 446.899 120.367C446.964 120.783 447.065 121.18 447.2 121.556C448.584 125.396 453.475 125.781 456.505 124.827C456.609 124.795 456.713 124.76 456.814 124.724C457.677 124.415 458.441 123.997 459.087 123.479C459.367 123.256 459.774 123.301 459.997 123.58C460.22 123.859 460.176 124.267 459.896 124.49C459.139 125.097 458.247 125.586 457.249 125.943C457.133 125.985 457.013 126.025 456.894 126.062C455.821 126.4 454.678 126.574 453.548 126.574V126.574Z" fill="#001E57"/>
<path fill-rule="evenodd" clip-rule="evenodd" d="M297.866 307.851H0.659719C0.301764 307.851 0.0117188 307.56 0.0117188 307.203C0.0117188 306.845 0.301764 306.555 0.659719 306.555H297.866C298.224 306.555 298.514 306.845 298.514 307.203C298.514 307.56 298.224 307.851 297.866 307.851" fill="#240448"/>
<path fill-rule="evenodd" clip-rule="evenodd" d="M506.153 307.851H304.996C304.635 307.851 304.348 307.56 304.348 307.203C304.348 306.845 304.635 306.555 304.996 306.555H506.153C506.511 306.555 506.801 306.845 506.801 307.203C506.801 307.56 506.511 307.851 506.153 307.851" fill="#240448"/>
<path fill-rule="evenodd" clip-rule="evenodd" d="M240.004 190.842C239.05 190.842 238.104 190.423 237.466 189.618C236.352 188.217 236.585 186.178 237.987 185.065L361.859 86.6439C363.261 85.5309 365.298 85.7636 366.413 87.1651C367.525 88.5661 367.292 90.6044 365.889 91.7174L242.018 190.139C241.422 190.612 240.709 190.842 240.004 190.842" fill="#001E57"/>
<path fill-rule="evenodd" clip-rule="evenodd" d="M348.719 127.941C348.678 127.941 348.636 127.94 348.595 127.938L321.026 126.895C320.155 126.862 319.336 126.48 318.751 125.836C318.165 125.191 317.864 124.338 317.916 123.469L319.513 95.9667C319.616 94.1803 321.146 92.8169 322.937 92.92C324.722 93.024 326.086 94.5561 325.982 96.3425L324.575 120.544L348.841 121.463C350.627 121.531 352.024 123.035 351.954 124.823C351.889 126.569 350.453 127.941 348.719 127.941" fill="#72ACFF"/>
<path fill-rule="evenodd" clip-rule="evenodd" d="M364.079 113.356C364.037 113.356 363.996 113.355 363.954 113.353L336.386 112.31C335.517 112.277 334.696 111.895 334.11 111.251C333.524 110.606 333.223 109.753 333.275 108.884L334.872 81.3817C334.976 79.5953 336.507 78.2322 338.296 78.3351C340.082 78.4387 341.445 79.9711 341.342 81.7575L339.934 105.959L364.2 106.878C365.989 106.946 367.383 108.45 367.316 110.238C367.249 111.984 365.813 113.356 364.079 113.356" fill="#72ACFF"/>
<path fill-rule="evenodd" clip-rule="evenodd" d="M102.391 163.503C103.426 165.952 106.25 167.099 108.7 166.064C111.149 165.029 112.295 162.204 111.26 159.755C110.225 157.306 102.878 153.676 102.878 153.676C100.826 155.367 101.356 161.054 102.391 163.503" fill="#72ACFF"/>
<path fill-rule="evenodd" clip-rule="evenodd" d="M72.9245 173.531C73.6458 173.531 74.3781 173.371 75.0699 173.033L93.7538 163.916C96.1861 162.729 97.1955 159.795 96.0086 157.363C94.8217 154.93 91.8873 153.921 89.4557 155.108L70.7718 164.226C68.3395 165.413 67.3302 168.347 68.5171 170.779C69.3662 172.519 71.1103 173.531 72.9245 173.531" fill="#FC346C"/>
<path fill-rule="evenodd" clip-rule="evenodd" d="M93.7534 163.916L92.7617 164.401L75.0695 173.034C74.3774 173.372 73.6462 173.531 72.9249 173.531C71.1097 173.531 69.3661 172.519 68.5177 170.778C67.3298 168.347 68.3391 165.413 70.7717 164.226L89.4559 155.108C91.8885 153.921 94.8213 154.931 96.009 157.363C97.1953 159.796 96.186 162.729 93.7534 163.916" fill="#FFBEAA"/>
<path fill-rule="evenodd" clip-rule="evenodd" d="M92.7626 164.401L85.2427 168.07C83.0483 161.852 88.4057 157.61 88.4057 157.61L92.7626 164.401" fill="#240448"/>
<path fill-rule="evenodd" clip-rule="evenodd" d="M72.4503 256.915C73.2336 256.915 74.0728 256.817 74.9585 256.625C75.3082 256.547 75.5298 256.203 75.4533 255.853C75.3771 255.503 75.0337 255.282 74.6822 255.358C73.4912 255.617 72.4085 255.684 71.4653 255.555C70.5594 255.428 69.8054 254.539 69.7844 253.567C69.7725 253.014 70.0801 252.465 70.5677 252.167C70.8064 252.022 71.2898 251.825 71.843 252.125C73.112 252.817 74.1732 254.085 74.9559 255.114C75.1729 255.396 75.5798 255.454 75.8639 255.236C76.1488 255.018 76.2037 254.614 75.987 254.329C75.1262 253.198 73.9479 251.796 72.463 250.987C71.6423 250.539 70.7058 250.568 69.8938 251.06C69.0187 251.594 68.4671 252.589 68.4889 253.595C68.5234 255.202 69.7528 256.625 71.288 256.838C71.6597 256.889 72.0475 256.915 72.4503 256.915" fill="#240448"/>
<path fill-rule="evenodd" clip-rule="evenodd" d="M108.869 250.433H116.914L113.159 204.713L97.1133 199.038L108.869 250.433" fill="#FC346C"/>
<path fill-rule="evenodd" clip-rule="evenodd" d="M109.988 184.218H84.6641L88.9238 168.216L87.9217 164.852C87.0223 161.834 87.4165 158.554 89.1021 155.894C89.1601 155.803 89.219 155.712 89.2791 155.622C91.1734 152.802 94.0888 151.016 97.326 151.016C99.9719 151.016 102.402 152.208 104.234 154.183C104.611 154.588 104.963 155.027 105.285 155.495C106.536 157.306 107.36 159.557 107.568 162.044L109.988 184.218" fill="#72ACFF"/>
<path fill-rule="evenodd" clip-rule="evenodd" d="M80.3711 188.124C80.7029 183.794 81.9566 179.687 85.828 176.211C91.991 179.033 97.7217 177.736 109.798 175.688L111.743 189.777L80.3711 188.124" fill="#001E57"/>
<path fill-rule="evenodd" clip-rule="evenodd" d="M96.4886 178.067C100.724 178.067 105.55 177.611 110.934 176.697C111.492 176.603 111.867 176.074 111.772 175.517C111.678 174.959 111.146 174.584 110.592 174.678C100.769 176.344 92.9109 176.462 87.236 175.028C86.6865 174.889 86.131 175.221 85.9923 175.77C85.8539 176.318 86.1862 176.875 86.7344 177.013C89.5154 177.716 92.7751 178.067 96.4886 178.067" fill="#006BFF"/>
<path fill-rule="evenodd" clip-rule="evenodd" d="M87.1734 246.923H74.8555L81.3381 196.008C80.8824 193.867 79.4428 188.619 79.6955 187.153L99.7716 180.896L87.1734 246.923" fill="#001E57"/>
<path fill-rule="evenodd" clip-rule="evenodd" d="M105.342 247.936H119.081L111.422 187.342L91.4258 180.896L92.6689 190.03L92.327 187.519L105.342 247.936" fill="#001E57"/>
<path fill-rule="evenodd" clip-rule="evenodd" d="M85.8199 188.23C84.5215 188.471 83.1151 187.955 82.1408 186.729L69.0341 172.905C67.0989 170.733 67.2905 167.405 69.4615 165.47C71.6326 163.534 74.9612 163.726 76.8964 165.897L87.8634 180.976C89.345 182.84 89.2649 185.64 87.6848 187.228C87.1436 187.772 86.4964 188.104 85.8199 188.23" fill="#FFBEAA"/>
<path fill-rule="evenodd" clip-rule="evenodd" d="M80.0741 194.333C80.5554 194.333 81.0362 194.146 81.3983 193.774L87.6049 187.398C88.3169 186.666 88.3008 185.497 87.5696 184.785C86.8384 184.073 85.6684 184.089 84.9569 184.82L78.7501 191.197C78.0383 191.928 78.0544 193.098 78.7856 193.81C79.1446 194.159 79.6099 194.333 80.0741 194.333" fill="#FFBEAA"/>
<path fill-rule="evenodd" clip-rule="evenodd" d="M79.5962 190.684C80.2346 190.684 80.8554 190.353 81.1978 189.76L84.3491 184.305C84.8598 183.422 84.5573 182.292 83.6737 181.781C82.7901 181.271 81.6599 181.573 81.1496 182.457L77.9982 187.911C77.4876 188.795 77.7901 189.925 78.6734 190.436C78.9648 190.604 79.2826 190.684 79.5962 190.684" fill="#FFBEAA"/>
<path fill-rule="evenodd" clip-rule="evenodd" d="M121.205 256.915C121.607 256.915 121.995 256.889 122.367 256.838C123.902 256.625 125.131 255.202 125.166 253.595C125.187 252.589 124.636 251.594 123.761 251.06C122.949 250.568 122.013 250.539 121.192 250.987C119.708 251.796 118.529 253.198 117.668 254.329C117.451 254.614 117.506 255.018 117.79 255.236C118.075 255.454 118.482 255.399 118.698 255.114C119.482 254.085 120.543 252.817 121.812 252.125C122.365 251.825 122.848 252.022 123.087 252.167C123.575 252.465 123.882 253.014 123.87 253.567C123.849 254.539 123.095 255.428 122.19 255.555C121.246 255.684 120.163 255.617 118.972 255.358C118.621 255.282 118.277 255.503 118.201 255.853C118.125 256.203 118.346 256.547 118.696 256.625C119.581 256.817 120.422 256.915 121.205 256.915" fill="#240448"/>
<path fill-rule="evenodd" clip-rule="evenodd" d="M128.064 262.047L128.038 263.525H113.751L112.371 260.736L112.014 260.013C111.738 259.455 110.926 259.499 110.714 260.088L109.478 263.525H106.004L107.505 247.937L117.725 247.968L120.87 254.738L127.075 259.896C127.359 260.129 127.589 260.417 127.754 260.736C127.963 261.138 128.071 261.586 128.064 262.047" fill="#72ACFF"/>
<path fill-rule="evenodd" clip-rule="evenodd" d="M65.2542 262.047L65.2804 263.525H79.5675L80.947 260.736L81.3042 260.013C81.5805 259.455 82.3928 259.499 82.6038 260.088L83.8402 263.525H87.3145L85.8135 247.937L75.5932 247.968L72.4481 254.738L66.2431 259.896C65.9593 260.129 65.7296 260.417 65.5643 260.736C65.3551 261.138 65.247 261.586 65.2542 262.047" fill="#72ACFF"/>
<path fill-rule="evenodd" clip-rule="evenodd" d="M75.1125 249.717H86.3761C87.3509 249.717 88.1412 248.927 88.1412 247.952C88.1412 246.978 87.3509 246.187 86.3761 246.187H75.1125C74.1377 246.187 73.3477 246.978 73.3477 247.952C73.3477 248.927 74.1377 249.717 75.1125 249.717" fill="#006BFF"/>
<path fill-rule="evenodd" clip-rule="evenodd" d="M118.624 249.702C119.599 249.702 120.389 248.911 120.389 247.937C120.389 246.962 119.599 246.171 118.624 246.171H106.508C105.533 246.171 104.742 246.962 104.742 247.937C104.742 248.911 105.532 249.702 106.507 249.702H118.624" fill="#006BFF"/>
<path fill-rule="evenodd" clip-rule="evenodd" d="M98.2698 191.49C99.3131 191.49 100.301 191.11 101.082 190.401C102.011 189.558 102.555 188.31 102.575 186.979L102.587 186.218C102.592 185.86 102.307 185.566 101.949 185.56C101.945 185.56 101.942 185.56 101.939 185.56C101.586 185.56 101.297 185.844 101.291 186.198L101.279 186.959C101.265 187.948 100.885 188.829 100.211 189.441C99.6101 189.987 98.833 190.252 98.0204 190.184C96.2047 190.035 94.7517 188.31 94.781 186.339L94.8333 182.852L95.8279 182.933C96.1858 182.963 96.4974 182.697 96.5264 182.34C96.556 181.984 96.2905 181.671 95.9336 181.642L94.2486 181.503C94.0715 181.489 93.8929 181.549 93.7602 181.669C93.6275 181.79 93.5505 181.96 93.5477 182.139L93.485 186.32C93.4456 188.959 95.4326 191.272 97.9147 191.476C98.0337 191.486 98.1521 191.49 98.2698 191.49" fill="#006BFF"/>
<path fill-rule="evenodd" clip-rule="evenodd" d="M100.427 141.586L100.399 147.998L100.397 148.466L100.396 148.473L100.392 149.493L100.381 151.721C100.373 153.617 98.8308 155.145 96.9369 155.136C95.0429 155.127 93.5157 153.584 93.5235 151.692L93.5642 142.772L93.5704 141.554C93.5704 141.254 93.6119 140.962 93.6857 140.687C93.9509 139.684 94.659 138.864 95.5864 138.443C95.8944 138.304 96.2259 138.21 96.573 138.167C96.7184 138.149 96.8666 138.14 97.0149 138.141C98.9076 138.15 100.436 139.69 100.427 141.586" fill="#FFBEAA"/>
<path fill-rule="evenodd" clip-rule="evenodd" d="M100.425 141.586L100.397 147.998L100.394 148.466L100.394 148.473L100.39 149.493C97.9381 149.237 95.7025 147.676 94.702 145.235L94.392 144.478C94.2271 144.075 94.1115 143.664 94.0444 143.252C93.7567 141.484 94.3472 139.694 95.5841 138.443C95.892 138.304 96.2235 138.21 96.5706 138.167C96.716 138.149 96.8642 138.14 97.0125 138.141C98.9052 138.15 100.433 139.69 100.425 141.586" fill="#240448"/>
<path fill-rule="evenodd" clip-rule="evenodd" d="M102.763 146.264V146.264C104.843 145.2 105.666 142.651 104.602 140.571L103.004 137.448C101.602 134.707 98.2427 133.622 95.5016 135.024C92.7606 136.427 91.6756 139.786 93.0778 142.527L93.4508 143.256C95.1916 146.658 99.3606 148.005 102.763 146.264" fill="#FFBEAA"/>
<path fill-rule="evenodd" clip-rule="evenodd" d="M102.789 137.542C103.713 138.82 104.643 140 105.604 140.58C105.863 140.736 105.991 141.06 105.858 141.333C105.775 141.503 105.611 141.635 105.392 141.659L102.976 141.924L102.789 137.542" fill="#FFBEAA"/>
<path fill-rule="evenodd" clip-rule="evenodd" d="M97.1054 142.825C97.1054 142.825 94.9805 139.291 97.4693 138.956C103.37 138.162 103.537 135.468 103.539 135.467C103.563 135.447 102.753 134.641 102.706 134.598C102.019 133.967 101.246 133.418 100.401 133.018C97.2552 131.529 93.3794 132.91 91.3377 135.586C89.0731 138.554 89.8455 141.218 91.1288 142.976C92.2047 144.45 94.2783 144.768 95.7822 143.734L97.1054 142.825" fill="#006BFF"/>
<path fill-rule="evenodd" clip-rule="evenodd" d="M91.354 133.346C91.4922 132.672 91.7216 132.015 91.7802 131.33C91.8846 130.107 91.4041 128.848 90.5122 128.005C89.6203 127.163 88.3354 126.756 87.1208 126.93C85.3157 127.188 83.9173 128.586 82.6607 129.908C81.4692 128.615 79.9016 127.632 78.1719 127.316C75.582 126.843 71.5097 128.298 72.0942 131.576C72.2927 132.69 73.0219 133.658 73.9231 134.342C74.2038 134.555 74.5162 134.761 74.6618 135.082C74.8614 135.521 74.6818 136.051 74.379 136.426C74.0763 136.802 73.6652 137.072 73.3098 137.398C72.3049 138.321 71.7697 139.731 71.9083 141.089C72.0473 142.446 72.8573 143.718 74.0283 144.419C74.6468 144.788 75.3669 145.008 75.8562 145.556C77.3191 147.194 76.9775 149.753 78.7028 151.304C79.8736 152.356 81.6398 152.571 83.1475 152.118C84.6553 151.664 85.9282 150.627 86.9596 149.437C88.077 148.148 88.9876 146.542 88.9015 144.838C88.8268 143.366 87.9536 141.958 86.6675 141.236C85.9679 140.844 85.0542 140.517 84.9085 139.728C84.781 139.038 85.4005 138.387 86.0843 138.23C86.7678 138.073 87.4782 138.279 88.1418 138.506C90.0352 139.153 91.8823 139.994 93.8595 140.303C93.7081 140.371 93.5567 140.437 93.4054 140.505C93.6081 141.021 94.4232 141.03 94.7885 140.612C95.1537 140.194 95.149 139.564 94.9966 139.031C94.7949 138.325 94.3673 137.686 93.7921 137.231C93.0487 136.643 92.0459 136.327 91.5573 135.515C91.1884 134.902 91.2019 134.131 91.3377 133.428C91.3429 133.401 91.3483 133.373 91.354 133.346" fill="#006BFF"/>
<path fill-rule="evenodd" clip-rule="evenodd" d="M93.3449 142.11C93.6974 143.52 95.1256 144.376 96.5348 144.023C97.9439 143.671 98.8005 142.243 98.448 140.834C98.0955 139.424 96.6673 138.568 95.2583 138.921C93.849 139.273 92.9924 140.701 93.3449 142.11" fill="#FFBEAA"/>
<path fill-rule="evenodd" clip-rule="evenodd" d="M89.6082 139.826C89.8215 139.808 90.0216 139.685 90.1284 139.481L92.1976 135.535C92.3638 135.218 92.2414 134.826 91.9244 134.66C91.6079 134.494 91.216 134.616 91.0496 134.933L88.9804 138.879C88.8143 139.196 88.9366 139.588 89.2536 139.754C89.3669 139.814 89.4895 139.836 89.6082 139.826" fill="white"/>
<path fill-rule="evenodd" clip-rule="evenodd" d="M96.7965 210.602C96.8331 210.602 96.8699 210.599 96.9072 210.591C97.2597 210.532 97.4966 210.197 97.436 209.845L94.5962 193.333C94.5713 193.19 94.499 193.058 94.3904 192.961L91.5379 190.401C91.2717 190.162 90.8616 190.185 90.6229 190.451C90.3837 190.717 90.4059 191.127 90.6721 191.366L93.3572 193.775L96.1586 210.062C96.2128 210.379 96.487 210.602 96.7965 210.602" fill="white"/>
<path fill-rule="evenodd" clip-rule="evenodd" d="M89.9541 179.645C90.0207 179.645 90.0883 179.634 90.1549 179.612C90.4955 179.502 90.6809 179.136 90.5702 178.795C90.1951 177.647 90.3657 176.731 91.1057 175.91C91.3454 175.644 91.3242 175.235 91.0585 174.995C90.7923 174.755 90.3825 174.776 90.1433 175.042C89.0901 176.21 88.819 177.608 89.3379 179.198C89.4274 179.471 89.6811 179.645 89.9541 179.645" fill="#001E57"/>
<path fill-rule="evenodd" clip-rule="evenodd" d="M102.245 179.776C102.456 179.776 102.662 179.673 102.787 179.484C103.652 178.17 103.708 176.747 102.955 175.254C102.794 174.935 102.404 174.806 102.084 174.967C101.765 175.129 101.637 175.519 101.798 175.838C102.342 176.916 102.312 177.848 101.705 178.771C101.508 179.07 101.59 179.472 101.889 179.669C101.999 179.741 102.123 179.776 102.245 179.776" fill="#001E57"/>
<path fill-rule="evenodd" clip-rule="evenodd" d="M92.3398 155.136H101.46V150.136H92.3398V155.136Z" fill="#72ACFF"/>
<path fill-rule="evenodd" clip-rule="evenodd" d="M131.794 171.467C131.912 171.467 132.031 171.435 132.138 171.367C133.045 170.799 133.578 169.783 133.636 168.507C133.691 167.32 133.323 166.031 132.6 164.879C131.035 162.383 128.381 161.324 126.558 162.468C126.255 162.658 126.163 163.058 126.353 163.361C126.543 163.664 126.943 163.756 127.246 163.566C128.413 162.834 130.362 163.75 131.502 165.567C132.086 166.498 132.384 167.521 132.341 168.448C132.303 169.286 131.986 169.933 131.45 170.27C131.146 170.459 131.055 170.859 131.245 171.163C131.368 171.359 131.579 171.467 131.794 171.467" fill="#240448"/>
<path fill-rule="evenodd" clip-rule="evenodd" d="M111.749 181.341C112.479 181.341 113.221 181.177 113.92 180.831C116.345 179.63 117.337 176.69 116.137 174.265L106.949 155.712C105.748 153.287 102.808 152.294 100.383 153.495C97.9578 154.696 96.9653 157.636 98.1662 160.061L107.354 178.614C108.209 180.34 109.945 181.341 111.749 181.341" fill="#FFBEAA"/>
<path fill-rule="evenodd" clip-rule="evenodd" d="M136.764 165.138C136.765 166.459 136 167.748 134.617 168.481L115.193 181.416C112.705 182.922 109.467 182.126 107.961 179.638C106.455 177.15 107.251 173.912 109.739 172.406L130.006 161.804C132.11 160.688 134.847 161.278 136.121 163.122C136.557 163.754 136.764 164.451 136.764 165.138" fill="#FFBEAA"/>
<path fill-rule="evenodd" clip-rule="evenodd" d="M129.786 166.214C130.235 166.214 130.685 166.052 131.041 165.722L138.515 158.799C139.263 158.106 139.308 156.937 138.615 156.188C137.922 155.439 136.752 155.394 136.004 156.088L128.53 163.011C127.781 163.704 127.736 164.874 128.43 165.622C128.794 166.015 129.289 166.214 129.786 166.214" fill="#FFBEAA"/>
<path fill-rule="evenodd" clip-rule="evenodd" d="M131.775 166.464C132.131 166.464 132.492 166.361 132.809 166.146L137.799 162.77C138.644 162.198 138.866 161.05 138.294 160.204C137.723 159.36 136.574 159.138 135.728 159.71L130.738 163.086C129.893 163.658 129.671 164.806 130.243 165.651C130.6 166.179 131.183 166.464 131.775 166.464" fill="#FFBEAA"/>
<path fill-rule="evenodd" clip-rule="evenodd" d="M134.275 168.399C134.666 168.399 135.059 168.276 135.393 168.021L138.845 165.392C139.656 164.774 139.813 163.615 139.195 162.803C138.576 161.99 137.417 161.834 136.605 162.453L133.154 165.082C132.342 165.7 132.185 166.859 132.804 167.671C133.168 168.148 133.718 168.399 134.275 168.399" fill="#FFBEAA"/>
<path fill-rule="evenodd" clip-rule="evenodd" d="M129.045 165.765C129.99 165.765 130.795 165.044 130.883 164.085L131.188 160.752C131.28 159.736 130.532 158.837 129.516 158.744C128.495 158.651 127.6 159.4 127.508 160.416L127.203 163.749C127.11 164.765 127.859 165.664 128.875 165.757C128.932 165.762 128.989 165.765 129.045 165.765" fill="#FFBEAA"/>
<path fill-rule="evenodd" clip-rule="evenodd" d="M130.501 171.827C131.083 171.827 131.641 171.679 132.138 171.367C132.442 171.177 132.533 170.778 132.343 170.474C132.153 170.171 131.753 170.08 131.45 170.269C130.283 171.001 128.333 170.085 127.194 168.268C126.61 167.337 126.312 166.314 126.354 165.387C126.393 164.549 126.71 163.902 127.247 163.566C127.55 163.376 127.641 162.976 127.451 162.672C127.261 162.369 126.861 162.278 126.558 162.468C125.651 163.037 125.119 164.053 125.06 165.328C125.005 166.516 125.373 167.804 126.096 168.957C127.234 170.772 128.949 171.827 130.501 171.827" fill="#240448"/>
<path fill-rule="evenodd" clip-rule="evenodd" d="M127.256 167.477C126.99 168.302 126.108 168.755 125.283 168.49C124.459 168.225 124.006 167.342 124.271 166.518C124.536 165.694 125.419 165.24 126.243 165.505C127.067 165.77 127.521 166.653 127.256 167.477" fill="white"/>
<path fill-rule="evenodd" clip-rule="evenodd" d="M128.697 169.588C128.432 170.412 127.549 170.865 126.725 170.6C125.901 170.335 125.447 169.452 125.712 168.628C125.977 167.804 126.86 167.351 127.684 167.615C128.509 167.881 128.962 168.763 128.697 169.588" fill="white"/>
<path fill-rule="evenodd" clip-rule="evenodd" d="M111.574 171.82C111.678 171.82 111.783 171.795 111.881 171.742L114.287 170.446C114.602 170.276 114.719 169.883 114.55 169.568C114.38 169.253 113.987 169.135 113.672 169.305L111.267 170.601C110.951 170.771 110.834 171.164 111.003 171.479C111.12 171.696 111.344 171.82 111.574 171.82" fill="#240448"/>
<path fill-rule="evenodd" clip-rule="evenodd" d="M178.191 92.7137C181.75 77.6425 172.306 62.54 157.137 59.1807C142.262 55.8871 127.37 65.3492 124.015 80.2104C122.813 85.5359 123.229 90.856 124.942 95.652C128.143 104.61 132.429 107.379 129.752 122.112L129.459 122.043C127.673 121.621 125.884 122.727 125.462 124.512C125.057 126.231 126.068 127.95 127.738 128.452C127.229 128.893 126.847 129.49 126.681 130.195C126.266 131.951 127.331 133.708 129.066 134.166C128.812 134.514 128.621 134.917 128.516 135.362H128.516C128.094 137.148 129.2 138.937 130.985 139.359L133.187 139.878C133.097 140.076 133.024 140.285 132.972 140.504C132.551 142.29 133.656 144.079 135.442 144.5L138.466 145.214C140.251 145.636 142.041 144.53 142.462 142.745C142.514 142.525 142.542 142.306 142.549 142.088L144.751 142.608C146.537 143.03 148.326 141.924 148.747 140.139C148.853 139.693 148.862 139.248 148.791 138.823C150.547 139.189 152.285 138.094 152.7 136.338C152.867 135.633 152.792 134.928 152.534 134.306C154.252 134.604 155.925 133.519 156.331 131.8C156.723 130.141 155.794 128.479 154.228 127.915C158.485 113.042 163.751 112.906 170.639 106.141C174.253 102.59 176.941 98.0094 178.191 92.7137" fill="#72ACFF"/>
<path fill-rule="evenodd" clip-rule="evenodd" d="M137.067 145.684C136.939 145.684 136.812 145.677 136.683 145.664L133.591 145.355C132.586 145.254 131.681 144.769 131.041 143.987C130.402 143.205 130.105 142.222 130.206 141.217C130.212 141.151 130.221 141.084 130.231 141.019L128.496 140.845C126.422 140.637 124.903 138.781 125.111 136.707C125.141 136.404 125.207 136.11 125.306 135.828C123.579 135.328 122.426 133.675 122.611 131.826C122.666 131.273 122.84 130.748 123.12 130.278C121.529 129.698 120.481 128.095 120.655 126.353C120.856 124.34 122.607 122.85 124.61 122.954C125.053 112.101 122.602 108.243 119.511 103.377C118.494 101.775 117.442 100.119 116.387 98.0686C113.941 93.3152 112.903 87.9774 113.385 82.6325C113.915 76.744 116.247 71.2565 120.127 66.763C120.292 66.5712 120.583 66.5496 120.774 66.7153C120.966 66.8812 120.987 67.1709 120.822 67.3628C117.068 71.7101 114.812 77.0187 114.299 82.7149C113.833 87.8862 114.837 93.0502 117.203 97.6487C118.239 99.6617 119.28 101.3 120.286 102.885C123.509 107.959 126.055 111.967 125.506 123.476C125.5 123.602 125.443 123.72 125.347 123.802C125.252 123.884 125.127 123.924 125.002 123.911L124.702 123.881C123.943 123.806 123.196 124.03 122.604 124.514C122.013 124.998 121.644 125.684 121.569 126.445C121.418 127.946 122.468 129.311 123.959 129.552C124.124 129.578 124.262 129.693 124.318 129.85C124.375 130.008 124.341 130.184 124.23 130.309C123.828 130.763 123.585 131.319 123.525 131.917C123.369 133.471 124.462 134.842 126.013 135.039C126.163 135.058 126.295 135.15 126.364 135.285C126.433 135.42 126.431 135.581 126.358 135.714C126.175 136.05 126.063 136.414 126.024 136.798C125.948 137.559 126.173 138.304 126.657 138.896C127.141 139.487 127.827 139.856 128.588 139.931L130.839 140.157C130.976 140.171 131.1 140.245 131.176 140.36C131.252 140.474 131.272 140.617 131.232 140.748C131.176 140.931 131.138 141.119 131.119 141.308C131.043 142.069 131.268 142.814 131.752 143.406C132.236 143.998 132.922 144.366 133.682 144.442L136.774 144.751C137.536 144.828 138.28 144.603 138.872 144.118C139.464 143.634 139.832 142.949 139.908 142.188C139.927 141.999 139.927 141.807 139.908 141.617C139.894 141.48 139.943 141.344 140.04 141.247C140.138 141.149 140.272 141.101 140.411 141.115L142.662 141.34C144.229 141.499 145.638 140.348 145.796 138.776C145.834 138.393 145.796 138.013 145.683 137.648C145.639 137.503 145.668 137.345 145.763 137.226C145.857 137.108 146.002 137.045 146.155 137.055C147.72 137.173 149.057 136.042 149.213 134.488C149.273 133.89 149.144 133.296 148.84 132.772C148.757 132.627 148.758 132.448 148.844 132.305C148.931 132.161 149.089 132.076 149.255 132.083C150.755 132.142 152.064 131.013 152.215 129.512C152.359 128.064 151.398 126.74 149.977 126.431C149.741 126.38 149.585 126.155 149.62 125.916C151.323 114.392 154.769 110.872 158.758 106.797C160.158 105.367 161.605 103.888 163.113 101.955C166.277 97.8968 168.221 93.0321 168.736 87.8865C169.471 80.5477 167.281 73.3801 162.571 67.7039C157.862 62.0287 151.219 58.5546 143.865 57.9219C138.338 57.4468 132.862 58.6575 128.028 61.4242C127.807 61.5505 127.527 61.474 127.401 61.2542C127.276 61.0341 127.352 60.7537 127.572 60.6277C132.568 57.7677 138.23 56.5158 143.944 57.0075C151.544 57.6614 158.411 61.2519 163.278 67.1178C168.146 72.9845 170.409 80.393 169.65 87.9777C169.117 93.296 167.107 98.3245 163.837 102.519C162.297 104.493 160.831 105.991 159.414 107.439C155.425 111.514 152.264 114.743 150.589 125.65C152.233 126.209 153.305 127.836 153.128 129.603C152.954 131.345 151.608 132.708 149.934 132.961C150.116 133.478 150.182 134.027 150.126 134.579C149.941 136.428 148.484 137.82 146.692 137.968C146.733 138.264 146.739 138.565 146.709 138.868C146.501 140.942 144.649 142.459 142.57 142.253L140.836 142.08C140.833 142.147 140.828 142.213 140.821 142.279C140.721 143.284 140.235 144.189 139.453 144.829C138.772 145.387 137.936 145.684 137.067 145.684" fill="#006BFF"/>
<path fill-rule="evenodd" clip-rule="evenodd" d="M141.771 122.845C141.77 122.845 141.768 122.845 141.767 122.845C141.514 122.843 141.31 122.635 141.313 122.382C141.348 118.334 141.794 111.707 142.537 104.201C142.562 103.948 142.79 103.766 143.039 103.789C143.291 103.814 143.475 104.039 143.45 104.291C142.71 111.771 142.266 118.368 142.23 122.39C142.228 122.642 142.023 122.845 141.771 122.845" fill="#006BFF"/>
<path fill-rule="evenodd" clip-rule="evenodd" d="M150.302 77.9455C149.464 77.9455 148.567 78.4038 147.919 79.1897C147.176 80.0912 146.808 81.2581 146.521 82.3851C146.071 84.1495 145.546 87.1627 145.009 91.0014C146.986 90.369 148.786 89.3625 150.159 88.0668C152.002 86.3278 153.087 83.9473 153.062 81.699C153.043 80.0894 152.24 78.2983 150.74 77.9893C150.597 77.9598 150.45 77.9455 150.302 77.9455ZM143.362 101.141C143.346 101.141 143.329 101.141 143.312 101.139C143.061 101.112 142.878 100.885 142.905 100.633C143.233 97.5988 143.575 94.7645 143.914 92.2329C139.465 93.2445 134.461 92.5102 131.172 89.2648C129.08 87.201 128.009 84.3198 128.307 81.5575C128.483 79.9235 129.135 78.4647 130.143 77.4502C131.313 76.2729 132.965 75.7276 134.453 76.0259C134.619 76.0591 134.784 76.1029 134.944 76.1557C135.185 76.2351 135.316 76.4945 135.237 76.7353C135.157 76.9761 134.898 77.1075 134.657 77.0274C134.531 76.986 134.402 76.952 134.273 76.9261C133.082 76.6874 131.749 77.136 130.794 78.0972C129.932 78.9642 129.373 80.228 129.219 81.6557C128.956 84.1052 129.951 86.7705 131.817 88.6113C134.963 91.715 139.802 92.3443 144.045 91.277C144.607 87.2086 145.159 84.0111 145.631 82.1586C145.945 80.9284 146.353 79.6464 147.21 78.6057C148.187 77.4214 149.646 76.8266 150.925 77.0902C152.901 77.4971 153.957 79.7115 153.98 81.6886C154.008 84.2259 152.845 86.7941 150.789 88.7347C149.229 90.2067 147.149 91.3267 144.874 91.9854C144.519 94.5989 144.162 97.5543 143.818 100.732C143.793 100.967 143.594 101.141 143.362 101.141V101.141Z" fill="#006BFF"/>
<path fill-rule="evenodd" clip-rule="evenodd" d="M135.96 122.272C135.71 122.272 135.506 122.071 135.502 121.821C135.387 114.528 135.738 107.219 136.546 100.097C136.721 98.5525 136.95 96.9731 137.171 95.4459C137.923 90.2407 138.702 84.8581 137.568 79.6682C137.514 79.4206 137.671 79.176 137.918 79.1218C138.166 79.0676 138.411 79.2244 138.465 79.4722C139.634 84.825 138.844 90.2912 138.079 95.5774C137.859 97.0976 137.632 98.6699 137.458 100.201C136.655 107.284 136.305 114.553 136.42 121.806C136.423 122.06 136.221 122.268 135.968 122.272C135.965 122.272 135.963 122.272 135.96 122.272" fill="#006BFF"/>
<path fill-rule="evenodd" clip-rule="evenodd" d="M137.709 131.891C137.693 131.891 137.676 131.89 137.66 131.889L123.481 130.383C123.229 130.356 123.046 130.13 123.073 129.878C123.1 129.626 123.326 129.443 123.578 129.47L137.757 130.976C138.009 131.002 138.192 131.229 138.165 131.481C138.14 131.716 137.94 131.891 137.709 131.891" fill="#001E57"/>
<path fill-rule="evenodd" clip-rule="evenodd" d="M146.121 137.972C146.104 137.972 146.088 137.971 146.072 137.969L131.977 136.473C131.725 136.446 131.542 136.22 131.569 135.968C131.596 135.716 131.822 135.533 132.074 135.56L146.168 137.056C146.421 137.083 146.603 137.309 146.576 137.561C146.552 137.797 146.353 137.972 146.121 137.972" fill="#001E57"/>
<path fill-rule="evenodd" clip-rule="evenodd" d="M150.074 126.442C150.058 126.442 150.042 126.441 150.025 126.439L125.012 123.784C124.76 123.757 124.577 123.531 124.604 123.279C124.631 123.027 124.858 122.844 125.109 122.871L150.122 125.527C150.374 125.553 150.557 125.779 150.53 126.031C150.505 126.267 150.306 126.442 150.074 126.442" fill="#001E57"/>
<path fill-rule="evenodd" clip-rule="evenodd" d="M320.447 287.275C320.216 287.275 319.996 287.154 319.876 286.938C319.705 286.625 319.819 286.231 320.133 286.057L328.65 281.381C328.964 281.21 329.358 281.324 329.529 281.638C329.703 281.951 329.586 282.345 329.272 282.519L320.758 287.195C320.659 287.25 320.55 287.275 320.447 287.275" fill="#001E57"/>
<path fill-rule="evenodd" clip-rule="evenodd" d="M333.424 307.737C333.118 307.737 332.843 307.516 332.789 307.203L327.26 276.205C327.198 275.853 327.431 275.516 327.784 275.453C328.134 275.391 328.473 275.624 328.535 275.977L334.064 306.975C334.126 307.327 333.89 307.664 333.538 307.726C333.502 307.734 333.463 307.737 333.424 307.737" fill="#001E57"/>
<path fill-rule="evenodd" clip-rule="evenodd" d="M316.253 307.677C316.212 307.677 316.168 307.675 316.126 307.664C315.776 307.594 315.548 307.255 315.618 306.902L321.777 276.024C321.849 275.674 322.189 275.448 322.541 275.516C322.891 275.586 323.119 275.928 323.049 276.278L316.888 307.156C316.826 307.465 316.556 307.677 316.253 307.677" fill="#001E57"/>
<path fill-rule="evenodd" clip-rule="evenodd" d="M356.717 307.737C356.408 307.737 356.136 307.516 356.079 307.203L349.127 268.211C349.065 267.859 349.298 267.522 349.651 267.459C350.001 267.395 350.34 267.631 350.402 267.983L357.357 306.974C357.419 307.327 357.183 307.664 356.831 307.726C356.794 307.734 356.755 307.737 356.717 307.737" fill="#001E57"/>
<path fill-rule="evenodd" clip-rule="evenodd" d="M339.648 307.677C339.606 307.677 339.565 307.675 339.521 307.664C339.171 307.594 338.943 307.255 339.013 306.902L345.174 276.024C345.244 275.674 345.583 275.448 345.936 275.516C346.286 275.586 346.514 275.928 346.444 276.278L340.283 307.156C340.22 307.465 339.951 307.677 339.648 307.677" fill="#001E57"/>
<path fill-rule="evenodd" clip-rule="evenodd" d="M348.185 277.156C345.368 278.937 342.06 279.93 338.608 279.93H310.275C308.88 279.93 307.75 278.802 307.75 277.408C307.75 276.711 308.033 276.081 308.489 275.624C308.945 275.168 309.577 274.886 310.275 274.886H345.676C346.983 274.886 348.058 275.881 348.185 277.156" fill="#001E57"/>
<path fill-rule="evenodd" clip-rule="evenodd" d="M354.377 270.542C352.882 273.289 350.733 275.544 348.185 277.156C345.367 278.937 342.06 279.93 338.607 279.93C333.563 279.93 329.248 277.957 326.109 274.886C320.181 269.08 321.166 260.091 326.7 252.328C334.38 241.555 343.67 235.21 355.002 238.077C367.874 241.335 360.525 259.233 354.377 270.542" fill="#001E57"/>
<path fill-rule="evenodd" clip-rule="evenodd" d="M343.72 287.275C343.492 287.275 343.269 287.154 343.15 286.938C342.979 286.625 343.093 286.231 343.406 286.057L351.924 281.381C352.237 281.21 352.631 281.324 352.802 281.638C352.976 281.951 352.859 282.345 352.546 282.519L344.031 287.195C343.933 287.25 343.826 287.275 343.72 287.275" fill="#001E57"/>
<path fill-rule="evenodd" clip-rule="evenodd" d="M309.944 253.598C308.218 253.598 306.543 252.683 305.649 251.065C304.343 248.696 305.203 245.715 307.572 244.406L325.709 234.401C328.078 233.092 331.059 233.953 332.365 236.325C333.674 238.694 332.813 241.674 330.442 242.981L312.308 252.989C311.556 253.403 310.745 253.598 309.944 253.598" fill="#FFBEAA"/>
<path fill-rule="evenodd" clip-rule="evenodd" d="M313.906 239.629L320.982 250.041L329.614 244.43C332.659 242.789 333.797 238.989 332.157 235.941C330.516 232.895 326.716 231.757 323.668 233.398L313.906 239.629" fill="#006BFF"/>
<path fill-rule="evenodd" clip-rule="evenodd" d="M320.23 250.897C319.634 250.897 319.046 250.627 318.66 250.116L312.356 241.778C311.7 240.912 311.871 239.678 312.737 239.025C313.605 238.369 314.836 238.54 315.492 239.406L321.796 247.745C322.452 248.61 322.281 249.844 321.415 250.5C321.06 250.767 320.642 250.897 320.23 250.897" fill="#006BFF"/>
<path fill-rule="evenodd" clip-rule="evenodd" d="M336.565 275.282H325.492L326.412 266.983H336.565V275.282" fill="#240448"/>
<path fill-rule="evenodd" clip-rule="evenodd" d="M346.844 213.349C346.799 215.479 345.037 217.169 342.906 217.125C340.776 217.081 339.086 215.316 339.13 213.188C339.174 211.058 340.936 209.365 343.067 209.412C345.198 209.456 346.888 211.218 346.844 213.349" fill="#72ACFF"/>
<path fill-rule="evenodd" clip-rule="evenodd" d="M340.267 216.415V216.415C339.417 216.882 338.352 216.574 337.885 215.723L337.867 215.69C337.398 214.842 337.709 213.774 338.559 213.308C339.407 212.841 340.475 213.149 340.941 214L340.959 214.033C341.426 214.884 341.115 215.949 340.267 216.415" fill="#240448"/>
<path fill-rule="evenodd" clip-rule="evenodd" d="M306.211 284.873L309.863 295.241L317.222 292.008L314.319 280.204L306.211 284.873" fill="#FFBEAA"/>
<path fill-rule="evenodd" clip-rule="evenodd" d="M322.072 299.932L302.873 307.203L302.051 305.033L301.854 304.512C301.478 303.517 301.68 302.397 302.38 301.599L304.156 299.572L306.261 297.164L306.193 293.24C306.18 292.553 306.623 291.941 307.282 291.739L310.379 290.782L311.424 294.582L316.745 289.468C317.217 289.015 318.002 289.191 318.233 289.805L322.072 299.932" fill="#001E57"/>
<path fill-rule="evenodd" clip-rule="evenodd" d="M285.985 277.421L279.5 286.296L286.327 290.536L294.422 281.467L285.985 277.421" fill="#FFBEAA"/>
<path fill-rule="evenodd" clip-rule="evenodd" d="M288.573 230.524C288.181 231.783 288.531 233.243 289.635 234.352L304.363 252.452C306.294 254.627 309.625 254.824 311.797 252.893C313.972 250.962 314.169 247.633 312.238 245.459L296.014 229.336C294.335 227.649 291.546 227.403 289.783 228.787C289.179 229.261 288.775 229.865 288.573 230.524" fill="#FFBEAA"/>
<path fill-rule="evenodd" clip-rule="evenodd" d="M294.113 232.151C293.885 232.151 293.655 232.107 293.429 232.019L284.951 228.626C284.002 228.248 283.543 227.172 283.922 226.223C284.3 225.277 285.376 224.816 286.322 225.194L294.8 228.587C295.749 228.966 296.21 230.041 295.829 230.99C295.542 231.711 294.847 232.151 294.113 232.151" fill="#FFBEAA"/>
<path fill-rule="evenodd" clip-rule="evenodd" d="M292.349 233.097C292.264 233.097 292.178 233.092 292.09 233.079L282.057 231.677C281.046 231.534 280.341 230.601 280.483 229.59C280.623 228.58 281.556 227.875 282.57 228.017L292.603 229.419C293.612 229.559 294.317 230.495 294.177 231.506C294.047 232.429 293.257 233.097 292.349 233.097" fill="#FFBEAA"/>
<path fill-rule="evenodd" clip-rule="evenodd" d="M290.708 235.798C290.612 235.798 290.516 235.791 290.417 235.775L283.831 234.73C282.823 234.57 282.136 233.624 282.297 232.615C282.455 231.607 283.404 230.92 284.409 231.081L290.996 232.126C292.004 232.286 292.691 233.232 292.53 234.241C292.387 235.15 291.602 235.798 290.708 235.798" fill="#FFBEAA"/>
<path fill-rule="evenodd" clip-rule="evenodd" d="M294.644 231.467C293.962 231.467 293.306 231.086 292.985 230.436L291.507 227.431C291.056 226.516 291.432 225.41 292.347 224.959C293.262 224.508 294.371 224.883 294.822 225.798L296.3 228.803C296.751 229.718 296.375 230.824 295.46 231.275C295.198 231.405 294.918 231.467 294.644 231.467" fill="#FFBEAA"/>
<path fill-rule="evenodd" clip-rule="evenodd" d="M326.399 253.455L343.039 259.919L343.008 239.85C342.809 237.421 342.016 235.218 340.816 233.429C338.921 230.609 336.005 228.821 332.77 228.821C330.124 228.821 327.692 230.013 325.86 231.988C325.484 232.395 325.131 232.833 324.81 233.3C324.748 233.39 324.686 233.484 324.626 233.577C322.957 236.138 322.412 239.274 323.006 242.273L326.399 253.455" fill="#006BFF"/>
<path fill-rule="evenodd" clip-rule="evenodd" d="M329.332 240.78C328.839 243.393 326.325 245.114 323.71 244.622C321.097 244.132 319.379 241.615 319.869 238.999C320.361 236.387 326.768 231.281 326.768 231.281C329.132 232.496 329.822 238.167 329.332 240.78" fill="#006BFF"/>
<path fill-rule="evenodd" clip-rule="evenodd" d="M326.7 253.942C326.43 253.942 326.176 253.769 326.085 253.497L323.314 245.163C321.386 244.743 319.813 243.305 319.237 241.405C318.625 239.388 319.26 237.284 321.119 235.148C321.798 234.37 322.578 233.65 323.335 232.95C323.913 232.416 324.512 231.864 325.072 231.281C325.321 231.021 325.73 231.014 325.989 231.262C326.246 231.509 326.254 231.921 326.007 232.177C325.419 232.789 324.807 233.357 324.214 233.904C323.452 234.609 322.729 235.275 322.096 236.001C320.528 237.802 319.999 239.448 320.479 241.029C320.948 242.579 322.285 243.725 323.887 243.95C324.131 243.984 324.343 244.155 324.421 244.388L327.316 253.09C327.428 253.429 327.244 253.795 326.904 253.909C326.837 253.929 326.767 253.942 326.7 253.942" fill="white"/>
<path fill-rule="evenodd" clip-rule="evenodd" d="M325.703 275.274C324.65 275.274 323.58 275.067 322.548 274.632L298.595 264.512C294.464 262.768 292.53 258.007 294.275 253.875C296.019 249.746 300.783 247.812 304.912 249.557L328.865 259.673C332.997 261.418 334.93 266.182 333.186 270.311C331.877 273.411 328.867 275.274 325.703 275.274" fill="#001E57"/>
<path fill-rule="evenodd" clip-rule="evenodd" d="M345.752 266.013C345.734 266.43 345.682 266.845 345.607 267.255C344.933 270.873 342.105 274.059 338.523 275.005C337.818 275.189 337.131 275.277 336.455 275.282C332.44 275.311 328.881 272.485 325.441 270.627C321.877 268.701 318.313 266.775 314.749 264.849C312.691 263.737 310.649 262.421 308.508 261.477C304.62 259.764 302.854 255.223 304.57 251.335C306.284 247.447 310.825 245.684 314.713 247.397C320.789 249.564 326.867 251.731 332.942 253.898C335.654 254.865 338.704 255.557 341.138 257.182C341.509 257.426 341.867 257.695 342.204 257.988C344.479 259.969 345.892 262.981 345.752 266.013" fill="#72ACFF"/>
<path fill-rule="evenodd" clip-rule="evenodd" d="M316.473 259.313L292.178 284.904L282.684 278.59C282.715 278.553 282.746 278.52 282.779 278.483L304.749 249.347C307.502 246.112 312.357 245.718 315.594 248.471C318.832 251.223 319.223 256.076 316.473 259.313" fill="#72ACFF"/>
<path fill-rule="evenodd" clip-rule="evenodd" d="M333.5 265.539C333.228 265.539 332.976 265.368 332.886 265.098C332.769 264.759 332.953 264.391 333.29 264.277C333.575 264.181 333.793 263.696 333.863 263.009C333.954 262.13 333.79 260.995 333.417 259.893C332.611 257.517 331.24 256.288 330.649 256.49C330.312 256.607 329.941 256.423 329.827 256.083C329.713 255.746 329.894 255.378 330.234 255.262C331.755 254.746 333.655 256.558 334.646 259.476C335.081 260.767 335.262 262.068 335.154 263.141C335.024 264.393 334.511 265.23 333.707 265.503C333.637 265.528 333.567 265.539 333.5 265.539" fill="#240448"/>
<path fill-rule="evenodd" clip-rule="evenodd" d="M318.232 284.852L306.197 287.975L293.543 258.623C292.045 254.647 294.054 250.21 298.032 248.714C302.009 247.216 306.446 249.225 307.942 253.204L318.232 284.852" fill="#72ACFF"/>
<path fill-rule="evenodd" clip-rule="evenodd" d="M325.396 261.33C325.24 261.33 325.082 261.309 324.924 261.27L321.686 260.417C320.699 260.158 320.111 259.15 320.37 258.162C320.629 257.175 321.64 256.586 322.625 256.843L325.862 257.696C326.85 257.955 327.441 258.966 327.182 259.951C326.961 260.78 326.215 261.33 325.396 261.33" fill="#FFBEAA"/>
<path fill-rule="evenodd" clip-rule="evenodd" d="M351.532 257.229C350.166 257.229 348.805 256.659 347.836 255.547L334.972 240.77C333.193 238.73 333.406 235.635 335.448 233.857C337.488 232.081 340.586 232.294 342.361 234.334L355.228 249.111C357.004 251.151 356.791 254.248 354.748 256.024C353.821 256.832 352.675 257.229 351.532 257.229" fill="#FFBEAA"/>
<path fill-rule="evenodd" clip-rule="evenodd" d="M350.306 239.881L340.15 247.341L335.132 242.322C332.685 239.876 332.685 235.907 335.132 233.46C337.579 231.014 341.547 231.014 343.994 233.46L350.306 239.881" fill="white"/>
<path fill-rule="evenodd" clip-rule="evenodd" d="M340.504 249.165C339.986 249.165 339.47 248.932 339.128 248.489C338.542 247.729 338.682 246.638 339.441 246.052L348.474 239.067C349.234 238.481 350.325 238.618 350.913 239.378C351.499 240.137 351.359 241.231 350.602 241.817L341.567 248.802C341.25 249.046 340.877 249.165 340.504 249.165" fill="white"/>
<path fill-rule="evenodd" clip-rule="evenodd" d="M324.146 266.379C325.237 267.12 326.733 267.211 328.117 266.477L353.218 257.353C355.862 256.14 357.018 253.012 355.805 250.371C354.589 247.727 351.463 246.571 348.819 247.786L325.178 258.914C323.073 260.031 322.026 262.628 322.837 264.715C323.114 265.43 323.576 265.993 324.146 266.379" fill="#FFBEAA"/>
<path fill-rule="evenodd" clip-rule="evenodd" d="M316.408 264.533V264.533C313.435 264.533 311.027 262.123 311.027 259.15V255.306H321.789V259.15C321.789 262.123 319.381 264.533 316.408 264.533" fill="white"/>
<path fill-rule="evenodd" clip-rule="evenodd" d="M316.761 262.859C315.779 262.859 314.962 262.086 314.916 261.094C314.872 260.075 315.66 259.212 316.678 259.165L326.857 258.709C327.873 258.665 328.739 259.45 328.786 260.472C328.832 261.49 328.042 262.353 327.023 262.4L316.844 262.859C316.818 262.859 316.79 262.859 316.761 262.859" fill="#FFBEAA"/>
<path fill-rule="evenodd" clip-rule="evenodd" d="M319.811 265.176C318.948 265.176 318.175 264.567 318.002 263.691C317.8 262.69 318.45 261.716 319.451 261.516L325.358 260.334C326.361 260.137 327.333 260.783 327.532 261.783C327.732 262.784 327.084 263.758 326.084 263.958L320.174 265.14C320.052 265.163 319.93 265.176 319.811 265.176" fill="#FFBEAA"/>
<path fill-rule="evenodd" clip-rule="evenodd" d="M321.047 267.742C320.231 267.742 319.487 267.2 319.264 266.376C318.997 265.391 319.58 264.378 320.565 264.111L325.482 262.784C326.467 262.519 327.481 263.102 327.745 264.087C328.012 265.072 327.429 266.086 326.444 266.353L321.529 267.68C321.369 267.721 321.205 267.742 321.047 267.742" fill="#FFBEAA"/>
<path fill-rule="evenodd" clip-rule="evenodd" d="M337.833 221.312L335.552 230.583L327.75 233.997L329.658 228.662L330.801 223.955L336.708 221.734L337.833 221.312" fill="#FFBEAA"/>
<path fill-rule="evenodd" clip-rule="evenodd" d="M327.749 234.645C327.596 234.645 327.444 234.59 327.324 234.484C327.132 234.318 327.055 234.054 327.13 233.81L328.571 229.018C328.675 228.675 329.035 228.481 329.38 228.585C329.722 228.688 329.916 229.049 329.813 229.393L328.781 232.815L335.95 229.549C336.277 229.401 336.661 229.544 336.808 229.87C336.959 230.194 336.814 230.581 336.487 230.728L328.019 234.585C327.931 234.624 327.84 234.645 327.749 234.645" fill="white"/>
<path fill-rule="evenodd" clip-rule="evenodd" d="M342.206 251.076C341.931 251.076 341.675 250.897 341.587 250.619C341.483 250.277 341.675 249.914 342.017 249.808L344.446 249.056C344.788 248.953 345.151 249.142 345.257 249.484C345.361 249.826 345.169 250.189 344.827 250.295L342.398 251.047C342.336 251.068 342.271 251.076 342.206 251.076" fill="#240448"/>
<path fill-rule="evenodd" clip-rule="evenodd" d="M289.249 290.137L283.228 298.794L266.375 287.071L267.7 285.168L267.782 285.049C268.534 283.968 269.822 283.387 271.129 283.543L273.394 283.813L276.569 284.191L279.615 282.021C280.266 281.558 281.144 281.583 281.769 282.079L284.161 283.976L281.619 286.988L288.568 288.426C289.34 288.587 289.7 289.486 289.249 290.137" fill="#001E57"/>
<path fill-rule="evenodd" clip-rule="evenodd" d="M336.89 221.063L335.426 221.615C335.12 225.262 333.448 228.051 329.84 227.991L330.983 223.284L336.89 221.063" fill="#240448"/>
<path fill-rule="evenodd" clip-rule="evenodd" d="M328.15 225.912V225.912C325.944 225.143 324.78 222.729 325.55 220.524L326.709 217.211C327.722 214.305 330.902 212.771 333.811 213.787C336.716 214.803 338.251 217.981 337.235 220.889L336.965 221.661C335.703 225.27 331.758 227.172 328.15 225.912" fill="#FFBEAA"/>
<path fill-rule="evenodd" clip-rule="evenodd" d="M325.918 214.326C326.709 213.004 327.748 211.874 329.174 211.281C330.768 210.617 332.608 210.713 334.241 211.19C334.392 211.234 334.542 211.281 334.69 211.332C334.775 211.361 334.861 211.392 334.946 211.426C338.86 212.901 341.255 217.553 339.63 221.537C339.303 222.341 337.65 225.127 336.877 225.552C336.268 225.887 335.397 222.209 334.703 222.177C334.01 222.149 333.313 221.859 332.873 221.322C332.269 220.583 332.235 219.547 332.235 218.593C330.918 218.393 329.601 218.105 328.386 217.561C327.629 217.224 326.911 216.783 326.294 216.229C326.022 215.985 325.426 215.278 325.426 215.278C325.426 215.278 325.825 214.484 325.918 214.326" fill="#72ACFF"/>
<path fill-rule="evenodd" clip-rule="evenodd" d="M331.424 228.46V228.46C331.198 228.437 331.027 228.245 331.027 228.02L330.688 217.491L333.619 217.81L331.914 228.074C331.882 228.315 331.665 228.486 331.424 228.46" fill="#72ACFF"/>
<path fill-rule="evenodd" clip-rule="evenodd" d="M337.638 221.83C337.483 223.274 336.184 224.316 334.741 224.16C333.297 224.002 332.252 222.706 332.41 221.26C332.566 219.816 333.864 218.774 335.308 218.929C336.752 219.088 337.797 220.386 337.638 221.83" fill="#FFBEAA"/>
<path fill-rule="evenodd" clip-rule="evenodd" d="M336.343 224.334C336.266 225.06 335.612 225.586 334.887 225.506C334.161 225.428 333.635 224.775 333.715 224.049C333.793 223.323 334.446 222.797 335.172 222.877C335.898 222.955 336.424 223.608 336.343 224.334" fill="white"/>
<path fill-rule="evenodd" clip-rule="evenodd" d="M326.692 217.509C325.93 218.891 325.152 220.176 324.268 220.868C324.03 221.055 323.944 221.392 324.108 221.646C324.211 221.804 324.39 221.915 324.61 221.913L327.042 221.882L326.692 217.509" fill="#FFBEAA"/>
<path fill-rule="evenodd" clip-rule="evenodd" d="M306.196 290.209C305.32 290.209 304.524 289.624 304.294 288.737C304.022 287.687 304.652 286.614 305.704 286.34L317.127 283.374C318.179 283.102 319.252 283.732 319.524 284.784C319.797 285.834 319.167 286.907 318.114 287.182L306.691 290.147C306.526 290.189 306.36 290.209 306.196 290.209" fill="#72ACFF"/>
<path fill-rule="evenodd" clip-rule="evenodd" d="M292.889 265.083C292.749 265.083 292.609 265.036 292.49 264.943C292.207 264.722 292.16 264.315 292.381 264.033L304.237 248.947C306.178 246.667 309.187 245.593 312.111 246.125C312.464 246.19 312.697 246.527 312.632 246.879C312.57 247.232 312.233 247.462 311.88 247.4C309.41 246.949 306.865 247.856 305.242 249.767L293.399 264.834C293.272 264.997 293.081 265.083 292.889 265.083" fill="white"/>
<path fill-rule="evenodd" clip-rule="evenodd" d="M298.5 279.699C298.342 279.699 298.184 279.642 298.06 279.525C297.798 279.282 297.78 278.872 298.024 278.61L313.106 262.296C313.35 262.035 313.76 262.019 314.024 262.26C314.286 262.504 314.301 262.913 314.06 263.178L298.975 279.489C298.848 279.629 298.674 279.699 298.5 279.699" fill="white"/>
<path fill-rule="evenodd" clip-rule="evenodd" d="M301.987 305.51C301.731 305.51 301.487 305.355 301.386 305.103C301.254 304.769 301.415 304.393 301.746 304.261L311.669 300.292C312 300.158 312.379 300.321 312.511 300.653C312.643 300.985 312.482 301.363 312.151 301.495L302.228 305.463C302.148 305.495 302.068 305.51 301.987 305.51" fill="white"/>
<path fill-rule="evenodd" clip-rule="evenodd" d="M292.249 236.659C291.583 236.659 290.919 236.542 290.408 236.4C290.064 236.304 289.862 235.946 289.957 235.601C290.053 235.257 290.411 235.054 290.756 235.153C291.297 235.301 293.384 235.677 293.7 234.78C293.82 234.443 294.19 234.264 294.527 234.386C294.867 234.505 295.043 234.873 294.924 235.213C294.532 236.322 293.389 236.659 292.249 236.659" fill="#240448"/>
<path fill-rule="evenodd" clip-rule="evenodd" d="M277.494 292.628C277.367 292.628 277.238 292.592 277.124 292.511L267.329 285.7C267.036 285.495 266.963 285.09 267.165 284.797C267.37 284.502 267.774 284.432 268.07 284.634L277.865 291.449C278.158 291.653 278.23 292.058 278.028 292.351C277.901 292.532 277.699 292.628 277.494 292.628" fill="white"/>
<path fill-rule="evenodd" clip-rule="evenodd" d="M333.163 265.593C332.502 265.593 331.797 265.223 331.125 264.51C330.384 263.724 329.736 262.581 329.298 261.291C328.86 260 328.678 258.699 328.79 257.626C328.917 256.374 329.43 255.536 330.236 255.262C330.576 255.148 330.941 255.329 331.058 255.669C331.172 256.008 330.99 256.374 330.651 256.49C330.368 256.586 330.148 257.071 330.078 257.758C329.987 258.636 330.151 259.772 330.524 260.873C330.9 261.975 331.46 262.975 332.066 263.621C332.541 264.121 333.01 264.372 333.292 264.277C333.634 264.16 334 264.344 334.114 264.681C334.23 265.02 334.049 265.389 333.709 265.503C333.531 265.565 333.349 265.593 333.163 265.593" fill="#240448"/>
<path fill-rule="evenodd" clip-rule="evenodd" d="M330.713 263.374V263.374C329.614 263.623 328.518 262.934 328.269 261.835L328.145 261.293C327.896 260.191 328.585 259.098 329.684 258.846C330.786 258.597 331.88 259.287 332.131 260.386L332.253 260.928C332.504 262.029 331.815 263.123 330.713 263.374" fill="white"/>
<path fill-rule="evenodd" clip-rule="evenodd" d="M330.141 259.308C330.027 259.308 329.913 259.321 329.799 259.347C329.4 259.437 329.06 259.678 328.842 260.023C328.625 260.37 328.555 260.78 328.646 261.179L328.767 261.721C328.954 262.545 329.778 263.061 330.6 262.874C330.999 262.784 331.339 262.542 331.559 262.198C331.777 261.85 331.847 261.441 331.756 261.042L331.631 260.5C331.541 260.101 331.3 259.761 330.955 259.544C330.706 259.388 330.426 259.308 330.141 259.308ZM330.26 263.937C329.094 263.937 328.039 263.133 327.769 261.949L327.648 261.407C327.495 260.741 327.611 260.057 327.977 259.479C328.34 258.901 328.907 258.499 329.571 258.349C330.237 258.198 330.921 258.315 331.499 258.678C332.077 259.041 332.479 259.608 332.629 260.274L332.754 260.814C332.904 261.48 332.788 262.164 332.425 262.742C332.059 263.32 331.494 263.722 330.828 263.872C330.639 263.916 330.45 263.937 330.26 263.937V263.937Z" fill="#240448"/>
<path fill-rule="evenodd" clip-rule="evenodd" d="M291.66 286.526C291.287 286.526 290.908 286.42 290.574 286.197L282.005 280.5C281.103 279.899 280.857 278.678 281.458 277.773C282.059 276.869 283.28 276.625 284.185 277.226L292.751 282.923C293.656 283.525 293.902 284.746 293.301 285.65C292.92 286.218 292.298 286.526 291.66 286.526" fill="#72ACFF"/>
<path fill-rule="evenodd" clip-rule="evenodd" d="M338.606 246.954C338.414 246.954 338.225 246.871 338.098 246.708C337.875 246.428 337.922 246.021 338.202 245.798L344.179 241.063C344.459 240.84 344.868 240.886 345.089 241.169C345.311 241.449 345.265 241.856 344.985 242.079L339.008 246.814C338.889 246.91 338.746 246.954 338.606 246.954" fill="#240448"/>
<path fill-rule="evenodd" clip-rule="evenodd" d="M318.702 292.327C317.561 292.327 316.633 293.255 316.633 294.393C316.633 295.534 317.561 296.462 318.702 296.462C319.842 296.462 320.767 295.534 320.767 294.393C320.767 293.255 319.842 292.327 318.702 292.327ZM318.702 297.485C316.996 297.485 315.609 296.099 315.609 294.393C315.609 292.69 316.996 291.303 318.702 291.303C320.405 291.303 321.791 292.69 321.791 294.393C321.791 296.099 320.405 297.485 318.702 297.485V297.485Z" fill="#006BFF"/>
<path fill-rule="evenodd" clip-rule="evenodd" d="M285.488 291.049C284.348 291.049 283.422 291.977 283.422 293.115C283.422 294.256 284.348 295.183 285.488 295.183C286.629 295.183 287.554 294.256 287.554 293.115C287.554 291.977 286.629 291.049 285.488 291.049ZM285.488 296.207C283.783 296.207 282.398 294.821 282.398 293.115C282.398 291.412 283.783 290.025 285.488 290.025C287.194 290.025 288.578 291.412 288.578 293.115C288.578 294.821 287.194 296.207 285.488 296.207V296.207Z" fill="#006BFF"/>
<path fill-rule="evenodd" clip-rule="evenodd" d="M430.629 292.859V306.617H453.75V303.255C453.75 302.133 453.13 301.101 452.14 300.572L449.356 299.09L446.176 297.395L444.242 292.003L439.291 292.314L438.669 292.353L430.629 292.859" fill="#72ACFF"/>
<path fill-rule="evenodd" clip-rule="evenodd" d="M430.629 306.617H453.75V303.592H430.629V306.617Z" fill="#001E57"/>
<path fill-rule="evenodd" clip-rule="evenodd" d="M430.629 294.359V301.925C430.792 301.949 430.961 301.959 431.132 301.959C433.242 301.959 434.95 300.248 434.95 298.141C434.95 296.034 433.242 294.323 431.132 294.323C430.961 294.323 430.792 294.336 430.629 294.359" fill="#001E57"/>
<path fill-rule="evenodd" clip-rule="evenodd" d="M404.492 292.859V306.617H381.371V303.255C381.371 302.133 381.991 301.101 382.981 300.572L385.765 299.09L388.945 297.395L390.879 292.003L395.829 292.314L396.454 292.353L404.492 292.859" fill="#72ACFF"/>
<path fill-rule="evenodd" clip-rule="evenodd" d="M405.055 293.206L390.094 290.803L401.289 221.091L416.25 223.494L405.055 293.206" fill="#006BFF"/>
<path fill-rule="evenodd" clip-rule="evenodd" d="M429.855 293.066L415.516 223.8L430.355 220.726L444.694 289.992L429.855 293.066" fill="#006BFF"/>
<path fill-rule="evenodd" clip-rule="evenodd" d="M390.348 222.802C388.518 222.802 386.808 221.89 385.789 220.368L367.531 193.122C365.844 190.603 366.517 187.193 369.037 185.506C371.554 183.818 374.965 184.492 376.652 187.01L390.286 207.359L392.023 204.697C393.679 202.157 397.08 201.441 399.62 203.098C402.16 204.751 402.875 208.155 401.219 210.692L394.947 220.311C393.941 221.856 392.228 222.792 390.382 222.802C390.372 222.802 390.361 222.802 390.348 222.802" fill="#FFBEAA"/>
<path fill-rule="evenodd" clip-rule="evenodd" d="M396.642 291.508L396.634 291.547L394.884 299.09H385.766L388.946 297.394L390.947 291.508H396.642" fill="#001E57"/>
<path fill-rule="evenodd" clip-rule="evenodd" d="M401.22 210.692L392.023 204.697L395.517 199.337L404.714 205.335L401.22 210.692" fill="#72ACFF"/>
<path fill-rule="evenodd" clip-rule="evenodd" d="M438.48 291.508L438.488 291.547L440.238 299.09H449.357L446.176 297.394L444.175 291.508H438.48" fill="#001E57"/>
<path fill-rule="evenodd" clip-rule="evenodd" d="M401.999 212.895C401.675 212.895 401.349 212.807 401.056 212.618L391.476 206.496C390.657 205.972 390.418 204.886 390.942 204.07C391.463 203.251 392.549 203.012 393.368 203.536L402.948 209.658C403.764 210.182 404.005 211.268 403.482 212.084C403.147 212.61 402.58 212.895 401.999 212.895" fill="#72ACFF"/>
<path fill-rule="evenodd" clip-rule="evenodd" d="M400.11 207.825C399.083 207.825 398.044 207.538 397.116 206.934C394.578 205.278 393.86 201.877 395.517 199.337L398.228 195.182C399.884 192.642 403.285 191.926 405.825 193.582C408.363 195.238 409.081 198.639 407.424 201.18L404.713 205.335C403.661 206.949 401.903 207.825 400.11 207.825" fill="#72ACFF"/>
<path fill-rule="evenodd" clip-rule="evenodd" d="M421.728 229.686H409.792C406.153 229.686 403.203 226.737 403.203 223.1C403.203 219.461 406.153 216.511 409.792 216.511H421.728C425.365 216.511 428.314 219.461 428.314 223.1C428.314 226.737 425.365 229.686 421.728 229.686" fill="#006BFF"/>
<path fill-rule="evenodd" clip-rule="evenodd" d="M430.101 221.488H401.714L397.805 199.551C397.074 195.444 400.231 191.674 404.401 191.674H427.413C431.586 191.674 434.743 195.444 434.01 199.551L430.101 221.488" fill="#72ACFF"/>
<path fill-rule="evenodd" clip-rule="evenodd" d="M415.97 194.809C414.12 195.047 412.427 193.74 412.191 191.889L411.88 189.488L410.919 181.988C410.68 180.137 411.989 178.445 413.837 178.208C413.982 178.189 414.128 178.18 414.273 178.18C415.659 178.18 416.893 179.032 417.401 180.292C417.505 180.554 417.58 180.832 417.619 181.128L418.005 184.15L418.534 188.251L418.889 191.029C419.128 192.879 417.819 194.571 415.97 194.809" fill="#FFBEAA"/>
<path fill-rule="evenodd" clip-rule="evenodd" d="M416.932 184.214C416.294 187.144 414.869 189.257 411.88 189.488L410.919 181.988C410.68 180.137 411.989 178.445 413.837 178.208C413.982 178.189 414.128 178.18 414.273 178.18C415.659 178.18 416.893 179.032 417.401 180.292C417.505 180.554 417.58 180.832 417.619 181.128L416.932 184.214" fill="#240448"/>
<path fill-rule="evenodd" clip-rule="evenodd" d="M408.547 187.244V187.244C406.447 186.304 405.506 183.839 406.447 181.739L407.86 178.586C409.099 175.818 412.346 174.58 415.115 175.819C417.883 177.059 419.122 180.307 417.88 183.075L417.551 183.811C416.014 187.245 411.981 188.783 408.547 187.244" fill="#FFBEAA"/>
<path fill-rule="evenodd" clip-rule="evenodd" d="M444.927 293.465H429.616C428.548 293.465 427.68 292.599 427.68 291.529C427.68 290.459 428.548 289.593 429.616 289.593H444.927C445.995 289.593 446.863 290.459 446.863 291.529C446.863 292.599 445.995 293.465 444.927 293.465" fill="#006BFF"/>
<path fill-rule="evenodd" clip-rule="evenodd" d="M404.848 293.465H389.866C388.795 293.465 387.93 292.599 387.93 291.529C387.93 290.459 388.795 289.593 389.866 289.593H404.848C405.918 289.593 406.784 290.459 406.784 291.529C406.784 292.599 405.918 293.465 404.848 293.465" fill="#006BFF"/>
<path fill-rule="evenodd" clip-rule="evenodd" d="M408.216 178.776L404.875 181.39C404.497 181.687 404.621 182.289 405.088 182.411L407.403 183.018L408.216 178.776" fill="#FFBEAA"/>
<path fill-rule="evenodd" clip-rule="evenodd" d="M412.162 174.821C411.799 176.672 410.005 177.879 408.155 177.517C406.304 177.154 405.096 175.36 405.459 173.509C405.822 171.658 407.615 170.451 409.466 170.814C411.317 171.176 412.525 172.97 412.162 174.821" fill="#006BFF"/>
<path fill-rule="evenodd" clip-rule="evenodd" d="M415.689 175.461C415.432 176.77 414.162 177.623 412.853 177.367C411.544 177.11 410.691 175.842 410.948 174.533C411.205 173.224 412.472 172.37 413.781 172.627C415.09 172.883 415.945 174.152 415.689 175.461" fill="#006BFF"/>
<path fill-rule="evenodd" clip-rule="evenodd" d="M417.188 179.285L408.453 177.575C407.287 177.347 406.527 176.216 406.755 175.05C406.983 173.884 408.114 173.123 409.28 173.352L418.015 175.062C419.181 175.29 419.941 176.421 419.713 177.587C419.485 178.753 418.354 179.513 417.188 179.285" fill="#006BFF"/>
<path fill-rule="evenodd" clip-rule="evenodd" d="M418.478 183.888L414.706 183.15L414.312 176.51L419.714 177.569L418.478 183.888" fill="#006BFF"/>
<path fill-rule="evenodd" clip-rule="evenodd" d="M419.279 183.359C419.004 184.763 417.643 185.679 416.238 185.404C414.833 185.129 413.919 183.768 414.193 182.364C414.468 180.96 415.829 180.045 417.234 180.32C418.639 180.595 419.554 181.956 419.279 183.359" fill="#FFBEAA"/>
<path fill-rule="evenodd" clip-rule="evenodd" d="M444.343 243.818C442.088 243.818 439.976 242.421 439.175 240.176L428.252 209.676C427.231 206.822 428.716 203.678 431.57 202.657C434.424 201.636 437.568 203.121 438.589 205.975L449.509 236.477C450.533 239.331 449.048 242.473 446.191 243.494C445.582 243.714 444.955 243.818 444.343 243.818" fill="#FFBEAA"/>
<path fill-rule="evenodd" clip-rule="evenodd" d="M428.268 209.717L426.062 203.712L436.368 199.927L438.574 205.933L428.268 209.717" fill="#72ACFF"/>
<path fill-rule="evenodd" clip-rule="evenodd" d="M431.213 207.31C428.976 207.31 426.877 205.933 426.06 203.712L424.349 199.055C423.305 196.209 424.764 193.055 427.61 192.009C430.456 190.965 433.611 192.424 434.655 195.27L436.366 199.927C437.411 202.774 435.951 205.928 433.105 206.973C432.481 207.201 431.843 207.31 431.213 207.31" fill="#72ACFF"/>
<path fill-rule="evenodd" clip-rule="evenodd" d="M428.304 211.576C427.591 211.576 426.92 211.138 426.658 210.43C426.319 209.521 426.783 208.51 427.692 208.173L437.944 204.36C438.851 204.023 439.864 204.484 440.201 205.394C440.541 206.304 440.077 207.315 439.167 207.654L428.916 211.465C428.714 211.54 428.506 211.576 428.304 211.576" fill="#72ACFF"/>
<path fill-rule="evenodd" clip-rule="evenodd" d="M381.371 306.617H404.492V303.592H381.371V306.617Z" fill="#001E57"/>
<path fill-rule="evenodd" clip-rule="evenodd" d="M404.493 294.359V301.925C404.329 301.949 404.161 301.959 403.99 301.959C401.88 301.959 400.172 300.248 400.172 298.141C400.172 296.034 401.88 294.323 403.99 294.323C404.161 294.323 404.329 294.336 404.493 294.359" fill="#001E57"/>
<path fill-rule="evenodd" clip-rule="evenodd" d="M415.549 228.183H413.556C413.232 228.183 412.957 227.939 412.921 227.615L412.296 221.931C412.26 221.581 412.512 221.265 412.862 221.229C413.217 221.19 413.528 221.441 413.567 221.791L414.129 226.908H415.549C415.902 226.908 416.187 227.193 416.187 227.545C416.187 227.898 415.902 228.183 415.549 228.183" fill="#240448"/>
<path fill-rule="evenodd" clip-rule="evenodd" d="M407.784 224.756H401.04C400.687 224.756 400.402 224.471 400.402 224.119C400.402 223.766 400.687 223.481 401.04 223.481H407.784C408.137 223.481 408.425 223.766 408.425 224.119C408.425 224.471 408.137 224.756 407.784 224.756" fill="#240448"/>
<path fill-rule="evenodd" clip-rule="evenodd" d="M431.066 224.756H424.321C423.969 224.756 423.684 224.471 423.684 224.119C423.684 223.766 423.969 223.481 424.321 223.481H431.066C431.418 223.481 431.703 223.766 431.703 224.119C431.703 224.471 431.418 224.756 431.066 224.756" fill="#240448"/>
<path fill-rule="evenodd" clip-rule="evenodd" d="M394.885 299.727H385.767C385.414 299.727 385.129 299.442 385.129 299.09C385.129 298.737 385.414 298.452 385.767 298.452H394.885C395.238 298.452 395.523 298.737 395.523 299.09C395.523 299.442 395.238 299.727 394.885 299.727" fill="#240448"/>
<path fill-rule="evenodd" clip-rule="evenodd" d="M449.354 299.727H440.235C439.883 299.727 439.598 299.442 439.598 299.09C439.598 298.737 439.883 298.452 440.235 298.452H449.354C449.706 298.452 449.992 298.737 449.992 299.09C449.992 299.442 449.706 299.727 449.354 299.727" fill="#240448"/>
<path fill-rule="evenodd" clip-rule="evenodd" d="M414.633 207.406C414.633 209.793 412.696 211.726 410.309 211.726C407.922 211.726 405.988 209.793 405.988 207.406C405.988 205.018 407.922 203.085 410.309 203.085C412.696 203.085 414.633 205.018 414.633 207.406" fill="white"/>
<path fill-rule="evenodd" clip-rule="evenodd" d="M423.414 207.406C423.414 209.793 421.48 211.726 419.093 211.726C416.706 211.726 414.77 209.793 414.77 207.406C414.77 205.018 416.706 203.085 419.093 203.085C421.48 203.085 423.414 205.018 423.414 207.406" fill="white"/>
<path fill-rule="evenodd" clip-rule="evenodd" d="M414.294 212.563L409.043 207.309L414.294 202.058L419.546 207.309L414.294 212.563" fill="#CFE4FF"/>
<path fill-rule="evenodd" clip-rule="evenodd" d="M368.769 193.17C368.147 193.17 367.532 192.87 367.156 192.314L362.654 185.647C362.053 184.756 362.286 183.548 363.175 182.946C364.067 182.345 365.275 182.579 365.876 183.469L370.381 190.136C370.982 191.027 370.746 192.235 369.857 192.837C369.523 193.062 369.145 193.17 368.769 193.17" fill="#FFBEAA"/>
<path fill-rule="evenodd" clip-rule="evenodd" d="M370.819 189.812C370.171 189.812 369.536 189.487 369.168 188.897L364.201 180.956C363.634 180.045 363.909 178.846 364.821 178.276C365.731 177.707 366.931 177.983 367.501 178.894L372.465 186.835C373.035 187.746 372.758 188.946 371.848 189.515C371.526 189.716 371.171 189.812 370.819 189.812" fill="#FFBEAA"/>
<path fill-rule="evenodd" clip-rule="evenodd" d="M373.637 188.048C372.94 188.048 372.263 187.67 371.916 187.009L368.341 180.232C367.841 179.282 368.207 178.106 369.155 177.605C370.106 177.103 371.283 177.468 371.784 178.418L375.355 185.196C375.858 186.146 375.493 187.322 374.541 187.823C374.254 187.975 373.943 188.048 373.637 188.048" fill="#FFBEAA"/>
<path fill-rule="evenodd" clip-rule="evenodd" d="M374.911 190.004C374.517 190.004 374.121 189.885 373.779 189.638C372.905 189.012 372.706 187.796 373.333 186.924L374.074 185.891L372.944 185.237C372.013 184.7 371.697 183.51 372.234 182.58C372.773 181.65 373.963 181.332 374.891 181.87L377.882 183.599C378.356 183.873 378.693 184.337 378.81 184.873C378.924 185.411 378.807 185.971 378.486 186.417L376.492 189.194C376.111 189.722 375.515 190.004 374.911 190.004" fill="#FFBEAA"/>
<path fill-rule="evenodd" clip-rule="evenodd" d="M450.176 246.926C449.352 246.926 448.585 246.397 448.323 245.567L445.9 237.895C445.576 236.871 446.143 235.778 447.167 235.456C448.191 235.132 449.285 235.7 449.609 236.724L452.032 244.396C452.356 245.42 451.789 246.511 450.765 246.835C450.568 246.897 450.371 246.926 450.176 246.926" fill="#FFBEAA"/>
<path fill-rule="evenodd" clip-rule="evenodd" d="M447.336 250.917C446.486 250.917 445.703 250.355 445.465 249.492L442.958 240.469C442.671 239.432 443.277 238.362 444.311 238.074C445.345 237.786 446.419 238.393 446.706 239.427L449.213 248.452C449.5 249.487 448.894 250.56 447.86 250.847C447.683 250.894 447.51 250.917 447.336 250.917" fill="#FFBEAA"/>
<path fill-rule="evenodd" clip-rule="evenodd" d="M443.127 250.295C442.218 250.295 441.406 249.658 441.222 248.732L439.722 241.218C439.512 240.166 440.193 239.142 441.246 238.932C442.301 238.722 443.324 239.404 443.534 240.456L445.035 247.97C445.245 249.023 444.563 250.047 443.508 250.259C443.381 250.285 443.252 250.295 443.127 250.295" fill="#FFBEAA"/>
<path fill-rule="evenodd" clip-rule="evenodd" d="M438.826 245.34C438.655 245.34 438.481 245.316 438.307 245.267C437.273 244.982 436.664 243.911 436.949 242.877L438.266 238.103C438.551 237.066 439.621 236.459 440.658 236.744C441.692 237.03 442.302 238.1 442.016 239.134L440.7 243.911C440.461 244.772 439.678 245.34 438.826 245.34" fill="#FFBEAA"/>
<path fill-rule="evenodd" clip-rule="evenodd" d="M19.3233 283.463C23.4684 285.785 25.8606 289.396 24.6667 291.524C23.4726 293.654 19.1447 293.499 14.9996 291.174C12.132 289.567 10.6748 286.324 10.0488 284.479C9.79146 283.719 10.2456 282.908 11.0276 282.732C12.9291 282.304 16.4558 281.853 19.3233 283.463" fill="#006BFF"/>
<path fill-rule="evenodd" clip-rule="evenodd" d="M39.9314 284.753C37.5911 287.128 34.7056 288.074 33.4866 286.871C32.2676 285.668 33.1769 282.771 35.5172 280.399C37.1364 278.758 39.5999 278.375 40.9643 278.294C41.5257 278.261 41.9894 278.717 41.9638 279.279C41.9013 280.645 41.5506 283.113 39.9314 284.753" fill="#006BFF"/>
<path fill-rule="evenodd" clip-rule="evenodd" d="M26.3455 307.203C25.9875 307.203 25.6975 306.912 25.6975 306.555C25.6975 297.281 24.2527 287.537 21.4041 277.592C21.3056 277.247 21.5047 276.889 21.8486 276.791C22.1934 276.692 22.5513 276.892 22.6501 277.234C25.5321 287.296 26.9935 297.161 26.9935 306.555C26.9935 306.912 26.7034 307.203 26.3455 307.203" fill="#240448"/>
<path fill-rule="evenodd" clip-rule="evenodd" d="M20.9504 274.502C20.6762 274.502 20.4211 274.326 20.3333 274.051C16.8564 263.157 12.9067 256.018 12.8673 255.946C12.6931 255.635 12.8051 255.241 13.1177 255.065C13.4305 254.891 13.8245 255.002 13.9992 255.316C14.0391 255.389 18.0489 262.631 21.5681 273.657C21.677 273.999 21.4885 274.362 21.1477 274.471C21.0824 274.492 21.0157 274.502 20.9504 274.502" fill="#240448"/>
<path fill-rule="evenodd" clip-rule="evenodd" d="M23.3386 260.941C23.3386 265.381 19.7388 268.981 15.2982 268.981C10.8576 268.981 7.25781 265.381 7.25781 260.941C7.25781 256.501 10.8576 252.9 15.2982 252.9C19.7388 252.9 23.3386 256.501 23.3386 260.941" fill="#72ACFF"/>
<path fill-rule="evenodd" clip-rule="evenodd" d="M31.9089 307.203C31.5571 307.203 31.2684 306.92 31.2611 306.568C31.2565 306.319 30.8384 281.392 37.1393 263.458C37.2577 263.118 37.6279 262.942 37.9656 263.061C38.3031 263.18 38.4806 263.548 38.3619 263.888C32.1377 281.602 32.5522 306.295 32.5569 306.542C32.5644 306.899 32.2798 307.195 31.9221 307.203C31.9179 307.203 31.9133 307.203 31.9089 307.203" fill="#240448"/>
<path fill-rule="evenodd" clip-rule="evenodd" d="M44.6229 265.378L38.9374 259.691L31.171 261.773L29.0898 269.541L34.7754 275.225L42.5418 273.144L44.6229 265.378" fill="#006BFF"/>
<path fill-rule="evenodd" clip-rule="evenodd" d="M15.3015 262.208C11.0193 262.208 6.41016 261.218 6.41016 259.043C6.41016 258.686 6.7002 258.395 7.05816 258.395C7.41585 258.395 7.70616 258.686 7.70616 259.043C7.70616 259.601 10.2901 260.912 15.3015 260.912C20.3129 260.912 22.8971 259.601 22.8971 259.043C22.8971 258.686 23.1871 258.395 23.5451 258.395C23.903 258.395 24.1931 258.686 24.1931 259.043C24.1931 261.218 19.584 262.208 15.3015 262.208" fill="white"/>
<path fill-rule="evenodd" clip-rule="evenodd" d="M15.3015 262.208C11.0193 262.208 6.41016 261.218 6.41016 259.043C6.41016 258.686 6.7002 258.395 7.05816 258.395C7.41585 258.395 7.70616 258.686 7.70616 259.043C7.70616 259.601 10.2901 260.912 15.3015 260.912C20.3129 260.912 22.8971 259.601 22.8971 259.043C22.8971 258.686 23.1871 258.395 23.5451 258.395C23.903 258.395 24.1931 258.686 24.1931 259.043C24.1931 261.218 19.584 262.208 15.3015 262.208" fill="white"/>
<path fill-rule="evenodd" clip-rule="evenodd" d="M21.9499 264.349C21.487 264.349 20.9266 264.284 20.2488 264.129C18.6018 263.748 16.6145 262.916 14.6529 261.786C12.6916 260.653 10.9762 259.349 9.82247 258.115C8.1273 256.298 8.18536 255.202 8.53269 254.601C8.71154 254.29 9.10785 254.183 9.4176 254.362C9.7276 254.541 9.83413 254.938 9.65502 255.246C9.54642 255.435 9.75274 256.14 10.7696 257.229C11.838 258.375 13.4471 259.593 15.3004 260.661C17.1539 261.731 19.0145 262.514 20.5401 262.867C21.9919 263.201 22.7055 263.027 22.8141 262.838C22.9927 262.527 23.3887 262.421 23.6993 262.6C24.0093 262.778 24.1155 263.175 23.9369 263.486C23.6871 263.919 23.1394 264.349 21.9499 264.349" fill="white"/>
<path fill-rule="evenodd" clip-rule="evenodd" d="M21.9499 264.349C21.487 264.349 20.9266 264.284 20.2488 264.129C18.6018 263.748 16.6145 262.916 14.6529 261.786C12.6916 260.653 10.9762 259.349 9.82247 258.115C8.1273 256.298 8.18536 255.202 8.53269 254.601C8.71154 254.29 9.10785 254.183 9.4176 254.362C9.7276 254.541 9.83413 254.938 9.65502 255.246C9.54642 255.435 9.75274 256.14 10.7696 257.229C11.838 258.375 13.4471 259.593 15.3004 260.661C17.1539 261.731 19.0145 262.514 20.5401 262.867C21.9919 263.201 22.7055 263.027 22.8141 262.838C22.9927 262.527 23.3887 262.421 23.6993 262.6C24.0093 262.778 24.1155 263.175 23.9369 263.486C23.6871 263.919 23.1394 264.349 21.9499 264.349" fill="white"/>
<path fill-rule="evenodd" clip-rule="evenodd" d="M29.089 270.189C28.8032 270.189 28.5414 269.997 28.4636 269.707C28.3711 269.362 28.5764 269.007 28.9219 268.914L44.4549 264.751C44.8007 264.66 45.1558 264.865 45.2486 265.21C45.3414 265.557 45.1361 265.912 44.7906 266.003L29.2575 270.166C29.2013 270.181 29.1448 270.189 29.089 270.189" fill="white"/>
<path fill-rule="evenodd" clip-rule="evenodd" d="M36.8567 268.108C36.6911 268.108 36.5252 268.043 36.3987 267.918L30.7132 262.231C30.4602 261.977 30.4602 261.568 30.7132 261.316C30.9664 261.062 31.3765 261.062 31.6294 261.316L37.315 267.001C37.568 267.255 37.568 267.664 37.315 267.918C37.1885 268.043 37.0226 268.108 36.8567 268.108" fill="white"/>
<path fill-rule="evenodd" clip-rule="evenodd" d="M212.441 307.353C212.086 307.353 211.795 307.068 211.793 306.713C211.684 297.848 213.905 287.304 217.316 280.477C217.477 280.158 217.866 280.028 218.187 280.189C218.506 280.347 218.636 280.736 218.478 281.057C215.147 287.716 212.983 298.019 213.089 306.697C213.091 307.055 212.806 307.348 212.449 307.353C212.446 307.353 212.443 307.353 212.441 307.353" fill="#001E57"/>
<path fill-rule="evenodd" clip-rule="evenodd" d="M219.327 284.398L222.497 278.978L217.08 275.811L213.91 281.228L219.327 284.398" fill="#006BFF"/>
<path fill-rule="evenodd" clip-rule="evenodd" d="M214.69 275.477C215.001 276.666 216.219 277.379 217.412 277.068C218.601 276.757 219.314 275.539 219.001 274.346C218.69 273.157 217.471 272.444 216.282 272.758C215.092 273.069 214.379 274.287 214.69 275.477" fill="#72ACFF"/>
<path fill-rule="evenodd" clip-rule="evenodd" d="M217.41 285.86C217.721 287.05 218.939 287.763 220.129 287.452C221.319 287.138 222.031 285.922 221.72 284.73C221.409 283.54 220.191 282.828 218.999 283.139C217.809 283.452 217.096 284.67 217.41 285.86" fill="#72ACFF"/>
<path fill-rule="evenodd" clip-rule="evenodd" d="M223.961 280.899C225.153 280.588 225.863 279.37 225.552 278.18C225.241 276.988 224.023 276.275 222.833 276.589C221.641 276.9 220.928 278.118 221.242 279.308C221.553 280.5 222.771 281.21 223.961 280.899" fill="#72ACFF"/>
<path fill-rule="evenodd" clip-rule="evenodd" d="M213.824 283.556C215.014 283.242 215.727 282.027 215.416 280.834C215.102 279.645 213.886 278.932 212.694 279.243C211.504 279.556 210.792 280.775 211.105 281.964C211.416 283.154 212.634 283.867 213.824 283.556" fill="#72ACFF"/>
<path fill-rule="evenodd" clip-rule="evenodd" d="M199.094 294.258C201.637 296.562 204.659 297.374 205.843 296.065C207.031 294.758 205.929 291.829 203.384 289.525C201.626 287.928 199.068 287.674 197.66 287.672C197.082 287.669 196.631 288.164 196.688 288.742C196.831 290.142 197.334 292.661 199.094 294.258" fill="#72ACFF"/>
<path fill-rule="evenodd" clip-rule="evenodd" d="M204.965 283.206C204.651 283.206 204.376 282.98 204.324 282.662C203.627 278.374 202.754 274.37 201.727 270.759C201.631 270.414 201.831 270.057 202.176 269.958C202.518 269.862 202.878 270.062 202.974 270.407C204.013 274.064 204.897 278.118 205.605 282.454C205.662 282.807 205.421 283.141 205.068 283.198C205.032 283.203 204.998 283.206 204.965 283.206" fill="#240448"/>
<path fill-rule="evenodd" clip-rule="evenodd" d="M206.917 307.353C206.915 307.353 206.912 307.353 206.909 307.353C206.552 307.348 206.264 307.055 206.269 306.697C206.272 306.607 206.368 297.48 204.885 286.433C204.836 286.078 205.085 285.754 205.44 285.705C205.798 285.655 206.122 285.907 206.168 286.262C207.666 297.408 207.565 306.622 207.565 306.713C207.56 307.068 207.272 307.353 206.917 307.353" fill="#001E57"/>
<path fill-rule="evenodd" clip-rule="evenodd" d="M201.065 268.761C202.133 268.276 202.608 267.016 202.12 265.948C201.636 264.88 200.376 264.409 199.308 264.893C198.24 265.381 197.768 266.638 198.253 267.706C198.738 268.776 199.997 269.248 201.065 268.761" fill="#001E57"/>
<path fill-rule="evenodd" clip-rule="evenodd" d="M194.443 271.7C196.153 275.458 200.612 277.102 204.357 275.329C207.934 273.636 209.557 269.362 208.001 265.723C206.978 263.328 204.85 261.757 202.475 261.337L202.499 265.738C202.504 266.773 201.902 267.711 200.964 268.139C200.023 268.566 198.922 268.4 198.147 267.719L194.844 264.805C193.629 266.824 193.393 269.391 194.443 271.7" fill="#72ACFF"/>
<path fill-rule="evenodd" clip-rule="evenodd" d="M203.282 262.688C204.068 262.33 204.417 261.402 204.06 260.617C203.702 259.829 202.774 259.481 201.986 259.839C201.201 260.197 200.853 261.125 201.211 261.91C201.566 262.698 202.494 263.045 203.282 262.688" fill="#72ACFF"/>
<path fill-rule="evenodd" clip-rule="evenodd" d="M195.304 266.314C196.09 265.956 196.437 265.028 196.079 264.243C195.722 263.455 194.794 263.108 194.008 263.465C193.22 263.823 192.873 264.751 193.231 265.539C193.588 266.324 194.516 266.672 195.304 266.314" fill="#72ACFF"/>
<path fill-rule="evenodd" clip-rule="evenodd" d="M364.445 204.249L376.817 170.892L364.445 204.249" fill="#FC346C"/>
<path fill-rule="evenodd" clip-rule="evenodd" d="M366.602 203.733C366.54 203.733 366.48 203.722 366.418 203.704C366.076 203.606 365.879 203.245 365.98 202.901L382.143 147.686C382.242 147.342 382.602 147.146 382.947 147.246C383.289 147.347 383.486 147.707 383.388 148.05L367.221 203.266C367.141 203.549 366.882 203.733 366.602 203.733" fill="#240448"/>
<path fill-rule="evenodd" clip-rule="evenodd" d="M339.205 149.106L374.205 160.55L377.369 146.205L353.238 135.042L351.973 144.368C351.939 144.611 351.773 144.815 351.54 144.894L339.205 149.106ZM374.684 162.036C374.614 162.036 374.547 162.025 374.482 162.004L336.96 149.735C336.696 149.649 336.514 149.402 336.512 149.123C336.512 148.845 336.688 148.596 336.952 148.506L350.742 143.797L352.074 133.999C352.1 133.795 352.224 133.616 352.403 133.517C352.585 133.418 352.8 133.411 352.986 133.497L378.385 145.248C378.663 145.376 378.813 145.679 378.748 145.976L375.317 161.528C375.275 161.706 375.164 161.86 375.003 161.951C374.904 162.007 374.796 162.036 374.684 162.036V162.036Z" fill="#CFE4FF"/>
<path fill-rule="evenodd" clip-rule="evenodd" d="M301.951 230.459H279.442L272.086 206.763L273.325 206.379L280.396 229.163H301.951V230.459" fill="#240448"/>
</svg>
