<svg width="520" height="297" viewBox="0 0 520 297" fill="none" xmlns="http://www.w3.org/2000/svg">
<path fill-rule="evenodd" clip-rule="evenodd" d="M79.0797 192.916C71.6906 180.267 69.3103 163.927 90.6358 150.114C89.7804 150.668 79.1089 139.08 78.0561 137.928C73.5017 132.94 70.392 126.802 66.338 121.361C59.6518 112.387 63.1494 89.5431 80.6283 93.0691C80.6283 93.0691 54.8607 86.5238 71.404 63.6298C68.707 53.9143 55.2183 2.8739 78.9548 10.9286C85.4647 13.1381 89.8328 19.4814 93.3563 25.596C94.4231 27.4472 102.932 49.22 101.418 49.3028C101.418 49.3028 127.839 47.8543 122.456 77.2684C122.456 77.2684 172.357 99.9807 140.855 138.273C140.855 138.273 182.739 181.989 153.51 203.198C144.094 210.03 134.949 213.544 126.879 215.168C107.979 218.972 89.277 210.372 79.0797 192.916" fill="#D0E3FF"/>
<path fill-rule="evenodd" clip-rule="evenodd" d="M121.935 236.161C119.906 239.14 114.592 238.736 111.502 239.188C106.358 239.938 101.392 241.36 96.1628 241.627C84.67 242.222 66.6915 238.748 63.9791 225.203C62.1911 216.276 67.6304 207.753 72.9739 201.152C72.9739 201.152 53.227 206.595 45.6064 201.688C29.1637 191.099 43.6755 171.012 43.6755 171.012C43.6755 171.012 38.3376 170.734 35.7053 170.237C29.0957 168.989 23.0492 163.133 21.5125 156.555C18.7218 144.609 29.2736 137.706 38.3833 132.962C38.3833 132.962 32.5675 122.093 35.7754 113.037C38.988 103.967 50.6379 96.99 67.5452 112.925C68.1086 113.457 68.6777 114.013 69.252 114.594C69.9277 115.208 70.4515 115.735 70.976 116.524C70.2126 106.942 82.8361 101.087 90.8231 102.846C94.4974 103.656 97.8433 105.949 99.9376 109.086C102.472 112.882 102.688 117.594 102.681 122.022C102.68 122.283 102.678 122.543 102.677 122.804C102.677 122.804 139.336 113.142 144.853 153.551C150.369 193.954 121.947 236.143 121.935 236.161" fill="#D8DDE2"/>
<path fill-rule="evenodd" clip-rule="evenodd" d="M60.0463 106.197C59.8341 106.197 59.6331 105.988 59.5475 105.642C59.4342 105.184 59.5658 104.66 59.8412 104.472C60.4019 104.089 60.983 103.757 61.5687 103.484C61.8555 103.35 62.1529 103.629 62.2331 104.106C62.3136 104.582 62.1462 105.077 61.8594 105.21C61.3141 105.464 60.773 105.773 60.2509 106.13C60.1838 106.176 60.1146 106.197 60.0463 106.197" fill="white"/>
<path fill-rule="evenodd" clip-rule="evenodd" d="M137.505 136.408C137.266 136.408 137.032 136.283 136.891 136.052C132.105 128.221 124.926 123.732 115.554 122.711C108.531 121.946 102.88 123.519 102.824 123.535C102.602 123.598 102.367 123.546 102.186 123.394C102.005 123.242 101.9 123.008 101.902 122.76C101.903 122.488 101.905 122.216 101.905 121.944C101.912 117.392 101.722 112.627 99.3596 108.814C97.4146 105.675 94.3452 103.411 90.9388 102.602C88.7133 102.074 86.0104 102.23 83.3281 103.042C82.9372 103.16 82.531 102.913 82.4219 102.49C82.3125 102.067 82.541 101.628 82.9319 101.51C85.8421 100.628 88.7974 100.464 91.2541 101.047C95.0273 101.943 98.4269 104.451 100.581 107.928C103.142 112.062 103.378 117.024 103.376 121.768C105.306 121.338 110.031 120.509 115.701 121.128C122.462 121.864 131.838 124.899 138.117 135.174C138.342 135.54 138.249 136.034 137.91 136.276C137.785 136.365 137.644 136.408 137.505 136.408" fill="white"/>
<path fill-rule="evenodd" clip-rule="evenodd" d="M268.24 240.347C267.592 247.884 129.679 277.325 125.641 283.677C123.063 287.731 124.759 290.247 120.69 293.115C119.463 293.982 117.772 294.864 115.859 295.704H94.0438C85.823 295.704 78.6597 289.953 76.939 281.852C76.9267 281.794 76.9143 281.734 76.9023 281.676C76.9023 281.676 58.5957 288.971 56.0197 269.985L46.9735 269.033C35.3537 267.815 27.9675 255.672 32.4567 244.8C32.5217 244.643 32.5897 244.485 32.6601 244.327C35.5312 237.87 41.6203 233.786 48.2523 233.27C50.6198 233.086 53.0574 233.355 55.443 234.138L67.7959 238.179C67.7959 238.179 57.5464 226.241 63.4426 216.608C64.309 215.191 65.528 213.823 67.1798 212.55C76.8108 205.135 85.8047 216.711 89.7251 223.018C91.0508 225.146 91.7975 226.675 91.7975 226.675C91.7975 226.675 91.7479 225.094 92.1549 223C93.0059 218.605 95.8638 211.952 105.383 212.899C106.768 213.039 108.298 213.339 109.981 213.831C111.012 214.133 112.004 214.543 112.954 215.049C113.64 215.411 114.306 215.825 114.948 216.282C122.924 221.919 167.451 191.898 170.072 200.087C172.105 206.436 260.263 226.519 259.681 233.301L268.24 240.347Z" fill="#D0E3FF"/>
<path fill-rule="evenodd" clip-rule="evenodd" d="M110.015 117.183C109.702 117.183 109.409 116.987 109.299 116.673L71.4512 8.33701C71.3124 7.94059 71.5207 7.5061 71.9162 7.36695C72.3115 7.22811 72.745 7.43668 72.8834 7.83372L110.732 116.17C110.87 116.567 110.662 117.001 110.266 117.14C110.183 117.169 110.099 117.183 110.015 117.183" fill="white"/>
<path fill-rule="evenodd" clip-rule="evenodd" d="M98.7295 86.9717C98.5476 86.9717 98.3651 86.9093 98.2185 86.7827C97.8992 86.5069 97.8693 86.0302 98.1518 85.7188L124.988 56.0991C125.271 55.7876 125.759 55.7584 126.078 56.0339C126.397 56.3098 126.427 56.7861 126.145 57.0978L99.3081 86.7173C99.1556 86.8858 98.9431 86.9717 98.7295 86.9717" fill="white"/>
<path fill-rule="evenodd" clip-rule="evenodd" d="M95.3693 77.8168C95.3587 77.8168 95.3481 77.8168 95.3378 77.8162L66.6418 76.6187C66.2239 76.6013 65.8987 76.2406 65.9157 75.8131C65.9329 75.3855 66.2911 75.0574 66.7036 75.0707L95.3996 76.2682C95.8175 76.2859 96.1426 76.6465 96.1257 77.0738C96.109 77.4905 95.7732 77.8168 95.3693 77.8168" fill="white"/>
<path fill-rule="evenodd" clip-rule="evenodd" d="M124.662 209.648C124.443 209.648 124.225 209.555 124.075 209.376L46.8641 117.489C46.5969 117.171 46.6432 116.7 46.9673 116.438C47.2915 116.176 47.7715 116.221 48.0384 116.539L125.249 208.427C125.516 208.745 125.47 209.215 125.146 209.477C125.004 209.592 124.833 209.648 124.662 209.648" fill="white"/>
<path fill-rule="evenodd" clip-rule="evenodd" d="M75.8678 152.887C75.814 152.887 75.7592 152.882 75.7044 152.872C75.2736 152.788 74.9974 152.396 75.0873 151.995L81.7333 122.35C81.8229 121.95 82.2441 121.692 82.6758 121.777C83.1062 121.86 83.3824 122.252 83.2929 122.653L76.6468 152.297C76.5685 152.647 76.2371 152.887 75.8678 152.887" fill="white"/>
<path fill-rule="evenodd" clip-rule="evenodd" d="M323.337 187.665C323.337 187.665 261.224 127.113 336.967 118.685C336.967 118.685 312.674 75.9121 353.785 73.3496C353.785 73.3496 352.48 29.3879 389.524 48.8252C389.524 48.8252 393.202 37.9191 403.775 34.3611C417.953 29.59 438.602 35.5401 422.816 74.9283C422.816 74.9283 451.56 74.7809 445.828 96.1758C444.478 101.216 439.442 106.815 431.742 111.445C431.742 111.445 445.855 114.671 450.414 122.848C456.539 133.83 454.799 157.104 420.485 171.042C377.01 188.702 323.337 187.665 323.337 187.665" fill="#D8DDE2"/>
<path fill-rule="evenodd" clip-rule="evenodd" d="M115.607 295.704C106.122 252.531 365.311 188.963 365.311 188.963C361.528 145.922 399.032 154.077 399.032 154.077C396.882 153.611 411.905 124.636 413.671 122.25C419.513 114.376 426.58 106.369 436.164 104.729C471.097 98.7596 445.098 168.179 439.965 181.365C460.533 217.716 422.899 221.069 422.899 221.069C444.674 241.451 442.121 259.588 432.868 273.302C423.341 287.425 407.41 295.704 390.534 295.704H115.607Z" fill="#D0E3FF"/>
<path fill-rule="evenodd" clip-rule="evenodd" d="M299.709 295.1H390.767C407.545 295.1 423.119 286.875 432.433 273.1C443.949 256.065 440.636 238.878 422.587 222.018C422.368 221.815 422.29 221.499 422.386 221.215C422.482 220.93 422.734 220.73 423.028 220.703C423.182 220.69 438.398 219.21 443.696 208.934C447.145 202.243 445.73 193.268 439.488 182.259C439.374 182.058 439.356 181.817 439.44 181.602C444.643 168.272 460.751 123.712 449.722 109.939C446.934 106.457 442.474 105.21 436.47 106.235C427.158 107.825 420.127 115.808 414.477 123.408C413.687 124.474 409.873 131.555 406.322 138.75C401.526 148.473 399.823 153.055 399.792 154.147C399.964 154.323 400.045 154.579 399.991 154.837C399.907 155.238 399.525 155.495 399.129 155.427C399.12 155.425 399.108 155.423 399.099 155.421C398.948 155.388 383.855 152.252 374.211 160.892C367.813 166.622 365.161 176.209 366.32 189.388C366.344 189.637 366.242 189.882 366.05 190.041C365.861 190.199 346.899 206.095 329.343 227.026C319.052 239.297 311.252 250.869 306.161 261.419C299.967 274.252 297.799 285.58 299.709 295.1ZM390.767 296.62H299.099C298.748 296.62 298.444 296.374 298.366 296.024C296.168 286.036 298.336 274.167 304.815 260.745C309.963 250.079 317.836 238.398 328.21 226.027C344.631 206.453 362.274 191.263 364.791 189.125C363.674 175.639 366.509 165.755 373.222 159.748C382.02 151.875 394.596 153.145 398.342 153.741C398.582 152.237 399.841 148.506 404.839 138.354C408.215 131.5 412.315 123.794 413.276 122.496C419.106 114.656 426.387 106.416 436.217 104.737C442.795 103.615 447.733 105.043 450.89 108.982C456.008 115.373 456.348 128.281 451.899 147.348C448.688 161.112 443.729 174.722 440.969 181.82C447.331 193.169 448.697 202.528 445.024 209.643C440.344 218.711 428.997 221.331 424.765 222.006C434.178 231.132 439.449 240.513 440.443 249.906C441.293 257.961 439.014 266.053 433.67 273.957C424.08 288.148 408.04 296.62 390.767 296.62V296.62Z" fill="white"/>
<path fill-rule="evenodd" clip-rule="evenodd" d="M371.537 267.324C371.427 267.324 371.318 267.3 371.211 267.251C370.83 267.072 370.668 266.62 370.848 266.24L447.139 105.716C447.319 105.337 447.774 105.175 448.155 105.355C448.536 105.534 448.698 105.987 448.518 106.366L372.226 266.89C372.095 267.163 371.821 267.324 371.537 267.324" fill="white"/>
<path fill-rule="evenodd" clip-rule="evenodd" d="M419.445 254.507C419.372 254.507 419.295 254.498 419.221 254.474L385.049 244.092C384.644 243.968 384.417 243.542 384.54 243.141C384.666 242.739 385.092 242.517 385.5 242.639L419.669 253.02C420.074 253.145 420.3 253.571 420.178 253.972C420.077 254.297 419.773 254.507 419.445 254.507" fill="white"/>
<path fill-rule="evenodd" clip-rule="evenodd" d="M386.145 130.915C386.073 130.915 385.998 130.904 385.925 130.88C385.544 130.752 385.336 130.324 385.457 129.923L415.139 31.6573C415.26 31.2562 415.667 31.0354 416.046 31.1627C416.427 31.2903 416.635 31.7185 416.516 32.1192L386.832 130.385C386.734 130.709 386.451 130.915 386.145 130.915" fill="white"/>
<path fill-rule="evenodd" clip-rule="evenodd" d="M401.134 81.4789C400.983 81.4789 400.83 81.436 400.698 81.3468L359.204 53.5388C358.854 53.305 358.768 52.8418 359.011 52.5038C359.25 52.1655 359.729 52.0819 360.076 52.3152L401.57 80.1231C401.92 80.357 402.006 80.8202 401.763 81.1582C401.616 81.367 401.376 81.4789 401.134 81.4789" fill="white"/>
<path fill-rule="evenodd" clip-rule="evenodd" d="M63.9229 185.845C63.5379 185.845 63.2088 185.629 63.1723 185.341C63.1334 185.036 63.438 184.765 63.8531 184.736L100.794 182.185C101.208 182.159 101.577 182.381 101.616 182.687C101.655 182.992 101.35 183.263 100.935 183.292L63.9941 185.843C63.9703 185.844 63.9464 185.845 63.9229 185.845" fill="white"/>
<path fill-rule="evenodd" clip-rule="evenodd" d="M238.203 172.992C236.174 175.971 230.86 175.567 227.77 176.019C222.626 176.769 217.661 178.191 212.431 178.458C200.938 179.053 182.96 175.579 180.247 162.034C178.459 153.107 183.898 144.584 189.242 137.983C189.242 137.983 169.495 143.427 161.874 138.519C145.432 127.93 159.944 107.843 159.944 107.843C159.944 107.843 154.606 107.565 151.973 107.068C145.364 105.82 139.317 99.9643 137.781 93.3858C134.99 81.4405 145.542 74.5372 154.651 69.7933C154.651 69.7933 148.836 58.9245 152.043 49.8681C155.256 40.7984 166.906 33.821 183.813 49.7565C184.377 50.2876 184.946 50.8442 185.52 51.4251C186.196 52.0394 186.72 52.566 187.244 53.3552C186.481 43.7735 199.104 37.9176 207.091 39.6775C210.765 40.4871 214.111 42.7797 216.206 45.9168C218.74 49.7134 218.956 54.4254 218.949 58.8532C218.948 59.1138 218.946 59.3743 218.945 59.6349C218.945 59.6349 255.604 49.9727 261.121 90.3819C266.637 130.785 238.215 172.974 238.203 172.992" fill="#D8DDE2"/>
<path fill-rule="evenodd" clip-rule="evenodd" d="M253.772 73.2394C253.534 73.2394 253.3 73.114 253.159 72.8826C248.373 65.0519 241.194 60.5634 231.822 59.5421C224.799 58.7769 219.147 60.3502 219.091 60.3661C218.87 60.4288 218.634 60.3766 218.454 60.2248C218.273 60.073 218.168 59.8387 218.169 59.5911C218.171 59.3193 218.172 59.0471 218.173 58.775C218.18 54.2226 217.989 49.4585 215.627 45.6455C213.682 42.5063 210.613 40.242 207.206 39.4329C204.981 38.9046 202.278 39.0609 199.596 39.8734C199.205 39.9909 198.799 39.7445 198.689 39.3215C198.58 38.8982 198.809 38.4593 199.199 38.3406C202.11 37.4593 205.065 37.295 207.522 37.8784C211.295 38.7744 214.695 41.2825 216.849 44.7594C219.409 48.8926 219.645 53.855 219.644 58.5993C221.574 58.1693 226.299 57.3405 231.969 57.9586C238.729 58.6954 248.106 61.7303 254.385 72.0048C254.609 72.3711 254.516 72.8648 254.177 73.1073C254.053 73.1964 253.912 73.2394 253.772 73.2394" fill="white"/>
<path fill-rule="evenodd" clip-rule="evenodd" d="M240.014 146.479C239.795 146.479 239.577 146.386 239.426 146.207L162.216 54.3199C161.948 54.0016 161.995 53.5311 162.319 53.269C162.643 53.0069 163.123 53.0523 163.39 53.3705L240.601 145.258C240.868 145.576 240.822 146.046 240.497 146.308C240.356 146.423 240.184 146.479 240.014 146.479" fill="white"/>
<path fill-rule="evenodd" clip-rule="evenodd" d="M192.135 89.7183C192.082 89.7183 192.027 89.7133 191.972 89.7026C191.541 89.6191 191.265 89.2269 191.355 88.8263L198.001 59.1814C198.09 58.7812 198.512 58.5231 198.943 58.6076C199.374 58.6911 199.65 59.0833 199.56 59.4838L192.914 89.1285C192.836 89.4781 192.505 89.7183 192.135 89.7183" fill="white"/>
<path fill-rule="evenodd" clip-rule="evenodd" d="M180.19 121.761C179.805 121.761 179.476 121.545 179.44 121.257C179.401 120.951 179.706 120.68 180.121 120.652L217.062 118.101C217.475 118.074 217.845 118.297 217.884 118.602C217.923 118.908 217.618 119.179 217.203 119.207L180.262 121.758C180.238 121.76 180.214 121.761 180.19 121.761" fill="white"/>
<path fill-rule="evenodd" clip-rule="evenodd" d="M111.638 195.916C111.594 195.916 111.551 195.913 111.507 195.907C111.036 195.843 110.712 195.452 110.784 195.033L119.13 146.215C119.202 145.796 119.641 145.509 120.112 145.572C120.583 145.636 120.907 146.027 120.835 146.446L112.489 195.264C112.424 195.643 112.056 195.916 111.638 195.916" fill="white"/>
<path fill-rule="evenodd" clip-rule="evenodd" d="M397.156 96.1267C396.778 96.1267 396.451 95.8094 396.412 95.3825C396.37 94.9263 396.667 94.5177 397.081 94.4699L445.934 88.8074C446.342 88.7592 446.714 89.0908 446.756 89.5469C446.801 90.0031 446.501 90.4117 446.09 90.4595L397.237 96.122C397.21 96.125 397.183 96.1267 397.156 96.1267" fill="white"/>
<path fill-rule="evenodd" clip-rule="evenodd" d="M488.416 119.93C488.163 119.93 487.958 119.673 487.958 119.357V116.84C487.958 116.524 488.163 116.268 488.416 116.268C488.668 116.268 488.874 116.524 488.874 116.84V119.357C488.874 119.673 488.668 119.93 488.416 119.93" fill="#F0E6FF"/>
<path fill-rule="evenodd" clip-rule="evenodd" d="M488.416 128.169C488.163 128.169 487.958 127.913 487.958 127.596V125.08C487.958 124.763 488.163 124.507 488.416 124.507C488.668 124.507 488.874 124.763 488.874 125.08V127.596C488.874 127.913 488.668 128.169 488.416 128.169" fill="#F0E6FF"/>
<path fill-rule="evenodd" clip-rule="evenodd" d="M493.793 121.76H491.277C490.961 121.76 490.704 121.556 490.704 121.303C490.704 121.05 490.961 120.845 491.277 120.845H493.793C494.112 120.845 494.366 121.05 494.366 121.303C494.366 121.556 494.112 121.76 493.793 121.76" fill="#F0E6FF"/>
<path fill-rule="evenodd" clip-rule="evenodd" d="M485.554 121.76H483.038C482.722 121.76 482.465 121.556 482.465 121.303C482.465 121.05 482.722 120.845 483.038 120.845H485.554C485.872 120.845 486.127 121.05 486.127 121.303C486.127 121.556 485.872 121.76 485.554 121.76" fill="#F0E6FF"/>
<path fill-rule="evenodd" clip-rule="evenodd" d="M438.063 3.66197C437.811 3.66197 437.605 3.40556 437.605 3.08911V0.572863C437.605 0.256414 437.811 0 438.063 0C438.316 0 438.521 0.256414 438.521 0.572863V3.08911C438.521 3.40556 438.316 3.66197 438.063 3.66197" fill="#F0E6FF"/>
<path fill-rule="evenodd" clip-rule="evenodd" d="M438.063 11.9015C437.811 11.9015 437.605 11.6451 437.605 11.3286V8.81237C437.605 8.49592 437.811 8.2395 438.063 8.2395C438.316 8.2395 438.521 8.49592 438.521 8.81237V11.3286C438.521 11.6451 438.316 11.9015 438.063 11.9015" fill="#F0E6FF"/>
<path fill-rule="evenodd" clip-rule="evenodd" d="M442.526 7.32394H440.009C439.691 7.32394 439.437 7.11905 439.437 6.86619C439.437 6.61333 439.691 6.40845 440.009 6.40845H442.526C442.842 6.40845 443.098 6.61333 443.098 6.86619C443.098 7.11905 442.842 7.32394 442.526 7.32394" fill="#F0E6FF"/>
<path fill-rule="evenodd" clip-rule="evenodd" d="M434.286 7.32394H431.77C431.454 7.32394 431.197 7.11905 431.197 6.86619C431.197 6.61333 431.454 6.40845 431.77 6.40845H434.286C434.603 6.40845 434.859 6.61333 434.859 6.86619C434.859 7.11905 434.603 7.32394 434.286 7.32394" fill="#F0E6FF"/>
<path fill-rule="evenodd" clip-rule="evenodd" d="M492.535 68.5838L482.831 69.5774L474.226 56.8385L483.93 55.845L492.535 68.5838" fill="#D0E3FF"/>
<path fill-rule="evenodd" clip-rule="evenodd" d="M483.386 54.8255L473.31 55.845L484.293 45.8787L494.366 44.8591L483.386 54.8255" fill="#D0E3FF"/>
<path fill-rule="evenodd" clip-rule="evenodd" d="M495.4 44.8591L504.437 57.8454L493.332 67.7465L484.296 54.7599L495.4 44.8591" fill="#D0E3FF"/>
<path fill-rule="evenodd" clip-rule="evenodd" d="M491.7 68.6619C491.471 68.6619 491.248 68.5508 491.11 68.3446L482.588 55.6619C482.388 55.3634 482.436 54.961 482.7 54.7177L493.169 45.0483C493.461 44.7785 493.913 44.7999 494.179 45.0958C494.445 45.3917 494.425 45.8503 494.133 46.1201L484.122 55.3657L492.293 67.5286C492.516 67.8599 492.43 68.3107 492.104 68.5363C491.981 68.6213 491.84 68.6619 491.7 68.6619" fill="white"/>
<path fill-rule="evenodd" clip-rule="evenodd" d="M473.105 57.6762C472.743 57.6762 472.435 57.363 472.398 56.9424C472.358 56.4937 472.643 56.0934 473.034 56.0477L482.596 54.9342C482.992 54.8871 483.337 55.2153 483.377 55.6637C483.417 56.1123 483.132 56.513 482.738 56.5584L473.179 57.6722C473.153 57.6749 473.128 57.6762 473.105 57.6762" fill="white"/>
<path fill-rule="evenodd" clip-rule="evenodd" d="M493.608 43.9436C493.259 43.9436 492.946 43.6934 492.867 43.3258L491.638 37.5794C491.547 37.1542 491.805 36.7327 492.215 36.6383C492.625 36.5446 493.028 36.8122 493.119 37.2371L494.348 42.9835C494.439 43.4088 494.181 43.8303 493.772 43.9246C493.717 43.9373 493.662 43.9436 493.608 43.9436" fill="#F0E6FF"/>
<path fill-rule="evenodd" clip-rule="evenodd" d="M498.595 44.8593C498.364 44.8593 498.15 44.673 498.064 44.3718C497.955 43.9843 498.104 43.553 498.396 43.4087L500.927 42.16C501.219 42.0159 501.546 42.2127 501.655 42.6005C501.763 42.988 501.614 43.4189 501.323 43.5632L498.791 44.812C498.726 44.844 498.66 44.8593 498.595 44.8593" fill="#F0E6FF"/>
<path fill-rule="evenodd" clip-rule="evenodd" d="M15.5634 39.8545L8.54366 56.7604L1.83105 29.2957L15.5634 39.8545" fill="#D0E3FF"/>
<path fill-rule="evenodd" clip-rule="evenodd" d="M3.00355 30.9794L9.17933 53.7285L15.6379 39.7252L3.00355 30.9794ZM9.17058 56.7396C9.09123 56.7581 9.00843 56.7648 8.92408 56.7581C8.59415 56.7316 8.31734 56.5058 8.23267 56.1945L0.94152 29.3357C0.857477 29.0262 0.981511 28.6981 1.25176 28.5158C1.52201 28.3333 1.88068 28.3354 2.14906 28.5213L17.0657 38.8469C17.3697 39.0572 17.4784 39.4476 17.3259 39.7787L9.70046 56.3117C9.59955 56.5305 9.40116 56.6857 9.17058 56.7396V56.7396Z" fill="white"/>
<path fill-rule="evenodd" clip-rule="evenodd" d="M1.83105 29.2957L27.4649 31.2614L16.0038 39.3661L1.83105 29.2957" fill="#D0E3FF"/>
<path fill-rule="evenodd" clip-rule="evenodd" d="M28.3802 31.1267L23.3799 46.1555L10.0703 54.9295L17.1618 39.089L28.3802 31.1267" fill="#D0E3FF"/>
<path fill-rule="evenodd" clip-rule="evenodd" d="M17.7146 40.4337L11.611 54.0095L22.8383 46.64L27.1371 33.775L17.7146 40.4337ZM10.0685 56.74C9.84282 56.7942 9.59882 56.7406 9.41493 56.5838C9.16441 56.3705 9.08505 56.0175 9.21978 55.7177L16.4469 39.6434C16.5011 39.5227 16.587 39.4188 16.695 39.3425L28.1276 31.2625C28.3888 31.0779 28.7394 31.0817 28.9968 31.2726C29.2538 31.4631 29.3589 31.7972 29.2573 32.1008L24.1614 47.3517C24.109 47.5091 24.0048 47.6446 23.8659 47.7354L10.3015 56.6391C10.2287 56.6871 10.1496 56.7205 10.0685 56.74V56.74Z" fill="white"/>
<path fill-rule="evenodd" clip-rule="evenodd" d="M15.8807 39.3466C15.6689 39.3926 15.4367 39.3588 15.2452 39.2357L0.328827 29.6608C-0.02297 29.4351 -0.105452 28.9946 0.144493 28.6771C0.394438 28.3596 0.88183 28.2851 1.23363 28.5109L16.1503 38.0858C16.5018 38.3115 16.5843 38.7518 16.3344 39.0695C16.2206 39.2137 16.0579 39.308 15.8807 39.3466" fill="white"/>
<path fill-rule="evenodd" clip-rule="evenodd" d="M10.0659 57.6543C9.91468 57.6927 9.75104 57.6812 9.59744 57.6103C9.22377 57.4374 9.05334 56.9773 9.21698 56.5824L16.4998 38.9989C16.5547 38.8662 16.6433 38.7523 16.7561 38.6702L28.1368 30.35C28.4724 30.1047 28.9323 30.193 29.1642 30.5476C29.3967 30.9022 29.3125 31.3879 28.9772 31.6332L17.7687 39.8273L10.5701 57.2083C10.4736 57.4408 10.2827 57.5991 10.0659 57.6543" fill="white"/>
<path fill-rule="evenodd" clip-rule="evenodd" d="M518.169 159.724L498.551 143.732L487.958 157.738L507.819 173.944L518.169 159.724" fill="#D0E3FF"/>
<path fill-rule="evenodd" clip-rule="evenodd" d="M517.135 173.265C514.197 177.272 508.998 178.776 505.525 176.623C502.048 174.47 501.616 169.476 504.554 165.468C507.492 161.46 512.691 159.956 516.168 162.109C519.641 164.262 520.073 169.257 517.135 173.265" fill="#D0E3FF"/>
<path fill-rule="evenodd" clip-rule="evenodd" d="M511.914 167.535C511.743 167.535 511.569 167.482 511.429 167.372L491.899 152.324C491.573 152.073 491.527 151.623 491.793 151.317C492.061 151.012 492.544 150.969 492.868 151.219L512.397 166.267C512.724 166.518 512.77 166.969 512.504 167.274C512.351 167.447 512.134 167.535 511.914 167.535" fill="white"/>
<path fill-rule="evenodd" clip-rule="evenodd" d="M498.826 155.87C495.888 159.878 490.689 161.382 487.213 159.229C483.739 157.076 483.307 152.081 486.245 148.073C489.183 144.065 494.382 142.562 497.855 144.715C501.332 146.868 501.764 151.862 498.826 155.87" fill="#D0E3FF"/>
<path fill-rule="evenodd" clip-rule="evenodd" d="M513.321 162.556C510.945 162.556 508.345 163.972 506.638 166.447C505.437 168.192 504.861 170.188 505.014 172.068C505.161 173.888 505.983 175.377 507.323 176.261C510.146 178.123 514.434 176.75 516.881 173.2C518.083 171.456 518.662 169.46 518.506 167.58C518.359 165.76 517.539 164.271 516.197 163.387C515.342 162.823 514.352 162.556 513.321 162.556ZM510.181 178.521C508.871 178.521 507.602 178.177 506.503 177.452C504.785 176.319 503.733 174.447 503.551 172.182C503.369 169.979 504.036 167.657 505.422 165.644C508.321 161.438 513.524 159.891 517.017 162.195C518.738 163.329 519.787 165.201 519.972 167.465C520.151 169.668 519.487 171.991 518.098 174.003C516.112 176.887 513.042 178.521 510.181 178.521V178.521Z" fill="white"/>
<path fill-rule="evenodd" clip-rule="evenodd" d="M494.102 144.246C491.725 144.246 489.124 145.663 487.416 148.138C486.214 149.882 485.635 151.878 485.791 153.758C485.938 155.578 486.761 157.067 488.101 157.952C490.925 159.813 495.216 158.44 497.664 154.891C500.109 151.341 499.803 146.938 496.979 145.077C496.124 144.513 495.134 144.246 494.102 144.246ZM490.96 160.211C489.647 160.211 488.38 159.868 487.281 159.143C485.559 158.009 484.51 156.137 484.325 153.873C484.145 151.669 484.81 149.347 486.2 147.334C489.1 143.128 494.305 141.581 497.799 143.885C501.296 146.19 501.781 151.488 498.88 155.694C496.894 158.577 493.82 160.211 490.96 160.211V160.211Z" fill="white"/>
<path d="M233.254 240.775H167.534C139.77 240.775 117.183 218.134 117.183 190.3C117.183 170.968 129.742 150.901 147.05 142.585L149.683 141.324V138.392C149.683 137.801 149.72 137.201 149.752 136.596L149.794 135.851L149.738 134.874C149.71 134.497 149.683 134.12 149.683 133.738C149.683 115.779 164.266 101.162 182.183 101.162C183.617 101.162 185.033 101.288 186.44 101.474C186.802 101.52 187.164 101.581 187.522 101.641C188.762 101.846 189.983 102.116 191.185 102.465C191.348 102.512 191.515 102.544 191.677 102.591C193 102.996 194.291 103.508 195.554 104.085C195.884 104.234 196.204 104.396 196.529 104.555C197.643 105.108 198.734 105.713 199.788 106.398C208.735 112.205 214.683 122.281 214.683 133.738C214.683 136.312 216.758 138.392 219.325 138.392C221.893 138.392 223.968 136.312 223.968 133.738C223.968 120.922 218.183 109.45 209.111 101.762C222.422 84.3108 244.341 73.2395 266.149 73.2395C302.108 73.2395 331.97 101.79 335.086 137.871C330.341 137.536 323.237 137.364 316.129 138.448C313.594 138.834 311.853 141.208 312.238 143.749C312.587 146.052 314.564 147.704 316.821 147.704C317.053 147.704 317.29 147.686 317.522 147.648C327.862 146.08 338.638 147.551 339.269 147.639C360.886 151.758 377.183 171.718 377.183 194.107C377.183 219.837 356.294 240.775 330.624 240.775H270.397H233.254Z" fill="#1063FE"/>
<path fill-rule="evenodd" clip-rule="evenodd" d="M170.373 235.259C170.312 235.265 170.252 235.28 170.191 235.304L170.373 235.259" fill="#2A0055"/>
<path fill-rule="evenodd" clip-rule="evenodd" d="M448.926 276.479C448.665 276.479 448.427 276.29 448.363 276.011L436.707 225.046C436.631 224.719 436.823 224.391 437.136 224.313C437.446 224.235 437.759 224.435 437.835 224.762L449.491 275.728C449.566 276.053 449.375 276.382 449.062 276.461C449.018 276.473 448.972 276.479 448.926 276.479" fill="white"/>
<path fill-rule="evenodd" clip-rule="evenodd" d="M461.72 276.479H437.295C436.959 276.479 436.69 276.273 436.69 276.021C436.69 275.767 436.959 275.563 437.295 275.563H461.72C462.052 275.563 462.324 275.767 462.324 276.021C462.324 276.273 462.052 276.479 461.72 276.479" fill="white"/>
</svg>
