<svg width="546" height="293" viewBox="0 0 546 293" fill="none" xmlns="http://www.w3.org/2000/svg">
<path fill-rule="evenodd" clip-rule="evenodd" d="M79.9961 276.299H91.6863V257.348H79.9961V276.299Z" fill="white"/>
<path fill-rule="evenodd" clip-rule="evenodd" d="M330.748 101.817C330.531 101.817 330.355 101.642 330.355 101.425V98.1744C330.355 97.9576 330.531 97.782 330.748 97.782C330.965 97.782 331.14 97.9576 331.14 98.1744V101.425C331.14 101.642 330.965 101.817 330.748 101.817" fill="#F0E6FF"/>
<path fill-rule="evenodd" clip-rule="evenodd" d="M330.748 109.51C330.531 109.51 330.355 109.335 330.355 109.118V105.867C330.355 105.651 330.531 105.475 330.748 105.475C330.965 105.475 331.14 105.651 331.14 105.867V109.118C331.14 109.335 330.965 109.51 330.748 109.51" fill="#F0E6FF"/>
<path fill-rule="evenodd" clip-rule="evenodd" d="M336.218 104.039H332.967C332.75 104.039 332.574 103.863 332.574 103.646C332.574 103.429 332.75 103.254 332.967 103.254H336.218C336.434 103.254 336.61 103.429 336.61 103.646C336.61 103.863 336.434 104.039 336.218 104.039" fill="#F0E6FF"/>
<path fill-rule="evenodd" clip-rule="evenodd" d="M328.524 104.039H325.275C325.058 104.039 324.883 103.863 324.883 103.646C324.883 103.429 325.058 103.254 325.275 103.254H328.524C328.741 103.254 328.916 103.429 328.916 103.646C328.916 103.863 328.741 104.039 328.524 104.039" fill="#F0E6FF"/>
<path fill-rule="evenodd" clip-rule="evenodd" d="M522.458 118.152H428.945C428.895 117.633 428.867 117.114 428.867 116.584C428.867 107.327 436.38 99.8162 445.635 99.8162C446.883 99.8162 448.106 99.9536 449.276 100.213C453.086 92.3616 461.13 86.9539 470.438 86.9539C479.655 86.9539 487.628 92.2596 491.479 99.9841C492.257 99.8721 493.058 99.8162 493.868 99.8162C500.374 99.8162 506.012 103.523 508.797 108.936C509.6 108.753 510.442 108.656 511.302 108.656C516.928 108.656 521.598 112.77 522.458 118.152" fill="#CFE4FF"/>
<path fill-rule="evenodd" clip-rule="evenodd" d="M427.229 291.388L375.381 291.625L374.934 44.0362L426.782 43.8005L427.229 291.388" fill="#CFE4FF"/>
<path fill-rule="evenodd" clip-rule="evenodd" d="M400.594 0.335938L451.759 57.8184L400.857 58.05L349.957 58.2811L400.594 0.335938" fill="#CFE4FF"/>
<path fill-rule="evenodd" clip-rule="evenodd" d="M260.912 26.3338C258.516 26.3338 256.568 28.2819 256.568 30.6764C256.568 33.0709 258.516 35.019 260.912 35.019C263.305 35.019 265.253 33.0709 265.253 30.6764C265.253 28.2819 263.305 26.3338 260.912 26.3338ZM260.912 36.3055C257.807 36.3055 255.281 33.7802 255.281 30.6764C255.281 27.5726 257.807 25.0474 260.912 25.0474C264.014 25.0474 266.54 27.5726 266.54 30.6764C266.54 33.7802 264.014 36.3055 260.912 36.3055V36.3055Z" fill="#CFE4FF"/>
<path fill-rule="evenodd" clip-rule="evenodd" d="M466.122 50.4708L468.398 51.7162C468.506 51.7753 468.595 51.8638 468.654 51.972L469.899 54.249L471.145 51.972C471.204 51.8638 471.293 51.7753 471.401 51.7162L473.677 50.4708L471.401 49.2254C471.293 49.1666 471.204 49.0778 471.145 48.9699L469.899 46.6929L468.654 48.9699C468.595 49.0778 468.506 49.1666 468.398 49.2254L466.122 50.4708ZM469.899 56.2324C469.664 56.2324 469.448 56.1042 469.336 55.898L467.616 52.7545L464.472 51.0353C464.267 50.9223 464.137 50.7058 464.137 50.4708C464.137 50.2356 464.267 50.0194 464.472 49.9067L467.616 48.1874L469.336 45.0439C469.448 44.8377 469.664 44.7095 469.899 44.7095C470.134 44.7095 470.351 44.8377 470.463 45.0439L472.183 48.1874L475.327 49.9067C475.532 50.0194 475.66 50.2356 475.66 50.4708C475.66 50.7058 475.532 50.9223 475.327 51.0353L472.183 52.7545L470.463 55.898C470.351 56.1042 470.134 56.2324 469.899 56.2324V56.2324Z" fill="#CFE4FF"/>
<path fill-rule="evenodd" clip-rule="evenodd" d="M209.025 246.637L211.305 247.88C211.412 247.939 211.501 248.028 211.56 248.138L212.806 250.414L214.049 248.138C214.108 248.028 214.197 247.939 214.305 247.88L216.581 246.637L214.305 245.391C214.197 245.332 214.108 245.243 214.049 245.135L212.806 242.859L211.56 245.135C211.501 245.243 211.412 245.332 211.305 245.391L209.025 246.637ZM212.806 252.397C212.568 252.397 212.354 252.269 212.24 252.062L210.522 248.92L207.378 247.2C207.171 247.086 207.043 246.871 207.043 246.637C207.043 246.399 207.171 246.185 207.378 246.071L210.522 244.353L212.24 241.209C212.354 241.002 212.568 240.874 212.806 240.874C213.041 240.874 213.255 241.002 213.369 241.209L215.087 244.353L218.231 246.071C218.438 246.185 218.566 246.399 218.566 246.637C218.566 246.871 218.438 247.086 218.231 247.2L215.087 248.92L213.369 252.062C213.255 252.269 213.041 252.397 212.806 252.397V252.397Z" fill="#CFE4FF"/>
<path fill-rule="evenodd" clip-rule="evenodd" d="M200.678 84.6212L202.955 85.8666C203.064 85.9257 203.151 86.0142 203.21 86.1221L204.456 88.3992L205.701 86.1221C205.761 86.0142 205.85 85.9257 205.957 85.8666L208.234 84.6212L205.957 83.3758C205.85 83.317 205.761 83.2282 205.701 83.1203L204.456 80.8433L203.21 83.1203C203.151 83.2282 203.064 83.317 202.955 83.3758L200.678 84.6212ZM204.456 90.3828C204.221 90.3828 204.004 90.2546 203.892 90.0481L202.172 86.9049L199.028 85.1854C198.823 85.0727 198.695 84.8562 198.695 84.6212C198.695 84.386 198.823 84.1697 199.028 84.057L202.172 82.3378L203.892 79.1943C204.004 78.9878 204.221 78.8596 204.456 78.8596C204.691 78.8596 204.907 78.9878 205.022 79.1943L206.739 82.3378L209.883 84.057C210.088 84.1697 210.219 84.386 210.219 84.6212C210.219 84.8562 210.088 85.0727 209.883 85.1854L206.739 86.9049L205.022 90.0481C204.907 90.2546 204.691 90.3828 204.456 90.3828V90.3828Z" fill="#CFE4FF"/>
<path fill-rule="evenodd" clip-rule="evenodd" d="M499.987 251.11C499.631 251.11 499.344 250.823 499.344 250.467V247.643C499.344 247.287 499.631 246.999 499.987 246.999C500.343 246.999 500.63 247.287 500.63 247.643V250.467C500.63 250.823 500.343 251.11 499.987 251.11" fill="#72ACFF"/>
<path fill-rule="evenodd" clip-rule="evenodd" d="M499.987 257.797C499.631 257.797 499.344 257.507 499.344 257.154V254.327C499.344 253.973 499.631 253.684 499.987 253.684C500.343 253.684 500.63 253.973 500.63 254.327V257.154C500.63 257.507 500.343 257.797 499.987 257.797" fill="#72ACFF"/>
<path fill-rule="evenodd" clip-rule="evenodd" d="M504.743 253.04H501.917C501.561 253.04 501.273 252.753 501.273 252.397C501.273 252.041 501.561 251.754 501.917 251.754H504.743C505.097 251.754 505.387 252.041 505.387 252.397C505.387 252.753 505.097 253.04 504.743 253.04" fill="#72ACFF"/>
<path fill-rule="evenodd" clip-rule="evenodd" d="M498.056 253.04H495.229C494.876 253.04 494.586 252.753 494.586 252.397C494.586 252.041 494.876 251.754 495.229 251.754H498.056C498.412 251.754 498.699 252.041 498.699 252.397C498.699 252.753 498.412 253.04 498.056 253.04" fill="#72ACFF"/>
<path fill-rule="evenodd" clip-rule="evenodd" d="M489.036 189.196L480.86 186.29L478.766 172.844L486.94 175.752L489.036 189.196" fill="#CFE4FF"/>
<path fill-rule="evenodd" clip-rule="evenodd" d="M486.94 175.752L478.766 172.844L490.941 169.129L499.118 172.038L486.94 175.752" fill="#CFE4FF"/>
<path fill-rule="evenodd" clip-rule="evenodd" d="M499.119 172.038L501.214 185.482L489.038 189.196L486.941 175.752L499.119 172.038" fill="#CFE4FF"/>
<path fill-rule="evenodd" clip-rule="evenodd" d="M488.76 189.778C488.575 189.691 488.433 189.516 488.399 189.297L486.305 175.851C486.255 175.535 486.446 175.231 486.752 175.137L498.93 171.423C499.27 171.319 499.628 171.511 499.733 171.85C499.836 172.19 499.644 172.55 499.304 172.653L487.662 176.205L489.67 189.098C489.725 189.45 489.485 189.778 489.134 189.833C489.001 189.853 488.871 189.833 488.76 189.778" fill="white"/>
<path fill-rule="evenodd" clip-rule="evenodd" d="M478.487 173.425C478.193 173.285 478.047 172.942 478.159 172.628C478.277 172.293 478.645 172.119 478.98 172.238L487.156 175.146C487.494 175.266 487.665 175.633 487.546 175.968C487.428 176.303 487.058 176.477 486.725 176.358L478.549 173.45C478.528 173.442 478.508 173.434 478.487 173.425" fill="white"/>
<path fill-rule="evenodd" clip-rule="evenodd" d="M498.822 169.188C498.558 169.062 498.405 168.764 498.473 168.465L499.541 163.785C499.621 163.438 499.965 163.222 500.31 163.301C500.659 163.38 500.873 163.725 500.796 164.071L499.726 168.75C499.648 169.097 499.304 169.314 498.957 169.235C498.909 169.224 498.866 169.208 498.822 169.188" fill="#CFE4FF"/>
<path fill-rule="evenodd" clip-rule="evenodd" d="M502.195 172.579C501.96 172.467 501.808 172.218 501.83 171.942C501.862 171.589 502.175 171.326 502.528 171.357L505.59 171.623C505.944 171.654 506.206 171.965 506.176 172.319C506.144 172.673 505.834 172.935 505.478 172.904L502.417 172.639C502.337 172.632 502.264 172.611 502.195 172.579" fill="#CFE4FF"/>
<path fill-rule="evenodd" clip-rule="evenodd" d="M27.1917 292.768H0.869457C0.497138 292.768 0.195312 292.467 0.195312 292.093C0.195312 291.721 0.497138 291.42 0.869457 291.42H27.1917C27.564 291.42 27.8658 291.721 27.8658 292.093C27.8658 292.467 27.564 292.768 27.1917 292.768" fill="#2A0055"/>
<path fill-rule="evenodd" clip-rule="evenodd" d="M544.457 292.768H527.066C526.694 292.768 526.391 292.467 526.391 292.093C526.391 291.721 526.694 291.42 527.066 291.42H544.457C544.831 291.42 545.132 291.721 545.132 292.093C545.132 292.467 544.831 292.768 544.457 292.768" fill="#2A0055"/>
<path fill-rule="evenodd" clip-rule="evenodd" d="M114.317 277.604C101.06 277.604 88.1976 275.008 76.0881 269.886C64.3927 264.938 53.89 257.858 44.8708 248.838C35.8521 239.82 28.7709 229.316 23.8243 217.622C18.7024 205.512 16.1055 192.65 16.1055 179.392C16.1055 166.134 18.7024 153.272 23.8243 141.163C28.7709 129.467 35.8521 118.964 44.8708 109.945C53.89 100.927 64.3927 93.8452 76.0881 88.8987C88.1976 83.7768 101.06 81.1797 114.317 81.1797C133.997 81.1797 152.987 86.9803 169.231 97.9541C170.25 98.6433 170.52 100.029 169.831 101.049C169.139 102.07 167.755 102.338 166.735 101.649C151.231 91.1746 133.105 85.6384 114.317 85.6384C62.6217 85.6384 20.5639 127.696 20.5639 179.392C20.5639 231.089 62.6217 273.146 114.317 273.146C166.014 273.146 208.071 231.089 208.071 179.392C208.071 153.837 197.974 129.954 179.641 112.142C178.758 111.284 178.737 109.873 179.595 108.99C180.455 108.107 181.865 108.087 182.748 108.944C192.07 118.001 199.397 128.617 204.526 140.497C209.837 152.798 212.529 165.884 212.529 179.392C212.529 192.65 209.933 205.512 204.811 217.622C199.865 229.316 192.784 239.82 183.763 248.838C174.745 257.858 164.241 264.938 152.547 269.886C140.438 275.008 127.575 277.604 114.317 277.604" fill="#CFE4FF"/>
<path fill-rule="evenodd" clip-rule="evenodd" d="M114.315 277.604C113.084 277.604 112.086 276.607 112.086 275.375V232.691C112.086 231.461 113.084 230.462 114.315 230.462C115.547 230.462 116.544 231.461 116.544 232.691V275.375C116.544 276.607 115.547 277.604 114.315 277.604" fill="#F0E6FF"/>
<path fill-rule="evenodd" clip-rule="evenodd" d="M210.3 181.621H18.3346C17.1033 181.621 16.1055 180.623 16.1055 179.392C16.1055 178.161 17.1033 177.163 18.3346 177.163H210.3C211.532 177.163 212.529 178.161 212.529 179.392C212.529 180.623 211.532 181.621 210.3 181.621" fill="#CFE4FF"/>
<path fill-rule="evenodd" clip-rule="evenodd" d="M91.1896 274.798C90.4541 274.798 89.7346 274.435 89.3091 273.769C82.4091 262.973 76.6128 252.103 72.0811 241.462C71.5988 240.329 72.126 239.019 73.2587 238.538C74.3914 238.054 75.7009 238.581 76.1832 239.715C80.6184 250.129 86.2986 260.779 93.066 271.369C93.729 272.405 93.4254 273.785 92.388 274.446C92.0161 274.684 91.6005 274.798 91.1896 274.798" fill="#F0E6FF"/>
<path fill-rule="evenodd" clip-rule="evenodd" d="M63.4889 208.043C62.4351 208.043 61.4981 207.292 61.2994 206.217C57.5952 186.201 58.0836 165.874 62.7515 145.804C67.3843 125.885 76.3191 105.434 89.3073 85.0184C89.9683 83.9799 91.3464 83.6733 92.3849 84.3342C93.4238 84.9951 93.73 86.3729 93.0691 87.4116C67.4117 127.741 58.4537 166.337 65.6835 205.405C65.9076 206.617 65.1077 207.78 63.8972 208.004C63.7601 208.029 63.6235 208.043 63.4889 208.043" fill="#CFE4FF"/>
<path fill-rule="evenodd" clip-rule="evenodd" d="M113.877 143.584C107.712 143.584 101.55 143.388 95.3924 142.995C94.1636 142.917 93.231 141.858 93.3093 140.629C93.3875 139.4 94.4433 138.466 95.6757 138.546C128.682 140.648 161.896 137.018 194.394 127.757C195.578 127.419 196.812 128.105 197.15 129.289C197.485 130.473 196.801 131.707 195.617 132.044C168.687 139.718 141.27 143.584 113.877 143.584" fill="#CFE4FF"/>
<path fill-rule="evenodd" clip-rule="evenodd" d="M84.6538 142.105C84.579 142.105 84.5035 142.101 84.4275 142.093C66.9269 140.328 49.1092 136.949 31.4692 132.048C30.2829 131.719 29.5882 130.49 29.9179 129.304C30.2473 128.118 31.4765 127.423 32.6624 127.753C50.0592 132.585 67.6259 135.918 84.8749 137.657C86.1 137.781 86.9927 138.874 86.8693 140.099C86.7534 141.248 85.7845 142.105 84.6538 142.105" fill="#F0E6FF"/>
<path fill-rule="evenodd" clip-rule="evenodd" d="M114.315 197.471C113.084 197.471 112.086 196.471 112.086 195.242V83.409C112.086 82.1778 113.084 81.1797 114.315 81.1797C115.547 81.1797 116.544 82.1778 116.544 83.409V195.242C116.544 196.471 115.547 197.471 114.315 197.471" fill="#CFE4FF"/>
<path fill-rule="evenodd" clip-rule="evenodd" d="M114.315 199.476C113.084 199.476 112.086 198.479 112.086 197.247V195.242C112.086 194.01 113.084 193.013 114.315 193.013C115.547 193.013 116.544 194.01 116.544 195.242V197.247C116.544 198.479 115.547 199.476 114.315 199.476" fill="#CFE4FF"/>
<path fill-rule="evenodd" clip-rule="evenodd" d="M114.315 277.604C113.084 277.604 112.086 276.607 112.086 275.375V232.691C112.086 231.461 113.084 230.462 114.315 230.462C115.547 230.462 116.544 231.461 116.544 232.691V275.375C116.544 276.607 115.547 277.604 114.315 277.604" fill="#F0E6FF"/>
<path fill-rule="evenodd" clip-rule="evenodd" d="M167.262 191.01C167.212 191.01 167.162 191.008 167.112 191.005C165.882 190.923 164.954 189.86 165.036 188.633C167.278 155.062 157.64 121.953 135.565 87.4155C134.903 86.3784 135.207 85 136.243 84.3366C137.281 83.6739 138.659 83.9771 139.322 85.0146C150.487 102.483 158.675 120.023 163.66 137.148C168.67 154.359 170.63 171.781 169.484 188.929C169.407 190.107 168.426 191.01 167.262 191.01" fill="#CFE4FF"/>
<path fill-rule="evenodd" clip-rule="evenodd" d="M137.443 274.798C137.033 274.798 136.62 274.686 136.248 274.449C135.21 273.789 134.902 272.411 135.564 271.371C146.427 254.295 154.408 237.198 159.283 220.558C159.627 219.376 160.866 218.699 162.048 219.046C163.23 219.39 163.907 220.629 163.561 221.811C158.569 238.855 150.415 256.335 139.326 273.764C138.901 274.433 138.18 274.798 137.443 274.798" fill="#CFE4FF"/>
<path fill-rule="evenodd" clip-rule="evenodd" d="M33.627 231.114C32.6563 231.114 31.7636 230.475 31.4844 229.494C31.147 228.31 31.8332 227.076 33.0172 226.741C36.0302 225.881 39.0818 225.062 42.0875 224.302C43.2809 223.998 44.4932 224.722 44.795 225.917C45.0966 227.11 44.3734 228.322 43.1798 228.623C40.2174 229.373 37.2092 230.181 34.2391 231.027C34.0349 231.087 33.8292 231.114 33.627 231.114" fill="#CFE4FF"/>
<path fill-rule="evenodd" clip-rule="evenodd" d="M161.422 223.415C161.306 223.415 161.187 223.405 161.069 223.385C157.929 222.883 154.754 222.427 151.626 222.025C150.405 221.87 149.541 220.754 149.698 219.532C149.853 218.311 150.969 217.444 152.192 217.604C155.365 218.01 158.589 218.473 161.773 218.982C162.987 219.178 163.815 220.321 163.621 221.537C163.446 222.632 162.499 223.415 161.422 223.415" fill="#F0E6FF"/>
<path fill-rule="evenodd" clip-rule="evenodd" d="M196.57 231.114C196.374 231.114 196.173 231.087 195.972 231.032C184.36 227.806 172.616 225.233 161.07 223.385C159.854 223.191 159.026 222.048 159.22 220.832C159.416 219.616 160.559 218.79 161.775 218.982C173.485 220.857 185.391 223.465 197.166 226.736C198.352 227.065 199.048 228.294 198.717 229.481C198.443 230.466 197.547 231.114 196.57 231.114" fill="#F0E6FF"/>
<path fill-rule="evenodd" clip-rule="evenodd" d="M71.7656 292.093H117.797V210.84H71.7656V292.093Z" fill="#006BFF"/>
<path fill-rule="evenodd" clip-rule="evenodd" d="M154.832 291.899H200.861V190.531H154.832V291.899Z" fill="#006BFF"/>
<path fill-rule="evenodd" clip-rule="evenodd" d="M237.895 291.703H283.926V156.422H237.895V291.703Z" fill="#006BFF"/>
<path fill-rule="evenodd" clip-rule="evenodd" d="M320.961 291.506H366.992V121.868H320.961V291.506Z" fill="#006BFF"/>
<path fill-rule="evenodd" clip-rule="evenodd" d="M404.023 291.31H450.055V70.1487H404.023V291.31Z" fill="#006BFF"/>
<path fill-rule="evenodd" clip-rule="evenodd" d="M57.6562 292.093H103.687V210.84H57.6562V292.093Z" fill="#006BFF"/>
<path fill-rule="evenodd" clip-rule="evenodd" d="M103.688 292.764C103.319 292.764 103.02 292.462 103.02 292.093V210.84C103.02 210.47 103.319 210.171 103.688 210.171C104.058 210.171 104.357 210.47 104.357 210.84V292.093C104.357 292.462 104.058 292.764 103.688 292.764" fill="white"/>
<path fill-rule="evenodd" clip-rule="evenodd" d="M140.723 291.899H186.754V190.531H140.723V291.899Z" fill="#006BFF"/>
<path fill-rule="evenodd" clip-rule="evenodd" d="M186.754 292.567C186.385 292.567 186.086 292.268 186.086 291.899V190.531C186.086 190.161 186.385 189.86 186.754 189.86C187.124 189.86 187.423 190.161 187.423 190.531V291.899C187.423 292.268 187.124 292.567 186.754 292.567" fill="white"/>
<path fill-rule="evenodd" clip-rule="evenodd" d="M223.785 291.703H269.814V156.422H223.785V291.703Z" fill="#006BFF"/>
<path fill-rule="evenodd" clip-rule="evenodd" d="M269.817 235.344C269.45 235.344 269.148 235.045 269.148 234.675V156.422C269.148 156.052 269.45 155.753 269.817 155.753C270.186 155.753 270.488 156.052 270.488 156.422V234.675C270.488 235.045 270.186 235.344 269.817 235.344" fill="white"/>
<path fill-rule="evenodd" clip-rule="evenodd" d="M306.848 291.506H352.879V121.868H306.848V291.506Z" fill="#006BFF"/>
<path fill-rule="evenodd" clip-rule="evenodd" d="M352.879 256.613C352.51 256.613 352.211 256.312 352.211 255.944V121.868C352.211 121.499 352.51 121.199 352.879 121.199C353.249 121.199 353.548 121.499 353.548 121.868V255.944C353.548 256.312 353.249 256.613 352.879 256.613" fill="white"/>
<path fill-rule="evenodd" clip-rule="evenodd" d="M389.914 291.536H435.945V70.3743H389.914V291.536Z" fill="#006BFF"/>
<path fill-rule="evenodd" clip-rule="evenodd" d="M367.285 114.872L403.322 153.822L428.189 98.6313L367.285 114.872" fill="#72ACFF"/>
<path fill-rule="evenodd" clip-rule="evenodd" d="M377.656 117.874L401.697 143.859L418.287 107.04L377.656 117.874ZM404.946 163.783L356.914 111.869L438.09 90.2231L404.946 163.783V163.783Z" fill="#72ACFF"/>
<path fill-rule="evenodd" clip-rule="evenodd" d="M117.003 245.254L117 234.107C117.347 234.107 152.331 233.92 202.742 220.684C249.184 208.488 318.62 182.391 385.674 127.334L392.748 135.949C362.388 160.876 329.023 182.132 293.575 199.127C265.222 212.722 235.477 223.638 205.174 231.568C153.471 245.099 118.468 245.254 117.003 245.254" fill="#72ACFF"/>
<path fill-rule="evenodd" clip-rule="evenodd" d="M435.704 269.852V269.852C435.334 269.849 435.035 269.551 435.035 269.181L435.097 219.157C435.097 218.79 435.396 218.491 435.765 218.491C436.135 218.491 436.434 218.79 436.434 219.16L436.372 269.183C436.372 269.553 436.073 269.852 435.704 269.852" fill="white"/>
<path fill-rule="evenodd" clip-rule="evenodd" d="M435.805 187.268V187.268C435.436 187.268 435.137 186.97 435.137 186.6L435.278 70.1477C435.278 69.7788 435.577 69.4797 435.947 69.4797C436.316 69.4802 436.615 69.78 436.615 70.1493L436.474 186.602C436.474 186.97 436.175 187.268 435.805 187.268" fill="white"/>
<path fill-rule="evenodd" clip-rule="evenodd" d="M239.629 143.793H280.527V131.473H239.629V143.793Z" fill="#D85A5D"/>
<path fill-rule="evenodd" clip-rule="evenodd" d="M246.207 143.793H280.53V131.15H246.207V143.793Z" fill="#EB852C"/>
<path fill-rule="evenodd" clip-rule="evenodd" d="M239.629 143.793H280.527V131.15H239.629V143.793Z" fill="#72ACFF"/>
<path fill-rule="evenodd" clip-rule="evenodd" d="M253.23 143.793H257.449V131.09H253.23V143.793Z" fill="white"/>
<path fill-rule="evenodd" clip-rule="evenodd" d="M266.652 143.793H274.414V131.15H266.652V143.793Z" fill="white"/>
<path fill-rule="evenodd" clip-rule="evenodd" d="M239.629 156.422H280.527V144.116H239.629V156.422Z" fill="#D85A5D"/>
<path fill-rule="evenodd" clip-rule="evenodd" d="M246.207 156.422H280.53V143.793H246.207V156.422Z" fill="#EB852C"/>
<path fill-rule="evenodd" clip-rule="evenodd" d="M239.629 156.422H280.527V143.793H239.629V156.422Z" fill="#72ACFF"/>
<path fill-rule="evenodd" clip-rule="evenodd" d="M253.23 156.422H257.449V143.733H253.23V156.422Z" fill="white"/>
<path fill-rule="evenodd" clip-rule="evenodd" d="M266.652 156.422H274.414V143.793H266.652V156.422Z" fill="white"/>
<path fill-rule="evenodd" clip-rule="evenodd" d="M250.086 130.677H290.984V118.417H250.086V130.677Z" fill="#D85A5D"/>
<path fill-rule="evenodd" clip-rule="evenodd" d="M256.66 130.677H290.986V118.094H256.66V130.677Z" fill="#EB852C"/>
<path fill-rule="evenodd" clip-rule="evenodd" d="M250.086 130.677H290.984V118.094H250.086V130.677Z" fill="#72ACFF"/>
<path fill-rule="evenodd" clip-rule="evenodd" d="M263.688 130.677H267.903V118.034H263.688V130.677Z" fill="white"/>
<path fill-rule="evenodd" clip-rule="evenodd" d="M277.109 130.677H284.871V118.094H277.109V130.677Z" fill="white"/>
<path fill-rule="evenodd" clip-rule="evenodd" d="M239.632 144.917H280.53C280.797 144.917 281.016 144.7 281.016 144.432C281.016 144.164 280.797 143.947 280.53 143.947H239.632C239.365 143.947 239.148 144.164 239.148 144.432C239.148 144.7 239.365 144.917 239.632 144.917" fill="#2A0055"/>
<path fill-rule="evenodd" clip-rule="evenodd" d="M250.087 131.162H290.986C291.253 131.162 291.469 130.945 291.469 130.677C291.469 130.409 291.253 130.192 290.986 130.192H250.087C249.818 130.192 249.602 130.409 249.602 130.677C249.602 130.945 249.818 131.162 250.087 131.162" fill="#2A0055"/>
<path fill-rule="evenodd" clip-rule="evenodd" d="M167.969 279.269H208.867V266.95H167.969V279.269Z" fill="#D85A5D"/>
<path fill-rule="evenodd" clip-rule="evenodd" d="M167.969 279.269H202.292V266.626H167.969V279.269Z" fill="#EB852C"/>
<path fill-rule="evenodd" clip-rule="evenodd" d="M167.969 279.269H208.867V266.626H167.969V279.269Z" fill="#72ACFF"/>
<path fill-rule="evenodd" clip-rule="evenodd" d="M191.047 279.269H195.265V266.566H191.047V279.269Z" fill="white"/>
<path fill-rule="evenodd" clip-rule="evenodd" d="M174.082 279.269H181.843V266.626H174.082V279.269Z" fill="white"/>
<path fill-rule="evenodd" clip-rule="evenodd" d="M167.969 291.899H208.867V279.591H167.969V291.899Z" fill="#D85A5D"/>
<path fill-rule="evenodd" clip-rule="evenodd" d="M167.969 291.899H202.292V279.269H167.969V291.899Z" fill="#EB852C"/>
<path fill-rule="evenodd" clip-rule="evenodd" d="M167.969 291.899H208.867V279.269H167.969V291.899Z" fill="#72ACFF"/>
<path fill-rule="evenodd" clip-rule="evenodd" d="M191.047 291.899H195.265V279.21H191.047V291.899Z" fill="white"/>
<path fill-rule="evenodd" clip-rule="evenodd" d="M174.082 291.899H181.843V279.269H174.082V291.899Z" fill="white"/>
<path fill-rule="evenodd" clip-rule="evenodd" d="M157.512 266.154H198.41V253.894H157.512V266.154Z" fill="#D85A5D"/>
<path fill-rule="evenodd" clip-rule="evenodd" d="M157.512 266.154H191.837V253.57H157.512V266.154Z" fill="#EB852C"/>
<path fill-rule="evenodd" clip-rule="evenodd" d="M157.512 266.154H198.41V253.57H157.512V266.154Z" fill="#72ACFF"/>
<path fill-rule="evenodd" clip-rule="evenodd" d="M180.594 266.154H184.81V253.51H180.594V266.154Z" fill="white"/>
<path fill-rule="evenodd" clip-rule="evenodd" d="M163.629 266.154H171.39V253.57H163.629V266.154Z" fill="white"/>
<path fill-rule="evenodd" clip-rule="evenodd" d="M208.868 280.394H167.97C167.703 280.394 167.484 280.177 167.484 279.908C167.484 279.641 167.703 279.424 167.97 279.424H208.868C209.135 279.424 209.352 279.641 209.352 279.908C209.352 280.177 209.135 280.394 208.868 280.394" fill="#2A0055"/>
<path fill-rule="evenodd" clip-rule="evenodd" d="M198.409 266.637H157.511C157.244 266.637 157.027 266.421 157.027 266.154C157.027 265.884 157.244 265.668 157.511 265.668H198.409C198.678 265.668 198.895 265.884 198.895 266.154C198.895 266.421 198.678 266.637 198.409 266.637" fill="#2A0055"/>
<path fill-rule="evenodd" clip-rule="evenodd" d="M81.7188 243.5C87.5258 254.147 83.6016 267.486 72.9545 273.294C62.3071 279.1 48.9684 275.177 43.1614 264.529C37.3546 253.882 41.2786 240.543 51.926 234.737C62.5734 228.929 75.9121 232.853 81.7188 243.5" fill="#72ACFF"/>
<path fill-rule="evenodd" clip-rule="evenodd" d="M88.1446 239.995C93.9514 250.642 90.0272 263.982 79.3801 269.788C68.7327 275.596 55.394 271.672 49.5872 261.025C43.7804 250.376 47.7044 237.039 58.3515 231.23C68.9989 225.424 82.3376 229.348 88.1446 239.995" fill="#72ACFF"/>
<path fill-rule="evenodd" clip-rule="evenodd" d="M68.8456 236.427C66.5223 236.427 64.2224 237.007 62.1256 238.152C58.8302 239.95 56.4299 242.927 55.3675 246.538C54.3053 250.15 54.7098 253.955 56.507 257.249C59.2367 262.255 64.6712 265.104 70.3513 264.509C72.1972 264.315 73.9648 263.763 75.6051 262.868C78.906 261.068 81.3085 258.089 82.3696 254.482C83.4308 250.875 83.0236 247.07 81.2234 243.771C79.4232 240.47 76.4453 238.068 72.838 237.004C71.5223 236.619 70.18 236.427 68.8456 236.427ZM68.8595 265.7C63.3297 265.7 58.2153 262.709 55.5286 257.783C53.5887 254.227 53.1518 250.122 54.2985 246.223C55.4446 242.327 58.0349 239.112 61.5918 237.173C65.1537 235.23 69.259 234.792 73.1526 235.937C77.0455 237.082 80.2591 239.674 82.2019 243.237C84.1449 246.798 84.5843 250.905 83.4391 254.797C82.2936 258.689 79.701 261.903 76.1389 263.847C74.3686 264.812 72.4604 265.408 70.4677 265.617C69.929 265.672 69.392 265.7 68.8595 265.7V265.7Z" fill="white"/>
<path fill-rule="evenodd" clip-rule="evenodd" d="M68.8303 228.554C65.2805 228.554 61.683 229.414 58.3531 231.23C47.7231 237.03 43.7911 250.394 49.5886 261.025C53.4721 268.145 60.8674 272.468 68.8613 272.468C69.6317 272.468 70.406 272.427 71.1849 272.348C74.0642 272.044 76.8219 271.184 79.3816 269.788C84.5309 266.98 88.2787 262.335 89.9341 256.707C91.5897 251.081 90.9548 245.145 88.1462 239.995C84.1647 232.695 76.6134 228.554 68.8303 228.554ZM68.86 273.584C60.4604 273.584 52.691 269.04 48.6101 261.557C42.5184 250.387 46.6495 236.345 57.8193 230.252C68.9898 224.161 83.033 228.292 89.1247 239.462C92.0759 244.873 92.7429 251.108 91.0034 257.021C89.2638 262.935 85.3262 267.817 79.9155 270.767C77.226 272.234 74.3277 273.139 71.3013 273.456C70.4834 273.541 69.6689 273.584 68.86 273.584V273.584Z" fill="white"/>
<path fill-rule="evenodd" clip-rule="evenodd" d="M77.2741 247.83C75.3748 247.348 72.8224 247.303 69.632 247.7C67.925 247.912 66.6434 247.878 65.7913 247.586C64.9549 247.296 64.2801 246.691 63.7766 245.77C63.2453 244.795 63.0605 243.872 63.2443 243.014C63.428 242.154 64.0246 241.442 65.04 240.89C66.0452 240.34 67.0314 240.294 68.03 240.735C68.5241 240.958 68.9911 241.303 69.431 241.768C70.3269 242.703 71.7851 242.838 72.9233 242.218L72.9746 242.19C74.5939 241.28 74.969 239.04 73.6424 237.755C72.8304 236.973 71.9364 236.382 70.9342 235.985C69.1312 235.264 67.2059 235.223 65.1643 235.871L64.0736 233.872C63.7942 233.359 63.3418 232.994 62.8237 232.823C62.802 232.809 62.7705 232.8 62.7388 232.791C62.184 232.627 61.5744 232.679 61.0307 232.976C60.4871 233.272 60.1123 233.756 59.9491 234.313C59.786 234.867 59.8394 235.476 60.1355 236.019L61.1927 237.958C59.4621 239.275 58.3314 240.835 57.8047 242.626C57.2218 244.608 57.4752 246.584 58.5657 248.585C59.7349 250.727 61.2824 252.052 63.2074 252.534C65.1224 253.02 67.6684 253.027 70.8299 252.554C72.4586 252.345 73.7097 252.395 74.5935 252.696C75.4773 252.999 76.1793 253.629 76.7049 254.592C77.2362 255.566 77.3742 256.503 77.113 257.391C76.8418 258.283 76.1779 259.018 75.0908 259.611C73.9627 260.227 72.8496 260.379 71.7365 260.097C71.1137 259.93 70.5253 259.558 69.9819 258.976C69.1077 258.057 67.6914 257.925 66.5838 258.529L66.5325 258.557C64.7957 259.545 64.5511 261.926 66.0158 263.27C66.9237 264.105 67.9314 264.659 69.0605 264.949C71.16 265.481 73.3545 265.307 75.6116 264.397L76.4674 265.964C76.641 266.284 76.8803 266.551 77.1796 266.735C77.3409 266.859 77.5216 266.948 77.7176 267.014C77.739 267.027 77.7707 267.037 77.8024 267.046C78.357 267.21 78.9666 267.157 79.5103 266.861C79.9102 266.642 80.2225 266.311 80.424 265.951C80.492 265.807 80.5499 265.668 80.5919 265.526C80.755 264.972 80.7018 264.36 80.4055 263.818L79.4827 262.125C81.089 260.849 82.1398 259.385 82.6713 257.726C83.2561 255.796 82.9912 253.798 81.8669 251.738C80.7094 249.614 79.1891 248.316 77.2741 247.83" fill="white"/>
<path fill-rule="evenodd" clip-rule="evenodd" d="M143.372 66.6186H86.707C86.707 59.4076 92.5498 53.5648 99.7608 53.5648C100.502 53.5648 101.223 53.6244 101.926 53.7437C104.849 47.8922 110.897 43.8777 117.886 43.8777C122.08 43.8777 125.937 45.3268 128.98 47.756C131.89 50.0659 134.064 53.2792 135.077 56.97C139.77 57.6775 143.372 61.726 143.372 66.6186" fill="#CFE4FF"/>
<path fill-rule="evenodd" clip-rule="evenodd" d="M87.178 66.1528H142.89C142.669 61.7924 139.354 58.0856 135.006 57.4302C134.823 57.4028 134.675 57.2707 134.627 57.0932C133.66 53.5802 131.552 50.3935 128.687 48.1206C125.591 45.649 121.856 44.3431 117.883 44.3431C111.256 44.3431 105.3 48.0248 102.339 53.9516C102.248 54.135 102.047 54.2374 101.845 54.2025C101.17 54.0882 100.468 54.0303 99.7577 54.0303C92.9724 54.0303 87.4239 59.4264 87.178 66.1528ZM143.369 67.084H86.7039C86.4468 67.084 86.2383 66.8755 86.2383 66.6184C86.2383 59.1638 92.3031 53.0988 99.7577 53.0988C100.402 53.0988 101.041 53.1435 101.661 53.2318C104.831 47.1652 111.015 43.4119 117.883 43.4119C122.069 43.4119 126.006 44.7882 129.267 47.3919C132.206 49.724 134.39 52.9703 135.441 56.5589C140.248 57.4316 143.835 61.7032 143.835 66.6184C143.835 66.8755 143.625 67.084 143.369 67.084V67.084Z" fill="#CFE4FF"/>
<path fill-rule="evenodd" clip-rule="evenodd" d="M199.204 292.768H39.6156C39.243 292.768 38.9414 292.467 38.9414 292.093C38.9414 291.721 39.243 291.42 39.6156 291.42H199.204C199.576 291.42 199.877 291.721 199.877 292.093C199.877 292.467 199.576 292.768 199.204 292.768" fill="#2A0055"/>
<path fill-rule="evenodd" clip-rule="evenodd" d="M166.832 207.967H152.368C151.998 207.967 151.699 207.668 151.699 207.299C151.699 206.929 151.998 206.63 152.368 206.63H166.832C167.201 206.63 167.502 206.929 167.502 207.299C167.502 207.668 167.201 207.967 166.832 207.967" fill="white"/>
<path fill-rule="evenodd" clip-rule="evenodd" d="M419.296 86.954H399.243C398.875 86.954 398.574 86.6545 398.574 86.2851C398.574 85.9158 398.875 85.6165 399.243 85.6165H419.296C419.665 85.6165 419.964 85.9158 419.964 86.2851C419.964 86.6545 419.665 86.954 419.296 86.954" fill="white"/>
<path fill-rule="evenodd" clip-rule="evenodd" d="M153.093 110.215L123.621 106.934L122.141 72.5758L129.866 67.7504C132.932 65.8348 136.425 64.7555 140.011 64.6147C143.285 64.486 146.543 65.1437 149.529 66.5358L151.688 67.5433L151.792 83.7572L153.093 110.215Z" fill="#006BFF"/>
<path fill-rule="evenodd" clip-rule="evenodd" d="M165.395 173.564L168.189 179.392L176.856 174.995L173.788 168.596L165.395 173.564" fill="#FFBFAA"/>
<path fill-rule="evenodd" clip-rule="evenodd" d="M190.778 182.376L172.79 191.699L166.527 178.643L176.958 173.353L188.34 177.293L190.778 182.376" fill="#CFE4FF"/>
<path fill-rule="evenodd" clip-rule="evenodd" d="M179.281 177.603C179.101 177.603 178.923 177.514 178.818 177.35C178.654 177.093 178.727 176.752 178.982 176.588L181.912 174.706C182.167 174.541 182.507 174.616 182.674 174.872C182.838 175.128 182.763 175.47 182.507 175.634L179.58 177.515C179.487 177.575 179.384 177.603 179.281 177.603" fill="#2A0055"/>
<path fill-rule="evenodd" clip-rule="evenodd" d="M175.296 184.446L168.007 182.547C167.712 182.47 167.534 182.169 167.612 181.874C167.689 181.579 167.991 181.404 168.285 181.479L175.188 183.278L188.096 177.234C188.372 177.105 188.701 177.224 188.831 177.5C188.959 177.776 188.84 178.104 188.564 178.233L175.296 184.446" fill="#2A0055"/>
<path fill-rule="evenodd" clip-rule="evenodd" d="M108.068 155.559L102.488 158.607L107.021 167.386L113.148 164.039L108.068 155.559" fill="#FFBFAA"/>
<path fill-rule="evenodd" clip-rule="evenodd" d="M100.266 181.92L90.6641 163.707L103.165 156.878L108.62 167.441L105.132 179.261L100.266 181.92" fill="#CFE4FF"/>
<path fill-rule="evenodd" clip-rule="evenodd" d="M106.275 175.94C106.123 175.94 105.971 175.878 105.862 175.756L103.05 172.595C102.847 172.368 102.868 172.019 103.095 171.817C103.322 171.614 103.671 171.635 103.873 171.862L106.686 175.023C106.889 175.25 106.868 175.598 106.641 175.801C106.536 175.894 106.405 175.94 106.275 175.94" fill="#2A0055"/>
<path fill-rule="evenodd" clip-rule="evenodd" d="M107.282 172.841C107.114 172.841 106.948 172.764 106.84 172.619L104.242 169.125C104.06 168.88 104.111 168.535 104.355 168.353C104.6 168.171 104.945 168.222 105.127 168.467L107.725 171.961C107.906 172.205 107.855 172.551 107.611 172.732C107.512 172.806 107.397 172.841 107.282 172.841" fill="#2A0055"/>
<path fill-rule="evenodd" clip-rule="evenodd" d="M103.12 180.912C102.915 180.912 102.718 180.797 102.623 180.599L95.5664 165.851L99.4504 158.386C99.591 158.116 99.924 158.011 100.194 158.152C100.464 158.292 100.569 158.625 100.429 158.895L96.7988 165.872L103.618 180.123C103.749 180.397 103.633 180.727 103.358 180.858C103.281 180.895 103.2 180.912 103.12 180.912" fill="#2A0055"/>
<path fill-rule="evenodd" clip-rule="evenodd" d="M113.102 168.316L105.223 154.66L132.116 139.144L137.321 108.209L152.869 110.826L147.19 144.572C147.165 144.717 147.138 144.861 147.106 145.005C146.492 147.705 144.772 150.044 142.384 151.422L113.102 168.316" fill="#001E57"/>
<path fill-rule="evenodd" clip-rule="evenodd" d="M163.394 175.979L149.204 142.012L129.211 123.412C125.352 119.822 123.377 114.523 123.927 109.238L124.263 106.001L139.946 107.633L139.608 110.869C139.57 111.252 139.7 111.635 139.951 111.869L160.455 130.947C160.499 130.986 160.54 131.025 160.579 131.065C161.849 132.298 162.839 133.755 163.526 135.395L177.942 169.901L163.394 175.979" fill="#001E57"/>
<path fill-rule="evenodd" clip-rule="evenodd" d="M147.691 142.219C147.55 142.219 147.408 142.166 147.301 142.058L133.971 128.714C133.754 128.498 133.754 128.149 133.971 127.934C134.186 127.719 134.535 127.719 134.751 127.934L148.081 141.278C148.296 141.494 148.296 141.843 148.081 142.058C147.972 142.166 147.833 142.219 147.691 142.219" fill="white"/>
<path fill-rule="evenodd" clip-rule="evenodd" d="M161.233 170.957C161.021 170.957 160.818 170.833 160.729 170.624C160.608 170.345 160.736 170.02 161.014 169.899L175.027 163.829C175.305 163.708 175.629 163.836 175.75 164.116C175.871 164.395 175.743 164.72 175.465 164.841L161.452 170.911C161.382 170.942 161.309 170.957 161.233 170.957" fill="#CFE4FF"/>
<path fill-rule="evenodd" clip-rule="evenodd" d="M117.818 165.841C117.621 165.841 117.43 165.735 117.331 165.549L110.018 151.84C109.875 151.572 109.976 151.238 110.245 151.094C110.514 150.952 110.848 151.052 110.991 151.321L118.304 165.03C118.447 165.299 118.345 165.632 118.077 165.776C117.994 165.82 117.905 165.841 117.818 165.841" fill="#CFE4FF"/>
<path fill-rule="evenodd" clip-rule="evenodd" d="M143.938 77.1409L162.099 87.3575C164.634 89.494 168.467 88.3146 169.443 85.0967L181.539 62.515L177.072 57.7073L162.811 73.6504L150.321 68.1455L143.938 77.1409" fill="#FFBFAA"/>
<path fill-rule="evenodd" clip-rule="evenodd" d="M155.672 87.6131L160.855 71.3668L150.701 67.2576C147.543 65.9795 144.035 67.9794 143.416 71.4106L141.758 80.6015L155.672 87.6131Z" fill="#006BFF"/>
<path fill-rule="evenodd" clip-rule="evenodd" d="M145.047 65.8881V65.8881C142.772 69.2945 138.082 69.8153 135.153 66.9871L134.445 66.3045L135.319 53.3739L144.57 53.0105L145.047 65.8881" fill="#FFBFAA"/>
<path fill-rule="evenodd" clip-rule="evenodd" d="M139.64 69.3661C137.838 69.3661 136.097 68.6644 134.77 67.3838L134.062 66.7013C133.843 66.4898 133.839 66.1407 134.049 65.9217C134.261 65.7027 134.61 65.6965 134.829 65.9078L135.536 66.5904C136.809 67.8187 138.529 68.4152 140.265 68.2298C142.015 68.0418 143.592 67.0768 144.589 65.582C144.757 65.3288 145.1 65.2603 145.353 65.4296C145.606 65.5989 145.674 65.9411 145.506 66.1943C144.326 67.9615 142.458 69.1031 140.382 69.3262C140.133 69.3529 139.887 69.3661 139.64 69.3661" fill="white"/>
<path fill-rule="evenodd" clip-rule="evenodd" d="M135.02 56.2523L137.845 63.7288L147.283 60.14C148.115 59.8233 148.549 58.9058 148.298 58.0407C148.286 57.993 148.271 57.9467 148.255 57.9008L145.369 50.2642C144.586 48.1925 142.321 47.1337 140.309 47.8991L138.312 48.6576C135.337 49.789 133.861 53.1898 135.02 56.2523" fill="#FFBFAA"/>
<path fill-rule="evenodd" clip-rule="evenodd" d="M136.002 58.9048C136.002 58.9048 130.835 58.6669 132.87 55.5676C132.87 55.5676 128.799 55.1721 131.406 52.7068C131.406 52.7068 127.861 49.8204 131.656 48.6517C131.656 48.6517 132.398 43.2553 136.748 45.4372C136.748 45.4372 136.329 40.3055 140.652 42.4482C140.652 42.4482 145.217 42.0111 146.209 45.7482C146.209 45.7482 149.456 49.5982 145.988 49.9694C145.988 49.9694 148.78 51.5933 145.956 51.7788C145.956 51.7788 144.51 50.4852 144.596 49.2451C144.596 49.2451 142.155 51.5397 139.815 51.1222C139.815 51.1222 139.648 52.6411 137.36 52.8095C137.36 52.8095 137.894 55.16 136.24 55.3005C136.24 55.3005 138.973 59.7734 136.002 58.9048" fill="#001E57"/>
<path fill-rule="evenodd" clip-rule="evenodd" d="M146.18 52.4932L148.625 55.0186C148.879 55.2803 148.79 55.7177 148.456 55.844L147.14 56.3439L146.18 52.4932" fill="#FFBFAA"/>
<path fill-rule="evenodd" clip-rule="evenodd" d="M153.094 110.215L123.595 108.203C120.408 107.543 118.208 104.53 118.48 101.198L120.022 82.2839L133.948 83.4853L131.717 96.4517L154.629 103.512L153.094 110.215" fill="#FFBFAA"/>
<path fill-rule="evenodd" clip-rule="evenodd" d="M118.094 89.1373L133.567 88.8364L134.11 81.2127L122.141 72.5759L118.094 89.1373Z" fill="#006BFF"/>
<path fill-rule="evenodd" clip-rule="evenodd" d="M176.424 57.6035C175.988 57.6035 175.562 57.3987 175.292 57.0156L174.252 55.5291L173.622 52.645C173.458 51.901 173.93 51.1664 174.674 51.0038C175.418 50.842 176.153 51.3122 176.314 52.0562L176.828 54.4005L177.551 55.4344C177.989 56.0581 177.836 56.9175 177.213 57.3542C176.972 57.5228 176.695 57.6035 176.424 57.6035" fill="#FFBFAA"/>
<path fill-rule="evenodd" clip-rule="evenodd" d="M179.151 58.1396C178.989 58.1396 178.822 58.1104 178.66 58.0488C177.948 57.778 177.592 56.9816 177.862 56.2702L178.886 53.5819L177.314 51.35C176.876 50.7279 177.024 49.8678 177.647 49.4293C178.268 48.9906 179.128 49.1398 179.568 49.7622L181.562 52.5931C181.827 52.9677 181.886 53.4493 181.724 53.8778L180.44 57.2512C180.23 57.8013 179.705 58.1394 179.151 58.1396" fill="#FFBFAA"/>
<path fill-rule="evenodd" clip-rule="evenodd" d="M181.449 58.739C181.309 58.739 181.168 58.7178 181.029 58.6735C180.303 58.4424 179.904 57.667 180.135 56.9417L180.887 54.58L179.277 52.4805C178.814 51.8766 178.928 51.0113 179.532 50.5477C180.135 50.0844 181.001 50.1984 181.465 50.8025L183.513 53.4733C183.787 53.8311 183.869 54.301 183.732 54.7308L182.763 57.7787C182.576 58.3648 182.033 58.739 181.449 58.739" fill="#FFBFAA"/>
<path fill-rule="evenodd" clip-rule="evenodd" d="M182.266 59.4161C182.032 59.4161 181.794 59.3566 181.578 59.2313C180.918 58.8508 180.692 58.0078 181.073 57.3483L182.46 54.9442L181.359 54.3383C180.692 53.9716 180.448 53.1335 180.816 52.4664C181.183 51.7991 182.02 51.5559 182.686 51.9223L185.022 53.2062C185.346 53.3849 185.586 53.6865 185.686 54.0435C185.787 54.4003 185.739 54.7824 185.552 55.1034L183.462 58.7265C183.206 59.1688 182.743 59.4161 182.266 59.4161" fill="#FFBFAA"/>
<path fill-rule="evenodd" clip-rule="evenodd" d="M177.223 56.4818C177.036 56.4818 176.844 56.4434 176.662 56.3624C175.966 56.0529 175.653 55.2382 175.964 54.5428L177.193 51.7767L176.381 46.9335C176.256 46.1828 176.762 45.4719 177.513 45.3459C178.263 45.2207 178.973 45.7265 179.101 46.477L179.981 51.7294C180.027 51.9964 179.993 52.2706 179.881 52.5179L178.482 55.6632C178.254 56.1767 177.75 56.4818 177.223 56.4818" fill="#FFBFAA"/>
<path fill-rule="evenodd" clip-rule="evenodd" d="M143.948 61.2688C143.036 61.2688 142.128 61.1383 141.238 60.8787C140.946 60.7934 140.777 60.4872 140.862 60.195C140.948 59.9025 141.254 59.735 141.546 59.8199C142.639 60.1388 143.759 60.2379 144.881 60.1147L145.285 60.0706C145.586 60.038 145.86 60.2561 145.892 60.5588C145.926 60.8614 145.707 61.1337 145.404 61.1668L145.002 61.2109C144.651 61.2494 144.3 61.2688 143.948 61.2688" fill="#2A0055"/>
<path fill-rule="evenodd" clip-rule="evenodd" d="M128.177 98.249C127.949 98.249 127.736 98.1071 127.656 97.8803C127.555 97.5931 127.706 97.2783 127.994 97.1772L131.535 95.9316C131.822 95.831 132.137 95.9816 132.238 96.269C132.339 96.5562 132.188 96.8708 131.901 96.9719L128.359 98.2175C128.299 98.2387 128.237 98.249 128.177 98.249" fill="#2A0055"/>
<path fill-rule="evenodd" clip-rule="evenodd" d="M133.023 89.3983C132.729 89.3983 132.483 89.164 132.473 88.8663C132.462 88.5619 132.702 88.3066 133.005 88.2959L134.976 88.2273L135.994 80.7403C136.037 80.4387 136.315 80.2285 136.616 80.2682C136.918 80.3093 137.127 80.5872 137.086 80.889L136.005 88.8362C135.971 89.1024 135.747 89.3036 135.478 89.313L133.044 89.3981C133.037 89.3983 133.03 89.3983 133.023 89.3983" fill="white"/>
<path fill-rule="evenodd" clip-rule="evenodd" d="M179.23 66.6851L185.045 55.9647L174.266 55.7432L174.46 60.9607L179.23 66.6851" fill="#FFBFAA"/>
<path fill-rule="evenodd" clip-rule="evenodd" d="M150.797 102.861C150.797 102.861 154.733 101.316 154.867 101.824L154.409 101.238C154.409 101.238 161.803 101.413 163.071 101.494L164.862 101.609C165.448 101.646 165.907 102.142 165.916 102.746C165.925 103.37 165.455 103.888 164.848 103.92L162.841 104.026L158.919 104.059L161.321 104.171C162.2 104.212 163.064 104.397 163.886 104.72L165.323 105.285C165.939 105.527 166.288 106.201 166.14 106.863C166.028 107.35 165.667 107.736 165.197 107.867L164.944 107.938L165.026 108.043C165.312 108.402 165.378 108.893 165.2 109.318C164.944 109.936 164.255 110.23 163.648 109.984L162.225 109.406C161.504 109.113 160.719 109.019 159.953 109.132L157.931 109.431L162.375 110.37C163.238 110.551 163.409 111.787 162.604 112.157C162.576 112.17 162.549 112.182 162.519 112.192C162.339 112.257 162.147 112.267 161.965 112.226C161.527 112.128 161.089 112.026 160.642 111.984L156.036 111.55C153.996 111.531 151.975 111.16 150.054 110.452L149.917 110.401L147.412 109.995L145.648 104.918L150.797 102.861" fill="#FFBFAA"/>
<path fill-rule="evenodd" clip-rule="evenodd" d="M164.864 108.235C164.804 108.235 164.745 108.225 164.686 108.205L164.384 108.101C162.486 107.448 160.508 107.171 158.51 107.277C158.207 107.291 157.946 107.06 157.93 106.756C157.914 106.452 158.147 106.192 158.451 106.176C160.593 106.062 162.71 106.359 164.743 107.058L165.044 107.162C165.331 107.261 165.484 107.575 165.386 107.863C165.306 108.091 165.094 108.235 164.864 108.235" fill="#2A0055"/>
<path fill-rule="evenodd" clip-rule="evenodd" d="M153.477 105.632C152.128 105.938 150.794 105.062 150.497 103.675C150.198 102.288 151.052 100.916 152.4 100.61C153.748 100.304 155.083 101.179 155.379 102.566C155.678 103.953 154.825 105.325 153.477 105.632" fill="#FFBFAA"/>
<path fill-rule="evenodd" clip-rule="evenodd" d="M151.686 104.774C151.517 104.774 151.346 104.743 151.182 104.677C150.479 104.398 150.135 103.603 150.413 102.9L151.608 99.8874C151.738 99.5591 151.989 99.2941 152.311 99.1471L155.377 97.7443C156.066 97.4302 156.878 97.7325 157.191 98.4198C157.506 99.1072 157.205 99.9194 156.516 100.234L153.949 101.408L152.959 103.909C152.744 104.446 152.231 104.774 151.686 104.774" fill="#FFBFAA"/>
<path fill-rule="evenodd" clip-rule="evenodd" d="M138.825 58.2674V58.2674C137.638 58.7187 136.301 58.0943 135.841 56.873L135.544 56.0866C135.083 54.8654 135.669 53.5096 136.856 53.0584C138.044 52.6071 139.379 53.2315 139.84 54.453L140.139 55.2391C140.599 56.4603 140.011 57.8164 138.825 58.2674" fill="#FFBFAA"/>
<path fill-rule="evenodd" clip-rule="evenodd" d="M138.768 56.549C138.702 56.549 138.634 56.5365 138.565 56.51L136.681 55.7606C136.398 55.6479 136.259 55.3274 136.371 55.0445C136.482 54.7613 136.804 54.6233 137.087 54.7356L138.974 55.485C139.257 55.5977 139.393 55.9182 139.282 56.2011C139.195 56.4174 138.99 56.549 138.768 56.549" fill="#2A0055"/>
<path fill-rule="evenodd" clip-rule="evenodd" d="M147.399 135.976C147.264 135.976 147.13 135.927 147.022 135.828C146.799 135.62 146.787 135.271 146.995 135.048C149.984 131.845 149.723 126.515 146.404 122.915L143.974 120.28L137.762 126.94C137.555 127.163 137.206 127.175 136.984 126.968C136.761 126.76 136.749 126.411 136.957 126.188L143.979 118.658L147.216 122.168C150.923 126.189 151.181 132.178 147.803 135.801C147.693 135.917 147.547 135.976 147.399 135.976" fill="#CFE4FF"/>
<path fill-rule="evenodd" clip-rule="evenodd" d="M130.663 115.21C128.536 115.21 126.601 114.21 126.494 114.153C126.225 114.011 126.121 113.678 126.263 113.409C126.404 113.139 126.737 113.036 127.007 113.177C127.042 113.195 130.093 114.764 132.37 113.786C133.437 113.328 134.19 112.353 134.607 110.89C134.692 110.597 134.995 110.428 135.289 110.511C135.581 110.594 135.75 110.9 135.668 111.193C135.155 112.992 134.19 114.207 132.8 114.802C132.107 115.098 131.375 115.21 130.663 115.21" fill="white"/>
<path fill-rule="evenodd" clip-rule="evenodd" d="M151.824 86.0279C151.532 86.0279 151.291 85.8004 151.275 85.5066L151.083 81.9899C151.065 81.6857 151.3 81.4259 151.603 81.4092C151.909 81.3905 152.167 81.6255 152.183 81.9296L152.374 85.4466C152.393 85.7507 152.158 86.0105 151.854 86.027C151.845 86.0277 151.834 86.0279 151.824 86.0279" fill="white"/>
<path fill-rule="evenodd" clip-rule="evenodd" d="M290.188 251.655H307.249V243.785C307.249 242.035 305.825 240.609 304.073 240.609H293.366C291.614 240.609 290.188 242.035 290.188 243.785V251.655ZM308.46 254.078H288.977C288.309 254.078 287.766 253.538 287.766 252.867V243.785C287.766 240.698 290.277 238.186 293.366 238.186H304.073C307.16 238.186 309.674 240.698 309.674 243.785V252.867C309.674 253.538 309.131 254.078 308.46 254.078V254.078Z" fill="#001E57"/>
<path fill-rule="evenodd" clip-rule="evenodd" d="M286.554 251.655H303.614V243.785C303.614 242.035 302.188 240.609 300.436 240.609H289.73C287.978 240.609 286.554 242.035 286.554 243.785V251.655ZM304.825 254.078H285.34C284.672 254.078 284.129 253.538 284.129 252.867V243.785C284.129 240.698 286.643 238.186 289.73 238.186H300.436C303.525 238.186 306.037 240.698 306.037 243.785V252.867C306.037 253.538 305.494 254.078 304.825 254.078V254.078Z" fill="#CFE4FF"/>
<path fill-rule="evenodd" clip-rule="evenodd" d="M328.543 291.507H274.434V252.741C274.434 250.652 276.129 248.959 278.218 248.959H324.761C326.85 248.959 328.543 250.652 328.543 252.741V291.507" fill="#001E57"/>
<path fill-rule="evenodd" clip-rule="evenodd" d="M274.529 291.24H328.453V252.566C328.453 250.531 326.797 248.874 324.762 248.874H278.22C276.183 248.874 274.529 250.531 274.529 252.566V291.24ZM328.638 291.422H274.344V252.566C274.344 250.428 276.082 248.69 278.22 248.69H324.762C326.9 248.69 328.638 250.428 328.638 252.566V291.422V291.422Z" fill="#2A0055"/>
<path fill-rule="evenodd" clip-rule="evenodd" d="M322.61 291.322H268.5V252.557C268.5 250.467 270.193 248.772 272.283 248.772H318.827C320.917 248.772 322.61 250.467 322.61 252.557V291.322" fill="#CFE4FF"/>
<path fill-rule="evenodd" clip-rule="evenodd" d="M299.31 269.954L322.386 254.975C323.303 254.341 323.851 253.296 323.851 252.18C323.851 250.305 322.329 248.783 320.454 248.783H271.897C270.022 248.783 268.5 250.305 268.5 252.18V252.287C268.5 253.198 268.863 254.062 269.499 254.694L289.359 269.836L299.31 269.954" fill="#CFE4FF"/>
<path fill-rule="evenodd" clip-rule="evenodd" d="M291.633 269.628H297.788V248.854H291.633V269.628Z" fill="#2A0055"/>
<path fill-rule="evenodd" clip-rule="evenodd" d="M291.543 269.719H297.883V248.763H291.543V269.719ZM291.728 269.535H297.698V248.947H291.728V269.535Z" fill="#001E57"/>
<path fill-rule="evenodd" clip-rule="evenodd" d="M289.51 269.4L299.183 269.514L322.147 254.608C322.936 254.062 323.413 253.152 323.413 252.18C323.413 250.549 322.085 249.221 320.454 249.221H271.897C270.266 249.221 268.939 250.549 268.939 252.18V252.288C268.939 253.061 269.249 253.816 269.789 254.364L289.51 269.4ZM299.31 270.392C299.308 270.392 299.308 270.392 299.306 270.392L289.355 270.276C289.261 270.274 289.17 270.242 289.094 270.185L269.233 255.043C269.219 255.032 269.203 255.021 269.189 255.007C268.473 254.293 268.062 253.3 268.062 252.288V252.18C268.062 250.065 269.783 248.343 271.897 248.343H320.454C322.569 248.343 324.291 250.065 324.291 252.18C324.291 253.44 323.671 254.619 322.635 255.335L299.55 270.322C299.479 270.367 299.395 270.392 299.31 270.392V270.392Z" fill="white"/>
<path fill-rule="evenodd" clip-rule="evenodd" d="M288.363 278.156H301.023V269.218H288.363V278.156Z" fill="white"/>
<path fill-rule="evenodd" clip-rule="evenodd" d="M291.511 275.564H297.637V271.567H291.511V275.564ZM298.075 276.443H291.073C290.829 276.443 290.633 276.246 290.633 276.002V271.129C290.633 270.887 290.829 270.689 291.073 270.689H298.075C298.319 270.689 298.515 270.887 298.515 271.129V276.002C298.515 276.246 298.319 276.443 298.075 276.443V276.443Z" fill="#2A0055"/>
<path fill-rule="evenodd" clip-rule="evenodd" d="M319.132 262.866C318.89 262.866 318.691 262.67 318.691 262.426V261.634C318.691 261.392 318.89 261.194 319.132 261.194C319.374 261.194 319.57 261.392 319.57 261.634V262.426C319.57 262.67 319.374 262.866 319.132 262.866" fill="white"/>
<path fill-rule="evenodd" clip-rule="evenodd" d="M319.132 266.179C318.89 266.179 318.691 265.982 318.691 265.741V264.084C318.691 263.84 318.89 263.644 319.132 263.644C319.374 263.644 319.57 263.84 319.57 264.084V265.741C319.57 265.982 319.374 266.179 319.132 266.179ZM319.132 269.493C318.89 269.493 318.691 269.297 318.691 269.055V267.397C318.691 267.155 318.89 266.959 319.132 266.959C319.374 266.959 319.57 267.155 319.57 267.397V269.055C319.57 269.297 319.374 269.493 319.132 269.493ZM319.132 272.808C318.89 272.808 318.691 272.61 318.691 272.368V270.712C318.691 270.47 318.89 270.271 319.132 270.271C319.374 270.271 319.57 270.47 319.57 270.712V272.368C319.57 272.61 319.374 272.808 319.132 272.808ZM319.132 276.121C318.89 276.121 318.691 275.925 318.691 275.683V274.024C318.691 273.782 318.89 273.586 319.132 273.586C319.374 273.586 319.57 273.782 319.57 274.024V275.683C319.57 275.925 319.374 276.121 319.132 276.121ZM319.132 279.436C318.89 279.436 318.691 279.239 318.691 278.995V277.339C318.691 277.097 318.89 276.901 319.132 276.901C319.374 276.901 319.57 277.097 319.57 277.339V278.995C319.57 279.239 319.374 279.436 319.132 279.436ZM319.132 282.748C318.89 282.748 318.691 282.552 318.691 282.31V280.654C318.691 280.41 318.89 280.214 319.132 280.214C319.374 280.214 319.57 280.41 319.57 280.654V282.31C319.57 282.552 319.374 282.748 319.132 282.748ZM319.132 286.063C318.89 286.063 318.691 285.867 318.691 285.625V283.966C318.691 283.725 318.89 283.528 319.132 283.528C319.374 283.528 319.57 283.725 319.57 283.966V285.625C319.57 285.867 319.374 286.063 319.132 286.063V286.063Z" fill="white"/>
<path fill-rule="evenodd" clip-rule="evenodd" d="M319.13 288.513H318.336C318.095 288.513 317.898 288.317 317.898 288.073C317.898 287.831 318.095 287.635 318.336 287.635H318.69V287.281C318.69 287.04 318.889 286.841 319.13 286.841C319.372 286.841 319.568 287.04 319.568 287.281V288.073C319.568 288.317 319.372 288.513 319.13 288.513" fill="white"/>
<path fill-rule="evenodd" clip-rule="evenodd" d="M276.946 288.513H275.413C275.171 288.513 274.973 288.317 274.973 288.073C274.973 287.831 275.171 287.635 275.413 287.635H276.946C277.188 287.635 277.384 287.831 277.384 288.073C277.384 288.317 277.188 288.513 276.946 288.513ZM280.012 288.513H278.479C278.237 288.513 278.039 288.317 278.039 288.073C278.039 287.831 278.237 287.635 278.479 287.635H280.012C280.254 287.635 280.45 287.831 280.45 288.073C280.45 288.317 280.254 288.513 280.012 288.513ZM283.078 288.513H281.545C281.303 288.513 281.105 288.317 281.105 288.073C281.105 287.831 281.303 287.635 281.545 287.635H283.078C283.32 287.635 283.516 287.831 283.516 288.073C283.516 288.317 283.32 288.513 283.078 288.513ZM286.145 288.513H284.611C284.367 288.513 284.171 288.317 284.171 288.073C284.171 287.831 284.367 287.635 284.611 287.635H286.145C286.386 287.635 286.583 287.831 286.583 288.073C286.583 288.317 286.386 288.513 286.145 288.513ZM289.211 288.513H287.678C287.433 288.513 287.237 288.317 287.237 288.073C287.237 287.831 287.433 287.635 287.678 287.635H289.211C289.453 287.635 289.649 287.831 289.649 288.073C289.649 288.317 289.453 288.513 289.211 288.513ZM292.277 288.513H290.744C290.5 288.513 290.303 288.317 290.303 288.073C290.303 287.831 290.5 287.635 290.744 287.635H292.277C292.519 287.635 292.715 287.831 292.715 288.073C292.715 288.317 292.519 288.513 292.277 288.513ZM295.343 288.513H293.81C293.566 288.513 293.37 288.317 293.37 288.073C293.37 287.831 293.566 287.635 293.81 287.635H295.343C295.585 287.635 295.781 287.831 295.781 288.073C295.781 288.317 295.585 288.513 295.343 288.513ZM298.409 288.513H296.874C296.632 288.513 296.436 288.317 296.436 288.073C296.436 287.831 296.632 287.635 296.874 287.635H298.409C298.651 287.635 298.847 287.831 298.847 288.073C298.847 288.317 298.651 288.513 298.409 288.513ZM301.475 288.513H299.942C299.698 288.513 299.502 288.317 299.502 288.073C299.502 287.831 299.698 287.635 299.942 287.635H301.475C301.717 287.635 301.913 287.831 301.913 288.073C301.913 288.317 301.717 288.513 301.475 288.513ZM304.539 288.513H303.006C302.764 288.513 302.568 288.317 302.568 288.073C302.568 287.831 302.764 287.635 303.006 287.635H304.539C304.783 287.635 304.98 287.831 304.98 288.073C304.98 288.317 304.783 288.513 304.539 288.513ZM307.605 288.513H306.072C305.83 288.513 305.634 288.317 305.634 288.073C305.634 287.831 305.83 287.635 306.072 287.635H307.605C307.849 287.635 308.046 287.831 308.046 288.073C308.046 288.317 307.849 288.513 307.605 288.513ZM310.672 288.513H309.138C308.897 288.513 308.7 288.317 308.7 288.073C308.7 287.831 308.897 287.635 309.138 287.635H310.672C310.916 287.635 311.112 287.831 311.112 288.073C311.112 288.317 310.916 288.513 310.672 288.513ZM313.738 288.513H312.205C311.963 288.513 311.767 288.317 311.767 288.073C311.767 287.831 311.963 287.635 312.205 287.635H313.738C313.982 287.635 314.178 287.831 314.178 288.073C314.178 288.317 313.982 288.513 313.738 288.513ZM316.804 288.513H315.271C315.029 288.513 314.833 288.317 314.833 288.073C314.833 287.831 315.029 287.635 315.271 287.635H316.804C317.046 287.635 317.244 287.831 317.244 288.073C317.244 288.317 317.046 288.513 316.804 288.513V288.513Z" fill="white"/>
<path fill-rule="evenodd" clip-rule="evenodd" d="M273.88 288.513H273.086C272.845 288.513 272.648 288.317 272.648 288.073V287.281C272.648 287.04 272.845 286.841 273.086 286.841C273.331 286.841 273.527 287.04 273.527 287.281V287.635H273.88C274.122 287.635 274.318 287.831 274.318 288.073C274.318 288.317 274.122 288.513 273.88 288.513" fill="white"/>
<path fill-rule="evenodd" clip-rule="evenodd" d="M273.086 265.177C272.845 265.177 272.648 264.981 272.648 264.737V263.236C272.648 262.992 272.845 262.795 273.086 262.795C273.331 262.795 273.527 262.992 273.527 263.236V264.737C273.527 264.981 273.331 265.177 273.086 265.177ZM273.086 268.182C272.845 268.182 272.648 267.986 272.648 267.744V266.24C272.648 265.998 272.845 265.802 273.086 265.802C273.331 265.802 273.527 265.998 273.527 266.24V267.744C273.527 267.986 273.331 268.182 273.086 268.182ZM273.086 271.189C272.845 271.189 272.648 270.992 272.648 270.748V269.247C272.648 269.003 272.845 268.807 273.086 268.807C273.331 268.807 273.527 269.003 273.527 269.247V270.748C273.527 270.992 273.331 271.189 273.086 271.189ZM273.086 274.193C272.845 274.193 272.648 273.997 272.648 273.755V272.252C272.648 272.01 272.845 271.814 273.086 271.814C273.331 271.814 273.527 272.01 273.527 272.252V273.755C273.527 273.997 273.331 274.193 273.086 274.193ZM273.086 277.2C272.845 277.2 272.648 277.004 272.648 276.76V275.259C272.648 275.017 272.845 274.818 273.086 274.818C273.331 274.818 273.527 275.017 273.527 275.259V276.76C273.527 277.004 273.331 277.2 273.086 277.2ZM273.086 280.207C272.845 280.207 272.648 280.008 272.648 279.767V278.263C272.648 278.021 272.845 277.825 273.086 277.825C273.331 277.825 273.527 278.021 273.527 278.263V279.767C273.527 280.008 273.331 280.207 273.086 280.207ZM273.086 283.211C272.845 283.211 272.648 283.015 272.648 282.773V281.27C272.648 281.028 272.845 280.83 273.086 280.83C273.331 280.83 273.527 281.028 273.527 281.27V282.773C273.527 283.015 273.331 283.211 273.086 283.211ZM273.086 286.218C272.845 286.218 272.648 286.02 272.648 285.778V284.274C272.648 284.033 272.845 283.836 273.086 283.836C273.331 283.836 273.527 284.033 273.527 284.274V285.778C273.527 286.02 273.331 286.218 273.086 286.218V286.218Z" fill="white"/>
<path fill-rule="evenodd" clip-rule="evenodd" d="M273.086 262.17C272.845 262.17 272.648 261.974 272.648 261.732V260.939C272.648 260.697 272.845 260.5 273.086 260.5C273.331 260.5 273.527 260.697 273.527 260.939V261.732C273.527 261.974 273.331 262.17 273.086 262.17" fill="white"/>
<path fill-rule="evenodd" clip-rule="evenodd" d="M424.52 291.536H463.542V249.064H424.52V291.536Z" fill="white"/>
<path fill-rule="evenodd" clip-rule="evenodd" d="M474.488 272.564L479.523 282.342H492.351L485.982 269.172L474.488 272.564" fill="#FFBFAA"/>
<path fill-rule="evenodd" clip-rule="evenodd" d="M477.918 278.758L479.253 291.536L501.213 291.593L498.619 286.373L492.026 281.316L492.234 276.404L487.493 276.39L485.424 279.81L477.918 278.758" fill="#72ACFF"/>
<path fill-rule="evenodd" clip-rule="evenodd" d="M499.986 289.702H499.984L485.586 289.663C485.431 289.663 485.281 289.602 485.171 289.49C485.062 289.378 485.002 289.227 485.005 289.07C485.005 289.065 485 288.073 484.311 287.11C483.383 285.81 481.685 285.146 479.269 285.139C478.948 285.139 478.688 284.877 478.688 284.553C478.69 284.231 478.95 283.971 479.272 283.971H479.274C481.706 283.978 483.556 284.608 484.767 285.842C485.694 286.786 486.008 287.852 486.118 288.497L499.989 288.534C500.31 288.534 500.57 288.796 500.57 289.12C500.57 289.442 500.308 289.702 499.986 289.702" fill="white"/>
<path fill-rule="evenodd" clip-rule="evenodd" d="M493.611 283.684C493.611 283.684 493.611 283.684 493.608 283.684L490.207 283.672C489.885 283.672 489.625 283.41 489.625 283.086C489.625 282.764 489.887 282.504 490.209 282.504C490.209 282.504 490.209 282.504 490.211 282.504L493.613 282.516C493.935 282.516 494.195 282.778 494.195 283.1C494.195 283.421 493.932 283.684 493.611 283.684" fill="white"/>
<path fill-rule="evenodd" clip-rule="evenodd" d="M466.261 273.292L465.314 282.098H455.082L455.271 271.334L466.261 273.292" fill="#FFBFAA"/>
<path fill-rule="evenodd" clip-rule="evenodd" d="M451.117 185.902L449.572 187.716C447.608 190.234 446.777 193.522 447.295 196.732L449.129 212.165C449.333 213.878 450.514 215.29 452.107 215.724L472.256 221.053L473.49 211.617L459.291 205.704L459.282 196.159C459.277 191.119 455.841 186.803 451.117 185.902" fill="#72ACFF"/>
<path fill-rule="evenodd" clip-rule="evenodd" d="M459.546 228.084L444.441 249.064H456.099L453.414 274.456H473.727L480.827 237.021C481.352 234.246 479.504 231.593 476.825 231.276L459.546 228.084" fill="#001E57"/>
<path fill-rule="evenodd" clip-rule="evenodd" d="M434.375 184.834C439.212 192.018 443.208 199.818 443.811 207.785C446.692 197.751 444.379 189.333 443.284 184.862L440.608 184.152L434.375 184.834" fill="white"/>
<path fill-rule="evenodd" clip-rule="evenodd" d="M427.516 186.29L424.336 227.45L453.944 226.773L452.547 186.29L444.93 184.862L443.219 184.405C444.314 188.877 446.693 197.751 443.812 207.785C443.21 199.818 439.213 192.018 434.376 184.834L427.516 186.29" fill="#72ACFF"/>
<path fill-rule="evenodd" clip-rule="evenodd" d="M434.376 184.834L441.994 193.414L443.285 184.862L441.067 169.269H432.93L434.376 184.834" fill="#FFBFAA"/>
<path fill-rule="evenodd" clip-rule="evenodd" d="M450.588 217.994L440.436 215.678L437.906 224.601H445.362L450.588 217.994" fill="#FFBFAA"/>
<path fill-rule="evenodd" clip-rule="evenodd" d="M439.541 183.855H443.506C445.687 183.855 447.455 182.087 447.455 179.905V169.269H435.59V179.905C435.59 182.087 437.358 183.855 439.541 183.855" fill="#FFBFAA"/>
<path fill-rule="evenodd" clip-rule="evenodd" d="M434.298 170.942C435.788 172.157 437.545 172.964 439.402 173.331C440.873 173.622 442.361 173.835 443.846 173.944C445.105 174.036 446.415 174.132 447.653 173.82C448.497 173.607 449.282 173.161 449.453 172.188C449.647 171.107 448.803 170.015 447.939 169.536C447.939 169.536 450.998 168.491 448.721 166.476C448.655 166.418 448.97 164.883 448.977 164.72C449.093 162.494 447.382 160.923 445.294 161.41C441.3 162.343 439.324 167.221 435.138 167.67C431.618 168.048 432.688 169.63 434.298 170.942" fill="#72ACFF"/>
<path fill-rule="evenodd" clip-rule="evenodd" d="M442.118 164.911C442.118 164.911 434.065 161.354 432.032 165.534C429.997 169.714 433.643 177.363 434.745 178.43C435.847 179.497 438.051 170.959 438.051 170.959L442.118 164.911" fill="#72ACFF"/>
<path fill-rule="evenodd" clip-rule="evenodd" d="M435.342 179.853V179.853C436.634 179.853 437.681 178.754 437.681 177.399V176.526C437.681 175.171 436.634 174.072 435.342 174.072C434.051 174.072 433.004 175.171 433.004 176.526V177.399C433.004 178.754 434.051 179.853 435.342 179.853" fill="#FFBFAA"/>
<path fill-rule="evenodd" clip-rule="evenodd" d="M436.018 178.303C435.854 178.303 435.688 178.232 435.574 178.096L434.216 176.495C434.009 176.249 434.038 175.881 434.285 175.672C434.531 175.464 434.898 175.494 435.108 175.74L436.463 177.341C436.673 177.587 436.641 177.956 436.397 178.164C436.285 178.257 436.153 178.303 436.018 178.303" fill="#2A0055"/>
<path fill-rule="evenodd" clip-rule="evenodd" d="M444.026 216.014C443.709 216.014 443.449 215.761 443.442 215.441L443.328 209.329C443.321 209.008 443.579 208.741 443.901 208.734C443.905 208.734 443.908 208.734 443.912 208.734C444.229 208.734 444.489 208.989 444.496 209.307L444.61 215.421C444.617 215.742 444.359 216.009 444.038 216.014C444.033 216.014 444.031 216.014 444.026 216.014" fill="#001E57"/>
<path fill-rule="evenodd" clip-rule="evenodd" d="M467.613 281.601V291.598H453.156V281.475L457.559 280.289L458.547 276.429H464.721L465.907 280.2L467.613 281.601" fill="#72ACFF"/>
<path fill-rule="evenodd" clip-rule="evenodd" d="M467.611 289.707C467.417 289.707 467.228 289.611 467.116 289.435L466.279 288.112C465.312 286.586 463.699 285.675 461.96 285.675C459.985 285.675 458.208 286.832 457.32 288.694L456.996 289.376C456.9 289.579 456.695 289.707 456.469 289.707H453.154C452.83 289.707 452.57 289.446 452.57 289.125C452.57 288.801 452.83 288.541 453.154 288.541H456.1L456.266 288.192C457.35 285.919 459.531 284.507 461.96 284.507C464.1 284.507 466.083 285.621 467.265 287.487L468.104 288.812C468.275 289.084 468.195 289.444 467.922 289.618C467.826 289.679 467.719 289.707 467.611 289.707" fill="white"/>
<path fill-rule="evenodd" clip-rule="evenodd" d="M464.436 282.36H459.479C459.155 282.36 458.895 282.098 458.895 281.776C458.895 281.452 459.155 281.192 459.479 281.192H464.436C464.76 281.192 465.02 281.452 465.02 281.776C465.02 282.098 464.76 282.36 464.436 282.36" fill="white"/>
<path fill-rule="evenodd" clip-rule="evenodd" d="M443.812 226.36L450.584 216.935C451.555 215.58 453.079 214.784 454.697 214.784H462.036L461.824 226.193L443.812 226.36" fill="#FFBFAA"/>
<path fill-rule="evenodd" clip-rule="evenodd" d="M446.659 226.916C446.337 226.916 446.077 226.659 446.075 226.337C446.071 226.015 446.331 225.751 446.652 225.748L461.246 225.614L461.438 215.368H454.694C453.273 215.368 451.913 216.08 451.053 217.275L450.401 218.186C450.264 218.375 450.026 218.466 449.796 218.414L440.844 216.372L439.01 222.846C438.921 223.157 438.599 223.335 438.289 223.248C437.979 223.161 437.798 222.837 437.885 222.527L439.872 215.521C439.957 215.222 440.26 215.042 440.563 215.11L449.68 217.189L450.106 216.595C451.183 215.094 452.899 214.2 454.694 214.2H462.033C462.188 214.2 462.339 214.262 462.449 214.373C462.558 214.485 462.62 214.638 462.617 214.793L462.405 226.205C462.398 226.519 462.143 226.775 461.826 226.777L446.664 226.916C446.661 226.916 446.659 226.916 446.659 226.916" fill="#2A0055"/>
<path fill-rule="evenodd" clip-rule="evenodd" d="M443.809 208.369C443.702 208.369 443.59 208.339 443.495 208.275C443.223 208.102 443.146 207.739 443.319 207.47C445.087 204.732 446.428 199.118 447.508 194.605C447.692 193.834 447.87 193.088 448.044 192.383L445.208 189.757C445.057 189.618 444.991 189.415 445.03 189.214C445.069 189.016 445.208 188.852 445.4 188.781L447.441 188.017L445.028 186.358C444.763 186.176 444.695 185.811 444.877 185.546C445.06 185.281 445.425 185.213 445.689 185.395L449.025 187.688C449.205 187.811 449.301 188.026 449.273 188.24C449.248 188.457 449.102 188.639 448.899 188.717L446.695 189.543L449.091 191.76C449.248 191.906 449.312 192.125 449.262 192.331C449.063 193.127 448.858 193.985 448.644 194.877C447.544 199.476 446.175 205.198 444.3 208.102C444.188 208.275 444.001 208.369 443.809 208.369" fill="#001E57"/>
<path fill-rule="evenodd" clip-rule="evenodd" d="M442.057 206.386C441.85 206.386 441.649 206.275 441.542 206.078C439.073 201.472 436.121 196.314 432.966 192.992C432.836 192.856 432.779 192.664 432.816 192.479C432.852 192.294 432.978 192.137 433.149 192.059L434.832 191.297L433.233 190.852C432.964 190.777 432.786 190.524 432.806 190.246L433.222 184.9C433.247 184.579 433.527 184.335 433.849 184.364C434.168 184.389 434.41 184.67 434.385 184.992L434.009 189.856L436.696 190.606C436.931 190.672 437.102 190.878 437.12 191.124C437.139 191.368 437.002 191.598 436.778 191.699L434.365 192.792C437.403 196.207 440.207 201.116 442.573 205.526C442.724 205.809 442.619 206.163 442.333 206.316C442.247 206.363 442.151 206.386 442.057 206.386" fill="#001E57"/>
<path fill-rule="evenodd" clip-rule="evenodd" d="M443.913 209.902C443.605 209.902 443.347 209.662 443.329 209.35C443.301 208.853 443.267 208.342 443.228 207.83C443.203 207.509 443.445 207.228 443.767 207.203C444.086 207.173 444.369 207.42 444.392 207.742C444.433 208.262 444.467 208.78 444.497 209.286C444.513 209.608 444.266 209.884 443.945 209.902C443.933 209.902 443.924 209.902 443.913 209.902" fill="#2A0055"/>
<path fill-rule="evenodd" clip-rule="evenodd" d="M418.224 209.094C417.071 209.094 416.392 208.675 416.351 208.649C416.077 208.476 415.997 208.116 416.168 207.842C416.341 207.573 416.697 207.491 416.969 207.659C417.026 207.691 418.059 208.28 419.807 207.609C420.108 207.495 420.446 207.646 420.562 207.947C420.676 208.248 420.525 208.586 420.224 208.7C419.458 208.994 418.785 209.094 418.224 209.094" fill="white"/>
<path fill-rule="evenodd" clip-rule="evenodd" d="M442.333 184.458C440.834 184.458 439.47 184.084 438.266 183.34C437.992 183.171 437.905 182.811 438.076 182.537C438.245 182.262 438.606 182.177 438.879 182.347C440.036 183.061 441.377 183.372 442.872 183.274C443.191 183.251 443.472 183.495 443.494 183.817C443.515 184.138 443.271 184.417 442.949 184.437C442.742 184.451 442.536 184.458 442.333 184.458" fill="#001E57"/>
<path fill-rule="evenodd" clip-rule="evenodd" d="M427.517 186.29L425.293 187.052C422.404 188.229 420.141 190.661 419.087 193.722L411.762 220.243C411.096 222.657 412.814 225.071 415.209 225.084L439.492 225.196L444.442 215.43L428.484 213.577L432.703 192.564L427.517 186.29" fill="#72ACFF"/>
<path fill-rule="evenodd" clip-rule="evenodd" d="M444.444 215.806C444.426 215.806 444.41 215.806 444.394 215.804L422.128 213.91C421.818 213.883 421.583 213.618 421.594 213.306C421.606 212.995 421.859 212.747 422.171 212.745L426.96 212.69L429.278 208.28C429.31 208.218 429.351 208.164 429.403 208.118C429.431 208.091 432.399 205.337 432.866 200.199C432.896 199.878 433.179 199.64 433.501 199.67C433.822 199.7 434.06 199.985 434.03 200.304C433.555 205.497 430.788 208.403 430.266 208.91L427.993 213.237L444.492 214.64C444.814 214.668 445.051 214.951 445.026 215.272C444.999 215.576 444.743 215.806 444.444 215.806" fill="white"/>
<path fill-rule="evenodd" clip-rule="evenodd" d="M442.036 225.641H424.522C424.2 225.641 423.938 225.379 423.938 225.057C423.938 224.735 424.2 224.473 424.522 224.473H442.036C442.357 224.473 442.62 224.735 442.62 225.057C442.62 225.379 442.357 225.641 442.036 225.641" fill="white"/>
<path fill-rule="evenodd" clip-rule="evenodd" d="M453.372 210.86C453.059 210.86 452.799 210.611 452.79 210.297L452.664 206.681C452.662 206.612 452.671 206.544 452.692 206.48C453.712 203.345 454.072 200.083 453.764 196.784L453.454 193.469C453.424 193.148 453.659 192.862 453.981 192.833C454.3 192.805 454.585 193.038 454.617 193.36L454.928 196.677C455.247 200.099 454.88 203.484 453.835 206.742L453.956 210.256C453.967 210.58 453.716 210.849 453.392 210.86C453.385 210.86 453.378 210.86 453.372 210.86" fill="white"/>
<path fill-rule="evenodd" clip-rule="evenodd" d="M457.922 224.259H453.25L462.364 196.51H467.036L457.922 224.259" fill="#2A0055"/>
<path fill-rule="evenodd" clip-rule="evenodd" d="M424.336 227.45V234.356C424.336 242.48 430.612 249.064 438.353 249.064H456.099L471.836 274.456H492.152L466.842 230.097L459.547 228.084L424.336 227.45" fill="#001E57"/>
<path fill-rule="evenodd" clip-rule="evenodd" d="M504.201 224.619C510.155 224.619 515.001 229.704 515.001 235.953V291.041H511.7V235.953C511.7 231.614 508.335 228.085 504.201 228.085H422.64C418.506 228.085 415.143 231.614 415.143 235.953V291.974H411.84V235.953C411.84 230.952 414.943 226.697 419.234 225.196L504.201 224.619" fill="white"/>
<path fill-rule="evenodd" clip-rule="evenodd" d="M419.234 225.196C420.307 224.822 421.452 224.619 422.64 224.619H504.202L419.234 225.196" fill="white"/>
<path fill-rule="evenodd" clip-rule="evenodd" d="M411.842 254.614C411.52 254.614 411.258 254.352 411.258 254.03V235.953C411.258 229.38 416.366 224.035 422.642 224.035C422.966 224.035 423.226 224.295 423.226 224.619C423.226 224.941 422.966 225.203 422.642 225.203C417.009 225.203 412.426 230.026 412.426 235.953V254.03C412.426 254.352 412.164 254.614 411.842 254.614" fill="#CFE4FF"/>
<path fill-rule="evenodd" clip-rule="evenodd" d="M411.842 292.558C411.52 292.558 411.258 292.296 411.258 291.974V281.033C411.258 280.709 411.52 280.449 411.842 280.449C412.164 280.449 412.426 280.709 412.426 281.033V291.974C412.426 292.296 412.164 292.558 411.842 292.558" fill="#CFE4FF"/>
<path fill-rule="evenodd" clip-rule="evenodd" d="M415.143 292.558C414.819 292.558 414.559 292.296 414.559 291.974V235.953C414.559 231.292 418.184 227.5 422.639 227.5C422.963 227.5 423.223 227.761 423.223 228.085C423.223 228.406 422.963 228.669 422.639 228.669C418.827 228.669 415.724 231.935 415.724 235.953V291.974C415.724 292.296 415.464 292.558 415.143 292.558" fill="#006BFF"/>
<path fill-rule="evenodd" clip-rule="evenodd" d="M501.561 228.669H466.264C465.94 228.669 465.68 228.406 465.68 228.085C465.68 227.761 465.94 227.5 466.264 227.5H501.561C501.883 227.5 502.145 227.761 502.145 228.085C502.145 228.406 501.883 228.669 501.561 228.669" fill="#CFE4FF"/>
<path fill-rule="evenodd" clip-rule="evenodd" d="M515.001 292.558H511.7C511.376 292.558 511.116 292.296 511.116 291.974V242.247C511.116 241.925 511.376 241.663 511.7 241.663C512.022 241.663 512.284 241.925 512.284 242.247V291.39H514.417V235.953C514.417 230.026 509.834 225.203 504.201 225.203C503.877 225.203 503.617 224.941 503.617 224.619C503.617 224.295 503.877 224.035 504.201 224.035C510.477 224.035 515.585 229.38 515.585 235.953V291.974C515.585 292.296 515.325 292.558 515.001 292.558" fill="#CFE4FF"/>
<path fill-rule="evenodd" clip-rule="evenodd" d="M478.324 250.802C478.121 250.802 477.925 250.697 477.815 250.508L468.865 234.819C468.133 233.535 466.796 232.738 465.377 232.738H448.381C448.057 232.738 447.797 232.476 447.797 232.154C447.797 231.83 448.057 231.57 448.381 231.57H465.377C467.214 231.57 468.941 232.592 469.881 234.242L478.83 249.928C478.99 250.209 478.892 250.567 478.614 250.727C478.52 250.777 478.422 250.802 478.324 250.802" fill="white"/>
<path fill-rule="evenodd" clip-rule="evenodd" d="M471.836 275.04C471.642 275.04 471.451 274.941 471.341 274.763L455.604 249.372C455.433 249.098 455.518 248.738 455.791 248.569C456.065 248.398 456.426 248.482 456.597 248.756L472.333 274.148C472.502 274.421 472.418 274.782 472.144 274.951C472.048 275.01 471.943 275.04 471.836 275.04" fill="white"/>
<path fill-rule="evenodd" clip-rule="evenodd" d="M487.949 268.821H475.876C475.67 268.821 475.481 268.713 475.374 268.538L460.782 244.154H439.139C438.815 244.154 438.555 243.892 438.555 243.57C438.555 243.246 438.815 242.986 439.139 242.986H461.113C461.318 242.986 461.508 243.094 461.612 243.269L476.206 267.652H487.949C488.27 267.652 488.533 267.915 488.533 268.237C488.533 268.56 488.27 268.821 487.949 268.821" fill="#72ACFF"/>
<path fill-rule="evenodd" clip-rule="evenodd" d="M431.92 234.447C431.598 234.447 431.338 234.189 431.336 233.868C431.334 233.546 431.594 233.281 431.915 233.279C431.972 233.279 437.706 233.199 438.995 230.213C439.122 229.916 439.467 229.782 439.761 229.907C440.058 230.035 440.195 230.379 440.067 230.676C438.474 234.363 432.189 234.445 431.922 234.447H431.92" fill="#72ACFF"/>
<path fill-rule="evenodd" clip-rule="evenodd" d="M457.977 224.259L467.088 196.51H503.23L494.116 224.259H457.977" fill="#006BFF"/>
<path fill-rule="evenodd" clip-rule="evenodd" d="M497.664 224.843H431.92C431.596 224.843 431.336 224.58 431.336 224.259C431.336 223.935 431.596 223.675 431.92 223.675H497.664C497.988 223.675 498.248 223.935 498.248 224.259C498.248 224.58 497.988 224.843 497.664 224.843" fill="#CFE4FF"/>
<path fill-rule="evenodd" clip-rule="evenodd" d="M479.199 216.484C477.807 216.484 476.623 215.932 475.861 214.928C475.029 213.83 474.803 212.295 475.246 210.712C476.083 207.703 479.117 205.252 482.005 205.252C483.007 205.252 483.915 205.542 484.631 206.092C484.887 206.288 484.934 206.655 484.738 206.911C484.542 207.167 484.175 207.214 483.919 207.018C483.411 206.628 482.747 206.421 482.005 206.421C479.605 206.421 477.077 208.487 476.37 211.024C476.028 212.254 476.181 213.417 476.792 214.223C477.326 214.928 478.182 215.316 479.199 215.316C481.188 215.316 483.322 213.885 484.387 211.836C484.535 211.551 484.889 211.44 485.174 211.588C485.459 211.738 485.571 212.09 485.423 212.377C484.166 214.795 481.606 216.484 479.199 216.484" fill="white"/>
<path fill-rule="evenodd" clip-rule="evenodd" d="M484.904 212.69C484.813 212.69 484.719 212.669 484.635 212.623C484.348 212.475 484.238 212.124 484.386 211.836C484.475 211.668 484.555 211.492 484.624 211.321C484.747 211.022 485.087 210.878 485.386 210.999C485.684 211.12 485.828 211.46 485.707 211.759C485.623 211.966 485.527 212.174 485.422 212.377C485.317 212.576 485.114 212.69 484.904 212.69" fill="white"/>
<path fill-rule="evenodd" clip-rule="evenodd" d="M482.007 206.42C481.943 206.42 481.881 206.411 481.82 206.391C481.514 206.286 481.35 205.955 481.452 205.649L482.251 203.29C482.354 202.985 482.684 202.82 482.99 202.923C483.296 203.028 483.46 203.359 483.357 203.665L482.559 206.024C482.477 206.268 482.249 206.42 482.007 206.42" fill="white"/>
<path fill-rule="evenodd" clip-rule="evenodd" d="M515.965 292.768H210.052C209.68 292.768 209.379 292.467 209.379 292.093C209.379 291.721 209.68 291.42 210.052 291.42H515.965C516.337 291.42 516.641 291.721 516.641 292.093C516.641 292.467 516.337 292.768 515.965 292.768" fill="#2A0055"/>
<path fill-rule="evenodd" clip-rule="evenodd" d="M311.534 76.3713C311.534 88.6344 301.592 98.5755 289.33 98.5755C277.067 98.5755 267.125 88.6344 267.125 76.3713C267.125 64.1083 277.067 54.1672 289.33 54.1672C301.592 54.1672 311.534 64.1083 311.534 76.3713" fill="#CFE4FF"/>
<path fill-rule="evenodd" clip-rule="evenodd" d="M289.33 54.6731C277.366 54.6731 267.632 64.4068 267.632 76.3712C267.632 88.3357 277.366 98.0693 289.33 98.0693C301.296 98.0693 311.028 88.3357 311.028 76.3712C311.028 64.4068 301.296 54.6731 289.33 54.6731ZM289.33 99.0814C276.807 99.0814 266.621 88.8935 266.621 76.3712C266.621 63.8488 276.807 53.6611 289.33 53.6611C301.852 53.6611 312.041 63.8488 312.041 76.3712C312.041 88.8935 301.852 99.0814 289.33 99.0814V99.0814Z" fill="#CFE4FF"/>
<path fill-rule="evenodd" clip-rule="evenodd" d="M301.631 100.315H226.129C228.041 96.2781 232.154 93.4841 236.917 93.4841C237.073 93.4841 237.223 93.4885 237.371 93.4965C239.911 89.8823 244.106 87.5229 248.856 87.5229C249.49 87.5229 250.115 87.5635 250.724 87.6489C253.722 80.453 260.819 75.3972 269.101 75.3972C277.334 75.3972 284.397 80.3962 287.422 87.527C287.505 87.5229 287.584 87.5229 287.667 87.5229C294.997 87.5229 301.01 93.1472 301.631 100.315" fill="#CFE4FF"/>
<path fill-rule="evenodd" clip-rule="evenodd" d="M226.958 99.8087H301.066C300.21 93.1599 294.427 88.0288 287.665 88.0288C287.592 88.0291 287.519 88.0284 287.446 88.0323C287.241 88.0434 287.038 87.9202 286.956 87.7245C283.908 80.5432 276.899 75.9031 269.099 75.9031C261.24 75.9031 254.211 80.59 251.19 87.8434C251.102 88.0558 250.88 88.1821 250.652 88.15C250.079 88.0697 249.475 88.0288 248.854 88.0288C244.456 88.0288 240.317 90.1813 237.785 93.7872C237.685 93.9298 237.518 94.0119 237.345 94.0017C237.203 93.9939 237.062 93.99 236.916 93.99C232.796 93.99 228.97 96.2493 226.958 99.8087ZM301.629 100.82H226.127C225.954 100.82 225.792 100.732 225.698 100.585C225.607 100.439 225.596 100.255 225.669 100.098C227.72 95.7729 232.134 92.9783 236.916 92.9783C236.984 92.9783 237.051 92.9789 237.119 92.9803C239.852 89.2409 244.219 87.0168 248.854 87.0168C249.384 87.0168 249.906 87.0446 250.408 87.0999C253.666 79.6701 260.959 74.8911 269.099 74.8911C277.191 74.8911 284.476 79.6393 287.752 87.017C291.377 87.0387 294.84 88.4009 297.505 90.8589C300.178 93.3218 301.821 96.6643 302.133 100.271C302.145 100.412 302.099 100.552 302.003 100.656C301.908 100.761 301.771 100.82 301.629 100.82V100.82Z" fill="white"/>
<path fill-rule="evenodd" clip-rule="evenodd" d="M72.964 151.524C56.5884 151.524 43.2656 138.201 43.2656 121.825C43.2656 105.449 56.5884 92.1267 72.964 92.1267V110.362C66.6433 110.362 61.5011 115.504 61.5011 121.825C61.5011 128.146 66.6433 133.288 72.964 133.288V151.524" fill="#001E57"/>
<path fill-rule="evenodd" clip-rule="evenodd" d="M72.9609 151.524V133.288C79.2817 133.288 84.4241 128.146 84.4241 121.825H102.659C102.659 138.201 89.3368 151.524 72.9609 151.524" fill="#001E57"/>
<path fill-rule="evenodd" clip-rule="evenodd" d="M102.659 121.825H84.4241C84.4241 115.504 79.2817 110.362 72.9609 110.362V92.1267C89.3368 92.1267 102.659 105.449 102.659 121.825" fill="#001E57"/>
<path fill-rule="evenodd" clip-rule="evenodd" d="M61.3156 151.524C44.9397 151.524 31.6172 138.201 31.6172 121.825C31.6172 105.449 44.9397 92.127 61.3156 92.127V110.362C54.9948 110.362 49.8524 115.505 49.8524 121.825C49.8524 128.146 54.9948 133.288 61.3156 133.288V151.524" fill="#006BFF"/>
<path fill-rule="evenodd" clip-rule="evenodd" d="M61.3164 151.524V133.288C67.6369 133.288 72.7791 128.146 72.7791 121.825H91.0148C91.0148 138.201 77.6921 151.524 61.3164 151.524" fill="#72ACFF"/>
<path fill-rule="evenodd" clip-rule="evenodd" d="M91.0148 121.825H72.7791C72.7791 115.505 67.6369 110.362 61.3164 110.362V92.127C77.6921 92.127 91.0148 105.449 91.0148 121.825" fill="#CFE4FF"/>
<path fill-rule="evenodd" clip-rule="evenodd" d="M68.6255 92.1268C68.6255 95.6607 65.7607 98.5254 62.2269 98.5254C58.6931 98.5254 55.8281 95.6607 55.8281 92.1268C55.8281 88.593 58.6931 85.728 62.2269 85.728C65.7607 85.728 68.6255 88.593 68.6255 92.1268" fill="#CFE4FF"/>
<path fill-rule="evenodd" clip-rule="evenodd" d="M61.543 88.308H62.9118V45.3423H61.543V88.308Z" fill="#CFE4FF"/>
<path fill-rule="evenodd" clip-rule="evenodd" d="M350.847 59.0266C350.847 60.7324 350.988 61.9632 351.269 62.7195C351.552 63.476 351.974 63.8542 352.537 63.8542C353.176 63.8542 353.616 63.4203 353.86 62.5527C354.107 61.6851 354.228 60.51 354.228 59.0266C354.228 57.5437 354.107 56.3684 353.86 55.5005C353.616 54.6332 353.176 54.1992 352.537 54.1992C351.96 54.1992 351.533 54.585 351.26 55.3561C350.984 56.1272 350.847 57.351 350.847 59.0266ZM360.924 58.9376C360.924 62.1856 360.187 64.7034 358.711 66.4903C357.235 68.2778 355.147 69.171 352.448 69.171C349.898 69.171 347.876 68.2477 346.387 66.4014C344.897 64.5548 344.151 62.0672 344.151 58.9376C344.151 55.6751 344.879 53.1649 346.332 51.4073C347.785 49.6497 349.825 48.7712 352.448 48.7712C355.044 48.7712 357.105 49.6833 358.633 51.5075C360.162 53.3316 360.924 55.8085 360.924 58.9376ZM352.405 36.291L334.362 68.8151H327.755L345.798 36.291H352.405ZM326.11 46.0792C326.11 47.7849 326.249 49.016 326.532 49.7722C326.813 50.5285 327.237 50.9068 327.8 50.9068C328.364 50.9068 328.781 50.5363 329.057 49.7944C329.331 49.0529 329.468 47.8144 329.468 46.0792C329.468 44.3738 329.331 43.1428 329.057 42.3863C328.781 41.63 328.364 41.2518 327.8 41.2518C327.221 41.2518 326.794 41.6376 326.521 42.4087C326.247 43.18 326.11 44.4035 326.11 46.0792ZM336.187 45.9902C336.187 49.2532 335.452 51.7783 333.985 53.5653C332.516 55.3525 330.424 56.2459 327.711 56.2459C325.161 56.2459 323.14 55.3228 321.65 53.4763C320.158 51.6297 319.414 49.1348 319.414 45.9902C319.414 42.7278 320.14 40.2174 321.593 38.4601C323.046 36.7025 325.086 35.8237 327.711 35.8237C330.305 35.8237 332.368 36.7358 333.896 38.56C335.422 40.3842 336.187 42.8613 336.187 45.9902V45.9902Z" fill="#006BFF"/>
<path fill-rule="evenodd" clip-rule="evenodd" d="M62.1719 196.001C62.1719 197.274 62.2768 198.192 62.4869 198.755C62.6968 199.319 63.0119 199.599 63.4319 199.599C63.9071 199.599 64.2361 199.277 64.4186 198.63C64.6008 197.984 64.6921 197.108 64.6921 196.001C64.6921 194.897 64.6008 194.021 64.4186 193.376C64.2361 192.728 63.9071 192.406 63.4319 192.406C63.0009 192.406 62.6831 192.693 62.4787 193.266C62.2741 193.841 62.1719 194.754 62.1719 196.001ZM69.6821 195.935C69.6821 198.356 69.1323 200.233 68.0327 201.566C66.9329 202.896 65.3772 203.562 63.3657 203.562C61.4646 203.562 59.9587 202.875 58.8479 201.5C57.7371 200.122 57.1818 198.269 57.1818 195.935C57.1818 193.506 57.7232 191.635 58.8064 190.323C59.8896 189.014 61.4094 188.359 63.3657 188.359C65.2996 188.359 66.8361 189.039 67.9745 190.398C69.1129 191.758 69.6821 193.604 69.6821 195.935ZM63.3324 179.059L49.8869 203.297H44.9631L58.4085 179.059H63.3324ZM43.7364 186.354C43.7364 187.624 43.8411 188.541 44.0512 189.105C44.2611 189.668 44.5761 189.951 44.9964 189.951C45.4161 189.951 45.7282 189.675 45.9329 189.123C46.1373 188.569 46.2397 187.647 46.2397 186.354C46.2397 185.083 46.1373 184.166 45.9329 183.602C45.7282 183.038 45.4161 182.756 44.9964 182.756C44.5652 182.756 44.2474 183.043 44.043 183.618C43.8383 184.193 43.7364 185.106 43.7364 186.354ZM51.2464 186.287C51.2464 188.719 50.6993 190.601 49.6052 191.931C48.511 193.264 46.9526 193.93 44.93 193.93C43.0289 193.93 41.523 193.241 40.4122 191.865C39.3014 190.49 38.7461 188.63 38.7461 186.287C38.7461 183.855 39.2875 181.985 40.3707 180.675C41.4539 179.366 42.9737 178.711 44.93 178.711C46.8639 178.711 48.4004 179.391 49.5388 180.75C50.6772 182.109 51.2464 183.956 51.2464 186.287V186.287Z" fill="#006BFF"/>
<path fill-rule="evenodd" clip-rule="evenodd" d="M486.893 145.517C486.893 146.615 486.982 147.408 487.164 147.895C487.344 148.382 487.618 148.626 487.981 148.626C488.392 148.626 488.674 148.346 488.832 147.788C488.992 147.229 489.069 146.472 489.069 145.517C489.069 144.562 488.992 143.805 488.832 143.247C488.674 142.688 488.392 142.409 487.981 142.409C487.609 142.409 487.333 142.657 487.157 143.154C486.979 143.65 486.893 144.438 486.893 145.517ZM493.381 145.46C493.381 147.551 492.906 149.172 491.955 150.323C491.006 151.474 489.66 152.049 487.924 152.049C486.281 152.049 484.981 151.454 484.02 150.265C483.06 149.077 482.581 147.475 482.581 145.46C482.581 143.359 483.049 141.743 483.984 140.611C484.919 139.48 486.233 138.914 487.924 138.914C489.594 138.914 490.922 139.501 491.905 140.676C492.888 141.85 493.381 143.445 493.381 145.46ZM487.894 130.878L476.277 151.82H472.025L483.642 130.878H487.894ZM470.964 137.181C470.964 138.279 471.055 139.071 471.236 139.558C471.418 140.046 471.69 140.289 472.052 140.289C472.415 140.289 472.684 140.05 472.862 139.573C473.038 139.095 473.127 138.298 473.127 137.181C473.127 136.083 473.038 135.29 472.862 134.803C472.684 134.316 472.415 134.072 472.052 134.072C471.68 134.072 471.407 134.321 471.229 134.817C471.053 135.314 470.964 136.102 470.964 137.181ZM477.452 137.123C477.452 139.224 476.98 140.85 476.036 142.001C475.089 143.151 473.743 143.727 471.995 143.727C470.353 143.727 469.052 143.132 468.092 141.943C467.131 140.754 466.652 139.148 466.652 137.123C466.652 135.023 467.12 133.406 468.055 132.275C468.993 131.143 470.305 130.578 471.995 130.578C473.665 130.578 474.993 131.165 475.976 132.339C476.96 133.514 477.452 135.109 477.452 137.123V137.123Z" fill="#006BFF"/>
</svg>
