<svg width="13" height="242" viewBox="0 0 13 242" fill="none" xmlns="http://www.w3.org/2000/svg">
<rect x="12.375" y="0.797363" width="240" height="11.4435" transform="rotate(90 12.375 0.797363)" fill="#5E4BEF"/>
<mask id="mask0" mask-type="alpha" maskUnits="userSpaceOnUse" x="0" y="0" width="13" height="241">
<rect x="12.375" y="0.797363" width="240" height="11.4435" transform="rotate(90 12.375 0.797363)" fill="white"/>
</mask>
<g mask="url(#mask0)">
<path fill-rule="evenodd" clip-rule="evenodd" d="M81.1133 -121.438L116.567 -88.9955L-109.002 165.608L-144.455 133.165L81.1133 -121.438Z" fill="#291C8B"/>
<path fill-rule="evenodd" clip-rule="evenodd" d="M1.21484 151.298L10.8805 160.147L-214.705 414.735L-224.371 405.886L1.21484 151.298Z" fill="#BA10FE"/>
<path opacity="0.122675" fill-rule="evenodd" clip-rule="evenodd" d="M213.537 -228.5L269.5 -177.303L-16.6456 155.132L-72.6084 103.936L213.537 -228.5Z" fill="#9C8EFF"/>
<path fill-rule="evenodd" clip-rule="evenodd" d="M161.207 68.6304L196.66 101.073L-28.9082 355.677L-64.3615 323.234L161.207 68.6304Z" fill="#B3A9FF"/>
<path opacity="0.582241" fill-rule="evenodd" clip-rule="evenodd" d="M156.76 -9.49146L212.723 41.7051L-73.4229 374.141L-129.386 322.944L156.76 -9.49146Z" fill="#271D72"/>
</g>
</svg>
