<?xml version="1.0" encoding="utf-8"?>
<!-- Generator: Adobe Illustrator 24.0.1, SVG Export Plug-In . SVG Version: 6.00 Build 0)  -->
<svg version="1.1" xmlns="http://www.w3.org/2000/svg" xmlns:xlink="http://www.w3.org/1999/xlink" x="0px" y="0px" width="14.9px"
	 height="330px" viewBox="0 0 14.9 330" style="enable-background:new 0 0 14.9 330;" xml:space="preserve">
<style type="text/css">
	.st0{fill:#1063FE;}
	.st1{fill:#FFFFFF;filter:url(#Adobe_OpacityMaskFilter);}
	.st2{mask:url(#mask0_1_);}
	.st3{fill-rule:evenodd;clip-rule:evenodd;fill:#5410FE;}
	.st4{fill-rule:evenodd;clip-rule:evenodd;fill:#1091FE;}
	.st5{opacity:0.1227;fill-rule:evenodd;clip-rule:evenodd;fill:#011D6C;enable-background:new    ;}
	.st6{fill-rule:evenodd;clip-rule:evenodd;fill:#011D6C;}
	.st7{opacity:0.5822;fill-rule:evenodd;clip-rule:evenodd;fill:#011D6C;enable-background:new    ;}
</style>
<g id="Layer_1">
	<rect class="st0" width="14.9" height="330"/>
	<defs>
		<filter id="Adobe_OpacityMaskFilter" filterUnits="userSpaceOnUse" x="-335" y="-201.6" width="643.5" height="826.1">
			<feColorMatrix  type="matrix" values="1 0 0 0 0  0 1 0 0 0  0 0 1 0 0  0 0 0 1 0"/>
		</filter>
	</defs>
	<mask maskUnits="userSpaceOnUse" x="-335" y="-201.6" width="643.5" height="826.1" id="mask0_1_">
		<rect class="st1" width="14.9" height="330"/>
	</mask>
	<g class="st2">
		<path class="st3" d="M-89.6,487l-46.2-41.7l293.9-327l46.2,41.7L-89.6,487z"/>
		<path class="st4" d="M14.5,136.7L1.9,125.3l293.9-327l12.6,11.4L14.5,136.7z"/>
		<path class="st5" d="M-262.1,624.5l-72.9-65.8L37.8,131.8l72.9,65.8L-262.1,624.5z"/>
		<path class="st6" d="M-193.9,242.9l-46.2-41.7l293.9-327L100-84.1L-193.9,242.9z"/>
		<path class="st7" d="M-188.1,343.2l-72.9-65.8l372.8-426.9l72.9,65.8L-188.1,343.2z"/>
	</g>
</g>
<g id="Layer_2">
</g>
</svg>
