<svg width="206" height="220" viewBox="0 0 206 220" fill="none" xmlns="http://www.w3.org/2000/svg">
<path d="M104.822 196.129L103.629 181.458L102.034 181.588L103.227 196.258L104.822 196.129ZM102.034 181.588L103.227 196.258L104.822 196.129L103.629 181.458L102.034 181.588ZM5.15721 218.764L12.7867 206.169L11.4182 205.34L3.78871 217.935L5.15721 218.764ZM11.4182 205.34L3.78871 217.935L5.15721 218.764L12.7867 206.169L11.4182 205.34ZM4.9362 195.45L12.9759 183.115L11.6354 182.241L3.59578 194.576L4.9362 195.45ZM11.6354 182.241L3.59578 194.576L4.9362 195.45L12.9759 183.115L11.6354 182.241ZM29.9758 219.154L35.6438 205.57L34.1672 204.954L28.4992 218.538L29.9758 219.154ZM34.1672 204.954L28.4992 218.538L29.9758 219.154L35.6438 205.57L34.1672 204.954ZM1.14213 5.26664L15.6511 2.64721L15.3668 1.07267L0.857867 3.69209L1.14213 5.26664ZM15.3668 1.07267L0.857867 3.69209L1.14213 5.26664L15.6511 2.64721L15.3668 1.07267ZM4.60716 172.069L13.2525 160.147L11.9573 159.208L3.31188 171.13L4.60716 172.069ZM11.9573 159.208L3.31188 171.13L4.60716 172.069L13.2525 160.147L11.9573 159.208ZM1.49945 29.435L15.5109 24.8538L15.0137 23.333L1.00222 27.9142L1.49945 29.435ZM15.0137 23.333L1.00222 27.9142L1.49945 29.435L15.5109 24.8538L15.0137 23.333ZM4.17667 148.6L13.6101 137.288L12.3813 136.264L2.94789 147.575L4.17667 148.6ZM12.3813 136.264L2.94789 147.575L4.17667 148.6L13.6101 137.288L12.3813 136.264ZM29.7418 195.879L35.8523 182.488L34.3967 181.823L28.2862 195.214L29.7418 195.879ZM34.3967 181.823L28.2862 195.214L29.7418 195.879L35.8523 182.488L34.3967 181.823ZM3.66213 125.025L14.0241 114.553L12.8867 113.427L2.52479 123.899L3.66213 125.025ZM12.8867 113.427L2.52479 123.899L3.66213 125.025L14.0241 114.553L12.8867 113.427ZM1.96895 53.5131L15.2456 47.1199L14.5514 45.6783L1.27478 52.0715L1.96895 53.5131ZM14.5514 45.6783L1.27478 52.0715L1.96895 53.5131L15.2456 47.1199L14.5514 45.6783ZM2.51502 77.4831L14.884 69.4751L14.0145 68.132L1.64547 76.14L2.51502 77.4831ZM14.0145 68.132L1.64547 76.14L2.51502 77.4831L14.884 69.4751L14.0145 68.132ZM3.09455 101.319L14.461 91.9499L13.4433 90.7152L2.07688 100.084L3.09455 101.319ZM13.4433 90.7152L2.07688 100.084L3.09455 101.319L14.461 91.9499L13.4433 90.7152ZM54.8945 219.398L58.3731 205.101L56.8185 204.723L53.3398 219.019L54.8945 219.398ZM56.8185 204.723L53.3398 219.019L54.8945 219.398L58.3731 205.101L56.8185 204.723ZM25.0447 5.66124L39.3846 2.24007L39.0133 0.683746L24.6734 4.10492L25.0447 5.66124ZM39.0133 0.683746L24.6734 4.10492L25.0447 5.66124L39.3846 2.24007L39.0133 0.683746ZM29.3707 172.544L36.1799 159.489L34.7613 158.749L27.9521 171.804L29.3707 172.544ZM34.7613 158.749L27.9521 171.804L29.3707 172.544L36.1799 159.489L34.7613 158.749ZM28.8637 149.12L36.6186 136.603L35.2584 135.76L27.5036 148.277L28.8637 149.12ZM35.2584 135.76L27.5036 148.277L28.8637 149.12L36.6186 136.603L35.2584 135.76ZM25.5062 29.9022L39.1607 24.3525L38.5583 22.8703L24.9038 28.42L25.5062 29.9022ZM38.5583 22.8703L24.9038 28.42L25.5062 29.9022L39.1607 24.3525L38.5583 22.8703ZM54.6616 196.158L58.5884 181.975L57.0464 181.548L53.1196 195.731L54.6616 196.158ZM57.0464 181.548L53.1196 195.731L54.6616 196.158L58.5884 181.975L57.0464 181.548ZM79.8985 219.459L80.977 204.783L79.3813 204.665L78.3028 219.341L79.8985 219.459ZM79.3813 204.665L78.3028 219.341L79.8985 219.459L80.977 204.783L79.3813 204.665ZM26.1065 54.0448L38.7831 46.5333L37.9675 45.1568L25.2909 52.6683L26.1065 54.0448ZM37.9675 45.1568L25.2909 52.6683L26.1065 54.0448L38.7831 46.5333L37.9675 45.1568ZM28.2389 125.577L37.1463 113.852L35.8723 112.885L26.9648 124.609L28.2389 125.577ZM35.8723 112.885L26.9648 124.609L28.2389 125.577L37.1463 113.852L35.8723 112.885ZM27.5335 101.897L37.7207 91.2596L36.5652 90.153L26.3779 100.79L27.5335 101.897ZM36.5652 90.153L26.3779 100.79L27.5335 101.897L37.7207 91.2596L36.5652 90.153ZM26.802 78.0511L38.2861 68.8206L37.2837 67.5735L25.7996 76.804L26.802 78.0511ZM37.2837 67.5735L25.7996 76.804L26.802 78.0511L38.2861 68.8206L37.2837 67.5735ZM48.9312 5.95826L63.1117 1.93625L62.6751 0.396963L48.4946 4.41898L48.9312 5.95826ZM62.6751 0.396963L48.4946 4.41898L48.9312 5.95826L63.1117 1.93625L62.6751 0.396963ZM54.2572 172.88L58.9587 158.934L57.4425 158.423L52.741 172.369L54.2572 172.88ZM57.4425 158.423L52.741 172.369L54.2572 172.88L58.9587 158.934L57.4425 158.423ZM79.689 196.259L81.1833 181.619L79.5916 181.457L78.0972 196.097L79.689 196.259ZM79.5916 181.457L78.0972 196.097L79.689 196.259L81.1833 181.619L79.5916 181.457ZM49.5025 30.287L62.8019 23.9413L62.1129 22.4972L48.8135 28.843L49.5025 30.287ZM62.1129 22.4972L48.8135 28.843L49.5025 30.287L62.8019 23.9413L62.1129 22.4972ZM53.673 149.522L59.4853 136L58.0153 135.368L52.203 148.89L53.673 149.522ZM58.0153 135.368L52.203 148.89L53.673 149.522L59.4853 136L58.0153 135.368ZM52.9224 126.045L60.1474 113.217L58.7534 112.432L51.5283 125.26L52.9224 126.045ZM58.7534 112.432L51.5283 125.26L52.9224 126.045L60.1474 113.217L58.7534 112.432ZM50.2533 54.5024L62.2957 46.0186L61.3742 44.7106L49.3318 53.1944L50.2533 54.5024ZM61.3742 44.7106L49.3318 53.1944L50.2533 54.5024L62.2957 46.0186L61.3742 44.7106ZM52.0494 102.398L60.8885 90.6221L59.6089 89.6616L50.7698 101.438L52.0494 102.398ZM59.6089 89.6616L50.7698 101.438L52.0494 102.398L60.8885 90.6221L59.6089 89.6616ZM51.1299 78.5519L61.6342 68.2239L60.5125 67.083L50.0081 77.411L51.1299 78.5519ZM60.5125 67.083L50.0081 77.411L51.1299 78.5519L61.6342 68.2239L60.5125 67.083ZM72.7718 6.12363L86.8573 1.76424L86.3843 0.235765L72.2987 4.59516L72.7718 6.12363ZM86.3843 0.235765L72.2987 4.59516L72.7718 6.12363L86.8573 1.76424L86.3843 0.235765ZM79.2737 173.045L81.577 158.509L79.9967 158.259L77.6934 172.794L79.2737 173.045ZM79.9967 158.259L77.6934 172.794L79.2737 173.045L81.577 158.509L79.9967 158.259ZM73.4556 30.5611L86.4664 23.6391L85.7149 22.2266L72.7041 29.1486L73.4556 30.5611ZM85.7149 22.2266L72.7041 29.1486L73.4556 30.5611L86.4664 23.6391L85.7149 22.2266ZM78.6164 149.783L82.19 135.507L80.6379 135.118L77.0643 149.395L78.6164 149.783ZM80.6379 135.118L77.0643 149.395L78.6164 149.783L82.19 135.507L80.6379 135.118ZM104.425 172.986L104.02 158.279L102.421 158.323L102.825 173.03L104.425 172.986ZM102.421 158.323L102.825 173.03L104.425 172.986L104.02 158.279L102.421 158.323ZM74.3775 54.8731L85.8123 45.5857L84.8036 44.3437L73.3688 53.6311L74.3775 54.8731ZM84.8036 44.3437L73.3688 53.6311L74.3775 54.8731L85.8123 45.5857L84.8036 44.3437ZM77.7263 126.4L83.0108 112.663L81.5174 112.088L76.233 125.826L77.7263 126.4ZM81.5174 112.088L76.233 125.826L77.7263 126.4L83.0108 112.663L81.5174 112.088ZM96.5369 6.10346L110.632 1.78576L110.163 0.255933L96.0682 4.57363L96.5369 6.10346ZM110.163 0.255933L96.0682 4.57363L96.5369 6.10346L110.632 1.78576L110.163 0.255933ZM75.4818 78.977L84.9455 67.6976L83.7198 66.6692L74.2561 77.9486L75.4818 78.977ZM83.7198 66.6692L74.2561 77.9486L75.4818 78.977L84.9455 67.6976L83.7198 66.6692ZM76.6469 102.818L83.965 90.0466L82.5767 89.2511L75.2586 102.022L76.6469 102.818ZM82.5767 89.2511L75.2586 102.022L76.6469 102.818L83.965 90.0466L82.5767 89.2511ZM97.3089 30.6781L110.185 23.5078L109.406 22.11L96.5304 29.2802L97.3089 30.6781ZM109.406 22.11L96.5304 29.2802L97.3089 30.6781L110.185 23.5078L109.406 22.11ZM103.723 149.844L104.703 135.164L103.106 135.058L102.127 149.737L103.723 149.844ZM103.106 135.058L102.127 149.737L103.723 149.844L104.703 135.164L103.106 135.058ZM120.2 5.82246L134.457 2.07528L134.05 0.527837L119.794 4.27502L120.2 5.82246ZM134.05 0.527837L119.794 4.27502L120.2 5.82246L134.457 2.07528L134.05 0.527837ZM102.681 126.614L105.7 112.207L104.134 111.879L101.115 126.286L102.681 126.614ZM104.134 111.879L101.115 126.286L102.681 126.614L105.7 112.207L104.134 111.879ZM98.4301 55.1362L109.373 45.2745L108.302 44.0859L97.359 53.9476L98.4301 55.1362ZM108.302 44.0859L97.359 53.9476L98.4301 55.1362L109.373 45.2745L108.302 44.0859ZM99.8323 79.3286L108.238 67.2417L106.925 66.3282L98.5187 78.4151L99.8323 79.3286ZM106.925 66.3282L98.5187 78.4151L99.8323 79.3286L108.238 67.2417L106.925 66.3282ZM101.326 103.149L106.937 89.5404L105.458 88.9305L99.8465 102.539L101.326 103.149ZM105.458 88.9305L99.8465 102.539L101.326 103.149L106.937 89.5404L105.458 88.9305ZM104.971 219.298L103.476 204.658L101.884 204.821L103.379 219.461L104.971 219.298ZM101.884 204.821L103.379 219.461L104.971 219.298L103.476 204.658L101.884 204.821ZM121.007 30.571L134.008 23.6301L133.254 22.2186L120.253 29.1595L121.007 30.571ZM133.254 22.2186L120.253 29.1595L121.007 30.571L134.008 23.6301L133.254 22.2186ZM143.755 5.15989L158.302 2.75843L158.041 1.1798L143.494 3.58125L143.755 5.15989ZM158.041 1.1798L143.494 3.58125L143.755 5.15989L158.302 2.75843L158.041 1.1798ZM127.84 126.622L128.151 111.904L126.551 111.87L126.24 126.588L127.84 126.622ZM126.551 111.87L126.24 126.588L127.84 126.622L128.151 111.904L126.551 111.87ZM122.329 55.2435L133.054 45.1486L131.957 43.9836L121.233 54.0784L122.329 55.2435ZM131.957 43.9836L121.233 54.0784L122.329 55.2435L133.054 45.1486L131.957 43.9836ZM167.3 3.96965L182.044 3.94311L182.041 2.34312L167.297 2.36965L167.3 3.96965ZM182.041 2.34312L167.297 2.36965L167.3 3.96965L182.044 3.94311L182.041 2.34312ZM126.124 103.369L129.779 89.1121L128.229 88.7148L124.574 102.972L126.124 103.369ZM128.229 88.7148L124.574 102.972L126.124 103.369L129.779 89.1121L128.229 88.7148ZM124.137 79.5909L131.563 66.8767L130.181 66.0697L122.755 78.784L124.137 79.5909ZM130.181 66.0697L122.755 78.784L124.137 79.5909L131.563 66.8767L130.181 66.0697ZM144.468 30.0655L157.978 24.1803L157.339 22.7135L143.829 28.5987L144.468 30.0655ZM157.339 22.7135L143.829 28.5987L144.468 30.0655L157.978 24.1803L157.339 22.7135ZM191.092 2.19798L205.426 5.63432L205.799 4.0784L191.465 0.64206L191.092 2.19798ZM205.799 4.0784L191.465 0.64206L191.092 2.19798L205.426 5.63432L205.799 4.0784ZM145.905 55.0709L156.983 45.3552L155.928 44.1523L144.85 53.868L145.905 55.0709ZM155.928 44.1523L144.85 53.868L145.905 55.0709L156.983 45.3552L155.928 44.1523ZM167.686 28.8628L182.03 25.4454L181.659 23.8889L167.315 27.3063L167.686 28.8628ZM181.659 23.8889L167.315 27.3063L167.686 28.8628L182.03 25.4454L181.659 23.8889ZM151.116 103.442L152.402 88.7815L150.808 88.6417L149.523 103.303L151.116 103.442ZM150.808 88.6417L149.523 103.303L151.116 103.442L152.402 88.7815L150.808 88.6417ZM148.283 79.7445L155.008 66.6474L153.585 65.9165L146.859 79.0136L148.283 79.7445ZM153.585 65.9165L146.859 79.0136L148.283 79.7445L155.008 66.6474L153.585 65.9165ZM191.033 26.6151L205.742 27.6917L205.858 26.096L191.15 25.0194L191.033 26.6151ZM205.858 26.096L191.15 25.0194L191.033 26.6151L205.742 27.6917L205.858 26.096ZM168.888 54.2237L181.335 46.3351L180.479 44.9836L168.032 52.8722L168.888 54.2237ZM180.479 44.9836L168.032 52.8722L168.888 54.2237L181.335 46.3351L180.479 44.9836ZM171.951 79.7038L178.88 66.7109L177.468 65.958L170.539 78.9509L171.951 79.7038ZM177.468 65.958L170.539 78.9509L171.951 79.7038L178.88 66.7109L177.468 65.958ZM191.29 51.5221L205.852 49.2078L205.601 47.6276L191.039 49.9419L191.29 51.5221ZM205.601 47.6276L191.039 49.9419L191.29 51.5221L205.852 49.2078L205.601 47.6276ZM193.444 78.2677L204.531 68.5671L203.477 67.363L192.39 77.0636L193.444 78.2677ZM203.477 67.363L192.39 77.0636L193.444 78.2677L204.531 68.5671L203.477 67.363ZM203.907 101.155L194.444 89.8702L193.218 90.8983L202.681 102.183L203.907 101.155ZM193.218 90.8983L202.681 102.183L203.907 101.155L194.444 89.8702L193.218 90.8983ZM205.435 122.03L192.49 114.985L191.725 116.39L204.67 123.436L205.435 122.03ZM191.725 116.39L204.67 123.436L205.435 122.03L192.49 114.985L191.725 116.39ZM205.497 145.078L192.397 138.323L191.663 139.745L204.763 146.5L205.497 145.078ZM191.663 139.745L204.763 146.5L205.497 145.078L192.397 138.323L191.663 139.745ZM205.355 168.619L192.608 161.233L191.806 162.617L204.553 170.004L205.355 168.619ZM191.806 162.617L204.553 170.004L205.355 168.619L192.608 161.233L191.806 162.617ZM205.11 192.329L192.948 184.004L192.044 185.325L204.206 193.649L205.11 192.329ZM192.044 185.325L204.206 193.649L205.11 192.329L192.948 184.004L192.044 185.325ZM204.776 216.084L193.383 206.746L192.369 207.983L203.762 217.322L204.776 216.084ZM192.369 207.983L203.762 217.322L204.776 216.084L193.383 206.746L192.369 207.983ZM176.585 103.213L174.506 88.6467L172.922 88.8728L175.001 103.439L176.585 103.213ZM172.922 88.8728L175.001 103.439L176.585 103.213L174.506 88.6467L172.922 88.8728ZM179.273 125.119L171.655 112.524L170.286 113.352L177.904 125.947L179.273 125.119ZM170.286 113.352L177.904 125.947L179.273 125.119L171.655 112.524L170.286 113.352ZM180.172 147.522L170.625 136.309L169.407 137.347L178.954 148.56L180.172 147.522ZM169.407 137.347L178.954 148.56L180.172 147.522L170.625 136.309L169.407 137.347ZM180.384 170.497L170.375 159.688L169.201 160.775L179.21 171.584L180.384 170.497ZM169.201 160.775L179.21 171.584L180.384 170.497L170.375 159.688L169.201 160.775ZM180.304 193.786L170.472 182.821L169.281 183.889L179.113 194.854L180.304 193.786ZM169.281 183.889L179.113 194.854L180.304 193.786L170.472 182.821L169.281 183.889ZM180.064 217.243L170.75 205.834L169.511 206.846L178.824 218.255L180.064 217.243ZM169.511 206.846L178.824 218.255L180.064 217.243L170.75 205.834L169.511 206.846ZM153.311 126.271L150.22 111.88L148.655 112.216L151.747 126.607L153.311 126.271ZM148.655 112.216L151.747 126.607L153.311 126.271L150.22 111.88L148.655 112.216ZM154.534 148.948L148.938 135.334L147.458 135.942L153.054 149.557L154.534 148.948ZM147.458 135.942L153.054 149.557L154.534 148.948L148.938 135.334L147.458 135.942ZM155.071 171.83L148.355 158.733L146.931 159.463L153.647 172.56L155.071 171.83ZM146.931 159.463L153.647 172.56L155.071 171.83L148.355 158.733L146.931 159.463ZM155.218 194.937L148.196 181.995L146.79 182.758L153.812 195.7L155.218 194.937ZM146.79 182.758L153.812 195.7L155.218 194.937L148.196 181.995L146.79 182.758ZM155.13 218.2L148.29 205.16L146.874 205.903L153.713 218.943L155.13 218.2ZM146.874 205.903L153.713 218.943L155.13 218.2L148.29 205.16L146.874 205.903ZM129.02 149.628L126.971 135.05L125.386 135.273L127.435 149.85L129.02 149.628ZM125.386 135.273L127.435 149.85L129.02 149.628L126.971 135.05L125.386 135.273ZM129.705 172.619L126.272 158.311L124.716 158.684L128.149 172.992L129.705 172.619ZM124.716 158.684L128.149 172.992L129.705 172.619L126.272 158.311L124.716 158.684ZM130.018 195.708L125.952 181.561L124.415 182.003L128.48 196.15L130.018 195.708ZM124.415 182.003L128.48 196.15L130.018 195.708L125.952 181.561L124.415 182.003ZM130.068 218.889L125.898 204.772L124.364 205.225L128.534 219.342L130.068 218.889ZM124.364 205.225L128.534 219.342L130.068 218.889L125.898 204.772L124.364 205.225Z" fill="#1063FE"/>
</svg>
