<svg width="32" height="38" viewBox="0 0 32 38" fill="none" xmlns="http://www.w3.org/2000/svg">
<path fill-rule="evenodd" clip-rule="evenodd" d="M15.6875 36.9045C15.8036 36.9587 15.9291 36.9905 16.0572 36.9982C16.2261 37.0082 16.3948 36.9759 16.5478 36.9045C16.5478 36.9045 24.9978 33.0579 28.8005 25.7924C30.5039 22.538 30.969 17.9612 31.088 14.1387C31.2069 10.3162 30.9301 7.24414 30.9301 7.24414C30.8959 6.86596 30.6482 6.53961 30.2909 6.40168L16.4847 1.06831C16.2487 0.977229 15.9867 0.977229 15.7507 1.06831L1.9445 6.40168C1.58713 6.53961 1.33948 6.86596 1.30522 7.24414C1.30522 7.24414 1.02842 10.3162 1.14738 14.1387C1.26634 17.9612 1.73146 22.538 3.43482 25.7924C7.23755 33.0579 15.6875 36.9045 15.6875 36.9045ZM27.0064 24.8732C23.9211 30.7678 17.2496 34.2938 16.1177 34.8641C14.9857 34.2938 8.31426 30.7678 5.22899 24.8732C3.82726 22.195 3.28146 17.772 3.16648 14.0775C3.06616 10.8541 3.24957 8.67541 3.29902 8.08807C3.30113 8.06295 3.303 8.04074 3.30459 8.02149L16.1177 3.07223L28.9308 8.02149C28.9324 8.04075 28.9342 8.06296 28.9363 8.08808C28.9858 8.67544 29.1692 10.8541 29.0689 14.0775C28.9539 17.772 28.4081 22.195 27.0064 24.8732Z" fill="white"/>
<path d="M16.0572 36.9982L16.0271 37.4973L16.0279 37.4974L16.0572 36.9982ZM15.6875 36.9045L15.8991 36.4514L15.8947 36.4494L15.6875 36.9045ZM16.5478 36.9045L16.3406 36.4494L16.3363 36.4514L16.5478 36.9045ZM28.8005 25.7924L29.2435 26.0243L28.8005 25.7924ZM30.9301 7.24414L31.4281 7.19927L31.4281 7.19902L30.9301 7.24414ZM30.2909 6.40168L30.1107 6.86809L30.1108 6.86815L30.2909 6.40168ZM16.4847 1.06831L16.6648 0.601905L16.6647 0.601848L16.4847 1.06831ZM15.7507 1.06831L15.5707 0.601848L15.5705 0.601905L15.7507 1.06831ZM1.9445 6.40168L2.12453 6.86815L2.12467 6.86809L1.9445 6.40168ZM1.30522 7.24414L0.807262 7.19902L0.80724 7.19927L1.30522 7.24414ZM1.14738 14.1387L1.64714 14.1232L1.14738 14.1387ZM3.43482 25.7924L2.99183 26.0243L3.43482 25.7924ZM16.1177 34.8641L15.8927 35.3106L16.1177 35.424L16.3427 35.3106L16.1177 34.8641ZM27.0064 24.8732L27.4494 25.105L27.0064 24.8732ZM5.22899 24.8732L5.67198 24.6413L5.22899 24.8732ZM3.16648 14.0775L3.66624 14.062L3.16648 14.0775ZM3.29902 8.08807L2.80078 8.04613L2.80078 8.04613L3.29902 8.08807ZM3.30459 8.02149L3.12443 7.55507L2.83211 7.66799L2.80629 7.98029L3.30459 8.02149ZM16.1177 3.07223L16.2978 2.60582L16.1177 2.53623L15.9375 2.60582L16.1177 3.07223ZM28.9308 8.02149L29.4291 7.98028L29.4032 7.66798L29.1109 7.55507L28.9308 8.02149ZM28.9363 8.08808L29.4346 8.04614V8.04614L28.9363 8.08808ZM29.0689 14.0775L29.5686 14.0931L29.0689 14.0775ZM16.0873 36.4992C16.0219 36.4952 15.958 36.479 15.8991 36.4515L15.476 37.3575C15.6492 37.4384 15.8362 37.4858 16.0271 37.4973L16.0873 36.4992ZM16.3363 36.4514C16.2586 36.4877 16.1727 36.5042 16.0865 36.4991L16.0279 37.4974C16.2795 37.5122 16.5309 37.4642 16.7593 37.3576L16.3363 36.4514ZM28.3575 25.5606C26.5066 29.0969 23.5119 31.8205 20.9553 33.6677C19.6803 34.589 18.5224 35.2865 17.6843 35.7531C17.2655 35.9863 16.9271 36.1615 16.6945 36.2779C16.5783 36.3361 16.4885 36.3796 16.4285 36.4082C16.3984 36.4225 16.3758 36.4331 16.3611 36.44C16.3537 36.4434 16.3483 36.4459 16.3448 36.4475C16.3431 36.4483 16.3419 36.4488 16.3412 36.4492C16.3409 36.4493 16.3406 36.4494 16.3406 36.4495C16.3405 36.4495 16.3405 36.4495 16.3405 36.4495C16.3406 36.4495 16.3406 36.4494 16.5478 36.9045C16.755 37.3596 16.7551 37.3595 16.7553 37.3594C16.7554 37.3594 16.7556 37.3593 16.7558 37.3592C16.7562 37.359 16.7568 37.3587 16.7575 37.3584C16.7588 37.3578 16.7607 37.3569 16.763 37.3559C16.7678 37.3537 16.7745 37.3506 16.7832 37.3465C16.8007 37.3384 16.826 37.3265 16.8588 37.3109C16.9244 37.2796 17.0199 37.2333 17.1421 37.1721C17.3865 37.0498 17.738 36.8677 18.1708 36.6268C19.0359 36.1451 20.2281 35.4269 21.541 34.4783C24.1601 32.5859 27.2917 29.7534 29.2435 26.0243L28.3575 25.5606ZM30.5882 14.1232C30.4694 17.9424 30.0032 22.4164 28.3575 25.5606L29.2435 26.0243C31.0045 22.6597 31.4687 17.98 31.5877 14.1543L30.5882 14.1232ZM30.9301 7.24414C30.4321 7.28901 30.4321 7.28898 30.4321 7.28897C30.4321 7.28898 30.4321 7.28898 30.4321 7.289C30.4322 7.28905 30.4322 7.28914 30.4322 7.28928C30.4322 7.28955 30.4322 7.29002 30.4323 7.29066C30.4324 7.29196 30.4326 7.29399 30.4328 7.29676C30.4333 7.30229 30.4341 7.31075 30.435 7.32206C30.4369 7.34467 30.4398 7.37871 30.4434 7.42358C30.4506 7.51334 30.4608 7.64647 30.4727 7.81844C30.4965 8.16241 30.5272 8.66159 30.5541 9.27978C30.6081 10.5167 30.6472 12.2274 30.5882 14.1232L31.5877 14.1543C31.6477 12.2275 31.6079 10.491 31.5532 9.23621C31.5258 8.60857 31.4947 8.10082 31.4703 7.74932C31.4581 7.57355 31.4477 7.43681 31.4402 7.34363C31.4365 7.29704 31.4335 7.26134 31.4314 7.23709C31.4304 7.22496 31.4296 7.2157 31.429 7.20938C31.4287 7.20621 31.4285 7.20378 31.4284 7.20209C31.4283 7.20125 31.4282 7.20059 31.4282 7.20012C31.4282 7.19989 31.4282 7.1997 31.4281 7.19955C31.4281 7.19948 31.4281 7.19941 31.4281 7.19938C31.4281 7.19932 31.4281 7.19927 30.9301 7.24414ZM30.1108 6.86815C30.2927 6.93833 30.4153 7.1027 30.4322 7.28925L31.4281 7.19902C31.3765 6.62923 31.0038 6.14089 30.4709 5.93522L30.1108 6.86815ZM16.3045 1.53472L30.1107 6.86809L30.471 5.93527L16.6648 0.601905L16.3045 1.53472ZM15.9307 1.53478C16.0509 1.48841 16.1845 1.48841 16.3046 1.53478L16.6647 0.601848C16.3128 0.466051 15.9225 0.466051 15.5707 0.601848L15.9307 1.53478ZM2.12467 6.86809L15.9309 1.53472L15.5705 0.601905L1.76432 5.93527L2.12467 6.86809ZM1.80318 7.28925C1.82008 7.1027 1.94268 6.93833 2.12453 6.86815L1.76446 5.93522C1.23157 6.14089 0.858885 6.62922 0.807262 7.19902L1.80318 7.28925ZM1.64714 14.1232C1.58814 12.2274 1.62727 10.5167 1.68121 9.27978C1.70817 8.66159 1.7388 8.16241 1.76263 7.81844C1.77455 7.64647 1.78476 7.51334 1.79196 7.42358C1.79556 7.37871 1.79841 7.34467 1.80033 7.32206C1.8013 7.31075 1.80203 7.30229 1.80252 7.29676C1.80276 7.29399 1.80294 7.29196 1.80306 7.29066C1.80311 7.29002 1.80316 7.28955 1.80318 7.28928C1.80319 7.28914 1.8032 7.28905 1.80321 7.289C1.80321 7.28898 1.80321 7.28898 1.80321 7.28897C1.80321 7.28898 1.8032 7.28901 1.30522 7.24414C0.80724 7.19927 0.807235 7.19932 0.80723 7.19938C0.807227 7.19941 0.80722 7.19948 0.807214 7.19955C0.807201 7.1997 0.807184 7.19988 0.807163 7.20012C0.807121 7.20059 0.807062 7.20125 0.806987 7.20209C0.806837 7.20378 0.806622 7.20621 0.806344 7.20938C0.805789 7.2157 0.804985 7.22496 0.803951 7.23709C0.801883 7.26134 0.798898 7.29704 0.795161 7.34363C0.787687 7.43681 0.777203 7.57355 0.765026 7.74932C0.740673 8.10082 0.709535 8.60857 0.682164 9.23621C0.627443 10.491 0.587655 12.2275 0.647619 14.1543L1.64714 14.1232ZM3.87781 25.5606C2.23212 22.4164 1.766 17.9424 1.64714 14.1232L0.647619 14.1543C0.766681 17.98 1.23081 22.6597 2.99183 26.0243L3.87781 25.5606ZM15.6875 36.9045C15.8947 36.4494 15.8948 36.4495 15.8948 36.4495C15.8948 36.4495 15.8948 36.4495 15.8948 36.4495C15.8947 36.4494 15.8945 36.4493 15.8941 36.4492C15.8934 36.4488 15.8922 36.4483 15.8905 36.4475C15.8871 36.4459 15.8817 36.4434 15.8743 36.44C15.8595 36.4331 15.8369 36.4225 15.8069 36.4082C15.7468 36.3796 15.6571 36.3361 15.5408 36.2779C15.3083 36.1615 14.9699 35.9863 14.551 35.7531C13.713 35.2865 12.555 34.589 11.28 33.6677C8.72343 31.8205 5.72872 29.0969 3.87781 25.5606L2.99183 26.0243C4.94365 29.7534 8.0753 32.5859 10.6944 34.4783C12.0072 35.4269 13.1994 36.1451 14.0646 36.6268C14.4974 36.8677 14.8488 37.0498 15.0932 37.1721C15.2155 37.2333 15.311 37.2796 15.3766 37.3109C15.4094 37.3265 15.4347 37.3384 15.4521 37.3465C15.4608 37.3506 15.4676 37.3537 15.4723 37.3559C15.4747 37.3569 15.4765 37.3578 15.4779 37.3584C15.4786 37.3587 15.4791 37.359 15.4795 37.3592C15.4797 37.3593 15.4799 37.3594 15.4801 37.3594C15.4802 37.3595 15.4804 37.3596 15.6875 36.9045ZM16.3427 35.3106C16.9249 35.0173 18.9058 33.9771 21.1345 32.2615C23.3593 30.549 25.8601 28.1415 27.4494 25.105L26.5634 24.6413C25.0674 27.4995 22.6898 29.8023 20.5245 31.469C18.3633 33.1327 16.4424 34.1406 15.8927 34.4176L16.3427 35.3106ZM4.786 25.105C6.37528 28.1415 8.87609 30.549 11.1008 32.2615C13.3296 33.9771 15.3104 35.0173 15.8927 35.3106L16.3427 34.4176C15.793 34.1406 13.8721 33.1327 11.7108 31.469C9.54551 29.8023 7.16796 27.4995 5.67198 24.6413L4.786 25.105ZM2.66672 14.0931C2.78185 17.7924 3.32695 22.3174 4.786 25.105L5.67198 24.6413C4.32758 22.0727 3.78106 17.7515 3.66624 14.062L2.66672 14.0931ZM2.80078 8.04613C2.75048 8.64358 2.56558 10.8432 2.66672 14.0931L3.66624 14.062C3.56674 10.865 3.74866 8.70723 3.79725 8.13001L2.80078 8.04613ZM2.80629 7.98029C2.80474 7.99909 2.8029 8.02089 2.80078 8.04613L3.79725 8.13002C3.79936 8.10501 3.80126 8.08239 3.80289 8.06268L2.80629 7.98029ZM15.9375 2.60582L3.12443 7.55507L3.48475 8.4879L16.2978 3.53865L15.9375 2.60582ZM29.1109 7.55507L16.2978 2.60582L15.9375 3.53865L28.7506 8.4879L29.1109 7.55507ZM29.4346 8.04614C29.4324 8.02092 29.4306 7.9991 29.4291 7.98028L28.4325 8.0627C28.4341 8.08239 28.436 8.105 28.4381 8.13003L29.4346 8.04614ZM29.5686 14.0931C29.6698 10.8432 29.4849 8.64362 29.4346 8.04614L28.4381 8.13003C28.4867 8.70726 28.6686 10.865 28.5691 14.062L29.5686 14.0931ZM27.4494 25.105C28.9084 22.3174 29.4535 17.7924 29.5686 14.0931L28.5691 14.062C28.4543 17.7515 27.9078 22.0727 26.5634 24.6413L27.4494 25.105Z" fill="white"/>
</svg>
