<svg width="37" height="36" viewBox="0 0 37 36" fill="none" xmlns="http://www.w3.org/2000/svg">
<path fill-rule="evenodd" clip-rule="evenodd" d="M25.0909 19.0909C24.7195 19.9324 24.8977 20.9152 25.5409 21.5727L25.6227 21.6545C26.1348 22.1661 26.4226 22.8602 26.4226 23.5841C26.4226 24.3079 26.1348 25.0021 25.6227 25.5136C25.1112 26.0258 24.417 26.3135 23.6932 26.3135C22.9693 26.3135 22.2752 26.0258 21.7636 25.5136L21.6818 25.4318C21.0243 24.7886 20.0415 24.6104 19.2 24.9818C18.3757 25.3351 17.8399 26.1441 17.8364 27.0409V27.2727C17.8364 28.779 16.6153 30 15.1091 30C13.6029 30 12.3818 28.779 12.3818 27.2727V27.15C12.3602 26.2264 11.7762 25.4098 10.9091 25.0909C10.0676 24.7195 9.0848 24.8977 8.42727 25.5409L8.34545 25.6227C7.8339 26.1348 7.13975 26.4226 6.41591 26.4226C5.69207 26.4226 4.99791 26.1348 4.48636 25.6227C3.97424 25.1112 3.68649 24.417 3.68649 23.6932C3.68649 22.9693 3.97424 22.2752 4.48636 21.7636L4.56818 21.6818C5.21136 21.0243 5.38956 20.0415 5.01818 19.2C4.66491 18.3757 3.85588 17.8399 2.95909 17.8364H2.72727C1.22104 17.8364 0 16.6153 0 15.1091C0 13.6029 1.22104 12.3818 2.72727 12.3818H2.85C3.77363 12.3602 4.59018 11.7762 4.90909 10.9091C5.28047 10.0676 5.10227 9.0848 4.45909 8.42727L4.37727 8.34545C3.86515 7.8339 3.5774 7.13975 3.5774 6.41591C3.5774 5.69207 3.86515 4.99791 4.37727 4.48636C4.88882 3.97424 5.58297 3.68649 6.30682 3.68649C7.03066 3.68649 7.72481 3.97424 8.23636 4.48636L8.31818 4.56818C8.97571 5.21136 9.95851 5.38956 10.8 5.01818H10.9091C11.7334 4.66491 12.2692 3.85588 12.2727 2.95909V2.72727C12.2727 1.22104 13.4938 0 15 0C16.5062 0 17.7273 1.22104 17.7273 2.72727V2.85C17.7308 3.74679 18.2666 4.55582 19.0909 4.90909C19.9324 5.28047 20.9152 5.10227 21.5727 4.45909L21.6545 4.37727C22.1661 3.86515 22.8602 3.5774 23.5841 3.5774C24.3079 3.5774 25.0021 3.86515 25.5136 4.37727C26.0258 4.88882 26.3135 5.58297 26.3135 6.30682C26.3135 7.03066 26.0258 7.72481 25.5136 8.23636L25.4318 8.31818C24.7886 8.97571 24.6104 9.95851 24.9818 10.8V10.9091C25.3351 11.7334 26.1441 12.2692 27.0409 12.2727H27.2727C28.779 12.2727 30 13.4938 30 15C30 16.5062 28.779 17.7273 27.2727 17.7273H27.15C26.2532 17.7308 25.4442 18.2666 25.0909 19.0909Z" fill="#70C9FE"/>
<circle cx="15.0001" cy="15.0001" r="4.09091" fill="white"/>
<g style="mix-blend-mode:hard-light">
<path fill-rule="evenodd" clip-rule="evenodd" d="M33.7273 28.7273C33.4797 29.2883 33.5985 29.9435 34.0273 30.3818L34.0818 30.4364C34.4232 30.7774 34.6151 31.2402 34.6151 31.7227C34.6151 32.2053 34.4232 32.6681 34.0818 33.0091C33.7408 33.3505 33.278 33.5423 32.7955 33.5423C32.3129 33.5423 31.8501 33.3505 31.5091 33.0091L31.4545 32.9545C31.0162 32.5258 30.361 32.407 29.8 32.6545C29.2505 32.8901 28.8933 33.4294 28.8909 34.0273V34.1818C28.8909 35.186 28.0769 36 27.0727 36C26.0686 36 25.2545 35.186 25.2545 34.1818V34.1C25.2401 33.4842 24.8508 32.9399 24.2727 32.7273C23.7117 32.4797 23.0565 32.5985 22.6182 33.0273L22.5636 33.0818C22.2226 33.4232 21.7598 33.6151 21.2773 33.6151C20.7947 33.6151 20.3319 33.4232 19.9909 33.0818C19.6495 32.7408 19.4577 32.278 19.4577 31.7955C19.4577 31.3129 19.6495 30.8501 19.9909 30.5091L20.0455 30.4545C20.4742 30.0162 20.593 29.361 20.3455 28.8C20.1099 28.2505 19.5706 27.8933 18.9727 27.8909H18.8182C17.814 27.8909 17 27.0769 17 26.0727C17 25.0686 17.814 24.2545 18.8182 24.2545H18.9C19.5158 24.2401 20.0601 23.8508 20.2727 23.2727C20.5203 22.7117 20.4015 22.0565 19.9727 21.6182L19.9182 21.5636C19.5768 21.2226 19.3849 20.7598 19.3849 20.2773C19.3849 19.7947 19.5768 19.3319 19.9182 18.9909C20.2592 18.6495 20.722 18.4577 21.2045 18.4577C21.6871 18.4577 22.1499 18.6495 22.4909 18.9909L22.5455 19.0455C22.9838 19.4742 23.639 19.593 24.2 19.3455H24.2727C24.8222 19.1099 25.1794 18.5706 25.1818 17.9727V17.8182C25.1818 16.814 25.9958 16 27 16C28.0042 16 28.8182 16.814 28.8182 17.8182V17.9C28.8206 18.4979 29.1778 19.0372 29.7273 19.2727C30.2883 19.5203 30.9435 19.4015 31.3818 18.9727L31.4364 18.9182C31.7774 18.5768 32.2402 18.3849 32.7227 18.3849C33.2053 18.3849 33.6681 18.5768 34.0091 18.9182C34.3505 19.2592 34.5423 19.722 34.5423 20.2045C34.5423 20.6871 34.3505 21.1499 34.0091 21.4909L33.9545 21.5455C33.5258 21.9838 33.407 22.639 33.6545 23.2V23.2727C33.8901 23.8222 34.4294 24.1794 35.0273 24.1818H35.1818C36.186 24.1818 37 24.9958 37 26C37 27.0042 36.186 27.8182 35.1818 27.8182H35.1C34.5021 27.8206 33.9628 28.1778 33.7273 28.7273Z" fill="#2051B0"/>
<circle cx="27.0002" cy="26" r="2.72727" fill="white"/>
</g>
</svg>
