<svg width="542" height="368" viewBox="0 0 542 368" fill="none" xmlns="http://www.w3.org/2000/svg">
<path opacity="0.538458" fill-rule="evenodd" clip-rule="evenodd" d="M92.725 39H100V108H10V39H92.725Z" fill="#E4E8EB"/>
<path fill-rule="evenodd" clip-rule="evenodd" d="M83.9644 31H90V100H0V31H83.9644Z" fill="white"/>
<path fill-rule="evenodd" clip-rule="evenodd" d="M49.6925 60.5806H50.4194C51.5398 60.5806 52.4516 59.6688 52.4516 58.5484V55.1613C52.4516 54.7874 52.7558 54.4839 53.129 54.4839H53.8065H55.1613H66V45H61.9355V46.3548H59.2258V47.7097H56.5161V49.0645H53.8065V53.129H53.129C52.0086 53.129 51.0968 54.0408 51.0968 55.1613V58.5484C51.0968 58.9223 50.7926 59.2258 50.4194 59.2258H49.6877C49.4845 57.8134 48.6587 56.6028 47.4956 55.8787C47.6345 55.4289 47.7097 54.9628 47.7097 54.4839C47.7097 52.8438 46.8717 51.3955 45.6022 50.544C45.6469 50.2798 45.6774 50.0122 45.6774 49.7419C45.6774 47.1278 43.5503 45 40.9355 45C39.2128 45 37.7015 45.9233 36.871 47.3012C36.0405 45.9233 34.5291 45 32.8065 45C30.1916 45 28.0645 47.1278 28.0645 49.7419C28.0645 50.0102 28.0882 50.2798 28.135 50.5467C26.8255 51.4213 26.0323 52.8872 26.0323 54.4839C26.0323 54.9682 26.1061 55.4363 26.2416 55.8766C24.8637 56.7343 24 58.2517 24 59.9032C24 61.6015 24.9003 63.0898 26.2463 63.9278C26.1075 64.3776 26.0323 64.8436 26.0323 65.3226C26.0323 66.9626 26.8702 68.4109 28.1397 69.2625C28.095 69.5273 28.0645 69.7942 28.0645 70.0645C28.0645 72.6787 30.1916 74.8065 32.8065 74.8065C34.1335 74.8065 35.3319 74.2544 36.1935 73.3724V75.4839C36.1935 75.8578 35.8894 76.1613 35.5161 76.1613H26.0323C24.9118 76.1613 24 77.0731 24 78.1936C24 79.314 24.9118 80.2258 26.0323 80.2258H38.3416C38.5225 80.2258 38.6932 80.2963 38.8213 80.4243L39.3822 80.9852C39.7656 81.3693 40.2764 81.5806 40.8196 81.5806H53.8065V82.7329L54.7013 83.0574L54.2983 83.9198L56.886 86.5075L57.7484 86.1038L58.0735 87H61.7323L62.0574 86.1051L62.9198 86.5089L65.5075 83.9211L65.1045 83.0588L66 82.7329V79.0735L65.1051 78.749L65.5082 77.8867L62.9205 75.2989L62.0581 75.7027L61.7329 74.8065H58.0742L57.749 75.7013L56.8867 75.2976L54.2989 77.8853L54.702 78.7477L53.8065 79.0735V80.2258H40.8196C40.6388 80.2258 40.4681 80.1554 40.34 80.0273L39.7791 79.4664C39.3957 79.083 38.8849 78.871 38.3416 78.871H26.0323C25.659 78.871 25.3548 78.5675 25.3548 78.1936C25.3548 77.8196 25.659 77.5161 26.0323 77.5161H35.5161C36.6366 77.5161 37.5484 76.6043 37.5484 75.4839V73.3724C38.4101 74.2544 39.6084 74.8065 40.9355 74.8065H49.7419C50.8624 74.8065 51.7742 73.8946 51.7742 72.7742V68.7097C51.7742 68.3357 52.0784 68.0323 52.4516 68.0323H57.1739L57.1753 68.0433L57.1791 68.0698L57.1818 68.0872V68.0872V68.0873V68.0873V68.0873V68.0874V68.0874V68.0874V68.0875V68.0875C57.1877 68.1251 57.1936 68.1624 57.1936 68.2016V69.3871C57.1936 70.8815 58.4088 72.0968 59.9032 72.0968C61.3976 72.0968 62.6129 70.8815 62.6129 69.3871V68.1738C62.6129 67.7132 62.831 67.2979 63.1968 67.0629C64.952 65.9343 66 64.0172 66 61.9355C66 60.2006 65.2575 58.543 63.9637 57.3873C62.6705 56.2316 60.9302 55.6836 59.1953 55.878C56.4511 56.1883 54.2061 58.4 53.8573 61.1368C53.5829 63.291 54.4358 65.3531 56.0921 66.6774H52.4516C51.3312 66.6774 50.4194 67.5892 50.4194 68.7097V72.7742C50.4194 73.1481 50.1152 73.4516 49.7419 73.4516H44.2474C45.1287 72.5899 45.6774 71.3909 45.6774 70.0645C45.6774 69.7963 45.6537 69.5266 45.607 69.2597C46.9164 68.3852 47.7097 66.9193 47.7097 65.3226C47.7097 64.8382 47.6358 64.3701 47.5004 63.9298C48.6872 63.1914 49.492 61.9633 49.6925 60.5806ZM63.2903 46.3548H64.6452V53.129H63.2903V46.3548ZM60.5806 53.129H61.9355V47.7097H60.5806V53.129ZM57.871 49.0645H59.2258V53.129H57.871V49.0645ZM56.5161 50.4194H55.1613V53.129H56.5161V50.4194ZM55.1613 80.0233L55.7188 79.82L56.0216 79.6764L56.3082 78.9861L55.9275 78.1726L57.1719 76.9275L57.9848 77.3068L58.7164 77.0054L59.0233 76.1613H60.7839L60.9864 76.7188L61.1239 77.0182L61.8224 77.3068L62.6353 76.9275L63.8797 78.1726L63.499 78.9861L63.8018 79.7157L64.6452 80.0233V81.7832L64.0876 81.9864L63.7848 82.13L63.4983 82.8203L63.879 83.6339L62.6346 84.879L61.823 84.4996L61.0907 84.8011L60.7832 85.6452H59.0226L58.82 85.0876L58.6818 84.7875L57.9834 84.4996L57.1719 84.879L55.9275 83.6339L56.3082 82.8203L56.0054 82.0907L55.1613 81.7832V80.0233ZM58.5484 69.3871C58.5484 70.1343 59.156 70.7419 59.9032 70.7419C60.6504 70.7419 61.2581 70.1343 61.2581 69.3871H58.5484ZM59.2258 61.9355C59.2258 61.5615 59.53 61.2581 59.9032 61.2581C60.2765 61.2581 60.5806 61.5615 60.5806 61.9355C60.5806 62.3094 60.2765 62.6129 59.9032 62.6129C59.53 62.6129 59.2258 62.3094 59.2258 61.9355ZM59.3477 57.2254C57.2166 57.4659 55.4729 59.1831 55.2019 61.3082C54.9655 63.1609 55.7899 64.9317 57.3534 65.9302C58.0566 66.38 58.4881 67.1577 58.5382 68.0323H59.2258V63.8431C58.4393 63.5626 57.871 62.8175 57.871 61.9355C57.871 60.815 58.7828 59.9032 59.9032 59.9032C61.0237 59.9032 61.9355 60.815 61.9355 61.9355C61.9355 62.8175 61.3671 63.5626 60.5806 63.8431V68.0323H61.2662C61.3102 67.1658 61.7478 66.3841 62.4639 65.9241C63.8295 65.0455 64.6452 63.5545 64.6452 61.9355C64.6452 60.5867 64.0673 59.2969 63.0607 58.3973C62.1807 57.6108 61.0779 57.1929 59.9093 57.1929C59.7237 57.1929 59.5361 57.2037 59.3477 57.2254ZM32.8065 73.4516C30.9388 73.4516 29.4194 71.9322 29.4194 70.0645C29.4194 70.0251 29.423 69.986 29.4267 69.9468C29.4291 69.9206 29.4315 69.8944 29.4329 69.8681C29.859 69.9941 30.3081 70.0645 30.7742 70.0645V68.7097C28.9065 68.7097 27.3871 67.1902 27.3871 65.3226C27.3871 65.0326 27.4271 64.7495 27.4982 64.4745C27.8952 64.5822 28.3111 64.6452 28.7419 64.6452C31.3568 64.6452 33.4839 62.5174 33.4839 59.9032H32.129C32.129 61.7709 30.6096 63.2903 28.7419 63.2903C26.8743 63.2903 25.3548 61.7709 25.3548 59.9032C25.3548 58.7753 25.9212 57.7382 26.8316 57.1136C27.6825 58.3858 29.1321 59.2258 30.7742 59.2258V57.871C28.9065 57.871 27.3871 56.3515 27.3871 54.4839C27.3871 53.2157 28.0889 52.0641 29.2175 51.4775L29.7113 51.2207L29.5562 50.6876C29.4654 50.3753 29.4194 50.0569 29.4194 49.7419C29.4194 47.8743 30.9388 46.3548 32.8065 46.3548C34.6741 46.3548 36.1935 47.8743 36.1935 49.7419V70.0645C36.1935 71.9322 34.6741 73.4516 32.8065 73.4516ZM42.9677 60.5806C44.6098 60.5806 46.0595 61.4206 46.911 62.6928C47.8208 62.0683 48.3871 61.0311 48.3871 59.9032C48.3871 58.0356 46.8676 56.5161 45 56.5161C43.1324 56.5161 41.6129 58.0356 41.6129 59.9032H40.2581C40.2581 57.2891 42.3852 55.1613 45 55.1613C45.4308 55.1613 45.8468 55.2243 46.2437 55.332C46.3149 55.057 46.3548 54.7738 46.3548 54.4839C46.3548 52.6162 44.8354 51.0968 42.9677 51.0968V49.7419C43.4338 49.7419 43.8829 49.8124 44.309 49.9384C44.3104 49.9121 44.3128 49.8858 44.3153 49.8596C44.3189 49.8204 44.3226 49.7813 44.3226 49.7419C44.3226 47.8743 42.8031 46.3548 40.9355 46.3548C39.0678 46.3548 37.5484 47.8743 37.5484 49.7419V70.0645C37.5484 71.9322 39.0678 73.4516 40.9355 73.4516C42.8031 73.4516 44.3226 71.9322 44.3226 70.0645C44.3226 69.7495 44.2765 69.4311 44.1857 69.1195L44.0306 68.5857L44.5245 68.329C45.653 67.7423 46.3548 66.5907 46.3548 65.3226C46.3548 63.4549 44.8354 61.9355 42.9677 61.9355V60.5806Z" fill="#1063FE"/>
<path d="M29.25 54.625H30.4167C30.4167 54.303 30.6786 54.0417 31 54.0417V52.875C30.0352 52.875 29.25 53.6602 29.25 54.625Z" fill="#1063FE"/>
<path d="M43.25 64.5417C43.5714 64.5417 43.8333 64.803 43.8333 65.125H45C45 64.1602 44.2148 63.375 43.25 63.375V64.5417Z" fill="#1063FE"/>
<path d="M39.75 64.25V65.4167C40.0714 65.4167 40.3333 65.678 40.3333 66H41.5C41.5 65.0352 40.7148 64.25 39.75 64.25Z" fill="#1063FE"/>
<path d="M32.75 70.9583V72.125C33.7148 72.125 34.5 71.3398 34.5 70.375H33.3333C33.3333 70.697 33.0714 70.9583 32.75 70.9583Z" fill="#1063FE"/>
<path d="M33.625 66.5833C33.3036 66.5833 33.0417 66.322 33.0417 66H31.875C31.875 66.9648 32.6602 67.75 33.625 67.75V66.5833Z" fill="#1063FE"/>
<path d="M41.2083 52H42.375C42.375 51.0352 41.5898 50.25 40.625 50.25V51.4167C40.9464 51.4167 41.2083 51.678 41.2083 52Z" fill="#1063FE"/>
<path d="M39.4583 54.625H40.625C40.625 53.6602 39.8398 52.875 38.875 52.875V54.0417C39.1964 54.0417 39.4583 54.303 39.4583 54.625Z" fill="#1063FE"/>
<path d="M33.625 56.9583C33.3036 56.9583 33.0417 56.697 33.0417 56.375H31.875C31.875 57.3398 32.6602 58.125 33.625 58.125V56.9583Z" fill="#1063FE"/>
<path d="M39.1667 69.5H38C38 70.4648 38.7852 71.25 39.75 71.25V70.0833C39.4286 70.0833 39.1667 69.822 39.1667 69.5Z" fill="#1063FE"/>
<path d="M33.625 50.25V49.0833C33.3036 49.0833 33.0417 48.822 33.0417 48.5H31.875C31.875 49.4648 32.6602 50.25 33.625 50.25Z" fill="#1063FE"/>
<path fill-rule="evenodd" clip-rule="evenodd" d="M63.375 80.875C63.375 82.8049 61.8049 84.375 59.875 84.375C57.9451 84.375 56.375 82.8049 56.375 80.875C56.375 78.9451 57.9451 77.375 59.875 77.375C61.8049 77.375 63.375 78.9451 63.375 80.875ZM61.975 80.875C61.975 79.7172 61.0328 78.775 59.875 78.775C58.7172 78.775 57.775 79.7172 57.775 80.875C57.775 82.0328 58.7172 82.975 59.875 82.975C61.0328 82.975 61.975 82.0328 61.975 80.875Z" fill="#1063FE"/>
<path fill-rule="evenodd" clip-rule="evenodd" d="M90.1576 101H0.842085C0.376738 101 0 100.623 0 100.158V30.8422C0 30.377 0.376738 30 0.842085 30H15.1219C15.5872 30 15.9643 30.377 15.9643 30.8422C15.9643 31.3074 15.5872 31.6844 15.1219 31.6844H1.68479V99.3156H89.3152V31.6844H84.1676C83.7026 31.6844 83.3252 31.3074 83.3252 30.8422C83.3252 30.377 83.7026 30 84.1676 30H90.1576C90.623 30 91 30.377 91 30.8422V100.158C91 100.623 90.623 101 90.1576 101Z" fill="#B2BBC6"/>
<path fill-rule="evenodd" clip-rule="evenodd" d="M84.0442 32H11.9558C10.8754 32 10 31.5524 10 31C10 30.4476 10.8754 30 11.9558 30H84.0442C85.1246 30 86 30.4476 86 31C86 31.5524 85.1246 32 84.0442 32Z" fill="#B2BBC6"/>
<path fill-rule="evenodd" clip-rule="evenodd" d="M78.5355 291.424H110.465V276.571C110.465 273.265 107.798 270.576 104.519 270.576H84.4809C81.2026 270.576 78.5355 273.265 78.5355 276.571V291.424ZM112.732 296H76.2676C75.0153 296 74 294.974 74 293.714V276.571C74 270.741 78.7018 266 84.4809 266H104.519C110.299 266 115 270.741 115 276.571V293.714C115 294.974 113.985 296 112.732 296Z" fill="#D8DDE2"/>
<path fill-rule="evenodd" clip-rule="evenodd" d="M71.5355 291.424H103.465V276.571C103.465 273.265 100.798 270.576 97.5194 270.576H77.4809C74.2026 270.576 71.5355 273.265 71.5355 276.571V291.424ZM105.732 296H69.2676C68.0153 296 67 294.974 67 293.714V276.571C67 270.741 71.7018 266 77.4809 266H97.5194C103.299 266 108 270.741 108 276.571V293.714C108 294.974 106.985 296 105.732 296Z" fill="#B2BBC6"/>
<path fill-rule="evenodd" clip-rule="evenodd" d="M139 366H37V293.116C37 289.187 40.193 286 44.1317 286H131.868C135.807 286 139 289.187 139 293.116V366Z" fill="#D8DDE2"/>
<path fill-rule="evenodd" clip-rule="evenodd" d="M95.8903 326L139.247 297.698C140.971 296.499 142 294.526 142 292.419C142 288.874 139.142 286 135.616 286H44.3842C40.8585 286 38 288.874 38 292.419V292.622C38 294.341 38.6837 295.973 39.8784 297.172L77.1931 325.781L95.8903 326Z" fill="#B2BBC6"/>
<path fill-rule="evenodd" clip-rule="evenodd" d="M77.4344 325.109L95.6691 325.327L138.96 296.929C140.446 295.891 141.345 294.158 141.345 292.308C141.345 289.202 138.843 286.673 135.767 286.673H44.2329C41.1575 286.673 38.6553 289.202 38.6553 292.308V292.513C38.6553 293.984 39.2392 295.42 40.2588 296.468L77.4344 325.109ZM95.9096 327C95.9062 327 95.9031 327 95.9 327L77.1408 326.779C76.9627 326.776 76.7903 326.716 76.6488 326.609L39.2101 297.763C39.1811 297.74 39.1539 297.715 39.1279 297.69C37.7756 296.329 37 294.442 37 292.513V292.308C37 288.277 40.2447 285 44.2329 285H135.767C139.755 285 143 288.277 143 292.308C143 294.707 141.834 296.954 139.881 298.318L96.3601 326.867C96.2261 326.956 96.0696 327 95.9096 327Z" fill="white"/>
<path fill-rule="evenodd" clip-rule="evenodd" d="M75 342H98V326H75V342Z" fill="white"/>
<path fill-rule="evenodd" clip-rule="evenodd" d="M80.6712 337.473H92.3288V330.527H80.6712V337.473ZM93.1645 339H79.8358C79.374 339 79 338.66 79 338.237V329.763C79 329.343 79.374 329 79.8358 329H93.1645C93.626 329 94 329.343 94 329.763V338.237C94 338.66 93.626 339 93.1645 339Z" fill="#909BA9"/>
<path fill-rule="evenodd" clip-rule="evenodd" d="M132 313C131.448 313 131 312.649 131 312.211V310.789C131 310.351 131.448 310 132 310C132.552 310 133 310.351 133 310.789V312.211C133 312.649 132.552 313 132 313Z" fill="white"/>
<path fill-rule="evenodd" clip-rule="evenodd" d="M132 318.863C131.448 318.863 131 318.485 131 318.021V314.842C131 314.378 131.448 314 132 314C132.552 314 133 314.378 133 314.842V318.021C133 318.485 132.552 318.863 132 318.863ZM132 325.22C131.448 325.22 131 324.841 131 324.377V321.199C131 320.735 131.448 320.357 132 320.357C132.552 320.357 133 320.735 133 321.199V324.377C133 324.841 132.552 325.22 132 325.22ZM132 331.576C131.448 331.576 131 331.198 131 330.734V327.556C131 327.092 131.448 326.713 132 326.713C132.552 326.713 133 327.092 133 327.556V330.734C133 331.198 132.552 331.576 132 331.576ZM132 337.933C131.448 337.933 131 337.555 131 337.091V333.912C131 333.448 131.448 333.07 132 333.07C132.552 333.07 133 333.448 133 333.912V337.091C133 337.555 132.552 337.933 132 337.933ZM132 344.29C131.448 344.29 131 343.912 131 343.447V340.269C131 339.802 131.448 339.427 132 339.427C132.552 339.427 133 339.802 133 340.269V343.447C133 343.912 132.552 344.29 132 344.29ZM132 350.643C131.448 350.643 131 350.268 131 349.801V346.626C131 346.159 131.448 345.784 132 345.784C132.552 345.784 133 346.159 133 346.626V349.801C133 350.268 132.552 350.643 132 350.643ZM132 357C131.448 357 131 356.625 131 356.158V352.979C131 352.515 131.448 352.137 132 352.137C132.552 352.137 133 352.515 133 352.979V356.158C133 356.625 132.552 357 132 357Z" fill="white"/>
<path fill-rule="evenodd" clip-rule="evenodd" d="M132.212 361H130.788C130.353 361 130 360.646 130 360.212C130 359.778 130.353 359.424 130.788 359.424H131.424V358.788C131.424 358.354 131.776 358 132.212 358C132.647 358 133 358.354 133 358.788V360.212C133 360.646 132.647 361 132.212 361Z" fill="white"/>
<path fill-rule="evenodd" clip-rule="evenodd" d="M52.7324 361H49.8308C49.372 361 49 360.551 49 360C49 359.449 49.372 359 49.8308 359H52.7324C53.1912 359 53.5631 359.449 53.5631 360C53.5631 360.551 53.1912 361 52.7324 361ZM58.5353 361H55.6337C55.1748 361 54.8029 360.551 54.8029 360C54.8029 359.449 55.1748 359 55.6337 359H58.5353C58.9941 359 59.366 359.449 59.366 360C59.366 360.551 58.9941 361 58.5353 361ZM64.3381 361H61.4365C60.9777 361 60.6058 360.551 60.6058 360C60.6058 359.449 60.9777 359 61.4365 359H64.3381C64.797 359 65.1689 359.449 65.1689 360C65.1689 360.551 64.797 361 64.3381 361ZM70.1407 361H67.2394C66.7803 361 66.4083 360.551 66.4083 360C66.4083 359.449 66.7803 359 67.2394 359H70.1407C70.5995 359 70.9715 359.449 70.9715 360C70.9715 360.551 70.5995 361 70.1407 361ZM75.9436 361H73.042C72.5832 361 72.2112 360.551 72.2112 360C72.2112 359.449 72.5832 359 73.042 359H75.9436C76.4024 359 76.7744 359.449 76.7744 360C76.7744 360.551 76.4024 361 75.9436 361ZM81.7465 361H78.8449C78.3861 361 78.0141 360.551 78.0141 360C78.0141 359.449 78.3861 359 78.8449 359H81.7465C82.2053 359 82.5773 359.449 82.5773 360C82.5773 360.551 82.2053 361 81.7465 361ZM87.5494 361H84.6478C84.1889 361 83.817 360.551 83.817 360C83.817 359.449 84.1889 359 84.6478 359H87.5494C88.0082 359 88.3801 359.449 88.3801 360C88.3801 360.551 88.0082 361 87.5494 361ZM93.3519 361H90.4506C89.9918 361 89.6199 360.551 89.6199 360C89.6199 359.449 89.9918 359 90.4506 359H93.3519C93.8111 359 94.183 359.449 94.183 360C94.183 360.551 93.8111 361 93.3519 361ZM99.1548 361H96.2535C95.7944 361 95.4224 360.551 95.4224 360C95.4224 359.449 95.7944 359 96.2535 359H99.1548C99.6139 359 99.9859 359.449 99.9859 360C99.9859 360.551 99.6139 361 99.1548 361ZM104.958 361H102.056C101.597 361 101.225 360.551 101.225 360C101.225 359.449 101.597 359 102.056 359H104.958C105.417 359 105.788 359.449 105.788 360C105.788 360.551 105.417 361 104.958 361ZM110.761 361H107.859C107.4 361 107.028 360.551 107.028 360C107.028 359.449 107.4 359 107.859 359H110.761C111.219 359 111.591 359.449 111.591 360C111.591 360.551 111.219 361 110.761 361ZM116.563 361H113.662C113.203 361 112.831 360.551 112.831 360C112.831 359.449 113.203 359 113.662 359H116.563C117.022 359 117.394 359.449 117.394 360C117.394 360.551 117.022 361 116.563 361ZM122.366 361H119.465C119.006 361 118.634 360.551 118.634 360C118.634 359.449 119.006 359 119.465 359H122.366C122.825 359 123.197 359.449 123.197 360C123.197 360.551 122.825 361 122.366 361ZM128.169 361H125.268C124.808 361 124.437 360.551 124.437 360C124.437 359.449 124.808 359 125.268 359H128.169C128.628 359 129 359.449 129 360C129 360.551 128.628 361 128.169 361Z" fill="white"/>
<path fill-rule="evenodd" clip-rule="evenodd" d="M47.2119 361H45.7884C45.3528 361 45 360.646 45 360.212V358.788C45 358.354 45.3528 358 45.7884 358C46.2236 358 46.5765 358.354 46.5765 358.788V359.424H47.2119C47.6472 359.424 48 359.778 48 360.212C48 360.646 47.6472 361 47.2119 361Z" fill="white"/>
<path fill-rule="evenodd" clip-rule="evenodd" d="M46.0002 317.473C45.4476 317.473 45 317.103 45 316.649V313.825C45 313.37 45.4476 313 46.0002 313C46.5524 313 47 313.37 47 313.825V316.649C47 317.103 46.5524 317.473 46.0002 317.473ZM46.0002 323.121C45.4476 323.121 45 322.75 45 322.296V319.472C45 319.018 45.4476 318.647 46.0002 318.647C46.5524 318.647 47 319.018 47 319.472V322.296C47 322.75 46.5524 323.121 46.0002 323.121ZM46.0002 328.768C45.4476 328.768 45 328.397 45 327.943V325.119C45 324.665 45.4476 324.294 46.0002 324.294C46.5524 324.294 47 324.665 47 325.119V327.943C47 328.397 46.5524 328.768 46.0002 328.768ZM46.0002 334.415C45.4476 334.415 45 334.044 45 333.59V330.766C45 330.309 45.4476 329.941 46.0002 329.941C46.5524 329.941 47 330.309 47 330.766V333.59C47 334.044 46.5524 334.415 46.0002 334.415ZM46.0002 340.062C45.4476 340.062 45 339.691 45 339.237V336.413C45 335.956 45.4476 335.588 46.0002 335.588C46.5524 335.588 47 335.956 47 336.413V339.237C47 339.691 46.5524 340.062 46.0002 340.062ZM46.0002 345.706C45.4476 345.706 45 345.338 45 344.881V342.06C45 341.603 45.4476 341.235 46.0002 341.235C46.5524 341.235 47 341.603 47 342.06V344.881C47 345.338 46.5524 345.706 46.0002 345.706ZM46.0002 351.353C45.4476 351.353 45 350.986 45 350.528V347.704C45 347.25 45.4476 346.879 46.0002 346.879C46.5524 346.879 47 347.25 47 347.704V350.528C47 350.986 46.5524 351.353 46.0002 351.353ZM46.0002 357C45.4476 357 45 356.633 45 356.175V353.351C45 352.897 45.4476 352.527 46.0002 352.527C46.5524 352.527 47 352.897 47 353.351V356.175C47 356.633 46.5524 357 46.0002 357Z" fill="white"/>
<path fill-rule="evenodd" clip-rule="evenodd" d="M46.0002 311C45.4476 311 45 310.646 45 310.211V308.789C45 308.351 45.4476 308 46.0002 308C46.5524 308 47 308.351 47 308.789V310.211C47 310.646 46.5524 311 46.0002 311Z" fill="white"/>
<path fill-rule="evenodd" clip-rule="evenodd" d="M532.964 128.769C538.595 135.26 542 143.733 542 153C542 173.435 525.435 190 505 190C484.565 190 468 173.435 468 153C468 132.566 484.565 116 505 116C512.208 116 518.933 118.06 524.618 121.623L532.964 128.769Z" fill="#D0E3FF"/>
<path fill-rule="evenodd" clip-rule="evenodd" d="M532 153.002C532 173.436 515.435 190 495 190C474.565 190 458 173.436 458 153.002C458 132.765 474.248 116.319 494.413 116.007C494.607 116 494.802 116 495 116C502.205 116 508.93 118.06 514.618 121.624L515.293 122.206L522.279 128.188L522.96 128.77C528.429 135.075 531.802 143.252 531.991 152.212C531.997 152.472 532 152.738 532 153.002Z" fill="white"/>
<path fill-rule="evenodd" clip-rule="evenodd" d="M533 153.002C533 173.954 515.951 191 495 191C474.046 191 457 173.954 457 153.002C457 132.254 473.712 115.337 494.38 115.01C494.587 115.003 494.792 115 495 115C502.15 115 509.117 116.996 515.151 120.774C515.57 121.039 515.693 121.593 515.435 122.012C515.409 122.051 515.384 122.088 515.35 122.121C515.069 122.454 514.575 122.537 514.197 122.296C508.452 118.699 501.813 116.795 495 116.795C494.814 116.795 494.631 116.795 494.449 116.802C474.739 117.095 458.792 133.22 458.792 153.002C458.792 172.964 475.038 189.205 495 189.205C514.965 189.205 531.205 172.964 531.205 153.002C531.205 152.738 531.202 152.474 531.195 152.21C531.009 143.776 527.891 135.666 522.364 129.291C522.065 128.951 522.074 128.453 522.354 128.119C522.386 128.086 522.417 128.053 522.452 128.024C522.824 127.7 523.391 127.74 523.718 128.113C529.532 134.818 532.808 143.347 532.991 152.21C532.997 152.474 533 152.738 533 153.002Z" fill="#78A9FF"/>
<path fill-rule="evenodd" clip-rule="evenodd" d="M505 146L495 152L505 146Z" fill="white"/>
<path fill-rule="evenodd" clip-rule="evenodd" d="M494.89 153C494.593 153 494.306 152.856 494.137 152.593C493.875 152.187 494 151.651 494.415 151.397L504.638 145.133C505.053 144.878 505.603 145.001 505.865 145.406C506.124 145.813 505.999 146.348 505.584 146.603L495.361 152.867C495.215 152.957 495.052 153 494.89 153Z" fill="#78A9FF"/>
<path fill-rule="evenodd" clip-rule="evenodd" d="M494 128C493.449 128 493 127.598 493 127.102V121.898C493 121.402 493.449 121 494 121C494.551 121 495 121.402 495 121.898V127.102C495 127.598 494.551 128 494 128Z" fill="#78A9FF"/>
<path fill-rule="evenodd" clip-rule="evenodd" d="M494 186C493.449 186 493 185.598 493 185.103V179.898C493 179.402 493.449 179 494 179C494.551 179 495 179.402 495 179.898V185.103C495 185.598 494.551 186 494 186Z" fill="#78A9FF"/>
<path fill-rule="evenodd" clip-rule="evenodd" d="M524.102 152H518.898C518.4 152 518 151.552 518 151C518 150.448 518.4 150 518.898 150H524.102C524.597 150 525 150.448 525 151C525 151.552 524.597 152 524.102 152Z" fill="#78A9FF"/>
<path fill-rule="evenodd" clip-rule="evenodd" d="M470.102 152H464.898C464.403 152 464 151.552 464 151C464 150.448 464.403 150 464.898 150H470.102C470.6 150 471 150.448 471 151C471 151.552 470.6 152 470.102 152Z" fill="#78A9FF"/>
<path fill-rule="evenodd" clip-rule="evenodd" d="M500 152C500 154.209 498.207 156 496 156C493.79 156 492 154.209 492 152C492 149.791 493.79 148 496 148C498.207 148 500 149.791 500 152Z" fill="#78A9FF"/>
<path fill-rule="evenodd" clip-rule="evenodd" d="M485 131L495 152L485 131Z" fill="white"/>
<path fill-rule="evenodd" clip-rule="evenodd" d="M495.137 153C494.822 153 494.516 152.82 494.365 152.507L484.093 131.29C483.878 130.85 484.05 130.314 484.477 130.094C484.904 129.874 485.422 130.052 485.634 130.493L495.909 151.711C496.121 152.151 495.949 152.686 495.522 152.906C495.398 152.97 495.267 153 495.137 153Z" fill="#78A9FF"/>
<path opacity="0.444243" fill-rule="evenodd" clip-rule="evenodd" d="M420.419 258H232L234.563 68H421L420.419 258Z" fill="#D8DDE2"/>
<path fill-rule="evenodd" clip-rule="evenodd" d="M232.498 368C231.673 368 231 367.466 231 366.804V50.197C231 49.5358 231.673 49 232.498 49C233.327 49 234 49.5358 234 50.197V366.804C234 367.466 233.327 368 232.498 368Z" fill="#B2BBC6"/>
<path fill-rule="evenodd" clip-rule="evenodd" d="M420.498 368C419.673 368 419 367.466 419 366.804V50.197C419 49.5358 419.673 49 420.498 49C421.327 49 422 49.5358 422 50.197V366.804C422 367.466 421.327 368 420.498 368Z" fill="#B2BBC6"/>
<path fill-rule="evenodd" clip-rule="evenodd" d="M380.91 240H192L231.087 50H420L380.91 240Z" fill="white"/>
<path fill-rule="evenodd" clip-rule="evenodd" d="M224 84.2512L231.048 50H420L380.902 240H224.75L224 84.2512Z" fill="white"/>
<path fill-rule="evenodd" clip-rule="evenodd" d="M382.347 241H224.971C224.298 241 223.749 240.452 223.749 239.779C223.749 239.107 224.298 238.559 224.971 238.559H380.355L419.004 51.4395H232.272L225.417 84.6381C225.28 85.298 224.634 85.7237 223.973 85.586C223.313 85.45 222.889 84.805 223.026 84.1452L230.283 49H422L382.347 241Z" fill="#D0E3FF"/>
<path fill-rule="evenodd" clip-rule="evenodd" d="M233.874 201H226.126C225.503 201 225 200.328 225 199.5C225 198.672 225.503 198 226.126 198H233.874C234.497 198 235 198.672 235 199.5C235 200.328 234.497 201 233.874 201Z" fill="#D0E3FF"/>
<path fill-rule="evenodd" clip-rule="evenodd" d="M277.915 189H247L259.085 131H290L277.915 189Z" fill="#1063FE"/>
<path opacity="0.620884" fill-rule="evenodd" clip-rule="evenodd" d="M320.177 189H290L296.823 155H327L320.177 189Z" fill="#1063FE"/>
<path fill-rule="evenodd" clip-rule="evenodd" d="M362.931 189H332L335.069 174H366L362.931 189Z" fill="#1063FE"/>
<path fill-rule="evenodd" clip-rule="evenodd" d="M363.803 201H233.198C232.838 201 232.498 200.837 232.27 200.557C232.041 200.276 231.951 199.907 232.026 199.553L242.824 146.96C242.958 146.31 243.593 145.892 244.24 146.025C244.89 146.159 245.305 146.796 245.171 147.447L234.67 198.592H363.803C364.462 198.592 365 199.131 365 199.796C365 200.461 364.462 201 363.803 201Z" fill="#D0E3FF"/>
<path fill-rule="evenodd" clip-rule="evenodd" d="M246.294 135C246.206 135 246.118 134.992 246.031 134.975C245.334 134.84 244.882 134.2 245.027 133.546L250.443 108.965C250.588 108.311 251.268 107.891 251.969 108.025C252.67 108.16 253.118 108.8 252.973 109.454L247.557 134.035C247.432 134.606 246.893 135 246.294 135Z" fill="#D0E3FF"/>
<path fill-rule="evenodd" clip-rule="evenodd" d="M350.172 208C350.093 208 350.013 207.992 349.934 207.976C349.302 207.851 348.893 207.254 349.025 206.644L350.685 198.9C350.813 198.29 351.432 197.898 352.064 198.023C352.699 198.149 353.105 198.746 352.976 199.355L351.316 207.1C351.203 207.633 350.715 208 350.172 208Z" fill="#D0E3FF"/>
<path fill-rule="evenodd" clip-rule="evenodd" d="M320.171 208C320.095 208 320.015 207.992 319.933 207.976C319.301 207.851 318.895 207.254 319.024 206.644L320.684 198.9C320.815 198.29 321.434 197.898 322.066 198.023C322.698 198.149 323.107 198.745 322.975 199.355L321.315 207.1C321.202 207.633 320.714 208 320.171 208Z" fill="#D0E3FF"/>
<path fill-rule="evenodd" clip-rule="evenodd" d="M291.173 208C291.093 208 291.014 207.992 290.935 207.976C290.299 207.851 289.893 207.254 290.025 206.644L291.683 198.9C291.814 198.29 292.434 197.898 293.066 198.023C293.698 198.149 294.107 198.746 293.975 199.355L292.318 207.1C292.202 207.633 291.716 208 291.173 208Z" fill="#D0E3FF"/>
<path fill-rule="evenodd" clip-rule="evenodd" d="M261.173 208C261.093 208 261.014 207.992 260.934 207.976C260.302 207.851 259.893 207.254 260.025 206.644L261.682 198.899C261.814 198.29 262.433 197.898 263.065 198.023C263.701 198.149 264.107 198.745 263.975 199.355L262.317 207.1C262.204 207.633 261.716 208 261.173 208Z" fill="#D0E3FF"/>
<path fill-rule="evenodd" clip-rule="evenodd" d="M232.172 208C232.093 208 232.013 207.992 231.934 207.976C231.302 207.851 230.893 207.254 231.025 206.644L232.685 198.899C232.813 198.29 233.432 197.898 234.067 198.023C234.699 198.149 235.105 198.745 234.976 199.355L233.316 207.1C233.203 207.633 232.715 208 232.172 208Z" fill="#D0E3FF"/>
<path fill-rule="evenodd" clip-rule="evenodd" d="M387.542 110.5C387.418 111.106 387.27 111.706 387.097 112.3C383.9 123.334 372.846 132 361.557 132C349.66 132 342.003 122.374 344.458 110.5C346.892 98.7263 358.351 89.1628 370.146 89.0055C370.248 89 370.344 89 370.446 89C382.343 89 389.997 98.6252 387.542 110.5Z" fill="#1063FE"/>
<path fill-rule="evenodd" clip-rule="evenodd" d="M343.823 101C343.492 101 343.163 100.86 342.93 100.588L333.321 89.3579H320.176C319.528 89.3579 319 88.8303 319 88.179C319 87.528 319.528 87 320.176 87H333.861C334.205 87 334.534 87.1507 334.755 87.4121L344.717 99.0538C345.14 99.5483 345.082 100.292 344.588 100.716C344.367 100.907 344.093 101 343.823 101Z" fill="#D0E3FF"/>
<path fill-rule="evenodd" clip-rule="evenodd" d="M351.217 170C351.138 170 351.055 169.992 350.972 169.975C350.312 169.841 349.889 169.205 350.026 168.555L355.589 141.959C355.725 141.309 356.37 140.891 357.028 141.025C357.685 141.159 358.111 141.795 357.974 142.445L352.412 169.041C352.291 169.609 351.786 170 351.217 170Z" fill="#D0E3FF"/>
<path fill-rule="evenodd" clip-rule="evenodd" d="M315.193 146C315.115 146 315.034 145.992 314.953 145.975C314.305 145.841 313.891 145.202 314.025 144.55L318.637 121.963C318.77 121.31 319.403 120.89 320.047 121.025C320.692 121.159 321.109 121.798 320.975 122.45L316.364 145.037C316.245 145.607 315.747 146 315.193 146Z" fill="#D0E3FF"/>
<path fill-rule="evenodd" clip-rule="evenodd" d="M274.957 126C274.895 126 274.828 125.992 274.763 125.975C274.246 125.841 273.915 125.207 274.019 124.558L275.107 117.957C275.212 117.308 275.721 116.892 276.235 117.025C276.754 117.159 277.085 117.793 276.981 118.442L275.893 125.043C275.801 125.61 275.401 126 274.957 126Z" fill="#D0E3FF"/>
<path fill-rule="evenodd" clip-rule="evenodd" d="M307.077 92H269L270.92 82H309L307.077 92Z" fill="#8491A1"/>
<path fill-rule="evenodd" clip-rule="evenodd" d="M329.104 117H301L302.896 107H331L329.104 117Z" fill="#78A9FF"/>
<path fill-rule="evenodd" clip-rule="evenodd" d="M393.536 104.223C393.407 104.821 393.26 105.413 393.085 106H371L375.885 83.0055C375.988 83 376.086 83 376.189 83C388.259 83 396.024 92.5013 393.536 104.223Z" fill="#8491A1"/>
<path fill-rule="evenodd" clip-rule="evenodd" d="M424.056 289H415.941C414.317 289 413 287.657 413 286.002C413 284.343 414.317 283 415.941 283H424.056C425.683 283 427 284.343 427 286.002C427 287.657 425.683 289 424.056 289Z" fill="#2A0055"/>
<path fill-rule="evenodd" clip-rule="evenodd" d="M397.813 288H272.187C271.533 288 271 287.327 271 286.502C271 285.673 271.533 285 272.187 285H397.813C398.47 285 399 285.673 399 286.502C399 287.327 398.47 288 397.813 288Z" fill="#B2BBC6"/>
<path fill-rule="evenodd" clip-rule="evenodd" d="M236.941 289H228.059C226.37 289 225 287.657 225 286.002C225 284.343 226.37 283 228.059 283H236.941C238.63 283 240 284.343 240 286.002C240 287.657 238.63 289 236.941 289Z" fill="#B2BBC6"/>
<path fill-rule="evenodd" clip-rule="evenodd" d="M223.756 353H217.244C216.557 353 216 352.327 216 351.498C216 350.673 216.557 350 217.244 350H223.756C224.443 350 225 350.673 225 351.498C225 352.327 224.443 353 223.756 353Z" fill="white"/>
<path fill-rule="evenodd" clip-rule="evenodd" d="M157 324.544L154.801 345H131L131.439 320L157 324.544Z" fill="#FFBFAA"/>
<path fill-rule="evenodd" clip-rule="evenodd" d="M186 323.893L187.793 347H214L210.029 317L186 323.893Z" fill="#FFBFAA"/>
<path fill-rule="evenodd" clip-rule="evenodd" d="M129 330L137.176 329.904L159.362 329.64L166.069 254.214V254.211L172.925 177.069L173 176.239L131.603 174L129 330Z" fill="#C9DCFF"/>
<path fill-rule="evenodd" clip-rule="evenodd" d="M161 180.584L171.761 249.5L184.801 329.639L203.103 329.851L216 330L208.481 244.907L198.833 169L161 180.584Z" fill="#C9DCFF"/>
<path fill-rule="evenodd" clip-rule="evenodd" d="M159 84.5484C170.45 101.268 174.754 119.458 176.182 138C183.002 114.648 181.335 95.0425 178.742 84.6355L168.598 83L159 84.5484Z" fill="white"/>
<path fill-rule="evenodd" clip-rule="evenodd" d="M131 89.6041V183H206L200.088 88.8926L178.457 85.1003L178.374 85.086C180.898 95.3655 182.521 114.731 175.882 137.797C174.491 119.482 170.302 101.515 159.156 85L158.943 85.0348L131 89.6041Z" fill="#78A9FF"/>
<path fill-rule="evenodd" clip-rule="evenodd" d="M160 85.1841L178.042 102L179 85.1841L178.518 49H160V85.1841Z" fill="#FFBFAA"/>
<path fill-rule="evenodd" clip-rule="evenodd" d="M171.322 83H180.677C185.824 83 190 78.8773 190 73.7917V49H162V73.7914C162 78.8773 166.173 83 171.322 83Z" fill="#FFBFAA"/>
<path fill-rule="evenodd" clip-rule="evenodd" d="M159.5 53.7035C162.968 56.5714 167.052 58.4756 171.367 59.3414C174.788 60.0281 178.248 60.5309 181.705 60.7881C184.633 61.0059 187.68 61.2319 190.561 60.4949C192.518 59.9934 194.344 58.9407 194.746 56.6431C195.192 54.0924 193.232 51.5171 191.221 50.3854C191.221 50.3854 198.334 47.9198 193.043 43.1652C192.889 43.0272 193.618 39.4066 193.637 39.0214C193.904 33.7676 189.927 30.0597 185.076 31.2102C175.783 33.4128 171.189 44.9221 161.453 45.9824C153.267 46.8738 155.755 50.6073 159.5 53.7035Z" fill="#0B1E57"/>
<path fill-rule="evenodd" clip-rule="evenodd" d="M176 38.2888C176 38.2888 157.927 30.0005 153.361 39.7394C148.795 49.478 156.976 67.2985 159.449 69.7849C161.922 72.2713 166.868 52.3793 166.868 52.3793L176 38.2888Z" fill="#0B1E57"/>
<path fill-rule="evenodd" clip-rule="evenodd" d="M162 74C164.761 74 167 71.529 167 68.4811V66.5189C167 63.4707 164.761 61 162 61C159.239 61 157 63.4707 157 66.5189V68.4811C157 71.529 159.239 74 162 74Z" fill="#FFBFAA"/>
<path fill-rule="evenodd" clip-rule="evenodd" d="M177.649 157C176.915 157 176.314 156.495 176.3 155.862L176 142.181C175.986 141.541 176.579 141.012 177.325 141C177.333 141 177.342 141 177.351 141C178.085 141 178.686 141.505 178.7 142.137L179 155.819C179.014 156.459 178.421 156.988 177.675 157C177.667 157 177.658 157 177.649 157Z" fill="#5C8BDD"/>
<path fill-rule="evenodd" clip-rule="evenodd" d="M177.477 84C174.847 84 169.191 83.6632 166.349 80.9449C165.879 80.4955 165.884 79.7722 166.361 79.329C166.837 78.8861 167.604 78.8909 168.074 79.34C170.503 81.6635 176.574 81.8196 178.707 81.684C179.371 81.645 179.952 82.1177 179.997 82.7471C180.042 83.3768 179.538 83.9216 178.87 83.9639C178.787 83.9693 178.269 84 177.477 84Z" fill="#2A0055"/>
<path fill-rule="evenodd" clip-rule="evenodd" d="M202.318 167.889L195.497 164.198L190.376 157.524C189.649 156.58 188.186 156.982 188.011 158.173L187.506 161.575L184.191 160.45C181.447 159.518 178.522 159.304 175.677 159.826L171.657 160.565C170.34 160.806 169.425 162.055 169.556 163.432C169.691 164.852 170.888 165.906 172.264 165.817L176.829 165.523L184.789 168.35L179.389 169.244C177.414 169.571 175.503 170.223 173.728 171.176L170.623 172.843C169.289 173.559 168.671 175.184 169.175 176.649C169.546 177.727 170.459 178.508 171.553 178.681L172.144 178.775L171.982 179.036C171.43 179.928 171.402 181.062 171.909 181.982C172.647 183.316 174.276 183.803 175.587 183.08L178.658 181.388C180.216 180.53 181.963 180.106 183.727 180.16L188.371 180.3L184.244 186.178C183.261 187.577 183.984 189.559 185.613 189.941C186.322 190.106 187.064 189.921 187.622 189.438L193.181 184.613L200.141 183.726L206.727 180.368L211.49 182.291L215 166.764L202.318 167.889Z" fill="#FFBFAA"/>
<path fill-rule="evenodd" clip-rule="evenodd" d="M200.766 89L206.143 89.7665C213.201 91.1879 219.33 95.7455 222.948 102.265L241.521 132.596C243.584 135.966 243.481 140.317 241.262 143.575L218.406 177.095C217.01 179.141 215.101 180.739 212.894 181.713L205.442 185L201.642 164.92L214.306 136.938L191 107.676L200.766 89Z" fill="#78A9FF"/>
<path fill-rule="evenodd" clip-rule="evenodd" d="M124.731 192.008L124.884 193.663C125.201 197.063 124.866 200.496 123.899 203.762L123 206.801L123.947 215.758C124.198 218.137 122.859 220.39 120.696 221.224C119.84 221.555 118.914 221.637 118.016 221.464L116.308 221.133C116.074 222.434 115.074 223.442 113.814 223.644L112.189 223.907C109.969 224.265 107.711 223.579 106.029 222.034L105.269 223.013C104.277 224.29 102.36 224.133 101.569 222.716L99 218.106L99.2536 208.493C99.3125 206.275 100.001 204.123 101.231 202.307L104.585 197.362L109.233 187L124.731 192.008Z" fill="#FFBFAA"/>
<path fill-rule="evenodd" clip-rule="evenodd" d="M102.351 193L99.4183 198.294C98.4028 200.127 99.3289 202.55 101.197 202.948C102.116 203.144 103.058 202.78 103.684 201.988L110 193.992L102.351 193Z" fill="#FFBFAA"/>
<path fill-rule="evenodd" clip-rule="evenodd" d="M101.235 204C100.976 204 100.715 203.976 100.455 203.929C99.0871 203.676 97.9693 202.823 97.3889 201.589C96.7916 200.319 96.8868 198.853 97.6438 197.668L100.896 192.577C101.256 192.013 102.032 191.831 102.63 192.171C103.227 192.511 103.42 193.243 103.059 193.807L99.8073 198.898C99.4755 199.417 99.4343 200.063 99.6976 200.622C99.9394 201.136 100.392 201.489 100.941 201.59C101.516 201.696 102.098 201.498 102.498 201.059L103.779 199.653C104.233 199.154 105.031 199.096 105.56 199.526C106.089 199.954 106.15 200.706 105.695 201.206L104.414 202.613C103.603 203.501 102.435 204 101.235 204Z" fill="#5C8BDD"/>
<path fill-rule="evenodd" clip-rule="evenodd" d="M136.008 89L126.596 90.6219C122.119 91.3932 118.687 95.2159 118.214 99.9571L114.335 138.82L98 194H128.774L143 138.82L136.008 89Z" fill="#78A9FF"/>
<path fill-rule="evenodd" clip-rule="evenodd" d="M187 342.912V367H231V354.956L215.98 343.333L216.422 332H205.641L200.957 339.901L187 342.912Z" fill="#78A9FF"/>
<path fill-rule="evenodd" clip-rule="evenodd" d="M136.042 320C136.039 320 136.036 320 136.033 320C135.457 319.994 134.995 319.453 135 318.79L135.916 201.188C135.921 200.53 136.387 200 136.958 200C136.961 200 136.964 200 136.967 200C137.543 200.006 138.005 200.548 138 201.21L137.084 318.812C137.079 319.472 136.613 320 136.042 320Z" fill="white"/>
<path fill-rule="evenodd" clip-rule="evenodd" d="M160 343.932V367H127V343.642L137.051 340.905L139.307 332H153.399L156.108 340.702L160 343.932Z" fill="#78A9FF"/>
<path fill-rule="evenodd" clip-rule="evenodd" d="M229.802 357H207.391C206.95 357 206.546 356.766 206.336 356.392L198.145 341.721C197.829 341.156 198.045 340.448 198.63 340.141C199.212 339.834 199.938 340.044 200.254 340.612L208.104 354.673H229.802C230.462 354.673 231 355.193 231 355.837C231 356.481 230.462 357 229.802 357Z" fill="white"/>
<path fill-rule="evenodd" clip-rule="evenodd" d="M220.834 350H213.169C212.524 350 212 349.327 212 348.498C212 347.673 212.524 347 213.169 347H220.834C221.479 347 222 347.673 222 348.498C222 349.327 221.479 350 220.834 350Z" fill="white"/>
<path fill-rule="evenodd" clip-rule="evenodd" d="M160.797 363C160.399 363 160.008 362.815 159.78 362.475L157.831 359.602C155.559 356.248 151.759 354.249 147.667 354.249C143.019 354.249 138.835 356.791 136.748 360.88L135.994 362.358C135.794 362.751 135.371 363 134.907 363H127.204C126.539 363 126 362.496 126 361.874C126 361.256 126.539 360.751 127.204 360.751H134.147L134.575 359.913C137.065 355.031 142.081 352 147.667 352C152.589 352 157.148 354.392 159.864 358.397L161.813 361.273C162.169 361.798 162.002 362.493 161.44 362.824C161.241 362.941 161.018 363 160.797 363Z" fill="white"/>
<path fill-rule="evenodd" clip-rule="evenodd" d="M152.79 347H141.21C140.542 347 140 346.327 140 345.498C140 344.669 140.542 344 141.21 344H152.79C153.459 344 154 344.669 154 345.498C154 346.327 153.459 347 152.79 347Z" fill="white"/>
<path fill-rule="evenodd" clip-rule="evenodd" d="M169.296 221C169.255 221 169.215 220.998 169.173 220.995C168.461 220.933 167.939 220.349 168.006 219.691L168.746 212.418C168.782 212.069 168.98 211.752 169.291 211.551C169.483 211.423 174.141 208.241 174.411 200.493V194.197C174.411 193.536 174.991 193 175.706 193C176.42 193 177 193.536 177 194.197V200.511C177 200.524 177 200.536 176.999 200.549C176.742 208.116 172.707 211.999 171.272 213.145L170.583 219.915C170.52 220.535 169.956 221 169.296 221Z" fill="white"/>
<path fill-rule="evenodd" clip-rule="evenodd" d="M133.581 203H132.18C131.529 203 131 202.491 131 201.863C131 201.234 131.529 200.725 132.18 200.725H133.581C138.591 200.725 143.267 197.99 145.785 193.588C146.1 193.038 146.818 192.839 147.389 193.141C147.96 193.445 148.168 194.136 147.853 194.686C144.919 199.814 139.451 203 133.581 203Z" fill="white"/>
<path fill-rule="evenodd" clip-rule="evenodd" d="M131.268 181C130.568 181 130 180.464 130 179.803V119.515C130 119.161 130.166 118.824 130.454 118.597L135.918 114.279C136.455 113.855 137.255 113.922 137.704 114.429C138.154 114.936 138.083 115.691 137.546 116.115L132.536 120.074V179.803C132.536 180.464 131.969 181 131.268 181Z" fill="white"/>
<path fill-rule="evenodd" clip-rule="evenodd" d="M214.765 138C214.404 138 214.044 137.845 213.799 137.546L200.27 120.957C199.845 120.437 199.932 119.678 200.463 119.263C200.997 118.848 201.773 118.934 202.198 119.454L215.731 136.043C216.156 136.563 216.069 137.322 215.534 137.737C215.306 137.914 215.035 138 214.765 138Z" fill="white"/>
<path fill-rule="evenodd" clip-rule="evenodd" d="M177.177 140C176.958 140 176.737 139.938 176.54 139.807C175.993 139.444 175.836 138.696 176.189 138.135C181.197 130.171 188.679 113.491 191.491 102.549L183.515 95.9553C183.163 95.6642 183.004 95.1914 183.107 94.7392C183.209 94.2873 183.555 93.935 183.996 93.8338L188.544 92.7889L179.234 86.395C178.873 86.2591 178.583 85.945 178.49 85.5318L178.483 85.5C178.366 85.0143 178.552 84.5043 178.952 84.218C179.352 83.931 179.883 83.9272 180.287 84.2079L180.38 84.2722L192.14 92.3477C192.53 92.6167 192.73 93.0992 192.641 93.5748C192.555 94.0504 192.201 94.427 191.74 94.5326L186.897 95.6456L193.559 101.154C193.919 101.45 194.076 101.932 193.965 102.389C191.178 113.858 183.403 131.123 178.168 139.446C177.943 139.805 177.564 140 177.177 140Z" fill="#5C8BDD"/>
<path fill-rule="evenodd" clip-rule="evenodd" d="M172.773 134C172.335 134 171.912 133.771 171.69 133.369C165.83 122.725 158.829 110.808 151.338 103.126C151.064 102.845 150.947 102.453 151.023 102.072C151.099 101.692 151.36 101.372 151.722 101.212L156.103 99.2835L151.898 98.1415C151.535 98.0429 151.238 97.7872 151.094 97.4478C150.949 97.1084 150.973 96.7232 151.158 96.4032L158.542 83.6131C158.751 83.2485 159.14 83.0164 159.569 83.0008C160 82.9852 160.403 83.1886 160.639 83.5373L160.748 83.6964C161.121 84.2482 160.964 84.99 160.398 85.353C160.377 85.3664 160.355 85.3792 160.333 85.3914L154.065 96.2472L160.02 97.8645C160.518 97.9996 160.875 98.4238 160.914 98.9254C160.954 99.4269 160.667 99.8992 160.196 100.106L154.283 102.71C161.527 110.588 168.218 122.001 173.854 132.239C174.174 132.821 173.95 133.546 173.352 133.858C173.167 133.954 172.969 134 172.773 134Z" fill="#5C8BDD"/>
<path fill-rule="evenodd" clip-rule="evenodd" d="M177.633 143C176.914 143 176.311 142.502 176.27 141.858C176.196 140.689 176.107 139.493 176.004 138.302C175.947 137.636 176.51 137.054 177.262 137.004C178.017 136.951 178.67 137.452 178.728 138.118C178.832 139.325 178.923 140.537 178.998 141.722C179.04 142.389 178.464 142.961 177.711 142.998C177.685 142.999 177.659 143 177.633 143Z" fill="#5C8BDD"/>
<path fill-rule="evenodd" clip-rule="evenodd" d="M129.806 187H99.1939C98.5344 187 98 186.328 98 185.5C98 184.672 98.5344 184 99.1939 184H129.806C130.465 184 131 184.672 131 185.5C131 186.328 130.465 187 129.806 187Z" fill="#5C8BDD"/>
<path fill-rule="evenodd" clip-rule="evenodd" d="M202.194 166C202.029 166 201.864 165.966 201.702 165.894C201.1 165.624 200.835 164.922 201.106 164.325L213.717 136.697C213.988 136.101 214.695 135.835 215.297 136.106C215.899 136.376 216.167 137.079 215.892 137.675L203.285 165.303C203.085 165.741 202.649 166 202.194 166Z" fill="white"/>
<path fill-rule="evenodd" clip-rule="evenodd" d="M160.786 321H129.214C128.544 321 128 320.331 128 319.502C128 318.673 128.544 318 129.214 318H160.786C161.456 318 162 318.673 162 319.502C162 320.331 161.456 321 160.786 321Z" fill="white"/>
<path fill-rule="evenodd" clip-rule="evenodd" d="M214.784 321H183.214C182.543 321 182 320.331 182 319.502C182 318.673 182.543 318 183.214 318H214.784C215.455 318 216 318.673 216 319.502C216 320.331 215.455 321 214.784 321Z" fill="white"/>
<path fill-rule="evenodd" clip-rule="evenodd" d="M190.789 320C190.192 320 189.674 319.567 189.592 318.965L177.011 227.359C176.921 226.704 177.386 226.102 178.048 226.011C178.711 225.921 179.32 226.382 179.41 227.034L191.988 318.643C192.08 319.298 191.616 319.9 190.953 319.991C190.899 319.997 190.842 320 190.789 320Z" fill="white"/>
<path fill-rule="evenodd" clip-rule="evenodd" d="M202.808 203C196.474 203 190.483 199.477 187.166 193.807C186.83 193.236 187.02 192.501 187.589 192.166C188.155 191.83 188.887 192.021 189.223 192.591C192.11 197.532 197.317 200.602 202.808 200.602C203.468 200.602 204 201.138 204 201.801C204 202.463 203.468 203 202.808 203Z" fill="white"/>
<path fill-rule="evenodd" clip-rule="evenodd" d="M457.607 208C458.052 209.538 458.312 211.018 458.513 212.48C458.726 213.944 458.839 215.377 458.923 216.802C459.061 219.64 459.014 222.419 458.773 225.137C458.309 230.58 457.194 235.817 455.611 240.905C454.013 245.99 451.93 250.918 449.198 255.646C447.841 258.009 446.29 260.313 444.551 262.557C443.661 263.673 442.749 264.782 441.734 265.857C440.728 266.938 439.666 267.997 438.416 269C437.965 267.46 437.702 265.98 437.498 264.515C437.282 263.05 437.169 261.617 437.078 260.193C436.937 257.352 436.987 254.574 437.228 251.855C437.695 246.415 438.808 241.175 440.412 236.093C442.025 231.014 444.109 226.086 446.845 221.363C448.204 218.998 449.752 216.693 451.491 214.449C452.378 213.331 453.287 212.223 454.299 211.145C455.301 210.066 456.363 209.004 457.607 208Z" fill="#D0E3FF"/>
<path fill-rule="evenodd" clip-rule="evenodd" d="M455.997 209.9C455.228 210.611 454.568 211.302 454.037 211.876C452.983 212.998 452.055 214.142 451.286 215.115C449.588 217.308 448.057 219.593 446.737 221.895C444.168 226.341 442.095 231.085 440.407 236.41C438.741 241.694 437.718 246.771 437.275 251.93C437.04 254.583 436.99 257.337 437.128 260.119C437.206 261.356 437.315 262.835 437.534 264.342C437.647 265.124 437.794 266.075 438.022 267.111C438.8 266.395 439.463 265.702 439.997 265.127C441.042 264.019 441.976 262.869 442.755 261.89C444.452 259.701 445.987 257.416 447.306 255.114C449.892 250.63 451.955 245.883 453.615 240.595C455.272 235.261 456.291 230.181 456.725 225.063C456.96 222.413 457.01 219.659 456.872 216.874C456.8 215.648 456.694 214.177 456.475 212.654C456.366 211.874 456.222 210.926 455.997 209.9ZM437.437 270C437.334 270 437.231 269.984 437.128 269.953C436.803 269.849 436.549 269.589 436.452 269.259C435.94 267.504 435.677 265.865 435.502 264.634C435.274 263.061 435.158 261.526 435.08 260.235C434.936 257.346 434.986 254.495 435.23 251.751C435.686 246.442 436.74 241.22 438.45 235.785C440.185 230.316 442.317 225.436 444.962 220.862C446.325 218.482 447.91 216.119 449.673 213.841C450.476 212.826 451.436 211.64 452.536 210.466C453.377 209.561 454.528 208.37 455.941 207.228C456.207 207.011 456.566 206.944 456.891 207.048C457.219 207.152 457.473 207.413 457.569 207.744C458.076 209.495 458.335 211.133 458.507 212.364C458.736 213.956 458.845 215.481 458.923 216.762C459.064 219.652 459.011 222.501 458.77 225.242C458.323 230.507 457.276 235.732 455.572 241.211C453.868 246.649 451.745 251.531 449.082 256.144C447.716 258.527 446.131 260.891 444.368 263.168C443.555 264.188 442.586 265.381 441.495 266.54C440.654 267.444 439.5 268.634 438.078 269.774C437.894 269.925 437.668 270 437.437 270Z" fill="white"/>
<path fill-rule="evenodd" clip-rule="evenodd" d="M409.748 197C411.025 198.108 412.126 199.279 413.17 200.469C414.223 201.656 415.182 202.878 416.118 204.108C417.951 206.58 419.607 209.116 421.077 211.717C424.04 216.913 426.379 222.331 428.267 227.909C430.143 233.493 431.55 239.242 432.343 245.21C432.746 248.193 432.963 251.239 433 254.354C433.003 255.916 432.979 257.487 432.858 259.093C432.749 260.695 432.582 262.316 432.237 264C430.954 262.896 429.85 261.727 428.803 260.536C427.747 259.351 426.787 258.129 425.849 256.901C424.012 254.429 422.357 251.894 420.887 249.291C417.93 244.093 415.591 238.678 413.718 233.091C411.86 227.504 410.45 221.755 409.663 215.784C409.261 212.802 409.043 209.754 409 206.643C408.997 205.081 409.018 203.511 409.136 201.906C409.245 200.305 409.409 198.684 409.748 197Z" fill="#D0E3FF"/>
<path fill-rule="evenodd" clip-rule="evenodd" d="M410.506 199.022C410.349 200.132 410.261 201.155 410.204 201.997C410.075 203.671 410.063 205.291 410.066 206.656C410.107 209.709 410.333 212.74 410.742 215.653C411.515 221.288 412.877 226.882 414.911 232.758C416.938 238.584 419.347 243.818 422.27 248.759C423.767 251.307 425.48 253.828 427.357 256.258C428.206 257.33 429.231 258.598 430.366 259.822C430.944 260.451 431.655 261.208 432.479 261.987C432.642 260.869 432.73 259.841 432.79 258.996C432.919 257.333 432.934 255.706 432.934 254.336C432.897 251.283 432.67 248.254 432.262 245.341C431.479 239.662 430.108 234.069 428.074 228.243C426.009 222.38 423.594 217.147 420.689 212.247C419.193 209.704 417.482 207.182 415.605 204.747C414.763 203.679 413.741 202.413 412.603 201.18C412.028 200.551 411.323 199.798 410.506 199.022ZM433.173 265C432.934 265 432.699 264.916 432.51 264.76C430.998 263.505 429.753 262.199 428.841 261.202C427.662 259.931 426.606 258.623 425.726 257.51C423.789 255.006 422.028 252.41 420.488 249.793C417.498 244.734 415.033 239.378 412.958 233.425C410.88 227.418 409.487 221.696 408.698 215.931C408.277 212.937 408.041 209.821 408 206.672C407.997 205.257 408.013 203.587 408.145 201.849C408.239 200.511 408.396 198.723 408.799 196.815C408.871 196.462 409.126 196.174 409.472 196.056C409.814 195.939 410.195 196.008 410.475 196.241C411.977 197.495 413.216 198.803 414.128 199.803C415.31 201.083 416.363 202.388 417.237 203.496C419.177 206.007 420.934 208.601 422.472 211.214C425.443 216.227 427.914 221.579 430.023 227.574C432.104 233.53 433.504 239.25 434.305 245.061C434.726 248.055 434.959 251.173 435 254.323C435 255.744 434.981 257.42 434.849 259.149C434.752 260.486 434.588 262.274 434.183 264.187C434.107 264.539 433.852 264.826 433.51 264.944C433.4 264.981 433.287 265 433.173 265Z" fill="white"/>
<path fill-rule="evenodd" clip-rule="evenodd" d="M357 212C359.816 213.27 362.462 214.806 365.055 216.416C367.654 218.02 370.142 219.771 372.606 221.564C377.499 225.188 382.123 229.162 386.527 233.381C390.932 237.6 395.076 242.107 398.943 246.868C402.81 251.629 406.432 256.616 409.727 261.847C413.007 267.088 415.974 272.554 418.567 278.218C421.102 283.916 423.259 289.809 424.891 295.858C426.458 301.936 427.524 308.154 427.917 314.401C427.982 317.554 428.112 320.657 427.803 323.782C427.657 326.885 427.082 329.985 426.433 333C425.327 330.057 424.535 327.173 423.457 324.365C422.52 321.541 421.374 318.798 420.366 316.071C418.137 310.655 415.81 305.405 413.313 300.256C410.729 295.134 408.07 290.1 405.279 285.126C402.439 280.174 399.496 275.281 396.47 270.42C390.354 260.725 383.875 251.178 377.214 241.565C370.563 231.921 363.713 222.335 357 212Z" fill="#D0E3FF"/>
<path fill-rule="evenodd" clip-rule="evenodd" d="M425.337 323.069C425.898 324.505 426.393 325.984 426.872 327.41C426.95 327.649 427.032 327.888 427.113 328.131C427.417 326.4 427.661 324.588 427.746 322.792C427.749 322.774 427.749 322.755 427.752 322.74C428.015 320.111 427.953 317.532 427.89 314.797C427.881 314.393 427.871 313.986 427.862 313.582C427.486 307.737 426.465 301.625 424.83 295.414C423.267 289.749 421.128 283.916 418.475 278.087C415.925 272.634 412.931 267.211 409.589 261.985C406.398 257.029 402.746 252.066 398.737 247.237C394.837 242.542 390.634 238.074 386.24 233.96C381.611 229.619 376.9 225.707 372.236 222.326C370.038 220.763 367.413 218.935 364.654 217.27C363.326 216.464 361.731 215.519 359.99 214.599C364.3 220.973 368.675 227.124 372.925 233.096C374.711 235.604 376.555 238.198 378.353 240.746C383.884 248.552 391.104 258.865 397.888 269.387C401.12 274.467 404.049 279.246 406.839 284.003C409.561 288.748 412.23 293.667 415.005 299.049C417.476 304.03 419.822 309.179 422.186 314.803C422.193 314.813 422.196 314.825 422.202 314.838C422.562 315.792 422.948 316.77 423.323 317.718C424.009 319.455 424.72 321.248 425.337 323.069ZM427.386 333C426.963 333 426.581 332.739 426.427 332.344C425.867 330.89 425.384 329.448 424.918 328.053C424.426 326.577 423.959 325.182 423.411 323.787C423.405 323.771 423.399 323.756 423.395 323.74C422.794 321.963 422.089 320.182 421.41 318.464C421.034 317.516 420.645 316.534 420.282 315.571C417.936 309.993 415.609 304.888 413.166 299.966C410.413 294.624 407.757 289.73 405.057 285.02C402.282 280.293 399.369 275.533 396.153 270.48C389.391 259.996 382.19 249.708 376.668 241.918C374.873 239.37 373.029 236.778 371.247 234.274C366.292 227.31 361.168 220.111 356.169 212.581C355.918 212.203 355.949 211.706 356.244 211.36C356.538 211.015 357.03 210.904 357.447 211.088C360.594 212.478 363.523 214.191 365.725 215.528C368.54 217.227 371.206 219.082 373.442 220.673C378.184 224.11 382.96 228.078 387.652 232.478C392.109 236.651 396.372 241.181 400.321 245.942C404.384 250.83 408.086 255.86 411.324 260.888C414.716 266.192 417.751 271.692 420.345 277.239C423.045 283.174 425.221 289.106 426.816 294.885C428.491 301.243 429.531 307.492 429.916 313.473C429.916 313.489 429.916 313.501 429.916 313.517C429.926 313.93 429.935 314.34 429.945 314.751C430.007 317.417 430.073 320.17 429.8 322.917C429.641 326.17 428.999 329.433 428.391 332.195C428.297 332.636 427.918 332.963 427.464 332.997C427.439 332.997 427.414 333 427.386 333Z" fill="white"/>
<path fill-rule="evenodd" clip-rule="evenodd" d="M385 194C387.517 195.817 389.815 197.859 392.045 199.961C394.287 202.059 396.383 204.276 398.45 206.529C402.542 211.066 406.29 215.886 409.777 220.901C413.263 225.916 416.432 231.155 419.276 236.582C422.12 242.011 424.677 247.609 426.86 253.378C429.024 259.149 430.836 265.077 432.237 271.12C433.574 277.184 434.498 283.358 434.872 289.575C435.174 295.811 434.956 302.075 434.064 308.227C433.484 311.306 432.976 314.347 432.031 317.323C431.254 320.309 430.05 323.204 428.794 326C428.301 322.909 428.111 319.942 427.621 316.987C427.275 314.048 426.704 311.147 426.268 308.289C425.176 302.56 423.951 296.975 422.538 291.452C421.035 285.939 419.441 280.494 417.704 275.083C415.911 269.682 414.009 264.317 412.016 258.96C407.959 248.272 403.518 237.649 398.906 226.927C394.312 216.173 389.513 205.436 385 194Z" fill="white"/>
<path fill-rule="evenodd" clip-rule="evenodd" d="M428.622 317.747C428.871 319.284 429.049 320.845 429.22 322.353C429.248 322.604 429.276 322.858 429.304 323.112C429.958 321.466 430.569 319.726 431.024 317.97C431.027 317.954 431.033 317.935 431.036 317.92C431.837 315.383 432.308 312.825 432.809 310.119C432.884 309.711 432.959 309.307 433.037 308.899C433.875 303.052 434.14 296.806 433.828 290.335C433.476 284.418 432.597 278.219 431.217 271.92C429.859 266.01 428.064 260.04 425.889 254.19C423.802 248.637 421.269 242.984 418.362 237.394C415.536 231.954 412.364 226.677 408.937 221.708C405.326 216.47 401.546 211.635 397.702 207.336C395.882 205.338 393.701 202.99 391.364 200.783C390.237 199.713 388.881 198.452 387.376 197.186C390.258 204.369 393.249 211.346 396.156 218.123C397.375 220.964 398.636 223.902 399.858 226.787C403.634 235.631 408.535 247.301 412.972 259.087C415.072 264.775 416.935 270.096 418.67 275.363C420.34 280.612 421.923 286.017 423.515 291.905C424.892 297.33 426.117 302.898 427.26 308.937C427.26 308.949 427.263 308.962 427.266 308.974C427.419 309.993 427.594 311.038 427.765 312.05C428.073 313.906 428.394 315.825 428.622 317.747ZM428.781 328C428.734 328 428.69 327.997 428.644 327.991C428.195 327.931 427.84 327.58 427.768 327.132C427.525 325.583 427.351 324.059 427.185 322.588C427.011 321.027 426.843 319.553 426.597 318.061C426.597 318.045 426.593 318.029 426.59 318.014C426.372 316.133 426.054 314.233 425.746 312.392C425.578 311.379 425.4 310.332 425.244 309.304C424.113 303.312 422.898 297.794 421.537 292.429C419.957 286.588 418.384 281.211 416.726 276.003C415 270.767 413.143 265.468 411.056 259.812C406.634 248.066 401.746 236.425 397.979 227.595C396.755 224.714 395.496 221.778 394.281 218.939C390.891 211.041 387.386 202.874 384.071 194.406C383.906 193.982 384.036 193.497 384.395 193.216C384.756 192.936 385.255 192.927 385.622 193.195C388.398 195.213 390.897 197.509 392.767 199.284C395.15 201.536 397.365 203.919 399.216 205.952C403.123 210.322 406.958 215.226 410.616 220.535C414.093 225.573 417.309 230.925 420.175 236.437C423.119 242.103 425.687 247.831 427.802 253.462C430.011 259.404 431.831 265.458 433.214 271.466C434.616 277.881 435.511 284.189 435.872 290.225C436.19 296.847 435.916 303.23 435.056 309.216C435.056 309.232 435.053 309.244 435.049 309.26C434.971 309.671 434.897 310.084 434.822 310.495C434.333 313.135 433.828 315.866 432.996 318.515C432.17 321.698 430.871 324.786 429.712 327.392C429.547 327.765 429.179 328 428.781 328Z" fill="#D0E3FF"/>
<path fill-rule="evenodd" clip-rule="evenodd" d="M439.756 185C440.444 188.012 440.945 191.013 441.388 194.009C441.84 197.007 442.187 199.997 442.51 202.987C443.127 208.964 443.505 214.926 443.748 220.879C444.222 232.785 444 244.65 443.312 256.485C442.602 268.318 441.406 280.12 439.522 291.88C438.575 297.761 437.491 303.632 436.16 309.49C435.48 312.416 434.777 315.342 433.968 318.262C433.169 321.182 432.312 324.096 431.26 327C430.566 323.989 430.062 320.988 429.616 317.99C429.164 314.995 428.814 312.003 428.488 309.015C427.864 303.037 427.489 297.072 427.25 291.12C426.779 279.215 426.997 267.351 427.704 255.515C428.433 243.686 429.628 231.881 431.516 220.121C432.465 214.241 433.55 208.37 434.878 202.514C435.554 199.586 436.255 196.66 437.06 193.741C437.856 190.821 438.711 187.905 439.756 185Z" fill="#D0E3FF"/>
<path fill-rule="evenodd" clip-rule="evenodd" d="M439.517 188.869C438.928 190.742 438.434 192.501 438.031 193.97C437.178 197.042 436.453 200.076 435.861 202.639C434.654 207.921 433.561 213.618 432.514 220.049C430.74 231.045 429.497 242.505 428.72 255.083C427.968 267.587 427.82 279.112 428.265 290.321C428.529 296.823 428.932 302.61 429.497 308.016C429.785 310.65 430.144 313.766 430.62 316.879C430.844 318.395 431.13 320.209 431.495 322.154C432.094 320.271 432.594 318.504 433 317.031C433.844 313.996 434.575 310.945 435.176 308.361C436.389 303.064 437.482 297.37 438.523 290.952C440.31 279.88 441.544 268.42 442.296 255.919C443.033 243.344 443.177 231.815 442.732 220.678C442.465 214.17 442.063 208.381 441.501 202.982C441.218 200.372 440.862 197.274 440.386 194.118C440.162 192.609 439.88 190.801 439.517 188.869ZM431.268 327C431.246 327 431.225 326.997 431.207 326.997C430.761 326.969 430.387 326.652 430.286 326.211C429.512 322.887 428.993 319.644 428.628 317.186C428.146 314.039 427.783 310.896 427.495 308.236C426.924 302.781 426.515 296.95 426.251 290.405C425.803 279.125 425.954 267.531 426.709 254.959C427.489 242.309 428.738 230.784 430.525 219.719C431.578 213.243 432.68 207.506 433.896 202.176C434.498 199.588 435.225 196.528 436.088 193.421C436.745 191.028 437.648 187.868 438.805 184.67C438.956 184.246 439.37 183.973 439.812 184.002C440.257 184.03 440.632 184.349 440.733 184.789C441.498 188.105 442.013 191.353 442.379 193.812C442.861 197.003 443.217 200.128 443.502 202.764C444.07 208.211 444.476 214.042 444.746 220.594C445.194 231.8 445.05 243.396 444.31 256.04C443.552 268.612 442.308 280.141 440.512 291.281C439.465 297.742 438.36 303.48 437.141 308.827C436.53 311.436 435.793 314.512 434.94 317.581C434.283 319.97 433.377 323.126 432.214 326.332C432.066 326.733 431.686 327 431.268 327Z" fill="white"/>
<path fill-rule="evenodd" clip-rule="evenodd" d="M449 273.975C449.108 272.756 449.298 271.627 449.561 270.587C449.809 269.526 450.128 268.545 450.463 267.586C451.154 265.689 451.975 263.941 452.927 262.342C454.817 259.127 457.154 256.42 459.81 254.078C462.476 251.749 465.473 249.8 468.913 248.352C470.627 247.621 472.471 247.043 474.448 246.61C475.449 246.409 476.466 246.226 477.554 246.124C478.623 246.003 479.77 245.969 481 246.028C480.895 247.253 480.709 248.383 480.445 249.425C480.2 250.486 479.884 251.47 479.55 252.432C478.862 254.329 478.04 256.08 477.086 257.68C475.195 260.891 472.858 263.598 470.19 265.925C467.515 268.242 464.515 270.191 461.072 271.636C459.358 272.363 457.514 272.945 455.539 273.378C454.542 273.582 453.525 273.764 452.44 273.87C451.371 273.993 450.227 274.03 449 273.975Z" fill="#D0E3FF"/>
<path fill-rule="evenodd" clip-rule="evenodd" d="M479.823 246.029C479.068 246.029 478.343 246.07 477.656 246.147C476.535 246.255 475.504 246.447 474.64 246.62C472.749 247.034 470.95 247.599 469.309 248.298C466.098 249.648 463.212 251.462 460.485 253.848C457.748 256.262 455.565 258.879 453.819 261.852C452.905 263.388 452.103 265.091 451.431 266.923C451.15 267.736 450.822 268.725 450.568 269.806C450.391 270.496 450.252 271.219 450.15 271.97C450.908 271.967 451.642 271.926 452.336 271.846C453.463 271.738 454.49 271.543 455.345 271.367C457.24 270.953 459.039 270.384 460.68 269.689C463.869 268.351 466.757 266.54 469.519 264.151C472.25 261.772 474.436 259.157 476.201 256.166C477.114 254.633 477.913 252.927 478.582 251.094C478.863 250.276 479.192 249.28 479.442 248.208C479.616 247.516 479.755 246.79 479.854 246.029C479.845 246.029 479.833 246.029 479.823 246.029ZM450.109 274C449.735 274 449.357 273.991 448.97 273.972C448.694 273.96 448.434 273.833 448.252 273.626C448.069 273.419 447.979 273.144 448.004 272.869C448.116 271.617 448.314 270.424 448.592 269.324C448.865 268.169 449.212 267.118 449.518 266.243C450.236 264.278 451.091 262.458 452.066 260.82C453.921 257.665 456.237 254.883 459.141 252.324C462.039 249.79 465.104 247.865 468.513 246.428C470.268 245.683 472.191 245.078 474.222 244.636C475.154 244.447 476.25 244.243 477.442 244.129C478.554 244.002 479.768 243.968 481.034 244.03C481.309 244.045 481.566 244.169 481.749 244.376C481.932 244.583 482.018 244.855 481.997 245.13C481.888 246.388 481.693 247.587 481.418 248.687C481.151 249.831 480.802 250.891 480.498 251.771C479.78 253.74 478.925 255.56 477.95 257.198C476.074 260.378 473.752 263.153 470.854 265.681C467.925 268.218 464.856 270.137 461.472 271.556C459.72 272.3 457.8 272.906 455.769 273.354C454.847 273.543 453.754 273.747 452.552 273.864C451.781 273.954 450.961 274 450.109 274Z" fill="white"/>
<path fill-rule="evenodd" clip-rule="evenodd" d="M440.277 290C440.027 288.121 439.983 286.303 440.005 284.504C440.017 282.702 440.143 280.937 440.296 279.178C440.644 275.676 441.217 272.239 442.016 268.879C443.589 262.153 445.954 255.686 448.983 249.476C452.031 243.282 455.768 237.326 460.517 231.938C462.905 229.252 465.574 226.723 468.609 224.523C469.373 223.982 470.135 223.443 470.968 222.963L472.193 222.248C472.613 222.018 473.057 221.814 473.493 221.61C475.188 220.772 477.117 220.169 479 220C478.048 221.678 477.28 223.146 476.613 224.73C476.447 225.119 476.284 225.502 476.109 225.87L475.645 227.042C475.498 227.434 475.322 227.793 475.169 228.176L474.73 229.341C473.53 232.398 472.4 235.449 471.187 238.457C468.806 244.509 466.222 250.459 463.321 256.339C460.42 262.215 457.241 268.013 453.541 273.664C451.699 276.489 449.7 279.271 447.545 282.01C446.452 283.373 445.334 284.733 444.131 286.065C442.937 287.4 441.69 288.723 440.277 290Z" fill="white"/>
<path fill-rule="evenodd" clip-rule="evenodd" d="M477.06 220.406C476.009 220.675 474.939 221.074 473.932 221.579L473.741 221.67C473.381 221.842 473.009 222.02 472.668 222.207L471.473 222.916C470.697 223.37 469.99 223.875 469.242 224.411L469.189 224.448C466.427 226.484 463.837 228.893 461.287 231.807C456.936 236.813 453.217 242.555 449.92 249.353C446.863 255.716 444.549 262.26 443.041 268.798C442.259 272.138 441.689 275.606 441.345 279.105C441.211 280.653 441.07 282.501 441.061 284.409C441.048 285.358 441.051 286.505 441.126 287.745C441.996 286.859 442.759 286.01 443.382 285.302C444.642 283.886 445.794 282.451 446.754 281.235C448.884 278.488 450.883 275.665 452.685 272.858C456.02 267.689 459.195 261.981 462.392 255.406C465.151 249.732 467.706 243.83 470.212 237.361C470.928 235.557 471.626 233.708 472.305 231.92C472.78 230.657 473.259 229.392 473.75 228.126L474.185 226.957C474.26 226.76 474.338 226.582 474.413 226.403C474.498 226.209 474.579 226.014 474.654 225.811L475.13 224.602C475.136 224.583 475.145 224.567 475.152 224.548C475.302 224.223 475.446 223.887 475.589 223.546L475.643 223.417C476.043 222.457 476.49 221.498 477.06 220.406ZM440.304 291C440.185 291 440.066 290.978 439.95 290.937C439.59 290.806 439.334 290.483 439.284 290.104C439.002 287.946 438.987 285.916 439.005 284.39C439.018 282.416 439.162 280.515 439.3 278.914C439.653 275.314 440.238 271.756 441.039 268.332C442.581 261.649 444.946 254.961 448.071 248.457C451.449 241.49 455.266 235.601 459.739 230.454C462.392 227.424 465.088 224.915 467.985 222.782L468.051 222.738C468.801 222.199 469.577 221.643 470.431 221.143L471.651 220.421C472.07 220.189 472.471 219.998 472.859 219.813L473.027 219.732C474.926 218.779 476.956 218.179 478.88 218.004C479.259 217.97 479.628 218.149 479.834 218.469C480.041 218.789 480.056 219.198 479.869 219.531C478.815 221.411 478.117 222.813 477.535 224.216L477.479 224.348C477.332 224.702 477.185 225.046 477.032 225.382L476.575 226.541C476.497 226.76 476.397 226.989 476.3 227.214C476.234 227.371 476.165 227.528 476.102 227.687L475.671 228.856C475.177 230.131 474.701 231.39 474.226 232.646C473.547 234.445 472.843 236.302 472.123 238.113C469.602 244.626 467.021 250.581 464.237 256.308C461.006 262.956 457.79 268.736 454.412 273.974C452.579 276.831 450.545 279.7 448.371 282.504C447.386 283.751 446.213 285.214 444.921 286.667C443.926 287.795 442.578 289.283 440.995 290.731C440.804 290.906 440.554 291 440.304 291Z" fill="#D0E3FF"/>
<path fill-rule="evenodd" clip-rule="evenodd" d="M372 281.221C373.465 280.193 375.024 279.244 376.665 278.591C377.484 278.241 378.319 277.889 379.166 277.629C380.016 277.364 380.876 277.145 381.752 276.902C385.239 276.14 388.905 275.796 392.534 276.124C399.813 276.692 407.004 279.403 412.992 283.754C415.981 285.927 418.722 288.46 420.99 291.358L421.85 292.432C422.133 292.795 422.372 293.188 422.637 293.563C423.154 294.316 423.654 295.093 424.133 295.849C424.927 297.242 425.695 298.65 426.42 300.093C427.885 302.966 429.189 305.961 430.335 309.075C430.89 310.646 431.428 312.232 431.879 313.881C432.335 315.524 432.745 317.204 433 319C431.321 318.279 429.797 317.438 428.322 316.561C426.839 315.69 425.444 314.756 424.067 313.803C421.342 311.88 418.778 309.834 416.378 307.667C415.169 306.589 414.003 305.477 412.863 304.35C411.798 303.432 410.875 302.454 409.814 301.595C407.807 299.787 405.684 298.163 403.539 296.583C399.23 293.432 394.613 290.721 389.504 288.22C386.946 286.955 384.247 285.834 381.365 284.662C378.47 283.498 375.414 282.529 372 281.221Z" fill="#D0E3FF"/>
<path fill-rule="evenodd" clip-rule="evenodd" d="M410.482 300.816C411.098 301.315 411.671 301.855 412.225 302.376C412.646 302.772 413.081 303.18 413.531 303.567C413.546 303.583 413.565 303.598 413.581 303.614C414.843 304.862 415.975 305.932 417.052 306.892C419.412 309.02 421.96 311.057 424.641 312.95C425.843 313.78 427.287 314.756 428.82 315.658C429.597 316.119 430.544 316.665 431.611 317.205C431.372 316.045 431.092 314.993 430.849 314.132C430.384 312.426 429.82 310.782 429.329 309.4C428.206 306.347 426.907 303.364 425.472 300.551C424.827 299.262 424.09 297.899 423.222 296.374C422.797 295.706 422.294 294.92 421.759 294.144C421.671 294.016 421.579 293.878 421.488 293.741C421.328 293.501 421.174 293.273 421.013 293.067L420.16 292.004C418.062 289.318 415.444 286.829 412.37 284.595C406.526 280.35 399.459 277.714 392.464 277.168C389.176 276.872 385.665 277.124 382.024 277.92C381.782 277.985 381.543 278.051 381.304 278.113C380.681 278.285 380.089 278.444 379.504 278.628C378.676 278.88 377.839 279.239 377.1 279.554C376.19 279.916 375.272 280.381 374.284 280.983C375.165 281.307 376.027 281.613 376.87 281.912C378.579 282.518 380.19 283.088 381.772 283.725C384.589 284.873 387.332 286.008 389.979 287.312C395.306 289.923 399.944 292.684 404.151 295.759C406.092 297.188 408.358 298.904 410.482 300.816ZM432.967 320C432.828 320 432.687 319.972 432.555 319.916C430.654 319.095 428.996 318.15 427.762 317.417C426.177 316.484 424.695 315.483 423.452 314.625C420.695 312.676 418.081 310.589 415.667 308.412C414.575 307.438 413.424 306.35 412.146 305.089C411.674 304.681 411.234 304.266 410.803 303.86C410.246 303.336 409.72 302.843 409.154 302.385C409.141 302.372 409.125 302.36 409.113 302.347C407.049 300.491 404.824 298.807 402.92 297.403C398.817 294.406 394.28 291.704 389.06 289.149C386.473 287.87 383.767 286.751 380.992 285.621C379.453 285.004 377.861 284.439 376.175 283.84C374.73 283.329 373.239 282.798 371.659 282.193C371.304 282.056 371.055 281.738 371.008 281.363C370.961 280.989 371.124 280.621 371.436 280.403C373.236 279.136 374.784 278.266 376.307 277.664C377.068 277.336 377.962 276.956 378.887 276.672C379.507 276.478 380.142 276.304 380.762 276.138C381.005 276.073 381.25 276.007 381.495 275.939C381.514 275.933 381.53 275.929 381.549 275.923C385.41 275.081 389.142 274.813 392.637 275.128C399.997 275.702 407.442 278.478 413.59 282.942C416.819 285.291 419.578 287.914 421.787 290.737L422.637 291.801C422.854 292.075 423.036 292.347 423.209 292.612C423.294 292.737 423.376 292.861 423.464 292.983C424.028 293.807 424.572 294.655 424.984 295.304C424.994 295.32 425.003 295.332 425.009 295.348C425.9 296.91 426.655 298.311 427.319 299.634C428.788 302.513 430.119 305.57 431.274 308.711C431.781 310.14 432.36 311.824 432.844 313.593C433.225 314.962 433.703 316.8 433.99 318.833C434.043 319.198 433.889 319.566 433.593 319.791C433.411 319.928 433.19 320 432.967 320Z" fill="white"/>
<path fill-rule="evenodd" clip-rule="evenodd" d="M438.253 318C438.024 316.641 437.95 315.304 438.033 314.029C438.058 313.381 438.12 312.743 438.203 312.109C438.29 311.48 438.419 310.872 438.534 310.243C439.093 307.801 439.946 305.426 441.151 303.285C442.328 301.121 443.777 299.121 445.454 297.355C447.113 295.566 448.995 294.005 451.022 292.691C453.036 291.348 455.233 290.31 457.494 289.518C458.631 289.124 459.787 288.803 460.964 288.572C461.254 288.505 461.548 288.454 461.841 288.399L462.636 288.29C463.167 288.233 463.692 288.169 464.23 288.13C466.368 287.947 468.574 287.957 470.848 288.159C471.991 288.278 473.146 288.422 474.333 288.669C475.519 288.903 476.727 289.201 478 289.682C477.336 290.909 476.607 291.948 475.856 292.928C475.108 293.922 474.326 294.81 473.532 295.672C471.935 297.365 470.267 298.865 468.534 300.169C468.101 300.506 467.662 300.813 467.224 301.128L466.565 301.579C466.377 301.72 466.192 301.868 466.003 301.996C465.629 302.269 465.252 302.528 464.879 302.785C464.514 303.06 464.14 303.317 463.769 303.564C462.299 304.599 460.822 305.544 459.357 306.516C457.881 307.464 456.388 308.391 454.862 309.33C453.317 310.246 451.748 311.186 450.07 312.118C448.389 313.045 446.641 314.009 444.71 314.984C442.757 315.952 440.774 317.019 438.253 318Z" fill="white"/>
<path fill-rule="evenodd" clip-rule="evenodd" d="M439.597 310.703C439.563 310.88 439.528 311.053 439.493 311.226C439.408 311.644 439.329 312.037 439.272 312.439C439.183 313.074 439.13 313.649 439.107 314.188C439.054 314.965 439.066 315.757 439.145 316.565C440.66 315.955 441.99 315.324 443.286 314.708C443.678 314.519 444.07 314.333 444.456 314.154C446.4 313.225 448.17 312.303 449.883 311.412C451.439 310.598 452.909 309.775 454.325 308.979L454.77 308.729C456.123 307.946 457.732 307.005 459.341 306.03C459.695 305.807 460.059 305.582 460.426 305.356C461.541 304.666 462.695 303.951 463.82 303.202C464.143 302.998 464.541 302.744 464.927 302.468C464.939 302.459 464.952 302.453 464.965 302.444C465.341 302.199 465.717 301.955 466.096 301.698C466.239 301.605 466.359 301.515 466.482 301.425L466.65 301.305C466.662 301.295 466.675 301.289 466.688 301.28L467.62 300.67C467.98 300.426 468.319 300.2 468.654 299.952C470.383 298.724 472.061 297.3 473.651 295.713C474.347 294.998 475.175 294.125 475.953 293.15C476.376 292.627 476.888 291.974 477.397 291.207C476.499 290.953 475.681 290.783 475.017 290.659C473.765 290.415 472.558 290.282 471.54 290.179C469.292 289.994 467.073 289.984 464.958 290.155C464.522 290.183 464.111 290.226 463.678 290.272L463.349 290.306L462.382 290.442C462.17 290.48 461.962 290.517 461.753 290.56C460.622 290.771 459.474 291.068 458.311 291.445C455.949 292.228 453.797 293.221 451.922 294.401C449.868 295.657 448.015 297.121 446.409 298.752C444.753 300.401 443.327 302.255 442.164 304.273C441.039 306.16 440.179 308.32 439.597 310.703ZM438.295 319C438.115 319 437.938 318.954 437.777 318.864C437.511 318.715 437.325 318.455 437.271 318.155C437.024 316.753 436.945 315.379 437.037 314.079C437.059 313.504 437.119 312.866 437.214 312.161C437.284 311.697 437.372 311.257 437.457 310.833C437.492 310.657 437.527 310.483 437.562 310.304C437.565 310.289 437.568 310.273 437.571 310.258C438.2 307.667 439.139 305.315 440.362 303.264C441.608 301.1 443.144 299.101 444.924 297.334C446.637 295.592 448.622 294.023 450.81 292.683C452.82 291.423 455.124 290.356 457.65 289.52C458.908 289.109 460.144 288.793 461.336 288.57C461.541 288.527 461.778 288.484 462.016 288.443L462.243 288.403C462.259 288.4 462.278 288.397 462.294 288.394L463.454 288.251C463.893 288.205 464.345 288.159 464.807 288.128C467.016 287.948 469.352 287.957 471.733 288.159C472.814 288.264 474.084 288.406 475.415 288.666C476.436 288.858 477.814 289.149 479.319 289.687C479.604 289.789 479.831 290.009 479.935 290.288C480.04 290.566 480.018 290.879 479.869 291.139C479.085 292.504 478.235 293.602 477.584 294.407C476.752 295.443 475.883 296.366 475.143 297.127C473.462 298.804 471.698 300.302 469.883 301.589C469.529 301.849 469.159 302.1 468.799 302.341L467.718 303.059C467.566 303.171 467.415 303.279 467.263 303.378C466.896 303.626 466.511 303.879 466.128 304.127C465.704 304.427 465.284 304.696 464.965 304.898C463.833 305.65 462.664 306.374 461.535 307.073C461.172 307.299 460.808 307.522 460.444 307.751C458.81 308.741 457.189 309.688 455.817 310.483L455.358 310.74C453.926 311.545 452.447 312.377 450.876 313.198C449.131 314.107 447.342 315.036 445.36 315.983C444.968 316.165 444.582 316.351 444.19 316.534C442.518 317.329 440.786 318.152 438.659 318.935C438.542 318.978 438.418 319 438.295 319Z" fill="#D0E3FF"/>
<path fill-rule="evenodd" clip-rule="evenodd" d="M430.633 320C430.223 318.206 430.074 316.431 430.021 314.674C429.962 312.915 430.033 311.174 430.182 309.439C430.503 305.985 431.162 302.578 432.17 299.264C434.164 292.633 437.457 286.29 442.135 280.726C444.452 277.94 447.183 275.384 450.266 273.221C453.354 271.072 456.763 269.241 460.489 268.194C464.184 267.109 468.085 266.754 471.801 267.168C472.734 267.336 473.652 267.488 474.551 267.684L475.223 267.839L475.885 268.051C476.324 268.187 476.759 268.349 477.188 268.508C477.618 268.669 478.041 268.815 478.457 268.993C478.874 269.161 479.282 269.4 479.683 269.608C480.485 270.059 481.263 270.504 482 271.032C480.274 271.788 478.684 272.21 477.173 272.916C475.661 273.494 474.258 274.225 472.921 274.862C470.265 276.28 467.954 277.825 465.802 279.457C463.649 281.086 461.699 282.939 459.786 284.835C457.88 286.747 456.026 288.771 454.219 290.935C452.402 293.086 450.605 295.328 448.785 297.647L443.271 304.816C441.395 307.266 439.432 309.75 437.377 312.287C435.29 314.818 433.162 317.385 430.633 320Z" fill="white"/>
<path fill-rule="evenodd" clip-rule="evenodd" d="M468.736 267.078C466.073 267.078 463.366 267.474 460.771 268.249C457.492 269.188 454.251 270.814 450.854 273.218C447.923 275.315 445.254 277.82 442.929 280.667C438.482 286.057 435.2 292.279 433.167 299.162C432.188 302.426 431.536 305.842 431.219 309.315C431.06 311.207 431.007 312.909 431.063 314.509C431.097 315.708 431.175 316.771 431.303 317.748C433.242 315.597 434.948 313.497 436.605 311.454C438.665 308.866 440.638 306.317 442.472 303.884L447.982 296.587C450.068 293.879 451.799 291.7 453.439 289.72C455.242 287.525 457.135 285.415 459.062 283.451C460.92 281.575 462.943 279.607 465.178 277.887C467.602 276.011 469.973 274.455 472.425 273.12C472.441 273.114 472.453 273.107 472.469 273.098C472.776 272.949 473.09 272.794 473.407 272.639C474.47 272.111 475.57 271.567 476.757 271.102C477.578 270.713 478.392 270.415 479.256 270.099C479.411 270.042 479.57 269.982 479.728 269.925C479.551 269.818 479.368 269.713 479.178 269.606C479.066 269.546 478.955 269.486 478.843 269.425C478.566 269.274 478.305 269.131 478.053 269.027C477.774 268.904 477.5 268.802 477.208 268.695C477.077 268.644 476.944 268.594 476.81 268.543L476.742 268.518C476.356 268.372 475.956 268.223 475.567 268.1L474.936 267.894L474.308 267.746C473.625 267.594 472.925 267.471 472.186 267.338L471.642 267.237C470.685 267.132 469.712 267.078 468.736 267.078ZM430.653 321C430.56 321 430.47 320.987 430.38 320.962C430.019 320.861 429.742 320.563 429.659 320.193C429.289 318.552 429.087 316.765 429.021 314.576C428.966 312.896 429.018 311.115 429.186 309.132C429.516 305.51 430.196 301.955 431.212 298.561C433.326 291.409 436.741 284.94 441.363 279.335C443.802 276.353 446.602 273.721 449.685 271.516C453.275 268.973 456.718 267.252 460.208 266.253C464.012 265.114 468.059 264.741 471.9 265.177C471.922 265.181 471.943 265.184 471.968 265.187L472.54 265.291C473.267 265.421 474.019 265.557 474.753 265.721L475.433 265.88C475.461 265.886 475.489 265.892 475.517 265.902L476.179 266.12C476.608 266.256 477.037 266.414 477.447 266.569L477.525 266.598C477.659 266.648 477.786 266.696 477.91 266.743C478.215 266.857 478.526 266.974 478.84 267.11C479.175 267.249 479.495 267.423 479.806 267.594C479.915 267.654 480.024 267.711 480.132 267.768C480.142 267.774 480.154 267.781 480.163 267.787C481.027 268.284 481.808 268.739 482.572 269.293C482.87 269.511 483.032 269.875 482.995 270.248C482.957 270.618 482.724 270.941 482.389 271.089C481.534 271.472 480.726 271.766 479.946 272.054C479.119 272.354 478.336 272.642 477.587 273C477.565 273.009 477.544 273.019 477.519 273.028C476.403 273.462 475.334 273.993 474.299 274.505C473.985 274.66 473.674 274.815 473.367 274.964C471.017 276.242 468.742 277.738 466.408 279.541C464.27 281.189 462.306 283.103 460.5 284.925C458.62 286.842 456.768 288.904 455.003 291.058C453.374 293.019 451.659 295.179 449.595 297.859L444.091 305.146C442.248 307.595 440.259 310.16 438.183 312.77C436.21 315.202 433.978 317.954 431.387 320.684C431.191 320.889 430.927 321 430.653 321Z" fill="#D0E3FF"/>
<path fill-rule="evenodd" clip-rule="evenodd" d="M467.518 367H427.479L416 304H479L467.518 367Z" fill="white"/>
<path fill-rule="evenodd" clip-rule="evenodd" d="M404.352 327.881L400 304H463L451.518 367H411.479L404.352 327.881Z" fill="white"/>
<path fill-rule="evenodd" clip-rule="evenodd" d="M451.509 368H411.491C411.001 368 410.579 367.649 410.489 367.165L405.466 339.584C405.363 339.029 405.73 338.499 406.285 338.399C406.837 338.3 407.368 338.666 407.467 339.218L412.341 365.962H450.659L461.76 305.035H401.24L405.37 327.702C405.472 328.257 405.103 328.785 404.551 328.887C403.998 328.986 403.468 328.62 403.365 328.068L399.016 304.201C398.963 303.903 399.044 303.596 399.236 303.366C399.428 303.133 399.717 303 400.018 303H462.982C463.283 303 463.568 303.133 463.764 303.366C463.956 303.596 464.037 303.903 463.984 304.201L452.511 367.165C452.421 367.649 451.999 368 451.509 368Z" fill="#78A9FF"/>
<path fill-rule="evenodd" clip-rule="evenodd" d="M406.85 8.6261C405.632 8.58503 404.374 8.56108 403.109 8.55548L403.115 7C404.396 7.00591 405.67 7.03018 406.903 7.07155L406.85 8.6261ZM395.619 8.71476L395.55 7.16084C396.83 7.10328 398.101 7.06035 399.331 7.0336L399.366 8.58877C398.148 8.61521 396.89 8.65752 395.619 8.71476ZM414.309 9.12354C413.088 8.99972 411.836 8.89489 410.584 8.81244L410.687 7.26008C411.958 7.34407 413.229 7.45047 414.469 7.57615L414.309 9.12354ZM388.138 9.20163L388.006 7.65143C389.283 7.54535 390.551 7.45078 391.775 7.37083L391.878 8.92288C390.664 9.00221 389.405 9.09616 388.138 9.20163ZM380.663 9.92648L380.49 8.38033C381.78 8.23941 383.045 8.10843 384.243 7.99146L384.397 9.53948C383.205 9.65583 381.946 9.78618 380.663 9.92648ZM421.692 10.1816C420.475 9.94981 419.235 9.74449 418.015 9.5709L418.237 8.03128C419.483 8.2083 420.745 8.41766 421.987 8.6541L421.692 10.1816ZM373.195 10.805L373 9.26167C374.246 9.10674 375.495 8.95493 376.744 8.80747L376.929 10.3521C375.683 10.4989 374.437 10.6507 373.195 10.805ZM428.948 11.9153C427.761 11.5728 426.55 11.2527 425.339 10.9634L425.706 9.45144C426.939 9.74604 428.179 10.0727 429.387 10.4221L428.948 11.9153ZM435.992 14.3297C434.853 13.8749 433.68 13.44 432.5 13.0368L433.011 11.5666C434.216 11.9778 435.415 12.4224 436.579 12.8869L435.992 14.3297ZM442.736 17.4478C441.66 16.8761 440.539 16.3211 439.41 15.7981L440.072 14.3882C441.23 14.9233 442.375 15.4917 443.476 16.0772L442.736 17.4478ZM449.05 21.3191C448.061 20.6201 447.019 19.9357 445.956 19.2852L446.778 17.9615C447.873 18.63 448.943 19.3334 449.96 20.0517L449.05 21.3191ZM454.758 25.9993C453.885 25.1646 452.956 24.3424 451.993 23.5553L452.994 22.3557C453.986 23.1686 454.946 24.0182 455.846 24.8806L454.758 25.9993ZM459.603 31.5119C458.89 30.5391 458.118 29.5769 457.303 28.6513L458.486 27.6278C459.333 28.5891 460.136 29.589 460.874 30.6L459.603 31.5119ZM463.302 37.8144C462.803 36.7159 462.232 35.6252 461.614 34.5715L462.97 33.7879C463.616 34.887 464.209 36.0262 464.733 37.1726L463.302 37.8144ZM465.609 44.7247C465.348 43.5388 465.022 42.3561 464.642 41.209L466.13 40.7206C466.531 41.9193 466.87 43.1556 467.143 44.3947L465.609 44.7247ZM466.431 51.9661C466.412 50.7398 466.337 49.5141 466.202 48.3229L467.762 48.1502C467.903 49.3915 467.981 50.6682 468 51.945L466.431 51.9661ZM467.467 59.5055L465.916 59.2781C466.095 58.0599 466.233 56.8326 466.318 55.6299L467.884 55.7394C467.793 56.9813 467.655 58.2484 467.467 59.5055ZM465.822 66.8922L464.316 66.4563C464.667 65.268 464.978 64.0687 465.242 62.8921L466.773 63.2284C466.503 64.4386 466.183 65.6711 465.822 66.8922ZM463.258 74.0026L461.812 73.3978C462.301 72.249 462.756 71.0923 463.167 69.9605L464.642 70.4857C464.225 71.6445 463.757 72.8276 463.258 74.0026ZM459.967 80.7982L458.583 80.0624C459.182 78.9593 459.75 77.8499 460.277 76.7658L461.693 77.4399C461.156 78.5449 460.575 79.6748 459.967 80.7982ZM456.126 87.2867L454.802 86.4524C455.479 85.3931 456.135 84.3294 456.753 83.2904L458.106 84.0787C457.478 85.1333 456.813 86.2125 456.126 87.2867ZM451.871 93.503L450.597 92.5949C451.34 91.5717 452.062 90.5479 452.743 89.5524L454.042 90.4266C453.352 91.4336 452.621 92.4686 451.871 93.503ZM447.317 99.4916L446.084 98.5306C446.869 97.5398 447.641 96.549 448.375 95.5858L449.627 96.5228C448.886 97.4941 448.108 98.493 447.317 99.4916ZM442.554 105.305L441.349 104.308C442.18 103.322 442.987 102.355 443.74 101.435L444.958 102.416C444.198 103.342 443.389 104.314 442.554 105.305ZM437.662 111L436.472 109.982C437.285 109.051 438.104 108.108 438.926 107.155L440.119 108.164C439.297 109.12 438.474 110.065 437.662 111Z" fill="#D0E3FF"/>
<path fill-rule="evenodd" clip-rule="evenodd" d="M307 15.9451L307.209 15.9869L307.589 16.0612C307.602 16.0571 308.656 16.2591 308.656 16.2591L344.018 23L350 10L343.8 10.8421L308.032 15.6932C308.016 15.6938 307.196 15.8062 307.196 15.8062L307 15.9451Z" fill="#78A9FF"/>
<path fill-rule="evenodd" clip-rule="evenodd" d="M307 15.9668L307.028 16L343 10.6852L340.807 4L307 15.9668Z" fill="#78A9FF"/>
<path fill-rule="evenodd" clip-rule="evenodd" d="M307.755 16.3558L307 16.468L307.034 16.5112L308.798 16.5632L345.9 17.6943L356 18L349.198 10L343.146 10.9311L307.767 16.3515L307.755 16.3558Z" fill="#D0E3FF"/>
<path fill-rule="evenodd" clip-rule="evenodd" d="M307 15.9697L307.031 16L307.445 15.8509L308.237 15.5603C308.253 15.5597 341 4.58818 341 4.58818L340.907 4.48608L333.7 0L307.432 15.6717L307.239 15.8094L307 15.9697Z" fill="#D0E3FF"/>
</svg>
