<svg width="220" height="220" viewBox="0 0 220 220" fill="none" xmlns="http://www.w3.org/2000/svg">
<rect width="220" height="220" fill="#F4F5F7"/>
<mask id="mask0" mask-type="alpha" maskUnits="userSpaceOnUse" x="0" y="0" width="220" height="220">
<rect width="220" height="220" fill="white"/>
</mask>
<g mask="url(#mask0)">
<rect opacity="0.22" x="135" y="100" width="85" height="120" fill="#D8DDE2"/>
<path d="M91.9881 105.044C91.8542 108.867 113.981 109.753 114.119 105.819L115.205 74.8182L93.0742 74.0428L91.9881 105.044Z" fill="#C9DCFF"/>
<path d="M100.131 78.412C102.154 78.4829 114.861 84.6294 114.749 87.8152L115.337 71.036C112.12 70.9233 100.131 78.412 100.131 78.412Z" fill="#78A9FF"/>
<path d="M92.4011 40.2907C81.2581 43.9099 75.1588 55.877 78.778 67.0201C82.3972 78.1631 94.3643 84.2624 105.507 80.6432C116.65 77.024 122.75 65.0569 119.13 53.9138C115.511 42.7708 103.544 36.6715 92.4011 40.2907Z" fill="#C9DCFF"/>
<path d="M86.8301 58.8763C86.257 60.7199 82.9142 68.8243 89.4637 69.5348" stroke="#1F161E" stroke-width="0.999613" stroke-linecap="round"/>
<path d="M97.7194 73.7293C97.7194 73.7293 106.649 73.5427 106.7 66.1081" stroke="black" stroke-width="0.999613" stroke-linecap="round"/>
<path d="M113.729 52.5378C110.725 53.5132 109.081 56.7388 110.057 59.7422C111.032 62.7456 114.258 64.3895 117.261 63.414C120.264 62.4386 121.908 59.213 120.933 56.2096C119.957 53.2062 116.732 51.5623 113.729 52.5378Z" fill="#78A9FF"/>
<path d="M115.035 73.6355C115.035 73.6355 127.809 64.2908 128.508 55.1829C129.206 46.075 124.803 41.0179 115.495 34.3112C106.186 27.6045 97.5546 29.6008 87.058 29.8073C76.5615 30.0138 76.2434 13.1454 63.4796 18.2252C56.1674 21.1352 60.0883 29.0125 65.0445 35.5513C66.0003 36.8164 57.5734 37.8914 58.666 39.1245C60.7512 41.4797 62.462 44.5623 67.7527 47.5953C73.0434 50.6283 77.9259 50.7344 79.8046 51.2486C81.5184 47.8018 84.199 44.9288 87.519 42.9806C87.519 42.9806 95.0176 38.542 102.745 41.6349C110.472 44.7278 100.32 56.9441 106.5 55.6832C112.679 54.4223 118.536 56.3999 114.597 61.1948C114.365 61.4811 115.035 73.6355 115.035 73.6355Z" fill="#0B1E57"/>
<path d="M155.987 101.277C155.987 101.277 206.994 143.145 204 186.262C201.006 229.379 173.923 254.288 152.146 266.953L137.622 254.177L152.146 234.135C152.146 234.135 95.3861 235.761 72.2461 235.035C70.4187 247.354 67.8886 259.559 64.6681 271.59C64.6681 271.59 50.8621 275.79 43.5811 266.924C38.7711 261.069 40.3161 243.79 41.9191 232.736C38.0621 235.436 33.1371 234.736 26.6681 227.923C14.6681 209.257 15.2351 198.194 15.0011 182.257C21.6671 142.923 41.7451 112.867 62.7361 104.257C84.1051 97.609 93.9471 94.057 107.754 94.057C132.881 94.065 155.987 101.277 155.987 101.277Z" fill="#51507D"/>
<path d="M131.236 110.958L138.869 128.058C138.869 128.058 120.269 122.52 118.925 130.432C118.238 134.477 131.236 145.632 131.236 145.632C120.218 153.716 112.21 165.242 108.478 178.388C102.078 200.588 105.629 234.422 105.629 234.422" stroke="#F2F2F2" stroke-linecap="round" stroke-linejoin="round"/>
<path d="M72.1503 108.452L61.1284 123.588C61.1284 123.588 80.4711 122.041 80.1398 130.058C79.9703 134.157 64.9381 142.363 64.9381 142.363C64.9381 142.363 78.4923 154.719 80.1348 177.762C81.7774 200.805 72.1355 236.004 72.1355 236.004" stroke="#F2F2F2" stroke-width="0.999874" stroke-linecap="round" stroke-linejoin="round"/>
<path d="M139.344 250.566C142.193 220.175 159.98 193.894 171.358 186.11C158.497 179.97 152.173 163.482 151.216 155.594" stroke="#F2F2F2" stroke-linecap="round" stroke-linejoin="round"/>
<path d="M51.3082 237.245C52.4284 237.768 53.8078 239.163 56.6292 239.726C58.7497 240.15 65.0966 240.375 66.1893 239.728C67.282 239.081 57.3573 237.278 59.2502 237.281C61.7875 237.287 70.9614 238.793 71.6672 237.28C71.9356 236.704 60.1587 236.064 60.6565 234.258C61.0095 232.997 72.3153 235.241 71.667 234.258C71.0798 233.364 64.0609 232.698 62.7676 230.997C62.632 230.814 74.0728 231.532 73.3334 230.997C72.6397 230.495 61.0446 227.094 61.0446 227.094C61.0446 227.094 67.1098 226.391 66.187 225.988C64.8351 225.401 61.9558 222.359 55.7092 224.606C52.2358 225.855 47.9913 220.15 44.3339 219.262C41.9478 218.681 39.8278 222.745 39.1376 224.225C37.5832 227.556 43.0318 233.386 51.3082 237.245Z" fill="#FFC8B3"/>
<path d="M41.5 179.262C41.5 179.262 54 189.929 48.667 212.929" stroke="#F2F2F2" stroke-linecap="round"/>
<path fill-rule="evenodd" clip-rule="evenodd" d="M123.005 95.262C123.084 94.84 119.338 82.595 117.672 85.595C116.006 88.595 115.917 91.545 112.699 95.262C110.532 97.6167 107.819 99.4024 104.799 100.462L112.699 119.595C112.595 119.595 121.805 101.662 123.005 95.262Z" stroke="black" stroke-linecap="round" stroke-linejoin="round"/>
<path d="M104.195 100.862L98.0015 116.595L90.9945 100.862L86.3945 112.862V97.929L90.9945 85.962" stroke="black" stroke-linecap="round" stroke-linejoin="round"/>
<path d="M92.333 103.929L103 105.262L99.25 118.262L98 213.595L90.333 220.595L83.5 211.012L94.5 117.012L92.333 103.929Z" fill="#A5D1FE"/>
<g opacity="0.56">
<path opacity="0.69" d="M72.7109 136.082L94.3109 150.758" stroke="#FF8C19" stroke-width="5" stroke-linecap="round" stroke-linejoin="round"/>
<path opacity="0.69" d="M103.188 132.72L96.7311 142.064" stroke="#FF8C19" stroke-width="5" stroke-linecap="round" stroke-linejoin="round"/>
<path opacity="0.69" d="M102.156 166.647L93.8016 158.953" stroke="#FF8C19" stroke-width="5" stroke-linecap="round" stroke-linejoin="round"/>
<path opacity="0.69" d="M88.1836 109.839L97.7778 103.76" stroke="#FF8C19" stroke-width="5" stroke-linecap="round" stroke-linejoin="round"/>
<path opacity="0.69" d="M96.0176 206.307L91.8814 195.729" stroke="#FF8C19" stroke-width="5" stroke-linecap="round" stroke-linejoin="round"/>
<path opacity="0.69" d="M91.8301 170.125L94.8771 179.646L102.877 175.076L105.543 184.976L115.822 179.646" stroke="#FF8C19" stroke-width="5" stroke-linecap="round" stroke-linejoin="round"/>
<g opacity="0.69">
<path fill-rule="evenodd" clip-rule="evenodd" d="M89.5133 136.778C92.1968 136.778 94.3723 134.603 94.3723 131.919C94.3723 129.236 92.1968 127.06 89.5133 127.06C86.8297 127.06 84.6543 129.236 84.6543 131.919C84.6543 134.603 86.8297 136.778 89.5133 136.778Z" stroke="#FF8C19" stroke-width="5"/>
</g>
<g opacity="0.69">
<path fill-rule="evenodd" clip-rule="evenodd" d="M99.5935 118.907C100.922 118.907 101.999 117.83 101.999 116.501C101.999 115.172 100.922 114.095 99.5935 114.095C98.2647 114.095 97.1875 115.172 97.1875 116.501C97.1875 117.83 98.2647 118.907 99.5935 118.907Z" stroke="#FF8C19" stroke-width="5"/>
</g>
<g opacity="0.69">
<path fill-rule="evenodd" clip-rule="evenodd" d="M87.4666 181.987C85.5069 180.511 82.7213 180.903 81.2447 182.862C79.7682 184.822 80.1599 187.608 82.1196 189.084C84.0793 190.561 86.8649 190.169 88.3415 188.209C89.818 186.25 89.4263 183.464 87.4666 181.987Z" stroke="#FF8C19" stroke-width="5.00201"/>
</g>
<g opacity="0.69">
<path fill-rule="evenodd" clip-rule="evenodd" d="M87.6228 209.186C85.6631 207.71 82.8775 208.102 81.401 210.061C79.9245 212.021 80.3162 214.807 82.2759 216.283C84.2356 217.76 87.0212 217.368 88.4977 215.408C89.9742 213.448 89.5825 210.663 87.6228 209.186Z" stroke="#FF8C19" stroke-width="5.00201"/>
</g>
</g>
<path d="M155.987 101.277C155.987 101.277 206.994 143.145 204 186.262C202.172 212.577 191.368 232.117 178.274 246.224L181.215 264.595L161.428 276.783C161.22 271.885 160.625 267.012 159.651 262.208C157.11 263.95 154.594 265.529 152.146 266.953L138.246 254.723C136.706 255.991 134.999 257.043 133.174 257.848C121.357 263.071 109.548 273.595 109.548 273.595L105.659 235.095C92.9791 235.254 80.4821 235.295 72.2451 235.037C70.4177 247.356 67.8876 259.561 64.6671 271.592C64.6671 271.592 50.8611 275.792 43.5801 266.926C38.7701 261.071 40.3151 243.792 41.9181 232.738C38.0611 235.438 33.1361 234.738 26.6671 227.925C14.6671 209.259 15.2341 198.196 15.0001 182.259C21.6661 142.925 41.7441 112.869 62.7351 104.259C84.1041 97.611 93.9461 94.059 107.753 94.059C132.881 94.065 155.987 101.277 155.987 101.277Z" fill="#78A9FF"/>
<path d="M85.9991 96.39C85.9991 96.39 90.1171 124.221 87.6611 146.09C83.2161 185.675 72.7031 235.364 72.7031 235.364H104.677C104.677 235.364 100.047 188.709 104.677 153.688C109.307 118.667 123.355 94.805 123.355 94.805C117.232 93.4059 110.955 92.8009 104.677 93.005C98.344 93.43 92.0786 94.5655 85.9991 96.39Z" fill="#F2F2F2"/>
<path d="M131.236 110.958L138.869 128.058C138.869 128.058 120.269 122.52 118.925 130.432C118.238 134.477 131.236 145.632 131.236 145.632C120.218 153.716 112.21 165.242 108.478 178.388C102.078 200.588 105.629 234.422 105.629 234.422" stroke="#F2F2F2" stroke-linecap="round" stroke-linejoin="round"/>
<path d="M72.1503 108.452L61.1284 123.588C61.1284 123.588 80.4711 122.041 80.1398 130.058C79.9703 134.157 64.9381 142.363 64.9381 142.363C64.9381 142.363 78.4923 154.719 80.1348 177.762C81.7774 200.805 72.1355 236.004 72.1355 236.004" stroke="#F2F2F2" stroke-width="0.999874" stroke-linecap="round" stroke-linejoin="round"/>
<path d="M139.344 250.566C142.193 220.175 159.98 193.894 171.358 186.11C158.497 179.97 152.173 163.482 151.216 155.594" stroke="#F2F2F2" stroke-linecap="round" stroke-linejoin="round"/>
<path d="M51.309 237.245C52.4291 237.768 61.8541 239.06 64.2147 238.595C66.5754 238.13 67.2927 237.432 70.8145 235.861C74.3363 234.29 74.0731 231.533 73.3345 230.996C72.6408 230.494 58.8148 227.261 58.8148 227.261C58.8148 227.261 67.1136 226.389 66.1868 225.987C64.8349 225.401 58.6598 221.981 52.4148 224.224C48.9414 225.473 48.9911 223.149 45.3337 222.261C42.9476 221.68 39.8276 222.744 39.1366 224.226C37.5839 227.556 43.0325 233.386 51.309 237.245Z" fill="#FFC8B3"/>
<path d="M41.5 179.262C41.5 179.262 54 189.929 48.667 212.929" stroke="#F2F2F2" stroke-linecap="round"/>
<path fill-rule="evenodd" clip-rule="evenodd" d="M123.005 95.262C123.084 94.84 119.338 82.595 117.672 85.595C116.006 88.595 115.917 91.545 112.699 95.262C110.532 97.6167 107.819 99.4024 104.799 100.462L112.699 119.595C112.595 119.595 121.805 101.662 123.005 95.262Z" stroke="black" stroke-linecap="round" stroke-linejoin="round"/>
<path d="M104.195 100.862L98.0015 116.595L90.9945 100.862L86.3945 112.862V97.929L90.9945 85.962" stroke="black" stroke-linecap="round" stroke-linejoin="round"/>
<path d="M92.333 103.929L103 105.262L99.25 118.262L98 213.595L90.333 220.595L83.5 211.012L94.5 117.012L92.333 103.929Z" fill="#1063FE"/>
</g>
</svg>
