<svg width="220" height="220" viewBox="0 0 220 220" fill="none" xmlns="http://www.w3.org/2000/svg">
<rect width="220" height="220" fill="#F4F5F7"/>
<mask id="mask0" mask-type="alpha" maskUnits="userSpaceOnUse" x="0" y="0" width="220" height="220">
<rect width="220" height="220" fill="white"/>
</mask>
<g mask="url(#mask0)">
<rect opacity="0.22" x="135" y="100" width="85" height="120" fill="#D8DDE2"/>
<path d="M109.17 94.252C109.105 97.9704 130.657 98.4594 130.724 94.6328L131.257 64.4843L109.703 64.1035L109.17 94.252Z" fill="#C9DCFF"/>
<path d="M116.647 68.2307C118.618 68.2656 131.09 74.0254 131.035 77.1241L131.324 60.8058C128.193 60.7505 116.647 68.2307 116.647 68.2307Z" fill="#78A9FF"/>
<path d="M108.48 31.3125C97.6949 35.0175 91.9608 46.7505 95.672 57.519C99.3832 68.2874 111.134 74.0135 121.919 70.3085C132.704 66.6035 138.438 54.8705 134.727 44.102C131.015 33.3336 119.264 27.6075 108.48 31.3125Z" fill="#C9DCFF"/>
<path d="M118.902 64.0677C118.902 64.0677 116.055 66.4767 110.678 65.3431" stroke="black" stroke-width="1.00045" stroke-linecap="round"/>
<path d="M134.701 41.8444C131.794 42.8431 130.249 46.0057 131.249 48.9083C132.249 51.8109 135.417 53.3544 138.324 52.3557C141.231 51.357 142.777 48.1944 141.776 45.2918C140.776 42.3892 137.608 40.8458 134.701 41.8444Z" fill="#C9DCFF"/>
<path d="M96.3825 56.5369C96.3821 56.5369 96.3823 56.5369 96.3819 56.5369C94.113 56.5353 92.4341 56.0748 91.3917 55.1683C88.7814 52.8984 89.4409 47.0889 89.6721 45.5324L101.134 45.54L101.127 55.9861C100.325 56.1645 98.4004 56.5382 96.3825 56.5369Z" fill="#C9DCFF"/>
<path fill-rule="evenodd" clip-rule="evenodd" d="M102.002 45.0041L89.3202 44.9957C89.3202 44.9957 87.8698 52.6395 91.1421 55.4731C92.5054 56.6536 94.617 56.9992 96.6162 57.0006C99.4156 57.0024 101.995 56.3297 101.995 56.3297L102.002 45.0041ZM90.0045 49.2116C89.9749 47.9168 90.0949 46.7315 90.1945 45.9963L101.002 46.0035L100.995 55.5588C100.043 55.7411 98.3778 56.0017 96.6495 56.0006C94.4605 55.9991 92.8596 55.5919 91.8914 54.7902C90.7183 53.819 90.0659 51.89 90.0045 49.2116Z" fill="#78A9FF"/>
<rect x="100.891" y="45.0199" width="6" height="2" transform="rotate(0.0382365 100.891 45.0199)" fill="#78A9FF"/>
<path d="M104.499 51.5188C103.972 53.3168 100.853 61.2484 107.243 61.8331" stroke="#1F161E" stroke-width="1.00045" stroke-linecap="round"/>
<path d="M128.258 58.8121C128.258 58.8121 145.848 50.5201 145.597 37.7041C145.346 24.8881 135.877 16.563 111 20.5C105.137 21.338 90.264 20.7011 70.161 14.0001C69.7967 17.6742 70.0516 21.3833 70.915 24.9731C71.25 26.2291 79 37.5 94.671 40.3851C109.497 40.3011 117.035 29.4961 120.889 35.8621C124.743 42.2281 123.653 47.0861 123.653 47.0861C124.667 45.2461 125.874 44.5194 127.253 42.9351C128.928 41.2601 129.26 40.9671 130.353 41.3851C134.62 43.0601 128.258 58.8121 128.258 58.8121Z" fill="#0B1E57"/>
<path d="M112.409 56.5363C109.779 56.5363 107.286 56.1019 106.316 55.9105V44.5363H120.973C121.258 46.2026 122.088 52.5362 118.82 55.0071C117.478 56.0218 115.321 56.5363 112.409 56.5363Z" fill="#C9DCFF"/>
<path fill-rule="evenodd" clip-rule="evenodd" d="M121.609 45H106V56.3256C106 56.3256 109.174 57 112.619 57C115.08 57 117.679 56.6558 119.358 55.4762C123.388 52.6448 121.609 45 121.609 45ZM107 55.5186V46H120.763C120.884 46.7279 121.032 47.917 120.994 49.216C120.94 51.0555 120.5 53.5036 118.707 54.7205C117.473 55.5576 115.359 56 112.592 56C110.328 56 108.157 55.7064 107 55.5186Z" fill="#78A9FF"/>
<path d="M163.346 87.4156C135.513 77.2649 104.969 75.6451 74.6434 90.2321C68.999 93.1575 63.6142 96.5591 58.5477 100.4C41.1703 113.152 40.5722 156.411 34.0089 182.931C29.8136 218.928 31.0119 275.712 31.0119 275.712L48.3946 273.575L58.5466 185.603L60.3826 158.89L48.3946 251.849C48.3946 251.849 173.003 253.721 182.757 251.849C183.291 245.484 182.757 180.058 182.757 180.058C182.757 180.058 195.056 153.74 196.444 129.685C197.083 118.629 185.526 95.5019 163.346 87.4156Z" fill="#78A9FF"/>
<path d="M68.8589 130.389C68.8589 130.389 43.9356 192.015 52.2355 227.809" stroke="white" stroke-linecap="round"/>
<path d="M19.9302 186.271C17.8236 185.129 14.2654 184.054 9.91566 180.848C6.64538 178.439 2.62087 173.596 2.04142 171.98C1.46198 170.364 8.89909 176.744 6.45943 174.429C3.17952 171.322 0.0255605 168.895 -0.361944 165.569C-0.749448 162.244 2.93692 162.185 8.11082 163.263C13.2847 164.341 20.3337 169.882 20.3337 169.882C20.3337 169.882 13.4187 162.143 15.1229 163.1C17.6117 164.498 25.1927 166.686 30.3754 175.32C32.3698 178.638 37.2336 180.849 37.2336 180.849L37.233 194.953C37.233 194.953 26.3627 189.754 19.9302 186.271Z" fill="#C9DCFF"/>
<path fill-rule="evenodd" clip-rule="evenodd" d="M143.938 82.3698C144.032 81.9189 139.591 68.8352 137.615 72.0407C135.639 75.2462 135.535 78.3982 131.718 82.3698C129.07 84.9247 125.863 86.827 122.352 87.926L131.718 108.369C131.601 108.369 142.517 89.2082 143.938 82.3698Z" stroke="black" stroke-linecap="round" stroke-linejoin="round"/>
<path d="M121.414 88.3534L114.071 105.164L105.764 88.3534L100.311 101.175V85.2195L105.764 72.4329" stroke="black" stroke-linecap="round" stroke-linejoin="round"/>
<path d="M108.271 86.4945L120.916 87.9188L116.47 101.809L102.539 201.179L93.45 208.659L85.3477 198.419L110.838 100.474L108.271 86.4945Z" fill="white"/>
<path d="M185.444 170.644C185.444 170.644 178.639 186.383 161.8 211.931C98.9279 222.591 26.787 194.151 26.787 194.151C26.787 194.151 20.5024 181.845 29.3058 180.795C49.1161 178.432 88.1669 177.66 113.933 176.842C113.103 171.835 129.142 144.534 129.142 144.534L185.444 170.644Z" fill="#78A9FF"/>
<path d="M182.566 180.494L165.222 211.87C165.222 211.87 141.38 217.293 115.821 214.096C90.0265 210.869 66.0253 208.042 47.6479 197.356" stroke="white" stroke-linecap="round" stroke-linejoin="round"/>
<path d="M125.988 157.536C123.781 163.303 122.295 169.32 121.564 175.452C121.564 175.452 111.881 176.342 90.1445 178.479" stroke="white" stroke-linecap="round"/>
<path fill-rule="evenodd" clip-rule="evenodd" d="M39.092 193.617C40.4339 193.617 41.5218 192.66 41.5218 191.48C41.5218 190.299 40.4339 189.343 39.092 189.343C37.75 189.343 36.6621 190.299 36.6621 191.48C36.6621 192.66 37.75 193.617 39.092 193.617Z" stroke="white"/>
</g>
</svg>
