<svg width="220" height="220" viewBox="0 0 220 220" fill="none" xmlns="http://www.w3.org/2000/svg">
<rect width="220" height="220" fill="#F4F5F7"/>
<mask id="mask0" mask-type="alpha" maskUnits="userSpaceOnUse" x="0" y="0" width="220" height="220">
<rect width="220" height="220" fill="white"/>
</mask>
<g mask="url(#mask0)">
<rect opacity="0.22" x="135" y="100" width="85" height="120" fill="#D8DDE2"/>
<path d="M102.918 105.779C102.852 109.529 124.556 110.022 124.624 106.163L125.161 75.7537L103.455 75.3702L102.918 105.779Z" fill="#C9DCFF"/>
<path d="M110.447 79.5332C112.432 79.5683 124.992 85.3776 124.937 88.5025L125.227 72.0436C122.072 71.9879 110.447 79.5332 110.447 79.5332Z" fill="#78A9FF"/>
<path d="M102.221 42.295C91.3593 46.0324 85.584 57.8672 89.3213 68.7289C93.0587 79.5905 104.894 85.3658 115.755 81.6284C126.617 77.8911 132.392 66.0562 128.655 55.1946C124.917 44.333 113.083 38.5577 102.221 42.295Z" fill="#C9DCFF"/>
<path d="M90.991 64.3947C90.4608 66.2118 87.3232 74.2077 93.7541 74.7987" stroke="#1F161E" stroke-width="1.00045" stroke-linecap="round"/>
<path d="M108 74.9858C108 74.9858 116.752 74.6499 116.677 67.3595" stroke="black" stroke-width="1.00045" stroke-linecap="round"/>
<path d="M128.195 70.0506C128.195 70.0506 139.463 53.1497 135.524 44.1431C131.586 35.1366 124.849 32.5528 112.616 30.8812C100.382 29.2096 99.0331 15.4193 78.0772 16.3577C57.1212 17.2962 55.0458 36.0213 57.0953 43.4465C59.1447 50.8717 69.3762 64.1915 88.8755 57.114C97.912 54.2245 95.2932 45.2429 104.203 44.2784C113.113 43.3139 109.632 60.0546 114.866 55.7323C120.101 51.41 124.537 49.0437 123.219 55.5887C123.14 55.982 128.195 70.0506 128.195 70.0506Z" fill="#0B1E57"/>
<path d="M128.63 52.9167C125.702 53.9241 124.145 57.1144 125.153 60.0423C126.16 62.9703 129.351 64.5271 132.279 63.5196C135.207 62.5121 136.763 59.3219 135.756 56.394C134.748 53.466 131.558 51.9092 128.63 52.9167Z" fill="#C9DCFF"/>
<path fill-rule="evenodd" clip-rule="evenodd" d="M99.1318 67.5831C102.755 67.6472 105.745 64.7616 105.809 61.1381C105.873 57.5146 102.987 54.5253 99.3637 54.4613C95.7402 54.3972 92.7508 57.2828 92.6868 60.9063C92.6228 64.5298 95.5083 67.5191 99.1318 67.5831Z" stroke="#78A9FF" stroke-width="1.00045"/>
<path d="M105.433 58.3017L128.452 50.9597L132.278 53.0205" stroke="#78A9FF" stroke-width="1.00045" stroke-linecap="round" stroke-linejoin="round"/>
<path d="M75.8218 98.062C108.643 87.8728 142.096 94.1463 168.918 111.887C184.168 121.971 199.107 138.253 201.107 172.713C188.112 184.713 172.452 175.877 168.918 175.347C165.385 174.817 168.919 292.593 168.919 292.593L49.1628 292.594C49.1628 292.594 54.0718 181.158 54.1788 175.345C53.4651 175.219 51.4718 183.339 51.4718 183.339L49.1632 191.369L19.5625 168.41C21.2597 152.284 27.2533 136.908 36.918 123.887C47.3411 110.022 55.1653 104.475 75.8218 98.062Z" fill="#78A9FF"/>
<path d="M19.8843 169.404C19.6751 205.87 25.6053 208.957 33.9791 224.676C99.1002 247.357 144.5 203.439 144.5 203.439L158.301 212.183C158.301 212.183 167.622 219.148 170.448 219.717C175.664 220.764 164.209 214.832 166.104 213.677C167.999 212.523 178.283 222.701 177.802 219.361C177.322 216.02 179.175 218.6 180.709 218.865C182.243 219.13 176.574 210.895 176.574 210.895L184.037 218.033C185.343 208.74 155.772 192.349 148.158 191.279C131.027 188.871 91.3909 176.448 67.4717 185.77C68.2283 180.387 68.9176 171.803 69.514 170.771L19.8843 169.404Z" fill="#B7CFFC"/>
<path d="M20.5013 184.248C20.5013 184.248 21.7545 206.763 32.9725 224.276C39.6938 227.733 52.0004 229.496 52.0004 229.496" stroke="black" stroke-linecap="round"/>
<path d="M201.828 171.404C201.773 207.908 195.503 211.042 186.562 226.841C117.783 250.036 70.2815 206.411 70.2815 206.411L55.6725 215.272C55.6725 215.272 45.8005 222.314 42.8177 222.905C37.3155 223.992 49.428 217.968 47.4408 216.826C45.4536 215.685 34.5402 225.952 35.0725 222.604C35.6048 219.256 33.6311 221.847 32.0129 222.124C30.3947 222.401 36.4348 214.119 36.4348 214.119L28.518 221.32C27.212 212.027 58.4898 195.396 66.5228 194.267C84.5913 191.728 126.441 178.993 151.571 188.145C150.815 182.762 150.153 174.174 149.532 173.146L201.828 171.404Z" fill="#C9DCFF"/>
<path d="M153.914 189.327C153.914 189.327 137.685 180.237 108.003 186.299" stroke="black" stroke-linecap="round"/>
<path d="M196.124 145.808C196.124 145.808 203.176 168.367 201.273 187.743C199.723 201.787 196.14 209.531 196.14 209.531" stroke="black" stroke-linecap="round"/>
<path d="M149.277 151.56C149.277 151.56 149.3 170.617 150.437 179.88" stroke="#F2F2F2" stroke-linecap="round"/>
<path d="M72.0371 151.367C72.0371 151.367 70.3538 170.349 68.4133 179.478" stroke="#F2F2F2" stroke-linecap="round"/>
</g>
</svg>
