<svg width="220" height="220" viewBox="0 0 220 220" fill="none" xmlns="http://www.w3.org/2000/svg">
<rect width="220" height="220" fill="#F4F5F7"/>
<mask id="mask0" mask-type="alpha" maskUnits="userSpaceOnUse" x="0" y="0" width="220" height="220">
<rect width="220" height="220" fill="white"/>
</mask>
<g mask="url(#mask0)">
<rect opacity="0.22" x="135" y="100" width="85" height="120" fill="#D8DDE2"/>
<path d="M1.31464 181.642C-6.45549 180.391 -14.4221 181.555 -21.5098 184.979C-26.7928 187.622 -33.4001 191.601 -33.6185 192.363C-33.9825 193.633 -28.1654 191.588 -29.8741 192.363C-30.3724 192.587 -33.086 193.733 -32.7675 193.916C-31.1718 194.741 -27.7425 195.952 -25.0814 195.616C-16.3727 194.632 -14.3317 190.683 -14.3317 190.683C-14.3317 190.683 -20.7062 195.668 -20.4423 197.943C-20.006 199.049 -12.0462 194.835 -12.0462 194.835C-12.0462 194.835 -6.68313 194.131 -4.19938 191.609C-4.5367 190.229 20.4043 195.07 20.4043 195.07L14.7853 181.278L1.31464 181.642Z" fill="#C9DCFF"/>
<path d="M88.8995 113.001C107.066 129.665 105.927 176.007 85.9011 194.217C65.8748 212.427 14.4887 194.925 1.55775 192.117C1.99758 188.152 2.8788 185.949 5.07943 181.543C42.9392 165.241 61.8697 168.326 61.8697 168.326C61.8697 168.326 52.2092 140.106 57.0272 113.001C62.3646 98.458 70.7329 96.336 88.8995 113.001Z" fill="#78A9FF"/>
<path d="M64.7725 172.124C64.7725 172.124 57.9074 163.626 24.0879 174.287" stroke="black" stroke-linecap="round"/>
<path d="M113.149 74.5334C102.818 71.5789 86.9476 73.647 79.0262 78.0532C61.633 89.9477 52.1631 111.537 57.0036 136.649C61.8441 161.761 63.1592 189.085 63.1592 189.085C63.1592 189.085 59.382 218.755 59.9527 220.368C65.7874 263.558 155.392 257.584 159.854 237.523C166.829 205.363 165.809 87.9335 113.149 74.5334Z" fill="white"/>
<path d="M102.815 140.569C98.8902 188.151 112.941 248.95 110.74 265.252C108.538 281.553 162.247 278.028 163.127 258.202C164.008 238.377 164.008 179.78 159.165 158.192C157.001 148.543 147.035 129.701 148.6 110.61C168.41 112.373 167.282 69.6369 153.855 65.2312C156.497 78.7418 146.553 78.8484 132.9 86.3787C124.915 90.7845 106.738 92.9873 102.815 140.569Z" fill="#78A9FF"/>
<path d="M54.7933 116.811C49.5516 157.134 53.2231 235.455 48.7584 247.091C44.4981 258.195 69.4795 257.127 69.6822 256.462C76.1428 235.607 78.4454 218.774 75.8579 177.739C73.2704 136.704 77.9605 83.1505 69.7083 85.7937C61.456 88.437 57.2623 100.769 54.7933 116.811Z" fill="#78A9FF"/>
<path d="M153.882 65.2312C144.087 62.1472 119.434 66.0022 104.906 73.1615C125.927 75.8049 133.852 87.0396 133.852 87.0396C133.852 87.0396 163.014 77.8977 153.882 65.2312Z" fill="#578AE4"/>
<path d="M51.8904 175.668C51.8904 175.668 53.064 210.326 51.8904 221.488" stroke="black" stroke-linecap="round"/>
<path d="M118.662 219.873L138.548 241.123L141.554 258.643" stroke="black" stroke-linecap="round"/>
<path d="M68.4753 215.467L54.7084 231.888L52.627 245.426" stroke="black" stroke-linecap="round"/>
<path d="M143.186 151.823C143.186 151.823 154.845 137.135 174.088 138.742C178.731 143.673 184.653 149.606 188.528 155.988C209.633 190.744 219.169 244.924 219.169 244.924L230.864 250.827C230.864 250.827 239.454 254.386 241.049 256.088C243.992 259.226 235.153 253.793 235.219 255.551C235.285 257.309 247.942 264.665 245.828 266.036C240.317 270.663 212.952 252.324 208.956 247.558C199.965 236.834 188 225.031 176.432 205.696C164.864 186.362 162.701 170.205 162.701 170.205L143.186 151.823Z" fill="#C9DCFF"/>
<path d="M106.188 129.263C106.188 129.263 143.585 167.805 163.712 176.844C163.804 183.948 173.397 210.915 195.311 231.182C199.226 229.126 213.898 225.307 213.018 213.558C211.63 192.891 201.649 162.592 195.313 154.04C188.976 145.487 156.829 98.2732 138.18 91.9577C119.531 85.6422 106.188 129.263 106.188 129.263Z" fill="#78A9FF"/>
<path d="M147.275 160.615L164.224 178.238C164.224 178.238 164.885 190.354 176.771 207.757" stroke="black" stroke-linecap="round" stroke-linejoin="round"/>
<path d="M108.424 61.1325C108.424 61.1325 122.695 60.0611 122.999 44C123.303 27.9389 94.1849 30.7497 88.499 20.5C82.6518 7.92463 70.0593 23.2249 75.7633 37.435C81.6557 49.4667 105.478 38.389 108.424 61.1325Z" fill="#0B1E57"/>
<path d="M88.5085 81.5299C88.1837 84.6142 107.168 82.5928 107 81.5L108.963 64.4339L91.1387 62.5567L88.5085 81.5299Z" fill="#C9DCFF"/>
<path d="M96.5877 66.4836C98.2174 66.6553 108.129 72.3367 107.858 74.9027L109.282 61.3873C106.692 61.1145 96.5877 66.4836 96.5877 66.4836Z" fill="#78A9FF"/>
<path d="M92.5038 35.267C83.3024 37.5591 77.7013 46.8764 79.9934 56.0779C82.2855 65.2793 91.6028 70.8804 100.804 68.5883C110.006 66.2962 115.607 56.9789 113.315 47.7775C111.023 38.576 101.705 32.9749 92.5038 35.267Z" fill="#C9DCFF"/>
<path d="M88.1799 48.8457C87.6146 50.3011 84.4541 56.6528 89.7029 57.6001" stroke="#1F161E" stroke-width="1.00045" stroke-linecap="round"/>
<path d="M94.9042 62.5674C94.9042 62.5674 102.125 62.9214 102.589 56.9207" stroke="black" stroke-width="1.00045" stroke-linecap="round"/>
<path d="M113.584 44.4511C111.104 45.0689 109.594 47.5804 110.212 50.0606C110.83 52.5409 113.341 54.0506 115.822 53.4328C118.302 52.815 119.812 50.3035 119.194 47.8233C118.576 45.343 116.065 43.8333 113.584 44.4511Z" fill="#C9DCFF"/>
<path d="M77.8499 40.0536C80.072 42.7371 83.3827 44.2796 86.8667 44.2549C93.0644 44.4313 103.938 41.3609 106.288 43.7603C112.019 45.1152 106.221 55.6953 106.221 55.6953L111.818 53.016L112.822 44.3287L105.979 30.5715L87.8499 33.0073L77.8499 40.0536Z" fill="#0B1E57"/>
<path d="M84.0664 79.7931C93.0209 84.7813 103.991 84.4351 112.614 78.8922" stroke="black" stroke-linecap="round"/>
</g>
</svg>
