<svg width="220" height="220" viewBox="0 0 220 220" fill="none" xmlns="http://www.w3.org/2000/svg">
<rect width="220" height="220" fill="#F4F5F7"/>
<mask id="mask0" mask-type="alpha" maskUnits="userSpaceOnUse" x="0" y="0" width="220" height="220">
<rect width="220" height="220" fill="white"/>
</mask>
<g mask="url(#mask0)">
<rect opacity="0.22" x="135" y="100" width="85" height="120" fill="#D8DDE2"/>
<path d="M137.54 76.584C120.562 76.584 106.799 63.556 106.799 47.484C106.799 31.412 118.023 32.5 135.001 32.5C151.979 32.5 157.001 18.8181 157.001 30.5C157.001 31 167.001 74 147.001 73C133.501 75 139.886 62.1628 140.001 69.5C140.001 78.554 139.062 76.5847 137.54 76.584Z" fill="#0B1E57"/>
<path d="M125.32 103.17C125.32 106.738 145.972 106.842 145.972 103.17V74.241H125.32V103.17Z" fill="#C9DCFF"/>
<path d="M132.039 78.083C133.927 78.083 145.97 83.397 145.97 86.37V70.711C142.969 70.711 132.039 78.083 132.039 78.083Z" fill="#78A9FF"/>
<path d="M123.591 42.8038C113.323 46.5408 108.03 57.8937 111.767 68.1612C115.504 78.4286 126.857 83.7226 137.124 79.9855C147.391 76.2485 152.685 64.8956 148.948 54.6281C145.211 44.3607 133.858 39.0667 123.591 42.8038Z" fill="#C9DCFF"/>
<path d="M147.147 53.5222C144.38 54.5295 142.953 57.5898 143.96 60.3576C144.967 63.1253 148.028 64.5523 150.795 63.5449C153.563 62.5376 154.99 59.4773 153.983 56.7096C152.975 53.9419 149.915 52.5148 147.147 53.5222Z" fill="#C9DCFF"/>
<path d="M126.971 74.0402C126.971 74.0402 129.499 74.5 131.184 72.798" stroke="black" stroke-width="1.00056" stroke-linecap="round"/>
<path d="M121.224 60C120.726 61.8261 117.73 69.8762 124.171 70.3535" stroke="#1F161E" stroke-width="1.00045" stroke-linecap="round"/>
<path d="M148.605 53.468C147.698 54.194 147.005 57.916 145.767 59.589C144.83 60.9236 143.456 61.8892 141.883 62.319C141.883 62.319 144.596 52.99 135.583 49.985C126.57 46.98 127.361 46.842 121.5 46.5C115.639 46.158 110 51.5 110 51.5L127.565 32.319L157.895 46.528C154.968 49.0599 151.863 51.3792 148.605 53.468Z" fill="#0B1E57"/>
<path d="M112.519 99.8439C106.429 102.649 90.3564 107.893 69.4069 118.748C53.8164 126.797 28.2394 143.505 28.2394 143.505C28.2394 143.505 17.2774 129.236 5.82873 122.408C-11.7107 111.92 -43.4998 102.041 -49.3455 101.065C-52.8782 104.602 -58.3586 110.334 -57.0177 112.163C-55.6768 113.992 -3.30457 187.045 31.8957 186.313C67.0961 185.582 98.884 163.63 103.758 158.264" fill="#78A9FF"/>
<path d="M136.316 95.0626C119.874 92.3796 108.747 101.429 99.2458 115.088C94.1307 122.406 83.4126 130.942 81.2197 142.041C79.1494 153.017 83.8992 159.603 84.2645 172.043C86.4574 204.239 96.6877 230.582 99.2458 233.51C105.458 240.461 183.411 226.802 188.89 220.339C193.505 214.896 199.071 130.296 169.524 102.707C164.234 97.7652 143.283 95.3332 136.316 95.0626Z" fill="#78A9FF"/>
<path fill-rule="evenodd" clip-rule="evenodd" d="M134.689 118.8L130.67 93.9848L151.619 89.8L155.398 99.0406L134.689 118.8Z" stroke="black" stroke-linecap="round" stroke-linejoin="round"/>
<path d="M130.306 95.9053L123.972 109.8L117.273 89.2514L123.972 87.8" stroke="black" stroke-linecap="round" stroke-linejoin="round"/>
<path fill-rule="evenodd" clip-rule="evenodd" d="M117.152 88.8L110.453 107.8L121.776 102.61L117.152 88.8Z" stroke="black" stroke-linecap="round" stroke-linejoin="round"/>
<path d="M-5.01367 169.117C-5.01367 169.117 15.4481 186.191 28.1152 186.191C35.7194 186.185 43.3056 185.45 50.7698 183.995" stroke="black" stroke-linecap="round" stroke-linejoin="round"/>
<path d="M162.947 101.552C184.628 97.7686 221.776 179.483 217.27 191.924C217.27 222.538 185.481 272.537 185.481 272.537C185.481 272.537 172.814 260.585 169.281 257.658C170.865 254.975 170.134 208.021 179.147 191.923C167.211 182.653 141.634 157.525 138.466 140.578C135.299 123.631 141.146 105.328 162.947 101.552Z" fill="#78A9FF"/>
<path d="M188.403 186.312C188.403 186.312 176.467 186.312 172.691 216.314" stroke="black" stroke-linecap="round"/>
<path d="M180.487 191.313C173.436 187.255 167.2 181.92 162.096 175.58" stroke="black" stroke-linecap="round"/>
</g>
</svg>
