<svg width="220" height="220" viewBox="0 0 220 220" fill="none" xmlns="http://www.w3.org/2000/svg">
<rect width="220" height="220" fill="#F4F5F7"/>
<mask id="mask0" mask-type="alpha" maskUnits="userSpaceOnUse" x="0" y="0" width="220" height="220">
<rect width="220" height="220" fill="white"/>
</mask>
<g mask="url(#mask0)">
<rect opacity="0.22" x="135" y="100" width="85" height="120" fill="#D8DDE2"/>
<path d="M88.0723 101.855C88.0723 105.52 109.271 105.627 109.271 101.855V72.136H88.0723V101.855Z" fill="#C9DCFF"/>
<path d="M94.9707 76.0829C96.9061 76.0829 109.276 81.5423 109.276 84.5966V68.5099C106.19 68.5099 94.9707 76.0829 94.9707 76.0829Z" fill="#78A9FF"/>
<path d="M86.2983 39.8423C75.759 43.6812 70.3249 55.3437 74.1609 65.891C77.9969 76.4384 89.6504 81.8767 100.19 78.0377C110.729 74.1988 116.163 62.5364 112.327 51.989C108.491 41.4416 96.8377 36.0034 86.2983 39.8423Z" fill="#C9DCFF"/>
<path d="M111.999 66.9867C111.999 66.9867 122.579 50.4829 118.626 41.8564C114.673 33.2299 108.133 30.8516 96.3071 29.4463C84.4809 28.041 56.9991 27.1056 56.9991 27.1056L73.9404 51.9756C73.9404 51.9756 87.5718 38.8393 94.8652 45.3512C102.159 51.8631 96.3217 61.913 100.867 55.1735C105.412 48.4341 108.11 46.7731 106.953 53.1117C106.884 53.4942 111.999 66.9867 111.999 66.9867Z" fill="#0B1E57"/>
<path d="M92.3592 71.2849C92.3592 71.2849 101.526 71.8226 101.833 60.8927" stroke="black" stroke-linecap="round"/>
<path d="M83.1409 58.1234C79.3804 61.0707 78.9858 66.36 84.5647 65.5221" stroke="#1F161E" stroke-linecap="round"/>
<path d="M105.429 49.1675C102.588 50.2024 101.123 53.3463 102.157 56.1897C103.191 59.033 106.333 60.4991 109.174 59.4642C112.015 58.4293 113.48 55.2853 112.446 52.442C111.412 49.5987 108.271 48.1326 105.429 49.1675Z" fill="#C9DCFF"/>
<path d="M63.4186 204.467C63.4186 204.467 44.5654 217.951 22.6649 221.638C0.764373 225.324 -25.6392 221.637 -25.6392 221.637L-30.4236 231.266C-30.4236 231.266 -36.0259 239.732 -38.1783 241.086C-42.1519 243.587 -38.4663 236.922 -40.3605 236.627C-42.2548 236.332 -44.9277 239.273 -53.6831 245.522C-57.4908 238.653 -38.1551 216.567 -32.22 213.277C-18.8631 205.873 34.31 179.24 34.31 179.24C34.31 179.24 37.1358 167.077 40.4104 170.473C43.6849 173.869 54.5194 174.653 54.5194 174.653L63.4186 204.467Z" fill="#C9DCFF"/>
<path d="M142.742 97.368C119.525 87.868 94.0418 86.352 68.7468 100.004C57.6048 106.017 46.1138 130.274 46.1138 130.274L30.9668 168.403L54.4668 178.849L41.5658 275.761C41.5658 275.761 155.181 280.949 163.316 279.197C163.765 273.24 158.934 184.071 158.934 184.071L172.863 188.946L199.153 139.674C190.273 131.074 180.854 123.049 170.953 115.648C156.714 105.333 161.243 104.936 142.742 97.368Z" fill="#78A9FF"/>
<g opacity="0.29">
<path opacity="0.69" d="M134.053 117.867L177.288 152.08" stroke="white" stroke-width="5" stroke-linecap="round" stroke-linejoin="round"/>
<path opacity="0.69" d="M71.4639 199.645L50.3789 219.981" stroke="white" stroke-width="5" stroke-linecap="round" stroke-linejoin="round"/>
<path opacity="0.69" d="M106.958 94.282L103.851 109.717" stroke="white" stroke-width="5.00236" stroke-linecap="round" stroke-linejoin="round"/>
<path opacity="0.69" d="M150.858 104.385L159.801 117.334" stroke="white" stroke-width="5" stroke-linecap="round" stroke-linejoin="round"/>
<path opacity="0.69" d="M193.224 187.501L205.344 177.465" stroke="white" stroke-width="4.9997" stroke-linecap="round" stroke-linejoin="round"/>
<path opacity="0.69" d="M165.528 169.156L171.577 183.686" stroke="white" stroke-width="5.00072" stroke-linecap="round" stroke-linejoin="round"/>
<path opacity="0.69" d="M45.3973 151.397L51.446 165.927" stroke="white" stroke-width="5.00072" stroke-linecap="round" stroke-linejoin="round"/>
<path opacity="0.69" d="M76.684 174.4L88.2628 163.742" stroke="white" stroke-width="5" stroke-linecap="round" stroke-linejoin="round"/>
<path opacity="0.69" d="M126.851 164.384L115.141 164.027L117.702 153.543L105.69 153.736L108.375 140.431" stroke="white" stroke-width="5" stroke-linecap="round" stroke-linejoin="round"/>
<path opacity="0.69" d="M71.4835 104.035L74.5319 112.761L66.0872 113.83L69.6232 122.625L59.0673 124.408" stroke="white" stroke-width="5.00201" stroke-linecap="round" stroke-linejoin="round"/>
<path opacity="0.69" d="M118.318 216.274L125.399 204.369L134.769 213.031L141.46 200.495L153.677 210.898" stroke="white" stroke-width="5" stroke-linecap="round" stroke-linejoin="round"/>
<g opacity="0.69">
<path fill-rule="evenodd" clip-rule="evenodd" d="M94.2048 133.982C98.4557 133.982 101.902 130.536 101.902 126.285C101.902 122.034 98.4557 118.588 94.2048 118.588C89.9539 118.588 86.5078 122.034 86.5078 126.285C86.5078 130.536 89.9539 133.982 94.2048 133.982Z" stroke="white" stroke-width="5"/>
</g>
<g opacity="0.69">
<path fill-rule="evenodd" clip-rule="evenodd" d="M139.31 190.364C143.561 190.364 147.007 186.918 147.007 182.667C147.007 178.416 143.561 174.97 139.31 174.97C135.059 174.97 131.613 178.416 131.613 182.667C131.613 186.918 135.059 190.364 139.31 190.364Z" stroke="white" stroke-width="5"/>
</g>
<g opacity="0.69">
<path fill-rule="evenodd" clip-rule="evenodd" d="M140.642 146.622C143.015 146.622 144.94 144.698 144.94 142.324C144.94 139.95 143.015 138.026 140.642 138.026C138.268 138.026 136.344 139.95 136.344 142.324C136.344 144.698 138.268 146.622 140.642 146.622Z" stroke="white" stroke-width="5"/>
</g>
<g opacity="0.69">
<path fill-rule="evenodd" clip-rule="evenodd" d="M69.9718 156.589C72.3455 156.589 74.2698 154.665 74.2698 152.291C74.2698 149.917 72.3455 147.993 69.9718 147.993C67.5981 147.993 65.6738 149.917 65.6738 152.291C65.6738 154.665 67.5981 156.589 69.9718 156.589Z" stroke="white" stroke-width="5"/>
</g>
<g opacity="0.69">
<path fill-rule="evenodd" clip-rule="evenodd" d="M191.103 170.141C193.476 170.141 195.401 168.217 195.401 165.843C195.401 163.469 193.476 161.545 191.103 161.545C188.729 161.545 186.805 163.469 186.805 165.843C186.805 168.217 188.729 170.141 191.103 170.141Z" stroke="white" stroke-width="5"/>
</g>
<g opacity="0.69">
<path fill-rule="evenodd" clip-rule="evenodd" d="M105.033 206.272C108.173 203.906 108.801 199.442 106.435 196.301C104.069 193.161 99.6044 192.533 96.4638 194.899C93.3233 197.265 92.6956 201.729 95.0618 204.87C97.428 208.011 101.892 208.638 105.033 206.272Z" stroke="white" stroke-width="5.00201"/>
</g>
</g>
<path d="M197.885 138.631C197.885 138.631 201.561 143.307 223.38 159.877C226.31 210.71 191.673 257.661 191.673 257.661L197.545 271.331C197.545 271.331 202.422 280.696 202.569 283.34C202.84 288.217 199.113 277.04 197.888 278.617C196.663 280.194 204.14 294.126 201.314 293.262C198.488 292.398 194.214 287.779 194.214 287.779L197.885 293.262C189.714 293.262 180.869 259.556 180.869 252.496C180.869 236.609 183.481 213.322 185.569 192.952C180.837 192.952 170.945 188.509 170.945 188.509L197.885 138.631Z" fill="#C9DCFF"/>
<path d="M170.424 187.206C170.424 187.206 143.264 183.028 131.773 155.345" stroke="black" stroke-linecap="round"/>
<path d="M63.8715 137.587C63.8715 137.587 54.4715 165.27 52.7285 193.126" stroke="black" stroke-linecap="round"/>
<path d="M197.846 139.154L223.7 160.047C223.7 160.047 223.439 181.462 220.305 191.908" stroke="black" stroke-linecap="round" stroke-linejoin="round"/>
</g>
</svg>
