<svg width="220" height="220" viewBox="0 0 220 220" fill="none" xmlns="http://www.w3.org/2000/svg">
<rect width="220" height="220" fill="#F4F5F7"/>
<mask id="mask0" mask-type="alpha" maskUnits="userSpaceOnUse" x="0" y="0" width="220" height="220">
<rect width="220" height="220" fill="white"/>
</mask>
<g mask="url(#mask0)">
<rect opacity="0.22" x="135" y="100" width="85" height="120" fill="#D8DDE2"/>
<path d="M82.9895 60.0472C82.9895 60.0472 77.4994 44.8096 86.5031 38.4056C95.5067 32.0016 102.094 35.977 102.094 35.977C102.094 35.977 121.199 24.7147 130.423 50.11C135.962 65.3732 137.816 92.1076 137.816 92.1076H118.662L119.227 74.844L97.3299 77.8493V92.1053H82.993L82.9895 60.0472Z" fill="#0B1E57"/>
<path d="M97.3352 105.738C97.2689 109.492 118.876 109.983 118.944 106.12L119.482 75.6796L97.873 75.2979L97.3352 105.738Z" fill="#C9DCFF"/>
<path d="M104.832 79.4648C106.807 79.4997 119.31 85.3134 119.254 88.4426L119.545 71.9654C116.405 71.9099 104.832 79.4648 104.832 79.4648Z" fill="#78A9FF"/>
<path d="M96.6478 42.188C85.8351 45.9303 80.0848 57.778 83.8041 68.6505C87.5235 79.5231 99.304 85.3032 110.117 81.5609C120.929 77.8186 126.68 65.9709 122.96 55.0983C119.241 44.2258 107.46 38.4456 96.6478 42.188Z" fill="#C9DCFF"/>
<path d="M95.0206 57.6684C94.4925 59.4864 91.3694 67.4912 97.7699 68.0823" stroke="#1F161E" stroke-width="1.00045" stroke-linecap="round"/>
<path d="M108.733 69.6026C108.733 69.6026 106.987 72.9367 101.564 73.9083" stroke="black" stroke-width="1.00045" stroke-linecap="round"/>
<path d="M122.936 52.8196C120.021 53.8283 121.998 54.5309 123 57.4613C124.003 60.3918 123.651 64.4405 126.566 63.4318C129.48 62.4231 131.03 59.2298 130.028 56.2994C129.025 53.3689 125.85 51.811 122.936 52.8196Z" fill="#78A9FF"/>
<path d="M98.2677 33.4926C94.7449 40.4907 98.8239 44.9232 105.869 49.8222C112.915 54.7212 122.926 55.8885 122.926 61.7204V71.7516C122.926 71.7516 129.23 61.4871 125.521 45.6229C121.813 29.7586 101.79 26.4934 98.2677 33.4926Z" fill="#0B1E57"/>
<path d="M99.0873 34.2237C101.289 39.1494 98.7412 42.2695 94.3368 45.7111C89.9325 49.1527 85.692 49.0761 84.5566 54.0842C83.9109 56.3793 83.6149 58.7595 83.6785 61.1437C83.6785 61.1437 79.7392 53.9194 82.0562 42.7546C84.3731 31.5897 96.895 29.298 99.0873 34.2237Z" fill="#0B1E57"/>
<path d="M98.892 143.55C100.597 162.43 101.065 176.673 96.6419 190.658C69.026 210.488 22.7191 188.641 22.7191 188.641L12.6415 198.096C12.6415 198.096 6.00846 205.319 3.74531 206.286C-0.429698 208.071 8.15069 201.275 6.38602 200.711C4.62135 200.148 -1.84914 209.376 -7.84402 207.438C-10.4409 200.316 11.5303 181.92 17.6994 179.679C31.5811 174.636 50.3771 170.545 71.8159 173.55C70.3118 169.425 65.2484 145.917 65.4138 132.487C65.4679 109.868 81.3753 103.447 87.533 112.212C92.4732 119.242 98.112 134.906 98.892 143.55Z" fill="#C9DCFF"/>
<path d="M145.449 102.997C162.128 113.401 165.743 118.797 164.304 122.406C162.642 126.61 147.716 121.085 145.27 131.11C140.972 148.729 153.509 152.247 153.509 152.247L131.908 191.636C131.908 191.636 147.192 203.938 157.263 235.554C159.714 243.247 74.4236 264.375 74.6861 244.653C74.9128 227.587 74.9907 210.081 74.4662 205.574C71.7179 181.986 70.5103 169.073 65.4863 165.05C53.5977 152.055 70.0416 111.651 82.3743 103.445C88.8223 98.2882 128.769 92.593 145.449 102.997Z" fill="#78A9FF"/>
<path d="M126.623 101.556C126.623 101.556 108.52 117.949 90.7325 101.54" stroke="#F2F2F2" stroke-width="1.00052" stroke-linecap="round"/>
<path d="M174.738 142.454C177.801 159.542 179.367 172.497 176.46 185.607C152.907 205.89 89.7805 196.301 89.7805 196.301L81.3631 205.728C81.3631 205.728 75.9029 212.844 73.92 213.906C70.2621 215.866 77.5294 208.985 75.8778 208.611C74.2262 208.237 68.8147 219.426 63.4613 215.876C60.5273 209.586 79.057 191.06 84.4936 188.526C96.7271 182.822 132.734 170.935 152.491 171.973C150.792 168.329 144.301 147.287 143.377 135.022C141.615 114.382 155.583 107.261 161.89 114.768C166.95 120.788 173.336 134.63 174.738 142.454Z" fill="#C9DCFF"/>
<path d="M176.899 152.481C176.899 152.481 179.594 179.625 176.55 185.862C173.507 192.099 149.965 196.714 149.965 196.714" stroke="black" stroke-width="1.0004" stroke-linecap="round"/>
<path d="M158.105 176.854C158.105 176.854 153.014 168.262 131.879 174.787" stroke="black" stroke-width="1.0004" stroke-linecap="round"/>
<path d="M102.504 118.253C104.502 118.253 106.122 116.637 106.122 114.643C106.122 112.648 104.502 111.032 102.504 111.032C100.506 111.032 98.8867 112.648 98.8867 114.643C98.8867 116.637 100.506 118.253 102.504 118.253Z" fill="#F2F2F2"/>
<path d="M115.164 117.351C117.162 117.351 118.782 115.734 118.782 113.74C118.782 111.746 117.162 110.129 115.164 110.129C113.166 110.129 111.547 111.746 111.547 113.74C111.547 115.734 113.166 117.351 115.164 117.351Z" fill="#F2F2F2"/>
<path d="M91.6506 113.74C93.6484 113.74 95.268 112.123 95.268 110.129C95.268 108.135 93.6484 106.518 91.6506 106.518C89.6528 106.518 88.0332 108.135 88.0332 110.129C88.0332 112.123 89.6528 113.74 91.6506 113.74Z" fill="#F2F2F2"/>
<path d="M126.016 112.837C128.014 112.837 129.633 111.22 129.633 109.226C129.633 107.232 128.014 105.615 126.016 105.615C124.018 105.615 122.398 107.232 122.398 109.226C122.398 111.22 124.018 112.837 126.016 112.837Z" fill="#F2F2F2"/>
</g>
</svg>
