<svg width="220" height="220" viewBox="0 0 220 220" fill="none" xmlns="http://www.w3.org/2000/svg">
<rect width="220" height="220" fill="#F4F5F7"/>
<mask id="mask0" mask-type="alpha" maskUnits="userSpaceOnUse" x="0" y="0" width="220" height="220">
<rect width="220" height="220" fill="white"/>
</mask>
<g mask="url(#mask0)">
<rect opacity="0.22" x="135" y="100" width="85" height="120" fill="#D8DDE2"/>
<path d="M88.9173 96.7792C88.8511 100.529 110.556 101.022 110.624 97.1627L111.161 66.7538L89.4546 66.3703L88.9173 96.7792Z" fill="#C9DCFF"/>
<path d="M96.4476 70.5333C98.4322 70.5683 110.992 76.3776 110.937 79.5026L111.228 63.0437C108.073 62.9879 96.4476 70.5333 96.4476 70.5333Z" fill="#78A9FF"/>
<circle cx="94.9885" cy="52.9618" r="20.7984" transform="rotate(161.012 94.9885 52.9618)" fill="#C9DCFF"/>
<path d="M76.9905 55.3947C76.4603 57.2118 73.3227 65.2077 79.7536 65.7987" stroke="#1F161E" stroke-width="1.00045" stroke-linecap="round"/>
<path d="M94.0002 65.9859C94.0002 65.9859 102.753 65.65 102.678 58.3596" stroke="black" stroke-width="1.00045" stroke-linecap="round"/>
<path d="M114.195 61.0506C114.195 61.0506 125.463 44.1497 121.524 35.1432C117.585 26.1367 110.849 23.5528 98.6155 21.8813C86.3819 20.2097 70.9503 22.0748 72.9997 29.5C75.0492 36.9252 55.3758 55.1915 74.875 48.114C83.9115 45.2246 81.2927 36.243 90.2027 35.2785C99.1127 34.314 95.6311 51.0546 100.866 46.7323C106.1 42.41 110.537 40.0438 109.218 46.5888C109.139 46.982 114.195 61.0506 114.195 61.0506Z" fill="#0B1E57"/>
<circle cx="112.453" cy="48.2182" r="5.60653" transform="rotate(161.012 112.453 48.2182)" fill="#C9DCFF"/>
<path d="M107 85.334C93.193 85.334 78.5 90.001 78.5 90.001L73.333 233.16H130L136.333 87.334C136.333 87.334 128 85.667 107 85.334Z" fill="white"/>
<path fill-rule="evenodd" clip-rule="evenodd" d="M117.624 87C117.703 86.578 113.957 74.333 112.291 77.333C110.625 80.333 110.536 83.283 107.318 87C105.151 89.3547 102.438 91.1404 99.418 92.2L107.318 111.333C107.214 111.333 116.424 93.4 117.624 87Z" stroke="black" stroke-linecap="round" stroke-linejoin="round"/>
<path d="M98.8142 92.6L92.6212 108.333L85.6142 92.6L81.0142 104.6V89.667L88.8012 76" stroke="black" stroke-linecap="round" stroke-linejoin="round"/>
<path d="M92.8008 108C92.8008 108 89.3658 188.667 92.0008 225" stroke="black" stroke-linecap="round"/>
<path d="M75.5769 200.929C53.4484 228.981 -5.76924 231.012 -5.76924 231.012C-6.53061 234.941 -7.87524 238.733 -9.75853 242.264C-11.5861 245.512 -14.0981 248.324 -17.1205 250.505C-20.8173 253.518 -15.1063 244.446 -17.0535 244.382C-19.0008 244.319 -23.4278 255.599 -31.1756 258.877C-35.8656 252.422 -19.0257 227.453 -13.4435 223.398C-0.893244 214.279 37.1587 195.561 49.7076 195.022C48.0907 189.957 57.8143 171.348 55.8408 164.453C77.9318 157.624 75.9824 185.5 75.5769 200.929Z" fill="#F8CDBA"/>
<path d="M61.4296 172.1C61.4296 172.1 70.3438 202.032 68.3349 209.696C66.3261 217.36 41.272 227.615 41.272 227.615" stroke="black" stroke-width="1.0004" stroke-linecap="round"/>
<path d="M50.466 145.451L44.3164 194.39C44.3164 194.39 15.6684 206.141 -5.37586 218.347C-10.4073 233.983 3.07762 255.262 3.07762 255.262C3.07762 255.262 54.4803 237.207 69.3122 208.102C73.6913 191.255 72.3739 128.324 72.3739 128.324L50.466 145.451Z" fill="#78A9FF"/>
<path d="M68.271 160.851L60.938 226.518" stroke="#1F161E" stroke-linecap="round"/>
<path d="M75.0112 122.889C75.0112 122.889 60.1372 140.889 69.4702 150.556" stroke="black" stroke-linecap="round"/>
<path d="M146.302 137.261C146.302 137.261 152.635 149.928 171.635 156.261" stroke="black" stroke-linecap="round"/>
<path d="M178.243 160.928L163.577 155.261C163.577 155.261 160.244 181.344 172.244 237.594C184.244 293.844 211.577 380.261 211.577 380.261H125.577L108.577 142.261L119.577 85.722C119.577 85.722 159.577 83.261 199.577 126.595" fill="#78A9FF"/>
<path d="M206.326 142.762C206.326 142.762 208.604 149.56 224.889 152.579C250.908 180.735 241.805 258.953 241.805 258.953L253.786 268.923C253.786 268.923 262.794 275.347 264.189 277.745C266.762 282.169 257.966 273.508 257.576 275.56C257.186 277.612 262.029 279.335 264.193 284.259C265.554 287.767 266.244 291.499 266.227 295.261C266.227 295.261 235.803 272.397 232.445 265.806C224.887 250.973 210.042 199.657 211.575 186.262C205.935 187.126 195.17 171.401 195.17 171.401L206.326 142.762Z" fill="#F3C8B1"/>
<path d="M159.529 157.36L208.087 189.972L213.124 251.342L241.585 246.923C241.585 246.923 249.613 177.549 219.862 146.937C207.973 133.22 186.522 117.164 186.522 117.164L159.529 157.36Z" fill="#78A9FF"/>
<path d="M59.0452 100.545C67.0772 93.428 71.2452 92.428 78.2452 89.928C78.5782 111.261 83.9122 142.928 83.9122 142.928C83.9122 142.928 76.6092 222.461 72.5772 260.261C64.5772 335.261 61.9102 381.261 61.9102 381.261H33.9102L63.9102 194.928C63.9102 194.928 52.2892 196.633 50.9102 188.595C47.0392 166.036 50.9982 112.998 59.0452 100.545Z" fill="#78A9FF"/>
<circle cx="125.577" cy="175.261" r="2.5" stroke="#F2F2F2"/>
<circle cx="128.577" cy="205.261" r="2.5" stroke="#F2F2F2"/>
<path d="M130.244 87.094L139.244 99.261C133.895 105.012 129.148 111.295 125.077 118.011C123.738 120.243 114.41 143.761 114.41 143.761L139.243 375.761" stroke="white" stroke-linecap="round" stroke-linejoin="round"/>
<path d="M71.7441 92.594L62.0831 106.437C62.0831 106.437 67.1201 116.055 71.5771 125.594C74.3607 131.683 76.4838 138.053 77.9101 144.594C77.9101 144.594 52.8271 370.631 52.5771 375.261" stroke="white" stroke-linecap="round" stroke-linejoin="round"/>
<path d="M211.077 213.261C211.077 213.261 208.077 186.761 213.077 177.511" stroke="white" stroke-linecap="round"/>
<path d="M23.7897 204.837C23.7897 204.837 45.2449 189.632 56.6141 197.279" stroke="black" stroke-width="1.00012" stroke-linecap="round"/>
<path d="M150.549 143.461C150.549 143.461 152.161 154.114 162.976 157.461" stroke="white" stroke-linecap="round"/>
<path d="M148.871 155.497C148.871 155.497 153.782 162.356 162.517 160.847" stroke="white" stroke-width="0.999999" stroke-linecap="round"/>
<path d="M66.9102 147.594L61.9102 211.261" stroke="white" stroke-linecap="round" stroke-linejoin="round"/>
</g>
</svg>
