<svg width="220" height="220" viewBox="0 0 220 220" fill="none" xmlns="http://www.w3.org/2000/svg">
<rect width="220" height="220" fill="#F4F5F7"/>
<mask id="mask0" mask-type="alpha" maskUnits="userSpaceOnUse" x="0" y="0" width="220" height="220">
<rect width="220" height="220" fill="white"/>
</mask>
<g mask="url(#mask0)">
<rect opacity="0.22" x="135" y="100" width="85" height="120" fill="#D8DDE2"/>
<path d="M102.102 106.965C102.002 110.865 124.802 111.365 124.902 107.365L125.502 75.4649L102.702 75.0649L102.102 106.965Z" fill="#C9DCFF"/>
<path d="M110.002 79.365C112.102 79.365 125.302 85.465 125.202 88.765L125.502 71.465C122.202 71.465 110.002 79.365 110.002 79.365Z" fill="#78A9FF"/>
<path d="M115.602 81.565C114.242 82.0506 112.834 82.3859 111.402 82.565C109.975 82.7337 108.538 82.8006 107.102 82.765C105.675 82.7356 104.26 82.4998 102.902 82.065C101.531 81.6699 100.194 81.1684 98.9016 80.565C97.6328 79.9508 96.427 79.2139 95.3016 78.365C94.1743 77.504 93.1358 76.5325 92.2016 75.465C91.2567 74.3822 90.4194 73.21 89.7016 71.965C88.9824 70.7234 88.3798 69.4178 87.9016 68.065C87.416 66.7057 87.0807 65.2973 86.9016 63.865C86.7353 62.4381 86.6684 61.0013 86.7016 59.565C86.7884 58.1445 87.023 56.7369 87.4016 55.365C87.7968 53.9947 88.2983 52.6573 88.9016 51.365C89.5159 50.0962 90.2527 48.8905 91.1016 47.765C91.9626 46.6377 92.9341 45.5992 94.0016 44.665C95.0844 43.7201 96.2566 42.8828 97.5016 42.165C98.7528 41.4645 100.057 40.8627 101.402 40.365C102.761 39.8795 104.169 39.5441 105.602 39.365C107.028 39.1963 108.465 39.1295 109.902 39.165C111.328 39.1944 112.743 39.4302 114.102 39.865C115.472 40.2602 116.809 40.7617 118.102 41.365C119.37 41.9793 120.576 42.7161 121.702 43.565C122.829 44.426 123.867 45.3975 124.802 46.465C125.747 47.5478 126.584 48.72 127.302 49.965C128.021 51.2066 128.623 52.5122 129.102 53.865C129.587 55.2243 129.923 56.6327 130.102 58.065C130.268 59.492 130.335 60.9288 130.302 62.365C130.215 63.7855 129.98 65.1931 129.602 66.565C129.206 67.9354 128.705 69.2728 128.102 70.565C127.487 71.8338 126.751 73.0396 125.902 74.165C125.041 75.2923 124.069 76.3308 123.002 77.265C121.944 78.2417 120.768 79.0816 119.502 79.765C118.271 80.5059 116.964 81.1095 115.602 81.565Z" fill="#C9DCFF"/>
<path d="M132.9 65.4649C132.174 65.7663 131.38 65.8698 130.6 65.7649C129.826 65.7675 129.066 65.5601 128.4 65.1649C127.698 64.8467 127.082 64.367 126.6 63.7649C126.086 63.1741 125.679 62.4971 125.4 61.7649C125.099 61.0382 124.995 60.2446 125.1 59.4649C125.146 58.698 125.35 57.9488 125.7 57.2649C126.019 56.563 126.498 55.9462 127.1 55.4649C127.691 54.9503 128.368 54.5441 129.1 54.2649C129.829 53.9701 130.621 53.8668 131.4 53.9649C132.167 54.0105 132.916 54.2148 133.6 54.5649C134.302 54.8832 134.919 55.3629 135.4 55.9649C135.915 56.5558 136.321 57.2328 136.6 57.9649C136.902 58.6917 137.005 59.4852 136.9 60.2649C136.903 61.039 136.695 61.7993 136.3 62.4649C135.982 63.1669 135.502 63.7837 134.9 64.2649C134.362 64.848 133.668 65.2644 132.9 65.4649Z" fill="#78A9FF"/>
<path d="M140.802 40.4649C140.802 32.0649 124.202 30.8649 116.002 30.8649C103.002 30.8649 74.702 22.1649 72.102 23.0649C67.702 24.5649 67.002 29.2649 67.002 30.8649C67.002 37.4649 81.102 53.8649 88.302 54.8649C88.8361 52.5629 89.6769 50.3431 90.802 48.2649C92.823 47.4825 95.057 47.447 97.102 48.1649C98.902 48.7649 113.902 59.2649 125.702 54.8649C134.902 62.3649 125.702 74.3649 125.702 74.3649C143.502 68.3649 144.602 60.5649 144.902 54.8649C145.006 50.9191 143.269 47.1493 140.202 44.6649C140.515 43.2834 140.715 41.8788 140.802 40.4649Z" fill="#0B1E57"/>
<path d="M99.43 60.865C94.961 64.365 94.493 70.646 101.122 69.651" stroke="#1F161E" stroke-linecap="round"/>
<path d="M116.256 71.1609C116.256 71.1609 113.598 78.7146 106.351 75.9531" stroke="black" stroke-width="0.999941" stroke-linecap="round"/>
<path d="M192.845 121.153C190.845 184.153 182.245 214.662 192.845 293.262C157.945 300.162 139.945 306.262 112.945 298.262C113.645 278.762 112.945 263.453 112.945 263.453C112.945 263.453 87.8452 264.253 80.1452 249.453C80.1452 249.453 77.5352 281.662 74.9352 281.262C54.8352 277.962 31.2452 265.353 28.1452 262.753C26.3452 226.553 38.3452 159.153 55.9452 102.653C58.4452 94.4531 149.345 80.7531 192.845 121.153Z" fill="#78A9FF"/>
<path d="M144.746 102.953C144.746 102.953 152.746 111.853 152.746 120.953C152.746 130.053 128.746 141.753 120.746 173.953C118.146 184.353 116.646 196.053 115.646 207.353" stroke="white" stroke-linecap="round" stroke-linejoin="round"/>
<path d="M88.9436 101.753C88.9436 101.753 71.2436 110.753 78.2436 124.253C85.2436 137.753 91.0436 153.953 88.9436 184.253C89.6436 194.353 87.9436 206.153 85.6436 216.553" stroke="white" stroke-linecap="round" stroke-linejoin="round"/>
<path d="M96.9465 93.3531C96.9465 93.3531 99.5465 127.953 96.9465 150.953C92.2465 192.653 80.1465 249.453 80.1465 249.453C80.1465 249.453 85.8465 257.353 94.5465 260.853C103.246 264.353 113.146 264.153 113.146 264.153C113.146 264.153 113.446 255.553 113.146 242.353C112.646 219.453 111.746 182.553 114.946 158.853C118.246 133.853 126.246 115.453 130.746 104.953C132.746 100.353 132.602 101.928 133.546 95.9531C125.096 93.0531 96.9465 93.3531 96.9465 93.3531Z" fill="#F2F2F2"/>
<path fill-rule="evenodd" clip-rule="evenodd" d="M109.247 121.153C108.451 121.208 107.719 121.61 107.247 122.253C106.751 122.872 106.533 123.668 106.647 124.453C106.702 125.249 107.104 125.98 107.747 126.453C108.365 126.949 109.162 127.166 109.947 127.053C110.742 126.998 111.474 126.596 111.947 125.953C112.443 125.334 112.66 124.538 112.547 123.753C112.491 122.957 112.089 122.226 111.447 121.753C110.801 121.313 110.026 121.102 109.247 121.153V121.153Z" stroke="#78A9FF"/>
<path fill-rule="evenodd" clip-rule="evenodd" d="M107.645 134.453C106.849 134.508 106.118 134.91 105.645 135.553C105.149 136.172 104.932 136.968 105.045 137.753C105.1 138.549 105.502 139.28 106.145 139.753C106.764 140.249 107.56 140.466 108.345 140.353C109.141 140.298 109.872 139.896 110.345 139.253C110.841 138.634 111.058 137.838 110.945 137.053C110.89 136.257 110.488 135.526 109.845 135.053C109.22 134.569 108.429 134.353 107.645 134.453Z" stroke="#78A9FF"/>
<path fill-rule="evenodd" clip-rule="evenodd" d="M106.045 147.653C105.25 147.708 104.518 148.11 104.045 148.753C103.549 149.372 103.332 150.168 103.445 150.953C103.501 151.749 103.903 152.48 104.545 152.953C105.164 153.449 105.961 153.666 106.745 153.553C107.541 153.498 108.273 153.096 108.745 152.453C109.241 151.834 109.459 151.038 109.345 150.253C109.29 149.457 108.888 148.726 108.245 148.253C107.621 147.769 106.829 147.553 106.045 147.653Z" stroke="#78A9FF"/>
<path fill-rule="evenodd" clip-rule="evenodd" d="M133.645 97.2531C134.845 90.8531 125.845 89.2531 125.845 89.2531C125.845 89.2531 126.045 95.3531 123.545 99.2531C121.045 103.153 115.645 104.453 115.645 104.453L121.545 123.853C121.445 123.853 132.445 103.653 133.645 97.2531Z" stroke="black" stroke-linecap="round" stroke-linejoin="round"/>
<path d="M115.044 104.853L106.644 116.853L101.844 104.853L97.2441 116.853V98.453L101.844 89.953" stroke="black" stroke-linecap="round" stroke-linejoin="round"/>
<path d="M191.245 118.353C199.403 123.241 204.693 131.773 205.445 141.253C207.845 169.153 209.445 219.753 192.845 240.253C172.745 265.053 90.7454 222.253 76.7454 216.453C75.2454 210.853 77.8454 193.453 77.8454 193.453C129.045 185.753 156.445 196.753 156.445 196.753C156.445 196.753 155.345 162.753 160.745 130.953C166.845 117.953 178.345 110.853 191.245 118.353Z" fill="#78A9FF"/>
<path d="M58.4457 99.753C48.8457 101.453 41.6457 112.253 37.8457 121.253C27.4457 145.753 8.64569 181.153 17.1457 205.753C27.5457 235.953 110.446 233.453 125.646 232.753C128.946 228.053 134.446 206.753 134.446 206.753C89.0457 184.353 59.5457 182.853 59.5457 182.853C59.5457 182.853 59.7457 167.653 65.5457 135.853C68.3457 123.853 73.1457 97.153 58.4457 99.753Z" fill="#78A9FF"/>
<path d="M129.746 219.153C129.746 219.153 150.546 227.253 161.846 217.053C165.149 214.084 167.658 210.337 169.146 206.153C169.646 204.553 160.146 207.253 159.546 206.053C159.146 205.153 167.146 203.553 166.146 202.953C163.888 201.723 161.289 201.266 158.746 201.653C148.546 202.553 145.946 205.953 145.946 205.953C145.946 205.953 152.746 200.053 152.646 197.153C152.146 195.453 148.546 199.953 145.646 200.653C143.146 201.553 138.646 201.953 137.446 206.653C137.646 208.453 133.746 207.953 133.746 207.953L129.746 219.153Z" fill="#C9DCFF"/>
<path d="M134.445 206.653C94.2453 189.253 64.5453 179.853 54.2453 178.853C33.6453 176.853 27.9453 181.953 27.9453 181.953" stroke="white" stroke-linecap="round" stroke-linejoin="round"/>
<path d="M65.4465 135.753C65.4465 135.753 61.6465 177.153 54.1465 178.753" stroke="white" stroke-linecap="round" stroke-linejoin="round"/>
<path d="M164.245 147.653C164.245 147.653 152.945 166.553 152.845 181.853C152.745 197.153 152.845 192.653 152.845 192.653" stroke="white" stroke-linecap="round" stroke-linejoin="round"/>
<path d="M158.449 195.453C158.449 195.453 133.349 188.453 106.549 191.053" stroke="white" stroke-linecap="round"/>
<path d="M185.445 115.953C185.445 115.953 204.445 121.253 205.445 141.253" stroke="black" stroke-linecap="round" stroke-linejoin="round"/>
<path d="M16.3457 203.053C16.3457 203.053 21.9457 220.853 44.4457 225.653" stroke="black" stroke-linecap="round" stroke-linejoin="round"/>
<path d="M129.746 219.153C127.952 223.757 125.916 228.264 123.646 232.653" stroke="black" stroke-linecap="round" stroke-linejoin="round"/>
</g>
</svg>
