<svg width="220" height="220" viewBox="0 0 220 220" fill="none" xmlns="http://www.w3.org/2000/svg">
<rect width="220" height="220" fill="#F4F5F7"/>
<mask id="mask0" mask-type="alpha" maskUnits="userSpaceOnUse" x="0" y="0" width="220" height="220">
<rect width="220" height="220" fill="white"/>
</mask>
<g mask="url(#mask0)">
<rect opacity="0.22" x="135" y="100" width="85" height="120" fill="#D8DDE2"/>
<path d="M119.425 68.1325C119.425 68.1325 135.159 68.0472 135.463 51.9861C135.767 35.925 124.315 31.7509 119.72 29.89C118.381 18.4388 103.38 32.8484 97.6944 22.5987C91.8472 10.0234 81.0607 30.2249 86.7647 44.435C92.6571 56.4667 116.479 45.389 119.425 68.1325Z" fill="#0B1E57"/>
<path d="M99.5085 94.53C99.1837 97.6143 116.999 99.5762 117.333 96.4072L119.963 71.434L102.139 69.5568L99.5085 94.53Z" fill="#C9DCFF"/>
<path d="M107.59 73.4837C109.219 73.6553 119.131 79.3367 118.86 81.9027L120.284 68.3873C117.694 68.1146 107.59 73.4837 107.59 73.4837Z" fill="#78A9FF"/>
<path d="M103.506 42.2671C94.3044 44.5592 88.7033 53.8765 90.9953 63.0779C93.2874 72.2793 102.605 77.8804 111.806 75.5883C121.008 73.2962 126.609 63.9789 124.317 54.7775C122.025 45.5761 112.707 39.975 103.506 42.2671Z" fill="#C9DCFF"/>
<path d="M99.1819 55.8457C98.6165 57.3011 95.456 63.6529 100.705 64.6002" stroke="#1F161E" stroke-width="1.00045" stroke-linecap="round"/>
<path d="M105.904 69.5675C105.904 69.5675 113.125 69.9215 113.589 63.9208" stroke="black" stroke-width="1.00045" stroke-linecap="round"/>
<path d="M124.586 51.4512C122.106 52.069 120.596 54.5805 121.214 57.0607C121.832 59.541 124.343 61.0507 126.824 60.4329C129.304 59.8151 130.814 57.3036 130.196 54.8234C129.578 52.3431 127.066 50.8334 124.586 51.4512Z" fill="#78A9FF"/>
<path d="M88.8518 47.0537C91.074 49.7372 94.3847 51.2797 97.8687 51.2549C104.066 51.4313 114.94 48.3609 117.29 50.7604C123.021 52.1153 117.223 62.6954 117.223 62.6954L122.82 60.0161L123.824 51.3288L116.981 37.5716L98.8518 40.0074L88.8518 47.0537Z" fill="#0B1E57"/>
<path d="M187.698 252.775L185.075 238.069C201.863 222.556 217.582 200.7 219.491 173.205C222.485 130.088 161.604 92.5629 161.604 92.5629C161.604 92.5629 138.504 85.3519 113.371 85.3519C99.5627 85.3519 87.0267 88.4739 65.6587 95.1219C34.7897 107.785 43.6587 105.167 -11.9023 142.45C-34.6953 118.463 -90.6353 108.226 -92.8853 108.38L-95.3183 118.866C-95.3183 118.866 -68.8842 179.173 -24.5643 198.166C2.00475 209.552 26.8237 200.951 43.8357 192.349C45.3867 191.565 46.8727 190.78 48.2897 190.011L49.2007 214.311C49.2007 214.311 52.0497 226.341 59.3307 235.205C64.0154 240.725 69.8499 245.155 76.4257 248.184L77.7787 226.323C86.0617 226.584 98.6997 226.542 111.497 226.38L114.41 254.515C122.792 254.192 131.048 252.369 138.787 249.134C140.612 248.329 142.319 247.277 143.86 246.009L157.76 258.239C160.32 256.75 163.088 255.033 165.988 253.09C166.933 256.992 167.576 260.962 167.912 264.963L187.698 252.775Z" fill="#78A9FF"/>
<path d="M91.6163 87.676C91.6163 87.676 95.7343 115.507 93.2783 137.376C88.8333 176.961 78.3203 226.65 78.3203 226.65H110.294C110.294 226.65 105.664 179.995 110.294 144.974C114.924 109.953 128.972 86.091 128.972 86.091C122.781 85.2877 116.533 85.0077 110.294 85.254C104.02 85.6271 97.7786 86.4364 91.6163 87.676Z" fill="white"/>
<path d="M136.851 102.244L144.484 119.344C144.484 119.344 125.884 113.806 124.54 121.718C123.853 125.763 136.851 136.918 136.851 136.918C125.834 145.002 117.825 156.528 114.093 169.674C107.693 191.874 111.244 225.708 111.244 225.708" stroke="white" stroke-linecap="round" stroke-linejoin="round"/>
<path d="M77.7674 99.739L66.7456 114.875C66.7456 114.875 86.0883 113.328 85.757 121.345C85.5875 125.444 70.5552 133.65 70.5552 133.65C70.5552 133.65 84.1095 146.006 85.752 169.049C87.3946 192.092 77.7527 227.291 77.7527 227.291" stroke="white" stroke-width="0.999874" stroke-linecap="round" stroke-linejoin="round"/>
<path d="M144.961 241.853C147.81 211.462 165.597 185.182 176.975 177.397C164.114 171.257 157.79 154.769 156.833 146.881" stroke="white" stroke-linecap="round" stroke-linejoin="round"/>
</g>
</svg>
