<svg width="220" height="220" viewBox="0 0 220 220" fill="none" xmlns="http://www.w3.org/2000/svg">
<rect width="220" height="220" fill="#F4F5F7"/>
<mask id="mask0" mask-type="alpha" maskUnits="userSpaceOnUse" x="0" y="0" width="220" height="220">
<rect width="220" height="220" fill="white"/>
</mask>
<g mask="url(#mask0)">
<rect opacity="0.22" x="135" y="100" width="85" height="120" fill="#D8DDE2"/>
<path d="M91.9881 104.044C91.8542 107.867 113.981 108.753 114.119 104.819L115.205 73.8182L93.0742 73.0429L91.9881 104.044Z" fill="#C9DCFF"/>
<path d="M100.131 77.4121C102.154 77.483 114.861 83.6294 114.749 86.8152L115.337 70.036C112.12 69.9233 100.131 77.4121 100.131 77.4121Z" fill="#78A9FF"/>
<path d="M92.4011 39.2907C81.2581 42.9099 75.1588 54.8771 78.778 66.0201C82.3972 77.1631 94.3643 83.2624 105.507 79.6432C116.65 76.024 122.75 64.0569 119.13 52.9139C115.511 41.7708 103.544 35.6715 92.4011 39.2907Z" fill="#C9DCFF"/>
<path d="M86.8301 57.8764C86.257 59.72 82.9142 67.8244 89.4637 68.5349" stroke="#1F161E" stroke-width="0.999613" stroke-linecap="round"/>
<path d="M97.7194 72.7294C97.7194 72.7294 106.649 72.5427 106.7 65.1081" stroke="black" stroke-width="0.999613" stroke-linecap="round"/>
<path d="M113.729 51.5378C110.725 52.5133 109.081 55.7388 110.057 58.7422C111.032 61.7456 114.258 63.3896 117.261 62.4141C120.264 61.4386 121.908 58.2131 120.933 55.2097C119.957 52.2063 116.732 50.5623 113.729 51.5378Z" fill="#C9DCFF"/>
<path d="M115.036 72.6355C115.036 72.6355 128.517 54.3657 128.508 54.1829C128.5 54 115.5 33.5 115.495 33.3112C115.493 33.2165 90.5002 19 90.3779 19.0772C90.2556 19.1544 63.4902 17.1129 63.4803 17.2252C62.9679 23.0121 67.0441 31.4612 72.0002 38C72.9561 39.2651 57.5741 36.8914 58.6666 38.1245C60.7519 40.4797 77.9266 49.7343 79.8053 50.2486C81.5191 46.8018 84.1997 43.9287 87.5197 41.9806C87.5197 41.9806 95.0183 37.542 102.746 40.6349C110.473 43.7278 100.321 55.944 106.5 54.6832C112.68 53.4223 118.536 55.3998 114.598 60.1948C114.366 60.481 115.036 72.6355 115.036 72.6355Z" fill="#0B1E57"/>
<path d="M27.7845 251.114L11.7836 208.481C10.5224 185.718 16.6248 139.767 59.9869 98.4541C63.0578 95.3688 93.4067 93.8508 104.297 93.8508C169.182 93.8508 171.696 100.516 176.595 105.41C191.762 120.574 210.061 186.349 206.903 212.908C203.745 239.466 143.761 253.681 143.761 253.681L62.3449 259.296C62.3449 259.296 44.4752 261.13 29.0304 262.042C28.6937 257.298 27.7845 251.114 27.7845 251.114Z" fill="#78A9FF"/>
<path d="M76.2557 101.282C76.2557 101.282 96.4183 125.652 124.622 100.764" stroke="black" stroke-width="0.999999"/>
<path d="M44.6906 142.552C42.1681 147.94 29.9785 199.777 29.9785 216.207" stroke="#1F161E" stroke-linecap="round"/>
<path d="M140.264 147.51C141.799 151.95 151.794 205.003 153.196 210.58" stroke="#1F161E" stroke-linecap="round"/>
<path d="M10.6191 216.634L11.8815 200.192C11.8815 200.192 24.8827 199.272 29.5615 200.192C26.7198 214.421 30.8239 250.337 27.6674 248.756C10.5676 241.582 10.6191 216.634 10.6191 216.634Z" fill="#C9DCFF"/>
<path d="M209.094 198.097C209.094 256.386 222.501 269 186.362 278.194C174.001 279 156.001 225.5 156.053 225.287C156.053 218.446 153.279 209.183 152.686 207.793L209.094 198.097Z" fill="#C9DCFF"/>
</g>
</svg>
