<svg width="220" height="220" viewBox="0 0 220 220" fill="none" xmlns="http://www.w3.org/2000/svg">
<rect width="220" height="220" fill="#F4F5F7"/>
<mask id="mask0" mask-type="alpha" maskUnits="userSpaceOnUse" x="0" y="0" width="220" height="220">
<rect width="220" height="220" fill="white"/>
</mask>
<g mask="url(#mask0)">
<rect opacity="0.22" x="135" y="100" width="85" height="120" fill="#D8DDE2"/>
<path d="M86.4434 104.565C86.4434 108.25 107.771 108.357 107.771 104.565V74.688H86.4434V104.565Z" fill="#C9DCFF"/>
<path d="M93.3848 78.656C95.3348 78.656 107.773 84.144 107.773 87.215V71.043C104.673 71.043 93.3848 78.656 93.3848 78.656Z" fill="#78A9FF"/>
<path d="M84.6579 42.2216C74.0541 46.081 68.5868 57.8058 72.4462 68.4095C76.3057 79.0133 88.0304 84.4806 98.6342 80.6212C109.238 76.7617 114.705 65.037 110.846 54.4332C106.986 43.8294 95.2616 38.3621 84.6579 42.2216Z" fill="#C9DCFF"/>
<path d="M90.756 73.8317C90.756 73.8317 94.6772 74.0619 97.4917 71.1767" stroke="black" stroke-linecap="round"/>
<path d="M107.77 73.258C107.77 73.258 135.07 63.258 131.936 50.736C128.802 38.214 125.644 49.321 118.936 37.247C112.228 25.173 110.999 30 96.9994 31.5C82.9994 33 61.5524 21.427 61.9994 33.5C62.4464 45.573 50.9994 43 51.9994 51.5C53.5066 64.3106 72.9104 55.652 72.9104 55.652C72.9104 55.652 75.1464 44.026 85.8784 43.131C96.6104 42.236 101.529 45.814 101.529 45.814C101.529 45.814 102.596 61.648 104.659 62.806C107.115 64.185 108.697 54.583 111.367 55.651C115.838 57.444 107.77 73.258 107.77 73.258Z" fill="#0B1E57"/>
<path d="M105.6 53.293C102.742 54.3335 101.268 57.4938 102.308 60.3518C103.348 63.2098 106.509 64.6832 109.367 63.6428C112.226 62.6024 113.7 59.4421 112.659 56.5841C111.619 53.7261 108.459 52.2526 105.6 53.293Z" fill="#C9DCFF"/>
<path d="M82.5873 57.963C78.3793 61.263 77.9383 67.174 84.1803 66.236" stroke="#1F161E" stroke-linecap="round"/>
<path d="M103.999 89.334C90.192 89.334 75.499 94.001 75.499 94.001L70.332 237.16H126.999L133.332 91.334C133.332 91.334 124.999 89.667 103.999 89.334Z" fill="white"/>
<path d="M72.5769 204.929C50.4484 232.981 -8.76924 235.012 -8.76924 235.012C-9.53061 238.941 -10.8752 242.733 -12.7585 246.264C-14.5861 249.512 -17.0981 252.324 -20.1205 254.505C-23.8173 257.518 -18.1063 248.446 -20.0535 248.382C-22.0008 248.319 -26.4278 259.599 -34.1756 262.877C-38.8656 256.422 -22.0257 231.453 -16.4435 227.398C-3.89324 218.279 34.1587 199.561 46.7076 199.022C45.0907 193.957 54.8143 175.348 52.8408 168.453C74.9318 161.624 72.9824 189.5 72.5769 204.929Z" fill="#F8CDBA"/>
<path d="M58.4282 176.1C58.4282 176.1 67.3423 206.032 65.3335 213.696C63.3247 221.36 38.2706 231.615 38.2706 231.615" stroke="black" stroke-width="1.0004" stroke-linecap="round"/>
<path d="M47.4655 149.451L41.3159 198.39C41.3159 198.39 12.6679 210.141 -8.37635 222.347C-13.4078 237.983 0.0771311 259.262 0.0771311 259.262C0.0771311 259.262 51.4798 241.207 66.3117 212.102C70.6908 195.255 69.3734 132.324 69.3734 132.324L47.4655 149.451Z" fill="#78A9FF"/>
<path d="M65.2705 164.851L57.9375 230.518" stroke="#1F161E" stroke-linecap="round"/>
<path d="M72.0107 126.889C72.0107 126.889 57.1367 144.889 66.4697 154.556" stroke="black" stroke-linecap="round"/>
<path d="M143.303 141.261C143.303 141.261 149.636 153.928 168.636 160.261" stroke="black" stroke-linecap="round"/>
<path d="M175.242 164.928L160.576 159.261C160.576 159.261 157.243 185.344 169.243 241.594C181.243 297.844 208.576 384.261 208.576 384.261H122.576L105.576 146.261L116.576 89.722C116.576 89.722 156.576 87.261 196.576 130.595" fill="#78A9FF"/>
<path d="M203.325 146.762C203.325 146.762 205.604 153.56 221.888 156.579C247.907 184.735 238.804 262.953 238.804 262.953L250.786 272.923C250.786 272.923 259.794 279.347 261.189 281.745C263.762 286.169 254.966 277.508 254.576 279.56C254.186 281.612 259.029 283.335 261.192 288.259C262.554 291.767 263.244 295.499 263.226 299.261C263.226 299.261 232.803 276.397 229.444 269.806C221.886 254.973 207.042 203.657 208.575 190.262C202.935 191.126 192.17 175.402 192.17 175.402L203.325 146.762Z" fill="#F3C8B1"/>
<path d="M156.528 161.36L205.086 193.972L210.123 255.342L238.584 250.923C238.584 250.923 246.612 181.549 216.861 150.937C204.972 137.22 183.521 121.164 183.521 121.164L156.528 161.36Z" fill="#78A9FF"/>
<path d="M56.0452 104.545C64.0772 97.428 68.2452 96.428 75.2452 93.928C75.5782 115.261 80.9122 146.928 80.9122 146.928C80.9122 146.928 73.6092 226.461 69.5772 264.261C61.5772 339.261 58.9102 385.261 58.9102 385.261H30.9102L60.9102 198.928C60.9102 198.928 49.2892 200.633 47.9102 192.595C44.0392 170.036 47.9982 116.998 56.0452 104.545Z" fill="#78A9FF"/>
<path fill-rule="evenodd" clip-rule="evenodd" d="M122.576 181.761C123.957 181.761 125.076 180.642 125.076 179.261C125.076 177.88 123.957 176.761 122.576 176.761C121.195 176.761 120.076 177.88 120.076 179.261C120.076 180.642 121.195 181.761 122.576 181.761Z" stroke="#F2F2F2"/>
<path fill-rule="evenodd" clip-rule="evenodd" d="M125.576 211.761C126.957 211.761 128.076 210.642 128.076 209.261C128.076 207.88 126.957 206.761 125.576 206.761C124.195 206.761 123.076 207.88 123.076 209.261C123.076 210.642 124.195 211.761 125.576 211.761Z" stroke="#F2F2F2"/>
<path d="M127.244 91.094L136.244 103.261C130.895 109.012 126.148 115.295 122.077 122.011C120.738 124.243 111.41 147.761 111.41 147.761L136.243 379.761" stroke="white" stroke-linecap="round" stroke-linejoin="round"/>
<path d="M68.7432 96.594L59.0822 110.437C59.0822 110.437 64.1192 120.055 68.5762 129.594C71.3597 135.683 73.4828 142.053 74.9092 148.594C74.9092 148.594 49.8262 374.631 49.5762 379.261" stroke="white" stroke-linecap="round" stroke-linejoin="round"/>
<path d="M208.076 217.261C208.076 217.261 205.076 190.761 210.076 181.511" stroke="white" stroke-linecap="round"/>
<path d="M20.7887 208.837C20.7887 208.837 42.244 193.632 53.6132 201.279" stroke="black" stroke-width="1.00012" stroke-linecap="round"/>
<path d="M147.549 147.461C147.549 147.461 149.161 158.114 159.976 161.461" stroke="white" stroke-linecap="round"/>
<path d="M145.871 159.498C145.871 159.498 150.782 166.356 159.517 164.847" stroke="white" stroke-width="0.999999" stroke-linecap="round"/>
<path d="M63.9102 151.594L58.9102 215.261" stroke="white" stroke-linecap="round" stroke-linejoin="round"/>
</g>
</svg>
