<svg width="220" height="220" viewBox="0 0 220 220" fill="none" xmlns="http://www.w3.org/2000/svg">
<rect width="220" height="220" fill="#F4F5F7"/>
<mask id="mask0" mask-type="alpha" maskUnits="userSpaceOnUse" x="0" y="0" width="220" height="220">
<rect width="220" height="220" fill="white"/>
</mask>
<g mask="url(#mask0)">
<rect opacity="0.22" x="135" y="100" width="85" height="120" fill="#D8DDE2"/>
<path d="M91.2112 98.9771C91.1282 102.203 109.989 102.617 110.072 99.3081L110.572 72.9201L91.7112 72.5891L91.2112 98.9771Z" fill="#C9DCFF"/>
<path d="M97.748 76.1471C99.485 76.1471 110.404 81.1931 110.322 83.9231L110.57 69.6121C107.84 69.6121 97.748 76.1471 97.748 76.1471Z" fill="#78A9FF"/>
<path d="M102.38 77.966C101.255 78.3676 100.09 78.6449 98.9056 78.793C97.7253 78.9324 96.5366 78.9876 95.3486 78.958C94.1687 78.9337 92.9985 78.7387 91.8746 78.379C90.7409 78.0521 89.6346 77.6372 88.5656 77.138C87.5159 76.6299 86.5185 76.0203 85.5876 75.318C84.6551 74.6054 83.7962 73.8014 83.0236 72.918C82.2417 72.0208 81.5491 71.0496 80.9556 70.018C80.361 68.9932 79.8625 67.9156 79.4666 66.799C79.065 65.6746 78.7877 64.5097 78.6396 63.325C78.5017 62.1443 78.4463 60.9554 78.4736 59.767C78.5452 58.5917 78.7393 57.4271 79.0526 56.292C79.3795 55.1587 79.7945 54.0527 80.2936 52.984C80.8017 51.9344 81.4113 50.937 82.1136 50.006C82.8262 49.0736 83.6302 48.2146 84.5136 47.442C85.4108 46.6601 86.382 45.9675 87.4136 45.374C88.4466 44.7948 89.5232 44.297 90.6336 43.885C91.7579 43.4831 92.9228 43.2054 94.1076 43.057C95.2878 42.9176 96.4765 42.8625 97.6646 42.892C98.8444 42.9163 100.015 43.1114 101.139 43.471C102.272 43.7979 103.379 44.2129 104.448 44.712C105.497 45.2202 106.495 45.8297 107.426 46.532C108.358 47.2446 109.217 48.0486 109.99 48.932C110.771 49.8292 111.464 50.8005 112.058 51.832C112.652 52.859 113.151 53.939 113.547 55.058C113.948 56.1824 114.225 57.3473 114.374 58.532C114.511 59.7124 114.566 60.901 114.539 62.089C114.467 63.264 114.273 64.4283 113.96 65.563C113.633 66.6966 113.218 67.803 112.719 68.872C112.21 69.9216 111.601 70.919 110.899 71.85C110.186 72.7825 109.382 73.6414 108.499 74.414C107.622 75.2223 106.648 75.917 105.599 76.482C104.583 77.0927 103.504 77.5903 102.38 77.966Z" fill="#C9DCFF"/>
<path d="M121.787 31.917C116.3 29.332 110.717 30.817 104.415 30.817C93.6619 30.814 90.1049 25.382 87.9539 26.126C84.3139 27.367 77.0069 30.71 75.1869 37.431C73.3669 44.152 72.9729 57.224 78.9309 58.056C79.3449 56.156 81.6729 51.388 82.5829 49.651C84.8509 50.02 85.8949 53.719 93.1129 55.084C100.331 56.449 101.854 56.656 111.613 53.016C119.223 59.216 111.613 69.147 111.613 69.147C126.338 64.184 129.813 54.285 130.06 49.569C130.219 46.3406 128.851 43.2252 126.365 41.159C127.173 37.3886 125.276 33.5585 121.787 31.917Z" fill="#0B1E57"/>
<path d="M83.8152 63.905C80.3152 66.649 79.9442 71.574 85.1422 70.794" stroke="#1F161E" stroke-linecap="round"/>
<path d="M116.69 62.9941C116.089 63.2429 115.434 63.3285 114.79 63.2421C114.149 63.2431 113.52 63.0703 112.97 62.7421C112.389 62.4803 111.878 62.0849 111.479 61.5881C111.053 61.0993 110.717 60.539 110.486 59.9331C110.237 59.3327 110.151 58.6772 110.238 58.0331C110.276 57.3983 110.447 56.7786 110.738 56.2131C111 55.6321 111.395 55.1212 111.892 54.7221C112.381 54.2963 112.941 53.9601 113.547 53.7291C114.149 53.4855 114.803 53.4001 115.447 53.4811C116.082 53.5199 116.701 53.6902 117.267 53.9811C117.848 54.2429 118.359 54.6383 118.758 55.1351C119.184 55.6239 119.52 56.1842 119.751 56.7901C120 57.3905 120.085 58.046 119.999 58.6901C120 59.3308 119.827 59.9598 119.499 60.5101C119.237 61.0911 118.842 61.602 118.345 62.0011C117.899 62.4836 117.325 62.8282 116.69 62.9941Z" fill="#C9DCFF"/>
<path d="M97.4744 71.1134C97.4744 71.1134 96.2688 74.6773 91.8884 73.1907" stroke="black" stroke-width="1.00042" stroke-linecap="round"/>
<path fill-rule="evenodd" clip-rule="evenodd" d="M86.7381 64.7507C89.1191 64.8755 91.1504 63.0465 91.2751 60.6655C91.3999 58.2846 89.5709 56.2533 87.19 56.1285C84.809 56.0037 82.7778 57.8327 82.653 60.2137C82.5282 62.5946 84.3572 64.6259 86.7381 64.7507Z" stroke="#78A9FF"/>
<path d="M90.5696 58.5433L112.483 53.3485L121.901 54.5944" stroke="#78A9FF" stroke-linecap="round" stroke-linejoin="round"/>
<path d="M67.8424 168.264C67.8424 168.264 61.5307 194.843 43.8425 215.764C-7.07621 216.03 -47.6597 180.927 -47.6597 180.927C-47.6597 180.927 -54.7078 171.555 -47.6575 171.924C-31.7922 172.756 -3.45698 176.129 16.7758 179.281C17.0235 174.555 34.3429 147.257 34.3429 147.257L67.8424 168.264Z" fill="#C9DCFF"/>
<path d="M54.676 198.929C54.676 198.929 45.676 214.596 43.676 214.596C41.676 214.596 31.143 216.062 13.543 210.862" stroke="black" stroke-linecap="round"/>
<path d="M66.8438 100.762C99.3438 84.762 136.844 87.762 168.844 106.262C204.374 132.262 212.344 167.262 212.344 167.262H171.344V249.262C171.344 249.262 152.058 274.262 106.058 273.762C60.0577 273.262 43.3438 241.262 43.3438 241.262L51.8438 172.262C51.8438 172.262 38.3438 165.262 22.8438 149.762C24.8438 145.762 42.0958 116.57 66.8438 100.762Z" fill="#78A9FF"/>
<path d="M56.916 161.678L51.9907 174.243L56.916 161.678Z" fill="#F5F5F5"/>
<path d="M56.916 161.678L51.9907 174.243" stroke="black" stroke-width="1.00042" stroke-linecap="round"/>
<path d="M212.167 166.404C212.113 202.908 205.842 206.042 196.902 221.841C128.123 245.036 80.621 201.411 80.621 201.411L66.012 210.272C66.012 210.272 56.14 217.314 53.1573 217.905C47.655 218.992 59.7675 212.968 57.7803 211.826C55.7931 210.685 44.8797 220.952 45.412 217.604C45.9443 214.256 43.9706 216.847 42.3524 217.124C40.7342 217.401 46.7743 209.119 46.7743 209.119L38.8575 216.32C37.5515 207.027 68.8293 190.396 76.8623 189.267C94.9308 186.728 136.781 173.993 161.911 183.145C161.154 177.762 159.683 167.435 159.062 166.406L212.167 166.404Z" fill="#C9DCFF"/>
<path d="M158.843 153.762C158.843 173.762 160.557 175.262 161.807 184.012C154.557 179.762 137.807 179.762 137.807 179.762" stroke="black" stroke-linecap="round"/>
</g>
</svg>
