<?xml version="1.0" encoding="UTF-8"?>
<svg width="220px" height="220px" viewBox="0 0 220 220" version="1.1" xmlns="http://www.w3.org/2000/svg" xmlns:xlink="http://www.w3.org/1999/xlink">
    <!-- Generator: Sketch 61.2 (89653) - https://sketch.com -->
    <title>Navneet</title>
    <desc>Created with Sketch.</desc>
    <defs>
        <rect id="path-1" x="0" y="0" width="220" height="220"></rect>
    </defs>
    <g id="Page-1" stroke="none" stroke-width="1" fill="none" fill-rule="evenodd">
        <g id="Company---Team" transform="translate(-120.000000, -4090.000000)">
            <g id="Team" transform="translate(120.000000, 2798.000000)">
                <g id="Navneet" transform="translate(0.000000, 1292.000000)">
                    <mask id="mask-2" fill="white">
                        <use xlink:href="#path-1"></use>
                    </mask>
                    <use id="Rectangle" fill="#F4F5F7" xlink:href="#path-1"></use>
                    <rect id="Rectangle" fill="#D8DDE2" opacity="0.22" mask="url(#mask-2)" x="135" y="100" width="85" height="120"></rect>
                    <g id="Component_73_1-Clipped" mask="url(#mask-2)">
                        <g transform="translate(69.000000, 27.000000)" id="Component_73_1">
                            <g>
                                <path d="M18.6276615,73.2422857 C18.5368923,76.6152381 38.3245846,77.0477143 38.4108154,73.5879048 L38.9318308,45.9980952 L19.1486769,45.6524762 L18.6276615,73.2422857 Z" id="Path_173" fill="#C9DCFF" fill-rule="nonzero"></path>
                                <path d="M25.4825538,49.3719524 C27.3042923,49.3719524 38.7575538,54.647619 38.6713231,57.5021429 L38.9318308,42.5400952 C36.0680615,42.5391905 25.4825538,49.3719524 25.4825538,49.3719524 Z" id="Path_174" fill="#78A9FF" fill-rule="nonzero"></path>
                                <path d="M30.3414308,51.2737619 C29.1619345,51.6937526 27.9398627,51.9837971 26.6970462,52.1387143 C25.458902,52.2845908 24.2119031,52.3423402 22.9655231,52.3115238 C21.7277864,52.2861509 20.5002566,52.0822739 19.3211385,51.7062381 C18.1323372,51.3643984 16.9721123,50.9306053 15.8510308,50.4088095 C14.7502938,49.8784158 13.7041981,49.2420575 12.7276615,48.5088095 C11.7497059,47.7640581 10.8487453,46.9238961 10.0381692,46.0008095 C9.21820704,45.0642523 8.49165286,44.0503603 7.86878462,42.9734762 C7.24453284,41.899738 6.7215785,40.7705806 6.30664615,39.6005238 C5.88537196,38.4248128 5.59439002,37.2066948 5.43889231,35.9679048 C5.2946734,34.7338871 5.23674385,33.4913646 5.26552308,32.2493333 C5.34075187,31.0207172 5.54426708,29.8032649 5.87276923,28.6167143 C6.21573449,27.4314637 6.65093142,26.2746852 7.1744,25.1569048 C7.70665401,24.0597988 8.34506511,23.0170938 9.08055385,22.043619 C9.82763892,21.0687544 10.6705291,20.170695 11.5966769,19.3628095 C12.5362568,18.545481 13.553434,17.8212715 14.6338154,17.2004286 C15.7194079,16.5944206 16.8508036,16.0738075 18.0176923,15.6433333 C19.1971989,15.2233775 20.4192669,14.9333338 21.6620769,14.778381 C22.9002221,14.6325167 24.1472201,14.5747673 25.3936,14.6055714 C26.6313367,14.6309443 27.8588664,14.8348213 29.0379846,15.2108571 C30.2275627,15.5507826 31.3887009,15.9827617 32.5108154,16.5028571 C33.6115413,17.0332712 34.657635,17.6696282 35.6341846,18.4028571 C36.6121716,19.1475718 37.5131357,19.9877371 38.3236769,20.9108571 C39.1437024,21.8473645 39.8702611,22.8612629 40.4930615,23.9381905 C41.1172206,25.0119767 41.6401709,26.1411252 42.0552,27.3111429 C42.4765859,28.4868209 42.7675708,29.7049512 42.9229538,30.9437619 C43.0672283,32.1777751 43.1251581,33.4203014 43.0963231,34.6623333 C43.0212059,35.890962 42.8176888,37.1084259 42.4890769,38.2949524 C42.1462555,39.4802505 41.7110544,40.63704 41.1874462,41.7547619 C40.6552735,42.8519121 40.0168577,43.8946248 39.2812923,44.8680476 C38.5341472,45.8428616 37.6912624,46.7409153 36.7651692,47.5488571 C35.8476779,48.3936389 34.8273016,49.120126 33.7280308,49.7112381 C32.6600029,50.3541768 31.5243181,50.8781639 30.3414308,51.2737619 L30.3414308,51.2737619 Z" id="Path_175" fill="#C9DCFF" fill-rule="nonzero"></path>
                                <path d="M49.7769385,6.12795238 C44.0212615,3.42542857 38.1657385,4.97438095 31.5559231,4.97438095 C20.2760308,4.97438095 16.5454154,-0.704809524 14.2898,0.0732857143 C10.4720462,1.37071429 2.80749231,4.86852381 0.898615385,11.8930952 C-1.01026154,18.9176667 -0.142507692,27.3165714 6.10513846,28.1788095 C6.53901538,26.1883333 7.86969231,24.2883333 8.82821538,22.4706667 C10.5637231,21.7785238 12.1322154,28.9134762 19.7032769,30.3420952 C27.2743385,31.7707143 28.8709692,31.9851429 39.1106462,28.1797143 C47.0928923,34.6659524 39.1106462,45.0444762 39.1106462,45.0444762 C54.5550308,39.8556667 58.2003231,29.5051905 58.4599231,24.5760476 C58.6274287,21.2004288 57.1916564,17.9430001 54.5840769,15.7826667 C54.8382308,14.747619 55.5326154,8.83047619 49.7769385,6.12795238 Z" id="Path_179" fill="#0B1E57" fill-rule="nonzero"></path>
                                <g id="Group_62" transform="translate(11.042077, 34.479571)" stroke="#1F161E" stroke-linecap="round">
                                    <path d="M2.88827692,0 C-0.989384615,3.02733333 -1.39603077,8.45952381 4.35601538,7.6" id="Path_190-2"></path>
                                </g>
                                <path d="M45.3519385,35.6195714 C44.7210133,35.8805004 44.0319816,35.9700975 43.3550154,35.8792381 C42.6842411,35.8808671 42.0255436,35.7014044 41.4488615,35.3599048 C40.8397201,35.0847205 40.3044566,34.6699208 39.8867231,34.1493333 C39.4402407,33.6382721 39.0877898,33.0526483 38.8456,32.4194286 C38.5837415,31.7905628 38.4938513,31.1037329 38.5850923,30.4289524 C38.6252785,29.7665529 38.8026766,29.1196305 39.1061077,28.5289524 C39.3821536,27.9217597 39.7983018,27.3882179 40.3206,26.9718571 C40.8332716,26.5267546 41.4208037,26.1754347 42.0561077,25.9340952 C42.6884855,25.6786212 43.3760645,25.589213 44.0530308,25.6744286 C44.717623,25.7141989 45.3666986,25.8910401 45.9591846,26.1937619 C46.5683439,26.4689167 47.1036138,26.8837213 47.5213231,27.4043333 C47.9678055,27.9153946 48.3202563,28.5010184 48.5624462,29.1342381 C48.8242202,29.7631264 48.9141075,30.4499336 48.8229538,31.1247143 C48.8247723,31.7932265 48.6450501,32.449768 48.3028462,33.0247143 C48.0269483,33.6319961 47.6107752,34.1655698 47.0883538,34.5818095 C46.621066,35.0861847 46.018424,35.4463514 45.3519385,35.6195714 L45.3519385,35.6195714 Z" id="Path_176" fill="#C9DCFF" fill-rule="nonzero"></path>
                                <path d="M29.2322598,41.0565285 C29.2322598,41.0565285 29.9329005,44.9234783 25.1606609,45.795993" id="Path_2177" stroke="#000000" stroke-width="1.00042491" stroke-linecap="round" transform="translate(27.214509, 43.426261) rotate(28.998977) translate(-27.214509, -43.426261) "></path>
                            </g>
                        </g>
                    </g>
                    <g id="Component_89_1-Clipped" mask="url(#mask-2)">
                        <g transform="translate(-55.000000, 91.000000)" id="Component_89_1">
                            <g>
                                <g id="Group_2276" transform="translate(90.678837, 125.958121) rotate(-11.000000) translate(-90.678837, -125.958121) translate(9.678837, 71.458121)">
                                    <path d="M158.598622,47.3157454 C153.487622,66.6027454 141.365622,63.9927454 131.968622,76.2367454 C97.5786219,85.9247454 39.5396219,49.0687454 39.5396219,49.0687454 L30.6316219,53.2617454 C30.6316219,53.2617454 21.4866219,58.0237454 18.9056219,58.1667454 C14.1436219,58.4317454 23.2876219,53.8607454 21.7496219,52.6667454 C20.2116219,51.4727454 13.9496219,58.8017454 2.6136219,56.6807454 C2.6136219,48.7017454 30.9136219,38.3997454 37.8136219,38.3997454 C53.3266219,38.3997454 95.1136219,45.6227454 105.582622,52.5627454 C107.251622,47.5147454 126.056622,38.1747454 128.512622,31.4367454 C150.391622,38.8947454 152.351622,45.4307454 158.598622,47.3157454 Z" id="Path_2553" fill="#F8CDBA" fill-rule="nonzero" transform="translate(80.606122, 54.648104) rotate(-25.000000) translate(-80.606122, -54.648104) "></path>
                                    <path d="M121.049708,81.615074 C121.049708,81.615074 99.9182081,58.6188236 98.3645831,50.8496984 C96.8109582,43.0805732 114.835209,22.881448 114.835209,22.881448" id="Path_2554" stroke="#000000" stroke-width="1.00040242" stroke-linecap="round" transform="translate(109.659665, 52.248261) rotate(-143.004102) translate(-109.659665, -52.248261) "></path>
                                </g>
                                <path d="M84.936609,66.4284225 L107.204609,110.439422 C107.204609,110.439422 90.025609,136.201422 79.404609,158.088422 C83.976609,173.864422 88.652609,167.629422 88.652609,167.629422 C88.652609,167.629422 139.573609,140.252422 135.594609,107.829422 C129.804609,91.4144225 93.521609,39.9784225 93.521609,39.9784225 L84.936609,66.4284225 Z" id="Path_2550" fill="#78A9FF" fill-rule="nonzero" transform="translate(107.610414, 104.411533) rotate(34.000000) translate(-107.610414, -104.411533) "></path>
                                <path d="M129.658,65.747 C129.658,65.747 114.775,25.283 129.658,11.386 C144.541,-2.511 154.558,0.078 168.722,0.386 C207.83,6.386 238.053,32.924 239.889,36.719 C249.555,46.369 218.222,70.386 218.222,70.386 L205.722,67.386 L205.722,111.553 L212.722,158.053 L119.722,158.053 L129.658,65.747 Z" id="Path_2488-2" fill="#FFFFFF" fill-rule="nonzero"></path>
                                <line x1="127.858" y1="75.643" x2="120.525" y2="141.31" id="Path_2492-2" stroke="#1F161E" stroke-linecap="round"></line>
                                <path d="M134.598,37.681 C134.598,37.681 119.724,55.681 129.057,65.348" id="Path_2493-2" stroke="#000000" stroke-linecap="round"></path>
                                <path d="M191.889,52.053 C191.889,52.053 198.222,64.72 217.222,71.053" id="Path_2494-2" stroke="#000000" stroke-linecap="round"></path>
                                <path d="M223.83,75.72 L209.164,70.053 L205.497,107.72 L257.164,295.053 L171.164,295.053 L154.164,57.053 L165.164,0.514 C165.164,0.514 205.164,-1.947 245.164,41.387" id="Path_2548" fill="#78A9FF" fill-rule="nonzero"></path>
                                <path d="M240.857034,43.6934026 L251.156961,101.272 C241.133106,113.054611 232.621195,126.043858 225.819139,139.937729 C214.819216,162.60457 233.486085,164.937554 233.486085,164.937554 C233.486085,164.937554 288.945697,122.494851 290.278688,79.8281496 C291.878676,61.7472762 288.5147,35.1644623 288.5147,35.1644623 L240.857034,43.6934026 Z" id="Path_2549" fill="#78A9FF" fill-rule="nonzero" transform="translate(256.529580, 100.051008) rotate(-45.972395) translate(-256.529580, -100.051008) "></path>
                                <path d="M118.632,15.337 C122.348,10.564 132.885,6.616 140.497,3.387 C140.83,24.72 143.497,57.72 143.497,57.72 C143.497,57.72 136.196,137.253 132.164,175.053 C124.164,250.053 121.497,296.053 121.497,296.053 L93.497,296.053 L123.497,109.72 C123.497,109.72 111.876,111.425 110.497,103.387 C106.626,80.828 110.585,27.79 118.632,15.337 Z" id="Path_2551" fill="#78A9FF" fill-rule="nonzero"></path>
                                <g id="Ellipse_252" transform="translate(162.164000, 87.053000)">
                                    <circle id="Oval" cx="3" cy="3" r="3"></circle>
                                    <circle id="Oval" stroke="#F2F2F2" cx="3" cy="3" r="2.5"></circle>
                                </g>
                                <g id="Ellipse_253" transform="translate(165.164000, 117.053000)">
                                    <circle id="Oval" cx="3" cy="3" r="3"></circle>
                                    <circle id="Oval" stroke="#F2F2F2" cx="3" cy="3" r="2.5"></circle>
                                </g>
                                <g id="Ellipse_254" transform="translate(165.164000, 117.053000)">
                                    <circle id="Oval" cx="3" cy="3" r="3"></circle>
                                    <circle id="Oval" stroke="#F2F2F2" cx="3" cy="3" r="2.5"></circle>
                                </g>
                                <polyline id="Path_2555" stroke="#F2F2F2" stroke-linecap="round" stroke-linejoin="round" points="175.164 0.5 185.831 16.053 175.164 21.386 188.164 32.053 159.831 59.386"></polyline>
                                <polyline id="Path_2556" stroke="#F2F2F2" stroke-linecap="round" stroke-linejoin="round" points="130.078 8.97 121.67 21.229 130.078 25.429 119.164 37.386 141.164 60.386"></polyline>
                                <path d="M258.497,126.053 C258.497,126.053 250.497,102.72 260.83,93.72" id="Path_2557" stroke="#F2F2F2" stroke-linecap="round"></path>
                                <path d="M98.3277937,133.305711 C98.3277937,133.305711 89.5797573,104.708323 99.9139817,95.7072566" id="Path_2560" stroke="#F2F2F2" stroke-width="1.00011849" stroke-linecap="round" transform="translate(97.392162, 114.506484) rotate(74.991086) translate(-97.392162, -114.506484) "></path>
                                <path d="M196.136,58.253 C196.136,58.253 197.748,68.906 208.563,72.253" id="Path_2558" stroke="#F2F2F2" stroke-linecap="round"></path>
                                <path d="M196.415981,67.4833902 C196.415981,67.4833902 197.677979,75.8243777 206.145967,78.4453738" id="Path_2559" stroke="#F2F2F2" stroke-width="0.9999985" stroke-linecap="round" transform="translate(201.280974, 72.964382) rotate(-27.000655) translate(-201.280974, -72.964382) "></path>
                                <path d="M123.964,52.053 C123.964,52.053 118.364,65.653 125.964,74.853 C125.364,87.253 123.964,102.653 123.964,102.653" id="Path_2561" stroke="#F2F2F2" stroke-linecap="round" stroke-linejoin="round"></path>
                            </g>
                        </g>
                    </g>
                </g>
            </g>
        </g>
    </g>
</svg>