<svg width="220" height="220" viewBox="0 0 220 220" fill="none" xmlns="http://www.w3.org/2000/svg">
<rect width="220" height="220" fill="#F4F5F7"/>
<mask id="mask0" mask-type="alpha" maskUnits="userSpaceOnUse" x="0" y="0" width="220" height="220">
<rect width="220" height="220" fill="white"/>
</mask>
<g mask="url(#mask0)">
<rect opacity="0.22" x="135" y="100" width="85" height="120" fill="#D8DDE2"/>
<path d="M103.443 105.565C103.443 109.25 124.771 109.357 124.771 105.565V75.688H103.443V105.565Z" fill="#C9DCFF"/>
<path d="M110.385 79.656C112.335 79.656 124.773 85.144 124.773 88.215V72.043C121.673 72.043 110.385 79.656 110.385 79.656Z" fill="#78A9FF"/>
<path d="M101.658 43.2216C91.0541 47.081 85.5868 58.8058 89.4462 69.4095C93.3057 80.0133 105.03 85.4806 115.634 81.6212C126.238 77.7617 131.705 66.037 127.846 55.4332C123.986 44.8294 112.262 39.3621 101.658 43.2216Z" fill="#C9DCFF"/>
<path d="M107.756 74.8317C107.756 74.8317 116.978 75.3731 117.288 64.3887" stroke="black" stroke-linecap="round"/>
<path d="M124.772 74.258C124.772 74.258 152.072 64.258 148.938 51.736C145.804 39.214 155.646 38.321 148.938 26.247C142.23 14.173 134.166 23.117 124.772 14.174C115.378 5.23099 98.8549 5.23099 89.9119 16.41C80.9689 27.589 82.3099 27.142 71.1309 26.252C59.9519 25.362 46.0889 32.061 46.5359 44.134C46.9829 56.207 53.2439 56.652 58.1659 56.652C60.5809 56.652 71.1339 53.075 76.4999 63.807C86.3339 68.281 89.9119 56.652 89.9119 56.652C89.9119 56.652 92.1479 45.026 102.88 44.131C113.612 43.236 118.531 46.814 118.531 46.814C118.531 46.814 119.598 62.648 121.661 63.806C124.117 65.185 125.699 55.583 128.369 56.651C132.84 58.444 124.772 74.258 124.772 74.258Z" fill="#0B1E57"/>
<path d="M122.6 54.293C119.742 55.3335 118.268 58.4938 119.308 61.3518C120.348 64.2098 123.509 65.6832 126.367 64.6428C129.226 63.6024 130.7 60.4421 129.659 57.5841C128.619 54.7261 125.459 53.2526 122.6 54.293Z" fill="#C9DCFF"/>
<path d="M99.5873 58.963C95.3793 62.263 94.9383 68.174 101.18 67.236" stroke="#1F161E" stroke-linecap="round"/>
<path d="M64.9789 201.988C64.9789 201.988 37.6789 212.988 23.6789 207.488C12.8789 203.288 -15.2211 161.188 -13.0211 122.188C-11.3211 92.688 -15.1211 91.388 -15.1211 91.388C-15.1211 91.388 -32.5211 74.088 -36.0211 70.788C-39.5211 67.588 -24.0211 76.888 -24.0211 76.888C-24.0211 76.888 -26.3211 72.088 -37.8211 65.188C-38.9211 64.488 -34.8211 65.088 -29.0211 66.888C-26.6211 67.588 -34.0211 59.788 -31.3211 60.888C-20.6211 65.088 -19.3211 68.188 -17.6211 69.088C-12.9211 71.488 -9.8211 76.088 -6.9211 79.688C2.5789 91.588 40.0789 131.088 40.0789 159.488C52.9789 154.188 58.3789 146.388 58.3789 146.388L64.9789 201.988Z" fill="#C9DCFF"/>
<path d="M202.079 178.988C202.079 178.988 223.779 198.888 224.879 213.888C225.779 225.388 199.979 268.988 163.779 283.788C136.479 294.988 149.079 231.988 174.679 219.788C164.379 210.388 154.979 208.888 154.979 208.888L202.079 178.988Z" fill="#C9DCFF"/>
<path d="M145.879 111.488C151.279 114.888 200.879 168.288 200.879 176.188C200.879 184.088 180.179 218.588 172.879 228.788C165.579 238.988 145.879 111.488 145.879 111.488Z" fill="#6B9CF4"/>
<path d="M121.88 93.788C135.18 97.188 154.98 109.688 161.88 126.488C185.08 182.988 177.68 283.888 174.88 289.488C171.08 297.088 70.2906 296.262 64.2906 289.488C57.7906 283.788 67.8906 133.662 98.7906 96.862C108.19 92.462 115.391 93.262 121.88 93.788Z" fill="#78A9FF"/>
<path d="M140.28 132.688C151.68 159.488 76.4795 213.988 65.8795 204.688C43.8795 185.488 49.1795 153.288 52.8795 150.888C59.2795 146.788 73.7795 130.688 87.8795 119.888C101.48 109.388 113.68 107.688 116.88 106.488" fill="#78A9FF"/>
<path d="M94.8789 114.988C105.379 108.988 118.179 108.988 120.379 109.288" stroke="#1F161E" stroke-linecap="round" stroke-linejoin="round"/>
<path d="M75.8789 201.988C100.879 196.888 129.079 167.888 136.879 155.988" stroke="#1F161E" stroke-linecap="round" stroke-linejoin="round"/>
<path d="M146.879 108.488C146.879 108.488 168.879 122.488 172.879 164.488" stroke="black" stroke-linecap="round"/>
</g>
</svg>
