<svg width="220" height="220" viewBox="0 0 220 220" fill="none" xmlns="http://www.w3.org/2000/svg">
<rect width="220" height="220" fill="#F4F5F7"/>
<mask id="mask0" mask-type="alpha" maskUnits="userSpaceOnUse" x="0" y="0" width="220" height="220">
<rect width="220" height="220" fill="white"/>
</mask>
<g mask="url(#mask0)">
<rect opacity="0.22" x="135" y="100" width="85" height="120" fill="#D8DDE2"/>
<path d="M101.012 102.68C101.012 106.48 122.989 106.587 122.989 102.68V71.894H101.012V102.68Z" fill="#C9DCFF"/>
<path d="M108.162 75.982C110.171 75.982 122.988 81.637 122.988 84.801V68.137C119.794 68.137 108.162 75.982 108.162 75.982Z" fill="#78A9FF"/>
<path d="M99.1713 38.4393C88.2448 42.4163 82.611 54.4979 86.588 65.4245C90.5649 76.3511 102.647 81.9848 113.573 78.0079C124.5 74.031 130.133 61.9493 126.157 51.0227C122.18 40.0962 110.098 34.4624 99.1713 38.4393Z" fill="#C9DCFF"/>
<path d="M125.817 66.559C125.817 66.559 136.785 49.4617 132.688 40.5261C128.59 31.5906 126.936 18.1915 106 19.5C85.0639 20.8085 86 25.5 83.5 29.5C81 33.5 70.1289 59.9208 89.5 52.5C92.5 50.5 92.4821 42.3364 101.374 41.2147C110.265 40.0929 107.08 56.8925 112.237 52.4784C117.395 48.0643 121.789 45.62 120.586 52.1873C120.514 52.5819 125.817 66.559 125.817 66.559Z" fill="#0B1E57"/>
<path d="M101.902 68.8473C101.902 68.8473 106.643 72.2062 110.636 67.7732" stroke="black" stroke-linecap="round"/>
<path d="M96.7441 55.759C92.8441 58.812 92.4371 64.292 98.2201 63.423" stroke="#1F161E" stroke-linecap="round"/>
<path d="M119.877 47.2285C116.932 48.3004 115.413 51.557 116.485 54.5022C117.557 57.4474 120.814 58.9659 123.759 57.894C126.704 56.822 128.223 53.5654 127.151 50.6202C126.079 47.675 122.822 46.1565 119.877 47.2285Z" fill="#C9DCFF"/>
<path d="M78.8218 92.062C111.643 81.8728 145.096 88.1463 171.918 105.887C187.168 115.971 202.107 132.253 204.107 166.713C191.112 178.713 175.452 169.877 171.918 169.347C168.385 168.817 171.919 286.593 171.919 286.593L52.1628 286.594C52.1628 286.594 57.0718 175.158 57.1788 169.345C56.4651 169.219 54.4718 177.339 54.4718 177.339L52.1632 185.369L22.5625 162.41C24.2597 146.284 30.2533 130.908 39.918 117.887C50.3411 104.022 58.1653 98.4751 78.8218 92.062Z" fill="#78A9FF"/>
<path d="M22.8843 163.404C22.6751 199.87 28.6053 202.957 36.9791 218.676C102.1 241.357 147.5 197.439 147.5 197.439L161.301 206.183C161.301 206.183 170.622 213.148 173.448 213.717C178.664 214.764 167.209 208.832 169.104 207.677C170.999 206.523 181.283 216.701 180.802 213.361C180.322 210.02 182.175 212.6 183.709 212.865C185.243 213.13 179.574 204.895 179.574 204.895L187.037 212.033C188.343 202.74 158.772 186.349 151.158 185.279C134.027 182.871 94.3909 170.448 70.4717 179.77C71.2283 174.387 71.9176 165.803 72.514 164.771L22.8843 163.404Z" fill="#B7CFFC"/>
<path d="M23.5013 178.248C23.5013 178.248 24.7545 200.763 35.9725 218.276C42.6938 221.733 55.0004 223.496 55.0004 223.496" stroke="black" stroke-linecap="round"/>
<path d="M204.828 165.404C204.773 201.908 198.503 205.042 189.562 220.841C120.783 244.036 73.2815 200.411 73.2815 200.411L58.6725 209.272C58.6725 209.272 48.8005 216.314 45.8177 216.905C40.3155 217.992 52.428 211.968 50.4408 210.826C48.4536 209.685 37.5402 219.952 38.0725 216.604C38.6048 213.256 36.6311 215.847 35.0129 216.124C33.3947 216.401 39.4348 208.119 39.4348 208.119L31.518 215.32C30.212 206.027 61.4898 189.396 69.5228 188.267C87.5913 185.728 129.441 172.993 154.571 182.145C153.815 176.762 153.153 168.174 152.532 167.146L204.828 165.404Z" fill="#C9DCFF"/>
<path d="M156.914 183.327C156.914 183.327 140.685 174.237 111.003 180.299" stroke="black" stroke-linecap="round"/>
<path d="M199.124 139.808C199.124 139.808 206.176 162.367 204.273 181.743C202.723 195.787 199.14 203.531 199.14 203.531" stroke="black" stroke-linecap="round"/>
<path d="M152.277 145.56C152.277 145.56 152.3 164.617 153.437 173.88" stroke="#F2F2F2" stroke-linecap="round"/>
<path d="M75.0371 145.367C75.0371 145.367 73.3538 164.349 71.4133 173.478" stroke="#F2F2F2" stroke-linecap="round"/>
</g>
</svg>
