<svg width="220" height="220" viewBox="0 0 220 220" fill="none" xmlns="http://www.w3.org/2000/svg">
<rect width="220" height="220" fill="#F4F5F7"/>
<mask id="mask0" mask-type="alpha" maskUnits="userSpaceOnUse" x="0" y="0" width="220" height="220">
<rect width="220" height="220" fill="white"/>
</mask>
<g mask="url(#mask0)">
<rect opacity="0.22" x="135" y="100" width="85" height="120" fill="#D8DDE2"/>
<path d="M119.483 74.7722C117.238 75.2525 114.95 75.4939 112.655 75.4923C98.328 75.4923 86.2684 66.2151 82.6966 53.6046C78.3122 52.8627 75.0761 49.0691 75 44.5821C75.0592 40.4483 77.8264 36.8551 81.7804 35.7778C80.6044 34.2284 79.9666 32.3312 79.9655 30.3793C80.0821 25.1898 84.3417 21.0769 89.4828 21.1898C89.6952 21.1897 102.296 12 115.5 12C142 12 146.117 32.7125 146.172 35.3918C146.17 37.538 145.4 39.6111 144.005 41.2305C145.902 42.9287 146.992 45.3633 147 47.923C146.991 50.5396 145.853 53.0225 143.884 54.724C144.837 56.1752 145.345 57.8777 145.345 59.6187C145.238 64.6472 141.223 68.6967 136.241 68.7999V68.8082C136.125 73.9977 131.865 78.1106 126.724 77.9977C123.965 78.0136 121.331 76.8402 119.483 74.7722Z" fill="#0B1E57"/>
<path d="M100 102.255C100 105.862 121 105.968 121 102.255V73H100V102.255Z" fill="#C9DCFF"/>
<path d="M107 76.5309C108.894 76.5309 121 81.9617 121 85V69C117.98 69 107 76.5309 107 76.5309Z" fill="#78A9FF"/>
<path d="M98.5749 40.89C88.2094 44.6753 82.8648 56.175 86.6376 66.5753C90.4103 76.9755 101.872 82.3379 112.237 78.5525C122.603 74.7672 127.947 63.2675 124.174 52.8672C120.402 42.467 108.94 37.1046 98.5749 40.89Z" fill="#C9DCFF"/>
<path d="M122.355 51.7458C119.561 52.7662 118.12 55.8663 119.137 58.67C120.154 61.4737 123.244 62.9193 126.038 61.8988C128.833 60.8783 130.274 57.7783 129.257 54.9746C128.239 52.1709 125.15 50.7253 122.355 51.7458Z" fill="#C9DCFF"/>
<path d="M101.987 72.53C101.987 72.53 107.11 72.9471 110.093 70.7877" stroke="black" stroke-width="1.00056" stroke-linecap="round"/>
<path d="M95.8817 57C91.7088 59.6084 91.5169 69.7374 99 66.2936" stroke="#1F161E" stroke-linecap="round"/>
<path d="M123.544 51.1475C121.041 53.1148 116.702 60 116.702 60C116.702 60 119.039 47.2131 109.861 44.2074C100.683 41.2016 88.5023 47.3934 85.9993 51C83.9969 47.0656 85.9993 42.8418 85.9993 42.8418L102.129 30L132.999 44.2074C130.02 46.7394 126.86 49.0587 123.544 51.1475Z" fill="#0B1E57"/>
<path d="M59.9789 198.988C59.9789 198.988 32.6789 209.988 18.6789 204.488C7.8789 200.288 -20.2211 158.188 -18.0211 119.188C-16.3211 89.688 -20.1211 88.388 -20.1211 88.388C-20.1211 88.388 -37.5211 71.088 -41.0211 67.788C-44.5211 64.588 -29.0211 73.888 -29.0211 73.888C-29.0211 73.888 -31.3211 69.088 -42.8211 62.188C-43.9211 61.488 -39.8211 62.088 -34.0211 63.888C-31.6211 64.588 -39.0211 56.788 -36.3211 57.888C-25.6211 62.088 -24.3211 65.188 -22.6211 66.088C-17.9211 68.488 -14.8211 73.088 -11.9211 76.688C-2.4211 88.588 35.0789 128.088 35.0789 156.488C47.9789 151.188 53.3789 143.388 53.3789 143.388L59.9789 198.988Z" fill="#C9DCFF"/>
<path d="M197.079 175.988C197.079 175.988 218.779 195.888 219.879 210.888C220.779 222.388 194.979 265.988 158.779 280.788C131.479 291.988 144.079 228.988 169.679 216.788C159.379 207.388 149.979 205.888 149.979 205.888L197.079 175.988Z" fill="#C9DCFF"/>
<path d="M140.879 108.488C146.279 111.888 195.879 165.288 195.879 173.188C195.879 181.088 175.179 215.588 167.879 225.788C160.579 235.988 140.879 108.488 140.879 108.488Z" fill="#578AE4"/>
<path d="M116.88 90.788C130.18 94.188 149.98 106.688 156.88 123.488C180.08 179.988 172.68 280.888 169.88 286.488C166.08 294.088 65.2906 293.262 59.2906 286.488C52.7906 280.788 62.8906 130.662 93.7906 93.862C103.19 89.462 110.391 90.262 116.88 90.788Z" fill="#78A9FF"/>
<path d="M135.28 129.688C146.68 156.488 71.4795 210.988 60.8795 201.688C38.8795 182.488 44.1795 150.288 47.8795 147.888C54.2795 143.788 68.7795 127.688 82.8795 116.888C96.4795 106.388 108.68 104.688 111.88 103.488" fill="#78A9FF"/>
<path d="M89.8789 111.988C100.379 105.988 113.179 105.988 115.379 106.288" stroke="#1F161E" stroke-linecap="round" stroke-linejoin="round"/>
<path d="M70.8789 198.988C95.8789 193.888 124.079 164.888 131.879 152.988" stroke="#1F161E" stroke-linecap="round" stroke-linejoin="round"/>
<path d="M141.879 105.488C141.879 105.488 163.879 119.488 167.879 161.488" stroke="black" stroke-linecap="round"/>
</g>
</svg>
