<svg width="220" height="220" viewBox="0 0 220 220" fill="none" xmlns="http://www.w3.org/2000/svg">
<rect width="220" height="220" fill="#F4F5F7"/>
<mask id="mask0" mask-type="alpha" maskUnits="userSpaceOnUse" x="0" y="0" width="220" height="220">
<rect width="220" height="220" fill="white"/>
</mask>
<g mask="url(#mask0)">
<rect opacity="0.22" x="135" y="100" width="85" height="120" fill="#D8DDE2"/>
<path d="M65.5 56L87.2955 52.0512L82.0383 56.7207L66.2669 63.136L65.5 56Z" fill="#78A9FF"/>
<path d="M91.1724 105.252C91.1067 108.971 112.659 109.46 112.726 105.633L113.259 75.4844L91.7051 75.1036L91.1724 105.252Z" fill="#C9DCFF"/>
<path d="M98.6494 79.2308C100.62 79.2656 113.092 85.0255 113.037 88.1242L113.326 71.8059C110.195 71.7506 98.6494 79.2308 98.6494 79.2308Z" fill="#78A9FF"/>
<path d="M90.4796 42.3125C79.6949 46.0175 73.9608 57.7506 77.672 68.519C81.3832 79.2875 93.1344 85.0135 103.919 81.3086C114.704 77.6036 120.438 65.8705 116.727 55.1021C113.015 44.3336 101.264 38.6076 90.4796 42.3125Z" fill="#C9DCFF"/>
<path d="M103.076 70.9584C103.076 70.9584 100.229 73.3674 94.8516 72.2339" stroke="black" stroke-width="1.00045" stroke-linecap="round"/>
<path d="M116.701 52.8445C113.794 53.8432 112.249 57.0058 113.249 59.9084C114.249 62.811 117.417 64.3545 120.324 63.3558C123.231 62.3571 124.777 59.1945 123.776 56.2919C122.776 53.3893 119.608 51.8458 116.701 52.8445Z" fill="#C9DCFF"/>
<path d="M72.3841 65.55C72.3838 65.55 72.3839 65.55 72.3836 65.55C70.1159 65.5484 68.4377 65.1715 67.3957 64.4297C64.7865 62.5721 65.445 57.819 65.6759 56.5455L77.132 56.5532L77.1263 65.1C76.3241 65.2458 74.4011 65.5513 72.3841 65.55Z" fill="#C9DCFF"/>
<path fill-rule="evenodd" clip-rule="evenodd" d="M78.003 56.0043L65.3208 55.9958C65.3208 55.9958 63.8712 62.3655 67.1438 64.7272C68.5072 65.7111 70.6189 65.9994 72.6181 66.0007C75.4175 66.0026 77.9967 65.4423 77.9967 65.4423L78.003 56.0043ZM66.0055 59.5686C65.9757 58.5328 66.0956 57.5846 66.1951 56.9964L77.0024 57.0036L76.9973 64.6479C76.0448 64.7936 74.3797 65.0019 72.6514 65.0007C70.4624 64.9993 68.8615 64.6733 67.8931 64.0318C66.7199 63.2547 66.0672 61.7114 66.0055 59.5686Z" fill="#78A9FF"/>
<rect x="76.8926" y="56.0201" width="6" height="2" transform="rotate(0.0382365 76.8926 56.0201)" fill="#78A9FF"/>
<path d="M80.4991 64.5188C79.9723 66.3169 76.8529 74.2485 83.2428 74.8332" stroke="#1F161E" stroke-width="1.00045" stroke-linecap="round"/>
<path d="M96.9342 56.1855L118.834 53.0496L113.587 57.7194L96 64.5L96.9342 56.1855Z" fill="#78A9FF"/>
<path d="M110.258 69.8121C110.258 69.8121 127.848 61.5201 127.597 48.7041C127.346 35.8881 117.546 21.7331 92.669 25.6701C86.806 26.5081 62.264 31.7011 42.161 25.0001C41.7967 28.6742 42.0516 32.3833 42.915 35.9731C43.25 37.2291 71.394 40.1611 71.394 40.1611C71.394 40.1611 45.512 39.5751 46.601 40.9151C51.543 47.1971 66.955 51.8881 76.671 51.3851C91.497 51.3011 99.035 40.4961 102.889 46.8621C106.743 53.2281 105.653 58.0861 105.653 58.0861C106.667 56.2461 107.874 54.5194 109.253 52.9351C110.928 51.2601 111.26 50.9671 112.353 51.3851C116.62 53.0601 110.258 69.8121 110.258 69.8121Z" fill="#0B1E57"/>
<path d="M88.4093 65.5363C85.779 65.5363 83.2864 65.1743 82.3164 65.0148V55.5363H96.9735C97.2577 56.9249 98.0879 62.2029 94.8198 64.262C93.4777 65.1075 91.3209 65.5363 88.4093 65.5363Z" fill="#C9DCFF"/>
<path fill-rule="evenodd" clip-rule="evenodd" d="M97.6086 56H81.9998V65.438C81.9998 65.438 85.1738 66 88.6191 66C91.0797 66 93.6789 65.7132 95.3578 64.7302C99.3875 62.3707 97.6086 56 97.6086 56ZM82.9998 64.6148V57H96.7634C96.8839 57.5823 97.0316 58.5336 96.9937 59.5728C96.9401 61.0444 96.4998 63.0029 94.7065 63.9764C93.473 64.6461 91.3588 65 88.5924 65C86.3281 65 84.1569 64.7651 82.9998 64.6148Z" fill="#78A9FF"/>
<path d="M142.73 105.923C92.5599 85.395 13.0249 97.15 13.0249 97.15L9.00586 139.167C9.00586 139.167 48.5589 146.895 52.1249 146.675C55.6909 146.455 24.2349 257.195 27.0919 259.923C29.9489 262.651 151.383 279.137 159.171 277.46C159.601 271.76 157.16 190.598 157.56 184.798C158.282 184.735 159.56 192.998 159.56 192.998L161.16 201.198L212.56 199.398C212.56 199.398 192.9 126.442 142.73 105.923Z" fill="#78A9FF"/>
<path d="M11.9979 138.915C-9.50306 135.4 -13.1711 136.521 -34.9939 122.074C-47.596 60.7371 -4.58457 37.6704 -4.58457 37.6704L-10.6298 24.2263C-10.6298 24.2263 -15.6185 15.0304 -15.8091 12.4109C-16.1602 7.58348 -12.279 18.5917 -11.0926 17.0111C-9.90608 15.4305 -11.0895 10.2491 -11.0895 10.2491C-11.0895 10.2491 -14.7281 -4.31529 -9.81829 2.64828C-4.90852 9.61185 6.09168 28.7364 6.21058 35.7304C6.47814 51.4694 12.3197 75.6441 1.83194 96.1963C6.52094 96.1166 12.5715 97.6332 13.5175 97.209L11.9979 138.915Z" fill="#C9DCFF"/>
<path d="M209.226 199.366C209.226 199.366 215.894 213.624 209.228 239.948C157.074 274.651 107.729 248.896 107.729 248.896L97.5293 259.543C97.5293 259.543 90.8732 267.62 88.5154 268.779C84.1703 270.916 83.1991 271.279 76.241 270.653C73.0795 263.196 95.439 242.347 101.88 239.612C116.376 233.458 141.123 211.992 164.116 214.007C162.281 209.685 163.113 201.116 163.113 201.116L209.226 199.366Z" fill="#C9DCFF"/>
<path d="M134.093 114.007C134.093 114.007 112.359 123.751 95.5239 110.191" stroke="black" stroke-linecap="round"/>
<path d="M163.161 201.262C163.027 203.719 163.027 206.18 163.161 208.637C163.233 210.258 163.536 211.86 164.061 213.395C164.061 213.395 144.561 213.895 129.061 224.145" stroke="black" stroke-linecap="round" stroke-linejoin="round"/>
<path d="M158.061 184.895C158.061 184.895 156.061 170.145 146.061 153.145" stroke="black" stroke-linecap="round"/>
</g>
</svg>
