<svg width="220" height="220" viewBox="0 0 220 220" fill="none" xmlns="http://www.w3.org/2000/svg">
<rect width="220" height="220" fill="#F4F5F7"/>
<mask id="mask0" mask-type="alpha" maskUnits="userSpaceOnUse" x="0" y="0" width="220" height="220">
<rect width="220" height="220" fill="white"/>
</mask>
<g mask="url(#mask0)">
<rect opacity="0.22" x="135" y="100" width="85" height="120" fill="#D8DDE2"/>
<path d="M8.31464 183.642C0.544509 182.391 -7.42212 183.555 -14.5098 186.979C-19.7928 189.622 -26.4001 193.601 -26.6185 194.363C-26.9825 195.633 -21.1654 193.587 -22.8741 194.363C-23.3724 194.587 -26.086 195.733 -25.7675 195.916C-24.1718 196.741 -20.7425 197.952 -18.0814 197.616C-9.37271 196.632 -7.33169 192.683 -7.33169 192.683C-7.33169 192.683 -13.7062 197.668 -13.4423 199.943C-13.006 201.048 -5.04623 196.835 -5.04623 196.835C-5.04623 196.835 0.316865 196.13 2.80062 193.609C2.4633 192.229 27.4043 197.07 27.4043 197.07L21.7853 183.278L8.31464 183.642Z" fill="#C9DCFF"/>
<path d="M95.8995 115.001C114.066 131.665 112.927 178.007 92.9011 196.217C72.8748 214.427 21.4887 196.925 8.55775 194.117C8.99758 190.151 9.8788 187.949 12.0794 183.543C49.9392 167.241 68.8697 170.326 68.8697 170.326C68.8697 170.326 59.2092 142.106 64.0272 115.001C69.3646 100.458 77.7329 98.336 95.8995 115.001Z" fill="#78A9FF"/>
<path d="M71.7725 174.124C71.7725 174.124 64.9074 165.626 31.0879 176.287" stroke="black" stroke-linecap="round"/>
<path d="M120.149 76.5334C109.818 73.5789 93.9476 75.647 86.0262 80.0532C68.633 91.9477 59.1631 113.537 64.0036 138.649C68.8441 163.761 70.1592 191.085 70.1592 191.085C70.1592 191.085 66.382 220.755 66.9527 222.368C72.7874 265.558 162.392 259.584 166.854 239.523C173.829 207.363 172.809 89.9335 120.149 76.5334Z" fill="white"/>
<path d="M109.815 142.569C105.89 190.151 119.941 250.95 117.74 267.252C115.538 283.553 169.247 280.028 170.127 260.202C171.008 240.377 171.008 181.78 166.165 160.192C164.001 150.543 154.035 131.701 155.6 112.61C175.41 114.373 174.282 71.6369 160.855 67.2311C163.497 80.7418 153.553 80.8484 139.9 88.3787C131.915 92.7844 113.738 94.9873 109.815 142.569Z" fill="#78A9FF"/>
<path d="M61.7933 118.811C56.5516 159.134 60.2231 237.455 55.7584 249.091C51.4981 260.195 76.4795 259.127 76.6822 258.462C83.1428 237.607 85.4454 220.774 82.8579 179.739C80.2704 138.704 84.9605 85.1505 76.7083 87.7937C68.456 90.4369 64.2623 102.769 61.7933 118.811Z" fill="#78A9FF"/>
<path d="M160.882 67.2311C151.087 64.1471 126.434 68.0022 111.906 75.1615C132.927 77.8049 140.852 89.0395 140.852 89.0395C140.852 89.0395 170.014 79.8976 160.882 67.2311Z" fill="#578AE4"/>
<path d="M58.8904 177.668C58.8904 177.668 60.064 212.326 58.8904 223.488" stroke="black" stroke-linecap="round"/>
<path d="M75.4753 217.467L61.7084 233.888L59.627 247.426" stroke="black" stroke-linecap="round"/>
<path d="M150.186 153.823C150.186 153.823 161.845 139.135 181.088 140.742C185.731 145.673 191.653 151.606 195.528 157.988C216.633 192.744 226.169 246.924 226.169 246.924L237.864 252.827C237.864 252.827 246.454 256.386 248.049 258.088C250.992 261.226 242.153 255.793 242.219 257.551C242.285 259.309 254.942 266.665 252.828 268.036C247.317 272.663 219.952 254.324 215.956 249.558C206.965 238.834 195 227.031 183.432 207.696C171.864 188.362 169.701 172.205 169.701 172.205L150.186 153.823Z" fill="#C9DCFF"/>
<path d="M113.188 131.263C113.188 131.263 150.585 169.805 170.712 178.844C170.804 185.948 180.397 212.915 202.311 233.182C206.226 231.126 220.898 227.307 220.018 215.558C218.63 194.891 208.649 164.592 202.313 156.04C195.976 147.487 163.829 100.273 145.18 93.9577C126.531 87.6422 113.188 131.263 113.188 131.263Z" fill="#78A9FF"/>
<path d="M164.842 109.086C164.842 109.086 156.918 96.7496 144.151 100.715C131.384 104.68 130.504 122.303 130.504 122.303" stroke="black" stroke-linecap="round" stroke-linejoin="round"/>
<path d="M154.275 162.615L171.224 180.238C171.224 180.238 171.885 192.354 183.771 209.757" stroke="black" stroke-linecap="round" stroke-linejoin="round"/>
<path d="M115.425 63.1326C115.425 63.1326 129.696 68.0612 130 52C130.304 35.9389 127.28 34.11 115.5 29.5C102.78 27.11 98.1858 41.7497 92.4998 31.5C86.6527 18.9247 77.0602 25.2249 82.7642 39.435C88.6566 51.4668 112.479 40.389 115.425 63.1326Z" fill="#0B1E57"/>
<path d="M95.5085 83.53C95.1837 86.6143 114.168 84.5928 114 83.5L115.963 66.434L98.1387 64.5567L95.5085 83.53Z" fill="#C9DCFF"/>
<path d="M103.588 68.4837C105.217 68.6553 115.129 74.3367 114.858 76.9027L116.282 63.3873C113.692 63.1146 103.588 68.4837 103.588 68.4837Z" fill="#78A9FF"/>
<path d="M99.5038 37.2671C90.3024 39.5592 84.7013 48.8765 86.9934 58.0779C89.2855 67.2793 98.6028 72.8804 107.804 70.5883C117.006 68.2962 122.607 58.9789 120.315 49.7775C118.023 40.5761 108.705 34.975 99.5038 37.2671Z" fill="#C9DCFF"/>
<path d="M95.1799 50.8457C94.6146 52.3011 91.4541 58.6529 96.7029 59.6002" stroke="#1F161E" stroke-width="1.00045" stroke-linecap="round"/>
<path d="M101.904 64.5674C101.904 64.5674 109.125 64.9214 109.589 58.9207" stroke="black" stroke-width="1.00045" stroke-linecap="round"/>
<path d="M120.584 46.4511C118.104 47.069 116.594 49.5804 117.212 52.0607C117.83 54.5409 120.341 56.0507 122.822 55.4328C125.302 54.815 126.812 52.3035 126.194 49.8233C125.576 47.3431 123.065 45.8333 120.584 46.4511Z" fill="#C9DCFF"/>
<path d="M84.8518 42.0537C87.074 44.7372 90.3847 46.2797 93.8687 46.2549C100.066 46.4313 112.652 43.1006 115.001 45.5C120.733 46.8549 116.501 60 116.501 60L118.82 55.0161L119.824 46.3288L112.981 32.5716L92.5013 37L84.8518 42.0537Z" fill="#0B1E57"/>
<path d="M91.0664 81.7931C100.021 86.7813 110.991 86.4351 119.614 80.8922" stroke="black" stroke-linecap="round"/>
</g>
</svg>
