<svg width="220" height="220" viewBox="0 0 220 220" fill="none" xmlns="http://www.w3.org/2000/svg">
<rect width="220" height="220" fill="#F4F5F7"/>
<mask id="mask0" mask-type="alpha" maskUnits="userSpaceOnUse" x="0" y="0" width="220" height="220">
<rect width="220" height="220" fill="white"/>
</mask>
<g mask="url(#mask0)">
<rect opacity="0.22" x="135" y="100" width="85" height="120" fill="#D8DDE2"/>
<path d="M76.404 48.59C76.404 48.59 70.294 38.016 81.93 30.312C93.566 22.608 117.212 31.8 117.212 31.8V75.583L121.675 98.538H92.557L76.404 48.59Z" fill="#0B1E57"/>
<path d="M89.3046 97.6674C89.2408 101.28 110.153 101.755 110.219 98.0369L110.736 68.7393L89.8223 68.3698L89.3046 97.6674Z" fill="#C9DCFF"/>
<path d="M96.5595 72.3801C98.4711 72.4139 110.569 78.0109 110.515 81.0218L110.796 65.1641C107.761 65.1105 96.5595 72.3801 96.5595 72.3801Z" fill="#78A9FF"/>
<path d="M88.6339 36.5035C78.1694 40.1043 72.6052 51.5064 76.2059 61.971C79.8066 72.4355 91.2088 77.9997 101.673 74.399C112.138 70.7983 117.702 59.3961 114.101 48.9315C110.501 38.467 99.0985 32.9028 88.6339 36.5035Z" fill="#C9DCFF"/>
<path d="M83.1572 54.2991C82.2382 55.8737 77.442 62.618 83.3151 64.6693" stroke="#1F161E" stroke-width="1.00045" stroke-linecap="round"/>
<path d="M100.002 67.7389C100.002 67.7389 97.2394 70.0809 92.0234 68.9819" stroke="black" stroke-width="1.00045" stroke-linecap="round"/>
<path d="M114.077 46.7366C111.256 47.7072 109.756 50.7808 110.727 53.6016C111.697 56.4224 114.771 57.9223 117.592 56.9517C120.412 55.9811 121.912 52.9075 120.942 50.0867C119.971 47.2659 116.898 45.766 114.077 46.7366Z" fill="#78A9FF"/>
<path d="M82.7824 36.05C78.7444 42.426 83.4204 46.465 91.4964 50.927C99.5724 55.389 111.05 56.453 111.05 61.767V70.906C111.05 70.906 118.276 61.554 114.026 47.106C109.776 32.658 86.8204 29.674 82.7824 36.05Z" fill="#0B1E57"/>
<path fill-rule="evenodd" clip-rule="evenodd" d="M162.226 114.476C150.837 105.375 126.739 90.9476 101.161 90.9476C98.0046 90.9476 95.8567 90.8345 94.177 90.7461C93.0783 90.6882 92.1799 90.6409 91.3305 90.6427C87.7043 90.6416 84.971 91.5244 71.3043 96.2773C49.9422 106.072 40.3652 126.993 39.7958 163.397C39.1033 172.039 39.5327 210.099 40.8288 245.904L36.0022 256.298L41.3549 259.211C42.1396 277.268 43.1498 293.65 44.3491 303.889C56.2539 314.791 60.8789 296.476 62.2296 270.556L65.988 272.604C65.988 272.604 73.3588 267.869 76.0216 224.996C76.5268 224.74 77.0554 224.533 77.6001 224.377C80.6085 223.507 84.7186 222.986 89.5466 222.375C92.1555 222.045 94.9741 221.688 97.9418 221.235L101.294 279.999C101.294 279.999 116.829 283.211 127.819 277.268C131.379 275.327 134.803 273.148 138.069 270.746L146.851 282.274C169.014 267.867 199.24 193.54 199.24 193.54C199.24 193.54 173.615 123.577 162.226 114.476ZM153.934 169.707C152.13 177.386 150.86 197.211 162.226 210.604C157.538 216.697 153.484 223.251 150.125 230.164L138.311 201.504L137.542 199.641C139.242 196.518 141.118 193.004 143.002 189.475C147.26 181.499 151.555 173.453 153.934 169.707Z" fill="#78A9FF"/>
<path d="M81.6912 92.72C81.6912 92.72 86.3811 119.444 83.584 140.445C78.5216 178.455 75.1016 226.168 75.1016 226.168L98.483 228.548C98.483 228.548 100.199 181.093 105.472 147.465C110.745 113.838 124.868 94.3092 124.868 94.3092C124.868 94.3092 112.53 89 99.4328 89C86.3356 89 81.6912 92.72 81.6912 92.72Z" fill="white"/>
<path d="M133.21 110.164L141.903 129.617C141.903 129.617 120.719 123.317 119.189 132.318C118.406 136.92 133.21 149.61 133.21 149.61C121.675 160.364 113.271 174.038 108.889 189.178" stroke="#F2F2F2" stroke-linecap="round" stroke-linejoin="round"/>
<path d="M65.9182 107.315L53.3655 124.534C53.3655 124.534 75.3947 122.773 75.0174 131.894C74.8244 136.557 61.4471 149.759 61.4471 149.759C61.4471 149.759 73.141 159.949 75.0117 186.163" stroke="#F2F2F2" stroke-width="0.999874" stroke-linecap="round" stroke-linejoin="round"/>
<path d="M135.844 267.674C156.344 204.726 170.01 197.9 185.955 192.591" stroke="#F2F2F2" stroke-linecap="round" stroke-linejoin="round"/>
<path opacity="0.293876" d="M119.553 92.2229L91.0462 169.08L84.2129 90.6371" stroke="#0B1E57"/>
<g opacity="0.4">
<path d="M91.0458 189.557C93.5618 189.557 95.6013 184.973 95.6013 179.319C95.6013 173.664 93.5618 169.08 91.0458 169.08C88.5298 169.08 86.4902 173.664 86.4902 179.319C86.4902 184.973 88.5298 189.557 91.0458 189.557Z" fill="white"/>
<path fill-rule="evenodd" clip-rule="evenodd" d="M91.0467 188.988C93.2481 188.988 95.0328 184.659 95.0328 179.319C95.0328 173.978 93.2481 169.649 91.0467 169.649C88.8452 169.649 87.0605 173.978 87.0605 179.319C87.0605 184.659 88.8452 188.988 91.0467 188.988Z" stroke="#0B1E57"/>
</g>
<path d="M57.4488 153.722C57.4488 153.722 41.7891 167.374 57.4488 178.75C59.1753 191.548 60.8655 202.64 60.8655 202.64L49.4766 231.649" stroke="#F2F2F2" stroke-linecap="round"/>
</g>
</svg>
