<svg width="220" height="220" viewBox="0 0 220 220" fill="none" xmlns="http://www.w3.org/2000/svg">
<rect width="220" height="220" fill="#F4F5F7"/>
<mask id="mask0" mask-type="alpha" maskUnits="userSpaceOnUse" x="0" y="0" width="220" height="220">
<rect width="220" height="220" fill="white"/>
</mask>
<g mask="url(#mask0)">
<rect opacity="0.22" x="135" y="100" width="85" height="120" fill="#D8DDE2"/>
<path d="M101.443 101.565C101.443 105.25 122.771 105.357 122.771 101.565V71.688H101.443V101.565Z" fill="#C9DCFF"/>
<path d="M108.385 75.656C110.335 75.656 122.773 81.144 122.773 84.215V68.043C119.673 68.043 108.385 75.656 108.385 75.656Z" fill="#78A9FF"/>
<path d="M99.6579 39.2216C89.0541 43.081 83.5868 54.8058 87.4462 65.4095C91.3057 76.0133 103.03 81.4806 113.634 77.6212C124.238 73.7617 129.705 62.037 125.846 51.4332C121.986 40.8294 110.262 35.3621 99.6579 39.2216Z" fill="#C9DCFF"/>
<path d="M105.756 70.8317C105.756 70.8317 114.978 71.3731 115.288 60.3887" stroke="black" stroke-linecap="round"/>
<path d="M122.772 70.258C122.772 70.258 142.135 59.522 139.001 47C135.867 34.478 149.209 34.574 142.501 22.5C135.793 10.426 128.895 27.943 119.501 19C110.107 10.057 103.444 3.321 94.5011 14.5C85.5581 25.679 89.6801 27.39 78.5011 26.5C67.3221 25.61 57.5541 27.927 58.0011 40C58.4481 52.073 70.5011 50 77.0011 43C83.1759 36.3502 87.9121 52.652 87.9121 52.652C87.9121 52.652 90.1481 41.026 100.88 40.131C111.612 39.236 116.531 42.814 116.531 42.814C116.531 42.814 117.598 58.648 119.661 59.806C122.117 61.185 123.699 51.583 126.369 52.651C130.84 54.444 122.772 70.258 122.772 70.258Z" fill="#0B1E57"/>
<path d="M120.6 50.293C117.742 51.3335 116.268 54.4938 117.308 57.3518C118.348 60.2098 121.509 61.6832 124.367 60.6428C127.226 59.6024 128.7 56.4421 127.659 53.5841C126.619 50.7261 123.459 49.2526 120.6 50.293Z" fill="#C9DCFF"/>
<path d="M97.5873 54.963C93.3793 58.263 92.9383 64.174 99.1803 63.236" stroke="#1F161E" stroke-linecap="round"/>
<path d="M83.7061 165.142C70.3888 181.123 51.9416 194.212 37.6784 201.646C0.943912 195.645 -38.8462 130.279 -38.8462 130.279L-53.9739 129.812C-53.9739 129.812 -64.7047 130.283 -67.2 129.282C-71.8134 127.434 -59.9074 128.803 -60.8329 126.994C-61.7584 125.185 -69.9487 122.228 -77.0588 121.199C-73.5496 113.65 -42.287 116.39 -35.7817 119.427C-21.1342 126.266 21.0264 153.963 27.8605 165.142C31.6588 161.105 39.207 150.955 44.4916 145.672C61.8701 162.371 78.6364 160.604 83.7061 165.142Z" fill="#C9DCFF"/>
<path d="M69.2338 162.245L52.4154 154.402L39.5137 148.634C39.5137 148.634 43.9106 120.144 61.055 104.111C78.1994 88.0774 93.3094 86.6932 109.626 87.045C166.263 89.9137 194.099 124.385 196.214 128.762C207.348 139.893 171.255 167.596 171.255 167.596L156.855 164.136V215.081L164.919 268.717H57.7881L69.2338 162.245Z" fill="#78A9FF"/>
<g opacity="0.55">
<path opacity="0.346982" d="M190.204 145.936L182.586 122.098L162.589 133.54L155.922 108.749L130.213 122.098" stroke="white" stroke-width="5" stroke-linecap="round" stroke-linejoin="round"/>
<path opacity="0.346982" d="M135.057 210.305L110.63 204.992L110.528 228.055L85.7527 221.44L84.4424 250.41" stroke="white" stroke-width="5" stroke-linecap="round" stroke-linejoin="round"/>
<path opacity="0.346982" d="M94.8848 170.637L68.751 190.557" stroke="white" stroke-width="5" stroke-linecap="round" stroke-linejoin="round"/>
<path opacity="0.346982" d="M147.055 177.018L120.717 167.916" stroke="white" stroke-width="5.00072" stroke-linecap="round" stroke-linejoin="round"/>
<path opacity="0.346982" d="M103.461 107.932L92.4602 122.734" stroke="white" stroke-width="5.00059" stroke-linecap="round" stroke-linejoin="round"/>
<path opacity="0.346982" d="M141.279 202.145L129.847 187.677" stroke="white" stroke-width="5" stroke-linecap="round" stroke-linejoin="round"/>
<path opacity="0.346982" d="M95.502 192.932L84.5012 207.734" stroke="white" stroke-width="5.00059" stroke-linecap="round" stroke-linejoin="round"/>
<path opacity="0.346982" d="M151.98 146.972L144.677 130.035" stroke="white" stroke-width="5" stroke-linecap="round" stroke-linejoin="round"/>
<path opacity="0.346982" d="M80.1133 159.84L73.7053 142.543" stroke="white" stroke-width="5" stroke-linecap="round" stroke-linejoin="round"/>
<path opacity="0.346982" fill-rule="evenodd" clip-rule="evenodd" d="M111.077 154.028C116.716 154.028 121.287 149.451 121.287 143.805C121.287 138.159 116.716 133.582 111.077 133.582C105.438 133.582 100.867 138.159 100.867 143.805C100.867 149.451 105.438 154.028 111.077 154.028Z" stroke="white" stroke-width="3"/>
<path opacity="0.346982" fill-rule="evenodd" clip-rule="evenodd" d="M68.4558 130.959C74.0944 130.959 78.6654 126.381 78.6654 120.735C78.6654 115.089 74.0944 110.512 68.4558 110.512C62.8171 110.512 58.2461 115.089 58.2461 120.735C58.2461 126.381 62.8171 130.959 68.4558 130.959Z" stroke="white" stroke-width="3"/>
<path opacity="0.346982" fill-rule="evenodd" clip-rule="evenodd" d="M68.7387 226.307C72.1799 226.307 74.9695 223.514 74.9695 220.068C74.9695 216.623 72.1799 213.829 68.7387 213.829C65.2975 213.829 62.5078 216.623 62.5078 220.068C62.5078 223.514 65.2975 226.307 68.7387 226.307Z" stroke="white" stroke-width="3"/>
<path opacity="0.346982" fill-rule="evenodd" clip-rule="evenodd" d="M198.618 180.591C202.059 180.591 204.848 177.798 204.848 174.352C204.848 170.906 202.059 168.113 198.618 168.113C195.176 168.113 192.387 170.906 192.387 174.352C192.387 177.798 195.176 180.591 198.618 180.591Z" stroke="white" stroke-width="3"/>
</g>
<path d="M197.292 131.622C217.79 145.391 219.252 147.584 229.784 163.527C227.26 207.702 155.104 262.837 155.104 262.837L156.425 280.779C156.425 280.779 158.309 293.408 157.436 296.489C155.827 302.171 152.059 304.6 151.546 306.251C151.032 307.903 146.161 298.276 146.161 298.276L149.125 309.145C139.792 305.925 139.149 268.63 141.928 260.557C148.179 242.392 175.618 189.118 187.954 179.655C182.724 175.664 176.611 174.094 169.726 168.5C187.268 145.887 192.569 138.178 197.292 131.622Z" fill="#C9DCFF"/>
<path d="M196.024 129.91C196.024 129.91 226.258 153.921 229.658 163.115C233.058 172.309 214.962 200.481 214.962 200.481" stroke="black" stroke-linecap="round"/>
<path d="M202.751 172.444C202.751 172.444 189.076 169.552 174.137 198.003" stroke="black" stroke-linecap="round"/>
<path d="M67.1601 173.659L58.7129 249.403" stroke="#1F161E" stroke-linecap="round"/>
<path d="M140.92 146.448C140.92 146.448 148.215 161.059 170.102 168.364" stroke="black" stroke-linecap="round"/>
</g>
</svg>
