<svg width="220" height="220" viewBox="0 0 220 220" fill="none" xmlns="http://www.w3.org/2000/svg">
<rect width="220" height="220" fill="#F4F5F7"/>
<mask id="mask0" mask-type="alpha" maskUnits="userSpaceOnUse" x="0" y="0" width="220" height="220">
<rect width="220" height="220" fill="white"/>
</mask>
<g mask="url(#mask0)">
<rect opacity="0.22" x="135" y="100" width="85" height="120" fill="#D8DDE2"/>
<path d="M110.408 109.337C110.408 113.073 132.167 113.183 132.167 109.337V79.0387H110.408V109.337Z" fill="#C9DCFF"/>
<path d="M117.488 83.0611C119.477 83.0611 132.166 88.6294 132.166 91.7401V75.3407C129.003 75.3407 117.488 83.0611 117.488 83.0611Z" fill="#78A9FF"/>
<path d="M108.587 46.1148C97.77 50.0286 92.1925 61.9185 96.1297 72.6716C100.067 83.4248 112.028 88.9691 122.845 85.0553C133.663 81.1415 139.24 69.2516 135.303 58.4985C131.366 47.7454 119.405 42.201 108.587 46.1148Z" fill="#C9DCFF"/>
<path d="M114.283 77.2853C114.283 77.2853 119.53 78.8062 122.034 74.5645" stroke="black" stroke-linecap="round"/>
<path d="M128.828 81.3535V135.945C128.828 135.945 141.292 128.046 144.68 117.507C148.067 106.969 140.126 96.2756 142.373 93.7688C145.14 90.6876 152.275 90.3022 153.906 85.6521C158.319 73.0304 151.833 68.4906 151.207 66.0754C148.309 54.9005 157.417 55.1822 151.207 44.4058C144.997 33.6293 137.523 41.6107 128.828 33.6293C120.133 25.648 95.7817 30.2632 99.7303 53.1819C112.113 69.8947 131.736 65.1212 134.209 66.0743C138.349 67.6673 128.828 81.3535 128.828 81.3535Z" fill="#0B1E57"/>
<path d="M103.439 66.2186C99.8595 70.3189 100.565 76.2926 106.635 74.1439" stroke="#1F161E" stroke-linecap="round"/>
<path d="M132.833 60.205C129.917 61.26 128.414 64.4647 129.475 67.3631C130.536 70.2614 133.76 71.7558 136.676 70.7009C139.592 69.646 141.095 66.4412 140.034 63.5429C138.972 60.6445 135.748 59.1501 132.833 60.205Z" fill="#C9DCFF"/>
<path d="M100.978 102.868C96.1854 105.071 83.5352 109.19 67.0464 117.715C54.7757 124.037 34.6449 137.159 34.6449 137.159C34.6449 137.159 26.017 125.952 17.0061 120.59C3.2014 112.353 -21.8187 104.594 -26.4197 103.827C-29.2001 106.605 -33.5136 111.107 -32.4582 112.544C-31.4028 113.98 9.81763 160.355 37.5227 159.78C65.2277 159.206 90.2469 149.819 94.0827 145.604C94.0827 145.604 105.771 100.666 100.978 102.868Z" fill="#78A9FF"/>
<path d="M119.71 99.1132C106.768 97.006 98.0108 104.113 90.533 114.841C86.507 120.588 78.0711 127.292 76.3452 136.009C74.7157 144.63 78.4542 149.803 78.7417 159.573C80.4676 184.859 88.5195 205.549 90.533 207.848C91.4619 208.885 90.4512 232.426 94.5 233.5C111.763 238.079 154.559 219.667 158.052 215.555C161.684 211.28 169.102 126.785 145.847 105.117C141.683 101.236 125.193 99.3257 119.71 99.1132Z" fill="#78A9FF"/>
<path d="M85.5485 120.972C76.7287 134.286 73.6617 131.891 78.9341 155.071" stroke="white" stroke-linecap="round" stroke-linejoin="round"/>
<path fill-rule="evenodd" clip-rule="evenodd" d="M110.184 120.014C111.597 119.98 112.836 120.953 113.137 122.333C113.438 123.713 112.716 125.112 111.417 125.668C110.117 126.225 108.606 125.781 107.813 124.611C107.021 123.442 107.171 121.875 108.171 120.876C108.694 120.324 109.423 120.012 110.184 120.014V120.014Z" stroke="white"/>
<path fill-rule="evenodd" clip-rule="evenodd" d="M110.184 131.891C111.597 131.857 112.836 132.83 113.137 134.21C113.438 135.59 112.716 136.989 111.417 137.545C110.117 138.102 108.606 137.658 107.813 136.488C107.021 135.319 107.171 133.752 108.171 132.753C108.694 132.2 109.423 131.889 110.184 131.891Z" stroke="white"/>
<path fill-rule="evenodd" clip-rule="evenodd" d="M110.184 143.865C111.597 143.83 112.836 144.803 113.137 146.183C113.438 147.563 112.716 148.963 111.417 149.519C110.117 150.075 108.606 149.632 107.813 148.462C107.021 147.292 107.171 145.725 108.171 144.726C108.694 144.174 109.423 143.862 110.184 143.865V143.865Z" stroke="white"/>
<path d="M8.47266 146.274C8.47266 146.274 24.5774 159.684 34.5473 159.684C40.5323 159.68 46.5032 159.102 52.378 157.959" stroke="black" stroke-linecap="round" stroke-linejoin="round"/>
<path d="M140.671 104.21C157.734 101.238 185.972 164.416 182.426 174.187C182.426 198.231 158.406 238.5 158.406 238.5C158.406 238.5 148.436 229.113 145.656 226.814C146.902 224.706 154.327 187.829 161.421 175.186C152.026 167.906 129.994 145.31 127.501 132C125.008 118.69 123.511 107.175 140.671 104.21Z" fill="#78A9FF"/>
<path d="M167.706 170.78C167.706 170.78 158.311 170.78 155.34 194.343" stroke="white" stroke-linecap="round"/>
<path d="M161.475 174.707C155.926 171.519 151.017 167.33 147 162.351" stroke="white" stroke-linecap="round"/>
<path fill-rule="evenodd" clip-rule="evenodd" d="M118.429 124.19L115.266 99.7646L131.754 95.6456L134.729 104.741L118.429 124.19Z" stroke="black" stroke-linecap="round" stroke-linejoin="round"/>
<path d="M114.978 101.563L109.993 115.356L104.721 94.9577L109.993 93.5168" stroke="black" stroke-linecap="round" stroke-linejoin="round"/>
<path fill-rule="evenodd" clip-rule="evenodd" d="M104.626 94.9541L99.3535 113.536L108.265 108.46L104.626 94.9541Z" stroke="black" stroke-linecap="round" stroke-linejoin="round"/>
</g>
</svg>
