<svg width="220" height="220" viewBox="0 0 220 220" fill="none" xmlns="http://www.w3.org/2000/svg">
<rect width="220" height="220" fill="#F4F5F7"/>
<mask id="mask0" mask-type="alpha" maskUnits="userSpaceOnUse" x="0" y="0" width="220" height="220">
<rect width="220" height="220" fill="white"/>
</mask>
<g mask="url(#mask0)">
<rect opacity="0.22" x="135" y="100" width="85" height="120" fill="#D8DDE2"/>
<path d="M88.9178 96.7793C88.8516 100.529 110.556 101.022 110.624 97.1628L111.161 66.7538L89.4551 66.3703L88.9178 96.7793Z" fill="#C9DCFF"/>
<path d="M96.4471 70.5333C98.4317 70.5684 110.992 76.3777 110.937 79.5026L111.227 63.0437C108.072 62.988 96.4471 70.5333 96.4471 70.5333Z" fill="#78A9FF"/>
<path d="M88.2209 33.2952C77.3593 37.0325 71.584 48.8674 75.3213 59.729C79.0587 70.5906 90.8935 76.3659 101.755 72.6286C112.617 68.8912 118.392 57.0564 114.655 46.1947C110.917 35.3331 99.0826 29.5578 88.2209 33.2952Z" fill="#C9DCFF"/>
<path d="M76.989 55.3948C76.4589 57.2118 73.3212 65.2078 79.7521 65.7987" stroke="#1F161E" stroke-width="1.00045" stroke-linecap="round"/>
<path d="M93.9997 65.986C93.9997 65.986 102.752 65.65 102.677 58.3597" stroke="black" stroke-width="1.00045" stroke-linecap="round"/>
<path d="M114.195 61.0507C114.195 61.0507 125.463 44.1498 121.524 35.1433C117.586 26.1367 110.849 23.5529 98.6159 21.8813C86.3824 20.2098 70.9508 22.0749 73.0002 29.5001C75.0497 36.9253 55.3762 55.1916 74.8755 48.1141C83.912 45.2247 81.2932 36.243 90.2032 35.2785C99.1132 34.314 95.6316 51.0547 100.866 46.7324C106.101 42.4101 110.537 40.0438 109.219 46.5889C109.14 46.9821 114.195 61.0507 114.195 61.0507Z" fill="#0B1E57"/>
<path d="M110.628 42.9168C107.7 43.9243 106.144 47.1145 107.151 50.0425C108.158 52.9704 111.349 54.5272 114.277 53.5197C117.205 52.5123 118.761 49.322 117.754 46.3941C116.746 43.4662 113.556 41.9093 110.628 42.9168Z" fill="#C9DCFF"/>
<path fill-rule="evenodd" clip-rule="evenodd" d="M85.1318 58.5833C88.7553 58.6473 91.7447 55.7617 91.8087 52.1382C91.8727 48.5147 88.9872 45.5254 85.3637 45.4614C81.7402 45.3974 78.7508 48.2829 78.6868 51.9064C78.6228 55.5299 81.5083 58.5192 85.1318 58.5833Z" stroke="#78A9FF" stroke-width="1.00045"/>
<path d="M91.4335 49.3019L114.452 41.9599L118.278 44.0207" stroke="#78A9FF" stroke-width="1.00045" stroke-linecap="round" stroke-linejoin="round"/>
<path d="M106.999 85.334C93.192 85.334 78.499 90.001 78.499 90.001L73.332 233.16H129.999L136.332 87.334C136.332 87.334 127.999 85.667 106.999 85.334Z" fill="white"/>
<path fill-rule="evenodd" clip-rule="evenodd" d="M117.624 87C117.703 86.578 113.957 74.333 112.291 77.333C110.625 80.333 110.536 83.283 107.318 87C105.151 89.3547 102.438 91.1405 99.418 92.2L107.318 111.333C107.214 111.333 116.424 93.4 117.624 87Z" stroke="black" stroke-linecap="round" stroke-linejoin="round"/>
<path d="M98.8137 92.6L92.6207 108.333L85.6137 92.6L81.0137 104.6V89.667L88.8007 76" stroke="black" stroke-linecap="round" stroke-linejoin="round"/>
<path d="M92.8003 108C92.8003 108 89.3653 188.667 92.0003 225" stroke="black" stroke-linecap="round"/>
<path d="M75.5769 200.929C53.4484 228.981 -5.76924 231.012 -5.76924 231.012C-6.53061 234.941 -7.87524 238.733 -9.75853 242.264C-11.5861 245.512 -14.0981 248.324 -17.1205 250.505C-20.8173 253.518 -15.1063 244.446 -17.0535 244.382C-19.0008 244.319 -23.4278 255.599 -31.1756 258.877C-35.8656 252.422 -19.0257 227.453 -13.4435 223.398C-0.893243 214.279 37.1587 195.561 49.7076 195.022C48.0907 189.957 57.8143 171.348 55.8408 164.453C77.9318 157.624 75.9824 185.5 75.5769 200.929Z" fill="#F8CDBA"/>
<path d="M61.4282 172.1C61.4282 172.1 70.3423 202.032 68.3335 209.696C66.3247 217.36 41.2706 227.615 41.2706 227.615" stroke="black" stroke-width="1.0004" stroke-linecap="round"/>
<path d="M50.4655 145.451L44.3159 194.39C44.3159 194.39 15.6679 206.141 -5.37635 218.347C-10.4078 233.983 3.07713 255.262 3.07713 255.262C3.07713 255.262 54.4798 237.207 69.3117 208.102C73.6908 191.255 72.3734 128.324 72.3734 128.324L50.4655 145.451Z" fill="#78A9FF"/>
<path d="M68.2705 160.851L60.9375 226.518" stroke="#1F161E" stroke-linecap="round"/>
<path d="M75.0107 122.889C75.0107 122.889 60.1367 140.889 69.4697 150.556" stroke="black" stroke-linecap="round"/>
<path d="M146.303 137.261C146.303 137.261 152.636 149.928 171.636 156.261" stroke="black" stroke-linecap="round"/>
<path d="M178.242 160.928L163.576 155.261C163.576 155.261 160.243 181.344 172.243 237.594C184.243 293.844 211.576 380.261 211.576 380.261H125.576L108.576 142.261L119.576 85.722C119.576 85.722 159.576 83.261 199.576 126.595" fill="#78A9FF"/>
<path d="M206.325 142.762C206.325 142.762 208.604 149.56 224.888 152.579C250.907 180.735 241.804 258.953 241.804 258.953L253.786 268.923C253.786 268.923 262.794 275.347 264.189 277.745C266.762 282.169 257.966 273.508 257.576 275.56C257.186 277.612 262.029 279.335 264.192 284.259C265.554 287.767 266.244 291.499 266.226 295.261C266.226 295.261 235.803 272.397 232.444 265.806C224.886 250.973 210.042 199.657 211.575 186.262C205.935 187.126 195.17 171.402 195.17 171.402L206.325 142.762Z" fill="#F3C8B1"/>
<path d="M159.528 157.36L208.086 189.972L213.123 251.342L241.584 246.923C241.584 246.923 249.612 177.549 219.861 146.937C207.972 133.22 186.521 117.164 186.521 117.164L159.528 157.36Z" fill="#78A9FF"/>
<path d="M59.0452 100.545C67.0772 93.428 71.2452 92.428 78.2452 89.928C78.5782 111.261 83.9122 142.928 83.9122 142.928C83.9122 142.928 76.6092 222.461 72.5772 260.261C64.5772 335.261 61.9102 381.261 61.9102 381.261H33.9102L63.9102 194.928C63.9102 194.928 52.2892 196.633 50.9102 188.595C47.0392 166.036 50.9982 112.998 59.0452 100.545Z" fill="#78A9FF"/>
<path fill-rule="evenodd" clip-rule="evenodd" d="M125.576 177.761C126.957 177.761 128.076 176.642 128.076 175.261C128.076 173.88 126.957 172.761 125.576 172.761C124.195 172.761 123.076 173.88 123.076 175.261C123.076 176.642 124.195 177.761 125.576 177.761Z" stroke="#F2F2F2"/>
<path fill-rule="evenodd" clip-rule="evenodd" d="M128.576 207.761C129.957 207.761 131.076 206.642 131.076 205.261C131.076 203.88 129.957 202.761 128.576 202.761C127.195 202.761 126.076 203.88 126.076 205.261C126.076 206.642 127.195 207.761 128.576 207.761Z" stroke="#F2F2F2"/>
<path d="M130.244 87.094L139.244 99.261C133.895 105.012 129.148 111.295 125.077 118.011C123.738 120.243 114.41 143.761 114.41 143.761L139.243 375.761" stroke="white" stroke-linecap="round" stroke-linejoin="round"/>
<path d="M71.7432 92.594L62.0822 106.437C62.0822 106.437 67.1192 116.055 71.5762 125.594C74.3597 131.683 76.4828 138.053 77.9092 144.594C77.9092 144.594 52.8262 370.631 52.5762 375.261" stroke="white" stroke-linecap="round" stroke-linejoin="round"/>
<path d="M211.076 213.261C211.076 213.261 208.076 186.761 213.076 177.511" stroke="white" stroke-linecap="round"/>
<path d="M23.7887 204.837C23.7887 204.837 45.244 189.632 56.6132 197.279" stroke="black" stroke-width="1.00012" stroke-linecap="round"/>
<path d="M150.549 143.461C150.549 143.461 152.161 154.114 162.976 157.461" stroke="white" stroke-linecap="round"/>
<path d="M148.871 155.498C148.871 155.498 153.782 162.356 162.517 160.847" stroke="white" stroke-width="0.999999" stroke-linecap="round"/>
<path d="M66.9102 147.594L61.9102 211.261" stroke="white" stroke-linecap="round" stroke-linejoin="round"/>
</g>
</svg>
