<?xml version="1.0" encoding="utf-8"?>
<!-- Generator: Adobe Illustrator 24.0.1, SVG Export Plug-In . SVG Version: 6.00 Build 0)  -->
<svg version="1.1" id="Layer_1" xmlns:sketch="http://www.bohemiancoding.com/sketch/ns"
	 xmlns="http://www.w3.org/2000/svg" xmlns:xlink="http://www.w3.org/1999/xlink" x="0px" y="0px" width="684px" height="148px"
	 viewBox="0 0 684 148" style="enable-background:new 0 0 684 148;" xml:space="preserve">
<style type="text/css">
	.st0{fill-rule:evenodd;clip-rule:evenodd;}
</style>
<title>twincities-logo</title>
<desc>Created with Sketch.</desc>
<g id="Logos-_x28_For-Export_x29_" sketch:type="MSPage">
	<g id="twincities-logo" transform="translate(-109.000000, -7.000000)" sketch:type="MSArtboardGroup">
		<path id="MINNEAPOLIS_x2F_ST.-PAUL" sketch:type="MSShapeGroup" class="st0" d="M109,74h5.7V23.8l12,50.2h1.8l11.9-50.2V74h6.4
			V11.1H138l-10.1,43.8l-10.5-43.8H109V74z M160.2,74h6.6V11.1h-6.6V74z M180.2,74h6V23.5l17,50.5h6.9V11.1h-5.9v46.7l-15.9-46.7h-8
			V74z M223,74h6V23.5L246,74h6.9V11.1h-5.9v46.7L231,11.1h-8V74z M265.8,74h25.3v-5.3h-18.7V42.9h14.3v-5.3h-14.3V16.4h17.5v-5.3
			h-24.1V74z M325.3,74h6.5l-11.1-62.9h-9.9L299.6,74h6.2l2.6-15.8h14.1L325.3,74z M315.6,16.3l6.2,36.8h-12.4L315.6,16.3z
			 M342.2,74h6.6V45.9h5.8c9.7,0,15.3-5,15.3-14.6v-5.9c0-10-5.6-14.3-15.3-14.3h-12.4V74z M348.8,40.7V16.3h6.2
			c5.5,0,8.4,2.3,8.4,9.2v5.9c0,6.5-2.8,9.4-8.4,9.4H348.8z M396.2,74.8c10,0,16.5-6.6,16.5-18.3V28.3c0-11.5-6.4-18-16.5-18
			c-10,0-16.5,6.5-16.5,18.1v28.2C379.8,68.2,386.2,74.8,396.2,74.8L396.2,74.8z M396.2,69.2c-6.7,0-9.8-4.5-9.8-12.7V28.4
			c0-8.2,3.2-12.7,9.8-12.7c6.5,0,9.7,4.9,9.7,12.7v28.1C405.9,64.4,402.8,69.2,396.2,69.2L396.2,69.2z M425.2,74h23.8v-5.3h-17.2
			V11.1h-6.6V74z M460.2,74h6.6V11.1h-6.6V74z M493.1,74.8c8.3,0,13.8-4.8,13.8-15.2v-1.3c0-10.2-4.1-14.2-12.3-20.2
			c-6.7-5-9.1-7.7-9.1-14v-0.4c0-5.3,2.6-7.9,7-7.9c4.4,0,7.2,2.2,7.2,8.5v2.2h6.2v-2.2c0-9.4-4.9-14-13.4-14
			c-8.1,0-13.3,5-13.3,13.8v0.3c0,8.9,4.1,13.3,11.4,18.7c6.9,5.3,9.9,8.1,9.9,15.5v1.2c0,6.2-2.7,9.5-7.5,9.5
			c-5.8,0-8.3-3.2-8.3-10.3v-2.1h-6.3V59C478.5,69.2,483.7,74.8,493.1,74.8L493.1,74.8z M513.8,85.7h5.7L538.8,7h-5.7L513.8,85.7z
			 M561.4,74.8c8.3,0,13.8-4.8,13.8-15.2v-1.3c0-10.2-4.1-14.2-12.3-20.2c-6.7-5-9.1-7.7-9.1-14v-0.4c0-5.3,2.6-7.9,7-7.9
			c4.4,0,7.2,2.2,7.2,8.5v2.2h6.2v-2.2c0-9.4-4.9-14-13.4-14c-8.1,0-13.3,5-13.3,13.8v0.3c0,8.9,4.1,13.3,11.4,18.7
			c6.9,5.3,9.9,8.1,9.9,15.5v1.2c0,6.2-2.7,9.5-7.5,9.5c-5.8,0-8.3-3.2-8.3-10.3v-2.1h-6.3V59C546.8,69.2,552,74.8,561.4,74.8
			L561.4,74.8z M593.8,74h6.5l0.1-57.6h10.9v-5.3H583v5.3h10.8V74z M618.2,74.4c2.5,0,4.4-2,4.4-4.4c0-2.6-1.9-4.6-4.4-4.6
			c-2.4,0-4.5,2-4.5,4.6C613.7,72.3,615.8,74.4,618.2,74.4L618.2,74.4z M650.6,74h6.6V45.9h5.8c9.7,0,15.3-5,15.3-14.6v-5.9
			c0-10-5.6-14.3-15.3-14.3h-12.4V74z M657.2,40.7V16.3h6.2c5.5,0,8.4,2.3,8.4,9.2v5.9c0,6.5-2.8,9.4-8.4,9.4H657.2z M709.3,74h6.5
			l-11.1-62.9h-9.9L683.6,74h6.2l2.6-15.8h14.1L709.3,74z M699.5,16.3l6.2,36.8h-12.4L699.5,16.3z M748.9,11.1v47.1
			c0,7.9-3.1,11.1-8.6,11.1c-5.7,0-8.6-3.2-8.6-10.6V11.1H725v47.8c0,10.8,6,15.9,15.2,15.9c9.8,0,15.2-5.4,15.2-16.2V11.1H748.9z
			 M768.4,74h23.8v-5.3H775V11.1h-6.6V74z M134,154h17.7c11.8,0,18-4.2,18-15.8v-4c0-8-4.1-11.9-10.8-13.2c5.7-1.3,9.4-4.8,9.4-11.4
			v-4.4c0-9.6-5.5-14.1-17-14.1H134V154z M147.3,144.4v-18.8h2.9c4.3,0,6.1,1.3,6.1,7v4.5c0,5.3-1.8,7.3-5.8,7.3H147.3z
			 M147.3,116.5v-15.8h2.8c3.5,0,5.4,1,5.4,5.7v4c0,4.7-1.5,6.2-5.4,6.2H147.3z M201.9,91.1v45.8c0,5.3-1.4,7.1-4.8,7.1
			c-3.6,0-4.8-1.8-4.8-7V91.1h-13.6v46.1c0,12.2,6.6,17.8,18.3,17.8c11.6,0,18.5-5.5,18.5-17.7V91.1H201.9z M241.8,155
			c11.2,0,17.4-5.7,17.4-17.2v-1.2c0-12.3-6.4-16.1-13.9-20.9c-5.5-3.7-7.4-5.3-7.4-9.8v-0.4c0-3.5,1.2-4.9,3.8-4.9
			c2.4,0,4,1.1,4,5.6v2h12.8v-1.8c-0.1-11.1-6.2-16.3-16.8-16.3c-10.8,0-17,5.8-17,16.3v0.4c0,10.4,4.3,15,12.5,20.2
			c5.6,3.7,8.7,5.5,8.7,11.1v0.7c0,4-1.3,5.8-4.1,5.8c-3.3,0-4.6-1.7-4.6-6.8v-2.5h-13.1v2C224.2,150,231,155,241.8,155L241.8,155z
			 M268.7,154h13.6V91.1h-13.6V154z M293,154h11.7v-39.1l12.5,39.1h12.8V91.1h-11.8v33.6l-10.6-33.6H293V154z M340.5,154h29.4v-10.6
			h-15.8v-17.4h11.8v-10.1h-11.8v-14.1h15V91.1h-28.5V154z M395.2,155c11.2,0,17.4-5.7,17.4-17.2v-1.2c0-12.3-6.4-16.1-13.9-20.9
			c-5.5-3.7-7.4-5.3-7.4-9.8v-0.4c0-3.5,1.2-4.9,3.8-4.9c2.4,0,4,1.1,4,5.6v2h12.8v-1.8c-0.1-11.1-6.2-16.3-16.8-16.3
			c-10.8,0-17,5.8-17,16.3v0.4c0,10.4,4.3,15,12.5,20.2c5.6,3.7,8.7,5.5,8.7,11.1v0.7c0,4-1.3,5.8-4.1,5.8c-3.3,0-4.6-1.7-4.6-6.8
			v-2.5h-13.1v2C377.6,150,384.5,155,395.2,155L395.2,155z M437.9,155c11.2,0,17.4-5.7,17.4-17.2v-1.2c0-12.3-6.4-16.1-13.9-20.9
			c-5.5-3.7-7.4-5.3-7.4-9.8v-0.4c0-3.5,1.2-4.9,3.8-4.9c2.4,0,4,1.1,4,5.6v2h12.8v-1.8c-0.1-11.1-6.2-16.3-16.8-16.3
			c-10.8,0-17,5.8-17,16.3v0.4c0,10.4,4.3,15,12.5,20.2c5.6,3.7,8.7,5.5,8.7,11.1v0.7c0,4-1.3,5.8-4.1,5.8c-3.3,0-4.6-1.7-4.6-6.8
			v-2.5h-13.1v2C420.3,150,427.2,155,437.9,155L437.9,155z M484.2,154.5c10.4,0,15.8-5.8,15.8-16.6V91.1h-13.6v46.2
			c0,4.4-1.9,5.9-5.4,5.9c-1.8,0-3.1-0.3-4.1-0.5v10.6C478.5,153.9,480.6,154.5,484.2,154.5L484.2,154.5z M528.8,155
			c11.7,0,19.3-6.1,19.3-19.2V109c0-13.2-7.8-18.8-19.3-18.8c-11.1,0-19.2,6-19.2,18.9v27C509.6,149.1,517.1,155,528.8,155
			L528.8,155z M528.8,144.1c-3.7,0-5.4-2.3-5.4-8v-27c0-5.6,1.8-7.9,5.4-7.9c3.7,0,5.5,2.5,5.5,7.9V136
			C534.2,141.7,532.5,144.1,528.8,144.1L528.8,144.1z M581,91.1v45.8c0,5.3-1.4,7.1-4.8,7.1c-3.6,0-4.8-1.8-4.8-7V91.1h-13.6v46.1
			c0,12.2,6.6,17.8,18.3,17.8c11.6,0,18.5-5.5,18.5-17.7V91.1H581z M604.9,154h13.6v-26.2h2.5l7,26.2h14.1l-8.3-28.3
			c4.1-2,6.5-5.4,6.5-12.5v-6.4c0-10.5-4.9-15.7-18.1-15.7h-17.2V154z M618.4,119.1v-17.6h3.2c3.8,0,5.4,1.5,5.4,5.7v5.8
			c0,4.5-1.7,6.1-5.4,6.1H618.4z M650.2,154h11.7v-39.1l12.5,39.1h12.8V91.1h-11.8v33.6l-10.6-33.6h-14.6V154z M720.8,154h13.7
			l-10-62.9H705l-9.9,62.9h12.4l1.7-12.8h9.9L720.8,154z M714.1,103.1l3.7,28.6h-7.4L714.1,103.1z M742.4,154h27.7v-10.8h-14.2V91.1
			h-13.6V154z"/>
	</g>
</g>
</svg>
