<svg width="530" height="353" viewBox="0 0 530 353" fill="none" xmlns="http://www.w3.org/2000/svg">
<path fill-rule="evenodd" clip-rule="evenodd" d="M476.619 299.317H439.442L444.064 350.791H471.997L476.619 299.317" fill="#B2BBC6"/>
<path fill-rule="evenodd" clip-rule="evenodd" d="M460.066 290.737C459.68 290.737 459.32 290.491 459.178 290.095C459.135 289.975 455.025 277.85 467.673 272.041C477.375 267.585 476.821 259.576 476.492 254.791C476.433 253.958 476.384 253.242 476.39 252.623C476.396 252.083 476.816 251.658 477.347 251.655C477.872 251.661 478.289 252.104 478.283 252.643C478.278 253.183 478.326 253.864 478.38 254.65C478.72 259.602 479.356 268.817 468.442 273.83C457.435 278.885 460.81 288.998 460.957 289.426C461.133 289.934 460.881 290.494 460.39 290.679C460.282 290.72 460.174 290.737 460.066 290.737" fill="#78A9FF"/>
<path fill-rule="evenodd" clip-rule="evenodd" d="M455.606 290.737C455.218 290.737 454.848 290.512 454.687 290.141C453.506 287.39 451.019 285.741 448.383 283.996C448.141 283.835 447.897 283.674 447.655 283.514C443.265 280.575 441.601 276.956 442.567 272.445C442.681 271.919 443.209 271.583 443.745 271.694C444.285 271.802 444.628 272.32 444.515 272.849C443.71 276.599 445.025 279.391 448.776 281.903C449.015 282.061 449.257 282.221 449.498 282.382C452.257 284.209 455.111 286.101 456.521 289.384C456.736 289.881 456.498 290.451 455.991 290.661C455.865 290.711 455.734 290.737 455.606 290.737" fill="#78A9FF"/>
<path fill-rule="evenodd" clip-rule="evenodd" d="M469.817 333.633C469.297 333.633 468.875 333.199 468.875 332.663C468.875 332.128 469.297 331.691 469.817 331.691C476.603 331.691 482.303 326.682 483.369 319.781L484.206 314.365C484.418 312.993 484.039 311.602 483.163 310.547C482.289 309.49 481.014 308.885 479.665 308.885H466.121C465.601 308.885 465.18 308.451 465.18 307.912C465.18 307.376 465.601 306.942 466.121 306.942H479.665C481.565 306.942 483.364 307.796 484.599 309.287C485.832 310.775 486.369 312.737 486.07 314.671L485.233 320.084C484.02 327.934 477.536 333.633 469.817 333.633" fill="#0B1E57"/>
<path fill-rule="evenodd" clip-rule="evenodd" d="M95.198 351.745L69.5255 245.026C64.7266 225.079 79.8824 205.899 100.446 205.899H213.253L246.888 349.837L95.198 351.745" fill="#78A9FF"/>
<path fill-rule="evenodd" clip-rule="evenodd" d="M361.277 179.209H530V42.8957H361.277V179.209Z" fill="#D9E7FF"/>
<path fill-rule="evenodd" clip-rule="evenodd" d="M346.979 191.601H515.702V55.2878H346.979V191.601Z" fill="#78A9FF"/>
<path fill-rule="evenodd" clip-rule="evenodd" d="M153.472 38.1295C153.472 39.709 154.752 40.9892 156.331 40.9892C157.911 40.9892 159.191 39.709 159.191 38.1295C159.191 36.55 157.911 35.2698 156.331 35.2698C154.752 35.2698 153.472 36.55 153.472 38.1295" fill="#E4E8EB"/>
<path fill-rule="evenodd" clip-rule="evenodd" d="M140.126 38.1295C140.126 39.709 141.406 40.9892 142.986 40.9892C144.565 40.9892 145.845 39.709 145.845 38.1295C145.845 36.55 144.565 35.2698 142.986 35.2698C141.406 35.2698 140.126 36.55 140.126 38.1295" fill="#E4E8EB"/>
<path fill-rule="evenodd" clip-rule="evenodd" d="M128.688 38.1295C128.688 39.709 129.968 40.9892 131.547 40.9892C133.127 40.9892 134.407 39.709 134.407 38.1295C134.407 36.55 133.127 35.2698 131.547 35.2698C129.968 35.2698 128.688 36.55 128.688 38.1295" fill="#E4E8EB"/>
<path fill-rule="evenodd" clip-rule="evenodd" d="M115.342 38.1295C115.342 39.709 116.622 40.9892 118.202 40.9892C119.781 40.9892 121.061 39.709 121.061 38.1295C121.061 36.55 119.781 35.2698 118.202 35.2698C116.622 35.2698 115.342 36.55 115.342 38.1295" fill="#E4E8EB"/>
<path fill-rule="evenodd" clip-rule="evenodd" d="M102.949 38.1295C102.949 39.709 104.23 40.9892 105.809 40.9892C107.388 40.9892 108.669 39.709 108.669 38.1295C108.669 36.55 107.388 35.2698 105.809 35.2698C104.23 35.2698 102.949 36.55 102.949 38.1295" fill="#E4E8EB"/>
<path fill-rule="evenodd" clip-rule="evenodd" d="M90.5576 38.1295C90.5576 39.709 91.8381 40.9892 93.4175 40.9892C94.9966 40.9892 96.277 39.709 96.277 38.1295C96.277 36.55 94.9966 35.2698 93.4175 35.2698C91.8381 35.2698 90.5576 36.55 90.5576 38.1295" fill="#E4E8EB"/>
<path fill-rule="evenodd" clip-rule="evenodd" d="M77.2119 38.1295C77.2119 39.709 78.4921 40.9892 80.0716 40.9892C81.6508 40.9892 82.9313 39.709 82.9313 38.1295C82.9313 36.55 81.6508 35.2698 80.0716 35.2698C78.4921 35.2698 77.2119 36.55 77.2119 38.1295" fill="#E4E8EB"/>
<path fill-rule="evenodd" clip-rule="evenodd" d="M65.7734 38.1295C65.7734 39.709 67.0539 40.9892 68.633 40.9892C70.2124 40.9892 71.4929 39.709 71.4929 38.1295C71.4929 36.55 70.2124 35.2698 68.633 35.2698C67.0539 35.2698 65.7734 36.55 65.7734 38.1295" fill="#E4E8EB"/>
<path fill-rule="evenodd" clip-rule="evenodd" d="M52.4277 38.1295C52.4277 39.709 53.7082 40.9892 55.2876 40.9892C56.8667 40.9892 58.1472 39.709 58.1472 38.1295C58.1472 36.55 56.8667 35.2698 55.2876 35.2698C53.7082 35.2698 52.4277 36.55 52.4277 38.1295" fill="#E4E8EB"/>
<path fill-rule="evenodd" clip-rule="evenodd" d="M40.0361 38.1295C40.0361 39.709 41.3164 40.9892 42.8958 40.9892C44.475 40.9892 45.7556 39.709 45.7556 38.1295C45.7556 36.55 44.475 35.2698 42.8958 35.2698C41.3164 35.2698 40.0361 36.55 40.0361 38.1295" fill="#E4E8EB"/>
<path fill-rule="evenodd" clip-rule="evenodd" d="M27.6436 38.1295C27.6436 39.709 28.9238 40.9892 30.5033 40.9892C32.0825 40.9892 33.363 39.709 33.363 38.1295C33.363 36.55 32.0825 35.2698 30.5033 35.2698C28.9238 35.2698 27.6436 36.55 27.6436 38.1295" fill="#E4E8EB"/>
<path fill-rule="evenodd" clip-rule="evenodd" d="M15.252 38.1295C15.252 39.709 16.5322 40.9892 18.1117 40.9892C19.6912 40.9892 20.9714 39.709 20.9714 38.1295C20.9714 36.55 19.6912 35.2698 18.1117 35.2698C16.5322 35.2698 15.252 36.55 15.252 38.1295" fill="#E4E8EB"/>
<path fill-rule="evenodd" clip-rule="evenodd" d="M153.472 50.5216C153.472 52.1011 154.752 53.3813 156.331 53.3813C157.911 53.3813 159.191 52.1011 159.191 50.5216C159.191 48.9424 157.911 47.6619 156.331 47.6619C154.752 47.6619 153.472 48.9424 153.472 50.5216" fill="#E4E8EB"/>
<path fill-rule="evenodd" clip-rule="evenodd" d="M140.126 50.5216C140.126 52.1011 141.406 53.3813 142.986 53.3813C144.565 53.3813 145.845 52.1011 145.845 50.5216C145.845 48.9424 144.565 47.6619 142.986 47.6619C141.406 47.6619 140.126 48.9424 140.126 50.5216" fill="#E4E8EB"/>
<path fill-rule="evenodd" clip-rule="evenodd" d="M128.688 50.5216C128.688 52.1011 129.968 53.3813 131.547 53.3813C133.127 53.3813 134.407 52.1011 134.407 50.5216C134.407 48.9424 133.127 47.6619 131.547 47.6619C129.968 47.6619 128.688 48.9424 128.688 50.5216" fill="#E4E8EB"/>
<path fill-rule="evenodd" clip-rule="evenodd" d="M115.342 50.5216C115.342 52.1011 116.622 53.3813 118.202 53.3813C119.781 53.3813 121.061 52.1011 121.061 50.5216C121.061 48.9424 119.781 47.6619 118.202 47.6619C116.622 47.6619 115.342 48.9424 115.342 50.5216" fill="#E4E8EB"/>
<path fill-rule="evenodd" clip-rule="evenodd" d="M102.949 50.5216C102.949 52.1011 104.23 53.3813 105.809 53.3813C107.388 53.3813 108.669 52.1011 108.669 50.5216C108.669 48.9424 107.388 47.6619 105.809 47.6619C104.23 47.6619 102.949 48.9424 102.949 50.5216" fill="#E4E8EB"/>
<path fill-rule="evenodd" clip-rule="evenodd" d="M90.5576 50.5216C90.5576 52.1011 91.8381 53.3813 93.4175 53.3813C94.9966 53.3813 96.277 52.1011 96.277 50.5216C96.277 48.9424 94.9966 47.6619 93.4175 47.6619C91.8381 47.6619 90.5576 48.9424 90.5576 50.5216" fill="#E4E8EB"/>
<path fill-rule="evenodd" clip-rule="evenodd" d="M77.2119 50.5216C77.2119 52.1011 78.4921 53.3813 80.0716 53.3813C81.6508 53.3813 82.9313 52.1011 82.9313 50.5216C82.9313 48.9424 81.6508 47.6619 80.0716 47.6619C78.4921 47.6619 77.2119 48.9424 77.2119 50.5216" fill="#E4E8EB"/>
<path fill-rule="evenodd" clip-rule="evenodd" d="M65.7734 50.5216C65.7734 52.1011 67.0539 53.3813 68.633 53.3813C70.2124 53.3813 71.4929 52.1011 71.4929 50.5216C71.4929 48.9424 70.2124 47.6619 68.633 47.6619C67.0539 47.6619 65.7734 48.9424 65.7734 50.5216" fill="#E4E8EB"/>
<path fill-rule="evenodd" clip-rule="evenodd" d="M52.4277 50.5216C52.4277 52.1011 53.7082 53.3813 55.2876 53.3813C56.8667 53.3813 58.1472 52.1011 58.1472 50.5216C58.1472 48.9424 56.8667 47.6619 55.2876 47.6619C53.7082 47.6619 52.4277 48.9424 52.4277 50.5216" fill="#E4E8EB"/>
<path fill-rule="evenodd" clip-rule="evenodd" d="M40.0361 50.5216C40.0361 52.1011 41.3164 53.3813 42.8958 53.3813C44.475 53.3813 45.7556 52.1011 45.7556 50.5216C45.7556 48.9424 44.475 47.6619 42.8958 47.6619C41.3164 47.6619 40.0361 48.9424 40.0361 50.5216" fill="#E4E8EB"/>
<path fill-rule="evenodd" clip-rule="evenodd" d="M27.6436 50.5216C27.6436 52.1011 28.9238 53.3813 30.5033 53.3813C32.0825 53.3813 33.363 52.1011 33.363 50.5216C33.363 48.9424 32.0825 47.6619 30.5033 47.6619C28.9238 47.6619 27.6436 48.9424 27.6436 50.5216" fill="#E4E8EB"/>
<path fill-rule="evenodd" clip-rule="evenodd" d="M15.252 50.5216C15.252 52.1011 16.5322 53.3813 18.1117 53.3813C19.6912 53.3813 20.9714 52.1011 20.9714 50.5216C20.9714 48.9424 19.6912 47.6619 18.1117 47.6619C16.5322 47.6619 15.252 48.9424 15.252 50.5216" fill="#E4E8EB"/>
<path fill-rule="evenodd" clip-rule="evenodd" d="M153.472 63.8669C153.472 65.4464 154.752 66.7266 156.331 66.7266C157.911 66.7266 159.191 65.4464 159.191 63.8669C159.191 62.2877 157.911 61.0072 156.331 61.0072C154.752 61.0072 153.472 62.2877 153.472 63.8669" fill="#E4E8EB"/>
<path fill-rule="evenodd" clip-rule="evenodd" d="M140.126 63.8669C140.126 65.4464 141.406 66.7266 142.986 66.7266C144.565 66.7266 145.845 65.4464 145.845 63.8669C145.845 62.2877 144.565 61.0072 142.986 61.0072C141.406 61.0072 140.126 62.2877 140.126 63.8669" fill="#E4E8EB"/>
<path fill-rule="evenodd" clip-rule="evenodd" d="M128.688 63.8669C128.688 65.4464 129.968 66.7266 131.547 66.7266C133.127 66.7266 134.407 65.4464 134.407 63.8669C134.407 62.2877 133.127 61.0072 131.547 61.0072C129.968 61.0072 128.688 62.2877 128.688 63.8669" fill="#E4E8EB"/>
<path fill-rule="evenodd" clip-rule="evenodd" d="M115.342 63.8669C115.342 65.4464 116.622 66.7266 118.202 66.7266C119.781 66.7266 121.061 65.4464 121.061 63.8669C121.061 62.2877 119.781 61.0072 118.202 61.0072C116.622 61.0072 115.342 62.2877 115.342 63.8669" fill="#E4E8EB"/>
<path fill-rule="evenodd" clip-rule="evenodd" d="M102.949 63.8669C102.949 65.4464 104.23 66.7266 105.809 66.7266C107.388 66.7266 108.669 65.4464 108.669 63.8669C108.669 62.2877 107.388 61.0072 105.809 61.0072C104.23 61.0072 102.949 62.2877 102.949 63.8669" fill="#E4E8EB"/>
<path fill-rule="evenodd" clip-rule="evenodd" d="M90.5576 63.8669C90.5576 65.4464 91.8381 66.7266 93.4175 66.7266C94.9966 66.7266 96.277 65.4464 96.277 63.8669C96.277 62.2877 94.9966 61.0072 93.4175 61.0072C91.8381 61.0072 90.5576 62.2877 90.5576 63.8669" fill="#E4E8EB"/>
<path fill-rule="evenodd" clip-rule="evenodd" d="M77.2119 63.8669C77.2119 65.4464 78.4921 66.7266 80.0716 66.7266C81.6508 66.7266 82.9313 65.4464 82.9313 63.8669C82.9313 62.2877 81.6508 61.0072 80.0716 61.0072C78.4921 61.0072 77.2119 62.2877 77.2119 63.8669" fill="#E4E8EB"/>
<path fill-rule="evenodd" clip-rule="evenodd" d="M65.7734 63.8669C65.7734 65.4464 67.0539 66.7266 68.633 66.7266C70.2124 66.7266 71.4929 65.4464 71.4929 63.8669C71.4929 62.2877 70.2124 61.0072 68.633 61.0072C67.0539 61.0072 65.7734 62.2877 65.7734 63.8669" fill="#E4E8EB"/>
<path fill-rule="evenodd" clip-rule="evenodd" d="M52.4277 63.8669C52.4277 65.4464 53.7082 66.7266 55.2876 66.7266C56.8667 66.7266 58.1472 65.4464 58.1472 63.8669C58.1472 62.2877 56.8667 61.0072 55.2876 61.0072C53.7082 61.0072 52.4277 62.2877 52.4277 63.8669" fill="#E4E8EB"/>
<path fill-rule="evenodd" clip-rule="evenodd" d="M40.0361 63.8669C40.0361 65.4464 41.3164 66.7266 42.8958 66.7266C44.475 66.7266 45.7556 65.4464 45.7556 63.8669C45.7556 62.2877 44.475 61.0072 42.8958 61.0072C41.3164 61.0072 40.0361 62.2877 40.0361 63.8669" fill="#E4E8EB"/>
<path fill-rule="evenodd" clip-rule="evenodd" d="M27.6436 63.8669C27.6436 65.4464 28.9238 66.7266 30.5033 66.7266C32.0825 66.7266 33.363 65.4464 33.363 63.8669C33.363 62.2877 32.0825 61.0072 30.5033 61.0072C28.9238 61.0072 27.6436 62.2877 27.6436 63.8669" fill="#E4E8EB"/>
<path fill-rule="evenodd" clip-rule="evenodd" d="M15.252 63.8669C15.252 65.4464 16.5322 66.7266 18.1117 66.7266C19.6912 66.7266 20.9714 65.4464 20.9714 63.8669C20.9714 62.2877 19.6912 61.0072 18.1117 61.0072C16.5322 61.0072 15.252 62.2877 15.252 63.8669" fill="#E4E8EB"/>
<path fill-rule="evenodd" clip-rule="evenodd" d="M153.472 76.259C153.472 77.8385 154.752 79.1187 156.331 79.1187C157.911 79.1187 159.191 77.8385 159.191 76.259C159.191 74.6798 157.911 73.3993 156.331 73.3993C154.752 73.3993 153.472 74.6798 153.472 76.259" fill="#E4E8EB"/>
<path fill-rule="evenodd" clip-rule="evenodd" d="M140.126 76.259C140.126 77.8385 141.406 79.1187 142.986 79.1187C144.565 79.1187 145.845 77.8385 145.845 76.259C145.845 74.6798 144.565 73.3993 142.986 73.3993C141.406 73.3993 140.126 74.6798 140.126 76.259" fill="#E4E8EB"/>
<path fill-rule="evenodd" clip-rule="evenodd" d="M128.688 76.259C128.688 77.8385 129.968 79.1187 131.547 79.1187C133.127 79.1187 134.407 77.8385 134.407 76.259C134.407 74.6798 133.127 73.3993 131.547 73.3993C129.968 73.3993 128.688 74.6798 128.688 76.259" fill="#E4E8EB"/>
<path fill-rule="evenodd" clip-rule="evenodd" d="M115.342 76.259C115.342 77.8385 116.622 79.1187 118.202 79.1187C119.781 79.1187 121.061 77.8385 121.061 76.259C121.061 74.6798 119.781 73.3993 118.202 73.3993C116.622 73.3993 115.342 74.6798 115.342 76.259" fill="#E4E8EB"/>
<path fill-rule="evenodd" clip-rule="evenodd" d="M102.949 76.259C102.949 77.8385 104.23 79.1187 105.809 79.1187C107.388 79.1187 108.669 77.8385 108.669 76.259C108.669 74.6798 107.388 73.3993 105.809 73.3993C104.23 73.3993 102.949 74.6798 102.949 76.259" fill="#E4E8EB"/>
<path fill-rule="evenodd" clip-rule="evenodd" d="M90.5576 76.259C90.5576 77.8385 91.8381 79.1187 93.4175 79.1187C94.9966 79.1187 96.277 77.8385 96.277 76.259C96.277 74.6798 94.9966 73.3993 93.4175 73.3993C91.8381 73.3993 90.5576 74.6798 90.5576 76.259" fill="#E4E8EB"/>
<path fill-rule="evenodd" clip-rule="evenodd" d="M77.2119 76.259C77.2119 77.8385 78.4921 79.1187 80.0716 79.1187C81.6508 79.1187 82.9313 77.8385 82.9313 76.259C82.9313 74.6798 81.6508 73.3993 80.0716 73.3993C78.4921 73.3993 77.2119 74.6798 77.2119 76.259" fill="#E4E8EB"/>
<path fill-rule="evenodd" clip-rule="evenodd" d="M65.7734 76.259C65.7734 77.8385 67.0539 79.1187 68.633 79.1187C70.2124 79.1187 71.4929 77.8385 71.4929 76.259C71.4929 74.6798 70.2124 73.3993 68.633 73.3993C67.0539 73.3993 65.7734 74.6798 65.7734 76.259" fill="#E4E8EB"/>
<path fill-rule="evenodd" clip-rule="evenodd" d="M52.4277 76.259C52.4277 77.8385 53.7082 79.1187 55.2876 79.1187C56.8667 79.1187 58.1472 77.8385 58.1472 76.259C58.1472 74.6798 56.8667 73.3993 55.2876 73.3993C53.7082 73.3993 52.4277 74.6798 52.4277 76.259" fill="#E4E8EB"/>
<path fill-rule="evenodd" clip-rule="evenodd" d="M40.0361 76.259C40.0361 77.8385 41.3164 79.1187 42.8958 79.1187C44.475 79.1187 45.7556 77.8385 45.7556 76.259C45.7556 74.6798 44.475 73.3993 42.8958 73.3993C41.3164 73.3993 40.0361 74.6798 40.0361 76.259" fill="#E4E8EB"/>
<path fill-rule="evenodd" clip-rule="evenodd" d="M27.6436 76.259C27.6436 77.8385 28.9238 79.1187 30.5033 79.1187C32.0825 79.1187 33.363 77.8385 33.363 76.259C33.363 74.6798 32.0825 73.3993 30.5033 73.3993C28.9238 73.3993 27.6436 74.6798 27.6436 76.259" fill="#E4E8EB"/>
<path fill-rule="evenodd" clip-rule="evenodd" d="M15.252 76.259C15.252 77.8385 16.5322 79.1187 18.1117 79.1187C19.6912 79.1187 20.9714 77.8385 20.9714 76.259C20.9714 74.6798 19.6912 73.3993 18.1117 73.3993C16.5322 73.3993 15.252 74.6798 15.252 76.259" fill="#E4E8EB"/>
<path fill-rule="evenodd" clip-rule="evenodd" d="M153.472 89.6043C153.472 91.1838 154.752 92.464 156.331 92.464C157.911 92.464 159.191 91.1838 159.191 89.6043C159.191 88.0251 157.911 86.7446 156.331 86.7446C154.752 86.7446 153.472 88.0251 153.472 89.6043" fill="#E4E8EB"/>
<path fill-rule="evenodd" clip-rule="evenodd" d="M140.126 89.6043C140.126 91.1838 141.406 92.464 142.986 92.464C144.565 92.464 145.845 91.1838 145.845 89.6043C145.845 88.0251 144.565 86.7446 142.986 86.7446C141.406 86.7446 140.126 88.0251 140.126 89.6043" fill="#E4E8EB"/>
<path fill-rule="evenodd" clip-rule="evenodd" d="M128.688 89.6043C128.688 91.1838 129.968 92.464 131.547 92.464C133.127 92.464 134.407 91.1838 134.407 89.6043C134.407 88.0251 133.127 86.7446 131.547 86.7446C129.968 86.7446 128.688 88.0251 128.688 89.6043" fill="#E4E8EB"/>
<path fill-rule="evenodd" clip-rule="evenodd" d="M115.342 89.6043C115.342 91.1838 116.622 92.464 118.202 92.464C119.781 92.464 121.061 91.1838 121.061 89.6043C121.061 88.0251 119.781 86.7446 118.202 86.7446C116.622 86.7446 115.342 88.0251 115.342 89.6043" fill="#E4E8EB"/>
<path fill-rule="evenodd" clip-rule="evenodd" d="M102.949 89.6043C102.949 91.1838 104.23 92.464 105.809 92.464C107.388 92.464 108.669 91.1838 108.669 89.6043C108.669 88.0251 107.388 86.7446 105.809 86.7446C104.23 86.7446 102.949 88.0251 102.949 89.6043" fill="#E4E8EB"/>
<path fill-rule="evenodd" clip-rule="evenodd" d="M90.5576 89.6043C90.5576 91.1838 91.8381 92.464 93.4175 92.464C94.9966 92.464 96.277 91.1838 96.277 89.6043C96.277 88.0251 94.9966 86.7446 93.4175 86.7446C91.8381 86.7446 90.5576 88.0251 90.5576 89.6043" fill="#E4E8EB"/>
<path fill-rule="evenodd" clip-rule="evenodd" d="M77.2119 89.6043C77.2119 91.1838 78.4921 92.464 80.0716 92.464C81.6508 92.464 82.9313 91.1838 82.9313 89.6043C82.9313 88.0251 81.6508 86.7446 80.0716 86.7446C78.4921 86.7446 77.2119 88.0251 77.2119 89.6043" fill="#E4E8EB"/>
<path fill-rule="evenodd" clip-rule="evenodd" d="M65.7734 89.6043C65.7734 91.1838 67.0539 92.464 68.633 92.464C70.2124 92.464 71.4929 91.1838 71.4929 89.6043C71.4929 88.0251 70.2124 86.7446 68.633 86.7446C67.0539 86.7446 65.7734 88.0251 65.7734 89.6043" fill="#E4E8EB"/>
<path fill-rule="evenodd" clip-rule="evenodd" d="M52.4277 89.6043C52.4277 91.1838 53.7082 92.464 55.2876 92.464C56.8667 92.464 58.1472 91.1838 58.1472 89.6043C58.1472 88.0251 56.8667 86.7446 55.2876 86.7446C53.7082 86.7446 52.4277 88.0251 52.4277 89.6043" fill="#E4E8EB"/>
<path fill-rule="evenodd" clip-rule="evenodd" d="M40.0361 89.6043C40.0361 91.1838 41.3164 92.464 42.8958 92.464C44.475 92.464 45.7556 91.1838 45.7556 89.6043C45.7556 88.0251 44.475 86.7446 42.8958 86.7446C41.3164 86.7446 40.0361 88.0251 40.0361 89.6043" fill="#E4E8EB"/>
<path fill-rule="evenodd" clip-rule="evenodd" d="M27.6436 89.6043C27.6436 91.1838 28.9238 92.464 30.5033 92.464C32.0825 92.464 33.363 91.1838 33.363 89.6043C33.363 88.0251 32.0825 86.7446 30.5033 86.7446C28.9238 86.7446 27.6436 88.0251 27.6436 89.6043" fill="#E4E8EB"/>
<path fill-rule="evenodd" clip-rule="evenodd" d="M15.252 89.6043C15.252 91.1838 16.5322 92.464 18.1117 92.464C19.6912 92.464 20.9714 91.1838 20.9714 89.6043C20.9714 88.0251 19.6912 86.7446 18.1117 86.7446C16.5322 86.7446 15.252 88.0251 15.252 89.6043" fill="#E4E8EB"/>
<path fill-rule="evenodd" clip-rule="evenodd" d="M153.472 103.903C153.472 105.482 154.752 106.763 156.331 106.763C157.911 106.763 159.191 105.482 159.191 103.903C159.191 102.323 157.911 101.043 156.331 101.043C154.752 101.043 153.472 102.323 153.472 103.903" fill="#E4E8EB"/>
<path fill-rule="evenodd" clip-rule="evenodd" d="M140.126 103.903C140.126 105.482 141.406 106.763 142.986 106.763C144.565 106.763 145.845 105.482 145.845 103.903C145.845 102.323 144.565 101.043 142.986 101.043C141.406 101.043 140.126 102.323 140.126 103.903" fill="#E4E8EB"/>
<path fill-rule="evenodd" clip-rule="evenodd" d="M128.688 103.903C128.688 105.482 129.968 106.763 131.547 106.763C133.127 106.763 134.407 105.482 134.407 103.903C134.407 102.323 133.127 101.043 131.547 101.043C129.968 101.043 128.688 102.323 128.688 103.903" fill="#E4E8EB"/>
<path fill-rule="evenodd" clip-rule="evenodd" d="M115.342 103.903C115.342 105.482 116.622 106.763 118.202 106.763C119.781 106.763 121.061 105.482 121.061 103.903C121.061 102.323 119.781 101.043 118.202 101.043C116.622 101.043 115.342 102.323 115.342 103.903" fill="#E4E8EB"/>
<path fill-rule="evenodd" clip-rule="evenodd" d="M102.949 103.903C102.949 105.482 104.23 106.763 105.809 106.763C107.388 106.763 108.669 105.482 108.669 103.903C108.669 102.323 107.388 101.043 105.809 101.043C104.23 101.043 102.949 102.323 102.949 103.903" fill="#E4E8EB"/>
<path fill-rule="evenodd" clip-rule="evenodd" d="M90.5576 103.903C90.5576 105.482 91.8381 106.763 93.4175 106.763C94.9966 106.763 96.277 105.482 96.277 103.903C96.277 102.323 94.9966 101.043 93.4175 101.043C91.8381 101.043 90.5576 102.323 90.5576 103.903" fill="#E4E8EB"/>
<path fill-rule="evenodd" clip-rule="evenodd" d="M77.2119 103.903C77.2119 105.482 78.4921 106.763 80.0716 106.763C81.6508 106.763 82.9313 105.482 82.9313 103.903C82.9313 102.323 81.6508 101.043 80.0716 101.043C78.4921 101.043 77.2119 102.323 77.2119 103.903" fill="#E4E8EB"/>
<path fill-rule="evenodd" clip-rule="evenodd" d="M65.7734 103.903C65.7734 105.482 67.0539 106.763 68.633 106.763C70.2124 106.763 71.4929 105.482 71.4929 103.903C71.4929 102.323 70.2124 101.043 68.633 101.043C67.0539 101.043 65.7734 102.323 65.7734 103.903" fill="#E4E8EB"/>
<path fill-rule="evenodd" clip-rule="evenodd" d="M52.4277 103.903C52.4277 105.482 53.7082 106.763 55.2876 106.763C56.8667 106.763 58.1472 105.482 58.1472 103.903C58.1472 102.323 56.8667 101.043 55.2876 101.043C53.7082 101.043 52.4277 102.323 52.4277 103.903" fill="#E4E8EB"/>
<path fill-rule="evenodd" clip-rule="evenodd" d="M40.0361 103.903C40.0361 105.482 41.3164 106.763 42.8958 106.763C44.475 106.763 45.7556 105.482 45.7556 103.903C45.7556 102.323 44.475 101.043 42.8958 101.043C41.3164 101.043 40.0361 102.323 40.0361 103.903" fill="#E4E8EB"/>
<path fill-rule="evenodd" clip-rule="evenodd" d="M27.6436 103.903C27.6436 105.482 28.9238 106.763 30.5033 106.763C32.0825 106.763 33.363 105.482 33.363 103.903C33.363 102.323 32.0825 101.043 30.5033 101.043C28.9238 101.043 27.6436 102.323 27.6436 103.903" fill="#E4E8EB"/>
<path fill-rule="evenodd" clip-rule="evenodd" d="M15.252 103.903C15.252 105.482 16.5322 106.763 18.1117 106.763C19.6912 106.763 20.9714 105.482 20.9714 103.903C20.9714 102.323 19.6912 101.043 18.1117 101.043C16.5322 101.043 15.252 102.323 15.252 103.903" fill="#E4E8EB"/>
<path fill-rule="evenodd" clip-rule="evenodd" d="M0 38.1295C0 39.709 1.28022 40.9892 2.85971 40.9892C4.4392 40.9892 5.71942 39.709 5.71942 38.1295C5.71942 36.55 4.4392 35.2698 2.85971 35.2698C1.28022 35.2698 0 36.55 0 38.1295" fill="#E4E8EB"/>
<path fill-rule="evenodd" clip-rule="evenodd" d="M0 50.5216C0 52.1011 1.28022 53.3813 2.85971 53.3813C4.4392 53.3813 5.71942 52.1011 5.71942 50.5216C5.71942 48.9424 4.4392 47.6619 2.85971 47.6619C1.28022 47.6619 0 48.9424 0 50.5216" fill="#E4E8EB"/>
<path fill-rule="evenodd" clip-rule="evenodd" d="M0 63.8669C0 65.4464 1.28022 66.7266 2.85971 66.7266C4.4392 66.7266 5.71942 65.4464 5.71942 63.8669C5.71942 62.2877 4.4392 61.0072 2.85971 61.0072C1.28022 61.0072 0 62.2877 0 63.8669" fill="#E4E8EB"/>
<path fill-rule="evenodd" clip-rule="evenodd" d="M0 76.259C0 77.8385 1.28022 79.1187 2.85971 79.1187C4.4392 79.1187 5.71942 77.8385 5.71942 76.259C5.71942 74.6798 4.4392 73.3993 2.85971 73.3993C1.28022 73.3993 0 74.6798 0 76.259" fill="#E4E8EB"/>
<path fill-rule="evenodd" clip-rule="evenodd" d="M0 89.6043C0 91.1838 1.28022 92.464 2.85971 92.464C4.4392 92.464 5.71942 91.1838 5.71942 89.6043C5.71942 88.0251 4.4392 86.7446 2.85971 86.7446C1.28022 86.7446 0 88.0251 0 89.6043" fill="#E4E8EB"/>
<path fill-rule="evenodd" clip-rule="evenodd" d="M0 103.903C0 105.482 1.28022 106.763 2.85971 106.763C4.4392 106.763 5.71942 105.482 5.71942 103.903C5.71942 102.323 4.4392 101.043 2.85971 101.043C1.28022 101.043 0 102.323 0 103.903" fill="#E4E8EB"/>
<path fill-rule="evenodd" clip-rule="evenodd" d="M52.4277 117.248C52.4277 118.828 53.7082 120.108 55.2876 120.108C56.8667 120.108 58.1472 118.828 58.1472 117.248C58.1472 115.669 56.8667 114.388 55.2876 114.388C53.7082 114.388 52.4277 115.669 52.4277 117.248" fill="#E4E8EB"/>
<path fill-rule="evenodd" clip-rule="evenodd" d="M40.0361 117.248C40.0361 118.828 41.3164 120.108 42.8958 120.108C44.475 120.108 45.7556 118.828 45.7556 117.248C45.7556 115.669 44.475 114.388 42.8958 114.388C41.3164 114.388 40.0361 115.669 40.0361 117.248" fill="#E4E8EB"/>
<path fill-rule="evenodd" clip-rule="evenodd" d="M52.4277 128.687C52.4277 130.266 53.7082 131.547 55.2876 131.547C56.8667 131.547 58.1472 130.266 58.1472 128.687C58.1472 127.108 56.8667 125.827 55.2876 125.827C53.7082 125.827 52.4277 127.108 52.4277 128.687" fill="#E4E8EB"/>
<path fill-rule="evenodd" clip-rule="evenodd" d="M77.251 121.061L34.3968 96.0975H15.252V56.2554C15.252 55.721 15.681 55.2878 16.2101 55.2878C16.7391 55.2878 17.1679 55.721 17.1679 56.2554V94.1619H34.9095L74.0096 116.937L67.1774 94.1619H184.919V85.9782C184.919 85.4437 185.348 85.0102 185.877 85.0102C186.406 85.0102 186.835 85.4437 186.835 85.9782V96.0975H69.7599L77.251 121.061" fill="#1063FE"/>
<path fill-rule="evenodd" clip-rule="evenodd" d="M185.877 75.3057C185.348 75.3057 184.919 74.8771 184.919 74.3479V19.0738H17.1679V31.6541C17.1679 32.1833 16.7391 32.612 16.2101 32.612C15.681 32.612 15.252 32.1833 15.252 31.6541V17.1583H186.835V74.3479C186.835 74.8771 186.406 75.3057 185.877 75.3057" fill="#1063FE"/>
<path fill-rule="evenodd" clip-rule="evenodd" d="M152.512 5.71942H117.254C116.724 5.71942 116.295 5.32327 116.295 4.8345C116.295 4.34574 116.724 3.94958 117.254 3.94958H149.916L146.888 1.55723C146.486 1.23908 146.439 0.680534 146.784 0.309317C147.129 -0.0619002 147.735 -0.105151 148.137 0.212997L153.136 4.16238C153.441 4.40332 153.551 4.7939 153.412 5.1415C153.272 5.48884 152.913 5.71942 152.512 5.71942" fill="#B2BBC6"/>
<path fill-rule="evenodd" clip-rule="evenodd" d="M101.996 6.67265H84.8384C84.3115 6.67265 83.8848 6.24591 83.8848 5.71941C83.8848 5.19292 84.3115 4.76617 84.8384 4.76617H101.996C102.522 4.76617 102.95 5.19292 102.95 5.71941C102.95 6.24591 102.522 6.67265 101.996 6.67265" fill="#B2BBC6"/>
<path fill-rule="evenodd" clip-rule="evenodd" d="M148.63 10.4856C148.388 10.4856 148.148 10.3787 147.975 10.1687C147.652 9.77817 147.684 9.17875 148.045 8.8303L152.01 5.00697C152.371 4.65852 152.926 4.69205 153.248 5.08286C153.571 5.47337 153.54 6.0728 153.178 6.42125L149.214 10.2446C149.046 10.406 148.838 10.4856 148.63 10.4856" fill="#B2BBC6"/>
<path opacity="0.685245" fill-rule="evenodd" clip-rule="evenodd" d="M131.546 35.2698H31.4586C30.9315 35.2698 30.5039 34.8431 30.5039 34.3167C30.5039 33.7903 30.9315 33.3633 31.4586 33.3633H131.546C132.073 33.3633 132.5 33.7903 132.5 34.3167C132.5 34.8431 132.073 35.2698 131.546 35.2698" fill="#1063FE"/>
<path opacity="0.685245" fill-rule="evenodd" clip-rule="evenodd" d="M61.9747 51.4748H31.4434C30.9247 51.4748 30.5039 51.0482 30.5039 50.5215C30.5039 49.995 30.9247 49.5684 31.4434 49.5684H61.9747C62.4935 49.5684 62.914 49.995 62.914 50.5215C62.914 51.0482 62.4935 51.4748 61.9747 51.4748" fill="#1063FE"/>
<path opacity="0.685245" fill-rule="evenodd" clip-rule="evenodd" d="M108.642 51.4748H75.3327C74.7912 51.4748 74.3525 51.0482 74.3525 50.5215C74.3525 49.995 74.7912 49.5684 75.3327 49.5684H108.642C109.184 49.5684 109.622 49.995 109.622 50.5215C109.622 51.0482 109.184 51.4748 108.642 51.4748" fill="#1063FE"/>
<path opacity="0.685245" fill-rule="evenodd" clip-rule="evenodd" d="M44.7786 67.6799H30.528C29.9884 67.6799 29.5508 67.2532 29.5508 66.7265C29.5508 66.2001 29.9884 65.7734 30.528 65.7734H44.7786C45.3185 65.7734 45.7558 66.2001 45.7558 66.7265C45.7558 67.2532 45.3185 67.6799 44.7786 67.6799" fill="#1063FE"/>
<path opacity="0.685245" fill-rule="evenodd" clip-rule="evenodd" d="M96.2754 67.6799H55.2905C54.7626 67.6799 54.335 67.2532 54.335 66.7265C54.335 66.2001 54.7626 65.7734 55.2905 65.7734H96.2754C96.803 65.7734 97.2306 66.2001 97.2306 66.7265C97.2306 67.2532 96.803 67.6799 96.2754 67.6799" fill="#1063FE"/>
<path fill-rule="evenodd" clip-rule="evenodd" d="M505.216 115.455V207.806H336.493V102.95H505.216V115.455" fill="white"/>
<path fill-rule="evenodd" clip-rule="evenodd" d="M460.417 208.759H335.54V115.348C335.54 114.818 335.965 114.388 336.491 114.388C337.016 114.388 337.444 114.818 337.444 115.348V206.841H460.417C460.942 206.841 461.367 207.271 461.367 207.8C461.367 208.33 460.942 208.759 460.417 208.759" fill="#2A0055"/>
<path fill-rule="evenodd" clip-rule="evenodd" d="M505.217 182.068C504.691 182.068 504.263 181.64 504.263 181.113V113.438C504.263 112.91 504.691 112.482 505.217 112.482C505.743 112.482 506.169 112.91 506.169 113.438V181.113C506.169 181.64 505.743 182.068 505.217 182.068" fill="#2A0055"/>
<path fill-rule="evenodd" clip-rule="evenodd" d="M337.453 101.046H504.257V72.4436H337.453V101.046ZM335.54 102.95H506.17V70.5396H335.54V102.95Z" fill="#2A0055"/>
<path fill-rule="evenodd" clip-rule="evenodd" d="M359.372 82.9633C356.76 82.9633 354.636 85.0871 354.636 87.6978C354.636 90.3086 356.76 92.4324 359.372 92.4324C361.982 92.4324 364.106 90.3086 364.106 87.6978C364.106 85.0871 361.982 82.9633 359.372 82.9633ZM359.372 94.3705C355.691 94.3705 352.698 91.3771 352.698 87.6978C352.698 84.0185 355.691 81.0252 359.372 81.0252C363.051 81.0252 366.044 84.0185 366.044 87.6978C366.044 91.3771 363.051 94.3705 359.372 94.3705V94.3705Z" fill="white"/>
<path fill-rule="evenodd" clip-rule="evenodd" d="M378.434 82.9633C375.825 82.9633 373.701 85.0871 373.701 87.6978C373.701 90.3086 375.825 92.4324 378.434 92.4324C381.046 92.4324 383.17 90.3086 383.17 87.6978C383.17 85.0871 381.046 82.9633 378.434 82.9633ZM378.434 94.3705C374.755 94.3705 371.763 91.3771 371.763 87.6978C371.763 84.0185 374.755 81.0252 378.434 81.0252C382.115 81.0252 385.108 84.0185 385.108 87.6978C385.108 91.3771 382.115 94.3705 378.434 94.3705V94.3705Z" fill="white"/>
<path fill-rule="evenodd" clip-rule="evenodd" d="M477.521 94.3705H465.227C464.674 94.3705 464.227 93.9438 464.227 93.4174C464.227 92.891 464.674 92.464 465.227 92.464H477.521C478.077 92.464 478.525 92.891 478.525 93.4174C478.525 93.9438 478.077 94.3705 477.521 94.3705" fill="white"/>
<path fill-rule="evenodd" clip-rule="evenodd" d="M494.679 94.3705C494.429 94.3705 494.176 94.281 493.98 94.1009L482.646 83.6343C482.246 83.2652 482.234 82.6559 482.619 82.2732C483.005 81.8902 483.641 81.8789 484.041 82.2481L495.375 92.7147C495.775 93.0838 495.787 93.6931 495.402 94.0758C495.206 94.2718 494.941 94.3705 494.679 94.3705" fill="white"/>
<path fill-rule="evenodd" clip-rule="evenodd" d="M483.342 94.3705C483.08 94.3705 482.815 94.2718 482.619 94.0758C482.234 93.6931 482.246 93.0838 482.646 92.7147L493.98 82.2481C494.38 81.8789 495.016 81.8902 495.402 82.2732C495.787 82.6559 495.775 83.2652 495.375 83.6343L484.041 94.1009C483.845 94.281 483.595 94.3705 483.342 94.3705" fill="white"/>
<path fill-rule="evenodd" clip-rule="evenodd" d="M388.446 196.367C386.638 196.367 384.83 196.243 383.077 195.998C374.527 194.827 366.754 190.943 360.595 184.766C353.043 177.186 348.885 167.087 348.885 156.331C348.885 134.255 366.632 116.295 388.446 116.295C410.26 116.295 428.003 134.255 428.003 156.331C428.003 165.946 424.587 175.242 418.38 182.506C411.084 191.042 400.516 196.09 389.392 196.356C389.074 196.363 388.761 196.367 388.446 196.367" fill="white"/>
<path fill-rule="evenodd" clip-rule="evenodd" d="M387.967 161.097L387.75 169.956L386.834 171.583L385.107 163.821L387.967 161.097" fill="white"/>
<path fill-rule="evenodd" clip-rule="evenodd" d="M519.624 226.12L516.841 222.45C521.342 211.951 521.465 196.452 521.468 194.97C521.468 194.897 521.473 194.824 521.49 194.753C522.003 192.324 520.478 189.896 518.059 189.324L517.695 189.238C515.245 188.658 512.767 190.198 512.189 192.66L510.084 201.653C509.879 202.523 509.759 204.266 508.214 202.068L487.062 175.038C485.685 173.28 483.13 172.972 481.38 174.354C479.63 175.737 479.323 178.306 480.7 180.064L495.758 199.305C496.071 199.705 496.002 200.284 495.604 200.598L495.086 201.006C494.691 201.321 494.113 201.251 493.8 200.851L485.409 190.128C484.032 188.371 481.474 188.063 479.724 189.445C477.977 190.827 477.67 193.397 479.047 195.155L487.438 205.877C487.751 206.277 487.68 206.856 487.284 207.171L487.256 207.192C486.858 207.507 486.283 207.438 485.97 207.038L478.731 197.791C477.457 196.16 475.155 195.662 473.391 196.74C471.288 198.026 470.827 200.846 472.304 202.732L479.605 212.063C479.921 212.463 479.85 213.043 479.451 213.358L479.426 213.378C479.027 213.694 478.453 213.624 478.14 213.224L473.357 207.113C471.979 205.355 469.424 205.048 467.675 206.43C465.925 207.812 465.617 210.381 466.995 212.139L472.998 219.813L473.334 220.24L483.731 233.527C486.644 237.249 491.043 239.148 495.442 239.045L498.387 242.753C502.777 248.279 510.664 249.476 516.483 245.497C522.862 241.137 524.296 232.29 519.624 226.12" fill="#B2BBC6"/>
<path fill-rule="evenodd" clip-rule="evenodd" d="M200.18 41.9425H202.086V40.036H200.18V41.9425Z" fill="#F0E6FF"/>
<path fill-rule="evenodd" clip-rule="evenodd" d="M204.946 41.9425H208.339V40.036H204.946V41.9425ZM211.735 41.9425H215.128V40.036H211.735V41.9425ZM218.521 41.9425H221.913V40.036H218.521V41.9425ZM225.309 41.9425H228.702V40.036H225.309V41.9425ZM232.095 41.9425H235.488V40.036H232.095V41.9425ZM238.88 41.9425H242.276V40.036H238.88V41.9425ZM245.669 41.9425H249.062V40.036H245.669V41.9425ZM252.455 41.9425H255.85V40.036H252.455V41.9425ZM259.243 41.9425H262.636V40.036H259.243V41.9425ZM266.029 41.9425H269.425V40.036H266.029V41.9425ZM272.817 41.9425H276.21V40.036H272.817V41.9425ZM279.603 41.9425H282.999V40.036H279.603V41.9425ZM286.392 41.9425H289.784V40.036H286.392V41.9425Z" fill="#E4E8EB"/>
<path fill-rule="evenodd" clip-rule="evenodd" d="M295.503 42.8957H293.398V42.143H292.644V40.036H295.503V42.8957" fill="#E4E8EB"/>
<path fill-rule="evenodd" clip-rule="evenodd" d="M293.597 49.1126H295.503V45.7554H293.597V49.1126ZM293.597 55.8265H295.503V52.4695H293.597V55.8265ZM293.597 62.5406H295.503V59.1837H293.597V62.5406ZM293.597 69.2548H295.503V65.8978H293.597V69.2548ZM293.597 75.9689H295.503V72.6117H293.597V75.9689ZM293.597 82.6831H295.503V79.3261H293.597V82.6831ZM293.597 89.3972H295.503V86.04H293.597V89.3972ZM293.597 96.1111H295.503V92.7541H293.597V96.1111ZM293.597 102.825H295.503V99.4683H293.597V102.825ZM293.597 109.539H295.503V106.182H293.597V109.539ZM293.597 116.253H295.503V112.896H293.597V116.253ZM293.597 122.968H295.503V119.61H293.597V122.968Z" fill="#E4E8EB"/>
<path fill-rule="evenodd" clip-rule="evenodd" d="M296.456 128.687H293.597V125.827H295.704V126.58H296.456V128.687" fill="#E4E8EB"/>
<path fill-rule="evenodd" clip-rule="evenodd" d="M299.316 128.687H302.72V126.781H299.316V128.687ZM306.124 128.687H309.528V126.781H306.124V128.687ZM312.932 128.687H316.336V126.781H312.932V128.687ZM319.741 128.687H323.147V126.781H319.741V128.687Z" fill="#E4E8EB"/>
<path fill-rule="evenodd" clip-rule="evenodd" d="M326.96 128.687H328.866V126.781H326.96V128.687Z" fill="#E4E8EB"/>
<path fill-rule="evenodd" clip-rule="evenodd" d="M515.683 351.745H495.702C495.164 351.745 494.73 351.319 494.73 350.793C494.73 350.264 495.164 349.838 495.702 349.838H515.683C516.222 349.838 516.655 350.264 516.655 350.793C516.655 351.319 516.222 351.745 515.683 351.745" fill="#0B1E57"/>
<path fill-rule="evenodd" clip-rule="evenodd" d="M349.838 135.36H489.964V120.108H349.838V135.36Z" fill="#78A9FF"/>
<path opacity="0.648461" fill-rule="evenodd" clip-rule="evenodd" d="M349.838 162.05H489.964V146.799H349.838V162.05Z" fill="#78A9FF"/>
<path fill-rule="evenodd" clip-rule="evenodd" d="M349.838 188.741H439.442V173.489H349.838V188.741Z" fill="#D9E7FF"/>
<path fill-rule="evenodd" clip-rule="evenodd" d="M250.702 40.9892C250.702 44.6743 247.714 47.6619 244.029 47.6619C240.345 47.6619 237.356 44.6743 237.356 40.9892C237.356 37.3038 240.345 34.3166 244.029 34.3166C247.714 34.3166 250.702 37.3038 250.702 40.9892" fill="#E4E8EB"/>
<path fill-rule="evenodd" clip-rule="evenodd" d="M300.27 104.856C300.27 108.541 297.285 111.529 293.597 111.529C289.913 111.529 286.925 108.541 286.925 104.856C286.925 101.171 289.913 98.1835 293.597 98.1835C297.285 98.1835 300.27 101.171 300.27 104.856" fill="#E4E8EB"/>
<path fill-rule="evenodd" clip-rule="evenodd" d="M251.638 204.946L245.713 211.588C238.179 220.81 234.995 232.845 236.982 244.594L244.016 301.094C244.796 307.37 249.323 312.534 255.437 314.123L332.719 333.633L337.446 299.093L282.99 277.439L282.955 242.501C282.935 224.053 269.759 208.25 251.638 204.946" fill="#1063FE"/>
<path fill-rule="evenodd" clip-rule="evenodd" d="M186.835 195.055C205.572 221.425 221.05 250.056 223.389 279.299C234.548 242.47 225.585 211.57 221.345 195.156L210.979 192.554L186.835 195.055" fill="white"/>
<path fill-rule="evenodd" clip-rule="evenodd" d="M151.448 211.152L147.752 350.791L262.14 348.302L255.922 204.835L227.317 194.232L220.71 192.554C224.942 208.993 234.132 241.618 223.002 278.502C220.669 249.215 205.232 220.542 186.543 194.131L151.448 211.152" fill="#1063FE"/>
<path fill-rule="evenodd" clip-rule="evenodd" d="M187.658 195.367L217.108 226.87L222.104 195.468L213.527 138.219H182.068L187.658 195.367" fill="#FFBFAA"/>
<path fill-rule="evenodd" clip-rule="evenodd" d="M251.654 321.505L211.744 317.428L201.133 349.875L230.203 350.791L251.654 321.505" fill="#FFBFAA"/>
<path fill-rule="evenodd" clip-rule="evenodd" d="M206.471 190.647H222.485C230.698 190.647 237.356 184.017 237.356 175.838V137.266H191.601V175.838C191.601 184.017 198.259 190.647 206.471 190.647" fill="#FFBFAA"/>
<path fill-rule="evenodd" clip-rule="evenodd" d="M186.931 144.017C192.697 148.483 199.483 151.447 206.655 152.795C212.341 153.864 218.093 154.648 223.839 155.048C228.701 155.387 233.767 155.739 238.554 154.591C241.812 153.81 244.845 152.171 245.513 148.594C246.256 144.623 242.993 140.613 239.658 138.851C239.658 138.851 251.476 135.012 242.682 127.609C242.426 127.395 243.635 121.758 243.67 121.158C244.113 112.978 237.506 107.205 229.438 108.996C213.997 112.426 206.361 130.345 190.18 131.996C176.572 133.384 180.708 139.197 186.931 144.017" fill="#0B1E57"/>
<path fill-rule="evenodd" clip-rule="evenodd" d="M217.338 121.49C217.338 121.49 186.471 108.397 178.673 123.782C170.875 139.166 184.846 167.315 189.071 171.243C193.293 175.171 201.743 143.748 201.743 143.748L217.338 121.49" fill="#0B1E57"/>
<path fill-rule="evenodd" clip-rule="evenodd" d="M190.549 176.224V176.224C195.593 175.407 198.991 170.806 198.144 165.948L197.599 162.82C196.749 157.962 191.976 154.685 186.933 155.503C181.891 156.32 178.491 160.921 179.339 165.779L179.885 168.907C180.733 173.765 185.508 177.041 190.549 176.224" fill="#FFBFAA"/>
<path fill-rule="evenodd" clip-rule="evenodd" d="M190.63 169.676C190.362 169.676 190.097 169.561 189.904 169.334L185.173 163.745C184.817 163.325 184.853 162.681 185.253 162.308C185.654 161.934 186.267 161.972 186.623 162.392L191.355 167.981C191.711 168.402 191.675 169.045 191.275 169.419C191.09 169.591 190.859 169.676 190.63 169.676" fill="#2A0055"/>
<path fill-rule="evenodd" clip-rule="evenodd" d="M230.684 163.957C230.684 165.01 231.536 165.863 232.589 165.863C233.642 165.863 234.497 165.01 234.497 163.957C234.497 162.904 233.642 162.05 232.589 162.05C231.536 162.05 230.684 162.904 230.684 163.957" fill="#2A0055"/>
<path fill-rule="evenodd" clip-rule="evenodd" d="M210.665 164.91C210.665 165.963 211.52 166.817 212.573 166.817C213.623 166.817 214.478 165.963 214.478 164.91C214.478 163.857 213.623 163.004 212.573 163.004C211.52 163.004 210.665 163.857 210.665 164.91" fill="#2A0055"/>
<path fill-rule="evenodd" clip-rule="evenodd" d="M233.543 155.607C229.464 155.607 226.146 158.925 226.146 163.003C226.146 167.082 229.464 170.4 233.543 170.4C237.622 170.4 240.94 167.082 240.94 163.003C240.94 158.925 237.622 155.607 233.543 155.607ZM233.543 172.536C228.287 172.536 224.011 168.26 224.011 163.003C224.011 157.747 228.287 153.471 233.543 153.471C238.799 153.471 243.075 157.747 243.075 163.003C243.075 168.26 238.799 172.536 233.543 172.536V172.536Z" fill="white"/>
<path fill-rule="evenodd" clip-rule="evenodd" d="M209.712 155.607C205.633 155.607 202.315 158.925 202.315 163.004C202.315 167.082 205.633 170.401 209.712 170.401C213.791 170.401 217.109 167.082 217.109 163.004C217.109 158.925 213.791 155.607 209.712 155.607ZM209.712 172.536C204.454 172.536 200.18 168.26 200.18 163.004C200.18 157.747 204.454 153.471 209.712 153.471C214.968 153.471 219.244 157.747 219.244 163.004C219.244 168.26 214.968 172.536 209.712 172.536V172.536Z" fill="white"/>
<path opacity="0.339611" fill-rule="evenodd" clip-rule="evenodd" d="M239.235 140.126C239.049 140.126 238.86 140.065 238.695 139.937C237.54 139.058 234.088 136.958 231.983 137.787C231.471 137.988 230.914 137.677 230.738 137.092C230.56 136.506 230.833 135.868 231.345 135.666C234.799 134.304 239.579 137.917 239.781 138.071C240.23 138.416 240.351 139.112 240.052 139.627C239.863 139.951 239.553 140.126 239.235 140.126" fill="#1063FE"/>
<path opacity="0.339611" fill-rule="evenodd" clip-rule="evenodd" d="M239.375 131.547C238.909 131.547 238.477 131.262 238.349 130.827C238.191 130.306 238.523 129.766 239.092 129.621C240.826 129.18 240.944 126.806 240.944 126.783C240.958 126.241 241.449 125.811 242.035 125.828C242.624 125.842 243.09 126.292 243.075 126.833C243.07 126.99 242.93 130.679 239.66 131.511C239.563 131.535 239.469 131.547 239.375 131.547" fill="#1063FE"/>
<path fill-rule="evenodd" clip-rule="evenodd" d="M224.732 307.896C224.087 307.896 223.56 307.427 223.547 306.836L223.058 284.214C223.045 283.618 223.563 283.123 224.217 283.112C224.227 283.112 224.233 283.112 224.243 283.112C224.885 283.112 225.415 283.58 225.428 284.171L225.917 306.793C225.93 307.389 225.409 307.884 224.754 307.896C224.745 307.896 224.738 307.896 224.732 307.896" fill="#0B1E57"/>
<path opacity="0.339611" fill-rule="evenodd" clip-rule="evenodd" d="M188.579 142.032C188.475 142.032 188.364 142.018 188.259 141.986C179.452 139.407 174.348 134.573 173.498 128.009C173.421 127.411 173.854 126.865 174.465 126.789C175.078 126.713 175.635 127.137 175.712 127.735C176.454 133.458 180.89 137.55 188.899 139.896C189.489 140.068 189.824 140.677 189.647 141.254C189.504 141.727 189.058 142.032 188.579 142.032" fill="#1063FE"/>
<path opacity="0.339611" fill-rule="evenodd" clip-rule="evenodd" d="M182.044 146.799C181.937 146.799 181.827 146.78 181.72 146.742C178.524 145.595 176.116 143.546 174.563 140.651C174.303 140.168 174.477 139.561 174.95 139.296C175.423 139.031 176.017 139.208 176.277 139.691C177.591 142.141 179.641 143.879 182.368 144.858C182.877 145.041 183.145 145.61 182.966 146.131C182.825 146.541 182.447 146.799 182.044 146.799" fill="#1063FE"/>
<path fill-rule="evenodd" clip-rule="evenodd" d="M224.011 350.791L250.216 315.87C253.984 310.849 259.883 307.896 266.144 307.896H294.55L293.731 350.174L224.011 350.791" fill="#FFBFAA"/>
<path fill-rule="evenodd" clip-rule="evenodd" d="M224.129 280.252C223.922 280.252 223.713 280.194 223.529 280.067C223.037 279.736 222.911 279.067 223.241 278.574C230.156 268.329 235.356 247.532 239.532 230.82C240.305 227.732 241.038 224.802 241.753 222.043L230.334 211.928C230.05 211.677 229.918 211.293 229.989 210.919C230.061 210.545 230.325 210.237 230.682 210.109L240.567 206.566L229.51 199.296C229.016 198.97 228.878 198.303 229.202 197.807C229.527 197.309 230.19 197.171 230.685 197.496L243.543 205.952C243.885 206.176 244.068 206.574 244.02 206.979C243.974 207.384 243.701 207.728 243.316 207.865L233.115 211.522L243.666 220.866C243.968 221.135 244.097 221.553 243.994 221.945C243.227 224.88 242.442 228.02 241.612 231.344C237.392 248.218 232.141 269.22 225.017 279.779C224.81 280.087 224.471 280.252 224.129 280.252" fill="#0B1E57"/>
<path fill-rule="evenodd" clip-rule="evenodd" d="M217.2 271.673C216.82 271.673 216.448 271.476 216.249 271.131C206.513 254.275 194.874 235.397 182.387 223.194C182.132 222.946 182.02 222.589 182.088 222.241C182.157 221.896 182.396 221.606 182.728 221.466L192.196 217.494L182.88 215.082C182.37 214.95 182.029 214.481 182.072 213.968L183.696 194.485C183.744 193.9 184.272 193.461 184.872 193.511C185.473 193.558 185.921 194.072 185.872 194.657L184.322 213.254L195.805 216.227C196.255 216.343 196.58 216.724 196.615 217.176C196.647 217.629 196.384 218.052 195.957 218.231L185.054 222.806C197.297 235.2 208.631 253.607 218.151 270.087C218.447 270.598 218.259 271.248 217.736 271.536C217.566 271.627 217.382 271.673 217.2 271.673" fill="#0B1E57"/>
<path fill-rule="evenodd" clip-rule="evenodd" d="M224.707 285.971C224.072 285.971 223.541 285.54 223.502 284.982C223.379 283.162 223.23 281.31 223.061 279.481C223.01 278.904 223.505 278.396 224.169 278.349C224.837 278.303 225.416 278.735 225.471 279.312C225.64 281.158 225.789 283.024 225.915 284.858C225.954 285.439 225.446 285.935 224.781 285.968C224.756 285.971 224.733 285.971 224.707 285.971" fill="#2A0055"/>
<path fill-rule="evenodd" clip-rule="evenodd" d="M212.095 287.018C210.308 287.018 208.852 288.473 208.852 290.261C208.852 292.051 210.308 293.504 212.095 293.504C213.883 293.504 215.339 292.051 215.339 290.261C215.339 288.473 213.883 287.018 212.095 287.018ZM212.095 295.504C209.203 295.504 206.853 293.153 206.853 290.261C206.853 287.371 209.203 285.018 212.095 285.018C214.985 285.018 217.338 287.371 217.338 290.261C217.338 293.153 214.985 295.504 212.095 295.504V295.504Z" fill="#0B1E57"/>
<path fill-rule="evenodd" clip-rule="evenodd" d="M125.345 282.158C121.248 282.158 118.871 281.019 118.725 280.945C118.212 280.693 118.048 280.146 118.358 279.727C118.666 279.309 119.33 279.173 119.842 279.425C120.039 279.521 124.496 281.59 131.996 279.352C132.559 279.185 133.182 279.423 133.387 279.882C133.592 280.344 133.302 280.852 132.74 281.019C129.886 281.87 127.399 282.158 125.345 282.158" fill="white"/>
<path fill-rule="evenodd" clip-rule="evenodd" d="M216.876 182.068C216.199 182.068 215.563 181.91 214.974 181.593C213.251 180.667 212.641 178.701 212.617 178.618C212.456 178.085 212.739 177.517 213.251 177.349C213.759 177.182 214.299 177.476 214.463 178.006C214.608 178.466 215.452 180.704 217.977 179.843C218.486 179.669 219.031 179.959 219.197 180.49C219.363 181.022 219.085 181.593 218.576 181.766C217.985 181.968 217.419 182.068 216.876 182.068" fill="#0B1E57"/>
<path fill-rule="evenodd" clip-rule="evenodd" d="M160.485 208.759L151.904 211.56C140.757 215.884 132.027 224.82 127.96 236.068L99.6957 333.541C97.1231 342.413 103.752 351.282 112.993 351.334L217.302 351.745L236.403 315.852L164.219 309.038L180.49 231.809L160.485 208.759" fill="#1063FE"/>
<path fill-rule="evenodd" clip-rule="evenodd" d="M204.088 347.932C203.973 347.932 203.858 347.915 203.745 347.875C203.198 347.681 202.909 347.077 203.097 346.521L211.491 321.955C211.681 321.402 212.276 321.108 212.823 321.299C213.367 321.493 213.656 322.097 213.468 322.653L205.075 347.216C204.926 347.658 204.52 347.932 204.088 347.932" fill="#0B1E57"/>
<path fill-rule="evenodd" clip-rule="evenodd" d="M216.702 352.698C216.522 352.698 216.341 352.652 216.172 352.557C215.659 352.263 215.481 351.607 215.773 351.091L234.534 318.116L140.146 309.572C139.579 309.52 139.151 309.031 139.174 308.458C139.196 307.888 139.661 307.433 140.231 307.427L159.372 307.22L168.6 290.398C168.662 290.286 168.743 290.185 168.839 290.101C168.957 289.998 180.683 279.626 182.527 260.253C182.583 259.662 183.103 259.231 183.693 259.285C184.281 259.343 184.712 259.867 184.655 260.457C182.818 279.758 171.868 290.257 170.383 291.596L160.943 308.803C160.834 309.002 160.668 309.158 160.471 309.253L236.382 316.126C236.746 316.157 237.067 316.373 237.234 316.699C237.403 317.024 237.397 317.41 237.216 317.73L217.631 352.157C217.433 352.505 217.072 352.698 216.702 352.698" fill="white"/>
<path fill-rule="evenodd" clip-rule="evenodd" d="M259.849 288.831C259.287 288.831 258.819 288.372 258.799 287.788L258.328 274.352C258.322 274.222 258.342 274.088 258.382 273.963C262.286 262.178 263.668 249.916 262.486 237.524L261.31 225.201C261.253 224.605 261.677 224.074 262.255 224.016C262.828 223.96 263.347 224.393 263.406 224.989L264.579 237.312C265.787 249.948 264.39 262.451 260.438 274.474L260.901 287.709C260.923 288.308 260.469 288.811 259.888 288.831C259.877 288.831 259.863 288.831 259.849 288.831" fill="white"/>
<path fill-rule="evenodd" clip-rule="evenodd" d="M264.656 351.745H246.889L281.55 249.748H299.317L264.656 351.745" fill="#78A9FF"/>
<path fill-rule="evenodd" clip-rule="evenodd" d="M264.047 351.745L299.37 249.748H439.443L404.12 351.745H264.047" fill="#78A9FF"/>
<path fill-rule="evenodd" clip-rule="evenodd" d="M265.134 347.932C265.015 347.932 264.895 347.914 264.779 347.874C264.211 347.679 263.911 347.069 264.106 346.509L298.16 249.518C298.355 248.957 298.975 248.661 299.539 248.854C300.107 249.049 300.407 249.659 300.209 250.219L266.159 347.21C266.004 347.656 265.582 347.932 265.134 347.932" fill="white"/>
<path fill-rule="evenodd" clip-rule="evenodd" d="M221.071 177.302H219.363C218.771 177.302 218.291 176.819 218.291 176.223C218.291 175.627 218.771 175.144 219.363 175.144H221.071C221.327 175.144 221.56 175.025 221.71 174.818C221.859 174.611 221.902 174.353 221.825 174.108C221.813 174.069 221.804 174.029 221.796 173.989L220.108 165.242C219.996 164.657 220.375 164.09 220.956 163.976C221.54 163.864 222.101 164.245 222.216 164.83L223.892 173.523C224.148 174.412 223.987 175.345 223.44 176.094C222.88 176.862 222.017 177.302 221.071 177.302" fill="#0B1E57"/>
<path fill-rule="evenodd" clip-rule="evenodd" d="M224.914 162.05H218.341C217.787 162.05 217.338 161.624 217.338 161.097C217.338 160.571 217.787 160.144 218.341 160.144H224.914C225.468 160.144 225.917 160.571 225.917 161.097C225.917 161.624 225.468 162.05 224.914 162.05" fill="white"/>
<path fill-rule="evenodd" clip-rule="evenodd" d="M19.7722 203.712C19.9299 203.747 20.0852 203.782 20.2377 203.818C23.6186 204.614 26.6235 206.115 29.2089 208.455C30.8769 209.965 32.2861 211.742 33.4406 213.669C33.7204 214.136 35.2117 217.07 36.1088 219.265C36.6075 220.486 37.9504 221.114 39.2146 220.734C42.4902 219.749 48.0192 219.225 49.7902 226.006C51.4056 232.188 50.2328 238.118 49.1355 241.677C48.4962 243.749 48.8205 246.008 50.0656 247.784C52.0822 250.665 54.6957 255.584 54.2936 261.339C53.6988 269.858 37.5081 262.252 33.5543 251.401C32.967 249.789 31.5351 248.631 29.843 248.336C25.5155 247.576 17.816 245.303 15.6929 238.638C14.0043 233.34 14.7576 229.463 15.7403 227.086C16.1974 225.98 15.7907 224.706 14.7582 224.099C12.7418 222.912 10.442 220.277 9.78702 219.577C7.6535 217.294 5.65826 214.662 5.00475 211.543C3.06505 202.282 13.4237 202.329 19.7722 203.712" fill="#E4E8EB"/>
<path fill-rule="evenodd" clip-rule="evenodd" d="M72.3569 183.423C73.2844 183.503 74.1717 183.034 74.6197 182.226C77.1048 177.742 85.4272 164.824 92.1543 178.988C97.7812 190.835 93.7736 192.659 90.8963 192.698C89.6515 192.715 88.4896 193.385 87.9596 194.5C86.9778 196.566 88.4082 198.891 90.6333 199.034C92.587 199.159 95.2066 198.778 96.8625 198.482C97.6417 198.343 98.3155 199.024 98.1613 199.793C97.289 204.141 94.2902 216.016 86.9093 220.428C84.138 222.083 82.6884 225.305 83.5182 228.403C83.8495 229.64 84.5238 230.972 85.7218 232.339C90.2341 237.496 77.7449 243.532 74.5175 245.183C72.7675 246.077 71.1366 247.363 69.1669 247.743C64.0285 248.727 62.4705 242.116 60.7752 238.716C58.9737 235.103 57.826 230.889 58.2276 226.839C58.9487 219.565 67.0398 216.702 69.3003 210.216C71.5085 203.882 67.3266 196.919 66.5328 190.605C66.2951 188.715 66.0615 186.212 67.3841 184.625C68.0236 183.857 68.8714 183.49 69.8413 183.306C70.0851 183.26 71.3161 183.332 72.3569 183.423" fill="#E4E8EB"/>
<path fill-rule="evenodd" clip-rule="evenodd" d="M115.698 228.424C114.888 227.19 113.775 226.232 112.387 225.976C111.074 225.737 109.735 226.258 108.601 226.946C104.934 229.174 103.673 233.555 100.438 235.801C98.6147 237.066 96.3255 237.766 94.4634 239.071C91.6431 241.049 89.1304 243.528 87.4633 246.528C86.512 248.236 85.8493 250.09 85.5236 252.012C85.4605 252.384 85.4942 254.351 85.5451 256.066C85.5922 257.663 84.8582 259.184 83.5647 260.157C80.783 262.243 76.485 266.511 78.85 271.693C82.0327 278.67 92.6335 275.25 97.3932 267.682C97.9769 266.755 98.8532 266.036 99.8818 265.618C102.764 264.444 105.578 263.008 108.172 261.348C110.286 259.995 112.568 258.397 113.933 256.265C116.817 251.767 111.726 246.701 114.33 241.774C115.671 239.238 117.216 236.504 117.247 233.572C117.264 232.003 116.727 229.99 115.698 228.424" fill="#E4E8EB"/>
<path fill-rule="evenodd" clip-rule="evenodd" d="M50.7702 260.234C50.4583 260.234 50.1733 260.029 50.0899 259.718C43.8137 236.412 15.7564 210.219 15.4734 209.957C15.1902 209.695 15.1769 209.256 15.4433 208.977C15.71 208.699 16.1554 208.685 16.4389 208.947C16.5102 209.013 23.6671 215.669 31.5094 225.145C38.7642 233.912 48.1129 246.966 51.4513 259.364C51.5509 259.735 51.3271 260.114 50.9509 260.211C50.8904 260.228 50.8298 260.234 50.7702 260.234" fill="white"/>
<path fill-rule="evenodd" clip-rule="evenodd" d="M70.2811 241.169C70.2414 241.169 70.2011 241.166 70.1609 241.161C69.7831 241.096 69.5304 240.739 69.5964 240.363L70.1555 237.19C73.8744 216.05 77.7201 194.192 82.5557 183.43C82.7113 183.083 83.1218 182.926 83.4722 183.082C83.8225 183.236 83.9804 183.642 83.8242 183.99C79.0586 194.596 75.228 216.368 71.5234 237.424L70.9643 240.601C70.9055 240.934 70.6123 241.169 70.2811 241.169" fill="white"/>
<path fill-rule="evenodd" clip-rule="evenodd" d="M84.5871 272.626C84.4449 272.626 84.3009 272.582 84.1766 272.492C83.8618 272.265 83.7904 271.822 84.0176 271.504C86.5012 268.032 89.2258 264.521 91.8606 261.127C98.2915 252.845 104.941 244.28 109.234 234.908C109.397 234.553 109.814 234.398 110.167 234.561C110.519 234.725 110.673 235.147 110.511 235.502C106.149 245.023 99.4483 253.655 92.968 262.001C90.3413 265.384 87.6253 268.882 85.158 272.332C85.0207 272.524 84.8053 272.626 84.5871 272.626" fill="white"/>
<path fill-rule="evenodd" clip-rule="evenodd" d="M63.1574 312.662C62.824 312.662 62.5369 312.401 62.4987 312.042C59.7864 286.673 68.1929 250.639 68.278 250.277C68.3664 249.904 68.7263 249.677 69.0821 249.769C69.4376 249.86 69.6545 250.239 69.5661 250.616C69.4813 250.974 61.1318 286.768 63.8174 311.887C63.8583 312.269 63.5964 312.616 63.2324 312.659C63.207 312.662 63.1819 312.662 63.1574 312.662" fill="#8C94A5"/>
<path fill-rule="evenodd" clip-rule="evenodd" d="M68.3849 317.428C68.3811 317.428 68.3779 317.428 68.3741 317.428C67.9849 317.422 67.674 317.101 67.6798 316.713C68.0014 294.534 80.5865 277.835 80.7134 277.667C80.9499 277.361 81.3918 277.3 81.7011 277.537C82.0106 277.772 82.0697 278.214 81.8338 278.524C81.7095 278.686 69.4041 295.034 69.0891 316.734C69.0836 317.118 68.7691 317.428 68.3849 317.428" fill="#8C94A5"/>
<path fill-rule="evenodd" clip-rule="evenodd" d="M57.4861 316.475C57.151 316.475 56.864 316.203 56.8298 315.842C55.0406 296.805 51.5161 268.935 51.4806 268.655C51.432 268.271 51.6856 267.918 52.0469 267.866C52.4086 267.814 52.7406 268.083 52.7895 268.467C52.8248 268.747 56.3522 296.64 58.1439 315.701C58.1803 316.088 57.9156 316.431 57.5529 316.472C57.5303 316.472 57.5081 316.475 57.4861 316.475" fill="#8C94A5"/>
<path fill-rule="evenodd" clip-rule="evenodd" d="M93.4171 308.849L83.5504 350.791H44.1829L34.3164 308.849H93.4171" fill="#8C94A5"/>
<path fill-rule="evenodd" clip-rule="evenodd" d="M83.8846 308.849L74.2603 350.791H44.897L35.2695 308.849H83.8846" fill="#B2BBC6"/>
<path fill-rule="evenodd" clip-rule="evenodd" d="M55.5412 342.212C55.2328 342.212 54.9506 342.01 54.8664 341.701L47.6866 315.442C47.5856 315.073 47.8065 314.692 48.1793 314.592C48.5526 314.493 48.9363 314.712 49.037 315.081L56.2168 341.343C56.3178 341.709 56.0969 342.09 55.7241 342.19C55.6628 342.207 55.6016 342.212 55.5412 342.212" fill="white"/>
<path fill-rule="evenodd" clip-rule="evenodd" d="M127.724 351.745H1.91616C1.38425 351.745 0.953125 351.319 0.953125 350.793C0.953125 350.264 1.38425 349.838 1.91616 349.838H127.724C128.256 349.838 128.687 350.264 128.687 350.793C128.687 351.319 128.256 351.745 127.724 351.745" fill="#0B1E57"/>
<path fill-rule="evenodd" clip-rule="evenodd" d="M489.008 351.745H142.99C142.461 351.745 142.032 351.319 142.032 350.793C142.032 350.264 142.461 349.838 142.99 349.838H489.008C489.536 349.838 489.964 350.264 489.964 350.793C489.964 351.319 489.536 351.745 489.008 351.745" fill="#0B1E57"/>
</svg>
