<svg width="72" height="72" viewBox="0 0 72 72" fill="none" xmlns="http://www.w3.org/2000/svg">
<rect width="72" height="72" fill="#F6A527"/>
<mask id="mask0" mask-type="alpha" maskUnits="userSpaceOnUse" x="0" y="0" width="72" height="72">
<rect width="72" height="72" fill="white"/>
</mask>
<g mask="url(#mask0)">
<path opacity="0.335635" fill-rule="evenodd" clip-rule="evenodd" d="M16.4517 16.7413L51.905 49.1841L-173.664 303.788L-209.117 271.345L16.4517 16.7413Z" fill="#F68725"/>
<path opacity="0.4518" fill-rule="evenodd" clip-rule="evenodd" d="M212.452 -132.259L247.905 -99.8159L22.3364 154.788L-13.1169 122.345L212.452 -132.259Z" fill="#F68725"/>
<path fill-rule="evenodd" clip-rule="evenodd" d="M-54.1455 158.003L-33.1774 176.82L68.1454 72.9973L47.1772 54.1798L-54.1455 158.003Z" fill="#F68725"/>
<path fill-rule="evenodd" clip-rule="evenodd" d="M75.9073 -156.762L131.87 -105.565L-154.275 226.87L-210.238 175.674L75.9073 -156.762Z" fill="#F68725"/>
<path opacity="0.814848" fill-rule="evenodd" clip-rule="evenodd" d="M53.4517 -106.259L88.905 -73.8159L-136.664 180.788L-172.117 148.345L53.4517 -106.259Z" fill="#E97B1A"/>
</g>
</svg>
