<svg width="72" height="72" viewBox="0 0 72 72" fill="none" xmlns="http://www.w3.org/2000/svg">
<rect width="72" height="72" fill="#FBCED3"/>
<mask id="mask0" mask-type="alpha" maskUnits="userSpaceOnUse" x="0" y="0" width="72" height="72">
<rect width="72" height="72" fill="white"/>
</mask>
<g mask="url(#mask0)">
<path opacity="0.335635" fill-rule="evenodd" clip-rule="evenodd" d="M16.4517 16.7413L51.905 49.184L-173.664 303.787L-209.117 271.345L16.4517 16.7413Z" fill="#ED9292"/>
<path opacity="0.4518" fill-rule="evenodd" clip-rule="evenodd" d="M212.452 -132.259L247.905 -99.816L22.3364 154.787L-13.1169 122.345L212.452 -132.259Z" fill="#F8AFAF"/>
<path fill-rule="evenodd" clip-rule="evenodd" d="M-74.1455 162.003L-53.1774 180.82L48.1454 76.9972L27.1772 58.1797L-74.1455 162.003Z" fill="#F8AFAF"/>
<path fill-rule="evenodd" clip-rule="evenodd" d="M75.9073 -156.762L131.87 -105.565L-154.275 226.87L-210.238 175.674L75.9073 -156.762Z" fill="#F8AFAF"/>
<path opacity="0.814848" fill-rule="evenodd" clip-rule="evenodd" d="M53.4517 -106.259L88.905 -73.816L-136.664 180.787L-172.117 148.345L53.4517 -106.259Z" fill="#F8AFAF"/>
</g>
</svg>
