<svg width="510" height="325" viewBox="0 0 510 325" fill="none" xmlns="http://www.w3.org/2000/svg">
<path fill-rule="evenodd" clip-rule="evenodd" d="M319.84 205.29L295.93 192.779L336.482 184.617L319.84 205.29" fill="#CFE4FF"/>
<path fill-rule="evenodd" clip-rule="evenodd" d="M298.152 193.096L319.642 204.343L334.598 185.76L298.152 193.096ZM319.84 206.042C319.722 206.042 319.602 206.012 319.492 205.954L295.582 193.443C295.302 193.295 295.142 192.987 295.187 192.673C295.232 192.359 295.472 192.107 295.782 192.044L336.334 183.882C336.641 183.822 336.958 183.958 337.12 184.228C337.285 184.498 337.263 184.841 337.065 185.087L320.424 205.762C320.277 205.942 320.059 206.042 319.84 206.042V206.042Z" fill="#72ACFF"/>
<path fill-rule="evenodd" clip-rule="evenodd" d="M336.481 184.617L331.143 223.495L319.84 205.29L336.481 184.617" fill="#CFE4FF"/>
<path fill-rule="evenodd" clip-rule="evenodd" d="M320.756 205.347L330.683 221.334L335.372 187.191L320.756 205.347ZM331.143 224.244C330.888 224.244 330.646 224.114 330.506 223.89L319.203 205.687C319.035 205.417 319.055 205.07 319.255 204.823L335.897 184.147C336.109 183.885 336.469 183.796 336.778 183.929C337.086 184.062 337.268 184.385 337.223 184.719L331.885 223.597C331.842 223.91 331.608 224.162 331.3 224.227C331.248 224.239 331.195 224.244 331.143 224.244V224.244Z" fill="#72ACFF"/>
<path fill-rule="evenodd" clip-rule="evenodd" d="M331.143 223.495L308.297 214.312L295.93 192.779L319.84 205.29L331.143 223.495" fill="#CFE4FF"/>
<path fill-rule="evenodd" clip-rule="evenodd" d="M308.821 213.715L329.302 221.946L319.313 205.859L297.863 194.635L308.821 213.715ZM331.146 224.244C331.053 224.244 330.958 224.227 330.866 224.189L308.019 215.009C307.865 214.947 307.735 214.832 307.65 214.687L295.282 193.152C295.117 192.863 295.162 192.499 295.392 192.259C295.625 192.019 295.984 191.96 296.279 192.115L320.189 204.628C320.309 204.69 320.407 204.783 320.479 204.895L331.782 223.1C331.952 223.375 331.927 223.73 331.72 223.977C331.575 224.149 331.363 224.244 331.146 224.244V224.244Z" fill="#72ACFF"/>
<path fill-rule="evenodd" clip-rule="evenodd" d="M320.04 206.242L295.585 193.443C295.217 193.251 295.078 192.798 295.27 192.431C295.46 192.065 295.914 191.923 296.279 192.115L319.645 204.343L335.899 184.147C336.159 183.825 336.631 183.774 336.953 184.033C337.276 184.293 337.325 184.765 337.068 185.087L320.04 206.242" fill="white"/>
<path fill-rule="evenodd" clip-rule="evenodd" d="M331.146 224.244C330.896 224.244 330.652 224.119 330.509 223.89L319.206 205.687C318.989 205.335 319.096 204.873 319.448 204.655C319.801 204.435 320.26 204.545 320.48 204.895L331.783 223.1C332.001 223.452 331.893 223.912 331.541 224.132C331.419 224.207 331.281 224.244 331.146 224.244" fill="white"/>
<path fill-rule="evenodd" clip-rule="evenodd" d="M356.448 185.157C356.421 185.157 356.396 185.156 356.369 185.153L343.224 183.784C342.812 183.741 342.512 183.373 342.555 182.961C342.597 182.549 342.969 182.247 343.379 182.293L356.526 183.663C356.936 183.705 357.235 184.074 357.193 184.485C357.153 184.871 356.828 185.157 356.448 185.157" fill="#CFE4FF"/>
<path fill-rule="evenodd" clip-rule="evenodd" d="M336.095 176.725C336.07 176.725 336.042 176.724 336.017 176.721C335.605 176.678 335.305 176.31 335.348 175.898L336.212 167.598C336.257 167.186 336.627 166.884 337.036 166.93C337.449 166.973 337.746 167.342 337.703 167.753L336.839 176.053C336.799 176.438 336.474 176.725 336.095 176.725" fill="#CFE4FF"/>
<path fill-rule="evenodd" clip-rule="evenodd" d="M49.0795 142.686L44.4391 157.023L21.207 161.33L25.8475 146.993L49.0795 142.686" fill="#CFE4FF"/>
<path fill-rule="evenodd" clip-rule="evenodd" d="M25.8475 146.993L21.2071 161.33L14.1523 140.379L18.7931 126.042L25.8475 146.993" fill="#CFE4FF"/>
<path fill-rule="evenodd" clip-rule="evenodd" d="M18.793 126.043L42.0247 121.736L49.0795 142.686L25.8475 146.993L18.793 126.043" fill="#CFE4FF"/>
<path fill-rule="evenodd" clip-rule="evenodd" d="M25.4284 147.706L18.2008 126.242C18.0907 125.915 18.2665 125.561 18.5935 125.451C18.9202 125.34 19.2744 125.516 19.3846 125.843L26.2662 146.28L48.9654 142.072C49.3037 142.008 49.6304 142.233 49.6933 142.572C49.7563 142.911 49.5322 143.237 49.193 143.3L25.4284 147.706" fill="white"/>
<path fill-rule="evenodd" clip-rule="evenodd" d="M21.2068 161.954C21.1431 161.954 21.0781 161.944 21.0145 161.924C20.6862 161.818 20.5064 161.466 20.6125 161.137L25.253 146.801C25.3592 146.473 25.7109 146.292 26.0396 146.399C26.3676 146.505 26.5474 146.857 26.4413 147.185L21.8008 161.522C21.7154 161.786 21.4703 161.954 21.2068 161.954" fill="white"/>
<path fill-rule="evenodd" clip-rule="evenodd" d="M12.8406 126.871C12.8004 126.871 12.7597 126.867 12.7187 126.859L4.54241 125.239C4.20394 125.172 3.98412 124.843 4.05107 124.505C4.11826 124.166 4.44674 123.946 4.78497 124.013L12.9613 125.634C13.2998 125.701 13.5196 126.03 13.4526 126.368C13.3937 126.665 13.1326 126.871 12.8406 126.871" fill="#CFE4FF"/>
<path fill-rule="evenodd" clip-rule="evenodd" d="M18.5547 120.847C18.5425 120.847 18.5305 120.847 18.518 120.846C18.1738 120.826 17.9108 120.531 17.9308 120.186L18.2395 114.857C18.2592 114.512 18.5537 114.247 18.899 114.269C19.2434 114.289 19.5062 114.585 19.4862 114.929L19.1775 120.259C19.1585 120.59 18.8832 120.847 18.5547 120.847" fill="#CFE4FF"/>
<path fill-rule="evenodd" clip-rule="evenodd" d="M141.192 45.9831C141.192 58.8229 130.784 69.2316 117.944 69.2316C105.104 69.2316 94.6953 58.8229 94.6953 45.9831C94.6953 33.1434 105.104 22.7346 117.944 22.7346C130.784 22.7346 141.192 33.1434 141.192 45.9831" fill="#CFE4FF"/>
<path fill-rule="evenodd" clip-rule="evenodd" d="M117.943 5.0065C95.3489 5.0065 76.9667 23.3885 76.9667 45.9833C76.9667 68.5781 95.3489 86.9603 117.943 86.9603C140.538 86.9603 158.921 68.5781 158.921 45.9833C158.921 23.3885 140.538 5.0065 117.943 5.0065ZM117.943 89.4583C93.9716 89.4583 74.4688 69.9554 74.4688 45.9833C74.4688 22.0111 93.9716 2.50854 117.943 2.50854C141.916 2.50854 161.418 22.0111 161.418 45.9833C161.418 69.9554 141.916 89.4583 117.943 89.4583V89.4583Z" fill="#CFE4FF"/>
<path fill-rule="evenodd" clip-rule="evenodd" d="M206.598 264.884H281.289V232.518H206.598V264.884Z" fill="#CFE4FF"/>
<path fill-rule="evenodd" clip-rule="evenodd" d="M230.129 244.225H303.574V213.103H230.129V244.225ZM228.883 245.469H304.818V211.857H228.883V245.469Z" fill="#72ACFF"/>
<path fill-rule="evenodd" clip-rule="evenodd" d="M393.527 158.193H371.508V243.234H467.999V158.193H393.527" fill="#CFE4FF"/>
<path fill-rule="evenodd" clip-rule="evenodd" d="M387.783 25.6418H363.32V120.132H470.533V25.6418H387.783" fill="#CFE4FF"/>
<path fill-rule="evenodd" clip-rule="evenodd" d="M177.426 18.6023H157.352V96.1372H245.328V18.6023H177.426" fill="#CFE4FF"/>
<path fill-rule="evenodd" clip-rule="evenodd" d="M142.406 268.386L151.477 286.001H174.59L163.115 262.276L142.406 268.386" fill="#FFBFAA"/>
<path fill-rule="evenodd" clip-rule="evenodd" d="M148.59 279.544L150.996 302.565L190.559 302.668L185.886 293.263L174.008 284.153L174.382 275.303L165.84 275.278L162.114 281.438L148.59 279.544" fill="#001E57"/>
<path fill-rule="evenodd" clip-rule="evenodd" d="M188.348 299.218C188.345 299.218 188.345 299.218 188.345 299.218L162.406 299.151C162.136 299.148 161.877 299.041 161.688 298.848C161.499 298.656 161.395 298.394 161.399 298.124C161.399 298.107 161.386 295.694 159.431 293.725C157.646 291.927 154.818 291.01 151.026 290.997C150.469 290.997 150.018 290.543 150.02 289.986C150.021 289.429 150.473 288.979 151.029 288.979C151.03 288.979 151.031 288.979 151.032 288.979C155.403 288.991 158.723 290.121 160.9 292.336C162.577 294.045 163.138 295.978 163.326 297.132L188.35 297.197C188.907 297.2 189.359 297.652 189.357 298.211C189.354 298.769 188.905 299.218 188.348 299.218" fill="white"/>
<path fill-rule="evenodd" clip-rule="evenodd" d="M176.853 288.374C176.852 288.374 176.851 288.374 176.85 288.374L170.722 288.357C170.164 288.354 169.713 287.902 169.715 287.343C169.716 286.788 170.168 286.336 170.725 286.336C170.726 286.336 170.727 286.336 170.728 286.336L176.856 286.353C177.414 286.356 177.865 286.811 177.863 287.368C177.861 287.925 177.41 288.374 176.853 288.374" fill="white"/>
<path fill-rule="evenodd" clip-rule="evenodd" d="M127.588 269.697L125.884 285.559H107.449L107.789 266.173L127.588 269.697" fill="#FFBFAA"/>
<path fill-rule="evenodd" clip-rule="evenodd" d="M100.308 112.26L97.5251 115.528C93.9863 120.066 92.491 125.989 93.424 131.771L96.7278 159.574C97.0947 162.663 99.221 165.204 102.093 165.986L138.392 175.588L140.613 158.59L115.034 147.934L115.018 130.741C115.009 121.662 108.82 113.886 100.308 112.26" fill="#001E57"/>
<path fill-rule="evenodd" clip-rule="evenodd" d="M115.489 188.253L88.2773 226.05H109.278L104.44 271.793H141.037L153.824 204.353C154.771 199.355 151.442 194.574 146.616 194.003L115.489 188.253" fill="#72ACFF"/>
<path fill-rule="evenodd" clip-rule="evenodd" d="M70.1445 110.336C78.8587 123.28 86.0575 137.332 87.1449 151.685C92.3349 133.608 88.1666 118.442 86.1937 110.386L81.3731 109.109L70.1445 110.336" fill="white"/>
<path fill-rule="evenodd" clip-rule="evenodd" d="M57.7848 112.961L52.0547 187.112L105.393 185.891L102.879 112.961L89.1556 110.386L86.0749 109.563C88.0478 117.62 92.333 133.608 87.143 151.685C86.0557 137.332 78.8568 123.28 70.1427 110.336L57.7848 112.961" fill="#001E57"/>
<path fill-rule="evenodd" clip-rule="evenodd" d="M70.1437 110.336L83.8657 125.794L86.1928 110.386L82.1973 82.2969H67.5391L70.1437 110.336" fill="#FFBFAA"/>
<path fill-rule="evenodd" clip-rule="evenodd" d="M99.3482 170.076L81.0614 165.906L76.5039 181.979H89.9319L99.3482 170.076" fill="#FFBFAA"/>
<path fill-rule="evenodd" clip-rule="evenodd" d="M79.449 108.574H86.5921C90.5227 108.574 93.7088 105.388 93.7088 101.457V82.2969H72.332V101.457C72.332 105.388 75.5184 108.574 79.449 108.574" fill="#FFBFAA"/>
<path fill-rule="evenodd" clip-rule="evenodd" d="M70.0078 85.3095C72.6948 87.4987 75.8585 88.9522 79.2015 89.6135C81.8516 90.1375 84.5322 90.5217 87.21 90.7178C89.4774 90.8839 91.8384 91.0565 94.0701 90.4937C95.5879 90.1111 97.0015 89.3075 97.313 87.5534C97.6589 85.6065 96.1389 83.6403 94.5832 82.776C94.5832 82.776 100.092 80.8941 95.993 77.2643C95.8741 77.1591 96.4382 74.3949 96.4534 74.1009C96.6602 70.0902 93.5803 67.2595 89.8208 68.1378C82.623 69.8191 79.0636 78.6054 71.5213 79.415C65.1795 80.0957 67.1071 82.9457 70.0078 85.3095" fill="#72ACFF"/>
<path fill-rule="evenodd" clip-rule="evenodd" d="M84.0907 74.4456C84.0907 74.4456 69.585 68.0363 65.9205 75.5671C62.256 83.098 68.8217 96.8777 70.8068 98.8004C72.7917 100.723 76.7617 85.3412 76.7617 85.3412L84.0907 74.4456" fill="#72ACFF"/>
<path fill-rule="evenodd" clip-rule="evenodd" d="M71.8852 101.364V101.364C74.212 101.364 76.0985 99.3843 76.0985 96.9423V95.3704C76.0985 92.9286 74.212 90.949 71.8852 90.949C69.5581 90.949 67.6719 92.9286 67.6719 95.3704V96.9423C67.6719 99.3843 69.5581 101.364 71.8852 101.364" fill="#FFBFAA"/>
<path fill-rule="evenodd" clip-rule="evenodd" d="M73.106 98.5285C72.8194 98.5285 72.5347 98.4071 72.3348 98.1711L69.8918 95.2869C69.5311 94.8615 69.5838 94.2243 70.0097 93.8636C70.4354 93.5031 71.0724 93.5558 71.4331 93.9815L73.8761 96.8656C74.2365 97.291 74.1838 97.9285 73.7582 98.289C73.5686 98.4498 73.3365 98.5285 73.106 98.5285" fill="#001E57"/>
<path fill-rule="evenodd" clip-rule="evenodd" d="M87.5328 166.468C86.984 166.468 86.5339 166.028 86.5234 165.477L86.3166 154.465C86.3061 153.908 86.7497 153.447 87.3075 153.437C87.8713 153.419 88.3257 153.87 88.3362 154.427L88.543 165.439C88.5535 165.997 88.1101 166.457 87.5523 166.468C87.5458 166.468 87.5393 166.468 87.5328 166.468" fill="#72ACFF"/>
<path fill-rule="evenodd" clip-rule="evenodd" d="M130.02 284.665V302.678H103.977V284.44L111.909 282.302L113.69 275.348H124.811L126.949 282.142L130.02 284.665" fill="#001E57"/>
<path fill-rule="evenodd" clip-rule="evenodd" d="M130.02 299.228C129.685 299.228 129.358 299.063 129.165 298.758L127.655 296.373C125.907 293.613 122.986 291.964 119.84 291.964C116.266 291.964 113.049 294.057 111.444 297.427L110.859 298.653C110.692 299.006 110.337 299.228 109.947 299.228H103.975C103.417 299.228 102.965 298.776 102.965 298.219C102.965 297.662 103.417 297.21 103.975 297.21H109.31L109.62 296.558C111.564 292.478 115.479 289.946 119.84 289.946C123.682 289.946 127.242 291.944 129.361 295.291L130.872 297.679C131.171 298.149 131.03 298.773 130.559 299.073C130.391 299.178 130.205 299.228 130.02 299.228" fill="white"/>
<path fill-rule="evenodd" clip-rule="evenodd" d="M124.302 285.991H115.369C114.812 285.991 114.359 285.539 114.359 284.98C114.359 284.423 114.812 283.97 115.369 283.97H124.302C124.86 283.97 125.312 284.423 125.312 284.98C125.312 285.539 124.86 285.991 124.302 285.991" fill="white"/>
<path fill-rule="evenodd" clip-rule="evenodd" d="M87.1445 185.145L99.3393 168.169C101.093 165.727 103.838 164.291 106.752 164.291H119.972L119.59 184.846L87.1445 185.145" fill="#FFBFAA"/>
<path fill-rule="evenodd" clip-rule="evenodd" d="M92.2714 186.108C91.7179 186.108 91.2668 185.662 91.2618 185.107C91.2565 184.549 91.7044 184.093 92.2622 184.088L118.595 183.845L118.94 165.301H106.749C104.176 165.301 101.711 166.594 100.156 168.758L98.9802 170.395C98.7434 170.725 98.3317 170.88 97.9356 170.791L81.7685 167.104L78.4505 178.805C78.2986 179.342 77.7396 179.653 77.2035 179.501C76.6667 179.349 76.3552 178.79 76.5073 178.254L80.0869 165.63C80.2333 165.113 80.7586 164.802 81.2829 164.921L97.731 168.672L98.5158 167.58C100.449 164.888 103.527 163.281 106.749 163.281H119.969C120.24 163.281 120.5 163.391 120.689 163.584C120.879 163.778 120.983 164.039 120.978 164.31L120.596 184.865C120.586 185.412 120.143 185.851 119.596 185.856L92.2809 186.108C92.2777 186.108 92.2744 186.108 92.2714 186.108" fill="#CFE4FF"/>
<path fill-rule="evenodd" clip-rule="evenodd" d="M87.142 152.695C86.9544 152.695 86.7646 152.643 86.5952 152.533C86.1266 152.231 85.9919 151.606 86.2942 151.137C89.4813 146.199 91.9009 136.081 93.845 127.951C94.1825 126.54 94.5037 125.196 94.8177 123.924L89.6874 119.174C89.4306 118.937 89.3152 118.582 89.3827 118.238C89.4504 117.895 89.6914 117.611 90.0194 117.487L93.7723 116.081L89.3597 113.048C88.9001 112.732 88.7837 112.103 89.0996 111.643C89.4159 111.184 90.0444 111.067 90.504 111.383L96.5138 115.515C96.8241 115.728 96.9897 116.096 96.944 116.47C96.8983 116.843 96.6485 117.16 96.296 117.293L92.2613 118.805L96.6277 122.847C96.898 123.098 97.0107 123.475 96.9215 123.833C96.5643 125.265 96.1976 126.798 95.8097 128.421C93.8295 136.701 91.3655 147.005 87.9913 152.233C87.7982 152.532 87.4735 152.695 87.142 152.695" fill="#72ACFF"/>
<path fill-rule="evenodd" clip-rule="evenodd" d="M83.9861 149.12C83.6259 149.12 83.2772 148.927 83.0951 148.588C78.6434 140.287 73.3253 130.994 67.6372 125.007C67.4119 124.77 67.3155 124.438 67.3781 124.117C67.4411 123.796 67.6554 123.526 67.9534 123.391L71.0904 121.973L68.0981 121.139C67.6334 121.01 67.3252 120.569 67.3624 120.088L68.1071 110.462C68.1503 109.905 68.6329 109.489 69.1922 109.532C69.7482 109.576 70.1641 110.061 70.1212 110.618L69.4405 119.416L74.3132 120.775C74.7224 120.889 75.0167 121.247 75.0489 121.671C75.0814 122.094 74.845 122.493 74.4579 122.668L70.0587 124.656C75.5437 130.807 80.6071 139.675 84.8751 147.633C85.1389 148.124 84.954 148.737 84.4624 149C84.3106 149.082 84.1472 149.12 83.9861 149.12" fill="#72ACFF"/>
<path fill-rule="evenodd" clip-rule="evenodd" d="M87.3251 155.456C86.7933 155.456 86.3479 155.04 86.3176 154.503C86.2667 153.596 86.2052 152.674 86.1358 151.762C86.0933 151.206 86.5097 150.72 87.066 150.678C87.6233 150.638 88.1074 151.052 88.1499 151.608C88.2203 152.534 88.2825 153.469 88.3342 154.389C88.3657 154.946 87.9398 155.423 87.3828 155.454C87.3635 155.455 87.3443 155.456 87.3251 155.456" fill="#72ACFF"/>
<path fill-rule="evenodd" clip-rule="evenodd" d="M41.0431 154C38.9818 154 37.7663 153.251 37.6921 153.204C37.221 152.905 37.0811 152.281 37.3796 151.81C37.6764 151.342 38.2944 151.201 38.7645 151.492C38.8612 151.55 40.7381 152.623 43.9128 151.408C44.4339 151.208 45.0174 151.469 45.217 151.99C45.4163 152.511 45.1558 153.095 44.6347 153.294C43.2591 153.821 42.05 154 41.0431 154" fill="white"/>
<path fill-rule="evenodd" clip-rule="evenodd" d="M84.4813 109.619C81.7895 109.619 79.336 108.945 77.1745 107.61C76.7002 107.317 76.5531 106.694 76.8461 106.22C77.1393 105.745 77.7621 105.599 78.2362 105.891C80.3255 107.182 82.7532 107.745 85.4548 107.566C86.0093 107.526 86.4922 107.951 86.5292 108.507C86.5661 109.064 86.145 109.545 85.5884 109.582C85.2152 109.607 84.846 109.619 84.4813 109.619" fill="#001E57"/>
<path fill-rule="evenodd" clip-rule="evenodd" d="M57.7847 112.961L53.7782 114.334C48.5737 116.454 44.4971 120.834 42.5984 126.348L29.4016 174.128C28.2004 178.477 31.2954 182.825 35.6103 182.85L79.3588 183.052L88.2778 165.458L59.528 162.117L67.1251 124.26L57.7847 112.961" fill="#001E57"/>
<path fill-rule="evenodd" clip-rule="evenodd" d="M88.2798 166.092C88.2514 166.092 88.2224 166.091 88.1932 166.088L48.0807 162.676C47.5439 162.63 47.1372 162.171 47.1569 161.633C47.1767 161.094 47.6161 160.666 48.1549 160.66L56.8096 160.561L60.9929 152.596C61.0483 152.49 61.122 152.395 61.2107 152.315C61.2632 152.268 66.619 147.297 67.4641 138.022C67.5146 137.466 68.0069 137.055 68.5615 137.108C69.117 137.158 69.5264 137.65 69.4757 138.205C68.6232 147.561 63.6277 152.79 62.7027 153.685L58.5764 161.542L88.3645 164.076C88.9203 164.123 89.3325 164.612 89.2853 165.168C89.2403 165.694 88.7989 166.092 88.2798 166.092" fill="white"/>
<path fill-rule="evenodd" clip-rule="evenodd" d="M83.9396 183.81H52.3891C51.8313 183.81 51.3789 183.358 51.3789 182.8C51.3789 182.242 51.8313 181.791 52.3891 181.791H83.9396C84.4974 181.791 84.9497 182.242 84.9497 182.8C84.9497 183.358 84.4974 183.81 83.9396 183.81" fill="white"/>
<path fill-rule="evenodd" clip-rule="evenodd" d="M104.367 157.182C103.825 157.182 103.377 156.752 103.358 156.207L103.133 149.693C103.129 149.575 103.146 149.458 103.182 149.346C105.021 143.691 105.671 137.81 105.114 131.863L104.555 125.888C104.503 125.333 104.911 124.841 105.466 124.789C106.021 124.736 106.514 125.145 106.566 125.7L107.125 131.675C107.702 137.838 107.041 143.935 105.158 149.8L105.377 156.137C105.396 156.695 104.96 157.162 104.402 157.181C104.39 157.182 104.378 157.182 104.367 157.182" fill="white"/>
<path fill-rule="evenodd" clip-rule="evenodd" d="M112.561 181.361H104.145L120.563 131.372H128.98L112.561 181.361" fill="#72ACFF"/>
<path fill-rule="evenodd" clip-rule="evenodd" d="M52.0547 187.112V199.552C52.0547 214.187 63.36 226.05 77.3061 226.05H109.278L137.63 271.793H174.226L128.633 191.879L115.489 188.253L52.0547 187.112" fill="#72ACFF"/>
<path fill-rule="evenodd" clip-rule="evenodd" d="M195.933 182.01C206.662 182.01 215.392 191.17 215.392 202.43V301.671H209.442V202.43C209.442 194.613 203.382 188.253 195.933 188.253H49.0013C41.5524 188.253 35.4921 194.613 35.4921 202.43V303.355H29.543V202.43C29.543 193.42 35.1322 185.755 42.8631 183.051L195.933 182.01" fill="white"/>
<path fill-rule="evenodd" clip-rule="evenodd" d="M42.8633 183.051C44.7937 182.376 46.8575 182.01 49.0015 182.01H195.933L42.8633 183.051" fill="white"/>
<path fill-rule="evenodd" clip-rule="evenodd" d="M29.5451 236.005C28.9873 236.005 28.5352 235.553 28.5352 234.996V202.43C28.5352 190.614 37.7172 181.001 49.0034 181.001C49.5612 181.001 50.0134 181.453 50.0134 182.011C50.0134 182.568 49.5612 183.021 49.0034 183.021C38.831 183.021 30.555 191.727 30.555 202.43V234.996C30.555 235.553 30.1029 236.005 29.5451 236.005" fill="#72ACFF"/>
<path fill-rule="evenodd" clip-rule="evenodd" d="M29.5451 304.364C28.9873 304.364 28.5352 303.912 28.5352 303.355V283.641C28.5352 283.084 28.9873 282.632 29.5451 282.632C30.1029 282.632 30.5553 283.084 30.5553 283.641V303.355C30.5553 303.912 30.1029 304.364 29.5451 304.364" fill="#72ACFF"/>
<path fill-rule="evenodd" clip-rule="evenodd" d="M35.4943 304.364C34.9365 304.364 34.4844 303.912 34.4844 303.355V202.43C34.4844 194.056 40.9978 187.244 49.0035 187.244C49.5613 187.244 50.0134 187.696 50.0134 188.254C50.0134 188.811 49.5613 189.264 49.0035 189.264C42.1116 189.264 36.5042 195.171 36.5042 202.43V303.355C36.5042 303.912 36.0521 304.364 35.4943 304.364" fill="#72ACFF"/>
<path fill-rule="evenodd" clip-rule="evenodd" d="M191.178 189.264H127.588C127.031 189.264 126.578 188.811 126.578 188.254C126.578 187.696 127.031 187.244 127.588 187.244H191.178C191.735 187.244 192.189 187.696 192.189 188.254C192.189 188.811 191.735 189.264 191.178 189.264" fill="#72ACFF"/>
<path fill-rule="evenodd" clip-rule="evenodd" d="M215.394 304.364H209.444C208.887 304.364 208.435 303.912 208.435 303.355V213.77C208.435 213.213 208.887 212.761 209.444 212.761C210.003 212.761 210.456 213.213 210.456 213.77V302.343H214.385V202.43C214.385 191.727 206.109 183.021 195.935 183.021C195.378 183.021 194.926 182.568 194.926 182.011C194.926 181.453 195.378 181.001 195.935 181.001C207.221 181.001 216.403 190.614 216.403 202.43V303.355C216.403 303.912 215.951 304.364 215.394 304.364" fill="#72ACFF"/>
<path fill-rule="evenodd" clip-rule="evenodd" d="M149.317 229.14C148.966 229.14 148.625 228.958 148.439 228.631L132.314 200.366C130.987 198.041 128.564 196.594 125.993 196.594H95.3732C94.8154 196.594 94.3633 196.142 94.3633 195.585C94.3633 195.027 94.8154 194.575 95.3732 194.575H125.993C129.288 194.575 132.382 196.412 134.068 199.367L150.194 227.629C150.47 228.114 150.301 228.731 149.817 229.008C149.659 229.098 149.487 229.14 149.317 229.14" fill="white"/>
<path fill-rule="evenodd" clip-rule="evenodd" d="M137.632 272.802C137.294 272.802 136.963 272.632 136.772 272.325L108.421 226.582C108.127 226.108 108.273 225.486 108.748 225.191C109.222 224.899 109.844 225.044 110.138 225.518L138.489 271.261C138.783 271.733 138.637 272.358 138.163 272.65C137.997 272.752 137.813 272.802 137.632 272.802" fill="white"/>
<path fill-rule="evenodd" clip-rule="evenodd" d="M166.658 261.601H144.909C144.553 261.601 144.225 261.414 144.042 261.109L117.739 217.162H78.7248C78.167 217.162 77.7148 216.71 77.7148 216.151C77.7148 215.594 78.167 215.142 78.7248 215.142H118.312C118.667 215.142 118.996 215.329 119.179 215.634L145.481 259.58H166.658C167.216 259.58 167.668 260.032 167.668 260.589C167.668 261.149 167.216 261.601 166.658 261.601" fill="#001E57"/>
<path fill-rule="evenodd" clip-rule="evenodd" d="M65.717 199.674C65.1622 199.674 64.7108 199.227 64.7071 198.673C64.7036 198.113 65.1522 197.659 65.7097 197.656C65.8141 197.654 76.1672 197.511 78.5018 192.105C78.7229 191.593 79.3174 191.357 79.8294 191.578C80.3415 191.799 80.5773 192.394 80.3563 192.906C77.4996 199.522 66.2031 199.672 65.7237 199.674C65.7215 199.674 65.719 199.674 65.717 199.674" fill="#001E57"/>
<path fill-rule="evenodd" clip-rule="evenodd" d="M112.66 181.361L129.079 131.372H194.188L177.769 181.361H112.66" fill="#72ACFF"/>
<path fill-rule="evenodd" clip-rule="evenodd" d="M177.766 182.371H104.143C103.585 182.371 103.133 181.919 103.133 181.361C103.133 180.804 103.585 180.352 104.143 180.352H177.766C178.324 180.352 178.777 180.804 178.777 181.361C178.777 181.919 178.324 182.371 177.766 182.371" fill="#72ACFF"/>
<path fill-rule="evenodd" clip-rule="evenodd" d="M150.895 167.313C148.403 167.313 146.279 166.324 144.916 164.528C143.423 162.562 143.02 159.806 143.811 156.967C145.318 151.562 150.763 147.164 155.949 147.164C157.746 147.164 159.373 147.685 160.655 148.669C161.097 149.008 161.181 149.642 160.841 150.085C160.501 150.527 159.867 150.61 159.425 150.271C158.499 149.56 157.297 149.184 155.949 149.184C151.609 149.184 147.037 152.919 145.757 157.51C145.137 159.735 145.417 161.848 146.525 163.307C147.497 164.588 149.049 165.293 150.895 165.293C154.494 165.293 158.352 162.707 160.278 159.004C160.535 158.509 161.145 158.317 161.639 158.574C162.134 158.831 162.327 159.441 162.07 159.936C159.811 164.279 155.216 167.313 150.895 167.313" fill="white"/>
<path fill-rule="evenodd" clip-rule="evenodd" d="M161.173 160.48C161.016 160.48 160.857 160.444 160.708 160.366C160.213 160.109 160.021 159.499 160.278 159.004C160.437 158.698 160.583 158.384 160.711 158.069C160.92 157.552 161.509 157.304 162.026 157.513C162.543 157.723 162.792 158.313 162.582 158.829C162.43 159.202 162.258 159.575 162.07 159.936C161.89 160.282 161.538 160.48 161.173 160.48" fill="white"/>
<path fill-rule="evenodd" clip-rule="evenodd" d="M155.948 149.185C155.841 149.185 155.731 149.167 155.624 149.131C155.096 148.953 154.812 148.379 154.991 147.851L156.428 143.6C156.607 143.072 157.18 142.787 157.708 142.967C158.237 143.146 158.52 143.719 158.341 144.247L156.904 148.498C156.762 148.919 156.369 149.185 155.948 149.185" fill="white"/>
<path fill-rule="evenodd" clip-rule="evenodd" d="M115.487 180.904C115.382 180.904 115.276 180.887 115.172 180.853C114.642 180.679 114.353 180.108 114.527 179.578L130.464 131.057C130.638 130.527 131.208 130.238 131.738 130.413C132.268 130.587 132.557 131.158 132.383 131.688L116.446 180.209C116.307 180.634 115.912 180.904 115.487 180.904" fill="white"/>
<path fill-rule="evenodd" clip-rule="evenodd" d="M168.877 71.7327H148.348V9.29492H236.892V71.7327H168.877" fill="#001E57"/>
<path fill-rule="evenodd" clip-rule="evenodd" d="M148.348 86.6777H236.892V24.24H148.348V86.6777Z" fill="#9BD6EE"/>
<path fill-rule="evenodd" clip-rule="evenodd" d="M168.877 86.6777H148.348V24.24H236.892V86.6777H168.877" fill="#72ACFF"/>
<path fill-rule="evenodd" clip-rule="evenodd" d="M141.589 13.7773C141.218 13.7773 140.918 13.4768 140.918 13.1063V1.03692C140.918 0.666221 141.218 0.365967 141.589 0.365967H157.231C157.601 0.365967 157.902 0.666221 157.902 1.03692C157.902 1.40737 157.601 1.70787 157.231 1.70787H142.26V13.1063C142.26 13.4768 141.959 13.7773 141.589 13.7773" fill="#CFE4FF"/>
<path fill-rule="evenodd" clip-rule="evenodd" d="M185.862 87.3487H168.878C168.508 87.3487 168.207 87.0482 168.207 86.6778C168.207 86.3071 168.508 86.0068 168.878 86.0068H185.862C186.233 86.0068 186.533 86.3071 186.533 86.6778C186.533 87.0482 186.233 87.3487 185.862 87.3487" fill="#2A0055"/>
<path fill-rule="evenodd" clip-rule="evenodd" d="M236.89 87.3487H228.884C228.515 87.3487 228.215 87.0482 228.215 86.6778C228.215 86.3071 228.515 86.0068 228.884 86.0068H236.89C237.26 86.0068 237.56 86.3071 237.56 86.6778C237.56 87.0482 237.26 87.3487 236.89 87.3487" fill="#2A0055"/>
<path fill-rule="evenodd" clip-rule="evenodd" d="M160.785 56.1542L166.994 38.1711H179.41L182.193 47.1625H192.682L198.463 57.7599L217.947 49.0895L223.939 79.8009L160.785 56.1542" fill="#CFE4FF"/>
<path fill-rule="evenodd" clip-rule="evenodd" d="M157.23 59.5771V71.879L223.94 79.8008L210.911 54.7108L189.408 56.7479L170.17 43.3938L157.23 59.5771" fill="#72ACFF"/>
<path fill-rule="evenodd" clip-rule="evenodd" d="M157.23 50.8428V79.8009H223.94L206.117 69.1758L188.786 67.5911L173.05 54.4453L157.23 50.8428" fill="#006BFF"/>
<path fill-rule="evenodd" clip-rule="evenodd" d="M197.539 35.8671H202.29V31.1169H197.539V35.8671Z" fill="#CFE4FF"/>
<path fill-rule="evenodd" clip-rule="evenodd" d="M197.539 43.3915H202.29V38.6411H197.539V43.3915Z" fill="#006BFF"/>
<path fill-rule="evenodd" clip-rule="evenodd" d="M206.66 35.0754H228.008V31.9084H206.66V35.0754Z" fill="white"/>
<path fill-rule="evenodd" clip-rule="evenodd" d="M206.66 42.5998H228.008V39.4329H206.66V42.5998Z" fill="white"/>
<path fill-rule="evenodd" clip-rule="evenodd" d="M175.974 54.4454C175.974 56.0605 174.665 57.37 173.049 57.37C171.434 57.37 170.125 56.0605 170.125 54.4454C170.125 52.8304 171.434 51.521 173.049 51.521C174.665 51.521 175.974 52.8304 175.974 54.4454" fill="white"/>
<path fill-rule="evenodd" clip-rule="evenodd" d="M191.707 66.7552C191.707 68.3704 190.398 69.6795 188.785 69.6795C187.169 69.6795 185.859 68.3704 185.859 66.7552C185.859 65.14 187.169 63.8308 188.785 63.8308C190.398 63.8308 191.707 65.14 191.707 66.7552" fill="white"/>
<path fill-rule="evenodd" clip-rule="evenodd" d="M208.839 68.8084C208.839 70.4236 207.53 71.7328 205.913 71.7328C204.297 71.7328 202.988 70.4236 202.988 68.8084C202.988 67.1932 204.297 65.8838 205.913 65.8838C207.53 65.8838 208.839 67.1932 208.839 68.8084" fill="white"/>
<path fill-rule="evenodd" clip-rule="evenodd" d="M358.777 92.1818H461.438V12.4719H358.777V92.1818Z" fill="#001E57"/>
<path fill-rule="evenodd" clip-rule="evenodd" d="M358.777 109.353H461.438V29.6426H358.777V109.353Z" fill="#72ACFF"/>
<path fill-rule="evenodd" clip-rule="evenodd" d="M478.8 126.885H463.847C463.353 126.885 462.953 126.484 462.953 125.99C462.953 125.496 463.353 125.095 463.847 125.095H477.903V109.93C477.903 109.436 478.306 109.035 478.8 109.035C479.295 109.035 479.694 109.436 479.694 109.93V125.99C479.694 126.484 479.295 126.885 478.8 126.885" fill="#72ACFF"/>
<path fill-rule="evenodd" clip-rule="evenodd" d="M372.969 80.0453H447.243V40.365H372.969V80.0453Z" fill="white"/>
<path fill-rule="evenodd" clip-rule="evenodd" d="M381.125 73.9416H385.349V57.8635H381.125V73.9416Z" fill="#006BFF"/>
<path fill-rule="evenodd" clip-rule="evenodd" d="M390.422 73.9415H394.646V50.2141H390.422V73.9415Z" fill="#72ACFF"/>
<path fill-rule="evenodd" clip-rule="evenodd" d="M399.715 73.9417H403.939V63.1343H399.715V73.9417Z" fill="#72ACFF"/>
<path fill-rule="evenodd" clip-rule="evenodd" d="M409.012 73.9415H413.236V52.3267H409.012V73.9415Z" fill="#001E57"/>
<path fill-rule="evenodd" clip-rule="evenodd" d="M418.305 73.9416H422.531V46.8345H418.305V73.9416Z" fill="#72ACFF"/>
<path fill-rule="evenodd" clip-rule="evenodd" d="M427.598 73.9415H431.824V59.0867H427.598V73.9415Z" fill="#72ACFF"/>
<path fill-rule="evenodd" clip-rule="evenodd" d="M436.895 73.9415H441.121V52.3267H436.895V73.9415Z" fill="#006BFF"/>
<path fill-rule="evenodd" clip-rule="evenodd" d="M374.688 92.34H381.025V86.0027H374.688V92.34Z" fill="#001E57"/>
<path fill-rule="evenodd" clip-rule="evenodd" d="M374.688 102.378H381.025V96.0408H374.688V102.378Z" fill="#CFE4FF"/>
<path fill-rule="evenodd" clip-rule="evenodd" d="M389.785 91.2839H445.647V87.0591H389.785V91.2839Z" fill="white"/>
<path fill-rule="evenodd" clip-rule="evenodd" d="M389.785 101.322H445.647V97.0972H389.785V101.322Z" fill="white"/>
<path fill-rule="evenodd" clip-rule="evenodd" d="M385.934 144.925H363.914V219.843H460.408V144.925H385.934" fill="#001E57"/>
<path fill-rule="evenodd" clip-rule="evenodd" d="M385.934 163.029H363.914V233.674H460.408V163.029H385.934" fill="#72ACFF"/>
<path fill-rule="evenodd" clip-rule="evenodd" d="M395.342 195.388L380 186.513C383.899 179.777 391.151 175.592 398.93 175.592V193.315C397.433 193.315 396.092 194.09 395.342 195.388" fill="#006BFF"/>
<path fill-rule="evenodd" clip-rule="evenodd" d="M398.93 219.308C386.877 219.308 377.07 209.501 377.07 197.451C377.07 193.609 378.084 189.827 380 186.513L395.343 195.388C394.978 196.017 394.793 196.712 394.793 197.451C394.793 199.729 396.649 201.585 398.93 201.585C399.669 201.585 400.361 201.401 400.991 201.038L409.869 216.376C406.554 218.294 402.772 219.308 398.93 219.308" fill="white"/>
<path fill-rule="evenodd" clip-rule="evenodd" d="M409.866 216.376L400.988 201.038C402.287 200.286 403.062 198.945 403.062 197.451H420.785C420.785 205.227 416.601 212.479 409.866 216.376" fill="#CFE4FF"/>
<path fill-rule="evenodd" clip-rule="evenodd" d="M420.786 197.451H403.063C403.063 195.877 402.231 194.872 401.734 194.413L413.772 181.406C418.231 185.531 420.786 191.379 420.786 197.451" fill="#001E57"/>
<path fill-rule="evenodd" clip-rule="evenodd" d="M401.735 194.413C401.195 193.912 400.269 193.315 398.93 193.315V175.592C404.45 175.592 409.723 177.657 413.773 181.406L401.735 194.413" fill="#006BFF"/>
<path fill-rule="evenodd" clip-rule="evenodd" d="M429.578 210.693H445.685V206.721H429.578V210.693Z" fill="white"/>
<path fill-rule="evenodd" clip-rule="evenodd" d="M429.578 187.217H443.802V183.247H429.578V187.217Z" fill="#001E57"/>
<path fill-rule="evenodd" clip-rule="evenodd" d="M429.578 198.955H450.888V194.984H429.578V198.955Z" fill="#006BFF"/>
<path fill-rule="evenodd" clip-rule="evenodd" d="M401.02 234.344H382.035C381.663 234.344 381.363 234.044 381.363 233.674C381.363 233.302 381.663 233.002 382.035 233.002H401.02C401.389 233.002 401.689 233.302 401.689 233.674C401.689 234.044 401.389 234.344 401.02 234.344" fill="#2A0055"/>
<path fill-rule="evenodd" clip-rule="evenodd" d="M467.486 202.487C467.096 202.487 466.781 202.17 466.781 201.78V185.954C466.781 185.564 467.096 185.248 467.486 185.248C467.878 185.248 468.193 185.564 468.193 185.954V201.78C468.193 202.17 467.878 202.487 467.486 202.487" fill="#2A0055"/>
<path fill-rule="evenodd" clip-rule="evenodd" d="M358.776 67.8276C358.363 67.8276 358.031 67.4939 358.031 67.082V52.3772C358.031 51.9656 358.363 51.6318 358.776 51.6318C359.188 51.6318 359.523 51.9656 359.523 52.3772V67.082C359.523 67.4939 359.188 67.8276 358.776 67.8276" fill="#2A0055"/>
<path fill-rule="evenodd" clip-rule="evenodd" d="M436.665 110.676H421.899C421.487 110.676 421.152 110.342 421.152 109.93C421.152 109.519 421.487 109.185 421.899 109.185H436.665C437.077 109.185 437.409 109.519 437.409 109.93C437.409 110.342 437.077 110.676 436.665 110.676" fill="#2A0055"/>
<path fill-rule="evenodd" clip-rule="evenodd" d="M460.405 163.7H363.914C363.542 163.7 363.242 163.4 363.242 163.029C363.242 162.659 363.542 162.358 363.914 162.358H460.405C460.775 162.358 461.075 162.659 461.075 163.029C461.075 163.4 460.775 163.7 460.405 163.7" fill="white"/>
<path fill-rule="evenodd" clip-rule="evenodd" d="M376.949 251.562H354.17C353.723 251.562 353.363 251.202 353.363 250.758V238.37C353.363 237.926 353.723 237.566 354.17 237.566C354.615 237.566 354.974 237.926 354.974 238.37V249.951H376.949C377.394 249.951 377.753 250.313 377.753 250.758C377.753 251.202 377.394 251.562 376.949 251.562" fill="#72ACFF"/>
<path fill-rule="evenodd" clip-rule="evenodd" d="M379.605 154.656C379.605 156.609 378.022 158.193 376.068 158.193C374.115 158.193 372.531 156.609 372.531 154.656C372.531 152.702 374.115 151.118 376.068 151.118C378.022 151.118 379.605 152.702 379.605 154.656" fill="white"/>
<path fill-rule="evenodd" clip-rule="evenodd" d="M389.961 154.656C389.961 156.609 388.377 158.193 386.424 158.193C384.47 158.193 382.887 156.609 382.887 154.656C382.887 152.702 384.47 151.118 386.424 151.118C388.377 151.118 389.961 152.702 389.961 154.656" fill="white"/>
<path fill-rule="evenodd" clip-rule="evenodd" d="M400.319 154.656C400.319 156.609 398.733 158.193 396.779 158.193C394.826 158.193 393.242 156.609 393.242 154.656C393.242 152.702 394.826 151.118 396.779 151.118C398.733 151.118 400.319 152.702 400.319 154.656" fill="#006BFF"/>
<path fill-rule="evenodd" clip-rule="evenodd" d="M371.596 21.2498C371.596 23.2154 370.002 24.8091 368.036 24.8091C366.07 24.8091 364.477 23.2154 364.477 21.2498C364.477 19.2839 366.07 17.6902 368.036 17.6902C370.002 17.6902 371.596 19.2839 371.596 21.2498" fill="white"/>
<path fill-rule="evenodd" clip-rule="evenodd" d="M382.014 21.2498C382.014 23.2154 380.42 24.8091 378.454 24.8091C376.488 24.8091 374.895 23.2154 374.895 21.2498C374.895 19.2839 376.488 17.6902 378.454 17.6902C380.42 17.6902 382.014 19.2839 382.014 21.2498" fill="#006BFF"/>
<path fill-rule="evenodd" clip-rule="evenodd" d="M392.432 21.2498C392.432 23.2154 390.838 24.8091 388.872 24.8091C386.906 24.8091 385.312 23.2154 385.312 21.2498C385.312 19.2839 386.906 17.6902 388.872 17.6902C390.838 17.6902 392.432 19.2839 392.432 21.2498" fill="white"/>
<path fill-rule="evenodd" clip-rule="evenodd" d="M160.161 17.551C160.161 19.3203 158.727 20.7544 156.957 20.7544C155.188 20.7544 153.754 19.3203 153.754 17.551C153.754 15.782 155.188 14.3477 156.957 14.3477C158.727 14.3477 160.161 15.782 160.161 17.551" fill="#006BFF"/>
<path fill-rule="evenodd" clip-rule="evenodd" d="M169.536 17.551C169.536 19.3203 168.102 20.7544 166.332 20.7544C164.563 20.7544 163.129 19.3203 163.129 17.551C163.129 15.782 164.563 14.3477 166.332 14.3477C168.102 14.3477 169.536 15.782 169.536 17.551" fill="white"/>
<path fill-rule="evenodd" clip-rule="evenodd" d="M178.911 17.551C178.911 19.3203 177.477 20.7544 175.707 20.7544C173.938 20.7544 172.504 19.3203 172.504 17.551C172.504 15.782 173.938 14.3477 175.707 14.3477C177.477 14.3477 178.911 15.782 178.911 17.551" fill="white"/>
<path fill-rule="evenodd" clip-rule="evenodd" d="M258.016 136.85V149.178C258.016 152.058 258.987 154.848 260.766 157.073L273.99 173.624L290.701 162.619L278.549 135.144L268.04 128.814L258.016 136.85" fill="#FFBFAA"/>
<path fill-rule="evenodd" clip-rule="evenodd" d="M346.714 159.14H284.875L312.413 99.3999H374.254L346.714 159.14" fill="#72ACFF"/>
<path fill-rule="evenodd" clip-rule="evenodd" d="M283.635 296.398L285.676 302.525L289.632 313.856V323.823H267.098L266.961 296.398H283.635" fill="#006BFF"/>
<path fill-rule="evenodd" clip-rule="evenodd" d="M285.673 303.534H281.811C281.257 303.534 280.805 303.082 280.805 302.525C280.805 301.971 281.257 301.519 281.811 301.519H285.673C286.23 301.519 286.682 301.971 286.682 302.525C286.682 303.082 286.23 303.534 285.673 303.534" fill="#72ACFF"/>
<path fill-rule="evenodd" clip-rule="evenodd" d="M288.004 309.335H283.552C282.995 309.335 282.543 308.885 282.543 308.328C282.543 307.771 282.995 307.319 283.552 307.319H288.004C288.561 307.319 289.013 307.771 289.013 308.328C289.013 308.885 288.561 309.335 288.004 309.335" fill="#72ACFF"/>
<path fill-rule="evenodd" clip-rule="evenodd" d="M289.629 317.238H285.15L282.085 317.161L281.523 316.511C279.175 313.789 275.805 312.227 272.273 312.227H267.03C266.473 312.227 266.023 311.778 266.023 311.221C266.023 310.664 266.473 310.211 267.03 310.211H272.273C276.38 310.211 280.299 312.017 283.027 315.17L285.188 315.222H289.629C290.184 315.222 290.636 315.674 290.636 316.232C290.636 316.789 290.184 317.238 289.629 317.238" fill="#72ACFF"/>
<path fill-rule="evenodd" clip-rule="evenodd" d="M322.319 294.432L333.672 305.366L346.392 313.839L346.424 323.988L307.474 324.12L307.371 292.444L322.319 294.432" fill="#006BFF"/>
<path fill-rule="evenodd" clip-rule="evenodd" d="M323.546 310.629C323.544 310.629 323.539 310.629 323.536 310.629C322.142 310.634 321.011 311.818 321.016 313.266V313.269C321.018 313.976 321.288 314.638 321.773 315.135C322.25 315.622 322.879 315.889 323.546 315.889C323.549 315.889 323.551 315.889 323.554 315.889C324.948 315.884 326.079 314.7 326.074 313.252C326.072 312.542 325.802 311.88 325.317 311.383C324.84 310.896 324.213 310.629 323.546 310.629ZM323.546 317.905C322.332 317.905 321.191 317.423 320.331 316.544C319.477 315.672 319.005 314.51 319 313.274C318.993 310.714 321.023 308.623 323.531 308.613C323.536 308.613 323.541 308.613 323.546 308.613C324.76 308.613 325.899 309.097 326.759 309.974C327.613 310.846 328.085 312.008 328.09 313.244C328.098 315.804 326.067 317.895 323.561 317.905C323.556 317.905 323.551 317.905 323.546 317.905V317.905Z" fill="#72ACFF"/>
<path fill-rule="evenodd" clip-rule="evenodd" d="M334.146 309.784C333.591 309.784 333.139 309.335 333.137 308.78C333.137 308.223 333.586 307.771 334.143 307.769L340.116 307.749C340.119 307.749 340.119 307.749 340.121 307.749C340.676 307.749 341.125 308.196 341.128 308.753C341.13 309.31 340.681 309.762 340.124 309.764L334.148 309.784H334.146" fill="#72ACFF"/>
<path fill-rule="evenodd" clip-rule="evenodd" d="M327.751 304.701C327.194 304.701 326.745 304.254 326.742 303.697C326.74 303.14 327.189 302.688 327.746 302.685L333.849 302.665H333.851C334.406 302.665 334.858 303.115 334.861 303.669C334.861 304.227 334.411 304.679 333.856 304.681L327.754 304.701C327.751 304.701 327.751 304.701 327.751 304.701" fill="#72ACFF"/>
<path fill-rule="evenodd" clip-rule="evenodd" d="M357.119 117.34H319.402L325.702 105.626H362.647L357.119 117.34" fill="#006BFF"/>
<path fill-rule="evenodd" clip-rule="evenodd" d="M348.611 136.347H310.895L317.194 124.633H354.139L348.611 136.347" fill="white"/>
<path fill-rule="evenodd" clip-rule="evenodd" d="M280.812 173.382L289.44 218.517V218.519L306.307 298.748H327.941C327.742 297.177 327.542 295.586 327.337 293.982C327.107 292.166 326.877 290.333 326.648 288.484C326.495 287.268 326.343 286.044 326.188 284.817C325.961 282.996 325.733 281.163 325.506 279.319C322.818 257.71 319.988 234.816 317.075 215.462C313.993 194.963 310.818 178.439 307.628 171.621L280.812 173.382" fill="#001E57"/>
<path fill-rule="evenodd" clip-rule="evenodd" d="M260.271 206.221C260.373 208.684 261.397 211.325 261.5 213.531L264.977 279.319L265.384 288.484L265.846 298.748H285.568L286.065 288.484L286.504 279.319C286.504 279.319 289.44 218.519 289.44 218.516L292.664 173.005C292.664 173.005 292.46 173.011 292.077 173.022C288.588 173.127 270.682 173.657 270.413 173.665C268.731 173.718 265.294 180.133 264.457 181.593C260.271 188.91 259.931 197.943 260.271 206.221" fill="#001E57"/>
<path fill-rule="evenodd" clip-rule="evenodd" d="M270.154 173.962L308.193 173.372L314.965 145.854L317.173 143.042C320.71 138.537 322.641 132.92 322.641 127.128V124.437C322.641 120.094 321.722 115.804 319.948 111.863C318.332 108.272 314.835 105.974 310.988 105.974H271.288C265.376 105.974 260.789 111.284 261.484 117.324L270.154 173.962" fill="#006BFF"/>
<path fill-rule="evenodd" clip-rule="evenodd" d="M284.711 110.468L303.406 126.461L299.346 110.468V87.4612H284.711V110.468" fill="white"/>
<path fill-rule="evenodd" clip-rule="evenodd" d="M329.563 127.274L337.044 138.995L353.286 144.882L346.714 159.14H334.231C327.434 159.14 321.105 155.575 317.445 149.683L309.172 136.37L311.81 121.075L329.563 127.274" fill="#FFBFAA"/>
<path fill-rule="evenodd" clip-rule="evenodd" d="M284.711 103.064H299.346V75.8318H284.711V103.064Z" fill="#FFBFAA"/>
<path fill-rule="evenodd" clip-rule="evenodd" d="M299.345 111.475H284.71C284.153 111.475 283.703 111.023 283.703 110.467C283.703 109.91 284.153 109.459 284.71 109.459H299.345C299.902 109.459 300.352 109.91 300.352 110.467C300.352 111.023 299.902 111.475 299.345 111.475" fill="#2A0055"/>
<path fill-rule="evenodd" clip-rule="evenodd" d="M282.164 76.4814V82.4216C282.164 92.0632 289.765 99.8791 299.138 99.8791C305.625 99.8791 310.883 94.4715 310.883 87.8007V78.8558C310.883 71.203 304.851 64.9968 297.409 64.9968H293.332C287.165 64.9968 282.164 70.1386 282.164 76.4814" fill="#FFBFAA"/>
<path fill-rule="evenodd" clip-rule="evenodd" d="M275.262 66.5214C275.262 71.3489 279.069 75.2622 283.762 75.2622C288.456 75.2622 292.26 71.3489 292.26 66.5214C292.26 61.6938 288.456 57.7805 283.762 57.7805C279.069 57.7805 275.262 61.6938 275.262 66.5214" fill="#72ACFF"/>
<path fill-rule="evenodd" clip-rule="evenodd" d="M256.291 138.054L274.609 138.172L272.211 102.989L265.626 105.216C259.586 107.054 255.512 112.852 255.714 119.327L256.291 138.054" fill="#006BFF"/>
<path fill-rule="evenodd" clip-rule="evenodd" d="M307.843 138.995L331.606 128.49C330.09 125.552 328.421 122.652 327.022 119.67C325.036 115.435 322.793 110.655 318.592 108.359C314.765 106.268 310.163 106.09 306.217 107.96L303.137 109.423L307.843 138.995" fill="#006BFF"/>
<path fill-rule="evenodd" clip-rule="evenodd" d="M302.223 279.319L303.379 284.817H326.188C325.961 282.996 325.733 281.163 325.506 279.319H302.223" fill="white"/>
<path fill-rule="evenodd" clip-rule="evenodd" d="M264.977 279.319L265.221 284.817H286.239L286.504 279.319H264.977" fill="white"/>
<path fill-rule="evenodd" clip-rule="evenodd" d="M304.152 288.484L305.306 293.982H327.338C327.109 292.166 326.879 290.333 326.649 288.484H304.152" fill="white"/>
<path fill-rule="evenodd" clip-rule="evenodd" d="M265.387 288.484L265.634 293.982H285.8L286.067 288.484H265.387" fill="white"/>
<path fill-rule="evenodd" clip-rule="evenodd" d="M252.799 93.7484C252.799 93.7484 237.669 102.01 252.799 109.609C252.799 109.609 251.497 120.554 269.263 119.176C269.263 119.176 277.771 133.804 290.171 125.376C290.171 125.376 300.178 135.249 305.633 125.376C305.633 125.376 320.516 121.63 313.819 110.275C313.819 110.275 318.038 92.1495 299.683 93.7484C299.683 93.7484 297.2 75.953 283.806 86.5433C283.806 86.5433 274.876 75.2226 265.451 84.5195C265.451 84.5195 251.31 76.0766 252.799 93.7484" fill="#72ACFF"/>
<path fill-rule="evenodd" clip-rule="evenodd" d="M310.145 72.9542C310.288 73.3614 310.313 73.8027 310.215 74.2234C309.593 76.8617 306.506 86.3527 294.056 87.4613C279.58 88.7505 278.066 82.0005 278.066 82.0005V81.5786C278.066 71.2626 286.197 62.8999 296.227 62.8999C302.461 62.8999 308.029 66.9209 310.145 72.9542" fill="#72ACFF"/>
<path fill-rule="evenodd" clip-rule="evenodd" d="M302.164 91.1753V91.1753C305.004 91.1753 307.305 88.8732 307.305 86.0338V83.8601C307.305 81.0204 305.004 78.7185 302.164 78.7185C299.324 78.7185 297.023 81.0204 297.023 83.8601V86.0338C297.023 88.8732 299.324 91.1753 302.164 91.1753" fill="#FFBFAA"/>
<path fill-rule="evenodd" clip-rule="evenodd" d="M288.271 74.9403C287.938 74.9403 287.616 74.7774 287.421 74.4784C287.121 74.0108 287.256 73.387 287.723 73.0853C289.932 71.6604 291.251 69.2067 291.251 66.5214C291.251 65.3998 291.023 64.3182 290.576 63.3073C290.351 62.7982 290.581 62.2029 291.088 61.9774C291.598 61.7518 292.192 61.9814 292.42 62.4902C292.982 63.7602 293.266 65.1165 293.266 66.5214C293.266 69.8944 291.603 72.9816 288.815 74.7791C288.648 74.8881 288.458 74.9403 288.271 74.9403" fill="white"/>
<path fill-rule="evenodd" clip-rule="evenodd" d="M289.442 219.523C289.023 219.523 288.631 219.258 288.488 218.841L285.243 209.314C283.994 208.14 277.977 201.883 279.56 191.667C279.648 191.116 280.162 190.74 280.712 190.825C281.262 190.91 281.639 191.425 281.554 191.975C279.995 202.02 286.705 207.923 286.772 207.98L286.979 208.16L290.397 218.192C290.574 218.716 290.294 219.291 289.767 219.471C289.66 219.506 289.55 219.523 289.442 219.523" fill="white"/>
<path fill-rule="evenodd" clip-rule="evenodd" d="M269.263 120.183C268.928 120.183 268.601 120.016 268.408 119.71C268.281 119.505 265.298 114.635 268.501 110.926C268.863 110.505 269.5 110.457 269.922 110.821C270.342 111.185 270.389 111.821 270.027 112.243C267.801 114.821 270.094 118.606 270.119 118.644C270.412 119.116 270.267 119.737 269.795 120.031C269.627 120.134 269.445 120.183 269.263 120.183" fill="#006BFF"/>
<path fill-rule="evenodd" clip-rule="evenodd" d="M305.635 126.383C305.305 126.383 304.983 126.223 304.791 125.928C304.486 125.464 304.613 124.841 305.078 124.535C305.108 124.514 306.814 123.354 306.991 121.777C307.084 120.942 306.714 120.078 305.887 119.21C305.505 118.806 305.52 118.168 305.925 117.785C306.327 117.401 306.966 117.418 307.349 117.821C308.607 119.146 309.162 120.558 308.992 122.017C308.702 124.541 306.289 126.151 306.187 126.218C306.015 126.33 305.822 126.383 305.635 126.383" fill="#006BFF"/>
<path fill-rule="evenodd" clip-rule="evenodd" d="M279.572 96.9164C279.175 96.9164 278.798 96.6793 278.638 96.2881C277.786 94.1968 276.485 92.8484 274.766 92.2807C270.857 90.9887 265.964 93.9193 265.914 93.949C265.439 94.2383 264.82 94.0869 264.53 93.6111C264.24 93.1352 264.392 92.5155 264.867 92.2264C265.099 92.0853 270.615 88.7855 275.401 90.367C277.704 91.1286 279.423 92.8652 280.507 95.5285C280.717 96.0441 280.467 96.6321 279.952 96.8419C279.827 96.8926 279.7 96.9164 279.572 96.9164" fill="#006BFF"/>
<path fill-rule="evenodd" clip-rule="evenodd" d="M312.326 110.296C312.308 110.296 312.293 110.295 312.278 110.295C311.721 110.269 311.292 109.797 311.317 109.241C311.416 107.161 310.909 105.519 309.81 104.362C307.977 102.427 305.034 102.387 305.004 102.387C304.45 102.384 304 101.932 304 101.376C304.002 100.821 304.452 100.371 305.007 100.371C305.162 100.371 308.816 100.401 311.257 102.959C312.758 104.532 313.457 106.677 313.33 109.336C313.305 109.875 312.86 110.296 312.326 110.296" fill="#006BFF"/>
<path fill-rule="evenodd" clip-rule="evenodd" d="M303.943 87.9262C303.65 87.9262 303.361 87.7995 303.161 87.555L299.954 83.6177C299.601 83.1863 299.666 82.5513 300.098 82.1996C300.528 81.8484 301.163 81.9126 301.515 82.3445L304.725 86.2818C305.074 86.7132 305.009 87.3481 304.58 87.6996C304.392 87.852 304.168 87.9262 303.943 87.9262" fill="#2A0055"/>
<path fill-rule="evenodd" clip-rule="evenodd" d="M269.081 197.549C267.23 197.549 265.596 196.814 264.485 195.48C263.328 194.096 262.871 192.175 263.228 190.21L263.848 186.797C263.948 186.249 264.475 185.886 265.019 185.985C265.569 186.085 265.931 186.61 265.831 187.157L265.212 190.57C264.957 191.966 265.249 193.251 266.031 194.19C266.755 195.056 267.837 195.533 269.081 195.533C271.914 195.533 274.654 193.145 275.188 190.21L275.9 186.291C276 185.743 276.525 185.381 277.072 185.479C277.619 185.579 277.984 186.103 277.884 186.651L277.172 190.57C276.472 194.418 272.843 197.549 269.081 197.549" fill="white"/>
<path fill-rule="evenodd" clip-rule="evenodd" d="M292.636 197.549C290.785 197.549 289.151 196.814 288.039 195.48C286.883 194.096 286.426 192.175 286.783 190.21L287.402 186.797C287.502 186.249 288.027 185.886 288.574 185.985C289.121 186.085 289.486 186.61 289.386 187.157L288.766 190.57C288.511 191.966 288.804 193.251 289.586 194.19C290.31 195.056 291.392 195.533 292.636 195.533C295.468 195.533 298.208 193.145 298.743 190.21L299.455 186.291C299.555 185.743 300.079 185.381 300.627 185.479C301.174 185.579 301.538 186.103 301.438 186.651L300.726 190.57C300.025 194.418 296.397 197.549 292.636 197.549" fill="white"/>
<path fill-rule="evenodd" clip-rule="evenodd" d="M277.475 180.711H270.503C269.948 180.711 269.496 180.259 269.496 179.703C269.496 179.146 269.948 178.695 270.503 178.695H277.475C278.032 178.695 278.481 179.146 278.481 179.703C278.481 180.259 278.032 180.711 277.475 180.711" fill="white"/>
<path fill-rule="evenodd" clip-rule="evenodd" d="M298.26 180.711H291.29C290.733 180.711 290.281 180.259 290.281 179.703C290.281 179.146 290.733 178.695 291.29 178.695H298.26C298.817 178.695 299.269 179.146 299.269 179.703C299.269 180.259 298.817 180.711 298.26 180.711" fill="white"/>
<path fill-rule="evenodd" clip-rule="evenodd" d="M310.136 186.934C307.054 186.934 305.181 184.934 304.559 183.679C304.311 183.181 304.514 182.576 305.013 182.329C305.51 182.082 306.112 182.284 306.362 182.778C306.43 182.909 307.891 185.637 311.57 184.735C312.11 184.6 312.657 184.932 312.789 185.473C312.922 186.013 312.592 186.559 312.052 186.692C311.368 186.86 310.731 186.934 310.136 186.934" fill="white"/>
<path fill-rule="evenodd" clip-rule="evenodd" d="M356.989 136.85V136.85C362.39 136.85 366.769 141.354 366.769 146.909V149.08C366.769 154.636 362.39 159.14 356.989 159.14H345.684L356.989 136.85" fill="#FFBFAA"/>
<path fill-rule="evenodd" clip-rule="evenodd" d="M265.157 139.119C264.677 139.119 264.252 138.777 264.165 138.289L263.036 131.965C262.936 131.417 263.303 130.894 263.85 130.796C264.4 130.697 264.922 131.062 265.019 131.61L266.151 137.934C266.248 138.482 265.884 139.005 265.334 139.103C265.274 139.114 265.214 139.119 265.157 139.119" fill="white"/>
<path fill-rule="evenodd" clip-rule="evenodd" d="M308.087 139.842C307.527 139.842 306.993 139.54 306.705 139.012L304.12 134.262C303.853 133.773 304.032 133.161 304.522 132.895C305.012 132.628 305.624 132.809 305.888 133.298L308.284 137.698L309.865 136.999C310.375 136.774 310.969 137.004 311.194 137.513C311.421 138.022 311.189 138.617 310.682 138.843L308.726 139.706C308.519 139.798 308.301 139.842 308.087 139.842" fill="white"/>
<path fill-rule="evenodd" clip-rule="evenodd" d="M349.317 143.001L350.736 138.786C350.99 138.035 351.91 137.794 352.479 138.33L356.251 141.863L354.51 147.376L348.375 145.196L349.317 143.001" fill="#FFBFAA"/>
<path fill-rule="evenodd" clip-rule="evenodd" d="M357.48 144.674C356.88 144.674 356.301 144.378 355.943 143.843L354.315 141.393C354.005 140.929 354.13 140.303 354.594 139.995C355.059 139.686 355.684 139.812 355.991 140.276L357.545 142.609L358.736 142.052C359.241 141.815 359.84 142.033 360.075 142.537C360.312 143.041 360.095 143.641 359.59 143.877L358.261 144.499C358.009 144.617 357.742 144.674 357.48 144.674" fill="#001E57"/>
<path fill-rule="evenodd" clip-rule="evenodd" d="M275.403 163.844C275.051 163.844 274.709 163.659 274.524 163.331C274.252 162.846 274.422 162.231 274.909 161.958C283.384 157.18 291.116 139.383 291.193 139.204C291.413 138.693 292.005 138.457 292.517 138.677C293.029 138.897 293.264 139.49 293.044 140.001C292.719 140.758 284.961 158.605 275.898 163.714C275.741 163.802 275.571 163.844 275.403 163.844" fill="white"/>
<path fill-rule="evenodd" clip-rule="evenodd" d="M328.475 140.003C328.406 140.003 328.333 139.996 328.261 139.98L321.309 138.464C320.764 138.345 320.42 137.808 320.539 137.264C320.657 136.72 321.196 136.375 321.738 136.494L328.69 138.011C329.235 138.129 329.58 138.666 329.46 139.21C329.357 139.682 328.94 140.003 328.475 140.003" fill="#001E57"/>
<path fill-rule="evenodd" clip-rule="evenodd" d="M490.928 188.42H492.677V186.182H490.928V188.42ZM490.928 194.415H492.677V191.418H490.928V194.415ZM490.928 200.411H492.677V197.414H490.928V200.411ZM490.928 206.406H492.677V203.409H490.928V206.406ZM490.928 212.401H492.677V209.404H490.928V212.401ZM490.928 218.397H492.677V215.399H490.928V218.397ZM490.928 224.392H492.677V221.394H490.928V224.392ZM490.928 230.387H492.677V227.389H490.928V230.387ZM490.928 236.382H492.677V233.384H490.928V236.382ZM490.928 242.377H492.677V239.379H490.928V242.377ZM490.928 248.372H492.677V245.375H490.928V248.372ZM490.928 254.367H492.677V251.37H490.928V254.367ZM490.928 260.362H492.677V257.365H490.928V260.362ZM490.928 266.357H492.677V263.36H490.928V266.357ZM490.928 272.352H492.677V269.355H490.928V272.352ZM490.928 278.348H492.677V275.35H490.928V278.348ZM437.145 284.515H440.142V282.766H437.145V284.515ZM443.14 284.515H446.137V282.766H443.14V284.515ZM449.135 284.515H452.132V282.766H449.135V284.515ZM455.13 284.515H458.127V282.766H455.13V284.515ZM461.125 284.515H464.122V282.766H461.125V284.515ZM467.12 284.515H470.118V282.766H467.12V284.515ZM473.115 284.515H476.113V282.766H473.115V284.515ZM479.11 284.515H482.108V282.766H479.11V284.515ZM485.105 284.515H488.103V282.766H485.105V284.515ZM492.677 284.515H491.1V283.641H490.928V281.345H492.677V284.515V284.515Z" fill="#CFE4FF"/>
<path fill-rule="evenodd" clip-rule="evenodd" d="M346.84 284.515H349.837V282.767H346.84V284.515ZM352.835 284.515H355.832V282.767H352.835V284.515ZM358.83 284.515H361.828V282.767H358.83V284.515ZM364.825 284.515H367.823V282.767H364.825V284.515ZM370.82 284.515H373.818V282.767H370.82V284.515ZM376.815 284.515H379.813V282.767H376.815V284.515ZM382.81 284.515H385.808V282.767H382.81V284.515Z" fill="#CFE4FF"/>
<path fill-rule="evenodd" clip-rule="evenodd" d="M269.387 31.9908H272.384V30.2422H269.387V31.9908ZM275.382 31.9908H278.379V30.2422H275.382V31.9908ZM281.377 31.9908H284.374V30.2422H281.377V31.9908ZM287.372 31.9908H290.37V30.2422H287.372V31.9908ZM293.367 31.9908H296.365V30.2422H293.367V31.9908ZM299.362 31.9908H302.36V30.2422H299.362V31.9908ZM305.357 31.9908H308.355V30.2422H305.357V31.9908ZM311.352 31.9908H314.35V30.2422H311.352V31.9908ZM317.348 31.9908H320.345V30.2422H317.348V31.9908ZM323.343 31.9908H326.34V30.2422H323.343V31.9908ZM328.433 34.1445H330.182V31.1469H328.433V34.1445ZM328.433 40.1396H330.182V37.1421H328.433V40.1396ZM328.433 46.1347H330.182V43.1372H328.433V46.1347ZM328.433 52.1298H330.182V49.1323H328.433V52.1298ZM328.433 58.1249H330.182V55.1274H328.433V58.1249ZM328.433 64.12H330.182V61.1225H328.433V64.12ZM328.433 70.1151H330.182V67.1176H328.433V70.1151ZM328.433 76.1102H330.182V73.1127H328.433V76.1102ZM328.433 82.1053H330.182V79.1078H328.433V82.1053Z" fill="#CFE4FF"/>
<path fill-rule="evenodd" clip-rule="evenodd" d="M482.922 73.7613H485.919V72.0127H482.922V73.7613ZM488.917 73.7613H491.915V72.0127H488.917V73.7613ZM494.912 73.7613H497.91V72.0127H494.912V73.7613ZM500.907 73.7613H503.905V72.0127H500.907V73.7613ZM506.902 73.7613H509.9V72.0127H506.902V73.7613Z" fill="#CFE4FF"/>
<path fill-rule="evenodd" clip-rule="evenodd" d="M5.43438 46.8575H8.43194V45.1089H5.43438V46.8575ZM11.4295 46.8575H14.427V45.1089H11.4295V46.8575ZM17.4246 46.8575H20.4221V45.1089H17.4246V46.8575ZM23.4197 46.8575H26.4172V45.1089H23.4197V46.8575ZM29.4148 46.8575H32.4123V45.1089H29.4148V46.8575ZM35.4099 46.8575H38.4074V45.1089H35.4099V46.8575ZM41.405 46.8575H44.4025V45.1089H41.405V46.8575ZM47.4001 46.8575H50.3976V45.1089H47.4001V46.8575ZM53.3952 46.8575H56.3927V45.1089H53.3952V46.8575ZM59.3903 46.8575H62.3879V45.1089H59.3903V46.8575ZM65.3854 46.8575H68.383V45.1089H65.3854V46.8575ZM71.3805 46.8575H74.3781V45.1089H71.3805V46.8575ZM77.3756 46.8575H80.3732V45.1089H77.3756V46.8575ZM83.3707 46.8575H86.3683V45.1089H83.3707V46.8575ZM89.3658 46.8575H92.3634V45.1089H89.3658V46.8575ZM95.3609 46.8575H98.3585V45.1089H95.3609V46.8575ZM101.356 46.8575H104.354V45.1089H101.356V46.8575ZM107.351 46.8575H110.349V45.1089H107.351V46.8575ZM113.346 46.8575H115.61V45.1089H113.346V46.8575ZM2.19453 48.4776L0.320312 45.1089H2.43683V45.633L2.57122 45.558L3.72253 47.6276L2.19453 48.4776ZM5.1094 53.7166L3.65209 51.097L5.18009 50.2469L6.6374 52.8663L5.1094 53.7166ZM8.02402 58.9553L6.56671 56.336L8.09471 55.4859L9.55202 58.1053L8.02402 58.9553ZM10.9386 64.1943L9.48133 61.5747L11.0093 60.7246L12.4666 63.344L10.9386 64.1943ZM13.8533 69.433L12.3959 66.8137L13.9242 65.9636L15.3815 68.583L13.8533 69.433ZM16.7681 74.672L15.3106 72.0526L16.8388 71.2023L18.2961 73.8219L16.7681 74.672ZM19.6827 79.9107L18.2254 77.2913L19.7534 76.4413L21.2107 79.0606L19.6827 79.9107ZM22.5974 85.1497L21.1401 82.5303L22.6683 81.68L24.1254 84.2996L22.5974 85.1497ZM25.5122 90.3886L24.0549 87.769L25.5829 86.919L27.0402 89.5383L25.5122 90.3886ZM28.4268 95.6274L26.9695 93.008L28.4975 92.1579L29.9549 94.7773L28.4268 95.6274ZM31.3415 100.866L29.8842 98.247L31.4122 97.3967L32.8695 100.016L31.3415 100.866ZM34.2563 106.105L32.799 103.486L34.327 102.636L35.7843 105.255L34.2563 106.105V106.105Z" fill="#72ACFF"/>
<path fill-rule="evenodd" clip-rule="evenodd" d="M461.44 30.3138H357.672C357.3 30.3138 357 30.0133 357 29.6426C357 29.2722 357.3 28.9717 357.672 28.9717H461.44C461.812 28.9717 462.112 29.2722 462.112 29.6426C462.112 30.0133 461.812 30.3138 461.44 30.3138" fill="white"/>
<path fill-rule="evenodd" clip-rule="evenodd" d="M70.1227 45.9832C70.1227 47.8432 68.6147 49.3512 66.7547 49.3512C64.8947 49.3512 63.3867 47.8432 63.3867 45.9832C63.3867 44.1233 64.8947 42.6152 66.7547 42.6152C68.6147 42.6152 70.1227 44.1233 70.1227 45.9832" fill="#CFE4FF"/>
<path fill-rule="evenodd" clip-rule="evenodd" d="M23.1618 78.554C23.1618 80.414 21.6538 81.922 19.7938 81.922C17.9338 81.922 16.4258 80.414 16.4258 78.554C16.4258 76.6938 17.9338 75.186 19.7938 75.186C21.6538 75.186 23.1618 76.6938 23.1618 78.554" fill="#72ACFF"/>
<path fill-rule="evenodd" clip-rule="evenodd" d="M332.21 30.4751C332.21 33.1447 330.044 35.3087 327.377 35.3087C324.706 35.3087 322.543 33.1447 322.543 30.4751C322.543 27.8058 324.706 25.6418 327.377 25.6418C330.044 25.6418 332.21 27.8058 332.21 30.4751" fill="#CFE4FF"/>
<path fill-rule="evenodd" clip-rule="evenodd" d="M495.093 283.433C495.093 286.101 492.93 288.267 490.259 288.267C487.589 288.267 485.426 286.101 485.426 283.433C485.426 280.763 487.589 278.6 490.259 278.6C492.93 278.6 495.093 280.763 495.093 283.433" fill="#CFE4FF"/>
<path fill-rule="evenodd" clip-rule="evenodd" d="M181.129 107.809H182.877V105.334H181.129V107.809ZM181.129 113.804H182.877V110.807H181.129V113.804ZM181.129 119.799H182.877V116.802H181.129V119.799ZM181.129 125.794H182.877V122.797H181.129V125.794Z" fill="#CFE4FF"/>
<path fill-rule="evenodd" clip-rule="evenodd" d="M206.66 165.166H209.658V163.417H206.66V165.166ZM212.655 165.166H215.653V163.417H212.655V165.166ZM218.65 165.166H221.648V163.417H218.65V165.166ZM224.645 165.166H227.643V163.417H224.645V165.166ZM230.641 165.166H233.638V163.417H230.641V165.166ZM236.636 165.166H239.633V163.417H236.636V165.166ZM242.631 165.166H245.628V163.417H242.631V165.166Z" fill="#CFE4FF"/>
<path fill-rule="evenodd" clip-rule="evenodd" d="M409.263 272.268L396.613 289.846L409.198 298.106L422.018 280.306L409.263 272.268" fill="#CFE4FF"/>
<path fill-rule="evenodd" clip-rule="evenodd" d="M418.544 271.303C422.141 273.409 423.695 277.441 422.019 280.306C420.34 283.171 416.064 283.788 412.467 281.682C408.87 279.577 407.314 275.547 408.992 272.68C410.671 269.815 414.947 269.198 418.544 271.303" fill="#CFE4FF"/>
<path fill-rule="evenodd" clip-rule="evenodd" d="M403.127 294.407C402.977 294.407 402.822 294.362 402.69 294.267C402.355 294.025 402.278 293.555 402.52 293.22L414.898 276.054C415.14 275.72 415.607 275.645 415.944 275.885C416.279 276.127 416.356 276.597 416.114 276.931L403.737 294.097C403.589 294.3 403.36 294.407 403.127 294.407" fill="white"/>
<path fill-rule="evenodd" clip-rule="evenodd" d="M406.164 288.469C409.761 290.575 411.318 294.604 409.639 297.472C407.96 300.337 403.684 300.954 400.087 298.848C396.49 296.743 394.936 292.713 396.612 289.846C398.291 286.981 402.567 286.364 406.164 288.469" fill="#CFE4FF"/>
<path fill-rule="evenodd" clip-rule="evenodd" d="M401.737 287.967C401.413 287.967 401.093 287.99 400.778 288.035C399.204 288.262 397.955 289.039 397.261 290.225C396.567 291.409 396.502 292.881 397.074 294.362C397.668 295.906 398.875 297.27 400.468 298.201C403.703 300.095 407.528 299.598 408.994 297.092C409.688 295.908 409.753 294.437 409.181 292.956C408.587 291.412 407.38 290.048 405.787 289.116C404.5 288.362 403.091 287.967 401.737 287.967ZM404.518 300.842C402.941 300.842 401.265 300.405 399.712 299.495C397.826 298.391 396.392 296.76 395.675 294.902C394.935 292.986 395.04 291.055 395.97 289.469C396.896 287.88 398.53 286.846 400.563 286.551C402.537 286.269 404.66 286.718 406.543 287.822C408.429 288.927 409.863 290.558 410.58 292.416C411.32 294.332 411.217 296.263 410.288 297.849C409.144 299.803 406.948 300.842 404.518 300.842V300.842Z" fill="white"/>
<path fill-rule="evenodd" clip-rule="evenodd" d="M409.856 268.863C409.661 268.863 409.469 268.788 409.321 268.641L402.589 261.781C402.299 261.486 402.304 261.012 402.599 260.722C402.896 260.432 403.371 260.435 403.661 260.732L410.39 267.589C410.68 267.886 410.675 268.358 410.38 268.651C410.235 268.793 410.046 268.863 409.856 268.863" fill="#CFE4FF"/>
<path fill-rule="evenodd" clip-rule="evenodd" d="M416.172 267.199C416.087 267.199 416 267.184 415.915 267.154C415.527 267.012 415.325 266.582 415.468 266.195L418.348 258.284C418.49 257.894 418.92 257.695 419.309 257.834C419.697 257.977 419.896 258.406 419.756 258.796L416.876 266.707C416.766 267.012 416.477 267.199 416.172 267.199" fill="#CFE4FF"/>
</svg>
